<svg xmlns="http://www.w3.org/2000/svg" width="1em" height="1em" viewBox="0 0 128 128"><path fill="#F44336" d="M63.7 40.03c-27.77 0-38.93-27.23-38.93-27.23c-1.22-2.34-1.79-5.33-.03-7.38c.13-.15.26-.28.39-.41c2.19-2.02 5.49-.86 6.61 2.11c2.27 6.02 11.25 18.63 31.79 18.63c21.24 0 30.81-13.83 32.87-19.01c.43-1.09 1.18-2.01 2.17-2.4c1.58-.62 3.4-.2 4.66 1.26c1.76 2.04 1.3 4.28-.02 7.38c0 0-11.74 27.05-39.51 27.05zm1.01 47.94c27.77 0 38.93 27.23 38.93 27.23c1.22 2.34 1.79 5.33.03 7.38c-.13.15-.26.28-.39.41c-2.19 2.02-5.49.86-6.61-2.11c-2.27-6.02-11.25-18.63-31.79-18.63c-21.24 0-30.81 13.83-32.87 19.01c-.43 1.09-1.18 2.01-2.17 2.4c-1.58.62-3.4.2-4.66-1.26c-1.76-2.04-1.3-4.28.02-7.38c0 0 11.73-27.05 39.51-27.05zm23.26-24.35c0-27.33 27.23-38.31 27.23-38.31c2.34-1.2 5.33-1.76 7.38-.03c.15.12.28.25.41.39c2.02 2.15.86 5.4-2.11 6.5c-6.02 2.24-18.63 11.07-18.63 31.28c0 20.9 13.83 30.32 19.01 32.34c1.09.42 2.01 1.16 2.4 2.13c.62 1.56.2 3.35-1.26 4.59c-2.04 1.73-4.28 1.28-7.38-.01c0-.01-27.05-11.56-27.05-38.88zm-47.94.59c0 27.33-27.23 38.31-27.23 38.31c-2.34 1.2-5.33 1.76-7.38.03a3.78 3.78 0 0 1-.41-.39c-2.02-2.15-.86-5.4 2.11-6.5c6.02-2.24 18.63-11.07 18.63-31.28c0-20.9-13.83-30.32-19.01-32.34c-1.09-.42-2.01-1.16-2.4-2.13c-.62-1.56-.2-3.35 1.26-4.59c2.04-1.73 4.28-1.28 7.38.01c0 0 27.05 11.55 27.05 38.88z"/></svg>