<svg xmlns="http://www.w3.org/2000/svg" width="1em" height="1em" viewBox="0 0 128 128"><path fill="#F1B34F" d="M94.23 68.55s27.81-5.46 29.13 5.04c.77 6.19-1.17 17.57-11.65 26.92c-8.7 7.76-23.24 14.29-47.23 13.85c-19.55-.35-32.85-5.04-41.88-10.23C7.48 95.44 4.49 83.66 5.28 76.27c1.13-10.6 18.12-15.46 18.89-15.9l70.06 8.18z"/><path fill="#FADFB1" d="M7.32 79.1s16.04 26.62 57.78 26.76c45.19.16 59-26.83 58.25-32.28C121.93 63.13 97.85 61 97.85 61L40.39 74.54L7.32 70.91v8.19z"/><path fill="#FFF" d="M7.49 69.47s-2.6 3.12-2.14 9.07c.41 5.28 5.37 13.06 14.04 15.87c7.67 2.49 13.3-.37 21.24 2.2s15.26 10.37 25.39 9.76s15.51-7.85 22.82-8.91c10.98-1.59 16.23 1.36 24.53-6.83c9.15-9.03 9.2-17.44 9.15-19.53c-.1-4.22-3.09-6.5-3.09-6.5L18.65 68.29L7.49 69.47z"/><radialGradient id="notoBagel0" cx="64.214" cy="44.095" r="65.576" gradientTransform="matrix(1 -.00654 .00426 .652 -.186 15.766)" gradientUnits="userSpaceOnUse"><stop offset=".162" stop-color="#F1B14A"/><stop offset=".169" stop-color="#F1B049"/><stop offset=".37" stop-color="#E89825"/><stop offset=".535" stop-color="#E28810"/><stop offset=".642" stop-color="#E08308"/><stop offset=".713" stop-color="#E1860D"/><stop offset=".792" stop-color="#E5901B"/><stop offset=".877" stop-color="#EBA031"/><stop offset=".947" stop-color="#F1B14A"/></radialGradient><path fill="url(#notoBagel0)" d="M64.64 13.48C25 13.48 5.14 34.21 3.58 57.85c-.6 9.1 2.36 15.06 8.81 20.74c11.26 9.9 31.81 16.1 53.04 16.33c22.75.25 40.01-5.51 53.22-22.94c4.31-5.68 4.78-8.91 4.96-15.23c.55-19.82-17.28-43.27-58.97-43.27z"/><path fill="#FCDE8C" d="M44.31 49.96c-.45-.99 3.03-2.2 4.76-3.46c1.9-1.39 2.25-3.03 2.94-3.12c.69-.09 3.72.85 11.51.95c6.84.09 11.17-1.73 11.77-1.21c.61.52 1.47 1.99 3.38 3.9c1.65 1.65 3.55 2.77 3.64 3.38c.09.61-4.29 1.54-5.06 1.71c-.78.17-25.77.1-25.77.1s-1.46-.43-2.67-.77c-1.21-.36-4.07-.53-4.5-1.48z"/><path fill="#FFF" d="M63.78 55.93c4.41 0 6.82-1.29 9.78-2.34c3.09-1.09 5.63-1.99 5.63-1.99s-4.59-4.67-14.72-4.67s-14.54 4.76-14.54 4.76s8.66 4.24 13.85 4.24z"/><path fill="#F5E5C7" d="M37.38 29c-1.19.27-1.23 2.09-1.59 3.81c-.73 3.46.91 6.26 4.02 5.37c3.56-1.02 2.75-4.51.66-6.83c-1.22-1.34-1.87-2.63-3.09-2.35zm16.7-2.45c-.32.86-3.13 1.45-5.99 1.13c-2.12-.24-3.9-2.36-2.77-4.72c1.15-2.39 4.01-2.67 5.95-.77c1.99 1.95 3.16 3.41 2.81 4.36zM60.21 25c-.68-.14-2.91 1.77-3.4 3.9c-.56 2.38 1.04 3.36 2.36 3.5c1.63.17 2.81-1.09 2.91-2.72c.08-1.62-1.14-4.53-1.87-4.68zM25.66 50.06c.47 1.13 2.27.84 4.03.89c3.53.1 6-2 4.58-4.91c-1.63-3.33-4.93-1.9-6.83.56c-1.11 1.44-2.26 2.31-1.78 3.46zm-12.24-.17c-1.22-.06-1.73 1.69-2.53 3.26c-1.61 3.14-.77 6.28 2.46 6.24c3.7-.04 3.83-3.63 2.43-6.41c-.82-1.62-1.11-3.04-2.36-3.09zm90.68-2.45c1.21-.15 1.42-1.96 1.96-3.64c1.06-3.37-.29-6.32-3.47-5.74c-3.65.66-3.18 4.22-1.33 6.73c1.08 1.46 1.6 2.8 2.84 2.65zM38.35 65.69c-.58-.42-2.42.13-4.06.78c-3.28 1.3-4.72 4.21-2.27 6.31c2.81 2.41 5.28-.2 6.06-3.21c.46-1.75.97-3.37.27-3.88zm-5.77-3.35c.28-.56-.47-2.08-1.22-3.29c-.87-1.41-1.86-2.85-3.24-3.24c-4.44-1.25-6.04 4.41-3.06 6.22c1.09.66 2.24.7 3.51.77c1.9.08 3.74.08 4.01-.46zM22.49 46.03c-.18 1.13-5.13 2.07-7.66.54c-3.03-1.84-1.4-6.08 2.21-5.77c3.09.28 5.65 3.95 5.45 5.23zm2.56-6.17c1.17.32 4.55-2.21 5.54-4.05c.72-1.34 1.3-4.67-1.04-5.72c-2.61-1.17-4.84.55-5.5 2.7c-.84 2.84-.04 6.79 1 7.07zm20 13.79c.19.87-1.49 5.63-5.41 5.81c-2.7.12-5.04-3.51-1.67-5.86c2.56-1.77 6.95-.58 7.08.05zm3.38 7.59c-.77-.65-4.82 2.25-6.04 4.37c-.72 1.26-1.22 3.56 1.76 4.91c2.88 1.31 4.46-.9 4.82-2.7c.36-1.8.05-6.08-.54-6.58zm4.06 14.3c.99 1.85 6.12 1.05 7.34.68c1.76-.54 4.25-2.18 2.66-5.59c-1.31-2.79-4.73-2.21-6.8-.45c-1.79 1.51-3.88 4.1-3.2 5.36zm16.53-6.53c-1.06.78-.22 5.55.41 6.98c.81 1.85 3.42 2.57 5.18 1.22c2.03-1.56 1.71-4.14.41-5.54c-.99-1.05-4.97-3.43-6-2.66zm7.61-2.93c-.39.35-3.87.59-6.35-1.53c-1.43-1.22-1.39-4.11.05-5.18c1.58-1.17 3.74-.81 5.13 1.22c.87 1.25 1.62 5.08 1.17 5.49zm5.27-1.71c.7.61 5.13-.14 6.8-2.07c.91-1.06 2.21-3.33.45-4.95s-3.83-1.31-5.63.9c-1.34 1.63-2.34 5.49-1.62 6.12zm17.16-13.29c-.34 1.36-5.31 1.92-7.3.99c-2.03-.95-1.67-3.24-1.26-4.23c.41-.99 1.4-2.16 4.01-1.44c2.76.76 4.78 3.78 4.55 4.68zm-6.94 15.4c-1.11-.31-1.76 1.21-2.48 1.89c-.9.86-4.68 5.23.14 6.35c4.83 1.13 3.51-4.19 3.33-5.27c-.12-.75-.18-2.74-.99-2.97zm5.18-2.83c-.4 1.15 1.85 3.42 2.93 4.73c1.08 1.31 3.47 2.52 4.86-.09c1.4-2.61-.77-4.23-2.7-4.68c-1.93-.46-4.73-1-5.09.04zm17.26-9.28c0 .77-2.7 2.93-5.72 3.02c-2.25.07-3.92-.75-3.92-2.97c0-2.25 2.03-3.51 4.55-2.97c1.45.3 5.09 1.7 5.09 2.92zm-5.23-6.53c.23.9 2.93 1.17 4.86 1.22c1.94.05 4.32-.63 3.42-3.29c-.9-2.66-3.56-1.98-4.55-1.49c-.98.49-4.03 2.34-3.73 3.56zm-8.42-17.8c-.81 1.17.72 3.6 2.12 4.68c1.4 1.08 3.33 1.76 4.46-.14c1.13-1.89-.86-3.6-2.07-4.37c-1.22-.75-3.72-1.31-4.51-.17zm-4.55 2.21c-.53-.33-3.33.38-4.95 1.85c-1.68 1.52-2.3 3.74-.27 5.32c1.96 1.52 4.09.04 4.95-1.98c.81-1.9.87-4.82.27-5.19zm-21.89-1.26c.54-.75-.45-4.77-1.71-6.31c-1.26-1.53-2.84-2.12-4.59-.81c-1.38 1.03-1.89 3.83.09 5.27c2.15 1.58 5.62 2.66 6.21 1.85zm1.57-6.22c.67.49 3.11.14 4.77-.95s1.91-2.82.95-4.01c-1.17-1.44-3.06-.9-4.41.86c-1.18 1.53-2.16 3.47-1.31 4.1zm4.01 5.81c.54 1.44 5.95 1.13 7.52.45c1.58-.68 2.68-2.11 1.8-4.19c-.99-2.34-2.55-2.35-3.69-2.03c-2.25.64-6.16 4.36-5.63 5.77z"/></svg>