<svg xmlns="http://www.w3.org/2000/svg" width="1em" height="1em" viewBox="0 0 128 128"><path fill="#BDBDBD" d="M117.34 17.56c.12-4.96-2.09-9.62-5.95-11.85c-5.8-3.35-12.44-1.66-15.71 4l-1.53 2.59l3.44 1.95l1.33-2.33c2.22-3.85 6.58-4.98 10.43-2.76c2.49 1.44 4.12 4.35 4.03 8.32v61.58l3.97-.02V17.56z"/><radialGradient id="notoBathtub0" cx="57.779" cy="-6.697" r="5.6" gradientTransform="matrix(.9874 .0919 -.0919 .9874 7.43 73.699)" gradientUnits="userSpaceOnUse"><stop offset=".22" stop-color="#80DEEA" stop-opacity="0"/><stop offset="1" stop-color="#80DEEA" stop-opacity=".8"/></radialGradient><circle cx="64.96" cy="72.32" r="5" fill="url(#notoBathtub0)"/><radialGradient id="notoBathtub1" cx="105.614" cy="-9.612" r="6.332" gradientTransform="rotate(31.553 -38.604 45.95) scale(.9916)" gradientUnits="userSpaceOnUse"><stop offset=".261" stop-color="#80DEEA" stop-opacity="0"/><stop offset="1" stop-color="#80DEEA" stop-opacity=".8"/></radialGradient><circle cx="112.47" cy="73.52" r="5.66" fill="url(#notoBathtub1)"/><radialGradient id="notoBathtub2" cx="68.1" cy="-6.143" r="8.834" gradientTransform="matrix(.9874 .0919 -.0919 .9874 7.43 73.699)" gradientUnits="userSpaceOnUse"><stop offset=".304" stop-color="#80DEEA" stop-opacity="0"/><stop offset="1" stop-color="#80DEEA" stop-opacity=".8"/></radialGradient><circle cx="75.14" cy="73.25" r="7.89" fill="url(#notoBathtub2)"/><radialGradient id="notoBathtub3" cx="79.794" cy="-10.893" r="10.587" gradientTransform="matrix(.9874 .0919 -.0919 .9874 7.43 73.699)" gradientUnits="userSpaceOnUse"><stop offset=".261" stop-color="#80DEEA" stop-opacity="0"/><stop offset="1" stop-color="#80DEEA" stop-opacity=".8"/></radialGradient><circle cx="86.95" cy="70.12" r="9.46" fill="url(#notoBathtub3)"/><radialGradient id="notoBathtub4" cx="94.472" cy="-7.433" r="10.9" gradientTransform="matrix(.9874 .0919 -.0919 .9874 7.43 73.699)" gradientUnits="userSpaceOnUse"><stop offset=".261" stop-color="#80DEEA" stop-opacity="0"/><stop offset="1" stop-color="#80DEEA" stop-opacity=".8"/></radialGradient><circle cx="101.12" cy="74.88" r="9.74" fill="url(#notoBathtub4)"/><radialGradient id="notoBathtub5" cx="79.25" cy="-114.314" r="9.645" gradientTransform="matrix(.8557 .5011 -.5055 .8633 -27.493 119.117)" gradientUnits="userSpaceOnUse"><stop offset=".376" stop-color="#80DEEA" stop-opacity="0"/><stop offset="1" stop-color="#80DEEA" stop-opacity=".8"/></radialGradient><circle cx="97.94" cy="59.69" r="8.07" fill="url(#notoBathtub5)"/><path fill="#78909C" d="M100.53 9.89c-.6-1.22-2.31-2.16-3.44-2.16c-.79 0-1.18.5-1.71 1.41c-.52.9-.21 2.06.69 2.58l1.64.94c.9.52 2.06.21 2.58-.69c.52-.9.57-1.41.24-2.08z"/><path fill="#BDBDBD" d="M98.06 10.6c-4.32-2.49-10.18-.43-12.69 3.85c0 0 2.53 3.31 7.25 5.95s8.45 3.11 8.45 3.11c2.45-4.31 1.31-10.41-3.01-12.91z"/><path fill="#78909C" d="M99.05 25.62s-3.61-.59-8.16-3.4s-6.71-5.18-6.71-5.18c-.74-.77-1.22-1.68-.69-2.59c.52-.91 1.94-1.38 2.59-.69c0 0 1.94 2.54 6.73 5.19c5.17 2.86 8.14 3.39 8.14 3.39c1.17.27 1.22 1.68.69 2.59c-.52.91-1.9.93-2.59.69z"/><path fill="#DFECF5" d="M88.97 13.18c.43-1.51 2.8-2.56 4.43-2.76c1.58-.2 2.54.29 2.53 1.12c-.01.79-.93 1.04-1.59 1.03c-2.33-.05-3.23.46-3.63.69c-1.74.98-1.78.08-1.74-.08z"/><radialGradient id="notoBathtub6" cx="74.745" cy="-31.119" r="6.27" gradientTransform="matrix(.9874 .0919 -.0919 .9874 7.43 73.699)" gradientUnits="userSpaceOnUse"><stop offset=".376" stop-color="#80DEEA" stop-opacity="0"/><stop offset="1" stop-color="#80DEEA" stop-opacity=".8"/></radialGradient><circle cx="83.27" cy="48.95" r="6.01" fill="url(#notoBathtub6)"/><path fill="#FFF" d="M78.98 48.21c.5-.02.92-.77 1.82-1.46c.82-.62 2.01-.92 2.73-.96c.4-.02.97-.15 1.2-.57c.13-.24-.08-1.42-1.76-1.19c-1.98.27-3.72 1.57-4.16 2.75c-.28.78-.31 1.44.17 1.43z" opacity=".8"/><path fill="#EEE" d="M13.06 75.92c5.32 20.33 4.89 36.85 23.12 36.85l66.2.48c20.91-.25 14.58-27.44 19.51-37.18c-16.68 1.77-31.8 2.05-50.2.83c-13.07-.86-24.37-9.25-36.93-12.07c-8.67-1.31-18.27-3.35-26.74-.5c2.12 3.66 3.81 7.55 5.04 11.59z"/><path fill="#B7D5E5" d="M114.23 82.29c-2.66 1.54-2.83 7.53-2.54 10.72c.8 8.98-.04 14.4-4.26 16.32c-.01-.33-.07-.7-.24-1.12c-.56-1.4-1.84-2.64-3.35-2.65c-2.92-.02-3.89 1.13-5.56 2.39c-1.2.91-2.72 2.02-4.9 2.27l-48.63-.35c-1.97-.12-3.66-1.23-4.86-2.14c-1.88-1.43-2.51-1.91-4.95-2.41c-1.48-.3-2.79.65-3.34 2.05c-.31.77-.35 1.4-.19 1.91c-11.91-1.61-11.32-27.76-17.74-40.29c-2.08-4.06-5.03-3.56-4.82-3.19c1.74 3.23 3.16 6.63 4.23 10.14c5.32 20.33 4.89 36.85 23.12 36.85l66.2.48c14.95-.18 16.86-14.27 17.89-31.59c.07-1.45-4.82-.11-6.06.61z"/><path fill="#69A1BA" d="M10.41 69.03c4.95-1.03 10.06-.11 11.59.22c14.95 3.23 24.77 9.51 42.52 13.43c19.71 4.35 42.22 3.06 55.68.1c0 0 .52-3.58.97-4.95c0 0-27.73 3.6-46.03 1.35c-19.12-2.35-41.06-13.02-53.83-14.58c-9.66-1.18-12.82.78-12.82.78l1.92 3.65z"/><path fill="#BDBDBD" d="M33 105.34c-2.41-.3-2.84 2.8-2.84 2.8s-1.45-1.82-3.85-1.24c-1.47.36-1.99 2.2-1.35 2.68c1.14.86 4.95 2.78 3.81 5.5c-.44 1.06-1.65 1.37-2.81 1.89c-2.66 1.2-3.7 3.18-3.96 4.45c-.06.3-.08.77.6 1.13s1.93.7 5.12.7s5.43-.59 5.78-1.06c1.16-1.58-1-4.69 1.41-7.77c.98-1.26 1.76-1.04 4.22-1.62c.6-.14.49-1.67-.34-2.66c-.64-.77-2.63-1.15-3.9-.46c0 0 1.09-3.97-1.89-4.34z"/><path fill="#78909C" d="M39.61 110c-1.54-1.68-3.73-.82-4.12-.61c.29-.16.14-1.65.1-1.9c-.18-1.18-1.23-2.03-2.45-2.13c2.45 1.26.96 4.72.96 4.72s.72-.23 1.76-.43c1.19-.22 2.69.13 2.85 1.7c.08.75-1.22 1.02-1.68 1.16c-3.38 1-3.66 2.73-4.01 4.02c-.34 1.25.55 3.35-.12 4.61c-.88 1.66-4.34 1.73-6.9 1.38c-1.98-.27-4-1.1-4-1.1s-.12 1 .6 1.41c3.39 1.92 9.51 1.14 11.33.08c.27-.16.45-.38.51-.69c.09-.52.16-1.46-.21-2.95c-.38-1.54-.18-3.21.88-4.48c.93-1.11 1.75-1.27 4.15-1.54c1.54-.17 1.22-2.31.35-3.25z"/><path fill="#DFECF5" d="M26.48 117.41c1.4-.47 3.15-.44 2.94.63c-.12.61-.85.93-1.64 1.17c-.83.24-2.45.34-2.58-.24c-.16-.73.42-1.28 1.28-1.56z"/><path fill="#B7D5E5" d="M87.99 81.1c-7.04 0-21.7 0-39-6.67c-10.29-3.96-27.25-11.19-41.46-8.05c-1.61.35-3.19-.66-3.55-2.27c-.35-1.6.66-3.19 2.27-3.55c16.03-3.53 33.97 4.41 45 8.36c16.89 6.05 30.55 6.2 37.05 6.22c10.93-.03 21.62-.23 32.22-2.43c1.61-.34 3.18.7 3.52 2.31c.33 1.61-.7 3.18-2.31 3.52c-11.14 2.31-22.16 2.53-33.41 2.55c-.12.01-.22.01-.33.01z"/><path fill="#FFF" d="M31.2 77.94c1.24 2.33 1.37 5.09 1.18 7.72s-.66 5.26-.49 7.9c.15 2.34 2.16 6.24 2.3 7.65c.1.95-.77 1.81-1.73 1.9c-.95.09-1.87-.38-2.65-.94c-3.24-2.35-4.95-6.29-5.88-10.19c-1.26-5.3-2.6-10.34-3.27-12.08c-1.94-5.02 1.27-7.27 5.09-6.29c2.3.6 4.33 2.24 5.45 4.33z"/><path fill="#BDBDBD" d="M105.01 105.34c2.41-.3 2.84 2.8 2.84 2.8s1.45-1.82 3.85-1.24c1.47.36 1.74 2.3 1.23 2.75c-1.21 1.04-4.83 2.71-3.69 5.43c.44 1.06 1.65 1.37 2.81 1.89c2.66 1.2 3.7 3.18 3.96 4.45c.06.3.08.77-.6 1.13c-.68.36-1.93.7-5.12.7s-5.43-.59-5.78-1.06c-1.16-1.58 1-4.69-1.41-7.77c-.98-1.26-1.76-1.04-4.22-1.62c-.6-.14-.49-1.67.34-2.66c.64-.77 2.63-1.15 3.9-.46c0 0-1.09-3.97 1.89-4.34z"/><path fill="#78909C" d="M98.4 110c1.54-1.68 3.73-.82 4.12-.61c-.29-.16-.14-1.65-.1-1.9c.18-1.18 1.23-2.03 2.45-2.13c-2.45 1.26-.96 4.72-.96 4.72s-.72-.23-1.76-.43c-1.19-.22-2.69.13-2.85 1.7c-.08.75 1.22 1.02 1.68 1.16c3.38 1 3.66 2.73 4.01 4.02c.34 1.25-.55 3.35.12 4.61c.88 1.66 4.34 1.73 6.9 1.38c1.98-.27 4-1.1 4-1.1s.12 1-.6 1.41c-3.39 1.92-9.51 1.14-11.33.08c-.27-.16-.45-.38-.51-.69c-.09-.52-.16-1.46.21-2.95c.38-1.54.18-3.21-.88-4.48c-.93-1.11-1.75-1.27-4.15-1.54c-1.54-.17-1.22-2.31-.35-3.25z"/><path fill="#DFECF5" d="M107.83 117.35c-.83.7-1.61 2.08-.96 2.85c.27.32 1.15-.42 1.36-.6c.55-.49 1.02-.84 1.59-1.31c.25-.21.46-.5.39-.82c-.16-.72-1.69-.7-2.38-.12z"/><path fill="#FFF" d="M82.14 68.06c-.3.21-.61.42-.97.49s-.77-.01-1-.29c-1.78-2.17 3.71-6.54 5.8-5.69c1.38.56 1.58 2.46.27 3.09c-1.52.71-2.7 1.4-4.1 2.4z" opacity=".8"/><path fill="#FFF" d="M93.55 59.15c-.44-.07-.84-.43-1.01-.85c-.21-.54-.12-1.15.07-1.69c.46-1.31 1.54-2.41 2.86-2.84c.36-.12.74-.19 1.12-.13c.61.1 1.13.58 1.29 1.18c.42 1.59-1.24 1.72-2.12 2.48c-.63.54-.96 1.67-1.87 1.85a.97.97 0 0 1-.34 0zm-80.2 3.5c-.33 1.36 1.1 1.59 5.85 1.57c5.72-.02 9.73 1.83 9.18.59c-.4-.9-4.46-3.05-7.87-3.37c-2.08-.2-6.74-.46-7.16 1.21z"/></svg>