<svg xmlns="http://www.w3.org/2000/svg" width="1em" height="1em" viewBox="0 0 128 128"><path fill="#FFF" d="M108.69 45.31c-5.59-3.45-12.96-2.82-16.36-2.24v-3.96s2.36-.87 2.11-3.72s-6.82-3.1-6.82-3.1l-59.75-.12s-3.1.5-3.1 3.35S27 38.86 27 38.86s-.74 58.51-.99 60.12c-.25 1.61-1.98 8.06-2.48 10.16c-.5 2.11 0 3.47 1.61 4.83c1.61 1.36 11.78 9.67 33.72 10.29c21.44.61 31.36-7.56 33.34-9.3c1.22-1.06 1.98-3.1 1.61-4.59s-1.36-9.05-1.36-9.05l-.1-4.32c1.64-.13 3.69-.41 5.55-1.01c6.2-1.98 13.55-7.5 15.99-14.01c3.36-8.9 5.72-29.92-5.2-36.67zm-7.56 36.32c-3 3.06-6.59 3.6-8.8 3.7V54.54c2.26-.43 6.58-1.02 9.17.07c2.36.99 3.72 2.6 4.46 6.2c.44 2.07 1.25 14.62-4.83 20.82z" opacity=".5"/><path fill="#E0E0E0" d="M108.69 45.31c-5.59-3.45-12.96-2.82-16.36-2.24v-3.96s2.36-.87 2.11-3.72s-6.82-3.1-6.82-3.1l-59.75-.12s-3.1.5-3.1 3.35S27 38.86 27 38.86s-.74 58.51-.99 60.12c-.25 1.61-1.98 8.06-2.48 10.16c-.5 2.11 0 3.47 1.61 4.83c1.61 1.36 11.78 9.67 33.72 10.29c21.44.61 31.36-7.56 33.34-9.3c1.22-1.06 1.98-3.1 1.61-4.59s-1.36-9.05-1.36-9.05l-.1-4.32c1.64-.13 3.69-.41 5.55-1.01c6.2-1.98 13.55-7.5 15.99-14.01c3.36-8.9 5.72-29.92-5.2-36.67zm-7.56 36.32c-3 3.06-6.59 3.6-8.8 3.7V54.54c2.26-.43 6.58-1.02 9.17.07c2.36.99 3.72 2.6 4.46 6.2c.44 2.07 1.25 14.62-4.83 20.82z" opacity=".7"/><path fill="#FFF" d="m28.84 94.82l-.46 12.95l6.36 6.36l2.05 1.36l.08-11.51l-4.25-3.63z"/><path fill="#D5D5D5" d="M26.49 109.36c.08.53 5.15 5.91 15.15 9.24s22.27 3.48 33.7.83s15.75-9.47 15.75-9.47s.23-1.44-1.06-2.04s-4.39-.68-6.44 1.44c-2.01 2.08-2.2 5.38-2.2 5.38s-2.2-4.24-7.5-3.18c-5.51 1.1-7.27 6.67-7.27 6.67s-2.27-4.77-7.73-4.85c-5.45-.08-8.48 5.6-8.48 5.6s.91-6.51-5.83-8.33c-6.38-1.72-8.94 3.56-8.94 3.56s-.27-5.2-3.26-6.97c-4.07-2.43-5.89 2.12-5.89 2.12z"/><path fill="#EBC990" d="m29.63 34.02l-.1 9.86l-.03 3.77L66.27 69.9l22.61-24.86l.02-10.61z"/><path fill="#9D9D9C" d="M29.95 92.34s-1.93.11-1.48 2.63c.27 1.46 5.84 16.94 31.02 16.71c24.26-.22 29.69-15.34 29.87-16.71c.34-2.63-2.98-1.72-2.98-1.72l-56.43-.91z"/><radialGradient id="notoBeerMug0" cx="60.329" cy="13.461" r="96.225" gradientTransform="matrix(-.0172 .9999 -.7492 -.0129 71.452 -46.686)" gradientUnits="userSpaceOnUse"><stop offset=".594" stop-color="#DB8116"/><stop offset=".896" stop-color="#FDB408"/></radialGradient><path fill="url(#notoBeerMug0)" d="M58.92 50.57c-18.2.57-29.41-6.18-29.41-6.18s-.31 43.57-.23 46.24c.11 3.89 4.92 19.46 29.76 19.23c24.84-.23 29.99-15.68 29.99-19.69c0-2.18-.11-45.78-.11-45.78s-7.92 5.48-30 6.18z"/><path fill="#FFF" d="M91.73 47.06c.24 2.87 4.54.98 8.79 1.07c4.65.1 7.45 2.04 7.69-.64c.24-2.72-4.55-3.41-8.39-3.61c-2.64-.14-8.32.41-8.09 3.18z"/><path fill="#9E9E9E" d="M92.1 52.42c-.62.67-.11 4.21.21 4.45c.59.46 4.22-1.69 8.04-.42c6.22 2.06 5.46 6.18 5.83 6.1c.39-.08 1.37-6.94-3.85-9.77c-3.93-2.12-9.61-1.03-10.23-.36z"/><path fill="#FFF" d="M92.66 87.07c-.73.64-.41 2.99 2 2.95c2.72-.05 6.53-.91 9.66-4.62c2.23-2.64 2.72-7.44 1.86-7.44s-2.45 4.9-6.85 7.21c-4.04 2.12-5.9 1.22-6.67 1.9z"/><path fill="#9E9E9E" d="m92.17 93.56l.2 4.66s7.47.42 14.98-5.62c9.2-7.39 9.07-21.6 9.03-21.62c-.1-.05-2.95 12.44-10.98 18.22c-6.48 4.67-13.23 4.36-13.23 4.36z"/><path fill="#FFE265" d="M62.69 61.89c-1.03 1.64-.59 3.25.23 3.72c1.01.58 2.55-.09 3.29-1.62c.65-1.34.65-2.81-.57-3.38c-.96-.45-2.05-.16-2.95 1.28zm-8.34 10.04c-1.07.85-.65 2.16.06 3.09c.76 1 2.21 1.42 3.01.71c.77-.69.71-2.13-.11-3.18c-.69-.87-1.99-1.39-2.96-.62zm-1.24 9.38c-1.99.06-2.21 2.01-2.07 2.84c.1.57.62 1.81 2.5 1.76s2.1-2.04 1.99-2.75c-.13-.71-.66-1.9-2.42-1.85zm6.29 1.48c-.97.03-1.88.92-1.62 2.35c.26 1.39 1.19 1.73 1.99 1.62c.76-.11 1.56-.85 1.45-2.13c-.12-1.27-.97-1.87-1.82-1.84zm4.1 6.97c-1.18 0-1.95 1.26-1.91 2.68c.04 1.42.92 3.16 2.64 2.96c1.22-.14 1.87-2.15 1.58-3.33c-.28-1.18-1.09-2.31-2.31-2.31zm-6.91 6.57c-1.34.4-.91 2.7-.73 3.25c.24.73.89 2.11 2.36 1.79s1.18-2.27.65-3.49c-.42-.97-1.06-1.91-2.28-1.55z"/><path fill="#FADFB1" d="M29.79 22.76c-.32.32-6.26 1.11-6.1 6.5c.16 5.39 5.95 7.21 8.24 8.01c2.3.79 7.37 1.66 8.88 6.66c1.51 4.99 1.75 7.35 4.12 8.01c2.85.79 4.77-3.32 6.18-5.63c1.51-2.46 2.93-4.6 5.31-4.91s16.09 0 24.02-1.98s14.37-6.49 14.03-13.08C94 17.21 81.4 18.16 81.4 18.16S76.44 5.73 63.16 4.13c-16.41-1.98-20.13 8.32-20.13 8.32s-6.06-1.62-10.54 2.46c-3.67 3.34-2.7 7.85-2.7 7.85z"/><path fill="#FFF" d="M44.69 17.13c-.77.5-5.49-2.81-9.08.92c-3.03 3.16-.75 6.13-1.7 7.32c-1.3 1.62-5.93.99-5.61 4.39c.32 3.41 4.97 3.76 7.38 4.47c2.27.66 4.55 1.65 6.73 3.56c2.27 1.99 1.49 7.16 3.82 7.64c2.3.48 2.76-4.64 5.7-6.86c2.93-2.22 4.98-2.01 12.43-2.42c7.44-.41 25.98-.8 25.29-9.2c-.55-6.74-8.48-4.2-10.86-5.39c-2.38-1.19-5.2-11.64-16.73-13.24c-11.98-1.65-16.09 7.99-17.37 8.81zM32.5 42.64c-.34 1.91-.54 46.26-.54 46.26s-.2 3.46 2.79 3.87c2.79.39 3.8-2.25 3.87-4.03c.08-1.78.46-41.53.39-43.31s-1.78-3.8-3.49-4.34s-2.79.24-3.02 1.55z"/></svg>