<svg xmlns="http://www.w3.org/2000/svg" width="1em" height="1em" viewBox="0 0 128 128"><path fill="#8BC029" d="M75.58 64.51s7.51 2.63 8.63-1.31c1.13-3.94-.56-16.52-.19-20.84s.38-11.83 9.95-11.83s10.7 7.7 10.89 14.08c.19 6.38 1.65 20.87-5.93 30.29c-4.34 5.4-12.46 8.37-18.85 9.13c-6.38.75-12.95 9.73-12.95 9.73l-15.21 6.23s-10.6-.15-19.71-7.88C22.4 83.79 23.33 68.4 22.4 59.2s-3.89-22.28 10.38-23.4C47.05 34.66 44.05 55.31 43.3 60c-.75 4.69-1.13 17.64 3.38 19.71c4.5 2.06 14.83-2.44 14.83-2.44l14.07-12.76z"/><path fill="#59951B" d="M92.01 35.51c-1-1-2.35 3.75-2.25 6.66c.09 2.91 1.31 20.84-1.88 23.74c-3.19 2.91-5.16 3.28-10.32 3.28S54.19 87.03 52.12 87.03s-6.48-.09-9.29-3c-2.82-2.91-4.41-7.32-4.5-14.73s-.38-19.05-.47-20.93c-.09-1.88-.56-6.38-2.16-6.66s-.38 3.19-.38 5.16c0 1.97.24 21.48.28 23.74c.09 4.6 1.97 12.58 5.26 15.11c3.28 2.53 7.23 3.85 10.79 3.57c3.57-.28 23.46-17.64 25.81-17.74c2.35-.09 8.74.52 12.48-4.22c3.85-4.88 2.63-18.02 2.53-21.68c-.09-3.67-.09-9.77-.46-10.14z"/><path fill="#59951B" d="M31.38 42.55c.07-1.6-3 2.06-3.1 7.6c-.08 4.51.75 21.57 1.5 25.81c.84 4.79 3.21 10.86 7.98 15.02c3.66 3.19 8.92 4.22 13.14 4.22s12.01-2.63 16.52-6.85s7.7-9.67 10.42-9.57c2.72.09 11.36-.19 15.96-5.63s6.57-16.05 6.19-24.87c-.35-8.18-.67-13.07-2.35-12.76c-1.03.19-.19 5.63 0 9.95s0 13.89-1.69 18.86c-1.69 4.97-5.26 10.7-12.39 11.83c-7.13 1.13-8.63.09-8.63.09S69.11 84.5 64.6 87.69s-11.64 4.97-13.7 5.07c-2.06.09-8.26-1.31-11.26-3.75c-3.09-2.51-6.58-6.94-7.41-12.48c-.77-5.12-1.5-19.19-1.69-24.59c-.14-3.85.75-7.33.84-9.39z"/><path fill="#8BC029" d="M64.6 7.73c-8.9-.54-17.46 8.26-16.89 22.34s1.88 15.67 1.97 30.78s1.22 35.19 1.41 41.39S51 117.73 57 121.48c6.01 3.75 15.2 1.88 18.21-2.06c3-3.94 2.72-10.51 2.63-18.58c-.09-8.07-.19-21.87-.47-26.65s2.25-39.79 2.44-44.67c.18-4.63.37-20.85-15.21-21.79z"/><path fill="#59951B" d="M59.91 11.86c-1.46 0-5.73 6.01-6.01 12.11s-.56 19.71-.19 27.5s1.24 29.55 1.5 36.6l.84 22.81c.09 2.44 1.07 10.18 3.19 9.39c.75-.28-.19-11.73-.66-22.71c-.45-10.5-1.5-35.57-1.69-44.3s-.84-23.65-.09-28.53c.75-4.88 1.6-7.7 2.35-9.2c.76-1.51 2.17-3.67.76-3.67zm11.83 108.02c1.68-.61 2.63-3.66 2.63-8.63c0-4.97-.19-24.5-.19-33.79s.84-28.25.84-35.66s0-17.83-.84-21.77c-.75-3.48-3-7.7-4.79-7.79c-1.78-.09 1.97 4.41 2.25 9.85c.43 8.29.28 19.24.09 36.32s.38 30.5.28 38.86c-.09 8.35.15 12.2 0 17.46c-.09 3.28-1.31 5.53-.27 5.15zM64.51 12.33c-1.41-.07-2.35 8.73-2.16 13.98c.19 5.26.75 29.56.94 33.88s.66 35.66.66 42.52c0 6.85.28 13.14.38 15.11c.09 1.97-.09 3.28 1.41 3.38c1.5.09 1.22-1.97 1.22-3.57s-.09-9.67-.09-15.02s-.47-34.35-.56-42.89c-.09-8.54-.09-26.47-.09-33.69s.07-13.61-1.71-13.7z"/><path fill="#FFBF1B" d="M64.51 5.66s2.06-2.25 2.72-1.88s-1.22 4.88-2.35 5.16c-1.13.28-3.57-3.85-2.91-4.22c.66-.37 2.54.94 2.54.94zm10.14 7.98c.81 1.22 5.44-.09 5.07-1.03c-.52-1.31-2.72-.84-2.72-.84s.28-3-1.03-3c-.95-.01-1.89 4.03-1.32 4.87zM52.59 7.82c-.8.23-.19 2.63-.19 2.63s-2.44-.47-2.53.47c-.09.94 3.57 3 4.69 1.78c1.13-1.22-.82-5.22-1.97-4.88z"/><path fill="#FFE068" d="M45.74 23.45c-.56.99 1.69 2.86 1.69 2.86s-2.72 1.88-2.16 2.63s5.35-.84 5.4-2.39c.04-1.55-4.41-4.01-4.93-3.1zm24.21-.09c-.52-.17-3.66 4.08-2.58 5.3c1.08 1.22 5.68-.94 5.63-1.6s-2.82-.84-2.82-.84s.2-2.72-.23-2.86zM52.08 45.84c.16 1.35-4.79 3.94-5.4 2.96s1.97-3.1 1.97-3.1s-1.86-2.45-1.5-3.1c.48-.84 4.75 1.69 4.93 3.24zm25.94-3.43c-.67-.31-4.32 2.58-3.99 4.5c.33 1.92 5.63.89 5.63.28s-2.67-1.69-2.67-1.69s1.64-2.81 1.03-3.09zM56.25 56.77c-.33.29 1.74 2.91 1.74 2.91s-2.53 2.02-2.25 2.72c.28.7 5.44 0 5.54-2.35c.08-2.17-4.28-3.94-5.03-3.28zm-8.69 12.17c-.19.45 1.97 2.82 1.97 2.82s-2.49 2.86-1.92 3.47c.56.61 5.3-1.22 5.49-3.1s-5.12-4.22-5.54-3.19zm25.49-.82c.23 2.49 4.88 2.82 5.26 2.02c.29-.61-2.25-2.25-2.25-2.25s1.95-2.6 1.6-3c-.62-.71-4.78 1.41-4.61 3.23zM51.08 84.43c-.44.56 1.83 2.86 1.83 2.86s-3.23 1.56-2.91 2.44c.23.66 5.47.49 5.96-1.55c.75-3.14-4.55-4.17-4.88-3.75zm14.77 15.21c.03 1.84 5.3 2.86 5.68 2.21c.38-.66-2.72-2.91-2.72-2.91s2.16-2.77 1.83-3.38c-.33-.61-4.84 1.55-4.79 4.08zm9.83-10.16c.19 2.11 5.65 3 5.77 2.02c.09-.75-2.58-2.39-2.58-2.39s1.83-1.92 1.41-2.63c-.42-.7-4.73 1.5-4.6 3zm-19.8 19.38c.19 2.02-3.8 4.04-4.13 3.52c-.45-.7 1.55-3.61 1.55-3.61s-2.16-2.77-1.88-3.24c.44-.75 4.27 1.31 4.46 3.33z"/><path fill="#FFBF1B" d="M79.97 103.32c.23.72-1.55 3.19-1.55 3.19s3.05 2.21 2.58 2.91c-.47.7-4.88.05-5.35-2.21c-.47-2.24 4.03-4.78 4.32-3.89zM95.35 30s-1.84-2.3-2.67-1.77c-.48.31.72 4.26 2.75 4.3c2.03.04 3.22-4.38 2.39-4.57c-.67-.15-2.47 2.04-2.47 2.04zm10.02 5.36s.32-2.36-.04-2.76c-.36-.4-3.23 3.24-2.28 4.87c.96 1.64 5.43-.92 5.11-1.44c-.32-.51-2.79-.67-2.79-.67zM84.3 35.2s-2.74.85-2.74 1.58c0 .72 4.31 1.66 5.4-.17c1.09-1.83-2.7-4.56-3.13-4.17c-.44.37.47 2.76.47 2.76zm17.66 32.27c-.38 1.61 3.05 4.88 3.8 4.36c.41-.28-1.08-3.66-1.08-3.66s2.72-1.08 2.67-1.55s-4.97-.94-5.39.85z"/><path fill="#FFE068" d="M104.21 53.67c-.03 1.4 5.16 2.25 5.44 1.69c.28-.56-2.16-2.63-2.16-2.63s1.88-2.39 1.31-2.82s-4.54 1.6-4.59 3.76zM24.14 55.2c.1 1.31-3.75 3.43-4.22 2.82s1.31-2.77 1.31-2.77s-2.3-1.5-1.74-2.25c.56-.76 4.5.42 4.65 2.2zm1.14 6.87c-.29.45 1.64 2.44 1.64 2.44s-1.88 2.53-1.36 3.05c.52.52 3.9-1 3.8-3.28c-.09-2.16-3.66-2.87-4.08-2.21z"/><path fill="#FFBF1B" d="M33.44 34.14s-1.88-2.18-2.44-2.1c-.8.12-.09 4.55 2.25 4.55c2.35 0 3.19-4.32 2.67-4.55c-.5-.23-2.48 2.1-2.48 2.1zm7.37 6.25c1.27 1.55 5.44-1.13 5.26-1.64c-.19-.52-3-.42-3-.42s.38-2.49-.47-2.77c-.85-.29-2.85 3.53-1.79 4.83zM25 41c-.75 1.5-4.55.7-4.74-.05c-.19-.75 2.3-1.41 2.3-1.41s-.75-2.35-.33-2.63c.42-.27 3.92 1.78 2.77 4.09zm1.65 35.97c.64 1.55-2.35 4.55-2.91 3.99c-.33-.33.33-3.1.33-3.1s-2.52-1.03-2.39-1.45c.14-.47 4.22-1.27 4.97.56z"/></svg>