<svg xmlns="http://www.w3.org/2000/svg" width="1em" height="1em" viewBox="0 0 128 128"><path fill="#BDBDBD" d="M38.42 78.77c5.97-2.61 28.73-6.41 29.91-13.89c1.91-12.04-17.87-12.89-26.62-13.39c-10.32-.58-18.8-4-25.62-10.34c-9.8-8.6-13.95-29.48-1.61-37.32c0 0-.63 10.39 6.98 14.37c18.82 9.84 42.26-.56 61.93 6.9c10.99 4.04 17.66 15.67 13.88 26.95c-2.26 10.74-16.98 20.54-31.06 22.71c-18.68 2.87-27.79 4.01-27.79 4.01z" opacity=".5"/><path fill="#EEE" d="M118.59 119.9H18.16V96.78h100.43s5.41 1.95 5.41 11.56s-5.41 11.56-5.41 11.56z"/><linearGradient id="notoCigarette0" x1="71.08" x2="71.08" y1="126.585" y2="112.254" gradientUnits="userSpaceOnUse"><stop offset="0" stop-color="#BDBDBD"/><stop offset="1" stop-color="#BDBDBD" stop-opacity="0"/></linearGradient><path fill="url(#notoCigarette0)" d="M118.59 119.9H18.16V96.78h100.43s5.41 1.95 5.41 11.56s-5.41 11.56-5.41 11.56z"/><path fill="#F19534" d="M118.59 96.78H92.77s5.41 1.95 5.41 11.56s-5.41 11.56-5.41 11.56h25.82s5.41-1.95 5.41-11.56s-5.41-11.56-5.41-11.56z"/><path fill="#FFCC80" d="M123.57 112.62c-.01-.06-.09-.35-.58-.77c-.49-.42-1.08-.67-1.73-.6c-.2.02-.4.07-.55.2c-.26.21-.33.57-.28.9c.05.32.94 1.86 1.07 5.12c.81-1.11 1.6-2.67 2.07-4.85zm-17.41-3.08c.41.4.82.85.9 1.42c.09.64-.26 1.25-.65 1.76c-.44.56-.94 1.07-1.51 1.5c-.21.16-.45.32-.71.31c-.51-.02-.76-.63-.87-1.13c-.43-1.82-.76-3.66-1-5.52c-.02-.17-.04-.36.07-.49c.73-.93 3.36 1.76 3.77 2.15zm8.1-2.28c.58-.34 1.13-.74 1.55-1.26c.42-.53.68-1.19.61-1.86c-.02-.19-.08-.4-.24-.5c-.17-.1-.38-.05-.57 0c-1.27.35-2.52.77-3.74 1.27c-.17.07-.35.15-.48.29c-.13.14-.19.34-.25.52c-.14.51-.21 1.03-.23 1.55c-.07 2.13 2.43.54 3.35-.01zm-7.05-6.6c-.05.35-.41.57-.73.72c-.84.37-1.76.61-2.67.55c-1.21-.07-4.43-2.36-1.96-2.63c.9-.1 5.5.33 5.36 1.36zm3.48 12.94c.45-.32 1.2-.06 1.65.28c1.76 1.34 2.19.84 3.4.42c1.34-.47 1.24.48.72 1.25c-.59.88-3.01 2.49-4.35 2.18c-.83-.18-1.9-3.78-1.42-4.13zm13.31-5.7c-.06-3.73-1-6.42-2.02-7.96c-.2.03-.4.11-.6.24c-.51.35-1.46 2.66-1.35 3.13c.21.93 3 3.59 3.97 4.59zm-11.95-9.18c1.06 1.21 1.85.19 2.06-.27c.24-.53.27-1.11.18-1.67h-4.49c.66.5 1.33.88 2.25 1.94zm-12.52 18.95c.87-.61 2.15-.8 2.86.01c.67.76 1.27 1.65 2.03 2.22h-6.36c.54-1.06 1.08-1.96 1.47-2.23z"/><path fill="#607D8B" d="M24.56 104.89c-.6-.82-1.71-1.21-2.15-2.12c-.57-1.17.23-2.62-.21-3.85c-.45-1.28-1.97-1.75-3.29-2.05c-.82-.19-1.81-.18-2.61.08c-.31.1-.61.24-.93.34c-1.28.41-2.6-.01-3.91.15c-.81.1-1.64.39-2.14 1.03c-.27.35-.43.78-.7 1.13c-.51.63-1.36.72-2 1.18c-.61.44-1.29.87-1.6 1.59c-.5 1.16.18 2.5-.05 3.74c-.13.69-.52 1.29-.75 1.95c-.03.09-.06.18-.08.27c-.29 1.09-.12 2.3.47 3.26c.54.86 1.39 1.53 1.73 2.49c.3.85-.02 1.78.29 2.62c.28.76 1.09 1.17 1.85 1.3c1.52.25 3.01.47 4.51.9c.86.25 1.67.66 2.51.95c1.78.62 4.07.29 5.74-.57c.67-.35 1.23-1 1.25-1.75c.01-.22-.03-.45.04-.66c.08-.25.29-.42.46-.62c.59-.73.5-1.8.29-2.72c-.21-.92-.5-1.89-.2-2.78c.18-.55.56-1 .89-1.48c.46-.64.84-1.35 1-2.12c.02-.09.03-.18.04-.28c.09-.69-.04-1.42-.45-1.98z"/><path fill="#F44336" d="M7.74 115.15c.23 1.79 3.96 2.86 3.61.36c-.22-1.51-1.13-1.79-1.57-2.66c-.37-.53-.49-.95-.12-1.5c.47-.97.8-2.41.04-3.17c-1.48-1.36-3.78.26-2.9 2.11c.37.79 1.66.95 1.96 1.78c.41 1.2-1.33 1.8-1.02 3.08zm6.58-14.71c.33.8.07 2.02.31 2.76c.46 1.44 2.02 1.2 2.75 3.29c.45 1.29.65 3.28-.79 4.73c-.45.45-1.21.63-1.53.37c-.93-.69-.94-1.76-.61-3.25c.07-.31-.15-.33-.24-.45c-.68-.39-1.22-.97-1.08-1.81c.21-1.26 1.41-1.8 1.05-2.87c-.23-.7-.7-1.19-1.54-1.16c-.62.02-.52.57-1.35.94c-.58.26-1.36-.64-1.97-.4s.07 2.25-1.24 2.79c-.5.21-1-.29-1.22-.74c-.37-.7-.13-1.93.62-2.33c.63-.35 1.16.25 1.77-.15c.61-.4.47-2.11 1.24-2.82c1.53-1.24 3.32-.54 3.83 1.1z"/><path fill="#BDBDBD" d="M16.32 79.77c7.03-9.07 18.67-11.58 28.99-15.12c3.79-1.3 10.04-3.62 9.08-7.71c-1.41-6.02-13.08-5.23-17.65-6.04c-10.75-1.9-20.2-6.76-25.75-16.16c-4.61-7.23-7.59-23.62 3.49-30.9c0 0-6.94 9.97 6.78 22.71C36.6 40.8 62.11 30.32 79.45 41.52c20.72 14.59 2.35 30.82-16.39 33.72c-8.43 1.31-16.89 2.42-25.3 3.63c-10.92 1.56-19.36 3.92-25.49 13.68c-.58-4.63 1.15-9.08 4.05-12.78z" opacity=".5"/><path fill="#424242" d="M19.87 97.96c.82.44 1.61 1.26 1.45 2.17c-.07.42-.33.77-.49 1.17c-.4.99-.09 2.22.72 2.91c.71.59 1.76.84 2.14 1.68c.37.81-.1 1.76-.7 2.43c-.79.89-2.08 1.91-2 3.23c.04.65.33 1.25.67 1.8c.16.25.33.5.41.79c.08.29.06.62-.14.84c-.16.17-.4.24-.6.37c-.49.33-.62.99-.64 1.58c-.02.55.09 1.6-.3 2.05c-.33.39-2.1.92-2.6.92c1.3 0 3.77.53 4.42-.99c.13-.3.16-.63.29-.92c.34-.8 1.24-1.18 1.88-1.76c.6-.55.99-1.33 1.08-2.14c.06-.58-.03-1.17-.01-1.76c.04-1.63 1.31-1.81 2.25-2.89c.45-.51.71-1.17.78-1.85c.06-.51.02-1.03-.12-1.53c-.32-1.15-1.11-2.13-2.05-2.86c-.9-.7-2.07-1.36-2.16-2.5c-.03-.36.07-.72.09-1.09c.08-1.7-1.66-2.03-2.7-2.46c-1.04-.43-3.85-.38-3.85-.38c.63.53 1.45.8 2.18 1.19z"/><linearGradient id="notoCigarette1" x1="108.387" x2="108.387" y1="126.585" y2="112.254" gradientUnits="userSpaceOnUse"><stop offset="0" stop-color="#A15D38"/><stop offset="1" stop-color="#A15D38" stop-opacity="0"/></linearGradient><path fill="url(#notoCigarette1)" d="M118.59 96.78H92.77s5.41 1.95 5.41 11.56s-5.41 11.56-5.41 11.56h25.82s5.41-1.95 5.41-11.56s-5.41-11.56-5.41-11.56z"/></svg>