<svg xmlns="http://www.w3.org/2000/svg" width="1em" height="1em" viewBox="0 0 128 128"><path fill="#E4EAEE" d="M23.45 62.3c.72-.72-1.27-9.29 7.6-15.91s14.92-2.67 15.77-2.96c.84-.28 4.79-17.6 21.4-22.1s33.93 3.94 38.01 18.02c3.73 12.87.84 21.54 1.27 22.1c.42.56 8.45.28 13.09 7.74s2.96 12.11 2.96 12.11l-29.56 9.15h-47.3S5.02 79.47 4.6 77.5c-.42-1.97.53-8.37 7.32-12.25c5.9-3.37 10.26-1.68 11.53-2.95z"/><path fill="#BACDD2" d="M35.16 92.84s-15.78 3.3-26.45-4.96C2.29 82.9 4.63 74.83 4.63 74.83s4.6 4.65 13.89 5.91c9.29 1.27 19.71.84 19.71.84s2.6 4.44 12.39 6.48c12.27 2.55 18.74-3.73 18.74-3.73s3.36 4.02 15.19 4.3c11.83.28 18.46-7.98 19.57-8.17c.56-.09 3.82 2.87 10.28 1.83c6.15-.99 9.39-3.66 9.39-3.66s.89 6.62-5.3 10.7c-4.83 3.18-13.23 3.52-13.23 3.52s-1.28 4.91-7.05 8.48c-5.36 3.33-14.6 4.44-21.44 2.4c-8.59-2.56-10.72-6.47-10.72-6.47s-6.4 3.75-16.4 2.48c-9.45-1.18-14.49-6.9-14.49-6.9z"/></svg>