<svg xmlns="http://www.w3.org/2000/svg" width="1em" height="1em" viewBox="0 0 128 128"><path fill="#65A21B" d="m68.55 55.14l-6.77 2.04s.43 3.76-.32 9.14c-.75 5.37-2.26 13.97-.75 25.26c1.5 11.29 6.99 17.41 10.86 21.6c1.55 1.68 5.7 4.84 6.45 6.56c.75 1.72 2.04 4.19 3.87 4.19s4.62-2.26 5.05-5.7c.43-3.44-5.05-3.01-10.86-9.35c-5.33-5.82-9.24-12.58-10-21.39c-.75-8.81.43-17.3.97-20.64c.54-3.33 1.5-11.71 1.5-11.71zm8.48-49.51c2.27-1.13 9.71-2.91 14.65 2.1s3.72 11.25 4.94 12.14c1.21.89 8.66-.57 13.84 4.61s3.64 13.91 1.37 16.1c-2.27 2.19-24.44-13.51-24.44-13.51L77.03 5.63zM29.44 19.71s.73-7.36 4.53-11.25c3.4-3.48 8.91-4.86 13.99-2.67c6.56 2.83-7.11 23.63-7.11 23.63L16.41 41.48s-5.75-7.8-.16-15.94c4.77-6.96 13.19-5.83 13.19-5.83zM18.76 58.98c-2.35 1.46-7.25 8.49-2.6 15.93c4.05 6.47 9.79 6.31 9.79 6.31S24.49 89.8 30 94.65c5.34 4.71 14.02 3.16 16.53 1.62c2.99-1.83-5.2-26.38-5.2-26.38L18.76 58.98z"/><path fill="#65A21B" d="M92.32 72.48S73.05 87.21 75.76 91.4c3.05 4.73 14.44 6.53 19.64 2.28c6.23-5.1 4.05-10.28 5.1-11.49c1.05-1.21 5.83-1.38 8.09-6.23c2.27-4.86 1.78-10.67-1.06-14.15c-2.83-3.48-15.21 10.67-15.21 10.67z"/><path fill="#8BC02B" d="M63.18 43.37c3.32-.24 1.59-9.05 1.86-16.11c.45-11.81 3.71-15.71 6.71-18.52c2.85-2.67 7.36-3.96 8.38-4.15c1.6-.29 5.75 2.56 8 7.87c1.93 4.56 1.78 10.3 3.41 11.7s9.18-.99 14.99 4.36c5.81 5.35 5.77 10.21 5.77 11.29c0 1.08-3.56 5.5-9.61 7.32c-7.49 2.26-20.61 1.28-24.63 1.2s-7.05.31-6.97 2.09c.08 1.78 4.96 1.32 8.91 1.24s13.31 1.01 20.53 4.26c6.97 3.14 8.6 7.63 9.22 10.69c.54 2.67-1.08 6.27-3.87 7.98c-2.79 1.7-8.87 1.55-10.23 3.14c-1.86 2.17.85 8.99-5.5 13.17s-12.42 2.41-13.72 1.31c-4.87-4.14-6.04-9.4-6.97-17.23c-.93-7.82-1.55-16.19-4.96-16.19s-5.19 9.84-6.66 18.28s-5.35 18.24-13.71 20.1c-6.06 1.35-11.7-5.04-12.08-9.41c-.4-4.57.29-9.13-.85-10.81c-1.39-2.05-8.39.02-12.55-6.31c-3.64-5.54-2.09-9.33-1.32-10.34c.74-.96 4.34-5.69 13.4-7.17s26.26 1.12 26.49-2.09c.23-3.21-13.94-2.67-18.59-2.67s-14.27.37-19.06-3.49c-3.64-2.94-4.72-5.9-4.94-6.83c-.35-1.45.63-7.91 5.89-11.12c6.54-4 11.76-1.25 13.31-2.33c1.55-1.08-1.24-6.32 3.34-13.01c3.56-5.19 9.71-6.2 10.46-5.89c3.14 1.27 7.03 3.8 9.82 9.45s3.72 12.08 3.72 16.81s-.7 11.6 2.01 11.41z"/><path fill="#BDCE46" d="M82.84 31.22s2.33-3.96-.51-5.81c-3.29-2.14-5.75 1.31-5.75 1.31s-.38-2.81-3.19-2.84c-2.01-.02-3.13 1.92-3.22 5.27c-.1 3.35.67 4.64 2.3 4.98c2.27.48 3.1-1.5 3.1-1.5s-.03 1.56 1.53 2.65c1.56 1.09 3.19-.26 3.19-.26s-1.4 2.11-.19 3.42c.99 1.06 2.71.35 2.71.35s-2.91 2.62-1.6 4.37c1.31 1.76 4.09 1.79 5.97 1.28s4.28-2.39 3.83-5.4s-5.24-2.38-5.24-2.38s2.59-3.14 1.12-4.95c-1.72-2.14-4.05-.49-4.05-.49zm1.33 24.69c-.51 1.42 1.28 3.17 1.28 3.17s-1.43.08-1.9 1.08s.12 2.4.12 2.4s-2.53-1.51-4.53-.08c-1.78 1.28-1.01 4.18-1.01 4.18s-1.82-2.13-4.18-.89c-1.63.85-1.78 3.91-1.35 6.35c.43 2.44 1.94 5.03 4.57 4.53s2.36-5.77 2.36-5.77s3.68 3.74 6.23 1.51c2.13-1.86.5-4.57.5-4.57s1.2.5 2.13-.39c.93-.89.08-2.32.08-2.32s3.29 1.43 4.03-.89s-1.7-3.48-1.7-3.48s1.59.19 1.39-1.97c-.22-2.37-6.63-6.77-8.02-2.86zm-37.15 8.53s1.26-1.23.75-3.89c-.63-3.26-5.14-4.14-6.89-4.01c-1.75.13-3.89.5-3.82 2.95c.05 1.82 1.63 2.26 1.63 2.26s-1.75 1.03-1.25 3.2c.75 3.26 6.02 2.26 6.02 2.26s-3.26 2.82-1.38 5.58c1.88 2.76 5.45.63 5.45.63s-1.06 2.96 1.07 3.76c2.01.75 3.67-.66 4.89-3.13c1.17-2.37 1.33-6.15-.63-8.02c-2.83-2.72-5.84-1.59-5.84-1.59zm-1.3-38.24c-2.6 1.88-1.38 5.51-1.38 5.51s-2.38-.5-3.01 1.19c-.63 1.69.94 2.51.94 2.51s-2.32-.56-2.82 1.32c-.5 1.88 1.19 2.69 1.19 2.69s-2.43.32-2.63 2.88c-.13 1.57 1.25 3.89 5.01 3.95c3.76.06 5.51-.25 5.64-2.07c.13-1.82-1.88-2.69-1.88-2.69s1.64-.31 1.69-2.01c.06-2.26-2.01-3.07-2.01-3.07s2.56 1.26 4.57.19c2.82-1.5 1.5-4.57 1.5-4.57s.94 2.63 3.01 2.26c1.59-.29 2.95-2.13 2.69-5.45s-1.75-4.28-3.32-4.32c-2.07-.06-2.82 2.82-2.82 2.82s-2.73-3.77-6.37-1.14z"/></svg>