<svg xmlns="http://www.w3.org/2000/svg" width="1em" height="1em" viewBox="0 0 128 128"><path fill="#8E4D2F" d="m107.44 37.94l8.01-.82s1.98 6.46 3.65 10.04c1.66 3.59 4.61 7.04 4.61 7.04s-.77 13.19-2.69 26.77s-7.06 18.26-8.69 20.65c-2.14 3.13-6.44 7.41-8.23 10.87s-3.05 4.98-3.82 5.11c-.77.13-8.69 2.39-13.3 3.29c-4.61.9-15.31 3.46-15.31 3.46s-8.53-1.88-10.58-2.14c-2.05-.26-4.74.64-5.38.13s-6.4-4.74-11.65-7.04s-9.48-2.82-9.99-3.84c-.51-1.02-1.41-4.1-3.2-6.53c-1.79-2.43-3.52-4.06-3.52-4.06l7.37-21.17l72.72-41.76zM20.95 52.03s1.07-3.42-5.99-7.06c-4.44-2.29-8.56-1.71-8.56 0s3 .64 6.42 4.92s6.42 10.06 6.42 10.06l1.71-7.92zm6.29-13.62s1.41-2.72 1.31-5.06c-.09-2.34-1.87-4.12-1.03-5.16c.84-1.03 4.03 1.69 4.78 4.12c.92 3.01.84 4.41.84 4.41l-4.87 4.12l-1.03-2.43zm52.4-22.57s-2.06-1.5-1.97-6.09c.06-3 .66-5.34 1.69-5.25c1.03.09 1.31 2.16 2.44 5.53c1.12 3.37 4.5 6.94 4.5 6.94l-6.66-1.13zm25.87 10.12s-.28-6.47.37-9.84c.52-2.65 2.16-4.12 3.09-3.47c.58.41-.28 1.22.28 6.66c.29 2.82 1.78 13.31 1.78 13.31l-5.52-6.66zM17.94 85.14s-1.5-1.12-6.09-2.53c-2.33-.71-7.89-1.43-7.78 0c.09 1.22 1.87 1.22 7.5 4.12c5.62 2.91 10.12 7.69 10.12 7.41c0-.28-3.75-9-3.75-9z"/><path fill="#532D1D" d="M14.3 68.8c0 1.97-3.28 6.94-3.19 8.25c.09 1.31 3.19 6.56 4.12 8.06c.94 1.5 1.69 5.06 1.69 5.06s3.09 4.41 5.44 6.56c2.34 2.16 4.97 4.12 4.97 4.12s3.47-.37 8.06.37c4.59.75 3.02 1.69 9.68 2.07s8.12-.66 16.08-1.79s16.91-2.61 16.91-2.61s12.25-6.88 22.68-17.32c6.18-6.18 11.47-17.95 13.06-20.48s2.52-6.49 2.61-7.42c.09-.94-1.65-7.86-1.65-10.86c0-3 .82-4.55.68-5.7c-.14-1.22-6.27-10.12-8.91-13.03c-2.62-2.89-9.56-9.09-11.16-8.44l-1.59.66s-7.03-2.91-12.75-2.91s-7.97 1.02-11.34 1.12c-3 .09-2.25-.94-4.5-.84c-1.87.08-8.15 3.44-12.15 5.49c-3.54 1.82-10.91 4.54-13.63 6.88s-8.62 7.78-9.19 8.72c-.56.94-1.03 2.91-1.03 2.91s-5.53-.84-6.66.19c-1.12 1.03-3.66 11.16-5.16 14.34s-5.81 12.65-5.16 13.4c.68.76 2.09 3.2 2.09 3.2z"/><path fill="#FEFFFF" d="M28.13 89.12s-2.99-3.54-4.73-7.53c-2.07-4.72-2.8-12.1-1.92-16.97c.92-5.05 1.28-7.62 3.84-13.72c1.98-4.72 4.72-8.26 8.26-11.51c1.29-1.18 3.12-1 6.9-4.62s11.3-10.8 23.49-12.94s16.15-1.02 21.6-.18c3.86.59 5.61 3.07 8.25 4.05c2.63.99 5.03 1.4 7.92 3.8c2.04 1.69 3.73 3.86 4.23 6.33c.49 2.47-.59 3.81-.68 4.65c-.14 1.41 3.09 2.44 2.54 9.92c-.49 6.75-4.61 21.9-24.37 35.24s-43.63 9.39-43.63 9.39s-.78-3.53-4.1-5.55c-4.32-2.6-7.6-.36-7.6-.36z"/><path fill="#E0E0E0" d="M41.88 40.86c-15.12 12.18-13.7 26.29-13.7 26.29s-7.23 2.14-6.6 5.32c.59 3.05 7.59.77 7.59.77l.82 3.46s-7.84 2.49-5.93 6c1.38 2.54 13.65-3.54 13.65-3.54l57.82-32.55s11.57-6.35 9.05-10.07c-1.95-2.88-6.12.66-6.12.66s-1.2-1.4-3.04-2.54c-1.68-1.04-3.45-2.1-3.45-2.1s4.87-4.11 2.07-6.25c-2.8-2.14-6.92 3.79-6.92 3.79s-6.38-2.02-11.49-1.85c-5.1.16-10.58 1.18-10.58 1.18s-.3-7.55-4.23-6.52c-3.55.93-1.53 8.17-1.53 8.17s-7.85 2.08-17.41 9.78zm5.9 39.63l-4.81 2.15s-3.35 9.13.11 10.94c3.46 1.81 7.07-10.55 7.07-10.55l-2.37-2.54z"/><path fill="#E1E1E1" d="m75.77 72.42l-4.5 5.74s2.69 5.29 3.84 7.27c1.15 1.98 2.31 2.96 4.12 1.98c1.81-.99 1.98-2.63.82-4.94s-4.28-10.05-4.28-10.05z"/><path fill="#B1B1B1" d="M51.23 40.97C34.51 51.46 29.5 68.96 35.43 78.68s32.39 6.78 44.7-2.11c13.37-9.65 20.06-21.24 17.26-31.4c-1.53-5.55-6.83-8.23-12.45-10.04c-9.11-2.92-22.51-1.18-33.71 5.84z"/><path fill="#532D1D" d="M92.89 100.96c-1.87 1.12 0 4.12 1.32 7.41s2.25 6.51 4.28 5.27c1.91-1.17-.33-5.76-1.32-7.9s-2.23-6-4.28-4.78zm14.16-17.45c-2.48 0-2.14 2.8-2.96 7.57c-.82 4.78-1.46 6.9 1.15 7.24c1.71.23 1.71-3.33 2.47-8.07c.55-3.42 1.32-6.74-.66-6.74zm8.89-11.07c-1.64.09-1.28 3.93-1.23 9.02c.04 3.79-.53 8.52 1.74 8.31c1.88-.18 1.55-6.09 1.63-9.72c.13-5.28.46-7.75-2.14-7.61zM70.5 109.19c-.95 1.29.49 3.41 3.95 5.93c3.17 2.31 5.85 4.5 7.08 3.13c1.79-1.99-1.03-3.68-4.12-6.26c-3.12-2.61-5.45-4.78-6.91-2.8zm-24.53.5c-1.13 1.81 1.83 3.88 5.27 6.75c2.96 2.47 6.05 5.55 7.74 3.62c1.11-1.27-1.62-4.04-5.27-7.08c-2.97-2.47-5.9-6.26-7.74-3.29z"/></svg>