<svg xmlns="http://www.w3.org/2000/svg" width="1em" height="1em" viewBox="0 0 128 128"><path fill="#522F21" d="M121.7 82.43v18.86c0 1.37-.65 2.66-1.75 3.47l-23.29 17.27c-.31.23-.72.26-1.06.09l-.9-.46v-19.2l27-20.03z"/><path fill="#AB664B" d="M5.02 53.35L21.5 83.66c.17.32.44.58.77.75l.13-19.14L4.6 33.96v17.75c0 .57.14 1.13.42 1.64z"/><path fill="#874D36" d="M96.16 121.51v-19.08l-74.4-38.25v19.05c0 .57.32 1.09.82 1.35L95.36 122c.37.18.8-.08.8-.49z"/><path fill="#C87D5E" d="M120.79 76.68L74.23 23.91c-.43-.49-.99-.85-1.61-1.05L33.61 10.38a3.616 3.616 0 0 0-3.26.54S6.88 28.36 6.76 28.47l-.04.03c-2.12 1.52-3.52 5.31-1.75 8.61l14.44 26.56c.35.64.88 1.16 1.53 1.49l72.76 36.92c1.23.63 2.71.51 3.82-.31l24.7-18.28c1.54-1.14 1.58-3.49-1.43-6.81z"/><path fill="#AB664B" d="M95.79 90.7L27.26 55.47L14.09 31.25l19.36-14.36l36.4 11.64l43.42 49.21L95.79 90.7zM31.04 52.15l65.64 33.23l12.09-8.97L68.43 30.7L33.91 19.67L19.28 30.52l11.76 21.63z"/><path fill="#7A4631" d="m69.85 28.53l-36.4-11.64l.44 2.8l.02-.02L68.43 30.7l40.34 45.72l4.5 1.32z"/><path fill="#522F21" d="m42.51 86.7l.6-4.3l-3.69 2.62l-5.83-3l-.22-4.54l-3.52 2.62c-.74-.38-1.64-.09-2.02.65c-.38.74-.09 1.64.65 2.02l12.29 6.32c.22.11.45.17.68.17c.54 0 1.07-.3 1.34-.81c.31-.6.17-1.3-.28-1.75zm35.96 18.4l.3-4.6s-3.28 2.37-3.8 2.8l-15.29-7.86v-4.25s-2.46 1.79-3.4 2.5l-.88-.45c-.74-.38-1.64-.09-2.02.65s-.09 1.64.65 2.02l23.07 11.86c.22.11.45.17.68.17c.54 0 1.07-.3 1.33-.81c.39-.74.1-1.65-.64-2.03z"/><path fill="#E2A610" d="M56.22 95.22c-.28 0-.57-.08-.82-.25c-.69-.45-.61-1.07-.16-1.77l1.96-2.99c.45-.69 1.29-1.06 1.98-.61c.69.45.71 1.25.26 1.94l-1.96 2.99c-.29.45-.77.69-1.26.69zm-16.67-8.55c-.28 0-.57-.08-.82-.25c-.69-.45-.61-1.07-.16-1.77l1.96-2.99c.45-.69 1.29-1.06 1.98-.61c.69.45.71 1.25.26 1.94l-1.96 2.99c-.3.45-.78.69-1.26.69zm-9.64-4.96c-.28 0-.57-.08-.82-.25c-.69-.45-.61-1.07-.16-1.77l1.96-2.99c.45-.69 1.29-1.06 1.98-.61c.69.45.71 1.25.26 1.94l-1.96 2.99c-.3.45-.78.69-1.26.69zm45.33 23.22c-.28 0-.57-.08-.82-.25c-.69-.45-.61-1.07-.16-1.77l1.96-2.99c.45-.69 1.29-1.06 1.98-.61c.69.45.71 1.25.26 1.94l-1.96 2.99c-.29.45-.77.69-1.26.69z"/><path fill="#FFCA28" d="M77.28 106.05c-.23 0-.47-.05-.68-.17L53.52 94.02c-.74-.38-1.03-1.28-.65-2.02s1.28-1.03 2.02-.65l23.07 11.86c.74.38 1.03 1.28.65 2.02c-.26.53-.79.82-1.33.82zM40.95 87.38a1.4 1.4 0 0 1-.68-.17l-12.29-6.32a1.496 1.496 0 0 1-.65-2.02c.38-.74 1.28-1.03 2.02-.65l12.29 6.32c.74.38 1.03 1.28.65 2.02c-.27.52-.79.82-1.34.82z"/><path fill="#FFCC80" d="m14.09 31.25l19.36-14.36l.46 2.78l-14.63 10.85l11.76 21.63l-3.78 3.32z" opacity=".8"/><path fill="#AB664B" d="M94.06 98.03L23.2 62.08c-.63-.32-1.15-.83-1.49-1.45L5.17 30.26c-1.1 1.85-1.47 4.48-.19 6.85l14.44 26.56c.35.64.88 1.16 1.53 1.49l72.76 36.92c1.23.63 2.71.51 3.82-.31V97.9c-1.06.64-2.37.7-3.47.13z"/><path fill="#FFCC80" d="M21.72 60.63L5.17 30.25c-1.1 1.85-1.47 4.48-.19 6.86l14.44 26.56c.35.64.88 1.16 1.53 1.49c0 0-.91-2.47 1.53-3.6c-.31-.26-.57-.57-.76-.93z" opacity=".8"/><path fill="#874D36" d="M122.55 79.1c-.17.33-.41.61-.72.83l-24.05 17.8c-.51.38-1.1.6-1.71.67c-.09.07-.19.15-.27.21c1.44.93.95 3.45.36 3.79c.48-.11.94-.32 1.36-.62l24.7-18.28c1.19-.89 1.4-2.67.33-4.4z"/></svg>