<svg xmlns="http://www.w3.org/2000/svg" width="1em" height="1em" viewBox="0 0 128 128"><path fill="#8E2F97" d="M20.03 25.81L9.22 32.96S7.67 36 9.77 46.29s11.58 30.65 30.67 49.97c16.47 16.66 35.7 24.78 52.61 25.65s25.04-10.06 25.04-10.06L20.03 25.81z"/><path fill="#A057A1" d="m29.28 20.58l-9.25 15.96s5.82 21.19 15.63 34.38c10.64 14.3 22.81 26.72 41.88 36.41c16.27 8.27 31.49 11.41 31.49 11.41s9.93-3.97 13.89-14.98c3.77-10.48-1.22-21.97-8.37-27.55s-21.46-9.03-34.5-15.96c-13.83-7.35-24.08-15.94-33.14-25.7c-5.67-6.1-6.98-8.7-7.17-9.8c-.09-.52-.42-.96-.92-1.12l-9.54-3.05z"/><path fill="#BDCF46" d="m22.71 38.01l-.81 5.74s1.47 1.95 3.23 1.8c1.76-.15 4.47-4.68 5.15-7.77c1-4.52.46-7.04.46-7.04s3.52 1.84 8.8 1.07c5.28-.77 7.96-3.75 8.65-5.28c.69-1.53.54-3.22-.23-3.6c-.77-.38-4.52 1.3-4.52 1.3l-11.94-.46l-11.33 3.29l2.54 10.95zM3 46.41s-1.59.6-1.11 2.36c.34 1.22 3.26 3.15 7.15 1.2s6.37-7.12 7.34-9.57c1.6-4.06 2.3-6.85 2.3-6.85l-5.4-3.2l-4.8 11.55S6.32 45.55 3 46.41z"/><path fill="#6F9823" d="M11.01 20.2s-3.24-5.33-3.6-8.51c-.3-2.7.96-4.37 1.61-5.2c1-1.28 3.09-2.11 4.46-1.38c1.7.9 1.68 2.62 2.79 4.85s3.02 5.59 3.02 5.59s3.84-1.22 9.41.71s8.03 4.44 11.45 5.41c3.42.97 7.6-.31 7.82 1.27S42.69 27.78 37.93 28s-7.73-2.45-9.37-1.41c-1.64 1.04-.36 7.38-1.83 11.91c-1.17 3.6-4.06 5.41-4.81 5.31c-.13-.02-3.48-5.17-4.14-6.58c-.67-1.41-1.93-4.98-3.79-2.23c-1.86 2.75-1.47 6.91-5.13 10.11c-2.71 2.37-5.38 2.16-5.98 1.51c-.19-.21 2.38-2 2.38-4.16s-.62-10.37.5-14.39c1.48-5.35 5.25-7.87 5.25-7.87z"/></svg>