<svg xmlns="http://www.w3.org/2000/svg" width="1em" height="1em" viewBox="0 0 128 128"><path fill="#FAFAFA" d="M34.16 106.51C18.73 106.51 6.19 87.44 6.19 64c0-23.44 12.55-42.51 27.97-42.51c15.42 0 27.97 19.07 27.97 42.51c0 23.44-12.55 42.51-27.97 42.51z"/><path fill="#B0BEC5" d="M34.16 23.49c6.63 0 12.98 4 17.87 11.27c5.22 7.75 8.1 18.14 8.1 29.24s-2.88 21.49-8.1 29.24c-4.89 7.27-11.24 11.27-17.87 11.27s-12.98-4-17.87-11.27C11.06 85.49 8.19 75.1 8.19 64s2.88-21.49 8.1-29.24c4.89-7.27 11.23-11.27 17.87-11.27m0-4C17.61 19.49 4.19 39.42 4.19 64s13.42 44.51 29.97 44.51S64.13 88.58 64.13 64S50.71 19.49 34.16 19.49z"/><linearGradient id="notoEyes0" x1="22.523" x2="22.523" y1="46.676" y2="82.083" gradientUnits="userSpaceOnUse"><stop offset="0" stop-color="#424242"/><stop offset="1" stop-color="#212121"/></linearGradient><path fill="url(#notoEyes0)" d="M25.63 59.84c-2.7-2.54-2.1-7.58 1.36-11.26c.18-.19.36-.37.55-.54c-1.54-.87-3.23-1.36-5.01-1.36c-7.19 0-13.02 7.93-13.02 17.7s5.83 17.7 13.02 17.7s13.02-7.93 13.02-17.7c0-1.75-.19-3.45-.54-5.05c-3.24 2.33-7.11 2.64-9.38.51z"/><ellipse cx="93.84" cy="64" fill="#EEE" rx="29.97" ry="44.51"/><path fill="#FAFAFA" d="M93.84 106.51c-15.42 0-27.97-19.07-27.97-42.51c0-23.44 12.55-42.51 27.97-42.51c15.42 0 27.97 19.07 27.97 42.51c0 23.44-12.54 42.51-27.97 42.51z"/><path fill="#B0BEC5" d="M93.84 23.49c6.63 0 12.98 4 17.87 11.27c5.22 7.75 8.1 18.14 8.1 29.24s-2.88 21.49-8.1 29.24c-4.89 7.27-11.24 11.27-17.87 11.27s-12.98-4-17.87-11.27c-5.22-7.75-8.1-18.14-8.1-29.24s2.88-21.49 8.1-29.24c4.89-7.27 11.24-11.27 17.87-11.27m0-4c-16.55 0-29.97 19.93-29.97 44.51s13.42 44.51 29.97 44.51S123.81 88.58 123.81 64s-13.42-44.51-29.97-44.51z"/><linearGradient id="notoEyes1" x1="82.209" x2="82.209" y1="46.676" y2="82.083" gradientUnits="userSpaceOnUse"><stop offset="0" stop-color="#424242"/><stop offset="1" stop-color="#212121"/></linearGradient><path fill="url(#notoEyes1)" d="M85.31 59.84c-2.7-2.54-2.1-7.58 1.36-11.26c.18-.19.36-.37.55-.54c-1.54-.87-3.23-1.36-5.01-1.36c-7.19 0-13.02 7.93-13.02 17.7s5.83 17.7 13.02 17.7c7.19 0 13.02-7.93 13.02-17.7c0-1.75-.19-3.45-.54-5.05c-3.23 2.33-7.11 2.64-9.38.51z"/></svg>