<svg xmlns="http://www.w3.org/2000/svg" width="1em" height="1em" viewBox="0 0 128 128"><path fill="#FE180A" d="M57.4 26.79c2.02-1.13 7.5-3.77 18.76 4.93s8.74 15.76 7.47 17.6c-1.49 2.17-10.88 9.74-10.88 9.74l-51.94 64.15s-3.88-.47-9.08-4.07c-5.61-3.88-10.12-12.77-6.72-19.21C6.92 96.32 46.95 40.5 54.59 29.9c.69-.95 1.36-2.3 2.81-3.11z"/><path fill="#A42615" d="M59.31 29.43c-2.54 2.4-1.16 8.31 7.01 13.82c8.41 5.68 13.95 4.87 15.56 2.67c1.69-2.32-2.2-8.54-7.61-12.55c-5.68-4.21-12.2-6.55-14.96-3.94z"/><path fill="#CA1837" d="m64.25 58.07l-44.64 64.88s3.65 1.21 6.59 1.09c4.1-.16 6.28-1.94 6.28-1.94l42.73-61.7l-10.96-2.33z"/><path fill="#FDB700" d="M46.9 40.59s-.95 4.06 5.66 10.67c3.31 3.31 5.65 5 7.57 6.13c1.95 1.14 3.38 1.74 3.38 1.74l5.81-2l.33-7.01s-6.49-3.33-10.82-8.21c-5.61-6.33-4.61-9.88-4.34-11.89c-.97 1.18-7.59 10.57-7.59 10.57z"/><path fill="#DE7F14" d="m81.88 51.19l-7.26 10.1s-1.23.82-5.59-.21c-2.6-.62-5.51-1.95-5.51-1.95l6.14-9s3.64 1.67 6.57 1.92c2.82.23 5.65-.86 5.65-.86z"/><path fill="#FDB900" d="m8.62 94.47l-2.48 3.7s-.46 4.75 5.47 10.74c2.21 2.23 4.51 3.86 6.5 5.06c3.31 2 5.78 2.76 5.78 2.76l1.76-2.46s-2.29-.79-4.75-2.3c-2.63-1.62-5.5-4.03-7.39-6.15c-5.61-6.31-4.89-11.35-4.89-11.35z"/><path fill="#DF7D15" d="m37.33 115.09l-2.03 2.94s-2.54.32-6.21-.03c-2.25-.21-5.23-1.28-5.23-1.28l1.71-2.49s2.02.81 5.18 1.13s6.58-.27 6.58-.27z"/><path fill="#D8A26D" d="M67.62 36.8c-.21 1.12.64 2.41 2.09 3.31c1.44.91 3.26.16 3.37-.64c.11-.8.55-9.36 4.01-9.78c3.48-.43 5.08 6.63 11.82 8.45c4.84 1.3 6.36.05 6.36.05l-.64-3.85s-2.02 1.28-6.04-.96c-4.22-2.35-6.15-8.88-12.24-8.29c-6.31.61-7.22 7.65-7.65 8.88c-.44 1.22-1.01 2.45-1.08 2.83z"/><path fill="#FD8E02" d="M81.38 14.91c.48.97 11.9 19.06 11.9 19.06s.08 23.16.08 23.97c0 1.45.97 2.01 2.09.64c.62-.76 9.65-15.76 9.65-15.76s15.28 6.27 16.41 6.84c1.13.56 1.77-.16 1.13-1.53c-.64-1.37-10.7-19.38-10.7-19.38s9.81-13.99 10.37-15.12s-.24-1.85-1.29-1.37s-13.19 6.51-13.19 6.51s-4.43-12.82-4.75-13.59c-.56-1.37-1.45-1.61-1.85.08s-4.42 15.68-4.42 15.68s-12.87-6.76-13.99-7.24s-1.92.25-1.44 1.21z"/><path fill="#FFE268" d="m90.39 21.99l6.92 10.05l-.16 16.41l6.27-11.18l11.66 6.03l-8.04-13.43l5.15-8.36s-6.59 3.7-6.76 3.3s-2.9-8.61-2.9-8.61l-2.73 9.57l-9.41-3.78z"/><path fill="#FCBA03" d="m93.29 38.71l-.02-4.03s2.41-.35 4.66-2.7c1.96-2.06 3.43-4.82 5.13-2.41c1.28 1.82-1.55 5.01-3.85 6.68c-3.52 2.58-5.92 2.46-5.92 2.46z"/></svg>