<svg xmlns="http://www.w3.org/2000/svg" width="1em" height="1em" viewBox="0 0 128 128"><path fill="#B76D54" d="M93.96 8.97C72.05 8.97 64 31.35 64 31.35S56.06 8.97 33.99 8.97c-16.58 0-35.48 13.14-28.5 43.01c6.98 29.87 58.56 67.08 58.56 67.08s51.39-37.21 58.38-67.08c6.98-29.87-10.56-43.01-28.47-43.01z"/><path fill="#965A45" d="M30.61 11.2c17.2 0 25.74 18.49 28.5 25.98c.39 1.07 1.88 1.1 2.33.06l2.52-5.88C60.41 20.01 50.65 8.97 33.99 8.97c-6.9 0-14.19 2.28-19.86 7.09c5.01-3.29 10.88-4.86 16.48-4.86zm63.35-2.23c-5.29 0-9.77 1.54-13.53 3.85c2.64-1.02 5.56-1.62 8.8-1.62c16.21 0 30.72 12.29 24.17 40.7c-5.62 24.39-38.46 53.98-48.49 65.27c-.64.72-.86 1.88-.86 1.88s51.39-37.21 58.38-67.08c6.98-29.86-11.9-43-28.47-43z"/><path fill="#E09A84" d="M17 24.82c3.75-4.68 10.45-8.55 16.13-4.09c3.07 2.41 1.73 7.35-1.02 9.43c-4 3.04-7.48 4.87-9.92 9.63c-1.46 2.86-2.34 5.99-2.79 9.18c-.18 1.26-1.83 1.57-2.45.46c-4.22-7.48-5.42-17.78.05-24.61zm60.13 9.84c-1.76 0-3-1.7-2.36-3.34c1.19-3.02 2.73-5.94 4.58-8.54c2.74-3.84 7.95-6.08 11.25-3.75c3.38 2.38 2.94 7.14.57 9.44c-5.1 4.93-11.51 6.19-14.04 6.19z"/></svg>