<svg xmlns="http://www.w3.org/2000/svg" width="1em" height="1em" viewBox="0 0 128 128"><path fill="#E0E0E0" d="M56.48 35.92c.6-2.69.14-1.41-3.73-7.07c-3.48-5.08-2.76-12.3-6.88-15.89c-2.53-2.2-5.7-4.67-17.51 1.27c-4.1 2.06-12.29 8.85-21.57 11.96c-7.47 2.5-3.33 5.52-1.74 6.08c5.66 1.99 13.15-2.31 13.15-2.31s-10.74 7.02-4.43 8.68c5.12 1.35 11.57-4.8 11.57-4.8s-6.32 6.7-1.15 8.42c3.55 1.18 10.6-5.56 10.6-5.56s-4.93 6.85-2.55 8.3c3.62 2.2 9.55-3.47 9.55-3.47s-4.71 6.88-2.25 8c3.68 1.68 9.14-3.04 9.14-3.04s6.72-5.76 7.8-10.57z"/><path fill="#BDBDBD" d="M35.68 13.76s-6.44 3.78-8.79 6.82c-.31.4-2.24 2.33-.54 3.44c.43.28 1.71.1 2.47-.36c3.46-2.1 9.58-7.08 10.25-6.82c.67.26-5.47 4.3-7.45 9.19c-.74 1.84.7 3.16 4.45.95c4.08-2.4 7.59-6.63 8.18-6.61c0 0-1.64 2.86-3.74 5.12c-2.14 2.31-3.65 4.66-2.07 5.4c1.99.94 6.29-1.61 6.29-1.61s-2.74 3.32-6.29 4.07c-1.25.27-2.23.1-2.83-.58c-.91-1.04-.56-2.64-.56-2.64c-1.89.75-5.15 1.97-7.09.33c-1.51-1.28.55-5.03.55-5.03s-3.65 2.02-5.73 1.41c-1.08-.32-2.73-1.88-.32-5.19c3.8-5.17 13.22-7.89 13.22-7.89zm7.7 36.37c4.17-5.42 8.34-10.83 12.51-16.25l-.36-1.56c-.18-.55-1.82-.62-4.09.69c-1.52.88-4.31 4.04-6.1 2.3c-1.24-1.2 2.32-5.49 2.32-5.49c-.49.01-4.44 2.65-5.07 5.3c-.54 2.25-.02 4.89 5.06 2.32c.15-.08.31-.17.46-.26c-.64 1.01-1.22 2.07-1.71 3.15c-1.42 3.12-2.26 6.46-3.02 9.8z"/><linearGradient id="notoMoneyWithWings0" x1="47.717" x2="47.717" y1="25.515" y2="25.515" gradientTransform="rotate(36.505 86.34 69.442)" gradientUnits="userSpaceOnUse"><stop offset="0" stop-color="#43A047"/><stop offset=".999" stop-color="#66BB6A"/></linearGradient><path fill="url(#notoMoneyWithWings0)" d="m81.39 11.13l.07.05"/><path fill="#66BB6A" d="M87.13 70.83c-10.05 15.06-18.5 31.65-37.72 36.73c-.2.05-.41-.01-.55-.16l-31.4-34.65c-.93-1.03-.47-2.66.85-3.09c12.91-4.24 20.97-14.34 28.15-25.11c9.9-14.83 18.38-31.15 36.99-36.5c.71-.27 1.54-.1 2.08.49c4.17 4.6 35.62 34.54 35.67 34.6c.02.01-26.36 16.13-34.07 27.69z"/><path fill="#FFF" d="M58.11 77.71c-.68-.68-1.49-1.02-2.43-1.01s-2.16.39-3.67 1.14c-2.05 1.09-3.83 1.6-5.32 1.55c-1.49-.06-2.83-.68-4.01-1.87c-1.21-1.21-1.85-2.56-1.91-4.04c-.07-1.48.44-2.91 1.53-4.29l-1.91-1.92a.736.736 0 0 1 0-1.03l.62-.62c.28-.28.74-.28 1.03 0l1.92 1.93c1.41-1.07 2.9-1.51 4.46-1.33c1.4.17 2.78.86 4.13 2.1c.26.24.26.66.01.91l-1.14 1.14c-.24.24-.63.24-.88.01c-.9-.78-1.83-1.23-2.78-1.33c-1.11-.12-2.09.24-2.93 1.08c-.88.88-1.33 1.78-1.34 2.69c-.01.92.39 1.79 1.2 2.6c.75.76 1.6 1.11 2.54 1.07c.94-.04 2.15-.44 3.65-1.2s2.77-1.23 3.85-1.42c1.07-.19 2.05-.14 2.93.14c.88.29 1.71.82 2.49 1.6c1.24 1.25 1.87 2.63 1.88 4.14c.01 1.51-.59 3.01-1.81 4.5l1.6 1.6c.28.28.28.74 0 1.03l-.61.61c-.28.28-.74.28-1.03 0l-1.6-1.6c-1.5 1.24-3.07 1.83-4.7 1.75c-1.45-.07-2.84-.69-4.16-1.86a.62.62 0 0 1-.01-.91l1.16-1.15c.23-.23.6-.25.85-.04c.89.77 1.81 1.16 2.76 1.18c1.09.02 2.13-.47 3.12-1.46c.97-.96 1.5-1.96 1.59-2.97c.07-1.01-.28-1.92-1.08-2.72z"/><path fill="#FFF" d="m60.67 84.74l-2.1 1.17l-16.23-16.66l-.55-.56l2.17-1.13l16.23 16.7z"/><circle cx="75.88" cy="45.55" r="14.42" fill="#2E7D32" opacity=".5"/><path fill="#2E7D32" d="M92.16 78.42c-5.15 7.72-12.57 22.45-22.79 30.55c-9.38 7.44-21.21 11.11-21.21 11.11L15.61 81.96l1.35-10.46l31.92 35.91c.13.14.33.21.52.16c19.23-5.08 27.68-21.67 37.73-36.73c7.71-11.56 19.24-23.88 34.08-27.68c1.18 1.3.66 12.2-.63 12.63c-13.15 4.36-21.22 11.82-28.42 22.63z"/><path fill="#FFC06C" d="m78.85 83.52l3.02 11.15s9.2-13.46 10.69-16.72L89.22 67.9c-4.46 5.55-10.37 15.62-10.37 15.62z"/><path fill="#2E7D32" d="M78.07 17.01c.77 1.11 2.12 2.26 4.29 2.93c.77.24 1.58.36 2.39.36c1.72 0 3.16-.53 4.13-1.02c2.43 2.44 5.47 5.41 8.41 8.29c2.88 2.82 5.84 5.72 8.25 8.13c-.78 1.19-1.4 2.99-1.14 5.42c.12 1.12.91 2.26 1.75 3.19c-5.32 3.42-15.53 11.02-26 24.42c-2.21 2.83-4.37 5.97-6.45 9c-5.18 7.54-10.53 15.32-17.65 20.08c-.84-1.37-2.39-3.03-5.16-3.72c-.67-.17-1.33-.25-1.96-.25c-1.78 0-3.18.66-4.18 1.44l-15.1-17.36c1.27-.99 2.46-2.68 2.58-5.29c.06-1.22-.59-2.33-1.33-3.17c7.36-5.45 15.13-14.14 19.31-20.38c.61-.91 1.24-1.86 1.89-2.84c6.54-9.87 15.4-23.19 25.97-29.23m.79-2.34c-12.72 6.3-22.85 22.71-30.06 33.45c-4.72 7.03-13.25 16.2-20.6 21.15c0 0 2.41 1.71 2.33 3.26c-.2 4.16-3.58 4.86-3.58 4.86l17.75 20.4s1.3-2.28 4.22-2.28c.47 0 .99.06 1.55.2c4.02 1 4.83 4.54 4.83 4.54c11.34-6.6 18.19-20.27 26.17-30.5c10.83-13.87 21.6-21.73 27.43-25.18c0 0-2.68-2.17-2.83-3.65c-.41-3.89 1.79-5.29 1.79-5.29c-5.15-5.21-13.61-13.32-18.73-18.51c0 0-1.86 1.46-4.39 1.46c-.6 0-1.24-.08-1.89-.28c-3.68-1.11-3.99-3.63-3.99-3.63z"/><path fill="#FFECB3" d="m53.82 33.32l-9.73 14.71l34.76 35.49s5.68-8.98 10.36-15.62L53.82 33.32z"/><path fill="#D69136" d="M90.62 72.12s-6.86 3.49-8.73 14.13c-.71 4.02-.01 8.42-.01 8.42l5.66-8.71l4.05-12.11l-.97-1.73z" opacity=".68"/><path fill="#E0E0E0" d="M88.65 74.43c1.99-1.91 2.65-2.5 8.87-2.95c6.14-.45 8.96-3.14 16.72-1.53c3.28.68 8.48 3.68 7.16 15.64c-.5 4.56-.38 15.1 1.77 24.65c1.73 7.68-3 5.71-4.3 4.64c-4.64-3.81-4.84-12.44-4.84-12.44s-.44 12.82-5.13 8.29c-3.8-3.68-1.89-12.38-1.89-12.38s-2.46 8.88-6.61 5.34c-2.85-2.43-.73-11.95-.73-11.95s-3.31 7.77-5.77 6.48c-3.76-1.96-1.98-9.97-1.98-9.97s-3.44 7.59-5.68 6.06c-3.34-2.28-2.13-9.39-2.13-9.39s.98-7.08 4.54-10.49z"/><path fill="#BDBDBD" d="M118.34 79.28s.48 6.18.05 9.87c-.27 2.29-.39 4.39-2.49 4.08c-.51-.08-1.7-1.07-1.91-4.88c-.22-4.04.62-9.38.03-9.78c-.59-.41-.62 6.6-3.54 10.99c-1.1 1.65-2.95 1.83-3.24-2.52c-.32-4.73 2.13-10.33 1.78-10.81c0 0-2.07 2.55-3.27 6.16c-1.2 3.61-1.73 5.31-3.14 4.27c-2.53-1.86 1.18-9.27 1.18-9.27s-2.72 2.43-3.9 5.83c-.75 2.16-.34 5.71 1.58 6.61c2.26 1.06 3.58-.83 3.58-.83s.48 6.05 3.43 5.92c2.83-.13 3.55-3.32 3.55-3.32s-.12 3.08 2.74 5.19c1.39 1.03 4.62 1.2 5.02-2.88c.65-6.62-1.45-14.63-1.45-14.63zm-23.27-2.17c-.61-.15-1.49 2.6-2.59 4.15c-.42.58-1.32 1.77-2.7 1.67c-1.38-.1-.29-4.16-.61-3.94c-.32.22-1.61 2.39-1.1 4.91c.14.7.85 1.53 1.55 1.64c2.62.42 3.77-2.8 3.77-2.8s-.39 3.85 2.2 4.25c3.13.48 3.77-4.45 3.49-4.63c-.28-.18-1.29 3.1-3.52 1.7c-1.83-1.16.12-6.79-.49-6.95z"/><path fill="#206022" d="m15.61 81.95l32.43 37.99s1.45-2.15 1.78-5.5c.29-2.92-.73-6.8-.73-6.8L16.96 71.49l-1.35 10.46z"/></svg>