<svg xmlns="http://www.w3.org/2000/svg" width="1em" height="1em" viewBox="0 0 128 128"><path fill="#FFF" d="M-183.97 248.8h302.33v169.12h-302.33z"/><path fill="#DEA66C" d="M62.54 4.84L10.38 31.73c-1.14.67-1.47 1.67-1.46 3.12l.1 1.81L64.09 64.9l54.94-27.79s.06-.28.06-1.26c0 0-.05-1.29-.34-1.89c-.32-.68-1-1.29-1.44-1.66c-1.17-.97-2.34-1.83-4.33-2.95C84.45 13.22 65.69 4.91 65.69 4.91c-1.21-.45-2.21-.61-3.15-.07z"/><path fill="#B38251" d="M9.74 96.16c3.04 2.01 8.59 4.65 14.2 7.69c13.04 7.06 29.52 15.64 37.72 19.01c1.11.46 1.77.68 2.54.72c.57.03 1.51-.35 1.51-.35s-1.53-55.19-1.62-58.34c-.09-3.08-1.38-4.1-2.52-4.84c-1.78-1.14-5.64-2.92-5.64-2.92s-13.52-6.72-27.02-13.8c-6.42-3.37-11.84-6.82-17.67-9.66c-1.07-.51-2.33.13-2.33 1.33v59.8c0 .57.35 1.05.83 1.36z"/><path fill="#966239" d="M117.58 96.51L65.82 123.2c-.83.43-1.82-.17-1.82-1.11l.09-57.18c0-.55-.17-1.76-.34-2.24c-.47-1.4.55-1.96 1.01-2.19l51.34-26.44c1.36-.7 2.99.29 2.99 1.82v58.19c0 1.03-.58 1.98-1.51 2.46z"/><path fill="#212121" d="M94.46 47.59S66.09 62.1 65.63 63.33c-.46 1.22 22.26-9.7 24.92-11.07c3.01-1.55 26.65-14.19 26.65-15.58c.01-1.14-22.74 10.91-22.74 10.91z" opacity=".5"/><g fill="#212121" opacity=".5"><path d="M12.81 92.85c3.69 1.86 7.35 3.78 11.91 6.11v-1.78c-4.54-2.32-8.21-4.23-11.91-6.11v1.78zm7.77.81c1.04.53 1.56.8 2.54 1.3c.01-3.1.01-4.65.02-7.75c-.98-.5-1.49-.76-2.52-1.29c-.02 3.1-.03 4.64-.04 7.74zm-6.46-3.32c.86.44 1.34.69 2.32 1.19l.05-7.72c-.99-.51-1.47-.75-2.34-1.21c-.01 3.1-.02 4.65-.03 7.74z"/><path d="M18.95 85.99c2.37 1.21 3.63 1.86 5.72 2.92c-1.04-1.89-1.61-2.85-2.75-4.79c-1.17.76-1.78 1.13-2.97 1.87zm-6.14-3.15c1.77.92 2.96 1.53 5.3 2.73c-1.16-1.95-1.74-2.92-2.81-4.83c-1.09.79-1.6 1.2-2.49 2.1z"/></g><g fill="#212121" opacity=".5"><path d="M31.81 101.4c.83.43 1.26.66 2.09 1.09c-.06-3.68-.09-5.52-.16-9.2c-.8-.42-1.2-.63-2-1.04c.03 3.66.04 5.49.07 9.15z"/><path d="M28.76 100.75c3.04 1.6 5.4 2.8 8.32 4.36c-.02-1.05-.83-2.32-1.93-2.91c-1.72-.91-2.7-1.41-4.44-2.32c-1.12-.57-1.95-.16-1.95.87zm5.79-10.39l1.28 2.71c-.4.85-.61 1.28-1.03 2.12c.36-.03.54-.04.9-.07c.48-.64.72-.96 1.18-1.6c-.42-.99-.64-1.49-1.08-2.48c1.22.67 1.82 1.01 2.93 1.66c0 3.58-2.34 5.16-5.86 3.32c-3.52-1.83-5.85-5.92-5.85-9.51c2.62 1.31 4.38 2.17 7.53 3.85z"/></g><path fill="#FFE0B2" d="M100.74 41.49c-.5-.37-54.19-28.42-54.19-28.42l-16.66 8.61l55.05 28.39l.03.03l16.11-8.25s-.03-.08-.12-.18c-.07-.06-.19-.15-.22-.18z"/><path fill="#BF9F85" d="M101 41.73c-9.12 4.49-16.06 8.34-16.06 8.34c.23.23.24.53.24.68c-.03 1.16-.05 2.08-.08 3.23c-.14 5.95-.22 11.91-.42 17.86c.67-.4 1.48.48 2.09 0c.94-.74 2.94-4 3.24-4.1c.4-.13.83-.03 1.24-.05c1.8-.1 5.83-3.77 6.69-3.94c.83-.16 3.57.37 3.57.37s-.19-18.15-.26-21.2c-.02-1.08-.25-1.19-.25-1.19z"/><path fill="#DEA66C" d="m-98.73 4.84l-51.83 26.68c-2.52 1.48-1.8 5.09-1.8 5.09l55.17 28.3l55.07-27.86c.05-.17.11-1.21-.15-3.19c-.14-1.04-3.25-2.94-6.03-4.51C-76.82 13.22-95.58 4.91-95.58 4.91c-1.21-.45-2.2-.61-3.15-.07z"/><path fill="#BF8049" d="M-151.53 96.16c3.04 2.01 8.59 4.65 14.2 7.69c13.04 7.06 29.52 15.64 37.72 19.01c2.45 1.01 3.75.51 3.75.51s-1.15-56.3-1.11-59.45c.02-1.32-1.59-3.12-2.74-3.86c-1.78-1.14-5.64-2.92-5.64-2.92s-13.52-6.72-27.02-13.8c-6.42-3.37-11.84-6.82-17.67-9.66c-1.06-.52-2.33.12-2.32 1.31v59.8c0 .58.36 1.06.83 1.37z"/><path fill="#9E673C" d="m-43.69 96.51l-51.76 26.69c-.83.43-1.82-.17-1.82-1.11l.09-57.18c0-.55-.41-1.98-.56-2.48c-.14-.5.35-1.51.81-1.74l51.76-26.66c1.36-.7 2.99.29 2.99 1.82v58.19c0 1.04-.58 1.99-1.51 2.47z"/><path fill="#212121" d="M-70.71 52.26c3.01-1.55 26.65-14.19 26.65-15.58c0-1.14-22.75 10.91-22.75 10.91S-95.18 62.1-95.64 63.33c-.45 1.22 22.26-9.7 24.93-11.07z" opacity=".5"/><g fill="#212121" opacity=".5"><path d="M-148.46 92.85c3.69 1.86 7.35 3.78 11.91 6.11v-1.78c-4.54-2.32-8.21-4.23-11.91-6.11v1.78zm7.77.81c1.04.53 1.56.8 2.54 1.3c.01-3.1.01-4.65.02-7.75c-.98-.5-1.49-.76-2.52-1.29c-.01 3.1-.02 4.64-.04 7.74zm-6.46-3.32c.86.44 1.34.69 2.32 1.19l.05-7.72c-.99-.51-1.47-.75-2.34-1.21c-.01 3.1-.02 4.65-.03 7.74z"/><path d="M-142.32 85.99c2.37 1.21 3.63 1.86 5.72 2.92c-1.04-1.89-1.61-2.85-2.75-4.79c-1.17.76-1.78 1.13-2.97 1.87zm-6.14-3.15c1.77.92 2.96 1.53 5.3 2.73c-1.16-1.95-1.74-2.92-2.81-4.83c-1.09.79-1.6 1.2-2.49 2.1z"/></g><g fill="#212121" opacity=".5"><path d="M-129.46 101.4c.83.43 1.26.66 2.09 1.09c-.06-3.68-.09-5.52-.16-9.2c-.8-.42-1.2-.63-2-1.04c.03 3.66.04 5.49.07 9.15z"/><path d="M-132.51 100.75c3.04 1.6 5.4 2.8 8.32 4.36c-.02-1.05-.83-2.32-1.93-2.91c-1.72-.91-2.7-1.41-4.44-2.32c-1.12-.57-1.94-.16-1.95.87zm5.79-10.39l1.28 2.71c-.4.85-.61 1.28-1.03 2.12c.36-.03.54-.04.9-.07c.48-.64.72-.96 1.18-1.6c-.42-.99-.64-1.49-1.08-2.48c1.22.67 1.82 1.01 2.93 1.66c0 3.58-2.34 5.16-5.86 3.32c-3.52-1.83-5.85-5.92-5.85-9.51c2.63 1.31 4.38 2.17 7.53 3.85z"/></g><path fill="#FFE0B2" d="M-61.86 42.33c-.5-.37-54.32-28.49-54.32-28.49l-16.68 8.6l55.11 28.37c4.76-2.45 12.32-6.35 16.12-8.3a1.15 1.15 0 0 0-.23-.18z"/><path fill="#BF9F85" d="M-61.63 42.5c-8.34 3.77-16.5 8.11-16.5 8.11c.21.09.73.74.73.74c-.03 1.16-.05 2.31-.08 3.47c-.14 5.95-.22 11.91-.42 17.86c.67-.4 1.48.48 2.09 0c.94-.74 2.94-4 3.24-4.1c.4-.13.83-.03 1.24-.05c1.8-.1 5.83-3.77 6.69-3.94c.83-.16 3.57.37 3.57.37s-.21-18.15-.26-21.2c-.02-.87-.3-1.26-.3-1.26z"/><path fill="#DEA66C" d="m223.81 4.84l-51.83 26.68c-2.52 1.48-1.8 5.09-1.8 5.09l55.17 28.3l55.07-27.86c.05-.17.11-1.21-.15-3.19c-.14-1.04-3.25-2.94-6.03-4.51c-28.53-16.12-47.29-24.42-47.29-24.42c-1.2-.47-2.2-.63-3.14-.09z"/><path fill="#BF8049" d="M171.01 96.16c3.04 2.01 8.59 4.65 14.2 7.69c13.04 7.06 29.52 15.64 37.72 19.01c2.45 1.01 3.75.51 3.75.51s-1.15-56.3-1.11-59.45c.02-1.32-1.59-3.12-2.74-3.86c-1.78-1.14-5.64-2.92-5.64-2.92s-13.52-6.72-27.02-13.8c-6.42-3.37-11.84-6.82-17.67-9.66c-1.06-.52-2.33.12-2.32 1.31v59.8c0 .58.35 1.06.83 1.37z"/><path fill="#9E673C" d="m278.85 96.51l-51.76 26.69c-.83.43-1.82-.17-1.82-1.11l.09-57.18c0-.55-.41-1.98-.56-2.48c-.14-.5.35-1.51.81-1.74l51.76-26.66c1.36-.7 2.99.29 2.99 1.82v58.19c0 1.04-.59 1.99-1.51 2.47z"/><path fill="#784D30" d="M251.82 52.26c3.01-1.55 26.65-14.19 26.65-15.58c0-1.14-22.75 10.91-22.75 10.91S227.36 62.1 226.9 63.33c-.46 1.22 22.26-9.7 24.92-11.07z"/><g fill="#784D30" opacity=".85"><path d="M173.36 93.22c3.69 1.86 7.35 3.78 11.91 6.11v-1.78c-4.54-2.32-8.21-4.23-11.91-6.11v1.78zm7.77.8c1.04.53 1.56.8 2.54 1.3c.01-3.1.01-4.65.02-7.75c-.98-.5-1.49-.76-2.52-1.29c-.02 3.1-.03 4.65-.04 7.74zm-6.46-3.31c.86.44 1.34.69 2.32 1.19l.05-7.72c-.99-.51-1.47-.75-2.34-1.21c-.01 3.09-.02 4.64-.03 7.74z"/><path d="M179.5 86.36c2.37 1.21 3.63 1.86 5.72 2.92c-1.04-1.89-1.61-2.85-2.75-4.79c-1.17.76-1.78 1.13-2.97 1.87zm-6.14-3.16c1.77.92 2.96 1.53 5.3 2.73c-1.16-1.95-1.74-2.92-2.81-4.83c-1.09.79-1.6 1.2-2.49 2.1z"/></g><g fill="#784D30" opacity=".85"><path d="M192.35 101.77c.83.43 1.26.66 2.09 1.09c-.06-3.68-.09-5.52-.16-9.2c-.8-.42-1.2-.63-2-1.04c.04 3.66.05 5.49.07 9.15z"/><path d="M189.31 101.12c3.04 1.6 5.4 2.8 8.32 4.36c-.02-1.05-.83-2.32-1.93-2.91c-1.72-.91-2.7-1.41-4.44-2.32c-1.12-.57-1.95-.16-1.95.87zm5.79-10.39l1.28 2.71c-.4.85-.61 1.28-1.03 2.12c.36-.03.54-.04.9-.07c.48-.64.72-.96 1.18-1.6c-.42-.99-.64-1.49-1.08-2.48c1.22.67 1.82 1.01 2.93 1.66c0 3.58-2.34 5.16-5.86 3.32c-3.52-1.83-5.85-5.92-5.85-9.51c2.62 1.31 4.38 2.17 7.53 3.85z"/></g><path fill="#FFE0B2" d="M260.68 42.33c-.5-.37-54.32-28.49-54.32-28.49l-16.68 8.6l55.11 28.37c4.76-2.45 12.32-6.35 16.12-8.3c-.07-.06-.14-.12-.23-.18z"/><path fill="#BF9F85" d="M260.91 42.5c-8.34 3.77-16.5 8.11-16.5 8.11c.21.09.73.74.73.74c-.03 1.16-.05 2.31-.08 3.47c-.14 5.95-.22 11.91-.42 17.86c.67-.4 1.48.48 2.09 0c.94-.74 2.94-4 3.24-4.1c.4-.13.83-.03 1.24-.05c1.8-.1 5.83-3.77 6.69-3.94c.83-.16 3.57.37 3.57.37s-.21-18.15-.26-21.2c-.02-.87-.3-1.26-.3-1.26z"/><path fill="#DEA66C" d="m566.51 4.84l-51.83 26.68c-2.52 1.48-1.8 5.09-1.8 5.09l55.17 28.3l55.07-27.86c.05-.17.11-1.21-.15-3.19c-.14-1.04-3.25-2.94-6.03-4.51c-28.53-16.12-47.29-24.42-47.29-24.42c-1.2-.47-2.2-.63-3.14-.09z"/><path fill="#BF8049" d="M513.71 96.16c3.04 2.01 8.59 4.65 14.2 7.69c13.04 7.06 29.52 15.64 37.72 19.01c2.45 1.01 3.75.51 3.75.51s-1.15-56.3-1.11-59.45c.02-1.32-1.59-3.12-2.74-3.86c-1.78-1.14-5.64-2.92-5.64-2.92s-13.52-6.72-27.02-13.8c-6.42-3.37-11.84-6.82-17.67-9.66c-1.06-.52-2.33.12-2.32 1.31v59.8c0 .58.35 1.06.83 1.37z"/><path fill="#9E673C" d="m621.55 96.51l-51.76 26.69c-.83.43-1.82-.17-1.82-1.11l.09-57.18c0-.55-.41-1.98-.56-2.48c-.14-.5.35-1.51.81-1.74l51.76-26.66c1.36-.7 2.99.29 2.99 1.82v58.19a2.815 2.815 0 0 1-1.51 2.47z"/><path fill="#784D30" d="M594.52 52.26c3.01-1.55 26.65-14.19 26.65-15.58c0-1.14-22.75 10.91-22.75 10.91S570.06 62.1 569.6 63.33c-.46 1.22 22.26-9.7 24.92-11.07z"/><g fill="#784D30" opacity=".85"><path d="M516.06 93.22c3.69 1.86 7.35 3.78 11.91 6.11v-1.78c-4.54-2.32-8.21-4.23-11.91-6.11v1.78zm7.76.8c1.04.53 1.56.8 2.54 1.3c.01-3.1.01-4.65.02-7.75c-.98-.5-1.49-.76-2.52-1.29c-.01 3.1-.02 4.65-.04 7.74zm-6.45-3.31c.86.44 1.34.69 2.32 1.19l.05-7.72c-.99-.51-1.47-.75-2.34-1.21c-.01 3.09-.02 4.64-.03 7.74z"/><path d="M522.2 86.36c2.37 1.21 3.64 1.86 5.72 2.92c-1.04-1.89-1.61-2.85-2.75-4.79c-1.17.76-1.78 1.13-2.97 1.87zm-6.14-3.16c1.77.92 2.96 1.53 5.3 2.73c-1.16-1.95-1.74-2.92-2.81-4.83c-1.09.79-1.61 1.2-2.49 2.1z"/></g><g fill="#784D30" opacity=".85"><path d="M535.05 101.77c.83.43 1.26.66 2.09 1.09c-.06-3.68-.09-5.52-.16-9.2c-.8-.42-1.2-.63-2-1.04c.04 3.66.05 5.49.07 9.15z"/><path d="M532.01 101.12c3.04 1.6 5.4 2.8 8.32 4.36c-.02-1.05-.83-2.32-1.93-2.91c-1.72-.91-2.7-1.41-4.44-2.32c-1.13-.57-1.95-.16-1.95.87zm5.79-10.39l1.28 2.71c-.4.85-.61 1.28-1.03 2.12c.36-.03.54-.04.9-.07c.48-.64.72-.96 1.18-1.6c-.42-.99-.64-1.49-1.08-2.48c1.22.67 1.82 1.01 2.93 1.66c0 3.58-2.34 5.16-5.86 3.32s-5.85-5.92-5.85-9.51c2.62 1.31 4.38 2.17 7.53 3.85z"/></g><path fill="#FCE8B2" d="M603.38 42.33c-.5-.37-54.32-28.49-54.32-28.49l-16.68 8.6l55.11 28.37c4.76-2.45 12.32-6.35 16.12-8.3c-.07-.06-.14-.12-.23-.18z"/><path fill="#ECB354" d="M603.61 42.5c-8.34 3.77-16.5 8.11-16.5 8.11c.21.09.72.74.72.74c-.03 1.16-.05 2.31-.08 3.47c-.14 5.95-.22 11.91-.42 17.86c.67-.4 1.48.48 2.09 0c.94-.74 2.94-4 3.24-4.1c.4-.13.83-.03 1.24-.05c1.8-.1 5.83-3.77 6.69-3.94c.83-.16 3.57.37 3.57.37s-.21-18.15-.26-21.2c-.01-.87-.29-1.26-.29-1.26z"/><path fill="#DEA66C" d="m62.54 216.07l-51.83 26.68c-2.52 1.48-1.8 5.09-1.8 5.09l55.17 28.3l55.07-27.86c.05-.17.11-1.21-.15-3.19c-.14-1.04-3.25-2.94-6.03-4.51c-28.53-16.12-47.29-24.42-47.29-24.42c-1.2-.47-2.2-.63-3.14-.09z"/><path fill="#BD8955" d="M9.74 307.39c3.04 2.01 8.59 4.65 14.2 7.69c13.04 7.06 29.52 15.64 37.72 19.01c2.45 1.01 3.75.51 3.75.51s-1.15-56.3-1.11-59.45c.02-1.32-1.59-3.12-2.74-3.86c-1.78-1.14-5.64-2.92-5.64-2.92s-13.52-6.72-27.02-13.8c-6.42-3.37-11.84-6.82-17.67-9.66c-1.06-.52-2.33.12-2.32 1.31v59.8c0 .59.35 1.06.83 1.37z"/><path fill="#A06841" d="m117.58 307.74l-51.76 26.69c-.83.43-1.82-.17-1.82-1.11l.09-57.18c0-.55-.41-1.98-.56-2.48c-.14-.5.35-1.51.81-1.74l51.76-26.66c1.36-.7 2.99.29 2.99 1.82v58.19c0 1.04-.58 1.99-1.51 2.47z"/><path fill="#784D30" d="M90.55 263.49c3.01-1.55 26.65-14.19 26.65-15.58c0-1.14-22.75 10.91-22.75 10.91s-28.37 14.51-28.83 15.74c-.44 1.22 22.27-9.7 24.93-11.07z"/><g fill="#784D30" opacity=".73"><path d="M12.09 304.45c3.69 1.86 7.35 3.78 11.91 6.11v-1.78c-4.54-2.32-8.21-4.23-11.91-6.11v1.78zm7.77.8c1.04.53 1.56.8 2.54 1.3c.01-3.1.01-4.65.02-7.75c-.98-.5-1.49-.76-2.52-1.29c-.02 3.1-.03 4.65-.04 7.74zm-6.46-3.31c.86.44 1.34.69 2.32 1.19l.05-7.72c-.99-.51-1.47-.75-2.34-1.21c-.01 3.09-.02 4.64-.03 7.74z"/><path d="M18.23 297.59c2.37 1.21 3.63 1.86 5.72 2.92c-1.04-1.89-1.61-2.85-2.75-4.79c-1.17.76-1.78 1.13-2.97 1.87zm-6.14-3.16c1.77.92 2.96 1.53 5.3 2.73c-1.16-1.95-1.74-2.92-2.81-4.83c-1.09.79-1.6 1.2-2.49 2.1z"/></g><g fill="#784D30" opacity=".73"><path d="M31.09 313c.83.43 1.26.66 2.09 1.09c-.06-3.68-.09-5.52-.16-9.2c-.8-.42-1.2-.63-2-1.04c.03 3.66.04 5.49.07 9.15z"/><path d="M28.04 312.35c3.04 1.6 5.4 2.8 8.32 4.36c-.02-1.05-.83-2.33-1.93-2.91c-1.72-.91-2.7-1.41-4.44-2.32c-1.12-.57-1.95-.16-1.95.87zm5.79-10.39l1.28 2.71c-.4.85-.61 1.28-1.03 2.12c.36-.03.54-.04.9-.07c.48-.64.72-.96 1.18-1.6c-.42-.99-.64-1.49-1.08-2.48c1.22.67 1.82 1.01 2.93 1.66c0 3.58-2.34 5.16-5.86 3.32c-3.52-1.83-5.85-5.92-5.85-9.51c2.62 1.31 4.38 2.17 7.53 3.85z"/></g><path fill="#FCE8B2" d="M99.41 253.56c-.5-.37-54.32-28.49-54.32-28.49l-16.68 8.6l55.11 28.37c4.76-2.45 12.32-6.35 16.12-8.3c-.06-.06-.14-.12-.23-.18z"/><path fill="#ECB354" d="M99.64 253.73c-8.34 3.77-16.5 8.11-16.5 8.11c.21.09.73.74.73.74c-.03 1.16-.05 2.31-.08 3.47c-.14 5.95-.22 11.91-.42 17.86c.67-.4 1.48.48 2.09 0c.94-.74 2.94-4 3.24-4.1c.4-.13.83-.03 1.24-.05c1.8-.1 5.83-3.77 6.69-3.94c.83-.16 3.57.37 3.57.37s-.21-18.15-.26-21.2c-.02-.87-.3-1.26-.3-1.26z"/><path fill="#E6A467" d="m401.82 4.84l-51.83 26.68c-2.52 1.48-1.8 5.09-1.8 5.09l55.17 28.3l55.07-27.86c.05-.17.11-1.21-.15-3.19c-.14-1.04-3.25-2.94-6.03-4.51c-28.53-16.12-47.29-24.42-47.29-24.42c-1.2-.47-2.2-.63-3.14-.09z"/><path fill="#D68B52" d="M349.02 96.16c3.04 2.01 8.59 4.65 14.2 7.69c13.04 7.06 29.52 15.64 37.72 19.01c2.45 1.01 3.75.51 3.75.51s-1.15-56.3-1.11-59.45c.02-1.32-1.59-3.12-2.74-3.86c-1.78-1.14-5.64-2.92-5.64-2.92s-13.52-6.72-27.02-13.8c-6.42-3.37-11.84-6.82-17.67-9.66c-1.06-.52-2.33.12-2.32 1.31v59.8c0 .58.35 1.06.83 1.37z"/><path fill="#A06841" d="M456.86 96.51L405.1 123.2c-.83.43-1.82-.17-1.82-1.11l.09-57.18c0-.55-.41-1.98-.56-2.48c-.14-.5.35-1.51.81-1.74l51.76-26.66c1.36-.7 2.99.29 2.99 1.82v58.19a2.815 2.815 0 0 1-1.51 2.47z"/><path fill="#784D30" d="M429.83 52.26c3.01-1.55 26.65-14.19 26.65-15.58c0-1.14-22.75 10.91-22.75 10.91S405.36 62.1 404.9 63.33c-.45 1.22 22.27-9.7 24.93-11.07z"/><g fill="#784D30" opacity=".73"><path d="M351.37 93.22c3.69 1.86 7.35 3.78 11.91 6.11v-1.78c-4.54-2.32-8.21-4.23-11.91-6.11v1.78zm7.76.8c1.04.53 1.56.8 2.54 1.3c.01-3.1.01-4.65.02-7.75c-.98-.5-1.49-.76-2.52-1.29c-.01 3.1-.02 4.65-.04 7.74zm-6.45-3.31c.86.44 1.34.69 2.32 1.19l.05-7.72c-.99-.51-1.47-.75-2.35-1.21c0 3.09-.01 4.64-.02 7.74z"/><path d="M357.51 86.36c2.37 1.21 3.64 1.86 5.72 2.92c-1.04-1.89-1.61-2.85-2.75-4.79c-1.17.76-1.78 1.13-2.97 1.87zm-6.14-3.16c1.77.92 2.96 1.53 5.3 2.73c-1.16-1.95-1.74-2.92-2.81-4.83c-1.09.79-1.61 1.2-2.49 2.1z"/></g><g fill="#784D30" opacity=".73"><path d="M370.36 101.77c.83.43 1.26.66 2.09 1.09c-.06-3.68-.09-5.52-.16-9.2c-.8-.42-1.2-.63-2-1.04c.04 3.66.05 5.49.07 9.15z"/><path d="M367.32 101.12c3.04 1.6 5.4 2.8 8.32 4.36c-.02-1.05-.83-2.32-1.93-2.91c-1.72-.91-2.7-1.41-4.44-2.32c-1.13-.57-1.95-.16-1.95.87zm5.79-10.39l1.28 2.71c-.4.85-.61 1.28-1.03 2.12c.36-.03.54-.04.9-.07c.48-.64.72-.96 1.18-1.6c-.42-.99-.64-1.49-1.08-2.48c1.22.67 1.82 1.01 2.93 1.66c0 3.58-2.34 5.16-5.86 3.32c-3.52-1.83-5.85-5.92-5.85-9.51c2.62 1.31 4.38 2.17 7.53 3.85z"/></g><path fill="#FCE8B2" d="M438.69 42.33c-.5-.37-54.32-28.49-54.32-28.49l-16.68 8.6l55.11 28.37c4.76-2.45 12.32-6.35 16.12-8.3c-.07-.06-.14-.12-.23-.18z"/><path fill="#ECB354" d="M438.92 42.5c-8.34 3.77-16.5 8.11-16.5 8.11c.21.09.73.74.73.74c-.03 1.16-.05 2.31-.08 3.47c-.14 5.95-.22 11.91-.42 17.86c.67-.4 1.48.48 2.09 0c.94-.74 2.94-4 3.24-4.1c.4-.13.83-.03 1.24-.05c1.8-.1 5.83-3.77 6.69-3.94c.83-.16 3.57.37 3.57.37s-.21-18.15-.26-21.2c-.02-.87-.3-1.26-.3-1.26z"/><path fill="#E6A475" d="m-240.63 4.84l-51.83 26.68c-2.52 1.48-1.8 5.09-1.8 5.09l55.17 28.3l55.07-27.86c.05-.17.11-1.21-.15-3.19c-.14-1.04-3.25-2.94-6.03-4.51c-28.53-16.12-47.29-24.42-47.29-24.42c-1.2-.47-2.2-.63-3.14-.09z"/><path fill="#C78C61" d="M-293.43 96.16c3.04 2.01 8.59 4.65 14.2 7.69c13.04 7.06 29.52 15.64 37.72 19.01c2.45 1.01 3.75.51 3.75.51s-1.15-56.3-1.11-59.45c.02-1.32-1.59-3.12-2.74-3.86c-1.78-1.14-5.64-2.92-5.64-2.92s-13.52-6.72-27.02-13.8c-6.42-3.37-11.84-6.82-17.67-9.66c-1.06-.52-2.33.12-2.32 1.31v59.8c0 .58.35 1.06.83 1.37z"/><path fill="#A06841" d="m-185.59 96.51l-51.76 26.69c-.83.43-1.82-.17-1.82-1.11l.09-57.18c0-.55-.41-1.98-.56-2.48c-.14-.5.35-1.51.81-1.74l51.76-26.66c1.36-.7 2.99.29 2.99 1.82v58.19a2.815 2.815 0 0 1-1.51 2.47z"/><path fill="#784D30" d="M-212.62 52.26c3.01-1.55 26.65-14.19 26.65-15.58c0-1.14-22.75 10.91-22.75 10.91s-28.37 14.51-28.83 15.74c-.45 1.22 22.26-9.7 24.93-11.07z"/><g fill="#784D30" opacity=".73"><path d="M-291.08 93.22c3.69 1.86 7.35 3.78 11.91 6.11v-1.78c-4.54-2.32-8.21-4.23-11.91-6.11v1.78zm7.76.8c1.04.53 1.56.8 2.54 1.3c.01-3.1.01-4.65.02-7.75c-.98-.5-1.49-.76-2.52-1.29c-.01 3.1-.02 4.65-.04 7.74zm-6.45-3.31c.86.44 1.34.69 2.32 1.19l.05-7.72c-.99-.51-1.47-.75-2.34-1.21c-.01 3.09-.02 4.64-.03 7.74z"/><path d="M-284.95 86.36c2.37 1.21 3.63 1.86 5.72 2.92c-1.04-1.89-1.61-2.85-2.75-4.79c-1.16.76-1.77 1.13-2.97 1.87zm-6.13-3.16c1.77.92 2.96 1.53 5.3 2.73c-1.16-1.95-1.74-2.92-2.81-4.83c-1.09.79-1.61 1.2-2.49 2.1z"/></g><g fill="#784D30" opacity=".73"><path d="M-272.09 101.77c.83.43 1.26.66 2.09 1.09c-.06-3.68-.09-5.52-.16-9.2c-.8-.42-1.2-.63-2-1.04c.04 3.66.05 5.49.07 9.15z"/><path d="M-275.13 101.12c3.04 1.6 5.4 2.8 8.32 4.36c-.02-1.05-.83-2.32-1.93-2.91c-1.72-.91-2.7-1.41-4.44-2.32c-1.13-.57-1.95-.16-1.95.87zm5.79-10.39l1.28 2.71c-.4.85-.61 1.28-1.03 2.12c.36-.03.54-.04.9-.07c.48-.64.72-.96 1.18-1.6c-.42-.99-.64-1.49-1.08-2.48c1.22.67 1.82 1.01 2.93 1.66c0 3.58-2.34 5.16-5.86 3.32s-5.85-5.92-5.85-9.51c2.62 1.31 4.38 2.17 7.53 3.85z"/></g><path fill="#FCE8B2" d="M-203.76 42.33c-.5-.37-54.32-28.49-54.32-28.49l-16.68 8.6l55.11 28.37c4.76-2.45 12.32-6.35 16.12-8.3c-.07-.06-.14-.12-.23-.18z"/><path fill="#ECB354" d="M-203.54 42.5c-8.34 3.77-16.5 8.11-16.5 8.11c.21.09.73.74.73.74c-.03 1.16-.05 2.31-.08 3.47c-.14 5.95-.22 11.91-.42 17.86c.67-.4 1.48.48 2.09 0c.94-.74 2.94-4 3.24-4.1c.4-.13.83-.03 1.24-.05c1.8-.1 5.83-3.77 6.69-3.94c.83-.16 3.57.37 3.57.37s-.21-18.15-.26-21.2c-.01-.87-.3-1.26-.3-1.26z"/><path fill="#E6A475" d="m90.29-146.79l-10.47 5.4l-21.48 11.07c-3.76 1.94-7.53 3.87-11.29 5.81c-2.52 1.3-7.89 2.93-8.71 6.08c-.18.71-.11 1.45-.03 2.18c.36 3.32.27 6.27 2.43 8.9c2.04 2.48 5.47 5.8 9.01 5.8c8.11 2.65 15.85 6.28 23.82 9.3c7.12 2.7 16.09 6.9 23.36 2.82c.88-.49 1.6-1.16 2.49-1.6c1.19-.59 2.43-1.05 3.61-1.68c3.35-1.77 6.3-4.2 9.47-6.26c5.34-3.48 11.24-5.92 16.99-8.61c2.89-1.35 5.76-2.77 8.49-4.42a47.9 47.9 0 0 0 3.96-2.65c.98-.73 2.71-1.74 3.05-3.01c.05-.17.07-.34.07-.52c-.01-.7-.41-1.34-.94-1.79c-1.76-1.5-4.26-2.28-6.33-3.19c-2.7-1.18-5.24-2.87-7.81-4.32c-5.42-3.06-10.88-6.04-16.38-8.93a675.49 675.49 0 0 0-12.28-6.3c-2.11-1.05-4.22-2.09-6.34-3.13c-1.36-.66-3.13-1.75-4.69-.95z"/><path fill="#A06841" d="M38.78-57.74c.77.88 1.81 1.52 2.83 2.1c5.09 2.89 10.31 5.52 15.53 8.2c2.61 1.35 5.23 2.69 7.84 4.04c2.57 1.33 5.15 2.65 7.72 3.98l6.93 3.57c1.82.94 3.64 1.88 5.46 2.81c1.1.57 2.2 1.14 3.31 1.7c1.41.73 2.39 1.44 4.02.85c1.36-.49 1.44-2.15 1.75-3.43c.86-3.51 1.22-7.13 1.37-10.74c.21-4.78.05-9.58-.1-14.36c-.18-5.74.18-11.49-.06-17.26c-.07-1.58-.11-3.17-.16-4.74c-.04-1.39-.89-2.66-1.7-3.74c-.99-1.31-2.11-2.69-2.18-4.33c-.13-2.69-2.81-3.47-4.83-4.36c-3.05-1.35-5.99-3.01-8.96-4.53a1074.144 1074.144 0 0 1-31.34-16.7c-1.25-.69-8.13-6.01-8.16-2.05c-.16 17.81-.33 35.61-.62 53.42c-.03 1.6-.03 3.29.75 4.68c.17.35.37.63.6.89z"/><path fill="#C78C61" d="M144.15-57.63c-1.05 1.05-2.57 1.8-4.5 2.79c-4.13 2.12-8.27 4.25-12.4 6.37c-8.41 4.32-16.81 8.64-25.22 12.95c-1.83.94-8.1 5.04-10.16 4.15c-1.58-.68-.62-8.5-.62-10.22v-33.5c0-4.14.39-8.53-.27-12.61c-.2-1.24-.42-2.39.33-3.49c1.2-1.74 4.09-2.67 5.93-3.62c2.23-1.15 4.46-2.3 6.7-3.45c5.66-2.92 11.31-5.83 16.97-8.75l13.5-6.96c2.41-1.24 5.07-3.18 7.66-3.95c2.3-.68 2.74 1.36 2.88 3.28c.4 5.75.33 11.58.46 17.34c.26 11.46.42 22.91.5 34.37c.02 2.61-.58 4.13-1.76 5.3z"/><path fill="#A06841" d="M117.23-100.16c2.95-1.52 26.07-13.88 26.08-15.24c0-1.12-22.26 10.67-22.26 10.67s-27.76 14.2-28.2 15.4c-.45 1.2 21.77-9.48 24.38-10.83z"/><linearGradient id="notoPackage0" x1="28.2" x2="14.107" y1="-108.368" y2="-79.066" gradientTransform="matrix(-1 0 0 1 124.88 0)" gradientUnits="userSpaceOnUse"><stop offset=".31" stop-color="#FCE8B2"/><stop offset=".399" stop-color="#FFCC80"/></linearGradient><path fill="url(#notoPackage0)" d="M110.19-80.18c.2-5.82.28-11.65.41-17.47c.03-1.13.05-2.26.08-3.39c0 0-.01-.38-.21-.47l-54.04-27.82l16.32-8.41s52.65 27.51 53.14 27.87c.49.36.49.36.51 1.41c.04 2.98.09 5.96.13 8.94l.09 6.16c.01.88.48 3.14.03 3.94c-.44.78-2.68 1.18-3.49 1.34c-.84.16-1.73.23-2.48.66c-1.54.87-2.31 3.09-4.07 3.2c-.41.02-.83-.08-1.22.05c-.29.1-.52.31-.74.52c-.85.81-1.67 1.73-2.59 2.46c-.59.45-1.21.61-1.87 1.01z"/><path fill="#FFCC80" d="M127.72-48.65c0-2.64-.18-8.15-.18-8.15s-2.07 1.76-3.37 2.25c-1.02.38-2.13.58-3.02 1.21c-.92.66-1.52 1.71-2.46 2.35c-2.32 1.59-5.48.96-5.48.96v8.86l14.51-7.48z"/><path fill="#7D5133" d="M40.47-60.08c3.61 1.82 7.19 3.7 11.66 5.98v-1.74c-4.44-2.27-8.03-4.14-11.66-5.98v1.74zm7.6.78c1.01.52 1.52.78 2.49 1.28c.01-3.03.01-4.55.02-7.58c-.95-.49-1.46-.74-2.47-1.26c-.02 3.02-.03 4.54-.04 7.56zm-6.32-3.24c.85.43 1.31.67 2.27 1.16l.05-7.56c-.97-.5-1.43-.74-2.29-1.18c-.01 3.04-.02 4.55-.03 7.58z"/><path fill="#7D5133" d="M46.47-66.8c2.31 1.19 3.56 1.82 5.59 2.86c-1.02-1.84-1.57-2.79-2.7-4.69c-1.12.75-1.72 1.11-2.89 1.83zm-6-3.08c1.73.9 2.89 1.49 5.19 2.67c-1.14-1.91-1.7-2.86-2.75-4.72c-1.07.77-1.57 1.17-2.44 2.05zm18.54 17.73c.82.42 1.23.64 2.05 1.07l-.15-9c-.78-.41-1.18-.62-1.95-1.02c.01 3.58.02 5.37.05 8.95z"/><path fill="#7D5133" d="M56.03-52.78c2.97 1.57 5.29 2.74 8.14 4.27c-.02-1.03-.81-2.27-1.89-2.84c-1.68-.89-2.64-1.38-4.35-2.27c-1.09-.58-1.9-.17-1.9.84zm5.66-10.17c.5 1.06.76 1.59 1.25 2.65c-.4.83-.6 1.25-1.01 2.08c.36-.03.53-.04.88-.07c.47-.63.7-.94 1.15-1.57c-.41-.97-.63-1.45-1.05-2.43c1.2.65 1.78.99 2.87 1.63c0 3.51-2.29 5.04-5.73 3.25c-3.44-1.79-5.72-5.8-5.72-9.3c2.56 1.28 4.28 2.11 7.36 3.76z"/></svg>