<svg xmlns="http://www.w3.org/2000/svg" width="1em" height="1em" viewBox="0 0 128 128"><radialGradient id="notoNationalPark0" cx="48.378" cy="86.785" r="81.003" gradientUnits="userSpaceOnUse"><stop offset=".283" stop-color="#AFE4FE"/><stop offset=".702" stop-color="#84D4F9"/><stop offset=".965" stop-color="#67C9F6"/></radialGradient><path fill="url(#notoNationalPark0)" d="M116.62 124.26H11.32c-4.15 0-7.52-3.37-7.52-7.52V11.44c0-4.15 3.37-7.52 7.52-7.52h105.3c4.15 0 7.52 3.37 7.52 7.52v105.3c.01 4.15-3.36 7.52-7.52 7.52z"/><path fill="#B4D218" d="M124.15 76.05V117c0 4.15-3.37 7.52-7.52 7.52H11.32c-4.15 0-7.52-3.37-7.52-7.52V75.65s38.09-1 64.1-1.4c26-.4 56.25 1.8 56.25 1.8z"/><path fill="#00C1ED" d="M106.1 124.49H11.32c-3.82 0-6.97-2.85-7.46-6.53c0 0 5.14-2.57 10.16-3.98c5.01-1.41 19.27-5.17 18.8-11.75c-.47-6.58-13.85-6.2-13-13.47c.38-3.27 6.07-6.89 12.55-9.07c8.4-2.83 18.21-3.73 18.3-3.58c.1.18-3.22 4.78-1.81 9.95c1.41 5.17 7.88 8.44 19.94 11.1s24.03 5.23 31.08 14.16c6.86 8.69 6.22 13.17 6.22 13.17z"/><radialGradient id="notoNationalPark1" cx="55.276" cy="66.733" r="114.301" gradientUnits="userSpaceOnUse"><stop offset=".307" stop-color="#8CDBFC"/><stop offset=".412" stop-color="#54D1F5"/><stop offset=".514" stop-color="#23C7EE"/><stop offset=".564" stop-color="#10C4EC"/></radialGradient><path fill="url(#notoNationalPark1)" d="M7.73 123.58c1.07.58 2.29.91 3.59.91h88.24s-1.09-6.37-11.28-14.43c-6.74-5.33-13.39-6.77-20.76-8.49c-12.02-2.81-20.32-4.55-22.99-13.16c-1.58-5.12.66-7.95.35-8.42c-.31-.47-19.78 3.68-19.95 8.75c-.17 5.27 12.82 4.26 12.77 13.42c-.05 8.62-11.97 12.8-16.32 14.32c-9.4 3.3-13.65 7.1-13.65 7.1z"/><path fill="#79A5AB" d="m3.8 75.39l49.26.04l-5.24-7.95s-2.43-.84-6.36-5.24s-14.31-20.1-17.11-24.59s-7.01-9.35-10.94-9.16c-3.93.19-9.61 2.52-9.61 2.52v44.38z"/><path fill="#E0E0E0" d="M3.79 26.33s2.35-.63 4.9-.49c3.55.19 7.56 3.31 7.56 3.31s-4.61-.04-7.47 2.58C6.37 33.94 3.8 37.7 3.8 37.7l-.01-11.37z"/><path fill="#86B4BB" d="M64.08 42.75L51.1 70.74l1.95 3.98l18.39-1.42l11.63-38.05l-8.93-2.4z"/><path fill="#3E727B" d="m74.51 48.83l-3.08 9.08L70 68.79l34 2.93s14.48-33.09 14.41-33.32c-.08-.23-15.68-22.74-15.68-22.74L90.72 19.9l-9.83 12.53l-6.38 16.4z"/><path fill="#79A5AB" d="M124.14 20.58s-5.21-4.62-8.21-5.67c-3-1.05-14.63-1.58-14.63-1.58l-10.2 3.69l-8.78 10.21L77.06 39l-2.7 10.13s1.75 2.02 2.59-1.71c.66-2.9 1.53-6.62 5.21-14.72s11.27-15.49 17.56-14.71c4.92.61 7.24 7.79 8.36 12.97c1.13 5.18 1.69 15.32 1.69 15.32l-7.28 3.9l-4.35 12.46s-.23 1.73-.6 4.2c-.38 2.48-.38 5.18-.38 5.18l20.19.68l6.79-4.87V20.58z"/><path fill="#E0E0DF" d="m51.18 68.23l3.15.45s2.48-6.23 3.6-9.08c1.13-2.85 2.03-5.1 2.85-6c.83-.9 3.08-1.13 3.68-2.1c.6-.98 2.85-8.25 4.5-10.96c1.65-2.7 3.68-5.1 5.4-5.78c1.73-.68 3.08-.23 3.08-.23s-2.1 5.78-3.15 10.36s-2.85 13.02-2.85 13.02s1.8-.86 2.55-1.91s.93-2.66 1.14-4.12c1.01-7.08 2.28-10.63 3.16-13.6c1.16-3.91 4-9.65 5.36-11.86c3.08-5 5.29-6.87 7.99-8.74c2.7-1.88 7.54-3.9 13.1-3.6c5.55.3 14.05 2.38 14.05 2.38s-6.21-4.82-14.69-4.74s-14.13 3.47-18.63 8.65s-6.98 12.31-6.98 12.31s-2.63-1.73-5.93-.98s-6.38 1.95-9.68 7.58s-7.43 17.71-7.43 17.71l-4.27 11.24zm60.48-17.18s-4.65-1.2-7.13.6c-1.77 1.29-3.22 3.93-4.73 8.93c-1.37 4.53-2.06 5.1-2.1 4.97c-.18-.54.59-8.53 1.5-12.17c.68-2.7 2.54-6.94 6.68-7.88c4.65-1.06 5.63 2.92 5.78 5.55z"/><path fill="#79A5AB" d="M93.72 26.66c-1.27-.1-1.59 1.27-1.64 5.04c-.06 4.13-.38 7.65-.38 7.65s-3.08 4.42-4.05 7.27c-.98 2.85-1.88 5.63-2.4 8.33c-.39 2-.92 4.71.3 5.18c1.58.6 3.15-6.53 4.58-10.96c1.52-4.73 4.8-8.78 4.8-8.78s.09-4.51 0-8.19c-.04-1.27.12-5.44-1.21-5.54zm-7.43 4.05c-1.13.14-1.49 1.94-1.58 4.2c-.09 2.25-.08 3.83-.08 3.83s-1.58 3.38-1.95 4.88s.83 2.18 1.88.9c1.05-1.28 3.3-5.48 3.3-5.48s.08-3 .08-4.2c0-1.2.23-4.35-1.65-4.13z"/><path fill="#ACE4FE" d="M14.21 41.36c-.1 0 .42 1.2.71 2.77c.36 1.93.73 6.36.85 13.4s.47 14.6.47 14.6l5.12-1.51s-.17-10.65-.76-16.17s-1.42-8.35-2.91-10.75c-.71-1.14-2.56-2.36-3.48-2.34z"/><path fill="#FCFDFE" d="M16.78 50.62c.93-.12.92 1.74.99 4.83c.06 2.68.17 4.3-.47 4.36c-.87.08-.75-.75-.93-5c-.12-2.73-.27-4.1.41-4.19zm2.08 1.85c-.58.13-.23 2.03-.12 5.29c.12 3.49-.12 5.7.99 5.7c1.05 0 .58-2.09.47-5.93c-.11-3.37-.3-5.29-1.34-5.06zm-3.26 19.9s1.11-1.63 2.5-1.92c1.4-.29 1.92-.12 1.92-.12s.81-2.33 3.9-2.27c3.08.06 4.13 4.36 4.13 4.36l-12.39 1.63l-.06-1.68z"/><path fill="#0A7E1D" d="M17.24 76.21s24.82-.65 39.97-.52c15.15.13 31.22.13 31.22.13s-8.62-17.24-9.28-17.11c-.65.13-5.75 9.01-5.75 9.01s-5.55-9.64-6.07-9.9s-6.35 13.07-6.35 13.07l-2.53-3.92l-2.98 4.75l-3.88-8.43l-6.92 9.67s-1.37-.43-3.07-.51c-2.56-.12-5.55 1.29-5.55 1.29s-5.49-1.83-9.28-1.83s-14.63 3-14.63 3l5.1 1.3z"/><path fill="#02AB47" d="M50.49 61.52c.58.14 1.58 2.82 1.58 2.82L48.11 74l-3.45-1.01c.01 0 5.19-11.63 5.83-11.47zm4.97 10.23l1.02 1.97l2.82-5.43s-.85-1.57-1.04-1.56c-.4.03-2.8 5.02-2.8 5.02zm11.91-14.03c-1.09.05-6.39 13.14-6.39 13.14s1.4 2.04 1.52 2.06c.76.11 5.95-13.53 5.95-13.53s-.81-1.69-1.08-1.67z"/><path fill="#0A7E1D" d="M82.64 78.76s-.46 1.19.28 1.38s6.25 1.01 15.15.64c8.91-.37 26.07-.73 26.07-.73l.01-12.22s-7.35-16.99-8.27-16.81c-.92.18-7.29 15.14-7.29 15.14s-2.58-4.72-3.03-4.9c-.46-.18-7.68 8.78-7.68 8.78s-4.68-13.32-5.42-13.41c-.73-.09-9.82 22.13-9.82 22.13z"/><path fill="#02AB47" d="M91.41 54.25c-.82 0-6.85 14.14-7.68 16.16c-.83 2.02-3.65 8.57-3.28 9.12c.37.55 3.8.82 3.8.82s3.89-11.32 5.54-15c1.65-3.67 3.51-7.31 3.51-7.31s-1.04-3.79-1.89-3.79zm12.72 5.51c.49-.25 2.11 2.39 2.11 2.39s-6.15 10.65-6.61 10.84c-.46.18-1.75-2.94-1.75-2.94s5.14-9.74 6.25-10.29z"/><path fill="#0A7E1D" d="M3.81 112.79s4.02.57 7.08-1.55c4.41-3.06 4.66-6.34 4.66-6.34s1.17 1.64 5.73 1.73c4.56.09 6.52-3.79 6.42-4.32c-.05-.26-4.54-5.73-4.54-5.73L17.9 85.99l.61-2.57l-7.7-10.29l-3.04-17.9s-.81-1.7-1.34-1.25s-2.6 4.48-2.6 4.48l-.02 54.33z"/><path fill="#00AA48" d="M11.52 87.45c-1.78-.18-3.49-2.69-3.85-8.95c-.36-6.27.36-16.47-.09-19.24c-.45-2.77-1.16-5.28-1.16-5.28s.36-.9 1.07.09s4.48 7.52 6.27 11.99c1.79 4.48 7.84 15.23 8.77 16.83c1.62 2.78 2.87 5.13.72 5.22c-2.15.09-5.11-1.82-5.11-1.82s3.58 7.43 4.65 8.95s4.12 6 4.12 6s-.54 1.79-3.4.98s-6.21-8.18-6.98-10.16c-.75-1.93-.85-3.65-.75-4.47c.18-1.52 1.47-1.84 1.47-1.84s-1.43-1.52-2.15-2.69c-.72-1.16-1.52-2.77-1.52-2.77s.63 7.43-2.06 7.16z"/><path fill="#0A7E1D" d="M117.4 76.89s-18.44 5.46-19.15 6.27c-.72.81-.81 2.33.9 3.04s2.58.2 4.21 1.25c.65.42-.85 4.82-.85 4.82s-7.75 2.53-7.88 3.65c-.16 1.4.85 2.72 2.64 3.61c1.6.8 3.91.92 3.91.92s-9.01 6.84-8.57 8.54c.45 1.7 2.38 4.53 6.71 4.42c3.94-.1 4.56-1.52 6.71.09c2.15 1.61 2.07 5.31 7.88 4.92c4.03-.27 5.02-2.82 7.07-3.85c1.65-.82 3.19-.93 3.19-.93l-.03-33.6l-6.74-3.15z"/><path fill="#02AB47" d="M115.34 62.57c-2.06.12-3.13 5.28-7.25 10.29S98.21 83.2 98.21 83.2s.48 1.22 1.92 1.21c2.06-.02 3.67-1.88 5.28-1.25c1.61.63 1.34 3.4 3.85 3.58c2.51.18 5.91-3.13 8.14-3.22c2.24-.09 2.24 2.24 4.39 2.15c2.15-.09 2.36-1.08 2.36-1.08v-6.82s-3.34-4.37-4.69-8.22c-1.34-3.85-2.59-7.07-4.12-6.98zm-5.99 27.84c3.04.08 5.82-2.77 9.58-2.42c3.76.36 3.94 4.56 3.49 6.27c-.45 1.7-1.52 4.65-4.3 4.65c-2.77 0-2.86-1.61-4.56-1.43c-1.7.18-2.86 1.88-5.01 1.61s-3.13-2.33-4.74-2.6s-4.21 1.25-6.27 1.16c-2.06-.09-2.93-1.81-2.93-1.81s.42-1.5 1.85-2.3s2.6-1.34 4.48-3.13s2.41-2.95 2.41-2.95s2.69 2.86 6 2.95zm-4.3 18.25c3.11 0 2.51 4.48 6.35 5.19c3.85.72 9.04-7.07 6.27-11.1c-2.77-4.03-6.27.81-9.93-.09c-3.67-.9-3.67-2.6-6.44-2.51c-2.77.09-8.53 5.44-8.68 8.41c-.09 1.79 2.77 2.66 5.55 2.24c2.76-.41 5.45-2.14 6.88-2.14z"/><path fill="#FFFFFE" d="M20.34 16.11c.07 3.53 5.69 4.39 14.98 4.47c9.29.07 15.12-.72 14.98-4.18s-10.73-4.1-16.2-4.32c-5.47-.22-13.83.43-13.76 4.03zm22.1 13.72c.46 2.71 4.32 2.36 9.87 2.46c6.19.12 11 .62 11.39-2.68c.39-3.31-7.69-2.97-10.93-2.93c-3.25.05-10.88-.11-10.33 3.15z"/></svg>