<svg xmlns="http://www.w3.org/2000/svg" width="1em" height="1em" viewBox="0 0 128 128"><path fill="#69A246" d="M101.98 24.25s6.37-4.95 9.91-8.49c4.36-4.36 5.66-8.93 4.14-9.47c-1.52-.54-7.41.54-7.41.54l-17.64 8.6l-4.47 6.64l15.47 2.18zm-73.62-2.29s-3.7-1.31-7.84-5.77c-4.04-4.36-5.23-7.3-4.68-8.93c.54-1.63 20.69 4.36 20.69 4.36l13.4 5.99l3.48 7.19l-25.05-2.84z"/><path fill="#82B032" d="M67.02 22.29s4.25-8.49 11.11-12.09s14.05-4.36 25.05-4.79s12.85.87 12.85.87s-8.28 3.92-16.23 7.62s-14.38 8.6-14.38 8.6L68.44 35.36L45.35 18.15s-8.06-4.03-14.7-6.53s-14.81-4.36-14.81-4.36s1.61-2.06 16.77-1.31c15.25.76 20.91 4.57 25.48 7.3s8.93 9.04 8.93 9.04z"/><radialGradient id="notoPeach0" cx="79.058" cy="16.909" r="88.809" gradientUnits="userSpaceOnUse"><stop offset=".719" stop-color="#FE622B"/><stop offset=".78" stop-color="#FB582C"/><stop offset=".886" stop-color="#F23D2F"/><stop offset="1" stop-color="#E71932"/></radialGradient><path fill="url(#notoPeach0)" d="M68.22 24.69c2.5-.22 7.98-7.82 22.95-6.61c14.97 1.2 37.81 18.2 31.66 50.08c-3.34 17.34-12.36 28.52-29.03 40.64c-11.78 8.56-23.77 14-29.31 14.08c-4.99.08-11.87-10.84-11.87-10.84l15.6-87.35z"/><radialGradient id="notoPeach1" cx="102.96" cy="33.821" r="28.35" gradientTransform="matrix(-.8071 .5904 -1.2855 -1.7574 229.539 32.471)" gradientUnits="userSpaceOnUse"><stop offset=".371" stop-color="#FF9759"/><stop offset=".747" stop-color="#FF9759" stop-opacity="0"/></radialGradient><path fill="url(#notoPeach1)" d="M68.22 24.69c2.5-.22 7.98-7.82 22.95-6.61c14.04 1.13 34.99 16.14 32.49 44.28c-.17 1.88-2.09 9.95-5.88 10.35c-18.48 1.98-27.32-20.64-32.08-26.6c-9.1-11.37-17.48-21.42-17.48-21.42z"/><radialGradient id="notoPeach2" cx="53.531" cy="15.482" r="50.699" gradientUnits="userSpaceOnUse"><stop offset=".481" stop-color="#FF9759"/><stop offset="1" stop-color="#FF9759" stop-opacity="0"/></radialGradient><path fill="url(#notoPeach2)" d="M67.53 24.89c2.5-.22 8.67-8.02 23.64-6.82c11.37.91 27.26 10.93 31.58 29.65c1.01 4.4-4.78 9.44-8.55 10.09c-11.52 1.99-25.3-14.74-30.07-20.7c-6.47-8.09-11.74-9.86-14.47-10.78c-1.1-.38-2.13-1.44-2.13-1.44z"/><radialGradient id="notoPeach3" cx="55.211" cy="29.084" r="76.871" gradientUnits="userSpaceOnUse"><stop offset=".701" stop-color="#FE622B"/><stop offset=".766" stop-color="#FD5D2B"/><stop offset=".84" stop-color="#F8502D"/><stop offset=".917" stop-color="#F1392F"/><stop offset=".998" stop-color="#E71A32"/><stop offset=".999" stop-color="#E71932"/></radialGradient><path fill="url(#notoPeach3)" d="m88.38 66.94l-2.19 23.04l-9.53 21.65l-7.95 9.73s-2.27 1.42-4.21 1.51c-1.95.08-16.45-4.09-29.36-12.83S11.98 90.83 7.53 79.06c-5.56-14.7-5.76-36.95 7.55-49.26S41.5 15.7 52.62 18.08s14.5 6.16 16.69 7.95s11.52 13.11 11.52 13.11l7.35 18.87l.2 8.93z"/><radialGradient id="notoPeach4" cx="44.682" cy="18.368" r="73.082" gradientTransform="matrix(.0177 .9998 -.7963 .0141 58.517 -26.566)" gradientUnits="userSpaceOnUse"><stop offset=".638" stop-color="#FF9759"/><stop offset="1" stop-color="#FF9759" stop-opacity="0"/></radialGradient><path fill="url(#notoPeach4)" d="M56.83 95.2c-24.2 3-44.92-11.51-49.37-23.28c-3.08-8.13-4.44-11.44-2.86-21.24c1.28-7.9 4.25-14.99 10.47-20.88c12.41-11.75 26.57-14.39 38.15-11.71c11.08 2.56 13.89 6.15 16.07 7.94s11.52 13.11 11.52 13.11l7.35 18.87c.02 0 1.52 33.12-31.33 37.19z"/><radialGradient id="notoPeach5" cx="77.948" cy="17.422" r="85.745" gradientUnits="userSpaceOnUse"><stop offset=".499" stop-color="#F34124"/><stop offset=".999" stop-color="#D10D22"/></radialGradient><path fill="url(#notoPeach5)" d="M67.91 121.45c.43.12 4.58-1.88 7.19-5.13c7.01-8.75 15.91-20.91 17.49-43.44c2.37-33.8-19.57-46.25-20.9-46.85c-1.33-.59-3.26-.59-1.78 1.04c1.48 1.63 17.94 20.01 15.71 45.07c-1.99 22.42-10.82 39.58-13.94 43.44c-3.1 3.85-5.02 5.51-3.77 5.87z"/><radialGradient id="notoPeach6" cx="33.436" cy="35.616" r="23.33" gradientTransform="matrix(.8812 -.4727 .2402 .4479 -4.585 35.468)" gradientUnits="userSpaceOnUse"><stop offset=".345" stop-color="#FEBD92"/><stop offset="1" stop-color="#FEBD92" stop-opacity="0"/></radialGradient><path fill="url(#notoPeach6)" d="M28.31 50.94s-3.16 7.63-9.52 2.6c-3.46-2.74-3.23-9.81.14-15.71c4.12-7.24 11.89-12.22 22.26-13.63c9.26-1.26 15.55 1.37 16.7 6.83c1.4 6.6-4.47 6.33-4.47 6.33c-16.47-.52-22.7 8.1-25.11 13.58z"/><radialGradient id="notoPeach7" cx="40.626" cy="50.686" r="19.811" gradientTransform="matrix(.9695 -.5798 .4027 .6582 -16.188 41.227)" gradientUnits="userSpaceOnUse"><stop offset=".799" stop-color="#FF9759"/><stop offset="1" stop-color="#FF9759" stop-opacity="0"/></radialGradient><path fill="url(#notoPeach7)" d="M23.62 57.97c-.64-7.23 3.9-15.39 11.49-20.01c7.8-4.75 17.51-5.37 24.99-1.66L23.62 57.97z"/><radialGradient id="notoPeach8" cx="35.598" cy="39.581" r="22.277" gradientTransform="matrix(.8689 -.4949 .2885 .5066 -6.754 37.149)" gradientUnits="userSpaceOnUse"><stop offset=".745" stop-color="#FF9759" stop-opacity="0"/><stop offset=".974" stop-color="#FF9759"/></radialGradient><path fill="url(#notoPeach8)" d="M28.31 50.94s-3.16 7.63-9.52 2.6c-3.46-2.74-3.23-9.81.14-15.71c4.12-7.24 11.89-12.22 22.26-13.63c9.26-1.26 15.55 1.37 16.7 6.83c1.4 6.6-4.47 6.33-4.47 6.33c-16.47-.52-22.7 8.1-25.11 13.58z"/></svg>