<svg xmlns="http://www.w3.org/2000/svg" width="1em" height="1em" viewBox="0 0 128 128"><path fill="#34700D" d="M27.3 36.56s19.47 10.45 20.59 10.95c1.12.51 2.64-.2 3.35-1.83c.71-1.62 11.16-21.1 11.66-21.91s.91-2.33 2.74-1.52s4.16-5.27 4.16-5.27L51.13 6.03L41.9 7.25L26.59 34.94l.71 1.62zm-.92 47.77s27.18.3 28.81.3c1.62 0 3.14.41 3.35 2.54c.2 2.13-.2 26.37-.2 26.37l-10.45.1l-15.52-.71l-8.32-3.45l-6.49-15.11l8.82-10.04zm81.35-40.47L86.02 56.64c-.51.3-1.12 1.32-.2 2.94s11.06 20.08 11.87 21.5c.81 1.42 1.72 3.14.3 4.16c-1.42 1.01 2.13 4.67 2.13 4.67l10.04-1.12l6.8-4.36l5.07-8.42s-.91-9.94-1.12-10.24c-.2-.3-9.43-18.97-9.43-18.97l-3.75-2.94z"/><path fill="#7CB342" d="M75.45 37.56S64.88 21.24 61.48 17.39c-2.67-3.03-5.55-5.51-8.07-7.56c-2.28-1.85-3.95-2.19-5.93-1.88c-3.12.49-4.94 1.99-6.69 4.97c-5.27 8.95-13.49 23.64-13.49 23.64s-2.89-.91-2.94-2.84c-.06-1.84 11.76-21.91 12.98-24.04c1.22-2.13 3.25-4.87 8.82-5.17s34.79-.51 36.41-.2s5.38 1.83 8.82 7.1c3.94 6.03 6.45 11.38 6.45 11.38s7.75-4.59 8.56-4.08c1.22.76-10.81 24.33-11.77 25.15c-.6.52-27.69 2.23-28.3.71c-.39-1.01 9.12-7.01 9.12-7.01zm32.28 6.3s1.43-1.27 2.57-.92c1.14.36 11.67 22.88 12.72 25.08c1.06 2.2 1.67 7.48-1.58 12.76c-3.26 5.28-18.92 28.87-20.07 30.28c-1.14 1.41-1.76 2.64-4.93 2.64s-15.14-.18-15.14-.18s-.44 8.89-.53 9.68s-1.41 1.32-2.29-.26S65.1 100.23 65.1 99.7c0-.53 12.23-24.71 14-24.47c1.27.18 1.14 9.77 1.14 9.77s27.55-.53 30.28-.7c2.73-.18 5.37-1.23 6.78-3.34s4.58-7.13 2.2-12.32c-2.12-4.62-9.42-18.92-10.47-21.04c-.67-1.33-1.64-2.73-1.3-3.74zm-49.4 69.68c-.39 1.53-1.59 1.57-3 1.66c-1.41.09-20.42 0-24.56-.44c-4.14-.44-8.1-3.52-9.59-6.95c-1.5-3.43-7.57-14.17-11.79-23.06S4.2 73.31 3.93 71.28s2.02-7.13 4.31-10.83c2.29-3.7 3.87-5.99 3.87-5.99S3.82 49 3.66 47.95c-.11-.7 8.35-.95 15.58-1.23c7.12-.28 14.35-.44 14.88.09c.53.53 4.31 8.36 6.51 12.85s6.69 12.76 6.6 13.55c-.13 1.14-1.29.57-2.96-.14c-1.67-.7-7.86-3.91-7.86-3.91s-6.95 11.88-9.68 17.43c-2.73 5.55-5.37 10.91-4.67 15.84c.43 2.98 4.05 8.27 10.74 8.98s21.56.26 23.33.35c1.76.1 2.56.39 2.2 1.78z"/><path fill="#FFF" d="M15.28 56.68c-1.17-.48-3.45 1.79-6.6 8.29c-2.52 5.19-2.63 7.1-1.34 9.44c1.11 2.01 3.18 5.33 4.09 5.35c1.14.02 1.06-6.68 2-11.55c1.32-6.86 3.43-10.87 1.85-11.53zM56.04 6.5c-.85.77 3.27 4.28 4.63 4.41c1.85.18 22.53-.09 24.03-.09s2.38-1.06.97-2.46s-3.08-2.02-4.22-2.2c-.59-.09-5.98.05-12.06.09c-5.79.04-12.4-.6-13.35.25zm19.72 78.6c-1.25.51-6.87 12.94-6.95 13.91c-.09.97 3.35 6.24 4.58 6.06c1.23-.18 2.63-6.27 3.16-11.75c.35-3.67.66-8.81-.79-8.22z" opacity=".3"/></svg>