<svg xmlns="http://www.w3.org/2000/svg" width="1em" height="1em" viewBox="0 0 128 128"><path fill="#CDCBBF" d="M63.55 9.17C79.3 8.65 99.82 29.96 109.42 43c9.2 12.5 18.07 29.76 14.17 46.94s-19.13 24.8-35.78 26.75c-16.65 1.95-54.38 2.48-67.13-4.61C7.93 105-.22 91.89 4.38 71.17c5.32-23.92 37.56-61.29 59.17-62z"/><path fill="#FFF" d="M63.83 14.78c-12.65 0-33.88 21.69-40.93 31.76s-16.98 31-7.93 41.21s25.16 4.74 47.87 5.03c22.71.29 34.36.72 38.67-.14c4.31-.86 12.36-4.31 14.52-13.51s-4.98-28.1-17.63-41.76C83.62 21.4 73.31 14.78 63.83 14.78z"/><path fill="#D4D4D4" d="M42.87 37.66c0 2.62 1.9 3.25 5.94 3.09s6.02-1.09 5.86-3.17c-.24-3.01-2.77-2.93-5.86-2.93s-5.94.32-5.94 3.01zm36.32 5.39c.95 2.77 4.04 1.58 6.81.55c2.77-1.03 4.99-3 3.8-5.38c-1.35-2.69-3.87-.59-5.94.32c-2.53 1.11-5.62 1.74-4.67 4.51zM56.02 28.01c.76 1.91 3.31 1.74 5.86.63c3.48-1.5 4.83-2.93 3.8-5.23s-4.04-.95-5.7-.24c-1.66.72-5.07 2.06-3.96 4.84zM27.26 46.24c-1.31 2.34 1.05 4.43 3.68 5.85s4.68 1.64 5.78 0c1.4-2.09-.13-3.61-3.07-5.44c-3.49-2.17-5.57-1.86-6.39-.41zM15.08 78.77c.21 2.13 1.27 2.93 5.62 2.61c4.36-.32 5.58-1.65 5.46-3.56c-.16-2.61-3.09-2.61-6.02-2.22c-2.92.39-5.3.79-5.06 3.17zm84.03-12.22c1.7 2.09 4.59-.48 6.1-1.98s4.08-3.77 2.14-5.86c-2.14-2.3-4.28.16-5.94 1.66c-1.67 1.51-4.36 3.64-2.3 6.18zM96.29 80.6c0 3.41 3.25 3.17 5.78 3.09c2.53-.08 5.78-.87 5.78-3.41c0-2.53-2.38-2.93-5.94-2.53c-3.56.4-5.62.79-5.62 2.85z"/><path fill="#3C3C3C" d="M35.47 59.56c1.82-.26 19.02.45 27.95.06s26.52-.41 27.56-.19c1.96.4 1.92 1.92 1.92 3.84s-.01 22.3-.07 28.87c-.05 6.05.53 23.41-.33 24.18s-5.94 1.58-9.11 1.77c-3.17.19-17.49 1.97-41.09-.1c-3.16-.28-8.64-1.4-8.93-1.78c-.29-.38-.29-23.95-.19-30.76c.1-6.82.09-23.3.08-23.97c-.01-1.44 1.53-1.83 2.21-1.92z"/><path fill="#858585" d="M73.67 80.66c.31 1.08 3.01 2.43 4.83 2.31c1.82-.13 3.97-.78 4.47-2.2c.26-.73-.66-3.01-.54-3.61s.01-3.1-1.73-3.85s-3.76 2.49-4.54 3.17c-.79.68-1.48.57-1.96 1.4c-.48.84-.88 1.57-.53 2.78zm-26.05 4.33c.45 1.67 2.88 2.21 3.65 2.5s2.59.96 4.42.86c1.82-.1 5.66-3.55 6.24-4.8c.58-1.25 1.63-3.65 2.98-4.42c1.34-.77 10.08-5.28 9.79-7.3c-.23-1.63-1.15-3.36-4.03-3.55c-2.88-.19-6.82 1.15-9.22 1.34c-2.4.19-6.82.29-8.74 1.92s-4.22 4.9-4.8 6.72c-.58 1.84-.97 4.24-.29 6.73z"/><path fill="#858585" d="M36.45 65.21c.26 3.35.38 4.58.67 9.67c.29 5.09.1 12.19.1 14.88s.58 12.96 2.5 13.25c1.92.29 4.8-1.34 5.09-4.13c.29-2.78 0-8.74 0-9.7c0-.96-1.92-4.61-1.82-5.28c.1-.67-1.06-5.28.96-8.55c2.02-3.26 5.47-6.62 6.72-7.39c.7-.43 8.45-2.11 8.45-2.11s4.13.29 4.99-2.4c.86-2.69-4.28-1.14-6.82-.96c-2.69.19-9.31.48-12.58.67c-3.28.2-8.55-1.69-8.26 2.05z"/></svg>