<svg xmlns="http://www.w3.org/2000/svg" width="1em" height="1em" viewBox="0 0 128 128"><path fill="#EEBD1C" d="m122.68 46.87l-41.8-14.44L4.03 66.57c-.17 4.45.38 15.13 1.12 16.2c.78 1.12 3.86 3.63 3.43 4.92c-.33.99-1.4 1.51-2.1 2.29c-2.36 2.63 1.05 7.91 2.78 10.1c1.91 2.42 4.4 4.36 7.01 5.98c2.6 1.62 9.26 6.18 12.38 4.85c.45-.19.82-.53 1.22-.81c.81-.57 1.78-.96 2.77-.93c.99.02 1.99.49 2.53 1.32c1.56 2.41 1.99 3.49 4.98 4.25c3.12.8 6.43 1.21 9.63 1.52c4.97.48 10.09.49 14.98-.66c6.68-1.57 12.55-5.64 14.57-12.44c3.33-11.19 19.65-15.81 26.57-17.11c1.42-.27 2.83-.56 4.23-.9c.88-.22 3.58-.48 4.1-1.23c.19-.28.24-.63.31-.96c.25-1.16.89-2.28 1.91-2.88c1.02-.6 2.44-.58 3.31.23c.09.08.17.17.28.23c.79.37 2.31-1.85 2.64-2.38a8.558 8.558 0 0 0 1.3-4.4c.16-8.35-1.3-26.89-1.3-26.89z"/><path fill="#FFEB3B" d="M102.71 29.18c-16.67-6.8-28.58-7.83-37.05-6.06a.66.66 0 0 0-.49.84c.06.19.1.41.11.66c.01 1.21-2.09 2.62-4.92 2.84c-1.07.08-2.07-.03-2.91-.28c-.75-.22-1.57-.04-2.21.42c-3.84 2.78-6.23 6.24-7.66 9.26c-1.19 2.51-3.5 4.2-5.91 5.46c-4.77 2.49-10.08 3.91-15.15 5.66c-13.6 4.69-15.94 7.55-16.42 8.87c-.2.55-.32 1.13-.61 1.63c-.77 1.31-2.45 1.7-3.74 2.5c-.59.37-1.58 2.48-1.72 5.17c-.48 9.75 9.69 15.87 17.23 19.05c21.96 9.29 36.02 12.57 47.86-.62c4.97-5.53 8.51-10.61 11.72-12.19c-1.24-.41-2.99-1.53-2.39-2.79c1.83-3.85 10.8-1.45 10.98-1.41c.29.07 3.06-2.47 16.07-3.02c10.99-.46 34.37-20.83-2.79-35.99z"/><path fill="#D19600" d="M28.19 88.01c.18 2.41-1.31 4.11-3.33 3.81c-2.02-.31-3.81-2.51-3.99-4.91a4.4 4.4 0 0 1 .16-1.65s5.18-2.56 8.72-.82c3.54 1.74-1.56 3.57-1.56 3.57z"/><path fill="#EEBD1C" d="M28.19 87.98c-1.23.4-2.57.45-3.8.05c-.69-.22-1.33-.57-1.91-1.01c-.3-.23-1.53-1.15-1.49-1.56c.04-.43 1.23-.7 1.61-.83c2.23-.76 4.95-1.27 7.15-.19c1.76.86 1.31 2.04-.14 2.9c-.45.27-.93.48-1.42.64z"/><path fill="#D19600" d="M19.23 99.91c.16 2.19-1.19 3.72-3.02 3.45c-1.83-.28-3.45-2.27-3.61-4.45c-.16-2.18 1.19-3.72 3.02-3.45s3.45 2.28 3.61 4.45zm23.61 1.69c.19 2.49-1.18 4.29-3.07 4.01c-1.88-.28-3.55-2.51-3.74-4.99c-.19-2.48 1.18-4.29 3.07-4.01c1.88.27 3.55 2.5 3.74 4.99zm10.49 8.11c.11 1.51-.73 2.61-1.87 2.45s-2.17-1.53-2.28-3.05c-.11-1.51.73-2.61 1.87-2.45s2.17 1.52 2.28 3.05zm16.52-16.28c.04 2.62-1.31 5.34-3.01 6.08c-1.7.74-3.12-.78-3.16-3.41c-.04-2.62 1.31-5.34 3.01-6.08c1.7-.73 3.11.8 3.16 3.41zm40.85-14.17c-.05 2.01-1.17 4.05-2.49 4.56c-1.33.51-2.37-.69-2.32-2.71c.05-2.01 1.17-4.05 2.49-4.56c1.33-.51 2.37.71 2.32 2.71zm9.52-11.03c-.05 2.01-1.17 4.05-2.49 4.56s-2.37-.69-2.32-2.71c.05-2.01 1.17-4.05 2.49-4.56c1.33-.51 2.37.71 2.32 2.71zm-20 5.87c-.07 2.95-1.84 5.99-3.94 6.8s-3.75-.9-3.68-3.85s1.84-5.99 3.94-6.8s3.76.91 3.68 3.85z"/><ellipse cx="23.76" cy="59.6" fill="#EEBD1C" rx="6.92" ry="3.8" transform="rotate(-4.318 23.749 59.577)"/><ellipse cx="51.4" cy="62.06" fill="#EEBD1C" rx="10.53" ry="5.16" transform="rotate(-4.318 51.376 62.034)"/><ellipse cx="62.56" cy="36.08" fill="#EEBD1C" rx="7.41" ry="4.07" transform="rotate(-4.318 62.535 36.063)"/><ellipse cx="42.15" cy="51.38" fill="#EEBD1C" rx="4.15" ry="2.28" transform="rotate(-4.318 42.135 51.358)"/><ellipse cx="38.62" cy="73.03" fill="#EEBD1C" rx="4.15" ry="2.28" transform="rotate(-4.318 38.606 73.001)"/><ellipse cx="50.92" cy="80.27" fill="#EEBD1C" rx="5.87" ry="3.22" transform="rotate(-4.318 50.9 80.236)"/><ellipse cx="62.83" cy="48.11" fill="#EEBD1C" rx="3.81" ry="2.09" transform="rotate(-4.318 62.8 48.091)"/><ellipse cx="60.75" cy="71.51" fill="#EEBD1C" rx="3.81" ry="2.09" transform="rotate(-4.318 60.723 71.486)"/><ellipse cx="77.99" cy="30.67" fill="#EEBD1C" rx="3.81" ry="2.09" transform="rotate(-4.318 77.958 30.659)"/><ellipse cx="107.91" cy="52.8" fill="#EEBD1C" rx="6.82" ry="3.74" transform="rotate(-1.985 107.773 52.701)"/><ellipse cx="99.29" cy="45.87" fill="#EEBD1C" rx="3.23" ry="1.78" transform="rotate(-1.985 99.159 45.78)"/><ellipse cx="83.27" cy="38.35" fill="#EEBD1C" rx="3.23" ry="1.78" transform="rotate(-4.318 83.237 38.332)"/><ellipse cx="80.89" cy="53.38" fill="#EEBD1C" rx="7.41" ry="4.07" transform="rotate(-4.318 80.853 53.36)"/><path fill="#D19600" d="M83.94 69.59c1.66-.03 3.28-.53 4.8-1.19c.11.95-.3 1.87-.7 2.74c-.39.83-.8 1.69-1.53 2.24c-.88.66-2.09.74-3.16.47c-1.07-.27-2.02-.86-2.95-1.46c-.89-.57-3.16-2.69-1.33-3.7c.58-.32 1.22.1 1.76.3c1.02.38 2.01.62 3.11.6z"/><radialGradient id="notoSponge0" cx="31.842" cy="51.567" r="16.66" gradientTransform="matrix(.9796 .2007 -.2025 .9884 13.25 -12.11)" gradientUnits="userSpaceOnUse"><stop offset=".376" stop-color="#80DEEA" stop-opacity="0"/><stop offset="1" stop-color="#80DEEA" stop-opacity=".8"/></radialGradient><circle cx="33.74" cy="43.62" r="16.49" fill="url(#notoSponge0)"/><radialGradient id="notoSponge1" cx="27.828" cy="22.084" r="6.956" gradientTransform="rotate(5.315 105.892 110.822)" gradientUnits="userSpaceOnUse"><stop offset=".376" stop-color="#80DEEA" stop-opacity="0"/><stop offset="1" stop-color="#80DEEA" stop-opacity=".8"/></radialGradient><circle cx="35.47" cy="14.24" r="6.72" fill="url(#notoSponge1)"/><radialGradient id="notoSponge2" cx="11.269" cy="40.377" r="8.834" gradientTransform="rotate(5.315 105.892 110.822)" gradientUnits="userSpaceOnUse"><stop offset=".376" stop-color="#80DEEA" stop-opacity="0"/><stop offset="1" stop-color="#80DEEA" stop-opacity=".8"/></radialGradient><circle cx="17.98" cy="31.79" r="7.96" fill="url(#notoSponge2)"/><path fill="#FFF" d="M27.61 32.31c.02.5.55.84 1.04.94c1.56.31 3.7-.22 5.3-.11c1.69.12 2.72.24 4.56.83c1.07.34 3.22.4 2.8-1.3c-.36-1.47-2.91-2.56-4.17-2.87c-2.93-.74-5.91-.6-8.03.45c-1.4.69-1.51 1.79-1.5 2.06z" opacity=".8"/><radialGradient id="notoSponge3" cx="96.395" cy="89.96" r="11.395" gradientTransform="rotate(11.579 64.089 59.058)" gradientUnits="userSpaceOnUse"><stop offset=".2" stop-color="#80DEEA" stop-opacity="0"/><stop offset="1" stop-color="#80DEEA" stop-opacity=".8"/></radialGradient><circle cx="87.81" cy="92.88" r="10.93" fill="url(#notoSponge3)"/><radialGradient id="notoSponge4" cx="114.62" cy="92.911" r="6.027" gradientTransform="rotate(11.579 64.089 59.058)" gradientUnits="userSpaceOnUse"><stop offset=".312" stop-color="#80DEEA" stop-opacity="0"/><stop offset="1" stop-color="#80DEEA"/></radialGradient><circle cx="106.38" cy="102.66" r="5.32" fill="url(#notoSponge4)" opacity=".7"/><path fill="#FFF" d="M96.07 91.48c.14.72.17 1.51-.17 2.17c-.34.66-1.12 1.13-1.82.9c-.59-.19-.95-.77-1.3-1.29c-1.16-1.67-2.84-2.9-4.75-3.57c-1.18-.42-3.88-.97-3.45-2.84c.64-2.74 5.77-1.85 7.88-.47c1.8 1.18 3.2 2.99 3.61 5.1zM30.66 13.41c.56-.02 1.02-.87 2.03-1.64c.91-.7 2.25-1.03 3.06-1.08c.44-.03 1.09-.17 1.35-.64c.14-.26-.09-1.59-1.96-1.34c-2.22.3-4.16 1.76-4.65 3.08c-.33.9-.36 1.64.17 1.62z" opacity=".8"/></svg>