<svg xmlns="http://www.w3.org/2000/svg" width="1em" height="1em" viewBox="0 0 128 128"><linearGradient id="notoShootingStar0" x1="64" x2="64" y1="155.558" y2="-.244" gradientUnits="userSpaceOnUse"><stop offset="0" stop-color="#3367D6"/><stop offset=".521" stop-color="#352893"/><stop offset="1" stop-color="#1A237E"/></linearGradient><path fill="url(#notoShootingStar0)" d="M116 124H12c-4.42 0-8-3.58-8-8V12c0-4.42 3.58-8 8-8h104c4.42 0 8 3.58 8 8v104c0 4.42-3.58 8-8 8z"/><linearGradient id="notoShootingStar1" x1="46.624" x2="124.494" y1="85.54" y2="-3.705" gradientUnits="userSpaceOnUse"><stop offset="0" stop-color="#FFF7AF"/><stop offset="1" stop-color="#FFF7AF" stop-opacity=".1"/></linearGradient><path fill="url(#notoShootingStar1)" d="m34.15 69.14l40.47 22.92C87.88 57.62 107.55 34.57 124 20.08V12c0-3-1.65-5.61-4.1-6.98c-29.9 7.41-70.83 24.6-85.75 64.12z"/><linearGradient id="notoShootingStar2" x1="47.136" x2="120.894" y1="81.18" y2="13.38" gradientUnits="userSpaceOnUse"><stop offset=".254" stop-color="#FFFDE7"/><stop offset="1" stop-color="#FFFDE7" stop-opacity="0"/></linearGradient><path fill="url(#notoShootingStar2)" d="M114.43 12.88C62.41 30.29 41 73.56 41 73.56L61.23 90.2s4.5-20.25 18.05-41.77c10.98-17.43 28.3-28.56 35.99-33.86c.91-.62.21-2.04-.84-1.69z"/><linearGradient id="notoShootingStar3" x1="85.658" x2="68.685" y1="12.325" y2="95.571" gradientUnits="userSpaceOnUse"><stop offset=".005" stop-color="#4453AB" stop-opacity="0"/><stop offset="1" stop-color="#3949AB"/></linearGradient><path fill="url(#notoShootingStar3)" d="M75.24 67.39c.3-5.04 3.11-17.44 3.11-17.44c.73-4.1-3-5.1-5.53-3.82c-7.19 3.64-14.83 8.76-19.53 9.16c-5.6.48-6.26-5.54-6.18-8.76c-5.28 6.58-9.73 14.07-12.96 22.61l40.47 22.92c12.84-33.36 31.71-56.03 47.83-70.59l1.55-1.38v-2.36c-23.11 16.34-34.65 35-41.37 44.77c-4.25 6.17-7.63 8.9-7.39 4.89z"/><path fill="#FDD835" d="M29.58 49.88L46.36 60.7c1.29.83 2.92.89 4.27.17l17.25-9.32c2.02-.95 4.25.82 3.78 3L66.2 72.98c-.44 1.49-.02 3.1 1.09 4.19L81.9 91.5c1.53 1.63.53 4.3-1.69 4.52l-19.72 1.09c-1.51.08-2.87.98-3.54 2.34l-8.71 17.73c-1.07 1.96-3.92 1.83-4.82-.21l-7.48-19.05a4.207 4.207 0 0 0-3.43-2.64L13.42 93.1c-2.19-.42-2.95-3.16-1.29-4.65l15.32-12.24c1.2-.96 1.78-2.49 1.52-4l-3.41-19.67c-.29-2.21 2.09-3.78 4.02-2.66z"/><path fill="#FFFF8D" d="m39.79 66.36l-8.57-10.49c-.46-.6-1.3-1.58-.29-2.25c.8-.53 2.32.84 2.32.84l9.36 6.77c3.56 2.58 3.8 4.11 3.03 5.62c-.9 1.75-3.4 2.51-5.85-.49z"/><path fill="#F4B400" d="m64.23 72.85l4.71-14.05c.22-.72.66-1.94-.52-2.21c-.93-.21-1.88 1.6-1.88 1.6l-6.32 8.98c-1.96 2.56-2.79 4.98-1.85 6.72c1.26 2.31 4.33 2.7 5.86-1.04z"/><g fill-rule="evenodd"><path fill="#FFF176" d="M118.09 63.75c-3.13-1.04-5.56-3.6-6.45-6.78a.44.44 0 0 0-.85-.02a9.97 9.97 0 0 1-6.76 6.49c-.41.12-.42.68-.02.81a9.953 9.953 0 0 1 6.45 6.76c.12.44.71.45.85.02a9.947 9.947 0 0 1 6.75-6.47a.42.42 0 0 0 .03-.81z"/><path fill="#FFF9C4" d="M42.71 30.83a7.16 7.16 0 0 1-4.64-4.88a.316.316 0 0 0-.61-.01a7.17 7.17 0 0 1-4.87 4.67c-.29.08-.3.49-.01.59a7.2 7.2 0 0 1 4.65 4.87c.09.32.51.33.61.01a7.16 7.16 0 0 1 4.86-4.66c.29-.09.3-.5.01-.59z"/><circle cx="12.36" cy="41.85" r="2.41" fill="#7BAAF7"/><circle cx="59.23" cy="15.07" r="4.77" fill="#5C6BC0"/><circle cx="109.42" cy="94.45" r="3.19" fill="#7986CB"/><circle cx="98.9" cy="80.52" r="2.41" fill="#FFF176"/><circle cx="19.67" cy="17.48" r="2.41" fill="#FFF176"/><circle cx="69.65" cy="113.47" r="2.41" fill="#7BAAF7"/></g></svg>