<svg xmlns="http://www.w3.org/2000/svg" width="1em" height="1em" viewBox="0 0 128 128"><path fill="#FFF" d="M106.13 42.46c-.07 1.32.89 2.47 2.24 2.43c1.2-.04 1.99-1.41 1.95-2.3s-1.08-1.97-2.14-2.03c-1.05-.08-2 1.1-2.05 1.9zm-70.96-38c-.84.93-.57 2.31.21 2.82s1.95.46 2.52-.24c.51-.63.57-1.89-.21-2.67c-.67-.68-1.98-.51-2.52.09z" opacity=".5"/><path fill="#FFF" d="M113.6 95.23s1.15-3.3 1.84-3.34c.69-.04 1.69 3.3 1.69 3.3s3.42.04 3.65.54c.3.64-2.19 2.8-2.19 2.8s.81 3.23.42 3.61c-.42.42-3.38-1.27-3.38-1.27s-3.03 2.11-3.69 1.54c-.57-.5.61-3.92.61-3.92s-2.84-2.07-2.69-2.65c.23-.8 3.74-.61 3.74-.61zm2.35-58.65c-.17 2 1.26 3.7 3.31 3.58c1.83-.11 3.28-1.65 3.07-3.56c-.23-2.06-1.57-2.93-3.18-2.99s-3.1 1.76-3.2 2.97zM25.23 16.26c-.23 1.76.92 3.21 2.75 3.21c1.67 0 2.98-1.6 2.87-3.27c-.12-1.8-1.4-2.73-2.93-2.6c-1.42.12-2.56 1.6-2.69 2.66z"/><path fill="#FFF" d="M81.04 109.17c-.16 1.87 1.17 3.45 3.09 3.34c1.7-.1 3.06-1.54 2.86-3.32c-.21-1.93-1.46-2.74-2.96-2.79c-1.5-.05-2.89 1.64-2.99 2.77z" opacity=".5"/><radialGradient id="notoFlyingSaucer0" cx="50.021" cy="75.73" r="49.077" gradientUnits="userSpaceOnUse"><stop offset=".171" stop-color="#4CF9FF" stop-opacity=".7"/><stop offset="1" stop-color="#4CF9FF" stop-opacity="0"/></radialGradient><path fill="url(#notoFlyingSaucer0)" d="m36.85 74.12l-20.86 39.06l16.42 13.76h28.41l9.76-42.17z"/><path fill="#848484" d="M19.36 66.25C18.27 65 12.64 55.62 9.83 48.59S4.21 31.87 4.21 31.87l45.16 5l74.07 41.56s-7.5 4.53-17.5 9.06s-15 5.63-16.09 5.94c-1.09.31-15.03.8-38.28-8.28c-22.83-8.9-32.21-18.9-32.21-18.9z"/><path fill="#9A9A9A" d="m16.3 30.12l-9.79-.92s-1.29 0-2.03.83s-.28 1.85-.28 1.85s20 18.21 55.94 32.51c38.69 15.39 63.29 14.06 63.29 14.06s1.08-.54 1.08-1.63c0-1.09-.87-1.83-.87-1.83L62.73 46.71L16.3 30.12z"/><path fill="#B0B0B0" d="M72.02 30.05c-15.98-6.85-27.35-5.47-32.35-5.31c-5 .16-33.15 4.46-33.15 4.46s23.47 19.76 55.81 31.95s61.31 13.83 61.31 13.83s-12.56-15.86-20.21-23.83c-10.28-10.7-17.19-15.01-31.41-21.1z"/><path fill="#E3E3DF" d="M31.86 27.89c-1.43-.83-13.07 1.27-13.07 5.05c0 2.81 6.09 6.17 12.03 9.3c5.21 2.75 14.11 6.49 14.51 4.09c.47-2.81-9.38-5.45-12.43-10.58c-2.24-3.77.88-6.73-1.04-7.86z"/><path fill="#9A9A9A" d="M103.38 54.91c-1.89.09-2.08 3.37-6.82 4.81s-14.86-1.22-16.11.25c-2.41 2.81 24.94 12.19 30.39 7.86c4.05-3.22-5.7-13-7.46-12.92z"/><path fill="#4B7179" d="M44.81 23.22s-1.48 2.48-1.2 4.25c.46 2.95 6 8.77 23.63 15.42c18.26 6.88 27.79 5.26 28.99 3.6c.87-1.21.83-3.88.83-3.88L69.82 30.05l-25.01-6.83z"/><path fill="#64DAC1" d="M44.81 23.22s12.3-21.77 36.06-12.95c21.52 7.99 16.19 32.34 16.19 32.34s-28.32-6.52-29.87-7.46c-1.56-.93-22.38-11.93-22.38-11.93z"/><path fill="#53B4A0" d="M68.72 38.73c-22.39-8.74-23.91-15.51-23.91-15.51s8.76-1.64 27.79 5.45C92.9 36.24 97.06 42.6 97.06 42.6s-9.42 3.51-28.34-3.87z"/><path fill="#53B4A0" d="M70.84 29.03s1.44-3.29 1.11-4.8c-.55-2.49-2.14-4.91-1.11-7.29c1.48-3.42 4.57-4.3 8.59-2.77c3.88 1.48 4.7 5.17 3.6 7.57c-1.48 3.23-3.78 2.77-5.45 4.25c-1.42 1.26-2.49 4.71-2.49 4.71l-4.25-1.67z"/><path fill="#9CFCEC" d="M51.23 27.74c2.41.97 4.2-3.92 8.89-8.44c5.57-5.37 13.66-7.13 13.11-8.7c-.63-1.86-10.74-.97-17.33 4.72c-6.23 5.39-7.35 11.33-4.67 12.42zm36.53 12.21c-.13 1.92 3.65 2.62 5.69 1.02c2.73-2.13 2.5-7.02.45-7.23c-1.92-.19-1.66 2.43-2.94 3.58s-3.1 1.2-3.2 2.63z"/><radialGradient id="notoFlyingSaucer1" cx="33.977" cy="66.889" r="9.882" gradientUnits="userSpaceOnUse"><stop offset="0" stop-color="#53B4A0"/><stop offset="1" stop-color="#53B4A0" stop-opacity="0"/></radialGradient><ellipse cx="33.98" cy="66.89" fill="url(#notoFlyingSaucer1)" rx="9.78" ry="9.99"/><radialGradient id="notoFlyingSaucer2" cx="54.899" cy="77.63" r="10.812" gradientTransform="matrix(1 0 0 .9422 0 4.49)" gradientUnits="userSpaceOnUse"><stop offset="0" stop-color="#53B4A0"/><stop offset="1" stop-color="#53B4A0" stop-opacity="0"/></radialGradient><ellipse cx="54.9" cy="77.63" fill="url(#notoFlyingSaucer2)" rx="11.02" ry="10.6"/><radialGradient id="notoFlyingSaucer3" cx="76.289" cy="83.281" r="9.882" gradientTransform="matrix(.9468 0 0 .9216 3.509 7.294)" gradientUnits="userSpaceOnUse"><stop offset="0" stop-color="#53B4A0"/><stop offset="1" stop-color="#53B4A0" stop-opacity="0"/></radialGradient><ellipse cx="75.74" cy="84.05" fill="url(#notoFlyingSaucer3)" rx="9.26" ry="9.2"/><radialGradient id="notoFlyingSaucer4" cx="96.075" cy="85.196" r="8.971" gradientTransform="matrix(.9598 -.2807 .2642 .9033 -18.681 35.09)" gradientUnits="userSpaceOnUse"><stop offset="0" stop-color="#53B4A0"/><stop offset="1" stop-color="#53B4A0" stop-opacity="0"/></radialGradient><path fill="url(#notoFlyingSaucer4)" d="M104.76 82.53c1.35 4.63-1.45 9.52-6.27 10.93s-9.82-1.2-11.17-5.83c-1.35-4.63 1.45-9.52 6.27-10.93c4.81-1.41 9.81 1.2 11.17 5.83z"/><radialGradient id="notoFlyingSaucer5" cx="20.301" cy="54.059" r="10.382" gradientUnits="userSpaceOnUse"><stop offset="0" stop-color="#53B4A0" stop-opacity=".7"/><stop offset="1" stop-color="#53B4A0" stop-opacity="0"/></radialGradient><ellipse cx="20.3" cy="54.06" fill="none" stroke="url(#notoFlyingSaucer5)" stroke-miterlimit="10" rx="9.78" ry="9.99"/><path fill="#53B4A0" d="M31.43 64.13c-1.76 1.86-1.72 4.82.47 6.44c2.12 1.57 4.48.63 5.57-.71s1.26-4.24-.47-5.73c-1.72-1.49-4.24-1.41-5.57 0z"/><path fill="#9CFCEC" d="M32.76 65.94c-.74.8-.83 2 .16 2.91c.94.86 2.43.55 2.98-.24c.67-.96.47-2.36-.39-2.91c-.86-.55-1.88-.71-2.75.24z"/><path fill="#53B4A0" d="M50.2 76.69c-.94 2.28.63 4.79 3.53 5.5c2.54.62 4.87-.63 5.42-2.91c.51-2.13-.59-4.61-3.3-5.26c-2.28-.55-4.61.15-5.65 2.67z"/><path fill="#9CFCEC" d="M53.18 76.58c-.74.79-.83 1.98.16 2.87c.94.85 2.43.54 2.98-.23c.67-.94.47-2.33-.39-2.87c-.87-.55-1.89-.7-2.75.23z"/><path fill="#53B4A0" d="M73.17 81.03c-1.82 1.6-1.82 4.46.06 6.3c1.64 1.6 4.02 1.49 5.54-.27c1.42-1.65 1.76-4.29.01-6c-1.48-1.44-3.59-1.8-5.61-.03z"/><path fill="#9CFCEC" d="M77.27 82.65c-.76-.78-1.92-.91-2.83.07c-.87.94-.61 2.49.13 3.08c.91.72 2.28.56 2.84-.32c.57-.86.75-1.91-.14-2.83z"/><path fill="#53B4A0" d="M97.34 80.83c-2.37-.42-4.65 1.28-4.96 3.8c-.27 2.2 1.27 3.93 3.59 4.02c2.17.09 4.47-1.22 4.76-3.56c.23-1.98-.76-3.8-3.39-4.26z"/><path fill="#9CFCEC" d="M94.49 84.65c-.03 1.1.69 2.04 2.04 2.02c1.3-.02 2.23-1.28 2.14-2.24c-.12-1.17-1.19-2.06-2.22-1.86s-1.92.79-1.96 2.08z"/><radialGradient id="notoFlyingSaucer6" cx="19.846" cy="54.903" r="9.882" gradientTransform="rotate(-56.933 19.661 54.439)" gradientUnits="userSpaceOnUse"><stop offset="0" stop-color="#53B4A0"/><stop offset="1" stop-color="#53B4A0" stop-opacity="0"/></radialGradient><path fill="url(#notoFlyingSaucer6)" d="M25.49 46.34c4.62 3.01 5.98 9.12 3.03 13.64s-9.08 5.75-13.7 2.74c-4.62-3.01-5.98-9.12-3.03-13.64s9.07-5.75 13.7-2.74z"/><path fill="#53B4A0" d="M18.79 50.62c-2.36.98-3.12 3.32-2.2 5.57c.86 2.12 3.06 3.06 5.18 2.36s3.53-3.14 2.36-5.65c-1.15-2.45-3.46-3.06-5.34-2.28z"/><path fill="#9CFCEC" d="M19.15 52.63c-.99.64-1.2 1.98-.49 3.04s2.19.99 2.97.35c.78-.64.99-2.12.21-3.04c-.78-.92-1.89-.87-2.69-.35z"/></svg>