<svg viewBox="0 0 128 128"><path fill="#fc9301" d="M52.7 96.9s1.2 8.8-.1 9.7-5.6.2-7.8.6c-1.6.3-2.7 2-2.6 4s2 3.3 4.1 3.3 6.3 0 8-.2c2.6-.3 4.2-2 4.7-3 1-2.4.2-15 .2-15zm16.5.6 6.7-.7.2 11.3c.1 2 .6 7.7 0 9.2-.8 1.6-4.5 4.8-8.7 5.3s-8.9.9-9-2.9 2.6-3.7 3.8-4 5.7-1 6.8-2.2c1.1-1.1.2-16 .2-16"/><path fill="#ffb903" d="M17.3 43s1-8.7 1.8-11.7c1.6-6 8.2-18 27.6-18.8C72.3 11.5 78 34.7 78 34.7s11.4 3.2 22.8 7 21.7 9 22.2 10.7-3.2 26-24.3 39c-20.4 12.3-62 12.1-73.7-11.9C19.5 68 20.4 61 19.3 53.6A60 60 0 0 0 17.2 43"/><path fill="#fa9100" d="M4.6 42.7c.3 3.1 14.1 7 14.1 7s2.4-1.1 2.4-7-2.4-7.4-2.4-7.4-14.3 4.8-14 7.4"/><ellipse cx="35.3" cy="38.6" fill="#2f302b" rx="5.3" ry="4.9" transform="rotate(-71.319 35.282 38.558)"/><path fill="#fc9301" d="M52 73.1C49.1 76 55.7 81 64 84.4s18 2.4 25.4-1c7-3.3 13.7-13.8 12.6-18.8s-5.5-6.4-11.4-7.8-14.8-3.6-16.8-3.8-3.4-.1-3.7 1.7q-.5 2 4.3 3.4c3.2 1 20 5 20 8.3S91 75.8 83.9 78.8a23 23 0 0 1-20.2 0c-4.2-2-7.6-4.7-8.5-5.3-.8-.5-2-1.7-3.3-.4"/></svg>