<svg viewBox="0 0 128 128"><path fill="#855b52" d="M63.3 10c15 .1 16.4 3.5 20.8 3.7 6.3.1 16-12 29-1 13 10.8 2.4 27.8 2.4 27.8s7.2 12.7 8 32c.6 14.1-4.8 31.6-29 41.5-22.3 9-55.5 7.3-75.8-8.4C2.9 93.6 4 76 4.4 70c1.2-15.8 8-28.4 8-28.4s-10-20.3 2.4-29.8c13.7-10.5 23.4 1.8 29 1.4 4.1-.4 5.4-3.5 19.6-3.3"/><path fill="#b99277" d="M36 20.8a9.4 9.4 0 0 0-15-1c-5.7 5.6 0 15.4 1 14.6.8-.6 3.6-4.2 6.9-7.3 3.3-3.2 7.1-5.9 7-6.3m56.6 0c0 .7 3.8 3 7.3 6.3 3.6 3.4 6.8 7.7 7.3 7.6 1.2-.1 6-9.6-.3-15s-14.2-.7-14.3 1.1"/><path fill="#f2a258" d="M64.5 60.4c14.7 0 23.4 16.5 23 26.8-.6 9.4-6 17.2-24 17.1S41 95.9 40.8 87.1c-.3-7.9 5.3-26.7 23.8-26.7"/><path fill="#171716" d="M93 59.7c.3 4.2-2 8-6.2 7.6-4.2-.3-7.2-3.6-7.2-7.8s2.2-7.2 5.6-7.6c4-.6 7.3 1.9 7.7 7.8"/><path fill="#2f3030" d="M74.6 77c-.4 4.1-3.1 8.6-11.2 8.3-6.7-.2-9.9-4.7-10-8.9-.1-5.9 3-8 10.6-8.1 8.7-.2 11 3 10.5 8.7"/><path fill="#171716" d="M48.4 61.3c-.5 4.1-4.4 7-8 6.1-4-1-5.8-5.2-5-9.3.8-3.6 4-6.5 7.6-6 3.8.3 6 4 5.4 9.2"/><path fill="#2f3030" d="M64 95c5.5 0 8.5-3 9.3-3.8s2-2.3 3.8-.9c1.5 1.3 0 3.2-.7 3.9a16 16 0 0 1-13 5c-7.8-.4-10.8-4-11.7-4.8-.8-.9-2.2-3-.6-4.3 1.9-1.4 2.5.2 4.5 1.8S58.8 95 64 95"/></svg>