<svg viewBox="0 0 128 128"><path fill="#694d42" d="M77.5 83.8a41 41 0 0 0 19 4.1 36 36 0 0 0 27.2-19.2c2.3-4.3 2.5-13-1.3-13.8-4.7-1.2-10.3-.3-19 3.8-9 4.2-11 10.9-21.6 5.8"/><path fill="#b3937c" d="M79.9 75c1.8 1.3 2 2 3.6 3.6 3 3.1 10 3.3 11.3 3.3 8.1.1 12-1.8 17.2-5.3s10.2-11 11-14.7q1-3.8.9-6.1-.6-.7-1.4-1c-4.8-1.1-10.4-.2-19.2 4-8.8 4.1-11 10.8-21.5 5.7l-2.2 10.1z" opacity=".4"/><path fill="#694d42" d="m123.5 60 .3-2.6-5.3-2.3.3-.7q-2.9 0-6.2.8l2.6 1.1-2.7 6-6-2.6 1.3-2.9c-1.1.4-5.1 2.1-6.9 3.2l2.3 1-2.7 6-6-2.7q-1.6 1.1-3.4 1.6l-6 13.7 2.3 1 2.4-5.6 6 2.6L94 82h2.7l1.5-3.3 5.4 2.3q2.3-.6 4.5-1.8L110 74l3.5 1.5 2-1.8-4.4-2 2.6-6 6 2.7 1.4-2.2-6.4-2.8 2.7-6zM96.8 75.3l-6-2.6 2.7-6 6 2.6zm8.4 3.7-6-2.6 2.6-6 6 2.6zm3.6-8.3-6-2.7 2.7-6 6 2.7z"/><path fill="#825b4e" d="M17.4 8.2 14.3 8q-.8 0-1.3.2l-.7.8a7 7 0 0 0-.3 5.7c.2.4.6 1 1 .9q.3 0 .5-.3a30 30 0 0 0 4.1-3.9q.4-.4.2-.8"/><path fill="#694d42" d="M57.4 102A72 72 0 0 0 37 117.1c-.4.5-2.3 2.5-1.1 3.2s4-1.5 4.8-1c1 .7.3 1.8 1.3 2.6s3.8-1.5 5.2-.8.8 1.7 1.6 2.6c1 1.3 3.5.1 4-.4 3.9-3 13.3-12 15-13.8 2.1-2.6 3.5-6 1.6-8.3m-41.1-2a76 76 0 0 0-14.8 6.5q-1.5.7-2.7 1.9-.6.6-.4 1.2c.8.8 2.4-.4 3.5.5.4.3.2 1.7.5 2.1q.6.6 1.5.6c.9 0 1-.3 1.6-.5 1.1-.3 2.3-.5 3.1.4q.5.8.8 1.7.2.8 1.4.8 2-.1 3.6-1.3 7.4-5 14.2-10.7"/><path fill="#825b4e" d="M47.3 12.4c3.5 1 4.3 0 7 .2 3.3.2 2.9 3.4 2.4 5.1a11 11 0 0 1-3.7 5.5q-.4.4-1 .6-.8 0-1.3-.6-3.6-3.2-4-7.9"/><path fill="#b38a6d" d="M12.2 41.1s-6.2.7-8.3 7.3C.7 58 9 63.6 9 63.6s-2.3 19.7 9.7 30.5 16 11.2 30 13.8 27.1-6.5 30.5-10.1 8.6-11.3 9.6-20.7-7.5-26-15-34.6-23.1-22-23.1-22l-22.4 21z"/><path fill="#b38a6d" d="M48.3 13.2a21 21 0 0 0-18.7-9.4c-7.3 0-14.3 5.5-17.5 9.7a31 31 0 0 0-6.3 15.6C5.4 34.2 7 39 12 42.5s25 7.8 33.3 2.1c7.2-5 9.6-11.6 8.9-17.2a29 29 0 0 0-6-14.2"/><ellipse cx="36.3" cy="17.7" fill="#212121" rx="2.4" ry="3.1" transform="rotate(-17.768 36.335 17.7)"/><path fill="#ffecb3" d="M15.6 32.8c-.5 3.6 1.1 9 2.5 9 1 0 1.3-2.3 1.3-2.3s1 2.8 2.8 2.7c1.6-.2 1.6-6.2 2-9.2l-5.7-2.3z"/><path fill="#212121" d="M11.8 16c.4-1.1 1.3-2.4 2.8-2.4 1.6 0 1.3 2.4.8 3.6s-1.9 2.4-3 1.6c-.9-.5-.8-2.2-.6-2.9"/><path fill="#825b4e" d="M41.5 67.4c-12.8-4.3-13.3-17-17.2-20-1.4-1.1-2.7-1.4-4-2s-2.7-1.4-4-.9q1.4 1 2.3 2.3c-1.3.1-3.2.3-3.9 1.1q0 .3.2.4c.2.1 2.3.5 3.2 1.4q-1.1.7-2 1.7c-.4.4 0 .6 0 .7 1 .2 2 0 2.9.5s1.5 1.2 2.2 1.7a5 5 0 0 0 3.2 1.1q3 6 7.7 10.4Q36.7 70 43 71.3c13 2.4 18.7-10.8 18.7-10.8s-9.2 10.6-20 6.9"/><path fill="#212121" d="M21.8 18.5q-1-1-2-.3-2.5 2.1-3.7 3.7c-.4.7-.8 2.1 0 3.1s3.4 3 3.4 3 3.2-1.4 4.2-2.1c1.2-1 1.5-2.8.5-4.3z"/><path fill="#212121" d="M28.5 32.4c.8-1.3-.1-2-.7-1.3s-2.2 1.8-4.5 1c-1.2-.4-2-.8-2.6-2.2q-.3-1.7-.2-3.5c0-.4-2.1-.5-2.2-.1q-.4 1.3-.4 2.5.2 1.7-1 2.6c-2.6 1.7-4.1-.8-4.4-1.1q-.5 0-.2 1.5c1.2 4 5.7 3.3 7 1.3.2 1.6 5.8 4.5 9.2-.7"/><path fill="#825b4e" d="m8 62.7.5.5q.7.5 1.4-.1t1.3-2.4c.7-2.1.4-5-.8-7.2l-1.2 1.2a9 9 0 0 1-.4 7zm31.2-19.8-.7 3.4c3-.4 6.4-6.4 6.4-6.4v4c4-2.2 6.1-11.5 6.1-11.5.4 4.5.8 14.6-12.7 16.4-5 .6-10-1.4-10-1.4s7.6-.5 10.9-4.5"/><path fill="#825b4e" d="M7 47a7 7 0 0 1 7-3.1l.6.2q.1.3-.1.6l-.6.2q-2.1.5-2.6 2.5 1.5-.6 2.7.2.5.2.4.6l-.4.2q-1.6.8-2 2.6.9-.3 1.8-.2 1.3.3 1.3 1c-.1.5-1.4.2-2 1.2q-.4 1.3-1.3 2.2-1 .6-2.1.3a4 4 0 0 1-1.9-1.3c-1.7-1.9-2-5-.9-7.2"/></svg>