<svg xmlns="http://www.w3.org/2000/svg" width="1em" height="1em" viewBox="0 0 128 128"><path fill="#694d42" d="M77.52 83.78c4.93 2.51 14.08 4.86 18.94 4.15 12.6-1.85 21.69-9.13 27.2-19.22 2.33-4.27 2.53-12.92-1.21-13.86-4.74-1.19-10.37-.26-19.11 3.87-8.89 4.2-11.03 10.84-21.5 5.73"/><path fill="#b3937c" d="M79.88 75.09c1.83 1.22 2.09 1.88 3.6 3.48 2.97 3.16 9.99 3.33 11.35 3.35 8.09.11 12-1.85 17.22-5.3s10.13-10.99 11.01-14.73c.61-2.58.92-4.54.8-6.13-.39-.44-.85-.77-1.4-.91-4.74-1.19-10.37-.26-19.11 3.87-8.89 4.2-11.03 10.84-21.5 5.73l-2.28 10.17z" opacity=".44"/><path fill="#694d42" d="M123.47 59.99c.18-.95.31-1.8.37-2.57l-5.37-2.35.31-.7c-1.85-.03-3.89.24-6.19.83l2.58 1.14-2.66 6.03-6.03-2.66 1.29-2.91c-1.07.42-5.12 2.14-6.83 3.2l2.25.99-2.66 6.03-6-2.72c-1.13.71-2.25 1.29-3.46 1.64l-6.05 13.68c.73.37 1.53.66 2.34.89l2.46-5.56 6.03 2.66s-1.25 2.79-1.91 4.28c.39.02 2.11.03 2.69.01l1.51-3.28 5.33 2.31c1.6-.46 3.05-1.08 4.49-1.83l2.18-5.12 3.42 1.53c.69-.56 1.37-1.18 2.02-1.84l-4.43-1.97 2.66-6.03 6.08 2.69c.49-.73.93-1.45 1.32-2.15l-6.39-2.83 2.66-6.03zM96.84 75.33l-6.03-2.66 2.66-6.03 6.03 2.66zm8.32 3.68-6.03-2.66 2.66-6.03 6.03 2.66zm3.67-8.32-6.03-2.66 2.66-6.03 6.03 2.66z"/><path fill="#825b4e" d="M17.36 8.23c-1.03-.16-2.06-.28-3.1-.34-.43-.03-.9-.04-1.27.18-.31.18-.51.5-.67.82a6.98 6.98 0 0 0-.29 5.69c.18.45.53.95 1 .87.19-.03.34-.15.49-.27a30 30 0 0 0 4.08-3.86c.21-.24.41-.63.16-.84"/><path fill="#694d42" d="M57.41 102.05c-8.65 4.19-14.38 9.08-20.38 15.08-.45.45-2.33 2.5-1.17 3.12s4.03-1.48 4.85-.93c.98.65.26 1.8 1.29 2.54s3.8-1.42 5.2-.79.78 1.71 1.6 2.67c1.07 1.26 3.45.09 4.09-.42 3.77-2.98 13.16-11.93 14.82-13.86 2.2-2.56 3.6-6 1.64-8.28m-41.09-1.97a76 76 0 0 0-14.73 6.46c-.97.55-1.93 1.14-2.73 1.91-.35.33-.73.92-.38 1.25.8.73 2.33-.46 3.49.45.4.32.17 1.7.47 2.12.32.44.93.6 1.48.56s1.07-.25 1.6-.41c1.17-.35 2.37-.57 3.14.35.48.58.45 1.12.76 1.74.21.43.56.77 1.43.76 1.32-.01 2.53-.61 3.62-1.34 4.92-3.3 9.55-6.98 14.18-10.65"/><path fill="#825b4e" d="M47.3 12.38c3.46.97 4.32-.02 6.92.18 3.33.25 2.93 3.4 2.44 5.14-.63 2.23-1.87 4.04-3.64 5.53-.3.25-.64.51-1.04.54-.47.04-.9-.25-1.26-.55-2.36-1.93-3.86-4.88-4.03-7.92"/><path fill="#b38a6d" d="M12.16 41.12s-6.13.71-8.28 7.29C.73 58.03 9.1 63.61 9.1 63.61s-2.3 19.71 9.71 30.51 15.93 11.2 29.97 13.77 27.13-6.48 30.51-10.12 8.64-11.23 9.58-20.67c.94-9.43-7.42-25.94-14.98-34.56S50.8 20.56 50.8 20.56L28.4 41.44z"/><path fill="#b38a6d" d="M48.27 13.23c-5.59-7.84-11.8-9.39-18.63-9.39-7.37 0-14.36 5.41-17.58 9.69-2.6 3.47-5.84 9.11-6.3 15.6-.36 5.1 1.26 9.87 6.3 13.4s25.07 7.74 33.29 2.09c7.2-4.95 9.64-11.6 8.92-17.18-.51-4.01-1.67-8.14-6-14.21"/><ellipse cx="36.34" cy="17.7" fill="#212121" rx="2.43" ry="3.15" transform="rotate(-17.768 36.335 17.7)"/><path fill="#ffecb3" d="M15.62 32.75c-.52 3.64 1.09 9.12 2.44 9.04 1.12-.07 1.38-2.29 1.38-2.29s.96 2.84 2.72 2.66c1.68-.18 1.6-6.19 2.03-9.13l-5.7-2.33z"/><path fill="#212121" d="M11.84 15.91c.33-1.02 1.26-2.35 2.77-2.31 1.61.05 1.33 2.36.78 3.58-.56 1.22-1.85 2.4-3.06 1.64-.83-.52-.72-2.19-.49-2.91"/><path fill="#825b4e" d="M41.53 67.39c-12.8-4.32-13.34-17.07-17.28-20.07-1.34-1.03-2.63-1.28-3.99-1.99-1.25-.65-2.69-1.31-4-.79.9.61 1.71 1.37 2.36 2.25-1.3.13-3.23.29-3.87 1.11-.11.14.04.36.2.44s2.3.47 3.15 1.33c-.68.58-1.46 1.06-2.05 1.73-.34.38-.03.62.11.66.92.25 1.95.1 2.81.52s1.49 1.21 2.25 1.77a5.42 5.42 0 0 0 3.23 1.07c1.92 4.01 4.42 7.35 7.67 10.37 3 2.79 6.7 4.78 10.81 5.53 12.93 2.36 18.67-10.8 18.67-10.8s-9.19 10.54-20.07 6.87"/><path fill="#212121" d="M21.8 18.45c-.5-.66-1.45-.75-2.06-.2-1.53 1.39-3.01 2.67-3.65 3.69-.42.69-.79 2.08.02 3.07s3.36 3.06 3.36 3.06 3.23-1.51 4.23-2.22c1.21-.87 1.48-2.72.45-4.25-.41-.61-1.55-2.09-2.35-3.15"/><path fill="#212121" d="M28.47 32.39c.84-1.31-.1-1.93-.65-1.29-.62.71-2.26 1.84-4.51 1.05-1.25-.44-2.09-.84-2.57-2.27-.34-1.02-.22-2.39-.21-3.45 0-.48-2.14-.53-2.28-.13-.29.82-.27 1.67-.3 2.53-.03.95-.16 2.08-.97 2.58-2.64 1.67-4.2-.83-4.51-1.12-.13-.12-.43.65-.17 1.48 1.24 4.01 5.67 3.28 6.94 1.36.23 1.6 5.88 4.49 9.23-.74"/><path fill="#825b4e" d="M7.91 62.65c.17.15.39.38.55.51.42.35 1.04.32 1.43-.07.45-.47.99-1.3 1.33-2.41.66-2.11.42-5.06-.86-7.18l-1.2 1.22c.92 2.92.56 5.41-.37 6.97-.37.61-.86.91-.88.96m31.18-19.71-.73 3.37c3.13-.38 6.45-6.44 6.45-6.44l.04 4.05c4-2.17 6.07-11.49 6.07-11.49.36 4.52.76 14.58-12.76 16.33-4.9.64-10.03-1.38-10.03-1.38s7.62-.5 10.96-4.44"/><path fill="#825b4e" d="M6.93 47.01c1.7-2.66 4.7-3.49 7.14-3.11.11.02.41.13.49.2.16.15.09.44-.09.58-.17.14-.41.17-.62.23-1.22.3-2.32 1.23-2.53 2.47.87-.36 1.91-.28 2.72.19.22.13.46.39.33.62-.07.13-.24.18-.39.23-1.06.34-1.78 1.45-1.95 2.55.57-.12 1.16-.25 1.74-.15s1.35.59 1.29 1.04c-.07.48-1.37.16-1.96 1.19-.41.72-.63 1.59-1.27 2.11-.59.48-1.44.58-2.17.36-.73-.21-1.36-.7-1.86-1.27-1.71-1.95-2.08-4.96-.87-7.24"/></svg>