<svg viewBox="0 0 128 128"><path fill="#4d4d4d" d="M42 80.8s-4.3 7.4-5.6 12.9-.6 7.5.8 12c1.7 5 3.7 9.2 7.5 6.7 3.1-2 3.4-6.7 3-8.6s-1-4.5-.7-5.6 2.3-6.2 4-8.7 1.6-6 1.4-6.3-10.5-2.4-10.5-2.4m9.9 36.6s-1.2 6.6-.6 6.6 5-.2 6.6-1.3 3-4.6 4.2-8.7l4.2-12.8 2-5.8 7.8-.6c4.7-.2 8-.4 8.7.1 1 .6 5.1 3.5 6.2 5 1.5 2.3-3.8 12.8-3.8 12.8s-3.8 3.4-3.7 5.3 3.8 1.7 7 1.5 5-1 5.5-1.5c1.7-1.8 3.4-6.8 4.6-11 1-3.8 2.5-6.3 2-8.8S89.4 84.8 89.4 84.8L58 92.4zM34 29.2l16.5-6.7S49 18.3 47 14.6s-6.8-10.5-9-10-4.5 11-5 13.9c-1 5.7 1 10.7 1 10.7"/><path fill="#b0b1b2" d="m18.7 43.8-5.7-.1c-2.3 0-4.5-.2-4.5-.2s-1 0-1-1c0-1.1 1-1 1-1l10.2.2q1 0 1 1c0 1-.4 1-1 1M8.6 50.2s-1 .3-1.2-.8C7 48.2 8 48 8 48l4.9-1.3 6-1.2a1 1 0 0 1 .4 2l-6 1.2c-2 .4-4.8 1.3-4.8 1.3m4.8 5.4a1 1 0 0 1-.9-.5 1 1 0 0 1 .3-1.4l5.5-4.3a1 1 0 0 1 1.5.3 1 1 0 0 1-.3 1.4l-5.2 4z"/><path fill="#5d6265" d="M36.5 67.4c0 .8.6 7 1.3 11.5a15 15 0 0 0 7 11c5.1 3.4 9.6 4 9.6 4s-1.5 9.5-3.6 15.8c-.4 1.2-2.7 5.9-3.2 6.7s-1.8 3-1.6 4.6c.2 1.8 1.5 3.8 7.2 2.7 4.5-1 5-5.5 6.3-9.3l4.2-12q2-7 2.8-8.3c.7-.7 8.2-1.1 12.8-1.4s12.2-.4 12.2-.4 3.1 2.6 6.6 4.2c5.5 2.5 10.7 3.3 13 6.5 2.4 3.1 2 6.1 1.5 8.7-.9 4-2.4 6.3-2.1 7.8.3 2 2.2 2.1 6.1 2.2 3.9 0 4.6-.7 5.3-2.5 3-7.3-1.7-16.8-2-23-.3-3-5-3.8-6-8.2s-1.4-8.8-2.6-13.2c-1.4-4.7-3.1-8.7-3.1-8.7s4.9-3 7.9-6.3 7.3-7.7 5.6-16.4c-1.4-7-6-11.5-17-15-10.7-3.4-13 .6-13.3 3.2-.4 3.5 4.1 4.7 9 5.6s13.9 3.9 11.2 11.9c-1.7 5-9.2 8-9.2 8s-7.1-1-16.9 0C77.7 58 74 60 73.1 59.6c-1.2-.5-.4-2.4 1-4.5 2-3.3 4.7-7.7 4.7-13.2s-2.6-8.4-2.6-8.4 0-10.8-1.6-17S70 3.4 67 3.3s-8.4 7.2-9.8 9.6-3.7 7-3.7 7-8.2-1-15 2.4c-6.1 2.9-9.8 12-11.6 12.7s-6.2.5-7.9 3.3c-.7 1.2-.7 8.9-.7 8.9l1 3.4c.5 1.3 2.8 4.6 5.5 6.6 3.6 2.6 8.3 6.3 9.4 7.2s2.2 3 2.2 3"/><path fill="#ffab93" d="M57.2 24.2c.1 1.5 3.5 3.5 5.2 4.7s4.3 4 5.3 4c1.8-.4 1.7-7.8 1.3-11.1s-2.1-8.8-3.2-9.3-4 3.8-4.8 5c-1.3 2-3.8 5.4-3.8 6.7"/><path fill="#2f2f2f" d="M21.6 44.6c.5-.6 7.6-2.4 7.8-3.7s-1.4-2.3-4.4-3c-2.6-.6-5-.4-5.7 0-.8.6-1.7 3.5-1.4 6.4q.4 4.7 2.6 6.8c.9 1 3.1 2.4 5 2.5s3.9-.7 4.9-1.7.3-2.6-1.2-1.7-2.5 1.2-3.8.8a5 5 0 0 1-3.8-3.9c-.2-1.3 0-2.5 0-2.5"/><path fill="#b0b1b2" d="M51.1 53.6h-.5s-2.8-1.5-5.2-2.2l-4.8-1.3a1 1 0 0 1-.8-1.3q.4-.9 1.3-.7s2.4.5 5 1.3c2.5.7 5.4 2.2 5.5 2.3a1 1 0 0 1-.5 2m-1 7.2-.7-.2-5.3-3.9c-2-1.4-4.8-2.6-4.8-2.7a1 1 0 0 1 .9-1.9c0 .1 3 1.4 5 2.9 2.2 1.4 5.4 3.8 5.5 3.9a1 1 0 0 1-.7 1.9m-5 3.6-.6-.2-7-6.2a1 1 0 1 1 1.4-1.6l7 6.2a1 1 0 0 1-.7 1.8"/><ellipse cx="41.9" cy="38.7" fill="#010000" rx="4.8" ry="3.8" transform="rotate(-60 41.931 38.703)"/><path fill="#dedede" d="M41.6 38c-.5 1-1.5 1.7-2.3 1.2s-.3-2 .1-2.7 1.2-1.3 2-.8.6 1.6.2 2.3"/></svg>