<svg xmlns="http://www.w3.org/2000/svg" width="1em" height="1em" viewBox="0 0 128 128"><path fill="#4D4D4D" d="M41.94 80.79s-4.22 7.41-5.54 12.86c-1.31 5.44-.59 7.57.84 12.01c1.64 5.07 3.63 9.19 7.46 6.76c3.1-1.97 3.43-6.71 2.96-8.59c-.47-1.88-.89-4.5-.7-5.63c.19-1.13 2.3-6.24 3.99-8.68c1.69-2.44 1.69-6.01 1.41-6.29c-.29-.28-10.42-2.44-10.42-2.44m9.81 36.56s-1.2 6.62-.56 6.62c.63 0 5.07-.21 6.62-1.27c1.55-1.06 2.94-4.65 4.22-8.73c1.55-4.93 3.71-11.25 4.22-12.81c.94-2.86 1.97-5.77 1.97-5.77s4.78-.43 7.74-.56c4.72-.21 8-.43 8.73.07c.92.63 5.15 3.48 6.19 5c1.55 2.25-3.8 12.81-3.8 12.81s-3.8 3.38-3.66 5.28c.14 1.9 3.8 1.69 7.04 1.55c3.24-.14 4.97-1.06 5.42-1.55c1.69-1.83 3.45-6.83 4.58-10.91c1.08-3.91 2.53-6.34 2.11-8.87c-.42-2.53-13.23-13.37-13.23-13.37l-31.46 7.6zM34.02 29.16l16.52-6.66s-1.6-4.22-3.66-7.88s-6.66-10.51-8.82-9.95c-2.16.56-4.42 11-4.93 13.8c-1.04 5.71.89 10.69.89 10.69"/><path fill="#B0B1B2" d="M18.72 43.75c-.03 0-3.42 0-5.73-.07c-2.32-.07-4.48-.14-4.48-.14s-1.07-.03-1.07-1.08c0-1.06 1.11-1.01 1.11-1.01s2.17.07 4.5.14c2.28.07 5.64.07 5.67.07c.58 0 1.05.47 1.05 1.05s-.47 1.04-1.05 1.04M8.57 50.1s-.99.27-1.21-.81c-.22-1.09.76-1.24.76-1.24s2.87-.85 4.85-1.27c1.96-.42 6.04-1.19 6.08-1.2c.57-.11 1.12.27 1.23.84c.11.57-.27 1.12-.84 1.23c-.04.01-4.09.78-6.03 1.19c-1.97.41-4.84 1.26-4.84 1.26m4.85 5.41c-.34 0-.67-.17-.88-.47a1.06 1.06 0 0 1 .29-1.46l5.48-4.29a1.06 1.06 0 0 1 1.46.29c.32.48.19 1.13-.29 1.46l-5.14 4.05c-.18.12-.72.42-.92.42"/><path fill="#5D6265" d="M36.54 67.37c0 .84.59 7.08 1.27 11.54c.7 4.65 2.82 8.17 7.04 10.98c5.07 3.38 9.57 3.94 9.57 3.94s-1.55 9.57-3.66 15.91c-.38 1.15-2.67 5.84-3.17 6.62s-1.83 3.03-1.62 4.65c.23 1.76 1.55 3.8 7.18 2.67c4.56-.91 5-5.51 6.34-9.24c.5-1.4 3.61-10.04 4.22-12.06c1.35-4.47 2.11-7.48 2.82-8.26c.7-.77 8.17-1.13 12.81-1.41c4.65-.28 12.11-.42 12.11-.42s3.17 2.6 6.69 4.22c5.48 2.52 10.63 3.24 13.02 6.48c2.31 3.12 1.93 6.13 1.41 8.66c-.84 4.08-2.38 6.33-2.11 7.81c.35 1.97 2.25 2.18 6.19 2.25c3.81.07 4.55-.69 5.28-2.53c2.89-7.3-1.76-16.75-2.11-23.02c-.17-2.97-4.86-3.8-5.91-8.17c-1.06-4.36-1.38-8.8-2.65-13.16c-1.38-4.76-3.1-8.78-3.1-8.78s4.9-2.98 7.93-6.29c3.03-3.31 7.35-7.7 5.58-16.38c-1.41-6.9-6.01-11.5-16.92-14.95c-10.79-3.41-12.99.55-13.3 3.14c-.42 3.52 4.08 4.74 8.87 5.65s13.96 3.83 11.26 11.83c-1.69 5-9.15 8.05-9.15 8.05s-7.18-1.08-16.89-.02c-7.84.87-11.56 2.92-12.4 2.55c-1.27-.56-.42-2.39.92-4.5c2.12-3.35 4.72-7.74 4.72-13.23s-2.6-8.45-2.6-8.45s-.07-10.77-1.62-16.89s-4.44-13.24-7.47-13.38c-3.03-.14-8.38 7.25-9.78 9.57s-3.73 7.11-3.73 7.11s-8.2-.99-15.06 2.32c-6.02 2.9-9.71 11.97-11.54 12.67c-1.83.7-6.15.54-7.84 3.36c-.7 1.16-.77 8.89-.77 8.89s.53 1.83 1.09 3.43c.44 1.25 2.72 4.6 5.46 6.61c3.56 2.61 8.32 6.3 9.37 7.14c1.05.84 2.25 3.09 2.25 3.09"/><path fill="#FFAB93" d="M57.24 24.22c.07 1.48 3.45 3.45 5.21 4.72c1.76 1.27 4.29 4.05 5.28 3.87c1.75-.31 1.62-7.74 1.27-11.05c-.35-3.31-2.11-8.8-3.24-9.22c-1.13-.42-4.05 3.79-4.79 4.93c-1.27 1.97-3.8 5.42-3.73 6.75"/><path fill="#2F2F2F" d="M21.63 44.61c.47-.56 7.57-2.44 7.8-3.71s-1.45-2.3-4.41-3c-2.66-.63-5.09-.38-5.69.05c-.8.56-1.69 3.43-1.45 6.34c.24 3.01 1.26 5.47 2.58 6.8c.92.93 3.16 2.39 5.13 2.53c1.97.14 3.8-.7 4.79-1.69s.28-2.58-1.22-1.69c-1.5.89-2.5 1.16-3.8.8c-1.36-.38-3.31-1.71-3.72-3.89c-.26-1.3-.01-2.54-.01-2.54"/><path fill="#B0B1B2" d="M51.12 53.64c-.16 0-.32-.04-.47-.11c-.03-.01-2.81-1.42-5.22-2.13c-2.48-.73-4.8-1.29-4.83-1.3c-.56-.14-.91-.7-.78-1.27c.14-.56.7-.91 1.27-.78c.02.01 2.4.58 4.93 1.33c2.6.77 5.45 2.22 5.57 2.28a1.046 1.046 0 0 1-.47 1.98m-1.08 7.23c-.22 0-.44-.07-.62-.21c-.03-.02-3.25-2.4-5.32-3.83c-2.01-1.38-4.79-2.67-4.82-2.68a1.05 1.05 0 0 1 .87-1.91c.12.06 2.97 1.37 5.13 2.86c2.1 1.45 5.35 3.84 5.38 3.87c.47.34.56 1 .22 1.47c-.2.28-.52.43-.84.43m-4.97 3.66c-.25 0-.5-.09-.7-.27l-6.94-6.19c-.43-.39-.47-1.05-.08-1.48c.39-.43 1.05-.47 1.48-.08l6.94 6.19a1.05 1.05 0 0 1-.7 1.83"/><ellipse cx="41.93" cy="38.7" fill="#010000" rx="4.76" ry="3.75" transform="rotate(-60 41.931 38.703)"/><path fill="#DEDEDE" d="M41.61 37.99c-.55 1.03-1.51 1.69-2.3 1.2c-.79-.49-.34-2.06.1-2.65c.44-.59 1.23-1.33 2.01-.84c.8.5.56 1.61.19 2.29"/></svg>