<svg viewBox="0 0 128 128"><radialGradient id="a" cx="63.9" cy="63.9" r="58.9" gradientUnits="userSpaceOnUse"><stop offset=".4" stop-color="#ffd655"/><stop offset=".5" stop-color="#ffd450"/><stop offset=".5" stop-color="#ffd042"/><stop offset=".6" stop-color="#fec82b"/><stop offset=".7" stop-color="#febe0a"/><stop offset=".7" stop-color="#febb01"/></radialGradient><path fill="url(#a)" d="M88.5 37.4s8-8.2 8.3-15.6-2.5-9.9-6.1-11.4S83 12 83 12s-.1-4.5-5-6.2S67.5 8 65.9 14 64 30.8 64 30.8 63 19.1 59.2 13s-7.5-7.5-12.5-6-4.8 7.8-4.8 7.8-4.8-4.9-10.4-2.5-4 11.2-3 14c.5 2 6.2 13.7 6.2 13.7s-8.9-6-16-7.4C12.3 31.5 8 34.9 8 39.5s3.5 7 3.5 7-5.7 1.4-6.8 6.8C4 57.1 5.5 60 8.2 62c4.6 3.6 19.3 4.5 19.3 4.5s-10.7.7-16.2 4.1c-5.6 3.5-6.3 8.8-5 11.6s7.3 4.2 7.3 4.2-5 6.3-1 11.4 10.1 5 14 3 12.7-9.6 12.7-9.6-7.4 11.7-7.8 18c-.5 6.2 2.6 8.5 6.4 8.9 3.5.3 6-2.7 6-2.7s1.5 6 6 6.8 9.2-1.3 12-7.5c2.7-6 4-16.7 4-16.7s2.6 17 8.5 21.3 10.2 2.6 12.5.2c2.3-2.7 1.9-8.6 1.9-8.6s5 4 9 1.5 3-7.7 1.8-12.4S92 87.7 92 87.7s9.4 9.4 17 9.1 9.5-3.5 9.9-7.3c.4-4-3-7.2-3-7.2s6.6-.7 7.3-7.4-6.3-9-9.2-9.9-11.4-1.1-11.4-1.1 12.8-3.5 16.3-7.5 3.7-7.8 2.2-10.6S114 42 114 42s2.5-3.4.7-8.4-9.5-5-13.4-3.8-12.8 7.5-12.8 7.5"/><path fill="#f2a05b" d="M53.2 48.6s-3.2-6.2-5.4-13.8c-.8-2.9-3.4-11.4-2.8-12a48 48 0 0 1 7.8 13c1.3 3.1 5.6 11 5.6 11L69 45l4.8-10.6A48 48 0 0 1 80 24c.9.5-1.2 8.2-2.8 13s-3.9 10.8-3.9 10.8l9 6.7 10-3.7c3.7-1.4 10.3-3.4 10.6-2.6.3.9-3.9 3.8-9.2 6.3s-10.2 5.3-10.2 5.3l.8 8.4L95.6 74c3.5 1.9 10.3 5.6 10.2 6.6s-9.9-2-12.4-2.7-12.1-4-12.1-4l-5.4 7 4.6 10.4c1.1 2.5 5.1 13.2 4.4 13.6s-6.1-8-7.8-11.1l-7-11.8L60 85l-5 11.4c-2 4-6.5 11.3-7.2 10.9s2.6-11.5 3.7-14.9 4-10.8 4-10.8l-7.7-6.2s-8.2 3.4-13 5c-4.7 1.5-11.2 3.9-11.2 2.8s4.2-3.5 11-7Q46 70.4 46 70.6l-1.4-9.5-10.8-3.9c-4.5-1.7-12.9-6.1-12.6-7.4s7.6 1.4 12.2 2.8l13.7 4z"/><path fill="#ed6c31" d="m47.8 52.7-6.6-6.5c-1.4-1.5-4.4-4.3-3.7-5.3s6.5 3.8 7.9 5l6.5 5 10.7-5.3.3-7.2c.2-2.4 0-6.8 1-6.8s1.6 6 1.8 8.2l.5 6.2 10.9 3.5 4.6-5.4c1.1-1.4 3.7-5 4.8-4.2 1.2.9-3.2 6.8-4 8l-3.7 5 4.6 9.5 8.2-.2c3-.1 8 0 8 .8s-4.3 2-8.2 2.4-8.1.6-8.1.6l-1.6 9.5s1.9 2.6 4.6 5c2.5 2.3 4.5 5 4 5.8s-4.6-2-6.4-3.7l-5.3-4.7-10.8 6.2v6.5c0 1.4-.6 7.2-2 6.8s-1.2-5.8-1.2-7.5v-6.2l-12.3-3s-3 2.7-4.4 4.3-5.3 5.3-6.3 4.2 2.3-4.5 3.7-6l4.8-5-5.5-9.1h-7c-1.7 0-7.8.7-7.8-1s5.3-1.7 7.9-1.9l8.6-.5z"/><path fill="#ed6c31" d="M45 54c-3 5.3-5 23.4 9 30.3s27.3-1.6 31.1-12.7-2.6-22.5-13.3-26.9S49.5 45.8 45 54"/><path fill="#f2a05b" d="M58 49.2c-6.9 2.2-13.2 12-8 23 4.4 9.4 15.2 11.5 23.4 6A16 16 0 0 0 78 55.6c-4.9-7.3-12.2-8.8-20-6.4"/><path fill="#fccd87" d="M54.8 52.6c-1.9 2-2.3 4.7-1 6.2s4.9.8 6.5-1.4 1.6-4.6.4-5.8c-1.6-1.6-4.4-.6-5.9 1M63 51c-.5 1.3-1 4.4 1.6 5.3 2.4.8 3.4-.7 4.2-2.2s.7-4-1.1-4.8c-2.3-1-4.1.3-4.7 1.7m6.4 3c-.6 1-1.3 4.1 1.8 4.7 3.3.7 4.2-3.4 2.7-5a3 3 0 0 0-4.5.4m5.4 3.9c-.6.5-1.3 2.4.2 3.5s2.8.2 3.3-.7c.2-.6.4-1.7-.4-2.6-.8-.8-2.2-1-3-.2m-14.6.6c-.9 2-.4 4.4 1.7 5 2.4.8 4.4-.6 4.4-4 0-1.2-.8-2.5-2.6-2.8a3 3 0 0 0-3.5 1.8M58 62.8c-1.6-.1-2.8 1.6-2.8 3.2 0 1.5 1.2 3.1 2.6 3.1q3.2-.2 3.1-3.3 0-2.8-2.9-3m-5.6-3.6c-1.7 0-3.4 1.3-3.4 4.1s1.3 4.2 2.9 4.1c1.5 0 3.2-1.3 3.4-4.3s-1.4-3.9-3-4m-1 9.6c-1.7 1.4-.5 4 .5 5.3s3 2.6 4.5.7c1.6-1.9.4-4.2-.4-5.2s-2.5-2.5-4.5-.8"/><path fill="#fccd87" d="M56.4 76.7Q57 79 59.5 79c2.5 0 2.5-1.7 2.5-2.9s-1-2.5-2.7-2.7c-2-.1-3.2 1.4-2.9 3.3"/></svg>