<svg viewBox="0 0 128 128"><path fill="#8a5a54" d="M93.3 41s9-7.8 9.1-7.7 3.7 5 3.7 7.5c0 3-2.7 6.3-2.7 6.3s11.5-6.3 12.2-6.2 8 13.7 8 14.6-7 15.1-7.6 15.3-11-4.8-11-4.8 3.5 4.3 3 7.9-2.7 9-3.2 9.3-11.4-6.8-11.4-6.8z"/><path fill="#cd7955" d="M19.5 44.8s-6.1-13.7-5.8-14c.4-.5 13.4 6.9 13.4 6.9zm13-11.2s0-16.6.6-16.9 11.1 12.9 11.1 12.9zm17.4-5.2S55.7 13 56.2 13s7.4 17.5 7.4 17.5zm16 .4s8.8-13 9.7-12.8 2.3 17 2.3 17zm12.9 3.9s13-9.1 13.5-8.8-1 17.7-1 17.7z"/><path fill="#ba8d72" d="M15.1 66.3S3.8 74.5 4 75.8s15 2.5 15 2.5zM22 83.7s-8.3 11-7.9 11.8c.5.7 15.5-3.3 15.5-3.3zm11 11.9s-2 16.3-1 16.7S44.2 101 44.2 101zm17.2 6.2s7.5 15 8 15 5.2-16 5.2-16zm20-2.5s10.7 9.4 11.8 9c1-.3-.9-15.3-.9-15.3zm15-8s14.8 5.1 15.3 4.6-7.7-15-7.7-15zm12.5-36.6c.4 1.9 8.2-2.1 10.3-3.1s8.6-4 8-5.1-7.5 2-9.3 2.8-9.2 4.4-9 5.4m-.1 2.5c0 1.1 2.1 1.8 10.1 1.4s11.8-1.8 11.7-3c0-1-9-.6-12-.4s-9.7.5-9.8 2m1.8 3c-.2.7 5.7 3.2 9.8 4.4s7.4 2.3 7.8 1.3-3-2.5-7-3.8c-3.5-1.1-10-2.9-10.6-1.8"/><path fill="#f3a25c" d="M16 67.3s-1.6-.8-1.8-2.2 0-7 1.5-12.3 5-10.5 5-10.5l-2.6-6.5 5.8 2.6s3.5-3 5.9-4.4l5.3-2.7.3-7.9 4.8 6s3-.9 6.8-1.2l6.7-.5 2.7-7.2 2.4 7.3 5.6.1c3.1.1 5.5.6 5.5.6l3.7-5.9 1.1 7.2 4.3 1.7 4.6 2.3 5.6-4.4-.8 7.4s10.7 5.4 13 19.4-2.7 18.6-2.7 18.6z"/><radialGradient id="a" cx="57.2" cy="49.7" r="52.2" gradientTransform="rotate(90.413 54.456 46.928)scale(1 .8892)" gradientUnits="userSpaceOnUse"><stop offset=".6" stop-color="#f4d6b5"/><stop offset=".7" stop-color="#f1d2b2"/><stop offset=".9" stop-color="#e7c5aa"/><stop offset="1" stop-color="#d8b19c"/></radialGradient><path fill="url(#a)" d="M37.7 54.5c-12.9 4-23.4 11.1-23.4 11.1l.8 3.5-5.8 5.3 7.4 1s.5 1.9 2.7 5.8 3.6 5.3 3.6 5.3L19.2 92l7-1.4s2.6 3 4.4 4.3l4.8 3.8-1 7.4 6.1-5.1s2.8 1 6.2 1.6c3.3.6 7 .7 7 .7l3.8 7.3 2.7-7.5s4.3-.5 6.8-1 6.5-2.5 6.5-2.5l6.8 5-1-8 5.4-3.6 3.8-3.4 7 2.3-3.2-6.9 4.7-6c1.6-2.1 3.7-7.4 3.7-7.4S93 59 75 53.7a65 65 0 0 0-37.2.8"/><path fill="#fbfffe" d="M28 78.6c1 .6 10-9.6 10-9.6s-.5-2.5-3-3.7-5-.3-5-.3-2.9 13-2 13.5m23-14.7s2-2.8 6-2.5 5.7 2.3 5.7 2.3-4.1 14.4-5 14.4S51 63.8 51 63.8M39.5 93c.8.8 11.1-9 11.1-9s-1.2-2.6-3.8-4.4S40 79 40 79s-1.3 13.2-.5 14M64 80.7s.7-3 4-4c3.6-1.3 5.9.4 5.9.4s.5 12.7-.5 13.2-9.4-9.6-9.4-9.6m10.8-13s-.4-3 2-4.9 4.8-1.2 4.8-1.2 5.1 12 4.5 12.5c-.7.6-11.3-6.5-11.3-6.5"/><path fill="#cd7955" d="M44.3 40c.9 1 2.5-.8 3.2-1.6l2-2.2 2.4 1.8s2 2 3 .8c.8-.8-1.6-3.8-2.7-4.9s-2.3-2.4-3-2.2c-1 .1-2.4 2.1-3.1 3.4-1.4 2.2-2.6 4.2-1.8 5M73 42.6c.5 1.7 3.4.2 4.2 0l2.5-1 .3 3c0 1 .3 3 1.6 3 1.5 0 1.5-2.5 1.4-3.8-.2-3.7 0-5.9-.9-6.4s-5.7 2-6.6 2.6-2.8 1.7-2.5 2.6"/><path fill="#ffdc1e" d="M30.9 38.8c-4.7 1.7-5.9 5.8-5.2 8.4s3 6.5 10.1 5.2c6.4-1 6.8-7.2 5.3-10.2-1.6-3.4-5.5-5.2-10.2-3.5"/><path fill="#282f2f" d="M28.9 45.2c-.1 3 2.5 4 5 4 1.5-.2 4.6-1.2 4.4-4.3-.2-2.8-2.6-3.4-5.2-3.4-1.8 0-4 1.4-4.2 3.7"/><path fill="#f66" d="M23.2 53c.1-4.3-3-7-7.5-6.3-4.3.7-3.4 6-3.3 6.5l.6 2s-1 .6-1 2.7.8 4 4.5 3.5c4-.5 6.5-5 6.7-8.4"/><path fill="#a82612" d="M14 54.8c.2.4-.2 1.9 1.8 1.9 4.4-.1 5.2-2.7 5.3-3.2s-.6-2.1-5-2c-3.3 0-2.2 2.7-2 3.3"/><path fill="#885b52" d="M49 52.8c.3 2.4 4 3.5 8.4 4.1 4.8.7 8.2.5 8.2.5s2.3-1.1 2.3-7.8c0-6.5-2.6-7.3-2.6-7.3s-6.4.4-11.5 4.2c-2.8 2-5 4.4-4.8 6.3"/><path fill="#ba8d72" d="M60.2 46.4c-3.6 1-11.4 4-11.2 6.4.2 1.7 4 1.3 9.1 1.3a57 57 0 0 1 9.2.5l.3-.9v-1s-4.3-.8-8.5-.7c-3.3.1-7.8.7-6.8-.4.4-.4 5.6-2.6 8.5-3 2.8-.6 7-.9 7-.9l-.1-1.2-.2-1s-4.3.2-7.3 1"/></svg>