<svg viewBox="0 0 128 128"><path fill="#fceacc" d="M122 81.1c-4.2-5.9-14.2-5.4-17-5.3h-.4c-5 .2-9.7-1.7-13.2-5.2L57.3 36.5a18 18 0 0 1-5-13.3v-.4c.2-2.8.4-6.6 0-9.5C51.7 8.7 47 1.7 35 4.2c-6.2 1.2-8.6 3.7-9 9.5-.2 1.3.5 7.7-2 10.2-1.2 1.3-8.1.7-9.3.7-5.9.4-10.8 4.6-10.8 13 0 9 5.7 14.2 9 14.4 3 .2 6.7.4 9.5.2l8.6-.4 4.6 4.7 34.4 35c3.5 3.6 5.3 8.4 5 13.3v.4c-.1 2.8-1.7 13.3 5 17.1 1 .6 5.7 2.9 12.4 1.6 6.2-1.3 8.5-3.8 9-9.6.1-1.2.1-8.9 2.6-11.4s8.5-1.5 9.7-1.6c5.9-.3 9.3-2 10.5-8.2a20 20 0 0 0-2.2-12"/><path fill="#debca8" d="M26.3 11.1c.8-3 4.9-2.7 5.9-1.7q1.5 1.6 1.8 3.9c.8 5.8-1.2 9.1-3.2 10.2a15 15 0 0 1-6.5 1.6c-1.8.2-3.4-.1-2.7-.5 1-.5 3.1-2 3.6-2.8q.6-1.4.6-2.9c.2-2.6-.2-5.2.5-7.8m98 82c.2-1.8-1.8-3-3.2-2l-1.1.7c-4.1 2.3-9.7.4-13.6 3.2-6.8 4.8-2.8 17.8-7.4 21a12 12 0 0 1-10.5.8c-4.6-2.3-5.3-5.2-5.5-8.4-.4-4.7-.4-10-1.2-13.7-1-5-7.2-11.7-7.2-11.7S48.8 54.8 39 46c-3.7-3.4-9.5-2.2-14-1.7-5 .6-8.5.2-11.5-2.4S9.7 33.4 11 29.6s7-4.9 7-4.9h-3.4C8.8 25 4 29.1 4 37.5c0 9 5.4 13.7 8.6 14.5 3.6 1 13 0 13 0s5-.7 7.1 1.4l3 3 34.4 35c3.5 3.6 5.3 8.4 5 13.3v.4c-.1 2.8-1.7 13.3 5 17.1 1 .6 5.7 2.9 12.4 1.6 6.2-1.3 8.5-3.8 9-9.6.1-1.2.1-8.9 2.7-11.4s8.4-1.5 9.6-1.6c5.9-.3 9.4-2 10.5-8.2"/></svg>