<svg xmlns="http://www.w3.org/2000/svg" width="1em" height="1em" viewBox="0 0 128 128"><path fill="#94A61A" d="M71.74 3.32c-.76-.57-4.04 4.69-5.07 10.28c-.82 4.45-1.05 16.35-.56 22.24c.56 6.8 12.11 28.3 12.11 28.3L82.3 86.1l12.81 1.69s3.8-46.32 4.22-48.43c.42-2.11 2.44-11.54 4.13-17.64c1.4-5.04 4.32-13.61 3.61-14.03c-.7-.42-3.1 2.82-4.93 4.22s-7.29 5.68-9.76 8.87C88.16 26.22 84.4 35 84.4 35s-9.71-19.19-10.7-22.24c-1.4-4.37-1.4-9.02-1.96-9.44"/><path fill="#B5D024" d="M98.39 21.24c-.61.17-5.73 9.76-6.76 13.89s-3.38 10.32-3.75 20.55c-.32 8.85-.56 13.61-.56 13.61l3.28 3s-.19-15.86.66-21.96c.84-6.1 3.12-15.32 4.13-18.68c1.22-4.02 3.66-10.59 3-10.41"/><path fill="#737F39" d="m52.59 35.98l-3.94 3.47s8.92 8.82 10.79 11.54c1.88 2.72 4.88 7.98 4.88 7.98s-8.07-7.6-10.79-10.14c-2.72-2.53-6.66-5.07-6.66-5.07l-1.69 4.69l9.1 7.7L65.4 87.64s-10.28-4.55-11.97-5.49s-9.67-4.88-9.67-4.88l-.56 4.22s4.22 3.57 7.13 4.88s18.44 9.43 18.44 9.43l14.59.05l15.2 14.92s3.1 4.22 4.32 5.91c1.22 1.69 2.91 3.85 3.38 3.94c.47.09 3.1-1.78 4.32-2.72s2.63-2.06 2.63-2.63s-3.57-4.04-3.57-4.04L93.6 88.82l-2.72-17.08s-2.16-7.6-3.38-14.45c-.76-4.27-1.78-13.89-1.78-13.89l-4.22.56s1.06 8.05 1.97 13.61c1.22 7.41 2.91 14.27 2.91 14.27s-5.54-10.32-7.7-13.8c-2.16-3.47-9.29-14.64-9.29-14.64l-3.75 1.97s6.29 9.76 7.88 12.39c1.6 2.63 7.51 12.95 7.51 12.95l-7.98-7.04s-7.04-11.07-9.1-14.17c-2.07-3.1-11.36-13.52-11.36-13.52"/><path fill="#96A51D" d="M12.89 92.38c-.45.81 4.13.28 8.26.56s15.77 1.97 22.99 3.19s18.69 3.15 24.64 4.04c5.68.84 9.1-1.51 11.05-1.97c2.98-.7 3.73 0 3.73 0l6.29 6.95s2.02 5.42 3.38 9.01c1.6 4.22 3.57 11.92 4.5 12.11s5.35-3.57 5.63-4.22c.28-.66-4.13-11.92-4.6-13.51s-1.97-5.82-1.97-5.82s5.15 5.35 7.13 7.41c2.35 2.44 4.5 4.32 5.44 4.5s4.5-5.26 4.5-6.1s-4.5-4.5-6.01-6.01c-1.5-1.5-5.35-6.66-5.35-6.66s-2.16-6.66-2.35-8.17c-.19-1.5.11-6.33 1.14-14.68c.5-4.04 5.62-24.45 8.52-32.62c2.91-8.17 5.82-16.89 5.16-17.27c-.66-.38-4.69 4.79-8.07 7.88s-6.38 5.91-7.6 8.35c-1.22 2.44-5.9 9.24-7.23 19.71c-1.03 8.17-1.42 9.1-1.31 11.64c.28 6.48 2.1 11.57.66 12.2c-1.5.66-5.44-5.73-7.13-8.45c-1.69-2.72-9.1-12.48-16.14-16.71s-17.64-7.41-19.43-7.7c-1.78-.28-11.73-6.38-11.73-6.38l-10.23 3.66s-3.66-.47-5.26-.66s-4.41-.94-4.41-.38s5.32 5.73 6.44 6.85c1.13 1.13 6.98 7.32 8.85 8.73S48.75 77.54 49.4 78.02c3.38 2.53 9.42 8.54 15.72 11.24c5.26 2.25 10.7 2.98 10.7 4.01c0 1.03-2.53.28-5.63-.35c-2.42-.49-4.93-1.34-13.66-3.45c-7.57-1.83-12.11-2.16-13.05-2.16c-.94 0-15.37-.16-17.91.03s-10.28.74-12.68 5.04"/><path fill="#B5CF23" d="M30.44 53.25c-.06.5 4.04 2.72 7.98 4.97c3.94 2.25 14.17 7.41 19.15 11.26c4.97 3.85 10.61 10.04 13.42 12.67c2.74 2.56 9.85 7.7 12.29 8.82c2.44 1.13 6.76 3.66 6.76 3.66l.66-.66s-7.13-5.54-8.92-6.95s-6.38-5.91-9.1-8.54c-2.72-2.63-8.67-8.12-13.23-11.54c-6.01-4.5-18.49-10.42-21.49-11.64s-7.43-2.8-7.52-2.05"/><path fill="#E3DEA1" d="M100.36 87.32c-.44-.35-7.23 4.32-9.48 5.73c-2.25 1.41-7.98 4.5-7.98 5.07s5.82 7.7 6.29 7.7s6.1-3.28 8.35-4.5s6.57-3.47 6.66-4.04c.1-.58-3.37-9.59-3.84-9.96"/><path fill="#A099F7" d="M36.59 3.32L24.88 13.57s.7 3.91 1.55 6.29c1.6 4.5 5.23 8.89 5.23 8.89s14.36 14.36 18.86 11.17s-1.1-26.49-1.1-26.49s-2.63-4.06-6.55-6.87c-3.45-2.49-6.28-3.24-6.28-3.24"/><path fill="#7E43A4" d="M27.6 3.25c-3.89 2.43-2.72 10.46-2.72 10.46s2.71-1.82 6.31-.4c3.57 1.41 8.28 6.87 9.03 6.22c.75-.66-3.97-6.36-4.04-11c-.04-2.92 1.27-5 1.27-5S31.36.9 27.6 3.25"/><path fill="#FE6656" d="M74.18 10.4s-2.12 2.31-3.24 6.85c-1.6 6.48-.8 15.35.89 20.41c1.69 5.07 6.46 10.77 12.76 9.85c6.48-.94 8.88-8.14 9.71-13.14c.92-5.51.33-15.91-4.08-22.29c-3.07-4.44-3.21-3.71-3.21-3.71z"/><path fill="#CD1734" d="M80.51 5.62c-4.92.48-7.56 6.52-7.56 6.52s3.75-1.6 6.01 1.92c1.81 2.83 2.42 10.04 3.26 9.95s1.15-7.79 1.81-9.9c1.38-4.43 5.26-3.24 5.26-3.24s-3.05-5.82-8.78-5.25"/><path fill="#FEB804" d="M52.8 12.15L47 15.96s-2.86 7.4 1.74 17.2S60.48 50.33 69.3 45.6c7.48-4 4.2-17.35.95-24.22c-2.25-4.76-5.93-9.01-9.95-11.22c-3.99-2.19-7.5 1.99-7.5 1.99"/><path fill="#FF7537" d="M51.61 9.4c-3.75 1.81-4.6 6.56-4.6 6.56s2.53.57 5 1.92c3.88 2.13 6.41 8.42 7.14 8c.73-.42-1.67-6.91-.48-11.54c.65-2.54 1.64-4.23 1.64-4.23s-4.32-2.83-8.7-.71"/><path fill="#FD8695" d="m20.77 28.56l-4.6 4.32s.66 3.38 4.04 7.81c3.65 4.78 6.57 6.64 6.57 6.64s6.76.94 11.07 1.5c4.32.56 10.89 1.22 10.89 1.22s2.35-3.19 2.16-7.04s-4.79-12.39-12.86-17.18c-6.85-4.06-10.04-4.5-14.08-4.41s-3.19 7.14-3.19 7.14"/><path fill="#E658A4" d="M16.93 24.11c-2.51 3.39-.75 8.78-.75 8.78s2.94-1.26 5.68-.7c3 .61 9.39 4.46 9.85 3.85c.57-.74-4.36-5.26-5.77-9.53c-.93-2.82-.84-5.12-.84-5.12s-6.09-.1-8.17 2.72"/><path fill="#E84B8B" d="m16.39 65.24l-1.2 7.25s1.69 4.5 8.31 9.95c4.3 3.54 9.67 6.01 16.52 5.54s8.54-4.13 9.29-5.91c.75-1.78 2.95-7.97-6.76-15.86c-8.78-7.13-17.08-6.62-19.9-6.48c-3.31.16-6.26 5.51-6.26 5.51"/><path fill="#AF0C1B" d="M14.3 63.1c-1.68 3.84 1.08 9.85 1.08 9.85s2.07-2.18 6.01-2.44c3.61-.23 9.76 3.28 10.27 2.12c.38-.89-6.23-4.93-7.97-7.93c-1.62-2.81-1.03-4.97-1.03-4.97s-6.86-.05-8.36 3.37"/></svg>