<svg viewBox="0 0 128 128"><path fill="#94a61a" d="M71.7 3.3c-.7-.5-4 4.7-5 10.3-.9 4.5-1 16.4-.6 22.2.6 6.8 12.1 28.3 12.1 28.3l4.1 22 12.8 1.7s3.8-46.3 4.2-48.4 2.5-11.6 4.2-17.7c1.4-5 4.3-13.6 3.6-14s-3.1 2.8-5 4.2-7.3 5.7-9.7 8.9c-4.2 5.4-8 14.2-8 14.2s-9.7-19.2-10.7-22.2c-1.4-4.4-1.4-9-2-9.5"/><path fill="#b5d024" d="M98.4 21.2c-.6.2-5.7 9.8-6.8 14S88.3 45.3 88 55.6l-.6 13.6 3.3 3s-.2-15.9.7-22 3-15.3 4-18.7c1.3-4 3.7-10.5 3-10.4"/><path fill="#737f39" d="m52.6 36-4 3.4s9 8.9 10.8 11.6c2 2.7 5 8 5 8l-11-10.2c-2.7-2.5-6.6-5-6.6-5l-1.7 4.7 9 7.6 11.2 31.5s-10.3-4.5-12-5.4l-9.6-5-.6 4.3s4.2 3.6 7.1 4.9 18.5 9.4 18.5 9.4h14.6l15.2 15 4.3 5.9c1.3 1.7 2.9 3.8 3.4 4s3-1.9 4.3-2.8 2.6-2 2.6-2.6-3.6-4-3.6-4l-16-22.5-2.7-17s-2.2-7.7-3.4-14.5l-1.8-13.9-4.2.6s1 8 2 13.6c1.2 7.4 2.9 14.2 2.9 14.2S80.8 61.5 78.7 58l-9.3-14.6-3.8 2 8 12.4 7.4 13-8-7.1-9-14.2C61.8 46.4 52.5 36 52.5 36"/><path fill="#96a51d" d="M12.9 92.4c-.5.8 4.1.3 8.3.5s15.7 2 23 3.2l24.6 4c5.7 1 9-1.4 11-1.9 3-.7 3.8 0 3.8 0l6.3 7 3.3 9c1.6 4.2 3.6 11.9 4.5 12s5.4-3.5 5.7-4.1c.2-.7-4.2-12-4.6-13.6s-2-5.8-2-5.8l7.1 7.4c2.4 2.5 4.5 4.4 5.5 4.5s4.5-5.2 4.5-6-4.5-4.6-6-6c-1.6-1.6-5.4-6.7-5.4-6.7s-2.2-6.7-2.3-8.2q-.4-2.2 1-14.7c.6-4 5.7-24.4 8.6-32.6 3-8.2 5.8-16.9 5.2-17.3s-4.7 4.8-8.1 7.9-6.4 6-7.6 8.3-5.9 9.3-7.2 19.8c-1 8.1-1.4 9-1.3 11.6.2 6.5 2 11.6.6 12.2-1.5.7-5.4-5.7-7.1-8.5S75.2 62 68.2 57.7 50.5 50.3 48.7 50 37 43.7 37 43.7l-10.2 3.6-5.3-.6c-1.6-.1-4.4-1-4.4-.4s5.3 5.7 6.4 6.8c1.2 1.2 7 7.3 8.9 8.8s16.4 15.6 17 16.1c3.4 2.5 9.4 8.6 15.7 11.3 5.3 2.2 10.7 3 10.7 4s-2.5.2-5.6-.4l-13.7-3.4a63 63 0 0 0-13-2.2h-18c-2.6.1-10.2.8-12.6 5"/><path fill="#b5cf23" d="M30.4 53.3c0 .5 4 2.7 8 5s14.2 7.3 19.2 11.2 10.6 10 13.4 12.7c2.7 2.5 9.8 7.7 12.3 8.8 2.4 1.1 6.7 3.6 6.7 3.6l.7-.6-9-7c-1.8-1.4-6.3-5.9-9-8.5S64 70.4 59.5 66.9C53.5 62.4 41 56.5 38 55.3s-7.5-2.8-7.6-2"/><path fill="#e3dea1" d="M100.4 87.3c-.5-.3-7.3 4.3-9.5 5.7s-8 4.5-8 5.1 5.8 7.7 6.3 7.7 6-3.3 8.3-4.5 6.6-3.4 6.7-4-3.4-9.6-3.8-10"/><path fill="#a099f7" d="M36.6 3.3 24.9 13.6s.7 3.9 1.5 6.3c1.6 4.5 5.3 8.9 5.3 8.9S46 43 50.5 39.9s-1-26.5-1-26.5-2.7-4-6.6-6.8c-3.5-2.5-6.3-3.3-6.3-3.3"/><path fill="#7e43a4" d="M27.6 3.3c-3.9 2.4-2.7 10.4-2.7 10.4s2.7-1.8 6.3-.4 8.3 6.9 9 6.2c.8-.6-4-6.3-4-11 0-2.9 1.2-5 1.2-5s-6-2.6-9.8-.2"/><path fill="#fe6656" d="M74.2 10.4s-2.1 2.3-3.3 6.9a42 42 0 0 0 1 20.4c1.6 5 6.4 10.7 12.7 9.8 6.5-1 8.9-8.1 9.7-13.1 1-5.5.3-16-4-22.3C87.1 7.6 87 8.4 87 8.4z"/><path fill="#cd1734" d="M80.5 5.6c-5 .5-7.5 6.5-7.5 6.5s3.7-1.6 6 2c1.8 2.8 2.4 10 3.2 10s1.2-7.9 1.8-10c1.4-4.4 5.3-3.2 5.3-3.2s-3-5.9-8.8-5.3"/><path fill="#feb804" d="M52.8 12.2 47 16s-2.9 7.4 1.7 17.2 11.8 17.1 20.6 12.4c7.5-4 4.2-17.3 1-24.2-2.3-4.8-6-9-10-11.2s-7.5 2-7.5 2"/><path fill="#ff7537" d="M51.6 9.4C48 11.2 47 16 47 16s2.5.5 5 1.9c3.9 2.1 6.4 8.4 7.1 8s-1.6-7-.4-11.6c.6-2.5 1.6-4.2 1.6-4.2s-4.3-2.8-8.7-.7"/><path fill="#fd8695" d="m20.8 28.6-4.6 4.3s.6 3.4 4 7.8c3.7 4.8 6.6 6.6 6.6 6.6l22 2.8s2.3-3.2 2.1-7S46.1 30.5 38 25.7c-6.8-4-10-4.5-14-4.4s-3.2 7.2-3.2 7.2"/><path fill="#e658a4" d="M17 24.1c-2.6 3.4-.8 8.8-.8 8.8s3-1.3 5.7-.7c3 .6 9.4 4.4 9.8 3.8.6-.7-4.3-5.2-5.8-9.5-.9-2.8-.8-5.1-.8-5.1s-6-.1-8.2 2.7"/><path fill="#e84b8b" d="m16.4 65.2-1.2 7.3s1.7 4.5 8.3 10c4.3 3.5 9.7 6 16.5 5.5s8.6-4.1 9.3-6 3-7.9-6.8-15.8c-8.7-7.1-17-6.6-19.8-6.5-3.4.2-6.3 5.5-6.3 5.5"/><path fill="#af0c1b" d="M14.3 63.1c-1.7 3.8 1 9.9 1 9.9s2.2-2.2 6-2.5 9.9 3.3 10.4 2.1c.3-.9-6.3-4.9-8-7.9-1.6-2.8-1-5-1-5s-6.9 0-8.4 3.4"/></svg>