<svg viewBox="0 0 128 128"><path fill="#8bc029" d="M75.6 64.5s7.5 2.6 8.6-1.3-.6-16.5-.2-20.8.4-11.9 10-11.9 10.7 7.7 10.9 14.1 1.6 20.9-6 30.3A30 30 0 0 1 80.1 84c-6.4.8-13 9.8-13 9.8L52 100s-10.6-.2-19.7-7.9c-9.8-8.3-8.9-23.7-9.8-32.9s-3.9-22.3 10.4-23.4S44 55.3 43.3 60s-1.1 17.6 3.4 19.7 14.8-2.4 14.8-2.4z"/><path fill="#59951b" d="M92 35.5c-1-1-2.3 3.8-2.2 6.7s1.3 20.8-2 23.7c-3.1 3-5 3.3-10.2 3.3S54.2 87 52 87s-6.5 0-9.3-3c-2.8-2.9-4.4-7.3-4.5-14.7l-.4-21c-.1-2-.6-6.3-2.2-6.6s-.4 3.2-.4 5.2l.3 23.7c0 4.6 2 12.6 5.3 15.1s7.2 3.9 10.8 3.6S75 71.6 77.5 71.5c2.3 0 8.7.6 12.4-4.2 3.9-4.9 2.7-18 2.6-21.7s-.1-9.7-.5-10"/><path fill="#59951b" d="M31.4 42.6c0-1.7-3 2-3.1 7.5-.1 4.6.7 21.6 1.5 25.9.8 4.7 3.2 10.8 8 15 3.6 3.2 8.9 4.2 13.1 4.2s12-2.6 16.5-6.9 7.7-9.6 10.4-9.5 11.4-.2 16-5.6 6.6-16.1 6.2-25c-.4-8.1-.7-13-2.4-12.7-1 .2-.1 5.7 0 10s0 13.9-1.6 18.8S90.7 75 83.6 76.2s-8.7 0-8.7 0-5.8 8.3-10.3 11.5-11.6 5-13.7 5c-2 .1-8.3-1.3-11.3-3.7s-6.5-7-7.4-12.5c-.7-5-1.5-19.2-1.7-24.6-.1-3.8.8-7.3.9-9.4"/><path fill="#8bc029" d="M64.6 7.7c-8.9-.5-17.5 8.3-16.9 22.4s1.9 15.6 2 30.8S50.9 96 51 102.2s-.1 15.5 5.9 19.3c6 3.7 15.2 1.9 18.2-2 3-4 2.7-10.6 2.6-18.7s-.1-21.8-.4-26.6 2.2-39.8 2.4-44.7c.2-4.6.4-20.8-15.2-21.8"/><path fill="#59951b" d="M60 11.9c-1.6 0-5.8 6-6.1 12s-.6 19.8-.2 27.6L55.2 88l.8 22.8c.1 2.4 1.1 10.2 3.2 9.4.8-.3-.2-11.8-.6-22.7C58 87 57 62 56.9 53.3s-.8-23.7-.1-28.6 1.6-7.7 2.4-9.2 2.1-3.6.7-3.6m11.8 108q2.6-1 2.7-8.7l-.2-33.7c0-9.2.8-28.3.8-35.7S75 24 74.2 20c-.8-3.4-3-7.7-4.8-7.8s2 4.5 2.2 9.9c.5 8.3.3 19.2.1 36.3s.4 30.5.3 38.9c0 8.3.2 12.2 0 17.4 0 3.3-1.3 5.6-.3 5.2M64.5 12.3c-1.4 0-2.3 8.8-2.1 14l.9 33.9a2475 2475 0 0 1 1 57.6c.1 1.9 0 3.3 1.4 3.4 1.5 0 1.3-2 1.3-3.6l-.1-15-.6-42.9V26c0-7.3 0-13.6-1.8-13.7"/><path fill="#ffbf1b" d="M64.5 5.7s2-2.3 2.7-2S66 8.8 65 9s-3.6-3.8-3-4.2 2.6 1 2.6 1m10.2 8c.8 1.2 5.4-.1 5-1-.5-1.4-2.7-1-2.7-1s.3-3-1-3c-1 0-2 4.1-1.3 5M52.6 7.7c-.8.3-.2 2.7-.2 2.7s-2.4-.5-2.5.4 3.5 3 4.7 1.8c1-1.2-.9-5.2-2-4.9"/><path fill="#ffe068" d="M45.7 23.5c-.5 1 1.7 2.8 1.7 2.8s-2.7 1.9-2.1 2.6 5.3-.8 5.4-2.4c0-1.5-4.4-4-5-3m24.2-.1c-.5-.2-3.6 4-2.5 5.3s5.6-1 5.6-1.6-2.8-.9-2.8-.9.2-2.7-.3-2.8M52.1 45.8c.1 1.4-4.8 4-5.4 3s2-3.1 2-3.1-2-2.4-1.6-3.1c.5-.8 4.8 1.7 5 3.2m26-3.4c-.7-.3-4.4 2.6-4 4.5s5.6.9 5.6.3-2.7-1.7-2.7-1.7 1.6-2.8 1-3M56.3 56.7c-.4.3 1.7 2.9 1.7 2.9s-2.5 2-2.3 2.7 5.5 0 5.6-2.3-4.3-4-5-3.3m-8.7 12.1c-.2.5 2 2.9 2 2.9s-2.6 2.8-2 3.4 5.3-1.2 5.5-3-5.1-4.3-5.5-3.3m25.5-.8c.2 2.5 4.8 2.8 5.2 2 .3-.6-2.2-2.2-2.2-2.2s2-2.6 1.6-3c-.7-.7-4.8 1.4-4.7 3.2M51 84.4c-.4.6 2 2.9 2 2.9s-3.3 1.6-3 2.4 5.5.5 6-1.5c.7-3.2-4.6-4.2-5-3.8m14.8 15.2c0 1.9 5.3 2.9 5.7 2.3s-2.7-3-2.7-3 2.2-2.7 1.8-3.3-4.8 1.5-4.7 4m9.8-10.1c.2 2 5.6 3 5.7 2 .1-.7-2.5-2.4-2.5-2.4s1.8-2 1.4-2.6-4.8 1.5-4.6 3m-19.8 19.4c.2 2-3.8 4-4.2 3.5-.4-.7 1.6-3.6 1.6-3.6s-2.2-2.8-1.9-3.3c.5-.7 4.3 1.3 4.5 3.4"/><path fill="#ffbf1b" d="M80 103.3c.2.7-1.6 3.2-1.6 3.2s3 2.2 2.6 3-4.9 0-5.3-2.3c-.5-2.2 4-4.8 4.3-3.9M95.3 30s-1.8-2.3-2.6-1.8c-.5.3.7 4.3 2.7 4.3s3.2-4.3 2.4-4.5c-.7-.2-2.5 2-2.5 2m10 5.4s.4-2.4 0-2.8-3.2 3.2-2.3 4.9c1 1.6 5.5-1 5.2-1.5-.4-.5-2.8-.6-2.8-.6m-21.1-.2s-2.7.9-2.7 1.6 4.3 1.6 5.4-.2-2.7-4.6-3.2-4.2.5 2.8.5 2.8M102 67.5c-.4 1.6 3 4.8 3.8 4.3.4-.2-1.1-3.6-1.1-3.6s2.7-1.1 2.7-1.6-5-1-5.4.9"/><path fill="#ffe068" d="M104.2 53.7c0 1.4 5.2 2.2 5.4 1.7s-2.1-2.7-2.1-2.7 1.9-2.4 1.3-2.8-4.5 1.6-4.6 3.8m-80 1.5c0 1.3-3.8 3.4-4.3 2.8s1.3-2.7 1.3-2.7-2.3-1.5-1.7-2.3 4.5.4 4.6 2.2m1.2 6.9c-.3.4 1.6 2.4 1.6 2.4s-1.9 2.5-1.3 3 3.9-1 3.8-3.2-3.7-2.9-4.1-2.2"/><path fill="#ffbf1b" d="M33.4 34.1s-1.8-2.1-2.4-2c-.8 0 0 4.5 2.2 4.5 2.4 0 3.2-4.3 2.7-4.6s-2.5 2.1-2.5 2.1m7.4 6.3c1.3 1.5 5.5-1.1 5.3-1.6s-3-.5-3-.5.3-2.5-.5-2.7-2.8 3.5-1.8 4.8M25 41c-.7 1.5-4.5.7-4.7 0s2.3-1.5 2.3-1.5-.8-2.3-.4-2.6 4 1.8 2.8 4.1m1.7 36c.6 1.5-2.4 4.5-3 4-.3-.4.4-3.1.4-3.1s-2.6-1-2.4-1.5c.1-.5 4.2-1.3 5 .6"/></svg>