<svg viewBox="0 0 128 128"><path fill="#ffbcd8" d="M61.4 14.6s1.8-8.7 3.7-9.3c2-.5 10.4 1.4 14.5 3.5 5.8 3 9.3 8.2 10.2 14.4.9 6.6-1.7 12.2-1.7 12.2s6-3.6 13.2-3 12.6 4.1 14.7 6.7 4.8 5.4 4.5 6.7c-.4 1.3-7.9 5.9-7.5 7 .4 1.2 9.1.6 10 2.1s2.7 11.4-3.8 18.5-13 8-13 8 6.5 6.2 6.8 14.5q.4 10.2-5.2 12.3c-3.8 1.4-10.7-3-10.7-3s6 10.7 3.3 12.4c-2.7 1.6-4-1.4-5.1-1-1 .2.6 2.4-1.4 4.3s-11 3.2-18.8-1-10.2-11-10.2-11-2.1 8.2-11.8 12.3-16.6-1-17.9-1.7-.8-7-.5-8 1.4-3.5.6-4-3.3 3.1-5.1 4.3-4.1 2.4-6.4.5-7.8-8.4-6.4-17S23.7 82 23.7 82s-10.3-1-15.3-9.7S4 54.8 4.9 53.6s8.6-1.3 8.6-1.3-7.3-4.2-6.5-7.5c.7-3.4 4.5-.8 5.5-1.8s-2.6-5 .3-7c2.1-1.5 6-4.4 13.2-5 7.6-.6 13 3.2 13 3.2s-3.3-5.5-2-11.8c1-5 4.8-9.2 8.2-11.7s8.1-4.3 10.2-4.3 6 8.2 6 8.2"/><path fill="#fca2c8" d="M79.7 46.4c1.4 1.6 4.3-.6 6.2-3.9 1.4-2.4 3.1-6.6 2.5-7.2s-5.1 3-6.7 4.8c-1.5 1.8-3.1 5-2 6.3m7.7 31c-.4 2.3 5.5 4 8.7 4.3 3 .4 10 .8 10.1-.2s-5.6-5-10.1-6c-4-.8-8.4-.2-8.7 1.8m-22.1 15c-2 0-2.8 4.7-2.4 8.3s1.1 8.3 2 8.3 2.3-5 2.7-10c.2-3-.5-6.4-2.3-6.5M23.7 81.9c.1.6 7 .6 10.8-.4s6-3.3 5.6-4.9-5.1-1-7.7-.1c-3.4 1.3-8.9 4.7-8.7 5.4m15.6-47.3c-.8.6 1.8 5.4 3.5 7.5s4.3 4.3 5.7 3.7c1.3-.5 0-4.7-2.9-7.5-1.4-1.4-5.5-4.3-6.3-3.7"/><path fill="#bf0477" d="M78.4 46c-1.8-1-7.5 6.8-14.2 6.5s-13.5-7.3-14.7-6.3 3.6 9 1 16.5c-2.2 7-10.4 11.6-9.5 13.4.8 1.6 8.7-1.8 15.3 1.5 7.6 4 6.2 13.8 8.9 13.9s1.5-8.7 8.1-12.8c6.4-4 13.2-1 13.8-3 .7-2.4-8-5.4-9.8-13.7-2.1-9.5 3-15 1.1-16"/><path fill="#f2a159" d="M59.7 58.8c-1.3.5-4.9 8.6-4.3 9.6s7.8 7.3 9.7 7.3 8.3-6 8.4-7-3.1-9.3-4.2-9.9-8.3-.4-9.6 0"/><path fill="#fdd0b1" d="M68.8 54a4 4 0 0 0 .2 6c2 1.6 4.8 1 6-.7 1-1.4 1-3.6-.7-5.1-1-1-3.5-2-5.5-.1m2.5 15.6c-.3 2.6 2 4.6 4.1 4.6 3 0 4-2.5 4-4.1 0-2.3-1.6-4.2-4-4s-3.9 1.3-4.1 3.5M65 74.4c-2 0-4 1.3-4 4.2 0 2.6 2.1 3.8 4.1 3.8s3.7-1.5 3.7-4-1.8-4-3.8-4M52.7 66c-3 0-4.1 2-4.1 4.2s1.6 4 4.3 3.8c2.3 0 3.7-2 3.5-4.2q-.2-3.6-3.7-3.8m2-12.5c-1.7 1.6-1.8 4.4 0 5.9 1.4 1.1 3.9 1.5 5.5-.2s1.3-4-.1-5.4-3.8-1.8-5.4-.3"/></svg>