<svg viewBox="0 0 128 128"><path fill="#e4eaee" d="M23.5 62.3c.7-.7-1.3-9.3 7.5-16s15-2.6 15.8-2.9 4.8-17.6 21.4-22 34 3.9 38 18c3.8 12.8.9 21.5 1.3 22s8.4.3 13 7.8 3 12.1 3 12.1L94 90.5H46.7S5 79.5 4.6 77.5s.5-8.4 7.3-12.2c6-3.4 10.3-1.7 11.6-3"/><path fill="#bacdd2" d="M35.2 92.8s-15.8 3.3-26.5-5c-6.4-4.9-4-13-4-13s4.5 4.7 13.8 6 19.7.8 19.7.8S40.8 86 50.6 88c12.3 2.5 18.8-3.8 18.8-3.8s3.3 4 15.1 4.3 18.5-8 19.6-8.1c.6-.1 3.8 2.8 10.3 1.8 6.2-1 9.4-3.7 9.4-3.7s.9 6.7-5.3 10.7c-4.8 3.2-13.2 3.6-13.2 3.6s-1.3 4.9-7 8.4a29 29 0 0 1-21.5 2.4c-8.6-2.5-10.7-6.4-10.7-6.4s-6.4 3.7-16.4 2.4a24 24 0 0 1-14.5-6.9"/></svg>