<svg viewBox="0 0 128 128"><path fill="#65a21b" d="m68.6 55.1-6.8 2s.4 3.8-.3 9.2c-.8 5.4-2.3 14-.8 25.3s7 17.4 10.9 21.6c1.5 1.7 5.7 4.8 6.4 6.5s2 4.2 3.9 4.2 4.6-2.2 5-5.7-5-3-10.8-9.3a35 35 0 0 1-10-21.4c-.8-8.8.4-17.3 1-20.6zM77 5.6c2.3-1.1 9.7-2.9 14.7 2.1s3.7 11.3 5 12.2c1.1.9 8.6-.6 13.8 4.6s3.6 13.9 1.3 16-24.4-13.4-24.4-13.4zM29.4 19.7s.8-7.3 4.6-11.2c3.4-3.5 8.9-4.9 14-2.7 6.5 2.8-7.1 23.6-7.1 23.6l-24.5 12s-5.7-7.7-.1-15.9c4.7-7 13.1-5.8 13.1-5.8M18.8 59a12 12 0 0 0-2.6 16c4 6.4 9.8 6.2 9.8 6.2s-1.5 8.6 4 13.5c5.3 4.7 14 3.1 16.5 1.6 3-1.9-5.2-26.4-5.2-26.4z"/><path fill="#65a21b" d="M92.3 72.5S73.1 87.2 75.8 91.4c3 4.7 14.4 6.5 19.6 2.3 6.2-5.1 4-10.3 5.1-11.5s5.8-1.4 8-6.2c2.4-4.9 1.9-10.7-1-14.2-2.8-3.5-15.2 10.7-15.2 10.7"/><path fill="#8bc02b" d="M63.2 43.4c3.3-.3 1.6-9 1.8-16.1.5-11.9 3.8-15.8 6.8-18.6A20 20 0 0 1 80 4.6c1.6-.3 5.8 2.5 8 7.9 2 4.5 1.8 10.3 3.4 11.7s9.2-1 15 4.3 5.8 10.2 5.8 11.3-3.6 5.5-9.6 7.3C95.2 49.4 82 48.4 78 48.3s-7 .3-7 2.1 5 1.3 8.9 1.3 13.3 1 20.5 4.2c7 3.2 8.6 7.7 9.2 10.7.6 2.7-1 6.3-3.8 8S97 76 95.6 77.7c-1.8 2.2.9 9-5.5 13.2s-12.4 2.4-13.7 1.3c-4.8-4.1-6-9.4-7-17.2S68 58.8 64.6 58.8s-5.2 9.8-6.7 18.3-5.3 18.2-13.7 20c-6 1.4-11.7-5-12-9.3-.5-4.6.2-9.2-.9-10.8-1.4-2.1-8.4 0-12.6-6.4-3.6-5.5-2-9.3-1.3-10.3.8-1 4.4-5.7 13.4-7.2s26.3 1.2 26.5-2-14-2.7-18.6-2.7-14.2.3-19-3.5c-3.7-3-4.8-6-5-6.8-.3-1.5.7-8 6-11.2 6.5-4 11.7-1.2 13.2-2.3s-1.2-6.3 3.4-13c3.5-5.2 9.7-6.2 10.4-5.9 3.2 1.3 7 3.8 9.8 9.5s3.8 12 3.8 16.8-.7 11.6 2 11.4"/><path fill="#bdce46" d="M82.8 31.2s2.4-4-.5-5.8c-3.3-2.1-5.7 1.3-5.7 1.3s-.4-2.8-3.2-2.8q-3 .1-3.2 5.3c-.1 3.3.6 4.6 2.3 5 2.2.4 3-1.6 3-1.6s0 1.6 1.6 2.7 3.2-.3 3.2-.3-1.4 2.1-.2 3.4c1 1.1 2.7.4 2.7.4s-2.9 2.6-1.6 4.4c1.3 1.7 4.1 1.7 6 1.2S91.5 42 91 39s-5.2-2.3-5.2-2.3 2.6-3.2 1-5c-1.6-2.1-4-.5-4-.5M84.2 56c-.5 1.4 1.2 3.2 1.2 3.2s-1.4 0-1.9 1 .2 2.5.2 2.5S81 61 79 62.5c-1.7 1.3-1 4.2-1 4.2s-1.8-2.2-4.1-1c-1.7 1-1.8 4-1.4 6.4s2 5 4.6 4.5 2.3-5.7 2.3-5.7 3.7 3.7 6.3 1.5c2-1.9.5-4.6.5-4.6s1.2.5 2-.4.2-2.3.2-2.3 3.3 1.4 4-.9-1.7-3.5-1.7-3.5 1.6.2 1.4-2-6.6-6.7-8-2.8M47 64.4s1.3-1.2.8-3.9c-.7-3.2-5.2-4-7-4s-3.8.5-3.7 3c0 1.8 1.6 2.3 1.6 2.3s-1.8 1-1.3 3.2c.8 3.2 6 2.2 6 2.2s-3.2 2.8-1.3 5.6 5.4.6 5.4.6-1 3 1.1 3.8c2 .7 3.7-.7 4.9-3.1s1.3-6.2-.6-8C50 63.2 47 64.3 47 64.3m-1.3-38.2c-2.6 1.9-1.4 5.5-1.4 5.5s-2.3-.5-3 1.2 1 2.5 1 2.5-2.4-.5-2.9 1.3 1.2 2.7 1.2 2.7-2.4.3-2.6 2.9c-.1 1.6 1.3 3.9 5 4s5.5-.3 5.7-2.1-2-2.7-2-2.7 1.7-.3 1.8-2c0-2.3-2-3-2-3s2.5 1.2 4.5.1c2.8-1.5 1.5-4.6 1.5-4.6s1 2.7 3 2.3c1.6-.3 3-2.1 2.7-5.5s-1.7-4.2-3.3-4.3c-2 0-2.8 2.8-2.8 2.8s-2.7-3.7-6.4-1.1"/></svg>