<svg viewBox="0 0 128 128"><linearGradient id="a" x1="131.8" x2="33.4" y1="126.9" y2="21.9" gradientTransform="matrix(.9948 .035 .0441 -.9944 -18.633 133.584)" gradientUnits="userSpaceOnUse"><stop offset="0" stop-color="#fff" stop-opacity="0"/><stop offset=".2" stop-color="#d3f0f9" stop-opacity=".2"/><stop offset=".4" stop-color="#9fdff3" stop-opacity=".4"/><stop offset=".6" stop-color="#76d2ee" stop-opacity=".6"/><stop offset=".7" stop-color="#58c8ea" stop-opacity=".7"/><stop offset=".9" stop-color="#46c2e8" stop-opacity=".9"/><stop offset="1" stop-color="#40c0e7"/></linearGradient><path fill="url(#a)" d="M28.8 123.1c-7.7 5.4-17.3 6.2-23.6-.8S.4 105.7 6 97.9C16.5 83 83.8 1.3 83.8 1.3s21.2-4 34 11.3 9 35.1 9 35.1-82.5 64.5-98 75.4"/><linearGradient id="b" x1="128.1" x2="29.5" y1="127.9" y2="24" gradientTransform="rotate(182.688 -7.71 69.03)scale(-1 1)" gradientUnits="userSpaceOnUse"><stop offset="0" stop-color="#fff" stop-opacity="0"/><stop offset="1" stop-color="#b388ff"/></linearGradient><path fill="url(#b)" d="M3.7 106.8C10.2 97.1 37.4 65 53.4 51S74 32.5 88.9 21.6c3.5-2.5 14.4-2.5 18.6 3a17 17 0 0 1 1.3 17.7c-1.4 2.4-20.3 24.7-32.4 35.4s-50.6 45-56.8 48C13.3 128.7 8 125 5 122c-2.9-2.8-4-11-1.3-15.2" opacity=".5"/><linearGradient id="c" x1="96.5" x2="32.7" y1="90.4" y2="27.6" gradientTransform="rotate(182.275 -6.588 68.316)scale(-1 1)" gradientUnits="userSpaceOnUse"><stop offset="0" stop-color="#fff" stop-opacity="0"/><stop offset="1" stop-color="#e0f7fa"/></linearGradient><path fill="url(#c)" d="M7 107.4S36 81.5 53.2 68c37.4-29.2 20.7-5.8-33 52.4 0 0-10.8 3.8-13.4-13"/><path fill="#e0f7fa" d="M19.5 108.2c3.4 3.8 3.2 9.8-.5 13.3s-9.4 3.3-12.8-.5-3.2-9.8.5-13.4a9 9 0 0 1 12.8.6"/><g fill="#fff"><circle cx="21" cy="116" r="1"/><circle cx="19" cy="102" r="1"/><circle cx="19" cy="92.3" r="1"/><circle cx="11" cy="116" r="1.8"/><circle cx="24" cy="107" r="1.8"/><circle cx="30" cy="97.8" r="1.8"/><circle cx="12.8" cy="108.8" r="1.8"/><circle cx="40.2" cy="103" r="1"/><circle cx="52.5" cy="90.5" r="1.3"/><circle cx="43.3" cy="91" r="1.3"/><circle cx="71.3" cy="63" r="1.3"/><circle cx="52.3" cy="75" r="1.3"/><circle cx="41" cy="75" r="1.3"/><circle cx="107" cy="36.3" r="1.3"/><circle cx="91" cy="35.8" r="1.3"/><circle cx="90.8" cy="48" r="1.3"/><circle cx="63.3" cy="57" r="1.3"/><circle cx="67" cy="84" r="1"/><circle cx="67" cy="72" r="1"/><circle cx="46" cy="64" r="1"/><circle cx="38" cy="67" r="1"/><circle cx="72" cy="42" r="1"/><circle cx="56.5" cy="58.5" r="1.3"/><circle cx="53" cy="56" r="1"/><circle cx="31.8" cy="111.5" r="1"/><circle cx="33" cy="78" r="1"/><circle cx="30" cy="87.1" r="1"/></g></svg>