<svg xmlns="http://www.w3.org/2000/svg" width="1em" height="1em" viewBox="0 0 128 128"><linearGradient id="notoComet0" x1="131.76" x2="33.399" y1="126.944" y2="21.898" gradientTransform="matrix(.9948 .035 .0441 -.9944 -18.633 133.584)" gradientUnits="userSpaceOnUse"><stop offset="0" stop-color="#FFF" stop-opacity="0"/><stop offset=".157" stop-color="#D3F0F9" stop-opacity=".157"/><stop offset=".365" stop-color="#9FDFF3" stop-opacity=".365"/><stop offset=".561" stop-color="#76D2EE" stop-opacity=".561"/><stop offset=".738" stop-color="#58C8EA" stop-opacity=".738"/><stop offset=".89" stop-color="#46C2E8" stop-opacity=".89"/><stop offset="1" stop-color="#40C0E7"/></linearGradient><path fill="url(#notoComet0)" d="M28.8 123.12c-7.67 5.38-17.35 6.15-23.57-.86s-4.82-16.55.64-24.32C16.49 82.85 83.8 1.31 83.8 1.31s21.18-3.99 34 11.33s9.01 35.08 9.01 35.08s-82.48 64.52-98.01 75.4z"/><linearGradient id="notoComet1" x1="128.057" x2="29.532" y1="127.852" y2="23.968" gradientTransform="scale(1 -1) rotate(-2.688 -2942.275 328.586)" gradientUnits="userSpaceOnUse"><stop offset="0" stop-color="#FFF" stop-opacity="0"/><stop offset="1" stop-color="#B388FF"/></linearGradient><path fill="url(#notoComet1)" d="M3.7 106.8c6.52-9.74 33.69-41.77 49.65-55.79C69.31 37 74.04 32.55 88.93 21.64c3.5-2.56 14.38-2.51 18.6 2.92c4.73 6.08 3.24 14.42 1.28 17.76c-1.41 2.4-20.34 24.63-32.45 35.35s-50.52 45.07-56.8 48.04c-6.28 2.96-11.61-.81-14.53-3.68c-2.92-2.88-4.11-11.06-1.33-15.23z" opacity=".5"/><linearGradient id="notoComet2" x1="96.523" x2="32.67" y1="90.361" y2="27.635" gradientTransform="scale(1 -1) rotate(-2.275 -3440.603 331.77)" gradientUnits="userSpaceOnUse"><stop offset="0" stop-color="#FFF" stop-opacity="0"/><stop offset="1" stop-color="#E0F7FA"/></linearGradient><path fill="url(#notoComet2)" d="M6.93 107.4s29.01-25.87 46.35-39.39c37.44-29.21 20.74-5.81-33.05 52.38c0-.01-10.74 3.77-13.3-12.99z"/><path fill="#E0F7FA" d="M19.54 108.15c3.41 3.84 3.18 9.83-.51 13.38c-3.69 3.55-9.45 3.31-12.86-.53s-3.18-9.83.51-13.38c3.7-3.55 9.45-3.31 12.86.53z"/><g fill="#FFF"><circle cx="21" cy="116" r="1"/><circle cx="19" cy="102" r="1"/><circle cx="19" cy="92.25" r="1"/><circle cx="11" cy="116" r="1.75"/><circle cx="24" cy="107" r="1.75"/><circle cx="30" cy="97.75" r="1.75"/><circle cx="12.75" cy="108.75" r="1.75"/><circle cx="40.2" cy="103" r="1"/><circle cx="52.5" cy="90.5" r="1.25"/><circle cx="43.25" cy="91" r="1.25"/><circle cx="71.25" cy="63" r="1.25"/><circle cx="52.25" cy="75" r="1.25"/><circle cx="41" cy="75" r="1.25"/><circle cx="107" cy="36.25" r="1.25"/><circle cx="91" cy="35.75" r="1.25"/><circle cx="90.75" cy="48" r="1.25"/><circle cx="63.25" cy="57" r="1.25"/><circle cx="67" cy="84" r="1"/><circle cx="67" cy="72" r="1"/><circle cx="46" cy="64" r="1"/><circle cx="38" cy="67" r="1"/><circle cx="72" cy="42" r="1"/><circle cx="56.5" cy="58.5" r="1.25"/><circle cx="53" cy="56" r="1"/><circle cx="31.75" cy="111.5" r="1"/><circle cx="33" cy="78" r="1"/><circle cx="30" cy="87.09" r="1"/></g></svg>