<svg xmlns="http://www.w3.org/2000/svg" width="1em" height="1em" viewBox="0 0 128 128"><path fill="#5A6415" d="m58.5 13.64l-18.96 10.7l-11.07 10.7l-9.03 1.75s3.52 3.94 13.76.6c10.14-3.31 15.86-16.91 26.92-15.7c10.63 1.16 8.62 11.51 8.62 11.51l14.54-16.55zm-3.23 28.64s-3.37.99-5.3 6.23c-1.5 4.07-.52 8.02-.09 9.57c.42 1.55 1.49 3.66 1.56 4.5c.07.84-2.41 2.49-2.29 4.05c.07.92 1.77 2.28 3.87 2.53c4.08.49 5-.56 5-.56l5.49-18.9zm2 32.91s-7.07-4.08-14.32-3.66s-9.29 3.8-10.14 6.69c-.56 1.92-1.86 5.23-2.89 6.9c-.95 1.55-2.96 2.87-4.22 3.15c-1.81.4-4.05 1.16-3.33 3.94c.59 2.28 2.25 3.71 4.29 5.05c2.01 1.31 4.38 2.82 4.38 2.82l25.97-17.21zm24.81 13.02l-5.91 7.81s2.32 4.65 8.09 5.98c5.77 1.34 8.76 1.69 9.54 3.55c1.05 2.54-.14 5.91-.56 6.62c-.42.7-2.62 3-1.02 4.58c1.94 1.9 7.18.77 9.01.14s4.13-1.11 4.94-3.78c.55-1.83 1.66-8.42 1.5-12.51c-.18-4.75-1.06-7.92-2.53-9.26c-1.48-1.34-11.16-3.13-11.16-3.13s1.67-3.88 3.59-8.94c.95-2.5 1.51-5.17 1.97-5.35c.73-.28 1.94 1.69 2.22 2.46c.28.77.14 8.47 1.19 9.62c.89.98 3.83 1.62 6.52-.18c2.36-1.58 4.85-4.51 4.72-7.53c-.18-3.91-3.77-6.76-3.91-8.31c-.14-1.55.56-5.46 0-8.48c-.56-3.03-15.03-12-15.03-12z"/><path fill="#F26A35" d="m56.04 101.72l-33.37 9.01l-4.5 1.06l.14 4.57l8.52 5.63l19.71-5.84l12.6-6.75l-3.52-8.17"/><path fill="#FFFDFD" d="M19.51 117.63s.28-4.15 2.11-3.8c1.49.29 2.18 5.21 2.18 5.21l2.53 2.11l2.53-2.39s1.27-4.93 2.75-5.07c1.69-.16 2.82 4.43 2.82 4.43l-8.09 4.43zm19.99-10.56s1.75 3.48 3.8 3.31c2.46-.21 2.89-6.19 2.89-6.19z"/><path fill="#70853C" d="M35.13 92.36c-.32 1.93-4.3 4.33-5.96 5.42c-2.06 1.36-4.46 3.17-6.01 3.24s-3.85.23-6.05.38c-2.11.14-3.61.59-4.6 2.63c-.73 1.51-.89 5.02.8 6.71c1.69 1.69 5.42 3.17 10.42 2.53c5-.63 6.55-1.48 8.17-2.18c1.62-.7 9.15-3.73 12.67-4.65c3.52-.92 10.14-2.82 11.26-1.83c1.13.99-3.38 4.01-6.9 5.35c-3.52 1.34-13.97 7.32-18.11 8.45c-2.95.8-9.22.36-10.75-1.06c-1.16-1.07-1.55-1.81-1.58-2.78c-.04-.97-1.11-1.32-2.08-.32c-1.2 1.23.11 4.5 2.53 6.48c2.41 1.95 6.47 3.09 12.48 2.67c8.17-.56 15.65-5.84 17.41-5.91c1.76-.07 7.5.85 12.95-1.31c5.6-2.22 8.35-6.43 8.35-6.43s4.88-2.35 7.98-4.46c3.1-2.11 5.07-3.57 5.07-3.57s-2.72-1.6-2.79-5.49c-.04-2.32.77-5.49 2.82-5.14c2.04.35-1.48 5.49 2.32 7.32s10.35 3.87 13.87 1.83c3.52-2.04 7.15-7.31 5.96-9.07c-1.2-1.76-4.03-2.41-6.76-2.96c-2.56-.51-5.82-.71-5.82-.71s3.45-8.66 3.87-13.51c.22-2.53.12-4.94-.21-6.97c-.42-2.6-1.09-5.83-1.06-8.24c.04-2.6.28-6.19 1.62-5.91c1.34.28.73 3.94.99 7.39c.28 3.87 1.97 9.36 6.34 9.08c4.36-.28 6.69-3.31 6.05-9.08c-.63-5.77-1.3-9.43-3.7-12.39c-2.39-2.96-5.03-3.55-5.03-3.55s-.35-10.94-3.59-17.7C94.51 19.19 86.55 9.09 74.31 5.57S53 5.46 46.68 9.3c-8.69 5.28-12.49 19.6-17.84 22.21s-9.68 2.5-9.75 3.98c-.07 1.48.49 1.97 3.94 1.9c3.45-.07 6.99-.63 11.54-3.87c5.38-3.84 12.74-12.74 18.3-14.78s11.54-1.41 14.36 1.62s3.66 6.43 2.99 9.15c-1.11 4.52-4.4 7.39-4.4 7.39s-10.49 2.82-13.51 7.46s-2.15 6.72.14 8.59c3.67 2.99 8.59 1.48 8.59 1.48s-2.43 8.94-2.99 11.68c-.56 2.75-2.36 11.76-2.92 13.16c-.56 1.41-1.27 4.5-3.17 4.43c-1.9-.07-5.28-3.59-11.05-1.34c-5.23 2.04-5.35 7.47-5.78 10"/><path fill="#FFFDFD" d="M52.13 103.69c-2.15.6-2.29 5.88-2.29 5.88s1.31-.51 2.71-1.3c1.37-.77 1.99-1.43 1.99-1.43s-1.08-3.52-2.41-3.15"/><path fill="#70853C" d="M97.26 113.42c-1.48-.11-2.11 1.31-2.44 2.76c-.18.77-.25 1.51-.25 1.51s.84.18 1.83.11s1.9-.21 1.9-.21s1.01-4.02-1.04-4.17m2.36 3.89s-.21-1.71.53-3.11c.74-1.41 2.78-1.4 2.89.53c.05.97-.07 1.6-.07 1.6s-.7.35-1.39.55c-.81.22-1.96.43-1.96.43"/><path fill="#71873B" d="M105.45 82.93c-1.72.01-1.82 3.55-1.82 3.55s.61.5 1.71.53c.98.03 1.76-.18 1.76-.18s.26-3.91-1.65-3.9m3.14 3.39s-1.63-3.92.5-4.46c1.46-.37 1.97 2.66 1.97 2.66s-.46.58-1.06.99c-.64.43-1.41.81-1.41.81"/><path fill="#70853C" d="M49.67 67.65s1.36-3.22 2.73-2.52c1.44.74-.39 3.82-.39 3.82s-.77-.25-1.41-.6c-.44-.24-.93-.7-.93-.7M55.12 66c1.51.07.99 3.26.99 3.26s-.65.07-1.34.05c-.64-.02-1.39-.09-1.39-.09s.4-3.28 1.74-3.22M22.25 91.34s3.63-.95 4.36.67c.74 1.62-2.97 2.71-2.97 2.71s-.76-.96-1-1.62c-.51-1.36-.39-1.76-.39-1.76m2.61 4.59c-.04-.11 2.25-2.29 3.55-1.34s-.81 3.24-.81 3.24s-.88-.48-1.44-.88c-.68-.48-1.3-1.02-1.3-1.02"/><path fill="#2E2C33" d="M61.83 95.01c.14 1.64-.33 3.57-2.82 4.18c-2.26.56-4.55-.89-4.6-3.33c-.05-2.35 1.79-4.04 3.8-4.04s3.45 1.18 3.62 3.19m-34.84 12.6c-.09 1.17-1.1 1.49-1.83 1.41c-1.03-.12-1.71-1.13-1.42-2.09c.27-.93 1.21-1.36 2.01-1.11c.79.24 1.32.79 1.24 1.79m-8.14-2.27c.42.94-.38 1.87-.99 2.11c-.82.33-1.91-.04-2.18-1.01c-.26-.93.31-1.79 1.12-2s1.64-.02 2.05.9"/><path fill="#97A927" d="M59.54 77.32c-.68 2.26.08 3.65.41 4.38c.66 1.45 1.7 1.4 2.55.74c.84-.66-.38-3 .05-4.08c.61-1.55 2.77-1.6 2.58-3.47c-.14-1.4-2.01-1.7-3.33-.56c-.97.81-1.81 1.46-2.26 2.99m4.49-13.85c-.95 2.35-.35 4.24-.07 4.93c.46 1.13 2.57 1.48 2.78-.39c.14-1.26-.46-2.08.11-3.52c.55-1.41 1.69-1.06 2.75-2.01c.56-.51.63-2.39-1.44-2.36c-1.1.02-3.01.57-4.13 3.35m17.49 5.27c-.42 2.15-.07 3.52.35 4.26c.42.74 2.18 1.26 2.67-.35c.28-.92-.39-1.65.11-3.55c.25-.97.92-1.44 1.55-2.11c.99-1.06-.33-2.76-1.94-2.11c-1.12.45-2.22 1.24-2.74 3.86m-6.37 13.24c-.88 1.58-.72 3.36-.56 4.4c.32 2.15 2.46 2.11 2.71.88s-.04-2.75.39-3.77s1.76-1.26 2.6-1.69c1.16-.6.84-3.06-1.34-2.6c-2.18.46-3.1 1.52-3.8 2.78M85.5 52.73c-.53 1.79-.38 3.01-.25 3.66c.32 1.51 2.43 1.58 2.64.25c.21-1.34.14-2.08.39-2.92c.41-1.39.76-1.63 1.37-2.29c1.09-1.16-.25-2.99-1.9-2.01c-.95.57-1.85 1.95-2.25 3.31m-17.08-5.09c-.91 1.76-.69 3.66-.55 4.59c.15.92.62 1.78 1.64 1.7c1.02-.07 1.39-.85 1.28-1.7c-.06-.44-.29-1.89.18-2.89s1.41-1.6 2.15-1.89c1.83-.7.75-3.34-1.35-2.63c-1.53.53-2.62 1.41-3.35 2.82m6.77-13.7c-1.32 1.42-1.39 3.14-1.3 4.36c.18 2.43 2.43 2.04 2.71.67c.19-.92.39-2.18.67-2.82c.56-1.27 1.51-2.04.77-2.82c-.67-.69-1.97-.34-2.85.61m12.6 3.25c-.12 2.11.23 2.97.76 3.94c.76 1.39 2.71 1.04 2.82-.6c.08-1.19-.48-.91-.36-3.22c.08-1.46.87-2.86-.2-3.38c-1.06-.52-2.82-.24-3.02 3.26m-3.28-16.24c.6 1.02 1.37 1.9 1.65 3.31c.39 1.94 2.93 1.48 2.96-.28c.04-2.36-.7-3.41-1.55-4.47c-.82-1.02-2.15-1.06-2.71-.67s-.86 1.24-.35 2.11m-9.67.86c-.64.54-.87 1.62-.23 2.42c.84 1.04 1.31 1.89 1.26 2.76c-.08 1.39 1.17 1.9 1.97 1.32c1.07-.78 1.44-2.24.42-4.53c-.96-2.14-2.69-2.6-3.42-1.97M72.09 9.52c-.31.98.73 1.34 1.77 1.52c1.04.18 2.24.96 2.59 1.73c.49 1.08 2.03 1.67 2.36-.02c.29-1.45-1.56-2.95-2.7-3.61c-.93-.55-3.48-1.32-4.02.38m-2.29 4.29c-1.58-.89-4.32-.81-4.65.7c-.35 1.65 1.16 1.6 1.83 1.65c.88.07 1.72.32 2.25.95c.53.63.92 1.34 2.01 1.02c1.09-.31 1.31-2.78-1.44-4.32M64.38 8.6c.46-.58.32-2.29-2.78-2.43c-2.59-.12-3.26 1.12-2.85 1.9c.53 1.02 1.82.31 2.89.42c1.3.14 2.18.81 2.74.11m-6.51 3.06c-1.79-.21-3.78.87-3.38 2.43c.32 1.23 1.79-.1 2.96-.07c1.41.04 2.65.9 3.06.07c.6-1.2-.18-2.14-2.64-2.43m-6.36-2.11c-.03 1.2-1.15.85-2.53 1.37c-.84.32-1.63 1.83-2.42 1.17c-1.06-.89-.09-2.31 1.5-3.13c1.15-.61 3.49-.68 3.45.59m-4.85 5.32c-2.35 1.15-2.96 4.01-1.79 4.52c1.42.62 1.39-1.5 2.61-2.28c.97-.61 3.23-.29 3.21-1.67c-.02-1.38-2.61-1.26-4.03-.57m-4.38 7.73c.26-.91-1.55-2.15-3.7-.7s-2.3 3.57-.92 3.87c.99.21 1.06-1.29 1.9-1.94c1.2-.91 2.37.01 2.72-1.23"/></svg>