<svg xmlns="http://www.w3.org/2000/svg" width="1em" height="1em" viewBox="0 0 128 128"><path fill="#36b4e1" d="M15.57 49.21c-1.8 4.64-5.62 6.83-6.48 10.56-.99 4.32 3.1 8.73 7.18 8.59s13.08-5.04 16.19-6.76c3.57-1.97 11.92-5.87 11.92-5.87l23.28-5.96L83.7 65.4l-1.41 12.95s-.84 3.38-2.67 6.62-7.18 8.17-10.42 7.32c-3.24-.84-4.83-6.49-9.71-8.87-5.77-2.82-14.5-3.1-14.78-.7s4.22 3.24 5.35 4.5c1.13 1.27 2.67 6.48 4.36 8.17s5.35 4.08 5.35 4.08-3.66 4.65-3.94 8.31.42 7.32-.14 8.59-3.94 4.93-2.25 6.19 10.84-5.21 13.37-10.14 3.66-8.31 4.79-9.29 16.33-3.52 26.89-17.03 10.7-29.99 10.42-37.03-3.28-13.47-.75-17.41 5.27-4.75 6.71-5.21c1.92-.61 4.27-1.13 3.75-3.28-.39-1.65-2.16-6.1-12.11-8.45-7.02-1.65-14.22.28-14.22.28S69.16-.5 43.86 6.56c-24.21 6.76-31.82 22.81-31.53 31.82.16 5.2 4.22 8.3 3.24 10.83"/><path fill="#006da6" d="m61.88 49.49-9.57 5.35s.48 6.24 3.38 10.7c1.92 2.96 4.79 5.49 7.6 6.48 3.33 1.17 6.88 1.16 7.04.28.28-1.55-2.2-3.48-3.38-6.76-1.03-2.86-1.13-13.23-1.13-13.23z"/><path fill="#ddecf5" d="M42.88 56.39s12.81-13.94 27.45-11.97 18.21 12.62 17.32 24.35c-.54 7.16-7.89 17.51-8.02 16.19-.09-.94 2.44-16.28-2.35-21.49-5.52-6.01-12.15-7.79-18.49-8.07s-15.91.99-15.91.99"/><path fill="#2d2b30" d="M40.84 31.33c1.35 2.09.84 4.62-1.06 5.84s-4.99.54-6.34-1.55-.87-5.23 1.2-6.12c3.03-1.31 4.85-.26 6.2 1.83"/><path fill="#006da6" d="M9.23 63.08s3.43.1 5.14-.49c4.29-1.5 9.43-6.26 11.76-8.45 1.93-1.81 4.65-5 6.34-6.69s3.31-3.52 4.08-3.24 1.55 2.25 1.34 3.1c-.21.84-5.91 5.91-8.66 8.45-2.75 2.53-7.32 6.69-10.56 8.31-1.41.71-3.94 1.81-6.83 1.55-1.76-.16-2.68-1.91-2.61-2.54m51.46-33.01c.68 1.05 3.1-.27 4.5-1.06 1.76-.99 8.66-5.14 15.35-5.7s11.68 1.76 12.81 2.25 3.73 1.62 3.73 2.25-6.35 3.6-9.01 5.35c-2.67 1.76-7.04 3.87-9.92 4.5-2.35.52-6.9-.14-6.97 1.2s-.42 2.11 5.14 2.11 15.13-5.77 17.25-7.18 9.64-5.14 9.08-6.48c-.8-1.9-9.78-7.56-21.54-7.32-10.21.21-15.77 4.72-18.3 6.62-.62.46-2.9 2.26-2.12 3.46"/></svg>