<svg viewBox="0 0 128 128"><path fill="#36b4e1" d="M15.6 49.2C13.8 53.8 10 56 9 59.8c-1 4.3 3 8.7 7.2 8.6s13-5 16.2-6.8c3.5-2 11.9-5.9 11.9-5.9l23.3-6 16 15.7-1.4 13s-.8 3.3-2.7 6.6-7.2 8.1-10.4 7.3-4.8-6.5-9.7-8.9c-5.8-2.8-14.5-3-14.8-.7s4.2 3.3 5.4 4.5c1 1.3 2.6 6.5 4.3 8.2s5.4 4 5.4 4-3.7 4.7-4 8.4.5 7.3-.1 8.6-4 4.9-2.3 6.2 10.9-5.2 13.4-10.2 3.7-8.3 4.8-9.3 16.3-3.5 26.9-17 10.7-30 10.4-37-3.3-13.5-.7-17.4 5.2-4.8 6.7-5.2c1.9-.7 4.2-1.2 3.7-3.3-.4-1.7-2.1-6.1-12-8.5-7.1-1.6-14.3.3-14.3.3S69.2-.5 43.9 6.6C19.7 13.3 12 29.4 12.3 38.4c.2 5.2 4.2 8.3 3.3 10.8"/><path fill="#006da6" d="m61.9 49.5-9.6 5.3s.5 6.3 3.4 10.7c2 3 4.8 5.5 7.6 6.5 3.3 1.2 6.9 1.2 7 .3.3-1.5-2.2-3.5-3.3-6.8-1-2.8-1.2-13.2-1.2-13.2z"/><path fill="#ddecf5" d="M42.9 56.4s12.8-14 27.4-12S88.5 57 87.7 68.8c-.6 7.1-8 17.5-8 16.2-.2-1 2.4-16.3-2.4-21.5-5.5-6-12.2-7.8-18.5-8.1s-16 1-16 1"/><path fill="#2d2b30" d="M40.8 31.3c1.4 2.1.9 4.6-1 5.9s-5 .5-6.4-1.6-.8-5.2 1.2-6.1c3-1.3 4.9-.3 6.2 1.8"/><path fill="#006da6" d="M9.2 63s3.5.2 5.2-.4C18.7 61 23.8 56.3 26 54c2-1.8 4.7-5 6.4-6.7s3.3-3.5 4-3.2 1.6 2.3 1.4 3.1-6 6-8.7 8.5A59 59 0 0 1 18.7 64c-1.4.7-4 1.8-6.9 1.5-1.7-.1-2.6-1.9-2.6-2.5m51.5-33c.7 1 3-.3 4.5-1 1.7-1 8.6-5.2 15.3-5.8s11.7 1.8 12.8 2.3 3.8 1.6 3.8 2.2-6.4 3.6-9 5.4a39 39 0 0 1-10 4.5c-2.3.5-6.9-.2-7 1.2s-.3 2 5.2 2 15.1-5.7 17.3-7.1 9.6-5.1 9-6.5c-.8-1.9-9.7-7.5-21.5-7.3-10.2.2-15.8 4.7-18.3 6.6-.6.5-2.9 2.3-2.1 3.5"/></svg>