<svg viewBox="0 0 128 128"><linearGradient id="a" x1="47.5" x2="51" y1="11.5" y2="45.1" gradientUnits="userSpaceOnUse"><stop offset=".2" stop-color="#01ab46"/><stop offset=".3" stop-color="#089e42"/><stop offset=".7" stop-color="#1a7a37"/><stop offset="1" stop-color="#2f502a"/></linearGradient><path fill="url(#a)" d="M35.8 48.7s5.9-8.4 5.5-11.7-1.6-3.9-4.8-5-5.2-3-5.2-3-2.3-11-2-12.3c.2-1.6 6-12.5 20-12.5 13.3 0 18.8 11.2 18 19.8-.6 7.8-3.4 10-5.5 16.5-2 6.5-3 10.3-3 10.3l-12 2.5L36.6 51z"/><path fill="#ff5d10" d="M53.3 96.5s.7 7.7 0 8.6c-.9 1-12.5 3.6-13.8 4.6-1.5 1-.9 3.5 2.2 6.2s5.6 3.3 7.3 2.6c2-.9 5.7-3.6 7.3-4.8 1.2-1 3.2-3 3.4-4.7.3-1.7-.5-11.5-.5-11.5zm15.2 2.7s1 9 .5 10c-1.4 2.8-9.5 9.2-10 11.3-.4 1.6 3.8 5 8 5.1 5.7.1 9.2-2 9.6-3.3.6-1.8-1.5-12-1.8-12.5s.1-15.1.1-15.1z"/><path fill="#5e6367" d="M98.7 54.5s4.8-1 4.8-4.2-1.8-1.8-1.8-4.2 4.3-3 7-1c2.3 1.6 7.3 6.7 7 17.3-.3 14.4-7.9 25-19.8 31.5-9.6 5.3-24 4.7-24 4.7z"/><path fill="#b0b0b1" d="M85.7 55.7C88 55.4 98.3 52 102 53c4.4 1.1 8.9 4.2 8 14.1A30 30 0 0 1 95.7 90c-7 3.9-13.7 4-13.7 4s1.4-38 3.8-38.3"/><path fill="#ffbf18" d="M7.1 25c0 1.3 7.5 4.8 14.5 5.6s11.4-.3 11.4-.3-1.2-3-1.2-5.2 1.2-8-.6-9.3c-1.6-1.2-3 1.3-4 2s-3.7 2.7-8.1 2.8-8.2-.5-9.7.3S7 23.8 7 25.1"/><path fill="#2d2b33" d="M50.2 20.8c-.4 1.7-1.6 3-4 2.7-2.1-.3-3.2-2.6-2.5-4.8.5-1.7 1.8-2.9 4-2.5 2.4.4 2.9 2.9 2.5 4.6"/><path fill="#73df86" d="M51 25.6c2.4-.8 4.2-.8 4-2.5-.3-2-3.5-1.4-5.6-.3-2.2 1.2-5 3.1-3.7 4.7s3.8-1.5 5.2-2"/><path fill="#fff" d="M33.2 51.6s2.1 9.4 13 7.8a36 36 0 0 0 13.3-5l.1-6.2s-5.1 3-11.2 2.9c-6.4-.1-12-3.4-12-3.4z"/><path fill="#84574e" d="M26 69.1c-.7 20.5 14.7 30.2 39.2 30.6 27 .5 37.6-15.4 39.2-25.4 1.7-10.5-5-12.7-5-12.7s6.7-2.8 3.7-9.5c-1.4-.3-8.4 1.6-21.6.2-13-1.3-22 1-22 1s-3.3 3.5-12.7 3c-11.3-.5-13.4-5-13.4-5s-6.9 5-7.4 17.8"/><path fill="#b79277" d="M52 73.1c2.3 8 10.5 12.7 22.6 12.2 11-.6 19-8.2 20.2-15 1.4-7.3-1.5-10.1-1.5-10.1s6.3-2.3 6.3-6.8c-3.6-2.1-15-3.6-27.5-4.1C64 49 59.4 52 59.4 52S47.8 58.5 52 73.1"/></svg>