<svg viewBox="0 0 128 128"><path fill="#ffb300" d="M127 80.9 108 64v-.3l19-16.6-24.8-5-.1-.2 8-24-24 8H86L80.9 1 64 20 47 1l-5 24.9-24.1-8 8 24-.1.2L1 47l19 17L1 81l24.9 5v.1l-8 24.1 24-8h.1l5.1 24.9L64 108l17 19 5-24.9h.1l24.1 8-8-24V86z"/><radialGradient id="a" cx="64" cy="64" r="75.5" gradientUnits="userSpaceOnUse"><stop offset=".6" stop-color="#ffb604"/><stop offset=".7" stop-color="#fec61b"/><stop offset=".8" stop-color="#fdd835"/></radialGradient><path fill="url(#a)" d="M127 80.9 108 64v-.3l19-16.6-24.8-5-.1-.2 8-24-24 8H86L80.9 1 64 20 47 1l-5 24.9-24.1-8 8 24-.1.2L1 47l19 17L1 81l24.9 5v.1l-8 24.1 24-8h.1l5.1 24.9L64 108l17 19 5-24.9h.1l24.1 8-8-24V86z"/><circle cx="64" cy="64" r="42.5" fill="#ffb300"/><radialGradient id="b" cx="66.1" cy="100.9" r="66.6" gradientTransform="matrix(1 0 0 1.0876 0 -8.844)" gradientUnits="userSpaceOnUse"><stop offset=".7" stop-color="#ffb604"/><stop offset=".8" stop-color="#fec61b"/><stop offset="1" stop-color="#fdd835"/></radialGradient><circle cx="64" cy="64" r="42.5" fill="url(#b)"/><g fill="#5d4037"><ellipse cx="46.8" cy="54.3" rx="5.3" ry="6.2"/><ellipse cx="81.2" cy="54.3" rx="5.3" ry="6.2"/></g><path fill="#5d4037" d="M75.8 75.7c-1.7 1-5.3 3.7-11.8 3.7s-10.4-2.6-12-3.9q-1.2-1-2.3-.5c-1.1.5-.9 1.5-.4 2.2 1.9 2.9 6.7 7.2 14.7 7.3 8-.1 12.8-4.4 14.6-7.3q.7-1 0-2-1-.7-2.8.5"/><path fill="#de7321" d="M58.9 69.5c-1.4-1.4-.1-2.2 1.4-1.7 2 .5 5 .3 5.8-1.3 1.5-3-.4-4.8-2.7-10-2.5-5.5.6-11.5 4.2-11.8 2.8-.3 1.9 1 1 1.7-1.8 1.1-3.6 4.9-.8 9.1 4.8 7.2 4.8 10.7 2.4 14-1.7 2.3-7.4 4-11.3 0"/><radialGradient id="c" cx="-1858.2" cy="139.6" r="15.5" gradientTransform="matrix(-.7447 -.3192 -.3117 .736 -1297.374 -633.673)" gradientUnits="userSpaceOnUse"><stop offset="0" stop-color="#ef6c00"/><stop offset="1" stop-color="#ef6c00" stop-opacity="0"/></radialGradient><path fill="url(#c)" d="M50.4 71.9c-1.6 4-7 5.4-12.1 3.3-5.1-2-7.9-7-6.3-10.9S39 59 44.2 61c5 2 7.8 7 6.2 10.9" opacity=".7"/><radialGradient id="d" cx="200.2" cy="-2.3" r="15.5" gradientTransform="matrix(.7447 -.3192 .3117 .736 -63.29 127.89)" gradientUnits="userSpaceOnUse"><stop offset="0" stop-color="#ef6c00"/><stop offset="1" stop-color="#ef6c00" stop-opacity="0"/></radialGradient><path fill="url(#d)" d="M77.6 71.9c1.7 4 7 5.4 12.1 3.3 5.1-2 7.9-7 6.3-10.9S89 59 83.8 61c-5 2-7.8 7-6.2 10.9" opacity=".7"/></svg>