<svg viewBox="0 0 128 128"><path fill="#b5c2c8" d="M61.3 53s1.3-.3 3.1-.3 3.6.5 3.6.5 4-5.8 5-14 .9-17.4 3.8-24.5c3-7.2 7.6-9.7 12-9S103 14 100.2 34.4c-2 14.5-12.6 21.4-11.3 31.9 1.1 9 6.5 15.8 8.7 20.4s6.7 12.8-.9 23.6c-7.8 11-24.6 13.3-32.3 13.2s-20.5-.9-30.9-9.8c-4.7-4-7.6-9.5-7.3-17.7s6.9-16.5 9.1-20.6 5-7.1 4.9-11.3-6-15.7-7.5-23.5-7.3-32.7 13-36.1c11.2-2 8.7 18.2 11 31S61.3 53 61.3 53"/><path fill="#feaca9" d="M78.7 54.5C83 57.4 86 50.8 87 48c1.6-4 5.2-11.3 5.4-20 .1-7.1-.3-13.2-5.5-13-5.1.1-5 8.5-4.8 11.3.1 4.3-1 10.6-2.1 15-1.6 6.3-5.8 10.2-1.4 13M45 14.2c-4.5-.6-7.1 6.1-6.6 13s2.8 17.3 5.4 22.1 3.8 6 7 5 .9-6.3.6-8.2-2.6-14-2.6-19.5.8-11.8-3.8-12.4"/><path fill="#fff" d="M65 60.2c4.5 0 2.3 8.8 3.4 13.7s5.4 9.2 8.7 12.7c4.1 4.4 9 13.6 8.2 19.4-1 5.7-4 14.2-20.8 14-14.6-.2-21-4.6-21.2-15.1-.2-9.8 6.4-16.7 8.8-18.7s5.9-5.4 7.4-9.4 2-8 2.1-10.3c.1-2.1-.3-6.3 3.4-6.3"/><path fill="#2f2f2d" d="M52.5 75.7c0 3.7-.8 6.7-4.4 6.7-2.6 0-3.9-2.6-3.9-6.4s1.4-6.6 4.2-6.4q4.1.4 4 6m31.7.9c0 3.7-.7 6.5-4.3 6.5-2.6 0-3.8-3.1-3.8-6.9s.8-6 3.6-6 4.5 2.6 4.5 6.4"/><path fill="#ffd792" d="m65 107.2-5 2.1s0 3.4 2.2 3.4c1.7 0 2.3-1 2.3-1s.9 1 2.8 1c2.2 0 2-2.9 2-2.9z"/><path fill="#fee2b3" d="m69.3 102.5-10 1.1s.5 5.8.7 6.3.6 1 2.1 1.2 2.4-1 2.4-1 .6 1 2.3 1.2c1 .1 2.4-.3 2.6-1q.2-1.6.1-4z"/><path fill="#2c2c2c" d="M64.3 92.9s4.7-6 6.3-3.9c2 2.4-4.9 7.1-4.9 7.1s.3 3.7.6 4c2.7 2.4 5-.3 5.3-.6s2-1.5 3-.2-1 6-5.2 6.2-5-2-5-2-.6 2.6-5.3 2.4-5.3-5.3-4.3-6c1.1-.9 1.5-.8 3.6 1 1.4 1.2 3.9.2 4-1V96s-7.6-4.7-5.5-7.1c2-2.5 7.4 3.8 7.4 3.8"/><path fill="#838584" d="M36.4 95.5h-.6s-3.9-1.6-8.3-1.5a32 32 0 0 0-7.2.8 1.5 1.5 0 0 1-.8-2.9s2.7-.8 8-1c5 0 9.3 1.7 9.4 1.7q1.3.7.8 2-.4 1-1.4 1m-16.1 10.1q-.8 0-1.2-.6-.7-1 .2-2a23 23 0 0 1 7.9-4c4.2-1 9.1-.7 9.3-.7q1.4.2 1.4 1.6c0 1.4-.8 1.5-1.6 1.4 0 0-4.6-.3-8.4.7a20 20 0 0 0-6.7 3.3q-.4.3-1 .3m4.6 8q-.6 0-1-.4a1.5 1.5 0 0 1 0-2.1c0-.1 2.5-2.6 4.6-4.2s6.7-3.4 6.9-3.4q1.3-.4 1.9.8c.6 1.2-.1 1.7-.9 2-1.2.4-4.6 1.8-6.1 3-2 1.5-4.4 3.9-4.4 3.9q-.5.4-1 .4m66-17.7a1.5 1.5 0 0 1-.5-3c.2 0 4.4-1.2 8.5-1.3 4.4-.2 8.1 1 8.3 1a1.5 1.5 0 0 1-1 2.9s-3.3-1-7.2-1c-3.7.2-7.7 1.3-7.8 1.3zm15.3 8.4q-.4 0-1-.4s-1.9-1.5-5.8-2.5c-3.8-.9-7.6-.5-7.7-.5q-1.3-.1-1.6-1.4.1-1.3 1.4-1.6c.1 0 4.3-.4 8.6.6 4.7 1.1 7 3 7 3.1a1.5 1.5 0 0 1-.9 2.7m-2.6 7.3q-.6 0-1-.4s-2.8-2.3-5.3-3.5c-2.4-1.2-6-1.3-6-1.3a1.5 1.5 0 0 1 0-3c.2 0 4.2.1 7.3 1.5 2.9 1.4 5.8 4 6 4q.9 1.1.1 2.2-.5.5-1.1.5"/></svg>