<svg xmlns="http://www.w3.org/2000/svg" width="1em" height="1em" viewBox="0 0 128 128"><path fill="#ffb300" d="M126.99 80.89 108.1 64.13l.06-.3L127 47.14l-24.83-5.09-.07-.12 8-24.05-24.02 8.02-.12-.08L80.86 1 64.01 20.03h-.02L47.11 1.01l-5.08 24.88-.06.03-24.07-8.04 8 24.05c-.04.04-.07.09-.11.13L1.01 47.11l19 16.87-.01.05L1 80.86l24.89 5.11.02.04-8.02 24.11 24.05-8.03.1.08 5.1 24.83 16.84-19.01h.05l16.87 19 5.07-24.86.07-.04 24.09 8.02-8.02-24.03.07-.12z"/><radialGradient id="a" cx="64" cy="64" r="75.481" gradientUnits="userSpaceOnUse"><stop offset=".556" stop-color="#ffb604"/><stop offset=".691" stop-color="#fec61b"/><stop offset=".822" stop-color="#fdd835"/></radialGradient><path fill="url(#a)" d="M126.99 80.89 108.1 64.13l.06-.3L127 47.14l-24.83-5.09-.07-.12 8-24.05-24.02 8.02-.12-.08L80.86 1 64.01 20.03h-.02L47.11 1.01l-5.08 24.88-.06.03-24.07-8.04 8 24.05c-.04.04-.07.09-.11.13L1.01 47.11l19 16.87-.01.05L1 80.86l24.89 5.11.02.04-8.02 24.11 24.05-8.03.1.08 5.1 24.83 16.84-19.01h.05l16.87 19 5.07-24.86.07-.04 24.09 8.02-8.02-24.03.07-.12z"/><circle cx="64" cy="64" r="42.46" fill="#ffb300"/><radialGradient id="b" cx="66.147" cy="100.924" r="66.57" gradientTransform="matrix(1 0 0 1.0876 0 -8.844)" gradientUnits="userSpaceOnUse"><stop offset=".694" stop-color="#ffb604"/><stop offset=".849" stop-color="#fec61b"/><stop offset="1" stop-color="#fdd835"/></radialGradient><circle cx="64" cy="64" r="42.46" fill="url(#b)"/><g fill="#5d4037"><ellipse cx="46.8" cy="54.29" rx="5.25" ry="6.17"/><ellipse cx="81.2" cy="54.29" rx="5.25" ry="6.17"/></g><path fill="#5d4037" d="M75.81 75.67c-1.7 1.11-5.31 3.72-11.82 3.72S53.59 76.85 52 75.54c-.73-.61-1.66-1.1-2.34-.59s-.81 1.55-.33 2.29c1.84 2.85 6.71 7.13 14.65 7.27 7.94-.14 12.81-4.42 14.65-7.27.4-.62.44-1.51-.03-1.99-.61-.64-1.75-.26-2.79.42"/><path fill="#de7321" d="M58.89 69.52c-1.39-1.42-.11-2.17 1.42-1.74 1.93.54 5.01.28 5.81-1.3 1.52-3.04-.38-4.76-2.74-10.02-2.46-5.5.63-11.49 4.2-11.8 2.86-.24 1.91 1.12 1.01 1.7-1.75 1.14-3.6 4.93-.77 9.17 4.82 7.21 4.82 10.62 2.33 14.06-1.61 2.22-7.35 3.94-11.26-.07"/><radialGradient id="c" cx="-1858.159" cy="139.608" r="15.525" gradientTransform="matrix(-.7447 -.3192 -.3117 .736 -1297.374 -633.673)" gradientUnits="userSpaceOnUse"><stop offset="0" stop-color="#ef6c00"/><stop offset="1" stop-color="#ef6c00" stop-opacity="0"/></radialGradient><path fill="url(#c)" d="M50.38 71.89c-1.63 3.93-7.05 5.42-12.12 3.33-5.06-2.09-7.85-6.98-6.22-10.91s7.05-5.42 12.12-3.33c5.06 2.09 7.85 6.98 6.22 10.91" opacity=".65"/><radialGradient id="d" cx="200.244" cy="-2.317" r="15.525" gradientTransform="matrix(.7447 -.3192 .3117 .736 -63.29 127.89)" gradientUnits="userSpaceOnUse"><stop offset="0" stop-color="#ef6c00"/><stop offset="1" stop-color="#ef6c00" stop-opacity="0"/></radialGradient><path fill="url(#d)" d="M77.62 71.89c1.63 3.93 7.05 5.42 12.12 3.33 5.06-2.09 7.85-6.98 6.22-10.91s-7.05-5.42-12.12-3.33c-5.06 2.09-7.85 6.98-6.22 10.91" opacity=".65"/></svg>