<svg viewBox="0 0 128 128"><path fill="#ff6011" d="m45.8 105 32.6 4.5L118.2 85l-7.5-17.9c-2.5-6-6.6-14.3-6.6-14.3s2.2-6.1 3.3-13.4c1.1-8.5 0-10.7 0-10.7l-21.1-9.6s-3.2 2.3-6 7.5L76.5 34s-7.2-.6-10.4-.6-8.6.7-8.6.7-5-9.2-7.7-12.5-6.9-6.4-6.9-6.4-18.8 9.4-19.7 16.2A42 42 0 0 0 26 53s-1.7 2.5-4 8.3-4.8 12.8-6.6 15.8-6.7 9.7-6.7 9.7z"/><path fill="#575a5b" d="M31.7 7.7c-2 .6-4.4 5.2-6.6 12.8-1.2 4-2 11.4-2 11.4s6.7-5.2 12.6-7.4S49.1 21 49.1 21s-3.4-4-7.5-7.5c-3.5-3.1-8.2-6.1-10-5.7m68.8.8c-1.5-.4-6.5 2.2-10 5.5s-7 8-7 8 7.1.3 13.6 3.6c6.5 3.2 10.9 6.2 10.9 6.2s-.2-6.8-1.6-12.6c-1.5-6-3.5-10-6-10.7"/><path fill="#ff9411" d="M33.7 16.6c-.6.3-4 7-3.8 17.1a40 40 0 0 0 2 13.5c.2 0 3.9-4.3 7.7-7s8.9-4.2 9-4.5c.3-.7-2.9-7.2-7-12.8s-7.2-6.7-7.9-6.3m52.4 19.9c-.2-1 2.4-9.1 5.2-13.5s6.5-8.6 7.6-8.4 5 9.7 3.7 18.3-3 13.6-3.5 13.7c-.2 0-3-3.3-6.4-6-2.9-2.1-6.5-3.8-6.6-4.1"/><path fill="#dfdfdf" d="M4.7 87.4c-.1-.7 3.9-1.4 6.6-2.7s8.4-3.9 17-2.8a38 38 0 0 1 19.1 7.8c6.2 4.1 9 14 9 14l14.1 3s5-11 8.6-14.5a38 38 0 0 1 21.7-10.3c10.2-1 14.3 1.3 17.8 2.6 2.4 1 4.5 1.4 4.8 2.2.2.7-4.2 3.7-4.2 3.7s4.2.7 4.3 1.2c.1.9-3.1 2.8-5.4 4.2s-18 9.4-23.8 12.4a95 95 0 0 1-17.4 6.1c-1.9 0-23.8-1-25.3-1.2S35.3 108 27.7 105c-8.4-3.2-23.5-10.8-23.1-12.2.1-.8 5.3-1.4 5.3-1.4s-5-3-5.2-3.9"/><path fill="#fee9c9" d="M64.1 119.7c17 .8 17.7-13.4 15.9-19.5S77.5 94 77.5 94s-3.7 4.2-5.5 9.4c-.6 1.6-15.7.2-15.7.2s-.7-3-2.1-5.8c-1-1.8-2.4-3.7-2.4-3.7s-2.5 3.5-3 8-2 16.7 15.3 17.5"/><path fill="#4a4a4c" d="M52.6 110.5c-.8.8 1.3 3 2.2 4s3.1 2.3 4.4 2.4c1.6.2 5.3-3 5.3-3s3.8 3.5 6 3.4c2 0 4.6-3 5.5-4 .6-.7 1.7-1.8.8-2.9-.8-.9-2 0-2.9.9l-3.7 3.2c-.4 0-5.4-4.6-5.4-4.6s-4.9 3.7-5.8 3.7c-.6 0-2.2-1.5-3.6-2.8-.9-.8-1.8-1.5-2.8-.3"/><path fill="#2d2a25" d="M64.7 99.8c-3.7 0-9.6.2-9.3 4.2s2.3 7.7 9.6 7.6 9-3.8 9.2-7.6c0-2.3-.8-4.3-9.5-4.2"/><path fill="#fff" d="M45.9 97c-.3 1-2.1 1.2-3.9.3s-5-2.8-7.7-4C32 92 29.4 91.4 29.6 90s3.2-.4 5.7.4 7.5 2.9 8.6 3.5 2.5 1.6 2 3m-9.7 1.2c-2.8-1-7.6-2.7-7.9-.9-.2 1.4 4 2.4 6.8 4 2.4 1.3 6.6 3.6 7.4 1 .7-2.2-3.6-3.3-6.3-4.1M84 97c.8 1.8 3.4 0 6-1.3 3.1-1.5 7.2-3.3 8.4-3.7s2.1-.8 2-1.6c-.3-.7-2.2-.8-3.6-.5-2 .4-5.4 1.1-8.3 2.6-1.8.9-5.6 2.1-4.5 4.5m3.1 5.5c.7 2.1 5.6-.5 8-1.4s7.1-2.6 6.7-3.8c-.5-1.5-6.5 0-8.2.4-2.4.6-7.3 2-6.5 4.8"/><path fill="#2d2a25" d="M85.7 73.7c-1 3-3.7 6.2-6.9 5.6s-4.3-3.9-3.7-8.5c.6-4.3 4-6 7.2-5.3s4.7 4.1 3.4 8.2m-32.1-2.5c.6 3.1.3 6.7-2.8 7.7s-6.9-.4-8-4.8c-1.4-5 .6-7.2 3.7-8.2s6.3 1.1 7.1 5.4"/><path fill="#dfdfdf" d="M48 67.5c.9.9.4 2.4-.5 3.2-.5.5-2 1.5-3.1.1-.8-1-.2-2.2.7-3q1.5-1.4 3-.3m32 .2c1 .7.6 2.5-.1 3.4-.5.5-2 2.2-3.1.8-.7-.7-.6-2.3.2-3.3.7-1 2-1.5 3-.9"/></svg>