<svg xmlns="http://www.w3.org/2000/svg" width="1em" height="1em" viewBox="0 0 128 128"><path fill="#FF6011" d="m45.83 104.96l32.52 4.5l39.84-24.35s-4.93-11.83-7.46-17.88s-6.62-14.36-6.62-14.36s2.23-6.07 3.24-13.37c1.17-8.49.14-10.65.14-10.65l-21.21-9.67s-3.14 2.3-5.96 7.51s-3.8 7.32-3.8 7.32s-7.18-.56-10.42-.56s-8.59.7-8.59.7s-5.07-9.29-7.74-12.53s-6.85-6.38-6.85-6.38s-18.86 9.39-19.71 16.14s-.05 11.5.52 14.45c.56 2.96 2.25 7.18 2.25 7.18s-1.69 2.53-3.94 8.31s-4.79 12.81-6.62 15.77c-1.83 2.96-6.76 9.71-6.76 9.71z"/><path fill="#575A5B" d="M31.66 7.73c-2.02.56-4.41 5.16-6.57 12.76c-1.14 4.01-1.97 11.36-1.97 11.36s6.66-5.16 12.58-7.32s13.42-3.66 13.42-3.66s-3.45-3.94-7.51-7.51c-3.51-3.09-8.21-6.11-9.95-5.63m68.7.75c-1.46-.39-6.49 2.18-10.04 5.54S83.37 22 83.37 22s7.13.28 13.61 3.57c6.48 3.28 10.89 6.19 10.89 6.19s-.14-6.74-1.6-12.58c-1.5-6.01-3.47-10.04-5.91-10.7"/><path fill="#FF9411" d="M33.73 16.55c-.66.38-4.1 7.11-3.85 17.18c.19 7.51 1.69 13.51 2.06 13.51c.19 0 3.84-4.33 7.7-7.04c3.86-2.71 8.82-4.19 8.96-4.52c.28-.66-2.86-7.21-7.08-12.74s-7.14-6.76-7.79-6.39m52.37 19.9c-.21-.96 2.44-9.1 5.16-13.42s6.57-8.63 7.6-8.45c1.03.19 5.07 9.67 3.75 18.3c-1.31 8.63-3 13.61-3.47 13.7c-.26.05-3.04-3.25-6.48-5.91c-2.86-2.22-6.48-3.84-6.56-4.22"/><path fill="#DFDFDF" d="M4.73 87.41c-.15-.74 3.85-1.41 6.57-2.72c2.72-1.31 8.35-3.85 16.99-2.82c8.63 1.03 12.97 3.63 19.15 7.79c6.19 4.18 8.92 13.98 8.92 13.98l14.17 3s4.93-11.03 8.54-14.45c3.03-2.88 11.2-9.36 21.68-10.32c10.23-.94 14.36 1.31 17.83 2.63c2.4.91 4.5 1.41 4.79 2.16c.28.75-4.13 3.75-4.13 3.75s4.13.66 4.22 1.22c.14.84-3.1 2.72-5.35 4.13s-18 9.47-23.84 12.48c-3.1 1.6-15.49 6.19-17.36 6.1c-1.88-.09-23.84-1.13-25.34-1.22c-1.5-.09-16.24-5.26-23.84-8.17c-8.43-3.22-23.54-10.88-23.18-12.29c.19-.75 5.35-1.31 5.35-1.31s-4.99-3-5.17-3.94"/><path fill="#FEE9C9" d="M64.13 119.7c16.97.83 17.64-13.42 15.86-19.52c-1.78-6.1-2.53-6.1-2.53-6.1s-3.61 4.18-5.44 9.39c-.57 1.63-15.67.19-15.67.19s-.75-3-2.16-5.73c-.93-1.8-2.35-3.71-2.35-3.71s-2.53 3.43-3 8.02c-.47 4.6-1.97 16.61 15.29 17.46"/><path fill="#4A4A4C" d="M52.59 110.45c-.75.86 1.27 3.03 2.25 4.01c.99.99 3.1 2.35 4.36 2.46c1.55.14 5.28-3.1 5.28-3.1s3.82 3.54 5.94 3.47c2.11-.07 4.69-3.05 5.61-4.04c.56-.61 1.67-1.75.77-2.82c-.77-.92-1.94-.04-2.89.84c-1.96 1.84-3.4 3.19-3.66 3.24c-.42.07-5.49-4.58-5.49-4.58s-4.86 3.66-5.77 3.66c-.55 0-2.24-1.53-3.59-2.82c-.87-.8-1.82-1.45-2.81-.32"/><path fill="#2D2A25" d="M64.7 99.82c-3.66.03-9.64.21-9.29 4.22c.35 4.01 2.32 7.67 9.57 7.6s9.08-3.87 9.22-7.67c.08-2.25-.77-4.22-9.5-4.15"/><path fill="#FFF" d="M45.9 96.94c-.33.99-2.11 1.27-3.87.35c-1.76-.92-5-2.82-7.74-4.08c-2.3-1.06-4.86-1.69-4.65-3.17c.21-1.48 3.17-.42 5.63.35s7.53 2.89 8.59 3.52c1.06.63 2.54 1.55 2.04 3.03m-9.71 1.12c-2.76-.87-7.62-2.61-7.88-.84c-.21 1.41 4.01 2.4 6.76 3.94c2.39 1.34 6.65 3.64 7.46 1.06c.7-2.26-3.67-3.31-6.34-4.16m47.79-.91c.78 1.76 3.4-.01 6.05-1.34c3.1-1.55 7.18-3.31 8.38-3.66c1.2-.35 2.11-.84 1.9-1.62c-.21-.77-2.1-.86-3.52-.56c-2.04.42-5.35 1.13-8.24 2.6c-1.81.93-5.62 2.18-4.57 4.58m3.17 5.49c.62 2.07 5.56-.49 7.95-1.48s7.11-2.53 6.69-3.8c-.48-1.43-6.48-.02-8.17.42c-2.39.63-7.31 2.04-6.47 4.86"/><path fill="#2D2A25" d="M85.67 73.71c-.99 2.96-3.71 6.22-6.83 5.56s-4.36-3.87-3.73-8.45c.59-4.27 4.06-5.94 7.18-5.28s4.75 4.07 3.38 8.17M53.6 71.25c.6 3.06.27 6.66-2.84 7.67c-3.11 1-6.82-.39-8.03-4.85c-1.34-4.94.65-7.19 3.76-8.19c3.12-1.01 6.27 1.13 7.11 5.37"/><path fill="#DFDFDF" d="M48.02 67.51c.86.86.35 2.39-.49 3.17c-.51.47-2.11 1.55-3.17.14c-.78-1.04-.21-2.18.7-3.1c.91-.91 2.18-.98 2.96-.21m32.02.21c.98.71.64 2.46-.07 3.36c-.43.55-1.93 2.17-3.1.86c-.63-.71-.56-2.33.19-3.38c.76-1.04 2.09-1.47 2.98-.84"/></svg>