<svg viewBox="0 0 128 128"><path fill="#b7d019" d="M14.2 48.4c-.5 4.5-10 10.8-9.6 26.9s13 44 57.7 44.7c44.6.7 61-27.3 61.1-46.6.1-17.8-8.6-21.4-9.6-26-.8-4 6.8-22-10.2-28.4C83.5 11.3 76 30.6 75.4 31s-6 .8-10.8.8-10 0-10.6-.6-12.8-20-30.5-11.8c-16.7 7.6-9 26-9.3 29"/><path fill="#2f2f2f" d="M103 42.4c0 5.3-3 9.7-8 9.5-4.3-.1-7.8-4.3-7.8-9.5s3.5-9.5 7.9-9.6c5-.1 8 4.3 8 9.6m-61.2-.8c.3 6.8-3 10.1-8 10-4.2 0-7.6-3.1-7.7-9.6 0-5.4 2-9.5 7.7-9.7 4.2-.1 7.8 4 8 9.3m11.4 21.9c-.8 1.8-3 2.4-4.6 1.5s-1.9-3.2-1-5 2.7-2 4-1.4c1.6.6 2.8 2.3 1.6 4.9m27-3c.8 2-.1 4-2 4.6s-3.6-.6-4.2-2.5.2-3.6 1.9-4.3c1.1-.5 3.2-.5 4.3 2.3"/><path fill="#ff6011" d="m27.4 78.3.4 2.7s10.5 11 35.9 11.4c26 .4 37.2-12.3 37.2-12.3l-11.6-5.6s-11 4.7-25.3 4.4-28.4-4.4-28.4-4.4z"/><path fill="#865b51" d="M104.6 72c-3.3-4.9-7.2-.5-13.4 1.8l-5.7 2s5 1 7.3 2.2 6.2 4 6.2 4 8.4-6 5.6-10m-79.8-.6c-4 2.6 3 9.6 3 9.6s2.2-2 5-3.2 7.9-2 7.9-2-5.7-1.3-9-3.2c-1.6-1-4.6-2.7-6.9-1.2"/></svg>