<svg xmlns="http://www.w3.org/2000/svg" width="1em" height="1em" viewBox="0 0 128 128"><path fill="#b7d019" d="M14.16 48.37c-.43 4.5-10 10.84-9.57 26.89s13.09 44.06 57.72 44.77c44.63.7 60.96-27.31 61.1-46.6.13-17.88-8.58-21.43-9.57-26.04-.84-3.94 6.76-21.96-10.28-28.44-20.11-7.65-27.6 11.68-28.16 12.1s-6.05.7-10.84.7-10 0-10.56-.56S41.19 11.2 23.45 19.36c-16.64 7.67-9.01 26.05-9.29 29.01"/><path fill="#2f2f2f" d="M103.08 42.36c0 5.29-3 9.76-8.02 9.57-4.33-.16-7.84-4.29-7.84-9.57s3.51-9.49 7.84-9.57c5.11-.1 8.02 4.28 8.02 9.57m-61.19-.75c.28 6.76-3 10.14-8.02 10.04-4.22-.08-7.56-3.19-7.65-9.67-.08-5.34 1.97-9.48 7.65-9.67 4.22-.13 7.8 3.97 8.02 9.3m11.4 21.89c-.81 1.79-3.06 2.35-4.57 1.48-1.5-.87-1.91-3.23-.93-4.93s2.65-1.96 3.87-1.48c1.63.64 2.83 2.28 1.63 4.93m27.04-2.95c.77 1.86-.16 4.04-1.94 4.57s-3.69-.61-4.26-2.54.14-3.61 1.87-4.3c1.13-.44 3.19-.48 4.33 2.27"/><path fill="#ff6011" d="m27.44 78.31.38 2.72s10.51 10.98 35.85 11.36c26 .39 37.26-12.29 37.26-12.29l-11.64-5.63s-11.07 4.69-25.34 4.41-28.34-4.41-28.34-4.41z"/><path fill="#865b51" d="M104.59 71.92c-3.28-4.79-7.23-.43-13.42 1.88-3.43 1.28-5.7 2.02-5.7 2.02s5.09.99 7.34 2.21 6.17 3.89 6.17 3.89 8.37-5.96 5.61-10m-79.78-.56c-3.94 2.63 3.02 9.68 3.02 9.68s2.15-1.98 5.06-3.2 7.78-2.1 7.78-2.1-5.63-1.27-8.9-3.16c-1.69-.96-4.71-2.72-6.96-1.22"/></svg>