<svg xmlns="http://www.w3.org/2000/svg" width="1em" height="1em" viewBox="0 0 128 128"><path fill="#FD774D" d="M59.33 103.7c-.45 2.26-2.28 11.09-3.3 12.27c-.79.92-3.18 2.16-5.4 2.59c-1.73.33-3.53.23-4.64.81c-1.41.74-2.57 2.3-2.42 3.6c.12 1.06 2.49 1.17 4.63 1.27c4.25.18 11.87-.21 13.68-.67c1.46-.37 2.62-.62 2.71-2.34c.09-1.63-1.23-1.92-1.23-3.42c0-1.51 3.04-12.6 3.04-12.6zm22.61-1.67s2.84 5.24 3.92 7.92c.35.87.67 2.02.63 3.28c-.05 1.45-.88 2.83-2.77 3.92c-1.89 1.09-3.85 1.68-4.78 1.81c-1.18.17-1.74 1.01-1.68 1.89c.08 1.22 1.18 1.12 2.23 1.16c1.58.05 7.68.06 9.4-.58c.67-.25 3.36-1.86 5.14-3.91c1.58-1.81 2.31-4.05 2.26-4.76c-.17-2.23-2.1-3.04-2.94-3.49c-1.81-.97-5.82-10.06-5.82-10.06z"/><path fill="#F1F6F7" d="M32.41 6.2s7.01-2.35 12.95 0s12.44 8.69 12.82 16.82c.38 8.13-2.67 12.71-2.41 18.17c.25 5.46.89 9.15 2.03 10.29s4.07 3.69 4.07 3.69s9.95-.61 10.96-.4c1 .21 4.33 1.9 4.33 1.9s9.4 4.86 10.56 5.54c1.16.69 8.61 4.38 10.03 4.49s8.77.84 11.2.32c2.43-.53-7.99 14.47-7.99 14.47s-7.34 16.07-24.81 18.17c-17.47 2.1-19.8-.58-21.78-2.21c-1.98-1.63-20.33-19.25-20.69-31.53s9.06-21.58 10.61-28.13s1.93-11.41-2.34-13.4s-6.61-1.58-7.64-1.93c-1.03-.34-4.4-3.3-4.4-3.3z"/><path fill="#B4B5B7" d="M30.34 6.81s7.34-5.87 18.77-.25c5.54 2.72 9.3 8.91 9.78 17.72c.38 6.86-2.12 10.73-1.98 19.27c.12 7.74 5.42 10.31 5.42 10.31s2.93-.8 7.86-.13c2.81.38 7.39 2.84 7.23 3.08c-.1.14-5.09-1.37-7.59-1.45c-5.06-.16-7.7.1-12.29 1.95c-2.04.82-3.48 1.83-3.7 1.65c-.27-.22.33-1.1.95-1.67c1.4-1.29 3.43-2.09 4.04-2.39c.17-.08-1.2-1.19-2.3-2.96c-1.02-1.64-2.26-4.11-2.18-8.89c.15-8.76 3.57-14.02 1.82-22.48c-1.53-7.38-6.63-13.66-14.99-14.39c-6.82-.61-10.42 2.72-10.42 2.72z"/><path fill="#302F2F" d="M39.9 9.85c-1.17-.06-2.23.91-2.3 2.87c-.06 1.8 1.04 2.74 2.17 2.74c1.29 0 2.21-1.26 2.24-2.71c.03-1.79-.76-2.82-2.11-2.9"/><path fill="#FFF" d="M46.57 15.47c.51.75-.22 1.86-2.55 3.25c-2.52 1.5-3.72 1.64-4.03 1.1c-1.07-1.83.53-3.47 2.17-4.41c1.76-1.01 3.69-1.01 4.41.06m5.6 49.21c-.99 2.96-1.09 7.07-.05 8.81c1.04 1.73 2.99 1.96 3.86.84c1.22-1.59 2.75-5.57 3.63-6.53c.88-.95 3.44-2.75 9.2-4.31c5.76-1.57 9.73-2.29 10.27-2.44c.53-.15 1.11-.84.15-1.68c-.95-.84-5.92-2.26-8.1-2.41c-2.68-.19-5.53-.26-8.39.38c-2.63.59-9.32 3.59-10.57 7.34"/><path fill="#B4B5B7" d="M86.98 61.81c-.09.16.84.96 2.7 2.12c1.82 1.14 7.55 4.39 10.15 4.44c1.99.04 5.04.08 5.57.2c.67.15.82.71.67 1.15c-.15.45-1.76 3.46-4.16 5.61c-2.94 2.63-6.31 3.71-6.35 3.9c-.04.19 2.15.85 2.67.93s.97.52.59 1.08c-.37.56-3.49 3.16-6.35 4.42s-7.22 2.94-11.17 3.17c-5.14.29-10.99-.2-15.69-1.82c-4.71-1.62-9.64-4.21-12.97-8.51c-3.04-3.92-3.04-8.16-3.03-10.07c.02-3.24 1.64-6.13 1.92-6.63c.42-.73.59-1.33-.29-1.07c-.88.26-3.98 2.42-4.62 7.25c-.55 4.09.38 7.97 2.31 11.04c2.62 4.16 6.78 7.29 11.84 10.29c4.68 2.78 7.39 3.96 8.64 4.56c1.24.6 2.73 2.13.44 3.94s-10.06.98-13.07-.86c-3.01-1.85-9.35-6.84-15.1-15.16c-4.08-5.91-6.94-11.97-6.94-17.89c0-5.78 3.11-10.95 6.02-16.59c3.08-5.95 7.43-13.92 4.76-19.95c-1.97-4.46-7.78-4.33-10.28-5.02c-2.53-.7-4.66-2.35-4.66-2.35l-.84 2.74s3.36 1.04 5.24 1.51c3.22.79 7.16.69 8.43 3.66c1.58 3.68.69 8.1-4.08 17.4c-4.33 8.5-7.05 13.06-6.99 18.9c.07 7.43 3.32 14.63 9.89 23.02s8.8 9.5 9.61 10.51s2.6 5.66 4.75 7.68c3.8 3.56 8.25 3.66 10.68 2.75s4.58-4.36 4.58-4.36s5.21.55 8.14.14c2.93-.4 8.69-1.34 14.78-6.71c5.81-5.12 9.13-14.64 9.13-14.64s8.45-13.11 9.26-15.73s-1.41-2.33-2.72-2.02c-.82.19-5.62 1.1-10.15 1.39c-2.02.13-13.25-4.53-13.31-4.42"/><path fill="#FE6011" d="M33.15 13.85s.01-3.73-.18-5.33c-.22-1.9-.61-2.4-1.36-2.72c-.91-.39-3.05 0-4 2.35c-.69 1.68-2.05 4.17-2.38 4.55c-.33.38-1.87.89-4.1 1.45c-2.67.67-4.13.94-4.98 1.61c-1.13.88-1.8 2.74-1.4 4.01c.26.82 2.1 1.03 4.56 1.39c2.61.38 10.88 1.99 11.7 1.84s3.76-1.79 3.98-3.94c.18-1.6-1.79-4.3-1.84-5.21"/></svg>