<svg viewBox="0 0 128 128"><path fill="#fd774d" d="M59.3 103.7c-.4 2.3-2.2 11-3.3 12.3-.8.9-3.1 2.1-5.4 2.6-1.7.3-3.5.2-4.6.8-1.4.7-2.6 2.3-2.4 3.6 0 1 2.5 1.1 4.6 1.2a87 87 0 0 0 13.7-.6c1.4-.4 2.6-.7 2.7-2.4 0-1.6-1.2-1.9-1.2-3.4s3-12.6 3-12.6zM82 102s2.9 5.3 4 8q.5 1.3.6 3.2 0 2.3-2.8 4c-2.8 1.7-3.8 1.6-4.8 1.8q-1.7.3-1.6 1.9c0 1.2 1.1 1 2.2 1.1 1.6 0 7.7 0 9.4-.6.7-.2 3.3-1.8 5.1-3.9a9 9 0 0 0 2.3-4.7c-.2-2.3-2.1-3-3-3.5-1.8-1-5.8-10-5.8-10z"/><path fill="#f1f6f7" d="M32.4 6.2s7-2.3 13 0S57.8 14.9 58.2 23s-2.7 12.7-2.4 18.2q.3 8.3 2 10.3c1.7 2 4 3.7 4 3.7s10-.6 11-.4 4.4 1.9 4.4 1.9l10.5 5.5c1.2.7 8.6 4.4 10 4.5s8.8.8 11.2.3c2.5-.5-8 14.5-8 14.5s-7.3 16-24.7 18.2-19.8-.6-21.8-2.3S34 78.2 33.7 66s9-21.6 10.6-28.1 2-11.4-2.3-13.4-6.7-1.6-7.7-2-4.4-3.2-4.4-3.2z"/><path fill="#b4b5b7" d="M30.3 6.8s7.4-5.9 18.8-.2c5.5 2.7 9.3 8.9 9.8 17.7.4 6.8-2.1 10.7-2 19.2.1 7.8 5.4 10.4 5.4 10.4s3-.8 7.9-.2c2.8.4 7.4 2.9 7.2 3.1 0 .1-5-1.4-7.6-1.4-5-.2-7.7 0-12.3 2-2 .7-3.4 1.7-3.7 1.6-.2-.3.4-1.1 1-1.7 1.4-1.3 3.4-2.1 4-2.4.2 0-1.2-1.2-2.3-3a15 15 0 0 1-2.1-8.9c.1-8.7 3.5-14 1.8-22.4-1.6-7.4-6.7-13.7-15-14.4a14 14 0 0 0-10.4 2.7z"/><path fill="#302f2f" d="M39.9 9.9q-2-.1-2.3 2.8.2 2.8 2.2 2.8c1.3 0 2.2-1.3 2.2-2.8q0-2.7-2-2.7"/><path fill="#fff" d="M46.6 15.5q.8 1-2.6 3.2-3.7 2.1-4 1.1c-1-1.8.5-3.5 2.2-4.4s3.7-1 4.4 0m5.6 49.3c-1 3-1.1 7 0 8.8 1 1.7 3 2 3.8.8 1.2-1.6 2.7-5.5 3.6-6.5s3.5-2.7 9.2-4.3c5.8-1.6 9.7-2.3 10.3-2.4.5-.2 1-.9.1-1.7-1-.9-5.9-2.3-8-2.4q-4.1-.5-8.5.3c-2.6.6-9.3 3.6-10.5 7.4"/><path fill="#b4b5b7" d="M87 61.8q-.1.4 2.7 2.1c1.8 1.2 7.5 4.4 10.1 4.5 2 0 5 0 5.6.2q1 .3.7 1.1a19 19 0 0 1-4.2 5.6c-3 2.7-6.3 3.7-6.3 4s2.1.8 2.6.9 1 .5.6 1c-.3.6-3.5 3.2-6.3 4.5s-7.2 2.9-11.2 3.1A43 43 0 0 1 65.6 87a27 27 0 0 1-13-8.5c-3-4-3-8.2-3-10a14 14 0 0 1 2-6.7q.8-1.2-.4-1c-1.2.1-4 2.4-4.6 7.2-.5 4 .4 8 2.3 11 2.7 4.2 6.8 7.3 11.9 10.3 4.7 2.8 7.4 4 8.6 4.6 1.3.6 2.7 2.1.5 4s-10.1.9-13.1-1-9.4-6.8-15.1-15.1c-4.1-6-7-12-7-17.9s3.2-11 6-16.6c3.1-6 7.5-14 4.8-20-2-4.4-7.8-4.3-10.3-5S30.6 20 30.6 20l-.9 2.7 5.3 1.5c3.2.8 7.1.7 8.4 3.7 1.6 3.7.7 8.1-4 17.4-4.4 8.5-7.1 13-7 18.9 0 7.4 3.3 14.6 9.8 23s8.8 9.5 9.6 10.5 2.6 5.7 4.8 7.7c3.8 3.6 8.2 3.7 10.7 2.8s4.6-4.4 4.6-4.4 5.2.6 8 .1c3-.4 8.8-1.3 14.9-6.7 5.8-5 9.1-14.6 9.1-14.6s8.5-13.1 9.3-15.7-1.4-2.4-2.8-2c-.8.1-5.6 1-10.1 1.3-2 .2-13.3-4.5-13.3-4.4"/><path fill="#fe6011" d="M33.2 13.9s0-3.8-.2-5.4c-.3-1.9-.6-2.4-1.4-2.7-.9-.4-3 0-4 2.3-.7 1.7-2 4.2-2.4 4.6s-1.8.9-4 1.5q-4 .7-5 1.6a4 4 0 0 0-1.4 4c.2.8 2 1 4.5 1.4 2.6.3 10.9 2 11.7 1.8s3.8-1.8 4-4c.2-1.5-1.8-4.2-1.8-5.2"/></svg>