<svg viewBox="0 0 128 128"><path fill="#5b9821" d="M84.5 37.9s-11 2.9-26.2 25.7c-11.8 17.7-13 31.5-22.8 40.8-5 4.7-13 8-13 8s-6.5-.2-7 0c-.4.4-1.7 3.6.7 7.6 2 3.3 5 4.1 6 4.3 1.1.1 3-4.3 3.8-5s9.4-3.8 15.6-10.6c12.6-14 12.4-26.2 21.6-42.1a85 85 0 0 1 22.7-26.2z"/><path fill="#5b9821" d="M122.7 3.4c-.4-.4-25.4 0-38.2 11.5-15.2 13.8-11 32.8-11 32.8s17.7 4.2 31.1-8a60 60 0 0 0 18-36.3m-50.2 67q1.2 1 3.7 2.3c9.6 4.8 21.5 2.2 27.3-.1 8.2-3.3 20.2-13 20.2-13.7s-5.4-3.4-13.3-5.7-18.2-2.5-26.2 1A26 26 0 0 0 71.6 66l-5 .8c-3.7.6-6.6 1.9-6.6 1.9l-2.8 6S63 72 66 71.2s6.4-.8 6.4-.8m-18-61.8c-1 .2-5.4 7-8.1 13.7-2.1 5.1-4.3 18.3-.5 26.5s8.3 9.7 8.3 9.7.5 2.3.4 5.5l-.2 6.8 4.4-2s.3-4 .2-6.1l-.3-4.8s7.2-6.7 7.8-17.2a43 43 0 0 0-5-24.1c-3.6-6.5-6.6-8-7-8M5.7 25c-1 1.2 1.4 4.3 1.6 11.3.2 5.7 1.1 25 6.9 35s13.6 12.3 16.1 13.2 8 .9 8 .9 2.4 2 3.2 4.9l1.7 7 4-5.9s-1.1-4.6-2.3-6.7l-1.6-2.9s2.6-16-1.8-29.2c-5.1-15.6-14-21.5-22.3-25S6.5 24 5.8 24.9M50.3 93s1.9-1.1 5.3-1.2c3 0 5 .5 5 .5s5.8-6.7 12.3-8.6c6.1-1.8 14.2-3.4 28.5 2.5s22.5 11.7 22.4 13.5-14.2 8.2-20 10.2-19.1 6.2-31.6 1.4c-10-3.8-12.2-13-12.2-13s-2.3-1.3-5-1.1c-4.7.2-8.8 3.8-8.8 3.8z"/><path fill="#8dc02c" d="M78 38.7c1.5 1 5.5-8.9 9.3-13.4s10.9-9.2 10.1-11.2-9 .8-14.8 8.2C77 29.7 76.6 38 78 38.7m1 24.8c1.2 1.6 6.4-2.1 11.7-3.3 5.4-1.3 11.2.5 11-2.5-.2-2.8-8-3-13-1.7s-11 5.6-9.7 7.5m-28.5-15c2 0 1.3-6 1.4-11.6s1-14-1-14.1c-2.2-.1-4 5.5-4.1 12.1-.1 5.5 1.2 13.8 3.7 13.7M12.1 38c-1.2.4-.3 3.3-.3 4.7.3 9.1 3.4 23.2 8.4 29.3 3.8 4.8 8.2 8.2 11.2 6.1s-2.7-6.6-5.5-11.2c-4.6-7.3-7.4-16.6-9-21.1s-2.4-8.6-4.8-7.8"/><path fill="#8dc02d" d="M67.4 92c.2 2.8 6.2 1.4 12.6.7s11.6-1.5 11.4-3.8c-.3-2.2-7.4-2.4-13-2s-11.2 2.7-11 5.1"/></svg>