<svg xmlns="http://www.w3.org/2000/svg" width="1em" height="1em" viewBox="0 0 128 128"><path fill="#7CB243" d="M33.08 83.15c5.87 3.39 27.98 20.15 32.44 31.51c1.58 4.01-2.9 7.89-9.83 4.01c-7.48-4.19-13.07-11.22-18.12-17.99c-2.82-3.78-5.93-11.12-6.74-14.74c-.43-1.93.55-3.77 2.25-2.79"/><path fill="#388E3C" d="m62.68 117.54l.26-8.9c-1.32-3.13-8.31-8.41-10.73-10.7c-2.62-2.48-5.34-4.86-8.18-7.08c-2.26-1.77-11.28-8.84-11.45-7.8c-.59 3.59 3.07 10.53 14.13 22.1c9.57 10 15.97 12.38 15.97 12.38"/><path fill="none" stroke="#7CB243" stroke-miterlimit="10" stroke-width="4.629" d="M63.55 77.53V115"/><path fill="#BBD047" d="M84.37 93.12c6.96-5.06 10.77-6.76 12.82-6.97c-.52-1.55-3.53-2.3-15.2 5.27c-4.19 2.71-31.31 24.63-30.29 29.27c.27 1.24 1.98 2.05 3.9 2.57c.67-5.67 24.89-27.32 28.77-30.14"/><path fill="#7CB243" d="M97.18 86.15c-2.05.21-5.86 1.91-12.82 6.97c-3.88 2.82-28.18 24.47-28.86 30.14c2.13.57 4.54.77 5.58.74c3.35-.1 6.69-1.29 9.18-3.56c2.02-1.85 24.63-29.82 26.62-32.31c.22-.28.55-1.23.3-1.98"/><path fill="#7350D3" d="M82.42 53.83s4.98-1.66 7.75-5.11c2.33-2.9 3.22-7.73 1.15-9.62c-2.07-1.89-4.71 5.22-9.58.3c-.36-.37-9.37-20.17-9.37-20.17s7.75-3.02 5.99-10.66c-.66-2.87-5.88 1.79-8.29 3.33c-.28-2.27-3.44-9.01-4.88-7.74c-5.23 4.61-1.9 10.74-1.14 12.41c1.2 2.64-3.26 5.3-8.31 6.49c-5.43 1.28-8.75-4.7-10.77-2.59c-2.97 3.11 1.19 8.21 4.6 11.75c0 0 2 11.06-1.3 14.19c-3.54 3.36-4.96 4.81-3.85 9.83c.45 2.04-3.78-2.37-5.21-3.95c-.88-.97-2-2.15-3.27-1.81c-1.19.33-1.61 1.81-1.61 3.05c-.01 3.09 1.35 7.78 3.66 9.84c-2.77 1.53-4.05 5.12-4.39 6.87s-.25 3.01 1.24 3.28c2.15.38 6.42-4.07 10.09-3.36c2.02.39 10.14 13.2 10.56 15.2c.88 4.22-2.92 7.92-.64 9.65c2.82 2.13 8.87-1.45 9.47-7.83c0 0 2.11 5.4 8.96 5.69c3.36.14 4.58-1.26 4.6-2.19c.04-1.54-2.37-3.05-3.48-4.13c-1.82-1.75-1.45-3.6 0-4.89c2.2-1.96 4.32-.19 5.34 1.98c.43.91 1.67 4.28 3.62 3.86c1.46-.31 2.13-1.5 2.34-2.8c.28-1.74.56-7.17-3.82-9.94c1.96-.47 6-1.5 7.52-4.1c.37-.58-6.98-16.83-6.98-16.83"/><path fill="#AB7CF7" d="M71.06 48.35c1.41-1.59-.05-2.64-1.52-3.08c-2.1-.78-8.54-2.97-8.44-5.58c.09-.74.5-1.44.87-2.06c1.51-2.72 3.55-5.53 3.62-8.73c-.09-1.47-1.37-2.38-2.8-2.11c-3.73.37-5.9 4.01-8.25 6.56c-1.37 1.49-1.97 1.05-2.97-.14c-1.25-1.47-2.18-3.57-3.01-5.89c-1.12-3.12-4.14-1.21-4.74 1.91c-.5 2.58.36 6.38 1.67 8.65c.45.78 1.14 1.61.31 2.33c-2.11 1.85-4.98 1.68-7.52 2.83c-1 .45-3.27 2.06-1.45 4.14c1.12 1.29 4.65 2.19 7.66 1.71c1.24-.2 3.83-1 4.74.58c1.6 2.78.76 7.42 2.84 10.86c.98 1.82 2.86 2.4 3.97.4c1.54-2.51 1.77-5.61 1.87-8.55c.09-2.72 1.49-2.63 2.97-2.3c3.26.7 7.49 1.5 10.18-1.53"/><path fill="#AB7CF7" d="M67.19 81.18c.02-1.96-5.25-3.76-6.97-4.73c-1.26-.71-2.04-1.27-1.2-2.81c1.34-2 3.26-3.79 3.76-6.3c.48-2.44-.59-4.19-2.58-3.55c-2.24.72-4.25 3.59-6.27 4.72c-1.51.85-2.81.52-3.79-1.01c-1.7-2.67-1.67-6.43-3.35-7.62c-.97-.75-2.66-.13-3.25.82c-1.96 3.17-1.2 7.93.23 10.97c.27.56.57 1.21.3 1.78c-1.18 1.52-3.43 1.48-5.16 1.89c-1.32.33-2.6.91-2.59 2.52c.01 1.4.79 3.18 7.41 3.1c1.21-.01 2.91-.33 2.8 1.18c-.15 2.18-.34 5.26 1.06 8.43c1.11 2.53 3.77 2.24 4.58.17c1.24-3.16 1.21-5.25 1.89-6.83c.58-1.35 1.91-1.61 2.77-1.23c2.94 1.28 6.17 1.9 9.05.48c.77-.37 1.3-1.07 1.31-1.98m24.97-51.5c-3.13-2.88-5.5-3.63-8.94-4.66c.96-2.54 1.65-4.84 2.14-7.5c.51-2.75-.44-5.44-2.84-4.89c-.93.21-1.7.87-2.28 1.63c-.57.76-2.58 5.84-3.36 7.04c-.7 1.07-1.37-.3-2.23-1.34c-3.85-4.69-8.09-4.97-8.49-2.68c-.28 1.54 1.92 2.37 3.96 8.59c.75 2.28 1.56 5.85 2.98 7.78c.87 1.18 3.42 2.75 4.56 3.68c2.4 1.95 5.95 5.94 7.68 5.52c.73-.18 1.18-1.57.49-3.57c-.93-2.71-3.78-5.73-3.02-6.61c.24-.28 2.23-.15 4.41.31c2.33.49 4.23 1.77 5.95.88c1.11-.56.04-3.2-1.01-4.18m.01 39.63c-.53-2.14-1.52-4.16-2.89-5.89c-.25-.27-.38-.66-.04-.9c2.22-1.95 4.96-4.33 4.65-7.57c-.26-2.18-1.84-2.38-3.58-1.5c-1.61.66-3.03 1.55-4.77 1.68c-1.06.08-1.23-.44-1.28-1.33c-.25-4.57-2.25-11.04-6.65-10.49c-1.45.18-1.7 1.92-1.48 3.22c.16 1.62.98 7.05.68 8.32c-.42 1.77-1.42 1.78-5.91 1.5c-2.02 0-5.67-.81-5.99 2.12c-.28 2.61 3.29 4.71 5.97 5.1c.78.15 2.35.1 2.61 1.09c.12.49-.05 1-.26 1.46c-.84 1.86-2.19 3.43-3.38 5.08c-.56.78-1.63 3.04 1.44 3.93c2.3.66 7.8-2.83 9.58-6.56c.51-1.07 1.84-1.35 2.77-.48c1.26 1.18 2.84 3.08 3.5 4.35c.55 1.05 1.23 2.22 2.39 2.49c1.11.25 2.25-.56 2.69-1.61c.5-1.26.27-2.71-.05-4.01M60.03 8.15c-1.35-2.93-3.28-3.3-4.58-1.53s-.09 8.6-.09 8.6s-3.64-.57-4.44-.58c-1.44-.02-2.77.12-3.12 1.07c-.35.96.96 3.25 4.49 5.6c4.47 2.98 8.28 3.26 10.23 1.4c1.18-1.13.88-7.24-2.49-14.56"/><circle cx="52.56" cy="42.79" r="3.72" fill="#FCEBCD"/><ellipse cx="77.82" cy="28.77" fill="#FCEBCD" rx="2.38" ry="3.72" transform="rotate(-30 77.817 28.771)"/><ellipse cx="50.51" cy="76.45" fill="#FCEBCD" rx="3.01" ry="3.9" transform="rotate(-27.111 50.507 76.444)"/><ellipse cx="81.31" cy="60.33" fill="#FCEBCD" rx="2.76" ry="3.72" transform="rotate(-.81 81.419 60.557)"/></svg>