<svg viewBox="0 0 128 128"><path fill="#7cb243" d="M33 83.2c6 3.3 28 20.1 32.5 31.5 1.6 4-2.9 7.9-9.8 4a62 62 0 0 1-18.1-18 50 50 0 0 1-6.8-14.8c-.4-1.9.6-3.7 2.3-2.7"/><path fill="#388e3c" d="m62.7 117.5.2-8.9c-1.3-3-8.3-8.4-10.7-10.7q-3.9-3.6-8.2-7A52 52 0 0 0 32.6 83c-.6 3.6 3 10.5 14.1 22 9.6 10 16 12.4 16 12.4"/><path fill="none" stroke="#7cb243" stroke-miterlimit="10" stroke-width="4.6" d="M63.6 77.5V115"/><path fill="#bbd047" d="M84.4 93.1c7-5 10.7-6.7 12.8-7-.5-1.5-3.5-2.2-15.2 5.3-4.2 2.7-31.3 24.6-30.3 29.3.3 1.2 2 2 3.9 2.6.7-5.7 24.9-27.4 28.8-30.2"/><path fill="#7cb243" d="M97.2 86.2c-2 .2-5.9 1.9-12.8 7-4 2.7-28.2 24.4-28.9 30 2.1.6 4.5.8 5.6.8 3.3-.1 6.7-1.3 9.2-3.6 2-1.8 24.6-29.8 26.6-32.3.2-.2.5-1.2.3-2"/><path fill="#7350d3" d="M82.4 53.8s5-1.6 7.8-5c2.3-3 3.2-7.8 1.1-9.7s-4.7 5.2-9.6.3c-.3-.4-9.3-20.2-9.3-20.2s7.7-3 6-10.6c-.7-2.9-6 1.8-8.3 3.3-.3-2.3-3.5-9-5-7.7-5.1 4.6-1.8 10.7-1 12.4 1.2 2.6-3.3 5.3-8.4 6.5-5.4 1.2-8.7-4.7-10.7-2.6-3 3 1.2 8.2 4.6 11.7 0 0 2 11-1.3 14.2-3.6 3.4-5 4.8-3.9 9.8.5 2-3.8-2.3-5.2-4-.9-.9-2-2-3.3-1.7s-1.6 1.8-1.6 3c0 3.1 1.4 7.8 3.7 9.9-2.8 1.5-4 5-4.4 6.8s-.3 3 1.2 3.3c2.2.4 6.5-4 10.1-3.3 2 .3 10.2 13.2 10.6 15.2.9 4.2-3 7.9-.7 9.6 2.9 2.1 9-1.4 9.5-7.8 0 0 2.1 5.4 9 5.7 3.3.1 4.6-1.3 4.6-2.2 0-1.6-2.4-3-3.5-4.1-1.8-1.8-1.5-3.6 0-5 2.2-1.9 4.3-.1 5.3 2 .5 1 1.7 4.3 3.7 3.9q2-.6 2.3-2.8c.3-1.7.6-7.2-3.8-10 2-.4 6-1.4 7.5-4 .4-.6-7-16.9-7-16.9"/><path fill="#ab7cf7" d="M71 48.4c1.5-1.6 0-2.7-1.5-3.1-2-.8-8.5-3-8.4-5.6q.1-1 .9-2c1.5-2.8 3.5-5.6 3.6-8.8a2.3 2.3 0 0 0-2.8-2.1c-3.7.4-6 4-8.3 6.6-1.3 1.4-2 1-3-.2a19 19 0 0 1-3-5.9c-1-3.1-4-1.2-4.7 2-.5 2.5.4 6.3 1.7 8.6.4.8 1.1 1.6.3 2.3-2.1 1.9-5 1.7-7.5 2.8-1 .5-3.3 2.1-1.5 4.2 1.2 1.3 4.7 2.2 7.7 1.7 1.2-.2 3.8-1 4.7.6 1.6 2.7.8 7.4 2.9 10.8 1 1.9 2.8 2.4 4 .4 1.5-2.5 1.7-5.6 1.8-8.5.1-2.7 1.5-2.7 3-2.3 3.2.7 7.5 1.5 10.2-1.6"/><path fill="#ab7cf7" d="M67.2 81.2c0-2-5.3-3.8-7-4.7-1.2-.8-2-1.3-1.2-2.9 1.4-2 3.3-3.7 3.8-6.3.5-2.4-.6-4.1-2.6-3.5-2.2.7-4.3 3.6-6.3 4.7q-2.3 1.3-3.8-1c-1.7-2.7-1.6-6.4-3.3-7.6-1-.8-2.7-.1-3.3.8-2 3.2-1.2 8 .3 11q.5.8.3 1.7c-1.2 1.6-3.5 1.5-5.2 2-1.3.3-2.6.8-2.6 2.5 0 1.4.8 3.1 7.4 3 1.2 0 3-.3 2.8 1.2-.1 2.2-.3 5.3 1 8.5 1.2 2.5 3.9 2.2 4.7.1 1.2-3.1 1.2-5.2 1.9-6.8.5-1.3 1.9-1.6 2.7-1.2 3 1.3 6.2 1.9 9 .5q1.3-.6 1.4-2m25-51.5a19 19 0 0 0-9-4.7 42 42 0 0 0 2.2-7.5c.5-2.7-.5-5.4-2.9-4.9q-1.5.4-2.3 1.7c-.5.7-2.5 5.8-3.3 7-.7 1-1.4-.3-2.3-1.3-3.8-4.7-8-5-8.4-2.7-.3 1.5 1.9 2.3 4 8.6.7 2.2 1.5 5.8 2.9 7.7.9 1.2 3.4 2.8 4.6 3.7 2.4 2 6 6 7.6 5.5q1.4-.3.5-3.5c-.9-2.7-3.8-5.8-3-6.6.2-.3 2.2-.2 4.4.3s4.2 1.7 6 .9c1-.6 0-3.2-1-4.2m0 39.6q-.9-3.2-3-5.9-.4-.4 0-.9c2.3-2 5-4.3 4.7-7.5-.3-2.2-1.9-2.4-3.6-1.5-1.6.6-3 1.5-4.8 1.6q-1.3.1-1.2-1.3c-.3-4.6-2.3-11-6.7-10.5-1.4.2-1.7 2-1.5 3.2.2 1.7 1 7 .7 8.4-.4 1.7-1.4 1.7-5.9 1.5-2 0-5.7-.9-6 2-.3 2.7 3.3 4.8 6 5.2.8.1 2.3 0 2.6 1q.2.8-.3 1.5c-.8 1.9-2.2 3.4-3.4 5.1-.5.8-1.6 3 1.5 4 2.3.6 7.8-2.9 9.6-6.6.5-1.1 1.8-1.4 2.7-.5a17 17 0 0 1 3.5 4.3c.6 1 1.3 2.3 2.4 2.5s2.3-.5 2.7-1.6q.6-2 0-4M60 8.2c-1.3-3-3.2-3.4-4.5-1.6s-.1 8.6-.1 8.6l-4.5-.6q-2.3-.1-3.1 1.1c-.3 1 1 3.3 4.5 5.6 4.5 3 8.3 3.3 10.2 1.4 1.2-1.1.9-7.2-2.5-14.6"/><circle cx="52.6" cy="42.8" r="3.7" fill="#fcebcd"/><ellipse cx="77.8" cy="28.8" fill="#fcebcd" rx="2.4" ry="3.7" transform="rotate(-30 77.817 28.771)"/><ellipse cx="50.5" cy="76.5" fill="#fcebcd" rx="3" ry="3.9" transform="rotate(-27.111 50.507 76.444)"/><ellipse cx="81.3" cy="60.3" fill="#fcebcd" rx="2.8" ry="3.7" transform="rotate(-.81 81.419 60.557)"/></svg>