<svg xmlns="http://www.w3.org/2000/svg" width="1em" height="1em" viewBox="0 0 128 128"><path fill="#eb2a00" d="M64.24 86.95c-3.23 0-6.21-1.16-8.09-4.59-2.17-3.97-1.51-8.39 1.91-12.78 2.44-3.12 4.89-4.62 5.02-4.7.68-.45 1.6-.27 2.05.41s.27 1.6-.41 2.06c-.1.07-9.83 6.54-5.97 13.59 2.69 4.91 8.77 3.36 17.07-.47 3.79-1.75 6.93-1.89 9.69-2.02 2.35-.11 4.38-.2 6.58-1.2 4.92-2.24 5.78-6.63 6.69-11.28.48-2.44.97-4.95 2.08-7.17 2.28-4.56 5.85-7.11 6.5-7.51.76-.47 1.59-1.03 2.12-.39.52.63-.23 1.45-.86 1.97-.04.03-3.07 2.29-5.25 6.81-.9 1.87-1.22 4.52-1.68 6.87-.97 4.94-2.06 10.53-8.37 13.41-2.72 1.24-5.24 1.35-7.67 1.47-2.61.12-5.32.24-8.58 1.75-3.13 1.41-8.23 3.77-12.83 3.77m16.63 36.56c-.94-.47-9.7-5.01-18.01-8.12-1.53-.57-3.12-1.1-4.81-1.66-6.76-2.24-15.18-5.02-24.76-12.89C20.49 90.33 18.97 80.45 19.2 75.5c.19-3.98 1.74-6.99 3.38-10.18.69-1.34 1.4-2.72 2.02-4.21 1.8-4.31 1.13-11.01 1.12-11.08-.08-.81.51-1.54 1.32-1.63.82-.08 1.54.51 1.63 1.32.03.3.75 7.52-1.34 12.53-.67 1.6-1.41 3.04-2.12 4.43-1.55 3.02-2.9 5.63-3.05 8.96-.16 3.54.77 12.86 13.01 22.91 9.16 7.52 16.95 10.1 23.82 12.37 1.72.57 3.34 1.11 4.92 1.7 8.55 3.21 16.26 7.93 17.37 8.53 1.12.61 2.61 2.02 2.19 2.73-.28.46-1.66.1-2.6-.37"/><path fill="#eb2a00" d="M60.72 99.12c-1.32 0-2.66-.11-4.03-.35-13.12-2.28-21.1-12.07-19.41-23.8 1.77-12.24 10.22-21.55 10.58-21.94.55-.6 1.49-.64 2.09-.09s.64 1.49.09 2.09c-.08.09-8.2 9.05-9.83 20.35-1.7 11.8 7.3 18.77 16.98 20.46 8.75 1.52 16.58-2.96 22.3-6.24 1.27-.73 2.46-1.41 3.52-1.94 2.6-1.3 4.99-1.63 7.29-1.94 3.06-.42 6.28-.59 9.94-3.16 4.53-3.19 6.37-8.2 6.39-8.26.26-.88.75-2.01 1.53-1.76s.6 2.04.35 2.82c-.36 1.09-1.53 5.63-6.9 9.41-4.25 2.99-7.79 3.47-10.91 3.9-2.16.3-4.21.58-6.37 1.66-.98.49-2.15 1.16-3.38 1.86-4.95 2.84-12.1 6.93-20.23 6.93"/><radialGradient id="a" cx="35.145" cy="76.898" r="73.7" gradientUnits="userSpaceOnUse"><stop offset=".122" stop-color="#ffa8d2"/><stop offset=".365" stop-color="#f1b0df"/><stop offset=".781" stop-color="#dcbbf1"/></radialGradient><path fill="url(#a)" d="M31.36 51.11c.04 1.61.89 5.84-.89 10.98-2.99 8.67-15.23 11.34-10.68 25.22 2.48 7.57 7.5 7.7 7.8 8.71s-1.4 15.76 16.51 19.91c16.83 3.9 24.84-10.62 29.76-11.87 5.07-1.29 4.83 3.83 5.91 8.78.91 4.15 3.36 7.08 7.3 8.71 4.15 1.72 6.59-.71 6.59-.71s3.92 2.98 9.42 1.62c10.23-2.53 9.02-13.27 8.31-13.37s-4.94 6.66-11.96 3.95c-6.18-2.38-5.78-9.02-4.36-13.07s1.01-8.11-1.01-10.23c-2.03-2.13-5.78-.81-5.78-.81s-.1-6.99-4.56-9.63c-4.46-2.63-10.31 1.26-13.76 4.57-4.86 4.66-10.25 3.74-14.1-.92-3.47-4.2-4.1-9.76-.42-14.49 3.52-4.52 6.3-4.66 6.3-4.66s-3.04-1.32-5.17-1.62-9.07 2.32-13.98-.71c-7.33-4.52-7.82-9.46-11.23-10.36" opacity=".7"/><radialGradient id="b" cx="35.145" cy="76.898" r="73.7" gradientUnits="userSpaceOnUse"><stop offset=".175" stop-color="#ffa8d2"/><stop offset=".454" stop-color="#edb2e2" stop-opacity=".539"/><stop offset=".781" stop-color="#dcbbf1" stop-opacity="0"/></radialGradient><path fill="url(#b)" d="M31.36 51.11c.04 1.61.89 5.84-.89 10.98-2.99 8.67-15.23 11.34-10.68 25.22 2.48 7.57 7.5 7.7 7.8 8.71s-1.4 15.76 16.51 19.91c16.83 3.9 24.84-10.62 29.76-11.87 5.07-1.29 4.83 3.83 5.91 8.78.91 4.15 3.36 7.08 7.3 8.71 4.15 1.72 6.59-.71 6.59-.71s3.92 2.98 9.42 1.62c10.23-2.53 9.02-13.27 8.31-13.37s-4.94 6.66-11.96 3.95c-6.18-2.38-5.78-9.02-4.36-13.07s1.01-8.11-1.01-10.23c-2.03-2.13-5.78-.81-5.78-.81s-.1-6.99-4.56-9.63c-4.46-2.63-10.31 1.26-13.76 4.57-4.86 4.66-10.25 3.74-14.1-.92-3.47-4.2-4.1-9.76-.42-14.49 3.52-4.52 6.3-4.66 6.3-4.66s-3.04-1.32-5.17-1.62-9.07 2.32-13.98-.71c-7.33-4.52-7.82-9.46-11.23-10.36"/><radialGradient id="c" cx="63.633" cy="11.517" r="50.225" gradientTransform="rotate(109.732 69.818 20.306)scale(1 2.5262)" gradientUnits="userSpaceOnUse"><stop offset=".048" stop-color="#fe635d"/><stop offset=".128" stop-color="#fe7053"/><stop offset=".326" stop-color="#ff8c3c"/><stop offset=".44" stop-color="#ff9734"/><stop offset=".527" stop-color="#fe8b34"/><stop offset=".683" stop-color="#fc6d36"/><stop offset=".825" stop-color="#f94b37"/></radialGradient><path fill="url(#c)" d="M17.57 43.34c-.72-1.59-1.94-8.95 2.92-19.79S43.25-4.44 70.6 8.32c26.1 12.18 18.95 41.2 13.97 49.61-4.66 7.86-8.82 9.84-12.89 10.23-2.69.25-10.03-5.47-13.17-5.67s-11.75 1.22-15.91-1.01c-4.15-2.23-9.63-9.73-11.45-10.44s-10.74-1.42-13.58-7.7"/><path fill="#f5eceb" d="M40.9 68.71c-1.22-.07-2.14.75-2.21 2.07s.82 2.1 1.96 2.17 2.07-.61 2.17-1.99c.1-1.36-.75-2.18-1.92-2.25m-3.82 14.46c-1.39.07-2.05.99-2.03 2.36s1.08 2.03 2.34 1.99 1.96-.95 1.96-2.25-.97-2.16-2.27-2.1M26.12 73.09c-1.36.13-2 1.14-1.91 2.13.1.99.54 1.91 1.91 1.88 1.14-.03 1.93-.63 2-1.94.07-1.18-.69-2.19-2-2.07m28.9 14.07c-1.27.01-1.85 1.06-1.77 1.97.09.91.63 1.81 1.77 1.82 1.06.01 1.79-.67 1.85-1.88.06-1.09-.57-1.92-1.85-1.91M39.38 99.43c-1.25-.07-2.17.72-2.24 2.04s.82 2.13 1.98 2.2 2.11-.61 2.22-1.99c.11-1.36-.76-2.18-1.96-2.25m13.5 7.71c-1.08-.07-1.89.66-1.95 1.82s.72 1.86 1.73 1.92 1.82-.53 1.92-1.76c.09-1.19-.66-1.92-1.7-1.98m16.48-13.57c-1.14.31-1.47 1.71-1.11 2.64s1.14 1.7 2.34 1.42c1.09-.25 1.6-1.22 1.31-2.5-.25-1.16-1.31-1.9-2.54-1.56m9.86-8.39c-1.23.01-1.8.98-1.71 1.82s.61 1.67 1.71 1.68c1.03.01 1.74-.62 1.8-1.74.06-1-.55-1.77-1.8-1.76"/><radialGradient id="d" cx="63.578" cy="17.584" r="45.029" gradientTransform="rotate(112.296 68.372 24.73)scale(1 1.813)" gradientUnits="userSpaceOnUse"><stop offset=".362" stop-color="#ffca87"/><stop offset=".443" stop-color="#ffbf82"/><stop offset=".587" stop-color="#ffa274"/><stop offset=".775" stop-color="#ff725f"/><stop offset=".812" stop-color="#ff685a"/></radialGradient><path fill="url(#d)" d="M29.42 48.91c-1.11-.1-5.18-1.61-5.79-7.89s3.31-9.79 8.63-11.8c3.95-1.49 6.93-3.53 10.49-6.27 3.28-2.52 9.84-6.6 19.19-2.42 10.71 4.79 10.01 12.97 10.44 16.62.61 5.17 1.88 7.22 3.91 11.42 2.06 4.27.78 10.55-2.53 13.6-3.95 3.65-10.9 2.33-12.02 1.62-1.11-.71-3.45-1.42-5.17-1.62s-11.35 1.11-13.98-.71-8.21-7.9-9.32-8.71c-1.11-.8-3.85-3.84-3.85-3.84"/><path fill="#eb2a00" d="M33.2 49.79c-4.37-2.58-7.01-1.63-10.19-3.57-4.62-2.82-3.94-5.8-5.17-5.34-1.12.43-.5 6.67 4.96 9.5s6.68 1.03 9.76 3.73 3.31 6.67 10.34 9.18c6.23 2.23 10.54-.32 14.42.53 5.12 1.12 3.31 3.63 9.18 4.85 4.57.96 8.47-.79 8.22-1.55-.25-.75-3.57.37-7.37-1.39-2.69-1.25-5.03-4.19-8.21-5.02-6.35-1.65-9.95 1.7-16.17-1.44-6.23-3.12-4.87-6.59-9.77-9.48"/><path fill="#fffefe" d="M48.14 9.02c.25 1.89 2.29 1.83 3.39 1.77 1.3-.07 3.46-.65 3.2-2.71-.19-1.5-1.5-2.03-3.44-1.88-1.8.13-3.37 1.1-3.15 2.82m-16 4.7c6.31-5.19 9.82-5.35 11.01-5.22 1.1.12 2.32.89 2.02 2.35s-1.78 1.84-2.88 2.26-2.97.89-7.12 4.19c-3.18 2.52-6.09 6.86-7.48 7.96-.75.59-3 .42-2.58-2.17s3.2-6.22 7.03-9.37"/><path fill="#eb2a00" d="M48.79 121.64c-5.86 0-16.27-1.52-22.59-12.08-7.66-12.8-2.47-21.64 2.35-30.03 1.88-3.27 3.65-6.36 4.73-9.71 2.85-8.92 1.7-14.02 1.69-14.07-.19-.79.3-1.59 1.09-1.79.79-.19 1.82 1.13 1.92 1.94.13 1.04 1.26 5.02-1.88 14.83-1.17 3.65-3.1 7.02-4.98 10.28-4.59 8-8.93 15.56-2.17 26.86 8.15 13.63 21.63 11.11 22.6 11.06.82-.04 2.73-.22 2.9.59.17.8-.89 1.49-1.69 1.66-.05 0-1.28.46-3.97.46"/><path fill="#eb2a00" d="M74.08 110.08c-4.1 0-8.66-.82-13.8-2.82-12.45-4.84-18.43-17.85-17.73-27.63.8-11.16 7.22-17.77 7.49-18.05a1.485 1.485 0 1 1 2.11 2.09c-.1.1-5.93 6.19-6.65 16.18-.5 6.96 3.54 19.44 16.03 24.3 16.95 6.59 26.62-.26 35.3-6.63 3.31-2.43 6.44-4.73 9.63-5.89 8.83-3.21 13.25 1.15 13.47 1.34.62.54 1.48 1.51.94 2.13s-1.37-.21-2.25-.67c-1.49-.77-4.36-2.81-11.48-.22-2.79 1.01-5.43 3.39-8.57 5.69-6.36 4.68-13.86 10.18-24.49 10.18"/></svg>