<svg viewBox="0 0 128 128"><path fill="#eb2a00" d="M64.2 87a9 9 0 0 1-8-4.6q-3.3-6.1 1.9-12.8c2.4-3.1 4.8-4.6 5-4.7a1.5 1.5 0 1 1 1.6 2.4c0 .1-9.8 6.6-6 13.6 2.7 5 8.8 3.4 17.1-.4 3.8-1.8 7-2 9.7-2 2.4-.2 4.4-.2 6.6-1.2 5-2.3 5.8-6.7 6.7-11.3q.6-3.8 2-7.2c2.3-4.6 6-7.1 6.6-7.5.7-.5 1.5-1 2-.4s-.2 1.5-.8 2c0 0-3 2.3-5.2 6.8-1 1.8-1.3 4.5-1.7 6.8-1 5-2 10.6-8.4 13.5-2.7 1.2-5.2 1.3-7.7 1.4-2.6.1-5.3.3-8.5 1.8-3.2 1.4-8.3 3.7-12.9 3.7M81 123.5c-1-.5-9.7-5-18-8.1l-4.9-1.7c-6.7-2.2-15.1-5-24.7-12.9C20.5 90.3 19 80.5 19.2 75.5c.2-4 1.7-7 3.4-10.2l2-4.2c1.8-4.3 1.1-11 1.1-11q0-1.5 1.3-1.7 1.5 0 1.7 1.3c0 .3.7 7.5-1.4 12.5l-2 4.5c-1.6 3-3 5.6-3.1 9s.7 12.8 13 22.8c9.1 7.6 17 10.1 23.8 12.4l5 1.7c8.5 3.2 16.2 8 17.3 8.5 1.1.7 2.6 2 2.2 2.8-.3.4-1.7 0-2.6-.4"/><path fill="#eb2a00" d="M60.7 99.1q-2 0-4-.3C43.6 96.5 35.6 86.7 37.3 75a46 46 0 0 1 10.6-22c.5-.6 1.5-.6 2 0s.7 1.4.1 2c0 .1-8.2 9-9.8 20.4-1.7 11.8 7.3 18.8 17 20.4 8.7 1.6 16.6-3 22.3-6.2l3.5-2q3.9-1.6 7.3-1.9c3-.4 6.3-.6 10-3.1 4.5-3.2 6.3-8.2 6.3-8.3.3-.9.8-2 1.6-1.8s.6 2 .3 2.9c-.3 1-1.5 5.6-6.9 9.4-4.2 3-7.8 3.4-10.9 3.9q-3.2.3-6.4 1.6L81 92.2c-5 2.8-12.1 7-20.3 7"/><radialGradient id="a" cx="35.1" cy="76.9" r="73.7" gradientUnits="userSpaceOnUse"><stop offset=".1" stop-color="#ffa8d2"/><stop offset=".4" stop-color="#f1b0df"/><stop offset=".8" stop-color="#dcbbf1"/></radialGradient><path fill="url(#a)" d="M31.4 51.1c0 1.6.9 5.8-1 11-3 8.7-15.2 11.3-10.6 25.2 2.5 7.6 7.5 7.7 7.8 8.7s-1.4 15.8 16.5 20c16.8 3.8 24.8-10.7 29.8-12 5-1.2 4.8 3.9 5.9 8.8q1.3 6.3 7.3 8.8c4.1 1.7 6.6-.8 6.6-.8s3.9 3 9.4 1.7c10.2-2.6 9-13.3 8.3-13.4s-5 6.7-12 4c-6.1-2.4-5.7-9-4.3-13.1s1-8.1-1-10.3c-2-2-5.8-.8-5.8-.8s-.1-7-4.6-9.6-10.3 1.3-13.7 4.6c-4.9 4.6-10.3 3.7-14.1-1a11 11 0 0 1-.5-14.4c3.6-4.6 6.3-4.7 6.3-4.7s-3-1.3-5.1-1.6-9.1 2.3-14-.7C35.3 57 34.8 52 31.4 51" opacity=".7"/><radialGradient id="b" cx="35.1" cy="76.9" r="73.7" gradientUnits="userSpaceOnUse"><stop offset=".2" stop-color="#ffa8d2"/><stop offset=".5" stop-color="#edb2e2" stop-opacity=".5"/><stop offset=".8" stop-color="#dcbbf1" stop-opacity="0"/></radialGradient><path fill="url(#b)" d="M31.4 51.1c0 1.6.9 5.8-1 11-3 8.7-15.2 11.3-10.6 25.2 2.5 7.6 7.5 7.7 7.8 8.7s-1.4 15.8 16.5 20c16.8 3.8 24.8-10.7 29.8-12 5-1.2 4.8 3.9 5.9 8.8q1.3 6.3 7.3 8.8c4.1 1.7 6.6-.8 6.6-.8s3.9 3 9.4 1.7c10.2-2.6 9-13.3 8.3-13.4s-5 6.7-12 4c-6.1-2.4-5.7-9-4.3-13.1s1-8.1-1-10.3c-2-2-5.8-.8-5.8-.8s-.1-7-4.6-9.6-10.3 1.3-13.7 4.6c-4.9 4.6-10.3 3.7-14.1-1a11 11 0 0 1-.5-14.4c3.6-4.6 6.3-4.7 6.3-4.7s-3-1.3-5.1-1.6-9.1 2.3-14-.7C35.3 57 34.8 52 31.4 51"/><radialGradient id="c" cx="63.6" cy="11.5" r="50.2" gradientTransform="rotate(109.732 69.818 20.306)scale(1 2.5262)" gradientUnits="userSpaceOnUse"><stop offset="0" stop-color="#fe635d"/><stop offset=".1" stop-color="#fe7053"/><stop offset=".3" stop-color="#ff8c3c"/><stop offset=".4" stop-color="#ff9734"/><stop offset=".5" stop-color="#fe8b34"/><stop offset=".7" stop-color="#fc6d36"/><stop offset=".8" stop-color="#f94b37"/></radialGradient><path fill="url(#c)" d="M17.6 43.3c-.8-1.5-2-9 2.9-19.7s22.8-28 50.1-15.3c26.1 12.2 19 41.2 14 49.6-4.7 7.9-8.9 9.9-13 10.3-2.6.2-10-5.5-13-5.7s-11.8 1.2-16-1S33 51.7 31.1 51s-10.7-1.4-13.5-7.7"/><path fill="#f5eceb" d="M40.9 68.7q-2 .1-2.2 2c-.2 2 .8 2.2 2 2.2s2-.6 2.1-2q0-2-1.9-2.2m-3.8 14.5q-2 .2-2 2.3c0 2.1 1 2 2.3 2s2-1 2-2.2-1-2.2-2.3-2.1M26 73c-1.3.1-2 1.1-1.9 2.1s.6 2 2 1.9q1.7 0 2-2c0-1.1-.8-2.1-2-2M55 87c-1.3 0-1.8 1.1-1.8 2q.2 1.6 1.8 1.9 1.6 0 1.9-2c0-1-.6-1.9-1.9-1.8M39.4 99.4q-2 .1-2.3 2c-.3 2 .9 2.2 2 2.3s2.1-.6 2.2-2q0-2.1-2-2.3m13.6 7.7q-1.8 0-2 1.9c-.2 1.9.7 1.8 1.8 1.9s1.8-.5 1.9-1.8q-.1-1.8-1.7-2m16.5-13.5c-1.2.3-1.5 1.7-1.2 2.6s1.2 1.7 2.4 1.4q1.6-.4 1.3-2.5a2 2 0 0 0-2.5-1.5m9.8-8.4c-1.2 0-1.8 1-1.7 1.8s.6 1.7 1.7 1.7q1.7 0 1.8-1.8 0-1.6-1.8-1.7"/><radialGradient id="d" cx="63.6" cy="17.6" r="45" gradientTransform="rotate(112.296 68.372 24.73)scale(1 1.813)" gradientUnits="userSpaceOnUse"><stop offset=".4" stop-color="#ffca87"/><stop offset=".4" stop-color="#ffbf82"/><stop offset=".6" stop-color="#ffa274"/><stop offset=".8" stop-color="#ff725f"/><stop offset=".8" stop-color="#ff685a"/></radialGradient><path fill="url(#d)" d="M29.4 49c-1-.2-5.2-1.7-5.8-8s3.3-9.8 8.7-11.8a38 38 0 0 0 10.5-6.3c3.2-2.5 9.8-6.6 19.1-2.4 10.8 4.8 10 13 10.5 16.6.6 5.2 1.9 7.3 3.9 11.5S77 59 73.8 62.2c-4 3.6-11 2.3-12 1.6-1.2-.7-3.5-1.4-5.2-1.6s-11.4 1-14-.7-8.2-8-9.3-8.8-3.9-3.8-3.9-3.8"/><path fill="#eb2a00" d="M33.2 49.8c-4.4-2.6-7-1.6-10.2-3.6-4.6-2.8-4-5.8-5.2-5.3-1 .4-.5 6.6 5 9.5s6.7 1 9.8 3.7 3.3 6.7 10.3 9.2c6.2 2.2 10.5-.3 14.4.5 5.1 1.1 3.3 3.6 9.2 4.9 4.6 1 8.5-.8 8.2-1.6-.2-.7-3.6.4-7.4-1.4-2.6-1.2-5-4.2-8.2-5-6.3-1.6-10 1.7-16.1-1.4-6.3-3.2-4.9-6.6-9.8-9.5"/><path fill="#fffefe" d="M48.1 9c.3 2 2.3 1.8 3.4 1.8 1.3 0 3.5-.7 3.2-2.7q-.4-2.2-3.4-1.9c-1.8.1-3.4 1.1-3.2 2.8m-16 4.7c6.4-5.2 9.9-5.3 11-5.2 1.2.1 2.4.9 2 2.4s-1.7 1.8-2.8 2.2-3 .9-7.1 4.2c-3.2 2.5-6.1 6.9-7.5 8-.8.6-3 .4-2.6-2.2s3.2-6.2 7-9.4"/><path fill="#eb2a00" d="M48.8 121.6c-5.9 0-16.3-1.5-22.6-12-7.7-12.8-2.5-21.7 2.4-30q2.9-4.8 4.7-9.8c2.8-8.9 1.7-14 1.7-14q-.2-1.3 1-1.8c.9-.2 1.9 1 2 1.9.1 1 1.2 5-1.9 14.8a54 54 0 0 1-5 10.3c-4.6 8-9 15.6-2.2 26.9 8.2 13.6 21.7 11 22.7 11 .8 0 2.7-.2 2.9.6s-1 1.5-1.7 1.7q0 .2-4 .4"/><path fill="#eb2a00" d="M74 110q-6 .2-13.7-2.7a29 29 0 0 1-17.7-27.7c.7-11.1 7.2-17.7 7.4-18a1.5 1.5 0 1 1 2.1 2c0 .2-5.9 6.3-6.6 16.3-.5 7 3.5 19.4 16 24.3 17 6.5 26.7-.3 35.3-6.7 3.3-2.4 6.5-4.7 9.7-5.9 8.8-3.2 13.2 1.2 13.4 1.4.6.5 1.5 1.5 1 2.1s-1.4-.2-2.3-.7c-1.5-.7-4.3-2.8-11.5-.2-2.8 1-5.4 3.4-8.5 5.7-6.4 4.7-13.9 10.2-24.5 10.2"/></svg>