<svg xmlns="http://www.w3.org/2000/svg" xml:space="preserve" viewBox="0 0 128 128"><path d="M65.26 86.93c-3.21-.07-6.15-1.29-7.94-4.75-2.07-4-1.32-8.38 2.19-12.66 2.49-3.05 4.97-4.49 5.09-4.57.69-.44 1.6-.23 2.03.45.44.69.23 1.6-.45 2.04-.11.07-9.93 6.29-6.25 13.38 2.56 4.94 8.64 3.54 16.99-.09 3.81-1.66 6.93-1.73 9.68-1.79 2.34-.06 4.36-.1 6.57-1.05 4.94-2.12 5.9-6.47 6.9-11.07.53-2.41 1.08-4.91 2.23-7.08 2.37-4.48 5.98-6.94 6.63-7.32.77-.45 1.61-.99 2.11-.34.5.64-.26 1.44-.9 1.94-.04.03-3.1 2.2-5.37 6.65-.94 1.84-1.31 4.47-1.82 6.79-1.07 4.89-2.29 10.43-8.62 13.15-2.73 1.17-5.24 1.23-7.66 1.29-2.6.06-5.29.12-8.57 1.55-3.14 1.36-8.27 3.59-12.84 3.49zm15.73 36.73c-.92-.49-9.54-5.2-17.73-8.48-1.51-.6-3.08-1.16-4.75-1.76-6.68-2.38-14.98-5.33-24.34-13.38-12.49-10.74-13.79-20.6-13.45-25.52.27-3.96 1.88-6.92 3.59-10.05.71-1.32 1.45-2.68 2.11-4.14 1.88-4.24 1.37-10.93 1.36-10.99-.07-.81.54-1.52 1.35-1.59.81-.06 1.52.54 1.59 1.35.02.3.58 7.49-1.61 12.43-.7 1.58-1.47 2.99-2.21 4.36-1.61 2.97-3.01 5.53-3.23 8.85-.24 3.52.48 12.81 12.43 23.08 8.94 7.68 16.63 10.42 23.41 12.83 1.7.6 3.3 1.17 4.86 1.8 8.43 3.38 15.99 8.25 17.08 8.87s2.55 2.07 2.12 2.76c-.29.46-1.66.07-2.58-.42" style="fill:#0284ff"/><path d="M61.49 98.96a24 24 0 0 1-4-.43c-13-2.56-20.72-12.47-18.77-24.1 2.03-12.13 10.65-21.2 11.01-21.58.56-.59 1.5-.6 2.09-.04s.61 1.5.04 2.09c-.08.09-8.35 8.81-10.23 20.02-1.96 11.69 6.84 18.83 16.43 20.72 8.66 1.71 16.55-2.58 22.31-5.71 1.28-.69 2.48-1.35 3.55-1.85 2.62-1.24 5-1.51 7.3-1.77 3.05-.35 6.26-.45 9.96-2.92 4.58-3.07 6.52-8.02 6.54-8.07.28-.87.79-1.98 1.56-1.72.77.27.55 2.04.28 2.81-.38 1.08-1.64 5.57-7.07 9.2-4.29 2.88-7.82 3.28-10.93 3.64-2.16.25-4.2.48-6.37 1.51-.99.47-2.16 1.1-3.4 1.78-5 2.71-12.2 6.62-20.29 6.44z" style="fill:#0284ff"/><radialGradient id="a" cx="47.587" cy="74.741" r="73.31" gradientTransform="rotate(181.278 -5.508 75.047)scale(-1 1)" gradientUnits="userSpaceOnUse"><stop offset=".12" style="stop-color:#c2bdff"/><stop offset=".33" style="stop-color:#bfc8ff"/><stop offset=".78" style="stop-color:#bcddff"/></radialGradient><path d="M33.37 50.56c0 1.61.75 5.83-1.13 10.9-3.17 8.55-15.4 10.93-11.18 24.85 2.3 7.58 7.29 7.83 7.56 8.84s-1.75 15.64 15.98 20.17c16.65 4.25 24.94-10 29.86-11.14 5.07-1.17 4.71 3.92 5.68 8.86.81 4.15 3.18 7.12 7.06 8.83 4.09 1.81 6.57-.56 6.57-.56s3.84 3.05 9.34 1.82c10.23-2.29 9.26-13 8.56-13.12s-5.06 6.51-11.98 3.66c-6.09-2.51-5.54-9.1-4.04-13.1s1.19-8.04-.78-10.2-5.73-.93-5.73-.93.06-6.96-4.32-9.67c-4.38-2.72-10.28 1.02-13.79 4.24-4.94 4.53-10.28 3.49-14.01-1.23-3.36-4.25-3.86-9.8-.09-14.42s6.37-4.49 6.37-4.49-2.99-1.38-5.1-1.73-9.07 2.1-13.89-1.02c-7.2-4.66-7.58-9.58-10.94-10.56" style="opacity:.7;fill:url(#a)"/><radialGradient id="b" cx="47.587" cy="74.741" r="73.31" gradientTransform="rotate(181.278 -5.508 75.047)scale(-1 1)" gradientUnits="userSpaceOnUse"><stop offset=".17" style="stop-color:#c2bdff"/><stop offset=".22" style="stop-color:#bebeff;stop-opacity:.91"/><stop offset=".43" style="stop-color:#b1c6ff;stop-opacity:.52"/><stop offset=".6" style="stop-color:#a7ccff;stop-opacity:.24"/><stop offset=".72" style="stop-color:#a1cfff;stop-opacity:.07"/><stop offset=".78" style="stop-color:#9fd1ff;stop-opacity:0"/></radialGradient><path d="M33.37 50.56c0 1.61.75 5.83-1.13 10.9-3.17 8.55-15.4 10.93-11.18 24.85 2.3 7.58 7.29 7.83 7.56 8.84s-1.75 15.64 15.98 20.17c16.65 4.25 24.94-10 29.86-11.14 5.07-1.17 4.71 3.92 5.68 8.86.81 4.15 3.18 7.12 7.06 8.83 4.09 1.81 6.57-.56 6.57-.56s3.84 3.05 9.34 1.82c10.23-2.29 9.26-13 8.56-13.12s-5.06 6.51-11.98 3.66c-6.09-2.51-5.54-9.1-4.04-13.1s1.19-8.04-.78-10.2-5.73-.93-5.73-.93.06-6.96-4.32-9.67c-4.38-2.72-10.28 1.02-13.79 4.24-4.94 4.53-10.28 3.49-14.01-1.23-3.36-4.25-3.86-9.8-.09-14.42s6.37-4.49 6.37-4.49-2.99-1.38-5.1-1.73-9.07 2.1-13.89-1.02c-7.2-4.66-7.58-9.58-10.94-10.56" style="fill:url(#b)"/><radialGradient id="c" cx="-707.1" cy="992.228" r="49.96" gradientTransform="rotate(-68.98 -1431.62 1727.488)scale(-1 2.53)" gradientUnits="userSpaceOnUse"><stop offset=".05" style="stop-color:#0ebcff"/><stop offset=".27" style="stop-color:#08d1ff"/><stop offset=".44" style="stop-color:#06dcff"/><stop offset=".54" style="stop-color:#05d0ff"/><stop offset=".73" style="stop-color:#03b1ff"/><stop offset=".82" style="stop-color:#029fff"/></radialGradient><path d="M19.82 42.52c-.68-1.6-1.73-8.94 3.35-19.62C28.25 12.23 46.43-4.42 73.35 8.88c25.69 12.69 17.93 41.4 12.78 49.65-4.81 7.71-9 9.59-13.05 9.88-2.68.19-9.85-5.67-12.97-5.94s-11.72.95-15.8-1.36-9.36-9.89-11.15-10.63-10.65-1.65-13.34-7.96" style="fill:url(#c)"/><path d="M42.46 68.27c-1.21-.1-2.14.7-2.24 2.01s.77 2.11 1.9 2.2 2.07-.56 2.21-1.94-.7-2.18-1.87-2.27m-4.12 14.3c-1.38.03-2.06.94-2.07 2.3s1.03 2.04 2.28 2.03 1.97-.9 2-2.2-.92-2.17-2.21-2.13M27.67 72.31c-1.36.1-2.02 1.09-1.94 2.08s.49 1.91 1.85 1.91c1.14 0 1.94-.58 2.03-1.88.09-1.17-.65-2.2-1.95-2.1zm28.42 14.62c-1.26-.02-1.87 1.01-1.8 1.92s.59 1.81 1.72 1.85c1.05.03 1.79-.62 1.89-1.83.08-1.08-.52-1.93-1.8-1.94zM40.27 98.79c-1.24-.1-2.17.67-2.27 1.98s.77 2.13 1.92 2.23 2.11-.56 2.25-1.93-.71-2.18-1.9-2.28m13.25 7.97c-1.07-.09-1.89.61-1.98 1.77s.68 1.86 1.68 1.95c1 .08 1.83-.49 1.95-1.71s-.61-1.92-1.64-2.01zm16.69-13.13c-1.14.28-1.5 1.67-1.17 2.6s1.09 1.72 2.3 1.46c1.09-.23 1.62-1.18 1.36-2.46-.23-1.15-1.26-1.91-2.49-1.6m10-8.12c-1.22-.02-1.81.93-1.74 1.78s.57 1.68 1.67 1.71c1.02.03 1.74-.57 1.83-1.69.08-1-.51-1.78-1.75-1.8z" style="fill:#f5eceb"/><radialGradient id="d" cx="-752.207" cy="1146.808" r="44.79" gradientTransform="matrix(-.4 .9165 1.6589 .7241 -2137.102 -123.002)" gradientUnits="userSpaceOnUse"><stop offset=".36" style="stop-color:#83ffff"/><stop offset=".43" style="stop-color:#77f8ff"/><stop offset=".56" style="stop-color:#5ae7ff"/><stop offset=".72" style="stop-color:#2bccff"/><stop offset=".81" style="stop-color:#0ebcff"/></radialGradient><path d="M31.49 48.33c-1.11-.13-5.12-1.71-5.58-7.97s3.51-9.66 8.85-11.54c3.96-1.4 6.97-3.36 10.57-6 3.32-2.43 9.93-6.34 19.14-1.97 10.54 5 9.66 13.12 10.01 16.76.49 5.15 1.71 7.22 3.63 11.45 1.95 4.29.54 10.51-2.82 13.47-4.01 3.54-10.89 2.07-11.99 1.34s-3.39-1.49-5.1-1.73-11.31.86-13.89-1.02-7.99-8.04-9.08-8.87-3.74-3.92-3.74-3.92" style="fill:url(#d)"/><path d="M35.22 49.29c-4.29-2.66-6.93-1.78-10.05-3.78-4.54-2.91-3.79-5.86-5.03-5.42-1.12.4-.65 6.62 4.72 9.56 5.37 2.93 6.62 1.18 9.63 3.93 3 2.76 3.14 6.71 10.08 9.36 6.15 2.36 10.49-.08 14.33.85 5.07 1.23 3.21 3.68 9.02 5.03 4.53 1.05 8.44-.6 8.21-1.36s-3.56.29-7.3-1.54c-2.65-1.3-4.91-4.28-8.05-5.17-6.28-1.79-9.93 1.47-16.04-1.79-6.12-3.26-4.69-6.68-9.5-9.66z" style="fill:#0284ff"/><path d="M50.99 9.07c.2 1.88 2.24 1.87 3.33 1.83 1.3-.05 3.46-.57 3.24-2.62-.16-1.5-1.45-2.05-3.38-1.95-1.79.09-3.38 1.02-3.19 2.74m-16.02 4.32c6.39-5.02 9.89-5.11 11.07-4.95 1.09.14 2.28.94 1.96 2.38s-1.81 1.79-2.91 2.18-2.97.82-7.18 4c-3.22 2.44-6.21 6.68-7.62 7.75-.76.57-2.99.35-2.52-2.21s3.33-6.1 7.21-9.14z" style="fill:#f4fcff"/><path d="M49.12 121.09c-5.82-.13-16.14-1.87-22.19-12.52-7.33-12.9-1.97-21.57 3.01-29.81 1.94-3.21 3.78-6.24 4.92-9.55 3.04-8.81 2.01-13.91 2-13.96-.17-.79.33-1.58 1.13-1.75.79-.18 1.78 1.16 1.86 1.97.1 1.04 1.14 5.02-2.2 14.7-1.24 3.6-3.24 6.91-5.18 10.12-4.75 7.85-9.23 15.27-2.76 26.66 7.81 13.73 21.27 11.53 22.23 11.5.81-.03 2.72-.15 2.87.65s-.92 1.46-1.72 1.62c-.06.01-1.29.43-3.97.37" style="fill:#0284ff"/><path d="M74.54 110.16c-4.08-.09-8.59-1.01-13.66-3.11-12.28-5.09-17.93-18.17-17.02-27.88 1.04-11.08 7.58-17.51 7.86-17.78.59-.57 1.52-.55 2.09.03.57.59.55 1.52-.03 2.08-.1.1-6.04 6.03-6.97 15.94-.65 6.91 3.09 19.41 15.4 24.52 16.71 6.94 26.48.33 35.25-5.81 3.35-2.34 6.51-4.56 9.71-5.64 8.86-3 13.15 1.44 13.36 1.63.6.55 1.44 1.54.89 2.14s-1.36-.24-2.22-.71c-1.46-.8-4.27-2.89-11.41-.47-2.8.95-5.47 3.25-8.65 5.47-6.45 4.51-14.04 9.82-24.6 9.59" style="fill:#0284ff"/></svg>