<svg xmlns="http://www.w3.org/2000/svg" width="1em" height="1em" viewBox="0 0 128 128"><path fill="#696E72" d="M104.4 64.28s8.12-.05 8.31 1.55c.13 1.06-1.83 21.96-1.83 21.96s6.18 3.14 7.46 3.94c1.5.94 2.25 2.25 1.69 3.38s-1.69 1.41-3.24.7c-1.55-.7-11.4-3.8-11.83-4.79s.14-17.6.14-17.6zM92.67 41.8s3.14-3.37 4.27-3.1c1.55.38 5.96 6.9 7.09 8.87l3.8 6.62s7.32-1.41 9.15-1.69s3.8.42 3.94 2.25c.14 1.83-2.67 2.67-5.07 3.1c-2.39.42-9.57 2.11-10.28 1.55c-.7-.57-12.9-17.6-12.9-17.6M33.02 85.39l1.97 6.19l-2.39 3.1s9.15 11.97 9.01 13.37c-.14 1.41-9.71 11.26-10.56 11.97c-.84.7-2.98 1.67-3.8.42c-1.08-1.64.28-3.52 1.41-4.79l6.76-7.6s-9.1-10.73-9.57-13.8c-.29-1.82 7.17-8.86 7.17-8.86M31.05 58.5s-6.43-2.35-8.17-1.27c-1.99 1.23-1.08 25.39-1.08 25.39s-8.07 5.02-9.06 5.58s-1.69 1.83-.99 2.96s2.39.84 4.5 0s8.65-3.52 9.71-4.5c1.78-1.64 1.08-21.02 1.08-21.02l3.14-.66zm26.05-9.43L82.3 32.6s5.35-12.67 5.35-13.8c0-1.13-7.6-9.43-7.6-9.43S83 6.13 81.31 5.01c-1.69-1.13-6.66 4.13-6.48 5.63c.11.84 7.18 9.29 7.18 9.29l-5.49 10.98s-6.62-.42-7.6-1.13s-.61-3.61-2.82-4.93c-1.74-1.04-3.66-1.27-3.66-1.27s-.42-2.67.99-4.79s7.2-8.27 5.82-10.98c-1.6-3.14-4.06-1.96-4.55-.47c-.47 1.41 1.13 3 1.13 3s-4.79 5.49-5.91 8.02s-.7 5.91-.7 5.91s-6.76-1.45-10.56-.33c-3.8 1.13-7.46 6.52-7.46 6.52s-3.1-3.38-5.07-4.36s-3.38-.42-6.34-1.83s-3.66-2.53-3.66-2.53s.29-1.36-.28-2.39c-.57-1.04-2.35-1.5-3.61-.7c-1 .63-1.1 2.41-.6 3.47c.56 1.18 2.11 1.32 2.11 1.32s2.06 2.53 5.02 3.52c3.14 1.05 3.85.84 5.96 1.69s3.1 3.1 3.1 3.1s-1.41 1.83-1.55 3.8c-.13 1.87.42 7.6.42 7.6l-5.21 5.91s-8.35-4.6-8.73-5.4c-.38-.8 1.22-12.15-.14-13.47c-1.65-1.59-8.17-5.77-8.73-3.1c-.56 2.67 4.79 5.07 4.79 5.07s-1.45 12.15-.7 13.94c.75 1.78 12.95 9.71 12.95 9.71z"/><path fill="#FE1D1E" d="m57.52 42.74l-27.6 10.13s-5.21 12.81.84 32.38c5.41 17.48 26.15 35.29 52.09 27.73c26.89-7.84 27.03-49.7 18.58-63.35C93.32 36.51 82.29 32.6 82.29 32.6z"/><ellipse cx="59.88" cy="26.05" fill="#2F2F2F" rx="2.7" ry="3.43" transform="rotate(-84.888 59.883 26.051)"/><ellipse cx="41.21" cy="32.34" fill="#2F2F2F" rx="3.43" ry="2.7" transform="rotate(-36.37 41.201 32.336)"/><path fill="#D62F34" d="M59.91 53.25S70.8 80.05 71.83 83.1c1.02 3.01 9.06 26.8 9.48 28.06s.66 2.25 2.06 1.78c1.55-.52.89-1.92.47-3.05c-.42-1.13-7.24-24.74-8.26-27.87c-2.21-6.76-11.17-31.39-11.17-31.39z"/><path fill="#2F2F2F" d="M53.29 31.33c-8.31 2.82-13.09 9.01-14.22 11.12c-1.13 2.11-4.5 1.55-4.5 1.55s-2.11 1.74-3.47 4.22c-1.06 1.93-1.31 4.79-1.31 4.79s10.98-1.17 16.89-.61s16.47 2.44 16.47 2.44s5.96-8.54 10.28-12.95c2.72-2.78 9.95-8.92 9.95-8.92s-2.86-2.11-4.97-2.53c-1.67-.33-5.3-.8-7.04.19c-.15 0-9.47-2.21-18.08.7"/><path fill="#FFEBC1" d="M40.11 45.83c2.22-2.29-.66-6.76-2.91-6.66c-2.25.09-2.16 1.6-2.72 2.91s-1.51 1.84-1.31 3.28c.18 1.41 3.56 3.95 6.94.47m27.03-11.92c3.94 2.44 6.66-1.31 6.85-3.19s-2.91-2.16-3.85-2.72s-2.44-2.63-3.85-.47c-1.4 2.16-1.39 5 .85 6.38"/><ellipse cx="55.13" cy="73.18" fill="#2F2F2F" rx="9.58" ry="9.32"/><ellipse cx="81.47" cy="65.29" fill="#2F2F2F" rx="8.68" ry="8.75"/><ellipse cx="91.36" cy="51.02" fill="#2F2F2F" rx="6.25" ry="6.99" transform="rotate(-34.33 91.368 51.013)"/><ellipse cx="35.9" cy="67.71" fill="#2F2F2F" rx="6.39" ry="7.19"/><ellipse cx="59.84" cy="94.37" fill="#2F2F2F" rx="7.91" ry="8.33" transform="rotate(-5.75 59.862 94.402)"/><ellipse cx="89.07" cy="84.24" fill="#2F2F2F" rx="8.02" ry="7.52" transform="rotate(-87.593 89.074 84.237)"/></svg>