<svg xmlns="http://www.w3.org/2000/svg" xml:space="preserve" viewBox="0 0 128 128"><path d="m73.2 57 9.3-14.1c1.3-2 3.4-3.4 5.7-3.9 2.7-.6 6.6-1.9 9.4-5.2 5-5.7 7.7-9.5 7.7-9.5l-2.3-2s-5.9 5.7-8.4 7.9c-2.1 1.8-4.4 3.1-8.9 3.4-1.6.1-2.9-1.1-2.9-2.7 0-2.2-.1-4.6-.2-6.2 0-1.1.3-2.2 1-3.1l2.4-3-2-1.3-3.2 3.8c-.8.9-2.2 1.2-3.2.6l-6-3.5-.9 1.8 5.3 3.7c1.1.8 1.7 2.1 1.7 3.5v8.4L64.3 50.2l8.8 6.9zM53 21.2c0-.3-.2-6.1-.4-9.7 0-1.8.5-3.6 1.7-5l.9-1.1-2.1-1.3-3.9 3.8c-1.7 1.7-2.7 3.9-2.8 6.3l-.5 13zm6.6 57.2L39.9 66.6l2-11.7-2.6-1.8-5.4 11.7c-.5 1.1-1.6 1.9-2.9 2l-6.9.5c-1.9.1-3.9-.5-5.4-1.7L6.7 56l-2 1.9 10.2 10.7c.5.6.2 1.5-.6 1.6l-7.6 1 .3 2.2 22.6-1c3.4-.1 6.8 1.1 9.3 3.4 6.3 5.7 17.9 16.1 18 15.8 0-.5 2.8-13.2 2.8-13.2z" style="fill:#6c4a41"/><path d="M53.7 121.3c-.3 3.4 23.5 3.8 23.1-.1-.2-1.7-.5-14.7-.5-14.7 0-2.1.8-4.2 2.2-5.8l18.2-21.3c1.5-1.7 3.1-3.3 5-4.6 2.8-2 6.9-4.9 8.2-5.8 2-1.3 4.8-.9 5.9-.3s6 2.2 6 2.2l1.6-2.2s-5.9-3.4-7.3-4.3c-3.1-1.8-7.3-1-9.6.3-2.7 1.5-7 4.2-7 4.2s-.3-5.1-.5-8.3c0-1.2.3-2.5 1-3.5 2.2-3 6.7-9 6.7-9l-2.2-1.6s-6.4 5.5-7.8 7.1c-.8 1-3 2.1-4.4.6-1.2-1.3-4.5-4.2-4.5-4.2l-1.7 1.4 5.5 6.8c.5.6.8 1.4.8 2.1v11.6c.1 0-14.6 15-16.5 16.8-.3-14 3.9-14.3 3.7-22.1-.2-5.5-4.5-9.8-6.6-12.1-1.7-1.9-10.3-10.4-14-13.9-.9-.9-2.3-2.2-2.6-4.2-.3-1.8-.8-4.3-1-5.8-.5-2.6.6-4.9 2.1-7 1.3-1.8 5.5-7.9 6.8-9.4s3.2-3.4 5.6-4.1 9.5-3.7 9.5-3.7l-.8-1.9S68.4 7 67 7.4s-3.5 1-6 3.6-11.9 10.6-13.1 11.7c-1.3 1.1-3.5 3.2-3.5 6.1s.7 9.5.7 9.5L34 37.5c-2.1 0-5.5-1.3-6.9-2.8L19 25.8l-2.6 2.1 6.4 9.7-15 3.7.4 2.3s10.1-1.3 12.2-1.6 7.3.4 13.5 1.4c6.5 1 10.9.8 16.9 8.1 1.4 1.7 5.1 6.5 7.9 10.2 2.1 2.7 2.6 6.3 1.4 9.5-2.6 7-6.5 10.9-5.8 21.5.5 6.7-.5 26.4-.7 28.3z" style="fill:#875c51"/></svg>