<svg viewBox="0 0 128 128"><path fill="#8bc12d" d="M100.7 71.5C99 71 96.5 76 87.3 75.8s-27-6.4-40.2 5c-12.7 10.8-6 23.9-8.8 25-2.6 1.2-6.2 0-7.6-1s-4-2.5-4.5-2.5-3.3 1.9-3.2 4.6a4 4 0 0 0 2.7 3.9c.6.1 4.3-1.3 8-.5s5.6 1.8 6.3 2.5 9.3 11.5 23.6 11 27-8.7 33.6-25c6-15 5-27 3.5-27.3"/><path fill="#599724" d="M76.5 90.2c-6.4 2-14 3.1-19.2 6-5.3 2.8-11.8 8-9 10.6s7.3-5.4 17.2-8.5c10-3.2 14-4.8 17.6-7.1s7-7.2 6-7.8c-1.1-.6-4.3 4.1-12.6 6.8"/><path fill="#b1e4fe" d="M91.5 40.5S90.3 39.3 88 38q-4-2.4-11.3-3.8C69.8 32.9 61 32.6 53 39.5a19 19 0 0 0-3.9 23.6c2.6 4.6 7.4 9.4 6.6 10.1-1.1 1-7.1-1.5-11.5-7a23.4 23.4 0 0 1 .9-30.4c8.9-10 23-10.3 31.4-8.8 12.5 2 19.7 8.8 19.7 8.8z"/><radialGradient id="a" cx="33.4" cy="27.7" r="60.8" gradientUnits="userSpaceOnUse"><stop offset=".4" stop-color="#d9f3fb"/><stop offset=".6" stop-color="#d4f1fb"/><stop offset=".8" stop-color="#c6ecfc"/><stop offset="1" stop-color="#b1e4fe"/></radialGradient><path fill="url(#a)" d="M95.4 35c6 3.8 10.7 10.3 8.8 17.8-2.6 10.5-27.2 6.7-33.6 5S36.4 49 36 26.2s32.5-24 32-21.7c-.4 2-18.2 2.7-20.7 14S54.9 36 62 40.1s21.4 7 27 7q4.6.1 5-2.1c.2-1.2-.3-2.4-2.6-4.6z"/><path fill="#b1e4fe" d="m91.5 38.6-4.2-8.4s2.4 1 6.7 3.6l3.7 2.9z"/></svg>