<svg xmlns="http://www.w3.org/2000/svg" width="1em" height="1em" viewBox="0 0 128 128"><path fill="#FD7D84" d="M64.2 113.5c1.45.13 2.18-4.6 4.48-6.42c2.3-1.82 8.59-6.17 10.65-9.2c2.06-3.03 1.94-5.93 1.94-5.93s1.71 5.37 11.23 5.71c8.3.3 14.55-4.38 19.76-5.95s9.32-.85 9.32-1.82s-2.42-4.36-4.84-5.81c-2.42-1.45-14.53-9.67-14.53-9.67s2.9-1.11 6.05-7.28s5.93-12.35 8.11-16.34c2.18-3.99 2.91-4.6 3.87-5.33s3.27-1.69 3.27-2.18s-.97-1.45-2.91-1.45s-20.82 3.87-20.82 3.87s.33-2.37.09-6.85s-.94-10.09-.94-12.03s.73-6.05.48-6.29s-5.57 1.45-5.57 1.45l-15.5 12.95l-7.63-9.2s-5.45-9.81-7.38-10.17c-1.94-.36-7.87 11.98-7.87 11.98l-6.17 8.47L29.08 20.6s-1.31.04-.72 1.87c.47 1.46.52 4.13-.69 7.27c-1.45 3.78-3.33 7.74-3.1 11.92c.18 3.28 1.6 6.35 1.6 6.35s-24.09-4.6-24.7-3.75c-.61.85 0 1.94 2.42 3.75s4.72 3.39 6.54 5.45s5.81 8.35 8.23 12.35c2.42 3.99 3.99 5.57 6.05 7.51s7.87 5.57 7.87 5.57L13.7 87.97l-3.99 4.6s-.24.85.61.97s2.3-.73 4.96-.24s12.11 5.93 20.94 4.72c10.87-1.49 12.35-5.08 12.35-5.08s.85 3.27 4.48 7.26c3.63 3.99 7.51 7.14 8.47 8.59c.98 1.45 1.34 4.59 2.68 4.71"/><radialGradient id="notoLotus0" cx="65.012" cy="81.918" r="15.682" gradientUnits="userSpaceOnUse"><stop offset=".321" stop-color="#FFC5AC"/><stop offset=".999" stop-color="#FEA8A7"/></radialGradient><path fill="url(#notoLotus0)" d="M51.42 81.92s-2.76 6.07.41 10.49s7.45 7.45 9.11 9.52c1.66 2.07 2.9 5.38 3.73 5.38c.83 0 3.45-5.52 6.21-7.59c2.76-2.07 8.97-5.8 8.42-11.46c-.55-5.66-4.14-10.08-4.14-10.08l-22.22-4.42z"/><radialGradient id="notoLotus1" cx="84.622" cy="74.424" r="24.341" gradientUnits="userSpaceOnUse"><stop offset=".279" stop-color="#FFC5AC"/><stop offset=".999" stop-color="#FEA8A7"/></radialGradient><path fill="url(#notoLotus1)" d="M78.7 77.64s-.28 9.63 8.19 11.5c10.15 2.25 10.97-4.36 20.36-4.45c9.39-.09 14.32 5.21 14.32 5.21s-1.89-6.33-10.38-11.89c-5.34-3.5-8.93-3.59-8.93-3.59s-3.54 2.16-8.65 3.77c-3.5 1.1-8.93 1.01-8.93 1.01z"/><radialGradient id="notoLotus2" cx="44.291" cy="73.439" r="30.296" gradientUnits="userSpaceOnUse"><stop offset=".272" stop-color="#FFC5AC"/><stop offset=".999" stop-color="#FEA8A7"/></radialGradient><path fill="url(#notoLotus2)" d="M39.86 78.1s-2.96.75-9.3-1.38c-3.91-1.31-6.14-3.69-6.14-3.69s-4.9.75-8.77 6.36c-3.87 5.61-4.51 9.76-4.97 10.77c-.46 1.01-1.09 2.05-.96 2.41c.24.71 5.29-4.99 13.94-6.27s10.78 3.34 18.87.64c4.42-1.47 6.07-4.88 6.07-4.88s.46-1.93-2.39-3.22c-1.81-.83-6.35-.74-6.35-.74"/><radialGradient id="notoLotus3" cx="63.438" cy="40.437" r="19.673" gradientUnits="userSpaceOnUse"><stop offset=".62" stop-color="#FFC5AC"/><stop offset=".999" stop-color="#FEA8A7"/></radialGradient><path fill="url(#notoLotus3)" d="M56.93 30.9s.15-2.71 2.71-7.74c1.17-2.31 3.56-5.49 3.56-5.49s2.24 2.79 3.95 5.73s3.56 6.65 3.56 6.65l-4.33 4.72l-6.96.46z"/><radialGradient id="notoLotus4" cx="34.487" cy="45.572" r="18.109" gradientUnits="userSpaceOnUse"><stop offset=".182" stop-color="#FED1B1"/><stop offset=".999" stop-color="#FEA8A7"/></radialGradient><path fill="url(#notoLotus4)" d="M36.99 60.51s-5.83-9.27-6.34-10.57c-.44-1.1-2.14-4.72-1.92-10.33s2.37-8.26 2.06-13.5c-.27-4.57-1.71-5.52-1.71-5.52s5.06.05 11.98 5.37s8.24 10.06 8.24 10.06l-4.01 18.22z"/><radialGradient id="notoLotus5" cx="87.611" cy="41.802" r="16.443" gradientUnits="userSpaceOnUse"><stop offset=".182" stop-color="#FED1B1"/><stop offset=".999" stop-color="#FEA8A7"/></radialGradient><path fill="url(#notoLotus5)" d="M74.74 39.38s2.19-10.2 10.42-14.94s14.18-4.17 14.27-3.91s-3.87 3.83-4.16 10.03c-.29 6.19.78 10.27.1 15.23c-.46 3.35-1.65 7.53-1.65 7.53l-4.91 2.89z"/><radialGradient id="notoLotus6" cx="89.354" cy="65.459" r="27.651" gradientUnits="userSpaceOnUse"><stop offset=".279" stop-color="#FFC5AC"/><stop offset=".999" stop-color="#FEA8A7"/></radialGradient><path fill="url(#notoLotus6)" d="m92.88 69.4l-2.99-6.49l1.17-9.77s3.5-5.47 12.32-9.55s17.71-2.33 18.95-1.82s1.19 1.51 1.19 1.51l-4.32.39l-6.34 5.83l-8.6 10.35l-6.19 7.51l-3.94 1.24z"/><path fill="#FFEAC8" d="M89.27 69.83s5.11 2.09 9.6-2.01c3.68-3.36 9.98-11.99 12.38-15.01c2.15-2.71 5.57-6.35 7.74-7.58c2.49-1.43 4.42-1.3 4.53-1.93c.11-.63-1.3-1.37-3.52-.7c-3.1.93-6.64 4.31-10.99 9.75c-4.64 5.8-11.53 14.24-13.85 15.01c-2.33.76-5.89 2.47-5.89 2.47"/><radialGradient id="notoLotus7" cx="38.305" cy="66.437" r="28.309" gradientUnits="userSpaceOnUse"><stop offset=".279" stop-color="#FFC5AC"/><stop offset=".999" stop-color="#FEA8A7"/></radialGradient><path fill="url(#notoLotus7)" d="M36.9 60.86s-2.53-11-12.23-14.56c-12.4-4.55-23.07-2.86-23.21-2.13s6.59 3.88 6.59 3.88l9.26 6.19l11.08 11.59l4.01 1.97l5.03 1.17z"/><path fill="#FDEBC8" d="M35.88 68.43s-1.27 3.1-6.76-1s-10.25-10.6-15.67-14.47S1.81 46.3 1.32 45.3c-.35-.71-.26-1.55.97-1.16s7.1 3.01 12.9 7.34c5.37 4.01 10.92 10.33 14.79 13.12s5.9 3.83 5.9 3.83"/><radialGradient id="notoLotus8" cx="65.41" cy="46.498" r="17.849" gradientTransform="matrix(-.0444 -.999 1.4521 -.0645 .795 114.845)" gradientUnits="userSpaceOnUse"><stop offset=".471" stop-color="#FFC5AC"/><stop offset=".909" stop-color="#FEA8A7"/></radialGradient><path fill="url(#notoLotus8)" d="M46.1 41.56s.8-6.34 3.06-10.64c1.22-2.31 3.57-5.9 4.08-5.83s4.08 4.01 5.68 5.32c1.6 1.31 4.45 3.86 4.45 3.86s4.01-4.15 5.61-6.05c1.6-1.89 2.55-4.3 3.43-4.37c.87-.07 3.79 4.66 5.39 7.21s4.3 9.84 4.3 9.84z"/><path fill="#FEA826" d="M48.74 53.79s8.15-2.58 16.72-3.05s18.18 1.7 18.18 1.7l-2.17 7.74l-15.72 1.41l-16.25-1.93z"/><path fill="#FFD51D" d="M64.75 35.79c16.37-.17 22.82 5.57 22.82 5.57l2.05 4.99l-6.86 6.34s-7.69 1.93-17.07 2.11c-9.03.18-20.41-2.29-20.41-2.29l-3.52-8.74c0-.01 4.05-7.78 22.99-7.98"/><path fill="#FD8C03" d="M57.4 39.56c-1.57.06-3.02 1.16-2.74 2.31c.3 1.26 1.22 1.79 3.09 1.79c1.87 0 2.7-1.31 2.7-2.13s-.87-2.06-3.05-1.97m11.82 1.55c.04 1.22 1.18 2.13 2.96 2.05c1.79-.09 2.57-.96 2.53-2.18c-.04-1.22-1.44-1.96-2.66-1.92c-1.21.04-2.88.65-2.83 2.05m3.26 7.12c0 1.48 1.48 1.83 2.7 1.87c1.22.04 2.75-.57 2.7-1.92c-.04-1.26-1.3-1.83-2.7-1.83c-1.35.01-2.7.66-2.7 1.88m4.48-4.89c-.04 1.27 1.57 1.66 2.66 1.61c1.09-.04 2.31-.35 2.35-1.7c.04-1.31-1.22-1.7-2.53-1.7c-1.13.01-2.43.44-2.48 1.79m-24.83 5.54c.05 1.26 1.18 1.96 2.44 1.92s2.35-1.13 2.22-2.09s-1.09-1.83-2.4-1.79c-1.3.05-2.3.74-2.26 1.96m-4.73-5.8c0 1.13 1.04 1.7 2.61 1.66c1.44-.04 2.57-.48 2.53-1.74c-.04-1.23-1.22-1.61-2.66-1.57c-1.43.04-2.48.65-2.48 1.65"/><path fill="#FAEAC7" d="M44.72 40.82s-1.39-1.09-2.54-2.06c-.95-.81-2.24-1.84-2.5-2.28c-.26-.44-.84-1.01-1.45-.62s-.31 2.64-.31 2.64l1.14 21.63l20.49 20.14l10.95.45l19.96-20.57l-.14-3.95l1.25-18.08s-.64-.9-2.28.26c-1.32.93-3.21 1.98-3.21 1.98l1.5.99s-3.37 2.52-5.8 6.45c-2.43 3.93-3.7 10.58-3.7 10.58s-5.31-5.91-7.4-9.05c-2.09-3.14-4.26-7.51-5.53-7.44c-1.27.07-1.98 3.89-3.81 6.62s-7.25 10.02-7.25 10.02s-3.1-7.74-5.61-11.03s-4.97-5.72-4.97-5.72z"/><radialGradient id="notoLotus9" cx="86.596" cy="51.05" r="10.111" gradientUnits="userSpaceOnUse"><stop offset=".279" stop-color="#FDA8A7"/><stop offset=".999" stop-color="#FE848A"/></radialGradient><path fill="url(#notoLotus9)" d="M80.87 64.02s-1.44-8.74 2.08-14.54c3.98-6.54 6.53-7.99 7.33-9.05c1.31-1.73 1.05-2.4 1.21-2.35c.47.15 1.56 1.8.91 8.54S90.98 58.3 90.98 58.3l-.76-1.09s-.53-.44-1.31-.02s-3.92 3.23-4.71 3.97s-3.33 2.86-3.33 2.86"/><radialGradient id="notoLotusa" cx="45.045" cy="49.869" r="10.806" gradientUnits="userSpaceOnUse"><stop offset=".279" stop-color="#FDA8A7"/><stop offset=".999" stop-color="#FE848A"/></radialGradient><path fill="url(#notoLotusa)" d="m51.16 63l1.7-2.75s-2.16-6.06-5.72-11.47c-2.8-4.25-4.47-5.4-6.13-7.53c-2.1-2.69-3.13-4.52-3.13-4.52s-.46 3.36-.58 6.11c-.12 2.87-.16 5.82.48 9.92c.4 2.61.91 4.31.91 4.31l.13-.28s.3-.93 1.4-.9c1.32.04 2.54 1.57 5.37 3.52S51.16 63 51.16 63"/><radialGradient id="notoLotusb" cx="66.255" cy="62.997" r="15.762" gradientUnits="userSpaceOnUse"><stop offset=".279" stop-color="#FDA8A7"/><stop offset=".999" stop-color="#FE848A"/></radialGradient><path fill="url(#notoLotusb)" d="M65.48 44.76c-.43-.05-1.72 4.29-4.07 7.4s-4.21 5.32-5.75 7.9c-1.53 2.59-2.23 4.64-2.23 4.64s2.7 2.38 4.67 5.46c1.51 2.35 3.31 6.44 3.54 8c.15 1.01-.15 1.96-.67 2.1c-.05.01-.33-.05-.37-.03c-.27.16-.07.59-.07.59s1.97.39 3.55.39c1.58 0 3.97-.37 3.97-.37l.1-.87s-.67-.19-.77-.69c-.11-.56-.1-1.37 1.24-3.57s3.45-5.03 5.51-6.9c2.06-1.87 4.93-3.74 4.93-3.74s-1.15-3.02-3.21-6.13s-5.17-5.94-6.51-8c-1.32-2.03-3.43-6.13-3.86-6.18"/><radialGradient id="notoLotusc" cx="81.312" cy="69.468" r="12.864" gradientUnits="userSpaceOnUse"><stop offset=".279" stop-color="#FDA8A7"/><stop offset=".999" stop-color="#FE848A"/></radialGradient><path fill="url(#notoLotusc)" d="M90.22 57.23s-1.28 2.82-4.25 5.48c-2.96 2.67-6.62 5.04-9.98 8.4c-3.36 3.36-7.84 8.88-7.84 8.88l-.31.8s3.95 2.02 12.89.05S95 71.85 94.76 67.16c-.24-4.69-4.54-9.93-4.54-9.93"/><radialGradient id="notoLotusd" cx="46.743" cy="69.386" r="13.436" gradientUnits="userSpaceOnUse"><stop offset=".279" stop-color="#FDA8A7"/><stop offset=".999" stop-color="#FE848A"/></radialGradient><path fill="url(#notoLotusd)" d="M39.4 56.54c.73.1 2.12 2.57 4.69 4.64s7.66 5.19 10.96 9.29c3.31 4.1 5.68 9.84 5.68 9.84l-.14.54s-7.76 3-15.51.19s-11.51-9.88-12.2-13.98s1.43-6.96 3.9-8.59c1.7-1.12 1.88-2.03 2.62-1.93"/></svg>