<svg viewBox="0 0 128 128"><path fill="#fd7d84" d="M64.2 113.5c1.5.1 2.2-4.6 4.5-6.4s8.6-6.2 10.6-9.2 2-6 2-6 1.7 5.4 11.2 5.8c8.3.3 14.6-4.4 19.8-6s9.3-.8 9.3-1.8-2.4-4.4-4.9-5.8-14.5-9.7-14.5-9.7 3-1.1 6-7.3 6-12.3 8.2-16.3 2.9-4.6 3.8-5.3 3.3-1.7 3.3-2.2-1-1.5-2.9-1.5-20.8 3.9-20.8 3.9.3-2.4 0-6.9-.9-10-.9-12 .8-6 .5-6.3-5.6 1.5-5.6 1.5L78.3 35l-7.6-9.3s-5.4-9.8-7.4-10.1c-2-.4-7.8 12-7.8 12L49.3 36 29 20.6s-1.3 0-.7 1.9a12 12 0 0 1-.7 7.2c-1.5 3.8-3.4 7.8-3.1 12 .1 3.2 1.6 6.3 1.6 6.3S2 43.4 1.5 44.3s0 1.9 2.4 3.7 4.7 3.4 6.5 5.5 5.8 8.3 8.3 12.3c2.4 4 4 5.6 6 7.5s7.9 5.6 7.9 5.6l-18.9 9-4 4.7s-.2.8.6 1 2.3-.8 5-.3 12 6 21 4.7c10.8-1.5 12.3-5 12.3-5s.8 3.2 4.4 7.2 7.6 7.1 8.5 8.6c1 1.4 1.4 4.6 2.7 4.7"/><radialGradient id="a" cx="65" cy="81.9" r="15.7" gradientUnits="userSpaceOnUse"><stop offset=".3" stop-color="#ffc5ac"/><stop offset="1" stop-color="#fea8a7"/></radialGradient><path fill="url(#a)" d="M51.4 82s-2.7 6 .4 10.4 7.5 7.5 9.1 9.5 3 5.4 3.8 5.4 3.4-5.5 6.2-7.6 9-5.8 8.4-11.4-4.1-10.1-4.1-10.1l-22.3-4.4z"/><radialGradient id="b" cx="84.6" cy="74.4" r="24.3" gradientUnits="userSpaceOnUse"><stop offset=".3" stop-color="#ffc5ac"/><stop offset="1" stop-color="#fea8a7"/></radialGradient><path fill="url(#b)" d="M78.7 77.6s-.3 9.7 8.2 11.5c10.1 2.3 11-4.3 20.3-4.4s14.4 5.2 14.4 5.2-2-6.3-10.4-11.9c-5.4-3.5-9-3.6-9-3.6s-3.5 2.2-8.6 3.8c-3.5 1-9 1-9 1z"/><radialGradient id="c" cx="44.3" cy="73.4" r="30.3" gradientUnits="userSpaceOnUse"><stop offset=".3" stop-color="#ffc5ac"/><stop offset="1" stop-color="#fea8a7"/></radialGradient><path fill="url(#c)" d="M39.9 78.1s-3 .8-9.3-1.4c-4-1.3-6.2-3.7-6.2-3.7s-4.9.8-8.7 6.4-4.6 9.7-5 10.8-1.1 2-1 2.4c.3.7 5.3-5 14-6.3s10.7 3.3 18.8.6c4.5-1.4 6.1-4.8 6.1-4.8s.5-2-2.4-3.3c-1.8-.8-6.3-.7-6.3-.7"/><radialGradient id="d" cx="63.4" cy="40.4" r="19.7" gradientUnits="userSpaceOnUse"><stop offset=".6" stop-color="#ffc5ac"/><stop offset="1" stop-color="#fea8a7"/></radialGradient><path fill="url(#d)" d="M57 30.9s0-2.7 2.6-7.7c1.2-2.4 3.6-5.5 3.6-5.5s2.2 2.8 4 5.7 3.5 6.6 3.5 6.6l-4.3 4.8-7 .4z"/><radialGradient id="e" cx="34.5" cy="45.6" r="18.1" gradientUnits="userSpaceOnUse"><stop offset=".2" stop-color="#fed1b1"/><stop offset="1" stop-color="#fea8a7"/></radialGradient><path fill="url(#e)" d="M37 60.5s-5.8-9.3-6.3-10.6c-.5-1-2.2-4.7-2-10.3s2.4-8.3 2-13.5c-.2-4.6-1.6-5.5-1.6-5.5s5 0 12 5.4 8.2 10 8.2 10l-4 18.2z"/><radialGradient id="f" cx="87.6" cy="41.8" r="16.4" gradientUnits="userSpaceOnUse"><stop offset=".2" stop-color="#fed1b1"/><stop offset="1" stop-color="#fea8a7"/></radialGradient><path fill="url(#f)" d="M74.7 39.4s2.2-10.2 10.5-15 14.1-4.1 14.2-3.9-3.8 3.9-4.1 10c-.3 6.3.7 10.3 0 15.3a66 66 0 0 1-1.6 7.5l-4.9 3z"/><radialGradient id="g" cx="89.4" cy="65.5" r="27.7" gradientUnits="userSpaceOnUse"><stop offset=".3" stop-color="#ffc5ac"/><stop offset="1" stop-color="#fea8a7"/></radialGradient><path fill="url(#g)" d="m92.9 69.4-3-6.5 1.2-9.8s3.5-5.4 12.3-9.5 17.7-2.3 19-1.8 1.1 1.5 1.1 1.5l-4.3.4-6.3 5.8-8.6 10.4-6.2 7.5-4 1.2z"/><path fill="#ffeac8" d="M89.3 69.8s5 2.1 9.6-2c3.6-3.3 10-12 12.3-15 2.2-2.7 5.6-6.3 7.8-7.6 2.5-1.4 4.4-1.3 4.5-1.9s-1.3-1.4-3.5-.7q-4.5 1.5-11 9.7a79 79 0 0 1-13.8 15c-2.4.8-6 2.5-6 2.5"/><radialGradient id="h" cx="38.3" cy="66.4" r="28.3" gradientUnits="userSpaceOnUse"><stop offset=".3" stop-color="#ffc5ac"/><stop offset="1" stop-color="#fea8a7"/></radialGradient><path fill="url(#h)" d="M36.9 60.9s-2.5-11-12.2-14.6c-12.4-4.5-23.1-2.9-23.2-2.1S8 48 8 48l9.3 6.2 11 11.6 4.1 2 5 1.2z"/><path fill="#fdebc8" d="M35.9 68.4s-1.3 3.1-6.8-1S19 56.8 13.5 53 1.8 46.3 1.3 45.3c-.3-.7-.2-1.5 1-1.2s7 3 12.9 7.4c5.4 4 11 10.3 14.8 13.1s5.9 3.8 5.9 3.8"/><radialGradient id="i" cx="65.4" cy="46.5" r="17.8" gradientTransform="matrix(-.0444 -.999 1.4521 -.0645 .795 114.845)" gradientUnits="userSpaceOnUse"><stop offset=".5" stop-color="#ffc5ac"/><stop offset=".9" stop-color="#fea8a7"/></radialGradient><path fill="url(#i)" d="M46.1 41.6s.8-6.4 3-10.7c1.3-2.3 3.6-5.9 4.1-5.8s4.1 4 5.7 5.3l4.5 3.9 5.6-6c1.6-2 2.5-4.4 3.4-4.4.9-.1 3.8 4.6 5.4 7.2s4.3 9.8 4.3 9.8z"/><path fill="#fea826" d="M48.7 53.8s8.2-2.6 16.8-3 18.1 1.6 18.1 1.6l-2.1 7.8-15.7 1.4-16.3-2z"/><path fill="#ffd51d" d="M64.8 35.8c16.3-.2 22.8 5.6 22.8 5.6l2 5-6.8 6.3s-7.7 2-17.1 2.1c-9 .2-20.4-2.3-20.4-2.3l-3.5-8.7s4-7.8 23-8"/><path fill="#fd8c03" d="M57.4 39.6c-1.6 0-3 1.1-2.7 2.3q.4 1.8 3 1.8c2.6 0 2.7-1.3 2.7-2.2s-.8-2-3-2m11.8 1.6q.2 2 3 2 2.6-.1 2.5-2.1c0-2-1.4-2-2.7-2-1.2.1-2.8.7-2.8 2.1m3.3 7.1c0 1.5 1.5 1.9 2.7 1.9s2.7-.6 2.7-2c0-1.2-1.3-1.8-2.7-1.8s-2.7.7-2.7 2m4.5-5c0 1.3 1.5 1.7 2.6 1.6s2.3-.3 2.4-1.7c0-1.3-1.3-1.7-2.6-1.7-1 0-2.4.5-2.4 1.8M52 49c0 1.2 1.2 2 2.5 1.9s2.3-1.1 2.2-2-1.1-2-2.4-1.9q-2.1.1-2.3 2m-4.6-6q.1 1.7 2.6 1.6c1.4 0 2.6-.4 2.5-1.7 0-1.2-1.2-1.6-2.6-1.6q-2.4.1-2.5 1.7"/><path fill="#faeac7" d="m44.7 40.8-2.5-2c-1-.8-2.3-1.9-2.5-2.3s-.9-1-1.5-.6-.3 2.6-.3 2.6l1.2 21.6 20.4 20.2 11 .4 20-20.6-.2-3.9 1.3-18s-.7-1-2.3.2c-1.3 1-3.2 2-3.2 2l1.5 1s-3.4 2.5-5.8 6.4S78 58.4 78 58.4s-5.3-6-7.4-9-4.3-7.6-5.5-7.5-2 3.9-3.9 6.6l-7.2 10s-3.1-7.7-5.6-11-5-5.7-5-5.7z"/><radialGradient id="j" cx="86.6" cy="51" r="10.1" gradientUnits="userSpaceOnUse"><stop offset=".3" stop-color="#fda8a7"/><stop offset="1" stop-color="#fe848a"/></radialGradient><path fill="url(#j)" d="M80.9 64s-1.5-8.7 2-14.5c4-6.6 6.6-8 7.4-9 1.3-1.8 1-2.5 1.2-2.4.5.1 1.5 1.8.9 8.5S91 58.3 91 58.3l-.8-1s-.5-.5-1.3-.1-4 3.2-4.7 4-3.3 2.8-3.3 2.8"/><radialGradient id="k" cx="45" cy="49.9" r="10.8" gradientUnits="userSpaceOnUse"><stop offset=".3" stop-color="#fda8a7"/><stop offset="1" stop-color="#fe848a"/></radialGradient><path fill="url(#k)" d="m51.2 63 1.7-2.7s-2.2-6.1-5.8-11.5c-2.8-4.3-4.4-5.4-6-7.5-2.2-2.7-3.2-4.6-3.2-4.6s-.5 3.4-.6 6.1a47 47 0 0 0 1.4 14.3l.1-.3s.3-1 1.4-1c1.3.1 2.6 1.7 5.4 3.6z"/><radialGradient id="l" cx="66.3" cy="63" r="15.8" gradientUnits="userSpaceOnUse"><stop offset=".3" stop-color="#fda8a7"/><stop offset="1" stop-color="#fe848a"/></radialGradient><path fill="url(#l)" d="M65.5 44.8c-.4 0-1.7 4.3-4 7.4s-4.3 5.3-5.8 7.9a23 23 0 0 0-2.3 4.6s2.7 2.4 4.7 5.5c1.5 2.3 3.3 6.4 3.5 8 .2 1-.1 2-.6 2h-.4c-.3.2 0 .6 0 .6s1.9.4 3.5.4 4-.4 4-.4V80s-.6-.2-.7-.7c-.1-.6-.1-1.4 1.2-3.6s3.5-5 5.5-6.9 5-3.7 5-3.7-1.2-3-3.2-6.2-5.2-5.9-6.6-8-3.4-6-3.8-6.1"/><radialGradient id="m" cx="81.3" cy="69.5" r="12.9" gradientUnits="userSpaceOnUse"><stop offset=".3" stop-color="#fda8a7"/><stop offset="1" stop-color="#fe848a"/></radialGradient><path fill="url(#m)" d="M90.2 57.2S89 60 86 62.7s-6.7 5-10 8.4-8 8.9-8 8.9l-.3.8s4 2 13 0 14.2-9 14-13.6-4.6-10-4.6-10"/><radialGradient id="n" cx="46.7" cy="69.4" r="13.4" gradientUnits="userSpaceOnUse"><stop offset=".3" stop-color="#fda8a7"/><stop offset="1" stop-color="#fe848a"/></radialGradient><path fill="url(#n)" d="M39.4 56.5c.7.1 2.1 2.6 4.7 4.7s7.6 5.2 11 9.3c3.3 4 5.6 9.8 5.6 9.8l-.1.6s-7.8 3-15.5.1-11.5-9.8-12.2-14 1.4-6.9 3.9-8.5c1.7-1.2 1.9-2 2.6-2"/></svg>