<svg xmlns="http://www.w3.org/2000/svg" width="1em" height="1em" viewBox="0 0 128 128"><path fill="#9B6A57" d="M116.51 48.97c3.78 5.6 4.32 10.42 5.2 17.19c.8 6.16 1.6 10.68 2.97 15.43c-3.76-1.43-9.14-5.45-9.39-14.36"/><linearGradient id="notoMammoth0" x1="85.995" x2="85.995" y1="98.939" y2="82.787" gradientUnits="userSpaceOnUse"><stop offset=".292" stop-color="#85574A"/><stop offset="1" stop-color="#6A463E"/></linearGradient><path fill="url(#notoMammoth0)" d="M88.86 62.11c-6.94-2.38-11.06 3.03-11.19 5.83c-.42 8.84-1.75 31.81-.21 34.8c1.29 2.51 4.02 3.05 8.81 3.05c2.16 0 6.51-.27 8.13-2.49c1.26-1.73-.01-5-.31-8.13c-.42-4.43-.19-10.99.66-16.52c1.03-6.63 1.05-14.17-5.89-16.54"/><path fill="#9E9E9E" d="M82.05 101.41c-1.24-.12-2.11 2.05-2.51 3.38c1.18.6 2.75.86 4.77.95c-.17-1.96-.44-4.15-2.26-4.33m5.76.57c-1.26.21-1.84 2.24-2.07 3.81c.18 0 .35.01.54.01c1.13 0 2.85-.08 4.47-.46c-.79-2.25-1.68-3.57-2.94-3.36"/><path fill="#F7CC93" d="M19.68 87.56s8.93 1.4 14.6-9.58c2.71-5.25 1.84-10.2 1.84-10.2l-5.78-6.01z"/><linearGradient id="notoMammoth1" x1="44.615" x2="44.615" y1="99.224" y2="80.454" gradientUnits="userSpaceOnUse"><stop offset="0" stop-color="#9B6A57"/><stop offset=".869" stop-color="#85574A"/></linearGradient><path fill="url(#notoMammoth1)" d="M55.25 72.46c-.05-.23-.97-10.53-9.82-10.36c-8.85.18-11.16 3.67-11.65 6.74c-.91 5.74.52 14.38.96 18.24c.53 4.66 1.59 9.34.99 14.04c-.3 2.33-.82 4.64-1.4 6.92c-1.07 4.22-.84 6.24 1.62 7.76c2.27 1.41 5.29 1.73 7.89 1.73c4.41 0 10.81-1.14 10.64-6.7c-.05-1.62-.52-3.2-.81-4.8c-1.09-5.96-.35-14.81 1.31-21.39c.7-2.81 1.17-8.02.27-12.18"/><path fill="#C6C6C6" d="M35.08 111.99c-.29-.06-.7-.12-1.28.56c-.01.01-.01.02-.02.03c.17 1.4.83 2.39 2.16 3.22c.17.1.34.19.51.28c.01-1.48-.25-3.87-1.37-4.09m5.65 1c-1.66 0-2.78 2.3-3.23 3.56c1.8.69 3.84.93 5.73.96c-.18-2.31-1.03-4.52-2.5-4.52m6.48.72c-1.44.2-2 2.52-2.25 3.79c1.75-.08 3.67-.36 5.33-1c-.68-1.74-1.94-2.95-3.08-2.79"/><path fill="#F7CC93" d="M20.6 87.46c-2.26.24-14.38-.05-16.87-10.61c-1.31-5.55.87-13.9 1.69-15.46c.96-1.84 2.5-.72 2.33 1.18c-.14 1.54-.65 9.95 1.77 12.66c5.09 5.71 10.47 2.25 10.47 2.25z"/><radialGradient id="notoMammoth2" cx="58.513" cy="44.436" r="46.035" gradientUnits="userSpaceOnUse"><stop offset=".27" stop-color="#85574A"/><stop offset=".859" stop-color="#9B6A57"/></radialGradient><path fill="url(#notoMammoth2)" d="M113.74 45.09c-3.55-3.87-8.33-6.19-13.21-7.92c-4.6-1.63-10.19-2.5-12.87-5.98c-2.91-3.78-6-5.12-6-5.12c1.73-.47 6.09.22 6.09.22s-5.58-7.7-15.94-5.64c1.21-1.59 4.43-3.18 4.43-3.18s-13.37-6.09-22.58 9.03c-.38.62-20.17 39.16-20.17 39.16C35.4 71.42 41.75 79.24 49.27 83c2.13 1.06 7.99 2.79 7.99 2.79s2.72 6.77 2.38 14.71c-.23 5.29-1.63 10.19-1.88 15.84c-.12 2.74.71 4.59 3.19 5.66c2.59 1.11 5.26 1.6 8.08 1.6c2.99 0 7.84-.63 10.06-3.24c2.42-2.86.45-9.44.05-13.14c-.4-3.75-.6-16.8 2.7-21.85c0 0 2.41-.02 4.4-.28c9.77-1.26 13.95-2.16 13.95-2.16c1.6 3.56-.25 14.38-.55 16.48c-.49 3.43-1.22 6.73.19 8.6c2.04 2.7 6.65 3.29 9.65 3.29c2.69 0 6.58-.33 8.7-2.28c2.19-2.03 1.04-6.77.59-9.36c-1.4-8.06-3.34-14.87-2.09-23.06c.57-3.75 1.75-9.43 1.75-14.47c.02-.03 2.37-9.33-4.69-17.04"/><linearGradient id="notoMammoth3" x1="36.706" x2="76.267" y1="77.203" y2="22.414" gradientUnits="userSpaceOnUse"><stop offset=".137" stop-color="#754D41"/><stop offset=".786" stop-color="#805447" stop-opacity=".248"/><stop offset="1" stop-color="#85574A" stop-opacity="0"/></linearGradient><path fill="url(#notoMammoth3)" d="M86.19 39.56c2.98 15.81-8.03 22.7-8.03 22.7c-.35-6.28-2.72-8.86-2.72-8.86s1.53 10.53-8.63 19.21c0 0 2.09-7.88.51-11.7c-1.72 5.53-6.13 8.31-8.07 11.53c-4.08 6.78-2 13.36-2 13.36s-3.48-.23-11.92-4.07c-8.94-4.07-13.07-11.36-13.12-19.52c0 0-7.46-32 19.19-38.73c29.3-7.38 34.79 16.08 34.79 16.08"/><path fill="#C6C6C6" d="M61.7 118.28c-1.07-.1-2.3 1.03-2.72 2.37c.44.53 1.08.96 1.98 1.35c.9.39 1.82.7 2.74.94c-.02-1.3-.34-4.51-2-4.66m6.35.43c-2.11.22-2.77 3.46-2.94 4.54c1.29.24 2.6.35 3.94.35c.71 0 1.54-.03 2.41-.11c-.4-2.66-1.73-4.96-3.41-4.78m6.97-.01c-1.22.4-1.83 3.12-1.94 4.58c1.98-.33 3.98-.97 5.33-2.18c-.9-1.36-2.13-2.82-3.39-2.4m27.66-12.76c-1.01-.09-2.25 1.11-2.65 2.37c.42.5 1.09 1.07 1.94 1.43c.9.39 1.61.75 2.66.99c-.03-1.22-.39-4.65-1.95-4.79m5.97.4c-1.99.2-2.67 3.58-2.83 4.6c1.21.22 2.41.34 3.68.34c.67 0 1.61-.03 2.43-.1c-.37-2.5-1.7-5-3.28-4.84m6.56-.01c-1.15.38-1.73 3.33-1.83 4.71c1.86-.31 3.97-1.08 5.06-2.31c-.84-1.28-2.04-2.79-3.23-2.4"/><path fill="#9B6A57" d="M24.72 87.63c2.21-5.95 4.5-10.46 8.15-15.6c3.87-5.46 8.04-9.25 9.27-9.63c1.25-.38 3.4-1.7 4.74-2.21c3.56-1.35 6.2-3.61 6.11-5.71c-.16-3.86 7.85-16.72 1.16-26.69c-2.18-3.25-5.75-5.59-9.3-7.24c-3.72-1.73-7.28-3.7-11.42-4.32c-3.96-.6-1.79 3.11-5 5.52c-7.6 5.7-7.69 12.94-8.9 15.34s-2.96 3.5-2.85 6.46c.11 2.66.89 3.24 1.04 5.85s-1.33 11.71-2.47 15.06c-2.12 6.22-3.37 12.78-3.62 19.39c-.34 8.95 2.78 18.77 10.48 23.35c1.93 1.15 4.32 1.92 6.4 1.08s3.21-3.9 1.58-5.44c-.94-.89-2.37-.97-3.53-1.53c-1.91-.92-2.98-3.08-3.16-5.19c-.25-2.64.4-6.01 1.32-8.49"/><ellipse cx="38.3" cy="44.24" fill="#212121" rx="2.44" ry="3" transform="rotate(-6.148 38.294 44.228)"/><path fill="#FADCB2" d="M37.22 90.57c-22.35.72-26.23-28.49-26.45-29.43c-.35-1.45 1.32-2.15 2.2-.51c.77 1.45 12.44 25.77 24.03 20.12c4.79-2.34 5.14-18.41 2.82-21.91c-1.23-1.85 8.53-2.45 8.53-2.45c2.42 5.26 4.4 23.43-4.25 31.1c-2 1.79-4.27 2.92-6.88 3.08"/><path fill="#9B6A57" d="M39.59 56.98c-1.18 1.55-.61 4.89 0 6.33c1.13 2.67 3.98 5.06 3.98 5.06l.84-2.98l2.43 2.98l1.74-3.26s.71 2.18 2.14 3.43c0 0 1.73-4.54 3.12-6.99c1.75-3.09 3.62-2.83 3.91-7.04M37.85 9.88c-7.48 2.4-11.39 1.03-11.39 1.03s.26 4.94 3.72 5.01c-4.07.6-6.32 2.47-8.81 6.66c0 0 7.56-.05 8.37.42c0 0 .95 6.28 21.13 11.14c2.93.71 11.81-1.23 11.77-3.98c-.03-2.17-.49-3.75-1.67-5.91c0 0 2.4.63 3.73-1.09c-1.5-1.01-3.11-3.58-4.06-5.11c-2.6-4.15-5.96-7.34-9.91-8.63c-4.48-1.46-8.43-.97-12.88.46"/><path fill="#6A463E" d="M31.93 18.96c-.72.75-1.36 1.54-1.84 2.41c-.5.85-.85 1.77-1.1 2.7c-.26.93-.38 1.88-.41 2.84c-.05.93.01 1.95.17 2.76l-1.98-.77l3.43-2.99l1.69-1.51c.55-.5 1.13-1 1.61-1.48l2.17-2.15l.3 3.06l.37 3.7c.12 1.23.21 2.47.31 3.71l-1.98-1.26c.77-.27 1.51-.57 2.25-.9c.73-.33 1.44-.72 2.11-1.15c.66-.45 1.32-.9 1.91-1.43c.58-.51 1.16-1.15 1.54-1.68l1.11-1.5l.57 1.51c.21.55.52 1.16.86 1.71c.33.57.7 1.11 1.13 1.61c.85 1 1.91 1.85 3.25 2.29c-1.41.01-2.84-.61-4-1.5a12.1 12.1 0 0 1-1.61-1.51c-.48-.57-.91-1.13-1.31-1.83h1.67c-.43 1.01-.96 1.73-1.58 2.47c-.61.72-1.29 1.39-2.03 1.96c-.74.57-1.53 1.09-2.34 1.55c-.81.47-1.67.82-2.53 1.17l-1.8.73l-.18-1.99c-.11-1.24-.24-2.47-.34-3.71l-.29-3.71l2.49.93c-.61.58-1.19 1.08-1.79 1.57l-1.8 1.44c-1.21.94-2.4 1.89-3.65 2.8l-1.82 1.33l-.15-2.09c-.09-1.23.01-2.27.19-3.38c.21-1.09.54-2.15 1.01-3.14c.48-.99 1.1-1.91 1.84-2.69c.75-.78 1.62-1.42 2.55-1.88"/><path fill="#9B6A57" d="M56.66 30.16c2.86-1.55 7.62-1.52 10.36-.27c10.15 4.64 6.62 18.18 6.62 18.18c-1.25-1.59-3.58-4.33-3.58-4.33c.28 5.86-4 10.65-4 10.65c-.18-.77-1.11-2.89-1.4-3.44c-2.6 3.91-5.26 10.65-5.26 10.65c-2.56-1.02-5.73-3.94-6.6-5.77c-.49-1.03-4.8-8.26-1.02-19.77c.97-2.97 1.96-4.32 4.88-5.9"/><path fill="#6A463E" d="M58.56 28.68c-3.37 1.01-5.46 2.97-6.43 4.09c-.41.47-.82 1.52.41.46c1.21-1.05 9.89-6.5 16.68-.03c4.52 4.3 3.36 12.14 3.36 12.14c-1.98-2.95-3.8-3.51-3.8-3.51s1.47 7.23-2.28 10.48c0 0-1.06-2.92-2.14-3.22c0 0-.65 2.96-2.31 4.9c-1.52 1.78-2.45 4.08-3.03 6.17c-6.73-2.37-7.39-10.06-7.4-10.13l-.17-1.93c-.4.29-1.44 4.2.89 8.28c2.76 4.84 7.45 6.25 8.41 5.89c0 0-.6-3.16 2.38-6.72c.93-1.11 1.67-2.47 1.67-2.47c.44.68.74 2.73.74 2.73s5.27-2.65 5.31-9.37c1.12.67 2.65 3.28 2.65 3.28s4.4-7.04-1.07-16.33c-3.54-6.02-10.79-5.64-13.87-4.71"/><path fill="#85574A" d="M91.47 79.35s1.47-5.29-.74-8.56c-2 3.3-4.19 10.65-4.19 10.65s-1.86-2.23-.74-6.98c-3.8 6.47-3.98 10.91-3.98 10.91s2.72-.12 4.4-.28c3.77-.35 13.95-2.16 13.95-2.16s.63-5.09 4.81-10.6c-3.13 1.34-3.6 2.27-5.33 5.21c2.09-7.53-.98-12.7-.98-12.7c-.52 12.77-7.2 14.51-7.2 14.51"/><path fill="#BD816A" d="M112.31 44.63c-2.16-3.26-4.73-4.47-6.48-5.35c-1.79-.9-3.66-1.61-5.53-2.33c-7.32-2.79-11.13-4.26-11.37-4.44c.4.3 3.12 5.93 4.14 12.25c0 0 1.52-6.41 1.58-8.16c1.4 4.33 5.16 6.49 7.67 13.47c1.63-4.37-.33-7.81-.14-10.05c3.53 3.72 4.74 9.3 5.3 14.37c1.74-2.51 2.28-6.61 2.42-9.35c2.93 4.26 4 9.07 4 9.07s1.55-4.74-1.59-9.48"/></svg>