<svg viewBox="0 0 128 128"><path fill="#9b6a57" d="M116.5 49c3.8 5.6 4.3 10.4 5.2 17.2.8 6.1 1.6 10.6 3 15.4-3.8-1.4-9.2-5.5-9.4-14.4"/><linearGradient id="a" x1="86" x2="86" y1="98.9" y2="82.8" gradientUnits="userSpaceOnUse"><stop offset=".3" stop-color="#85574a"/><stop offset="1" stop-color="#6a463e"/></linearGradient><path fill="url(#a)" d="M88.9 62.1c-7-2.4-11.1 3-11.2 5.8-.5 8.9-1.8 31.8-.2 34.8 1.3 2.5 4 3 8.8 3 2.1 0 6.5-.2 8.1-2.4 1.3-1.7 0-5-.3-8.1-.4-4.5-.2-11 .7-16.5 1-6.7 1-14.2-6-16.6"/><path fill="#9e9e9e" d="M82 101.4c-1.2-.1-2 2-2.5 3.4q1.8.8 4.8 1c-.2-2-.4-4.2-2.3-4.4m5.8.6c-1.3.2-1.8 2.2-2 3.8h.5q1.8.1 4.5-.5-1.1-3.5-3-3.3"/><path fill="#f7cc93" d="M19.7 87.6s9 1.4 14.6-9.6C37 72.7 36 67.8 36 67.8l-5.8-6z"/><linearGradient id="b" x1="44.6" x2="44.6" y1="99.2" y2="80.5" gradientUnits="userSpaceOnUse"><stop offset="0" stop-color="#9b6a57"/><stop offset=".9" stop-color="#85574a"/></linearGradient><path fill="url(#b)" d="M55.3 72.5c-.1-.3-1-10.6-9.9-10.4s-11.1 3.7-11.6 6.7c-1 5.8.5 14.4 1 18.3.5 4.6 1.5 9.3 1 14q-.6 3.5-1.5 7c-1 4.2-.8 6.2 1.7 7.7 2.2 1.4 5.2 1.7 7.8 1.7 4.5 0 10.9-1.1 10.7-6.7q-.2-2.4-.8-4.8A57 57 0 0 1 55 84.6a30 30 0 0 0 .3-12.1"/><path fill="#c6c6c6" d="M35 112q-.3-.2-1.2.5.1 2.2 2.1 3.3l.5.3c0-1.5-.2-3.9-1.3-4.1m5.6 1c-1.6 0-2.8 2.3-3.2 3.5q2.8 1 5.7 1c-.1-2.3-1-4.5-2.5-4.5m6.5.7c-1.4.2-2 2.5-2.2 3.8q2.7 0 5.3-1c-.7-1.7-2-3-3-2.8"/><path fill="#f7cc93" d="M20.6 87.5c-2.3.2-14.4 0-16.9-10.7a31 31 0 0 1 1.7-15.4c1-1.9 2.5-.7 2.3 1.2 0 1.5-.6 10 1.8 12.6C14.6 81 20 77.5 20 77.5z"/><radialGradient id="c" cx="58.5" cy="44.4" r="46" gradientUnits="userSpaceOnUse"><stop offset=".3" stop-color="#85574a"/><stop offset=".9" stop-color="#9b6a57"/></radialGradient><path fill="url(#c)" d="M113.7 45a32 32 0 0 0-13.2-7.8c-4.6-1.7-10.2-2.5-12.8-6-3-3.8-6-5.1-6-5.1 1.7-.5 6 .2 6 .2s-5.5-7.7-15.9-5.7c1.2-1.5 4.4-3.1 4.4-3.1s-13.3-6.1-22.5 9L33.5 65.7A35 35 0 0 0 49.3 83c2.1 1 8 2.8 8 2.8s2.7 6.8 2.3 14.7c-.2 5.3-1.6 10.2-1.8 15.8q-.4 4.1 3.2 5.7 3.8 1.6 8 1.6c3 0 7.9-.6 10-3.2 2.5-2.9.5-9.5.1-13.2s-.6-16.8 2.7-21.8c0 0 2.5 0 4.4-.3 9.8-1.3 14-2.2 14-2.2 1.6 3.6-.3 14.4-.6 16.5-.4 3.4-1.2 6.7.2 8.6 2 2.7 6.7 3.3 9.7 3.3 2.7 0 6.6-.3 8.7-2.3 2.2-2 1-6.7.6-9.3-1.4-8.1-3.4-15-2.1-23.1.6-3.7 1.7-9.4 1.7-14.5 0 0 2.4-9.3-4.7-17"/><linearGradient id="d" x1="36.7" x2="76.3" y1="77.2" y2="22.4" gradientUnits="userSpaceOnUse"><stop offset=".1" stop-color="#754d41"/><stop offset=".8" stop-color="#805447" stop-opacity=".2"/><stop offset="1" stop-color="#85574a" stop-opacity="0"/></linearGradient><path fill="url(#d)" d="M86.2 39.6c3 15.8-8 22.7-8 22.7-.4-6.3-2.8-8.9-2.8-8.9s1.6 10.5-8.6 19.2c0 0 2.1-7.9.5-11.7-1.7 5.5-6.1 8.3-8 11.5-4.1 6.8-2 13.4-2 13.4s-3.5-.2-12-4c-9-4.1-13-11.4-13-19.6 0 0-7.5-32 19.1-38.7 29.3-7.4 34.8 16 34.8 16"/><path fill="#c6c6c6" d="M61.7 118.3c-1-.1-2.3 1-2.7 2.4q.5.8 2 1.3l2.7 1c0-1.4-.3-4.6-2-4.7m6.4.4c-2.2.2-2.8 3.5-3 4.6a22 22 0 0 0 6.4.2c-.4-2.7-1.8-5-3.5-4.8m7 0c-1.2.4-1.8 3.1-2 4.6q3.2-.4 5.4-2.2c-.9-1.4-2.1-2.8-3.4-2.4m27.7-12.8c-1 0-2.3 1.1-2.7 2.4q.6.8 2 1.4 1.2.7 2.6 1c0-1.2-.4-4.6-2-4.8m6 .4c-2 .2-2.6 3.6-2.8 4.6a20 20 0 0 0 6.1.3c-.3-2.5-1.7-5-3.3-4.9m6.6 0c-1.1.4-1.7 3.4-1.8 4.7 1.8-.3 4-1 5-2.3-.8-1.3-2-2.8-3.2-2.4"/><path fill="#9b6a57" d="M24.7 87.6c2.2-6 4.5-10.4 8.2-15.6 3.8-5.4 8-9.2 9.2-9.6 1.3-.4 3.4-1.7 4.8-2.2 3.5-1.4 6.2-3.6 6-5.7 0-3.9 8-16.7 1.3-26.7a22 22 0 0 0-9.4-7.3c-3.7-1.7-7.2-3.7-11.4-4.3-4-.6-1.8 3.1-5 5.5-7.6 5.7-7.7 13-8.9 15.4s-3 3.5-2.8 6.4c0 2.7.9 3.3 1 5.9s-1.3 11.7-2.5 15a68 68 0 0 0-3.6 19.4c-.3 9 2.8 18.8 10.5 23.4 2 1.1 4.3 2 6.4 1s3.2-3.8 1.6-5.4c-1-.9-2.4-1-3.5-1.5q-3-1.7-3.2-5.2c-.3-2.6.4-6 1.3-8.5"/><ellipse cx="38.3" cy="44.2" fill="#212121" rx="2.4" ry="3" transform="rotate(-6.148 38.294 44.228)"/><path fill="#fadcb2" d="M37.2 90.6C15 91.3 11 62 10.8 61c-.4-1.4 1.3-2.1 2.2-.5.7 1.5 12.4 25.8 24 20.1 4.8-2.3 5.1-18.4 2.8-21.9-1.2-1.8 8.6-2.4 8.6-2.4 2.4 5.3 4.4 23.4-4.3 31q-3 2.9-6.9 3.2"/><path fill="#9b6a57" d="M39.6 57c-1.2 1.5-.6 4.9 0 6.3 1.1 2.7 4 5 4 5l.8-3 2.4 3 1.8-3.2s.7 2.2 2.1 3.4c0 0 1.8-4.5 3.1-7 1.8-3 3.7-2.8 4-7M37.8 10c-7.4 2.4-11.3 1-11.3 1s.2 5 3.7 5c-4 .6-6.3 2.5-8.8 6.7 0 0 7.5 0 8.3.4 0 0 1 6.3 21.2 11.1 2.9.7 11.8-1.2 11.7-4 0-2.1-.5-3.7-1.6-5.9 0 0 2.4.7 3.7-1a19 19 0 0 1-4-5.1c-2.7-4.2-6-7.4-10-8.7-4.5-1.4-8.4-1-12.9.5"/><path fill="#6a463e" d="M32 19a12 12 0 0 0-3.2 10.7l-2-.8 3.4-3 1.7-1.5 1.6-1.5 2.2-2.1.3 3 .3 3.7.3 3.7-2-1.2 4.4-2 2-1.5 1.5-1.7 1-1.5.7 1.5.8 1.7 1.1 1.7q1.3 1.6 3.3 2.2-2.1 0-4-1.5l-1.6-1.5-1.3-1.8H44q-.7 1.4-1.5 2.5l-2 2-2.4 1.5q-1.2.7-2.5 1.2l-1.8.7-.2-2-.3-3.7L33 24l2.5.9-1.8 1.6L32 28l-3.7 2.8-1.8 1.3-.2-2a14 14 0 0 1 1.2-6.6q.7-1.5 1.9-2.7 1.1-1.1 2.5-1.8"/><path fill="#9b6a57" d="M56.7 30.2c2.8-1.6 7.6-1.6 10.3-.3C77.2 34.5 73.6 48 73.6 48l-3.5-4.4c.2 5.9-4 10.7-4 10.7-.2-.8-1.1-2.9-1.4-3.4-2.6 3.9-5.3 10.6-5.3 10.6-2.6-1-5.7-4-6.6-5.8-.5-1-4.8-8.2-1-19.7 1-3 2-4.4 4.9-6"/><path fill="#6a463e" d="M58.6 28.7a15 15 0 0 0-6.5 4c-.4.5-.8 1.6.4.5 1.2-1 10-6.5 16.7 0 4.5 4.3 3.4 12.1 3.4 12.1-2-3-3.8-3.5-3.8-3.5s1.5 7.3-2.3 10.5c0 0-1-3-2.1-3.2 0 0-.7 3-2.4 4.9q-2.2 2.8-3 6.2C52.3 57.8 51.6 50 51.6 50l-.2-1.9c-.4.3-1.4 4.2 1 8.3 2.7 4.8 7.4 6.2 8.3 5.9 0 0-.6-3.2 2.4-6.7 1-1.2 1.7-2.5 1.7-2.5.4.7.7 2.7.7 2.7s5.3-2.6 5.3-9.4c1.2.7 2.7 3.3 2.7 3.3s4.4-7-1-16.3c-3.6-6-10.9-5.6-14-4.7"/><path fill="#85574a" d="M91.5 79.4s1.4-5.3-.8-8.6c-2 3.3-4.2 10.6-4.2 10.6s-1.8-2.2-.7-7c-3.8 6.5-4 11-4 11l4.4-.3c3.8-.4 14-2.2 14-2.2s.6-5 4.8-10.6c-3.1 1.4-3.6 2.3-5.3 5.2 2-7.5-1-12.7-1-12.7-.5 12.8-7.2 14.5-7.2 14.5"/><path fill="#bd816a" d="M112.3 44.6c-2.1-3.2-4.7-4.4-6.5-5.3q-2.7-1.4-5.5-2.3l-11.4-4.5c.4.3 3.1 6 4.2 12.3 0 0 1.5-6.4 1.5-8.2 1.4 4.3 5.2 6.5 7.7 13.5 1.6-4.4-.3-7.8-.1-10 3.5 3.6 4.7 9.2 5.3 14.3 1.7-2.5 2.3-6.6 2.4-9.4 3 4.3 4 9.1 4 9.1s1.5-4.7-1.6-9.5"/></svg>