<svg viewBox="0 0 128 128"><path fill="#df1324" d="M59.2 122.2c.2 1 1.3 1.9 4.4 2s5.1-.3 5.2-1.9c0-1.6-1.1-3.5-1.3-4.9s-1-10.7-1.2-15.6l-.4-14.1-4 .4s0 9.6-.2 14.5-1 12-1.1 13.9c-.1 1.7-1.8 3.6-1.4 5.7"/><radialGradient id="a" cx="65.4" cy="73" r="42.1" gradientTransform="rotate(.773 1588.878 83.36)scale(1 1.2816)" gradientUnits="userSpaceOnUse"><stop offset=".6" stop-color="#ff5617"/><stop offset="1" stop-color="#df1024"/></radialGradient><path fill="url(#a)" d="M63.9 89.5s-5.6 6.3-9.6 8.7-9.5 5.3-10.5 4.6 1.4-5.6 1.4-5.6-8.3 2-17.6-.8C18.8 94 13.7 90.1 14 89s4.5-1.7 8.6-3.3 9.6-4.2 9.6-4.2-7.9-2.8-12.3-5.6-7.3-5.4-7.4-6.3c-.1-1 6.2-2.5 6.2-2.5s-3.5-2.4-6-10.1-3.3-13.7-2.8-14.3c1.2-1.3 11.7 2.3 14.7 3.9 2.9 1.5 7.5 4.5 7.5 4.5s-.3-6 .7-6 3.6 2.4 6 5.4 9 13.3 10.7 12.5 0-5.8-2.3-10.6c-1.5-3.1-3.6-8.3-4.8-14.3s-.5-11 .2-11.6 7.5 4.7 7.5 4.7-.6-5.8.5-10.8 2-6.4 2.6-6.5 3 3.4 3 3.4 1-5 3-8.4 3.7-5.1 4.6-5.1 3.5 3.5 4.7 7.1 1.9 6.8 1.9 6.8 1.5-3.1 2.1-3.2 2.6 2.1 3.6 7.4 1 8.9 1 8.9 4.3-4.5 5-4.6c.9 0 2.9 5.1 1.4 12.2S78 52.2 77.2 55.9s-1.7 7.3-.2 7.7 3-4 6.2-9 7.5-10.3 8.1-9.9S92.8 47 93 48l.3 2.9s4.6-3.1 8.6-4.6 12.9-4.8 14.8-3.2-1.5 10.2-3.5 14.5-6.4 11-6.4 11 6 1.1 5.9 2-5 4.9-9.3 7.2-10 4.1-10 4.1 2.5 1.7 8.4 3.6c5.8 1.9 10.7 2.5 11 3.5s-2.2 4.4-11.1 6.8-19 1-19.5 1.6c-.5.5 2.4 4.4 1.6 5.5s-6.1-.4-10.3-4c-5.3-4.6-9.6-9.4-9.6-9.4"/><path fill="#ff8e00" d="M64 92s1.8-1.5 5.6-2.2q3.1-.6 8-.4c8.2.1 17 1.7 21.6 1.8s8.8 0 8.7-1-7.1-.5-12.5-1.5-13.2-2-16.4-2.2c-8.4-.4-10.1.7-10.1.7s10.8-9.5 14.8-12.6 10.5-8.1 16.4-13.4c5.2-4.6 14.6-14.3 14-15.2S102 56.4 97.6 59.7L79.1 74c-8.7 6.7-13.4 11.5-13.4 11.5l-.9-31.9c-.2-6-.2-28.9-.4-31.6s.4-14.3-1-14.2c-1.4 0-1.6 9.4-1.7 14l-.4 30.6c-.2 6 .3 32.8.3 32.8S45 72.7 38.9 67.8 22.4 53.6 21 52.5s-6.7-6.2-7.3-5.5 7.1 8.8 10 11.5 16.2 14 22 18.7 12.8 10 12.8 10-6.8-.8-16 0c-6.8.6-13.3 1.4-16.2 1.7s-7.2.3-7.4.9c-.1.6 3.6 1.5 11 1l16.6-1q11-.3 13.9.4a12 12 0 0 1 3.6 1.7"/></svg>