<svg viewBox="0 0 128 128"><path fill="#7adc8a" d="M65.8 31.4q-.8 0-1.3-.6-1-1.4.2-2.5l9.2-8a1.8 1.8 0 0 1 2.3 2.5L67 31q-.6.5-1.2.5M47.6 17.8h-.2A2 2 0 0 1 46 16l1-9.2a1.8 1.8 0 0 1 3.4.4l-1 9.2q-.2 1.4-1.7 1.5m-17.7 5q-.8 0-1.4-.7l-6.9-9q-.9-1.4.3-2.5c1.2-1 1.9-.4 2.5.3l7 9a1.7 1.7 0 0 1-1.5 2.9m-12 14h-.3L6.9 34.3a2 2 0 0 1-1.3-2q.5-1.6 2-1.4l10.8 2.4c.9.2 1.5 1.2 1.3 2.1a2 2 0 0 1-1.7 1.4m-5.9 28a1.8 1.8 0 0 1-.8-3.3l11-5.9a1.8 1.8 0 0 1 1.6 3.1l-11 5.8q-.3.3-.8.3M37.7 83a1.7 1.7 0 0 1-1.4-2.9l8-10a1.7 1.7 0 1 1 2.8 2.3l-8 10q-.7.5-1.4.6m16.1 16.5a1.8 1.8 0 0 1-.8-3.3L64 90a1.8 1.8 0 0 1 1.7 3l-11 6.2zm15.4 20.3a1.8 1.8 0 0 1-1.5-2.7l7.5-12.6c.5-.8 1.6-1 2.4-.6s1.1 1.6.6 2.4L70.7 119q-.5.9-1.5.9m24.4 3.7q-1.3-.1-1.7-1.4L89 108.6a1.8 1.8 0 0 1 3.4-.7l2.8 13.5q.2 1.7-1.3 2zm21.4-10.9q-.8 0-1.2-.5l-9.4-9.6a1.8 1.8 0 1 1 2.5-2.4l9.3 9.5a1.8 1.8 0 0 1-1.2 3M111 88q-1.3-.2-1.7-1.5 0-1.7 1.5-2l10.9-1.7q1.6-.1 2 1.4 0 1.7-1.5 2l-10.9 1.7zM99.4 72.6q-.6 0-1.1-.5c-.7-.6-.8-1.7-.2-2.4l9.2-11A1.8 1.8 0 0 1 110 61l-9.2 11q-.6.5-1.4.6M81 55q-.6 0-1.1-.4c-.7-.6-.8-1.8-.2-2.5l9.4-11c.6-.8 1.7-.9 2.5-.3q1 1.3.2 2.5l-9.4 11q-.6.7-1.4.7"/><path fill="#01ab46" d="m57.2 22.9-.9-.2a1.7 1.7 0 0 1-.6-2.4L63 7.7a2 2 0 0 1 2.4-.6q1.3.9.6 2.4L58.7 22q-.6.9-1.5.9m15.4 20.5q-.8 0-1.4-.8c-.6-.7-.4-1.8.4-2.4l11.2-8.3a1.8 1.8 0 0 1 2 2.9L73.7 43q-.5.4-1 .4m18 21.4-.9-.3a2 2 0 0 1-.6-2.4l7.5-12.7a1.8 1.8 0 0 1 3 1.7L92.1 64q-.5.9-1.5.9m15 14.6q-.8 0-1.4-.8-.8-1.3.4-2.4l10.2-7a1.7 1.7 0 1 1 2 3L106.5 79q-.4.3-1 .3m-2 39.4q-1.1 0-1.6-1l-6-11.4c-.4-.8-.1-1.9.7-2.3s2-.2 2.4.7l6 11.5a1.7 1.7 0 0 1-1.5 2.5m-22.2 4.7H81a1.7 1.7 0 0 1-1.4-2l2.6-13.2c.2-1 1.2-1.6 2-1.4q1.7.5 1.5 2L83 122.2q-.3 1.3-1.7 1.4m-22.1-14q-.8 0-1.4-.7c-.6-.8-.5-1.9.3-2.5l10-7.9c.7-.6 1.8-.4 2.4.3.6.8.4 1.9-.3 2.5l-10 7.8q-.5.4-1 .4M48 90.1a1.8 1.8 0 0 1-1.1-3l10.3-8.9a1.8 1.8 0 0 1 2.3 2.7L49 89.7q-.5.4-1.1.4M22.7 75.8a1.7 1.7 0 0 1-1.5-2.8l7.7-10c.5-.8 1.6-1 2.4-.4s1 1.7.4 2.5L24 75q-.7.7-1.5.7M24 29l-1-.3-11-7.5a1.8 1.8 0 0 1 2-3L25 26a1.8 1.8 0 0 1-1 3.2m11.5-10q-1.4-.1-1.7-1.4L32 6.7a1.7 1.7 0 1 1 3.5-.7l1.8 11c.2 1-.4 2-1.4 2.1z"/><path fill="#02ab47" d="M23.4 21.9c-13.9 14.8-9 32 1.9 41.3 13.5 11.4 26.5 11.3 32.2 18.6s5.9 18 18.3 26.3a23 23 0 0 0 29.4-3.7c8.2-8.7 11-23.9.2-32S92.3 63.8 82.7 53 69.6 26 58.1 18.4s-26-5.6-34.7 3.6"/><path fill="#7cdb8d" d="M28 26.6C18 37 19.4 52.3 34 61.5c12 7.5 17.7 6.4 27.2 16.4 8 8.5 8.9 17.7 14.9 22.8 8.8 7.5 19 5 24.8-.4 6-5.5 9.1-17.8-4.8-28s-18-15.8-21-20.2c-5.8-8.6-10.1-18.4-19-26.3-8.4-7.5-20.4-7.7-28.3.8"/><path fill="#00aa46" d="M81.6 84.1c1.3 2.4.5 5-.8 5.9-2.2 1.5-5 .8-6.3-1.6s-.9-5.1 1.5-6.3c1.7-1 4.2-.3 5.6 2m14.7 6.6c.3 2.2-1 4.1-3.4 4.3-2.8.2-4-2-4-4.2s1.3-4 3.8-4c2 .1 3.4 2.1 3.6 3.9M80.8 68.5c.4 3.2-1.2 5.9-5 6-2.9.2-5.8-2.7-5.8-5.6 0-3.4 2.2-5.3 5.1-5.3 3 0 5.2 2.1 5.7 5"/><path fill="#fbc219" d="M52.2 36.4c5.7 5.3 8.7 14 4.4 17.9-4 3.6-13.1 1.8-19.1-3.9-6.2-5.8-5.1-12.3-1.5-16s11-2.7 16.2 2"/><path fill="#00aa46" d="M69.4 54.7c.6 2 .1 4-1.6 4.7-2 .8-4-.3-5-2.8-.7-2 .5-3.9 2.3-4.5 1.7-.5 3.7.6 4.3 2.6m-8.6 7.7c1 1.3 1 3.1-.1 4s-3.2.4-4.1-.9-.7-3 .4-3.8c1.2-1 3-.6 3.8.7"/><path fill="#01ab46" d="M6.9 49a1.7 1.7 0 0 1-.2-3.5l11.1-1q1.6.1 1.9 1.7 0 1.6-1.6 1.9l-11 .9zm113.4 52.2q-.6 0-1-.3l-11.2-6.7a1.7 1.7 0 1 1 1.8-3l11.3 6.7a1.7 1.7 0 0 1-1 3.3"/></svg>