<svg xmlns="http://www.w3.org/2000/svg" width="1em" height="1em" viewBox="0 0 128 128"><path fill="#7ADC8A" d="M65.82 31.35c-.49 0-.97-.2-1.32-.6c-.64-.73-.57-1.83.16-2.47l9.2-8.07c.73-.64 1.83-.56 2.47.16c.64.73.57 1.83-.16 2.47l-9.2 8.07c-.32.29-.74.44-1.15.44zm-18.2-13.52c-.06 0-.12 0-.18-.01a1.75 1.75 0 0 1-1.56-1.92l.94-9.2a1.75 1.75 0 0 1 3.48.36l-.94 9.2c-.09.9-.86 1.57-1.74 1.57zm-17.69 4.93c-.52 0-1.04-.23-1.39-.68l-6.94-9.01c-.59-.77-.45-1.86.32-2.45s1.86-.45 2.45.32l6.94 9.01c.59.77.45 1.86-.32 2.45c-.32.24-.69.36-1.06.36zM17.96 36.79c-.13 0-.26-.01-.39-.04l-10.7-2.44a1.756 1.756 0 0 1-1.32-2.1c.22-.94 1.15-1.53 2.1-1.32l10.7 2.44c.94.21 1.53 1.15 1.32 2.1a1.76 1.76 0 0 1-1.71 1.36zm-5.82 27.97a1.753 1.753 0 0 1-.82-3.3l10.89-5.82a1.753 1.753 0 0 1 1.65 3.09l-10.89 5.82c-.27.14-.55.21-.83.21zm25.53 18.21a1.748 1.748 0 0 1-1.36-2.85l8.07-9.95a1.748 1.748 0 1 1 2.72 2.2l-8.07 9.95c-.35.43-.85.65-1.36.65zm16.14 16.51a1.752 1.752 0 0 1-.86-3.28l11.07-6.19c.84-.47 1.91-.17 2.38.67c.47.84.17 1.91-.67 2.38l-11.07 6.19c-.27.16-.56.23-.85.23zm15.39 20.28a1.757 1.757 0 0 1-1.51-2.65l7.51-12.58c.5-.83 1.57-1.1 2.4-.61c.83.5 1.1 1.57.61 2.4L70.7 118.9c-.32.55-.9.86-1.5.86zm24.4 3.75c-.81 0-1.54-.57-1.71-1.39l-2.82-13.51a1.752 1.752 0 0 1 3.43-.71l2.82 13.51c.2.95-.41 1.87-1.36 2.07c-.12.02-.24.03-.36.03zm21.4-10.89c-.45 0-.91-.17-1.25-.52l-9.39-9.57a1.753 1.753 0 1 1 2.5-2.46l9.39 9.57c.68.69.67 1.8-.02 2.48c-.34.34-.78.5-1.23.5zm-3.94-24.77c-.85 0-1.59-.62-1.73-1.48c-.15-.96.51-1.85 1.46-2l10.89-1.69c.96-.14 1.85.51 2 1.46c.15.96-.51 1.85-1.46 2l-10.89 1.69c-.09.01-.18.02-.27.02zm-11.64-15.4c-.4 0-.8-.14-1.13-.41c-.74-.62-.83-1.73-.21-2.47l9.2-10.89c.62-.74 1.73-.83 2.47-.21c.74.62.83 1.73.21 2.47l-9.2 10.89c-.35.41-.84.62-1.34.62zM81.03 55c-.4 0-.8-.14-1.13-.42c-.74-.62-.83-1.73-.2-2.47l9.38-11.07c.62-.74 1.73-.83 2.47-.2c.74.62.83 1.73.2 2.47l-9.38 11.07c-.35.41-.85.62-1.34.62z"/><path fill="#01AB46" d="M57.19 22.9c-.3 0-.6-.08-.88-.24a1.74 1.74 0 0 1-.63-2.39L63 7.69a1.75 1.75 0 0 1 2.39-.63c.83.49 1.12 1.56.63 2.39L58.7 22.03c-.32.56-.91.87-1.51.87zm15.39 20.46c-.54 0-1.07-.25-1.41-.72c-.57-.78-.4-1.87.38-2.45l11.26-8.26c.78-.57 1.87-.4 2.45.38c.57.78.4 1.87-.38 2.45l-11.26 8.26c-.32.23-.68.34-1.04.34zm18.02 21.4c-.3 0-.61-.08-.89-.24a1.756 1.756 0 0 1-.62-2.4l7.51-12.76c.49-.83 1.56-1.11 2.4-.62c.83.49 1.11 1.56.62 2.4L92.11 63.9c-.33.55-.91.86-1.51.86zm15.02 14.64c-.56 0-1.11-.27-1.45-.76c-.55-.8-.34-1.89.45-2.43l10.14-6.95a1.747 1.747 0 1 1 1.98 2.88l-10.14 6.95c-.3.21-.64.31-.98.31zm-2.07 39.42c-.63 0-1.24-.34-1.55-.94l-6-11.45c-.45-.86-.12-1.91.74-2.36c.86-.45 1.91-.12 2.36.74l6.01 11.45c.45.86.12 1.91-.74 2.36c-.26.13-.54.2-.82.2zm-22.14 4.69c-.11 0-.23-.01-.34-.03a1.746 1.746 0 0 1-1.37-2.06l2.63-13.14c.19-.95 1.12-1.57 2.06-1.37c.95.19 1.56 1.11 1.37 2.06l-2.63 13.14c-.18.82-.91 1.4-1.72 1.4zm-22.16-14.08c-.52 0-1.03-.23-1.37-.66c-.6-.76-.47-1.86.28-2.46l9.95-7.88c.76-.6 1.86-.47 2.46.28c.6.76.47 1.86-.28 2.46l-9.95 7.88c-.32.26-.7.38-1.09.38zM47.99 90.1c-.49 0-.99-.21-1.33-.61c-.63-.73-.54-1.84.19-2.47l10.32-8.82c.73-.63 1.84-.54 2.47.19c.63.73.54 1.84-.19 2.47l-10.32 8.82c-.33.28-.74.42-1.14.42zM22.65 75.83a1.745 1.745 0 0 1-1.4-2.79l7.51-10.14c.57-.78 1.67-.94 2.45-.36c.78.58.94 1.67.36 2.45l-7.51 10.14c-.35.46-.87.7-1.41.7zm1.5-46.74c-.34 0-.68-.1-.98-.3L12.1 21.28c-.8-.54-1.01-1.63-.47-2.43c.54-.8 1.63-1.01 2.43-.47l11.07 7.51a1.752 1.752 0 0 1-.98 3.2zm11.45-9.94c-.84 0-1.58-.6-1.72-1.46L32 6.61a1.749 1.749 0 1 1 3.45-.59l1.88 11.07c.16.95-.48 1.86-1.43 2.02c-.1.03-.2.04-.3.04z"/><path fill="#02AB47" d="M23.4 21.9c-13.89 14.83-9.01 32.07 1.88 41.3c13.51 11.45 26.56 11.26 32.19 18.58s5.91 18.02 18.3 26.28c8.68 5.79 21.51 4.88 29.47-3.66c8.13-8.72 10.89-23.86.14-31.96c-10.84-8.17-13.09-8.68-22.67-19.57S69.58 25.84 58.13 18.33s-26.1-5.64-34.73 3.57z"/><path fill="#7CDB8D" d="M27.91 26.59C18.15 37.1 19.45 52.34 34.1 61.5c12.01 7.51 17.68 6.44 27.22 16.42c8.07 8.45 8.86 17.72 14.83 22.81c8.82 7.51 18.97 4.93 24.87-.42c6.05-5.49 9.1-17.79-4.79-27.92S78.12 56.45 75.21 52.12c-5.82-8.63-10.14-18.4-18.96-26.28c-8.43-7.53-20.48-7.71-28.34.75z"/><path fill="#00AA46" d="M81.59 84.13c1.35 2.33.47 4.88-.84 5.82c-2.15 1.54-4.94.83-6.29-1.5c-1.35-2.33-.84-5.15 1.5-6.38c1.78-.95 4.28-.28 5.63 2.06zm14.74 6.56c.23 2.17-1.03 4.13-3.38 4.32c-2.81.23-4.13-2.05-4.13-4.22s1.41-4.04 3.85-3.94c2.12.08 3.47 2.06 3.66 3.84zM80.75 68.55c.47 3.19-1.13 5.82-4.88 6.01c-2.93.15-5.86-2.78-5.84-5.63c.02-3.47 2.16-5.35 5.09-5.35c2.93-.01 5.21 2.14 5.63 4.97z"/><path fill="#FBC219" d="M52.17 36.4c5.76 5.34 8.7 14.03 4.46 17.88c-4.04 3.66-13.14 1.78-19.15-3.85c-6.2-5.81-5.12-12.35-1.49-16.01c3.65-3.7 11.09-2.74 16.18 1.98z"/><path fill="#00AA46" d="M69.42 54.71c.63 1.98.1 3.97-1.63 4.68c-2.06.84-4.04-.28-4.97-2.82c-.72-1.94.47-3.86 2.25-4.42c1.77-.56 3.72.59 4.35 2.56zm-8.57 7.69c.93 1.27.97 3.13-.2 3.98c-1.17.86-3.12.39-4.05-.88s-.73-3 .44-3.85c1.18-.86 2.89-.52 3.81.75z"/><path fill="#01AB46" d="M6.88 48.99a1.749 1.749 0 0 1-.14-3.49l11.07-.94c.96-.09 1.81.63 1.89 1.6c.08.96-.63 1.81-1.6 1.89l-11.07.93c-.05.01-.1.01-.15.01zm113.38 52.18c-.31 0-.62-.08-.9-.25l-11.26-6.76c-.83-.5-1.1-1.57-.6-2.4c.5-.83 1.57-1.1 2.4-.6l11.26 6.76c.83.5 1.1 1.57.6 2.4c-.33.55-.91.85-1.5.85z"/></svg>