<svg viewBox="0 0 128 128"><radialGradient id="a" cx="93.4" cy="155.8" r="148.7" gradientUnits="userSpaceOnUse"><stop offset=".3" stop-color="#3049b4"/><stop offset=".5" stop-color="#2d46af"/><stop offset=".7" stop-color="#263ea2"/><stop offset="1" stop-color="#1a308c"/><stop offset="1" stop-color="#172d87"/></radialGradient><path fill="url(#a)" d="M116.6 124.3H11.3a7.5 7.5 0 0 1-7.5-7.6V11.4C3.8 7.3 7.2 4 11.3 4h105.3c4.2 0 7.5 3.4 7.5 7.5v105.3c0 4.2-3.3 7.6-7.5 7.6"/><path fill="#303030" d="M3.8 107.8v9c0 4 3.4 7.5 7.5 7.5h105.3c4.2 0 7.5-3.4 7.5-7.6V98s-8.5-5.5-13.5-8.2-11.5-4.5-14-4.3-10.5 5-15 8.7-13.1 11.7-13.1 11.7-8.2-3-12-3c-5.4-.1-15.6 6-15.6 6s-15.5-8-19.3-8.2-17.8 7.2-17.8 7.2"/><radialGradient id="b" cx="2.9" cy="-32" r="137.8" gradientUnits="userSpaceOnUse"><stop offset=".8" stop-color="#9079f1"/><stop offset="1" stop-color="#6366d6"/></radialGradient><path fill="url(#b)" d="M3.8 106s5.2-2.6 8.2-4.7 8-5.7 9-6 11.8-.3 21.4-1 15-1 16.8-1.5 13.4-9.3 14.2-10 3.7-4.4 6-6.4c2.2-2.1 6-6.4 8.4-9s14-22.8 16-24.3 20.4-7.4 20.4-7.4V16.2s-12.3 9-13.1 9-11.7-2.2-15.8-1.8L89 24c0 .1-11.5 8-12.3 9.2S64.5 59 64.5 59l-23 3.6S31 62.2 29 63s-9.5 7-10.6 8.5-6.4 9.7-7.1 11l-2.5 5-5 5z"/><radialGradient id="c" cx="90.9" cy="1.2" r="52.8" gradientUnits="userSpaceOnUse"><stop offset=".4" stop-color="#6d66d7"/><stop offset=".9" stop-color="#6d66d7" stop-opacity="0"/></radialGradient><path fill="url(#c)" d="M3.8 106s5.2-2.6 8.2-4.7 8-5.7 9-6 11.8-.3 21.4-1 15-1 16.8-1.5 13.4-9.3 14.2-10 3.7-4.4 6-6.4c2.2-2.1 6-6.4 8.4-9s14-22.8 16-24.3 20.4-7.4 20.4-7.4V16.2s-12.3 9-13.1 9-12.1-1.8-15.8-1.8-4.7.2-6.3.7-11.5 8-12.3 9.2S64.5 59 64.5 59l-23 3.6S31 62.2 29 63s-9.5 7-10.6 8.5-6.4 9.7-7.1 11l-2.5 5-5 5z"/><radialGradient id="d" cx="132.6" cy="28.4" r="29.5" gradientUnits="userSpaceOnUse"><stop offset="0" stop-color="#273e9b"/><stop offset=".9" stop-color="#273e9b" stop-opacity="0"/></radialGradient><path fill="url(#d)" d="M103.8 43c2-1.5 20.4-7.3 20.4-7.3V16.2s-12.3 9-13.1 9c0 0-8.9 0-9.7 7.4s2.4 10.5 2.4 10.5"/><radialGradient id="e" cx="-2.7" cy="116.5" r="30.4" gradientUnits="userSpaceOnUse"><stop offset=".2" stop-color="#273e9b"/><stop offset="1" stop-color="#273e9b" stop-opacity="0"/></radialGradient><path fill="url(#e)" d="m8.9 87.5-5 5V106s5-2.6 8.1-4.7 8-5.7 9-6l9.3-.5s-4.4-10.2-7.7-11.9C13 78.4 8.8 87.5 8.8 87.5"/><path fill="#0a67a8" d="M116.5 31.1c.5 1.2 7.6.1 7.6.1v-9.7s-2.4 1.6-4.4 3.9c-2 2.1-4 4-3.2 5.7"/><radialGradient id="f" cx="79.5" cy="30.8" r="28.3" gradientTransform="matrix(.5482 .8364 -1.4474 .9486 80.503 -64.92)" gradientUnits="userSpaceOnUse"><stop offset=".2" stop-color="#6d66d7"/><stop offset=".3" stop-color="#6066d1"/><stop offset=".6" stop-color="#3d66c0"/><stop offset=".9" stop-color="#0a67a8"/></radialGradient><path fill="url(#f)" d="M110.4 33.3c.2.7-6.9 4-9.1 4.9q-3.5 1.4-4.8 2.5c-.8.8-2.2 3.6-3.2 7.2s-1.5 6.5-2.3 7.4-4.7 2-5.3 2.4-4.2 6.2-5.5 8-7.4 6.9-9.7 8.5-10.3 7.3-12 5c-1.8-2.3 2.8-8.8 3.4-9.6s4.6-3.1 4.6-3.1 2.4-12.9 3.3-14.4 3.6-2 5-2.5l2.3-.8c.2 0 2.8-2.6 4.1-3.4s3.6-.6 3.6-.6 2-10.3 3.2-12 7.7-1.8 10.4-2.6c2.8-.6 10.5-1.2 12 3"/><radialGradient id="g" cx="17.3" cy="53.9" r="39.1" gradientTransform="rotate(54.147 35.407 63.165)scale(1 1.3425)" gradientUnits="userSpaceOnUse"><stop offset=".5" stop-color="#9079f1"/><stop offset=".5" stop-color="#8a78ee"/><stop offset=".6" stop-color="#7a76e5"/><stop offset=".7" stop-color="#6073d7"/><stop offset=".8" stop-color="#3b6ec3"/><stop offset=".8" stop-color="#0d67aa"/><stop offset=".9" stop-color="#0a67a8"/></radialGradient><path fill="url(#g)" d="M13.4 91.4c1 .9 2.4-.3 8.8-1.4s17.4-.7 18.6-1.2 10-2.3 11.3-4c1.5-1.5 1.3-11.5 1.8-14.7s1.9-12 1.6-13.8-2.5-1.3-3.1.4c-.6 1.6-3.8 9.8-6.2 10.8s-3.9 1.2-4.5 1.8c-.6.5-6.4 6.7-7 6.8s-6.6-1.6-8-1A47 47 0 0 0 20 81c-1 1.2-8 9.1-6.5 10.5"/><radialGradient id="h" cx="62.2" cy="97.9" r="55.1" gradientUnits="userSpaceOnUse"><stop offset=".4" stop-color="#d0b4f4" stop-opacity="0"/><stop offset=".7" stop-color="#d0b4f4"/></radialGradient><path fill="url(#h)" d="M36.5 70.2s1.8-14.2 10.4-23c4.8-4.8 26-.7 27-.2s9.2 25.6 9.2 25.6-9.2 9.9-9.7 10.2c-.5.4-13.3 9.8-14.2 10-1 0-22.7-22.6-22.7-22.6"/><radialGradient id="i" cx="72.7" cy="67.1" r="19.4" gradientUnits="userSpaceOnUse"><stop offset=".2" stop-color="#0a67a8"/><stop offset="1" stop-color="#0a67a8" stop-opacity="0"/></radialGradient><path fill="url(#i)" d="M93.3 48c-1 3.6-1.5 6.5-2.3 7.3s-4.7 2-5.3 2.4-4.2 6.2-5.5 8-7.4 6.9-9.7 8.5-10.3 7.3-12 5c-1.8-2.3 2.8-8.8 3.4-9.6s4.6-3.1 4.6-3.1 2.4-12.9 3.3-14.4 3.6-2 5-2.5q2.1-.9 2.3-.8c.2.1 2.8-2.6 4.1-3.4s3.6-.6 3.6-.6 9.5-.5 8.5 3.1"/><radialGradient id="j" cx="56" cy="51.8" r="17.4" gradientUnits="userSpaceOnUse"><stop offset="0" stop-color="#0a67a8"/><stop offset="1" stop-color="#0a67a8" stop-opacity="0"/></radialGradient><path fill="url(#j)" d="M40.8 88.8c1.3-.4 10-2.3 11.3-4 1.5-1.5 1.3-11.5 1.8-14.7s1.9-12 1.6-13.8-2.5-1.3-3.1.4c-.6 1.6-3.8 9.8-6.2 10.8s-3.9 1.2-4.5 1.8c-.6.5-6.4 6.7-7 6.8s-6.6-1.6-8-1c-1.2.7 12.9 14.2 14.1 13.7"/><path fill="#fff" d="M55.2 50.2q-.6 1.3.4 2.2c.8.6 1.9.4 2.3-.3s.5-1.7-.5-2.4q-1.4-.6-2.2.5m7.6 2.9q-.4.9.5 1.4a1 1 0 0 0 1.3-.4c.3-.5 0-1.3-.5-1.4q-.7-.2-1.3.4m.2 4.3q-1 0-1.3 1.2c-.3 1.2.4 1.3 1.2 1.3q1.2-.1 1.2-1c0-.5-.2-1.4-1.1-1.5m10.5 4c-.3 1 .2 2 1.4 2q1.8-.1 1.7-1.7 0-1.4-1.6-1.5-1.4.2-1.5 1.2m1.3-15.1q.8.9 0 1.6c-.8.7-1 .4-1.4 0-.5-.4-.5-1.2-.2-1.5q.8-.7 1.6-.1M71.4 78q-.7 1.2.4 2 1 .7 2-.3c1-1 0-1.8-.5-2.1s-1.4-.3-1.9.4m-11.7 3q0 .8.8.9c.8.1.7-.3.8-.8a1 1 0 0 0-.8-.8q-.8.1-.8.7m-5-6.4q0 1.3 1.3 1.4t1.3-1.2c0-1.2-.7-1.3-1.3-1.3-.5 0-1.2.4-1.2 1.1M57 42.2c-.1.8.6 1.2 1.2 1.3q1.1 0 1.3-1.2-.1-1.4-1.3-1.4c-.4 0-1.2.4-1.2 1.3"/><path fill="#ffd717" d="M62.3 44.7s-1.3-4.2-.8-4.5c.5-.4 4.1 1.8 4.1 1.8s3-2.1 3.6-1.7c.5.4-.5 3.8-.5 3.8s2.7 2 2.7 2.6c-.1.6-3.6 1.3-3.6 1.3s-1 3.6-1.7 3.7c-.5 0-2.3-3.4-2.3-3.4s-4 .6-4.2 0c-.2-.8 2.7-3.6 2.7-3.6"/><path fill="#fee262" d="M70.7 67.7s.6-3 1.2-3 2 2.4 2 2.4 3.5-.4 3.8.2c.2.5-2 2.9-2 2.9s1.4 3.4 1 3.8-3.3-1-3.3-1-3.1 2.3-3.3 2c-.2-.5.3-3.6.3-3.6s-3.1-1.7-3-2.3 3.3-1.4 3.3-1.4"/><path fill="#fff7b3" d="M80.7 52.1s-3.1 1.4-3.1 2 3.8 1.5 3.8 1.5.5 3.6 1.2 3.8S85 56 85 56s3.7.2 3.9-.4c.1-.5-2.5-3-2.5-3s1.6-3.1 1.1-3.6-3.6 1.5-3.6 1.5-2.5-2.8-3.2-2.4c-.5.2.1 3.9.1 3.9m-40.4.3s-2.4-3.1-2.9-3-.5 4-.5 4-3.7 1.2-3.7 1.6c0 .6 3.2 1.9 3.2 1.9s.1 3.9.7 4c.5.3 2.8-2.5 2.8-2.5s4 .8 4.3.5-1.4-4-1.4-4 1.8-3 1.4-3.5c-.3-.5-3.9 1-3.9 1m14.8 34.2s0-4.8.7-5.2 3.2 4 3.2 4 4.7-1.7 5-1.2-2.4 4.8-2.4 4.8 3.1 4.3 2.6 4.7-5.2-1-5.2-1-3 4-3.8 3.6c-.8-.5-.3-5.3-.3-5.3s-5-1.4-4.9-2.1 5.1-2.3 5.1-2.3"/><path fill="#ffc6b2" d="M44.4 34s-1.9-4.3-1.4-5 5 2.2 5 2.2 3.2-3.5 4-3.1c.7.5-.4 5-.4 5s4.2 2.7 4.1 3.5c0 .8-5 1.7-5 1.7s-1.3 5-2 5c-.5.1-3-4.7-3-4.7s-4.7.2-5-.5 3.7-4 3.7-4m-6 44.3c-.1 2.1 1 3.9 3.5 4 2.7 0 3.6-2.1 3.6-4S44.1 75 42 75s-3.5 1.6-3.5 3.4M86.7 40c-1.2 0-2.3.7-2.2 2.5 0 1.5 1.3 2.1 2.4 2 1 0 2-.5 2-2q0-2.4-2.2-2.5"/><path fill="#fff7b3" d="M105.3 27.7c-1.9-.1-2.8 1.3-2.9 3q0 2.9 3 3c2 0 2.8-1.6 2.7-3q-.2-3-2.8-3"/><path fill="#fee262" d="M11.6 62.8S8 60.2 7.5 60.6s.3 4.7.3 4.7-3.1 3-3 3.5 4 .7 4 .7 1.8 3.8 2.5 3.9c.6 0 2.1-3.7 2.1-3.7s4.3.2 4.5-.4-2.5-3.6-2.5-3.6 1-4.4.5-4.8-4.3 1.9-4.3 1.9m14.6-4.3Q26.4 60 28 60q1.2-.4 1.2-1.6c0-1.2-.9-1.4-1.5-1.3q-1.2 0-1.4 1.4m76.5.2q-1.6.1-1.6 1.9.2 1.5 1.9 1.5c1.7 0 1.6-1 1.6-1.6s-.5-1.7-1.9-1.8m2.8-7.4q.1 1 1.1 1.1 1.2 0 1.1-1.1-.1-1-1-1c-1 0-1.1.3-1.2 1m15.3-2q0 .9 1 1 1.2-.1 1.2-1 0-1.2-1.2-1.1c-1.2 0-1 .6-1 1m-16.4-32.4c-1 0-2 .6-2 2.2s1.2 2.1 2.2 2.1 2-.6 2-2.1q-.2-2.1-2.2-2.2m-9.2-6.6q-1.3.2-1.4 1.5c-.1 1.3.6 1.5 1.5 1.4 1 0 1.4-.8 1.4-1.4 0-.8-.6-1.6-1.5-1.5"/><path fill="#fff7b3" d="m36.4 85.8-2.2 2.6 2.3 2.8 2.6-2.8zM46 98.5c.5.5.4 1.5-.2 2q-.9.5-1.7-.3t0-1.7q1-.8 2 0m3-1.6q-.6.7-.1 1.4c.2.3 1 .5 1.4 0 .3-.2.4-1 0-1.4a1 1 0 0 0-1.3 0M26.8 67.1c-.8 0-1 .7-1 1s.4 1 1 1 .9-.6.8-1q0-1-.8-1M8 76.7q-1.5.3-1.4 1.7 0 1.3 1.6 1.4 1.4 0 1.5-1.6-.1-1.5-1.7-1.5m19.5-38.5q-1.2.2-1.2 1.2 0 1.1 1.2 1.2 1-.2 1-1.1.2-1.4-1-1.3M54.8 16q0 1 1 1t1-1c0-1-.5-1-1-1s-1 .4-1 1"/><path fill="#fee066" d="M45.5 21.1q-1 0-1.2 1c-.1 1 .4 1.1 1.1 1.1s1-.3 1.1-.9q0-1-1-1.2m2.5-5.7q-1 0-1.1 1c-.1 1 .5 1.2 1 1.2q1.2 0 1.1-1.2 0-1-1-1"/><path fill="#fff" d="M17.9 74.6c-.2.7.2 1.6 1.1 1.6s1.4-.6 1.4-1.4q0-1-1.3-1.2-1 .1-1.2 1m12.3 9.8c-.2.7.2 1.5 1 1.5s1.3-.5 1.3-1.3q0-1-1.2-1-1 .1-1.1.8m11.5 7q-.1.8.8 1c1 .3 1-.3 1-1q0-.7-1-.8-.6.1-.8.7M8.3 94.8c-.2.7.2 1.5 1.1 1.5q1.3 0 1.3-1.3 0-1-1.3-1-1 .1-1 .8M81.7 33q.6.7 0 1.3c-.6.6-.8.3-1.1 0a1 1 0 0 1-.1-1.2q.5-.6 1.2 0m15.5-7.3c.8.6.6 1.6 0 2q-1 .9-1.9.1-.9-1-.1-2 1-.9 2-.1M91 16.9q.9 1 0 1.8c-.8.8-1.2.5-1.6 0q-.8-1-.1-1.7.9-.8 1.7-.1m26.3.4q.8 1 0 1.7-.7.5-1.4 0-.8-.9-.2-1.6.8-.7 1.6 0M121 14q.5.6 0 1.1-.4.4-1 0-.4-.6 0-1t1 0m-8 31q.8 1 0 1.7-1.1.9-1.6 0-.7-.9-.1-1.6.9-.8 1.7-.1m-17.5 7q.5.8 0 1.3t-1.1 0q-.6-.6 0-1.1.4-.6 1-.1"/></svg>