<svg xmlns="http://www.w3.org/2000/svg" width="1em" height="1em" viewBox="0 0 128 128"><radialGradient id="notoMilkyWay0" cx="93.38" cy="155.825" r="148.696" gradientUnits="userSpaceOnUse"><stop offset=".334" stop-color="#3049B4"/><stop offset=".525" stop-color="#2D46AF"/><stop offset=".737" stop-color="#263EA2"/><stop offset=".958" stop-color="#1A308C"/><stop offset="1" stop-color="#172D87"/></radialGradient><path fill="url(#notoMilkyWay0)" d="M116.62 124.26H11.32c-4.15 0-7.52-3.37-7.52-7.52V11.44c0-4.15 3.37-7.52 7.52-7.52h105.3c4.15 0 7.52 3.37 7.52 7.52v105.3c.01 4.15-3.36 7.52-7.52 7.52"/><path fill="#303030" d="M3.8 107.78v8.96c0 4.15 3.37 7.52 7.52 7.52h105.3c4.15 0 7.52-3.37 7.52-7.52V97.88s-8.54-5.45-13.58-8.17s-11.49-4.46-13.98-4.29c-2.49.17-10.52 4.9-15.04 8.64S68.5 105.78 68.5 105.78s-8.24-2.94-11.99-3c-5.41-.09-15.61 6.05-15.61 6.05s-15.5-7.98-19.34-8.26s-17.76 7.21-17.76 7.21"/><radialGradient id="notoMilkyWay1" cx="2.927" cy="-32.044" r="137.842" gradientUnits="userSpaceOnUse"><stop offset=".756" stop-color="#9079F1"/><stop offset="1" stop-color="#6366D6"/></radialGradient><path fill="url(#notoMilkyWay1)" d="M3.81 105.99s5.16-2.57 8.22-4.65s7.96-5.75 8.94-6c.98-.24 11.87-.37 21.42-.98s14.93-.98 16.77-1.59s13.47-9.3 14.2-9.92s3.79-4.41 6-6.49c2.2-2.08 6.12-6.37 8.45-8.94c2.33-2.57 14.08-22.77 16.04-24.36c1.96-1.59 20.31-7.4 20.31-7.4V16.21s-12.23 9-13.09 9c-.86 0-11.63-2.2-15.79-1.84c-4.16.37-6.24.73-6.24.73s-11.51 7.96-12.36 9.18s-12.14 25.83-12.14 25.83l-23.01 3.55s-10.53-.49-12.49.49s-9.55 6.98-10.65 8.45c-1.1 1.47-6.37 9.67-7.1 11.02c-.73 1.35-2.45 4.9-2.45 4.9L3.8 92.59v13.4z"/><radialGradient id="notoMilkyWay2" cx="90.911" cy="1.235" r="52.806" gradientUnits="userSpaceOnUse"><stop offset=".388" stop-color="#6D66D7"/><stop offset=".936" stop-color="#6D66D7" stop-opacity="0"/></radialGradient><path fill="url(#notoMilkyWay2)" d="M3.81 105.99s5.16-2.57 8.22-4.65s7.96-5.75 8.94-6c.98-.24 11.87-.37 21.42-.98s14.93-.98 16.77-1.59s13.47-9.3 14.2-9.92s3.79-4.41 6-6.49c2.2-2.08 6.12-6.37 8.45-8.94c2.33-2.57 14.08-22.77 16.04-24.36c1.96-1.59 20.31-7.4 20.31-7.4V16.21s-12.23 9-13.09 9c-.86 0-12.08-1.82-15.79-1.84c-3.71-.02-4.72.2-6.24.73c-1.52.54-11.51 7.96-12.36 9.18S64.54 59.11 64.54 59.11l-23.01 3.55s-10.53-.49-12.49.49s-9.55 6.98-10.65 8.45c-1.1 1.47-6.37 9.67-7.1 11.02c-.73 1.35-2.45 4.9-2.45 4.9L3.8 92.59v13.4z"/><radialGradient id="notoMilkyWay3" cx="132.617" cy="28.442" r="29.462" gradientUnits="userSpaceOnUse"><stop offset="0" stop-color="#273E9B"/><stop offset=".861" stop-color="#273E9B" stop-opacity="0"/></radialGradient><path fill="url(#notoMilkyWay3)" d="M103.84 43.07c1.96-1.59 20.31-7.4 20.31-7.4V16.21s-12.23 9-13.09 9c0 0-8.84 0-9.62 7.35s2.4 10.51 2.4 10.51"/><radialGradient id="notoMilkyWay4" cx="-2.662" cy="116.522" r="30.417" gradientUnits="userSpaceOnUse"><stop offset=".2" stop-color="#273E9B"/><stop offset="1" stop-color="#273E9B" stop-opacity="0"/></radialGradient><path fill="url(#notoMilkyWay4)" d="m8.85 87.51l-5.04 5.07v13.41s5.16-2.57 8.22-4.65s7.96-5.75 8.94-6l9.33-.54s-4.35-10.24-7.73-11.86c-9.42-4.51-13.72 4.57-13.72 4.57"/><path fill="#0A67A8" d="M116.5 31.14c.48 1.18 7.64.06 7.64.06v-9.75s-2.41 1.61-4.47 3.91c-1.95 2.17-3.88 4.04-3.17 5.78"/><radialGradient id="notoMilkyWay5" cx="79.512" cy="30.798" r="28.335" gradientTransform="matrix(.5482 .8364 -1.4474 .9486 80.503 -64.92)" gradientUnits="userSpaceOnUse"><stop offset=".208" stop-color="#6D66D7"/><stop offset=".35" stop-color="#6066D1"/><stop offset=".616" stop-color="#3D66C0"/><stop offset=".943" stop-color="#0A67A8"/></radialGradient><path fill="url(#notoMilkyWay5)" d="M110.4 33.28c.24.67-6.9 3.96-9.11 4.91c-2.22.95-3.96 1.74-4.76 2.54c-.79.79-2.22 3.57-3.25 7.21s-1.51 6.5-2.3 7.37c-.79.87-4.68 1.98-5.31 2.38c-.63.4-4.12 6.18-5.47 8.08c-1.35 1.9-7.45 6.82-9.75 8.4s-10.22 7.29-11.97 4.99c-1.74-2.3 2.77-8.8 3.41-9.59c.63-.79 4.6-3.09 4.6-3.09s2.46-12.84 3.33-14.35s3.57-1.98 4.91-2.54c1.35-.55 2.38-.79 2.38-.79s2.77-2.62 4.12-3.41s3.57-.63 3.57-.63s2.06-10.3 3.25-11.89s7.61-1.9 10.38-2.62c2.78-.69 10.46-1.25 11.97 3.03"/><radialGradient id="notoMilkyWay6" cx="17.341" cy="53.929" r="39.099" gradientTransform="matrix(.5857 .8105 -1.0881 .7863 65.865 -2.53)" gradientUnits="userSpaceOnUse"><stop offset=".461" stop-color="#9079F1"/><stop offset=".517" stop-color="#8A78EE"/><stop offset=".59" stop-color="#7A76E5"/><stop offset=".67" stop-color="#6073D7"/><stop offset=".758" stop-color="#3B6EC3"/><stop offset=".849" stop-color="#0D67AA"/><stop offset=".854" stop-color="#0A67A8"/></radialGradient><path fill="url(#notoMilkyWay6)" d="M13.39 91.38c.98.88 2.38-.24 8.8-1.35c6.42-1.11 17.36-.71 18.62-1.19c1.27-.48 9.91-2.38 11.33-3.96c1.43-1.59 1.27-11.57 1.74-14.74c.48-3.17 1.9-12.13 1.59-13.87c-.32-1.74-2.46-1.27-3.09.4c-.63 1.66-3.8 9.83-6.18 10.86c-2.38 1.03-3.88 1.19-4.52 1.74c-.63.55-6.42 6.74-7.05 6.82c-.63.08-6.58-1.59-7.85-.95c-1.27.63-5.86 4.6-6.9 5.79c-1.02 1.17-7.99 9.1-6.49 10.45"/><radialGradient id="notoMilkyWay7" cx="62.193" cy="97.912" r="55.124" gradientUnits="userSpaceOnUse"><stop offset=".351" stop-color="#D0B4F4" stop-opacity=".049"/><stop offset=".679" stop-color="#D0B4F4"/></radialGradient><path fill="url(#notoMilkyWay7)" d="M36.45 70.22s1.85-14.17 10.44-22.94c4.8-4.9 26.1-.78 27.08-.29s9.18 25.58 9.18 25.58s-9.3 9.92-9.79 10.28c-.49.37-13.22 9.79-14.2 9.92c-.98.12-22.71-22.55-22.71-22.55"/><radialGradient id="notoMilkyWay8" cx="72.689" cy="67.142" r="19.437" gradientUnits="userSpaceOnUse"><stop offset=".189" stop-color="#0A67A8"/><stop offset="1" stop-color="#0A67A8" stop-opacity=".02"/></radialGradient><path fill="url(#notoMilkyWay8)" d="M93.28 47.95c-1.03 3.65-1.51 6.5-2.3 7.37c-.79.87-4.68 1.98-5.31 2.38c-.63.4-4.12 6.18-5.47 8.08c-1.35 1.9-7.45 6.82-9.75 8.4s-10.22 7.29-11.97 4.99c-1.74-2.3 2.77-8.8 3.41-9.59c.63-.79 4.6-3.09 4.6-3.09s2.46-12.84 3.33-14.35s3.57-1.98 4.91-2.54c1.35-.55 2.38-.79 2.38-.79s2.77-2.62 4.12-3.41s3.57-.63 3.57-.63s9.51-.47 8.48 3.18"/><radialGradient id="notoMilkyWay9" cx="56.008" cy="51.809" r="17.383" gradientUnits="userSpaceOnUse"><stop offset=".011" stop-color="#0A67A8"/><stop offset="1" stop-color="#0A67A8" stop-opacity=".02"/></radialGradient><path fill="url(#notoMilkyWay9)" d="M40.81 88.84c1.27-.48 9.91-2.38 11.33-3.96c1.43-1.59 1.27-11.57 1.74-14.74c.48-3.17 1.9-12.13 1.59-13.87c-.32-1.74-2.46-1.27-3.09.4c-.63 1.66-3.8 9.83-6.18 10.86c-2.38 1.03-3.88 1.19-4.52 1.74c-.63.55-6.42 6.74-7.05 6.82c-.63.08-6.58-1.59-7.85-.95c-1.26.62 12.77 14.18 14.03 13.7"/><path fill="#FFF" d="M55.19 50.22c-.37.68-.31 1.66.43 2.22c.79.6 1.88.35 2.31-.33c.41-.65.46-1.7-.53-2.38c-.82-.56-1.84-.19-2.21.49m7.64 2.85c-.3.55-.14 1.15.45 1.45c.59.29 1.15-.04 1.34-.42c.23-.46-.04-1.26-.53-1.42c-.37-.12-.99-.1-1.26.39m.14 4.35c-.61-.04-1.2.41-1.24 1.16c-.04.75.32 1.34 1.14 1.34c.85 0 1.18-.55 1.24-1.04c.06-.48-.19-1.4-1.14-1.46m10.49 4.01c-.25.89.28 1.93 1.47 1.99c1.2.06 1.72-.71 1.72-1.75c0-.83-.67-1.5-1.69-1.47c-.83.03-1.32.58-1.5 1.23m1.34-15.17c.6.51.44 1.28.05 1.65c-.39.37-1.1.41-1.48.05c-.51-.49-.46-1.21-.12-1.58c.43-.47 1.09-.51 1.55-.12m-3.4 31.73c-.52.68-.34 1.65.4 2.08c.63.37 1.46.36 1.95-.4s.11-1.76-.4-2.07c-.51-.29-1.42-.31-1.95.39m-11.7 3c-.02.49.23.89.77.91c.54.02.77-.33.8-.77a.793.793 0 0 0-.8-.84c-.42 0-.75.38-.77.7m-4.91-6.37c-.06.79.4 1.39 1.19 1.36c.79-.02 1.29-.27 1.31-1.19c.02-.92-.67-1.24-1.24-1.26c-.57-.03-1.21.39-1.26 1.09m2.17-32.46c-.08.87.67 1.29 1.23 1.32c.67.03 1.26-.28 1.29-1.21c.03-1.01-.62-1.32-1.23-1.32c-.48.01-1.21.31-1.29 1.21"/><path fill="#FFD717" d="M62.34 44.65s-1.38-4.11-.85-4.49c.5-.36 4.15 1.81 4.15 1.81s2.95-2.1 3.53-1.69c.54.38-.5 3.84-.5 3.84s2.75 2.05 2.69 2.57c-.08.61-3.57 1.34-3.57 1.34s-1.04 3.57-1.73 3.64c-.5.06-2.26-3.34-2.26-3.34s-4.01.52-4.17.02c-.27-.84 2.71-3.7 2.71-3.7"/><path fill="#FEE262" d="M70.71 67.66s.64-2.91 1.16-3.03c.52-.12 2.07 2.47 2.07 2.47s3.47-.44 3.75.16c.24.52-1.95 2.91-1.95 2.91s1.36 3.39.96 3.83c-.34.38-3.34-.92-3.34-.92s-3.09 2.19-3.23 1.92c-.26-.49.29-3.63.29-3.63s-3.14-1.68-2.98-2.24c.15-.56 3.27-1.47 3.27-1.47"/><path fill="#FFF7B3" d="M80.74 52.1s-3.14 1.37-3.18 2.06c-.04.69 3.84 1.47 3.84 1.47s.48 3.6 1.25 3.72c.77.12 2.22-3.24 2.22-3.24s3.69.24 3.89-.37c.18-.57-2.45-2.95-2.45-2.95s1.6-3.19 1.11-3.65c-.5-.46-3.59 1.47-3.59 1.47s-2.55-2.78-3.21-2.43c-.52.26.12 3.92.12 3.92m-40.42.29s-2.45-3.13-2.87-2.98c-.42.15-.54 4.01-.54 4.01s-3.67 1.18-3.67 1.61c0 .57 3.17 1.87 3.17 1.87s.11 3.86.65 4.09c.51.22 2.83-2.6 2.83-2.6s4.01.8 4.32.5c.31-.31-1.45-3.9-1.45-3.9s1.8-3.13 1.45-3.63c-.34-.5-3.89 1.03-3.89 1.03M55.1 86.6s.03-4.85.73-5.18s3.18 4.01 3.18 4.01s4.7-1.73 5.03-1.23s-2.43 4.79-2.43 4.79s3.14 4.29 2.64 4.74c-.5.46-5.23-.98-5.23-.98s-3.06 3.99-3.81 3.51c-.79-.5-.31-5.24-.31-5.24s-4.99-1.44-4.87-2.14c.12-.7 5.07-2.28 5.07-2.28"/><path fill="#FFC6B2" d="M44.42 34.07s-1.92-4.4-1.44-5.05c.48-.65 4.98 2.14 4.98 2.14s3.23-3.47 3.95-3.06c.79.46-.29 5.03-.29 5.03s4.19 2.69 4.11 3.46c-.07.77-4.96 1.71-4.96 1.71s-1.42 4.96-2 5.03c-.6.08-3.06-4.69-3.06-4.69s-4.76.12-5-.55s3.71-4.02 3.71-4.02m-6.07 44.35c-.05 2.08 1.14 3.85 3.57 3.92c2.68.08 3.62-2.08 3.6-3.9c-.02-1.81-1.46-3.55-3.6-3.42s-3.53 1.53-3.57 3.4M86.74 40c-1.23.02-2.31.73-2.25 2.47c.05 1.56 1.36 2.13 2.39 2.1c1.05-.04 2.06-.59 2.11-2.11c.06-1.47-.88-2.48-2.25-2.46"/><path fill="#FFF7B3" d="M105.31 27.68c-1.87-.12-2.84 1.32-2.88 3.06c-.03 1.74 1.07 3.05 3.03 3.03c1.92-.02 2.7-1.71 2.65-3.06c-.07-2.05-1.24-2.92-2.8-3.03"/><path fill="#FEE262" d="M11.62 62.77s-3.74-2.58-4.12-2.22c-.4.37.29 4.75.29 4.75s-3.09 2.96-2.93 3.47c.13.42 3.95.7 3.95.7s1.78 3.82 2.45 3.89c.67.06 2.17-3.66 2.17-3.66s4.24.22 4.46-.38c.22-.61-2.51-3.67-2.51-3.67s1.08-4.4.54-4.72c-.54-.32-4.3 1.84-4.3 1.84m14.61-4.23c-.06.86.76 1.56 1.66 1.43c.89-.13 1.15-.73 1.18-1.56c.03-.83-.83-1.43-1.5-1.34c-.67.1-1.27.55-1.34 1.47m76.51.19c-.93-.01-1.74.72-1.66 1.83c.08 1.06.89 1.58 1.91 1.54c1.02-.04 1.6-.91 1.6-1.64s-.48-1.71-1.85-1.73m2.75-7.39c-.06.64.46 1.07 1.14 1.09c.81.02 1.14-.47 1.11-1.14c-.04-.68-.56-.97-1.09-1.03s-1.08.29-1.16 1.08m15.28-2.07c0 .48.33 1.07 1.11 1.05c.79-.01 1.05-.51 1.1-1.02c.05-.51-.29-1.11-1.14-1.13s-1.07.62-1.07 1.1m-16.4-32.43c-.9.01-1.98.59-2 2.12c-.02 1.53 1.2 2.18 2.2 2.16s2.12-.67 2.12-2.14c-.01-1.4-1.03-2.16-2.32-2.14m-9.13-6.67c-.88.03-1.49.71-1.49 1.53s.61 1.48 1.56 1.44c1.02-.04 1.39-.8 1.42-1.44c.04-.77-.59-1.56-1.49-1.53"/><path fill="#FFF7B3" d="m36.43 85.82l-2.2 2.54l2.24 2.83l2.62-2.74zm9.6 12.7c.47.53.41 1.45-.26 1.92c-.46.32-1.19.29-1.66-.21c-.43-.45-.47-1.19.02-1.73c.5-.53 1.39-.56 1.9.02m3.04-1.61c-.42.4-.34.98-.08 1.35c.23.33 1.02.53 1.45.06c.21-.24.37-1.02-.02-1.39a1 1 0 0 0-1.35-.02M26.79 67.13c-.76-.02-.98.62-.96 1.03c.02.41.35.87.91.87s.93-.5.91-1c-.02-.49-.28-.88-.86-.9m-18.77 9.6c-1.12.08-1.43.75-1.4 1.65c.03.84.57 1.4 1.61 1.43c.86.03 1.47-.64 1.47-1.61c.01-.97-.67-1.54-1.68-1.47m19.51-38.58c-.8-.02-1.24.62-1.28 1.21c-.05.75.55 1.19 1.21 1.21c.78.02 1.09-.62 1.12-1.12s-.21-1.27-1.05-1.3m27.3-22.06c0 .66.36 1.04.98 1.06c.54.02.96-.44.96-1s-.42-.98-.96-.98s-.98.34-.98.92"/><path fill="#FEE066" d="M45.47 21.11c-.61-.04-1.1.39-1.12 1.05c-.02.66.37 1.05 1.05 1.05s1.08-.32 1.1-.88c.02-.71-.35-1.17-1.03-1.22M48 15.38c-.73 0-1.06.41-1.11 1.04c-.05.63.46 1.15 1.01 1.17c.67.03 1.19-.41 1.14-1.17c-.05-.67-.47-1.04-1.04-1.04"/><path fill="#FFF" d="M17.85 74.61c-.2.71.22 1.54 1.17 1.59c.95.05 1.37-.56 1.37-1.39c0-.66-.54-1.2-1.34-1.17c-.66.02-1.05.46-1.2.97m12.32 9.82c-.19.65.2 1.42 1.08 1.46c.88.04 1.26-.52 1.26-1.28c0-.61-.49-1.1-1.24-1.08c-.61.02-.97.43-1.1.9m11.53 6.9c-.15.51.16 1.11.84 1.14s.98-.4.98-1c0-.47-.39-.86-.97-.84c-.47.01-.75.33-.85.7m-33.39 3.5c-.19.66.2 1.43 1.09 1.47c.88.05 1.27-.52 1.27-1.29c0-.61-.5-1.11-1.25-1.09c-.61.02-.97.43-1.11.91m73.48-61.92c.48.41.35 1.02.04 1.31s-.88.33-1.18.04c-.41-.39-.37-.96-.09-1.26c.34-.37.86-.41 1.23-.09m15.49-7.24c.77.65.57 1.64.06 2.11c-.51.48-1.42.53-1.9.06c-.65-.62-.6-1.55-.15-2.02c.56-.6 1.4-.66 1.99-.15m-6.25-8.79c.68.58.5 1.44.05 1.86s-1.25.46-1.68.05c-.58-.55-.52-1.36-.13-1.78c.5-.53 1.24-.58 1.76-.13m26.27.43c.6.51.44 1.28.05 1.65c-.4.37-1.11.41-1.49.05c-.51-.49-.47-1.21-.12-1.58c.44-.47 1.1-.51 1.56-.12m3.7-3.29c.39.33.29.83.03 1.08c-.26.24-.72.27-.97.03c-.33-.32-.3-.79-.08-1.03c.29-.31.72-.34 1.02-.08m-8.04 31.04c.64.55.47 1.37.05 1.76s-1.18.44-1.59.05c-.55-.52-.5-1.29-.12-1.69c.47-.49 1.17-.54 1.66-.12m-17.47 7.11c.46.39.34.97.04 1.26c-.3.28-.84.31-1.13.04c-.39-.37-.35-.92-.09-1.2c.33-.37.83-.4 1.18-.1"/></svg>