<svg xmlns="http://www.w3.org/2000/svg" width="1em" height="1em" viewBox="0 0 128 128"><path fill="#b9ce46" d="M65.03 92.69S4.8 111.08 4.67 112.41s24.11 12.02 64.62 11.46c38.64-.53 53.57-10.39 53.83-11.46S66.36 92.42 65.03 92.69"/><path fill="#9ea2a3" d="m62.26 42.15-4.31-5.42s-6.96 7.3-8.84 9.29-3.33 3.14-4.23 5.01c-1.29 2.67-5.38 25.72-5.38 25.72L27.67 88.9s-2.23-1.39-2.78-.94-18.67 22.05-18.67 22.05l-1.56 2.39s3.6.8 4.71.69c.54-.05 3.2-.66 6.21-.97 3.17-.33 7.22-.06 7.67-.11.51-.05 2.27-.57 2.27-.57l15.74-9.39 12.93-3.21 11.83 5.31 23.21 1.11 12.71-19.01-27.63-36.59z"/><path fill="#717a7c" d="M28.55 97.77s-.43-1.23-.75-2.14-.13-6.73-.13-6.73 7.21 4.26 8.01 4.96 7.94 5.15 7.94 5.15 5.09-.64 6.86-.75 4.83.05 4.83.05l-1.18 1.72s-11.53 3.75-13.57 4.4c-2.04.64-15.11 7.29-15.09 7.04.04-.52 3.4-5.33 3.4-5.33z"/><path fill="#717a7c" d="m80.73 103.46-49.26 7.78s-2.38 2.11-2.14 2.67 9.33 2.25 12.47 2.65 24.61 1.61 26.94 1.45 26.14-1.37 29.44-1.77 14.39-1.17 15.12-1.5c1.41-.64 7.88-4.13 7.88-4.13s-7.24-11.42-8.69-14.16c-1.45-2.73-3.86-7.64-5.55-9.33s-2.9-2.41-2.9-2.41-2.28-5.3-4.94-8.68c-2.65-3.38-5.8-9.3-6.64-10.14-3.19-3.18-3.77-3.03-3.77-3.03l2 24.1s-3.7 7.4-4.99 9.41c-1.27 2.03-4.97 7.09-4.97 7.09"/><path fill="#717a7c" d="m63.03 27.62-.97 19.62 11.41 7.08s3.43 8.79 3.59 9.6c.16.8-.15 2.97.17 3.53s6.23 4.63 6.46 4.64c1.31.07 4.02-.4 3.86-.64s1.08-5.46 1.08-5.46-7.84-12.71-9.53-16.25-8.04-12.71-8.77-14.24-4.18-6.6-4.91-7.4-1.9-1.04-2.39-.48"/><path fill="silver" d="M68.02 65.05s5.39-8.88 5.55-10.24-4.34-9.65-5.47-12.63-4.1-9.09-4.42-9.89-.64-4.66-.64-4.66-2.25 2.41-3.06 4.34c-.8 1.93-3.83 6.68-3.83 6.68s1.9 11.02 2.63 15.76c.72 4.75 1.26 10.98 1.15 11.21-.69 1.4-5.33 12.68-5.33 12.68s-.6 5.47-.04 6.03 3.81 1.3 4.06.92c.49-.73.48-3.5.48-3.5s9.02-12.18 9.31-12.78c.11-.23-.39-3.92-.39-3.92m-18.38.87c-.03-1.21-1.8-6.95-2.12-8.24s-1-7.66-1.89-7.66c-.88 0-4.96 11.22-5.37 12.27-.4 1.05-6.11 13.35-6.84 14.8-.72 1.45-4.02 7.72-4.66 8.77s-1.49 2.83-1.49 2.83l16.34 10.33 5.9-.67s-3.45-9.27-4.26-11.36-1.77-5.47-1.77-5.47 1.87-4.48 3.09-7.7c1.23-3.24 3.11-6.7 3.07-7.9M25.32 87.97c.04.15.25 3.92.14 6.17-.11 2.26-.55 4.52-.55 4.52l-6.61 8.6s-11.96 4.63-12.68 4.85-.95.3-.95.3-1.5-.91 2.99-5.81c5.8-6.33 13.22-15 14.16-16.09 1.67-1.94 3.39-2.99 3.5-2.54"/><path fill="#367c2d" d="M39.8 90.59c-.68-.07-1.54 2.2-2 3.89-.33 1.19-2.46 7.22-2.71 8.39-.26 1.18-1.58 4.66-1.22 4.82.36.15 3.15.35 4.64.04 1.48-.31 4.72-2.91 4.72-3.52s-1.4-6.93-1.53-7.68c-.36-2.15-.84-5.83-1.9-5.94m66.91 9.23c-.6-.25-2.13 6.52-2.45 8.91s-1.17 6.93-.95 7.38c.64 1.27 7.46.43 8.12-.66.19-.31-.77-5.4-1.46-7.55-.94-2.94-1.71-7.43-3.26-8.08m11.95-8.53c-.94.04-1.94 8.25-2.56 10.04-.7 2.03-3.04 11.64-2.07 12.74s4.68.23 6.06-.17c1.33-.38 2.48-1.02 2.8-1.73s-.44-6.44-1.36-10.44c-.94-4.05-1.39-10.51-2.87-10.44"/><path fill="silver" d="M31.47 111.25s2.59.98 11.46 1.53 13.23.5 13.23.5l20.26-2.96 4.6-7.28s-6.12-.23-9.37-.34-8.1-.13-8.32-.73c-.22-.61 5.47-4.74 7.07-5.56 1.6-.83 5.46-1.27 6.34-2.2.88-.94 12-7.21 13.37-7.26 1.38-.06 5.68 2.59 6.5 2.31.83-.28-2.86-10.04-3.35-11.87-.04-.16-1.99-9.67-2.05-9.85-.46-1.41-1.87-5.07-2.76-4.63-.88.44-2.37 3.8-3.47 7.16s-1.76 5.13-2.31 5.95-6.94 4.91-7.83 5.84c-.88.94-3.53 2.92-5.13 3.58s-3.14.66-4.3 1.71-2.59 2.87-4.19 4.57c-1.6 1.71-4.85 5.63-5.92 6.59s-2.03 1.89-2.03 1.89-7.73 2.19-10.33 3.45c-2.58 1.27-12.14 7.43-11.47 7.6"/><path fill="#367c2d" d="M76.52 106.03c-.72.06-1.73 5.46-2.09 6.66-.2.68-1.87 5.33-1.42 6.11.9 1.6 8.3 1.17 8.63.33.32-.84-2.11-6.46-2.56-7.5-.46-1.02-1.5-5.69-2.56-5.6"/><path fill="#fff" d="M111.79 52.02c-.85.85-.88 2.2.06 2.97.83.69 2.2.24 2.71-.38s.45-1.97-.23-2.65-2.03-.45-2.54.06"/><path fill="#fff" d="M112.07 64.67c-.91 1-.61 2.49.23 3.04s2.1.5 2.72-.26c.55-.68.61-2.04-.23-2.88-.73-.73-2.13-.55-2.72.1" opacity=".5"/><path fill="#fff" d="M86 32.06c-.26.83.26 1.77 1.05 1.91.83.15 1.68-.09 1.91-.88.23-.8-.06-1.8-1.2-2s-1.63.52-1.76.97" opacity=".6"/><path fill="#fff" d="M94.54 46.11s.74-2.72 1.28-2.81 1.62 2.92 1.62 2.92 2.69.09 2.78.51c.09.43-1.9 2.04-1.9 2.04s.74 2.52.43 2.84c-.31.31-2.78-1.28-2.78-1.28s-2.21 1.87-2.72 1.53.43-3.15.43-3.15-2.1-1.5-2.13-2.01c-.04-.51 2.99-.59 2.99-.59m-61-7.49s.97-2.79 1.56-2.82c.58-.03 1.43 2.79 1.43 2.79s2.88.03 3.08.45c.25.54-1.85 2.37-1.85 2.37s.68 2.72.36 3.05c-.36.36-2.85-1.07-2.85-1.07s-2.56 1.78-3.11 1.3c-.48-.42.52-3.31.52-3.31s-2.4-1.75-2.27-2.24c.17-.68 3.13-.52 3.13-.52"/><path fill="#fff" d="M11.86 46.11c-.6-.03-1.42.57-1.42 1.6 0 .76.73 1.39 1.36 1.39.91 0 1.54-.69 1.51-1.48-.04-1.03-.82-1.48-1.45-1.51" opacity=".5"/><path fill="#fff" d="M18.47 61.03c.06 1.14.63 2.11 2.11 2.07s2.7-2.31 1.29-3.64-3.48.04-3.4 1.57M8.65 74.98c.7.78 2.38.47 2.42-.9.04-1.25-.59-1.84-1.76-1.68-1.16.16-1.51 1.63-.66 2.58"/><path fill="#367c2d" d="M45.91 92.85c-.59.2-1.32 2.48-2.01 4.84-.44 1.49-1.72 5.96-1.41 6.18s3.4.37 4.62-.38 2.11-1.4 2.27-1.84-1.24-4.32-1.78-5.74c-.42-1.07-1.07-3.28-1.69-3.06"/><path fill="#fff" d="M35.53 20.08c-.91 1-.61 2.49.23 3.04s2.1.5 2.72-.26c.55-.68.61-2.04-.23-2.88-.73-.72-2.14-.54-2.72.1" opacity=".5"/></svg>