<svg viewBox="0 0 128 128"><radialGradient id="a" cx="56.4" cy="76.1" r="40.3" fx="55.4" fy="76.1" gradientTransform="rotate(95.833 98.83 123.08)scale(1 2.2347)" gradientUnits="userSpaceOnUse"><stop offset=".3" stop-color="#346fd0"/><stop offset=".3" stop-color="#336dce"/><stop offset=".5" stop-color="#284da5"/><stop offset=".6" stop-color="#244196"/></radialGradient><path fill="url(#a)" d="M72.4 61.4C71.7 61 43.7 66 43.7 66S32.8 78 30.6 80.1c-2.3 2-7 6.2-9.9 8.3l-8.4 6L21 103l49.5 12s42.8-11.4 42.4-12.2-40.4-41.4-40.4-41.4"/><path fill="#234096" d="m79.4 63-4.3 12.3s6.4 9.9 8.2 12.3 11 12.8 11 12.8l20.6-9.2s-4.5-2-12.6-9L89.8 71.1z"/><path fill="#bdccd1" d="M49.3 106.6c0-.3-8-7.2-8-7.2L15.2 106s-11.6 1-11.4 3.6c.2 2.4 1.4 7.6 6.2 10.7 4.7 3 12 3 16.6 3.3s28 .2 40.9.3 32.7.2 39.7-.5 12.3-3.2 14.7-7.1c2.5-4 2.7-7.5 2.5-10.5-.2-3.1-30.4 6.9-30.4 6.9z"/><path fill="#e4ebee" d="M50.5 101.8s-1.7-5.8-10-7.3-11.8 2-14.4 1.8c-2.5-.3-4-3.2-9.9-2.8S6.4 97 4.8 101.9s-1.1 7.8-1.1 7.8 1.3 5.8 13.2 5.5 15.3-4.6 20.3-7.7 7.8-4 8.3-3-3.7 3.2-5.1 7-1.9 5.6.5 5.7 37.4-.4 48.3-.4 23.2-.5 28.3-3.1c5-2.6 7.1-5 7.1-5s1.9-6.2-3.8-13-13.1-7.4-18.6-5.4c-5.4 2-8.5 6.8-8.5 6.8s-2.8-4.2-10-4.5C70.7 92 64 103 64 103s-3.1-1.4-6.5-1.7c-2.5-.2-7 .5-7 .5"/><path fill="#8cc2ea" d="M71.2 76s4 .7 4.5.5c1-.4 1.9-2.4 2.5-3 .4-.6 1-.3 1.4-.1s3.2 3 3.5 3 2.4.1 2.5-.3-3-3.2-3.6-4-1.4-2-.5-2.5c1.1-.6 2.2.4 2.7.9s5.2 5 5.6 5.1c.4.2 4-.5 4.2-1 .2-.3-2.8-3-4.5-4.6l-9.8-9.2a95 95 0 0 1-6.3-6.4c-.5-.6-1.9-2.1-3.1-3-.5-.4-1.2-.9-1.7-.6l-.9.6s-1.2 1-3.4 1.1c-1.9.2-2.7-.5-3.1-1-.6-.5-1-1.1-2.4-.7s-.3 3.7-.3 3.7zm-25.5-3.4s2.5 1.2 2.8 2.7.6 3.7 1.6 4.3c1.6.8 5.8-5 6.8-6.5 1.1-1.5 2.3-2.8 4.2-2.2s2.5 2.4 2.5 2.4l-.1-5.2-7.2-2-7.2 5.5z"/><path fill="#fff" d="m51.8 58 7.2-6s-.2.9.1 1.3 2.2 1.8 2.8 1.9c.9.1 3.3 0 4-.4L67 54v2l-2.2 4 .9 4.6 5 4.2.6 9s-1.1.4-3.3.6l-9.5.5c-1 0-2.1 0-1-1.3l3.1-3.4c.7-.8 1.8-2.7.5-4s-2.3-1-3.4-.8-6 3.6-8.6 3.8-3.6 0-4.6.4l-3.5 2q-1.6.9-2.5.6c-1.3-.2-.2-1.5 1.5-3.6 1.1-1.3 2-3.8 2-3.8z"/><path fill="#c6e4f7" d="M47.6 65.1c.6 0-.2 1.7-1 2.7-.7 1-1.2 2-.6 2.4s2.8-1.8 4-3.3 1.8-3.7 1.4-4.1-1.3.7-1.7.2 3.5-4.7 3.5-4.7l5.9-5.2-.1-1c0-.5.2-1.6-.4-1.2-.6.3-7 5.8-7 5.8L39.8 70c-.5.7-1 1.4-.5 2 .2.6 1 .4 1 .4s6.6-7.4 7.2-7.3"/><path fill="#c6e4f7" d="M56.8 57.5c-.6-.3-1.6 1-2 2.4s-.4 2.2-1 3.4-4 5-3.1 6 5.6-4.6 6.3-5.4q1.4-1.4 1.4-2.6c0-1.2-.8-1.5-.9-2s.2-1.6-.7-1.8m8.4-5s1.4-.4 2.1-1q1.5-.9 1.5-.7.6.3.3 1.6c-.2 1-1 2.6-1.2 3.3L66.7 59s-.8 1.9-.1 2.8l3.1 4c.9 1 1.8 2.5 1.8 2.5l4.4 8.1s-.1.3-3 1.2c-1 .3-3 .5-3 .5s-1.7-6-1.6-6.8.5-3.7-.1-4.3-2-.4-2.8-.2-2.6.6-3-.1c-.4-.8.4-2.1.7-3.4s1.7-4.7 1.7-4.7l1.7-3.3c.3-1.1-.5-.7-.5-.7s1.4-.8 1-2c-.3-.6-1.8-.2-1.8-.2"/><path fill="#fff" d="M84.1 42.3c-.8.9-.6 2.6.8 3.3s2.4 0 3-.7c.5-.9.4-2.6-.8-3.2-.8-.5-2.2-.4-3 .5" opacity=".5"/><path fill="#fff" d="M89.7 60.6c-.5.7-.3 2 .7 2.4s1.7.1 2.2-.5.2-1.8-.5-2.3q-1.5-.7-2.4.4m22.5-3q-.2 1.2 1.3 1.3c1.5.1 1.4-.7 1.4-1.3s-.6-1.3-1.4-1.3q-1.3.1-1.3 1.4M23 76.4q.2 1.4 1.3 1.3 1.5 0 1.4-1.1 0-1.5-1.3-1.5c-1.3 0-1.4.7-1.4 1.3M6.4 54.6c-.1 1.1 1 1.6 1.6 1.6s1.5-.4 1.6-1.3q0-1.6-1.5-1.9-1.6.1-1.7 1.6m19.4-.4c-.5 0-1.4 2.7-1.4 2.7s-2.7.2-2.8.5 1.9 2.1 1.9 2.1-.7 2.5-.4 2.7 2.6-1.2 2.6-1.2 2.5 1.5 2.8 1.3-.5-2.9-.5-2.9 1.9-1.6 1.8-2-2.7-.4-2.7-.4-1-2.8-1.3-2.8"/><path fill="#fff" d="M36.3 24.2c-.7.9-.6 2.6.8 3.3s2.4 0 3-.7c.6-.9.4-2.6-.8-3.2-.8-.5-2.2-.4-3 .6" opacity=".5"/><path fill="#fff" d="M89.8 13.9c-1.4-.6-3.4.2-3.7 2-.4 2 .8 3 1.8 3.4 1.3.4 3.3-.3 3.7-2a3 3 0 0 0-1.8-3.4"/></svg>