<svg xmlns="http://www.w3.org/2000/svg" width="1em" height="1em" viewBox="0 0 128 128"><path fill="#B9CE46" d="M65.03 92.69S4.8 111.08 4.67 112.41c-.13 1.33 24.11 12.02 64.62 11.46c38.64-.53 53.57-10.39 53.83-11.46S66.36 92.42 65.03 92.69"/><path fill="#9EA2A3" d="m62.26 42.15l-4.31-5.42s-6.96 7.3-8.84 9.29c-1.88 1.99-3.33 3.14-4.23 5.01c-1.29 2.67-5.38 25.72-5.38 25.72L27.67 88.9s-2.23-1.39-2.78-.94s-18.67 22.05-18.67 22.05l-1.56 2.39s3.6.8 4.71.69c.54-.05 3.2-.66 6.21-.97c3.17-.33 7.22-.06 7.67-.11c.51-.05 2.27-.57 2.27-.57l15.74-9.39l12.93-3.21l11.83 5.31l23.21 1.11l12.71-19.01l-27.63-36.59z"/><path fill="#717A7C" d="M28.55 97.77s-.43-1.23-.75-2.14c-.32-.91-.13-6.73-.13-6.73s7.21 4.26 8.01 4.96s7.94 5.15 7.94 5.15s5.09-.64 6.86-.75c1.77-.11 4.83.05 4.83.05l-1.18 1.72s-11.53 3.75-13.57 4.4c-2.04.64-15.11 7.29-15.09 7.04c.04-.52 3.4-5.33 3.4-5.33z"/><path fill="#717A7C" d="m80.73 103.46l-49.26 7.78s-2.38 2.11-2.14 2.67c.24.56 9.33 2.25 12.47 2.65c3.14.4 24.61 1.61 26.94 1.45c2.33-.16 26.14-1.37 29.44-1.77c3.3-.4 14.39-1.17 15.12-1.5c1.41-.64 7.88-4.13 7.88-4.13s-7.24-11.42-8.69-14.16c-1.45-2.73-3.86-7.64-5.55-9.33s-2.9-2.41-2.9-2.41s-2.28-5.3-4.94-8.68c-2.65-3.38-5.8-9.3-6.64-10.14c-3.19-3.18-3.77-3.03-3.77-3.03l2 24.1s-3.7 7.4-4.99 9.41c-1.27 2.03-4.97 7.09-4.97 7.09"/><path fill="#717A7C" d="m63.03 27.62l-.97 19.62l11.41 7.08s3.43 8.79 3.59 9.6c.16.8-.15 2.97.17 3.53c.32.56 6.23 4.63 6.46 4.64c1.31.07 4.02-.4 3.86-.64s1.08-5.46 1.08-5.46s-7.84-12.71-9.53-16.25c-1.69-3.54-8.04-12.71-8.77-14.24s-4.18-6.6-4.91-7.4s-1.9-1.04-2.39-.48"/><path fill="silver" d="M68.02 65.05s5.39-8.88 5.55-10.24s-4.34-9.65-5.47-12.63c-1.13-2.98-4.1-9.09-4.42-9.89c-.32-.8-.64-4.66-.64-4.66s-2.25 2.41-3.06 4.34c-.8 1.93-3.83 6.68-3.83 6.68s1.9 11.02 2.63 15.76c.72 4.75 1.26 10.98 1.15 11.21c-.69 1.4-5.33 12.68-5.33 12.68s-.6 5.47-.04 6.03c.56.56 3.81 1.3 4.06.92c.49-.73.48-3.5.48-3.5s9.02-12.18 9.31-12.78c.11-.23-.39-3.92-.39-3.92m-18.38.87c-.03-1.21-1.8-6.95-2.12-8.24c-.32-1.29-1-7.66-1.89-7.66c-.88 0-4.96 11.22-5.37 12.27c-.4 1.05-6.11 13.35-6.84 14.8c-.72 1.45-4.02 7.72-4.66 8.77s-1.49 2.83-1.49 2.83l16.34 10.33l5.9-.67s-3.45-9.27-4.26-11.36s-1.77-5.47-1.77-5.47s1.87-4.48 3.09-7.7c1.23-3.24 3.11-6.7 3.07-7.9M25.32 87.97c.04.15.25 3.92.14 6.17c-.11 2.26-.55 4.52-.55 4.52l-6.61 8.6s-11.96 4.63-12.68 4.85c-.72.22-.95.3-.95.3s-1.5-.91 2.99-5.81c5.8-6.33 13.22-15 14.16-16.09c1.67-1.94 3.39-2.99 3.5-2.54"/><path fill="#367C2D" d="M39.8 90.59c-.68-.07-1.54 2.2-2 3.89c-.33 1.19-2.46 7.22-2.71 8.39c-.26 1.18-1.58 4.66-1.22 4.82c.36.15 3.15.35 4.64.04c1.48-.31 4.72-2.91 4.72-3.52s-1.4-6.93-1.53-7.68c-.36-2.15-.84-5.83-1.9-5.94m66.91 9.23c-.6-.25-2.13 6.52-2.45 8.91c-.32 2.39-1.17 6.93-.95 7.38c.64 1.27 7.46.43 8.12-.66c.19-.31-.77-5.4-1.46-7.55c-.94-2.94-1.71-7.43-3.26-8.08m11.95-8.53c-.94.04-1.94 8.25-2.56 10.04c-.7 2.03-3.04 11.64-2.07 12.74c.97 1.1 4.68.23 6.06-.17c1.33-.38 2.48-1.02 2.8-1.73s-.44-6.44-1.36-10.44c-.94-4.05-1.39-10.51-2.87-10.44"/><path fill="silver" d="M31.47 111.25s2.59.98 11.46 1.53c8.87.55 13.23.5 13.23.5l20.26-2.96l4.6-7.28s-6.12-.23-9.37-.34c-3.25-.11-8.1-.13-8.32-.73c-.22-.61 5.47-4.74 7.07-5.56c1.6-.83 5.46-1.27 6.34-2.2c.88-.94 12-7.21 13.37-7.26c1.38-.06 5.68 2.59 6.5 2.31c.83-.28-2.86-10.04-3.35-11.87c-.04-.16-1.99-9.67-2.05-9.85c-.46-1.41-1.87-5.07-2.76-4.63c-.88.44-2.37 3.8-3.47 7.16s-1.76 5.13-2.31 5.95s-6.94 4.91-7.83 5.84c-.88.94-3.53 2.92-5.13 3.58c-1.6.66-3.14.66-4.3 1.71c-1.16 1.05-2.59 2.87-4.19 4.57c-1.6 1.71-4.85 5.63-5.92 6.59s-2.03 1.89-2.03 1.89s-7.73 2.19-10.33 3.45c-2.58 1.27-12.14 7.43-11.47 7.6"/><path fill="#367C2D" d="M76.52 106.03c-.72.06-1.73 5.46-2.09 6.66c-.2.68-1.87 5.33-1.42 6.11c.9 1.6 8.3 1.17 8.63.33c.32-.84-2.11-6.46-2.56-7.5c-.46-1.02-1.5-5.69-2.56-5.6"/><path fill="#FFF" d="M111.79 52.02c-.85.85-.88 2.2.06 2.97c.83.69 2.2.24 2.71-.38c.51-.62.45-1.97-.23-2.65s-2.03-.45-2.54.06"/><path fill="#FFF" d="M112.07 64.67c-.91 1-.61 2.49.23 3.04c.84.55 2.1.5 2.72-.26c.55-.68.61-2.04-.23-2.88c-.73-.73-2.13-.55-2.72.1" opacity=".5"/><path fill="#FFF" d="M86 32.06c-.26.83.26 1.77 1.05 1.91c.83.15 1.68-.09 1.91-.88c.23-.8-.06-1.8-1.2-2c-1.14-.2-1.63.52-1.76.97" opacity=".6"/><path fill="#FFF" d="M94.54 46.11s.74-2.72 1.28-2.81c.54-.09 1.62 2.92 1.62 2.92s2.69.09 2.78.51c.09.43-1.9 2.04-1.9 2.04s.74 2.52.43 2.84c-.31.31-2.78-1.28-2.78-1.28s-2.21 1.87-2.72 1.53c-.51-.34.43-3.15.43-3.15s-2.1-1.5-2.13-2.01c-.04-.51 2.99-.59 2.99-.59m-61-7.49s.97-2.79 1.56-2.82c.58-.03 1.43 2.79 1.43 2.79s2.88.03 3.08.45c.25.54-1.85 2.37-1.85 2.37s.68 2.72.36 3.05c-.36.36-2.85-1.07-2.85-1.07s-2.56 1.78-3.11 1.3c-.48-.42.52-3.31.52-3.31s-2.4-1.75-2.27-2.24c.17-.68 3.13-.52 3.13-.52"/><path fill="#FFF" d="M11.86 46.11c-.6-.03-1.42.57-1.42 1.6c0 .76.73 1.39 1.36 1.39c.91 0 1.54-.69 1.51-1.48c-.04-1.03-.82-1.48-1.45-1.51" opacity=".5"/><path fill="#FFF" d="M18.47 61.03c.06 1.14.63 2.11 2.11 2.07s2.7-2.31 1.29-3.64c-1.41-1.33-3.48.04-3.4 1.57M8.65 74.98c.7.78 2.38.47 2.42-.9c.04-1.25-.59-1.84-1.76-1.68c-1.16.16-1.51 1.63-.66 2.58"/><path fill="#367C2D" d="M45.91 92.85c-.59.2-1.32 2.48-2.01 4.84c-.44 1.49-1.72 5.96-1.41 6.18c.31.22 3.4.37 4.62-.38s2.11-1.4 2.27-1.84c.16-.44-1.24-4.32-1.78-5.74c-.42-1.07-1.07-3.28-1.69-3.06"/><path fill="#FFF" d="M35.53 20.08c-.91 1-.61 2.49.23 3.04c.84.55 2.1.5 2.72-.26c.55-.68.61-2.04-.23-2.88c-.73-.72-2.14-.54-2.72.1" opacity=".5"/></svg>