<svg xmlns="http://www.w3.org/2000/svg" width="1em" height="1em" viewBox="0 0 128 128"><radialGradient id="notoMountFuji0" cx="56.404" cy="76.102" r="40.285" fx="55.435" fy="76.141" gradientTransform="matrix(-.1016 .9948 -2.2231 -.2271 231.318 37.27)" gradientUnits="userSpaceOnUse"><stop offset=".251" stop-color="#346FD0"/><stop offset=".262" stop-color="#336DCE"/><stop offset=".452" stop-color="#284DA5"/><stop offset=".55" stop-color="#244196"/></radialGradient><path fill="url(#notoMountFuji0)" d="M72.36 61.35c-.63-.39-28.62 4.7-28.62 4.7S32.85 78.14 30.56 80.2c-2.29 2.05-7.02 6.15-9.86 8.28s-8.36 6.07-8.36 6.07l8.52 8.44l49.53 12.07s42.84-11.47 42.43-12.29s-40.46-41.42-40.46-41.42"/><path fill="#234096" d="m79.43 62.92l-4.32 12.34s6.38 9.89 8.22 12.34c1.84 2.45 11.05 12.83 11.05 12.83l20.55-9.27s-4.55-1.92-12.59-8.92c-8.04-6.99-12.59-11.19-12.59-11.19z"/><path fill="#BDCCD1" d="M49.33 106.58c-.1-.31-7.94-7.22-7.94-7.22l-26.29 6.7s-11.65 1.13-11.44 3.61c.21 2.47 1.44 7.63 6.19 10.72c4.74 3.09 11.96 3.09 16.6 3.3c4.64.21 28.05.21 40.93.31c12.89.1 32.68.21 39.7-.52s12.27-3.2 14.74-7.11c2.47-3.92 2.68-7.42 2.47-10.52c-.21-3.09-30.42 6.91-30.42 6.91z"/><path fill="#E4EBEE" d="M50.46 101.84s-1.65-5.88-9.9-7.32c-8.25-1.44-11.86 2.06-14.43 1.75c-2.58-.31-4.12-3.2-9.9-2.78S6.43 97 4.79 101.94s-1.13 7.73-1.13 7.73s1.34 5.88 13.2 5.57c11.86-.31 15.36-4.64 20.31-7.73c4.95-3.09 7.84-4.02 8.35-2.99c.52 1.03-3.71 3.2-5.16 7.01s-1.86 5.57.52 5.67c2.37.1 37.43-.41 48.36-.41s23.2-.52 28.25-3.09c5.05-2.58 7.11-5.05 7.11-5.05s1.86-6.19-3.81-12.99c-5.67-6.81-13.09-7.32-18.56-5.36c-5.46 1.96-8.56 6.81-8.56 6.81s-2.77-4.2-9.9-4.54c-13.2-.62-19.9 10.41-19.9 10.41s-3.09-1.34-6.5-1.65c-2.5-.24-6.91.51-6.91.51"/><path fill="#8CC2EA" d="M71.2 76.05s4.09.7 4.52.5c.98-.45 1.87-2.41 2.44-3.11c.42-.51 1.12-.24 1.46-.07c.35.17 3.18 2.95 3.47 3c.29.06 2.4.15 2.52-.25s-2.92-3.27-3.62-4.02c-.69-.75-1.42-1.93-.46-2.48c1.08-.62 2.19.4 2.65.86c.46.46 5.21 4.96 5.61 5.14c.4.17 3.96-.51 4.24-.98c.18-.3-2.81-3.08-4.5-4.65c-1.41-1.31-7.41-6.96-9.78-9.15s-5.57-5.49-6.32-6.41c-.54-.67-1.9-2.17-3.17-3.07c-.49-.34-1.12-.83-1.63-.53c-.42.25-.91.59-.91.59s-1.26.96-3.4 1.12c-1.92.14-2.7-.58-3.12-1c-.59-.58-1.01-1.17-2.4-.73c-1.29.41-.33 3.73-.33 3.73zm-25.48-3.43s2.48 1.16 2.83 2.66c.35 1.5.58 3.73 1.59 4.29c1.56.87 5.72-4.98 6.78-6.43c1.1-1.5 2.25-2.83 4.16-2.25c1.91.58 2.54 2.43 2.54 2.43l-.12-5.26l-7.22-1.91l-7.22 5.49z"/><path fill="#FFF" d="M51.84 58.07c.12-.23 7.13-6.18 7.13-6.18s-.15.9.16 1.32c.35.46 2.15 1.76 2.78 1.87c.87.15 3.33 0 3.97-.34s1.19-.88 1.19-.88l-.1 2.21L64.83 60l.87 4.56l4.91 4.27l.65 9s-1.11.35-3.25.58c-2.14.23-8.44.47-9.48.53c-1.04.06-2.13 0-1.03-1.33c1.03-1.25 2.37-2.6 3.12-3.41s1.79-2.71.52-4.04s-2.37-1.04-3.47-.75s-5.89 3.58-8.55 3.81c-2.66.23-3.61.01-4.65.42c-.62.24-2.1 1.14-3.49 2.04c-.95.62-1.89.64-2.45.53c-1.32-.24-.25-1.53 1.49-3.6c1.12-1.32 2.07-3.79 2.07-3.79z"/><path fill="#C6E4F7" d="M47.55 65.1c.65.08-.15 1.68-.92 2.72c-.77 1.03-1.22 1.95-.61 2.37c.61.42 2.79-1.76 3.9-3.25c1.11-1.49 1.87-3.75 1.45-4.17c-.42-.42-1.22.69-1.65.23c-.42-.46 3.52-4.67 3.52-4.67l5.83-5.21s-.12-.48-.09-1.1c.02-.44.21-1.47-.37-1.15c-.57.31-6.99 5.87-6.99 5.87S40.32 69.28 39.76 70s-.87 1.36-.49 2.08c.28.53.98.33.98.33s6.63-7.4 7.3-7.31"/><path fill="#C6E4F7" d="M56.81 57.45c-.65-.23-1.65.96-2.03 2.41c-.38 1.45-.34 2.22-1.03 3.4s-3.9 5.09-3.1 6.01c.8.92 5.63-4.54 6.31-5.32c.83-.95 1.53-1.84 1.45-2.68c-.08-.84-.8-1.49-.88-1.91c-.07-.42.12-1.62-.72-1.91m8.43-5.04s1.39-.35 2.09-.85c1.05-.76 1.46-.8 1.49-.78c.32.24.6.71.31 1.64c-.28.9-.94 2.58-1.25 3.27s-1.16 3.35-1.16 3.35s-.82 1.85-.14 2.73c.38.49 2.28 2.99 3.13 4.02c.84 1.03 1.76 2.49 1.76 2.49l4.43 8.16s-.12.26-3.06 1.12c-.99.29-3.02.58-3.02.58s-1.61-6.01-1.49-6.81s.5-3.71-.15-4.36c-.65-.65-1.91-.34-2.79-.15s-2.56.61-2.98-.15c-.42-.77.34-2.1.69-3.33s1.69-4.73 1.69-4.73s1.64-3.04 1.73-3.34c.32-1.09-.5-.62-.5-.62s1.38-.81.9-2.03c-.26-.59-1.68-.21-1.68-.21"/><path fill="#FFF" d="M84.12 42.25c-.78.92-.63 2.65.74 3.32c1.44.7 2.48 0 2.95-.66c.63-.88.52-2.58-.7-3.24c-.86-.48-2.18-.38-2.99.58" opacity=".5"/><path fill="#FFF" d="M89.74 60.64c-.49.68-.29 1.92.63 2.4s1.77.11 2.25-.55s.16-1.79-.48-2.25c-.93-.67-1.92-.27-2.4.4m22.43-2.98c0 .62.28 1.22 1.31 1.27s1.41-.69 1.43-1.33c.02-.64-.62-1.34-1.39-1.33c-.78.03-1.35.64-1.35 1.39M23.03 76.44c.05 1.01.67 1.31 1.28 1.31s1.31-.4 1.38-1.18c.08-.94-.44-1.48-1.28-1.51c-.84-.03-1.41.71-1.38 1.38M6.38 54.59c-.08 1.15 1.03 1.63 1.63 1.6c.6-.04 1.48-.36 1.6-1.33c.11-.98-.54-1.8-1.52-1.84c-.96-.05-1.66.72-1.71 1.57m19.41-.38c-.45.04-1.35 2.74-1.35 2.74s-2.76.17-2.85.49s1.9 2.1 1.9 2.1s-.73 2.42-.39 2.69c.34.26 2.65-1.28 2.65-1.28s2.42 1.56 2.72 1.33c.3-.23-.49-2.87-.49-2.87s1.88-1.63 1.86-2.01s-2.76-.38-2.76-.38s-.97-2.83-1.29-2.81"/><path fill="#FFF" d="M36.33 24.16c-.78.92-.63 2.65.74 3.32c1.44.7 2.48 0 2.95-.66c.63-.88.52-2.58-.7-3.24c-.86-.47-2.18-.38-2.99.58" opacity=".5"/><path fill="#FFF" d="M89.81 13.89c-1.39-.63-3.43.16-3.76 2.04c-.35 1.98.86 3.01 1.82 3.34c1.29.45 3.31-.27 3.69-1.97c.27-1.2-.31-2.76-1.75-3.41"/></svg>