<svg viewBox="0 0 128 128"><path fill="#c4a878" d="M40 75.2s.4 6.7.2 10.2-.6 6.2-.6 6.2l3.2 25.9.2 2.7s5.6 3.2 17.3 3.2c17.5 0 25.3-2.7 27.9-8.3 2.1-4.5-1.6-14.7-2.3-18.3-2.5-11.6-1-20-1-20z"/><path fill="#e8d4af" d="M35 112.9c1.1 5.4 8.6 7.6 8.6 7.6s10.8.6 17.7-.4c7-1 12.8-2.6 13.4-6.7s.4-6.8.2-11.2l-.4-7.2s-8 .4-18.6-.4a55 55 0 0 1-16.2-3.3S38 98.2 37 101s-3.4 6.4-2.2 11.9"/><path fill="#ff521a" d="M62.7 4C23.5 4 5.9 30.4 6.6 56.8c.6 23.7 36.8 26.6 54.9 26.9 27 .4 59.2-5.1 59.8-27.6C122 29.9 103 4 62.7 4"/><path fill="#fff" d="M61.5 9.5c-8.4-.3-15.2 4-15 11.6.3 7.7 10.7 9.2 14.8 9.1 5.6 0 14.4-2.2 14.8-9 .4-6.6-6.2-11.4-14.6-11.7M28 20c-2.9 2.4-4.4 6.8-2.2 9 2.2 1.9 6 .4 8.6-1.9s5.1-5.2 3.7-7.7c-1.8-3.2-6.8-2-10.1.6M16.4 46.3c-2.5 7.3-1.7 14.8 4.7 18s15-1 17.5-8 1.1-16.3-5-18.8-14.7 1.5-17.2 8.8m37.5 11.3c-.1 9 7.3 17 16.8 16.4S85.9 68 86 58.5c.2-10.5-8.4-16.3-17-16s-15 6.2-15.2 15.1m29.7-32.9c-4.6 6.4-.8 13.3 4 17.1 6 4.6 13.5 5.3 17.1-.2 4.1-6.3.9-12.4-3.3-16.7s-13.2-6.6-17.8-.2M103 53.3c-3.4 1.4-3 5.6-1.8 7.9 1 2.2 4.1 4.1 6.7 3.2 2.6-1 3.6-4 2.7-6.8-1-3-3.7-5.9-7.6-4.3"/></svg>