<svg xmlns="http://www.w3.org/2000/svg" width="1em" height="1em" viewBox="0 0 128 128"><path fill="#6B4D42" d="M19.8 92.7L7 92.8s-3.4 7.4-1.6 9.2s5.8 1.2 9.5 1.1s6.1.2 6.9-.8s.1-7.9.1-7.9zm45-80.9s-1.3 3.2-2.5 4.1s-6.2 4.6-4.5 7.1s6.9 2.1 6.9 2.1l11.4-9.5z"/><path fill="#8D5F55" d="M66.6 5.6a5.251 5.251 0 0 0-2.6 5.1c.2 3.6 3.2 5.9 8.4 7.7s10 5 13.5 6.3c2.91 1.02 5.93 1.69 9 2c2.34.18 4.7.05 7-.4c0 0-3.2 2.6-6.2 5.4a37.843 37.843 0 0 0-5.4 6.7l-.8 4.7s12.2-.6 12.3-1.1s11-21.5 11-21.5z"/><path fill="#8D5E50" d="M47 91.2c-.1-.3-2.5-4.1-1.4-8.6s4.5-9.2 5-10.2s.3-14.2.3-14.2l40.7-8.9s1.9 10.3 4.3 15.8s8.4 14.4 9.5 18.9c.63 3.23.66 6.55.1 9.8l-18.2 8.7L77 117.2l-11.3 4.5s-4.4-3.1-5.6-5.3c-.8-1.5-.2-4.1.9-4.5s1.6.1 2.8 1.2c1.5 1.4 3.8 3.8 4.1 3.5s3.5-4.9 3.5-4.9c-.72-.69-1.53-1.3-2.4-1.8c-.4 0-2.5 1.1-3.9.5s-1.5-2.6-1.5-2.6l-11.1-1.1z"/><path fill="#FF5D15" d="M86.8 31.1s-3-6.9-6.7-10.1a15.51 15.51 0 0 0-9.9-3.6c-3.9.1-7.3 3-9 4.6c-2.2 2.2-6.2 9.1-6.2 9.1z"/><linearGradient id="notoOrangutan0" x1="17.218" x2="56.258" y1="-2275.991" y2="-2213.51" gradientTransform="matrix(1 0 0 -1 0 -2176)" gradientUnits="userSpaceOnUse"><stop offset="0" stop-color="#D47755"/><stop offset=".44" stop-color="#E66D37"/><stop offset=".89" stop-color="#FB6113"/></linearGradient><path fill="url(#notoOrangutan0)" d="M52.4 35.1a16.87 16.87 0 0 0-7.1 4.8c-3 3.3-5.6 11.2-5.9 12.6c-.5 2.3-4.4 6.5-12.3 15.2c-6.6 7.2-10.9 11.4-14.2 15.4c-2.4 2.9-6.6 7.7-5.9 9.7s4.3 3.4 7.9 3.6s6.2.1 7.3-.8s5.3-5.1 8.2-6.8c6.1-3.7 19-11.7 22-20.7c2.9-8.5 6.6-16.8 6.6-16.8z"/><path fill="#FB6113" d="M79.1 7.6s-7-7.1-12.7-2.1S71 16 72.5 16.3s3.7.7 3.7.7s6.9 5.3 13.7 7c6 1.5 12.7.2 14.9-.4s3.7-1.3 3.9-.2s-1.2 1.5-3.6 2.5s-12.5 12.5-12.5 12.5L91.1 48s1.3 6.1 2.4 10.5a38.41 38.41 0 0 0 3.1 8.3s2.1.5 5.3-1.9c5.3-3.9 4.3-14.8 4.3-14.8s3 1 5.1-1s7.6-19 8.3-21.7s2.4-7.2.8-8.6a34.73 34.73 0 0 0-10.9-6.7C105.8 10.8 96.8 9 91 8.2c-4.5-.4-11.9-.6-11.9-.6"/><radialGradient id="notoOrangutan1" cx="-1961.549" cy="-483.743" r="24.43" gradientTransform="matrix(.17 -.99 2.42 .41 1601.07 -1740.2)" gradientUnits="userSpaceOnUse"><stop offset=".61" stop-color="#FB6113" stop-opacity="0"/><stop offset="1" stop-color="#D47755"/></radialGradient><path fill="url(#notoOrangutan1)" d="M120.4 18.9a34.73 34.73 0 0 0-10.9-6.7c-3.7-1.3-12.7-3.1-18.5-3.9c-4.5-.5-12-.7-12-.7S72 .5 66.3 5.5S71 16 72.5 16.3s3.7.7 3.7.7s6.9 5.3 13.7 7c6 1.5 12.7.2 14.9-.4s3.7-1.3 3.9-.2z"/><radialGradient id="notoOrangutan2" cx="-1999.859" cy="-466.743" r="24.43" gradientTransform="matrix(.17 -.99 2.42 .41 1527.99 -1767.91)" gradientUnits="userSpaceOnUse"><stop offset=".61" stop-color="#FB6113" stop-opacity="0"/><stop offset="1" stop-color="#D47755"/></radialGradient><path fill="url(#notoOrangutan2)" d="M120.4 18.9a34.73 34.73 0 0 0-10.9-6.7c-3.7-1.3-12.7-3.1-18.5-3.9c-4.5-.5-12-.7-12-.7S72 .5 66.3 5.5S71 16 72.5 16.3s3.7.7 3.7.7s6.9 5.3 13.7 7c6 1.5 12.7.2 14.9-.4s3.7-1.3 3.9-.2z"/><linearGradient id="notoOrangutan3" x1="95.86" x2="110.93" y1="518.711" y2="525.971" gradientTransform="translate(0 -482)" gradientUnits="userSpaceOnUse"><stop offset=".01" stop-color="#FB6113" stop-opacity="0"/><stop offset=".83" stop-color="#D47755"/></linearGradient><path fill="url(#notoOrangutan3)" d="M108.8 23.4c.1 1.1-1.2 1.5-3.6 2.5S92.7 38.4 92.7 38.4L91.1 48s1.3 6.1 2.4 10.5a38.41 38.41 0 0 0 3.1 8.3s2.1.5 5.3-1.9c5.3-3.9 4.3-14.8 4.3-14.8s3 1 5.1-1s7.6-19 8.3-21.7s2.4-7.2.8-8.6z"/><path fill="#50362D" d="M53.7 50.8s-5.7-4-4.9-10.7s5.6-9.9 8.1-11.5s7.3-3.1 9.6-4.1s3.1-2.8 4.2-2.8s3.1 2.5 6.3 3.8s10 3.2 13.8 7.3s4.7 8.2 3.3 12.4s-3.1 5.5-3.1 5.5s.9 10-1.3 16.5C87.2 74.3 78.1 81.6 67.2 78a17.635 17.635 0 0 1-9.4-6.6c-4.1-5.4-3.8-12-4-15.1c-.18-1.83-.21-3.67-.1-5.5"/><path fill="#8D5F55" d="M70.8 23.8a68.743 68.743 0 0 1-8.9 4.9c-3.4 1.4-12.1 5.3-11 13.8c1 7.3 12.2 13.7 15 14.4c2.8.7 13.3-1 14.8-2s11-5.2 11.7-12.4s-7.7-12.4-13.5-14.3c-6.6-2.4-7.4-4.5-8.1-4.4"/><path fill="#BA957E" d="M61.6 35.3c.7.6 1.5-.1 2.1-.8s2-2.6 3.2-2.8c1.4-.1 2.4 1.5 4.1 1.5s1.9-1.5 3.7-1.5s3.1 2.5 3.4 3s.9 1.4 1.7.8s.1-1.4-.1-1.7s-2.4-4-4.9-4.1s-2.4 1.4-3.8 1.4s-1.2-1.6-3.8-1.5s-4 2.3-4.5 3s-1.9 2-1.1 2.7"/><ellipse cx="75.15" cy="35.21" fill="#010103" rx="2.5" ry="1.7" transform="rotate(-87.599 75.147 35.211)"/><ellipse cx="67.5" cy="35.2" fill="#010103" rx="1.8" ry="2.5" transform="rotate(-5.062 67.499 35.201)"/><path fill="#FE5E12" d="M70.9 41c-1.6 0-6.6-.2-8.5 3.8s-1.3 11.8-.9 12.9c.7 1.8 4.7 4.8 10.8 4.5s8.4-2.9 8.9-4.5c.5-1.4-.5-12.5-2.5-14.5c-3-3.1-7.8-2.2-7.8-2.2"/><path fill="#BA957E" d="M70.6 39.2c-3.9 0-6.7 3.2-6.8 7.3c-.1 5.3.4 6.8 2.8 8c2 1.1 7.6.9 9.7-.5s2.3-5.7 2-8.3s-1.2-6.5-7.7-6.5"/><path fill="#543527" d="M71 46.6c2.3 0 2.8 1.4 4.6 1.5s2.5-1.1 2.6.1s-1.4 1.7-2.7 1.8s-3-1.3-4.6-1.4s-2.4 1.6-4.4 1.5s-3.2-1.3-2.6-2.1c.6-.8 1 .5 2.6.4s2-1.8 4.5-1.8m-3.1-3.9c.42.61 1.2.86 1.9.6c.5-.2.5-1.1-.2-1.9s-1.2-1-1.7-.6s-.9 1 0 1.9m3.7-1.6c-.51.55-.59 1.36-.2 2c.3.4 1.2.3 1.8-.6c.5-.7.7-1.4.2-1.8s-1-.7-1.8.4"/><path fill="#FE5E12" d="M56.7 93.1c-.7-2.7-6.9-8-11.3-8.7c-5.1-.8-9.4 3.5-10.3 5.2c-.89 1.43-1.47 3.03-1.7 4.7c-.2 2 8.5 4.1 8.5 4.1zm13.8 10.6c1.98-2 4.08-3.87 6.3-5.6c2.2-1.7 5.9-4.5 8.6-5.4c2.38-.6 4.85-.81 7.3-.6c4.5.5 9.3 1.5 10.3.7c1.8-1.4-.9 4.4-.9 4.4l-18.9 2.2l-9 5.4zm39.3-12.8c0-.1-2-3.1-7-3.2c-3.3-.1-7.6 1.3-7.1 2.6c1.9.5 4.7 1.1 4.7 1.1z"/><path fill="#D27856" d="M76.5 108.3s-1.9 3.8 4.4 3.1s8.6-1 13.2-1.6c4.89-.87 9.61-2.49 14-4.8c2.4-1.5 5.2-3.9 4.8-8.4c-.12-3.85-3.07-7.02-6.9-7.4c-5.1-.7-8.9 1.4-8.1 1.7c1.4.6 4.4.8 3.8 2.4s-3.4 1-6.3.8s-8.3-.2-10.9 1.1s-11 8.7-11 8.7zM33.1 96c-.3 3.9.4 6.2 3.4 8.5s6.7 2.3 9.6 2.4s7.4.1 7.4.1s2.4-13.3 2.3-13.5s-7.6-6.3-11.4-6.6S33.7 88 33.1 96"/><path fill="#6B4C42" d="M50 101.3c-.1 4.2 2.3 8 6.2 8.5s6.4 0 7.1-.5c.62-.51 1.19-1.08 1.7-1.7c-.99-.71-2.02-1.34-3.1-1.9c-1.6-.8-3.6-.8-3.1-1.7s2.8.3 3.5.7s3.2 2.4 3.2 2.4l.7.4l2.4-2.9s-3-1.9-4.2-2.6s-4-1.8-3.5-2.5s2.9.7 4.2 1.4s4.8 3.4 4.8 3.4l1.8-1.8s-2-2.2-3.8-3.8s-5.2-1.8-4.9-2.7c.5-1.5 4.8.6 5.9 1.5s4 3.9 4 3.9s2.2-1.7 2.2-1.8s-3.1-5.6-6-6.8c-3.8-1.29-7.88-1.53-11.8-.7c-2.8.7-7.2 5.1-7.3 9.2"/><path fill="#6B4C42" d="M79.7 119.4c-1.8 1.9-10.4 4.6-12.3 4s-6.2-4.9-6.1-5.5s3.5 2.5 6 2.1c1.94-.35 3.76-1.17 5.3-2.4c.3-.4 1.2-1.8-.9-.8s-4.8 2.4-5.8 1.8s-4.1-2.4-4.5-3.3s-.6-3.7.7-3.5s3.3 2.2 3.3 2.2s4.3-1.7 4.4-2.8s-.3-2.2-1.3-2.2s-2 .5-2.6 0c-.43-.37-.83-.77-1.2-1.2l4.4-3.7a5.211 5.211 0 0 1 5.3-.7c2.7 1.1 5.8 4.1 6.4 6.8c.8 2.5.6 7.4-1.1 9.2"/></svg>