<svg viewBox="0 0 128 128"><path fill="#6b4d42" d="M19.8 92.7 7 92.8s-3.4 7.4-1.6 9.2 5.8 1.2 9.5 1.1 6.1.2 6.9-.8.1-7.9.1-7.9zm45-80.9s-1.3 3.2-2.5 4.1-6.2 4.6-4.5 7.1 6.9 2.1 6.9 2.1l11.4-9.5z"/><path fill="#8d5f55" d="M66.6 5.6a5 5 0 0 0-2.6 5.1q.4 5.2 8.4 7.7c8 2.5 10 5 13.5 6.3q4.5 1.5 9 2 3.5.2 7-.4s-3.2 2.6-6.2 5.4a38 38 0 0 0-5.4 6.7l-.8 4.7s12.2-.6 12.3-1.1 11-21.5 11-21.5z"/><path fill="#8d5e50" d="M47 91.2c-.1-.3-2.5-4.1-1.4-8.6s4.5-9.2 5-10.2.3-14.2.3-14.2l40.7-8.9s1.9 10.3 4.3 15.8 8.4 14.4 9.5 18.9q1 4.9.1 9.8l-18.2 8.7L77 117.2l-11.3 4.5s-4.4-3.1-5.6-5.3c-.8-1.5-.2-4.1.9-4.5s1.6.1 2.8 1.2c1.5 1.4 3.8 3.8 4.1 3.5l3.5-4.9q-1-1-2.4-1.8c-.4 0-2.5 1.1-3.9.5s-1.5-2.6-1.5-2.6l-11.1-1.1z"/><path fill="#ff5d15" d="M86.8 31.1s-3-6.9-6.7-10.1a16 16 0 0 0-9.9-3.6c-3.9.1-7.3 3-9 4.6a67 67 0 0 0-6.2 9.1z"/><linearGradient id="a" x1="17.2" x2="56.3" y1="-2276" y2="-2213.5" gradientTransform="matrix(1 0 0 -1 0 -2176)" gradientUnits="userSpaceOnUse"><stop offset="0" stop-color="#d47755"/><stop offset=".4" stop-color="#e66d37"/><stop offset=".9" stop-color="#fb6113"/></linearGradient><path fill="url(#a)" d="M52.4 35.1a17 17 0 0 0-7.1 4.8c-3 3.3-5.6 11.2-5.9 12.6-.5 2.3-4.4 6.5-12.3 15.2-6.6 7.2-10.9 11.4-14.2 15.4-2.4 2.9-6.6 7.7-5.9 9.7s4.3 3.4 7.9 3.6 6.2.1 7.3-.8 5.3-5.1 8.2-6.8c6.1-3.7 19-11.7 22-20.7 2.9-8.5 6.6-16.8 6.6-16.8z"/><path fill="#fb6113" d="M79.1 7.6s-7-7.1-12.7-2.1S71 16 72.5 16.3l3.7.7s6.9 5.3 13.7 7c6 1.5 12.7.2 14.9-.4s3.7-1.3 3.9-.2-1.2 1.5-3.6 2.5-12.5 12.5-12.5 12.5L91.1 48l2.4 10.5a38 38 0 0 0 3.1 8.3s2.1.5 5.3-1.9c5.3-3.9 4.3-14.8 4.3-14.8s3 1 5.1-1 7.6-19 8.3-21.7 2.4-7.2.8-8.6a35 35 0 0 0-10.9-6.7C105.8 10.8 96.8 9 91 8.2c-4.5-.4-11.9-.6-11.9-.6"/><radialGradient id="b" cx="-1961.5" cy="-483.7" r="24.4" gradientTransform="matrix(.17 -.99 2.42 .41 1601.07 -1740.2)" gradientUnits="userSpaceOnUse"><stop offset=".6" stop-color="#fb6113" stop-opacity="0"/><stop offset="1" stop-color="#d47755"/></radialGradient><path fill="url(#b)" d="M120.4 18.9a35 35 0 0 0-10.9-6.7c-3.7-1.3-12.7-3.1-18.5-3.9-4.5-.5-12-.7-12-.7S72 .5 66.3 5.5 71 16 72.5 16.3l3.7.7s6.9 5.3 13.7 7c6 1.5 12.7.2 14.9-.4s3.7-1.3 3.9-.2z"/><radialGradient id="c" cx="-1999.9" cy="-466.7" r="24.4" gradientTransform="matrix(.17 -.99 2.42 .41 1527.99 -1767.91)" gradientUnits="userSpaceOnUse"><stop offset=".6" stop-color="#fb6113" stop-opacity="0"/><stop offset="1" stop-color="#d47755"/></radialGradient><path fill="url(#c)" d="M120.4 18.9a35 35 0 0 0-10.9-6.7c-3.7-1.3-12.7-3.1-18.5-3.9-4.5-.5-12-.7-12-.7S72 .5 66.3 5.5 71 16 72.5 16.3l3.7.7s6.9 5.3 13.7 7c6 1.5 12.7.2 14.9-.4s3.7-1.3 3.9-.2z"/><linearGradient id="d" x1="95.9" x2="110.9" y1="518.7" y2="526" gradientTransform="translate(0 -482)" gradientUnits="userSpaceOnUse"><stop offset="0" stop-color="#fb6113" stop-opacity="0"/><stop offset=".8" stop-color="#d47755"/></linearGradient><path fill="url(#d)" d="M108.8 23.4c.1 1.1-1.2 1.5-3.6 2.5S92.7 38.4 92.7 38.4L91.1 48l2.4 10.5a38 38 0 0 0 3.1 8.3s2.1.5 5.3-1.9c5.3-3.9 4.3-14.8 4.3-14.8s3 1 5.1-1 7.6-19 8.3-21.7 2.4-7.2.8-8.6z"/><path fill="#50362d" d="M53.7 50.8s-5.7-4-4.9-10.7 5.6-9.9 8.1-11.5 7.3-3.1 9.6-4.1 3.1-2.8 4.2-2.8 3.1 2.5 6.3 3.8 10 3.2 13.8 7.3 4.7 8.2 3.3 12.4-3.1 5.5-3.1 5.5.9 10-1.3 16.5A18 18 0 0 1 67.2 78a18 18 0 0 1-9.4-6.6c-4.1-5.4-3.8-12-4-15.1q-.3-2.7-.1-5.5"/><path fill="#8d5f55" d="M70.8 23.8a69 69 0 0 1-8.9 4.9c-3.4 1.4-12.1 5.3-11 13.8 1 7.3 12.2 13.7 15 14.4s13.3-1 14.8-2 11-5.2 11.7-12.4-7.7-12.4-13.5-14.3c-6.6-2.4-7.4-4.5-8.1-4.4"/><path fill="#ba957e" d="M61.6 35.3c.7.6 1.5-.1 2.1-.8s2-2.6 3.2-2.8c1.4-.1 2.4 1.5 4.1 1.5s1.9-1.5 3.7-1.5 3.1 2.5 3.4 3 .9 1.4 1.7.8.1-1.4-.1-1.7-2.4-4-4.9-4.1-2.4 1.4-3.8 1.4-1.2-1.6-3.8-1.5-4 2.3-4.5 3-1.9 2-1.1 2.7"/><ellipse cx="75.2" cy="35.2" fill="#010103" rx="2.5" ry="1.7" transform="rotate(-87.599 75.147 35.211)"/><ellipse cx="67.5" cy="35.2" fill="#010103" rx="1.8" ry="2.5" transform="rotate(-5.062 67.499 35.201)"/><path fill="#fe5e12" d="M70.9 41c-1.6 0-6.6-.2-8.5 3.8s-1.3 11.8-.9 12.9c.7 1.8 4.7 4.8 10.8 4.5s8.4-2.9 8.9-4.5c.5-1.4-.5-12.5-2.5-14.5-3-3.1-7.8-2.2-7.8-2.2"/><path fill="#ba957e" d="M70.6 39.2c-3.9 0-6.7 3.2-6.8 7.3-.1 5.3.4 6.8 2.8 8 2 1.1 7.6.9 9.7-.5s2.3-5.7 2-8.3-1.2-6.5-7.7-6.5"/><path fill="#543527" d="M71 46.6c2.3 0 2.8 1.4 4.6 1.5s2.5-1.1 2.6.1-1.4 1.7-2.7 1.8-3-1.3-4.6-1.4-2.4 1.6-4.4 1.5-3.2-1.3-2.6-2.1 1 .5 2.6.4 2-1.8 4.5-1.8m-3.1-3.9q.7 1 1.9.6.8-.5-.2-1.9c-1-1.4-1.2-1-1.7-.6s-.9 1 0 1.9m3.7-1.6q-.8 1-.2 2c.3.4 1.2.3 1.8-.6q.9-1.1.2-1.8c-.7-.7-1-.7-1.8.4"/><path fill="#fe5e12" d="M56.7 93.1c-.7-2.7-6.9-8-11.3-8.7-5.1-.8-9.4 3.5-10.3 5.2a12 12 0 0 0-1.7 4.7c-.2 2 8.5 4.1 8.5 4.1zm13.8 10.6a66 66 0 0 1 14.9-11q3.6-.9 7.3-.6c4.5.5 9.3 1.5 10.3.7 1.8-1.4-.9 4.4-.9 4.4l-18.9 2.2-9 5.4zm39.3-12.8c0-.1-2-3.1-7-3.2-3.3-.1-7.6 1.3-7.1 2.6l4.7 1.1z"/><path fill="#d27856" d="M76.5 108.3s-1.9 3.8 4.4 3.1l13.2-1.6q7.4-1.4 14-4.8c2.4-1.5 5.2-3.9 4.8-8.4-.1-3.8-3-7-6.9-7.4-5.1-.7-8.9 1.4-8.1 1.7 1.4.6 4.4.8 3.8 2.4s-3.4 1-6.3.8-8.3-.2-10.9 1.1-11 8.7-11 8.7zM33.1 96c-.3 3.9.4 6.2 3.4 8.5s6.7 2.3 9.6 2.4l7.4.1s2.4-13.3 2.3-13.5-7.6-6.3-11.4-6.6S33.7 88 33.1 96"/><path fill="#6b4c42" d="M50 101.3c-.1 4.2 2.3 8 6.2 8.5s6.4 0 7.1-.5q1-.7 1.7-1.7l-3.1-1.9c-1.6-.8-3.6-.8-3.1-1.7s2.8.3 3.5.7 3.2 2.4 3.2 2.4l.7.4 2.4-2.9-4.2-2.6c-1.2-.7-4-1.8-3.5-2.5s2.9.7 4.2 1.4 4.8 3.4 4.8 3.4l1.8-1.8s-2-2.2-3.8-3.8-5.2-1.8-4.9-2.7c.5-1.5 4.8.6 5.9 1.5s4 3.9 4 3.9l2.2-1.8c0-.1-3.1-5.6-6-6.8a22 22 0 0 0-11.8-.7c-2.8.7-7.2 5.1-7.3 9.2"/><path fill="#6b4c42" d="M79.7 119.4c-1.8 1.9-10.4 4.6-12.3 4s-6.2-4.9-6.1-5.5 3.5 2.5 6 2.1q3-.5 5.3-2.4c.3-.4 1.2-1.8-.9-.8s-4.8 2.4-5.8 1.8-4.1-2.4-4.5-3.3-.6-3.7.7-3.5 3.3 2.2 3.3 2.2 4.3-1.7 4.4-2.8-.3-2.2-1.3-2.2-2 .5-2.6 0l-1.2-1.2 4.4-3.7a5 5 0 0 1 5.3-.7c2.7 1.1 5.8 4.1 6.4 6.8.8 2.5.6 7.4-1.1 9.2"/></svg>