<svg viewBox="0 0 128 128"><path fill="#dc8124" d="m72 51.7-10.3 7s8.2 9.6 10.6 22.8a75 75 0 0 1 1.7 23.3c-.4 3-3.2 9-4 11s-2 6.6 1.6 7.6 15.6 1.3 17.3 1 3.9-1.5 3-5.8c-.7-2.6-1.7-11-2.3-16.6s-.9-16.5-5.8-29.8C79 59.2 72 51.7 72 51.7"/><path fill="#c0711f" d="M81.6 109c5.4.4 8.8-.7 8.8-.7l.7 5.5s-3.3.9-9.5.5a49 49 0 0 1-10.2-1.8l2-5.1s2.8 1.4 8.2 1.7m-7.4-14.8.1 2.5.1 2.4s4 .5 7.3.4c5.2-.2 7.6-1.5 7.6-1.5l-.3-2.5-.3-2.6s-2.6 1.3-8 1.7c-3.8.2-6.5-.4-6.5-.4m-2-13.7s2.4.5 7-.5c4.4-1 6.3-2.7 6.3-2.7l1.3 4.6S85 83.8 80 84.7c-4.8 1-7.2.3-7.2.3l-.3-2.2z"/><path fill="#a2672b" d="M69.6 72.1s2.3.2 6.7-1.5a14 14 0 0 0 5.5-3.4l-5.4-11.9-13 4.7z"/><path fill="#728137" d="m69.4 57.5 14.4 4.7c4.4 1.5 8 2.2 8 2.2s1.4-2.8 1.9-5.1c.3-1.6.2-4 1-4 1 0 1.8 2 1.9 4.5 0 2.2-.5 5.5-.5 5.5l4.6 1.3s1.3-1.7 2-4.5c.6-2.9.3-4 1-4.2.8-.2 2.3.8 2 5.4l-.5 4.5a31 31 0 0 0 8.7 2.5s3.7-16.7-6.7-23.4c-13-8.5-29.6-1-29.6-1l12.2-9.6s-.9-2.2-2-3.8c-1.1-2-2.8-3.1-2.5-3.6.5-.6 3-.6 5.1 1.4 1.8 1.7 3.2 3.5 3.3 3.5l3.6-2.6s-.4-2.3-1.3-3.8c-1-1.4-2.4-2.8-2-3 .7-.4 3 .3 4.5 1.7 1.2 1.2 2.2 3.1 2.2 3.1l7.3-5s-5.3-8.4-16.5-8-17.3 7.6-19.2 9.8-4 6.7-4 6.7l.2-12.8-3.5-.6c-2.5-.3-4.3.3-4.3 0-.1-.9 1.4-2.2 4-2.7 2.4-.5 4.3-.2 4.3-.2l2.1-12s-4.6-.3-9.7 2.1a22 22 0 0 0-9.7 8.7c-5.7 9.8-.2 20.3-.2 20.3s-8-8.3-21.3-5.2C15.7 33.7 12 49.7 12.8 49.7c2.3 0 10.4.4 10.8 0 .2-.1.7-2.4 2-4.4s3.2-3.7 4.6-3.7c.8 0-.2 1.5-1.1 3.7s-1.4 4.6-1.4 4.6h7.2s1.5-7.3 4-7.8c1.1-.2.4 2.1.1 4l-.4 3.8 9.1.3S36 51 27.8 58.4C19.4 66 18.5 76.8 19.3 82s1.4 7.8 2 8 7.2-7.3 7.5-7.9c.2-.5-1-3-1-6.3s.6-4.9 1.3-5 .5 2.3 1 4.4 1.3 4 1.6 4 4.3-4.8 4.3-4.8-.6-2-.9-3.8 0-4 .6-4.3c.5-.4 1 1.7 1.7 3.6q.8 2 1.2 2.3l7.2-6.9s-5.8 9.4-5 18.6c.8 10.4 8 14.3 8.4 14.2.4 0 5.3-11.1 5.3-11.1s-1.8-1.6-3-4c-1.6-3-1.6-5.2-1-5.6.9-.5 2 2.8 3.3 4.3s2 2.3 2.2 2.3 3.8-7.8 3.8-7.8-1-.7-1.8-1.9c-.6-1-1.2-2.7-.7-3.8.6-.6 1.2.9 2.2 1.6l1.6 1.2s3.8-6.5 5.3-9.5z"/><path fill="#bdcf47" d="M71.7 61.8c.5-.3 1.4-6.5 1.9-9.6.4-2.8 1.3-7-.8-7.4-1.4-.3-2 1.8-2.5 4l-1 4.7-3.2-5.9c-1-1.6-3-5-4.5-4-1.8 1.2.1 5 1.2 7l2.4 4.4-5.3-1.7c-2.1-.7-5-1.2-5.4 0-.7 2 2 3 7 5 5.2 2 9.5 4 10.2 3.5M52.1 23.2c-.2 4 .5 10 3.4 9.3 2.5-.5-.4-4.4-.3-9.2 0-6.9 4.4-8.5 3-10-1.1-1.2-5.7 3.2-6 9.9m-17 11c2.8-.6 4.5-.5 4.6-1.2 0-.8-.8-1.4-4.3-1.2q-5 0-9.8 3.1a26 26 0 0 0-5 4.3c-3 3.6-3.4 6.5-1.6 6.9 1.9.4 2.8-1.7 4.2-4a18 18 0 0 1 12-7.9M23.4 84.5c1.5 0 1.5-1.5 1.5-5.4 0-2.5 0-5.8 1-9a21 21 0 0 1 6.2-9.4c2.7-2.5 5.7-4 7.3-4.8 3.2-1.4 1.7-2.7-.4-1.8-2 .9-9.1 3.5-13.8 10.5a22 22 0 0 0-3.8 13c-.1 3.7 1 7 2 6.9m23.9-14.8c-1.3 0-3.6 6-3.5 12s2.2 10 4 10.7c1.4.6 2.4-1 1.9-3.3-.4-1.5-2.3-4-2.7-8-.3-3.9.4-8.2.6-9.3.2-1 .5-2.1-.3-2.1"/></svg>