<svg viewBox="0 0 128 128"><path fill="#feba02" d="M40 95.5s2.4 10 2 11.4-7.2 2.6-11.3 4.6c-2.6 1.4-7 4.4-4.3 6.9 1.4 1.3 5.3-2 17.2-2.7 12-.7 14.1.3 13.5-2.3s-3.8-2.8-6.5-4c-.9-.3-2-.9-2.4-1.5s.2-11 .2-11z"/><path fill="#feba02" d="m62.2 102.5.2 10.8c0 1-2.3 2.1-5.7 2.9s-10.3 2-10.4 6.4c0 2.7 13.1-1 20.7-.8s12.3 1 12-2.1c-.3-2.5-4.2-3.7-6.3-4.1s-3.1-1.5-3.2-2.8l.2-10z"/><linearGradient id="a" x1="46.9" x2="65.9" y1="97.1" y2="33.6" gradientUnits="userSpaceOnUse"><stop offset=".1" stop-color="#79da88"/><stop offset=".3" stop-color="#57cd75"/><stop offset=".6" stop-color="#19b553"/><stop offset=".8" stop-color="#01ab46"/></linearGradient><path fill="url(#a)" d="m41.9 8 9-.6S56 9 60.9 16c6.3 9.2 5.5 26 5.5 26l17.5 46.6 2 15.4s-15.6 2.5-30.9.5c-18-2.4-36.6-18.7-36.3-43s19.6-48 19.6-48z"/><path fill="#ffd51d" d="M21.2 17s-7 2-9 9.9 1.4 15 2.8 15.5c.6.2 2.3-3.3 2.3-3.3s2.4 2.8 3.7 3.4c1.2.7 1.8 1.2 2.9 1.1 2-.1 5.2-6.3 5-10.4L30.2 13z"/><path fill="#ff2b23" d="M29.9 28s8.4-1.3 11.8-4.2S49 18.2 50.3 13c.8-3.2.9-5.5.9-5.5S39.4.7 28.7 6.3s-8.2 13.3-8.2 13.3z"/><path fill="#ff600d" d="m29.5 29.2-7.6 4.6c-.8.6-3.2 1.8-4.3 2.7-1.8 1.5-3.4 5-2.7 5.8s1.6-1.8 4.2-3.4l8.3-4.8 1.6-1z"/><path fill="#a02a1b" d="M31.8 27.5c.5-1 .7-3.3-2.5-7.3-3.7-4.7-9-4.9-9-4.9l-.5 2 5.8 5.7 3.2 7s2-.5 3-2.5"/><path fill="#ec80af" d="M15.9 20.4s4.3.3 7.3 3c1.8 1.5 4.5 4.8 5.1 6.3s3-2.7 1.2-5.5-4-5.6-7.9-7c-2.8-1-5.5 1.4-5.7 3.2"/><path fill="#fbd3b3" d="M49.5 26s-3.5-9-10.6-8.6c-7.2.4-8.3 5.7-8 9 .4 3.6 2.8 5.6 8.5 5.5 5.6-.2 10-6 10-6"/><path fill="#312f2a" d="M44.2 24.8c0 2.3-2.4 4.3-4.7 4.3-2.2 0-4-1.8-4-4.1s1.2-4.8 4.4-5c3.4-.2 4.3 2.5 4.3 4.8"/><path fill="#01ab46" d="M86.4 80.8s2.2 5 10.9 10.7c7.3 4.7 10.9 7.7 16 9.4s5.2 2.3 5 3.2-8 7-16.7 6.3-12.8-4.1-15.4-5.9-7.6-14.4-7.6-14.4z"/><path fill="#b7d019" d="M66.3 41.8s-12 3.6-17.2 11.5c-4.4 6.7-4 18 .5 26.5 5.5 10.4 17 17.8 23 20.7s14.5 4.2 18.2 3.8-3.3-25.6-10-39.1C74.3 52 66.3 41.8 66.3 41.8"/></svg>