<svg viewBox="0 0 128 128"><ellipse cx="96.7" cy="75.1" fill="#176bc6" rx="7.5" ry="10.2" transform="rotate(-6.212 96.651 75.058)"/><ellipse cx="45.5" cy="24.5" fill="#176bc6" rx="7.7" ry="10.1" transform="rotate(-3.438 45.482 24.473)"/><ellipse cx="63" cy="30.6" fill="#176bc6" rx="9.6" ry="7.7" transform="rotate(-83.131 62.972 30.562)"/><ellipse cx="27.2" cy="27.8" fill="#176bc6" rx="7.8" ry="10.7" transform="rotate(-13.239 27.21 27.8)"/><path fill="#176bc6" d="M89.7 94.4c15-8.5 32.4 3.4 30 12.5-2.4 9.8-11.6 4.5-18.6 7-4.3 1.6-10.8 10.4-18.3 5-6.5-4.6-3-19 6.9-24.5m-51.5-54C49 37.6 64 46 62.3 55.5c-1.6 9-14.1 5.1-19.2 7-6.6 2.5-15 9.7-19.7 2.5-5.3-8.2 5.3-22.1 14.8-24.6"/><ellipse cx="12.9" cy="40.9" fill="#176bc6" rx="7.7" ry="9.9" transform="rotate(-30 12.909 40.928)"/><ellipse cx="79.1" cy="82.4" fill="#176bc6" rx="8" ry="10.2" transform="rotate(-30 79.075 82.363)"/><ellipse cx="67.2" cy="97.3" fill="#176bc6" rx="7.5" ry="10.2" transform="rotate(-35.353 67.223 97.302)"/><ellipse cx="115.1" cy="78.3" fill="#176bc6" rx="7.4" ry="9.5" transform="rotate(-3.533 115.05 78.335)"/></svg>