<svg viewBox="0 0 128 128"><path fill="#c30b1b" d="M73.5 32.2s1-1.7 1-2.9c-.1-1.3-.6-3-2.1-4s-2.9-.6-3.2-.2 2.7 2 2.6 4.4-2.7 4.8-2.7 4.8z"/><path fill="#af0c1a" d="m98.4 57.6-33.7 20 2 8.6 7.4-.9s10.8 4.4 21.9-1.2c10.3-5.3 9.6-14.2 9.9-14.6.2-.5 14.2-7.6 12.8-26-1.1-15-8.7-18.8-9.4-18.8s-1.3.9-1.3.9l.6 3.1-1.3.3s-.6-10.3-3.9-15.2-7.3-6.5-8.4-6.5-1.2 1-1.2 1l3 4s-.2 2.1-1.3 1.8-2.4-4.7-4.6-7.3-4.6-4.2-6.7-4.1C83 2.7 83.1 4 83.1 4l8.2 11.9z"/><path fill="#c30b1b" d="m67.6 37.3 2.6.9c.5.1 5.4.4 7.2-4 1.3-3.2 0-6.3-.9-6.8l-.7-.2c0 .1-1 5.8-1.4 6.3s-6.8 3.8-6.8 3.8"/><radialGradient id="a" cx="65.5" cy="43.2" r="39.9" gradientTransform="matrix(1 0 0 -1 0 130)" gradientUnits="userSpaceOnUse"><stop offset=".3" stop-color="#e03623"/><stop offset=".7" stop-color="#ff6614"/></radialGradient><path fill="url(#a)" d="M65.5 89.8 47.3 93s-4.4 7.1-9.4 10.6-8.9 5.4-8.6 6.4 10.9 5.2 10.9 5.2 6.6 1.6 13.8 2c7.2.5 11.3-.2 11.3-.2s10.3 2.1 15.1 1l9.3-2.3s4.9-.2 8-1.6 4.4-4.4 4.4-4.4-5.2-2.8-12.9-8.6c-5.6-4.2-8.8-8-8.8-8z"/><path fill="#af0c1a" d="M44.2 59.2c-.4-.1-2.1-7.8-2.4-13.9s0-26.6.2-31.7c.1-4.1 2.8-8.7 1.9-9.2-1.7-.9-5.9 1.7-8.4 6.1-2.1 3.6-2.1 5.7-2.1 6.5-.5.1-1.2-4.3-1.2-4.3s1.2-3.5.4-3.9c-.9-.5-6 .6-8 8.5-1 3.7-.8 6.9-.7 7.7a5 5 0 0 1-1.5-2.8c-.5-2.2-.2-4.8-.9-4.9-2.2-.3-7.8 5.8-8.3 15.2-.4 7.5.9 10.9 1.2 13.1-.9-.2-2.1-1.7-3.4-1-1.5.8-3.1 7.2-.2 13.1 2.3 4.6 5.3 6.8 5.8 7.7s1 9.5 8.6 14.9c13 9.1 27.8 4 27.8 4z"/><radialGradient id="b" cx="52.1" cy="38.6" r="87.1" gradientTransform="matrix(1 0 0 -1 0 130)" gradientUnits="userSpaceOnUse"><stop offset="0" stop-color="#fe7f07"/><stop offset=".8" stop-color="#dc2b25"/></radialGradient><path fill="url(#b)" d="M54.6 55.8c-.4-.1-3.4-.8-4.5-1.2s-6.6-3.4-7-9.5 2.1-8.8 3.6-11.2c2.3-3.8.7-5.2-1.2-9.9s-2.2-6.8-2.3-10.8 1.4-8.2.7-8.7-5.2 3.4-7.1 7.2-1.5 6.7-2 6.8-2.2-1.9-2.3-4.5.6-4.8 0-5-4.6 2.5-5.9 8.7-.3 8.8-.9 8.9c-.6.2-2.5-2-3.2-4.1s-.4-4.3-1-4.5c-.8-.2-6.2 5.1-6.6 14.9-.4 10.1 2.2 12.4 1 13.2s-3.1-2.1-4.1-1.5c-1.5.9-2.1 6.8.8 12.7 2.3 4.6 5.6 6.4 6.1 7.3s.2 7.8 7.8 13.2c11.3 8.2 24.2 4 24.2 4z"/><path fill="#dc0d27" d="M63.2 29.9s6.9.3 6.6-2.6c-.1-1.3-.9-1.4-.7-2.1.1-.5 1.8-.2 2.6.5 1.1 1 1.7 3.1.9 5.2S70 33.5 70 33.5l-4.3-1.4z"/><radialGradient id="c" cx="50.3" cy="117.7" r="55.6" gradientTransform="matrix(.9997 -.0261 -.0319 -1.2186 16.525 223.332)" gradientUnits="userSpaceOnUse"><stop offset=".3" stop-color="#fe7f07"/><stop offset=".4" stop-color="#f8700c"/><stop offset=".7" stop-color="#e8491a"/><stop offset=".9" stop-color="#dc2b25"/></radialGradient><path fill="url(#c)" d="M54.1 33.1c.7-.3 2.5-4.1 6.6-4.3s7 3.3 7.5 3.5 3.2.3 4.7-1.2 2.3-4 2.9-4 1.8 5.3-.3 7.6c-2.6 2.9-5.4 2.1-5.4 2.4s2.3 4.5 1.5 10.4-4 8.7-3.4 9.8 6.7 2 11.4-3.7c5.1-6.2 1.2-15.3 1.4-19.8s4-7.3 4.2-16.2c.2-7.8-1.7-12.9-2-13.8s.8-.7 1.5-.4a12 12 0 0 1 5.9 5.4c2.2 3.6 3.3 6.6 4.1 6.6.8.1 1.1-1.6.8-2.4-.3-.9-1.7-4-1.6-4.7s8.3 2.6 10.2 11.3.5 10.5 1.7 10.9c1.2.3 1.9-3.1 2-3.7s.2-1.7.7-1.6 7.5 6 8.5 17.2c1.6 18-14 25.8-14 25.8s0 10.7-11.9 14.5S68 79 67.6 78.8s-1-.5-1.2-.2.3 1.9 2.4 3.5 5.2 3.1 5.2 3.1 2.7 3.7 5 5.7l5.4 4q1 .7 0 1.1c-1 .4-3 .7-6.7 0-2.3-.4-4.6-2.1-4.6-2.1s-.8 4-5.1 4.6-6.9-3.2-6.9-3.2-.3 3.3-4.1 3.6c-5 .4-6.7-4.2-6.7-4.2s-2.1 1.5-3.8 1.4c-1.7 0-3.3-.8-3.1-1.3s3.1-2.5 4.5-4.9c1.1-2 1.8-3.7 1.9-6.9.1-2.8-.9-4.6-.9-4.6 0-.1.2-14.3 1.9-21.3.6-2.4 3.9-3.3 3.9-3.3s5.9-3.1 5.8-8.4c0-4.7-4.1-5.2-4.1-5.2z"/><radialGradient id="d" cx="-391.6" cy="988.9" r="36.1" gradientTransform="matrix(-.0439 .999 1.9441 .0855 -1871.485 392.991)" gradientUnits="userSpaceOnUse"><stop offset=".5" stop-color="#ffd84e"/><stop offset=".7" stop-color="#ffd64b"/><stop offset=".8" stop-color="#ffce42"/><stop offset=".9" stop-color="#ffc132"/><stop offset=".9" stop-color="#feaf1c"/><stop offset="1" stop-color="#fea611"/></radialGradient><path fill="url(#d)" d="M40 115.6s-6.6 3.5-13.2-2.9c-4.8-4.6-4.7-10.6-6.6-13.9-2-3.5-3.4-4.4-3.1-4.9s5.2.2 9.4 5.4c2.5 3.1 3.9 6 6.8 9.8s5.8 5.1 5.8 5.1-2.7-3.7-3.5-8.1c-.5-2.9-1.9-6.2-3.2-7.7s-4.2-4.4-4.2-4.8 4.6-.6 9.2 2.9c2.5 1.9 3.9 4.2 6.2 6.5.9.9 3 2.4 3 2.4s-1.3-2.7-1-6.2c.2-2.5 1.1-5.6 1.7-5.6s.1 3.9 2 6.8c3.1 4.8 6.1 5 9.9 8s6.5 7.4 6.5 7.4 2.4-1.9 5.9-2.6 7.8-.8 10.6-4.4 2.4-7.1 4.4-10.2c2.7-4 7.6-5.2 7.9-4.5s-2.7 3.3-3 6.8.5 7.5.4 9.4-.9 3.6-.9 3.6 3.6-1.5 5.9-3.9c2.2-2.4 4-5.2 7.1-6.7 2.2-1.1 5.1-1 5.2-.4s-1.7.4-3.3 5.7-3.1 9.7-9.3 11.3-10-.8-10-.8-3.7 2.4-10.6 2.3c-6.6-.1-9.5-2.3-9.5-2.3s-6.7 2.4-15.1 1.7c-7.1-.8-11.4-5.2-11.4-5.2"/><linearGradient id="e" x1="74.7" x2="78.1" y1="16.6" y2="24.2" gradientTransform="matrix(1 0 0 -1 0 130)" gradientUnits="userSpaceOnUse"><stop offset="0" stop-color="#fea611"/><stop offset=".1" stop-color="#feae1b"/><stop offset=".5" stop-color="#ffc537"/><stop offset=".8" stop-color="#ffd348"/><stop offset="1" stop-color="#ffd84e"/></linearGradient><path fill="url(#e)" d="M75.9 110.2c.3.1 3.5-.6 3.9-3.4.4-2.1 0-3.5.5-4.9s1.4-2.9 1.1-3.1c-.1-.1-2.8.6-4 3.2-.9 1.9-.6 3.4-.8 5.3 0 1.5-.8 2.8-.7 2.9"/><linearGradient id="f" x1="93.6" x2="101.9" y1="20.4" y2="33.4" gradientTransform="matrix(1 0 0 -1 0 130)" gradientUnits="userSpaceOnUse"><stop offset="0" stop-color="#fea611"/><stop offset="1" stop-color="#ffd84e"/></linearGradient><path fill="url(#f)" d="M94.5 101.6c0 .2 6 1.5 8.4-.6a11 11 0 0 0 3.2-5.8c.9-3.6.7-7.4.5-7.4-.2-.1-2.9.7-5.4 4.9-1.5 2.5-1.9 4.1-3.4 6.1-.8 1.1-3.4 2.7-3.3 2.8"/><linearGradient id="g" x1="57.5" x2="48.8" y1="5.3" y2="23.5" gradientTransform="matrix(1 0 0 -1 0 130)" gradientUnits="userSpaceOnUse"><stop offset="0" stop-color="#feca4c"/><stop offset=".2" stop-color="#fed55f"/><stop offset=".4" stop-color="#ffdf71"/><stop offset=".6" stop-color="#ffe57c"/><stop offset=".8" stop-color="#ffe780"/></linearGradient><path fill="url(#g)" d="M63.8 119.7s-1.3-4.9-4.3-7.4-5.6-4.1-7-5.2c-1.8-1.4-3.8-3.5-4-3.4a14 14 0 0 0 1.3 5.1l1.7 3.1s-2.9-.2-5.8-2.1-5-3.6-5.3-3.6c0 0 1.2 5.7 3.9 8.6 3.7 4 6.9 5.9 6.9 5.9s3.7.2 6.3 0c2.8-.3 6.3-1 6.3-1"/><linearGradient id="h" x1="70.7" x2="83.1" y1="6.2" y2="19.7" gradientTransform="matrix(1 0 0 -1 0 130)" gradientUnits="userSpaceOnUse"><stop offset=".2" stop-color="#feca4c"/><stop offset=".3" stop-color="#fed55f"/><stop offset=".5" stop-color="#ffdf72"/><stop offset=".6" stop-color="#ffe57c"/><stop offset=".8" stop-color="#ffe780"/></linearGradient><path fill="url(#h)" d="M86.7 109.4c-.1 0-3 4-6.4 5.4s-6.4 1.3-9.2 2.1c-1.7.5-4.7 2-4.7 2s2.7 2.1 7.7 2.4 8.3-.7 8.3-.7 2.6-2.5 3.7-6c1.1-3.3.9-5.2.6-5.2"/><path fill="#fbb67d" d="M54.3 32.9s-3.1 1.2-4.8 2.9c-1.1 1.1-1.5 2.8-.9 3.4.8.8 3.9.7 4.9.8l3.1.5s.7-.3 1-1.4c.4-1.2.2-2.2.2-2.2l-.3-1.1s-.7-.9-1.5-1.6c-.8-.9-1.7-1.3-1.7-1.3"/><path fill="#af0c1a" d="M56.9 37.8q.3.2.9.1c.4-.1.8-1.1.7-1.5s-.8-.8-.9-.7c-.2 0-.7.8-.9.9-.1.1-2.3.9-3.9 1.3l-4.3 1q-.1.2 1 .7c.8.1 3.4-.3 4.5-.7z"/><path fill="#8a1e0d" d="M62.6 35.4c.9-.2 1.3-1.3 1.8-1.3s1.3 2.9-1.4 3.4c-2.6.5-3.4-2.2-2.9-2.5s1.7.6 2.5.4"/><path fill="#af0c1a" d="M54.7 98.7s1.3 6.9 1.6 9.7 1.1 8 .8 8.8-3.3 2.8-4.1 3.3-3.1 1.7-2.9 2.7 3.7 1.4 6.6.3 5.3-2.9 5.4-3.6c.5-3.1-.1-7.4-.5-10.5-.6-4.9-1.9-11.3-1.9-11.3s-.9.6-2.2.9c-1.3.2-2.8-.3-2.8-.3m11.6-.2s2.4 4.4 2.2 5c-.2.7-3.9.4-4.9 1.9s-.2 4.3.3 5.4 1.9 3.4 3 3.3c1.4-.1.5-4.5 1.1-5.3s4.9-2.3 5.6-2.9.7-2.1.3-3.1l-2.8-5.6s-.9.7-2 1.1c-.8.3-2.8.2-2.8.2"/><radialGradient id="i" cx="55.2" cy="72.1" r="25.7" gradientTransform="matrix(1 0 0 -1 0 130)" gradientUnits="userSpaceOnUse"><stop offset=".2" stop-color="#ffb800"/><stop offset="1" stop-color="#ff9a02"/></radialGradient><path fill="url(#i)" d="M56.2 87.7c.5.1 5.6-7.4 8.5-16.2 2-6 1.6-17.7-9.5-17.7-10.3 0-11.2 11.6-9.4 16.9 2.6 7.8 9.9 17 10.4 17"/></svg>