<svg xmlns="http://www.w3.org/2000/svg" width="1em" height="1em" viewBox="0 0 128 128"><path fill="#C30B1B" d="M73.5 32.2s1-1.7 1-2.9c-.1-1.3-.6-3-2.1-4s-2.9-.6-3.2-.2c-.3.3 2.7 2 2.6 4.4s-2.7 4.8-2.7 4.8z"/><path fill="#AF0C1A" d="m98.4 57.6l-33.7 20l2 8.6l7.4-.9s10.8 4.4 21.9-1.2c10.3-5.3 9.6-14.2 9.9-14.6c.2-.5 14.2-7.6 12.8-26c-1.1-15-8.7-18.8-9.4-18.8s-1.3.9-1.3.9l.6 3.1l-1.3.3s-.6-10.3-3.9-15.2s-7.3-6.5-8.4-6.5s-1.2 1-1.2 1l3 4s-.2 2.1-1.3 1.8c-1.1-.4-2.4-4.7-4.6-7.3s-4.6-4.2-6.7-4.1C83 2.7 83.1 4 83.1 4l8.2 11.9z"/><path fill="#C30B1B" d="M67.6 37.3s2.1.8 2.6.9s5.4.4 7.2-4c1.3-3.2 0-6.3-.9-6.8c-.4-.3-.7-.2-.7-.2s-1 5.8-1.4 6.3s-6.8 3.8-6.8 3.8"/><radialGradient id="notoPhoenix0" cx="65.501" cy="43.202" r="39.887" gradientTransform="matrix(1 0 0 -1 0 130)" gradientUnits="userSpaceOnUse"><stop offset=".261" stop-color="#E03623"/><stop offset=".692" stop-color="#FF6614"/></radialGradient><path fill="url(#notoPhoenix0)" d="M65.5 89.8L47.3 93s-4.4 7.1-9.4 10.6s-8.9 5.4-8.6 6.4s10.9 5.2 10.9 5.2s6.6 1.6 13.8 2c7.2.5 11.3-.2 11.3-.2s10.3 2.1 15.1 1s9.3-2.3 9.3-2.3s4.9-.2 8-1.6s4.4-4.4 4.4-4.4s-5.2-2.8-12.9-8.6c-5.6-4.2-8.8-8-8.8-8z"/><path fill="#AF0C1A" d="M44.2 59.2c-.4-.1-2.1-7.8-2.4-13.9s0-26.6.2-31.7c.1-4.1 2.8-8.7 1.9-9.2c-1.7-.9-5.9 1.7-8.4 6.1c-2.1 3.6-2.1 5.7-2.1 6.5c-.5.1-1.2-4.3-1.2-4.3s1.2-3.5.4-3.9c-.9-.5-6 .6-8 8.5c-1 3.7-.8 6.9-.7 7.7c-.4-.3-1.3-1.5-1.5-2.8c-.5-2.2-.2-4.8-.9-4.9c-2.2-.3-7.8 5.8-8.3 15.2c-.4 7.5.9 10.9 1.2 13.1c-.9-.2-2.1-1.7-3.4-1c-1.5.8-3.1 7.2-.2 13.1c2.3 4.6 5.3 6.8 5.8 7.7c.4.9 1 9.5 8.6 14.9c13 9.1 27.8 4 27.8 4z"/><radialGradient id="notoPhoenix1" cx="52.145" cy="38.572" r="87.148" gradientTransform="matrix(1 0 0 -1 0 130)" gradientUnits="userSpaceOnUse"><stop offset="0" stop-color="#FE7F07"/><stop offset=".783" stop-color="#DC2B25"/></radialGradient><path fill="url(#notoPhoenix1)" d="M54.6 55.8c-.4-.1-3.4-.8-4.5-1.2s-6.6-3.4-7-9.5s2.1-8.8 3.6-11.2c2.3-3.8.7-5.2-1.2-9.9s-2.2-6.8-2.3-10.8s1.4-8.2.7-8.7s-5.2 3.4-7.1 7.2s-1.5 6.7-2 6.8s-2.2-1.9-2.3-4.5s.6-4.8 0-5c-.6-.3-4.6 2.5-5.9 8.7s-.3 8.8-.9 8.9c-.6.2-2.5-2-3.2-4.1s-.4-4.3-1-4.5c-.8-.2-6.2 5.1-6.6 14.9c-.4 10.1 2.2 12.4 1 13.2s-3.1-2.1-4.1-1.5c-1.5.9-2.1 6.8.8 12.7c2.3 4.6 5.6 6.4 6.1 7.3c.4.9.2 7.8 7.8 13.2c11.3 8.2 24.2 4 24.2 4z"/><path fill="#DC0D27" d="M63.2 29.9s6.9.3 6.6-2.6c-.1-1.3-.9-1.4-.7-2.1c.1-.5 1.8-.2 2.6.5c1.1 1 1.7 3.1.9 5.2S70 33.5 70 33.5s-4.2-1.3-4.3-1.4s-2.5-2.2-2.5-2.2"/><radialGradient id="notoPhoenix2" cx="50.28" cy="117.719" r="55.571" gradientTransform="matrix(.9997 -.0261 -.0319 -1.2186 16.525 223.332)" gradientUnits="userSpaceOnUse"><stop offset=".25" stop-color="#FE7F07"/><stop offset=".398" stop-color="#F8700C"/><stop offset=".681" stop-color="#E8491A"/><stop offset=".869" stop-color="#DC2B25"/></radialGradient><path fill="url(#notoPhoenix2)" d="M54.1 33.1c.7-.3 2.5-4.1 6.6-4.3c4.1-.2 7 3.3 7.5 3.5s3.2.3 4.7-1.2s2.3-4 2.9-4s1.8 5.3-.3 7.6c-2.6 2.9-5.4 2.1-5.4 2.4c0 .3 2.3 4.5 1.5 10.4c-.8 6-4 8.7-3.4 9.8s6.7 2 11.4-3.7c5.1-6.2 1.2-15.3 1.4-19.8c.2-4.6 4-7.3 4.2-16.2c.2-7.8-1.7-12.9-2-13.8s.8-.7 1.5-.4c1.2.5 3.7 1.7 5.9 5.4c2.2 3.6 3.3 6.6 4.1 6.6c.8.1 1.1-1.6.8-2.4c-.3-.9-1.7-4-1.6-4.7s8.3 2.6 10.2 11.3s.5 10.5 1.7 10.9c1.2.3 1.9-3.1 2-3.7c.2-.6.2-1.7.7-1.6s7.5 6 8.5 17.2c1.6 18-14 25.8-14 25.8s0 10.7-11.9 14.5S68 79 67.6 78.8s-1-.5-1.2-.2s.3 1.9 2.4 3.5c2.1 1.7 5.2 3.1 5.2 3.1s2.7 3.7 5 5.7c2.4 1.9 4.7 3.6 5.4 4c.6.4.8.9 0 1.1s-3 .7-6.7 0c-2.3-.4-4.6-2.1-4.6-2.1s-.8 4-5.1 4.6s-6.9-3.2-6.9-3.2s-.3 3.3-4.1 3.6c-5 .4-6.7-4.2-6.7-4.2s-2.1 1.5-3.8 1.4c-1.7 0-3.3-.8-3.1-1.3s3.1-2.5 4.5-4.9c1.1-2 1.8-3.7 1.9-6.9c.1-2.8-.9-4.6-.9-4.6c0-.1.2-14.3 1.9-21.3c.6-2.4 3.9-3.3 3.9-3.3s5.9-3.1 5.8-8.4c0-4.7-4.1-5.2-4.1-5.2z"/><radialGradient id="notoPhoenix3" cx="-391.568" cy="988.875" r="36.064" gradientTransform="matrix(-.0439 .999 1.9441 .0855 -1871.485 392.991)" gradientUnits="userSpaceOnUse"><stop offset=".504" stop-color="#FFD84E"/><stop offset=".653" stop-color="#FFD64B"/><stop offset=".761" stop-color="#FFCE42"/><stop offset=".857" stop-color="#FFC132"/><stop offset=".946" stop-color="#FEAF1C"/><stop offset=".979" stop-color="#FEA611"/></radialGradient><path fill="url(#notoPhoenix3)" d="M40 115.6s-6.6 3.5-13.2-2.9c-4.8-4.6-4.7-10.6-6.6-13.9c-2-3.5-3.4-4.4-3.1-4.9s5.2.2 9.4 5.4c2.5 3.1 3.9 6 6.8 9.8s5.8 5.1 5.8 5.1s-2.7-3.7-3.5-8.1c-.5-2.9-1.9-6.2-3.2-7.7s-4.2-4.4-4.2-4.8s4.6-.6 9.2 2.9c2.5 1.9 3.9 4.2 6.2 6.5c.9.9 3 2.4 3 2.4s-1.3-2.7-1-6.2c.2-2.5 1.1-5.6 1.7-5.6c.6 0 .1 3.9 2 6.8c3.1 4.8 6.1 5 9.9 8s6.5 7.4 6.5 7.4s2.4-1.9 5.9-2.6c3.6-.7 7.8-.8 10.6-4.4c2.8-3.6 2.4-7.1 4.4-10.2c2.7-4 7.6-5.2 7.9-4.5s-2.7 3.3-3 6.8s.5 7.5.4 9.4s-.9 3.6-.9 3.6s3.6-1.5 5.9-3.9c2.2-2.4 4-5.2 7.1-6.7c2.2-1.1 5.1-1 5.2-.4s-1.7.4-3.3 5.7c-1.6 5.3-3.1 9.7-9.3 11.3c-6.2 1.6-10-.8-10-.8s-3.7 2.4-10.6 2.3c-6.6-.1-9.5-2.3-9.5-2.3s-6.7 2.4-15.1 1.7c-7.1-.8-11.4-5.2-11.4-5.2"/><linearGradient id="notoPhoenix4" x1="74.694" x2="78.067" y1="16.578" y2="24.224" gradientTransform="matrix(1 0 0 -1 0 130)" gradientUnits="userSpaceOnUse"><stop offset="0" stop-color="#FEA611"/><stop offset=".108" stop-color="#FEAE1B"/><stop offset=".46" stop-color="#FFC537"/><stop offset=".77" stop-color="#FFD348"/><stop offset="1" stop-color="#FFD84E"/></linearGradient><path fill="url(#notoPhoenix4)" d="M75.9 110.2c.3.1 3.5-.6 3.9-3.4c.4-2.1 0-3.5.5-4.9s1.4-2.9 1.1-3.1c-.1-.1-2.8.6-4 3.2c-.9 1.9-.6 3.4-.8 5.3c0 1.5-.8 2.8-.7 2.9"/><linearGradient id="notoPhoenix5" x1="93.644" x2="101.889" y1="20.392" y2="33.435" gradientTransform="matrix(1 0 0 -1 0 130)" gradientUnits="userSpaceOnUse"><stop offset="0" stop-color="#FEA611"/><stop offset="1" stop-color="#FFD84E"/></linearGradient><path fill="url(#notoPhoenix5)" d="M94.5 101.6c0 .2 6 1.5 8.4-.6c1.5-1.3 2.7-3.5 3.2-5.8c.9-3.6.7-7.4.5-7.4c-.2-.1-2.9.7-5.4 4.9c-1.5 2.5-1.9 4.1-3.4 6.1c-.8 1.1-3.4 2.7-3.3 2.8"/><linearGradient id="notoPhoenix6" x1="57.509" x2="48.77" y1="5.345" y2="23.496" gradientTransform="matrix(1 0 0 -1 0 130)" gradientUnits="userSpaceOnUse"><stop offset=".003" stop-color="#FECA4C"/><stop offset=".151" stop-color="#FED55F"/><stop offset=".351" stop-color="#FFDF71"/><stop offset=".56" stop-color="#FFE57C"/><stop offset=".79" stop-color="#FFE780"/></linearGradient><path fill="url(#notoPhoenix6)" d="M63.8 119.7s-1.3-4.9-4.3-7.4s-5.6-4.1-7-5.2c-1.8-1.4-3.8-3.5-4-3.4c-.1 0 .2 2.7 1.3 5.1c.5 1 1.7 3.1 1.7 3.1s-2.9-.2-5.8-2.1c-2.9-1.9-5-3.6-5.3-3.6c0 0 1.2 5.7 3.9 8.6c3.7 4 6.9 5.9 6.9 5.9s3.7.2 6.3 0c2.8-.3 6.3-1 6.3-1"/><linearGradient id="notoPhoenix7" x1="70.713" x2="83.066" y1="6.228" y2="19.674" gradientTransform="matrix(1 0 0 -1 0 130)" gradientUnits="userSpaceOnUse"><stop offset=".19" stop-color="#FECA4C"/><stop offset=".304" stop-color="#FED55F"/><stop offset=".455" stop-color="#FFDF72"/><stop offset=".613" stop-color="#FFE57C"/><stop offset=".79" stop-color="#FFE780"/></linearGradient><path fill="url(#notoPhoenix7)" d="M86.7 109.4c-.1 0-3 4-6.4 5.4s-6.4 1.3-9.2 2.1c-1.7.5-4.7 2-4.7 2s2.7 2.1 7.7 2.4s8.3-.7 8.3-.7s2.6-2.5 3.7-6c1.1-3.3.9-5.2.6-5.2"/><path fill="#FBB67D" d="M54.3 32.9s-3.1 1.2-4.8 2.9c-1.1 1.1-1.5 2.8-.9 3.4c.8.8 3.9.7 4.9.8s3.1.5 3.1.5s.7-.3 1-1.4c.4-1.2.2-2.2.2-2.2l-.3-1.1s-.7-.9-1.5-1.6c-.8-.9-1.7-1.3-1.7-1.3"/><path fill="#AF0C1A" d="M56.9 37.8c.2 0 .5.3.9.1c.4-.1.8-1.1.7-1.5s-.8-.8-.9-.7c-.2 0-.7.8-.9.9c-.1.1-2.3.9-3.9 1.3s-4.3 1-4.3 1s.2.5 1 .7c.8.1 3.4-.3 4.5-.7c1.2-.4 2.9-1.1 2.9-1.1"/><path fill="#8A1E0D" d="M62.6 35.4c.9-.2 1.3-1.3 1.8-1.3c.6 0 1.3 2.9-1.4 3.4c-2.6.5-3.4-2.2-2.9-2.5c.4-.2 1.7.6 2.5.4"/><path fill="#AF0C1A" d="M54.7 98.7s1.3 6.9 1.6 9.7c.3 2.8 1.1 8 .8 8.8s-3.3 2.8-4.1 3.3s-3.1 1.7-2.9 2.7c.2 1.1 3.7 1.4 6.6.3c2.9-1.1 5.3-2.9 5.4-3.6c.5-3.1-.1-7.4-.5-10.5c-.6-4.9-1.9-11.3-1.9-11.3s-.9.6-2.2.9c-1.3.2-2.8-.3-2.8-.3m11.6-.2s2.4 4.4 2.2 5c-.2.7-3.9.4-4.9 1.9s-.2 4.3.3 5.4c.6 1.2 1.9 3.4 3 3.3c1.4-.1.5-4.5 1.1-5.3s4.9-2.3 5.6-2.9c.6-.6.7-2.1.3-3.1l-2.8-5.6s-.9.7-2 1.1c-.8.3-2.8.2-2.8.2"/><radialGradient id="notoPhoenix8" cx="55.177" cy="72.118" r="25.653" gradientTransform="matrix(1 0 0 -1 0 130)" gradientUnits="userSpaceOnUse"><stop offset=".185" stop-color="#FFB800"/><stop offset=".979" stop-color="#FF9A02"/></radialGradient><path fill="url(#notoPhoenix8)" d="M56.2 87.7c.5.1 5.6-7.4 8.5-16.2c2-6 1.6-17.7-9.5-17.7c-10.3 0-11.2 11.6-9.4 16.9c2.6 7.8 9.9 17 10.4 17"/></svg>