<svg viewBox="0 0 128 128"><path fill="#ffd3b0" d="M37.5 23.4s9.7-5 26.3-5 28 4 28 4 1.8-4.4 4.6-6 7.7-2.2 11.8-.5 14.5 12.7 15 13.6 1 2.3.8 2.7l-10 16s1.5 3.7 3 8.8c.5 2.2 4.8 13.5 2.5 27s-12 28-29.3 32.7c-17.2 4.7-44 5.6-61-2.8C13 105.7 7.5 93 6.7 79.9s4.5-24.1 4.5-24.1l6.4-8.7S4.2 33.8 3.8 32.7c-.4-1.2 1.2-3.3 6.5-7.8s10-8.5 13.2-9.5c3.3-1.1 6.9-.6 9.1 1.4a36 36 0 0 1 4.9 6.6"/><path fill="#ffa5a8" d="M93.5 25c-1.9 1 .3 5.1 1.3 7.5 1.8 4.2 4.6 12.6 9.3 17.8 5.5 6.1 12.4 5.5 12.4 5.5s-1.4-4.8-2-6c.1-.8 4-7 5.2-9.1 1.1-2.2 3.5-5.9 4-7.7s-.7-1.3-1.4-1c-.6.2-13.9 8.1-13.9 8.1s-3.2 1.2-4.2.1-2.9-6.3-4.3-9.7c-.8-1.9-3-7.5-6.4-5.5"/><path fill="#fd7e89" d="M104.1 40.7c.6 1.7 3 1.9 5.2 1.3 3.4-.8 5.6-3 7.7-4.7 3-2.2 6-2.8 6.6-3.6.7-.8 1-3-.6-2.5s-3.7.6-7 2.8c-2.8 1.9-5.2 4-7.2 5-1.9.8-5.2 0-4.7 1.7"/><path fill="#ffa5a8" d="M25 39.5c.4-.4 4-9 4.7-10.7s3-6.3 5.4-4.3-.6 10-3.8 15.6-6.7 10.7-9 12.9c-1.4 1.2-4 3-6.9 3.2-1.7.2-4.6.2-4.6.2s.8-2.2 1.7-4.1l1.4-2.9c0-.5-2.2-3.6-3.7-5.8-.8-1.3-5.9-9.6-6-10.6s1.2-.5 2.6-.3S17 37.4 17 37.4z"/><path fill="#fd7c88" d="M15.5 39c3 1.5 4.5 2.7 7.2 2.3 2.2-.3 3-1.4 2.7-2.2s-1.7-.6-2.7-.8c-2.3-.5-4.2-1.9-6-2.8-2.4-1.3-5-3-8-3.5-2.5-.5-5.5-.5-4.8 1.2s3 1.4 5.3 2.4z"/><path fill="#312f2c" d="M36.6 88.3c-1.6 1.7-.3 4 2.1 5.7 3 2 8.2 6.2 23.7 6.2 16.4 0 22-5.2 23.9-6.7 1.7-1.2 3.7-3.4 2.1-5.2s-5.8 1.4-6.9 2-9.8 5.2-18.7 5a54 54 0 0 1-17-3.4c-4.2-1.7-7.3-5.7-9.2-3.6"/><path fill="#fd7e84" d="M63.4 69.4C55.6 69 44 74.6 44 84.7s10 11.9 19 12.1c8.6.2 18.8-3.4 18.7-12.4 0-8.2-6.9-14.4-18.3-15"/><path fill="#2c2f31" d="M95.8 69c0 4.3-2.2 8.2-6 8-3.6 0-6.1-3.3-6.1-7.5s2.9-7.6 6-7.6 6.1 3 6.1 7.2m-53.1.2c0 4.2-2.1 7.6-6 7.6-3.8.1-6.1-3.2-6.1-7.4s3-7.6 6.1-7.6 6 3.2 6 7.4m31.2 14.4c0 4.2-1 8-3.6 8-3 .1-3.5-3.6-3.5-7.8s1-7.3 3.5-7.3c2.6.1 3.6 2.9 3.6 7m-14.2-.3c0 4.2-1 8-3.5 8.1-3 .1-3.6-3.7-3.6-7.8s1-7.4 3.6-7.3c2.6 0 3.5 2.8 3.5 7"/></svg>