<svg xmlns="http://www.w3.org/2000/svg" width="1em" height="1em" viewBox="0 0 128 128"><path fill="#f17fae" d="M11.92 73.6s-6.38 3.07-6.23 8.82c.17 6.57 3.36 29.71 30.28 33.74 18.51 2.77 28.55-5.88 28.55-5.88s9.21 8.44 26.3 6.75c22.66-2.25 32.18-25.09 31.31-33.91-.45-4.59-3.98-7.44-6.57-5.88-2.6 1.56-51.21 24.57-51.21 24.57z"/><path fill="#ffa8a7" d="M64.52 16.16c-9.18.18-9.86 5.54-21.97 11.42-6.82 3.31-32.7 14.88-36.68 37.54s4.5 36.33 24.57 43.25 34.78-3.98 34.78-3.98 22.02 12.48 41 1.38c17.47-10.21 19.15-25.06 14.71-42.21-3.81-14.71-19.03-29.24-33.22-35.12-13.63-5.64-14.19-12.45-23.19-12.28"/><path fill="#eb81aa" d="M100.36 74.12c0 8.41-4.7 15.05-14.04 14.71-9.34-.35-13.25-6.3-13.25-14.71s1.69-20.77 14.11-19.72c12.29 1.04 13.18 11.31 13.18 19.72m-45.85-.17c0 8.41-4.7 15.05-14.04 14.71-9.34-.35-13.25-6.3-13.25-14.71s.8-19.86 13.42-19.2c13.33.69 13.87 10.79 13.87 19.2"/><path fill="#ea4b8d" d="M100.4 69.8c0 9.36-2.74 15.02-13.74 15.92-8.48.69-13.3-6.55-13.3-15.92s3.27-17.12 13.52-16.96c10.86.17 13.52 7.59 13.52 16.96M55 69.62c0 9.36-4.04 16.69-15.05 16.09-9.52-.52-13.15-7.07-13.15-16.44s3.63-16.44 13.88-16.44C51.02 52.84 55 60.26 55 69.62"/></svg>