<svg viewBox="0 0 128 128"><path fill="#f17fae" d="M12 73.6s-6.5 3-6.3 8.8A34 34 0 0 0 36 116.2c18.5 2.7 28.5-6 28.5-6s9.2 8.5 26.3 6.8c22.7-2.2 32.2-25 31.3-33.9-.4-4.6-4-7.4-6.5-5.9-2.6 1.6-51.2 24.6-51.2 24.6z"/><path fill="#ffa8a7" d="M64.5 16.2c-9.2.1-9.8 5.5-22 11.4C35.8 30.9 9.8 42.5 6 65s4.5 36.4 24.5 43.3 34.8-4 34.8-4 22 12.5 41 1.4c17.5-10.2 19.2-25 14.7-42.2-3.8-14.8-19-29.3-33.2-35.2C74.1 22.8 73.5 16 64.5 16.2"/><path fill="#eb81aa" d="M100.4 74.1c0 8.4-4.7 15-14 14.7S73 82.5 73 74.1s1.7-20.7 14-19.7 13.3 11.3 13.3 19.7M54.5 74c0 8.4-4.7 15-14 14.7s-13.3-6.3-13.3-14.8.8-19.8 13.4-19.2c13.4.7 14 10.8 14 19.2"/><path fill="#ea4b8d" d="M100.4 69.8c0 9.4-2.7 15-13.7 16-8.5.6-13.3-6.6-13.3-16s3.2-17.1 13.5-17c10.8.2 13.5 7.6 13.5 17M55 69.6c0 9.4-4 16.7-15 16.1-9.6-.5-13.2-7-13.2-16.4s3.6-16.5 13.9-16.5S55 60.3 55 69.6"/></svg>