<svg viewBox="0 0 128 128"><path fill="#fff" stroke="#91bdce" stroke-miterlimit="10" stroke-width="3" d="M110.2 54.7s10.6-5 13-15.9c2.6-10.7-5.4-17.5-13.5-14.4a31 31 0 0 0-14.1 11.4z"/><path fill="#91bdce" d="M106.3 52.7s6.8-11.8 8.4-15.7c1.2-2.9.7-4.2-2.8-2.9l-14.5 6z"/><path fill="#fff" stroke="#91bdce" stroke-miterlimit="10" stroke-width="3" d="M17.8 54.7s-10.6-5-13-15.9 5.4-17.5 13.5-14.4a31 31 0 0 1 14.1 11.4z"/><path fill="#91bdce" d="M21.7 52.7S14.9 40.9 13.3 37c-1.3-3-.7-4.2 2.7-3l14.5 6z"/><path fill="#fff" stroke="#91bdce" stroke-miterlimit="10" stroke-width="3" d="M116.8 63A58 58 0 0 0 88 24.6a20 20 0 0 0-18-.5 16 16 0 0 1-12.3 0c-4.5-2-10.3-3.4-18 .5A58 58 0 0 0 11 63.1c-4.8 18.5 2.3 25.8 8.3 31.6 8.6 8.6 27.2 11.5 44.5 11.3 17.3.2 36-2.7 44.6-11.3 5.9-5.8 13-13.1 8.3-31.6z"/><path fill="#cfd8dc" d="M84 58.6C78.3 44.6 67.7 43 64 43s-14.4 1.7-20 15.7c-3 7.5-4.8 13.3-3.6 19.1 2.4 11.6 12 17 23.6 17s21.2-5.4 23.6-17c1.2-5.8-.7-11.6-3.7-19"/><path fill="#231f20" d="M75.4 75q-1.8-1.3-6.1-3c-1.7-.7-2.9-2-2.8-3.8 0-2 .2-4 0-4.3-.2-.5-1.6-.9-2.4-.8H64c-.7 0-2.2.3-2.5.8v3.5c.2 2.1-1.2 3.9-3.2 4.7q-3.9 1.6-5.6 3-1.2.9-.9 2.4c.4 1.1 2.3 1 3.4.5A20 20 0 0 1 73 78c1 .5 3 .6 3.4-.5q.3-1.7-.9-2.4"/><path fill="#231f20" d="M70.6 52.3c-3-2-9.6-1.8-13.4 0-1.8.8-6 5-4.8 9.6a8 8 0 0 0 3.4 4.5 34 34 0 0 0 8 2.5c.7 0 6.6-1.7 8.4-2.8a8 8 0 0 0 3.4-4.4c1.2-4.6-3.3-8.4-5-9.5"/><circle cx="87.3" cy="47.2" r="4.4" fill="#231f20"/><circle cx="40.7" cy="47.2" r="4.4" fill="#231f20"/></svg>