<svg xmlns="http://www.w3.org/2000/svg" width="1em" height="1em" viewBox="0 0 128 128"><path fill="#FFF" stroke="#91BDCE" stroke-miterlimit="10" stroke-width="3" d="M110.2 54.68s10.58-5.06 13.09-15.84c2.52-10.79-5.53-17.56-13.56-14.48C100.5 27.89 95.6 35.8 95.6 35.8z"/><path fill="#91BDCE" d="M106.34 52.66s6.8-11.71 8.39-15.67c1.16-2.88.67-4.21-2.81-2.84c-6.06 2.39-14.49 5.88-14.49 5.88z"/><path fill="#FFF" stroke="#91BDCE" stroke-miterlimit="10" stroke-width="3" d="M17.8 54.68S7.22 49.62 4.71 38.84s5.53-17.56 13.56-14.48C27.5 27.89 32.4 35.8 32.4 35.8z"/><path fill="#91BDCE" d="M21.66 52.66s-6.8-11.71-8.39-15.67c-1.16-2.88-.67-4.21 2.81-2.84c6.06 2.39 14.49 5.88 14.49 5.88z"/><path fill="#FFF" stroke="#91BDCE" stroke-miterlimit="10" stroke-width="3" d="M116.75 63.09c-4.75-18.3-15.1-31.76-28.67-38.59c-7.73-3.89-13.54-2.45-18-.54c-2.45 1.05-4.56 1.31-6.26 1.31s-3.62-.27-6.07-1.31c-4.46-1.91-10.27-3.36-18 .54c-13.57 6.84-23.92 20.29-28.67 38.59c-4.8 18.51 2.36 25.76 8.28 31.64c8.61 8.54 27.26 11.43 44.56 11.22c17.3.21 35.95-2.68 44.56-11.22c5.91-5.88 13.07-13.13 8.27-31.64z"/><path fill="#CFD8DC" d="M83.94 58.62C78.38 44.59 67.83 42.86 64 42.86s-14.38 1.73-19.94 15.76c-2.97 7.5-4.87 13.28-3.65 19.09c2.42 11.57 11.9 17 23.6 17s21.18-5.44 23.6-17c1.2-5.81-.69-11.59-3.67-19.09"/><path fill="#231F20" d="M75.42 75.07c-1.19-.9-3.34-2.1-6.15-3.14c-1.64-.61-2.85-2-2.77-3.74c.09-1.93.16-4.02.06-4.24c-.24-.53-1.71-.91-2.44-.85h-.24c-.73-.06-2.21.32-2.44.85c-.08.19-.04 1.79.03 3.47c.09 2.1-1.28 3.87-3.23 4.65c-2.52 1-4.54 2.16-5.65 3.01c-.68.51-1.22 1.5-.89 2.39c.43 1.14 2.34.98 3.42.49c2.9-1.32 5.57-2.01 8.88-2.01c3.32 0 5.98.69 8.88 2.01c1.08.49 2.99.65 3.42-.49c.34-.9-.2-1.89-.88-2.4"/><path fill="#231F20" d="M70.56 52.25c-2.97-1.87-9.55-1.79-13.36 0c-1.82.85-5.98 5.12-4.8 9.68c.51 1.98 1.92 3.57 3.39 4.46c1.81 1.09 7.5 2.5 8.09 2.49c.59.01 6.53-1.65 8.34-2.74c1.47-.89 2.88-2.48 3.39-4.46c1.19-4.55-3.35-8.36-5.05-9.43"/><circle cx="87.28" cy="47.24" r="4.42" fill="#231F20"/><circle cx="40.72" cy="47.24" r="4.42" fill="#231F20"/></svg>