<svg xmlns="http://www.w3.org/2000/svg" width="1em" height="1em" viewBox="0 0 128 128"><ellipse cx="64" cy="113.9" fill="#D44A28" rx="21.31" ry="9.83"/><path fill="#ED603A" d="M99.53 86.45c0 14.78-15.91 30.86-35.53 30.86s-35.53-16.08-35.53-30.86s71.06-14.78 71.06 0"/><ellipse cx="64" cy="84.05" fill="#FF8A65" rx="35.13" ry="10.32"/><path fill="#5D4037" d="M93.71 83.35c0 3.27-11.14 6.89-29.71 6.89c-18.27 0-29.71-3.62-29.71-6.89c0-3.27 13.3-7.16 29.71-7.16s29.71 3.9 29.71 7.16"/><path fill="#212121" d="M99.09 84.51c.02-.15.04-.31.04-.46c0-5.7-15.73-10.32-35.13-10.32s-35.13 4.62-35.13 10.32c0 .15.02.31.04.46c-.29.62-.44 1.27-.44 1.94c0 6.79 3.13 13.16 7.81 18.35c.67.74 9.54-1.36 15.25-4.75c10.95-6.49 19.68-10.02 19.68-10.02s-4.13.19-7.22.19c-18.27 0-29.71-3.62-29.71-6.89c0-3.27 13.3-7.16 29.71-7.16s29.71 3.89 29.71 7.16c0 2.32-5.63 4.82-15.54 6.07c.92-.01 2.38.12 4.14.82c5.37 2.12 12.59 11.21 14.53 7.06c1.69-3.63 2.69-6.68 2.69-10.85c.01-.66-.15-1.31-.43-1.92" opacity=".18"/><linearGradient id="notoPottedPlant0" x1="65.767" x2="66.506" y1="59.226" y2="25.893" gradientUnits="userSpaceOnUse"><stop offset=".365" stop-color="#1B5E20"/><stop offset=".95" stop-color="#2E7D32"/></linearGradient><path fill="url(#notoPottedPlant0)" d="M85.59 46.73c.04-.29.21-1.74-2.02-2.16c-2.23-.42-4.01-.25-4.01-.25l-1.27-3.61c.97-3.28 2.58-4.81 1.21-8.19c-.32-.78-2.03-1.24-3.44-.84c0 0-1.4-.04-2.61.81c-1.04.74-5.42 4.44-6.17 2.27c-.31-.9.14-1.44 2.05-2.81c1.71-1.22 3.61-2.25 5.11-3.73c2.57-2.55.95-6.13.95-6.13s-2.04-.77-3.67.47c-1.24.94-2.21 1.48-2.79 1.87c-2.83 1.9-3.01-.86-1.21-1.93l3.34-2.25c3.44-2.39 1.9-6.25 1.9-6.25s-.99-.31-2.29.58c-.46.32-.95.75-1.67 1.1c-1.06.51-1.78.78-2.19.05c-.28-.5.23-1.11 1.21-1.81c1.12-.79 1.73-.92 2.51-2.03c1.21-1.71.89-3.87.57-4.33c-.31-.45-2.72 2.21-3.16 1.19c-.34-.79.74-2.23-.41-4.27c-.86-1.52-2.47-2.21-2.47-2.21c-1.23 1.64-1.38 4.41-.35 6.21c.63 1.1 1.35 2.09.7 2.69c-.46.42-1.05-.16-2.01-.79c-1.45-.94-3.36-.2-3.36-.2s-.85 2.46.46 4.09c.95 1.19 1.72 1.64 3.19 2.88c1.57 1.32.64 2.82-1.22 1.83c-.65-.35-1.56-1.07-2.57-1.51c-1.5-.66-3.66.35-3.66.35s-.81 3.69 1.25 5c.7.45 3.62 2.4 4.61 2.91c2.05 1.06 1.56 3.65-.74 2.56c-1.64-.78-3.39-2.09-5.2-2.88c-2.4-1.05-4.01.07-4.01.07s-.72 3.22 1.13 5.02c1.22 1.19 4.18 3.13 5.35 3.83c1.13.67 2.89 1.41 2.49 2.24c-1.09 2.28-4.6.61-6.17-.28c-2.78-1.58-5.71-2.7-7.36-1.41c-1.66 1.3-.45 5.26-.51 7c-.14 3.86 3.12 4.02 4.26 7.25c.22.63.17 1.33.13 2c-.27 4.41.09 8.87 1.05 13.18c.11.49.25 1.02.63 1.34c.37.32.9.38 1.39.42c5.01.44 10.05.66 15.08.66c3.8 0 7.69-.15 11.2-1.6c.64-.27 1.31-.61 1.66-1.21c.31-.52-2.15-7.32-1.76-7.78c2.29-2.71 4.42-6.38 4.87-9.41"/><radialGradient id="notoPottedPlant1" cx="85.468" cy="71.352" r="27.684" gradientUnits="userSpaceOnUse"><stop offset=".209" stop-color="#1B5E20"/><stop offset=".74" stop-color="#2E7D32"/></radialGradient><path fill="url(#notoPottedPlant1)" d="M121 39.51c-.59-.07-.99.04-.7-.6c.36-.81.45-1.1.59-1.66c.34-1.42-.2-2.37-.2-2.37s-1.92.22-2.8 2c-.46.93-1.12 3.21-2.23 2.41c-.46-.34-.05-.9.01-1.82c.14-1.95-1.39-2.34-1.39-2.34s-1.89.55-2.39 2.28c-.42 1.47-.52 2.27-.75 3.62c-.22 1.3-.07 1.94-1 2.18c-.8.21-1.26-.4-1.16-1.38c.13-1.4.14-2.61.14-2.61c.29-2.17-1.93-2.52-1.93-2.52s-2.32.2-2.94 2.77c-.34 1.43-.43 2.01-.74 3.94c-.15.92-.16 2.09-.96 2.79c-.85.74-1.84.08-1.81-1.52c.02-1.18.15-1.91.07-3.65c-.08-1.74-1.95-1.85-1.95-1.85s-2.89 1.24-3 4.22c-.08 2.08-.13 5.49-.07 6.46c0 0 .29 1.8-1.12 2.35c-.86.32-1.85-.22-1.9-1.79c-.07-2.09-.01-2.3-.13-4.95c-.11-2.48-2.13-3.19-2.13-3.19s-3.07.34-3.66 3.3c-.35 1.73-.32 9.3-2.82 9.22c-2.9-.1-8.76-6.45-10.76.76c-.34 1.21-1.05 2.32-2.07 3.05c-1.33.97-3.01 1.27-4.6 1.72c-5.25 1.48-9.82 4.94-12.96 9.36c-1.66 2.34-7.07 12.35-3.9 14.67c1.13.83 4.84.53 6.37.53c3.39.01 6.77.02 10.16.02c4.94.01 9.87.02 14.81.04c.18-1.04.22-2.05.16-3.04l1.33.01l9.58.37s1.95-3.7 3.74-4.5c.24-.11 3.75-2.7 3.64-2.94c-1.4-3.1-9.26-6.07-9.26-6.07c1.27-.1 3.13-1.54 6.53.3c4.05 2.19 6.53 1.19 6.53 1.19s.9-1.35-1.74-4.72c-1.38-1.77-7.47-4.89-7.47-4.89c-.66-.45-2.41-.9-1.59-2.19c.56-.89 2.92-.12 4.99 1.01c1.75.96 1.45 1.07 5.37 3.24c2.44 1.35 5.81 0 5.81 0s.18-3.05-1.95-4.99c-1.8-1.64-5.94-4.12-5.94-4.12c-.96-.82-1.11-1.48-.33-1.91c1.13-.61 2.49.24 3.77.89c1.28.65 4.79 2.37 4.79 2.37c1.98 1.08 5.03.74 5.03.74s.68-2.44-.29-3.6c-1.4-1.68-5.43-3.47-5.43-3.47c-1.01-.74-1.27-1.19-.7-1.8c.57-.6 1.09-.59 2.78.2c1.78.84 3.16 1.52 4.76 2.04s4.54-.47 4.54-.47s-.09-2.27-1.59-3.27c-1.16-.77-2.56-1.33-2.56-1.33c-.78-.27-1.39-.89-1-1.62c.46-.84 2.24-.12 3.37.1c1.65.32 2.55.4 4.26-.22c1.12-.41 1.75-1.56 1.75-1.56s-.14-.84-2.96-1.19"/><radialGradient id="notoPottedPlant2" cx="63.361" cy="80.664" r="33.534" gradientUnits="userSpaceOnUse"><stop offset=".209" stop-color="#1B5E20"/><stop offset=".74" stop-color="#2E7D32"/></radialGradient><path fill="url(#notoPottedPlant2)" d="M82.74 62.05c-1.49-1.28-3.51-1.97-5.47-1.75c-.98.11-1.96.42-2.95.34c-.99-.09-2.04-.76-2.09-1.75c-.03-.65.36-1.23.7-1.78c.89-1.44 1.54-3.16 1.14-4.8s-2.21-2.99-3.79-2.39c-1.5.57-1.99 2.4-2.5 3.92c-.69 2.07-1.78 4.01-3.18 5.69c-.61.73-1.51 1.48-2.42 1.19c-1.31-.4 1.38-7.85-1.48-13.97c-.86-1.83-1.58-3.49-2.28-3.49c-1.21 0-1.61 4.11-1.95 5.6c-.3 1.33-.98 3.88-2.27 4.06c-.86.12-1.91-1.26-2.18-1.8c-.9-1.78-2.61-6.24-4.53-7.26c-1.47-.77-3.21.28-3.21 2.74c0 .83 1.78 6.34 2.92 9.4c.36.97-1.56 1.68-2.51-.13c0 0-2.93-4.89-4.08-6.54c-1.72-2.48-4.84-2.03-4.84-2.03s-1.26 2.05-.21 5.04c.87 2.5.78 1.84 1.54 3.79c.58 1.47-.12 2.35-1.03 2.4c-1.51.05-1.96-1.71-1.96-1.71c-.33-.91-1.73-4.02-2.63-5.89c-1.29-2.69-4.43-2.68-4.43-2.68s-1.68.84-1.06 2.47c.62 1.63 1.03 2.25 1.52 3.32c.67 1.46.02 2.46-1.05 2.12c-1-.32-1.48-1.39-1.99-2.18c-1.05-1.65-1.36-2.14-2.25-3.31c-1.58-2.11-3.8-1.38-3.8-1.38s-1.9 1.21-.77 3.08c0 0 .49 1.1 1.17 2.34c.47.86.3 1.6-.52 1.73c-.95.15-1.06-.5-1.78-1.6c-.75-1.14-1.16-1.84-2.13-3.02c-1.15-1.39-3.1-1.14-3.1-1.14s-1.24.96-.34 2.7c.42.82 1.03 1.17.74 1.66c-.69 1.18-2.21-.65-3-1.32C7.17 52.44 5.32 53 5.32 53s-.12 1.1.76 2.26c.35.46.55.69 1.2 1.29c.52.48.11.53-.4.83c-2.45 1.44-2.23 2.26-2.23 2.26s1.03.8 2.22.74c1.82-.1 2.61-.54 4-1.49c.95-.65 2.3-2.03 3.05-1.43c.65.51.34 1.33-.27 1.89c0 0-1.06 1.07-1.82 2.24c-.98 1.51-.16 3.63-.16 3.63s3.1-.28 4.35-1.38c1.26-1.11 2.25-2.29 3.55-3.76c1.24-1.4 1.71-1.62 2.47-1.29c.76.32.7.84.07 1.93c0 0-2.99 3.25-3.61 5.35c-.43 1.45 1.17 3.42 1.17 3.42s2.93-.9 4.32-2.68c0 0 2.54-2.98 3.45-4.08c.92-1.1 1.83-2.43 3.11-2.31c.88.08 1.01.75.46 1.88c0 0-2.81 3.92-3.81 6.14c-1.18 2.62.19 5.35.19 5.35s3.64-.11 5.33-2.31c2.73-3.56 2.41-3.54 3.64-5.11c1.45-1.86 3.31-3.51 4.17-2.92c1.27.87-.16 1.97-.59 2.65c0 0-4.12 5.36-4.91 7.46c-1.17 3.09.13 6.44.13 6.44s3.6-.3 6.45-3.68c.5-.59.93-1.12 1.33-1.6l2.26 1.51c-1.07 1.89-1.86 3.83-2.61 6.19c1.82-.61 10.48 2.46 10.48 2.46l28 .07c.18-1.04.22-2.05.16-3.04l1.33.01l9.58.37s1.95-3.7 3.74-4.5c.24-.11.31-.4.14-.6c-1.54-1.74-3.38-3.86-5.47-4.96c-1.81-.95-3.71-.63-4.7-2.9c-1.04-2.37-.68-4.78-2.58-6.77c-.16-.18-.34-.35-.53-.51"/><path fill="#73B03E" d="M74.95 57.12c-1.08-.59-1.5-1.42-.72-2.04c.35-.28 1.73.28 4.27.97c3.28.89 5.24 1.45 7.31 1.36c4.19-.17 4.79-3.8 4.79-3.8s-.51-1.53-4.41-1.8c-1.51-.1-4.21-.66-6.37-1.28c-2-.57-3.67-1.65-2.67-2.62c.6-.58 1.83-.04 3.2.2c3 .53 5.45 1.12 7.34 1.17c3.98.11 5.34-2.41 5.34-2.41s-.52-2.34-3.59-3.1c-1.64-.41-3.44-.67-6.73-1.37c-1.91-.4-1.79-.99-1.22-1.5c.77-.69 2.35-.52 3.32-.44c2.34.21 5.27.91 6.88 1.01c2.78.17 4.22-1.91 4.22-1.91s-.1-2.37-2.8-3.22c-2.56-.81-3.17-.47-5.18-1.21c-1.28-.47-1.73-1.01-1.22-1.47c.47-.42 1.48-.43 3.43-.27c2.61.21 4.64.67 6.62.85c3.41.31 4.39-1.86 4.39-1.86s-.31-1.85-2.73-2.59c-1.16-.36-2.43-.49-4.42-1.07c-.8-.23-.93-.67-.6-1.19c.33-.51 1.24-.62 2.52-.49c2.22.23 3.01.42 4.57.66c3.1.49 4.65-.87 4.65-.87s.37-1.85-1.4-2.48c-1.63-.58-2.76-.63-3.94-.94s-1.04-.81-.65-1.09c1.34-.97 5.36.55 6.74.7c2.35.26 3.63-1.12 3.63-1.12s.36-1.73-1.34-2.32c-1.36-.47-2.61-.52-1.87-1.2c.36-.33 1.61-.44 2.26-.39c1.98.14 2.74.35 3.69.1c.89-.23 2.07-1.09 2.73-1.74c-1.44-.95-3.1-1.22-4.78-1.48c-1.87-.29-2.92 1.84-3.85 1.54c-.46-.15.57-1.76-.49-1.65c-.63.07-1.99.4-2.52 1.92c-.47 1.34-.56 3.32-1.92 3.05c-.84-.16-.5-1.11-.38-1.78c.33-1.8-.45-2.08-.45-2.08s-2.79-.05-3.73 2.88c-.5 1.55-.78 4.26-2.06 4.22c-1.09-.03-.66-1.28-.68-2.37c-.03-1.74-1.64-1.95-1.64-1.95s-2.67.53-2.82 2.78c-.06.86-.1 2.49-.1 4.4c0 1.63-.41 2.92-1.03 3.2c-1.2.55-1.24-.99-1.34-2.59c-.1-1.59-.05-2.5-.3-3.19c-.37-1-2.42-.91-2.42-.91s-2.24 1.69-2.15 3.53c.07 1.44.3 3.59.45 4.45c.26 1.51.24 3.56-.65 4.36c-.87.78-1.49-1.64-2.15-5.24c-.59-3.24-3.07-2.83-3.07-2.83s-2.37 1.78-2 4.58c.27 2.08.72 3.59 1.1 4.83c.94 3.08 1.09 4.19.8 4.89c-1.16 2.8-2.58-1.89-3.84-5.72c-.87-2.65-3.21-2.34-3.21-2.34s-2.06 1.95-1.6 4.36c.76 4.01 2.1 6.27 2.97 7.75c1.62 2.78 1.96 4.01 1.66 4.74c-.33.79-1.84-.01-3.02-1.96c-1.26-2.11-1.82-3.38-2.72-5.97c-.77-2.2-1.64-1.92-1.64-1.92s-1.91 2.73-.97 5.79c1.88 6.1 5.62 9.1 5.97 9.44c.84.8-.32.86-1.97.09c-1.8-.84-4.27-5.41-4.27-5.41s-.75 2.41.67 5.55c1.65 3.64 4.12 4.08 5.65 4.46c1.79.45 2.45.17 3.35 1.27c3.74 4.62 9.17 3.89 10.08 3.89c4.43 0 4.92-3.1 4.92-3.1s-.66-1.4-3.56-1.9c-1.15-.2-2.36-.08-6.08-1.16c-1.28-.35-3.02-.98-4.25-1.65M59.53 36s-2.37.98-2.69 2.9c-.39 1.95-.47 7.71-1.49 9.98c-.67 1.48-1.85.55-1.39-1.86c.59-3.06 1.3-6.96.83-10.19c-.39-2.66-2.65-4.33-2.65-4.33s-2.27.32-2.51 1.72c-.4 2.35-.28 4.42-.42 6c-.1 1.1-.09 3.07-1.48 2.7c-.89-.23-.64-2.91-.61-3.72c.06-1.89.4-2.78.37-6.37c-.03-2.89-3.14-4.47-3.14-4.47s-1.79.47-2.07 2.23c-.42 2.68-.14 5.63-1.77 5.12c-1.06-.33-.24-4.57-.54-6.79c-.3-2.28-2.35-3.62-2.35-3.62s-1.95.05-2.1 2.11c-.13 1.88.15 4.54-1.53 4.6c-1.66.06-.8-2.78-1.28-6.05c-.35-2.38-3-3.31-3-3.31s-2.09.33-2.07 2.01c.01.64-.11 2.32-1.16 2.1c-.95-.2-1.35-1.56-1.58-2.34c-.29-.96-.52-1.61-1.28-2.34c-.88-.85-3.4-1.64-3.49-1.6c-.15.07-.37 2.14-.06 2.96c.46 1.24 1.31 1.91 2.06 2.92c.95 1.27-.53 1.05-1.55 1.69c-1.21.76-1.5 2.13-1.5 2.13s1.4 1.19 2.83 1.29c1.36.1 2.63-.32 3.87-.69c1.6-.49 3.14-.87 3.65-.12c.78 1.13-1.88 1.2-3.76 2.74c-1.17.96-1.29 2.58-1.29 2.58s2.93 1.92 4.4 1.4c2.85-1.02 3.86-1.87 5.23-2.31c1.57-.51 3.32.3 1.51 1.57c-1.3.92-2.9 1.81-3.95 2.87c-1.29 1.29-1.18 3-1.18 3s2.11 1.59 3.87 1.19c2.9-.66 4.7-2.06 6.24-2.79c1.85-.87 2.61-.65 3.24-.14c.68.56-.62 1.12-2.24 1.95c-1.87.96-3.93 2.66-4.7 3.49c-1 1.08-.9 4.9-.9 4.9s3.14 1.16 5.76-.05c2.76-1.27 5.66-4.18 6.89-3.74c1.9.67.46 1.74-2.25 3.92c-2.06 1.66-3.85 2.86-5.14 4.3c-1.21 1.35-1.14 4.81-1.14 4.81s1.58.94 3.92.74c3-.25 6.87-5.35 8.34-6.72c.96-.89 1.86.29.22 3.33c-2.53 4.7-3.71 4.68-4.98 8.29c-.98 2.81.67 5.52.67 5.52s2.59.66 4.35-.58c1.4-.98 2.41-2.89 3.42-5.62c.24-.64.72-2.18.67-6.18c-.03-2.97-.57-2.18.98-4.84c3.62-6.21 4.69-9.02 4.19-13.72c-.29-2.84-2.27-4.57-2.27-4.57"/><path fill="#A1D65C" d="M74.29 64.64s-5.23 1.54-6.97 3.04c-1.74 1.51-3.68 4.17-5.76 4.92c-2.08.75-3.54.57-3.54.57s1.2-4.73 4.42-7.03c3.25-2.33 8.13-3.34 11.85-1.5"/><linearGradient id="notoPottedPlant3" x1="68.998" x2="68.998" y1="83.914" y2="76.796" gradientUnits="userSpaceOnUse"><stop offset="0" stop-color="#5D4037"/><stop offset="1" stop-color="#5D4037" stop-opacity="0"/></linearGradient><path fill="url(#notoPottedPlant3)" d="M44.29 76.89h49.42v8.7H44.29z"/><path fill="#A1D65C" d="M112.32 106.08c.23-.82.11-1.91.14-3.56c.02-.96.58-.98 2.21.67c.72.73 2.05.85 2.05.85c.16-3.06-1.16-3.96-3.27-5.15c-1.86-1.04-3.67-1.42-2.84-2.58c.27-.38 1.52.23 2.16.48c3.77 1.49 4.1.34 4.1.34s-.25-2.92-4.07-4.26c-1.84-.64-4.97-1.1-4.93-2.03c.04-1.22 1.78-.76 2.8-.51c5.16 1.24 5.63.45 5.63.45s-1.05-4.23-5.91-5.07c-2.4-.41-6.68-.79-6.89-1.93c-.22-1.21 4.44-.52 6.3-.22c2.59.42 3.34-.25 3.34-.25s-1.12-3.95-6.6-4.42c-4.04-.34-6.67.2-7.32-.82c-.58-.93 3.15-1.16 6.75-.89c2.83.21 4.36.14 4.36.14s-1.08-4.01-7.01-4.42c-5.9-.41-11.34 1.15-10.66-.01c.72-1.22 3.09-1.41 6.09-1.56c1.53-.07 3.42-.02 4.42-.15c2.34-.3 3.06-1.25 3.06-1.25s-2.48-2.33-6.08-2.96c-3.17-.55-5.83-.11-9.56.77c-2.05.48-4.51 1.18-5.2.6c-.45-.37 1.3-1.45 3.16-1.9c1.54-.37 4.49-.65 6.55-.82c1.3-.1 2.14-.53 2.14-.53s-.54-.44-1.51-.93c-1.8-.91-4.86-1.72-7.83-1.12c-1.79.36-3.14.69-4.56 1.78c-1.46 1.12-2.29 2.16-4.07 2.1c-1.78-.05-2.8-.78-6 .29c-1.39.47-4.19 2.49-6.4 5.04c-2.3 2.66-1.82 5.14-1.82 5.14s2.42.72 4.86-.64c3.43-1.91 7.53-7.39 9.28-7.19c2.09.24-.8 2.34-2.16 3.8c-3.07 3.28-4.5 6.2-4.91 8.66c-.37 2.23.51 3.31.51 3.31s3.13-.45 4.47-2.3c1.94-2.69 4.01-5.22 5.36-7.09c1.66-2.3 2.62-3.05 3.46-3.41c1.64-.7 2.95-.22.58 2.49c-2.83 3.23-5.25 6.77-5.88 9.26c-.61 2.39.57 4.42.57 4.42s2.9-1.01 4.18-2.65c2.56-3.29 3.41-5.18 4.79-7.23c1.08-1.61 2.33-2.9 3.55-2.55c1.31.38-.05 1.96-1.67 4.36c-1.38 2.03-2.94 4.97-3.37 7.12c-.57 2.88.3 4.28.3 4.28s3.48-.56 4.51-2.14c.89-1.35 2.55-4.78 3.71-6.38c.96-1.33 1.81-3.02 2.99-2.32c.62.37.01 1.77-1.3 3.9c-1.01 1.64-2.16 3.81-2.71 5.63c-.57 1.88.24 3.96.24 3.96s2.85.13 4.01-2.08c.97-1.84 1.83-3.4 2.53-4.52c1.5-2.39 2.42-.72 1.3 1.38c-1.19 2.23-2.02 3.72-2.6 5.89c-.36 1.35.3 3.16.3 3.16s1.79.12 2.81-1.18c1.79-2.28 1.74-3.94 2.79-3c.75.68-.98 3.07-1.92 4.81c-.94 1.75-.52 3.77-.52 3.77s2.21.78 3.17-1.15c1.74-3.48 2.55-2.13 2.08-.55c-.15.52-.86 2.81-1.01 3.34c-.83 2.81.72 4.01.72 4.01s1.71-.58 2.25-2.48m-90.04 2.98c-.28-.55-.91-1.8.03-2.29c1.07-.57 1.47 1.18 2.45 2.21c1.67 1.74 3.17.94 3.17.94s1.12-1.6.18-3.88c-.91-2.2-2.87-3.73-2.08-4.77c.44-.58 1.71-1.02 3.42 2.23c1.58 3 4.09 2.44 4.09 2.44s1.74-2.13.49-5.37c-.87-2.24-2.68-4.19-2.29-5.28c.47-1.32 1.63-1.27 2.76.69c.71 1.22 1.42 2.72 2.32 3.92c1.74 2.34 4.22 2.16 4.22 2.16s1.29-2.2.28-5.41c-.51-1.62-1.04-2.92-2.23-5.2c-.59-1.12-1.64-2.66-.84-3.59c.77-.89 1.88.23 2.79 1.6c2.17 3.27 2.25 4.23 3.35 5.97c1.61 2.53 5.07 2.43 5.07 2.43s1.31-2.57.8-5.12c-.63-3.1-1.38-5.32-3.17-8.13c-.8-1.25-1.71-2.86-.98-3.35c.7-.46 1.78.03 3.07 1.99c1.75 2.65 3.11 5.23 4.33 7.43c1.43 2.58 4.92 3 4.92 3s1.4-1.49.17-6.05c-.94-3.48-2.24-5.67-3.09-7.24c-1.05-1.92-2.88-3.2-1.71-3.73c1.08-.49 2.5.78 4.05 3.21c1.6 2.51 2 4.42 3.87 7.01c1.53 2.13 5.12 1.8 5.12 1.8s.5-2.04.11-4.03c-.4-2.07-1.67-4.46-3.67-6.75c-4.47-5.12-7.32-3-7.6-3.96c-.13-.45.12-1.83-.98-3.73c-1.58-2.72-5.44-5.28-9.8-5.24c-1.75.02-4.88.56-6.28 1.54c0 0 .16 1.53 2.05 2.36c2.23.99 6.7 1.86 8.6 3.62c1.26 1.16 2.05 2.52.7 1.97c-.56-.23-2.47-1.58-4.47-2.29c-2.09-.74-4.2-1.06-6.71-1.14c-3.75-.12-6.67 1.44-6.67 1.44s.2.96 2.41 2.09c1.33.68 5.44 1.29 7.01 2.06c1.29.63 2.44 1.08 1.71 1.81c-.46.46-1.18.31-1.78.08c-2.78-1.08-7.04-1.63-9.31-1.72c-3.15-.12-5.41 1.95-5.41 1.95s-.02 1.71 2.27 2.48c3.32 1.11 8.23.91 9.35 2.17c1.09 1.24-1.63 1.44-4.15.97c-2.73-.52-4.14-.68-8.93.04c-3.24.48-4.88 2.72-4.88 2.72s.87 1.92 2.62 2.09c3.49.35 10.83-.28 10.29 1.15c-.49 1.29-2.02 1.19-3.59 1.08c-2.86-.19-5.4-.33-8.13.31c-3.28.77-4.43 3.49-4.43 3.49s.82 1.41 2.76 1.44c3.56.06 7.99-1.17 8.89-.36c1.27 1.15-1.62 1.58-3.16 1.65c-1.93.09-5.47.35-7.44 1.32c-2.61 1.28-2.86 3.3-2.86 3.3s.57 1.04 3.24.84c.71-.05 3.32-.89 4.33-.7c1.6.31.23 1.28-1.54 1.74c-.52.13-2.74.64-3.71 1.17c-1.01.55-2.64 1.1-3 4.2c0 0 1.09.47 3.12-.15c.95-.29 1.79-.95 2.28-.47c.48.48-.66 1.88-.79 3.32c-.28 2.95 1.44 4.23 1.44 4.23s1.95-1.23 2.28-3.58c.32-2.49-.51-3.69-.73-4.13"/></svg>