<svg viewBox="0 0 128 128"><ellipse cx="64" cy="113.9" fill="#d44a28" rx="21.3" ry="9.8"/><path fill="#ed603a" d="M99.5 86.5c0 14.7-15.9 30.8-35.5 30.8s-35.5-16-35.5-30.8 71-14.8 71 0"/><ellipse cx="64" cy="84" fill="#ff8a65" rx="35.1" ry="10.3"/><path fill="#5d4037" d="M93.7 83.4c0 3.2-11.1 6.8-29.7 6.8-18.3 0-29.7-3.6-29.7-6.9s13.3-7.1 29.7-7.1 29.7 3.9 29.7 7.1"/><path fill="#212121" d="m99 84.5.1-.4c0-5.7-15.7-10.4-35.1-10.4s-35.1 4.7-35.1 10.4v.4q-.4 1-.4 2c0 6.7 3.1 13.1 7.8 18.3.6.7 9.5-1.4 15.2-4.7a162 162 0 0 1 19.7-10l-7.2.1c-18.3 0-29.7-3.6-29.7-6.9s13.3-7.1 29.7-7.1 29.7 3.9 29.7 7.1c0 2.4-5.6 4.9-15.5 6.1q1.4-.1 4.1.8c5.4 2.1 12.6 11.2 14.5 7 1.7-3.6 2.7-6.6 2.7-10.8q0-1-.4-1.9" opacity=".2"/><linearGradient id="a" x1="65.8" x2="66.5" y1="59.2" y2="25.9" gradientUnits="userSpaceOnUse"><stop offset=".4" stop-color="#1b5e20"/><stop offset=".9" stop-color="#2e7d32"/></linearGradient><path fill="url(#a)" d="M85.6 46.7c0-.3.2-1.7-2-2.1s-4-.3-4-.3l-1.3-3.6c1-3.3 2.6-4.8 1.2-8.2-.3-.8-2-1.2-3.4-.8 0 0-1.4 0-2.6.8-1 .7-5.5 4.4-6.2 2.3-.3-1 .1-1.5 2-2.8 1.7-1.3 3.6-2.3 5.1-3.8 2.6-2.5 1-6.1 1-6.1s-2-.8-3.7.5Q70 23.9 69 24.4c-2.8 2-3-.8-1.2-1.9l3.4-2.2C74.5 17.9 73 14 73 14s-1-.3-2.3.6l-1.7 1q-1.5 1.1-2.2.1-.4-.7 1.2-1.8c1.1-.8 1.7-.9 2.5-2 1.2-1.7 1-3.9.6-4.3-.3-.5-2.7 2.2-3.2 1.2-.3-.8.8-2.3-.4-4.3-.8-1.5-2.4-2.2-2.4-2.2a6 6 0 0 0-.4 6.2c.6 1 1.4 2 .7 2.7-.4.4-1-.2-2-.8-1.4-1-3.4-.2-3.4-.2s-.8 2.4.5 4c1 1.3 1.7 1.7 3.2 3s.6 2.8-1.2 1.8l-2.6-1.5c-1.5-.7-3.7.3-3.7.3s-.8 3.7 1.3 5l4.6 3c2 1 1.6 3.6-.7 2.5-1.7-.8-3.4-2.1-5.2-2.9-2.4-1-4 0-4 0s-.8 3.3 1 5.1a39 39 0 0 0 5.4 3.8c1.2.7 3 1.4 2.5 2.3-1 2.2-4.6.6-6.1-.3-2.8-1.6-5.8-2.7-7.4-1.4s-.5 5.2-.5 7c-.2 3.8 3.1 4 4.2 7.2q.3 1 .2 2-.5 6.7 1 13.2.1.8.7 1.4.6.3 1.3.4 7.5.6 15.1.6c3.8 0 7.7-.1 11.2-1.6q1-.3 1.7-1.2c.3-.5-2.2-7.3-1.8-7.8 2.3-2.7 4.4-6.3 4.9-9.4"/><radialGradient id="b" cx="85.5" cy="71.4" r="27.7" gradientUnits="userSpaceOnUse"><stop offset=".2" stop-color="#1b5e20"/><stop offset=".7" stop-color="#2e7d32"/></radialGradient><path fill="url(#b)" d="M121 39.5q-1 .2-.7-.6c.4-.8.5-1 .6-1.7.3-1.4-.2-2.3-.2-2.3s-2 .2-2.8 2c-.5 1-1.1 3.2-2.2 2.4-.5-.3 0-1 0-1.8.1-2-1.4-2.4-1.4-2.4s-2 .6-2.4 2.3L111 41c-.2 1.3 0 2-1 2.2q-1.2.2-1.1-1.4l.1-2.6c.3-2.1-2-2.5-2-2.5s-2.2.2-2.8 2.8c-.4 1.4-.5 2-.8 4-.1.8-.1 2-1 2.7s-1.8 0-1.8-1.5c0-1.2.2-2 .1-3.7s-2-1.8-2-1.8-2.8 1.2-3 4.2v6.5s.3 1.8-1.1 2.3c-.9.3-1.9-.2-2-1.8v-5c-.2-2.4-2.2-3.1-2.2-3.1s-3 .3-3.6 3.3c-.4 1.7-.4 9.3-2.9 9.2-2.9-.1-8.7-6.4-10.7.8q-.5 1.9-2.1 3-2 1.3-4.6 1.7a25 25 0 0 0-13 9.4c-1.6 2.3-7 12.3-3.9 14.7 1.2.8 4.9.5 6.4.5h25q.3-1.5.1-3h1.4l9.6.4s1.9-3.7 3.7-4.5c.2-.1 3.7-2.7 3.6-3-1.4-3-9.2-6-9.2-6 1.2-.1 3.1-1.6 6.5.3 4 2.2 6.5 1.2 6.5 1.2s1-1.4-1.7-4.8a38 38 0 0 0-7.5-4.8c-.6-.5-2.4-1-1.6-2.2.6-1 3-.2 5 1l5.4 3.2c2.4 1.4 5.8 0 5.8 0s.2-3-2-5c-1.7-1.6-5.9-4-5.9-4q-1.5-1.5-.3-2c1.1-.6 2.5.2 3.8.9L109 55c2 1 5 .7 5 .7s.8-2.4-.2-3.6c-1.4-1.7-5.4-3.5-5.4-3.5q-1.5-1-.7-1.8c.5-.6 1-.6 2.7.2q2.6 1.4 4.8 2c2.2.7 4.5-.4 4.5-.4s0-2.3-1.6-3.3c-1.1-.7-2.5-1.3-2.5-1.3-.8-.3-1.4-.9-1-1.6.4-.9 2.2-.1 3.4 0a6 6 0 0 0 4.2-.1 4 4 0 0 0 1.8-1.6s-.2-.8-3-1.2"/><radialGradient id="c" cx="63.4" cy="80.7" r="33.5" gradientUnits="userSpaceOnUse"><stop offset=".2" stop-color="#1b5e20"/><stop offset=".7" stop-color="#2e7d32"/></radialGradient><path fill="url(#c)" d="M82.7 62a7 7 0 0 0-5.4-1.7q-1.5.3-3 .3c-1 0-2-.7-2-1.7q0-1 .6-1.8 1.6-2.2 1.2-4.8c-.4-2.6-2.2-3-3.8-2.4s-2 2.4-2.5 4q-1 3.1-3.2 5.6c-.6.8-1.5 1.5-2.4 1.2-1.3-.4 1.4-7.8-1.5-14-.9-1.8-1.6-3.4-2.3-3.4-1.2 0-1.6 4-2 5.6-.2 1.3-1 3.8-2.2 4-.9.1-2-1.2-2.2-1.8-.9-1.8-2.6-6.2-4.5-7.2-1.5-.8-3.2.2-3.2 2.7a73 73 0 0 0 2.9 9.4c.4 1-1.6 1.7-2.5-.1l-4-6.6c-1.8-2.4-5-2-5-2s-1.2 2-.1 5c.8 2.5.7 1.9 1.5 3.8.6 1.5-.1 2.4-1 2.4-1.5 0-2-1.7-2-1.7L31.5 51c-1.3-2.7-4.5-2.6-4.5-2.6s-1.6.8-1 2.4 1 2.3 1.5 3.3c.7 1.5 0 2.5-1 2.2q-1.4-.8-2-2.2c-1-1.7-1.4-2.2-2.3-3.3-1.6-2.1-3.8-1.4-3.8-1.4s-1.9 1.2-.8 3l1.2 2.4q.7 1.5-.5 1.7c-1 .2-1-.5-1.8-1.6-.7-1.1-1.1-1.8-2.1-3-1.2-1.4-3.1-1.1-3.1-1.1s-1.3 1-.4 2.7q1 1 .8 1.6c-.7 1.2-2.2-.6-3-1.3-1.5-1.3-3.4-.7-3.4-.7s-.1 1.1.8 2.3q.3.5 1.2 1.3c.5.4 0 .5-.4.8-2.5 1.4-2.3 2.2-2.3 2.2s1 .8 2.3.8a7 7 0 0 0 4-1.5c1-.7 2.3-2 3-1.4q.9.9-.2 1.8s-1.1 1.1-1.9 2.3c-1 1.5-.1 3.6-.1 3.6s3-.3 4.3-1.4q1.8-1.5 3.6-3.7c1.2-1.4 1.7-1.6 2.4-1.3q1.1.3.1 2s-3 3.2-3.6 5.3c-.4 1.4 1.2 3.4 1.2 3.4s2.9-1 4.3-2.7l3.4-4c1-1.2 1.9-2.5 3.2-2.4q1.3.2.4 1.9s-2.8 4-3.8 6.1c-1.2 2.7.2 5.4.2 5.4s3.6-.1 5.3-2.3c2.8-3.6 2.4-3.6 3.7-5.1 1.4-1.9 3.3-3.5 4.1-3 1.3 1-.1 2-.6 2.7 0 0-4 5.4-4.9 7.5-1.1 3 .2 6.4.2 6.4s3.6-.3 6.4-3.7l1.3-1.6 2.3 1.5q-1.5 2.9-2.6 6.2A38 38 0 0 1 53 85h28q.3-1.5.1-3h1.4l9.5.4s2-3.7 3.8-4.5q.3-.2.1-.6a20 20 0 0 0-5.5-5c-1.8-1-3.7-.6-4.7-2.9s-.6-4.8-2.5-6.7z"/><path fill="#73b03e" d="M75 57.1q-1.7-1-.8-2 .6-.2 4.3 1c3.3.8 5.2 1.4 7.3 1.3 4.2-.2 4.8-3.8 4.8-3.8s-.5-1.5-4.4-1.8c-1.5 0-4.2-.6-6.4-1.3-2-.5-3.6-1.6-2.6-2.6.6-.6 1.8 0 3.2.2q4.5.9 7.3 1.2c4 0 5.3-2.4 5.3-2.4s-.5-2.4-3.6-3.1l-6.7-1.4c-1.9-.4-1.8-1-1.2-1.5.8-.7 2.3-.5 3.3-.4 2.4.2 5.3.9 6.9 1 2.8.1 4.2-2 4.2-2s0-2.3-2.8-3.2c-2.5-.8-3.2-.4-5.2-1.2q-1.9-.7-1.2-1.4t3.4-.3l6.7.8c3.4.4 4.4-1.8 4.4-1.8s-.4-1.9-2.8-2.6l-4.4-1q-1.2-.4-.6-1.3.5-.7 2.5-.5l4.6.7c3 .5 4.6-.9 4.6-.9s.4-1.8-1.4-2.4q-2.2-.7-3.9-1c-1.7-.3-1-.8-.6-1 1.3-1 5.3.5 6.7.6 2.3.3 3.6-1.1 3.6-1.1s.4-1.7-1.3-2.3c-1.4-.5-2.6-.5-1.9-1.2.4-.3 1.6-.5 2.3-.4 2 .1 2.7.3 3.7 0 .8-.1 2-1 2.7-1.6q-2.2-1.4-4.8-1.5c-1.9-.3-3 1.8-3.8 1.5-.5-.1.5-1.7-.5-1.6-.7 0-2 .4-2.6 1.9-.4 1.3-.5 3.3-1.9 3-.8-.1-.5-1-.3-1.7.3-1.8-.5-2.1-.5-2.1s-2.8 0-3.7 2.9c-.5 1.5-.8 4.2-2 4.2s-.8-1.3-.8-2.4c0-1.7-1.6-2-1.6-2s-2.7.6-2.8 2.8l-.1 4.4q0 2.7-1 3.2c-1.3.6-1.3-1-1.4-2.6q0-2.2-.3-3.1c-.4-1-2.4-1-2.4-1S82.2 24 82.3 26c.1 1.4.3 3.6.5 4.4.2 1.5.2 3.6-.7 4.4S80.6 33 80 29.4c-.6-3.2-3-2.8-3-2.8s-2.5 1.8-2 4.6q.3 3 1 4.8c1 3.1 1.1 4.2.8 5-1.2 2.7-2.6-2-3.8-5.8-.9-2.7-3.2-2.3-3.2-2.3s-2.1 1.9-1.6 4.3c.7 4 2 6.3 3 7.8q2.2 3.8 1.6 4.7c-.3.8-1.9 0-3-2a27 27 0 0 1-2.8-6c-.7-2.1-1.6-1.8-1.6-1.8s-1.9 2.7-1 5.7c2 6.1 5.7 9.1 6 9.5.8.8-.3.8-2 0-1.8-.8-4.2-5.3-4.2-5.3s-.8 2.4.6 5.5c1.7 3.7 4.2 4 5.7 4.5 1.8.4 2.4.1 3.3 1.2 3.8 4.7 9.2 4 10.1 4 4.4 0 5-3.2 5-3.2s-.7-1.4-3.6-1.9c-1.2-.2-2.4 0-6.1-1.1-1.3-.4-3-1-4.2-1.7M59.5 36s-2.3 1-2.7 2.9c-.3 2-.4 7.7-1.4 10-.7 1.5-1.9.5-1.4-1.9.6-3 1.3-7 .8-10.2-.4-2.6-2.7-4.3-2.7-4.3s-2.2.3-2.5 1.7c-.4 2.4-.2 4.4-.4 6 0 1.1 0 3-1.5 2.7-.9-.2-.6-2.9-.6-3.7 0-1.9.4-2.8.4-6.4 0-2.9-3.1-4.4-3.1-4.4s-1.8.4-2.1 2.2c-.4 2.7-.2 5.6-1.8 5.1-1-.3-.2-4.6-.5-6.8s-2.4-3.6-2.4-3.6-2 0-2 2.1c-.2 1.9 0 4.6-1.6 4.6s-.8-2.8-1.3-6c-.3-2.4-3-3.3-3-3.3s-2 .3-2 2c0 .6-.2 2.3-1.2 2-1-.1-1.4-1.5-1.6-2.3q-.3-1.4-1.3-2.3a10 10 0 0 0-3.5-1.6 6 6 0 0 0 0 3q.8 1.6 2 2.9c1 1.2-.5 1-1.5 1.7-1.2.7-1.5 2-1.5 2s1.4 1.3 2.8 1.4q2 0 3.9-.7c1.6-.5 3.1-.9 3.6-.1.8 1-1.9 1.2-3.7 2.7-1.2 1-1.3 2.6-1.3 2.6s3 1.9 4.4 1.4c2.8-1 3.8-1.9 5.2-2.3 1.6-.5 3.3.3 1.5 1.5q-2.1 1.3-4 3c-1.9 1.7-1.1 3-1.1 3s2.1 1.5 3.9 1.1c2.9-.7 4.7-2 6.2-2.8 1.8-.9 2.6-.6 3.2-.1s-.6 1-2.2 2c-1.9.9-4 2.6-4.7 3.4-1 1-.9 5-.9 5s3.1 1 5.8-.1c2.7-1.3 5.6-4.2 6.8-3.8 2 .7.5 1.8-2.2 4q-3.1 2.3-5.1 4.2C39.9 57 40 60.3 40 60.3s1.6 1 4 .8c3-.3 6.8-5.4 8.3-6.7 1-1 1.8.3.2 3.3-2.5 4.7-3.7 4.7-5 8.3-1 2.8.7 5.5.7 5.5s2.6.7 4.3-.6q2-1.5 3.5-5.6c.2-.6.7-2.2.6-6.2 0-3-.5-2.1 1-4.8 3.6-6.2 4.7-9 4.2-13.7-.3-2.9-2.3-4.6-2.3-4.6"/><path fill="#a1d65c" d="M74.3 64.6s-5.2 1.6-7 3c-1.7 1.6-3.7 4.3-5.7 5s-3.6.6-3.6.6 1.2-4.8 4.4-7c3.3-2.4 8.2-3.4 11.9-1.6"/><linearGradient id="d" x1="69" x2="69" y1="83.9" y2="76.8" gradientUnits="userSpaceOnUse"><stop offset="0" stop-color="#5d4037"/><stop offset="1" stop-color="#5d4037" stop-opacity="0"/></linearGradient><path fill="url(#d)" d="M44.3 76.9h49.4v8.7H44.3z"/><path fill="#a1d65c" d="M112.3 106q.2-1 .2-3.5-.2-1.7 2.2.7c.7.7 2 .8 2 .8.2-3-1.1-4-3.3-5.1-1.8-1-3.6-1.4-2.8-2.6.3-.4 1.5.2 2.2.5 3.7 1.5 4 .3 4 .3s-.2-2.9-4-4.2c-1.8-.7-5-1.1-5-2 .1-1.3 1.8-.8 2.9-.6 5.1 1.3 5.6.5 5.6.5s-1-4.3-6-5c-2.3-.5-6.6-.9-6.8-2s4.4-.5 6.3-.2c2.6.4 3.3-.3 3.3-.3s-1-4-6.6-4.4c-4-.4-6.6.2-7.3-.8-.6-1 3.2-1.2 6.8-1q4.2.3 4.3.2c.1 0-1-4-7-4.4S92 74 92.7 72.9s3-1.4 6-1.6l4.5-.1c2.3-.3 3-1.3 3-1.3s-2.5-2.3-6-3c-3.2-.5-5.9 0-9.6.8-2 .5-4.5 1.2-5.2.6-.5-.3 1.3-1.4 3.1-1.9 1.6-.3 4.5-.6 6.6-.8 1.3 0 2.1-.5 2.1-.5l-1.5-1a13 13 0 0 0-12.4.7C82 66 81 67 79.3 67s-2.8-.8-6 .3a20 20 0 0 0-6.4 5C64.6 75 65 77.5 65 77.5s2.5.7 5-.7c3.3-1.9 7.4-7.3 9.2-7.1 2 .2-.8 2.3-2.2 3.8q-4.4 4.9-4.9 8.6c-.4 2.2.5 3.3.5 3.3s3.2-.4 4.5-2.3l5.4-7c1.6-2.4 2.6-3.1 3.4-3.5 1.7-.7 3-.2.6 2.5a27 27 0 0 0-5.9 9.3c-.6 2.4.6 4.4.6 4.4s2.9-1 4.2-2.7c2.5-3.2 3.4-5.1 4.8-7.2 1-1.6 2.3-2.9 3.5-2.5s0 2-1.7 4.3a24 24 0 0 0-3.3 7.1c-.6 3 .3 4.3.3 4.3s3.4-.5 4.5-2.1c.9-1.4 2.5-4.8 3.7-6.4 1-1.3 1.8-3 3-2.3q.8.7-1.3 3.9a24 24 0 0 0-2.7 5.6c-.6 1.9.2 4 .2 4s2.9.1 4-2.1l2.5-4.5c1.5-2.4 2.5-.7 1.3 1.4-1.1 2.2-2 3.7-2.6 5.8-.3 1.4.3 3.2.3 3.2s1.8.1 2.9-1.2c1.7-2.3 1.7-4 2.7-3 .8.7-1 3.1-1.9 4.8-1 1.8-.5 3.8-.5 3.8s2.2.8 3.2-1.1c1.7-3.5 2.5-2.2 2-.6 0 .5-.8 2.8-1 3.3-.8 2.9.8 4 .8 4s1.7-.5 2.2-2.4m-90 3c-.3-.6-1-1.8 0-2.3 1-.6 1.5 1.1 2.5 2.2 1.6 1.7 3.1 1 3.1 1s1.1-1.7.2-4-2.9-3.7-2-4.7c.4-.6 1.6-1 3.3 2.2 1.6 3 4.1 2.4 4.1 2.4s1.8-2 .5-5.3c-.8-2.3-2.7-4.2-2.3-5.3q1-2.1 2.8.7 1 2 2.3 3.9c1.8 2.3 4.2 2.2 4.2 2.2s1.3-2.2.3-5.5c-.5-1.6-1-2.9-2.2-5.2-.6-1-1.7-2.6-.9-3.5.8-1 2 .2 2.8 1.6 2.2 3.2 2.3 4.2 3.4 6 1.6 2.5 5 2.4 5 2.4s1.4-2.6.9-5.2a22 22 0 0 0-3.2-8c-.8-1.3-1.7-3-1-3.4q1.1-.9 3 2 2.6 4 4.4 7.4c1.4 2.6 5 3 5 3s1.3-1.5.1-6c-1-3.6-2.2-5.7-3-7.3-1.1-2-3-3.2-1.8-3.7q1.6-.7 4 3.2c1.6 2.5 2 4.4 4 7 1.4 2.1 5 1.8 5 1.8s.5-2 .1-4q-.6-3.2-3.6-6.8c-4.5-5.1-7.3-3-7.6-4-.2-.4.1-1.8-1-3.7a12 12 0 0 0-9.8-5.2 14 14 0 0 0-6.3 1.5s.2 1.5 2 2.4c2.3 1 6.8 1.8 8.7 3.6 1.2 1.1 2 2.5.7 2-.6-.3-2.5-1.6-4.5-2.3q-3-1-6.7-1.2C35 71 32 72.5 32 72.5s.2 1 2.4 2c1.4.7 5.5 1.3 7 2.1 1.3.6 2.5 1.1 1.7 1.8q-.7.6-1.7.1a34 34 0 0 0-9.3-1.7c-3.2-.1-5.5 2-5.5 2s0 1.6 2.3 2.4c3.3 1.1 8.2 1 9.4 2.2 1 1.2-1.7 1.4-4.2 1-2.7-.6-4.1-.7-9 0-3.2.5-4.8 2.7-4.8 2.7s.9 2 2.6 2.1c3.5.4 10.9-.3 10.3 1.2-.5 1.2-2 1.1-3.6 1q-4.1-.5-8.1.3c-3.3.8-4.4 3.5-4.4 3.5s.8 1.4 2.7 1.5c3.6 0 8-1.2 9-.4 1.2 1.2-1.7 1.6-3.2 1.7-2 0-5.5.3-7.5 1.3-2.6 1.3-2.8 3.3-2.8 3.3s.5 1 3.2.8c.7 0 3.3-.9 4.3-.7 1.6.3.3 1.3-1.5 1.8-.5.1-2.8.6-3.7 1.1s-2.7 1.1-3 4.2c0 0 1 .5 3.1-.1 1-.3 1.8-1 2.3-.5s-.7 1.9-.8 3.3c-.3 3 1.4 4.3 1.4 4.3s2-1.3 2.3-3.6c.3-2.5-.5-3.7-.7-4.1"/></svg>