<svg xmlns="http://www.w3.org/2000/svg" width="1em" height="1em" viewBox="0 0 128 128"><path fill="#FF5117" d="m28.38 112.62l-5.79 11.64s-11.2.25-11.84-.17s-7.98-46.25 25.34-82.98C71.33 2.24 115.61 2.52 116.67 3.8c1.06 1.27.8 16.81.8 16.81z"/><path fill="#FF8E00" d="M70.78 28.21C48.9 40.58 32.38 59.3 24.73 88.59c-3.64 13.93-2.27 35.65-2.27 35.65h12.92l38.43-56.42l43.66-40.92V14.94s-26.12 1.63-46.69 13.27"/><path fill="#F9D81E" d="M44.02 74.92c-10.55 20.32-8.66 49.32-8.66 49.32l12.61-.01l43.07-57.22l26.44-27.19l-.02-12.91s-15.07-.14-38.53 11.22c-18.84 9.11-29.17 25.74-34.91 36.79"/><path fill="#97CC37" d="M65.47 64.73c-21.87 27.33-17.73 59.5-17.73 59.5h14.03l23.96-43.47l31.75-26.33l-.01-14.74s-32.46.61-52 25.04"/><path fill="#00C0E9" d="M76.93 70.88c-21.82 20.95-16.97 53.35-16.97 53.35h11.26L88 82.17l29.48-15.43l-.01-14.55s-19.29-1.7-40.54 18.69"/><path fill="#8177FA" d="M117.03 74.72c.67-1.05.45-12 .45-12s-18.25-.33-33.63 17c-15.35 17.3-13.14 44.51-13.14 44.51s10.52.32 10.95-.53c.86-1.7-2.91-21.73 9.64-35.86c13-14.63 25.36-12.56 25.73-13.12"/></svg>