<svg viewBox="0 0 128 128"><path fill="#ff5117" d="m28.4 112.6-5.8 11.7s-11.2.2-11.9-.2-8-46.3 25.4-83C71.3 2.2 115.6 2.5 116.7 3.8s.8 16.8.8 16.8z"/><path fill="#ff8e00" d="M70.8 28.2a93 93 0 0 0-46 60.4c-3.7 14-2.3 35.6-2.3 35.6h12.9l38.4-56.4L117.5 27V15s-26.1 1.7-46.7 13.3"/><path fill="#f9d81e" d="M44 75c-10.5 20.2-8.6 49.2-8.6 49.2H48L91 67l26.5-27.2V27s-15.1-.1-38.6 11.2A80 80 0 0 0 44 75"/><path fill="#97cc37" d="M65.5 64.7c-21.9 27.4-17.8 59.5-17.8 59.5h14l24-43.4 31.8-26.4V39.7s-32.5.6-52 25"/><path fill="#00c0e9" d="M77 70.9c-21.9 21-17 53.3-17 53.3h11.2l16.8-42 29.5-15.5V52.2s-19.3-1.7-40.6 18.7"/><path fill="#8177fa" d="M117 74.7c.7-1 .5-12 .5-12s-18.3-.3-33.6 17-13.2 44.5-13.2 44.5 10.5.3 11-.5c.8-1.7-3-21.7 9.6-35.9 13-14.6 25.4-12.5 25.7-13"/></svg>