<svg viewBox="0 0 128 128"><path fill="#929394" d="M108.3 49c1.3-.4 4.5 4.7 7.2 6.8q3.5 3 5.3 3.4c.8.1 3.8 1 2.3 3.9s-5.7 3-7.8 3-11.6-10-11.6-10 .1-5.9 4.6-7.2"/><path fill="#b88658" d="M37.9 16.6s-4.3-2.4-12.5-1.3c-6.3 1-13.3 4.4-17.6 12.7-5 9.4-4.6 18.6-1.1 25a37 37 0 0 0 11.8 12.2z"/><path fill="#6f4b41" d="M21.1 30.4s-2.6 0-5 3C14.3 36 13.5 38 13.5 38s-5.9.9-6 4.3c-.1 2.1 2.4 1.4 4.4 3.4s2.5 3.3 3 5.6 3.3 2.6 3.3 2.6 0-5.7-3-8.8-5.3-2.3-5.2-3 2.5-2.4 5-2.4c4 0 5.6 4.7 5.6 4.7l2.6-11.6z"/><path fill="#5d6167" d="M76.2 108.2s0 2.5.2 3.6c0 .5 2 2.1 6 2.2 3.8.1 6-2 6-3l.3-5-1.2-4.1-9.4 2.6-.7 1.4z"/><path fill="#979899" d="M79.8 108.3s1.6.4 4.5.1a8 8 0 0 0 4.3-1.5l1-7-13.3 1.3 1.8 6.9z"/><path fill="#5d6268" d="M95 107.5s.3 5.3.6 6c.3.6 1.9 2.1 5.7 2.3 4.7.2 6-1.6 6-2.8s.9-5.3.3-6.7-10-.6-10-.6z"/><path fill="#979899" d="M108.7 92 95 93.4s-.2 13.1 0 14c.3.8 2.2 2 6.5 2.2 4.6 0 6.3-1.2 6.3-1.2l1.4-16.3z"/><path fill="#5d6164" d="M51.6 115s.2 5.6.8 6.3c.5.7 1.7 3 6.4 2.8s6.3-2.9 6.5-3.6.1-4.7.1-4.7l-13.1-2.6z"/><path fill="#979899" d="m65.6 106.3-14.5 1.2s.3 6.9.5 8.1 2.1 2.7 7.1 2.6 6.8-2.4 6.8-2.4z"/><path fill="#5f6467" d="M30.4 112.7s2.8-2.9 6.6-3 6.5 4.7 6.5 4.7l.1 3.5c0 1.3-3 3.3-6.3 3.2-5 0-5.7-2-6-3z"/><path fill="#98999a" d="m31.6 102-2.9 1 1.8 10s2 3 6.8 3 6.2-1.5 6.2-1.5l-.4-8.4z"/><path fill="#dedede" d="M59.5 20.2s-2.4-7.1-12.3-7.4c-11.6-.5-14 8.8-14 8.8s-5.8-3-11.2 2.5-1 11.7-1 11.7-3.2 2.3-2.8 6.4c.5 3.6 2.6 4.8 2.6 4.8s-7.9 4-8.9 13.5c-1.1 10.4 3.5 14 3.5 14s-4 6.7.4 16c4.3 8.8 10.5 9.2 10.5 9.2s3.2 7.4 9.1 8.8 10.9-.3 10.9-.3 5.3 4.8 11 4c5.8-.6 7.7-3.4 7.7-3.4s3.5 3.3 10.5 1.8 8.3-5.5 8.3-5.5 6.5 3.7 13.1.1c6.7-3.5 7.2-9.7 7.2-9.7s7.2-1.1 11-8.4.3-12.1.3-12.1 1.8-3.8-.2-11.6-7.8-8.6-7.8-8.6 4.3-7.8-1.6-13.8c-6-5.9-14.6-4.7-14.6-4.7l-22.6-8s3-4-2-7.2c-3.7-2.6-7.1-.9-7.1-.9"/><path fill="#979899" d="M21.7 47.3s2.4.3 5-1.7c2.6-2.1 4-4.8 4-4.8s2.4 5 7.9 6c6.9 1.2 11.6-5.2 11.6-5.2s-.7 3.7 3.1 6.7 8.5 1.7 8.5 1.7-5.6 5.9-7.4 10.7S51.7 74 47 78c-6.5 5.7-26.1 5-27.5-8.6-.6-5.7 2.4-5.8 2.8-13.5.2-5.6-.7-8.5-.7-8.5"/><path fill="#2f2f2f" d="M31.7 66.1c.3 0 2.3-1 2.6-1.2s2.2-1.3 2.9-.2.2 2-1.4 2.8l-2.5 1.2s-.7 4.1 2.2 4.4c1.7.2 2.1-1 3.4.2s-.5 3.1-3.2 3q-2.1 0-3.2-1.2c-.5-.4-1-1.7-1-1.7s-.7 2.1-3.5 2.3c-2.6.2-4-2.1-3-3.1s1.2.3 2.8.2c2.4 0 2-4.3 2-4.3l-2-2.3c-.4-.4-1.3-1.4-.7-2.3.8-1 1.7-.4 2.2 0 .5.3 2.1 2.2 2.4 2.2"/><path fill="#6f4b41" d="m64 48.7-1.2-13.2 21.4-4.2 6 12.1-3.8 18.2-1.2 5.4-6.2 7s-4.4 2.5-10 .8C62.8 73 60.2 69.2 59 63c-2-9.3 5-14.4 5-14.4"/><path fill="#b68859" d="M60.1 38.1c0 6 3 11 4 10.5s4.8-1.4 6-6.2c.5-2.4 3.4-4.7 6.5-5 3.2-.5 6.7 1.3 8.4 7.2 1.5 5.4-.2 10.5-3.1 12.7s-7 1.7-8-1.2c-1.4-4.4 4.8-6 4.9-7.4s-7.6-4.8-12.9.3c-5.8 5.8-6.4 14.3-1.8 20.2s12 6.9 19.4 3c7.5-4 13.8-12 13.3-27.3-.6-18-14.6-27.4-25.4-25q-6 1.5-8.4 5.8A27 27 0 0 0 60 38"/><ellipse cx="47.4" cy="51.5" fill="#2f2f2f" rx="3.3" ry="4"/><ellipse cx="28.3" cy="49.5" fill="#2f2f2f" rx="3" ry="3.6"/></svg>