<svg xmlns="http://www.w3.org/2000/svg" width="1em" height="1em" viewBox="0 0 128 128"><path fill="#929394" d="M108.34 48.93c1.29-.36 4.43 4.75 7.11 6.9c2.46 1.97 4.03 3.15 5.35 3.38c.82.14 3.8.92 2.25 3.87s-5.7 3.03-7.74 2.96c-2.04-.07-11.61-9.92-11.61-9.92s.13-5.92 4.64-7.19"/><path fill="#B88658" d="M37.88 16.62s-4.24-2.44-12.46-1.27c-6.29.9-13.37 4.36-17.67 12.6c-4.93 9.43-4.6 18.61-1.06 25.06c4.19 7.63 11.76 12.18 11.76 12.18z"/><path fill="#6F4B41" d="M21.13 30.35s-2.67 0-5 3.1c-1.87 2.49-2.67 4.5-2.67 4.5s-5.82.94-5.98 4.36c-.1 2.11 2.46 1.41 4.43 3.38s2.46 3.31 2.96 5.56c.49 2.25 3.31 2.67 3.31 2.67s.07-5.7-3.03-8.8s-5.28-2.32-5.14-3.1c.14-.77 2.46-2.37 5-2.32c3.94.07 5.56 4.65 5.56 4.65l2.6-11.54z"/><path fill="#5D6167" d="M76.24 108.15s-.05 2.53.14 3.64c.09.54 2.07 2.13 5.96 2.23c3.85.09 6.08-1.99 6.05-3.1c-.02-.94.28-4.97.28-4.97l-1.17-4.08l-9.36 2.67l-.73 1.4z"/><path fill="#979899" d="M79.83 108.34s1.57.39 4.48.09c2.82-.28 4.32-1.5 4.32-1.5l1.06-7.11l-13.37 1.41l1.83 6.83z"/><path fill="#5D6268" d="M95.06 107.49s.2 5.34.52 5.96c.33.66 1.87 2.2 5.68 2.35c4.79.19 5.96-1.6 6.1-2.82s.84-5.23.28-6.71c-.56-1.48-10.09-.52-10.09-.52z"/><path fill="#979899" d="m108.74 91.91l-13.7 1.64s-.28 13.09 0 13.94c.28.84 2.18 2.07 6.48 2.18c4.58.12 6.26-1.2 6.26-1.2l1.45-16.28z"/><path fill="#5D6164" d="M51.63 115s.19 5.63.75 6.34c.56.7 1.71 2.91 6.43 2.77s6.31-2.89 6.45-3.59c.14-.7.16-4.67.16-4.67L52.3 113.2z"/><path fill="#979899" d="m65.61 106.3l-14.5 1.2s.31 6.85.52 8.12c.18 1.1 2.09 2.72 7.09 2.58c5-.14 6.76-2.39 6.76-2.39z"/><path fill="#5F6467" d="M30.44 112.66s2.72-2.84 6.59-2.98s6.45 4.76 6.45 4.76s.12 2.65.12 3.47c0 1.27-2.95 3.28-6.26 3.24c-5.09-.07-5.77-2.06-6.01-3.05c-.14-.59-.89-5.44-.89-5.44"/><path fill="#98999A" d="m31.61 102.07l-2.89.96l1.76 9.95s2.11 2.96 6.83 2.96s6.19-1.41 6.19-1.41l-.42-8.38z"/><path fill="#DEDEDE" d="M59.49 20.21s-2.4-7.11-12.25-7.46c-11.68-.42-14.08 8.87-14.08 8.87s-5.77-3.1-11.12 2.53s-1.13 11.68-1.13 11.68s-3.14 2.26-2.67 6.34c.42 3.66 2.53 4.79 2.53 4.79s-7.85 4.12-8.87 13.51c-1.13 10.42 3.52 14.08 3.52 14.08s-4.08 6.62.42 15.91c4.3 8.87 10.42 9.29 10.42 9.29s3.24 7.32 9.15 8.73s10.84-.28 10.84-.28s5.35 4.79 11.12 4.08c5.77-.7 7.6-3.52 7.6-3.52s3.52 3.38 10.56 1.83s8.31-5.49 8.31-5.49s6.48 3.66 13.09.14c6.62-3.52 7.18-9.71 7.18-9.71s7.18-1.13 10.98-8.45c3.8-7.32.28-12.11.28-12.11s1.83-3.8-.14-11.54c-1.97-7.74-7.88-8.59-7.88-8.59s4.36-7.88-1.55-13.8c-5.91-5.91-14.64-4.79-14.64-4.79l-22.52-7.88s2.88-4.09-1.97-7.32c-3.8-2.53-7.18-.84-7.18-.84"/><path fill="#979899" d="M21.71 47.33s2.35.28 4.97-1.78c2.63-2.06 4.04-4.79 4.04-4.79s2.4 5.03 7.88 6.01c6.85 1.22 11.64-5.16 11.64-5.16s-.75 3.66 3.1 6.66s8.45 1.78 8.45 1.78s-5.63 5.82-7.41 10.7s-2.72 13.14-7.32 17.18c-6.5 5.7-26.09 4.88-27.5-8.63c-.6-5.74 2.44-5.82 2.82-13.51c.26-5.55-.67-8.46-.67-8.46"/><path fill="#2F2F2F" d="M31.71 66.11c.29.04 2.25-1.03 2.63-1.22c.38-.19 2.11-1.31 2.86-.23s.22 2.09-1.4 2.86c-1.18.56-2.5 1.2-2.5 1.2s-.66 4.12 2.15 4.4c1.76.18 2.15-1 3.41.18c1.27 1.17-.42 3.13-3.12 3c-1.52-.07-2.44-.43-3.28-1.22c-.42-.39-1.02-1.71-1.02-1.71s-.67 2.13-3.48 2.32c-2.6.18-3.99-2.11-2.91-3.14c1.08-1.03 1.13.31 2.77.26c2.36-.07 2.04-4.33 2.04-4.33s-1.62-1.84-2.09-2.31c-.47-.47-1.25-1.41-.66-2.25c.77-1.1 1.71-.41 2.18-.08c.47.31 2.12 2.23 2.42 2.27"/><path fill="#6F4B41" d="m64.04 48.65l-1.22-13.14l21.4-4.22l6.01 12.11l-3.85 18.2l-1.22 5.44l-6.1 6.85s-4.33 2.51-10.04.84c-6.1-1.78-8.73-5.54-10.04-11.73c-1.98-9.3 5.06-14.35 5.06-14.35"/><path fill="#B68859" d="M60.1 38.14c0 6.01 2.91 10.89 3.94 10.51c1.03-.38 4.84-1.41 6.01-6.29c.56-2.32 3.42-4.69 6.56-5.05c3.2-.37 6.7 1.34 8.36 7.31c1.5 5.4-.18 10.52-3.1 12.67c-2.92 2.15-6.89 1.68-7.88-1.22c-1.5-4.41 4.69-5.91 4.79-7.41s-7.6-4.79-12.86.38c-5.87 5.76-6.38 14.27-1.78 20.18s11.98 6.86 19.33 3c7.51-3.94 13.81-11.93 13.33-27.31c-.56-18.02-14.64-27.38-25.43-24.96c-3.99.89-6.69 2.84-8.39 5.71c-1.71 2.86-2.88 7.88-2.88 12.48"/><ellipse cx="47.43" cy="51.49" fill="#2F2F2F" rx="3.28" ry="3.96"/><ellipse cx="28.28" cy="49.47" fill="#2F2F2F" rx="3.01" ry="3.57"/></svg>