<svg viewBox="0 0 128 128"><linearGradient id="a" x1="87.6" x2="41.5" y1="21" y2="138.1" gradientUnits="userSpaceOnUse"><stop offset="0" stop-color="#9e958e"/><stop offset=".5" stop-color="#8e8884"/><stop offset="1" stop-color="#757575"/></linearGradient><path fill="url(#a)" d="M9 90.7 7.3 87c-3.8-9.5 1-18.1 5.2-26.5l6-12.2q2-3.7 5.5-6l17.6-10.8 17.4-18a8 8 0 0 1 4-2.3l11.8-2.8c5.8-1.4 8.2-1.2 10 1.4 6.5 9.1 10.8 16.6 16.5 25.7 3 5 10.3 16.3 10.7 17 1.4 2.4.8 4.3.8 7a47 47 0 0 0 3.2 18q1.1 2.5 1.8 5.1a130 130 0 0 1-.5 15.3 38 38 0 0 1-9.3 14.6c-2.6 1.4-22 8.5-26.3 9.8s-22.9-3-32.5-4.5l-18-2.8c-5.1-.8-10.3-.2-13.2-5.4a193 193 0 0 1-9-18.9"/><linearGradient id="b" x1="8.9" x2="47.2" y1="120.1" y2="77.5" gradientUnits="userSpaceOnUse"><stop offset="0" stop-color="#37474f"/><stop offset=".6" stop-color="#42565f" stop-opacity=".2"/><stop offset=".8" stop-color="#455a64" stop-opacity="0"/></linearGradient><path fill="url(#b)" d="m31.3 115 18 2.7 11.3 2c-2.8-3.3-7-7.2-9.8-10.6a6 6 0 0 1-1.5-2.4q-.2-1.5.3-3c.9-3.1 1-6.6 2-9.7a154 154 0 0 1-18.7 3.3q-1.6-.7-2.9-2a104 104 0 0 1-16-18.5 8 8 0 0 1-1.4-2.7q-.2-1.5.1-2.8l1.8-14.4-1.8 3.7c-4.2 8.4-9 17-5.2 26.5L9 90.8a193 193 0 0 0 9.2 18.9c2.9 5.2 8 4.6 13.2 5.4"/><linearGradient id="c" x1="99.6" x2="74.8" y1="66.7" y2="11.7" gradientUnits="userSpaceOnUse"><stop offset="0" stop-color="#9e958e"/><stop offset=".4" stop-color="#aea298"/><stop offset="1" stop-color="#c9b8a9"/></linearGradient><path fill="url(#c)" d="M85 10c-1.2-1.5-3.6-1.2-6.1 1l-9 9.1q-1 1-.9 2.2l1 18.5q0 1 .7 1.6c3.2 3.8 14.6 21.9 17.9 21.9s9-12.9 12-12.8c.4 0 3 .2 5.6 1 2.4.7 3.3-2.6 2.8-5l-7.6-12C95.7 26.5 91.4 19 85 10"/><linearGradient id="d" x1="37.5" x2="47.5" y1="104.5" y2="50.3" gradientUnits="userSpaceOnUse"><stop offset="0" stop-color="#4c5c64"/><stop offset="1" stop-color="#455a64" stop-opacity="0"/></linearGradient><path fill="url(#d)" d="M42.9 46.4c3.3-.5 14.4-2.4 16.5-3.2 4.1-1.7 7.7-8.5 10-12.2 0 0 .9 12 0 16.7-.5 3.3-2.6 20.4-4.8 24.5L51.6 94 32.3 74.8C30.7 73 29.7 72.3 29 70c-1.4-5.3-3.8-13.1-3.8-17.7s12.3-5.1 17.6-6"/><linearGradient id="e" x1="41.7" x2="70.8" y1="20.4" y2="20.4" gradientUnits="userSpaceOnUse"><stop offset="0" stop-color="#4c5c64"/><stop offset="1" stop-color="#455a64" stop-opacity="0"/></linearGradient><path fill="url(#e)" d="M67.2 20.7a7 7 0 0 1-1.2-5.6c.3-1.6 3.7-4.8 4.8-5.7L63 11.2a8 8 0 0 0-4 2.3l-17.4 18z"/><linearGradient id="f" x1="87.3" x2="121.6" y1="76.6" y2="90.8" gradientUnits="userSpaceOnUse"><stop offset="0" stop-color="#9e958e"/><stop offset=".3" stop-color="#aea298"/><stop offset=".6" stop-color="#c9b8a9"/></linearGradient><path fill="url(#f)" d="M116 77.5a46 46 0 0 1-3-13.4c-5.7 3.9-9 9-18.2 10.2-2.4.4-6.2.8-8.6 1.5-3 .7-5.7 3-10.1 3.3-3.2.3-11.2.1-10 1.9s8.4 5.4 10.2 6.8q3.7 3 6.8 6.9c1.1 1.3 2.8 4.4 4.7 5.3q.8.3 1.5 0 1.3-.4 2.4-1.5a94 94 0 0 1 23-15q1.4-.6 2.2-1.7.3-.7.3-1.5z"/><linearGradient id="g" x1="104.6" x2="97.6" y1="123.4" y2="95.6" gradientUnits="userSpaceOnUse"><stop offset="0" stop-color="#37474f"/><stop offset=".8" stop-color="#42565f" stop-opacity=".2"/><stop offset="1" stop-color="#455a64" stop-opacity="0"/></linearGradient><path fill="url(#g)" d="m117.9 82.6-.6-1.9q-.1.9-1.3 1.9c-2.3 1.7-11.2 4.4-21 13-6.3 5.6-6.3 6.3-7.7 12.5-2.2 10-5.8 13.7-6.5 14.3q.6 0 1-.2c4.3-1.2 23.7-8.3 26.3-9.7 2.4-1.3 9-11.8 9.3-14.6.4-3.4.8-13.7.5-15.3"/></svg>