<svg viewBox="0 0 128 128"><path fill="#c54c0f" d="m93.5 19.6-59 2.4-16.2 56 45.3 39.7 50-39.3z"/><path fill="#a62714" d="M89.3 15.8c-.8 1-2.7 13.6-1.6 14.5s14.3-3.4 15-4.7c.7-1.2.3-12.7-.8-13.9s-11.6 3-12.6 4m-63-4.1c-1.5 1.1-1.6 14.1-.7 15s12.6 5.7 14.3 4 .1-14.4-.7-15.3-11.5-4.8-12.9-3.7M3.2 84.2c.6 1.3 11.1 3.4 13.2 2.6 3-1.2 9.5-10.1 9.2-11.4s-14-3.5-15.2-2.7-8.1 9.7-7.2 11.5m61.1 19.5c-1.1 0-7.3 11-7.3 12.8s6.5 9.6 7.5 9.7c1.2.1 8.2-8.4 7.8-9.7a47 47 0 0 0-8-12.8M102.8 76c-.4 1.2 6.8 10.6 8.4 11s13.2-1.8 13.8-4.1-7.7-10.9-9-11.6-12.7 3-13.2 4.7"/><path fill="#fe6111" d="M58.6 57.6 73 55.4s1.4-11 5.9-16.8 11.3-10.5 11.3-19S84.6 4.4 78.5 4.2s-10 3.3-15 3-9.7-2.9-16.2-1.9S35 15.7 38 23.7s10.8 12.2 13.3 17.4c1.5 3 4.5 16.1 4.5 16.1z"/><path fill="#fe6111" d="M70.2 52.2S80 49 84.7 39.6s7.1-13.7 14-15.2 12.8 1.8 16 6c3.3 4 1.6 15 2.3 17.5s7.7 8.5 7.1 14.3-6.7 13.7-14.5 13.3-12.5-4.7-17.7-6.1-13.6-.3-13.6-.3L66.8 56.5zm-12.6.7s-9-6.8-12-9.8c-4.1-4.3-7-17.2-18.5-19.1-9.3-1.6-14.3 4.5-15.6 10.2s-.3 9.6-.8 11.4-6 9.2-6.8 14S5.3 74 14.1 75.5s12.5-2.7 15.1-4.2 7.5-4 11.4-3.6 9.8-.3 9.8-.3zm-9.8 16.5s-7.1 3.6-11.5 5.2c-5.1 1.8-13 .2-18.7 7.5s-5.7 15.5-.7 20.2 10.9 4 13.8 6.7c2.8 2.8 7.7 11.2 13.5 12.3s15-1.5 16.8-10.1-1.3-16.2.3-21.5S67 78.8 67 78.8z"/><path fill="#fe6111" d="m78.5 66.1-16.1 15s3.7 6.3 4.4 10.6S64 112.3 71 118c7.1 5.8 15.3 4 19.5-1.6s6.1-8 8.4-9.8 14-6.5 15-12.5-.5-9-6.2-13.4-13-3.3-18.2-5.4c-3.4-1.5-11-9.2-11-9.2"/><path fill="#ffa624" d="M66.5 54.1s8-12 8.1-20c.2-7.6-4.8-12-10.4-11.8-6.6.3-10.5 6-9.5 13.3S62.6 55 62.6 55zm4.4 4.6s9.9-10 16.5-13.4c6.6-3.3 13-1 15.4 5.6s-3.4 12.7-9.6 13.4-20.9.5-20.9.5zM53.7 58s-6.7-9.8-14-13.7-14.9-1.6-16.3 4.5c-1.5 6.2 1.6 12.4 10.5 14 8.3 1.4 19.4-2.8 19.4-2.8zm5.6 11.3s-11 3.4-14 5.1-9.6 5.6-9.9 13 4.5 10.4 11 9.7c6.7-.7 10.5-8.8 11.2-13s1.7-14.8 1.7-14.8m7.4 1.5s0 12.4 2.8 18.6c3 6.6 11 10.7 16.4 6.9 5-3.6 4.7-12-.7-17.8S68.6 69 68.6 69z"/><path fill="#fffeff" d="M64.1 53.1s-.7-4.3 1.8-7.2c3-3.4 7.3-3 10.4-.9a7 7 0 0 1 1.4 10.5c-2.6 3.3-6.5 3.2-6.5 3.2zm7.5 7.8s2.3-2.1 6.2-1.6 7.4 4.3 6.2 8.8c-1.2 4.7-4.3 7.2-9.5 5.7-5.2-1.6-5.6-6-5.6-6zm-13.8 9.5s-3.4 3-2.6 8q1.1 6.4 7.9 6.7c6.8.3 8-3.5 7.6-8s-5.4-8.7-5.4-8.7zm-4-9.7s-5-2.5-8.5-.4c-3.7 2.1-4.5 7-3.3 9.7s3.5 5.3 8 4.5c4.7-.7 6.9-5.7 6.9-5.7zm8.3-7s1-4-2.3-7.7-8.6-3-11-.1-3.6 7.5-.3 10.7c3 3 8.2 2.2 8.2 2.2z"/><path fill="#fcc318" d="M55.6 55c-4 3.8-5.2 11.1-.6 15.4s11.9 3.9 15.4.7 4.8-9.2 1.4-14.5c-3.5-5.4-11.5-6-16.2-1.6"/></svg>