<svg xmlns="http://www.w3.org/2000/svg" width="1em" height="1em" viewBox="0 0 128 128"><path fill="#307D31" d="m56.81 85.29l21.86.17s-1.74 5.65-3.18 7.87c-2.35 3.6-3.52 5.44-4.52 9.13c-1.55 5.68-1.42 10.05-1.42 10.05s1.21-.42 2.68 0c1.79.51 2.76 1.7 2.6 2.43c-.15.65-2.14.21-3.52 1.59c-1.09 1.09-1.51 3.02-1.68 4.27c-.17 1.26-.34 2.85-2.68 3.18c-2.35.34-5.86.59-6.62-.59c-.75-1.17-.34-21.61-.34-21.61z"/><path fill="#5C9823" d="M56.56 80.76c-.42.75-10.32 2.53-10.32 2.53s-3.31 1.77-4.56 7.55c-.68 3.13-.53 9.47-1.12 11.69c-.84 3.18-4.36 5.03-4.19 5.78c.17.75 3.24.7 5.61-.34c5.36-2.35 6.3-7.21 8.04-11.39c1.68-4.02 4.86-6.13 4.86-6.13s-.75 2.92-.43 6.14c.27 2.77 1.14 6.3 0 9.73c-1.09 3.27-2.62 5.24-2.01 5.54c.46.22 5.92-.33 8.1-5.11c2.41-5.28 2.58-9.61 4.02-12.71c1.59-3.43 4.62-4.89 4.62-4.89s2.15 1.26 4.78 4.94c2.93 4.1 5.38 7.55 6.96 9.67c3.7 4.98 8.83 6.55 8.99 5.71c.25-1.34-2.47-3.49-3.02-6.11c-1.35-6.45.5-9.54-1.03-14.49c-2.2-7.15-7.39-7.28-9.19-7.62c-.42-.06-20.11-.49-20.11-.49"/><path fill="#96010C" d="M47.31 44.34c-1.13-1.01-17.87-13.21-17.87-13.21l-.25-7.42s-4.1-7.75.62-13.52c4.1-5.01 9.57-3.59 9.57-3.59s2.74-3.45 7.52-3.69c6.11-.31 9.09 4.83 9.09 4.83l27.55 4.53l15.47 10.06s2.29-.74 4.19.6c1.98 1.39 1.33 4.31 1.11 5.62c-.21 1.25-20.65 17.56-20.65 17.56l2.14 31.96l-7.14 7.97s-1 .98-3.05 1.24c-1.19.15-2.72-.33-2.72-.33l-4.45-12.78z"/><path fill="#AF0C1B" d="m83.15 6.86l-3.72.28l-2.61 2.19l.93 4.21s.12 3.15-2.36 4.66c-2.48 1.51-7.35 3.99-7.35 3.99l-3.36 5.56s-2.16-.71-5.68-2.52c-3.29-1.7-7.5-5.58-7.5-5.58l-7.53-.51s-1.44-.13-2.65 1.15c-1.74 1.86-1.12 5.8 2.29 9.41c3.28 3.47 10.38 7.7 11.96 8.87c1.58 1.17 3.99 2.67 5.36 3.44c1.32.74 2.9 1.8 3.59 1.67c.69-.14 1.71-2.49 4.94-4.76c3.23-2.27 6.39-4.19 11.55-5.98c5.16-1.79 10.11-3.85 11.62-4.81c1.51-.96-.55-7.49-2.41-11.48s-6.94-10.2-7.07-9.79"/><path fill="#DB132C" d="M65.07 23.98c-1.27 1.68-1.03 3.64-1.03 3.64s2.77 1.66 5.5 2.61c4.95 1.72 16.09 1.24 21.45-1.17s7.98-4.49 8.8-7.01c.96-2.96 1.76-8.94-4-13.55c-6.6-5.29-16.56-2.4-16.56-1.02s3.99.28 3.99 5.29s-4.4 8.04-8.87 8.66c-4.47.62-7.36 0-9.28 2.55"/><path fill="#F71538" d="M42.24 19.65s-.51-2.02 1.17-3.64c2.54-2.48 5.78-3.78 7.63-5.78s4.48-5.79 10.93-6.67c9.56-1.31 15.74 2.27 17.12 6.67s-1.24 5.91-3.92 5.98c-2.68.07-4.17-1.19-9.08-.34c-8.32 1.44-11.21 5.91-11.96 6.33c-.76.41-3.23-1.03-6.6-1.93c-2.43-.65-4.19-.49-5.29-.62"/><path fill="#CD0E1F" d="M69.62 48.38s1.7-5.65 7.25-9.23c5.56-3.58 9.61-3.67 16.68-6.88s9.51-5.32 10.64-6.06c1.16-.76 2.21-1.45 3.02-.12c.52.86-.38 4.38-2.77 7.8c-2.44 3.49-4.84 5.41-6.66 11.42c-2.41 7.93 2.22 15.14-2.72 27.88c-1.6 4.12-5.35 7.89-8.84 10.34s-8.52 3-8.52 3s1.79-1.25 2.77-5.85c.48-2.26 1.2-6.27.65-10.54c-1.57-12.21-11.5-21.76-11.5-21.76"/><path fill="#E2122D" d="M31.74 46.68c.12 2.68-1.14 12.43.49 20.26c1.28 6.16 7.62 17.05 19.49 20.25c10.92 2.95 22.61-.09 22.61-.09s4.41-7.45 2.18-18.31c-2.43-11.84-14.26-20.64-27.9-27.38c-16.39-8.1-19.36-17.86-19.36-17.86s-5.39-1.41-6.74 3.44c-2.07 7.44 9.05 15.64 9.23 19.69"/></svg>