<svg xmlns="http://www.w3.org/2000/svg" width="1em" height="1em" viewBox="0 0 128 128"><path fill="#C54C0F" d="m93.54 19.59l-59.07 2.37l-16.16 56.05l45.27 39.66l50.01-39.23z"/><path fill="#A62714" d="M89.33 15.78c-.88.98-2.74 13.61-1.61 14.52s14.28-3.43 14.96-4.68c.68-1.24.34-12.67-.79-13.91c-1.14-1.25-11.54 2.94-12.56 4.07m-63.01-4.19c-1.51 1.16-1.58 14.14-.68 14.93S38.2 32.29 39.9 30.6s.11-14.37-.68-15.27c-.79-.91-11.48-4.82-12.9-3.74M3.16 84.21c.61 1.29 11.15 3.44 13.21 2.6c3.05-1.24 9.54-10.13 9.2-11.37c-.34-1.24-14.06-3.56-15.19-2.77s-8.09 9.7-7.22 11.54m61.17 19.49c-1.13-.09-7.36 11.08-7.36 12.78c0 1.7 6.57 9.67 7.58 9.74c1.18.08 8.13-8.39 7.8-9.74c-.35-1.36-6.55-12.67-8.02-12.78m38.46-27.74c-.4 1.2 6.79 10.63 8.37 10.97c1.58.34 13.23-1.7 13.8-4.07s-7.69-10.86-9.05-11.54c-1.36-.68-12.56 2.94-13.12 4.64"/><path fill="#FE6111" d="m58.58 57.57l14.46-2.2s1.34-10.89 5.83-16.77s11.3-10.53 11.3-18.97S84.59 4.45 78.51 4.21s-9.97 3.3-14.95 3.06s-9.72-2.94-16.28-1.96s-12.15 10.4-9.24 18.36c2.92 7.96 10.76 12.21 13.25 17.38c1.46 3.03 4.5 16.16 4.5 16.16z"/><path fill="#FE6111" d="M70.19 52.19s9.85-3.12 14.53-12.61s7.09-13.69 14.05-15.13s12.73 1.8 15.97 5.89c3.24 4.08 1.56 15.13 2.28 17.54s7.69 8.53 7.09 14.29s-6.73 13.69-14.53 13.33c-7.81-.36-12.49-4.67-17.65-6.11c-5.16-1.44-13.64-.32-13.64-.32L66.83 56.52zm-12.61.72s-9.05-6.83-11.98-9.84c-4.11-4.22-7.04-17.21-18.52-19.1c-9.24-1.52-14.29 4.56-15.61 10.21s-.24 9.61-.72 11.41c-.48 1.8-6.01 9.25-6.85 14.05s1.44 14.41 10.21 15.85c8.77 1.44 12.49-2.64 15.13-4.2c2.64-1.56 7.45-3.96 11.41-3.6c3.96.36 9.73-.24 9.73-.24zm-9.73 16.46s-7.17 3.62-11.57 5.21c-5.09 1.84-12.93.2-18.7 7.52s-5.64 15.49-.72 20.18s10.93 3.96 13.81 6.73c2.88 2.76 7.69 11.17 13.57 12.25s15.01-1.44 16.81-10.09s-1.32-16.21.24-21.5c1.56-5.28 5.84-10.87 5.84-10.87z"/><path fill="#FE6111" d="M78.51 66.13L62.39 81.14s3.72 6.25 4.44 10.57c.72 4.32-2.88 20.54 4.2 26.3c7.09 5.76 15.23 4.08 19.43-1.57c4.2-5.64 6.18-8.03 8.46-9.83c2.28-1.8 14.03-6.48 14.99-12.49c.96-6.01-.49-9.02-6.25-13.47c-5.76-4.44-12.97-3.24-18.14-5.4c-3.39-1.42-11.01-9.12-11.01-9.12"/><path fill="#FFA624" d="M66.47 54.11s8.04-12 8.17-19.94c.12-7.69-4.8-12.13-10.45-11.89c-6.61.28-10.45 6.01-9.49 13.33s7.9 19.36 7.9 19.36zm4.44 4.57s9.85-9.97 16.45-13.33c6.61-3.36 13.09-1.08 15.49 5.52s-3.48 12.73-9.61 13.45c-6.13.72-20.9.48-20.9.48zm-17.17-.72s-6.73-9.73-14.05-13.69s-14.89-1.56-16.33 4.56c-1.44 6.13 1.65 12.4 10.55 13.95C42.19 64.22 53.26 60 53.26 60zm5.59 11.35s-11 3.42-14 5.1c-3 1.68-9.67 5.61-9.91 12.94s4.44 10.46 11.04 9.74c6.61-.72 10.4-8.75 11.12-12.96c.72-4.19 1.75-14.82 1.75-14.82m7.38 1.5s.04 12.39 2.84 18.55c3.01 6.63 10.98 10.77 16.37 6.91c5.04-3.6 4.68-11.89-.72-17.78s-16.57-9.37-16.57-9.37z"/><path fill="#FFFEFF" d="M64.13 53.14s-.78-4.34 1.8-7.24c3.06-3.45 7.3-2.92 10.37-.88c3.06 2.03 4.6 6.63 1.44 10.51c-2.67 3.29-6.51 3.16-6.51 3.16zm7.49 7.8s2.24-2.15 6.2-1.64c3.84.5 7.34 4.29 6.2 8.78c-1.21 4.74-4.31 7.23-9.56 5.68c-5.12-1.51-5.6-5.94-5.6-5.94zm-13.77 9.51s-3.44 3.01-2.67 8.01c.68 4.37 3.44 6.37 7.92 6.63c4.48.26 7.92-3.53 7.58-8.01c-.34-4.48-5.34-8.7-5.34-8.7zm-3.97-9.77s-5.09-2.52-8.61-.43c-3.62 2.15-4.48 7.06-3.27 9.73c1.21 2.67 3.47 5.29 7.92 4.56c4.74-.77 6.97-5.77 6.97-5.77zm8.27-6.89s1.03-4.13-2.32-7.84c-3.36-3.7-8.61-2.93-11.11-.09s-3.53 7.49-.17 10.76c3.01 2.93 8.18 2.15 8.18 2.15z"/><path fill="#FCC318" d="M55.6 55c-3.98 3.76-5.17 11.11-.6 15.41c4.56 4.31 11.86 3.89 15.39.7c3.53-3.19 4.85-9.22 1.4-14.56c-3.44-5.34-11.54-5.94-16.19-1.55"/></svg>