<svg viewBox="0 0 128 128"><path fill="#307d31" d="m56.8 85.3 21.9.2s-1.8 5.6-3.2 7.8a28 28 0 0 0-4.5 9.2c-1.6 5.6-1.5 10-1.5 10s1.3-.4 2.7 0c1.8.5 2.8 1.7 2.6 2.4s-2.1.3-3.5 1.6c-1 1.1-1.5 3-1.7 4.3s-.3 2.9-2.6 3.2-6 .6-6.7-.6-.3-21.6-.3-21.6z"/><path fill="#5c9823" d="M56.6 80.8c-.5.7-10.4 2.5-10.4 2.5S43 85 41.7 90.8c-.7 3.2-.6 9.5-1.1 11.7-.9 3.2-4.4 5-4.2 5.8s3.2.7 5.6-.3c5.3-2.4 6.3-7.2 8-11.4 1.7-4 4.9-6.1 4.9-6.1s-.8 2.9-.4 6c.2 2.9 1 6.4 0 9.8-1.1 3.3-2.7 5.3-2 5.6a9 9 0 0 0 8-5.1c2.5-5.3 2.6-9.7 4-12.8 1.7-3.4 4.7-4.8 4.7-4.8s2.1 1.2 4.8 4.9l7 9.7c3.6 5 8.8 6.5 9 5.7.2-1.4-2.6-3.5-3.1-6.1-1.4-6.5.5-9.6-1-14.5-2.2-7.2-7.4-7.3-9.2-7.6z"/><path fill="#96010c" d="M47.3 44.3c-1.1-1-17.9-13.2-17.9-13.2l-.2-7.4s-4.1-7.7.6-13.5c4.1-5 9.6-3.6 9.6-3.6s2.7-3.4 7.5-3.7c6.1-.3 9 4.8 9 4.8l27.6 4.6 15.5 10s2.3-.7 4.2.6c2 1.4 1.3 4.3 1.1 5.7-.2 1.2-20.6 17.5-20.6 17.5l2.1 32-7.1 8s-1 1-3 1.2c-1.3.1-2.8-.3-2.8-.3l-4.5-12.8z"/><path fill="#af0c1b" d="m83.2 6.9-3.8.2-2.6 2.2 1 4.2s0 3.2-2.4 4.7-7.4 4-7.4 4l-3.3 5.5s-2.2-.7-5.7-2.5c-3.3-1.7-7.5-5.6-7.5-5.6l-7.5-.5s-1.5 0-2.7 1.2c-1.7 1.8-1.1 5.8 2.3 9.4 3.3 3.5 10.4 7.7 12 8.9s4 2.6 5.3 3.4c1.4.7 3 1.8 3.6 1.7s1.7-2.5 5-4.8 6.4-4.2 11.5-6 10.1-3.8 11.6-4.8-.5-7.5-2.4-11.5-7-10.2-7-9.7"/><path fill="#db132c" d="M65 24c-1.2 1.7-1 3.6-1 3.6s2.8 1.7 5.5 2.6c5 1.8 16.1 1.3 21.5-1.1s8-4.5 8.8-7c1-3 1.7-9-4-13.6-6.6-5.3-16.6-2.4-16.6-1s4 .3 4 5.3-4.4 8-8.9 8.6-7.3 0-9.2 2.6"/><path fill="#f71538" d="M42.2 19.7s-.5-2 1.2-3.7c2.6-2.5 5.8-3.8 7.6-5.8s4.5-5.8 11-6.6c9.5-1.4 15.7 2.2 17 6.6s-1.1 6-3.8 6S71 15 66 16c-8.3 1.4-11.2 5.9-12 6.3-.7.4-3.2-1-6.6-2-2.4-.6-4.2-.4-5.3-.6"/><path fill="#cd0e1f" d="M69.6 48.4s1.7-5.7 7.3-9.2c5.5-3.6 9.6-3.7 16.7-7s9.5-5.2 10.6-6c1.2-.7 2.2-1.4 3-.1.5.9-.4 4.4-2.8 7.8-2.4 3.5-4.8 5.4-6.6 11.4-2.4 8 2.2 15.2-2.7 27.9-1.6 4.1-5.4 7.9-8.9 10.3s-8.5 3-8.5 3 1.8-1.2 2.8-5.8c.5-2.3 1.2-6.3.6-10.6C79.6 58 69.6 48.4 69.6 48.4"/><path fill="#e2122d" d="M31.7 46.7c.2 2.7-1.1 12.4.5 20.2 1.3 6.2 7.6 17 19.5 20.3 11 3 22.6-.1 22.6-.1s4.4-7.4 2.2-18.3C74.1 56.9 62.3 48 48.6 41.4c-16.4-8-19.3-17.8-19.3-17.8S23.9 22 22.5 27c-2 7.4 9 15.6 9.2 19.7"/></svg>