<svg viewBox="0 0 128 128"><path fill="#04841f" d="m35 79.3-5.5 3.1s.6 13.1-1 18.2-3.8 8.7-4.8 10.1-3.8 2.5-2.6 6q1.1 3.2 8.8 2.8c5-.2 14.4-7 14.4-7l3-14.6 17.5 6.8-.7 3c-.2 1-2 3.3-1.8 4.6s1.8 2 9.7 1.8 9.2-9.6 9.2-9.6l-6.5-14.2z"/><path fill="#02ab47" d="M20.3 11.5c1.8-.8 3.3-7.7 10.4-6.6 7.3 1.1 6 7.3 6.8 8s6.4 2.8 6.2 7.2c-.2 4.3-1.8 8.2-6.7 9s-10.4-1-12.8-.3-4.7 3.4-4.3 7.6c.3 2.5 2.9 15.4 11.2 22.3 9.5 7.8 14.8 7.4 26.8 8s19.9 2.4 27 8.8C89.9 80 94 92.6 107 90c12-2.4 5.9-14.7-2.1-16.5-4.6-1-9-1-9.1-2.6s3.3-3.4 9.3-3.2c7.3.4 18.3 6 18 17C123 95.3 113 99.5 113 99.5l-12.3 3.5-12.7 2s.2 2.2 1.6 4.8 3 8 1.6 10.7c-1 1.7-3.3 2.4-9.7 2.5-5.2 0-10-.7-10-2.7-.3-2.3.8-3.2 2.2-4.1 1.5-1 1.3-1.6 1.5-3.2s-.1-4.4-.6-5.8l-1.6-3.3-22.6.2s-.4.8-.6 4.5.5 8.8-.1 10.2c-.9 2-3.6 4-10.1 4-6.6.2-10.6-1.4-10.4-5 .3-3.6 3-4.1 4-5.7s3.2-7.3 3.4-9.7c.2-2.1-.1-5 0-6.6S33 84.5 33 84.5 25.6 75 22.3 71.6c-3-3.1-9.1-10.7-9.1-10.7S4.7 47.1 5.8 34s7.8-19.6 14.5-22.4"/><path fill="#bdce46" d="M12.3 32.3C15.4 25 21 22.8 23.6 22s7.9-1.6 10.1-2 10-.8 10-.8.2.6 0 1.8c0 1.4-.5 2-.5 2s-8.4 1.2-8.4 2.8 2.4 1.4 3.4 1.4h3s-.5 1.3-3 2-6.3.6-9.5.7-5.2.7-6 2c-1 1.1-4.4 3.7-2.5 17.4s11.3 28.9 13.5 33c.8 1.6 3.6 5 3.7 6.3 0 .6-.6 2-.8 3.7-.3 2.2-.1 4.9-.1 4.9s-3-4-4.4-6.5c-2-3.8-2.6-7-2.6-7S18.3 73 13.3 62s-4-22.7-1-29.7"/><path fill="#303030" d="M35.2 18.4c0 1.6-1.7 2.8-3.5 2.4q-2-.4-1.7-3 .3-2.4 2.5-2.7c1.5-.2 2.7 1.1 2.7 3.3"/><path fill="#bdce46" d="M49.9 106.9s-.2-3.4 1-5l1.2-1.3 10 .6 10.8-.2.6 2.6c.4 1.8 1.1 3.6 1.1 3.6s-6 .7-12.5.6c-7 0-12.2-1-12.2-1m37.2-5 .5 1.6.3 1.8s11 .2 19.3-2 13-8.3 13.9-10.2c1-2 1.6-3.8.5-2.4-2 2.7-5.5 7.5-14.4 9.7s-20 1.5-20 1.5"/><circle cx="50.5" cy="77.5" r="2.3" fill="#7cdb8a" transform="rotate(-81.749 50.512 77.559)"/><ellipse cx="60.6" cy="75.8" fill="#7cdb8a" rx="2" ry="1.9" transform="rotate(-77.45 60.572 75.814)"/><ellipse cx="72.5" cy="82.3" fill="#7cdb8a" rx="2.2" ry="2.3"/><ellipse cx="69.2" cy="74.8" fill="#7cdb8a" rx="1.7" ry="1.8"/><ellipse cx="62.4" cy="83.1" fill="#7cdb8a" rx="1.8" ry="1.9"/><ellipse cx="80.1" cy="76.9" fill="#7cdb8a" rx="1.6" ry="1.8"/><ellipse cx="82.5" cy="86.1" fill="#7cdb8a" rx="1.5" ry="1.4" transform="rotate(-4.537 82.5 86.062)"/><ellipse cx="41.8" cy="69.5" fill="#7cdb8a" rx="1.8" ry="1.6" transform="rotate(-77.814 41.82 69.482)"/><ellipse cx="54.3" cy="69.4" fill="#7cdb8a" rx="1.6" ry="1.5" transform="rotate(-77.954 54.345 69.367)"/></svg>