<svg xmlns="http://www.w3.org/2000/svg" width="1em" height="1em" viewBox="0 0 128 128"><path fill="#9A9A9A" d="M30.77 22.75c-15.51 7.17-26.7 18.4-26.61 21.12c.05 1.41.77 3.94 2.82 6.1c1.21 1.28 4.43 3.61 6.69 3.75c2.25.14 18.51-10.7 18.51-10.7l16.19-2.25l9.85 23.51s3.24 4.65 7.74 8.45s8.87 5.07 9.85 4.22s-1.9-6.55-2.11-8.02c-.28-1.96-1.13-6.76 3.66-6.05s13.66 4.22 13.66 9.43s-3.52 10.98-13.51 10.98s-24.07-3.24-30.55-2.96c-6.48.28-12.25.84-18.16 3.24c-4.38 1.77-9.29 5.07-9.15 5.49c.14.42 5.63 2.25 12.11 3.1s19.01.7 21.12 3.8c2.11 3.1 2.67 7.56 1.97 14.17s-.42 12.01-.28 12.01c.14 0 5.67-3.16 8.45-8.02c4.5-7.88 4.5-17.46 6.19-19.43c1.69-1.97 8.69-2.51 14.36-3.24c5.82-.75 38.86-2.11 38.86-35.05c0-26.47-25.2-32.38-25.76-32.94c-.56-.56-1.48-4.7.42-8.45c1.5-2.96 4.04-7.46 3.24-8.59c-.99-1.4-10.14.14-16.89 3.66s-11 8.02-11 8.02s-25.97-2.61-41.67 4.65"/><path fill="#E0E0E0" d="M34.71 36.82c5.13-2.27 13.53-4.11 19.85-4.5c11.33-.7 20.98.63 20.98.63s4.12 8.59 7.46 12.88c5.84 7.5 14.25 13.3 15.38 11.68c.94-1.35.18-8.45-1.3-12.81c-.73-2.15-3.1-7.88-3.1-7.88s10.28.84 16.19 9.29c5.91 8.45 8.3 26.33-4.65 33.93c-11.26 6.62-17.6 5.63-17.6 5.63s6.75-7.46 5.68-12.72c-1.13-5.54-3.57-7.04-7.79-7.84c-2.67-.5-25.58 0-31.63-.14s-15.16-.56-21.45-2.49c-3.01-.92-5.16-2.35-5.16-2.35l.14-5.07s-5.16 1.03-8.12.75s-7.13-1.97-7.41-2.39c-.28-.42 3.33-3.58 6.34-5.91c3.76-2.9 10.14-8.01 16.19-10.69"/><path fill="#FF2B25" d="M47.52 43.91c0 1.43-1.69 1.36-3.14 1.36c-1.44 0-2.39.09-3.05.56c-.66.47-.18 3.74-6.19 9.2c-3.57 3.24-6.95 5.4-7.51 5.21c-.56-.19-1.64-2.96-1.88-3.99c-2.39.7-7.77-.37-6.95-.56c2.77-.66 6.91-2.56 9.67-4.65c1.92-1.45 5.61-4.35 6.76-5.12c.99-.66 3.85-2.77 5.12-2.91c2.05-.22 7.17-.65 7.17.9"/><path fill="#2F2F2F" d="M39.64 36.07c0 2.33-2.16 4.32-4.83 4.04c-2.29-.24-4.18-1.89-4.18-4.22s1.82-4.43 4.13-4.5c3.72-.13 4.88 2.35 4.88 4.68"/><path fill="#FFFEFD" d="M29.5 53.76c.89-.75-.89-2.82-.89-2.82l-2.16 1.43c0 .01 1.84 2.42 3.05 1.39m5.16-3.8c.89-.75-.94-3-.94-3l-2.3 1.78c.01 0 2.03 2.25 3.24 1.22m2.35-1.26c-.76.89 1.41 2.91 1.41 2.91s1.8-2.38 1.6-2.53c-.19-.15-1.98-1.59-3.01-.38m-3.89 3.89c-.76.89.99 3.19 1.29 3.1s1.99-1.88 1.99-1.88s-2.26-2.43-3.28-1.22"/><path fill="#606568" d="M65.17 25.42c-1.13.75-.38 2.35.28 3.66s1.08 2.51 1.15 4.29c.06 1.6-.35 4.48-.54 5.47c-.17.91-.78 2.9.56 3.24c1.69.42 2.16-.89 2.53-2.16c.49-1.65.74-5.01.66-6.71c-.19-3.64-1.41-5.82-1.97-6.66s-1.57-1.87-2.67-1.13m8.21 2.25c-.75.6 0 2.39.33 3.19c.33.8.49 1.92.49 3.07c0 .8-.16 2.65-.26 3.68c-.14 1.54-.06 2.46 1.08 2.67c1.78.33 1.85-2.06 2.02-3.05c.13-.79.25-3.39.15-4.61c-.09-1.22-.67-2.99-1.37-4.07c-.57-.85-1.5-1.63-2.44-.88m-15.72-2.95c-1.54.79.14 3.43.56 4.32s1.03 2.86.99 4.93c-.05 2.06-.21 4.18-.56 5.33c-.31 1-1.22 2.7-.52 3.4c1.03 1.03 2.69-.04 3.26-1.71c.84-2.46 1.06-4.48.96-7.67c-.12-4.29-2.39-9.78-4.69-8.6"/><path fill="#FFFEFD" d="M28.89 56.3c-.76.89.89 2.96.89 2.96l2.3-1.6s-2.16-2.57-3.19-1.36m9.95-10c.87-.78-.61-2.44-.61-2.44s-2.11 1.27-2.02 1.41c.21.3 1.69 1.88 2.63 1.03"/></svg>