<svg viewBox="0 0 128 128"><path fill="#9a9a9a" d="M30.8 22.8C15.3 29.9 4 41 4.2 43.8c0 1.5.7 4 2.8 6.2 1.2 1.3 4.4 3.6 6.7 3.7S32.2 43 32.2 43l16.2-2.2 9.8 23.5s3.3 4.6 7.8 8.4 8.8 5.1 9.8 4.3-1.9-6.6-2.1-8c-.3-2-1.1-6.8 3.7-6.1S91 67 91 72.3s-3.5 11-13.5 11-24-3.2-30.5-3-12.3.9-18.2 3.3c-4.4 1.7-9.3 5-9.2 5.5s5.7 2.2 12.2 3 19 .8 21 3.9 2.7 7.5 2 14.1-.4 12-.2 12 5.6-3.1 8.4-8c4.5-7.9 4.5-17.4 6.2-19.4s8.7-2.5 14.4-3.2 38.8-2.2 38.8-35.1c0-26.5-25.2-32.4-25.7-33s-1.5-4.6.4-8.4c1.5-3 4-7.4 3.2-8.6-1-1.4-10.1.2-16.9 3.7s-11 8-11 8-26-2.6-41.6 4.7"/><path fill="#e0e0e0" d="M34.7 36.8a66 66 0 0 1 19.9-4.5c11.3-.7 21 .7 21 .7s4 8.5 7.4 12.8c5.8 7.5 14.3 13.3 15.4 11.7 1-1.3.2-8.4-1.3-12.8-.7-2.1-3.1-7.9-3.1-7.9s10.3.9 16.2 9.3 8.3 26.3-4.7 34C94.3 86.6 88 85.6 88 85.6s6.8-7.5 5.7-12.8c-1.1-5.5-3.6-7-7.8-7.8-2.7-.5-25.6 0-31.6-.1s-15.2-.6-21.5-2.5c-3-1-5.1-2.4-5.1-2.4l.1-5s-5.2 1-8.1.7-7.1-2-7.4-2.4 3.3-3.6 6.3-5.9c3.8-2.9 10.2-8 16.2-10.7"/><path fill="#ff2b25" d="M47.5 44c0 1.3-1.7 1.3-3.1 1.3q-2.2-.1-3 .5c-.9.6-.2 3.8-6.3 9.2-3.5 3.3-7 5.4-7.5 5.2s-1.6-3-1.8-4c-2.4.7-7.8-.3-7-.5a30 30 0 0 0 9.7-4.7l6.7-5c1-.7 3.9-2.8 5.2-3 2-.2 7.1-.6 7.1 1"/><path fill="#2f2f2f" d="M39.6 36c0 2.4-2.1 4.4-4.8 4.1-2.3-.2-4.2-1.9-4.2-4.2s1.9-4.4 4.2-4.5c3.7-.1 4.8 2.3 4.8 4.7"/><path fill="#fffefd" d="M29.5 53.8c.9-.8-.9-2.9-.9-2.9l-2.2 1.5s1.9 2.4 3.1 1.4m5.2-3.8c.8-.8-1-3-1-3l-2.3 1.7s2 2.3 3.3 1.3m2.3-1.3c-.8.9 1.4 3 1.4 3s1.8-2.5 1.6-2.6-2-1.6-3-.4m-3.9 3.9c-.7.9 1 3.2 1.3 3l2-1.8s-2.3-2.4-3.3-1.2"/><path fill="#606568" d="M65.2 25.4c-1.2.8-.4 2.4.2 3.7s1.1 2.5 1.2 4.3c0 1.6-.3 4.5-.5 5.4s-.8 3 .5 3.3c1.7.4 2.2-1 2.6-2.2.4-1.6.7-5 .6-6.7-.2-3.6-1.4-5.8-2-6.7s-1.5-1.8-2.6-1m8.2 2.2c-.8.6 0 2.4.3 3.2s.5 1.9.5 3l-.3 3.7c-.1 1.5 0 2.5 1.1 2.7 1.8.3 1.9-2 2-3s.3-3.5.2-4.7-.7-3-1.4-4-1.5-1.7-2.4-1m-15.7-2.9c-1.6.8.1 3.5.5 4.3s1 2.9 1 5c0 2-.2 4.2-.6 5.3s-1.2 2.7-.5 3.4c1 1 2.7 0 3.3-1.7.8-2.5 1-4.5 1-7.7-.2-4.3-2.4-9.8-4.7-8.6"/><path fill="#fffefd" d="M28.9 56.3c-.8.9.9 3 .9 3l2.3-1.6s-2.2-2.6-3.2-1.4m10-10c.8-.8-.7-2.4-.7-2.4s-2 1.2-2 1.4c.2.3 1.7 1.8 2.6 1"/></svg>