<svg xmlns="http://www.w3.org/2000/svg" width="1em" height="1em" viewBox="0 0 128 128"><path fill="#88B154" d="M65.03 92.69S4.8 111.08 4.67 112.41c-.13 1.33 24.11 12.02 64.62 11.46c38.64-.53 53.57-10.39 53.83-11.46S66.36 92.42 65.03 92.69"/><path fill="#9EA2A3" d="m62.26 42.15l-4.31-5.42s-6.96 7.3-8.84 9.29c-1.88 1.99-3.33 3.14-4.23 5.01c-1.29 2.67-5.38 25.72-5.38 25.72L27.67 88.9s-2.23-1.39-2.78-.94s-18.67 22.05-18.67 22.05l-1.56 2.39s3.6.8 4.71.69c.54-.05 3.2-.66 6.21-.97c3.17-.33 7.22-.06 7.67-.11c.51-.05 2.27-.57 2.27-.57l15.74-9.39l12.5-.48l12.26 2.58l23.21 1.11l12.71-19.01l-27.63-36.59z"/><path fill="#717A7C" d="M28.55 97.77s-.43-1.23-.75-2.14c-.32-.91-.13-6.73-.13-6.73s7.21 4.26 8.01 4.96s7.94 5.15 7.94 5.15l4.3-.11l.87 1.93s-6.19 2.94-8.23 3.59c-2.04.64-15.11 7.29-15.09 7.04c.04-.52 3.4-5.33 3.4-5.33z"/><path fill="#798082" d="m80.73 103.46l-49.26 7.78s-2.38 2.11-2.14 2.67c.24.56 9.33 2.25 12.47 2.65c3.14.4 24.61 1.61 26.94 1.45c2.33-.16 26.14-1.37 29.44-1.77c3.3-.4 14.39-1.17 15.12-1.5c1.41-.64 7.88-4.13 7.88-4.13s-7.24-11.42-8.69-14.16c-1.45-2.73-3.86-7.64-5.55-9.33s-2.9-2.41-2.9-2.41s-2.28-5.3-4.94-8.68c-2.65-3.38-6.28-8.85-7.13-9.69c-3.19-3.18-3.28-3.48-3.28-3.48l2 24.1s-3.7 7.4-4.99 9.41c-1.27 2.03-4.97 7.09-4.97 7.09"/><path fill="#717A7C" d="m63.03 27.62l-.97 19.62l11.41 7.08s3.43 8.79 3.59 9.6c.16.8-.15 2.97.17 3.53c.32.56 6.23 4.63 6.46 4.64c1.31.07 4.02-.4 3.86-.64s1.08-5.46 1.08-5.46s-7.84-12.71-9.53-16.25c-1.69-3.54-8.04-12.71-8.77-14.24s-4.18-6.6-4.91-7.4s-1.9-1.04-2.39-.48"/><path fill="silver" d="M68.02 65.05s5.39-8.88 5.55-10.24s-4.34-9.65-5.47-12.63c-1.13-2.98-4.1-9.09-4.42-9.89c-.32-.8-.64-4.66-.64-4.66s-2.25 2.41-3.06 4.34c-.8 1.93-3.83 6.68-3.83 6.68s1.9 11.02 2.63 15.76c.72 4.75 1.26 10.98 1.15 11.21c-.69 1.4-5.33 12.68-5.33 12.68s-.6 5.47-.04 6.03c.56.56 3.81 1.3 4.06.92c.49-.73.48-3.5.48-3.5s9.02-12.18 9.31-12.78c.11-.23-.39-3.92-.39-3.92m-18.38.87c-.03-1.21-1.8-6.95-2.12-8.24c-.32-1.29-1-7.66-1.89-7.66c-.88 0-4.96 11.22-5.37 12.27c-.4 1.05-6.11 13.35-6.84 14.8c-.72 1.45-4.02 7.72-4.66 8.77s-1.49 2.83-1.49 2.83l16.34 10.33l5.9-.67s-3.45-9.27-4.26-11.36s-1.77-5.47-1.77-5.47s1.87-4.48 3.09-7.7c1.23-3.24 3.11-6.7 3.07-7.9M25.32 87.97c.04.15.25 3.92.14 6.17c-.11 2.26-.55 4.52-.55 4.52l-7.28 7.6l-.23 1.71s-11.06 3.91-11.78 4.13c-.72.22-.95.3-.95.3s-1.5-.91 2.99-5.81c5.8-6.33 13.22-15 14.16-16.09c1.67-1.93 3.39-2.98 3.5-2.53"/><path fill="#33632C" d="M106.71 99.82c-.6-.25-2.13 6.52-2.45 8.91c-.32 2.39-1.17 6.93-.95 7.38c.64 1.27 7.46.43 8.12-.66c.19-.31-.77-5.4-1.46-7.55c-.94-2.94-1.71-7.43-3.26-8.08m11.95-8.53c-.94.04-1.94 8.25-2.56 10.04c-.7 2.03-3.04 11.64-2.07 12.74c.97 1.1 4.68.23 6.06-.17c1.33-.38 2.48-1.02 2.8-1.73s-.44-6.44-1.36-10.44c-.94-4.05-1.39-10.51-2.87-10.44"/><path fill="silver" d="M31.47 111.25s2.59.98 11.46 1.53c8.87.55 13.23.5 13.23.5l20.26-2.96l4.6-7.28s-6.12-.23-9.37-.34c-3.25-.11-8.1-.13-8.32-.73c-.22-.61 5.47-4.74 7.07-5.56c1.6-.83 5.46-1.27 6.34-2.2c.88-.94 12-7.21 13.37-7.26c1.38-.06 5.68 2.59 6.5 2.31c.83-.28-2.86-10.04-3.35-11.87c-.04-.16-1.99-9.67-2.05-9.85c-.46-1.41-1.87-5.07-2.76-4.63c-.88.44-2.37 3.8-3.47 7.16s-1.76 5.13-2.31 5.95s-6.94 4.91-7.83 5.84c-.88.94-3.53 2.92-5.13 3.58c-1.6.66-3.14.66-4.3 1.71c-1.16 1.05-2.59 2.87-4.19 4.57c-1.6 1.71-4.85 5.63-5.92 6.59s-2.03 1.89-2.03 1.89s-7.73 2.19-10.33 3.45c-2.58 1.27-12.14 7.43-11.47 7.6"/><path fill="#FFF" d="M111.79 52.02c-.85.85-.88 2.2.06 2.97c.83.69 2.2.24 2.71-.38c.51-.62.45-1.97-.23-2.65s-2.03-.45-2.54.06"/><path fill="#FFF" d="M112.07 64.67c-.91 1-.61 2.49.23 3.04c.84.55 2.1.5 2.72-.26c.55-.68.61-2.04-.23-2.88c-.73-.73-2.13-.55-2.72.1" opacity=".5"/><path fill="#FFF" d="M86 32.06c-.26.83.26 1.77 1.05 1.91c.83.15 1.68-.09 1.91-.88c.23-.8-.06-1.8-1.2-2c-1.14-.2-1.63.52-1.76.97" opacity=".6"/><path fill="#FFF" d="M94.54 46.11s.74-2.72 1.28-2.81c.54-.09 1.62 2.92 1.62 2.92s2.69.09 2.78.51c.09.43-1.9 2.04-1.9 2.04s.74 2.52.43 2.84c-.31.31-2.78-1.28-2.78-1.28s-2.21 1.87-2.72 1.53c-.51-.34.43-3.15.43-3.15s-2.1-1.5-2.13-2.01c-.04-.51 2.99-.59 2.99-.59m-61-7.49s.97-2.79 1.56-2.82c.58-.03 1.43 2.79 1.43 2.79s2.88.03 3.08.45c.25.54-1.85 2.37-1.85 2.37s.68 2.72.36 3.05c-.36.36-2.85-1.07-2.85-1.07s-2.56 1.78-3.11 1.3c-.48-.42.52-3.31.52-3.31s-2.4-1.75-2.27-2.24c.17-.68 3.13-.52 3.13-.52"/><path fill="#FFF" d="M11.86 46.11c-.6-.03-1.42.57-1.42 1.6c0 .76.73 1.39 1.36 1.39c.91 0 1.54-.69 1.51-1.48c-.04-1.03-.82-1.48-1.45-1.51" opacity=".5"/><path fill="#FFF" d="M18.47 61.03c.06 1.14.63 2.11 2.11 2.07s2.7-2.31 1.29-3.64c-1.41-1.33-3.48.04-3.4 1.57M8.65 74.98c.7.78 2.38.47 2.42-.9c.04-1.25-.59-1.84-1.76-1.68c-1.16.16-1.51 1.63-.66 2.58m19.81 15.38l-1.83-2.32l-3.57 1.64l-8.3 13.42l2.84 3.2s6.95-3.82 7.69-3.97c1.11-.23 4.83-.08 4.83-.08z"/><path fill="#8CC2EA" d="m28.73 102.23l5.62.1s6 1.87 8.6 1.32c2.6-.55 5.54-2.95 5.54-2.95s2.27-.92 1.14-2.23c-.26-.3-1.96-.77-6.59-1.93s-5.23-2.06-5.23-2.06s-5.39-3.74-7.32-5.19c-1.93-1.45-3.84-1.47-3.84-1.47s1.24 4.58 1.52 7.33c.27 2.75.56 7.08.56 7.08"/><path fill="#C6E4F7" d="M5.76 108.94c-.7.85 4.39-.68 6.34-1.15c2.49-.6 5.52-1.51 5.52-1.51l.8-6.08s5.21-9.36 5.89-10.14s3.32-2.09 3.32-2.09s-1.58-.79-2.67-.85c-1.85-.1-5.38 4.01-7.22 6.42c-1.83 2.41-5.02 6.76-5.02 6.76s-1.49.4-3.01 2.54c-2.29 3.24-3.95 6.1-3.95 6.1"/><path fill="#33632C" d="M39.8 90.59c-.68-.07-1.54 2.2-2 3.89c-.33 1.19-2.46 7.22-2.71 8.39c-.26 1.18-1.58 4.66-1.22 4.82c.36.15 1.53.42 2.15.17c.16-.06 2.33-1.56 3.9-2.5c1.57-.94 3.12-1.79 3.12-1.85c0-.61-1.2-6.23-1.33-6.98c-.37-2.15-.85-5.83-1.91-5.94"/><path fill="#33632C" d="M45.91 92.85c-.59.2-1.32 2.48-2.01 4.84c-.44 1.49-1.72 5.96-1.41 6.18c.31.22 3.34.26 4.62-.38c1.23-.62 2.11-1.4 2.27-1.84c.16-.44-1.24-4.32-1.78-5.74c-.42-1.07-1.07-3.28-1.69-3.06"/><path fill="#9EA2A3" d="m46.59 70.45l-12.36 4.93l-.99 2.13s1.92 2.15 3.26 3.6c1.16 1.25 4.26 2.91 4.81 4.03c1.08 2.2 5.31 4.46 7.42 5.52s2.2-.18 2.2-.18zm5.27 29.02l-2.46 1.79s2.65 1.77 4.61 2.36c1.96.59 5.1 1.76 8.43 2.35c3.33.59 6.47.2 8.62.39c2.16.2 6.56 2.38 6.56 2.38s.93-1.91 1.86-3.23c.93-1.31 1.24-2.04 1.24-2.04l-8.46-1.84z"/><path fill="#33632C" d="M76.52 106.03c-.72.06-1.73 5.46-2.09 6.66c-.2.68-1.87 5.33-1.42 6.11c.9 1.6 8.3 1.17 8.63.33c.32-.84-2.11-6.46-2.56-7.5c-.46-1.02-1.5-5.69-2.56-5.6"/><path fill="#FFF" d="M45.93 49.43L35.02 76.17s.68 1.06 1.64 2.22c.97 1.16 4.54 4.05 5.7 4.92s1.26 1.64 2.7 2.61c1.45.97 6.66 3.48 8.5 4.44l4.92 2.61s-3.09 3.19-3.96 4.44c-.87 1.26-1.61 2.48-1.61 2.48l15.99 2.44s27.88-12.48 27.7-13.09s-1.15-14.13-1.73-14.81c-.58-.68-6.47-10.14-6.47-10.14l-5.89-.87l-9.27-17.57l-9.75-15.93l-6.66 10.33l-3.57 6.56z"/><path fill="#8CC2EA" d="M58.58 87.17c-.11.67 1.64 3.48 2.41 3.38c.77-.1 5.31-4.05 6.47-4.83c1.16-.77 7.92-5.12 9.46-6.08c1.54-.97 5.6-4.51 5.89-5.02c.38-.69 1.59-6.9 1.83-7.72c.11-.36 2.4-2.16 2.65-1.85c.5.61 2.66 6.58 3.14 8.22c.48 1.64 3.38 13.23 3.57 14c.29 1.14 2.41 3.28 4.15 2.22c1.74-1.06 6.51-2.97 7.07-3.88c.3-.48-3.82-6.53-6.03-9.69s-4.26-6.48-6.3-9.31c-1.67-2.32-2.71-3.76-3.82-4.35c-1.12-.59-2.07.78-2.07.78s-8.16-14.11-9.61-16.62c-1.45-2.51-9.12-14.56-11.03-17.33c-1.25-1.82-2.03-2.35-3.2-1.68c-1.17.66-.54 5.59-.54 5.59s10.93 20.92 10.43 22.3c-.51 1.38-4.54 8.79-6.76 13.23c-2.21 4.45-7.42 16.91-7.71 18.64"/><path fill="#C6E4F7" d="M46.93 51.59c.8-1.2 7.69 14.34 9.43 14.53s2.9-11.87 2.7-14.58c-.19-2.7 0-11.68.77-13.61c.77-1.93 2.8-4.92 2.8-4.92s1.13-2.4 1.24-3.04c.33-1.85-.11-2.82-.11-2.82s-1.13.26-2.2 1.71c-1.06 1.45-5.43 9.78-5.43 9.78s-5.48 5.48-7.02 6.54c-1.54 1.06-3.77 2.41-4.25 3.28c-.48.87-4.25 11.35-6.08 15.54c-2.28 5.24-4.48 9.7-4.56 11.38c-.02.33 1.8 2.22 1.8 2.22s1.53-2.94 3.36-7.76s6.76-17.05 7.55-18.25m7.12 46.53s-1.45 1.89-1.28 2.18c.48.82 7.55 2.89 8.8 3.09s8.4.87 10.81.68c2.41-.19 8.34-.61 8.34-.61s3.92-4.7 4.88-5.48c.97-.77 6.08-2.7 6.08-2.7l6.32-5.7s-1.84-.13-2.75-.67S94 87.26 94 87.26s-4.44 2.51-6.28 3.48c-1.83.97-8.88 3.28-10.91 4.44s-7.72 4.05-7.72 4.05s-10.04.77-11.01.48c-.95-.27-4.03-1.59-4.03-1.59"/><path fill="#FFF" d="M35.53 20.08c-.91 1-.61 2.49.23 3.04c.84.55 2.1.5 2.72-.26c.55-.68.61-2.04-.23-2.88c-.73-.72-2.14-.54-2.72.1" opacity=".5"/></svg>