<svg viewBox="0 0 128 128"><path fill="#88b154" d="M65 92.7S4.8 111 4.7 112.4s24 12 64.6 11.5c38.6-.6 53.6-10.4 53.8-11.5s-56.7-20-58-19.7"/><path fill="#9ea2a3" d="M62.3 42.2 58 36.7 49 46c-1.9 2-3.3 3.2-4.2 5-1.3 2.7-5.4 25.7-5.4 25.7L27.7 89s-2.3-1.4-2.8-1-18.7 22-18.7 22l-1.5 2.4s3.6.8 4.7.7c.5 0 3.2-.7 6.2-1 3.1-.3 7.2 0 7.6 0l2.3-.7 15.8-9.3 12.5-.5 12.2 2.6 23.2 1 12.7-19-27.6-36.5z"/><path fill="#717a7c" d="m28.6 97.8-.8-2.2c-.3-.9-.1-6.7-.1-6.7s7.2 4.3 8 5 8 5.1 8 5.1l4.2-.1.9 2s-6.2 2.9-8.2 3.5-15.2 7.3-15.1 7c0-.5 3.4-5.3 3.4-5.3z"/><path fill="#798082" d="m80.7 103.5-49.2 7.7s-2.4 2.1-2.2 2.7 9.4 2.3 12.5 2.7 24.6 1.6 27 1.4 26-1.4 29.4-1.8 14.4-1.1 15.1-1.5l7.9-4s-7.3-11.5-8.7-14.2c-1.5-2.8-3.9-7.7-5.6-9.4s-2.9-2.4-2.9-2.4-2.2-5.3-4.9-8.7c-2.6-3.3-6.3-8.8-7.1-9.7a28 28 0 0 1-3.3-3.4l2 24s-3.7 7.5-5 9.5-5 7-5 7"/><path fill="#717a7c" d="m63 27.6-1 19.6 11.5 7.1 3.6 9.6c.1.8-.2 3 .1 3.6s6.3 4.6 6.5 4.6c1.3 0 4-.4 3.8-.6s1.1-5.5 1.1-5.5-7.8-12.7-9.5-16.3-8-12.7-8.8-14.2-4.1-6.6-4.9-7.4-1.9-1-2.4-.5"/><path fill="silver" d="M68 65s5.4-8.8 5.6-10.2-4.4-9.6-5.5-12.6-4.1-9.1-4.4-10-.7-4.6-.7-4.6-2.2 2.4-3 4.4c-.8 1.9-3.9 6.6-3.9 6.6l2.7 15.8c.7 4.8 1.2 11 1.1 11.2-.7 1.4-5.3 12.7-5.3 12.7s-.6 5.5 0 6 3.8 1.3 4 1c.5-.8.5-3.6.5-3.6s9-12.1 9.3-12.7c.1-.3-.4-4-.4-4m-18.4 1c0-1.3-1.8-7-2-8.3s-1-7.7-2-7.7c-.8 0-5 11.2-5.3 12.3L33.4 77l-4.6 8.8-1.5 2.8L43.6 99l6-.7L45.1 87c-.9-2.1-1.7-5.5-1.7-5.5l3-7.7c1.3-3.2 3.2-6.7 3.1-7.9M25.3 88a60 60 0 0 1-.4 10.8l-7.3 7.6-.2 1.7L5.6 112l-1 .3s-1.4-1 3-5.8c5.9-6.3 13.3-15 14.2-16.1 1.7-2 3.4-3 3.5-2.5"/><path fill="#33632c" d="M106.7 99.8c-.6-.2-2.1 6.5-2.4 9s-1.2 6.9-1 7.3c.6 1.3 7.5.4 8.1-.7a37 37 0 0 0-1.4-7.5c-1-3-1.7-7.4-3.3-8m12-8.6c-1 0-2 8.2-2.6 10-.7 2-3 11.7-2 12.8s4.6.2 6-.2q2.2-.6 2.8-1.7c.6-1.1-.5-6.5-1.4-10.5-1-4-1.4-10.5-2.8-10.4"/><path fill="silver" d="M31.5 111.3s2.6 1 11.4 1.5 13.3.5 13.3.5l20.2-3L81 103l-9.4-.3c-3.3-.1-8-.1-8.3-.7-.2-.6 5.5-4.8 7.1-5.6s5.5-1.3 6.3-2.2c1-1 12-7.2 13.4-7.3s5.7 2.6 6.5 2.4-2.8-10-3.3-12l-2-9.8c-.5-1.4-2-5-2.8-4.6-1 .4-2.4 3.8-3.5 7.2s-1.8 5.1-2.3 6-7 4.8-7.9 5.8c-.8.9-3.5 2.9-5 3.5s-3.2.7-4.4 1.7-2.6 3-4.2 4.6c-1.6 1.7-4.8 5.6-5.9 6.6l-2 1.9s-7.8 2.2-10.4 3.5a70 70 0 0 0-11.4 7.6"/><path fill="#fff" d="M111.8 52c-.9.9-.9 2.2 0 3s2.3.2 2.8-.4.4-2-.3-2.6-2-.5-2.5 0"/><path fill="#fff" d="M112 64.7c-.8 1-.5 2.5.3 3s2.1.5 2.7-.2.6-2-.2-3c-.7-.7-2.1-.5-2.7.2" opacity=".5"/><path fill="#fff" d="M86 32q-.2 1.5 1 2 1.5.3 2-1c.2-.7-.1-1.7-1.2-2s-1.7.6-1.8 1" opacity=".6"/><path fill="#fff" d="M94.5 46.1s.8-2.7 1.3-2.8 1.6 3 1.6 3 2.7 0 2.8.4-1.9 2-1.9 2 .8 2.6.5 3c-.4.2-2.8-1.4-2.8-1.4s-2.2 1.9-2.7 1.6.4-3.2.4-3.2-2.1-1.5-2.1-2 3-.6 3-.6m-61-7.5s1-2.8 1.5-2.8 1.4 2.8 1.4 2.8 3 0 3.1.4c.3.6-1.8 2.4-1.8 2.4s.6 2.7.3 3c-.3.4-2.8-1-2.8-1s-2.6 1.8-3.1 1.3.5-3.3.5-3.3-2.4-1.8-2.3-2.3c.2-.6 3.1-.5 3.1-.5"/><path fill="#fff" d="M11.9 46.1c-.6 0-1.5.6-1.5 1.6 0 .8.8 1.4 1.4 1.4q1.5-.1 1.5-1.5c0-1-.8-1.5-1.4-1.5" opacity=".5"/><path fill="#fff" d="M18.5 61q0 2 2 2.1c2 .1 2.8-2.3 1.4-3.6s-3.5 0-3.4 1.5M8.7 75c.7.8 2.3.5 2.4-1q0-1.8-1.8-1.6c-1.2.2-1.5 1.6-.7 2.6m19.9 15.4L26.6 88l-3.5 1.7-8.3 13.4 2.8 3.2s7-3.8 7.7-4c1.1-.2 4.8 0 4.8 0z"/><path fill="#8cc2ea" d="m28.7 102.2 5.7.1s6 1.9 8.6 1.4 5.5-3 5.5-3 2.3-1 1.1-2.2c-.2-.3-2-.8-6.6-2s-5.2-2-5.2-2l-7.3-5.2c-2-1.4-3.8-1.5-3.8-1.5s1.2 4.6 1.5 7.3z"/><path fill="#c6e4f7" d="M5.8 109c-.7.8 4.4-.7 6.3-1.2l5.5-1.5.8-6.1s5.2-9.4 6-10.1 3.2-2.1 3.2-2.1-1.6-.8-2.6-.9c-1.9 0-5.4 4-7.3 6.4l-5 6.8s-1.5.4-3 2.5z"/><path fill="#33632c" d="M39.8 90.6c-.7 0-1.5 2.2-2 3.9-.3 1.2-2.5 7.2-2.7 8.4-.3 1.1-1.6 4.6-1.2 4.8.3.1 1.5.4 2.1.2.2-.1 2.3-1.6 4-2.5l3-1.9c0-.6-1.2-6.2-1.3-7-.4-2.1-.8-5.8-1.9-6"/><path fill="#33632c" d="M46 92.9c-.7.1-1.4 2.4-2.1 4.8-.4 1.5-1.7 6-1.4 6.2s3.3.2 4.6-.4q1.9-1 2.3-1.8c.4-.8-1.3-4.4-1.8-5.8-.4-1-1-3.3-1.7-3"/><path fill="#9ea2a3" d="m46.6 70.5-12.4 4.9-1 2.1 3.3 3.6c1.2 1.3 4.3 3 4.8 4 1 2.2 5.3 4.5 7.4 5.6s2.2-.2 2.2-.2zm5.3 29-2.5 1.8s2.7 1.7 4.6 2.3 5.1 1.8 8.4 2.4 6.5.2 8.7.4 6.5 2.3 6.5 2.3 1-1.9 1.9-3.2l1.2-2-8.4-1.9z"/><path fill="#33632c" d="M76.5 106c-.7 0-1.7 5.5-2 6.7-.3.7-2 5.3-1.5 6.1 1 1.6 8.3 1.2 8.6.3.4-.8-2-6.4-2.5-7.5s-1.5-5.7-2.6-5.6"/><path fill="#fff" d="M46 49.4 35 76.2l1.7 2.2c1 1.1 4.5 4 5.7 5s1.2 1.5 2.7 2.5c1.4 1 6.6 3.5 8.5 4.5l4.9 2.6s-3.1 3.2-4 4.4L53 100l16 2.4s27.9-12.4 27.7-13-1.1-14.2-1.7-14.9-6.5-10.1-6.5-10.1l-5.9-.9-9.3-17.6L63.5 30l-6.7 10.3-3.5 6.6z"/><path fill="#8cc2ea" d="M58.6 87.2c-.1.6 1.6 3.4 2.4 3.3s5.3-4 6.5-4.8l9.4-6c1.6-1 5.6-4.6 6-5 .3-.8 1.5-7 1.7-7.8.1-.4 2.4-2.2 2.7-1.8.5.6 2.6 6.5 3.1 8.2l3.6 14c.3 1.1 2.4 3.3 4.1 2.2s6.6-3 7.1-3.9c.3-.5-3.8-6.5-6-9.7l-6.3-9.3a15 15 0 0 0-3.8-4.3c-1.1-.6-2.1.7-2.1.7l-9.6-16.6a415 415 0 0 0-11-17.3c-1.3-1.8-2-2.4-3.2-1.7s-.6 5.6-.6 5.6 11 21 10.5 22.3-4.6 8.8-6.8 13.2a182 182 0 0 0-7.7 18.7"/><path fill="#c6e4f7" d="M47 51.6c.7-1.2 7.6 14.3 9.4 14.5s2.9-11.8 2.7-14.6 0-11.6.7-13.6 2.8-4.9 2.8-4.9 1.2-2.4 1.3-3c.3-1.9-.1-2.8-.1-2.8s-1.2.2-2.2 1.7c-1.1 1.4-5.5 9.7-5.5 9.7s-5.4 5.5-7 6.6-3.8 2.4-4.2 3.3-4.3 11.3-6.1 15.5c-2.3 5.2-4.5 9.7-4.6 11.4 0 .3 1.8 2.2 1.8 2.2s1.5-3 3.4-7.8 6.7-17 7.5-18.2M54 98s-1.4 2-1.2 2.2c.4.8 7.5 2.9 8.8 3s8.4 1 10.8.8l8.3-.6s4-4.7 4.9-5.5 6-2.7 6-2.7l6.4-5.7s-1.8-.1-2.7-.7-1.3-1.6-1.3-1.6l-6.3 3.4c-1.8 1-8.9 3.3-10.9 4.5s-7.7 4-7.7 4-10 .8-11 .5z"/><path fill="#fff" d="M35.5 20c-.9 1-.6 2.6.3 3.1s2 .5 2.7-.2c.5-.7.6-2-.3-3-.7-.6-2-.5-2.7.2" opacity=".5"/></svg>