<svg xmlns="http://www.w3.org/2000/svg" width="1em" height="1em" viewBox="0 0 128 128"><path fill="#95c7ec" d="m69.83 50.53-.4-18.43s9.61-5.08 11.45-8.43 1.08-8.97-.97-9.18S69 20.76 68.25 20c-.76-.76 3.67-6.16 3.46-8.21-.22-2.05-6.81-7.07-6.81-7.07l-7.45 8.47s2.16 6.7 1.84 7.35-10.48-5.62-12.64-5.19-1.42 4.82-.67 6.88c.76 2.05 14.6 8.46 14.6 8.46l-.6 20.12s-2.53-.04-3.18.29c-.65.32-2.2 2.92-2.2 2.92s-14.55-7.88-14.66-9.5.22-16.1-.54-17.61-4-3.27-5.62-3.27-2.7 16.01-3.67 16.01-4.65-9.4-5.73-9.4-9.45 1.4-9.45 1.4l3.19 12.75 9.94 2.05-12.17 13.76s2.98 2.9 5.79 2.25 10.91-8.75 11.77-8.75 15.56 8.43 15.56 8.43-.65 1.51-.22 2.38c.43.86 1.19 1.94 1.19 1.94S35.4 75.32 34.42 75.1s-10.8-7.24-13.61-7.24-4.54 3.67-4.54 3.67l11.67 9.83-9.83 4.86-4.21 8.75s9.51 3.35 10.8 3.02 4.65-8.32 5.29-8.53c.65-.22.89 1.82.89 1.82s3.43 10.72 4.73 10.39 4.54-2.38 4.97-4-.64-14.47-.64-14.47l15.34-8.33s1.22 1.98 2.05 2.58c.65.47 3.88.78 3.88.78l-.43 16.74s-16 6.9-16.54 8.84-.42 6.28 1.1 6.82c1.51.54 13.31-4.86 13.85-4.43s-.23 8.42-.23 8.42 6.34 8.96 7.74 8.1 6.31-6.36 6.35-7.38c.09-1.93-4.72-8.58-4.63-8.97.19-.85 9.98 6.2 11.71 5.98s3.02-2.05 3.02-4.11c0-2.05-13.18-11.77-13.18-11.77l-.21-18.57s2.55-.14 3.42-.57c.86-.43 2.58-4.34 2.58-4.34l15.71 10.53s-.65 17.72.97 18.8 4.54 1.73 5.62 1.19 1.19-15.66 1.19-15.66l6.81 6.16s9.78-.87 9.78-2.17-1.96-8.64-2.75-9.28c-1.41-1.14-7.63-.58-8.36-.97-.58-.31 11.38-5.08 11.38-7.02s-3.91-5.01-4.99-5.12-15.21 6.2-15.21 6.2l-16.42-9.72s.86-1.51.86-2.27-1.07-2.03-1.07-2.03l16.84-9.2s14.8 5.29 16.2 4.65c1.4-.65 2.59-1.84 2.59-3.02s-12.5-6.93-11.56-7.45c.72-.4 7.67.43 8.75 0s4.52-9.19 4.41-9.62-11.76-3.34-11.76-3.34l-5.19 6.16s.86-11.67-.43-12.96-4.78-.65-6.18.32-2.24 18.15-2.24 18.15l-15.84 8.59s-1.48-2.38-2.35-2.82c-.85-.47-2.69-.56-2.69-.56"/><path fill="#afe3ff" d="M76.44 56.05 95 46.37l-.28-19.97s-2.88.49-4.29 2.37-.94 14.51-.94 14.51l-16.06 8.73zM99.48 43.9s6.08-7.56 7.25-7.94c1.96-.64 9.53 2.02 9.53 2.02s.84-2.09.5-2.9-9.65-4.97-11.88-4.18c-1.74.62-5.28 7.34-5.28 7.34zm-.52 6.84c-.4-.07-3.64 2.05-3.64 2.05s9.62 5.83 12.44 5.96c3.48.17 5.78-2.37 5.78-2.37s-2.49.07-4.3-.6c-2.95-1.1-10.28-5.04-10.28-5.04M77.19 70.09l-2.28 4.64s13.71 8.53 13.77 8.94c.07.4-.34 15.18 1.08 16.86 1.41 1.68 4.1 2.55 4.1 2.55s.81-21.77.74-22.11c-.08-.34-17.41-10.88-17.41-10.88m17.49 4.79s9.66-6.54 12.28-6.54 4.84 1.34 4.84 1.34l-12.78 7.73zm5.02 9.83c-.34.94-.51 4.46-.51 4.46s3.14 7.39 5.35 8.19c2.22.81 10.68-2.35 11.36-3.16.67-.81-.32-4.09-.32-4.09s-6.69 2.65-8.69 2.28c-2.56-.47-7.19-7.68-7.19-7.68M59.03 54.84c-.97.97-5.2 7.18-5.28 8.38-.08 1.21 4.63 9.26 5.76 9.9s10.23 0 10.23 0l4.67-9.59s-4.11-8.78-4.75-8.94-9.98-.4-10.63.25m4.15-32.78c.64.12-2.37-8.95-2.37-8.95l6.66-6.29s-2.48-3.06-3.76-3.06c-1.29 0-8.3 6.52-8.3 8.06s3.87 8.72 3.87 8.72 2.68 1.29 3.9 1.52m-17.94-3.13s.01 4.53 1.46 6.14 11.77 6.66 11.77 6.66l.26 19.11 4.49-.02V28.58s-8.94-4.27-10.71-5.07c-1.77-.81-5.98-2.89-7.27-4.58m-5.62 28.74 13.53 8.54 2.18-3.3-15.39-9.02zm-9.65-7.93s2.86 2.81 3.48 2.79c1.2-.04 1.12-18.75 1.12-18.75s-2.31-.87-3.52.26c-1.22 1.12-1.08 15.7-1.08 15.7m-1.46 4.55c2.87.73 2.33 2.74 1.93 3.38S16.91 61.04 16.91 61.04s-2.5-1.37-2.5-2.82S25.8 47.4 25.2 47.26c-.47-.1-8.62 1.27-10.39.16-1.14-.71-4.3-12.6-3.7-14.2.48-1.29 4.59-1.67 4.59-1.67s1.45 10.63 2.58 11.2c1.12.57 7.94.96 10.23 1.54M49.7 65.97l-16.04 8.8 4.03 3.27 14.01-9.02zM31.41 80.78c-.12 1.37-5.76 4.13-6.24 4.54-.48.4-5.76-.83-6.09-.35-.32.48-3.35 9.8-3.92 10.35-.08.08-3.29-.92-3.53-1.45-.58-1.27 3.02-11.32 4.63-12.77s8.7.4 8.94-.08-9.26-5.64-9.99-7.25c-.72-1.61 2.34-4.19 2.34-4.19s14.02 9.34 13.86 11.2m2.08 5.32c-.53-.37-3.32 3.34-3.32 3.34s.98 11.99 1.89 12.76c.92.78 3.57-.54 3.57-.54s-1.34-15-2.14-15.56m25.71-8.17s.15 14.93-.17 15.49-12.47 6.33-14.18 8.54c-1.16 1.5-.86 5.45-.86 5.45s18.66-10.52 19.06-10.84.09-18.59.09-18.59zm23.93 30.64s-12.83-7.95-12.98-9.02c-.15-1.02-.23-5.44-.23-5.44s11.27 7.93 12.4 9.78.81 4.68.81 4.68m-22.73 4.99c.2 2.09 7.62 8.05 7.62 8.05s-2.35 2.54-3.56 2.62-9.14-7.53-9.3-8.81c-.16-1.29 4.03-9.42 4.03-9.42s1.88-.9 3.3-1.2c.9-.2-2.28 6.73-2.09 8.76"/><path fill="#fefefe" d="M71 62.49s-1.19 2.37-1.78 3.71-1.33 3.63-1.33 3.63-5.56.43-7.04.37c-1.93-.07-3.04 3.41-.22 3.48s9.56.22 10.15-.22 4.96-8.45 4.96-10.23-3.85-6.74-5.26-8.15c-1.64-1.64-4.52 0-2.89 2.67S71 62.49 71 62.49m22.43-32.86c-2.26-.08-2.09 2.98-2.01 6.52s.32 5.88 2.17 5.88c2.26 0 1.85-4.91 1.85-7.17 0-2.25.33-5.15-2.01-5.23M63.79 7.56c1.31 1.31-.48 3.54-1.21 4.19-.72.64-2.74 1.93-4.11.64s.24-3.14 1.53-4.11 2.82-1.69 3.79-.72m-.49 20.3c-2.09-.24-2.01 4.91-1.93 11.2.1 8.06 0 11.84 1.69 11.76 1.93-.09 1.37-4.11 1.37-12.49 0-4.6.48-10.29-1.13-10.47m-48.33 5.23c-2.73.85-1.53 4.19-.81 6.61.46 1.54 1.86 5.93 4.43 5.16s1.05-4.43.48-6.77c-.55-2.34-1.76-5.72-4.1-5M92.3 89.56c-1.61 0-1.77 3.06-1.77 5.8s0 4.75 1.85 4.75 1.53-4.03 1.53-5.48.25-5.07-1.61-5.07M63.14 77.88c-1.37.06-1.53 3.14-1.53 9.18s-.33 9.61 1.69 9.51c1.61-.08 1.29-6.12 1.29-10.23s.49-8.54-1.45-8.46m-25.93.06c.81.94 4.95-1.69 7.93-3.33 3.58-1.97 7.55-3.86 6.71-5.53s-5.03 1.29-7.93 2.8c-2.9 1.52-8.08 4.47-6.71 6.06m-12.5 7.83c-.87.65-3.3.24-4.35 1.05s-1.27 3.55-2.5 4.03c-1.85.72-3.3-.56-2.34-3.06.97-2.5 1.29-4.19 2.17-4.83.89-.64 4.11-.48 5.4-.48 2.26-.01 2.91 2.32 1.62 3.29"/></svg>