<svg viewBox="0 0 128 128"><path fill="#95c7ec" d="m69.8 50.5-.4-18.4s9.6-5 11.5-8.4 1-9-1-9.2S69 20.8 68.2 20s3.7-6.2 3.5-8.2-6.8-7-6.8-7l-7.5 8.4s2.2 6.7 1.9 7.3-10.5-5.6-12.7-5.2-1.4 4.9-.6 7 14.6 8.4 14.6 8.4L60 50.8s-2.6 0-3.2.3-2.2 3-2.2 3-14.6-8-14.7-9.6.3-16-.5-17.6-4-3.3-5.6-3.3-2.7 16-3.7 16-4.6-9.3-5.7-9.3-9.5 1.4-9.5 1.4l3.2 12.7 10 2-12.2 13.8s3 3 5.8 2.3 10.9-8.8 11.7-8.8S49 62.1 49 62.1s-.6 1.5-.2 2.4 1.2 2 1.2 2-14.6 8.8-15.6 8.6-10.8-7.2-13.6-7.2-4.5 3.6-4.5 3.6l11.6 9.9-9.8 4.8L14 95s9.5 3.3 10.8 3 4.7-8.3 5.3-8.5c.6-.3.9 1.8.9 1.8s3.4 10.7 4.7 10.4 4.6-2.4 5-4-.7-14.5-.7-14.5l15.4-8.3s1.2 2 2 2.5c.7.5 4 .8 4 .8L60.7 95s-16 6.9-16.6 8.8-.4 6.3 1.1 6.8c1.6.6 13.4-4.8 13.9-4.4s-.2 8.4-.2 8.4 6.3 9 7.7 8.1 6.3-6.3 6.4-7.4c0-1.9-4.8-8.5-4.7-9 .2-.8 10 6.3 11.7 6s3-2 3-4c0-2.1-13.1-11.8-13.1-11.8l-.2-18.6s2.5-.1 3.4-.6 2.6-4.3 2.6-4.3l15.7 10.5s-.7 17.7 1 18.8 4.5 1.8 5.6 1.2S99.3 88 99.3 88l6.7 6s9.7-.9 9.7-2.2-2-8.6-2.7-9.2c-1.4-1.2-7.6-.6-8.4-1-.5-.3 11.4-5 11.4-7s-3.9-5-5-5.1-15 6.2-15 6.2l-16.4-9.8s.8-1.5.8-2.2-1-2-1-2L96 52.3s14.8 5.3 16.2 4.7c1.4-.7 2.6-1.9 2.6-3s-12.5-7-11.5-7.5c.7-.4 7.6.4 8.7 0s4.5-9.2 4.4-9.6-11.7-3.3-11.7-3.3l-5.2 6.1s.8-11.7-.5-13-4.7-.6-6.1.4-2.3 18.1-2.3 18.1L75 54s-1.5-2.4-2.4-2.8c-.8-.5-2.7-.6-2.7-.6"/><path fill="#afe3ff" d="M76.4 56 95 46.4l-.3-20s-2.9.5-4.3 2.4-1 14.5-1 14.5l-16 8.7zm23-12.1s6.2-7.6 7.3-8c2-.6 9.6 2 9.6 2s.8-2 .5-2.8-9.7-5-12-4.2c-1.7.6-5.2 7.3-5.2 7.3zm-.4 6.8c-.4 0-3.7 2-3.7 2s9.6 6 12.5 6c3.4.2 5.7-2.3 5.7-2.3s-2.4 0-4.3-.6c-3-1.1-10.2-5-10.2-5M77.2 70l-2.3 4.6s13.7 8.6 13.8 9c0 .4-.4 15.2 1 16.8 1.5 1.7 4.2 2.6 4.2 2.6l.7-22.1c0-.4-17.4-11-17.4-11M94.7 75s9.6-6.6 12.3-6.6 4.8 1.4 4.8 1.4L99 77.4zm5 9.8c-.3 1-.5 4.5-.5 4.5s3.1 7.4 5.3 8.2c2.3.8 10.7-2.4 11.4-3.2s-.3-4-.3-4-6.7 2.6-8.7 2.2c-2.6-.5-7.2-7.7-7.2-7.7M59 54.8c-1 1-5.2 7.2-5.2 8.4-.1 1.2 4.6 9.3 5.7 10s10.2 0 10.2 0l4.7-9.7s-4.1-8.7-4.7-9-10-.3-10.7.3m4.2-32.7c.6 0-2.4-9-2.4-9l6.7-6.3s-2.5-3-3.8-3-8.3 6.5-8.3 8 3.9 8.7 3.9 8.7 2.7 1.3 3.9 1.6m-18-3.2s0 4.6 1.5 6.2 11.8 6.6 11.8 6.6l.2 19.1h4.5V28.6l-10.7-5c-1.8-.9-6-3-7.3-4.7m-5.6 28.8 13.5 8.5 2.2-3.3L40 44zm-9.6-8s2.8 2.8 3.4 2.8c1.2 0 1.2-18.7 1.2-18.7s-2.3-.9-3.6.2c-1.2 1.2-1 15.7-1 15.7m-1.5 4.6c2.9.7 2.3 2.7 2 3.4S16.8 61 16.8 61s-2.5-1.3-2.5-2.8 11.4-10.8 10.8-11c-.5 0-8.6 1.3-10.4.2A38 38 0 0 1 11 33.2c.5-1.3 4.6-1.7 4.6-1.7s1.5 10.7 2.6 11.2 8 1 10.2 1.6M49.7 66l-16 8.8 4 3.2 14-9zM31.4 80.8c-.1 1.4-5.7 4.1-6.2 4.5s-5.8-.8-6.1-.3-3.4 9.8-4 10.3c0 .1-3.2-.9-3.5-1.4-.5-1.3 3-11.4 4.7-12.8s8.7.4 8.9 0-9.3-5.7-10-7.3 2.4-4.2 2.4-4.2 14 9.3 13.8 11.2m2 5.3c-.4-.4-3.2 3.3-3.2 3.3s1 12 1.9 12.8 3.5-.5 3.5-.5-1.3-15-2.1-15.6m25.7-8.2s.2 15-.2 15.5-12.4 6.4-14 8.6c-1.2 1.5-1 5.4-1 5.4l19.2-10.8c.3-.3 0-18.6 0-18.6zm24 30.7s-12.9-8-13-9c-.2-1-.3-5.5-.3-5.5s11.3 8 12.4 9.8.8 4.7.8 4.7m-22.7 5c.2 2 7.6 8 7.6 8s-2.3 2.6-3.5 2.6-9.2-7.5-9.3-8.8 4-9.4 4-9.4 1.9-.9 3.3-1.2c.9-.2-2.3 6.7-2.1 8.8"/><path fill="#fefefe" d="m71 62.5-1.8 3.7c-.6 1.3-1.3 3.6-1.3 3.6s-5.6.5-7 .4c-2 0-3 3.4-.3 3.5s9.6.2 10.2-.2 5-8.5 5-10.3-4-6.7-5.3-8.1c-1.7-1.7-4.5 0-3 2.7s3.5 4.7 3.5 4.7m22.4-32.9c-2.2 0-2 3-2 6.6s.3 5.8 2.2 5.8c2.3 0 1.8-4.9 1.8-7.1 0-2.3.4-5.2-2-5.3m-29.6-22c1.3 1.3-.5 3.5-1.2 4.1-.7.7-2.8 2-4.1.7s.2-3.1 1.5-4.1 2.8-1.7 3.8-.7m-.5 20.3c-2-.3-2 4.9-2 11.2.2 8 0 11.8 1.8 11.7 1.9 0 1.3-4 1.3-12.5 0-4.6.5-10.3-1.1-10.4M15 33c-2.8.8-1.6 4.2-.8 6.6.4 1.5 1.8 6 4.4 5.2s1-4.5.5-6.8-1.8-5.7-4.1-5m77.3 56.5c-1.6 0-1.8 3-1.8 5.8s0 4.7 1.9 4.7 1.5-4 1.5-5.5.3-5-1.6-5M63.1 77.9c-1.3 0-1.5 3.1-1.5 9.2s-.3 9.6 1.7 9.5c1.6-.1 1.3-6.1 1.3-10.3S65 77.8 63 78m-25.9 0c.8 1 5-1.7 8-3.3 3.5-2 7.5-3.8 6.6-5.5s-5 1.3-7.9 2.8-8 4.4-6.7 6m-12.5 7.9c-.9.6-3.3.2-4.3 1s-1.3 3.6-2.5 4c-1.9.8-3.3-.5-2.4-3 1-2.5 1.3-4.2 2.2-4.8.9-.7 4.1-.5 5.4-.5 2.2 0 2.9 2.3 1.6 3.3"/></svg>