<svg viewBox="0 0 128 128"><path fill="#474d50" d="M90.4 80.2s13-10.6 14.7-11.8c1.3-1 3-2.2 4.6-.5s0 3.8-1.3 5c-1.6 1.5-15 12.6-15 12.6z"/><path fill="#474d50" d="M98.3 65.5c-2.1.6-2 3-1.7 5.4s.4 6.5.4 6.5l4.6-4.8-.2-3.2c0-1.5-.5-4.7-3.1-4M37 77.8 24 66.5c-1.5-1.4-3.8-2.4-5.3-.6s-.4 3.7 1 5c2.4 2.5 15.1 13.3 15.1 13.3z"/><path fill="#474d50" d="m27.8 72.7.4-5.1c.1-1.5 1-4.1 3.4-3.2 2 .8 1.6 3.1 1.3 5-.1 1.3-1 6-1 6zM67.2 4.2c-8.7-.5-15.5 1-15.8 2.4S51 26.2 51 26.2s-12 .5-12.3 3.6c-.2 3 6.6 5.1 24.7 5.6s26.6 0 27-3.4C91 28.1 80 27.5 80 27.5s2.5-18.8 2.2-19.3-5.7-3.4-15-4"/><path fill="#a42718" d="M65.5 21.8c-6.7-.2-14.5.4-14.5.4v4s6.2-.4 14-.2 15 1.5 15 1.5l.5-3.8s-6-1.5-15-1.9"/><path fill="#e0e0e0" d="M43.2 69.8s-6-5.7-5.3-18.5c.7-13 9.8-18.1 12.5-18.9s8.7-1.3 14.9-1 14.2 1.2 15.7 1.8 10 6.4 10.1 19.4c0 12.3-6.8 18.2-6.8 18.2s12.5 9 14 21A27 27 0 0 1 84 120c-11.5 6.3-31.7 7.1-44-2.5a28 28 0 0 1-10.4-27.1c2-11.9 13.6-20.5 13.6-20.5"/><path fill="#303030" d="M51.8 46c-2.9-.6-4 1.8-4.1 3.6-.2 1.8.4 4.2 2.4 4.6s3.8-1.2 4-4.1c.3-2.6-.9-4-2.3-4.2M73 50.2c-.2 2.6 1.4 4.2 3.2 4.3q3.1-.1 3.5-4.3c.1-2.6-1.3-3.8-3.2-3.9-2 0-3.3 1.7-3.5 3.9M56.4 60.5c-1.1 1 .1 2.8 2.6 4 2.5 1 6.9 1.4 10.3-.3C71 63.3 72 61.7 71 61c-.8-.7-1.9-.3-3 .3-1 .6-3 1-4.4 1s-3.5-.8-4.2-1.3c-1.1-.6-2-1.4-3-.5"/><path fill="#ffa72b" d="M60 52.5c0 .6 2.6 7.4 4 7.2 1.3-.1 3.4-7.2 3.2-7.7s-2.3-.8-3.5-.8-3.5.8-3.7 1.3"/><path fill="#303030" d="M59.4 84.1c0 3.5 3 3.9 4.3 3.8 2 0 3.6-1.5 3.5-3.9s-1.4-3.4-3.7-3.6c-2.2 0-4.1 1.5-4.1 3.7m.6 14.5c0 2.1 3.1 3.2 4.8 3 2.2-.4 3.8-2.9 3-5.1C67 94 64.4 94 63 94.2s-3 1.5-3 4.4"/><path fill="#95c7f7" d="M28.1 41.6s2-3-.2-3.6-3 2.6-3 2.6-2-3-3.5-1.5.2 3.8.2 3.8-3.5.3-2.9 3c.5 1.8 3.7 1 3.7 1s-1 3.5 1.3 4 3-2.2 3-2.2 2.3 2.2 3.6.8-1.5-4.3-1.5-4.3S32 44 31.4 42c-.5-2-3.3-.5-3.3-.5M20 27s-3.2 0-3.2-1.6c0-2.6 3.7-1.5 3.7-1.5s-1.9-3-.3-4 3 2 3 2 1.3-2.5 3.1-1.8-.2 3.4-.2 3.4 2.8-.1 3 1.7-2.9 2.4-2.9 2.4 2 2 .5 3.3-3.6-2-3.6-2-.5 2.6-2.5 2.2c-1.9-.5-.6-4-.6-4M35 18s-2.3-1-1.5-2.5c.9-1.5 3.3 0 3.3 0s.6-3.2 2.2-2.7 1.2 3 1.2 3 3.1-.8 3.5.8c.3 1.5-2 2.4-2 2.4s2.6 1.3 1.8 2.7-3.5-.6-3.5-.6-.1 3.4-2.3 3.2-1.1-3.8-1.1-3.8-2 2.2-3.2.4 1.6-2.8 1.6-2.8m62.3 6s0-3.4 2-3.2c2.4.1 1.5 3.5 1.5 3.5s2.9-1.1 3.5.5-1.8 2.8-1.8 2.8 1.9 1.7.9 2.7-2.8.1-2.8.1-.5 2.6-2.2 2.3c-1.5-.2-1.4-2.7-1.4-2.7s-2.1 1.2-3-.3 1.5-2.8 1.5-2.8-2.5-1.5-1.5-3 3.4.2 3.4.2m10 11.4s.1-2.9 2.3-2.5c2.2.5 1.6 2.7 1.6 2.7s2.8-.9 3.2 1c.4 1.5-1.8 2.4-1.8 2.4s1.9 1.3.8 2.8-3-.3-3-.3-.1 3-2.4 2.7-1.4-3-1.4-3-2.2 1.3-3-.2c-.7-1.4 1.6-2.8 1.6-2.8s-1.8-.9-1-2.6c.6-1.6 3.1-.2 3.1-.2m-8.2 19s-2-3.6-.3-4.8c2.2-1.5 3.9 2 3.9 2s2-3 3.7-1.8-.3 3.8-.3 3.8 3 .2 3 2-2.6 1.8-2.6 1.8 1.2 2.4 0 3.3c-1.4 1-3.7-1-3.7-1s-1 2.4-2.6 2c-2.2-.5-1-3.8-1-3.8s-3.4.4-3.5-1.2c-.2-2.2 3.4-2.4 3.4-2.4"/></svg>