<svg xmlns="http://www.w3.org/2000/svg" width="1em" height="1em" viewBox="0 0 128 128"><path fill="#474D50" d="M90.39 80.18s12.95-10.56 14.71-11.83c1.3-.93 3.02-2.13 4.58-.42c1.51 1.65-.07 3.78-1.27 4.93c-1.62 1.55-15.06 12.67-15.06 12.67z"/><path fill="#474D50" d="M98.27 65.47c-2.08.6-1.9 3.03-1.62 5.42c.28 2.39.35 6.48.35 6.48l4.58-4.79s-.21-1.69-.21-3.17s-.42-4.71-3.1-3.94M37.1 77.65S25.06 67.44 24.01 66.39c-1.41-1.41-3.73-2.39-5.21-.63c-1.47 1.75-.39 3.76.92 5.07c2.46 2.46 15.2 13.23 15.2 13.23z"/><path fill="#474D50" d="M27.81 72.65s.28-3.59.42-5.07c.14-1.48.99-4.08 3.38-3.17c2.01.77 1.62 3.1 1.34 5c-.2 1.32-.99 6.05-.99 6.05zM67.23 4.23c-8.74-.53-15.55 1.06-15.84 2.33s-.35 19.64-.35 19.64s-12.1.5-12.32 3.59c-.21 3.03 6.55 5.14 24.64 5.63s26.67.06 27.1-3.38c.49-3.94-10.49-4.58-10.49-4.58S82.5 8.74 82.15 8.17S76.52 4.8 67.23 4.23"/><path fill="#A42718" d="M65.54 21.83c-6.75-.27-14.5.42-14.5.42v3.94s6.19-.42 13.87-.21s15.06 1.48 15.06 1.48l.49-3.8s-5.98-1.48-14.92-1.83"/><path fill="#E0E0E0" d="M43.23 69.84s-6.03-5.79-5.35-18.51c.7-13.09 9.85-18.16 12.53-18.93c2.67-.77 8.66-1.27 14.85-.99c6.19.28 14.29 1.2 15.77 1.83s10 6.34 10.07 19.38c.07 12.3-6.83 18.21-6.83 18.21s12.55 8.92 14.05 21.02c1.5 12.11-4.31 22.54-14.36 28.06c-11.45 6.29-31.63 7.13-44.02-2.53c-8.85-6.91-11.92-17.55-10.32-27.12c1.97-11.85 13.61-20.42 13.61-20.42"/><path fill="#303030" d="M51.84 45.93c-2.91-.52-3.99 1.92-4.18 3.71c-.19 1.78.44 4.21 2.39 4.55c2.11.38 3.8-1.17 4.08-4.09c.26-2.55-.93-3.93-2.29-4.17m21.07 4.27c-.22 2.64 1.43 4.22 3.24 4.27c1.88.05 3.29-1.57 3.44-4.31c.14-2.53-1.27-3.8-3.2-3.81c-1.98-.01-3.29 1.64-3.48 3.85M56.43 60.47c-1.13.95.07 2.83 2.53 3.94c2.57 1.16 6.9 1.51 10.31-.21c1.76-.89 2.71-2.46 1.79-3.24c-.77-.65-1.83-.22-2.9.35c-1.11.6-2.99 1-4.49.95c-1.5-.05-3.45-.81-4.15-1.23c-1.12-.66-2.01-1.47-3.09-.56"/><path fill="#FFA72B" d="M60.05 52.54c-.14.56 2.6 7.33 3.91 7.19c1.3-.14 3.45-7.23 3.27-7.75c-.18-.53-2.32-.77-3.55-.74s-3.49.74-3.63 1.3"/><path fill="#303030" d="M59.37 84.1c0 3.45 2.97 3.85 4.3 3.82c1.96-.05 3.66-1.48 3.55-3.87s-1.38-3.49-3.76-3.61c-2.13-.1-4.09 1.43-4.09 3.66m.59 14.48c-.04 2.12 3.16 3.23 4.88 2.97c2.12-.32 3.73-2.85 2.97-5.09c-.85-2.49-3.45-2.49-4.77-2.23c-1.33.26-3.03 1.43-3.08 4.35"/><path fill="#95C7F7" d="M28.11 41.63s1.92-3.03-.24-3.6c-2.16-.57-2.95 2.54-2.95 2.54s-2.1-2.9-3.57-1.42c-1.48 1.48.23 3.74.23 3.74s-3.52.34-2.84 3.06c.44 1.76 3.63.91 3.63.91s-.91 3.52 1.36 3.97c2.27.45 2.95-2.16 2.95-2.16s2.27 2.27 3.63.79c1.36-1.48-1.48-4.31-1.48-4.31s3.18-1.13 2.61-3.06c-.56-1.92-3.33-.46-3.33-.46m-8.23-14.62s-3.18.02-3.18-1.59c0-2.61 3.74-1.48 3.74-1.48s-1.93-3.06-.34-3.97c1.59-.91 2.95 1.93 2.95 1.93s1.36-2.5 3.18-1.82s-.23 3.41-.23 3.41s2.84-.11 3.06 1.7s-2.95 2.38-2.95 2.38s2.04 2.04.45 3.29s-3.52-1.93-3.52-1.93s-.57 2.61-2.5 2.16c-1.91-.45-.66-4.08-.66-4.08m15.2-8.86s-2.29-1.06-1.44-2.54c.84-1.48 3.24-.07 3.24-.07s.63-3.1 2.25-2.67s1.13 3.1 1.13 3.1s3.17-.84 3.52.7c.35 1.55-1.9 2.39-1.9 2.39s2.53 1.34 1.69 2.75c-.84 1.41-3.45-.56-3.45-.56s-.14 3.31-2.32 3.17c-2.18-.14-1.13-3.8-1.13-3.8s-2.04 2.18-3.17.42c-1.13-1.76 1.58-2.89 1.58-2.89m62.33 6.07s0-3.39 2.05-3.25c2.33.16 1.44 3.52 1.44 3.52s2.86-1.13 3.49.49s-1.83 2.82-1.83 2.82s1.9 1.69.92 2.67s-2.75.14-2.75.14s-.48 2.56-2.18 2.3c-1.53-.23-1.48-2.72-1.48-2.72s-2.11 1.2-2.96-.28c-.84-1.48 1.48-2.82 1.48-2.82s-2.53-1.62-1.62-3.1c.91-1.47 3.44.23 3.44.23m10 11.39s.14-2.89 2.32-2.46c2.18.42 1.55 2.67 1.55 2.67s2.82-.92 3.24.99c.34 1.53-1.83 2.39-1.83 2.39s1.9 1.27.77 2.82c-1.13 1.55-3.03-.28-3.03-.28s-.07 3.03-2.32 2.67c-2.25-.35-1.41-2.96-1.41-2.96s-2.18 1.27-2.96-.21c-.77-1.48 1.55-2.82 1.55-2.82s-1.76-.92-1.06-2.6c.67-1.58 3.18-.21 3.18-.21m-8.24 18.93s-2.01-3.54-.28-4.72c2.18-1.48 3.87 1.97 3.87 1.97s2.11-3.03 3.73-1.83c1.62 1.2-.28 3.8-.28 3.8s3.03.21 3.03 2.04s-2.67 1.76-2.67 1.76s1.21 2.46.07 3.32c-1.41 1.06-3.73-1-3.73-1s-.99 2.42-2.6 2.04c-2.22-.52-1.06-3.8-1.06-3.8s-3.35.43-3.45-1.2c-.15-2.23 3.37-2.38 3.37-2.38"/></svg>