<svg viewBox="0 0 128 128"><linearGradient id="a" x1="64" x2="64" y1="155.6" y2="-.2" gradientUnits="userSpaceOnUse"><stop offset="0" stop-color="#3367d6"/><stop offset=".5" stop-color="#352893"/><stop offset="1" stop-color="#1a237e"/></linearGradient><path fill="url(#a)" d="M116 124H12a8 8 0 0 1-8-8V12a8 8 0 0 1 8-8h104a8 8 0 0 1 8 8v104a8 8 0 0 1-8 8"/><linearGradient id="b" x1="46.6" x2="124.5" y1="85.5" y2="-3.7" gradientUnits="userSpaceOnUse"><stop offset="0" stop-color="#fff7af"/><stop offset="1" stop-color="#fff7af" stop-opacity=".1"/></linearGradient><path fill="url(#b)" d="m34.2 69.1 40.4 23a183 183 0 0 1 49.4-72V12a8 8 0 0 0-4.1-7C90 12.4 49.1 29.6 34.2 69.1"/><linearGradient id="c" x1="47.1" x2="120.9" y1="81.2" y2="13.4" gradientUnits="userSpaceOnUse"><stop offset=".3" stop-color="#fffde7"/><stop offset="1" stop-color="#fffde7" stop-opacity="0"/></linearGradient><path fill="url(#c)" d="M114.4 12.9A134 134 0 0 0 41 73.6l20.2 16.6s4.5-20.2 18-41.8c11-17.4 28.4-28.5 36-33.8 1-.6.3-2-.8-1.7"/><linearGradient id="d" x1="85.7" x2="68.7" y1="12.3" y2="95.6" gradientUnits="userSpaceOnUse"><stop offset="0" stop-color="#4453ab" stop-opacity="0"/><stop offset="1" stop-color="#3949ab"/></linearGradient><path fill="url(#d)" d="M75.2 67.4c.3-5 3.1-17.5 3.1-17.5.8-4-3-5-5.5-3.8-7.2 3.7-14.8 8.8-19.5 9.2-5.6.5-6.3-5.5-6.2-8.8q-8 9.9-13 22.6l40.5 23c12.9-33.4 31.7-56 47.8-70.6L124 20v-2.4c-23.1 16.4-34.7 35-41.4 44.8-4.2 6.2-7.6 8.9-7.4 4.9"/><path fill="#fdd835" d="m29.6 49.9 16.8 10.8q2.1 1.2 4.2.2L68 51.6c2-1 4.2.8 3.8 3L66.2 73q-.5 2.3 1 4.2L82 91.5c1.5 1.6.5 4.3-1.7 4.5l-19.7 1.1q-2.4.1-3.5 2.4l-8.8 17.7c-1 2-3.9 1.8-4.8-.2L36 98a4 4 0 0 0-3.4-2.7l-19-2.2c-2.3-.4-3-3.2-1.4-4.6l15.4-12.3q1.8-1.6 1.5-4l-3.4-19.7c-.3-2.2 2-3.7 4-2.6"/><path fill="#ffff8d" d="m39.8 66.4-8.6-10.5c-.4-.6-1.3-1.6-.3-2.3.8-.5 2.4.9 2.4.9l9.3 6.7c3.6 2.6 3.8 4.1 3 5.7-.9 1.7-3.4 2.5-5.8-.5"/><path fill="#f4b400" d="M64.2 72.9 69 58.7c.3-.7.7-2-.5-2.2-1-.2-1.9 1.6-1.9 1.6l-6.3 9c-2 2.5-2.8 5-1.8 6.7 1.2 2.3 4.3 2.7 5.8-1"/><g fill-rule="evenodd"><path fill="#fff176" d="M118 63.8a10 10 0 0 1-6.4-6.8.4.4 0 0 0-.8 0 10 10 0 0 1-6.8 6.4q-.6.5 0 .8a10 10 0 0 1 6.5 6.8c0 .5.7.5.8 0a10 10 0 0 1 6.8-6.4.4.4 0 0 0 0-.8"/><path fill="#fff9c4" d="M42.7 30.8a7 7 0 0 1-4.6-4.9.3.3 0 0 0-.6 0 7 7 0 0 1-5 4.7c-.2 0-.2.5 0 .6a7 7 0 0 1 4.7 4.9q.3.4.6 0a7 7 0 0 1 4.9-4.7c.3 0 .3-.5 0-.6"/><circle cx="12.4" cy="41.9" r="2.4" fill="#7baaf7"/><circle cx="59.2" cy="15.1" r="4.8" fill="#5c6bc0"/><circle cx="109.4" cy="94.5" r="3.2" fill="#7986cb"/><circle cx="98.9" cy="80.5" r="2.4" fill="#fff176"/><circle cx="19.7" cy="17.5" r="2.4" fill="#fff176"/><circle cx="69.7" cy="113.5" r="2.4" fill="#7baaf7"/></g></svg>