<svg xmlns="http://www.w3.org/2000/svg" width="1em" height="1em" viewBox="0 0 128 128"><path fill="#FCC11A" d="M29.12 39.22c-4.79 6.16-4.71 17.1 1.41 22.52c6.95 6.15 16.73 6.09 22.88.43c7.38-6.79 6.95-18.09.43-24.48c-6.55-6.44-18.26-6.78-24.72 1.53"/><path fill="#FEE269" d="M36.81 37.11c-1.89-.84-3.97 1.44-4.87 3.01c-.9 1.56-1.74 4.63.18 5.41s3.31-.54 4.69-2.83c1.39-2.29 2.17-4.63 0-5.59"/><path fill="#FFA722" d="M41.74 28.53c-.46.86-.3 1.52.61 1.73c.91.22 6.59 1.14 7.07 1.17c.69.04.95-.48.87-1.08s-1.47-9.11-1.6-9.89c-.13-.78-.95-1.56-1.73-.52s-4.87 7.94-5.22 8.59m14.71 5.89c-.89.28-.87.82-.39 1.52c.48.69 3.77 5.72 4.08 6.07c.3.35.82.43 1.26-.09c.43-.52 5.85-8.11 6.25-8.59c.65-.78.26-1.6-.74-1.34c-.77.2-9.9 2.26-10.46 2.43M22.62 57.5c.61-1 1.39-.74 1.95.22c.39.65 3.64 5.03 3.95 5.51c.3.48.43 1.39-.52 1.6c-.95.22-8.72 2.26-9.93 2.47c-1.21.22-1.91-.74-1.13-1.78c.45-.61 5.33-7.46 5.68-8.02m-1.65-7.55c1.11.49 1.63.32 1.86-.48c.3-1.04 1.21-5.81 1.26-6.9c.03-.71-.26-1.39-1.34-1.21c-1.08.17-8.89 1.26-9.89 1.6c-1.16.4-1.08 1.68-.3 2.08c.91.49 7.63 4.56 8.41 4.91m13.49-18.21c.62-.5.43-1.21-.13-1.6c-.56-.39-7.53-5.43-8.41-6.12c-.78-.61-1.73-.39-1.47 1c.19 1 2.41 9.72 2.56 10.32c.17.69.69 1.04 1.3.61c.6-.44 5.5-3.69 6.15-4.21"/><path fill="#E2EBEE" d="M107.33 76.86c-.14-.46 4.52-33.89-25.85-38.83c-27.2-4.42-33.1 20-33.1 20s-10.33-1.73-17.76 5.61c-6.13 6.05-6.93 12.86-6.93 12.86S16.1 75 9.46 80.07C2.78 85.17 4.41 90.5 4.41 90.5l15.36 10.62l90.55-2.72l12.86-3.44s2.21-7.81-5.25-13.8c-6.02-4.83-10.6-4.3-10.6-4.3"/><path fill="#B9CED3" d="M30.29 90.24s-5.41 3.54-14.13 2.6c-9.99-1.08-11.82-4.86-11.82-4.86s-1.09 7.4 4.93 12.39c5.44 4.51 12.29 3.35 21.83 3.41s73.63-.03 79.69.03c4.96.05 8.97-1.5 11.09-5.63c2.01-3.9 1.55-6.02 1.55-6.02s-3.61 2.24-11.47 1.32c-6.79-.79-10.11-3.53-10.11-3.53s-8.63 4.42-23.04 4.24c-15.1-.19-20.23-5.73-20.23-5.73s-4.9 4.64-15.67 4.37s-12.62-2.59-12.62-2.59"/></svg>