<svg viewBox="0 0 128 128"><path fill="#fcc11a" d="M29.1 39.2c-4.8 6.2-4.7 17.1 1.4 22.5a17 17 0 0 0 23 .5 17 17 0 0 0 .3-24.5 16.6 16.6 0 0 0-24.7 1.5"/><path fill="#fee269" d="M36.8 37.1c-1.9-.8-4 1.4-4.9 3s-1.7 4.6.2 5.4 3.3-.5 4.7-2.8 2.2-4.6 0-5.6"/><path fill="#ffa722" d="M41.7 28.5q-.7 1.4.6 1.8l7.1 1.1q1 0 .9-1l-1.6-10c-.1-.7-1-1.5-1.7-.5zm14.8 6q-1.4.3-.4 1.4l4 6.1q.6.6 1.3 0l6.3-8.7c.6-.7.2-1.6-.8-1.3zm-33.9 23q1-1.3 2 .2l4 5.5c.2.5.3 1.4-.6 1.6-1 .3-8.7 2.3-10 2.5-1.1.2-1.8-.7-1-1.8zM21 50q1.5.6 1.8-.5c.3-1 1.2-5.8 1.3-7 0-.6-.3-1.3-1.4-1.1S14 42.6 13 43c-1.2.4-1.1 1.6-.3 2zm13.5-18.3q.8-.9-.2-1.6l-8.4-6c-.8-.7-1.7-.5-1.5 1L27 35.2q.4 1.1 1.3.7z"/><path fill="#e2ebee" d="M107.3 76.9c-.1-.5 4.6-34-25.8-38.9-27.2-4.4-33.1 20-33.1 20S38 56.3 30.6 63.6c-6.1 6-7 12.9-7 12.9s-7.4-1.5-14 3.6c-6.7 5-5 10.4-5 10.4l15.3 10.6 90.5-2.7 12.9-3.4s2.2-7.8-5.3-13.8c-6-4.9-10.6-4.3-10.6-4.3"/><path fill="#b9ced3" d="M30.3 90.2s-5.4 3.6-14.1 2.6C6.2 91.8 4.3 88 4.3 88s-1 7.4 5 12.4c5.4 4.5 12.3 3.3 21.8 3.4h79.7c5 0 9-1.5 11-5.6s1.6-6 1.6-6-3.6 2.2-11.4 1.3c-6.8-.8-10.2-3.6-10.2-3.6s-8.6 4.5-23 4.3c-15-.2-20.2-5.7-20.2-5.7s-5 4.6-15.7 4.3-12.6-2.6-12.6-2.6"/></svg>