<svg viewBox="0 0 128 128"><path fill="#fcc11a" d="M29.5 45.3c-7.1 9.1-7 25.4 2.1 33.5 10.4 9.2 25 9 34.1.6 11-10 10.4-27 .7-36.4a25 25 0 0 0-36.9 2.3"/><path fill="#fee269" d="M41 42.1c-2.8-1.2-6 2.2-7.3 4.5s-2.6 6.9.3 8 5-.8 7-4.2 3.2-6.9 0-8.3"/><path fill="#ffa722" d="M48.3 29.3q-1 2 1 2.6c1.3.3 9.8 1.7 10.5 1.7q1.5 0 1.3-1.6l-2.4-14.7c-.2-1.2-1.5-2.3-2.6-.8-1.2 1.6-7.3 11.8-7.8 12.8m22 8.8c-1.4.4-1.3 1.2-.6 2.3l6 9q.8 1 2-.1c1.1-1.1 8.6-12.1 9.2-12.8 1-1.2.4-2.4-1-2-1.2.3-14.8 3.3-15.6 3.6M19.8 72.5c1-1.5 2.1-1.1 3 .3.5 1 5.4 7.5 5.8 8.2s.7 2-.7 2.4c-1.5.3-13 3.4-14.8 3.7s-2.9-1.1-1.7-2.7c.7-.9 8-11 8.4-12m-2.4-11.2q2.3 1.2 2.8-.7A92 92 0 0 0 22 50.2c0-1-.4-2-2-1.8-1.6.3-13.2 2-14.7 2.4-1.7.6-1.6 2.5-.5 3.1 1.4.7 11.4 6.8 12.6 7.3m20-27.1c1-.7.7-1.8-.1-2.4l-12.5-9.1c-1.2-.9-2.6-.6-2.2 1.5l3.8 15.4q.4 1.7 1.9.9c1.5-.8 8.2-5.5 9.2-6.3"/><path fill="#e2ebee" d="M109.1 81.2s1.5-28.5-21.5-34S57.8 64 57.8 64s-7.7-1.8-14.8 4c-5.6 4.7-6.4 11.6-6.4 11.6s-7.3-1-13.4 4.9c-4.5 4.3-4 9.8-4 9.8l8.9 7.8 90.6-2.4 4.8-5.2s.8-5.6-4.5-10c-5.3-4.2-9.9-3.4-9.9-3.4"/><path fill="#b9ced3" d="M40.6 92.2s3.6 4.1 15.1 3.8 14.5-3.2 14.5-3.2 5 5.2 19.5 4.1 18.7-4.2 18.7-4.2 3.5 2.6 8 2.6c4.5.1 7.1-.7 7.1-.7s-.5 3.6-2 5.9-4.2 4-8.3 4H83.9c-12.8 0-49 .2-54.5 0-4-.2-7-2.6-8.4-4.6-2.2-3.3-1.8-6.7-1.8-6.7s4.1 3.2 9.7 3c7.6-.4 11.7-4 11.7-4"/></svg>