<svg viewBox="0 0 128 128"><path fill="#fcc11a" d="M38.3 29.1c-6 7.8-6 21.5 1.8 28.3 8.7 7.7 21 7.7 28.7.5 9.3-8.5 8.7-22.7.6-30.7a21 21 0 0 0-31.1 2"/><path fill="#fee269" d="M48 26.5c-2.4-1-5 1.8-6.2 3.8-1.1 2-2.2 5.8.3 6.8 2.4 1 4.1-.7 5.9-3.6 1.7-2.9 2.7-5.8 0-7"/><path fill="#ffa722" d="M54.1 15.7q-.8 1.7.8 2.2c1.6.5 8.3 1.4 8.9 1.5q1.3-.1 1-1.4l-2-12.4c-.1-1-1.1-2-2.1-.7S54.6 15 54 15.7m18.5 7.4q-1.4.5-.5 2l5.1 7.5q.7.8 1.6 0c1-.9 7.4-10.3 7.9-10.8.8-1 .3-2-1-1.7zM30 52.1q1.3-1.8 2.5.3l5 6.9c.3.6.5 1.7-.7 2l-12.5 3.1c-1.5.3-2.4-1-1.4-2.2zm-2-9.5q2 .9 2.3-.6c.4-1.3 1.5-7.3 1.6-8.6 0-1-.3-1.8-1.7-1.6s-11.2 1.6-12.4 2c-1.5.6-1.4 2.2-.4 2.7 1.1.6 9.6 5.7 10.6 6.1m17-22.9q1-1-.2-2L34.3 10c-1-.7-2.2-.4-1.9 1.3l3.2 13q.4 1.4 1.7.7c.7-.5 6.9-4.6 7.7-5.3"/><path fill="#e2ebee" d="M99.2 65.2s3.6-23.5-17.6-29c-23-6.1-28.3 15.2-28.3 15.2s-6.7-1.8-12.9 3.1c-4.8 4-5.6 10.8-5.6 10.8s-9.4-.4-13.5 6.1c-3.8 6.2 0 10.3 0 10.3L77 79.4l34.2.2s2.4-6.4-2.3-10.8c-4.8-4.5-9.6-3.6-9.6-3.6"/><path fill="#b9ced3" d="M61.3 67.5s4.2 4.2 15.4 3.5 17-4.6 18.3-5.2 2.8-2 3.3-1-.6 3.8-2.1 5.8q-2.3 3-2.6 4.2c-.2.7 3.1 1.7 9.4 2 5.3.3 8.7-.8 8.7-.8s.2 3.4-1.1 6c-1.3 2.4-2.5 3.2-4.5 3.6-1 .2-20.7.2-37.6.6s-39 1.1-42.7 0-4.7-3.7-5.1-4.6c-.9-1.6-1-4-1-4s4 2 10 1.2 9-3.8 9.8-4.1 4.6 1.6 10.7 0c8.5-2 11-7.2 11-7.2"/><path fill="#4fc2f7" d="M47.3 91c-1.4-.6-7 3.5-9.1 9-3 8.1 7.7 10.8 10 3 .9-3 .9-11.4-1-12m42.9 5.8c-1.2-.5-5.9 3-8 6-2 2.8-3.8 7.6 1.2 10.1 5.4 2.7 7.8-3.1 8-7.4.3-3.8-.2-8.2-1.2-8.7m-23.6 9.6c-1.5-.4-7 4.2-9.1 8.5-4 8.6 8.4 11.6 10 3.4.9-5.2.3-11.6-.9-11.9"/><path fill="#afe6f8" d="M61.2 113c-1.1-.4-3.4 2.4-3.2 5 .3 2.6 2.4 2.8 3.4 1.4 1.3-1.9 1-5.9-.2-6.4M41.7 97.7c-1.1-.6-3 2.5-3 4 0 3.3 2.4 3.5 3.5 1.9s1-5.2-.5-6m43.1 6.3c-1.3-.7-3.6 2.2-3.4 4.4.3 3.6 3.2 3.4 4.2 1.4s.4-5.3-.8-5.8"/></svg>