<svg xmlns="http://www.w3.org/2000/svg" width="1em" height="1em" viewBox="0 0 128 128"><path fill="#FCC11A" d="M38.29 29.14c-6.01 7.73-5.91 21.47 1.78 28.27c8.73 7.72 21.01 7.65 28.74.54c9.26-8.52 8.73-22.71.54-30.74c-8.24-8.08-22.95-8.5-31.06 1.93"/><path fill="#FEE269" d="M47.95 26.49c-2.38-1.06-4.98 1.81-6.12 3.78c-1.13 1.96-2.19 5.81.23 6.8c2.42.98 4.15-.68 5.89-3.55c1.74-2.88 2.72-5.82 0-7.03"/><path fill="#FFA722" d="M54.14 15.71c-.58 1.08-.38 1.91.76 2.18c1.14.27 8.28 1.43 8.88 1.47c.87.05 1.2-.6 1.09-1.36c-.11-.76-1.85-11.44-2.02-12.42c-.16-.98-1.2-1.96-2.18-.65s-6.09 9.96-6.53 10.78m18.46 7.41c-1.12.35-1.09 1.03-.49 1.91c.6.87 4.74 7.19 5.12 7.62c.38.44 1.03.54 1.58-.11s7.35-10.19 7.84-10.78c.82-.98.33-2.02-.93-1.69c-.94.25-12.41 2.83-13.12 3.05M30.12 52.09c.76-1.25 1.74-.93 2.45.27c.48.82 4.57 6.32 4.96 6.92c.38.6.54 1.74-.65 2.02c-1.2.27-10.95 2.83-12.47 3.1s-2.4-.93-1.42-2.23c.57-.77 6.7-9.37 7.13-10.08m-2.06-9.48c1.39.62 2.05.4 2.34-.6c.38-1.31 1.52-7.3 1.58-8.66c.04-.89-.33-1.74-1.69-1.52s-11.16 1.58-12.42 2.02c-1.45.51-1.35 2.11-.38 2.61c1.14.6 9.59 5.72 10.57 6.15m16.93-22.87c.78-.63.54-1.52-.16-2.02c-.71-.49-9.46-6.82-10.57-7.68c-.98-.76-2.18-.49-1.85 1.25c.23 1.25 3.02 12.21 3.21 12.96c.22.87.87 1.31 1.63.76c.77-.53 6.93-4.62 7.74-5.27"/><path fill="#E2EBEE" d="M99.22 65.16s3.54-23.47-17.6-29.03C58.67 30.09 53.29 51.4 53.29 51.4s-6.68-1.82-12.85 3.14c-4.83 3.88-5.66 10.72-5.66 10.72s-9.41-.32-13.45 6.17c-3.84 6.17 0 10.22 0 10.22l55.54-2.23l34.19.2s2.47-6.42-2.28-10.87c-4.76-4.44-9.56-3.59-9.56-3.59"/><path fill="#B9CED3" d="M61.29 67.49s4.25 4.25 15.38 3.54s16.99-4.65 18.31-5.26c1.32-.61 2.83-2.02 3.34-1.01c.51 1.01-.61 3.84-2.12 5.87c-1.52 2.02-2.37 3.25-2.63 4.15c-.2.71 3.14 1.72 9.41 2.02c5.36.26 8.74-.82 8.74-.82s.15 3.37-1.16 6c-1.22 2.43-2.49 3.22-4.51 3.63c-1.04.21-20.67.2-37.56.6c-16.89.4-38.95 1.11-42.69-.1s-4.66-3.58-5.14-4.5c-.84-1.58-1.02-4.05-1.02-4.05s4.14 2.08 10.01 1.27s9-3.84 9.81-4.15c.81-.3 4.65 1.62 10.72.1c8.48-2.13 11.11-7.29 11.11-7.29"/><path fill="#4FC2F7" d="M47.26 90.91c-1.32-.48-7.05 3.63-9.11 9.11c-3.04 8.09 7.79 10.79 10.07 3c.87-2.96.86-11.45-.96-12.11m42.81 5.9c-1.17-.52-5.82 3.02-7.93 5.99c-2.02 2.84-3.82 7.64 1.14 10.1c5.41 2.67 7.87-3.14 8.1-7.36c.21-3.82-.28-8.27-1.31-8.73m-23.55 9.59c-1.47-.35-7.11 4.23-9.13 8.5c-4.05 8.56 8.39 11.58 9.93 3.37c.98-5.21.4-11.59-.8-11.87"/><path fill="#AFE6F8" d="M61.24 113.05c-1.17-.47-3.45 2.4-3.2 4.95c.26 2.55 2.36 2.78 3.36 1.37c1.34-1.87 1-5.86-.16-6.32M41.68 97.56c-1.11-.52-3.01 2.52-2.99 4.09c.05 3.2 2.41 3.41 3.51 1.83c1.1-1.57 1.05-5.18-.52-5.92m43.15 6.21c-1.32-.63-3.59 2.28-3.42 4.39c.3 3.64 3.19 3.42 4.16 1.43s.45-5.25-.74-5.82"/></svg>