<svg viewBox="0 0 128 128"><path fill="#fcc11a" d="M33.6 45.4C25.3 56 25.4 74.9 36 84.3a29.4 29.4 0 0 0 39.6.7 29.3 29.3 0 0 0 .7-42.3 29 29 0 0 0-42.7 2.7"/><path fill="#fee269" d="M46.9 41.7c-3.3-1.4-6.9 2.5-8.4 5.2s-3 8 .3 9.4 5.7-1 8-5 3.8-8 0-9.6"/><path fill="#ffa722" d="M55.4 27q-1.2 2.2 1 3l12.3 2q1.7-.2 1.5-2l-2.8-17c-.2-1.3-1.7-2.7-3-1-1.4 1.9-8.4 13.8-9 15m23.8 10q-2 1-.3 2.7c1.7 1.7 7.5 9.1 8 9.7q1.2 1 2.2-.4c1-1.4 8.6-15 9.1-16 1-1.4.2-2.7-1.5-2.1zm1 49.8q2-.8 2.5 1.2l4.2 17.7c.2 1.3-1.2 2.3-2.4 1.6s-14.3-9.8-15.1-10.6c-1.2-1-.4-2.1.2-2.7 1.2-1 9.5-6.6 10.6-7.2m-36.3 7.6c-1.5-.1-2 1.2-1.7 2.4l2.6 17.5c.3 1.7 2 2.4 3.1.7l9.4-15.1c1.2-2.1.3-2.6-.8-3-1.1-.6-11-2.3-12.6-2.5M22.4 77c1-1.7 2.4-1.2 3.3.4.7 1.2 6.3 8.7 6.8 9.5s.8 2.4-.9 2.8-15 3.9-17.1 4.3-3.3-1.3-2-3.1zm-2.9-13q2.8 1.2 3.2-.9c.5-1.8 2.1-10 2.2-12 0-1.1-.5-2.3-2.3-2S7.2 51.3 5.5 51.9c-2 .7-1.9 2.9-.5 3.6 1.5.8 13.2 7.8 14.5 8.4m23.3-31.4q1.4-1.6-.2-2.8L28 19c-1.4-1-3-.7-2.6 1.7.3 1.8 4.2 16.8 4.4 17.9q.6 2 2.3 1c1.7-1 9.5-6.4 10.6-7.3"/><path fill="#e2ebee" d="M112.9 68.6c0-.7 2.2-23-17.5-27.2-19-4-24 13.8-24 13.8s-6.8-.9-11.8 3c-5 3.7-5.2 9.9-5.2 9.9s-8-.3-11.7 4.1c-3.4 4-2.3 7.6-2.3 7.6l22 5.6 55.5-1.5 6.4-3.8s.4-5.1-3-8.3c-4.5-4.4-8.4-3.2-8.4-3.2"/><path fill="#bacdd2" d="M61.3 77.3s-6.1 2.7-13.6 2c-4.5-.4-7.4-1.7-7.4-1.7s-.8 5.2 3.3 7.7c3 2 6 2.2 11.4 2.2l58.3-.1c3.5 0 7-.7 8.7-2.3 2.1-2 2.3-5 2.3-5s-3.4 1-8.2.4-7.5-2.8-7.5-2.8-3.4 3-21 3.2c-19 .4-26.3-3.6-26.3-3.6"/></svg>