<svg xmlns="http://www.w3.org/2000/svg" width="1em" height="1em" viewBox="0 0 128 128"><path fill="#FCC11A" d="M29.53 45.25c-7.14 9.17-7.02 25.48 2.11 33.55c10.36 9.17 24.93 9.08 34.1.64c10.99-10.11 10.36-26.95.64-36.48c-9.77-9.59-27.23-10.09-36.85 2.29"/><path fill="#FEE269" d="M40.99 42.1c-2.82-1.25-5.91 2.15-7.26 4.48s-2.6 6.9.27 8.06s4.93-.81 6.99-4.21c2.06-3.4 3.22-6.89 0-8.33"/><path fill="#FFA722" d="M48.34 29.31c-.68 1.28-.45 2.26.9 2.59c1.36.32 9.82 1.7 10.53 1.74c1.03.06 1.42-.71 1.29-1.62c-.13-.9-2.2-13.57-2.39-14.74c-.19-1.16-1.42-2.33-2.59-.78c-1.15 1.57-7.23 11.84-7.74 12.81m21.91 8.79c-1.33.41-1.29 1.23-.58 2.26c.71 1.03 5.62 8.53 6.08 9.05s1.23.65 1.87-.13s8.72-12.09 9.31-12.8c.97-1.16.39-2.39-1.1-2c-1.14.3-14.74 3.37-15.58 3.62M19.84 72.49c.9-1.49 2.07-1.1 2.91.32c.58.97 5.43 7.5 5.88 8.21c.45.71.65 2.07-.78 2.39c-1.42.32-12.99 3.36-14.8 3.68s-2.84-1.1-1.68-2.65c.68-.9 7.95-11.11 8.47-11.95m-2.46-11.25c1.65.74 2.43.47 2.78-.71c.45-1.55 1.81-8.66 1.87-10.28c.04-1.05-.39-2.07-2-1.81c-1.62.26-13.25 1.87-14.74 2.39c-1.73.6-1.6 2.5-.45 3.1c1.36.72 11.38 6.79 12.54 7.31m20.1-27.14c.93-.74.65-1.81-.19-2.39c-.84-.58-11.22-8.09-12.54-9.11c-1.16-.9-2.59-.58-2.2 1.49c.28 1.48 3.59 14.48 3.81 15.38c.26 1.03 1.03 1.55 1.94.9c.91-.65 8.21-5.5 9.18-6.27"/><path fill="#E2EBEE" d="M109.13 81.18s1.45-28.45-21.58-34s-29.74 16.79-29.74 16.79s-7.68-1.79-14.8 4.13c-5.59 4.65-6.38 11.63-6.38 11.63s-7.35-1.12-13.47 4.82c-4.43 4.3-4 9.82-4 9.82l8.92 7.84l90.65-2.45l4.77-5.12s.76-5.68-4.54-9.95c-5.3-4.28-9.83-3.51-9.83-3.51"/><path fill="#B9CED3" d="M40.64 92.23s3.61 4.08 15.06 3.81s14.46-3.27 14.46-3.27s5.02 5.27 19.53 4.15s18.68-4.18 18.68-4.18s3.54 2.53 8.02 2.6c4.47.07 7.11-.71 7.11-.71s-.47 3.56-2.03 5.84c-1.56 2.28-4.16 4.02-8.27 3.99c-4.12-.03-16.64.08-29.35.06c-12.71-.02-49.03.19-54.4-.04c-4.09-.17-7.06-2.58-8.43-4.62c-2.19-3.26-1.83-6.7-1.83-6.7s4.12 3.23 9.68 2.99c7.6-.32 11.77-3.92 11.77-3.92"/></svg>