<svg viewBox="0 0 128 128"><path fill="#fcc11a" d="M37.4 42c-9.7 12.4-9.5 34.6 2.9 45.6a34.5 34.5 0 0 0 46.4.9c15-13.8 14-36.7.8-49.7a34 34 0 0 0-50 3.2"/><path fill="#fee269" d="M53 37.7c-3.8-1.7-8 2.9-9.9 6-1.8 3.2-3.5 9.4.4 11s6.7-1 9.5-5.7c2.8-4.6 4.4-9.4 0-11.3"/><path fill="#ffa722" d="M63 20.3q-1.5 2.7 1.2 3.5c2.7.8 13.4 2.3 14.4 2.4q2-.2 1.7-2.2L77.1 4c-.2-1.6-2-3.2-3.5-1.1s-9.9 16-10.6 17.4m29.8 12c-1.8.5-1.8 1.6-.8 3s7.7 11.6 8.3 12.3q1 1.3 2.5-.2c.9-1 11.9-16.4 12.7-17.4 1.3-1.5.5-3.2-1.5-2.7-1.6.4-20 4.6-21.2 5m13.8 29.6c-1.3-.8-3-.6-3.4 1.1s-2.4 13.8-2.6 14.9.6 2 2 1.8l20.6-3.2c2.1-.6 2.8-2.7.6-4.3-1.4-1-16-9.6-17.2-10.3M92.1 90.6q2.3-1 3 1.4l4.8 20.8c.3 1.5-1.4 2.7-2.8 1.8s-16.7-11.5-17.7-12.4c-1.4-1.2-.4-2.5.3-3.2 1.4-1.3 11-7.7 12.4-8.4m-42.6 8.9c-1.7-.2-2.2 1.4-2 2.8s3 19.2 3.1 20.6c.3 1.9 2.3 2.7 3.6.7s10.4-16.3 11-17.7c1.4-2.5.4-3-.9-3.6a144 144 0 0 0-14.8-2.8M24.2 79c1.3-2 2.8-1.5 4 .4.8 1.4 7.4 10.2 8 11.2s.9 2.8-1 3.3c-2 .4-17.7 4.5-20.2 5s-3.9-1.5-2.3-3.6c1-1.3 10.8-15.1 11.5-16.3M21 63.7q3.2 1.5 3.8-1c.6-2 2.4-11.7 2.5-14 0-1.4-.5-2.8-2.7-2.4s-18 2.6-20 3.3c-2.4.8-2.2 3.3-.7 4.2 1.9 1 15.5 9.2 17 9.9m27.4-37c1.3-1 1-2.4-.2-3.2L31 11.1c-1.7-1.2-3.6-.8-3 2 .3 2 4.8 19.7 5.1 21q.7 2.3 2.7 1.2z"/></svg>