<svg viewBox="0 0 128 128"><path fill="#94a71a" d="m68.4 85.4-7.5.7s-.7 13-1.6 20.3a42 42 0 0 1-3.4 12c-.9 2-.2 5.3 3.5 5.5 3.8.1 5.5-2 6.1-4.4s2.2-7.9 2.5-15.5.4-18.6.4-18.6"/><path fill="#94a71a" d="M65.2 103.8S68.1 96 76 95.3c10.4-1 15.7 6.3 16 7.7s-7.8 7.8-15.1 7.8c-8.1 0-12-4-12-4z"/><path fill="#728034" d="M85.6 102.4c.4-1.6-2.3-3-7-2.6s-7.1 1.8-8.3 2.6-3.7 2.5-3 3.1 4.4-1 8.2-1.6c6.5-1 9.7.2 10.1-1.6"/><path fill="#94a71a" d="M61 109.6s-1-9-10.2-11.8c-7.7-2.4-16.7 4-17 5.2s6 8 12.6 10c7 2 13.7.4 14.6-3.4"/><path fill="#728034" d="M39.7 104.2c.3 1.4 4 1.2 9 2.2s8.5 3.3 9.2 2.8-1.9-5-9.4-6.7c-5.6-1.4-9 .6-8.8 1.7"/><path fill="#ffb901" d="M56.3 84.6s.9 3.7 3.5 8.2c2.2 3.7 4.8 6.4 5.7 6.4s5.4-5 7.3-9.6c.6-1.5 1.4-6.1 1.4-6.1s4 3.3 6.5 4.9 7.5 3.4 8.3 2.7 1.8-6.6 1.8-8.8-.3-6.3-.3-6.3 3.4 1.2 7.2 1.5c2.8.2 6.6-.1 7.2-1s-1.4-6.3-3-8.7c-2.1-3.3-5.3-5.6-5.3-5.6s4.8-1.7 8-3.6 5.2-4.1 5.2-4.1-3-3.6-6.2-5.7-7-3.8-7-3.8 4.3-2.5 7.6-5.8c2.1-2.1 3.9-6 3.9-6s-4.3-2.6-8.7-3.6-9.4 0-9.4 0 2.4-4.3 3-8.4-.3-7.7-.3-7.7-5.2-.4-9.8 2.7c-4.5 3-5.7 5.4-5.7 5.4s.5-5.4-.6-10c-1-4.1-3.8-7.7-3.8-7.7s-3.7.9-7 5.6c-2.4 3.4-3.6 8.9-3.6 8.9s-2-5.6-4.5-8.5-5.6-4.6-6.2-4.5-3.5 4-4.1 10.3c-.5 4.6 1 7.5 1 7.5s-4-2.9-7.9-4.3c-5-1.7-9.3-2-9.6-1.6s-.7 5.2 1.5 10.8c1.4 3.7 4 6.5 4 6.5s-4.4-1.4-9.9-1.1C22 33.8 19 35 19 35.4s1.5 4.8 5 8.1c3.3 3.3 7.3 5 7.3 5s-4.5 1.1-8 3.4c-4.1 2.7-5.4 6.3-5.4 6.7s3.2 3.8 7.2 5 7.5.6 7.5.6-4 3.2-6 7.5c-1.6 3.1-2.8 7-2.5 7.4s4.3 1.8 8.6 1.2c5.6-.7 9.2-3.3 9.2-3.3s-1.5 5.3-1.4 9.2 1.3 7.6 1.8 7.9 5.4-1.3 8.7-3.9c3.4-2.5 5.4-5.6 5.4-5.6"/><path fill="#d05416" d="M64.4 24.5c-15 .2-28 10.6-27.1 30.5 1 21.8 29.6 33.2 45.8 18.8 14-12.3 10-30 5-36.8a27 27 0 0 0-23.7-12.5"/><path fill="#6d4d42" d="M64.2 32a19 19 0 0 0-19.6 20.7C44.9 67.5 57.3 74 67 73.5 78.4 73 85.4 63 85.5 52c.1-9.1-6.2-19.9-21.3-20"/></svg>