<svg xmlns="http://www.w3.org/2000/svg" width="1em" height="1em" viewBox="0 0 128 128"><path fill="#94A71A" d="m68.38 85.39l-7.43.7s-.79 12.94-1.66 20.29c-.65 5.48-2.43 9.72-3.41 11.98c-.87 2.01-.17 5.34 3.5 5.51c3.85.17 5.51-1.92 6.12-4.37c.61-2.45 2.19-7.87 2.54-15.48s.34-18.63.34-18.63"/><path fill="#94A71A" d="M65.23 103.75s2.85-7.67 10.72-8.46c10.48-1.05 15.77 6.27 16.03 7.76c.26 1.49-7.75 7.71-15.09 7.71c-8.13 0-11.92-4.04-11.92-4.04z"/><path fill="#728034" d="M85.61 102.35c.35-1.53-2.27-2.97-6.99-2.54c-4.72.44-7.14 1.79-8.28 2.58c-1.14.79-3.7 2.5-3.09 3.11s4.49-.99 8.24-1.57c6.5-1 9.71.2 10.12-1.58"/><path fill="#94A71A" d="M60.95 109.62s-.9-9.03-10.18-11.86c-7.7-2.34-16.68 3.95-16.88 5.22s5.82 8.07 12.46 9.98c6.97 2.02 13.73.48 14.6-3.34"/><path fill="#728034" d="M39.72 104.2c.26 1.41 3.95 1.21 8.91 2.21s8.57 3.28 9.24 2.75s-1.86-4.89-9.38-6.7c-5.55-1.34-8.97.67-8.77 1.74"/><path fill="#FFB901" d="M56.27 84.57s.89 3.73 3.53 8.22c2.16 3.67 4.8 6.38 5.74 6.38c.94 0 5.33-4.89 7.21-9.58c.61-1.51 1.47-6.1 1.47-6.1s4.02 3.35 6.5 4.89c2.48 1.54 7.5 3.42 8.24 2.75c.74-.67 1.88-6.63 1.88-8.84S90.49 76 90.49 76s3.45 1.2 7.23 1.47c2.81.2 6.56-.07 7.17-.94c.6-.87-1.4-6.3-2.95-8.71c-2.14-3.35-5.36-5.63-5.36-5.63s4.82-1.67 8.04-3.62c3.22-1.94 5.16-4.09 5.16-4.09s-3.01-3.55-6.23-5.69c-3.22-2.14-6.97-3.75-6.97-3.75s4.29-2.55 7.57-5.83c2.15-2.15 3.95-5.96 3.95-5.96s-4.29-2.61-8.71-3.68c-4.42-1.07-9.38 0-9.38 0s2.41-4.22 3.01-8.37c.6-4.15-.33-7.7-.33-7.7s-5.22-.4-9.78 2.68c-4.55 3.08-5.69 5.43-5.69 5.43s.49-5.39-.65-10.08c-.98-4.03-3.77-7.6-3.77-7.6s-3.69.86-7.04 5.61c-2.39 3.39-3.52 8.83-3.52 8.83s-2.03-5.61-4.58-8.49s-5.56-4.56-6.16-4.47s-3.48 4.02-4.15 10.32c-.48 4.53 1 7.44 1 7.44s-3.95-2.86-7.84-4.22c-4.96-1.74-9.3-1.99-9.65-1.67s-.67 5.22 1.54 10.85c1.42 3.63 4.02 6.5 4.02 6.5s-4.4-1.47-9.91-1.14c-4.49.27-7.47 1.47-7.64 1.88c-.17.41 1.56 4.78 5.02 8.17c3.35 3.28 7.3 4.89 7.3 4.89s-4.51 1.18-7.98 3.47c-4.11 2.72-5.45 6.25-5.41 6.71c.04.46 3.22 3.82 7.17 4.96c3.95 1.14 7.5.6 7.5.6s-3.88 3.22-6.03 7.5c-1.57 3.13-2.79 7.04-2.48 7.44s4.34 1.77 8.64 1.21c5.63-.74 9.24-3.28 9.24-3.28s-1.58 5.29-1.45 9.18c.13 3.88 1.3 7.58 1.78 7.84c.48.26 5.43-1.27 8.77-3.82c3.38-2.59 5.33-5.67 5.33-5.67"/><path fill="#D05416" d="M64.37 24.54c-14.96.13-28.02 10.53-27.07 30.43c1.04 21.78 29.62 33.2 45.81 18.85c13.9-12.32 10-30.01 4.95-36.86c-5.15-6.98-11.69-12.53-23.69-12.42"/><path fill="#6D4D42" d="M64.16 31.91c-8.42-.06-19.91 5.67-19.59 20.75C44.88 67.5 57.31 73.95 67 73.51c11.37-.53 18.43-10.53 18.53-21.59c.09-9.17-6.21-19.91-21.37-20.01"/></svg>