<svg xmlns="http://www.w3.org/2000/svg" width="1em" height="1em" viewBox="0 0 128 128"><radialGradient id="a" cx="63.542" cy="78.723" r="88.912" gradientUnits="userSpaceOnUse"><stop offset=".275" stop-color="#ffd0af"/><stop offset=".372" stop-color="#ffc7ab"/><stop offset=".529" stop-color="#ffafa0"/><stop offset=".631" stop-color="#ff9c97"/><stop offset=".702" stop-color="#ff947a"/><stop offset=".79" stop-color="#ff8c5a"/><stop offset=".865" stop-color="#fc895c"/><stop offset=".928" stop-color="#f47e62"/><stop offset=".987" stop-color="#e56d6d"/><stop offset="1" stop-color="#e16870"/></radialGradient><path fill="url(#a)" d="M116.62 124.26H11.32c-4.15 0-7.52-3.37-7.52-7.52V11.44c0-4.15 3.37-7.52 7.52-7.52h105.3c4.15 0 7.52 3.37 7.52 7.52v105.3c.01 4.15-3.36 7.52-7.52 7.52"/><path fill="#fff7b3" d="M64.48 47.56c-14.65.06-27.84 12.2-27.66 28.21s11.47 27.83 28.16 27.64c17.13-.2 27.09-13.06 26.97-27.49-.12-14.44-10.3-28.42-27.47-28.36"/><path fill="#fffdfa" d="M55.64 57.24c-2.68-2.16-6.97.85-9.21 4.61-2.02 3.39-2.95 7.77-.4 9.06 3.29 1.67 5.26-2.83 7.04-5.72 1.76-2.89 5.21-5.82 2.57-7.95"/><radialGradient id="b" cx="35.001" cy="77.736" r="32.437" gradientUnits="userSpaceOnUse"><stop offset="0" stop-color="#fff7b3"/><stop offset=".046" stop-color="#fff29e"/><stop offset=".155" stop-color="#ffe873"/><stop offset=".261" stop-color="#ffe051"/><stop offset=".36" stop-color="#ffda39"/><stop offset=".452" stop-color="#ffd62a"/><stop offset=".528" stop-color="#ffd525"/><stop offset=".975" stop-color="#ffd525" stop-opacity=".052"/><stop offset="1" stop-color="#ffd525" stop-opacity="0"/></radialGradient><path fill="url(#b)" d="m3.85 74.01-.08 6.88 30.82 2.55s-.97-3.21-1.09-7.67z"/><radialGradient id="c" cx="34.733" cy="70.686" r="36.905" gradientUnits="userSpaceOnUse"><stop offset="0" stop-color="#fff7b3"/><stop offset=".046" stop-color="#fff29e"/><stop offset=".155" stop-color="#ffe873"/><stop offset=".261" stop-color="#ffe051"/><stop offset=".36" stop-color="#ffda39"/><stop offset=".452" stop-color="#ffd62a"/><stop offset=".528" stop-color="#ffd525"/><stop offset=".906" stop-color="#ffd525" stop-opacity="0"/></radialGradient><path fill="url(#c)" d="M4.02 56.26c-.03 3.98-.06 7.8-.1 11.19l29.65 5.34q.075-1.2.27-2.46c.13-.87.3-1.74.5-2.59z"/><radialGradient id="d" cx="38.928" cy="59.148" r="44.193" gradientUnits="userSpaceOnUse"><stop offset="0" stop-color="#fff7b3"/><stop offset=".046" stop-color="#fff29e"/><stop offset=".155" stop-color="#ffe873"/><stop offset=".261" stop-color="#ffe051"/><stop offset=".36" stop-color="#ffda39"/><stop offset=".452" stop-color="#ffd62a"/><stop offset=".528" stop-color="#ffd525"/><stop offset=".897" stop-color="#ffd525" stop-opacity="0"/></radialGradient><path fill="url(#d)" d="M4.1 34.38c.01 4.07 0 8.5-.03 12.97l31.07 17.49c.63-1.92 1.45-3.74 2.42-5.47z"/><radialGradient id="e" cx="41.779" cy="49.682" r="51.324" gradientUnits="userSpaceOnUse"><stop offset="0" stop-color="#fff7b3"/><stop offset=".033" stop-color="#fff29e"/><stop offset=".111" stop-color="#ffe873"/><stop offset=".186" stop-color="#ffe051"/><stop offset=".258" stop-color="#ffda39"/><stop offset=".324" stop-color="#ffd62a"/><stop offset=".378" stop-color="#ffd525"/><stop offset=".757" stop-color="#ffd525" stop-opacity="0"/></radialGradient><path fill="url(#e)" d="M7.53 7.42C5.2 9.61 3.67 13.15 3.9 18.87c.02.61.05 1.32.07 2.1L39.2 56.74c1.17-1.68 2.53-3.22 4.03-4.62z"/><radialGradient id="f" cx="44.695" cy="50.914" r="50.513" gradientUnits="userSpaceOnUse"><stop offset="0" stop-color="#fff7b3"/><stop offset=".046" stop-color="#fff29e"/><stop offset=".155" stop-color="#ffe873"/><stop offset=".261" stop-color="#ffe051"/><stop offset=".36" stop-color="#ffda39"/><stop offset=".452" stop-color="#ffd62a"/><stop offset=".528" stop-color="#ffd525"/><stop offset=".854" stop-color="#ffd525" stop-opacity="0"/></radialGradient><path fill="url(#f)" d="M29.96 3.89c-6.29 0-10.78.02-12.17.08-.52.02-1.05.05-1.58.1l29.12 46.27a29 29 0 0 1 4.94-3.03z"/><radialGradient id="g" cx="56.16" cy="45.789" r="42.264" gradientUnits="userSpaceOnUse"><stop offset="0" stop-color="#fff7b3"/><stop offset=".046" stop-color="#fff29e"/><stop offset=".155" stop-color="#ffe873"/><stop offset=".261" stop-color="#ffe051"/><stop offset=".36" stop-color="#ffda39"/><stop offset=".452" stop-color="#ffd62a"/><stop offset=".528" stop-color="#ffd525"/><stop offset=".976" stop-color="#ffd525" stop-opacity="0"/></radialGradient><path fill="url(#g)" d="M51.45 3.95c-3.9-.02-7.69-.03-11.23-.04l12.63 42.3c1.92-.71 3.96-1.24 6.12-1.57z"/><radialGradient id="h" cx="64.665" cy="45.167" r="41.283" gradientUnits="userSpaceOnUse"><stop offset="0" stop-color="#fff7b3"/><stop offset=".046" stop-color="#fff29e"/><stop offset=".155" stop-color="#ffe873"/><stop offset=".261" stop-color="#ffe051"/><stop offset=".36" stop-color="#ffda39"/><stop offset=".452" stop-color="#ffd62a"/><stop offset=".528" stop-color="#ffd525"/><stop offset=".975" stop-color="#ffd525" stop-opacity=".052"/><stop offset="1" stop-color="#ffd525" stop-opacity="0"/></radialGradient><path fill="url(#h)" d="M70.26 4.01c-3.82-.03-6.31-.09-10.16-.11l1.56 40.42c1.1-.08 2.23-.12 3.38-.1 1.1.02 2.19.09 3.25.22z"/><radialGradient id="i" cx="73.378" cy="46.619" r="44.476" gradientUnits="userSpaceOnUse"><stop offset="0" stop-color="#fff7b3"/><stop offset=".04" stop-color="#fff29e"/><stop offset=".133" stop-color="#ffe873"/><stop offset=".224" stop-color="#ffe051"/><stop offset=".309" stop-color="#ffda39"/><stop offset=".388" stop-color="#ffd62a"/><stop offset=".453" stop-color="#ffd525"/><stop offset=".959" stop-color="#ffd525" stop-opacity="0"/></radialGradient><path fill="url(#i)" d="M90.45 4.21c-3.52-.03-7.37-.06-11.41-.09l-8.11 40.76c2.09.44 4.06 1.1 5.95 1.92z"/><radialGradient id="j" cx="81.468" cy="49.523" r="47.227" gradientUnits="userSpaceOnUse"><stop offset="0" stop-color="#fff7b3"/><stop offset=".046" stop-color="#fff29e"/><stop offset=".155" stop-color="#ffe873"/><stop offset=".261" stop-color="#ffe051"/><stop offset=".36" stop-color="#ffda39"/><stop offset=".452" stop-color="#ffd62a"/><stop offset=".528" stop-color="#ffd525"/><stop offset=".926" stop-color="#ffd525" stop-opacity="0"/></radialGradient><path fill="url(#j)" d="M111.37 4.59q-1.92-.135-4.17-.18c-1.68-.04-4.49-.07-8.1-.11L79.34 48.01c1.67.91 3.22 1.98 4.67 3.16z"/><radialGradient id="k" cx="85.311" cy="52.263" r="49.025" gradientUnits="userSpaceOnUse"><stop offset="0" stop-color="#fff7b3"/><stop offset=".037" stop-color="#fff29e"/><stop offset=".126" stop-color="#ffe873"/><stop offset=".212" stop-color="#ffe051"/><stop offset=".293" stop-color="#ffda39"/><stop offset=".368" stop-color="#ffd62a"/><stop offset=".43" stop-color="#ffd525"/><stop offset=".832" stop-color="#ffd525" stop-opacity="0"/></radialGradient><path fill="url(#k)" d="M124.13 23.3c.01-6.26.02-10.77.02-11.86 0-1.39-.45-2.56-1.41-3.52l-36.75 45a32.4 32.4 0 0 1 3.97 4.65z"/><radialGradient id="l" cx="92.896" cy="62.144" r="35.226" gradientUnits="userSpaceOnUse"><stop offset="0" stop-color="#fff7b3"/><stop offset=".046" stop-color="#fff29e"/><stop offset=".155" stop-color="#ffe873"/><stop offset=".261" stop-color="#ffe051"/><stop offset=".36" stop-color="#ffda39"/><stop offset=".452" stop-color="#ffd62a"/><stop offset=".528" stop-color="#ffd525"/><stop offset="1" stop-color="#ffd525" stop-opacity="0"/></radialGradient><path fill="url(#l)" d="m124.08 48.54.03-13.37-32.79 24.52c1.05 1.79 1.89 3.68 2.55 5.62z"/><radialGradient id="m" cx="94.17" cy="70.686" r="35.972" gradientUnits="userSpaceOnUse"><stop offset="0" stop-color="#fff7b3"/><stop offset=".046" stop-color="#fff29e"/><stop offset=".155" stop-color="#ffe873"/><stop offset=".261" stop-color="#ffe051"/><stop offset=".36" stop-color="#ffda39"/><stop offset=".452" stop-color="#ffd62a"/><stop offset=".528" stop-color="#ffd525"/><stop offset="1" stop-color="#ffd525" stop-opacity="0"/></radialGradient><path fill="url(#m)" d="m95.36 73.6 28.68-4.23c.01-3.27.01-6.98.02-10.93L94.6 67.87c.44 1.85.7 3.74.75 5.64 0 .03 0 .06.01.09"/><radialGradient id="n" cx="94.537" cy="82.092" r="31.836" gradientUnits="userSpaceOnUse"><stop offset="0" stop-color="#fff7b3"/><stop offset=".046" stop-color="#fff29e"/><stop offset=".155" stop-color="#ffe873"/><stop offset=".261" stop-color="#ffe051"/><stop offset=".36" stop-color="#ffda39"/><stop offset=".452" stop-color="#ffd62a"/><stop offset=".528" stop-color="#ffd525"/><stop offset=".942" stop-color="#ffd525" stop-opacity="0"/></radialGradient><path fill="url(#n)" d="M95.35 76.7c-.18 6.48-1.27 11.96-1.27 11.96l29.93-6.75s0-2.34.01-6.17z"/><radialGradient id="o" cx="65.226" cy="68.515" r="54.923" gradientTransform="matrix(.00617 1 -2.3771 .0147 227.692 2.285)" gradientUnits="userSpaceOnUse"><stop offset=".246" stop-color="#cad7a8"/><stop offset=".34" stop-color="#c5d6aa"/><stop offset=".457" stop-color="#b5d4b0"/><stop offset=".587" stop-color="#9cd1b9"/><stop offset=".724" stop-color="#79cdc6"/><stop offset=".867" stop-color="#4cc7d6"/><stop offset=".997" stop-color="#1dc1e8"/></radialGradient><path fill="url(#o)" d="M124.15 79.02v37.72c0 4.15-3.37 7.52-7.52 7.52H11.32c-4.15 0-7.52-3.37-7.52-7.52V78.55z"/><path fill="#fff" d="M35.72 85.04c-.12 2 1.5 3.43 4.5 3.5s46.6-.12 48.1-.07c2.36.07 4.29-1.07 4.15-3.43s-2.43-2.64-3.93-2.64c-1.01 0-18.44-.07-26.87-.07s-21.16.07-22.58.14-3.23.21-3.37 2.57m4.51 9.5c-.09 2.43 1.93 2.86 4.5 2.93s12.79.07 19.8.07 18.3-.14 20.08-.14c1.5 0 3.14-1 3.07-2.93-.06-1.51-.93-2.57-3.5-2.64s-22.37.07-29.02 0-9.93 0-11.44 0c-1.49 0-3.42.85-3.49 2.71m8.44 8.33c.07 1.79 1.64 2.5 3.5 2.5s23.66.21 25.44.14c1.79-.07 2.93-1.29 3-2.72s-1.22-2.22-2.93-2.22-24.66-.14-26.09-.07c-1.42.09-3 .66-2.92 2.37"/><path fill="#fff" d="M56.24 106.95c.16 1.43.71 2.5 3.29 2.57 2.57.07 10.29-.01 11.72-.07 1.57-.07 2.32-1.35 2.36-2.5.07-1.93-1.72-2.36-1.72-2.36l-14.22.14s-1.57.93-1.43 2.22"/><path fill="#baf3fa" d="M93.34 92.25c.09 1.86 1 2.93 4.15 3s6.15.07 7.5 0 2.84-.99 2.72-3c-.14-2.36-2.14-2.36-3.43-2.5s-6.86-.07-8.22-.07-2.8 1.14-2.72 2.57m-76.48-1.64c0 2 1.64 2.43 3.57 2.5s5.07.07 6.36-.07 2.29-1.07 2.36-2.43-1.29-2.22-3.07-2.22-5.43.07-6.65.07c-1.21.01-2.57.94-2.57 2.15m12.22 4c-2.13.25-2.57 1.72-2.5 2.72s.86 2.22 2.64 2.22 6.22 0 7.5-.14c1.29-.14 1.72-1.36 1.79-2.57s-1-2.14-2.29-2.22c-1.28-.08-5.28-.22-7.14-.01"/></svg>