<svg xmlns="http://www.w3.org/2000/svg" width="1em" height="1em" viewBox="0 0 128 128"><radialGradient id="notoSunriseOverMountains0" cx="64.926" cy="83.292" r="90.99" gradientUnits="userSpaceOnUse"><stop offset=".24" stop-color="#FDA72C"/><stop offset=".356" stop-color="#FCA330"/><stop offset=".477" stop-color="#F9963B"/><stop offset=".601" stop-color="#F5814E"/><stop offset=".601" stop-color="#F5814E"/><stop offset=".676" stop-color="#E07C5E"/><stop offset=".829" stop-color="#A96F86"/><stop offset=".964" stop-color="#7362AD"/></radialGradient><path fill="url(#notoSunriseOverMountains0)" d="M124.15 11.44c0-4.15-3.37-7.52-7.52-7.52H11.32c-4.15 0-7.52 3.37-7.52 7.52v105.3c0 4.15 3.37 7.52 7.52 7.52h105.3c4.15 0 7.52-3.37 7.52-7.52V11.44z"/><path fill="#FFF7B3" d="M66.3 60.78c14.71.12 23.79 11.28 24.16 25.14c.37 13.86-10.18 24.4-25.38 24.4c-13 0-23.92-11.02-23.54-27.22c.23-10.55 9.15-22.45 24.76-22.32"/><path fill="#FFFFFC" d="M49.94 72.28c-2.26 3.31-4.55 7.58-1.44 9.49c2.68 1.65 4.88-2.41 6.74-4.95c1.86-2.55 5.71-6.12 3.1-8.39c-1.78-1.55-5.44-.49-8.4 3.85"/><radialGradient id="notoSunriseOverMountains1" cx="42.163" cy="79.187" r="51.929" gradientUnits="userSpaceOnUse"><stop offset=".273" stop-color="#FFC618"/><stop offset=".377" stop-color="#FEBE1D"/><stop offset=".537" stop-color="#FCA929"/><stop offset=".695" stop-color="#F98D39"/><stop offset=".791" stop-color="#F98D39" stop-opacity="0"/></radialGradient><path fill="url(#notoSunriseOverMountains1)" d="M3.8 64.78c-.02 9.74 0 17.25 0 17.25l35.89-3.83s0-.02.01-.07z"/><radialGradient id="notoSunriseOverMountains2" cx="42.434" cy="73.75" r="49.587" gradientUnits="userSpaceOnUse"><stop offset=".273" stop-color="#FFC618"/><stop offset=".377" stop-color="#FEBE1D"/><stop offset=".537" stop-color="#FCA929"/><stop offset=".695" stop-color="#F98D39"/><stop offset=".94" stop-color="#F98D39" stop-opacity="0"/></radialGradient><path fill="url(#notoSunriseOverMountains2)" d="M3.8 41.71c0 4.36.01 9.05 0 13.63l36.71 20.22c.43-1.11 1.05-2.49 1.93-3.98z"/><radialGradient id="notoSunriseOverMountains3" cx="48.143" cy="67.226" r="59.275" gradientUnits="userSpaceOnUse"><stop offset=".273" stop-color="#FFC618"/><stop offset=".377" stop-color="#FEBE1D"/><stop offset=".537" stop-color="#FCA929"/><stop offset=".695" stop-color="#F98D39"/><stop offset=".94" stop-color="#F98D39" stop-opacity="0"/></radialGradient><path fill="url(#notoSunriseOverMountains3)" d="M4.53 10.57c-.94 1.99-.73 7.25-.74 11.98c0 .95-.01 2.79 0 4.85l39.85 42.34c.61-.86 1.29-1.73 2.09-2.59c.55-.59 1.15-1.19 1.8-1.78z"/><radialGradient id="notoSunriseOverMountains4" cx="52.764" cy="63.692" r="61.031" gradientUnits="userSpaceOnUse"><stop offset=".273" stop-color="#FFC618"/><stop offset=".377" stop-color="#FEBE1D"/><stop offset=".537" stop-color="#FCA929"/><stop offset=".695" stop-color="#F98D39"/><stop offset=".94" stop-color="#F98D39" stop-opacity="0"/></radialGradient><path fill="url(#notoSunriseOverMountains4)" d="M28.26 3.92c-4.82-.01-10.04.01-14.3 0L49.59 63.7c1.32-.97 2.83-1.87 4.52-2.64z"/><radialGradient id="notoSunriseOverMountains5" cx="58.745" cy="60.702" r="60.068" gradientUnits="userSpaceOnUse"><stop offset=".273" stop-color="#FFC618"/><stop offset=".377" stop-color="#FEBE1D"/><stop offset=".537" stop-color="#FCA929"/><stop offset=".695" stop-color="#F98D39"/><stop offset=".94" stop-color="#F98D39" stop-opacity="0"/></radialGradient><path fill="url(#notoSunriseOverMountains5)" d="M50.67 3.91c-4.35.01-8.29-.01-11.48 0l16.95 56.33c1.58-.56 3.3-1.01 5.17-1.29z"/><radialGradient id="notoSunriseOverMountains6" cx="65.813" cy="59.614" r="59.278" gradientUnits="userSpaceOnUse"><stop offset=".273" stop-color="#FFC618"/><stop offset=".377" stop-color="#FEBE1D"/><stop offset=".537" stop-color="#FCA929"/><stop offset=".695" stop-color="#F98D39"/><stop offset=".94" stop-color="#F98D39" stop-opacity="0"/></radialGradient><path fill="url(#notoSunriseOverMountains6)" d="M72.31 3.91h-11L63.4 58.7c.86-.07 1.75-.11 2.68-.1c.99 0 1.92.06 2.82.14z"/><radialGradient id="notoSunriseOverMountains7" cx="72.992" cy="59.794" r="58.103" gradientUnits="userSpaceOnUse"><stop offset=".273" stop-color="#FFC618"/><stop offset=".377" stop-color="#FEBE1D"/><stop offset=".537" stop-color="#FCA929"/><stop offset=".695" stop-color="#F98D39"/><stop offset=".94" stop-color="#F98D39" stop-opacity="0"/></radialGradient><path fill="url(#notoSunriseOverMountains7)" d="M93.57 3.91c-3.3 0-6.99.01-10.9.01L70.79 58.98c1.95.31 3.7.81 5.29 1.44z"/><radialGradient id="notoSunriseOverMountains8" cx="78.59" cy="63.148" r="61.898" gradientUnits="userSpaceOnUse"><stop offset=".273" stop-color="#FFC618"/><stop offset=".377" stop-color="#FEBE1D"/><stop offset=".537" stop-color="#FCA929"/><stop offset=".695" stop-color="#F98D39"/><stop offset=".94" stop-color="#F98D39" stop-opacity="0"/></radialGradient><path fill="url(#notoSunriseOverMountains8)" d="M116.34 3.91c-3.18-.04-10.92-.01-12.14 0L78.02 61.3c1.72.87 3.2 1.9 4.52 3z"/><radialGradient id="notoSunriseOverMountains9" cx="84.57" cy="67.77" r="57.742" gradientUnits="userSpaceOnUse"><stop offset=".273" stop-color="#FFC618"/><stop offset=".363" stop-color="#FEBE1D"/><stop offset=".502" stop-color="#FCA929"/><stop offset=".639" stop-color="#F98D39"/><stop offset=".94" stop-color="#F98D39" stop-opacity="0"/></radialGradient><path fill="url(#notoSunriseOverMountains9)" d="M124.16 32.64c-.02-9.06 0-16.87 0-18.01L84.28 65.87c.33.33.66.66.97.99c.97 1.04 1.8 2.1 2.51 3.15z"/><radialGradient id="notoSunriseOverMountainsa" cx="90.007" cy="74.566" r="39.313" gradientUnits="userSpaceOnUse"><stop offset=".273" stop-color="#FFC618"/><stop offset=".384" stop-color="#FEBE1D"/><stop offset=".553" stop-color="#FCA929"/><stop offset=".721" stop-color="#F98D39"/><stop offset=".94" stop-color="#F98D39" stop-opacity="0"/></radialGradient><path fill="url(#notoSunriseOverMountainsa)" d="M124.14 57.5c.04-4.19.01-8.72 0-12.84L89.16 72.34c1.14 2.13 1.8 4.02 2.15 5.24z"/><radialGradient id="notoSunriseOverMountainsb" cx="93.269" cy="79.187" r="39.252" gradientUnits="userSpaceOnUse"><stop offset=".483" stop-color="#FFC618"/><stop offset=".556" stop-color="#FEBE1D"/><stop offset=".668" stop-color="#FCA929"/><stop offset=".779" stop-color="#F98D39"/><stop offset=".94" stop-color="#F98D39" stop-opacity="0"/></radialGradient><path fill="url(#notoSunriseOverMountainsb)" d="m94.89 79.67l29.25 6.06s.02-7.7 0-18.15z"/><radialGradient id="notoSunriseOverMountainsc" cx="67.049" cy="66.672" r="64.015" gradientTransform="matrix(-.0102 .9999 -1.1205 -.0114 142.434 .386)" gradientUnits="userSpaceOnUse"><stop offset=".492" stop-color="#CD6159"/><stop offset=".532" stop-color="#BB595A"/><stop offset=".678" stop-color="#7A3D5C"/><stop offset="1" stop-color="#4D242C"/></radialGradient><path fill="url(#notoSunriseOverMountainsc)" d="M3.8 80.55v36.19c0 4.15 3.37 7.52 7.52 7.52h105.3c4.15 0 7.52-3.37 7.52-7.52V79.02s-3.95-2.87-5.3-4.8c-1.35-1.93-5.8-5.8-10.64-5.61c-4.83.19-9.67 2.71-11.99 4.45c-2.32 1.74-4.25 3.67-7.16 5.22c-2.9 1.55-10.83 8.51-14.89 12.76c-4.06 4.25-8.32 8.51-8.32 8.51s-8.51-11.8-13.92-17.02c-5.42-5.22-8.32-7.35-11.02-7.54c-2.71-.19-3.35.78-3.35.78s-5.67-9.95-9.45-12.09c-3.78-2.14-8.94-1.01-9.95-.63c-1.01.38-6.51 5.03-8.44 7.56c-3.26 4.28-5.91 9.94-5.91 9.94"/><path fill="#3E2230" d="M92.79 104.09s-3.56 1.72-5.63 3.44s-5.17 6.08-7.12 9.07c-1.95 2.99-3.1 6.43-3.1 6.43l-.5 1.22h24.63s2.16-11.21 2.39-16.61s1.38-17.45 1.61-19.63c.23-2.18 1.38-5.86-.23-5.86s-2.53 3.79-3.9 5.17c-1.38 1.38-4.13 2.53-5.05 4.25c-.92 1.73-3.1 12.52-3.1 12.52"/><radialGradient id="notoSunriseOverMountainsd" cx="66.091" cy="85.51" r="39.018" gradientUnits="userSpaceOnUse"><stop offset=".424" stop-color="#823437"/><stop offset=".484" stop-color="#713035"/><stop offset=".589" stop-color="#5B2A33"/><stop offset=".703" stop-color="#4B2531"/><stop offset=".831" stop-color="#412330"/><stop offset="1" stop-color="#3E2230"/></radialGradient><path fill="url(#notoSunriseOverMountainsd)" d="M29.51 124.26s-.78-6.62-.89-8.34c-.11-1.72-.34-5.28-.92-9.07c-.57-3.79-1.61-9.18-1.15-11.02c.46-1.84 2.53-2.87 3.79-2.76c1.26.11 5.17 3.1 6.54 6.08c1.38 2.99 3.79 11.6 5.63 13.2c1.84 1.61 5.74 3.56 7.23 4.25c1.49.69 3.44.8 4.36 1.95c.92 1.15 1.03 2.18 1.84 2.99s2.24 2.72 2.24 2.72z"/><radialGradient id="notoSunriseOverMountainse" cx="62.651" cy="73.869" r="41.866" fx="62.599" fy="73.861" gradientUnits="userSpaceOnUse"><stop offset=".58" stop-color="#823437"/><stop offset=".66" stop-color="#7D3336"/><stop offset=".757" stop-color="#6E2F35"/><stop offset=".863" stop-color="#562832"/><stop offset=".943" stop-color="#3E2230"/></radialGradient><path fill="url(#notoSunriseOverMountainse)" d="M40.67 94.1c-2.28-2.85-4.36-6.77-6.54-9.41c-2.18-2.64-2.64-4.13-2.41-5.74c.23-1.61 2.3-.34 3.44.34c1.15.69 4.92 2.88 7.91 8.05s3.8 8.02 4.38 8.6s2.07 1.61 3.56 4.02c1.49 2.41 6.54 11.94 6.08 12.63c-.46.69-7.46-2.3-10.45-4.71c-2.99-2.41-4.13-5.4-4.59-7.46c-.46-2.07 0-4.59-1.38-6.32"/><radialGradient id="notoSunriseOverMountainsf" cx="68.766" cy="82.04" r="41.484" gradientTransform="matrix(.5397 .8418 -1.275 .8175 136.255 -42.917)" gradientUnits="userSpaceOnUse"><stop offset=".098" stop-color="#823437"/><stop offset=".263" stop-color="#7D3337"/><stop offset=".453" stop-color="#6F2F35"/><stop offset=".655" stop-color="#582933"/><stop offset=".831" stop-color="#3E2230"/></radialGradient><path fill="url(#notoSunriseOverMountainsf)" d="M59.15 105.93c-.73 1.24.69 3.1 1.95 4.71c1.26 1.61 3.1 5.51 3.1 5.51s-.92 4.25.69 4.94c1.61.69 4.82-2.87 6.77-4.94s4.59-5.05 5.63-7.81c1.03-2.76 2.76-6.77 4.71-9.07s4.25-3.44 5.51-5.51c1.26-2.07 2.3-5.97 2.3-5.97s3.9-1.72 3.67-4.82c-.23-3.1-6.2 4.25-8.15 6.66c-1.95 2.41-2.87 3.21-4.59 4.36c-1.72 1.15-2.76 1.61-2.76 1.61s-3.56 2.53-4.02 3.33c-.46.8-4.59 11.6-4.59 11.6s-8.72-7.13-10.22-4.6"/><path fill="#3E2230" d="M10.4 124.21a7.517 7.517 0 0 1-6.6-7.47v-23.3s2.08-1.45 4.37-4.86s4.92-7.94 5.86-8.93c1.17-1.22 3.73-1.3 4.18-.77c.67.77.15 2.58-.15 3.66c-.24.84-1.17 4.8-1.6 6.97c-.43 2.17-.54 8.75-1.34 13.52c-.81 4.77-1.76 12.22-2.63 14.76c-.87 2.54-1.84 6.02-2.09 6.42"/></svg>