<svg viewBox="0 0 128 128"><radialGradient id="a" cx="63.5" cy="78.7" r="88.9" gradientUnits="userSpaceOnUse"><stop offset=".3" stop-color="#ffd0af"/><stop offset=".4" stop-color="#ffc7ab"/><stop offset=".5" stop-color="#ffafa0"/><stop offset=".6" stop-color="#ff9c97"/><stop offset=".7" stop-color="#ff947a"/><stop offset=".8" stop-color="#ff8c5a"/><stop offset=".9" stop-color="#fc895c"/><stop offset=".9" stop-color="#f47e62"/><stop offset="1" stop-color="#e56d6d"/><stop offset="1" stop-color="#e16870"/></radialGradient><path fill="url(#a)" d="M116.6 124.3H11.3a7.5 7.5 0 0 1-7.5-7.6V11.4C3.8 7.3 7.2 4 11.3 4h105.3c4.2 0 7.5 3.4 7.5 7.5v105.3c0 4.2-3.3 7.6-7.5 7.6"/><path fill="#fff7b3" d="M64.5 47.6c-14.7 0-27.9 12.2-27.7 28.2s11.5 27.8 28.2 27.6c17.1-.2 27-13 27-27.5-.2-14.4-10.3-28.4-27.5-28.3"/><path fill="#fffdfa" d="M55.6 57.2c-2.6-2.1-7 .9-9.2 4.6-2 3.4-3 7.8-.4 9.1 3.3 1.7 5.3-2.8 7-5.7s5.3-5.8 2.6-8"/><radialGradient id="b" cx="35" cy="77.7" r="32.4" gradientUnits="userSpaceOnUse"><stop offset="0" stop-color="#fff7b3"/><stop offset="0" stop-color="#fff29e"/><stop offset=".2" stop-color="#ffe873"/><stop offset=".3" stop-color="#ffe051"/><stop offset=".4" stop-color="#ffda39"/><stop offset=".5" stop-color="#ffd62a"/><stop offset=".5" stop-color="#ffd525"/><stop offset="1" stop-color="#ffd525" stop-opacity=".1"/><stop offset="1" stop-color="#ffd525" stop-opacity="0"/></radialGradient><path fill="url(#b)" d="m3.9 74-.1 7 30.8 2.5s-1-3.2-1.1-7.6z"/><radialGradient id="c" cx="34.7" cy="70.7" r="36.9" gradientUnits="userSpaceOnUse"><stop offset="0" stop-color="#fff7b3"/><stop offset="0" stop-color="#fff29e"/><stop offset=".2" stop-color="#ffe873"/><stop offset=".3" stop-color="#ffe051"/><stop offset=".4" stop-color="#ffda39"/><stop offset=".5" stop-color="#ffd62a"/><stop offset=".5" stop-color="#ffd525"/><stop offset=".9" stop-color="#ffd525" stop-opacity="0"/></radialGradient><path fill="url(#c)" d="M4 56.3v11.2l29.6 5.3.2-2.5.5-2.6z"/><radialGradient id="d" cx="38.9" cy="59.1" r="44.2" gradientUnits="userSpaceOnUse"><stop offset="0" stop-color="#fff7b3"/><stop offset="0" stop-color="#fff29e"/><stop offset=".2" stop-color="#ffe873"/><stop offset=".3" stop-color="#ffe051"/><stop offset=".4" stop-color="#ffda39"/><stop offset=".5" stop-color="#ffd62a"/><stop offset=".5" stop-color="#ffd525"/><stop offset=".9" stop-color="#ffd525" stop-opacity="0"/></radialGradient><path fill="url(#d)" d="M4.1 34.4v13l31 17.4q1-2.8 2.5-5.4z"/><radialGradient id="e" cx="41.8" cy="49.7" r="51.3" gradientUnits="userSpaceOnUse"><stop offset="0" stop-color="#fff7b3"/><stop offset="0" stop-color="#fff29e"/><stop offset=".1" stop-color="#ffe873"/><stop offset=".2" stop-color="#ffe051"/><stop offset=".3" stop-color="#ffda39"/><stop offset=".3" stop-color="#ffd62a"/><stop offset=".4" stop-color="#ffd525"/><stop offset=".8" stop-color="#ffd525" stop-opacity="0"/></radialGradient><path fill="url(#e)" d="M7.5 7.4C5.2 9.6 3.7 13.2 4 19v2l35.3 35.8a29 29 0 0 1 4-4.6z"/><radialGradient id="f" cx="44.7" cy="50.9" r="50.5" gradientUnits="userSpaceOnUse"><stop offset="0" stop-color="#fff7b3"/><stop offset="0" stop-color="#fff29e"/><stop offset=".2" stop-color="#ffe873"/><stop offset=".3" stop-color="#ffe051"/><stop offset=".4" stop-color="#ffda39"/><stop offset=".5" stop-color="#ffd62a"/><stop offset=".5" stop-color="#ffd525"/><stop offset=".9" stop-color="#ffd525" stop-opacity="0"/></radialGradient><path fill="url(#f)" d="M30 3.9 16.2 4l29.1 46.2a29 29 0 0 1 5-3z"/><radialGradient id="g" cx="56.2" cy="45.8" r="42.3" gradientUnits="userSpaceOnUse"><stop offset="0" stop-color="#fff7b3"/><stop offset="0" stop-color="#fff29e"/><stop offset=".2" stop-color="#ffe873"/><stop offset=".3" stop-color="#ffe051"/><stop offset=".4" stop-color="#ffda39"/><stop offset=".5" stop-color="#ffd62a"/><stop offset=".5" stop-color="#ffd525"/><stop offset="1" stop-color="#ffd525" stop-opacity="0"/></radialGradient><path fill="url(#g)" d="M51.5 4H40.2l12.6 42.2q3-1 6.2-1.6z"/><radialGradient id="h" cx="64.7" cy="45.2" r="41.3" gradientUnits="userSpaceOnUse"><stop offset="0" stop-color="#fff7b3"/><stop offset="0" stop-color="#fff29e"/><stop offset=".2" stop-color="#ffe873"/><stop offset=".3" stop-color="#ffe051"/><stop offset=".4" stop-color="#ffda39"/><stop offset=".5" stop-color="#ffd62a"/><stop offset=".5" stop-color="#ffd525"/><stop offset="1" stop-color="#ffd525" stop-opacity=".1"/><stop offset="1" stop-color="#ffd525" stop-opacity="0"/></radialGradient><path fill="url(#h)" d="M70.3 4H60l1.6 40.4a38 38 0 0 1 6.6.1z"/><radialGradient id="i" cx="73.4" cy="46.6" r="44.5" gradientUnits="userSpaceOnUse"><stop offset="0" stop-color="#fff7b3"/><stop offset="0" stop-color="#fff29e"/><stop offset=".1" stop-color="#ffe873"/><stop offset=".2" stop-color="#ffe051"/><stop offset=".3" stop-color="#ffda39"/><stop offset=".4" stop-color="#ffd62a"/><stop offset=".5" stop-color="#ffd525"/><stop offset="1" stop-color="#ffd525" stop-opacity="0"/></radialGradient><path fill="url(#i)" d="M90.5 4.2H79l-8 40.7q3 .6 5.9 1.9z"/><radialGradient id="j" cx="81.5" cy="49.5" r="47.2" gradientUnits="userSpaceOnUse"><stop offset="0" stop-color="#fff7b3"/><stop offset="0" stop-color="#fff29e"/><stop offset=".2" stop-color="#ffe873"/><stop offset=".3" stop-color="#ffe051"/><stop offset=".4" stop-color="#ffda39"/><stop offset=".5" stop-color="#ffd62a"/><stop offset=".5" stop-color="#ffd525"/><stop offset=".9" stop-color="#ffd525" stop-opacity="0"/></radialGradient><path fill="url(#j)" d="m111.4 4.6-4.2-.2-8.1-.1L79.3 48q2.6 1.5 4.7 3.2z"/><radialGradient id="k" cx="85.3" cy="52.3" r="49" gradientUnits="userSpaceOnUse"><stop offset="0" stop-color="#fff7b3"/><stop offset="0" stop-color="#fff29e"/><stop offset=".1" stop-color="#ffe873"/><stop offset=".2" stop-color="#ffe051"/><stop offset=".3" stop-color="#ffda39"/><stop offset=".4" stop-color="#ffd62a"/><stop offset=".4" stop-color="#ffd525"/><stop offset=".8" stop-color="#ffd525" stop-opacity="0"/></radialGradient><path fill="url(#k)" d="M124.1 23.3V11.4q0-2-1.4-3.5L86 53a32 32 0 0 1 4 4.7z"/><radialGradient id="l" cx="92.9" cy="62.1" r="35.2" gradientUnits="userSpaceOnUse"><stop offset="0" stop-color="#fff7b3"/><stop offset="0" stop-color="#fff29e"/><stop offset=".2" stop-color="#ffe873"/><stop offset=".3" stop-color="#ffe051"/><stop offset=".4" stop-color="#ffda39"/><stop offset=".5" stop-color="#ffd62a"/><stop offset=".5" stop-color="#ffd525"/><stop offset="1" stop-color="#ffd525" stop-opacity="0"/></radialGradient><path fill="url(#l)" d="m124 48.5.1-13.3-32.8 24.5q1.6 2.7 2.6 5.6z"/><radialGradient id="m" cx="94.2" cy="70.7" r="36" gradientUnits="userSpaceOnUse"><stop offset="0" stop-color="#fff7b3"/><stop offset="0" stop-color="#fff29e"/><stop offset=".2" stop-color="#ffe873"/><stop offset=".3" stop-color="#ffe051"/><stop offset=".4" stop-color="#ffda39"/><stop offset=".5" stop-color="#ffd62a"/><stop offset=".5" stop-color="#ffd525"/><stop offset="1" stop-color="#ffd525" stop-opacity="0"/></radialGradient><path fill="url(#m)" d="m95.4 73.6 28.6-4.2v-11L94.7 68a28 28 0 0 1 .8 5.7"/><radialGradient id="n" cx="94.5" cy="82.1" r="31.8" gradientUnits="userSpaceOnUse"><stop offset="0" stop-color="#fff7b3"/><stop offset="0" stop-color="#fff29e"/><stop offset=".2" stop-color="#ffe873"/><stop offset=".3" stop-color="#ffe051"/><stop offset=".4" stop-color="#ffda39"/><stop offset=".5" stop-color="#ffd62a"/><stop offset=".5" stop-color="#ffd525"/><stop offset=".9" stop-color="#ffd525" stop-opacity="0"/></radialGradient><path fill="url(#n)" d="M95.4 76.7c-.2 6.5-1.3 12-1.3 12l30-6.8v-6.2z"/><radialGradient id="o" cx="65.2" cy="68.5" r="54.9" gradientTransform="matrix(.00617 1 -2.3771 .0147 227.692 2.285)" gradientUnits="userSpaceOnUse"><stop offset=".2" stop-color="#cad7a8"/><stop offset=".3" stop-color="#c5d6aa"/><stop offset=".5" stop-color="#b5d4b0"/><stop offset=".6" stop-color="#9cd1b9"/><stop offset=".7" stop-color="#79cdc6"/><stop offset=".9" stop-color="#4cc7d6"/><stop offset="1" stop-color="#1dc1e8"/></radialGradient><path fill="url(#o)" d="M124.2 79v37.7c0 4.2-3.4 7.6-7.6 7.6H11.3a7.5 7.5 0 0 1-7.5-7.6V78.5z"/><path fill="#fff" d="M35.7 85c-.1 2 1.5 3.5 4.5 3.5h48.1c2.4 0 4.3-1.1 4.2-3.5s-2.5-2.6-4-2.6H39.1c-1.4 0-3.2.3-3.4 2.6m4.5 9.5c0 2.5 2 2.9 4.5 3h19.8l20.1-.1c1.5 0 3.1-1 3-3q.2-2.3-3.4-2.6c-3.6-.3-22.4.1-29 0H43.7c-1.5 0-3.4.9-3.5 2.7m8.5 8.4c0 1.8 1.6 2.5 3.5 2.5l25.4.1c1.8 0 3-1.3 3-2.7s-1.2-2.2-3-2.2l-26-.1c-1.4 0-3 .7-3 2.4"/><path fill="#fff" d="M56.2 107c.2 1.4.7 2.5 3.3 2.5h11.8a2.5 2.5 0 0 0 2.3-2.5c0-2-1.7-2.4-1.7-2.4l-14.2.1s-1.6 1-1.5 2.3"/><path fill="#baf3fa" d="M93.3 92.3c.1 1.8 1 2.9 4.2 3s6.1 0 7.5 0 2.8-1 2.7-3c-.1-2.4-2.1-2.4-3.4-2.5l-8.2-.1c-1.3 0-2.8 1.1-2.8 2.6M17 90.6c0 2 1.6 2.4 3.5 2.5s5.1 0 6.4 0S29 92 29 90.5s-1.2-2.2-3-2.2h-6.7c-1.2 0-2.5 1-2.5 2.2m12.2 4c-2.2.3-2.6 1.7-2.5 2.7s.8 2.3 2.6 2.3 6.2 0 7.5-.2c1.3-.1 1.7-1.4 1.8-2.6s-1-2.1-2.3-2.2c-1.3 0-5.3-.2-7.1 0"/></svg>