<svg xmlns="http://www.w3.org/2000/svg" width="1em" height="1em" viewBox="0 0 128 128"><radialGradient id="notoSunset0" cx="88.195" cy="51.501" r="56.382" gradientTransform="matrix(0 -1 1.8259 0 -5.84 139.696)" gradientUnits="userSpaceOnUse"><stop offset=".158" stop-color="#FEBC45"/><stop offset=".201" stop-color="#F8AE44"/><stop offset=".328" stop-color="#E98B40"/><stop offset=".432" stop-color="#E0763E"/><stop offset=".5" stop-color="#DD6E3D"/><stop offset=".76" stop-color="#C05E5D"/><stop offset=".99" stop-color="#A95E75"/></radialGradient><path fill="url(#notoSunset0)" d="M116.62 124.26H11.32c-4.15 0-7.52-3.37-7.52-7.52V11.44c0-4.15 3.37-7.52 7.52-7.52h105.3c4.15 0 7.52 3.37 7.52 7.52v105.3c.01 4.15-3.36 7.52-7.52 7.52"/><radialGradient id="notoSunset1" cx="25.529" cy="113.093" r="140.58" gradientUnits="userSpaceOnUse"><stop offset=".817" stop-color="#DD6E3D" stop-opacity="0"/><stop offset=".936" stop-color="#B86365" stop-opacity=".651"/><stop offset="1" stop-color="#A95E75"/></radialGradient><path fill="url(#notoSunset1)" d="M116.62 124.26H11.32c-4.15 0-7.52-3.37-7.52-7.52V11.44c0-4.15 3.37-7.52 7.52-7.52h105.3c4.15 0 7.52 3.37 7.52 7.52v105.3c.01 4.15-3.36 7.52-7.52 7.52"/><radialGradient id="notoSunset2" cx="87.87" cy="113.71" r="112.193" gradientUnits="userSpaceOnUse"><stop offset=".411" stop-color="#FD960C"/><stop offset=".61" stop-color="#F2811B" stop-opacity=".662"/><stop offset=".833" stop-color="#EA7028" stop-opacity=".283"/><stop offset="1" stop-color="#E76A2C" stop-opacity="0"/></radialGradient><path fill="url(#notoSunset2)" d="M116.62 124.26H11.32c-4.15 0-7.52-3.37-7.52-7.52V11.44c0-4.15 3.37-7.52 7.52-7.52h105.3c4.15 0 7.52 3.37 7.52 7.52v105.3c.01 4.15-3.36 7.52-7.52 7.52"/><circle cx="91.87" cy="49.17" r="13.26" fill="#FEF7B2"/><path fill="#D17757" d="M121.3 62.39h-19v21.86H60.19V18.84H28.65v65.41h-4.48V49.13H12.34v42.65h9.5v25.44h97.13v-11.11h2.33z"/><path fill="#3F737B" d="M32.41 25.13h2.37v7.59h-2.37zm5.05 0h2.47v7.59h-2.47zm7.81 0h-2.42v7.59l2.36-.02z"/><path fill="#FFE066" d="m50.44 25.13l-2.6.01l.07 7.58h2.51zm-18.03 0h2.37v7.59h-2.37zm5.05 0h2.47v7.59h-2.47zm7.85 0h-2.46v7.59l2.43-.02zm5.13 12l-2.6.01l.07 7.58h2.51zm-18.03 0h2.37v7.59h-2.37zm5.05 0h2.47v7.59h-2.47zm7.85 0h-2.46v7.59l2.43-.02zm-12.9 12h2.37v7.59h-2.37zm5.05 0h2.47v7.59h-2.47zm7.85 0h-2.46v7.59l2.43-.02zm8.05-24l-.01 7.59h2.56v-7.59z"/><path fill="#FFB65A" d="M105.55 81.2h2.88v3.94h-2.88zm5.75 0h2.88v3.94h-2.88z"/><path fill="#FFC55C" d="M105.55 73.83h2.88v3.94h-2.88zm5.75 0h2.88v3.94h-2.88z"/><path fill="#FFD360" d="M105.55 66.83h2.88v3.94h-2.88zm5.75 0h2.88v3.94h-2.88z"/><radialGradient id="notoSunset3" cx="56.989" cy="23.279" r="100.394" gradientUnits="userSpaceOnUse"><stop offset=".51" stop-color="#911F4E"/><stop offset=".934" stop-color="#6D0C36"/></radialGradient><path fill="url(#notoSunset3)" d="M115 49.4c-.36.73 0 42.7 0 42.7H99.13v-24h-5.11v-7.67h-4.53v-6.51h-8.16v6.84h-5.19v7.17h-5.36v34.95h-5.04v-39h2.35v-7.44h-2.35V41.03h-2.65l-3.61-11.16h-7.11L48.8 41.03h-2.79v15.41h-2.48v7.44h2.48v39h-7.18V67.83H17.19V28.47s-13.35-.09-13.39-.05v88.32c0 4.15 3.37 7.52 7.52 7.52h105.3c4.15 0 7.52-3.37 7.52-7.52V49.4z"/><path fill="#FC7143" d="M5.71 116.21h29.97v2.35H5.71z"/><path fill="#FC7444" d="M5.71 107.86h29.97v2.35H5.71z"/><path fill="#FC7C47" d="M5.71 99.21h29.97v2.35H5.71z"/><path fill="#FD894A" d="M5.71 90.86h29.97v2.35H5.71z"/><path fill="#FDA152" d="M5.71 81.21h29.97v2.35H5.71z"/><path fill="#FCB95A" d="M5.71 72.86h29.97v2.35H5.71z"/><path fill="#FEDC61" d="M5.71 63.32h1.76v3.7H5.71zm6 0h1.76v3.7h-1.76zm-6-7.43h1.76v3.7H5.71zm6 0h1.76v3.7h-1.76zm-6-7.43h1.76v3.7H5.71zm6 0h1.76v3.7h-1.76zm-6-7.43h1.76v3.7H5.71zm6 0h1.76v3.7h-1.76zm-6-7.44h1.76v3.7H5.71zm6 0h1.76v3.7h-1.76z"/><path fill="#FECE60" d="M49.8 64.51h2.27v4.76H49.8zm5.38 0h2.27v4.76h-2.27zm5.18 0h2.27v4.76h-2.27z"/><path fill="#FE7A47" d="M49.8 97.7h2.27v4.76H49.8zm5.38 0h2.27v4.76h-2.27zm5.18 0h2.27v4.76h-2.27z"/><path fill="#FCB757" d="M49.8 73.51h2.27v4.76H49.8zm5.38 0h2.27v4.76h-2.27zm5.18 0h2.27v4.76h-2.27z"/><path fill="#FE9C51" d="M49.8 82.51h2.27v4.76H49.8zm5.38 0h2.27v4.76h-2.27zm5.18 0h2.27v4.76h-2.27z"/><path fill="#FDCB61" d="M54.01 53.96h4.66v-6.92s.17-2.6-2.35-2.66c-2.37-.06-2.4 2.6-2.4 2.6s.15 6.98.09 6.98"/><path fill="#FFCF62" d="M79.85 64.16h2.27v9.69h-2.27zm8.51 0h2.27v9.69h-2.27zm-4.21 0h2.27v9.69h-2.27z"/><path fill="#FEB359" d="M76.37 77.58h2.27v3.09h-2.27zm7.82 0h2.27v3.09h-2.27zm7.82 0h2.27v3.09h-2.27z"/><path fill="#FF9A4F" d="M76.37 87.58h2.27v3.09h-2.27zm7.82 0h2.27v3.09h-2.27zm7.82 0h2.27v3.09h-2.27z"/><path fill="#FF844B" d="M76.37 97.03h2.27v3.09h-2.27zm7.82 0h2.27v3.09h-2.27zm7.82 0h2.27v3.09h-2.27z"/><path fill="#FF7942" d="M76.37 107.03h2.27v3.09h-2.27zm7.82 0h2.27v3.09h-2.27zm7.82 0h2.27v3.09h-2.27z"/><path fill="#FC7544" d="M76.37 116.5h2.27v3.09h-2.27zm7.82 0h2.27v3.09h-2.27zm7.82 0h2.27v3.09h-2.27z"/><path fill="#FFF6B2" d="m23.11 49.173l2-.006l.06 18.65l-2 .006zm-7.012-20.687h2v39.39h-2zm86.206 34.865l.006-2l11.86.036l-.006 2z"/><path fill="#FFF6B2" d="m99.13 93.11l-.01-2L114 91.1V48.4l10.16.01l-.01 2l-8.15-.01v42.7zM94.02 67.1h5.11v2h-5.11zm-17.9-7.34h5.19v2h-5.19zm-5.35 7.17h5.36v2h-5.36zm-3.05 35.95h-2v-40h2.35v-5.44h-2.35V42.03h-2.38l-3.88-12l.03-11.18h2l-.03 10.86l.25.74l3.09 9.58h2.92v15.41h2.35v9.44h-2.35z"/><radialGradient id="notoSunset4" cx="91.818" cy="49.529" r="22.854" gradientTransform="matrix(.0364 -1.3108 1.1462 .0376 31.606 168.045)" gradientUnits="userSpaceOnUse"><stop offset=".198" stop-color="#FFF6B2"/><stop offset=".767" stop-color="#FFF6B2" stop-opacity="0"/></radialGradient><ellipse cx="92.29" cy="49.46" fill="url(#notoSunset4)" opacity=".63" rx="28.37" ry="30.07"/></svg>