<svg viewBox="0 0 128 128"><radialGradient id="a" cx="88.2" cy="51.5" r="56.4" gradientTransform="matrix(0 -1 1.8259 0 -5.84 139.696)" gradientUnits="userSpaceOnUse"><stop offset=".2" stop-color="#febc45"/><stop offset=".2" stop-color="#f8ae44"/><stop offset=".3" stop-color="#e98b40"/><stop offset=".4" stop-color="#e0763e"/><stop offset=".5" stop-color="#dd6e3d"/><stop offset=".8" stop-color="#c05e5d"/><stop offset="1" stop-color="#a95e75"/></radialGradient><path fill="url(#a)" d="M116.6 124.3H11.3a7.5 7.5 0 0 1-7.5-7.6V11.4C3.8 7.3 7.2 4 11.3 4h105.3c4.2 0 7.5 3.4 7.5 7.5v105.3c0 4.2-3.3 7.6-7.5 7.6"/><radialGradient id="b" cx="25.5" cy="113.1" r="140.6" gradientUnits="userSpaceOnUse"><stop offset=".8" stop-color="#dd6e3d" stop-opacity="0"/><stop offset=".9" stop-color="#b86365" stop-opacity=".7"/><stop offset="1" stop-color="#a95e75"/></radialGradient><path fill="url(#b)" d="M116.6 124.3H11.3a7.5 7.5 0 0 1-7.5-7.6V11.4C3.8 7.3 7.2 4 11.3 4h105.3c4.2 0 7.5 3.4 7.5 7.5v105.3c0 4.2-3.3 7.6-7.5 7.6"/><radialGradient id="c" cx="87.9" cy="113.7" r="112.2" gradientUnits="userSpaceOnUse"><stop offset=".4" stop-color="#fd960c"/><stop offset=".6" stop-color="#f2811b" stop-opacity=".7"/><stop offset=".8" stop-color="#ea7028" stop-opacity=".3"/><stop offset="1" stop-color="#e76a2c" stop-opacity="0"/></radialGradient><path fill="url(#c)" d="M116.6 124.3H11.3a7.5 7.5 0 0 1-7.5-7.6V11.4C3.8 7.3 7.2 4 11.3 4h105.3c4.2 0 7.5 3.4 7.5 7.5v105.3c0 4.2-3.3 7.6-7.5 7.6"/><circle cx="91.9" cy="49.2" r="13.3" fill="#fef7b2"/><path fill="#d17757" d="M121.3 62.4h-19v21.9H60.2V18.8H28.6v65.5h-4.4V49H12.3v42.7h9.5v25.4H119v-11h2.3z"/><path fill="#3f737b" d="M32.4 25.1h2.4v7.6h-2.4zm5 0H40v7.6h-2.4zm7.9 0h-2.5v7.6h2.4z"/><path fill="#ffe066" d="M50.4 25.1h-2.6l.1 7.6h2.5zm-18 0h2.4v7.6h-2.4zm5 0H40v7.6h-2.4zm8 0h-2.6v7.6h2.5zm5 12h-2.6l.1 7.6h2.5zm-18 0h2.4v7.6h-2.4zm5 0H40v7.6h-2.4zm8 0h-2.6v7.6h2.5zm-13 12h2.4v7.6h-2.4zm5 0H40v7.6h-2.4zm8 0h-2.6v7.6h2.5zm8-24v7.6h2.5v-7.6z"/><path fill="#ffb65a" d="M105.6 81.2h2.8v4h-2.9zm5.7 0h2.9v4h-2.9z"/><path fill="#ffc55c" d="M105.6 73.8h2.8v4h-2.9zm5.7 0h2.9v4h-2.9z"/><path fill="#ffd360" d="M105.6 66.8h2.8v4h-2.9zm5.7 0h2.9v4h-2.9z"/><radialGradient id="d" cx="57" cy="23.3" r="100.4" gradientUnits="userSpaceOnUse"><stop offset=".5" stop-color="#911f4e"/><stop offset=".9" stop-color="#6d0c36"/></radialGradient><path fill="url(#d)" d="M115 49.4c-.4.7 0 42.7 0 42.7H99.1v-24h-5v-7.7h-4.6V54h-8.2v6.9h-5.2V68h-5.3v35h-5V64H68v-7.5h-2.4V41H63l-3.5-11h-7.1l-3.6 11H46v15.4h-2.5V64H46v39h-7.2V68H17.2V28.4H3.8v88.2c0 4.2 3.4 7.6 7.5 7.6h105.3c4.2 0 7.5-3.4 7.5-7.6V49.4z"/><path fill="#fc7143" d="M5.7 116.2h30v2.4h-30z"/><path fill="#fc7444" d="M5.7 107.9h30v2.3h-30z"/><path fill="#fc7c47" d="M5.7 99.2h30v2.4h-30z"/><path fill="#fd894a" d="M5.7 90.9h30v2.3h-30z"/><path fill="#fda152" d="M5.7 81.2h30v2.4h-30z"/><path fill="#fcb95a" d="M5.7 72.9h30v2.3h-30z"/><path fill="#fedc61" d="M5.7 63.3h1.8V67H5.7zm6 0h1.8V67h-1.8zm-6-7.4h1.8v3.7H5.7zm6 0h1.8v3.7h-1.8zm-6-7.4h1.8v3.7H5.7zm6 0h1.8v3.7h-1.8zm-6-7.5h1.8v3.7H5.7zm6 0h1.8v3.7h-1.8zm-6-7.4h1.8v3.7H5.7zm6 0h1.8v3.7h-1.8z"/><path fill="#fece60" d="M49.8 64.5h2.3v4.8h-2.3zm5.4 0h2.2v4.8h-2.2zm5.2 0h2.2v4.8h-2.2z"/><path fill="#fe7a47" d="M49.8 97.7h2.3v4.8h-2.3zm5.4 0h2.2v4.8h-2.2zm5.2 0h2.2v4.8h-2.2z"/><path fill="#fcb757" d="M49.8 73.5h2.3v4.8h-2.3zm5.4 0h2.2v4.8h-2.2zm5.2 0h2.2v4.8h-2.2z"/><path fill="#fe9c51" d="M49.8 82.5h2.3v4.8h-2.3zm5.4 0h2.2v4.8h-2.2zm5.2 0h2.2v4.8h-2.2z"/><path fill="#fdcb61" d="M54 54h4.7v-7s.1-2.6-2.4-2.6C54 44.4 54 47 54 47z"/><path fill="#ffcf62" d="M79.9 64.2H82v9.6h-2.3zm8.5 0h2.2v9.6h-2.2zm-4.3 0h2.3v9.6h-2.3z"/><path fill="#feb359" d="M76.4 77.6h2.2v3h-2.2zm7.8 0h2.3v3h-2.3zm7.8 0h2.3v3H92z"/><path fill="#ff9a4f" d="M76.4 87.6h2.2v3h-2.2zm7.8 0h2.3v3h-2.3zm7.8 0h2.3v3H92z"/><path fill="#ff844b" d="M76.4 97h2.2v3.1h-2.2zm7.8 0h2.3v3.1h-2.3zm7.8 0h2.3v3.1H92z"/><path fill="#ff7942" d="M76.4 107h2.2v3.1h-2.2zm7.8 0h2.3v3.1h-2.3zm7.8 0h2.3v3.1H92z"/><path fill="#fc7544" d="M76.4 116.5h2.2v3h-2.2zm7.8 0h2.3v3h-2.3zm7.8 0h2.3v3H92z"/><path fill="#fff6b2" d="M23.1 49.2h2v18.6h-2zm-7-20.7h2v39.4h-2zm86.2 34.9v-2h11.9v2z"/><path fill="#fff6b2" d="M99.1 93.1v-2H114V48.4h10.2v2H116v42.7zm-5-26h5v2h-5zm-18-7.3h5.2v2h-5.2zm-5.3 7.1H76v2h-5.3zm-3 36h-2v-40H68v-5.5h-2.4V42h-2.4l-3.8-12V19h2v10.8l.2.8 3.1 9.5h3v15.4H70V65h-2.4z"/><radialGradient id="e" cx="91.8" cy="49.5" r="22.9" gradientTransform="matrix(.0364 -1.3108 1.1462 .0376 31.606 168.045)" gradientUnits="userSpaceOnUse"><stop offset=".2" stop-color="#fff6b2"/><stop offset=".8" stop-color="#fff6b2" stop-opacity="0"/></radialGradient><ellipse cx="92.3" cy="49.5" fill="url(#e)" opacity=".6" rx="28.4" ry="30.1"/></svg>