<svg viewBox="0 0 128 128"><path fill="#dcedf5" d="M36.5 12.9c9.1 2.8 11.3 12 10.7 19S42 45.2 38.8 50 30 62.8 28.4 65.9c-3.4 6-2.7 8.8-2.7 8.8s8.7-5 26.4-12c12.9-5 33-5.3 44.6-3.4s18.7 4.7 19.4 5.7-3.7 4.9-1.6 5.7c2.2.9 7-4.3 8.2-3.6 2.1 1-.2 20.3-7.6 32s-22.6 18.5-50.8 18.6c-28 .2-46.1.4-56.2-17.2-7.1-12.5-.6-28.3 5.2-38 6.1-10.3 23-27.1 17.3-29.9-3.8-1.9-9 2.5-9 2.5l-7.7-7.8s-.7-3.4 1.2-7c2.2-4 10-11 21.4-7.4"/><path fill="#fea6a4" d="M13 29s-.8 6.3-4.9 9c-3.7 2.4-3.8 3.6-3.1 4.9 1 1.8 5.6 1.5 8.6-.3s7.5-6.8 7.5-6.8l-3.2-7z"/><path fill="#464b4e" d="M20.4 29.4c1 1.6 2.8 3.8 1.6 6.2-.7 1.5-3.5-1-6.6-4-1-1-4.7-4-2.6-5.5 2.2-1.6 5 .7 5 .7s.6-2.6 2-3.7c1.4-1 3.3-1 4.2 0 1.4 1.3.7 3.4-.5 4.4-1 .9-3.1 2-3.1 2"/><path fill="#68a4af" d="M60.8 92.4c-9.8 0-21.3-3.1-24.1-5.3a1.2 1.2 0 1 1 1.4-1.9c2.6 2 17.8 6 27.8 4.4q5.2-.8 7-3.3c1.5-2.2-1.7-4.5-1.9-4.6q-.7-.6-.4-1.4.4-1 1.3-.7s7 .7 8.3-3c.7-2-1-3-1.3-3q-1-.6-.7-1.5.2-1 1.2-.9s8 .4 8.5-3.2c.2-2-1.4-2.5-1.5-2.5a1.2 1.2 0 1 1 .5-2.4c1.3.4 3.8 1.8 3.4 5.2-.5 3.9-5 5-8 5.2q.9 1.6.1 4c-1.2 3.4-5 4.3-7.8 4.5 1 1.6 1.7 3.6.3 5.6Q72.5 91 66.3 92a37 37 0 0 1-5.5.3"/><path fill="#68a4af" d="M65.7 104.7h-.8c-19-.3-36.6-14.7-37.4-15.3a1.2 1.2 0 0 1 1.6-1.9c.1.2 17.7 14.5 35.8 14.8 13.8.2 21.3-5.3 22.3-8.2.5-1.5-.2-2.4-.2-2.4q-.5-.7-.2-1.4.5-.9 1.2-.6c.1 0 8.2.9 10.3-3.5 1.6-3.6-.8-5.2-.9-5.3a1.2 1.2 0 0 1 1-2.2s6.2 1.5 8.3-2.4q.9-1.5.4-2.5c-.5-1.4-2.2-2.2-2.8-2.4s-1-1-.7-1.6q.5-1 1.5-.7c.1 0 3.3 1.2 4.3 3.8q.8 2.2-.6 4.6c-1.8 3.3-5.4 4-8 4q1 2.1-.4 5.7c-2 4.4-7.6 5-10.7 5q.3 1-.2 2.6c-1.4 4.2-9.7 9.9-23.8 9.9"/></svg>