<svg xmlns="http://www.w3.org/2000/svg" width="1em" height="1em" viewBox="0 0 128 128"><path fill="#2F2F2F" d="M85.97 62.07L68.2 117.71l9.91 2.45l21.26-1.29l-1.03-35.93z"/><path fill="#F19F40" d="M35.74 44.29c-1.32.99-4.51 12.37-12.24 27.95s-17.65 36.2-17.65 36.2s1.16 1.67 15.84 6.96s26.81 7.61 26.81 7.61s32.7-50.9 32.96-52.05c.26-1.16 5.48-22.38 5.48-22.38s-20.81-1.45-29.83-2.22s-19.83-3.23-21.37-2.07"/><path fill="#EC5F32" d="m110.4 118.76l10.98-1.87s-10.13-21.19-15.67-31.88s-15.1-33.38-16-35.05s-4.64-2.45-6.31.52s-15.61 33.56-18.23 38.45c-2.95 5.5-17.61 32.59-17.74 34.01c-.13 1.42 24.68-.93 24.68-.93l6.4-18.85l7.73-33.49l1.29.26l6.18 27.31z"/><path fill="#9C2D1B" d="M79.33 121.12c-.22 1.3-6.76 2.43-10.48 2.51c-3.73.09-10.4.35-11.18-.52c-.78-.87 8.4-9.01 14.3-19.67c5.89-10.66 9.36-18.02 10.22-20.97c.87-2.95 2.6-11.78 3.29-13.26s2.08-1.21 2.51.17c.43 1.39 4.94 18.46 6.5 22.53c1.56 4.07 7.97 12.56 9.88 15.25c1.91 2.69 11.35 9.85 11.52 10.54c.17.69-5.84 2.8-9.93 3.27c-2.93.33-9.76-.18-10.28-1.05c-.52-.87-4.05-23.94-5.35-31.65c-1.3-7.71-3.55-18.02-3.55-18.02s-5.11 24.78-5.81 31.37c-.69 6.59-1.3 17.42-1.64 19.5M4.2 98.52s.73-.76 2.11-.85c1.38-.08 2.6.76 2.6.76l.89 12.82s-1.06.93-2.36.93s-2.52-.68-2.52-.68zm37.26 12.89s1.13-.95 2.86-.95s3.03.87 3.03.87l.09 13s-1.39.78-2.43.78c-1.04 0-2.69-.52-2.69-.52zM119 105.7s.93-1.08 2.58-1s2.55.65 2.55.65l-.78 13.34s-.61.87-2.08.87s-2.77-.69-2.77-.69z"/></svg>