<svg viewBox="0 0 128 128"><path fill="#2f2f2f" d="m86 62-17.8 55.7 10 2.5 21.2-1.3-1-36z"/><path fill="#f19f40" d="M35.7 44.3c-1.3 1-4.5 12.4-12.2 28l-17.6 36s1.1 1.7 15.8 7 26.8 7.6 26.8 7.6 32.7-50.9 33-52l5.4-22.4-29.8-2.2c-9-.7-19.8-3.3-21.4-2.1"/><path fill="#ec5f32" d="m110.4 118.8 11-2s-10.1-21-15.7-31.8-15-33.4-16-35-4.6-2.5-6.3.5S67.8 84 65.2 88.9c-3 5.5-17.6 32.6-17.8 34s24.7-.9 24.7-.9l6.4-18.8 7.7-33.5 1.3.2 6.2 27.3z"/><path fill="#9c2d1b" d="M79.3 121.1c-.2 1.3-6.7 2.5-10.4 2.5-3.8.1-10.5.4-11.2-.5s8.4-9 14.3-19.7 9.3-18 10.2-21c.9-2.9 2.6-11.7 3.3-13.2s2-1.2 2.5.2 5 18.4 6.5 22.5 8 12.6 9.9 15.3 11.3 9.8 11.5 10.5-5.9 2.8-10 3.3c-2.9.3-9.7-.2-10.2-1s-4-24-5.4-31.7l-3.5-18S81.7 95 81 101.6s-1.3 17.4-1.7 19.5M4.2 98.5s.7-.7 2.1-.8 2.6.7 2.6.7l.9 12.9s-1 .9-2.4.9-2.5-.7-2.5-.7zm37.3 13s1-1 2.8-1 3 .8 3 .8l.1 13s-1.3.8-2.4.8-2.7-.5-2.7-.5zm77.5-5.8s1-1 2.6-1 2.5.7 2.5.7l-.7 13.3s-.7.9-2.1.9-2.8-.7-2.8-.7z"/></svg>