<svg xmlns="http://www.w3.org/2000/svg" width="1em" height="1em" viewBox="0 0 128 128"><path fill="#E3EBEE" d="M105.06 18.27c5.46 4.4 7.86 10.66 6.25 16.32c-.9 3.14-2.51 6.04-4.7 8.47c.68 2.8.5 7.38-2.36 12.26a16.695 16.695 0 0 1-7.2 6.77c.26 2.03.15 4.09-.34 6.08c-.18.7-.46 1.37-.82 2c2.15 1.77 5.14 4.92 4.57 9c-.22 1.4-.82 2.71-1.75 3.78a10.52 10.52 0 0 1 .5 8.16c-.06.16-.14.36-.17.45c-.87 2.08-2.13 3.98-3.72 5.58c-.21 1.32-2.57 9.13-6.89 14.22c-10.15 12-21.22 13-22.55 13.16c-8.75 1.34-7.5-6.75.12-15.75c4.38-5 4.76-13.06 3.88-16.9c-4.39-.42-10.16-1.93-12.56-3.4c-3.38-2.08-5.59-3.52-7.35-5.83c-.08-.11-.14-.22-.21-.33c-2.68-.47-5.32-1.16-7.89-2.06c-3.03-1.2-5.56-3.41-7.17-6.25a23.618 23.618 0 0 1-2.3-6.63c-5.7-2.74-9.36-6.51-10.95-9.51c-1.92-3.61-2.56-8.34-2.77-10.64c-1.32-1.13-2.5-2.41-3.52-3.82c-3.61-5.14-3.2-9.55-2.64-11.73C13.73 27 16.93 23.26 22 20.55c6.76-3.61 14.38-5.16 19-5c5.24-4.11 13-5.26 18.52-6.07h.26c8.63-1.06 17.37-.83 25.93.69c8.71 1.71 14.29 4.06 19.35 8.1"/><path fill="#AFC5CC" d="M48 2c2.73.26 6.29 1.4 5.78 3.21c-.45 1.64-4.78 1.36-6.13 1.29a29.2 29.2 0 0 0-17.93 5.15c-2.25 1.63-4.69 2.88-5.87 1.73S25.31 9.11 27 7.65C32.29 3.28 39.27 1.16 48 2M10 69.49C9.37 68.27 7.68 64 9.21 63s3.58 2.69 4.23 3.9c3.29 6.11 9.38 9.79 14.42 11.61c2.64.86 5.8 2.09 5.49 3.66c-.44 1.89-4.85 1.16-7 .62c-6.68-1.64-12.21-5.56-16.35-13.3m102.2 1.29c-1 1-4.56 3.88-5.68 2.61s1.29-4 2.24-5c4.28-4.51 5.65-9.33 6-14.68c.12-2.77 1-5.42 2.29-5.42c1.83 0 2.24 3.06 2.31 5.32c.22 6.86-1.88 12-7.16 17.17m-5.59-27.72a46.264 46.264 0 0 1-23 12.76c-8.15 2-16.5 3.06-24.89 3.18c-1.08 0-3.69 0-3.62-1s3-1.28 3.94-1.44c9.1-1.56 25.68-3 39.77-14.42c11.5-9.33 10.86-18.58 7.35-22.89c3.49 3.06 5.54 7.45 5.64 12.09c-.01 4.25-2.08 8.12-5.19 11.72M32.4 67.37a72 72 0 0 0 21.93 5.46c6.44.35 12.89-.07 19.23-1.27c3.62-.68 5.84-1.08 5.68-2c-.33-1.17-4.09-.82-7-.81c-10.52 0-19.74-.63-29.92-3.62C36.68 63.48 23 58.39 19 49.92c1.37 11.39 9.18 15.37 13.4 17.45m63.49 2.75c-.7.82-5.26 4.92-13.14 7.45a67.192 67.192 0 0 1-18.24 2.89c-.62 0-3.52 0-3.42-.85s1.91-.9 3.5-1.08c5.88-.63 11.65-2.1 17.12-4.35c6.88-2.69 15.09-8.1 15.29-12.09c.45 2.81 0 6.38-1.11 8.03M67.31 91.73c13.33 1 22.11-4.06 22.72-4.5s2.6-1.64 2-2.21c-.46-.4-2.2.34-3 .65c-1 .38-10.77 3-18.65 2.71c-7.63-.32-15.46-2.6-20.59-6.09c2.13 3.32 8.64 7 11.46 8c1.97.72 4.02 1.19 6.1 1.39m32.42-3.3c-1.3 3.15-5.8 6.07-11.58 9.09c-3.14 1.64-8.72 3.55-13 3.59c-.67 0-2.17 0-2.09.78c.06.52 1.36.79 1.88.84c4.68.37 9.38-.28 13.79-1.9c2.3-.97 4.48-2.2 6.51-3.66c0 0 4.09-3.78 4.49-8.74"/><path fill="#AFC5CC" d="M73.11 20.78c-5.14-.34-17.73.5-17.75 5.69c0 4.14 11.28 4.14 11.35 3.09c.11-1.62-3.75-1-3.93-2.72c-.18-1.37 5-2.14 9.27-1.23s8.66 4.7 7.08 7.5c-1.81 3.2-10.09 8.16-26.55 6C41 37.57 28.72 27.25 41 15.58c-.99-.04-1.98.06-2.94.28c-5.16 1-15.9 6.72-12.49 15S43.32 45 58.77 45.06c12.19.09 33.3-4.66 33.3-13.55c.01-5.98-6.39-9.91-18.96-10.73"/><defs><path id="notoTornado0" d="M105.06 18.27c5.46 4.4 7.86 10.66 6.25 16.32c-.9 3.14-2.51 6.04-4.7 8.47c.68 2.8.5 7.38-2.36 12.26a16.695 16.695 0 0 1-7.2 6.77c.26 2.03.15 4.09-.34 6.08c-.18.7-.46 1.37-.82 2c2.15 1.77 5.14 4.92 4.57 9c-.22 1.4-.82 2.71-1.75 3.78a10.52 10.52 0 0 1 .5 8.16c-.06.16-.14.36-.17.45c-.87 2.08-2.13 3.98-3.72 5.58c-.21 1.32-2.57 9.13-6.89 14.22c-10.15 12-20.49 10.19-21.82 10.35c-8.75 1.34-8.23-3.94-.61-12.94c4.38-5 4.76-13.06 3.88-16.9c-4.39-.42-10.16-1.93-12.56-3.4c-3.38-2.08-5.59-3.52-7.35-5.83c-.08-.11-.14-.22-.21-.33c-2.68-.47-5.32-1.16-7.89-2.06c-3.03-1.2-5.56-3.41-7.17-6.25a23.618 23.618 0 0 1-2.3-6.63c-5.7-2.74-9.36-6.51-10.95-9.51c-1.92-3.61-2.56-8.34-2.77-10.64c-1.32-1.13-2.5-2.41-3.52-3.82c-3.61-5.14-3.2-9.55-2.64-11.73C13.73 27 16.93 23.26 22 20.55c6.76-3.61 14.38-5.16 19-5c5.24-4.11 13-5.26 18.52-6.07h.26c8.63-1.06 17.37-.83 25.93.69c8.71 1.71 14.29 4.06 19.35 8.1"/></defs><clipPath id="notoTornado1"><use href="#notoTornado0"/></clipPath><g clip-path="url(#notoTornado1)"><path fill="#AFC5CC" d="M92.88 102c-5.74 5.23-8.5 10.31-14.79 14.3c-4.65 3-14.21 8-18.29 4.94c-1.11-.83-1 6.72 8 6c2.82-.22 5.84-3.66 8.38-4.91c4.08-2 8.2-4 11.61-7s7.24-5.52 7.47-10c1.05-3.72-1.26-4.26-2.38-3.33"/></g><defs><path id="notoTornado2" d="M39.53 109.17h64.94V124H39.53z"/></defs><clipPath id="notoTornado3"><use href="#notoTornado2"/></clipPath><g clip-path="url(#notoTornado3)"><path fill="#B0BEC5" d="M50.41 131.31c2.4.05 4.75-.77 6.59-2.31c1.1 4.27 6 7.49 11.95 7.49s10.6-3.06 11.86-7.18c1.89 2.76 5.67 4.65 10 4.65c6.26 0 11.33-3.87 11.33-8.64s-5-8.55-11.13-8.63c-2.07-2.74-6.18-4.62-10.93-4.64c-4.6 0-8.62 1.68-10.8 4.25c-2.01-1.6-4.52-2.45-7.09-2.4c-4 0-7.46 1.89-8.89 4.57c-.96-.27-1.95-.4-2.94-.4c-4.8 0-8.7 3-8.7 6.63s3.95 6.61 8.75 6.61"/><path fill="none" d="M50.41 131.31c2.4.05 4.75-.77 6.59-2.31c1.1 4.27 6 7.49 11.95 7.49s10.6-3.06 11.86-7.18c1.89 2.76 5.67 4.65 10 4.65c6.26 0 11.33-3.87 11.33-8.64s-5-8.55-11.13-8.63c-2.07-2.74-6.18-4.62-10.93-4.64c-4.6 0-8.62 1.68-10.8 4.25c-2.01-1.6-4.52-2.45-7.09-2.4c-4 0-7.46 1.89-8.89 4.57c-.96-.27-1.95-.4-2.94-.4c-4.8 0-8.7 3-8.7 6.63s3.95 6.61 8.75 6.61" opacity=".2"/></g></svg>