<svg viewBox="0 0 128 128"><path fill="#e3ebee" d="M105 18.3c5.5 4.4 8 10.6 6.3 16.3q-1.4 4.7-4.7 8.5a17 17 0 0 1-2.3 12.2 17 17 0 0 1-7.2 6.8q.3 3-.4 6-.3 1.2-.8 2c2.1 1.8 5.1 5 4.6 9a8 8 0 0 1-1.8 3.9 11 11 0 0 1 .5 8.1l-.2.5q-1.2 3.1-3.7 5.5c-.2 1.4-2.5 9.2-6.9 14.3a34 34 0 0 1-22.5 13.1c-8.8 1.4-7.5-6.7.1-15.7 4.4-5 4.8-13 3.9-17a36 36 0 0 1-12.6-3.3 24 24 0 0 1-7.3-5.9l-.2-.3a50 50 0 0 1-8-2q-4.6-2-7.1-6.3a24 24 0 0 1-2.3-6.6 24 24 0 0 1-11-9.5 30 30 0 0 1-2.7-10.7 22 22 0 0 1-3.5-3.8 14 14 0 0 1-2.7-11.7q1.8-7 9.5-11.1a42 42 0 0 1 19-5c5.2-4.2 13-5.3 18.5-6.1h.3q13-1.5 26 .7c8.6 1.7 14.2 4 19.3 8"/><path fill="#afc5cc" d="M48 2c2.7.3 6.3 1.4 5.8 3.2-.5 1.6-4.8 1.4-6.1 1.3a29 29 0 0 0-18 5.2c-2.2 1.6-4.7 2.8-5.9 1.7S25.3 9 27 7.7A28 28 0 0 1 48 2M10 69.5c-.6-1.2-2.3-5.5-.8-6.5s3.6 2.7 4.2 3.9c3.3 6.1 9.4 9.8 14.5 11.6 2.6.9 5.8 2.1 5.5 3.7-.5 1.9-4.9 1.1-7 .6A25 25 0 0 1 10 69.5m102.2 1.3c-1 1-4.6 3.9-5.7 2.6s1.3-4 2.3-5a22 22 0 0 0 6-14.7c0-2.8 1-5.4 2.3-5.4 1.8 0 2.2 3 2.3 5.3.2 6.9-2 12-7.2 17.2M106.6 43a46 46 0 0 1-23 12.7q-12.2 3-24.9 3.2c-1 0-3.7 0-3.6-1s3-1.3 4-1.4c9-1.6 25.6-3 39.7-14.5 11.5-9.3 10.9-18.5 7.4-22.8 3.5 3 5.5 7.4 5.6 12q-.2 6.4-5.2 11.8M32.4 67.4a72 72 0 0 0 22 5.4 80 80 0 0 0 19.2-1.2c3.6-.7 5.8-1.1 5.6-2-.3-1.2-4-.9-7-.8a101 101 0 0 1-29.9-3.7C36.7 63.5 23 58.4 19 50c1.4 11.4 9.2 15.4 13.4 17.5M95.9 70c-.7.8-5.3 5-13.2 7.5a67 67 0 0 1-18.2 2.9c-.6 0-3.5 0-3.4-.9s1.9-.9 3.5-1q8.8-1 17.1-4.4C88.6 71.5 96.8 66 97 62c.5 2.8 0 6.4-1.1 8M67.3 91.7c13.3 1 22.1-4 22.7-4.5s2.6-1.6 2-2.2c-.4-.4-2.2.4-3 .7-1 .4-10.7 3-18.6 2.7a42 42 0 0 1-20.6-6.1c2.1 3.3 8.6 7 11.4 8q3 1 6.1 1.4m32.5-3.3c-1.3 3.1-5.8 6-11.6 9a33 33 0 0 1-13 3.7c-.7 0-2.2 0-2.1.7 0 .6 1.4.8 1.9.9q7.1.6 13.8-2 3.4-1.3 6.5-3.6s4-3.8 4.5-8.7"/><path fill="#afc5cc" d="M73.1 20.8c-5.1-.4-17.7.5-17.7 5.7 0 4.1 11.2 4.1 11.3 3 .1-1.6-3.7-1-4-2.7-.1-1.3 5-2.1 9.3-1.2s8.7 4.7 7.1 7.5c-1.8 3.2-10 8.2-26.5 6C41 37.6 28.7 27.2 41 15.6q-1.5 0-3 .3c-5.1 1-15.8 6.7-12.4 15S43.3 45 58.8 45C71 45 92 40.4 92 31.5c0-6-6.4-9.9-19-10.7"/><defs><path id="a" d="M105 18.3c5.5 4.4 8 10.6 6.3 16.3q-1.4 4.7-4.7 8.5a17 17 0 0 1-2.3 12.2 17 17 0 0 1-7.2 6.8q.3 3-.4 6-.3 1.2-.8 2c2.1 1.8 5.1 5 4.6 9a8 8 0 0 1-1.8 3.9 11 11 0 0 1 .5 8.1l-.2.5q-1.2 3.1-3.7 5.5c-.2 1.4-2.5 9.2-6.9 14.3-10.1 12-20.5 10.1-21.8 10.3-8.7 1.3-8.2-4-.6-13a21 21 0 0 0 3.9-16.8c-4.4-.5-10.2-2-12.6-3.4a24 24 0 0 1-7.3-5.9l-.2-.3a50 50 0 0 1-8-2q-4.6-2-7.1-6.3a24 24 0 0 1-2.3-6.6 24 24 0 0 1-11-9.5 30 30 0 0 1-2.7-10.7 22 22 0 0 1-3.5-3.8 14 14 0 0 1-2.7-11.7q1.8-7 9.5-11.1a42 42 0 0 1 19-5c5.2-4.2 13-5.3 18.5-6.1h.3q13-1.5 26 .7c8.6 1.7 14.2 4 19.3 8"/></defs><clipPath id="b"><use href="#a"/></clipPath><g clip-path="url(#b)"><path fill="#afc5cc" d="M92.9 102c-5.8 5.2-8.5 10.3-14.8 14.3-4.7 3-14.2 8-18.3 5-1.1-.9-1 6.7 8 6 2.8-.3 5.8-3.7 8.4-5 4-2 8.2-4 11.6-7s7.2-5.5 7.5-10c1-3.7-1.3-4.2-2.4-3.3"/></g><defs><path id="c" d="M39.5 109.2h65V124h-65z"/></defs><clipPath id="d"><use href="#c"/></clipPath><g clip-path="url(#d)"><path fill="#b0bec5" d="M50.4 131.3A10 10 0 0 0 57 129c1.1 4.3 6 7.5 12 7.5s10.6-3 11.8-7.2a12 12 0 0 0 10 4.7c6.3 0 11.3-4 11.3-8.7s-5-8.5-11-8.6a14 14 0 0 0-11-4.6c-4.6 0-8.6 1.6-10.8 4.2a11 11 0 0 0-7.1-2.4c-4 0-7.5 1.9-8.9 4.6q-1.5-.4-3-.4c-4.7 0-8.6 3-8.6 6.6s4 6.6 8.7 6.6"/><path fill="none" d="M50.4 131.3A10 10 0 0 0 57 129c1.1 4.3 6 7.5 12 7.5s10.6-3 11.8-7.2a12 12 0 0 0 10 4.7c6.3 0 11.3-4 11.3-8.7s-5-8.5-11-8.6a14 14 0 0 0-11-4.6c-4.6 0-8.6 1.6-10.8 4.2a11 11 0 0 0-7.1-2.4c-4 0-7.5 1.9-8.9 4.6q-1.5-.4-3-.4c-4.7 0-8.6 3-8.6 6.6s4 6.6 8.7 6.6" opacity=".2"/></g></svg>