<svg viewBox="0 0 128 128"><path fill="#5b9821" d="M32 24.7s2.4-7.3 8.2-12S99 27.9 99 27.9s9.3 3.3 14.8 12.1a28 28 0 0 1 1.8 25.2c-9.3 25-33.5 22.1-39.8 20.7l-10.2-2.6s-16.4 13.6-36.2 3.2C14.3 78.4 16 66.6 16 66.6S6 56.4 10.4 42.3A25 25 0 0 1 32 24.7"/><path fill="#8bc02b" d="M66.4 55c13.7-2.3 18-8.2 21.7-13.6 4.2-6 3-11 6-11.2s5 5 2 14C91.5 57 82.3 59 82.2 62.4c-.2 2.7 9.7 3 18.6-1.4 12.9-6.3 12.9-21 12.9-21s-2.3-4.8-6.8-8-7.7-5.1-7.7-5.1S94 6.9 70 3.6 36 17.1 36 17.1s.9 5.4 5 11.7c3.3 5 6.7 4.9 6.5 7.7-.2 1.9-6.2 2.5-12.5-.2-5.7-2.5-7.2-6-8.7-6S11.7 37.7 17 53c4.3 12.2 18.5 14.5 21 14.9 7.5 1.3 11.8-3.6 6.5-7.5s-11.2-6.1-9.9-10c1.4-4.2 6.4.2 12.3 2.8S60 56 66.4 55"/><path fill="#6d4b41" d="M39 71s3.3-.2 4.7-.6 3.2-1.6 3.2-1.6 12.7 13.4 14 14.5 2.9-15.5 2.9-15.5A21 21 0 0 0 75.4 66L73 80c-.4 2.6-.6 9.5-.6 9.5l-9.3 7.8-7-4.8s-.1-1.9-1.2-3.1C51.7 85.5 39 71 39 71m32.5 22.8 7.1-8.6 4.4.2c1.8 0 5-.4 5-.4s-5.8 7.9-8.9 11.8l-7.2 8.7-3.8-11.2z"/><path fill="#865b50" d="M66.5 87c-2.9.2-10.5 5.6-10.5 5.6s.4 9.1.1 14.3-2.3 13.5-.4 15.7c1.6 1.8 15.2 2.2 17.2 0 2-2.1.1-11 .1-16.7s-.6-16.3-.6-16.3-2.6-3-5.9-2.6"/></svg>