<svg viewBox="0 0 128 128"><path fill="#bdcf47" d="m112.7 59.2 5-2.8c1-.6 4.5-2.8 5.8-.8.8 1.2-.7 4.4-3 7.9-2.2 3-7.1 9.5-7.4 10.8s1.1 6.3 1.5 8.3 1.8 6.7 1.2 8.6-3.4 6.8-10.8 6.7c-5.8 0-7.5-1.8-7.7-2.8l-.5-3.2s-4.8 3-7 4-8.4 4.3-8.4 4.3 1.2 5.3 1.4 7.5.8 5.2-.3 7.3c-1 1.9-4.2 5-11.8 5-6 0-7.4-2-8.4-3-1-1.2-1.1-6.5-1.1-7.6l-.2-5.1-12.9-.8c-4.3-.3-10.1-1-10.1-1l.4 4c.2 1.6.2 4.7-1.3 6.2-2.1 2-7.6 2.2-10.6 2s-7.2-1.9-8.4-4.6.4-6.3 1-8.3c.6-1.9 1.6-4.5 1.3-5.2s-4-1.7-9.3-7-12.2-23.5 3.2-36.2c15.5-12.7 43.9 1.1 45.4 2 1.5 1 53 3.8 53 3.8"/><path fill="#6e823a" d="M66.3 25.3A38 38 0 0 0 32 48s4.8.1 9.2 2.4c5 2.7 10.8 5.6 14.6 18.2 2.9 9.5 4 18.5 11.4 20.5 8.5 2.2 28.2 1.1 37.6-8s11.3-16 8.9-25S100.5 31 85.5 26.7a60 60 0 0 0-19.2-1.5"/><path fill="#484e23" d="m112 51.3-1.4-2.5s0 2-.2 3.2c-.3 1.7-1.3 5.4-1.8 4.8-1-1-5.8-6.9-8-10.2-1.7-2.5-7.6-9.1-7.7-11.3-.1-1 1.2-4.6 1.2-4.6l-2.3-1.3-2.2-1s-.8 4.8-1.6 5.7a46 46 0 0 1-8.9 4c-4.3 1.6-8.4 3.7-10 4-1.3.2-9-1.4-12-2-3.6-.7-9.2-2.2-10.4-3.1a16 16 0 0 1-3.1-3.8l-1.8 1.3c-.9.7-2 2-2 2s2.3 2.4 2.4 3.2c.2 1.2-1.2 2.9-2.4 4.4C39 45.1 37 49 37 49s1 0 2.2.6l2.4 1.1s3-6.9 4.9-7.5c1.6-.5 6.3 1 9.6 1.7 4.8 1 9.7 1.9 10.7 3.2s2 6.7 3 11.2c1 4.9 3.8 17.7 3.2 18.7s-5.7.6-8.6.3C62 78 58 76.5 58 76.5l.8 2.7 1.1 3s5.7 2.5 22.5 1 25-13 27.3-18a38 38 0 0 0 3.6-10.4zm-15.2 22c-4.3 2.6-15.2 5.4-17.2 4.3-1.6-.8-4-13.9-5.1-19.7-.7-3.8-2.4-9.5-1.4-11.2.7-1.2 4.8-3 7.8-4.4a27 27 0 0 1 8.2-3c1.7.2 5.3 6.1 9 11.2s7.7 10.3 7.7 12.1c.1 1.9-4.7 7.9-9 10.6"/><path fill="#2a2b28" d="M41.2 65.9c.5 2.8-1 5.7-4 6-2.7.2-4.7-1.6-5.2-4.4s1.2-5.5 3.7-6 5 1.5 5.5 4.4m-18.4.2c0 2.8-2.4 5.7-5.5 5.1-2.5-.5-4-2.7-3.7-5.5.3-2.9 2.6-5 5.2-4.7s4 2.1 4 5.1m8 10.5c1.1-.8 3-2.7 4.3-1 1.3 1.5-.9 3-2.2 4-1.2.9-4 3.1-6 3.1s-4.9-2.3-6.7-3.9C18.7 77.6 18 76 19 75s2.1-.7 3.2.3c1.3 1.1 3.7 3.4 4.7 3.4s2.4-1 4-2.1"/></svg>