<svg xmlns="http://www.w3.org/2000/svg" width="1em" height="1em" viewBox="0 0 128 128"><path fill="#BDCF47" d="M112.7 59.21s3.94-2.21 4.93-2.77c.99-.56 4.6-2.82 5.91-.84c.77 1.16-.7 4.44-3.05 7.86c-2.14 3.13-7.12 9.56-7.4 10.83c-.28 1.27 1.11 6.36 1.53 8.33c.42 1.97 1.74 6.71 1.17 8.54s-3.43 6.85-10.75 6.76c-5.82-.07-7.51-1.78-7.7-2.82c-.14-.75-.56-3.24-.56-3.24s-4.79 2.96-7.04 4.08s-8.31 4.22-8.31 4.22s1.17 5.35 1.36 7.51c.19 2.16.86 5.25-.28 7.32c-1.03 1.88-4.25 5.02-11.83 4.97c-5.92-.04-7.41-1.88-8.35-3c-.94-1.13-1.13-6.48-1.13-7.6s-.19-5.07-.19-5.07s-8.02-.4-12.86-.75c-4.38-.32-10.16-.99-10.16-.99s.21 2.33.42 4.01c.19 1.5.23 4.64-1.34 6.17c-2.11 2.06-7.56 2.21-10.56 1.92c-3-.28-7.18-1.83-8.4-4.55c-1.22-2.72.38-6.29 1.03-8.35c.58-1.81 1.6-4.41 1.22-5.16c-.38-.75-4.04-1.69-9.29-6.95c-5.26-5.26-12.13-23.52 3.28-36.23c15.49-12.76 43.81 1.1 45.31 2.04c1.54.96 53.04 3.76 53.04 3.76z"/><path fill="#6E823A" d="M66.25 25.28c-13.93.62-24.38 7.52-29.57 15.06c-3.1 4.5-4.65 7.74-4.65 7.74s4.81.14 9.15 2.46c5 2.67 10.8 5.56 14.61 18.13c2.87 9.5 3.98 18.53 11.44 20.52c8.45 2.25 28.16 1.13 37.59-8.02s11.26-16.05 8.87-25.06s-13.17-25.05-28.16-29.28C79.06 25 72.58 25 66.25 25.28z"/><path fill="#484E23" d="M111.93 51.32c-.42-.99-1.3-2.5-1.3-2.5s-.07 2.05-.25 3.13c-.28 1.76-1.25 5.42-1.81 4.88c-1-.97-5.73-6.92-7.98-10.23c-1.71-2.52-7.6-9.11-7.74-11.26c-.07-1.06 1.27-4.65 1.27-4.65s-1.22-.7-2.35-1.34c-.88-.49-2.16-1.03-2.16-1.03s-.77 4.9-1.62 5.82c-.75.81-5.32 2.6-8.87 3.94c-4.29 1.62-8.45 3.73-10 4.01c-1.36.25-9.09-1.41-12-1.97c-3.66-.7-9.18-2.26-10.45-3.17c-1.48-1.06-3.07-3.78-3.07-3.78s-.89.61-1.78 1.31c-.88.69-2.02 2.06-2.02 2.06s2.31 2.32 2.44 3.18c.18 1.2-1.27 2.83-2.46 4.38c-.72.93-2.75 4.85-2.75 4.85s.97.09 2.15.63c1.23.57 2.38 1.16 2.38 1.16s2.97-6.9 4.9-7.53c1.65-.54 6.3.99 9.68 1.69c4.79.99 9.64 1.87 10.66 3.17c1.06 1.34 2.06 6.68 3.03 11.19C70.89 64.2 73.64 77.02 73 78c-.63.99-5.7.63-8.59.28c-2.45-.3-6.41-1.76-6.41-1.76s.58 2.11.77 2.67c.28.81 1.16 3.06 1.16 3.06s5.67 2.5 22.42.95s25.03-12.96 27.38-18.02c3.14-6.78 3.54-10.39 3.54-10.39s-.92-2.48-1.34-3.47zM96.65 73.21c-4.24 2.67-15.2 5.49-17.18 4.43c-1.58-.85-3.94-13.94-5.07-19.78c-.72-3.74-2.45-9.42-1.41-11.19c.7-1.2 4.79-2.99 7.81-4.4c2.87-1.33 6.97-3.13 8.17-2.99c1.7.2 5.35 6.12 9.01 11.19c3.66 5.07 7.67 10.35 7.74 12.18c.09 1.84-4.7 7.82-9.07 10.56z"/><path fill="#2A2B28" d="M41.18 65.86c.5 2.83-.95 5.75-4.07 6.02c-2.56.22-4.59-1.57-5.09-4.4s1.14-5.49 3.68-5.94c2.52-.45 4.98 1.48 5.48 4.32zm-18.36.25c.07 2.84-2.42 5.69-5.5 5.11c-2.53-.48-3.99-2.73-3.71-5.55c.29-2.82 2.59-4.9 5.15-4.65s3.99 2.13 4.06 5.09zm7.95 10.48c1.16-.79 3.1-2.67 4.36-1.06c1.27 1.62-.92 3.1-2.18 4.01c-1.27.92-4.08 3.17-6.12 3.17c-1.9 0-4.79-2.32-6.62-3.87c-1.49-1.26-2.18-2.89-1.34-3.87s2.14-.62 3.24.35c1.27 1.13 3.72 3.38 4.72 3.38c.98.01 2.39-1.05 3.94-2.11z"/></svg>