<svg viewBox="0 0 128 128"><path fill="#f5c876" d="M95.4 98.1c-23-1.4-29.2-6.9-52.4-6.9S3.8 96.7 3.8 96.7s-.5 27.2 0 27.8 120 .2 120.5-.6V96.7s-6.3 2.8-29 1.4"/><path fill="#f2a159" d="M18.5 110.5c0 4.4 13 3.7 32 4 17 .3 33 3 48.3 3.5 10.5.3 19.6-1.4 20.2-2.5 2.5-4.5-26.7-13.1-52.8-14.9s-47.7 5-47.7 10"/><path fill="#4ea4b0" d="m72.3 20.2-4.5-2.1-9 35.7-13.6 50.4c-.7 3.1-.6 5 2 5.6s3.6-2 4.2-4l13.2-47.5z"/><path fill="#ee5948" d="M70.9 13s-23-6.4-43.4 3.6C11.1 24.6 5 36.6 5.8 37c1.2.8 5.1.5 8.3 3.6s5 8.1 6.3 8.6 7-1.4 13.1 2.1 8.4 9.7 9.7 10.3 8.4-3.5 17-.5c7.8 2.6 12.8 8 14 8.3 1 .3 6.5-4.4 15.5-3.6s11.4 3.6 12.5 4 2.7-4.4 8-5 6.7.7 8 1 1.2-16.7-16-34.3A80 80 0 0 0 70.9 13"/><path fill="#fefefe" d="M71.2 15.4s-14.9-3.3-31 8.3c-13.3 9.5-18.3 20.2-18 21 .3.7 6 .2 11.7 3s8.8 9.3 9.5 8.4c.9-1.1 4.1-13.6 9.5-22.4 10-16.5 18-17.5 18-17.5s7 4.4 7.6 23.7c.3 10.6-2.4 23.9-2.1 25.4.1.6 4.7-3 12.3-2.6 7 .3 12.3 3.3 13.2 3.2S101 47.6 93 34.5c-9-14.7-22-19.1-22-19.1"/><path fill="#4ea4b0" d="M74 5.4c-3-.7-3.7 3.8-4.5 6.3-.3 1-1.7 5.2 1.2 6.2 2.4.7 3.3-2.5 4-5 .8-2.3 2.4-6.7-.7-7.5"/></svg>