<svg xmlns="http://www.w3.org/2000/svg" width="1em" height="1em" viewBox="0 0 128 128"><path fill="#E74B8C" d="M51.09 24.81s-10.98-2.51-19.9 1.24c-8.36 3.52-9.55 10.23-8.8 14.08s3.17 7.22 8.02 7.53c3.31.21 4.43-1.69 3.97-2.49c-.24-.41-3.75-2.63-2.14-5.4c1.35-2.31 5.9-.18 7.2 1.83c1.22 1.88 2.82 4.6 2.82 4.6s13.8-5.91 13.51-6.29s-4.68-15.1-4.68-15.1"/><path fill="#FCD817" d="m50.43 32.51l-4.32-3.85l-7.08 8.59l4.03 6.28l10.28-4.5z"/><path fill="#EF7FAD" d="M28.85 36.26c-.54 1.59-.06 4.14-2.06 4.36c-2.06.23-3.55-2.26-2.3-6.24c1.08-3.43 5.34-5.47 6.99-2.67c1.21 2.06-1.65 1.64-2.63 4.55"/><path fill="#BBD047" d="M38.84 21.01c-.28.47-5.16 7.65-5.16 7.65l4.69 7.46L44 33.26l1.17-5.68z"/><path fill="#62A5A8" d="m33.49 15.52l-4.27 5.39l4.18 7.28l3.89-1.93l1.79-5.11z"/><path fill="#38B2E8" d="m27.67 9.65l-2.95 3.1l4.36 7.84l2.49-1.83l1.73-3.48z"/><path fill="#A37BCB" d="M22.04 5.76c-1.01 1.01 2.67 6.95 2.67 6.95s2.72-3.1 2.72-3.28c.01-.2-4.22-4.85-5.39-3.67"/><path fill="#A364B2" d="M45.18 27.2c1.36-.38 2.3 2.16 1.08 4.74c-1.09 2.3-2.67 4.08-4.79 5.26c-1.05.58-2.63 1.22-3.24.09c-.66-1.21.09-1.83 1.41-2.77c1.21-.87 2.44-2.16 3.14-3.38s1.38-3.66 2.4-3.94m-6.48-6.8c1.1-.32 1.92 1.88.93 4.09c-.88 1.97-1.97 3.54-3.67 4.55c-.84.5-2.12 1.05-2.61.08c-.53-1.04-.03-1.77 1.03-2.58c.98-.74 1.83-2.1 2.39-3.14c.57-1.04 1.11-2.76 1.93-3m-5.61-6c.91.25 1.55 1.86.73 3.51c-.73 1.47-1.44 2.25-2.86 3c-.71.37-1.53.84-1.98.28c-.57-.7-.78-1.7.11-2.3c.82-.55 1.74-1.22 2.35-2.39c.41-.81.81-2.33 1.65-2.1m-6.02-5.56c.62-.15 1.38 1.15.83 2.19c-.49.93-1.12 1.52-2.08 2c-.47.24-1 .38-1.28-.07c-.3-.49-.58-.83.02-1.21c.55-.35 1.32-1.14 1.64-1.64c.32-.49.41-1.15.87-1.27"/><path fill="#DFDFDF" d="M50.28 119.9c-1.01-.67 4-18.09 5.97-22.73c1.97-4.65 3.14-8.54 3.14-8.54s-9.43 1.45-15.53 1.5c-4.65.04-11.4-.56-11.4-.56L18.94 71.83s3.8-6.9 6.05-9.71c2.25-2.82 9.01-11.97 12.39-15.2c3.38-3.24 8.02-6.62 10-7.46c1.97-.84 3.24-1.41 3.24-1.41s-.99-6.05-.56-9.85c.42-3.8 5.81-14.41 6.66-14.41c1.13 0 6.01 7.23 6.99 12.15c.99 4.92 11.69 18.72 11.69 18.72l31.25 59.13s.56 15.77.42 16.33c-.14.56-17.46 2.96-28.02 2.96s-27.92-2.61-28.77-3.18"/><path fill="#B0B0B0" d="M71.57 69.38c-1.04-.05-4.01 5.9-6.99 10.28c-2.51 3.68-5.45 5.45-8.59 7.09c-3.24 1.69-8.05 2.79-6.41 3.12c1.64.33 11.43-.76 14.71-2.14c1.85-.77 4.43-4.58 5.75-7.11c1.32-2.53 3.69-11.15 1.53-11.24"/><path fill="#303030" d="M53.79 57.94c.21 3.1-.92 5.77-4.15 5.98c-2.28.15-3.99-2.16-4.28-4.98c-.23-2.2.69-5.04 3.7-5.46c2.83-.4 4.53 1.63 4.73 4.46"/><path fill="#E74B8C" d="M63.57 25.98s8.49 3.82 11.76 3.1c2.53-.56 3.41-2.39 3.52-4.22c.14-2.46-2.04-2.18-2.39-3.17s2.25-2.75 5.28-2.18c3.03.56 6.64 3.36 6.57 7.86s-2.84 6.92-2.84 6.92s7.3-.35 12.18 4.65c5.49 5.63 4.29 14.85 4.29 14.85s2.89.42 3.94-1.06s.77-3.17.07-4.15c-.7-.99 1.34-1.62 2.67-1.06c1.34.56 7.52 4.99 4.16 12.14c-2.08 4.44-7.33 5.11-7.33 5.11s8.8 3.89 12.02 13.7c3.54 10.8-.33 17.98-4.34 24.87c-4.01 6.9-3.65 7.31-3.87 9.57c-.28 2.82-1.13 6.34-2.18 6.26c-1.06-.07-2.32-3.03-2.96-6.26c-.63-3.24-4.58-6.41-7.74-9.29S85.28 93.13 83 86.17c-2.89-8.8-1.41-21.05-1.41-21.05S72.86 61.11 68 53.08c-5.26-8.69-4.79-15.06-4.79-15.06s1.34-3.8 1.41-6.41s-1.05-5.63-1.05-5.63"/><path fill="#F081AF" d="M77.3 32.04c.61 2.62 5.42 1.27 6.34-3.17s-1.62-6.41-3.1-5.56c-1.48.84.35 3.1-.63 5s-3.11 1.61-2.61 3.73m24.4 25.56c-.84 2.56 3.55 3.45 6.99.69c3.53-2.84 2.53-7.04.49-6.83c-2.59.27-1.49 3.2-3.32 4.31c-1.83 1.12-3.48-.22-4.16 1.83M71.74 35.34c-3.38-.42-3.85 6.17-1.76 10.7c3.31 7.18 8.8 5.84 12.6 10.49c2.94 3.6 2.25 8.24 5.28 8.17c3.03-.07 3.8-5.14-.84-11.33c-4.65-6.19-10.49-6.19-12.25-9.92c-1.77-3.74.91-7.61-3.03-8.11m17.17 31.89c-3.87 2.21-1.11 7.22.99 7.67c2.96.63 4.29-1.34 4.65-3.31s-1.7-6.61-5.64-4.36m2.96 11.9c-3.06.5-2.72 3.57-2.18 6.69c.92 5.35 3.73 10.49 7.04 13.23c3.2 2.65 5 1.83 5.91.77c1.08-1.24.07-3.45-1.2-4.93c-1.27-1.48-2.91-3.38-4.01-5c-1.34-1.97-1.5-4.53-1.76-5.98c-.49-2.81-.78-5.28-3.8-4.78"/><path fill="#FFF" d="M11.34 93.28c3.1 5.85 10.35 4.36 10.35 4.36s6.83-3.1 6.83-3.31c0-.21 4.5-5.91 4.5-5.91s-1.2-5.14-5.84-10.77c-3.67-4.44-7.53-6.62-7.53-6.62l-8.45 7.6s-4.22 6.41.14 14.65"/><path fill="#90909B" d="M16.9 77.86c-.49 1.83 1.13 2.53 1.69 3.17c.56.63-.77 3.31 1.13 4.01c1.9.7 4.08-2.46 3.38-5.21c-.76-2.94-5.46-4.71-6.2-1.97"/><path fill="#AFAFAF" d="M20.49 70.8c-.49-.94-1.57-.47-2.63.52c-1.06.99-7.04 5.35-8.73 9.34c-1.24 2.93-2.13 8.58 1.09 13.18c3.34 4.78 6.34 5.24 10.91 4.86c6.69-.56 10.39-6.05 11.1-6.97s2.25-2.91 1.41-3.89c-.84-.99-1.63.44-2.72 1.92c-1.41 1.9-2.53 3.05-3.94 4.32c-.82.74-3.17 2.02-4.15 2.23c-.99.21 1.95-1.48 3.1-3.45c.78-1.33 2.39-4.5 2.39-4.5l-2.75-.84s-1.34 2.91-2.39 4.18c-1.06 1.27-4.36 4.13-5.35 4.34c-.99.21-4.72-1.45-6.38-4.43c-1.6-2.86-1.85-6.97-.23-10.21c1.62-3.24 5.7-6.55 6.97-7.53c1.25-1.01 2.93-1.87 2.3-3.07"/><path fill="#90909B" d="M28.52 85.63c-.76-.66-2.02-.19-2.67.7c-.66.89-.89 1.92.42 2.63c1.31.7 2.16-.05 2.77-.89c.6-.85.18-1.83-.52-2.44"/></svg>