<svg viewBox="0 0 128 128"><path fill="#e74b8c" d="M51 24.8S40.2 22.3 31.3 26c-8.4 3.6-9.6 10.3-8.8 14.1s3.2 7.2 8 7.6c3.3.2 4.4-1.7 4-2.5-.3-.4-3.8-2.7-2.2-5.4 1.4-2.3 6-.2 7.2 1.8l2.9 4.6s13.8-6 13.5-6.3S51 25 51 25"/><path fill="#fcd817" d="m50.4 32.5-4.3-3.8-7 8.5 4 6.3L53.3 39z"/><path fill="#ef7fad" d="M28.9 36.3c-.6 1.6-.1 4.1-2.1 4.3s-3.6-2.2-2.3-6.2c1-3.5 5.3-5.5 7-2.7 1.2 2-1.7 1.6-2.6 4.6"/><path fill="#bbd047" d="M38.8 21c-.2.5-5.1 7.7-5.1 7.7l4.7 7.4 5.6-2.8 1.2-5.7z"/><path fill="#62a5a8" d="M33.5 15.5 29.2 21l4.2 7.3 3.9-2 1.8-5z"/><path fill="#38b2e8" d="m27.7 9.7-3 3 4.4 7.9 2.5-1.8 1.7-3.5z"/><path fill="#a37bcb" d="M22 5.8c-1 1 2.7 7 2.7 7s2.7-3.2 2.7-3.4-4.2-4.8-5.4-3.6"/><path fill="#a364b2" d="M45.2 27.2c1.3-.4 2.3 2.2 1 4.7q-1.5 3.5-4.7 5.3c-1 .6-2.7 1.2-3.3 0s.1-1.7 1.4-2.7q2-1.4 3.2-3.4c1.2-2 1.4-3.6 2.4-3.9m-6.5-6.8c1.1-.3 2 1.9 1 4q-1.3 3-3.7 4.6c-.9.5-2.2 1-2.7.1q-.6-1.4 1-2.6c1-.7 2-2 2.5-3.1.5-1 1-2.8 1.9-3m-5.6-6c.9.2 1.5 1.9.7 3.5a6 6 0 0 1-2.8 3c-.8.4-1.6.8-2 .3q-1-1.2 0-2.3 1.5-.7 2.4-2.4c.4-.8.8-2.3 1.7-2.1m-6-5.6c.6-.1 1.3 1.2.8 2.2q-.7 1.4-2 2-.9.5-1.4 0-.6-.7 0-1.3 1-.6 1.7-1.6.3-.9.9-1.3"/><path fill="#dfdfdf" d="M50.3 119.9c-1-.7 4-18 6-22.7s3-8.6 3-8.6S50 90.1 44 90.1a147 147 0 0 1-11.4-.5L18.9 71.8s3.8-6.9 6-9.7S34 50.1 37.5 47s8-6.6 10-7.4l3.2-1.4s-1-6.1-.5-9.9 5.8-14.4 6.6-14.4c1.1 0 6 7.2 7 12.1a90 90 0 0 0 11.7 18.8l31.3 59s.5 15.9.4 16.4-17.5 3-28 3-28-2.6-28.8-3.2"/><path fill="#b0b0b0" d="M71.6 69.4c-1 0-4 5.9-7 10.3a21 21 0 0 1-8.6 7c-3.3 1.7-8 2.8-6.4 3.2S61 89 64.3 87.7c1.8-.7 4.4-4.5 5.7-7s3.7-11.2 1.6-11.3"/><path fill="#303030" d="M53.8 58c.2 3-1 5.7-4.2 6-2.2 0-4-2.2-4.2-5-.3-2.3.7-5.1 3.7-5.5 2.8-.4 4.5 1.6 4.7 4.4"/><path fill="#e74b8c" d="M63.6 26s8.5 3.8 11.7 3c2.6-.5 3.4-2.3 3.6-4.1 0-2.5-2-2.2-2.4-3.2s2.2-2.8 5.2-2.2 6.7 3.4 6.6 7.9-2.8 6.9-2.8 6.9 7.3-.4 12.1 4.6c5.5 5.7 4.3 14.9 4.3 14.9s3 .4 4-1 .8-3.2 0-4.2c-.7-1 1.4-1.6 2.7-1 1.4.5 7.5 5 4.2 12-2.1 4.5-7.3 5.2-7.3 5.2s8.8 3.9 12 13.7c3.5 10.8-.4 18-4.4 24.8-4 7-3.6 7.4-3.8 9.6-.3 2.8-1.2 6.4-2.2 6.3s-2.3-3-3-6.3c-.6-3.2-4.6-6.4-7.7-9.3S85.3 93.1 83 86.2c-2.9-8.8-1.4-21-1.4-21S72.9 61.1 68 53c-5.3-8.7-4.8-15-4.8-15s1.3-3.9 1.4-6.5-1-5.6-1-5.6"/><path fill="#f081af" d="M77.3 32c.6 2.7 5.4 1.3 6.3-3.1s-1.6-6.4-3-5.6c-1.5.8.3 3.1-.7 5S76.8 30 77.3 32m24.4 25.6c-.8 2.6 3.6 3.4 7 .7 3.5-2.9 2.5-7 .5-6.8-2.6.2-1.5 3.2-3.3 4.3-1.9 1-3.5-.3-4.2 1.8m-30-22.3C68.4 35 68 41.5 70 46c3.3 7.2 8.8 5.9 12.6 10.5 3 3.6 2.2 8.3 5.3 8.2s3.8-5.1-.9-11.3c-4.6-6.2-10.5-6.2-12.2-10-1.8-3.7.9-7.6-3-8m17.1 31.8c-3.9 2.2-1.1 7.3 1 7.7 3 .6 4.3-1.3 4.6-3.3S92.8 65 89 67.2m3 12c-3 .4-2.8 3.5-2.2 6.6a23 23 0 0 0 7 13.3c3.2 2.6 5 1.8 6 .7s0-3.4-1.3-5-2.9-3.3-4-5C96.1 88 96 85.5 95.7 84c-.5-2.8-.8-5.3-3.8-4.8"/><path fill="#fff" d="M11.3 93.3c3.1 5.8 10.4 4.3 10.4 4.3s6.8-3 6.8-3.3 4.5-5.9 4.5-5.9-1.2-5.1-5.8-10.8c-3.7-4.4-7.6-6.6-7.6-6.6l-8.4 7.6S7 85 11.3 93.3"/><path fill="#90909b" d="M16.9 77.9c-.5 1.8 1.1 2.5 1.7 3.1s-.8 3.3 1.1 4 4.1-2.4 3.4-5.2c-.8-3-5.5-4.7-6.2-2"/><path fill="#afafaf" d="M20.5 70.8c-.5-1-1.6-.5-2.6.5s-7 5.4-8.8 9.4C8 83.6 7 89.2 10.2 93.8c3.4 4.8 6.4 5.3 11 4.9 6.6-.6 10.3-6 11-7s2.3-2.9 1.4-3.9-1.6.5-2.7 2c-1.4 1.9-2.5 3-4 4.3-.7.7-3 2-4 2.2s1.9-1.5 3-3.4l2.4-4.5-2.7-.9s-1.4 3-2.4 4.2-4.4 4.1-5.4 4.3-4.7-1.4-6.4-4.4c-1.6-2.8-1.8-7-.2-10.2s5.7-6.5 7-7.5 3-1.9 2.3-3.1"/><path fill="#90909b" d="M28.5 85.6c-.7-.6-2-.2-2.7.7-.6 1-.8 2 .5 2.7s2.1 0 2.7-1q.7-1.3-.5-2.4"/></svg>