<svg viewBox="0 0 128 128"><radialGradient id="a" cx="66.7" cy="64.8" r="52.9" gradientUnits="userSpaceOnUse"><stop offset=".2" stop-color="#e79f68"/><stop offset=".3" stop-color="#e6a272"/><stop offset=".5" stop-color="#e3ab8d"/><stop offset=".5" stop-color="#e2af9b"/><stop offset=".8" stop-color="#e1d1cc"/><stop offset=".9" stop-color="#e0e0e0"/></radialGradient><path fill="url(#a)" d="M74.1 63.5S74 52 79.6 45.2s13-12 17.7-15.3 11.2-7.3 10.4-13.2S102.3 7 82.4 7 48.8 8.8 36 15.5s-7.3 15.3-2 16.8c5 1.3 11 1.7 15.9 6.9 8.7 9.3 7.8 23.6 7.8 23.6z"/><path fill="#717578" d="M41.4 68.1s-15.6 21.6-19.7 27-12.5 14-12 15 7 3.7 7 3.7 32.5 4.7 35 4.7 55.9-15.2 55.9-15.2-18.7-40-24.7-37.6S41.3 68 41.3 68"/><path fill="#474b4e" d="M66.8 81s-4.7 4-6.9 6.2-8.2 7.1-7.5 8c.7.6 10-3.6 10.9-4 .8-.5 11-4.2 11.7-3.3s-2.3 3.2-3.3 4.7c-1 1.3-17.2 17.6-21 18.6-2.8.8-19.5 1.7-20 .3s6-10.6 4.3-12-8.3 3-12.3 5.4-10 5.2-11 5.4-2-.2-2-.2-.2 1.8 8.2 5.6c6.7 3.1 12.2 6 30.5 7.7s31.3.1 39-1a145 145 0 0 0 25.4-7c3.6-1.7 6.5-3.4 6.1-4.6-.1-.4-21.4-28.6-21.4-28.6L86 65.2z"/><radialGradient id="b" cx="65.4" cy="44.8" r="50.2" gradientTransform="matrix(0 1 -1.4561 0 130.608 -20.59)" gradientUnits="userSpaceOnUse"><stop offset=".4" stop-color="#cb2d30"/><stop offset=".5" stop-color="#d23730"/><stop offset=".7" stop-color="#e45231"/><stop offset=".7" stop-color="#ea5b31"/><stop offset=".8" stop-color="#ea6032"/><stop offset=".9" stop-color="#ec6f36"/><stop offset="1" stop-color="#ed823a"/></radialGradient><path fill="url(#b)" d="M53.4 53c-4.3.7-5.8 5.5-10.2 11.1l-6 7c-1.3 1.6-3.1 5-1.3 6s4.6-1.9 5.3-3.5 1.9-3.2 3-2.1 1 3-1.6 5.3c-2.7 2.3-5.9 4.9-5.6 7.2s1.9 3 3.7 2.5 6.1-5.6 7.8-8 4.3-6.8 6-6.8 1.8 3.8-1.7 8c-4.2 4.8-6.2 6.5-11 11-5.1 4.5-4.5 6.1-3.6 7s3.5 1.2 7.1-2c3.7-3.1 8.9-9 11.1-11.7 2.3-2.6 4.3-5.4 6.6-5.3s1.8 2.5 2 3.6c.4 1.1.4 3.2 3.1 3.2s4.3-2.8 5.2-5 .8-5.3 2.6-5.6 2 1.5 3.5 4.3c1.4 2.9 6.9 14.7 8.2 16.8s2.9 6 7.3 4.7-1.3-9.5-2.6-11.5-5.3-8.9-6.8-13.4-1.5-6-.5-6.8 2.6 1.4 4.8 5.4 4 7.8 5.8 9.3 3.2 1.4 4 .7 1-3.2-1-5.2-4.1-4.6-6.2-7.7c-2.3-3.4-5.6-8.9-7.4-12s-2.8-5.3-5.3-5.7c-3.2-.5-5.4 1.9-7.2 3.1s-4.3 2-6.8 1.8-5.8-2.8-7.1-4a6 6 0 0 0-5.3-1.6"/><path fill="#ec5f32" d="M55.6 57.1s1.7.4 2.9 1.3 4.3 3.4 8.3 3.4 6.1-2 7.7-3 3.1-.7 3.1-.7S75 68.6 67 69c-10.5.4-11.4-11.8-11.4-11.8"/><radialGradient id="c" cx="103" cy="55.5" r="12.2" gradientUnits="userSpaceOnUse"><stop offset="0" stop-color="#cb2d30"/><stop offset=".3" stop-color="#d23730"/><stop offset=".9" stop-color="#e45231"/><stop offset="1" stop-color="#ea5b31"/></radialGradient><path fill="url(#c)" d="M105.2 58.5c-1.4.2-.7 2.3-.5 7.3s.2 7 2.6 7c2.9 0 2-6.2 1.4-8-.5-2-1.7-6.5-3.5-6.3"/><radialGradient id="d" cx="101.4" cy="32.5" r="15.7" gradientUnits="userSpaceOnUse"><stop offset=".3" stop-color="#cb2d30"/><stop offset=".5" stop-color="#d23730"/><stop offset=".9" stop-color="#e45231"/><stop offset="1" stop-color="#ea5b31"/></radialGradient><path fill="url(#d)" d="M104.9 34.5c-.7 1.2 1.4 2.7 3.3 4.9 1.2 1.5 3 5.2 5.7 5.5s2.8-2.8 1.6-4.6a17 17 0 0 0-5.9-4.7c-2.4-1.3-4.2-2.1-4.7-1.1"/><radialGradient id="e" cx="71.1" cy="28" r="23.7" gradientUnits="userSpaceOnUse"><stop offset="0" stop-color="#cb2d30"/><stop offset=".3" stop-color="#d23730"/><stop offset=".9" stop-color="#e45231"/><stop offset="1" stop-color="#ea5b31"/></radialGradient><path fill="url(#e)" d="M72 22q1.2.6 1.8-1.1a24 24 0 0 1 7.8-8.8c3.7-2.5 5.4-2.5 7.3-3.3 1.1-.4 2.1-2.2 1.6-3.5q-.8-2-3.6-1.5c-1.2.2-5.5 1.3-9.8 6-5.3 5.7-5.6 9.6-5.7 10.3s-.2 1.6.6 2"/><radialGradient id="f" cx="65.9" cy="27.2" r="19.1" gradientUnits="userSpaceOnUse"><stop offset=".4" stop-color="#cb2d30"/><stop offset=".6" stop-color="#d23730"/><stop offset=".9" stop-color="#e45231"/><stop offset="1" stop-color="#ea5b31"/></radialGradient><path fill="url(#f)" d="M61.8 22.7c-1.4.4-2.7-1.7-5.2-4.3-2.6-2.7-4.9-3-6.2-4.6s-1-3.5.1-4.4 3-1.1 4.8.2 4 3.8 5.6 7.3c.8 1.9 2.2 5.4.9 5.8"/><radialGradient id="g" cx="31.9" cy="30.1" r="16.6" gradientUnits="userSpaceOnUse"><stop offset=".3" stop-color="#cb2d30"/><stop offset=".5" stop-color="#d23730"/><stop offset=".9" stop-color="#e45231"/><stop offset="1" stop-color="#ea5b31"/></radialGradient><path fill="url(#g)" d="M28 33.3c-1-1-5 .7-8.1 3.3a12 12 0 0 0-3.6 4.2c-.5 1.3-.5 3 .7 3.8q1.8.9 3.3-.3c1.3-1 2.2-3 3-4.1 1.2-2 3.4-3.8 4.1-4.4.7-.5 1.3-1.8.6-2.5"/><radialGradient id="h" cx="31.5" cy="53.1" r="19.1" gradientUnits="userSpaceOnUse"><stop offset=".5" stop-color="#cb2d30"/><stop offset=".6" stop-color="#d23730"/><stop offset=".9" stop-color="#e45231"/><stop offset="1" stop-color="#ea5b31"/></radialGradient><path fill="url(#h)" d="M31.3 59.6c-1.2-.4-2.9.9-4.4 6.5-1.2 5-1.6 9.4 1.6 9.5 3.4 0 2-5 2.4-9.4s1.6-6.3.4-6.6"/><radialGradient id="i" cx="43" cy="46" r="11.2" gradientUnits="userSpaceOnUse"><stop offset="0" stop-color="#cb2d30"/><stop offset=".3" stop-color="#d23730"/><stop offset=".9" stop-color="#e45231"/><stop offset="1" stop-color="#ea5b31"/></radialGradient><path fill="url(#i)" d="M31 53.1c2 .4 3-1 3.3-2.4.3-1 1.6-6.6 8.4-7.2 6.6-.6 11.4 6 12 6.8q1.2 1 2.1.3.7-.7 0-2.4c-.5-1.2-6-10.5-15.7-9.3C32 40 28.8 47 29 49.9q0 2.8 2.1 3.2"/><radialGradient id="j" cx="89.8" cy="44.1" r="12.6" gradientUnits="userSpaceOnUse"><stop offset="0" stop-color="#cb2d30"/><stop offset=".3" stop-color="#d23730"/><stop offset=".9" stop-color="#e45231"/><stop offset="1" stop-color="#ea5b31"/></radialGradient><path fill="url(#j)" d="M74.5 51.9c1.2.4 1.8-1 2.3-1.6s2.8-5.2 7-7.4 7.5-2.5 11.5-.6c2.1 1 3.6 3.5 4.6 5.1q2 3.3 4.5 1.9c1.6-1 1.9-3.6-.5-6.8-2-2.6-6.3-7-14-6.3-12.1 1.3-15.4 12-15.8 13-.3 1.2-.5 2.4.4 2.7"/><radialGradient id="k" cx="51.3" cy="34.9" r="42.1" gradientUnits="userSpaceOnUse"><stop offset=".4" stop-color="#cb2d30"/><stop offset=".6" stop-color="#d23730"/><stop offset=".9" stop-color="#e45231"/><stop offset="1" stop-color="#ea5b31"/></radialGradient><path fill="url(#k)" d="M68.6 54.2c1.3.1 1.6-.4 2-2.6.8-5 2-14.3 8.5-21.9 5.2-6 11-5.2 13.6-3.6 2.3 1.4 2.8 2.7 3.7 3.7s2.8 2.1 4.4 1c1.4-1 1.7-3.5-.7-6.1s-4.8-5-10.7-5.4-12 3.4-15 8a46 46 0 0 0-7 25q-.1 1.5 1.2 2"/><radialGradient id="l" cx="76.8" cy="47" r="40.3" gradientUnits="userSpaceOnUse"><stop offset=".4" stop-color="#cb2d30"/><stop offset=".6" stop-color="#d23730"/><stop offset=".9" stop-color="#e45231"/><stop offset="1" stop-color="#ea5b31"/></radialGradient><path fill="url(#l)" d="M63.5 54.2q1.8-.3 1.3-2.8c-.5-2.5-1.3-10.2-3.7-17s-6-13-13-14.4c-7-1.3-12.5 3.6-13.3 4.4-1.2 1.3-2.5 3.4-1 5.1s4 .4 5.6-1.3 4.2-4 8.5-2.7c4.4 1.4 6.4 5.4 8.3 9.2s3.4 9.4 4.2 12.3l1.6 6.1q.5 1.2 1.5 1.1"/></svg>