<svg viewBox="0 0 128 128"><radialGradient id="a" cx="59.9" cy="-1.4" r="113.7" gradientUnits="userSpaceOnUse"><stop offset=".4" stop-color="#45d6f0"/><stop offset=".5" stop-color="#41cde9"/><stop offset=".7" stop-color="#37b4d7"/><stop offset=".9" stop-color="#278bba"/><stop offset="1" stop-color="#1b6da4"/></radialGradient><path fill="url(#a)" d="M14.7 115.7c1.3 1.1 5.3-5.7 20.2-6.6 15.9-1 33.5 11.7 57.7 11.7 21.4 0 32.5-10.5 31.7-12.2-.5-1.1-9-3.1-18.7-8.2-11.7-6-24-12.2-33.4-25.8-6-8.8-10.3-18.9-4.4-26.8s21-4.2 21-4.2L68.3 21.4l-39 10.7L9.5 81.6l2.1 25.2z"/><path fill="#1b6da4" d="M59.3 36.1S64 37.6 70.4 41c10.6 5.5 17 14.2 23.7 14.8 6.8.5 10.3-3.4 8.8-11.6-1.4-7.6-12.7-16.6-12.7-16.6s10.3 2 10.3-4-5.6-9-14.3-12c-5.8-2-21.5-6.4-42.5 1.5A60 60 0 0 0 15.2 35a77 77 0 0 0-.5 80.8c.2 0 1.2-22.3 10-32 7.5-8.2 15.1-4.8 24.2-5.2 10.8-.6 15.6-11.6 7.4-20-7-7.4-18.7-6.7-18.7-6.7s3.8-1.5 11.2-2.2c8.4-.8 10-5.7 10.7-7.5 1.3-4-.2-6-.2-6"/><path fill="#fff" d="M38.2 36.3c-.6-3.3 9.1-6.3 19.3-4.7 15.8 2.5 28.4 17 33.7 19 7.8 3.2 10.6-3.2 6.7-10.2-4-7.1-14.8-13.2-14.4-15.6.7-4.2 11.7 2.2 12.4-2.5.4-3-7.8-7.5-15.6-9.5A57 57 0 0 0 42.7 17 60 60 0 0 0 7 69.5c-1.6 20.5 6.2 35.7 6.2 35.7s.5-15.3 8.2-23.6a21 21 0 0 1 20.5-7c13 2.5 18.6-6.9 12.4-13.6a19 19 0 0 0-14.8-6c-9.3-.3-14.3 2.8-14.6 1.7-.4-1.6 4.7-5.3 11-8 8.6-3.5 18.8-1.1 20.4-8.2.7-3.4-1.2-5.3-6.8-5.7-7-.5-11.4 1.7-11.4 1.5"/></svg>