<svg xmlns="http://www.w3.org/2000/svg" width="1em" height="1em" viewBox="0 0 128 128"><radialGradient id="a" cx="59.851" cy="-1.405" r="113.707" gradientUnits="userSpaceOnUse"><stop offset=".423" stop-color="#45d6f0"/><stop offset=".518" stop-color="#41cde9"/><stop offset=".674" stop-color="#37b4d7"/><stop offset=".87" stop-color="#278bba"/><stop offset="1" stop-color="#1b6da4"/></radialGradient><path fill="url(#a)" d="M14.66 115.74c1.37 1.06 5.32-5.77 20.2-6.68 15.93-.98 33.56 11.69 57.71 11.69 21.41 0 32.5-10.48 31.74-12.15-.51-1.11-8.96-3.15-18.68-8.2-11.69-6.07-24-12.15-33.41-25.82-6.03-8.75-10.33-18.83-4.4-26.73 5.92-7.9 20.96-4.25 20.96-4.25l-20.5-22.17-39.03 10.64L9.5 81.58l2.13 25.21z"/><path fill="#1b6da4" d="M59.26 36.11s4.77 1.52 11.16 4.85c10.63 5.55 17.07 14.28 23.64 14.82 6.82.55 10.31-3.38 8.82-11.58-1.39-7.65-12.68-16.63-12.68-16.63s10.31 1.94 10.31-3.97c0-6.07-5.56-8.99-14.31-12-5.83-2-21.51-6.44-42.53 1.52-9.04 3.42-20.08 9.74-28.46 21.85C4.25 50.81 2.03 71.41 4.11 87.05c2.52 18.89 10.38 28.63 10.57 28.71s1.22-22.21 10.01-31.88c7.49-8.24 15.15-4.86 24.25-5.31 10.73-.53 15.52-11.61 7.33-20.06-7.03-7.26-18.68-6.61-18.68-6.61s3.86-1.54 11.19-2.2c8.42-.77 10.08-5.66 10.68-7.49 1.33-4.04-.2-6.1-.2-6.1"/><path fill="#fff" d="M38.15 36.3c-.56-3.3 9.16-6.28 19.34-4.68 15.84 2.49 28.38 16.94 33.7 19.05 7.84 3.12 10.6-3.29 6.67-10.23-4.05-7.17-14.77-13.27-14.37-15.64.72-4.21 11.7 2.2 12.37-2.48.45-3.1-7.75-7.56-15.54-9.55-6.27-1.6-19.44-3.57-37.64 4.36C19.02 27.46 8.79 48.01 7.1 69.54c-1.6 20.42 6.2 35.64 6.2 35.64s.53-15.24 8.17-23.63c5.58-6.12 12.74-8.42 20.51-6.94 12.96 2.48 18.61-6.89 12.38-13.66-4.08-4.43-9.31-5.81-14.72-5.99-9.35-.3-14.38 2.83-14.65 1.77-.4-1.61 4.67-5.34 11.1-8.02 8.46-3.52 18.67-1.11 20.27-8.19.78-3.45-1.17-5.34-6.75-5.75-7.05-.51-11.42 1.77-11.46 1.53"/></svg>