<svg viewBox="0 0 128 128"><path fill="#96030d" d="M85.8 33.6s-9.4 4-9.1 5.4-1 22-1 22l1.3 3.4s1 3 3.5 4c2.9 1.2 4.7-.6 4.7-.6l5-4.3 7.6.3 6.8-6.7s4 .2 6.5-3.5c2.3-3.6 1.1-7.8 1.1-7.8S91 30.4 90.5 31.2s-4.7 2.4-4.7 2.4"/><path fill="#f7153a" d="M105 51.6c-.9.8-14.8 2.4-14.8 2.4l-.1 3.4s1.8 2 4.4 2c2.3 0 4.6-1.2 4.6-.9s-1.4 3-3.8 3.4-5.2-.7-5.3 0l-.3 2.9s3.2 1.7 7.7.5a10 10 0 0 0 7-6.4c1.4-4.1 1-7.9.6-7.3"/><path fill="#cc0b1e" d="M83.5 50.4a4 4 0 0 0 1 4.2c1.1 1 2.8 1.7 2.8 2l-1.1 5.5c-.8 3.2-2.8 4.6-2.4 5.9.2.8 1.7 1.6 4 .6 2-1 3.5-2.5 4-7.4l.2-4.4s3.1.2 7-.8 6.8-3.5 6.5-5.4-4.4-1.1-7.9-.2c-2.8.7-6.2 1-8.6.3s-4.6-2.6-5.5-.3"/><path fill="#cd0e1e" d="M67.3 27s.2 4 .9 8c.8 4.6 1.8 9.5 1.4 13.5-.5 4.9-2 12.2 2 15.5 4 3.2 6 1.4 6 1.4s-.4-3.4.7-5.4 2.8-3.8 3.7-9c1-5.5-.6-8.8-.2-9.3s1.3 0 2.5.6c1.3.6 7 4.2 11.7 5.3 5.6 1.3 13.9.5 16.8-.8 3.3-1.5 4-4.7 2.3-7.5-1.8-3-5.8-3.6-8.3-6-1.8-1.7-7.5-6.8-11-10.9-3.4-4.1-5.8-5-5.8-5s-14.6-3.9-16.1-1-6.6 10.5-6.6 10.5"/><path fill="#738136" d="M69.8 14s0 3.6-3.5 4.8c-2.4.9-5 .3-5.5.6-.8.7 0 3 2.4 3.6 1.6.4 3.7.1 3.7.1s-1 2.1-2.2 3-3 1.1-2.9 1.7c.6 2.4 5 2 7.6 1 5.6-2.6 6.3-6.1 6.3-6.1s.9.6 2.1 2.3c1.2 1.8 4.4 7.2 5.6 5.8 1.4-1.6 1.3-5.4.5-7.8-.7-2.5-1.5-3.8-1.5-3.8s2.8 1.5 6.5.8c4.5-.7 7-4.5 5.4-7.3-.6-1-2 1-5.9 1.4-1.3.2-3.5-.7-3.5-.7s1.8-1.5 1.8-5c0-2.8-2.5-5.1-4.5-4.8-.5.1.3 3.9-1.9 6q-1.6 1.7-6 .6l-5-1.5z"/><path fill="#cd0e1e" d="M103.4 69.7c.3 1 1.1 4.2.9 9-.2 3.9-3.1 6.2-3.7 8-.5 1.4 9.8 2.3 11.3-6 1-6.6-2.6-9.8-4.2-11-2.3-1.8-4.7-1-4.3 0M85.5 96.1c-1.9 0-2 4.5-1 7.5s4.5 10.2 11.3 11.8 9.1-.5 9.2-1.6-3.4-1.8-4.4-4.4c-.6-1.5-1.3-4.3-3.7-6.7s-6.2-2.5-8-3.7-2-3-3.3-3"/><path fill="#748138" d="M26.8 54.6S17 53.4 13.2 63c-3.3 8.2-.7 14 1 18.2 1 3 2.3 8 3 8.1 1 .2 6.1-5.4 10.2-10.2s7.2-11.1 3.7-18.5c-2-4.1-4.3-5.9-4.3-5.9m24 17.3s2.1-4.1 5.5-4.2c2.8-.1 4.3 2 5 3.7s.6 2.5 0 4.3-1.6 4.8-.5 8.5 5 8.1 7.3 10.3 8 6.4 8.8 6.1 1.2-9.7.8-15c-.5-5.3-2.5-9.8-6.2-11.9s-4-1.6-5-2.7-2.4-7-9.2-8.1c-4.6-.8-8.8 2.2-8.8 2.7s2.4 6.4 2.4 6.4"/><path fill="#748138" d="M77.4 12.6c-.2-.2-7.5-10.3-21-8.9s-17.5 14-17.9 24c-.3 7.8.1 16.2 1.7 23.6s4 17.6 5.8 31.6c1.4 10.5 1.5 19.5 1.2 23.7-.6 5.9-2.4 15.4-2.4 15.4s1.1 2.5 5 2.4c2.4-.1 3-1.8 3-1.8s2-9.5 1.7-25.2-4.6-34.9-6.5-42.7-5.5-28-.4-37.8 16.2-7 19.5-5 5 4.3 5 4.3z"/><path fill="#748138" d="M23.2 56.9c-.1-.3 1.3-7 6.7-11s11-1.4 11-1.4l1.5 8.4s-3.2-5.4-8.2-2.6c-6 3.2-5.7 8.3-5.7 8.3z"/></svg>