<svg xmlns="http://www.w3.org/2000/svg" width="1em" height="1em" viewBox="0 0 128 128"><path fill="#96030D" d="M85.84 33.6s-9.44 3.93-9.18 5.37C76.92 40.41 75.61 61 75.61 61l1.44 3.41s.91 2.98 3.42 4c2.91 1.18 4.77-.61 4.77-.61l4.97-4.35l7.56.37l6.81-6.69s4.11.22 6.5-3.5c2.35-3.64 1.12-7.87 1.12-7.87S91.03 30.44 90.53 31.19s-4.69 2.41-4.69 2.41"/><path fill="#F7153A" d="M104.95 51.59c-.81.84-14.72 2.43-14.72 2.43l-.16 3.35s1.87 1.95 4.47 2.03c2.25.07 4.55-1.16 4.55-.88c0 .28-1.4 2.99-3.83 3.35c-2.43.36-5.15-.64-5.23.12s-.36 2.79-.36 2.79s3.26 1.75 7.7.52c4.19-1.16 6.22-3.87 7.06-6.38c1.38-4.13 1.04-7.87.52-7.33"/><path fill="#CC0B1E" d="M83.53 50.39c-.54 1.46-.2 3.15.96 4.19c1.14 1.02 2.79 1.68 2.79 2.03c0 .36-.61 3.36-1.12 5.5c-.76 3.23-2.75 4.63-2.39 5.86c.24.84 1.78 1.66 3.99.6c2.07-1 3.51-2.43 3.95-7.34c.22-2.43.28-4.39.28-4.39s3.15.16 7.06-.88c3.91-1.04 6.78-3.44 6.46-5.38c-.34-2.06-4.4-1.08-7.9-.16c-2.77.73-6.18.92-8.58.24s-4.66-2.54-5.5-.27"/><path fill="#CD0E1E" d="M67.27 26.93s.21 4 .91 8.05c.8 4.64 1.83 9.54 1.4 13.53c-.53 4.86-1.95 12.17 2.07 15.47c3.92 3.22 5.86 1.38 5.86 1.38s-.33-3.4.79-5.38s2.79-3.8 3.67-8.92c.95-5.51-.57-8.85-.14-9.39c.43-.54 1.27-.03 2.5.62c1.23.64 6.99 4.2 11.65 5.3c5.58 1.32 13.9.5 16.8-.79c3.27-1.45 3.96-4.73 2.33-7.5c-1.77-2.99-5.78-3.61-8.31-6c-1.77-1.67-7.52-6.75-10.95-10.88c-3.44-4.13-5.82-4.93-5.82-4.93s-14.65-3.97-16.16-1.13s-6.6 10.57-6.6 10.57"/><path fill="#738136" d="M69.8 13.98s.01 3.57-3.47 4.83c-2.45.88-5.1.27-5.51.61c-.84.7.07 2.93 2.38 3.54c1.6.42 3.74.14 3.74.14s-.95 2.11-2.24 2.93s-2.99 1.2-2.86 1.77c.57 2.42 5.02 2.05 7.55.92c5.65-2.52 6.31-6.03 6.31-6.03s.9.58 2.12 2.34c1.22 1.77 4.39 7.19 5.58 5.75c1.36-1.63 1.29-5.37.54-7.82c-.76-2.47-1.5-3.74-1.5-3.74s2.75 1.45 6.46.82c4.53-.77 7.07-4.56 5.44-7.35c-.61-1.04-2.04.95-5.92 1.43c-1.35.17-3.55-.75-3.55-.75s1.8-1.49 1.8-5.05c0-2.73-2.46-5.07-4.45-4.71c-.48.09.31 3.84-1.88 5.9c-1.16 1.09-3.16 1.47-6.02.66c-1.08-.31-4.95-1.43-4.95-1.43s.17 2.71.43 5.24"/><path fill="#CD0E1E" d="M103.36 69.73c.33.99 1.15 4.15.93 8.99c-.18 3.87-3.12 6.17-3.71 7.97c-.45 1.37 9.86 2.35 11.27-6.03c1.1-6.57-2.51-9.8-4.13-11.03c-2.32-1.76-4.7-.92-4.36.1M85.55 96.06c-1.95.13-2.04 4.54-1.11 7.51s4.54 10.2 11.4 11.78s9.09-.46 9.18-1.58s-3.43-1.76-4.45-4.36c-.61-1.54-1.3-4.27-3.71-6.68s-6.12-2.5-7.88-3.71c-1.76-1.2-2.03-3.05-3.43-2.96"/><path fill="#748138" d="M26.77 54.61s-9.69-1.25-13.54 8.25c-3.34 8.25-.74 14 .93 18.27c1.13 2.9 2.31 7.92 3.06 8.07c.93.19 6.12-5.38 10.2-10.2c4.08-4.82 7.14-11.13 3.71-18.45c-1.96-4.17-4.36-5.94-4.36-5.94m24.11 17.34s2.04-4.17 5.38-4.27c2.79-.08 4.36 2.04 5.1 3.71c.74 1.67.56 2.5 0 4.27s-1.68 4.8-.56 8.53c1.11 3.71 4.91 8.16 7.32 10.29c2.41 2.13 7.97 6.4 8.81 6.12c.83-.28 1.21-9.74.74-15.02c-.46-5.29-2.5-9.83-6.12-11.87c-3.62-2.04-4.08-1.58-5.01-2.69c-.93-1.11-2.41-7.05-9.27-8.16c-4.56-.74-8.81 2.23-8.81 2.69c.01.47 2.42 6.4 2.42 6.4"/><path fill="#748138" d="M77.38 12.64c-.19-.28-7.51-10.38-20.95-8.9S38.9 17.65 38.53 27.66c-.29 7.8.09 16.23 1.67 23.64c1.58 7.42 3.99 17.62 5.84 31.62c1.39 10.49 1.5 19.52 1.11 23.64c-.56 5.93-2.32 15.48-2.32 15.48s1.11 2.41 4.91 2.32c2.42-.06 3.15-1.76 3.15-1.76s1.95-9.55 1.58-25.22s-4.54-34.86-6.49-42.65s-5.47-28.09-.37-37.83s16.23-7.05 19.47-5.01s5.1 4.27 5.1 4.27z"/><path fill="#748138" d="M23.17 56.88c-.09-.28 1.28-6.99 6.75-11.07s10.94-1.3 10.94-1.3l1.58 8.34s-3.25-5.38-8.25-2.6c-5.91 3.28-5.71 8.39-5.71 8.39z"/></svg>