<svg viewBox="0 0 128 128"><path fill="#b0b0b0" d="M22.7 46.3c1.1 3.6-2.5 11.4-7.6 16.3S2.1 75.2 5.1 79c2.3 3.1 7.4-2.9 8.7-1.2s-8.2 7.7-5.4 11 7.6-2.2 9-.6c2.3 2.4-4.3 8.4-.4 10.3s8.7-3 13.7-4.7c3.7-1.3 6.2-.8 7.7 3.2S43 122.8 65 123.3c19 .3 23.7-20.7 25.4-26.3 1.2-3.9 5.5-4.7 8.6-3 3 1.5 5.8 5 9 2 3-2.6-3-6.7-1-8.5 2.1-1.9 6 5 9.6 1.5 3-3-4.6-7.9-2.4-10.2 1.9-2 5.5 5.9 9.9 1 3-3.5-7.4-12.7-12.1-19.5s-6-9.4-6-12.6c0-3.3 10-16.8 11.4-23.4s2.5-14.4 0-17.2-11.6-1.7-20 1.5C90.2 11.3 81.2 17 81.2 17s-8.8-2.8-16.1-2.8S49.5 17 49.5 17s-11.1-5-16.1-7.5c-6-3-17.3-5.6-21.2-1.9-3.5 3.3-1.5 12.3.1 18 2.4 8.3 9.4 17.9 10.3 20.7"/><path fill="#e0e0e0" d="M87.6 24.3c-1.1-1.2 7-4.7 9.9-5.6 2.8-1 10.2-3.4 11.3-1.1S108 25 106 28.9c-1.7 3.4-4.9 8.8-6.2 8.6s-1.9-3.6-5.3-7.5-5.4-4-6.9-5.7m-46 .4c.5-2.5-5.2-5.4-9.1-7.1-2.5-1-10.2-4.2-12-2-1 1.5 1.2 9.3 2.8 12.5 1.8 3.8 5 9.6 6.9 9.5s3.2-4.7 5.2-7.1c1.9-2.3 5.8-3.5 6.2-5.8m23.5 74.8c4.7 0 7-2.4 7.9-5s2.4-8.1 8-11 10.3-2.2 13.2-.8c3 1.4 5.1 3.8 3.6 5s-7.5-.3-10.2 3.6c-2.6 4-5.6 18-10.3 22.4-3.9 3.8-8.1 4.5-13.6 4.2s-11.3-2.1-14.5-7.7-4.3-14.5-6.6-17.4c-4.1-5-9.3-3-11.4-4s.1-4.4 3.2-5.8 9.3-2.4 16 1.3c5 2.6 5.5 7.6 6.4 9.5s2.1 5.5 8.3 5.7"/><path fill="#2f2f2f" d="M90.3 61.7c-.5 4.2-3.3 7-6.8 6.7-4.2-.2-6-3.8-5.7-8s3.3-7.4 6.8-7.1 6.4 3.1 5.7 8.4m-38.8-2.4c.6 4.2-1.5 7.6-5 8.4-4.3.9-7.2-2-8-6.2-.9-4 1.3-8 5-8.7s7.2 1.3 8 6.5"/><path fill="#2a2a2a" d="M74.2 98c0 4.2-1.4 7.6-9.6 7.5-8 0-9.3-3.7-9.2-7.4 0-3.3 4.2-6 9.4-6s9.3 2.7 9.4 6"/><path fill="#2a2a2a" d="M64.7 110.5c.7 0 3.4 2.2 6.1 2.2 4.2 0 8.1-3.2 7.3-4.7s-4.2 1.6-6.6 1.6-4.6-1-5-3.5 0-3 0-3L63 103s.4 2.2.4 3c0 2-3.7 3.7-5.5 3.8-3.5 0-4.3-2.5-6-2.7-1.4-.2-.8 4.7 5.6 5.6 4.2.5 6-2.2 7.2-2.2"/></svg>