<svg viewBox="0 0 128 128"><path fill="#633d35" d="m37.3 113.3-8.4 4.4V97.6l10.5 11.2z"/><path fill="#ad7156" d="m100 20 .5 21.4s.3 2 1.8 2.5q1.6.5 5.7-2.4a1 1 0 0 1 1.2 0c1 .5 3.1 1.7 4.5 5.2a17 17 0 0 1 1 8.7q-.1.7-.6 1.2c-2.4 3-14.6 18.6-14.6 28.5l.2 23c0 7.7-13 14.1-30.5 15.6l-9.7-2.6-11.2 2a67 67 0 0 1-9.9-2.3l-7.4-21-2.1 18s-5.6-5.8-5.6-9.8c0-8.5-2.1-88-2.1-88z"/><path fill="#ce8963" d="M47 35.6q-.6 8.3-1.5 16.5l-1 8.3q-.5 4-.6 8 0 4.2.3 8.3l.4 8.2q.4 8.4.4 16.7a180 180 0 0 1-4-33.1q0-4.4.7-8.5A204 204 0 0 1 47 35.6m-13 28q.3 1 .4 2.2l.1 6.6a187 187 0 0 1-.8 17.7l-.9 8.8v-.3l1.4 5.2 1.4 5.2q1.4 5.2 2.4 10.6l-3.7-10.2-1.7-5.1L31 99v-.3l.7-8.8.8-8.8 1-8.8.3-4.4.2-2.2zM58.5 96v25l8 2s-5-15-8-27"/><path fill="#965b44" d="M88.5 79c5.7-12.9 25.7-26.8 25.7-26.8l.6-.5q0 2.7-.2 3.8-.1.6-.4 1c-2 2.3-14.7 18.4-14.7 28.6l.2 23c0 3.7-4.2 9-13.2 12l4-29-9 9s3-12 7-21m12-38.3c.3 4 3 3.1 3 3.1-3.2 1.5-7.9 2.4-10.6.6-3-2-4.4-12.4-4.4-12.4l2-6 9.4-5.5z"/><path fill="#ffcc80" d="M58.5 4.3c-20 .4-36 7.4-36 16 0 8.9 17 16 38 16s38.2-7.1 38.2-16c0-8.5-15.8-15.5-35.8-16"/><path fill="#ce8963" d="M58.5 4.3q-10.9.6-21 4.1a34 34 0 0 0-9.3 4.8q-2 1.6-3.4 3.6a6 6 0 0 0-.9 4.3q.3 2.1 2.2 4a17 17 0 0 0 3.9 3q4.5 2.6 9.6 3.9a78 78 0 0 0 20.8 2.6q10.7.1 21-2.5 5-1.4 9.6-3.9a18 18 0 0 0 4-3 8 8 0 0 0 2.2-3.9 6 6 0 0 0-.8-4.3q-1.3-2-3.3-3.6-4-3-9.2-4.9a78 78 0 0 0-21-4.2 109 109 0 0 1 10.9.5q5.3.5 10.6 2.1 5.3 1.4 10.1 4.7 2.4 1.5 4 4.1c1.1 1.7 1.7 4 1.4 6q-.7 3.3-2.9 5.5a21 21 0 0 1-4.5 3.6q-4.8 3-10.3 4.4a80 80 0 0 1-43.5 0q-5.4-1.6-10.3-4.5-2.5-1.5-4.5-3.7a11 11 0 0 1-2.7-5.5 9 9 0 0 1 1.5-6q1.7-2.5 4.2-4 4.8-3.2 10-4.7a67 67 0 0 1 21.6-2.5"/><radialGradient id="a" cx="59.4" cy="16.2" r="21.7" gradientTransform="matrix(-1.1788 0 0 .9412 130.18 -.789)" gradientUnits="userSpaceOnUse"><stop offset=".1" stop-color="#ffa726"/><stop offset=".1" stop-color="#ffa726"/><stop offset="1" stop-color="#ffa726" stop-opacity=".1"/></radialGradient><path fill="url(#a)" d="M22 17.7c0 7 14.2 12.7 32 12.7s32-5.7 32-12.7S79.7 2.4 54 4.8c-17.7 1.7-32 5.7-32 12.8"/><path fill="#7f441c" d="M31 18.6q.2 2.2 1.9 3.6t3.4 2.4q3.8 1.8 8 2.6a77 77 0 0 0 41-3.2q1.8-1 3.2-2.3 1.5-1.4 1.6-3-.1-1.8-1.6-3-1.5-1.5-3.3-2.2-3.6-1.7-7.8-2.7A66 66 0 0 0 61 9.1q-8.5-.2-16.6 1.3-4.2.7-8 2.4-1.8.9-3.5 2.3t-1.8 3.5m-.2 0q.2-2.3 1.8-3.8 1.5-1.5 3.5-2.5 3.8-2 7.9-3a66 66 0 0 1 42 2.4 16 16 0 0 1 3.7 2.6q.8.8 1.4 1.9.8 1.4.6 2.4-.1 1.4-.6 2.4-.7 1.3-1.5 1.9a15 15 0 0 1-3.7 2.5 37 37 0 0 1-8 2.6 75 75 0 0 1-33.7-.4 38 38 0 0 1-8-3q-1.8-1-3.4-2.3c-1-1-2-2.3-2-3.8" opacity=".7"/><path fill="#b5772c" d="M37.8 17.5c0 3.7 9.7 6.7 21.6 6.7s21.6-3 21.6-6.7-9.7-6.7-21.6-6.7-21.6 3-21.6 6.7m3.7 0c0-2.8 7.6-5 17-5s17 2.2 17 5-7.6 5-17 5-17-2.2-17-5" opacity=".8"/><linearGradient id="b" x1="50.9" x2="67.8" y1="16.9" y2="16.9" gradientTransform="matrix(-1 0 0 1 120.75 0)" gradientUnits="userSpaceOnUse"><stop offset="0" stop-color="#8a5140"/><stop offset="1" stop-color="#8a5140"/></linearGradient><ellipse cx="61.4" cy="16.9" fill="url(#b)" opacity=".7" rx="8.5" ry="2.2"/></svg>