<svg xmlns="http://www.w3.org/2000/svg" width="1em" height="1em" viewBox="0 0 128 128"><path fill="#EC7FAC" d="M63.81 39.12c-2.3 8.12 2.14 14.81 15.86 20.37c6.65 2.69 14.78 5.74 18.43 12.26c2.95 5.29-.97 15.33-14.48 13.22C69.7 82.8 56.75 66.16 37.75 58.56c-17.29-6.91-32.05-3.3-31.93 8.52c.09 8.94 7.28 11.39 11.06 10.99c2.54-.27 5.03-1.57 9.85-2.19c6.01-.77 22.58 10.98 33.51 17.95c13.23 8.45 38.92 12.36 48.85-2.24c9.01-13.25 5.7-26.2-5.63-34.79c-10.27-7.78-25.11-9.8-23.79-14.3c1.62-5.55 17.51-.49 28.86-1.05c11.54-.56 13.79-4.78 13.8-6.76c.01-2.89-5.84.14-13.87-.92c-14.11-1.86-21.47-6.26-33.39-4.59c-4.99.73-9.65 4.25-11.26 9.94"/><g fill="#FEA8A7"><path d="M101.62 36.11c-.11 1.68-.05 3.53.08 5.17c2.35.19 4.67.29 6.83.18c.9-.04 1.72-.12 2.51-.2c-.13-1.14-.25-2.46-.26-3.41c-.01-1.34.06-2.76.13-3.86c-.79-.03-1.61-.09-2.45-.2a95.23 95.23 0 0 1-6.5-1.1c-.13.97-.25 2.12-.34 3.42m-29.84-2.76c7 .84 9.1 4.69 9.26 7.47c1.51-.87 4.39-1.01 6.94-.88c-.32-1.47-.63-3.24-.75-4.95c-.09-1.25-.07-3.8-.04-5.55c-3.79-.63-7.63-.86-12.12-.23c-2.96.42-6.41 1.8-8.93 5.22c1.32-.74 3.6-1.33 5.64-1.08m34.26 32.47c3.15 0 5.12.86 6.33 1.77c-1.8-4.03-4.83-7.69-8.91-10.78c-1.07-.81-2.2-1.56-3.34-2.26c-1.38.3-3.56 1.07-5.29 3.1c-1.9 2.22-2.23 6.11-2.27 8.16c2.19 1.57 4.09 3.43 5.42 5.74c.78-1.77 3.07-5.73 8.06-5.73"/><path d="M75.75 57.74c-.31-1.88-.47-5.23 1.38-8.48c1.24-2.19 3.35-3.05 4.73-3.39c-1.68-1.04-2.56-2.1-2.2-3.35c.06-.2-.09.17 0 0c-.82-2.31-2.54-5.63-8.19-6.42c-3.48-.49-6.19 1.15-7.73 3.25c-1.92 7.18 1.5 13.24 12.01 18.39m16.35-1.11c1.77-2.28 3.77-3.25 5.16-3.67c-4.64-2.43-9.38-4.14-12.79-5.72c-1.41.36-3.61 1.29-4.95 3.7c-1.68 3.02-1.29 6.45-.95 8.09c.36.15.71.31 1.09.47c3.31 1.34 6.98 2.77 10.29 4.67c.08-1.84.45-5.35 2.15-7.54m6.95-19.9c.07-1.48.29-3.13.51-4.54c-3.59-.8-6.8-1.64-9.94-2.29c-.06 1.55-.07 3.66.13 5.58c.16 1.51.59 3.25 1 4.66c2.61.24 5.46.61 8.34.9c-.08-1.32-.12-2.81-.04-4.31m14.2-2.72c-.01 1.21-.01 2.74.02 3.8c.02.9.12 2.07.22 3.1c7.25-1.34 8.84-4.55 8.84-6.2c0-2.27-3.63-.89-9.08-.7m-6.96 34.39c-3.85.39-6.28 3.86-7.36 5.93c.27 1.97-.16 4.16-1.39 6.06c1.43.19 4.49.84 6.81 3.07c3.14 3.02 3.69 7.03 3.68 9.54c.37-.45.72-.92 1.06-1.41c4.76-7 6.08-13.92 4.59-20.16c-1.39-1.47-3.89-3.38-7.39-3.03M102 86.1c-1.68-2.04-4.95-3-6.58-3.37c-1.79 1.41-4.27 2.38-7.52 2.51c.61 1.15 1.47 3.47 1.47 7.43c0 3.93-1.24 7.05-2.08 8.7c6.48-.06 12.67-1.56 17.36-5.12c.09-2.25-.1-7.05-2.65-10.15M40.15 69.72c1.03-2.81 1.13-7.37 1.11-9.62c-1.15-.54-2.32-1.06-3.52-1.54c-17.28-6.92-33.05-3.08-32.92 8.74c.09 8.94 8.28 11.17 12.06 10.77c2.54-.27 5.03-1.57 9.85-2.19c1.74-.22 4.38.61 7.5 2.07c1.54-1.27 4.4-4.08 5.92-8.23m45.66 23.09c-.19-3.56-.89-6.36-1.38-7.73c-.27-.03-.55-.06-.83-.11c-12.04-1.88-23.36-14.59-38.5-22.9c.21 1.88.04 5.4-2.28 11.03c-1.08 2.61-3.68 5.43-4.95 6.71c7.14 3.89 15.77 9.82 22.36 14.03c5.99 3.82 14.53 6.71 23 7.38c.97-1.64 2.76-5.19 2.58-8.41"/></g><ellipse cx="18.74" cy="65.7" rx="2.39" ry="2.16" transform="rotate(-83.702 18.745 65.7)"/><ellipse cx="9.88" cy="65.7" rx="2.16" ry="2.39" transform="rotate(-5.659 9.872 65.68)"/><path d="M14.47 70.91c1.74 0 2.71-1.35 3.63-.31c1.14 1.3-1.45 2.83-3.66 2.83c-2.63 0-4.62-1.89-3.43-2.96c.94-.84 1.49.44 3.46.44"/><path fill="#EC7FAC" d="M50.95 76.01c-3.01 4.65-6.55 6.06-6.57 8.17c-.02 1.69 2.69 3.52 10.75 8.44c8.58 5.24 11.04 5.49 12.59 4.64c1.05-.57 3.48-2.09 5.8-5.86c2.58-4.18 3.52-8.71.7-10.75c-1.76-1.27-3.25-2.31-7.93-5.54c-6.19-4.28-9.81-7.49-11.31-7.46c-1.74.04-1.25 4.07-4.03 8.36"/></svg>