<svg viewBox="0 0 128 128"><path fill="#ec7fac" d="M63.8 39.1C61.5 47.2 66 54 79.7 59.5c6.6 2.7 14.7 5.7 18.4 12.2 3 5.3-1 15.4-14.5 13.3-13.9-2.2-26.8-18.8-45.8-26.4-17.3-7-32.1-3.3-32 8.5.1 9 7.3 11.4 11 11 2.6-.3 5.1-1.6 10-2.2 6-.8 22.5 11 33.4 18 13.3 8.4 39 12.3 48.9-2.3 9-13.3 5.7-26.2-5.6-34.8C93.2 49 78.4 47 79.7 42.5c1.6-5.5 17.5-.5 28.8-1 11.6-.6 13.8-4.8 13.8-6.8 0-2.9-5.8.1-13.8-1C94.4 32 87 27.6 75 29.3c-5 .7-9.7 4.2-11.3 10"/><g fill="#fea8a7"><path d="m101.6 36.1.1 5.2a53 53 0 0 0 9.3 0 37 37 0 0 1 0-7.3l-2.5-.2-6.5-1.1zm-29.8-2.8c7 .9 9 4.7 9.2 7.5 1.5-.9 4.4-1 7-.9a36 36 0 0 1-.8-10.5q-5.5-1-12.1-.2c-3 .4-6.4 1.8-9 5.2a10 10 0 0 1 5.7-1M106 65.7c3.2 0 5.2.9 6.4 1.8a28 28 0 0 0-9-10.8q-1.5-1.2-3.3-2.3a10 10 0 0 0-5.3 3.1c-1.9 2.3-2.2 6.2-2.2 8.2q3.2 2.3 5.4 5.7c.8-1.7 3-5.7 8-5.7"/><path d="M75.8 57.7a13 13 0 0 1 1.3-8.4c1.3-2.2 3.4-3 4.8-3.4q-2.7-1.5-2.2-3.4c0-.2-.1.2 0 0a9 9 0 0 0-8.2-6.4 8 8 0 0 0-7.8 3.3c-1.9 7.1 1.5 13.2 12 18.3m16.4-1q2.9-3.3 5.2-3.7c-4.7-2.5-9.4-4.2-12.8-5.8a8 8 0 0 0-5 3.7 12 12 0 0 0-1 8.1l1.2.5c3.3 1.3 7 2.8 10.2 4.7.1-1.9.5-5.4 2.2-7.6m7-19.9q0-2.2.5-4.5l-10-2.3.2 5.6q.2 2.4 1 4.6l8.3 1zm14.2-2.7.2 7c7.2-1.4 8.8-4.6 8.8-6.3 0-2.3-3.6-.9-9-.7m-7 34.4c-3.9.4-6.3 3.9-7.4 6a9 9 0 0 1-1.4 6c1.5.2 4.5.8 6.9 3 3 3 3.6 7 3.6 9.6l1-1.4c4.9-7 6.2-14 4.7-20.2a9 9 0 0 0-7.4-3M102 86.1c-1.7-2-5-3-6.6-3.4a13 13 0 0 1-7.5 2.5 20 20 0 0 1-.6 16.1 29 29 0 0 0 17.3-5c.1-2.3 0-7.1-2.6-10.2M40.2 69.7a32 32 0 0 0 1-9.6l-3.5-1.5c-17.2-7-33-3.1-32.9 8.7.1 9 8.3 11.2 12 10.8 2.6-.3 5.1-1.6 10-2.2q2.6-.2 7.4 2a20 20 0 0 0 6-8.2m45.6 23.1q-.5-5.6-1.4-7.7l-.8-.1c-12-2-23.4-14.6-38.5-23a23 23 0 0 1-7.2 17.8c7.1 3.9 15.7 9.8 22.3 14a52 52 0 0 0 23 7.4 16 16 0 0 0 2.6-8.4"/></g><ellipse cx="18.7" cy="65.7" rx="2.4" ry="2.2" transform="rotate(-83.702 18.745 65.7)"/><ellipse cx="9.9" cy="65.7" rx="2.2" ry="2.4" transform="rotate(-5.659 9.872 65.68)"/><path d="M14.5 71c1.7 0 2.7-1.4 3.6-.4 1.1 1.3-1.4 2.8-3.7 2.8-2.6 0-4.6-1.9-3.4-3 1-.8 1.5.5 3.5.5"/><path fill="#ec7fac" d="M51 76c-3 4.7-6.6 6-6.6 8.2 0 1.7 2.7 3.5 10.7 8.4 8.6 5.3 11 5.5 12.6 4.7 1-.6 3.5-2.1 5.8-5.9 2.6-4.2 3.5-8.7.7-10.7-1.7-1.3-3.2-2.4-8-5.6-6.1-4.3-9.7-7.5-11.2-7.4-1.8 0-1.3 4-4 8.3"/></svg>