<svg xmlns="http://www.w3.org/2000/svg" width="1em" height="1em" viewBox="0 0 128 128"><radialGradient id="a" cx="63.6" cy="-2088.9" r="56.96" gradientTransform="matrix(1 0 0 -1 0 -2026)" gradientUnits="userSpaceOnUse"><stop offset=".5" stop-color="#fde030"/><stop offset=".919" stop-color="#f7c02b"/><stop offset="1" stop-color="#f4a223"/></radialGradient><path fill="url(#a)" d="M63.6 118.8c-27.9 0-58-17.5-58-55.9S35.7 7 63.6 7c15.5 0 29.8 5.1 40.4 14.4 11.5 10.2 17.6 24.6 17.6 41.5s-6.1 31.2-17.6 41.4c-10.6 9.3-25 14.5-40.4 14.5"/><radialGradient id="b" cx="63.6" cy="-2088.9" r="56.96" gradientTransform="matrix(1 0 0 -1 0 -2026)" gradientUnits="userSpaceOnUse"><stop offset=".123" stop-color="#f4a223"/><stop offset=".356" stop-color="#f49f22"/><stop offset=".539" stop-color="#f6951d"/><stop offset=".705" stop-color="#f88416"/><stop offset=".861" stop-color="#fb6d0c"/><stop offset="1" stop-color="#ff5100"/></radialGradient><path fill="url(#b)" d="M63.6 118.8c-27.9 0-58-17.5-58-55.9S35.7 7 63.6 7c15.5 0 29.8 5.1 40.4 14.4 11.5 10.2 17.6 24.6 17.6 41.5s-6.1 31.2-17.6 41.4c-10.6 9.3-25 14.5-40.4 14.5"/><linearGradient id="c" x1="63.6" x2="63.6" y1="-2144.8" y2="-2033" gradientTransform="matrix(1 0 0 -1 0 -2026)" gradientUnits="userSpaceOnUse"><stop offset="0" stop-color="#f4a223"/><stop offset=".083" stop-color="#f4a223" stop-opacity=".905"/><stop offset=".877" stop-color="#f4a223" stop-opacity="0"/></linearGradient><path fill="url(#c)" d="M63.6 118.8c-27.9 0-58-17.5-58-55.9S35.7 7 63.6 7c15.5 0 29.8 5.1 40.4 14.4 11.5 10.2 17.6 24.6 17.6 41.5s-6.1 31.2-17.6 41.4c-10.6 9.3-25 14.5-40.4 14.5"/><path fill="#d84213" d="M111.49 29.67c5.33 8.6 8.11 18.84 8.11 30.23 0 16.9-6.1 31.2-17.6 41.4-10.6 9.3-25 14.5-40.4 14.5-18.06 0-37.04-7.35-48.18-22.94 10.76 17.66 30.99 25.94 50.18 25.94 15.4 0 29.8-5.2 40.4-14.5 11.5-10.2 17.6-24.5 17.6-41.4 0-12.74-3.47-24.06-10.11-33.23"/><radialGradient id="d" cx="25.701" cy="63.101" r="19.444" gradientTransform="matrix(.9791 0 0 .9301 2.087 6.472)" gradientUnits="userSpaceOnUse"><stop offset=".005" stop-color="#ed0e00"/><stop offset=".145" stop-color="#ed1709" stop-opacity=".843"/><stop offset=".379" stop-color="#ed2f23" stop-opacity=".582"/><stop offset=".675" stop-color="#ed554c" stop-opacity=".251"/><stop offset=".9" stop-color="#ed7770" stop-opacity="0"/></radialGradient><circle cx="27.25" cy="65.16" r="17.5" fill="url(#d)"/><radialGradient id="e" cx="100.771" cy="63.101" r="19.444" gradientTransform="matrix(.9791 0 0 .9301 2.087 6.472)" gradientUnits="userSpaceOnUse"><stop offset=".005" stop-color="#ed0e00"/><stop offset=".145" stop-color="#ed1709" stop-opacity=".843"/><stop offset=".379" stop-color="#ed2f23" stop-opacity=".582"/><stop offset=".675" stop-color="#ed554c" stop-opacity=".251"/><stop offset=".9" stop-color="#ed7770" stop-opacity="0"/></radialGradient><circle cx="100.75" cy="65.16" r="17.5" fill="url(#e)"/><ellipse cx="64" cy="91.15" fill="#422b0d" rx="28.47" ry="11.85"/><path fill="#f04" d="M65.1 98.32c1.1 0 2-.9 2-2V82.6c-1.33-.03-2.67-.04-4-.02v13.74c0 1.1.9 2 2 2"/><path fill="#1f0b08" d="M65.1 98.32c1.1 0 2-.9 2-2V82.6c-1.33-.03-2.67-.04-4-.02v13.74c0 1.1.9 2 2 2" opacity=".3"/><radialGradient id="f" cx="20.59" cy="495.072" r="33.401" gradientTransform="matrix(1 0 0 1.54 0 -699.47)" gradientUnits="userSpaceOnUse"><stop offset=".46" stop-color="#4fc3f7"/><stop offset="1" stop-color="#1e88e5"/></radialGradient><path fill="url(#f)" d="M19.52 107.04c-8.46 0-14.97-8.2-14.97-15.23 0-4.95 2.21-10.68 5.34-18.62.39-1.17.91-2.34 1.43-3.65 1.49-3.72 2.81-7.75 4.81-11.24 1.36-2.38 4.83-2.38 6.14.03 1.86 3.43 3.14 7.14 5.07 11.47 5.47 12.24 7.03 17.18 7.03 22.13.12 6.9-6.52 15.11-14.85 15.11"/><path fill="#81d4fa" d="M28.67 97.65c-1.91 2.96-6.25 2.4-6.25-2.51 0-3.14.64-19.25 3.33-17 4.39 3.67 5.64 15.33 2.92 19.51"/><path fill="#422b0d" d="M27.39 39.77c-2.2.39-2.31 3.59.09 3.7 4.9.12 10.21-1.66 14.32-5.45 1.5-1.29 2.81-2.89 3.72-4.49 1.21-2.2-1.59-3.71-2.99-2.11l-.1.1c-4.03 4.49-9.54 7.37-15.04 8.25m58.73-8.25-.1-.1c-1.41-1.59-4.2-.08-2.99 2.11.91 1.6 2.21 3.19 3.72 4.49 4.11 3.78 9.42 5.57 14.32 5.45 2.4-.11 2.29-3.31.09-3.7-5.51-.88-11.02-3.76-15.04-8.25"/><path fill="none" d="M63.1 85.87v10.45c0 1.1.9 2 2 2s2-.9 2-2V85.86a76 76 0 0 0-4 .01"/><path fill="#ff4081" d="M67.1 85.86v10.46c0 1.1-.9 2-2 2s-2-.9-2-2V85.87c-7.45.22-13.41 1.52-16.85 2.48v12.59c0 9.51 7.71 17.21 17.21 17.21h3.28c9.51 0 17.21-7.71 17.21-17.21V88.35a69.5 69.5 0 0 0-16.85-2.49"/><path fill="#ff4081" d="M67.1 82.6v3.26c5.16.13 10.87.82 16.85 2.48V86.6c-3.4-2.1-11-3.85-16.85-4"/><path fill="#ab3f2e" d="M67.1 82.6v3.26c5.16.13 10.87.82 16.85 2.48V86.6c-3.4-2.1-11-3.85-16.85-4" opacity=".3"/><path fill="#ff4081" d="M63.1 82.58c-5.88.1-12.17.99-16.85 3.97v1.8c3.45-.96 9.41-2.26 16.85-2.48z"/><path fill="#ab3f2e" d="M63.1 82.58c-5.88.1-12.17.99-16.85 3.97v1.8c3.45-.96 9.41-2.26 16.85-2.48z" opacity=".3"/><radialGradient id="g" cx="113.569" cy="467.559" r="29.532" gradientTransform="matrix(1 0 0 1.54 0 -699.47)" gradientUnits="userSpaceOnUse"><stop offset=".46" stop-color="#4fc3f7"/><stop offset="1" stop-color="#1e88e5"/></radialGradient><path fill="url(#g)" d="M112.62 59.56c-7.48 0-13.24-7.25-13.24-13.47 0-4.37 1.96-9.44 4.72-16.46.35-1.04.81-2.07 1.27-3.22 1.32-3.29 2.48-6.86 4.25-9.94 1.21-2.11 4.27-2.1 5.43.03 1.65 3.03 2.77 6.31 4.48 10.14 4.83 10.82 6.22 15.19 6.22 19.57.11 6.1-5.76 13.35-13.13 13.35"/><path fill="#81d4fa" d="M120.72 51.26c-1.69 2.61-5.53 2.12-5.53-2.22 0-2.77.56-17.02 2.95-15.03 3.88 3.24 4.98 13.56 2.58 17.25"/><path fill="#422b0d" d="M44.04 45.94c-4.19 0-8 3.54-8 9.42s3.81 9.42 8 9.42 8-3.54 8-9.42-3.8-9.42-8-9.42"/><path fill="#896024" d="M43.65 49.87c-1.03-.72-2.58-.49-3.58.95-1 1.45-.67 2.97.36 3.69s2.58.49 3.58-.95.68-2.97-.36-3.69"/><path fill="#422b0d" d="M82.4 45.94c-4.19 0-8 3.54-8 9.42s3.81 9.42 8 9.42 8-3.54 8-9.42-3.81-9.42-8-9.42"/><path fill="#896024" d="M82.01 49.87c-1.03-.72-2.58-.49-3.58.95-1 1.45-.67 2.97.36 3.69s2.58.49 3.58-.95c1.01-1.45.67-2.97-.36-3.69"/></svg>