<svg viewBox="0 0 128 128"><radialGradient id="a" cx="63.6" cy="-2088.9" r="57" gradientTransform="matrix(1 0 0 -1 0 -2026)" gradientUnits="userSpaceOnUse"><stop offset=".5" stop-color="#fde030"/><stop offset=".9" stop-color="#f7c02b"/><stop offset="1" stop-color="#f4a223"/></radialGradient><path fill="url(#a)" d="M63.6 118.8c-27.9 0-58-17.5-58-55.9S35.7 7 63.6 7c15.5 0 29.8 5.1 40.4 14.4 11.5 10.2 17.6 24.6 17.6 41.5s-6.1 31.2-17.6 41.4a61 61 0 0 1-40.4 14.5"/><radialGradient id="b" cx="63.6" cy="-2088.9" r="57" gradientTransform="matrix(1 0 0 -1 0 -2026)" gradientUnits="userSpaceOnUse"><stop offset=".1" stop-color="#f4a223"/><stop offset=".4" stop-color="#f49f22"/><stop offset=".5" stop-color="#f6951d"/><stop offset=".7" stop-color="#f88416"/><stop offset=".9" stop-color="#fb6d0c"/><stop offset="1" stop-color="#ff5100"/></radialGradient><path fill="url(#b)" d="M63.6 118.8c-27.9 0-58-17.5-58-55.9S35.7 7 63.6 7c15.5 0 29.8 5.1 40.4 14.4 11.5 10.2 17.6 24.6 17.6 41.5s-6.1 31.2-17.6 41.4a61 61 0 0 1-40.4 14.5"/><linearGradient id="c" x1="63.6" x2="63.6" y1="-2144.8" y2="-2033" gradientTransform="matrix(1 0 0 -1 0 -2026)" gradientUnits="userSpaceOnUse"><stop offset="0" stop-color="#f4a223"/><stop offset=".1" stop-color="#f4a223" stop-opacity=".9"/><stop offset=".9" stop-color="#f4a223" stop-opacity="0"/></linearGradient><path fill="url(#c)" d="M63.6 118.8c-27.9 0-58-17.5-58-55.9S35.7 7 63.6 7c15.5 0 29.8 5.1 40.4 14.4 11.5 10.2 17.6 24.6 17.6 41.5s-6.1 31.2-17.6 41.4a61 61 0 0 1-40.4 14.5"/><path fill="#d84213" d="M111.5 29.7a57 57 0 0 1 8.1 30.2c0 16.9-6.1 31.2-17.6 41.4a61 61 0 0 1-40.4 14.5c-18 0-37-7.3-48.2-23a58 58 0 0 0 50.2 26c15.4 0 29.8-5.2 40.4-14.5a54 54 0 0 0 17.6-41.4q-.1-19.2-10.1-33.2"/><radialGradient id="d" cx="25.7" cy="63.1" r="19.4" gradientTransform="matrix(.9791 0 0 .9301 2.087 6.472)" gradientUnits="userSpaceOnUse"><stop offset="0" stop-color="#ed0e00"/><stop offset=".1" stop-color="#ed1709" stop-opacity=".8"/><stop offset=".4" stop-color="#ed2f23" stop-opacity=".6"/><stop offset=".7" stop-color="#ed554c" stop-opacity=".3"/><stop offset=".9" stop-color="#ed7770" stop-opacity="0"/></radialGradient><circle cx="27.3" cy="65.2" r="17.5" fill="url(#d)"/><radialGradient id="e" cx="100.8" cy="63.1" r="19.4" gradientTransform="matrix(.9791 0 0 .9301 2.087 6.472)" gradientUnits="userSpaceOnUse"><stop offset="0" stop-color="#ed0e00"/><stop offset=".1" stop-color="#ed1709" stop-opacity=".8"/><stop offset=".4" stop-color="#ed2f23" stop-opacity=".6"/><stop offset=".7" stop-color="#ed554c" stop-opacity=".3"/><stop offset=".9" stop-color="#ed7770" stop-opacity="0"/></radialGradient><circle cx="100.8" cy="65.2" r="17.5" fill="url(#e)"/><ellipse cx="64" cy="91.2" fill="#422b0d" rx="28.5" ry="11.8"/><path fill="#f04" d="M65.1 98.3a2 2 0 0 0 2-2V82.6h-4v13.7q.2 1.8 2 2"/><path fill="#1f0b08" d="M65.1 98.3a2 2 0 0 0 2-2V82.6h-4v13.7q.2 1.8 2 2" opacity=".3"/><radialGradient id="f" cx="20.6" cy="495.1" r="33.4" gradientTransform="matrix(1 0 0 1.54 0 -699.47)" gradientUnits="userSpaceOnUse"><stop offset=".5" stop-color="#4fc3f7"/><stop offset="1" stop-color="#1e88e5"/></radialGradient><path fill="url(#f)" d="M19.5 107c-8.4 0-15-8.2-15-15.2 0-5 2.3-10.7 5.4-18.6l1.4-3.7c1.5-3.7 2.8-7.7 4.8-11.2a3.5 3.5 0 0 1 6.2 0c1.8 3.5 3.1 7.2 5 11.5 5.5 12.2 7 17.2 7 22.1.2 7-6.4 15.1-14.8 15.1"/><path fill="#81d4fa" d="M28.7 97.7c-2 3-6.3 2.4-6.3-2.6 0-3.1.7-19.2 3.4-17 4.3 3.7 5.6 15.4 2.9 19.6"/><path fill="#422b0d" d="M27.4 39.8c-2.2.4-2.3 3.6 0 3.7a21 21 0 0 0 18.1-10c1.2-2.2-1.6-3.7-3-2a26 26 0 0 1-15.1 8.3M86 31.5c-1.5-1.7-4.3-.2-3 2q1.3 2.5 3.7 4.5c4 3.8 9.4 5.6 14.3 5.5 2.4-.1 2.3-3.3 0-3.7a26 26 0 0 1-15-8.3"/><path fill="none" d="M63.1 85.9v10.4q.2 1.8 2 2c1.8.2 2-.9 2-2V86z"/><path fill="#ff4081" d="M67.1 85.9v10.4q-.2 1.8-2 2c-1.8.2-2-.9-2-2V86c-7.5.2-13.4 1.5-16.9 2.4V101c0 9.6 7.8 17.3 17.3 17.3h3.2c9.5 0 17.2-7.8 17.2-17.3V88.3A70 70 0 0 0 67.1 86"/><path fill="#ff4081" d="M67.1 82.6v3.3q7.8 0 16.9 2.4v-1.7a42 42 0 0 0-16.9-4"/><path fill="#ab3f2e" d="M67.1 82.6v3.3q7.8 0 16.9 2.4v-1.7a42 42 0 0 0-16.9-4" opacity=".3"/><path fill="#ff4081" d="M63.1 82.6a33 33 0 0 0-16.8 4v1.8a68 68 0 0 1 16.8-2.5z"/><path fill="#ab3f2e" d="M63.1 82.6a33 33 0 0 0-16.8 4v1.8a68 68 0 0 1 16.8-2.5z" opacity=".3"/><radialGradient id="g" cx="113.6" cy="467.6" r="29.5" gradientTransform="matrix(1 0 0 1.54 0 -699.47)" gradientUnits="userSpaceOnUse"><stop offset=".5" stop-color="#4fc3f7"/><stop offset="1" stop-color="#1e88e5"/></radialGradient><path fill="url(#g)" d="M112.6 59.6c-7.5 0-13.2-7.3-13.2-13.5 0-4.4 2-9.4 4.7-16.5l1.3-3.2c1.3-3.3 2.4-6.8 4.2-10a3.1 3.1 0 0 1 5.5.1c1.6 3 2.7 6.3 4.4 10.1 4.9 10.9 6.3 15.2 6.3 19.6 0 6.1-5.8 13.4-13.2 13.4"/><path fill="#81d4fa" d="M120.7 51.3c-1.7 2.6-5.5 2-5.5-2.3 0-2.7.5-17 3-15 3.8 3.2 5 13.6 2.5 17.3"/><path fill="#422b0d" d="M44 46c-4.2 0-8 3.5-8 9.4s3.8 9.4 8 9.4 8-3.6 8-9.4-3.8-9.5-8-9.5"/><path fill="#896024" d="M43.7 49.9c-1-.8-2.6-.5-3.6 1-1 1.4-.7 2.9.3 3.6s2.6.5 3.6-1 .7-3-.4-3.6"/><path fill="#422b0d" d="M82.4 46c-4.2 0-8 3.5-8 9.4s3.8 9.4 8 9.4 8-3.6 8-9.4-3.8-9.5-8-9.5"/><path fill="#896024" d="M82 49.9c-1-.8-2.6-.5-3.6 1-1 1.4-.6 2.9.4 3.6s2.6.5 3.6-1c1-1.4.6-3-.4-3.6"/></svg>