<svg xmlns="http://www.w3.org/2000/svg" width="1em" height="1em" viewBox="0 0 128 128"><radialGradient id="notoHotFace0" cx="63.6" cy="-2088.9" r="56.96" gradientTransform="matrix(1 0 0 -1 0 -2026)" gradientUnits="userSpaceOnUse"><stop offset=".5" stop-color="#FDE030"/><stop offset=".919" stop-color="#F7C02B"/><stop offset="1" stop-color="#F4A223"/></radialGradient><path fill="url(#notoHotFace0)" d="M63.6 118.8c-27.9 0-58-17.5-58-55.9S35.7 7 63.6 7c15.5 0 29.8 5.1 40.4 14.4c11.5 10.2 17.6 24.6 17.6 41.5s-6.1 31.2-17.6 41.4c-10.6 9.3-25 14.5-40.4 14.5z"/><radialGradient id="notoHotFace1" cx="63.6" cy="-2088.9" r="56.96" gradientTransform="matrix(1 0 0 -1 0 -2026)" gradientUnits="userSpaceOnUse"><stop offset=".123" stop-color="#F4A223"/><stop offset=".356" stop-color="#F49F22"/><stop offset=".539" stop-color="#F6951D"/><stop offset=".705" stop-color="#F88416"/><stop offset=".861" stop-color="#FB6D0C"/><stop offset="1" stop-color="#FF5100"/></radialGradient><path fill="url(#notoHotFace1)" d="M63.6 118.8c-27.9 0-58-17.5-58-55.9S35.7 7 63.6 7c15.5 0 29.8 5.1 40.4 14.4c11.5 10.2 17.6 24.6 17.6 41.5s-6.1 31.2-17.6 41.4c-10.6 9.3-25 14.5-40.4 14.5z"/><linearGradient id="notoHotFace2" x1="63.6" x2="63.6" y1="-2144.8" y2="-2033" gradientTransform="matrix(1 0 0 -1 0 -2026)" gradientUnits="userSpaceOnUse"><stop offset="0" stop-color="#F4A223"/><stop offset=".083" stop-color="#F4A223" stop-opacity=".905"/><stop offset=".877" stop-color="#F4A223" stop-opacity="0"/></linearGradient><path fill="url(#notoHotFace2)" d="M63.6 118.8c-27.9 0-58-17.5-58-55.9S35.7 7 63.6 7c15.5 0 29.8 5.1 40.4 14.4c11.5 10.2 17.6 24.6 17.6 41.5s-6.1 31.2-17.6 41.4c-10.6 9.3-25 14.5-40.4 14.5z"/><path fill="#D84213" d="M111.49 29.67c5.33 8.6 8.11 18.84 8.11 30.23c0 16.9-6.1 31.2-17.6 41.4c-10.6 9.3-25 14.5-40.4 14.5c-18.06 0-37.04-7.35-48.18-22.94c10.76 17.66 30.99 25.94 50.18 25.94c15.4 0 29.8-5.2 40.4-14.5c11.5-10.2 17.6-24.5 17.6-41.4c0-12.74-3.47-24.06-10.11-33.23z"/><radialGradient id="notoHotFace3" cx="25.701" cy="63.101" r="19.444" gradientTransform="matrix(.9791 0 0 .9301 2.087 6.472)" gradientUnits="userSpaceOnUse"><stop offset=".005" stop-color="#ED0E00"/><stop offset=".145" stop-color="#ED1709" stop-opacity=".843"/><stop offset=".379" stop-color="#ED2F23" stop-opacity=".582"/><stop offset=".675" stop-color="#ED554C" stop-opacity=".251"/><stop offset=".9" stop-color="#ED7770" stop-opacity="0"/></radialGradient><circle cx="27.25" cy="65.16" r="17.5" fill="url(#notoHotFace3)"/><radialGradient id="notoHotFace4" cx="100.771" cy="63.101" r="19.444" gradientTransform="matrix(.9791 0 0 .9301 2.087 6.472)" gradientUnits="userSpaceOnUse"><stop offset=".005" stop-color="#ED0E00"/><stop offset=".145" stop-color="#ED1709" stop-opacity=".843"/><stop offset=".379" stop-color="#ED2F23" stop-opacity=".582"/><stop offset=".675" stop-color="#ED554C" stop-opacity=".251"/><stop offset=".9" stop-color="#ED7770" stop-opacity="0"/></radialGradient><circle cx="100.75" cy="65.16" r="17.5" fill="url(#notoHotFace4)"/><ellipse cx="64" cy="91.15" fill="#422B0D" rx="28.47" ry="11.85"/><path fill="#F04" d="M65.1 98.32c1.1 0 2-.9 2-2V82.6c-1.33-.03-2.67-.04-4-.02v13.74c0 1.1.9 2 2 2z"/><path fill="#1F0B08" d="M65.1 98.32c1.1 0 2-.9 2-2V82.6c-1.33-.03-2.67-.04-4-.02v13.74c0 1.1.9 2 2 2z" opacity=".3"/><radialGradient id="notoHotFace5" cx="20.59" cy="495.072" r="33.401" gradientTransform="matrix(1 0 0 1.54 0 -699.47)" gradientUnits="userSpaceOnUse"><stop offset=".46" stop-color="#4FC3F7"/><stop offset="1" stop-color="#1E88E5"/></radialGradient><path fill="url(#notoHotFace5)" d="M19.52 107.04c-8.46 0-14.97-8.2-14.97-15.23c0-4.95 2.21-10.68 5.34-18.62c.39-1.17.91-2.34 1.43-3.65c1.49-3.72 2.81-7.75 4.81-11.24c1.36-2.38 4.83-2.38 6.14.03c1.86 3.43 3.14 7.14 5.07 11.47c5.47 12.24 7.03 17.18 7.03 22.13c.12 6.9-6.52 15.11-14.85 15.11z"/><path fill="#81D4FA" d="M28.67 97.65c-1.91 2.96-6.25 2.4-6.25-2.51c0-3.14.64-19.25 3.33-17c4.39 3.67 5.64 15.33 2.92 19.51z"/><path fill="#422B0D" d="M27.39 39.77c-2.2.39-2.31 3.59.09 3.7c4.9.12 10.21-1.66 14.32-5.45c1.5-1.29 2.81-2.89 3.72-4.49c1.21-2.2-1.59-3.71-2.99-2.11l-.1.1c-4.03 4.49-9.54 7.37-15.04 8.25zm58.73-8.25l-.1-.1c-1.41-1.59-4.2-.08-2.99 2.11c.91 1.6 2.21 3.19 3.72 4.49c4.11 3.78 9.42 5.57 14.32 5.45c2.4-.11 2.29-3.31.09-3.7c-5.51-.88-11.02-3.76-15.04-8.25z"/><path fill="none" d="M63.1 85.87v10.45c0 1.1.9 2 2 2s2-.9 2-2V85.86a75.97 75.97 0 0 0-4 .01z"/><path fill="#FF4081" d="M67.1 85.86v10.46c0 1.1-.9 2-2 2s-2-.9-2-2V85.87c-7.45.22-13.41 1.52-16.85 2.48v12.59c0 9.51 7.71 17.21 17.21 17.21h3.28c9.51 0 17.21-7.71 17.21-17.21V88.35a69.508 69.508 0 0 0-16.85-2.49z"/><path fill="#FF4081" d="M67.1 82.6v3.26c5.16.13 10.87.82 16.85 2.48V86.6c-3.4-2.1-11-3.85-16.85-4z"/><path fill="#AB3F2E" d="M67.1 82.6v3.26c5.16.13 10.87.82 16.85 2.48V86.6c-3.4-2.1-11-3.85-16.85-4z" opacity=".3"/><path fill="#FF4081" d="M63.1 82.58c-5.88.1-12.17.99-16.85 3.97v1.8c3.45-.96 9.41-2.26 16.85-2.48v-3.29z"/><path fill="#AB3F2E" d="M63.1 82.58c-5.88.1-12.17.99-16.85 3.97v1.8c3.45-.96 9.41-2.26 16.85-2.48v-3.29z" opacity=".3"/><radialGradient id="notoHotFace6" cx="113.569" cy="467.559" r="29.532" gradientTransform="matrix(1 0 0 1.54 0 -699.47)" gradientUnits="userSpaceOnUse"><stop offset=".46" stop-color="#4FC3F7"/><stop offset="1" stop-color="#1E88E5"/></radialGradient><path fill="url(#notoHotFace6)" d="M112.62 59.56c-7.48 0-13.24-7.25-13.24-13.47c0-4.37 1.96-9.44 4.72-16.46c.35-1.04.81-2.07 1.27-3.22c1.32-3.29 2.48-6.86 4.25-9.94c1.21-2.11 4.27-2.1 5.43.03c1.65 3.03 2.77 6.31 4.48 10.14c4.83 10.82 6.22 15.19 6.22 19.57c.11 6.1-5.76 13.35-13.13 13.35z"/><path fill="#81D4FA" d="M120.72 51.26c-1.69 2.61-5.53 2.12-5.53-2.22c0-2.77.56-17.02 2.95-15.03c3.88 3.24 4.98 13.56 2.58 17.25z"/><path fill="#422B0D" d="M44.04 45.94c-4.19 0-8 3.54-8 9.42s3.81 9.42 8 9.42c4.19 0 8-3.54 8-9.42s-3.8-9.42-8-9.42z"/><path fill="#896024" d="M43.65 49.87c-1.03-.72-2.58-.49-3.58.95c-1 1.45-.67 2.97.36 3.69c1.03.72 2.58.49 3.58-.95s.68-2.97-.36-3.69z"/><path fill="#422B0D" d="M82.4 45.94c-4.19 0-8 3.54-8 9.42s3.81 9.42 8 9.42c4.19 0 8-3.54 8-9.42s-3.81-9.42-8-9.42z"/><path fill="#896024" d="M82.01 49.87c-1.03-.72-2.58-.49-3.58.95c-1 1.45-.67 2.97.36 3.69c1.03.72 2.58.49 3.58-.95c1.01-1.45.67-2.97-.36-3.69z"/></svg>