<svg viewBox="0 0 128 128"><path fill="#adbcc3" d="M64 4.5C36.2 4.5 8 28.1 8 55.8s44.3 67.7 56.2 67.7c13.2 0 55.8-39.9 55.8-67.7S91.8 4.5 64 4.5"/><path fill="#422b0d" d="M64 102.4c-9.4 0-16-5.6-18-8.6q-1.2-1.6-.5-3.5.7-1 2-1.1l.9.1C53.1 90.8 57.2 93 64 93s11-2.2 15.6-3.6l1-.2q1.2 0 2 1.2.7 1.8-.5 3.4a23 23 0 0 1-18.1 8.6M54 81.6c-3 3.8-17.7 3.9-28.8-6.4-10-9.3-9.5-25.6-6.1-29s19.2-3.3 28.8 6.4 9.8 25.3 6.2 29m26-29c9.6-9.7 25.5-9.6 28.8-6.4s3.6 19.2-6.1 28.9-25.2 9.9-28.9 6.3-3.5-19.1 6.2-28.8"/><path fill="#adbcc3" d="M64 4.5c14.5 0 29.1 6.4 39.8 16.5A60 60 0 0 0 61.5 2c-27.8 0-56 23.6-56 51.3 0 15.6 14 35.1 28.4 49.2C20.5 88.6 8 70.5 8 55.8 8 28.1 36.2 4.5 64 4.5"/></svg>