<svg xmlns="http://www.w3.org/2000/svg" width="1em" height="1em" viewBox="0 0 128 128"><radialGradient id="notoSalutingFace0" cx="63.6" cy="-2382.849" r="56.96" gradientTransform="matrix(1 0 0 -1 0 -2316.949)" gradientUnits="userSpaceOnUse"><stop offset=".5" stop-color="#FDE030"/><stop offset=".919" stop-color="#F7C02B"/><stop offset="1" stop-color="#F4A223"/></radialGradient><path fill="url(#notoSalutingFace0)" d="M63.6 121.8c-27.9 0-58-17.5-58-55.9S35.7 10 63.6 10c15.5 0 29.8 5.1 40.4 14.4c11.5 10.2 17.6 24.6 17.6 41.5s-6.1 31.2-17.6 41.4c-10.6 9.3-25 14.5-40.4 14.5z"/><path fill="#EB8F00" d="M111.49 32.67c5.33 8.6 8.11 18.84 8.11 30.23c0 16.9-6.1 31.2-17.6 41.4c-10.6 9.3-25 14.5-40.4 14.5c-18.06 0-37.04-7.35-48.18-22.94c10.76 17.66 30.99 25.94 50.18 25.94c15.4 0 29.8-5.2 40.4-14.5c11.5-10.2 17.6-24.5 17.6-41.4c0-12.74-3.47-24.06-10.11-33.23z"/><path fill="#422B0D" d="M84.74 87.06c-2.98-.41-9.6-.55-21.53-.55h-.1c-11.94 0-18.55.14-21.53.55c-1.81.25-2.5 2.5-.19 4.02c4.26 2.8 10.65 4.71 21.78 4.79c11.13-.07 17.52-1.99 21.78-4.79c2.29-1.52 1.6-3.77-.21-4.02z"/><path fill="#F09300" d="M73.51 13.93c-.05-.07-.1-.13-.15-.19c-1.11-1.39-5.02-3.41-6.83-2.39c-.8.45-1.07 2.02-1.44 2.8c-.65 1.37-1.49 2.62-2.32 3.89c-2.63 4.01-43.48 34.05-43.48 34.05L7.67 50.17C6.56 53 6.41 56.33 6.41 56.33s3.17 2.31 16.34 1.55c8.51-.49 24.79-7.48 27.86-12.6c.75-1.25 6.99-9.94 6.93-10.7c1.41-.74 8.49-5.06 12.15-8.12c2.79-2.33 4.57-4.18 4.9-7.95c.14-1.59-.14-3.28-1.08-4.58z"/><path fill="#422B0D" d="M44.04 47.94c-4.19 0-8 3.54-8 9.42s3.81 9.42 8 9.42c4.19 0 8-3.54 8-9.42s-3.8-9.42-8-9.42z"/><path fill="#896024" d="M43.65 51.87c-1.03-.72-2.58-.49-3.58.95c-1 1.45-.67 2.97.36 3.69c1.03.72 2.58.49 3.58-.95s.68-2.97-.36-3.69z"/><path fill="#422B0D" d="M82.4 47.94c-4.19 0-8 3.54-8 9.42s3.81 9.42 8 9.42c4.19 0 8-3.54 8-9.42s-3.81-9.42-8-9.42z"/><path fill="#896024" d="M82.01 51.87c-1.03-.72-2.58-.49-3.58.95c-1 1.45-.67 2.97.36 3.69c1.03.72 2.58.49 3.58-.95c1.01-1.45.67-2.97-.36-3.69z"/><linearGradient id="notoSalutingFace1" x1="51.815" x2="35.739" y1="59.902" y2="20.164" gradientUnits="userSpaceOnUse"><stop offset="0" stop-color="#FFC400"/><stop offset="1" stop-color="#FFF176"/></linearGradient><path fill="url(#notoSalutingFace1)" d="M7.67 50.17c-8.08-8.1-5.56-26.65 9.86-30.96c7.22-2.02 10.41-4.34 14.36-5.8c5.45-2.02 12.4-6.37 14.86-6.51c3.25-.18 4.57 2.46 4.57 2.46s3.2-1.79 5.46-3.16s3.77-1.83 5.13-1.05c1.63.92 2.57 3.22 2.57 3.22s1.03-.89 2.12-1.96c1.51-1.48 4.38-1.01 5.61 1.54c1.12 2.32-1.02 7.33-1.02 7.33s3.24.02 1.74 4.77s-3.95 5.85-5.76 7.47s-6.99 4.71-9.27 6.12c0 0 1.87 2.18 1.09 4.97c-.35 1.24-1.47 2.07-2.43 2.89c-1.34 1.15-8.16 5.82-9.6 6.84c-3.4 2.41-14 7.65-20.25 8.02c-.02-.01-10.79 2.09-19.04-6.19z"/><path fill="#F09300" d="M15.84 41.29c-1.31.65-3.05-.11-1.79-1.59c2.45-2.46 5.28-4.58 7.28-7.46c1.08-1.38 1.96-3.02 2.33-3.7c.37-.68.96-1.42 1.27-.55c.21.6-.16 1.87-.51 2.79c-1.93 4.05-4.63 8.22-8.58 10.51z"/><path fill="#F09300" d="M73.52 20.45c1.68-4.69-1.71-5.85-1.71-5.85s2.37-4.41.57-7.47c-1.34-2.29-3.11-2.67-5.18-1.61c-1.42.73-2.82 2.13-2.82 2.13s-.36-2.2-1.99-3.12c-1.95-.94-3.42-.92-6.33 1.32c-1.72 1.32-4.75 3.52-4.75 3.52c-1.94-3.12-4.47-2.47-4.57-2.46c-2.47.13-9.41 4.49-14.86 6.51c-3.95 1.46-7.9 2.11-14.9 4.79C3.38 23.42.66 33.51 3.57 42.84c-.7-14 7.41-19.12 14.48-21.83c4-1.53 6.96-2.38 9.57-3.12c4.66-1.18 8.98-3.08 13.24-5.3c2.18-1.09 3.65-1.97 4.43-2.35c1.04-.5 2.22-.4 3.06.12c.81.5 1.85 1.74.41 3.65c-1.18 1.56-4.43 2.77-7.36 4.13c-1.65.83-11.35 4.98-9.7 7.25c.29.43.82.64 1.32.51c.43-.14 1.27-.2 1.58-.57c2.58-2.55 5.95-3.74 9.37-5.41c3.8-1.77 6.95-3.24 8.7-7.75l.59-.38c1.24-1.03 3.74-3.12 5.49-4.46c1.35-1.28 4.04-.34 4.34 1.36c.3 1.7-.82 3.27-3.18 5.84c-4.25 4.34-14.53 8.24-18.93 13.5c-.73.87.17 2.27 1.27 1.96c.5-.14 1.21-.33 2.44-1.79s4.43-3.52 8.31-5.83c5.13-3.11 9.99-7.18 12.05-12.3c.61-1.51 2.42-2.46 4.09-2.48c1.81.01 3.06 2.27 1.61 5.23c-.65 1.34-1.28 2.53-4.24 5.69c-2.62 2.79-6.17 4.87-9.9 7.01c-3.34 1.91-6.64 4.03-8.22 5.92c-.78.87-.29 2.32.86 2.04c.48-.1.73.25 1.87-1.09c1.14-1.34 3.58-3.22 6.58-4.93c5.31-2.71 9.7-6.58 12.96-10.98c0 0 2.01.23 1.38 2.83c-1.77 7.38-10.63 10.06-16.3 14.11c-3.36 1.72-11.59 8.41-13.23 7.69c-3.65-1.61-13.17-2.17-18.55 2.91c-.6.57-1.58 1.58-1.26 2c.32.42 1.02-.17 1.49-.47c4.24-2.68 10.2-3.98 17.45-1.7c1.52.48 12.22-6.57 15.38-8.53c-.05-.03 5.47-3.37 8.46-5.45c3.01-2.09 6.34-4.68 8.04-9.42z"/><path fill="#F09300" d="M58.55 33.99c.46-.29-2.13 1.25-2.13 1.25c.15.16 1.51 1.51 1.25 2.43c-.11.4.03 1.35-2.06 2.87c-1.12.81-10.54 7.43-10.54 7.43c-23.74 15.85-39.04.55-37.4 2.2l.03.03c8.24 8.24 19.42 7.05 19.42 7.05c10.2-1.51 16.8-5.93 20.2-8.34c1.44-1.02 8.69-6.09 10.03-7.24c.96-.82 2.01-1.74 2.36-2.99c.76-2.72-1.06-4.59-1.16-4.69z"/></svg>