<svg xmlns="http://www.w3.org/2000/svg" width="1em" height="1em" viewBox="0 0 128 128"><radialGradient id="notoShakingFace0" cx="193.527" cy="-2704.416" r="49.659" gradientTransform="scale(1 -1) rotate(32.271 -4436.94 -1604.531)" gradientUnits="userSpaceOnUse"><stop offset=".5" stop-color="#FDE030"/><stop offset=".919" stop-color="#F7C02B"/><stop offset="1" stop-color="#F4A223"/></radialGradient><path fill="url(#notoShakingFace0)" d="M91.56 103.55c-20.57 12.99-50.9 14.1-68.78-14.21s-3.83-55.22 16.74-68.21C50.94 13.92 63.86 11.02 76 12.94c13.23 2.17 24.42 9.94 32.29 22.4s10.03 25.84 6.3 38.71c-3.49 11.8-11.68 22.33-23.03 29.5z"/><path fill="#EEBA4B" d="M60.08 118.82a.96.96 0 0 1-1.02.85c-5.9-.47-11.81-1.9-17.26-4.46c-5.78-2.61-10.96-6.45-15.48-10.86c-4.5-4.47-8.21-9.61-11.32-15.07c-3.03-5.51-5.38-11.49-6.61-17.73c-1.19-6.23-1.46-12.7-.29-18.94c.44-2.73 1.16-5.4 2.04-8c.21-.62.89-.96 1.51-.76c.62.2.97.86.79 1.49c-.71 2.51-1.32 5.05-1.62 7.65c-.85 5.94-.51 12.02.77 17.87c1.27 5.86 3.5 11.5 6.45 16.72c5.77 10.48 14.25 19.71 24.99 25.16c5.06 2.6 10.59 4.25 16.22 5.03c.53.07.9.54.83 1.05z"/><path fill="#EEBA4B" d="M3.9 69.68c.52.05.93.43 1.02.94c.39 2.1.9 4.17 1.52 6.21c2.24 7.46 5.88 14.44 10.33 20.81c4.19 5.98 9.22 11.42 15.11 15.75c.63.46.78 1.32.34 1.96c-.43.63-1.29.82-1.94.4c-3.05-1.96-5.84-4.32-8.48-6.81c-2.92-2.86-5.53-6.01-7.91-9.3c-2.25-3.37-4.35-6.85-6.07-10.54c-1.67-3.7-3.13-7.52-4.03-11.5c-.54-2.19-.93-4.43-1.17-6.67c-.05-.71.56-1.32 1.28-1.25zm117.83-6.4c-.74.01-1.35-.57-1.41-1.31c-.42-5.32-1.55-10.56-3.48-15.53c-1.98-5.42-4.86-10.54-8.19-15.29c-3.28-4.79-7.18-9.12-11.66-12.71c-4.1-3.36-8.71-6.09-13.66-8.05a1.406 1.406 0 0 1-.83-1.74c.24-.74 1.05-1.16 1.79-.9c11.1 3.88 20.59 11.76 27.24 21.39c3.45 5.02 6.43 10.41 8.44 16.18c1.88 5.3 3 10.88 3.19 16.5c0 .8-.64 1.46-1.43 1.46zM97.68 7.3c.15-.66.9-.99 1.48-.64a57.68 57.68 0 0 1 8.29 6.22c5.86 5.23 10.69 11.53 14.61 18.32a75.67 75.67 0 0 1 4.31 9.1c.34.87-.12 1.85-.99 2.17c-.84.31-1.77-.11-2.11-.94a73.816 73.816 0 0 0-4.25-8.6a86.034 86.034 0 0 0-6.12-9.44c-2.19-3.05-4.68-5.85-7.28-8.56a67.536 67.536 0 0 0-7.57-6.63c-.3-.24-.45-.62-.37-1z"/><path fill="#EB8F00" d="M85.37 15.55c7.93 3.86 14.75 10.12 20.05 18.51c7.87 12.46 10.03 25.84 6.3 38.71c-3.49 11.79-11.68 22.33-23.03 29.49c-13.32 8.41-30.72 11.82-46.19 5.52c16.15 8.01 34.92 4.7 49.06-4.24c11.35-7.17 19.55-17.7 23.03-29.49c3.73-12.87 1.57-26.25-6.3-38.71c-5.93-9.39-13.76-16.12-22.92-19.79z"/><path fill="#422B0D" d="M65.92 34.68c2.55-1.61 7.25.71 11.2 6.98s4.03 11.51 1.48 13.12c-2.55 1.61-7.25-.71-11.2-6.98s-4.03-11.52-1.48-13.12zm-25.04 15.8c-2.72 1.72-2.8 7.05 1.16 13.32s8.81 8.49 11.53 6.77c2.72-1.72 2.8-7.05-1.16-13.32s-8.81-8.48-11.53-6.77z"/><path fill="#896024" d="M42.28 53.04c-.99-.04-1.94.76-2 2.15c-.06 1.39.81 2.27 1.8 2.32c.99.04 1.94-.76 2-2.15s-.8-2.28-1.8-2.32zM67.84 36.9c-.99-.04-1.94.76-2 2.15c-.06 1.39.81 2.27 1.8 2.32c.99.04 1.94-.76 2-2.15c.06-1.4-.81-2.28-1.8-2.32z"/><path fill="#BF9052" d="M37.69 77.48c-2.73-2.37-4.95-5.1-6.61-8.06c-1.49-2.67-2.52-5.52-3.03-8.47c-.06-.37-.51-1.02-1.25-.99s-.97.72-.99 1.02c-.16 3.31.74 6.51 2.56 9.65c2.16 3.74 4.67 6.27 7.78 8.43c.34.24 1.12.59 1.7-.1s.11-1.25-.16-1.48z"/><path fill="#896024" d="M39.57 65.36c-2.45-3.87-3.35-7.39-3.04-9.92c-1.49-.5-2.84-.42-3.88.23c-2.72 1.72-2.8 7.05 1.16 13.32s8.81 8.49 11.53 6.77c1.04-.65 1.69-1.84 1.88-3.4c-2.41-.8-5.2-3.12-7.65-7z"/><path fill="#BF9052" d="M90.75 43.97c-.97-3.48-2.48-6.66-4.44-9.43c-1.77-2.49-3.9-4.65-6.35-6.37c-.31-.22-.7-.89-.36-1.55c.34-.66 1.07-.57 1.35-.45c3.06 1.27 5.56 3.46 7.62 6.46c2.44 3.56 3.65 6.91 4.26 10.65c.07.41.05 1.27-.82 1.49s-1.16-.46-1.26-.8z"/><path fill="#896024" d="M79.01 40.46c-2.45-3.87-5.24-6.2-7.65-7.01c.19-1.56.84-2.75 1.88-3.4c2.72-1.72 7.57.51 11.53 6.77s3.87 11.6 1.16 13.32c-1.04.65-2.39.73-3.88.23c.3-2.52-.6-6.03-3.04-9.91z"/><path fill="#422B0D" d="M68.55 86.57c-1.21-2-1.97-4.95-1.48-8.14c.98-6.44 6.85-10.15 13.09-8.31c5.91 1.74 10.09 8.12 9.34 14.25c-.88 7.15-7.75 11.05-14.45 8.18c-2.56-1.11-4.57-2.87-6.5-5.98z"/></svg>