<svg xmlns="http://www.w3.org/2000/svg" width="1em" height="1em" viewBox="0 0 128 128"><path fill="#ffc022" d="M114.11 70.76C112.31 44.78 94.44 26.3 64 26.3S15.69 44.78 13.89 70.76c-1.05 15.14 5.05 28.01 17.09 36.21 0 0 12.21 9.88 33.02 10.14 20.81-.26 33.02-10.14 33.02-10.14 12.03-8.2 18.14-21.07 17.09-36.21"/><path fill="#ff7043" d="M54.12 45.02c1.13.96 3.42.82 4.75-.72 1.61-1.87 3.29-8.17 2.24-17.91-4.67.17-9.09.84-13.21 1.97 3.33 5.46 4.13 14.88 6.22 16.66m19.76 0c-1.13.96-3.42.82-4.75-.72-1.61-1.87-3.29-8.17-2.24-17.91 4.67.17 9.09.84 13.21 1.97-3.33 5.46-4.13 14.88-6.22 16.66" opacity=".47"/><path d="M55.96 76.97c-.05-2.86 4.06-4.24 7.95-4.3s8.07 1.2 8.12 4.06-4.86 6.64-7.95 6.64c-3.08 0-8.07-3.54-8.12-6.4"/><path fill="none" stroke="#9e9e9e" stroke-linecap="round" stroke-miterlimit="10" stroke-width="3" d="m7.5 62 15.44 11.37M3.93 74.92l18.14 5.47M6.43 90.5l16.64-3.11m98.5-25.29-16.51 11.27m19.01 1.38-18.14 5.64m16.54 8.47-17.54-1.47"/><path d="M33.85 64.28c0-2.81.95-6.99 2.42-7.41.45-.13.99-.06 1.36.23 5.16 3.95 8.79 5.85 9.21 6.15 3.53 2.5-1.65 9.4-5.72 9.47-3.93.07-7.27-3.71-7.27-8.44m60.29 0c0-3.09-.52-6.33-1.99-6.74-.45-.13-.99-.06-1.36.23-5.16 3.95-9.22 5.19-9.64 5.49-3.53 2.5 1.65 9.4 5.72 9.47 3.93.06 7.27-3.72 7.27-8.45M82.55 98.21c-1.27-.84-6.7-3.7-11.04-5.83-3.25-1.6-5.28-4.94-5.28-8.56v-2.15c0-1.16-.84-2.22-2-2.34-1.33-.13-2.45.91-2.45 2.21v2.28c0 3.62-2.03 6.97-5.28 8.56-4.34 2.13-9.77 4.99-11.04 5.83a2.216 2.216 0 0 0-.63 3.08c.43.65 1.14 1 1.86 1 .42 0 .85-.12 1.22-.37 4.77-3.14 9.35-6.52 16.1-6.52s11.23 3.32 16.01 6.46c.97.64 2.3.52 3.04-.38a2.24 2.24 0 0 0-.51-3.27"/><path fill="#ffc022" d="M17.39 55.6c-6.98-22.73-2.33-39.51 2.36-46.02 1.38-1.92 3.63-2.57 5.82-1.88 5.8 1.82 6.06 15.7 22.64 20.54"/><path fill="#ff7043" d="M21.6 16.09c-1.44 2.25-2.11 4.92-2.41 7.57-.95 8.42.43 16.93 3.19 21.35 1.52 2.43 2.36-.98 5.28-3.28l1.45-1.61c-7.63-11.98-7.51-24.03-7.51-24.03" opacity=".47"/><path fill="#ef6c00" d="M25.27 39.61c-3.47-8.92-4.95-16.63-3.91-22.75.63-3.72 1.72-6.2 2.54-7.65.19-.34.71-.13.62.24-.61 2.68-1.35 8.11.83 16.94.64 2.59 4.15 11.32 5.15 12.45 1.25 1.41 1.85 3.46-.99 5.67-3.33 2.59-7.06 6.5-9.02 8.63-.31.33-.85-.01-.68-.43.73-1.85 2.09-4.8 4.31-7.86 1.42-1.96 1.9-3.32 1.15-5.24"/><path fill="#ffc022" d="M110.61 55.6c6.98-22.73 2.33-39.51-2.36-46.02-1.38-1.92-3.63-2.57-5.82-1.88-5.8 1.82-6.06 15.7-22.64 20.54"/><path fill="#ff7043" d="M106.4 16.09c1.44 2.25 2.11 4.92 2.41 7.57.95 8.42-.43 16.93-3.19 21.35-1.52 2.43-2.36-.98-5.28-3.28l-1.45-1.61c7.63-11.98 7.51-24.03 7.51-24.03" opacity=".47"/><path fill="#ef6c00" d="M102.73 39.61c3.47-8.92 4.95-16.63 3.91-22.75-.63-3.72-1.72-6.2-2.54-7.65-.19-.34-.71-.13-.62.24.61 2.68 1.35 8.11-.83 16.94-.64 2.59-4.15 11.32-5.15 12.45-1.25 1.41-1.85 3.46.99 5.67 3.33 2.59 7.06 6.5 9.02 8.63.31.33.85-.01.68-.43-.73-1.85-2.09-4.8-4.31-7.86-1.42-1.96-1.9-3.32-1.15-5.24"/></svg>