<svg viewBox="0 0 128 128"><path fill="#ffc022" d="M114.1 70.8c-1.8-26-19.7-44.5-50.1-44.5S15.7 44.8 13.9 70.8a39 39 0 0 0 17 36.2s12.3 9.9 33.1 10.1C84.8 117 97 107 97 107a39 39 0 0 0 17.1-36.2"/><path fill="#ff7043" d="M54.1 45c1.1 1 3.4.8 4.8-.7 1.6-1.9 3.3-8.2 2.2-18q-7 .5-13.2 2c3.3 5.5 4.1 15 6.2 16.7M74 45c-1.2 1-3.4.8-4.8-.7-1.6-1.9-3.3-8.2-2.2-18q7 .5 13.2 2c-3.3 5.5-4.1 15-6.2 16.7" opacity=".5"/><path d="M56 77c0-2.9 4-4.3 8-4.3s8 1.2 8 4-4.8 6.7-8 6.7c-3 0-8-3.6-8-6.4"/><path fill="none" stroke="#9e9e9e" stroke-linecap="round" stroke-miterlimit="10" stroke-width="3" d="m7.5 62 15.4 11.4M4 74.9l18.2 5.5M6.4 90.5l16.7-3.1M121.6 62 105 73.4m19 1.3-18.2 5.7m16.6 8.5-17.6-1.5"/><path d="M33.9 64.3c0-2.8.9-7 2.4-7.4q.7-.2 1.3.2c5.2 4 8.8 5.9 9.2 6.2 3.6 2.5-1.6 9.4-5.7 9.4S34 69 34 64.3m60.2 0c0-3.1-.5-6.3-2-6.8q-.7 0-1.3.3c-5.2 4-9.2 5.2-9.6 5.5-3.6 2.5 1.6 9.4 5.7 9.4 3.9 0 7.2-3.7 7.2-8.4m-11.5 34c-1.3-1-6.7-3.8-11-6a10 10 0 0 1-5.4-8.5v-2.1c0-1.2-.8-2.3-2-2.4-1.3-.1-2.4 1-2.4 2.2v2.3c0 3.6-2 7-5.3 8.6-4.3 2.1-9.8 5-11 5.8a2 2 0 0 0-.7 3 2.2 2.2 0 0 0 3.1.7c4.8-3.1 9.4-6.5 16.1-6.5s11.2 3.3 16 6.5c1 .6 2.3.5 3-.4a2.2 2.2 0 0 0-.4-3.3"/><path fill="#ffc022" d="M17.4 55.6c-7-22.7-2.3-39.5 2.4-46a5 5 0 0 1 5.8-1.9c5.8 1.8 6 15.7 22.6 20.5"/><path fill="#ff7043" d="M21.6 16q-2 3.6-2.4 7.7c-1 8.4.4 16.9 3.2 21.3 1.5 2.4 2.3-1 5.3-3.3l1.4-1.6c-7.6-12-7.5-24-7.5-24" opacity=".5"/><path fill="#ef6c00" d="M25.3 39.6a45 45 0 0 1-4-22.7q1.2-5.6 2.6-7.7c.2-.3.7-.1.6.2-.6 2.7-1.3 8.2.8 17 .7 2.6 4.2 11.3 5.2 12.4 1.3 1.5 1.9 3.5-1 5.7-3.3 2.6-7 6.5-9 8.6-.3.4-.9 0-.7-.4.7-1.8 2.1-4.8 4.3-7.8 1.4-2 2-3.4 1.2-5.3"/><path fill="#ffc022" d="M110.6 55.6c7-22.7 2.3-39.5-2.3-46a5 5 0 0 0-5.9-1.9c-5.8 1.8-6 15.7-22.6 20.5"/><path fill="#ff7043" d="M106.4 16q2 3.6 2.4 7.7c1 8.4-.4 16.9-3.2 21.3-1.5 2.4-2.3-1-5.3-3.3L99 40.1c7.6-12 7.5-24 7.5-24" opacity=".5"/><path fill="#ef6c00" d="M102.7 39.6a45 45 0 0 0 4-22.7q-1.2-5.6-2.6-7.7c-.2-.3-.7-.1-.6.2.6 2.7 1.3 8.2-.9 17a68 68 0 0 1-5.1 12.4c-1.3 1.5-1.9 3.5 1 5.7 3.3 2.6 7 6.5 9 8.6.3.4.9 0 .7-.4-.7-1.8-2.1-4.8-4.3-7.8-1.4-2-2-3.4-1.2-5.3"/></svg>