<svg viewBox="0 0 128 128"><path fill="#ffc022" d="M114.1 70.8c-1.8-26-19.7-44.5-50.1-44.5S15.7 44.8 13.9 70.8a39 39 0 0 0 17 36.2s12.3 9.9 33.1 10.1C84.8 117 97 107 97 107a39 39 0 0 0 17.1-36.2"/><path fill="#ff7043" d="M54.1 45c1.1 1 3.4.8 4.8-.7 1.6-1.9 3.3-8.2 2.2-18q-7 .5-13.2 2c3.3 5.5 4.1 15 6.2 16.7M74 45c-1.2 1-3.4.8-4.8-.7-1.6-1.9-3.3-8.2-2.2-18q7 .5 13.2 2c-3.3 5.5-4.1 15-6.2 16.7" opacity=".5"/><path d="M56 74.5c0-2.8 4-4.2 8-4.3s8 1.2 8 4.1-4.8 6.6-8 6.6c-3 0-8-3.5-8-6.4"/><path fill="none" stroke="#9e9e9e" stroke-linecap="round" stroke-miterlimit="10" stroke-width="3" d="M4.1 74.8s6.7-5.2 18-5.1M5.6 89s4.6-10 17.7-12.3M15 98.3s3.3-10.5 10.3-14.7m98.6-8.8s-6.7-5.2-18-5.1M122.4 89s-4.6-10-17.7-12.3m8.3 21.5s-3.3-10.5-10.3-14.7"/><path d="M33.8 61.8a6 6 0 0 1 3.6-4.4q5.7-2 8-3.2a1 1 0 0 1 1.4.7q.7 1.7 1.1 5.4c.6 5.3-3 8.5-7 8.7-4.6.3-7.8-3.6-7.1-7.2m60.4 0a6 6 0 0 0-3.6-4.4 69 69 0 0 1-8-3.2 1 1 0 0 0-1.4.7q-.7 1.7-1.1 5.4c-.6 5.3 3 8.5 7 8.7 4.6.3 7.8-3.6 7.1-7.2M66 84v-4.5h-4V84a7 7 0 0 1-3.3 5.9c-4 2.6-6.1 4.8-8 7a2.7 2.7 0 0 0 1 4.2c1.3.5 2.7 0 3.3-1.1 1.8-3 5.1-7.3 9-7.3 3.7 0 7 4 8.8 7a3 3 0 0 0 3.6 1h.1c1.6-1 1.9-3 .7-4.2q-2.9-3.2-7.9-6.6a7 7 0 0 1-3.3-6"/><path fill="#28b3f2" d="M34.8 73.4a1.8 1.8 0 0 1 3.2 0c2.2 4.6 6 13.2 7.4 19 2 8.9-2.1 17.2-9.2 17-8.8-.2-12.2-10.6-8.8-19.7a235 235 0 0 1 7.4-16.3"/><path fill="#0277bd" d="M40.2 107.4c-9 .6-13-9.2-10.2-18.3 1.3-4.4 4.4-12 6.2-16.4l.2-.3q-1 0-1.6 1c-2.1 4.3-5.8 11.9-7.4 16.3-3.4 9.1 0 19.5 8.8 19.7q3.7 0 6-2.5z"/><path fill="#81d4fa" d="M39.3 85.8c2 0 3.5 4.5 3.7 9.6.4 6-4.7 7.5-6 1.8-1-4.1.2-11.4 2.3-11.4"/><path fill="#ffc022" d="M20 58.6C5.6 40.1 5 22.5 6 16.6c.5-2.5 2.7-3.9 5.2-4 5.6-.3 20.9 4 34.8 16.5z"/><path fill="#ffd1d1" d="M15.2 23.8a1 1 0 0 0-1.3 1c0 5 .7 11.3 6.9 20 1 1.3 2 3 4.8.1l5.9-6.4c1.2-1 3.6-2.9 1.8-4.5 0-.1-6.6-6.7-18-10.2"/><path fill="#ffc022" d="M108 58.6c14.3-18.5 15-36.1 13.9-42-.5-2.5-2.7-3.9-5.2-4-5.6-.3-20.9 4-34.8 16.5z"/><path fill="#ffd1d1" d="M112.8 23.8a1 1 0 0 1 1.3 1c0 5-.7 11.3-6.9 20-1 1.3-2 3-4.7.1l-6-6.4c-1.2-1-3.6-2.9-1.8-4.5 0-.1 6.6-6.7 18-10.2"/></svg>