<svg xmlns="http://www.w3.org/2000/svg" width="1em" height="1em" viewBox="0 0 128 128"><path fill="#FFC022" d="M110.47 59.02c9.51-24.83 3.65-43.83.29-49.28c-1.33-2.16-3.89-2.76-6.25-2.02C98.29 9.68 81.5 23.4 74.08 42.6M17.53 59.02c-9.51-24.83-3.65-43.83-.29-49.28c1.33-2.16 3.89-2.76 6.25-2.02C29.71 9.68 46.5 23.4 53.92 42.6"/><path fill="#FFC022" d="M114.11 70.76C112.31 44.78 94.44 26.3 64 26.3S15.69 44.78 13.89 70.76c-1.05 15.14 5.05 28.01 17.09 36.21c0 0 12.21 9.88 33.02 10.14c20.81-.26 33.02-10.14 33.02-10.14c12.03-8.2 18.14-21.07 17.09-36.21"/><path fill="#FF7043" d="M54.12 45.02c1.13.96 3.42.82 4.75-.72c1.61-1.87 3.29-8.17 2.24-17.91c-4.67.17-9.09.84-13.21 1.97c3.33 5.46 4.13 14.88 6.22 16.66m19.76 0c-1.13.96-3.42.82-4.75-.72c-1.61-1.87-3.29-8.17-2.24-17.91c4.67.17 9.09.84 13.21 1.97c-3.33 5.46-4.13 14.88-6.22 16.66" opacity=".47"/><path fill="none" stroke="#9E9E9E" stroke-linecap="round" stroke-miterlimit="10" stroke-width="3" d="m122.41 64.63l-16.92 8.33m19.02 3.87l-18.15 3.16m16.05 12.98l-16.92-5.78M5.59 64.63l16.92 8.33M3.49 76.83l18.15 3.16M5.59 92.97l16.92-5.78"/><path d="M32.56 70.26c-.3 0-.6-.06-.89-.19a2.21 2.21 0 0 1-1.14-2.92c.35-.8 3.6-7.85 9.35-7.85c5.68 0 9.17 6.74 9.55 7.51c.54 1.1.09 2.43-1.01 2.97s-2.17-.12-2.97-1.01c-.97-1.08-3.08-3.5-5.57-3.5c-2.5 0-4.58 2.59-5.28 3.65c-.51.77-1.19 1.34-2.04 1.34m62.88 0c.3 0 .6-.06.89-.19a2.21 2.21 0 0 0 1.14-2.92c-.35-.8-3.6-7.85-9.35-7.85c-5.68 0-9.17 6.74-9.55 7.51c-.54 1.1-.09 2.43 1.01 2.97s2.17-.12 2.97-1.01c.97-1.08 3.08-3.5 5.57-3.5c2.5 0 4.58 2.59 5.28 3.65c.51.77 1.19 1.34 2.04 1.34m-39.48 6.72c-.05-2.86 4.06-4.24 7.95-4.3c3.89-.07 8.07 1.2 8.12 4.06s-4.86 6.64-7.95 6.64s-8.07-3.54-8.12-6.4"/><path fill="#FFF" d="M90.06 90.38c-1.64-1.67-4.29-2.16-6.75-1.24c-2.71 1.02-11 4.13-15.22 1.45c-3.71-2.35-3.51-7.13-3.51-7.13h-1.57s.25 5.21-3.11 7.13c-4.35 2.5-12.51-.44-15.22-1.45c-2.45-.92-5.1-.43-6.75 1.24c-1.55 1.57-1.82 3.82-.72 5.88c2.32 4.35 10.58 11.71 26.78 11.77c16.2-.05 24.46-7.42 26.78-11.77c1.11-2.06.84-4.31-.71-5.88"/><path d="M91.58 88.8c-1.74-1.89-4.54-2.44-7.14-1.4c-2.87 1.15-11.64 4.68-16.11 1.64c-3.93-2.66-2.33-6.8-2.33-6.8h-4s1.22 4.62-2.33 6.8c-4.61 2.83-13.24-.5-16.11-1.64c-2.6-1.04-5.4-.49-7.14 1.4c-1.64 1.78-1.93 4.33-.76 6.66c2.46 4.92 11.2 13.26 28.34 13.32c17.15-.06 25.88-8.4 28.34-13.32c1.17-2.33.88-4.88-.76-6.66m-1.92 5.32c-2.01 4.01-9.95 11.61-25.66 11.66c-15.71-.06-23.65-7.65-25.66-11.66c-.61-1.23-.51-2.43.28-3.29c.57-.62 1.4-.95 2.3-.95c.49 0 1.01.1 1.52.3c5.61 2.25 13.68 4.83 18.89 1.36c1.2-.8 2.04-1.46 2.64-2c.01.01.02.02.03.02c.01-.01.02-.02.03-.02c.6.54 1.45 1.2 2.64 2c5.21 3.47 13.28.89 18.89-1.36c.51-.2 1.02-.3 1.52-.3c.9 0 1.73.33 2.3.95c.79.87.89 2.06.28 3.29"/><path fill="none" stroke="#000" stroke-miterlimit="10" stroke-width="2" d="M42.93 89.54v12.33M53.47 91.5v13.65M64 86.8v19.91m21.07-18.32v12.33M74.53 90.48v14.18"/><path fill="#FFD1D1" d="M92.16 36.23c-1.54-1.29-1.5-3.37-.6-5.16c2.16-4.31 7.33-8.78 9.16-10.23c3-2.38 5.32-3.18 6.21.65c1.65 7.08 1.52 16.69-.25 21.99c-.62 1.87-2.54 2.86-4.02 1.57zm-56.32 0c1.54-1.29 1.5-3.37.6-5.16c-2.16-4.31-7.33-8.78-9.16-10.23c-3-2.38-5.32-3.18-6.21.65c-1.65 7.08-1.52 16.69.25 21.99c.62 1.87 2.54 2.86 4.02 1.57z"/></svg>