<svg xmlns="http://www.w3.org/2000/svg" width="1em" height="1em" viewBox="0 0 128 128"><path fill="#ffc022" d="M114.11 70.76C112.31 44.78 94.44 26.3 64 26.3S15.69 44.78 13.89 70.76c-1.05 15.14 5.05 28.01 17.09 36.21 0 0 12.21 9.88 33.02 10.14 20.81-.26 33.02-10.14 33.02-10.14 12.03-8.2 18.14-21.07 17.09-36.21"/><path fill="#ffc022" d="M110.47 59.02c9.51-24.83 3.65-43.83.29-49.28-1.33-2.16-3.89-2.76-6.25-2.02C98.29 9.68 81.5 23.4 74.08 42.6"/><path fill="#ffd1d1" d="M92.16 36.23c-1.54-1.29-1.5-3.37-.6-5.16 2.16-4.31 7.33-8.78 9.16-10.23 3-2.38 5.32-3.18 6.21.65 1.65 7.08 1.52 16.69-.25 21.99-.62 1.87-2.54 2.86-4.02 1.57z"/><path fill="#ffc022" d="M17.53 59.02c-9.51-24.83-3.65-43.83-.29-49.28 1.33-2.16 3.89-2.76 6.25-2.02C29.71 9.68 46.5 23.4 53.92 42.6"/><path fill="#ffd1d1" d="M35.84 36.23c1.54-1.29 1.5-3.37.6-5.16-2.16-4.31-7.33-8.78-9.16-10.23-3-2.38-5.32-3.18-6.21.65-1.65 7.08-1.52 16.69.25 21.99.62 1.87 2.54 2.86 4.02 1.57z"/><path fill="#ff7043" d="M54.12 45.02c1.13.96 3.42.82 4.75-.72 1.61-1.87 3.29-8.17 2.24-17.91-4.67.17-9.09.84-13.21 1.97 3.33 5.46 4.13 14.88 6.22 16.66m19.76 0c-1.13.96-3.42.82-4.75-.72-1.61-1.87-3.29-8.17-2.24-17.91 4.67.17 9.09.84 13.21 1.97-3.33 5.46-4.13 14.88-6.22 16.66" opacity=".47"/><path fill="none" stroke="#9e9e9e" stroke-linecap="round" stroke-miterlimit="10" stroke-width="3" d="m6.09 67.1 16.92 8.34M3.99 79.3l18.15 3.16M6.09 95.44l16.92-5.77m98.9-22.57-16.92 8.34m19.02 3.86-18.15 3.16m16.05 12.98-16.92-5.77"/><path d="M55.96 77.19c-.05-2.86 4.06-4.24 7.95-4.3 3.89-.07 8.07 1.2 8.12 4.06s-4.86 6.64-7.95 6.64-8.07-3.54-8.12-6.4"/><path fill="#ef7f9d" d="M71.89 88.35c.1.02.2.04.31.06 1.3.24 2.5.44 3.7 1.1.16.09.34.2.4.39.07.19 0 .41-.07.6-.43 1.03-1.23 1.8-2.03 2.5-3.16 2.72-7 4.78-10.98 4.54-3.44-.2-6.76-2.21-8.8-5.31-.1-.15-.19-.31-.2-.49-.01-.19.08-.37.18-.52.59-.89 1.58-1.29 2.47-1.76 1.55-.8 2.97-1.91 4.18-3.26.56-.62 1.09-1.3 1.82-1.64 1.29-.6 1.81.47 2.7 1.17 1 .78 2.27 1.42 3.45 1.76.96.27 1.92.65 2.87.86"/><path fill="none" stroke="#000" stroke-miterlimit="10" stroke-width="3.775" d="M77.17 88.86s-4.42 9.43-12.9 9.43c-8.13 0-12.9-9.43-12.9-9.43"/><g fill="none" stroke="#000" stroke-linecap="round" stroke-miterlimit="10" stroke-width="4"><path d="M40.77 84.87s4.04 4.92 11.93 4.92c9.5 0 11.93-10.48 11.93-10.48"/><path d="M87.23 84.87s-4.04 4.92-11.93 4.92c-9.5 0-11.93-10.48-11.93-10.48"/></g><path fill="#d93d8e" d="M103.96 43.02c-7.38-2.07-12.81 3.97-12.81 3.97s-.63-6.85-6.94-9.02c-7.58-2.6-15.58 1.54-16.05 12.26-.54 12.26 15.63 28.3 15.63 28.3s20.08-5.39 26.66-16.84c5.36-9.31-.9-17.1-6.49-18.67"/><path fill="#ad236b" d="M103.96 43.02s-1.82-.49-2.78-.38c0 0 4.11 2.54 6.04 7.15 1.28 3.04 1.61 6.99-.8 11.71-5.23 10.23-21.33 16.56-22.53 17 1.47-.41 20.24-5.81 26.56-16.82 5.36-9.3-.9-17.09-6.49-18.66m-12.82 5.09c-.05-1.08-.25-2.16-.41-2.79-.78-3.16-2.14-4.87-4.47-6.34-2.33-1.48-5.2-1.76-5.2-1.76s2.72.82 4.62 4.56c1 1.96 1.52 4.15 1.67 6.35.05.79.07 1.62.43 2.33s1.16 1.28 1.93 1.06c1.23-.35 1.5-1.89 1.43-3.41"/><path fill="#f48fb1" d="M73.66 43.8c1.68-2.09 4.44-4.08 7.08-2.24 1.41.98 1.42 3.76-.29 5.01-2.9 2.12-3.03 3.52-3.36 4.68-.39 1.4-.65 3.06-1.92 3.77s-2.38-.04-3.05-2.01c-.14-.41-1.88-4.95 1.54-9.21"/><path fill="#d93d8e" d="M43.8 37.81c-7.29 2.37-8.46 10.4-8.46 10.4s-4.32-5.36-10.77-3.66c-7.75 2.04-12.11 9.92-6.56 19.11 6.35 10.51 28.7 14.89 28.7 14.89s13.72-15.62 12.85-28.8c-.71-10.72-10.24-13.73-15.76-11.94"/><path fill="#ad236b" d="M43.8 37.81s-1.79.6-2.52 1.23c0 0 4.82-.17 8.99 2.6 2.75 1.82 5.21 4.92 5.82 10.19 1.32 11.41-8.57 25.61-9.33 26.64.99-1.15 13.62-16.05 12.79-28.72-.7-10.72-10.23-13.73-15.75-11.94m-7.84 11.34a15 15 0 0 0-1.89-2.1c-2.4-2.2-4.48-2.86-7.23-2.8-2.76.06-5.31 1.42-5.31 1.42s2.72-.82 6.37 1.23c1.92 1.08 3.56 2.61 4.91 4.36.49.63.96 1.31 1.65 1.7.69.4 1.67.42 2.19-.18.83-.97.2-2.4-.69-3.63"/><path fill="#f48fb1" d="M19.05 55.26c.03-.73.16-1.47.4-2.22.45-1.4 1.39-2.9 2.87-3.36 1.38-.43 3.29-.13 4.02 1.25.66 1.22.18 2.71-.18 4.05-.43 1.62-.41 3.11-.54 4.71-.1 1.27-.98 2.41-2.32 2.37-1.23-.04-2.18-1.06-2.86-2.09-.98-1.49-1.45-3.07-1.39-4.71"/></svg>