<svg viewBox="0 0 128 128"><path fill="#ffc022" d="M110.5 59c9.5-24.8 3.6-43.8.3-49.3-1.4-2.1-4-2.7-6.3-2-6.2 2-23 15.7-30.4 34.9M17.5 59C8 34.2 14 15.2 17.2 9.7c1.4-2.1 4-2.7 6.3-2 6.2 2 23 15.7 30.4 34.9"/><path fill="#ffc022" d="M114.1 70.8c-1.8-26-19.7-44.5-50.1-44.5S15.7 44.8 13.9 70.8a39 39 0 0 0 17 36.2s12.3 9.9 33.1 10.1C84.8 117 97 107 97 107a39 39 0 0 0 17.1-36.2"/><path fill="#ff7043" d="M54.1 45c1.1 1 3.4.8 4.8-.7 1.6-1.9 3.3-8.2 2.2-18q-7 .5-13.2 2c3.3 5.5 4.1 15 6.2 16.7M74 45c-1.2 1-3.4.8-4.8-.7-1.6-1.9-3.3-8.2-2.2-18q7 .5 13.2 2c-3.3 5.5-4.1 15-6.2 16.7" opacity=".5"/><path fill="none" stroke="#9e9e9e" stroke-linecap="round" stroke-miterlimit="10" stroke-width="3" d="m122.4 64.6-17 8.4m19.1 3.8L106.4 80m16 13-17-5.8M5.7 64.6l17 8.4M3.4 76.8 21.6 80m-16 13 17-5.8"/><path d="m32.6 70.3-1-.2a2.2 2.2 0 0 1-1-3c.3-.7 3.5-7.8 9.3-7.8 5.7 0 9.2 6.7 9.5 7.5.6 1.1.1 2.4-1 3s-2.1-.1-3-1c-1-1.1-3-3.5-5.5-3.5s-4.6 2.6-5.3 3.6q-.8 1.3-2 1.4m62.8 0 1-.2a2.2 2.2 0 0 0 1-3c-.3-.7-3.5-7.8-9.3-7.8-5.7 0-9.1 6.7-9.5 7.5-.6 1.1-.1 2.4 1 3s2.2-.1 3-1c1-1.1 3-3.5 5.5-3.5s4.6 2.6 5.3 3.6q.8 1.3 2 1.4M56 77c0-2.9 4-4.3 8-4.3 3.8 0 8 1.2 8 4s-4.8 6.7-8 6.7-8-3.6-8-6.4"/><path fill="#fff" d="M90 90.4a6 6 0 0 0-6.7-1.3c-2.7 1-11 4.2-15.2 1.5-3.7-2.4-3.5-7.1-3.5-7.1H63s.3 5.2-3.1 7c-4.3 2.6-12.5-.3-15.2-1.4a6 6 0 0 0-6.8 1.3 5 5 0 0 0-.7 5.9C39.5 100.6 47.8 108 64 108s24.5-7.4 26.8-11.7c1-2.1.8-4.4-.7-6"/><path d="M91.6 88.8a6 6 0 0 0-7.2-1.4c-2.8 1.1-11.6 4.7-16 1.6-4-2.6-2.4-6.8-2.4-6.8h-4s1.2 4.7-2.3 6.8c-4.6 2.9-13.3-.5-16.1-1.6-2.6-1-5.4-.5-7.2 1.4a6 6 0 0 0-.7 6.7c2.4 4.9 11.2 13.2 28.3 13.3 17.2 0 25.9-8.4 28.3-13.3 1.2-2.4 1-5-.7-6.7m-2 5.3c-2 4-9.9 11.6-25.6 11.7S40.4 98 38.3 94q-.9-1.9.3-3.3a3 3 0 0 1 2.3-1q.8 0 1.5.4c5.7 2.2 13.7 4.8 19 1.3l2.6-2 2.7 2c5.2 3.5 13.2 1 18.9-1.3l1.5-.3a3 3 0 0 1 2.3 1q1.2 1.3.3 3.2"/><path fill="none" stroke="#000" stroke-miterlimit="10" stroke-width="2" d="M43 89.5V102m10.5-10.4v13.7M64 86.8v20m21-18.4v12.3M74.6 90.5v14.2"/><path fill="#ffd1d1" d="M92.2 36.2c-1.6-1.3-1.5-3.3-.6-5.1 2.1-4.3 7.3-8.8 9.1-10.3 3-2.3 5.3-3.1 6.2.7 1.7 7 1.5 16.7-.2 22-.6 1.8-2.6 2.8-4 1.5zm-56.4 0c1.6-1.3 1.5-3.3.6-5.1a38 38 0 0 0-9.1-10.3c-3-2.3-5.3-3.1-6.2.7-1.7 7-1.6 16.7.2 22 .6 1.8 2.6 2.8 4 1.5z"/></svg>