<svg xmlns="http://www.w3.org/2000/svg" width="1em" height="1em" viewBox="0 0 128 128"><path fill="#FFC022" d="M114.11 70.76C112.31 44.78 94.44 26.3 64 26.3S15.69 44.78 13.89 70.76c-1.05 15.14 5.05 28.01 17.09 36.21c0 0 12.21 9.88 33.02 10.14c20.81-.26 33.02-10.14 33.02-10.14c12.03-8.2 18.14-21.07 17.09-36.21"/><path fill="#FF7043" d="M54.12 45.02c1.13.96 3.42.82 4.75-.72c1.61-1.87 3.29-8.17 2.24-17.91c-4.67.17-9.09.84-13.21 1.97c3.33 5.46 4.13 14.88 6.22 16.66m19.76 0c-1.13.96-3.42.82-4.75-.72c-1.61-1.87-3.29-8.17-2.24-17.91c4.67.17 9.09.84 13.21 1.97c-3.33 5.46-4.13 14.88-6.22 16.66" opacity=".47"/><path d="M55.96 74.54c-.05-2.86 4.06-4.24 7.95-4.3s8.07 1.2 8.12 4.06c.05 2.86-4.86 6.64-7.95 6.64c-3.08 0-8.07-3.54-8.12-6.4"/><path fill="none" stroke="#9E9E9E" stroke-linecap="round" stroke-miterlimit="10" stroke-width="3" d="M4.12 74.76s6.65-5.17 17.94-5.07M5.58 89.09s4.63-10.06 17.75-12.32m-8.29 21.52s3.31-10.47 10.24-14.73m98.6-8.8s-6.65-5.17-17.94-5.07m16.48 19.4s-4.63-10.06-17.75-12.32m8.29 21.52s-3.31-10.47-10.24-14.73"/><path d="M33.78 61.77c.33-1.63 1.45-3.65 3.63-4.37c3.75-1.25 6.53-2.5 7.94-3.18c.58-.28 1.26.02 1.45.63c.36 1.17.88 3.13 1.13 5.49c.57 5.25-3.06 8.44-6.99 8.68c-4.6.28-7.88-3.65-7.16-7.25m60.44 0c-.33-1.63-1.45-3.65-3.63-4.37c-3.75-1.25-6.53-2.5-7.94-3.18a1.04 1.04 0 0 0-1.45.63c-.36 1.17-.88 3.13-1.13 5.49c-.57 5.25 3.06 8.44 6.99 8.68c4.6.28 7.88-3.65 7.16-7.25M65.98 83.98v-4.45h-4v4.44c0 2.41-1.29 4.59-3.31 5.91c-4.03 2.63-6.07 4.8-7.95 7.01c-1.18 1.38-.67 3.51 1.01 4.2c1.23.51 2.65.05 3.32-1.11c1.76-3.05 5.07-7.3 8.94-7.3c3.76 0 7 4.03 8.79 7.06a2.672 2.672 0 0 0 3.58.98l.18-.1c1.52-.84 1.85-2.88.67-4.16c-1.85-2.01-4.71-4.39-7.9-6.58c-1.99-1.36-3.33-3.49-3.33-5.9"/><path fill="#28B3F2" d="M34.78 73.43a1.76 1.76 0 0 1 3.18.01c2.21 4.59 6.11 13.13 7.45 19.02c2.01 8.81-2.13 17.11-9.19 16.95c-8.86-.19-12.26-10.61-8.85-19.71c1.67-4.43 5.31-11.99 7.41-16.27"/><path fill="#0277BD" d="M40.15 107.38c-8.86.59-12.97-9.19-10.19-18.3c1.35-4.43 4.47-12.07 6.27-16.39c.04-.1.1-.17.15-.26c-.63 0-1.27.33-1.6 1c-2.1 4.28-5.74 11.84-7.4 16.27c-3.41 9.1-.01 19.52 8.85 19.71c2.39.05 4.44-.88 6.03-2.46a8.5 8.5 0 0 1-2.11.43"/><path fill="#81D4FA" d="M39.27 85.81c2.04-.03 3.51 4.44 3.77 9.56c.31 6.08-4.78 7.54-6.05 1.85c-.93-4.15.19-11.38 2.28-11.41"/><path fill="#FFC022" d="M19.91 58.62C5.73 40.06 4.92 22.48 6.11 16.64c.51-2.49 2.71-3.93 5.17-4.05c5.59-.26 20.9 4.06 34.85 16.48z"/><path fill="#FFD1D1" d="M15.22 23.77a1 1 0 0 0-1.29.97c.06 5.09.64 11.37 6.85 20.03c.95 1.33 2.08 3.09 4.77.13c1.49-1.64 5.92-6.36 5.92-6.36c1.19-1.07 3.61-2.94 1.86-4.58c-.08-.07-6.62-6.66-18.11-10.19"/><path fill="#FFC022" d="M108.09 58.62c14.18-18.56 14.99-36.15 13.8-41.98c-.51-2.49-2.71-3.93-5.17-4.05c-5.59-.26-20.9 4.06-34.85 16.48z"/><path fill="#FFD1D1" d="M112.78 23.77a1 1 0 0 1 1.29.97c-.06 5.09-.64 11.37-6.85 20.03c-.95 1.33-2.08 3.09-4.77.13c-1.49-1.64-5.92-6.36-5.92-6.36c-1.19-1.07-3.61-2.94-1.86-4.58c.08-.07 6.62-6.66 18.11-10.19"/></svg>