<svg xmlns="http://www.w3.org/2000/svg" width="1em" height="1em" viewBox="0 0 128 128"><path fill="#FFC022" d="M110.47 59.02c9.51-24.83 3.65-43.83.29-49.28c-1.33-2.16-3.89-2.76-6.25-2.02C98.29 9.68 81.5 23.4 74.08 42.6M17.53 59.02c-9.51-24.83-3.65-43.83-.29-49.28c1.33-2.16 3.89-2.76 6.25-2.02C29.71 9.68 46.5 23.4 53.92 42.6"/><path fill="#FFC022" d="M114.11 70.76C112.31 44.78 94.44 26.3 64 26.3S15.69 44.78 13.89 70.76c-1.05 15.14 5.05 28.01 17.09 36.21c0 0 12.21 9.88 33.02 10.14c20.81-.26 33.02-10.14 33.02-10.14c12.03-8.2 18.14-21.07 17.09-36.21"/><path fill="#FF7043" d="M54.12 45.02c1.13.96 3.42.82 4.75-.72c1.61-1.87 3.29-8.17 2.24-17.91c-4.67.17-9.09.84-13.21 1.97c3.33 5.46 4.13 14.88 6.22 16.66m19.76 0c-1.13.96-3.42.82-4.75-.72c-1.61-1.87-3.29-8.17-2.24-17.91c4.67.17 9.09.84 13.21 1.97c-3.33 5.46-4.13 14.88-6.22 16.66" opacity=".47"/><path d="M34.43 65.19c-.08-4.47 3.06-8.14 7-8.21s6.41 3.59 6.49 8.06s-3.06 8.14-7 8.21c-3.94.07-6.41-3.59-6.49-8.06m59.14 0c.08-4.47-3.06-8.14-7-8.21c-3.94-.07-6.41 3.59-6.49 8.06s3.06 8.14 7 8.21c3.94.07 6.41-3.59 6.49-8.06"/><path fill="none" stroke="#9E9E9E" stroke-linecap="round" stroke-miterlimit="10" stroke-width="3" d="M2.4 70.42s9.31-1.69 20.03 3.95M2.31 83.15s8.21-3.72 19.24-1.76M5.5 94.37s7.82-5.18 17.75-6.06m101.92-19.97s-9.36-1.38-19.88 4.62m20.4 8.1s-8.33-3.44-19.29-1.11m16.48 12.44s-7.99-4.92-17.94-5.45"/><path d="M55.96 77.19c-.05-2.86 4.06-4.24 7.95-4.3c3.89-.07 8.07 1.2 8.12 4.06s-4.86 6.64-7.95 6.64s-8.07-3.54-8.12-6.4"/><path fill="#EF7F9D" d="M71.89 88.35c.1.02.2.04.31.06c1.3.24 2.5.44 3.7 1.1c.16.09.34.2.4.39c.07.19 0 .41-.07.6c-.43 1.03-1.23 1.8-2.03 2.5c-3.16 2.72-7 4.78-10.98 4.54c-3.44-.2-6.76-2.21-8.8-5.31c-.1-.15-.19-.31-.2-.49c-.01-.19.08-.37.18-.52c.59-.89 1.58-1.29 2.47-1.76c1.55-.8 2.97-1.91 4.18-3.26c.56-.62 1.09-1.3 1.82-1.64c1.29-.6 1.81.47 2.7 1.17c1 .78 2.27 1.42 3.45 1.76c.96.27 1.92.65 2.87.86"/><path fill="none" stroke="#000" stroke-miterlimit="10" stroke-width="3.775" d="M77.17 88.86s-4.42 9.43-12.9 9.43c-8.13 0-12.9-9.43-12.9-9.43"/><g fill="none" stroke="#000" stroke-linecap="round" stroke-miterlimit="10" stroke-width="4"><path d="M40.77 84.87s4.04 4.92 11.93 4.92c9.5 0 11.93-10.48 11.93-10.48"/><path d="M87.23 84.87s-4.04 4.92-11.93 4.92c-9.5 0-11.93-10.48-11.93-10.48"/></g><path fill="#FFD1D1" d="M92.16 36.23c-1.54-1.29-1.5-3.37-.6-5.16c2.16-4.31 7.33-8.78 9.16-10.23c3-2.38 5.32-3.18 6.21.65c1.65 7.08 1.52 16.69-.25 21.99c-.62 1.87-2.54 2.86-4.02 1.57zm-56.32 0c1.54-1.29 1.5-3.37.6-5.16c-2.16-4.31-7.33-8.78-9.16-10.23c-3-2.38-5.32-3.18-6.21.65c-1.65 7.08-1.52 16.69.25 21.99c.62 1.87 2.54 2.86 4.02 1.57z"/></svg>