<svg viewBox="0 0 128 128"><path fill="#ffc022" d="M110.5 59c9.5-24.8 3.6-43.8.3-49.3-1.4-2.1-4-2.7-6.3-2-6.2 2-23 15.7-30.4 34.9M17.5 59C8 34.2 14 15.2 17.2 9.7c1.4-2.1 4-2.7 6.3-2 6.2 2 23 15.7 30.4 34.9"/><path fill="#ffc022" d="M114.1 70.8c-1.8-26-19.7-44.5-50.1-44.5S15.7 44.8 13.9 70.8a39 39 0 0 0 17 36.2s12.3 9.9 33.1 10.1C84.8 117 97 107 97 107a39 39 0 0 0 17.1-36.2"/><path fill="#ff7043" d="M54.1 45c1.1 1 3.4.8 4.8-.7 1.6-1.9 3.3-8.2 2.2-18q-7 .5-13.2 2c3.3 5.5 4.1 15 6.2 16.7M74 45c-1.2 1-3.4.8-4.8-.7-1.6-1.9-3.3-8.2-2.2-18q7 .5 13.2 2c-3.3 5.5-4.1 15-6.2 16.7" opacity=".5"/><path d="M34.4 65.2c0-4.5 3-8.2 7-8.2s6.4 3.6 6.5 8-3 8.2-7 8.2-6.4-3.5-6.5-8m59.2 0c0-4.5-3-8.2-7-8.2s-6.4 3.6-6.5 8 3 8.2 7 8.2 6.4-3.5 6.5-8"/><path fill="none" stroke="#9e9e9e" stroke-linecap="round" stroke-miterlimit="10" stroke-width="3" d="M2.4 70.4s9.3-1.7 20 4m-20 8.8s8.1-3.8 19.2-1.8m-16.1 13s7.8-5.2 17.8-6m101.9-20s-9.4-1.4-20 4.6m20.5 8s-8.3-3.4-19.3-1m16.5 12.4s-8-5-18-5.5"/><path d="M56 77.2c0-2.9 4-4.3 8-4.3 3.8 0 8 1.2 8 4s-4.8 6.7-8 6.7-8-3.5-8-6.4"/><path fill="#ef7f9d" d="M71.9 88.4h.3q2 .2 3.7 1.1l.4.4v.6a7 7 0 0 1-2.1 2.5c-3.2 2.7-7 4.8-11 4.5-3.4-.2-6.7-2.2-8.8-5.3l-.2-.5.2-.5q1-1.2 2.5-1.7 2.3-1.3 4.2-3.3.7-1 1.8-1.6c1.3-.6 1.8.4 2.7 1.1q1.6 1.2 3.4 1.8z"/><path fill="none" stroke="#000" stroke-miterlimit="10" stroke-width="3.8" d="M77.2 88.9s-4.5 9.4-13 9.4c-8 0-12.8-9.4-12.8-9.4"/><g fill="none" stroke="#000" stroke-linecap="round" stroke-miterlimit="10" stroke-width="4"><path d="M40.8 84.9s4 4.9 11.9 4.9c9.5 0 12-10.5 12-10.5"/><path d="M87.2 84.9s-4 4.9-11.9 4.9c-9.5 0-12-10.5-12-10.5"/></g><path fill="#ffd1d1" d="M92.2 36.2c-1.6-1.3-1.5-3.3-.6-5.1 2.1-4.3 7.3-8.8 9.1-10.3 3-2.3 5.3-3.1 6.2.7 1.7 7 1.5 16.7-.2 22-.6 1.8-2.6 2.8-4 1.5zm-56.4 0c1.6-1.3 1.5-3.3.6-5.1a38 38 0 0 0-9.1-10.3c-3-2.3-5.3-3.1-6.2.7-1.7 7-1.6 16.7.2 22 .6 1.8 2.6 2.8 4 1.5z"/></svg>