<svg xmlns="http://www.w3.org/2000/svg" width="1em" height="1em" viewBox="0 0 128 128"><path fill="#FFC022" d="M110.47 59.02c9.51-24.83 3.65-43.83.29-49.28c-1.33-2.16-3.89-2.76-6.25-2.02C98.29 9.68 81.5 23.4 74.08 42.6M17.53 59.02c-9.51-24.83-3.65-43.83-.29-49.28c1.33-2.16 3.89-2.76 6.25-2.02C29.71 9.68 46.5 23.4 53.92 42.6"/><path fill="#FFC022" d="M114.11 70.76C112.31 44.78 94.44 26.3 64 26.3S15.69 44.78 13.89 70.76c-1.05 15.14 5.05 28.01 17.09 36.21c0 0 12.21 9.88 33.02 10.14c20.81-.26 33.02-10.14 33.02-10.14c12.03-8.2 18.14-21.07 17.09-36.21"/><path fill="#FF7043" d="M54.12 45.02c1.13.96 3.42.82 4.75-.72c1.61-1.87 3.29-8.17 2.24-17.91c-4.67.17-9.09.84-13.21 1.97c3.33 5.46 4.13 14.88 6.22 16.66m19.76 0c-1.13.96-3.42.82-4.75-.72c-1.61-1.87-3.29-8.17-2.24-17.91c4.67.17 9.09.84 13.21 1.97c-3.33 5.46-4.13 14.88-6.22 16.66" opacity=".47"/><path d="M55.96 76.97c-.05-2.86 4.06-4.24 7.95-4.3s8.07 1.2 8.12 4.06c.05 2.86-4.86 6.64-7.95 6.64c-3.08 0-8.07-3.54-8.12-6.4m10.51 11.34c2.44 2.37 6.18 3.1 11.86 1.16c3.4-1.16 6.21-4.1 8.06-6.56c.69-.91 2.16-.29 1.99.84c-.31 2.02-.79 4.26-1.54 5.72c-1.97 3.83-6.05 7.38-15.27 6.44c-2.53-.26-5.08-.25-7.6.11c-9.06 1.31-13.74.94-16.31.07c-1.16-.4-.92-2.09.3-2.14c2.57-.1 6.22-.38 9.31-1.25c2.84-.8 5.36-1.86 6.05-3.37s2.58-1.58 3.15-1.02"/><path fill="none" stroke="#000" stroke-linecap="round" stroke-miterlimit="10" stroke-width="4" d="M65.35 89.47c-.77-2.07-1.19-4.28-1.23-6.49"/><path fill="none" stroke="#F0592B" stroke-linecap="round" stroke-miterlimit="10" stroke-width="3" d="M60.35 101.17c3.73 2.19 8.08 3.28 12.4 3.12"/><path fill="none" stroke="#9E9E9E" stroke-linecap="round" stroke-miterlimit="10" stroke-width="3" d="M2.4 70.42s9.31-1.69 20.03 3.95M2.31 83.15s8.21-3.72 19.24-1.76M5.5 94.37s7.82-5.18 17.75-6.06m101.92-19.97s-9.36-1.38-19.88 4.62m20.4 8.1s-8.33-3.44-19.29-1.11m16.48 12.44s-7.99-4.92-17.94-5.45"/><path d="M33.85 63.78c0-2.98.95-7.41 2.42-7.85c.45-.13.99-.06 1.36.24c5.16 4.18 8.79 6.2 9.21 6.52c3.53 2.65-1.65 9.96-5.72 10.04c-3.93.06-7.27-3.94-7.27-8.95m60.29 0c0-3.27-.52-6.7-1.99-7.14c-.45-.13-.99-.06-1.36.24c-5.16 4.18-9.22 5.49-9.64 5.81c-3.53 2.65 1.65 9.96 5.72 10.04c3.93.06 7.27-3.94 7.27-8.95"/><path fill="#FFD1D1" d="M92.16 36.23c-1.54-1.29-1.5-3.37-.6-5.16c2.16-4.31 7.33-8.78 9.16-10.23c3-2.38 5.32-3.18 6.21.65c1.65 7.08 1.52 16.69-.25 21.99c-.62 1.87-2.54 2.86-4.02 1.57zm-56.32 0c1.54-1.29 1.5-3.37.6-5.16c-2.16-4.31-7.33-8.78-9.16-10.23c-3-2.38-5.32-3.18-6.21.65c-1.65 7.08-1.52 16.69.25 21.99c.62 1.87 2.54 2.86 4.02 1.57z"/></svg>