<svg viewBox="0 0 128 128"><path fill="#ffc022" d="M114.1 70.8c-1.8-26-19.7-44.5-50.1-44.5S15.7 44.8 13.9 70.8a39 39 0 0 0 17 36.2s12.3 9.9 33.1 10.1C84.8 117 97 107 97 107a39 39 0 0 0 17.1-36.2"/><path fill="#ffc022" d="M110.5 59c9.5-24.8 3.6-43.8.3-49.3-1.4-2.1-4-2.7-6.3-2-6.2 2-23 15.7-30.4 34.9"/><path fill="#ffd1d1" d="M92.2 36.2c-1.6-1.3-1.5-3.3-.6-5.1 2.1-4.3 7.3-8.8 9.1-10.3 3-2.3 5.3-3.1 6.2.7 1.7 7 1.5 16.7-.2 22-.6 1.8-2.6 2.8-4 1.5z"/><path fill="#ffc022" d="M17.5 59C8 34.2 14 15.2 17.2 9.7c1.4-2.1 4-2.7 6.3-2 6.2 2 23 15.7 30.4 34.9"/><path fill="#ffd1d1" d="M35.8 36.2c1.6-1.3 1.5-3.3.6-5.1a38 38 0 0 0-9.1-10.3c-3-2.3-5.3-3.1-6.2.7-1.7 7-1.5 16.7.2 22 .6 1.8 2.6 2.8 4 1.5z"/><path fill="#ff7043" d="M54.1 45c1.1 1 3.4.8 4.8-.7 1.6-1.9 3.3-8.2 2.2-18q-7 .5-13.2 2c3.3 5.5 4.1 15 6.2 16.7M74 45c-1.2 1-3.4.8-4.8-.7-1.6-1.9-3.3-8.2-2.2-18q7 .5 13.2 2c-3.3 5.5-4.1 15-6.2 16.7" opacity=".5"/><path fill="none" stroke="#9e9e9e" stroke-linecap="round" stroke-miterlimit="10" stroke-width="3" d="m6 67.1 17 8.3M4 79.3l18 3.2m-16 13 17-5.8M121.8 67l-17 8.3m19.1 3.9L106 82.5m16 13-17-5.8"/><path d="M56 77.2c0-2.9 4-4.3 8-4.3 3.8 0 8 1.2 8 4s-4.8 6.7-8 6.7-8-3.5-8-6.4"/><path fill="#ef7f9d" d="M71.9 88.4h.3q2 .2 3.7 1.1l.4.4v.6a7 7 0 0 1-2.1 2.5c-3.2 2.7-7 4.8-11 4.5-3.4-.2-6.7-2.2-8.8-5.3l-.2-.5.2-.5q1-1.2 2.5-1.7 2.3-1.3 4.2-3.3.7-1 1.8-1.6c1.3-.6 1.8.4 2.7 1.1q1.6 1.2 3.4 1.8z"/><path fill="none" stroke="#000" stroke-miterlimit="10" stroke-width="3.8" d="M77.2 88.9s-4.5 9.4-13 9.4c-8 0-12.8-9.4-12.8-9.4"/><g fill="none" stroke="#000" stroke-linecap="round" stroke-miterlimit="10" stroke-width="4"><path d="M40.8 84.9s4 4.9 11.9 4.9c9.5 0 12-10.5 12-10.5"/><path d="M87.2 84.9s-4 4.9-11.9 4.9c-9.5 0-12-10.5-12-10.5"/></g><path fill="#d93d8e" d="M104 43c-7.4-2-13 4-13 4s-.6-6.9-6.9-9c-7.6-2.6-15.6 1.5-16 12.2-.6 12.3 15.6 28.3 15.6 28.3s20-5.4 26.6-16.8c5.4-9.3-.9-17.1-6.4-18.7"/><path fill="#ad236b" d="M104 43s-1.9-.5-2.8-.4c0 0 4 2.6 6 7.2 1.3 3 1.6 7-.8 11.7-5.2 10.2-21.3 16.6-22.5 17 1.5-.4 20.2-5.8 26.5-16.8 5.4-9.3-.9-17.1-6.4-18.7m-13 5.1q0-1.7-.4-2.8a9 9 0 0 0-4.4-6.3c-2.4-1.5-5.2-1.8-5.2-1.8s2.7.8 4.6 4.6q1.5 3 1.7 6.3-.1 1.3.4 2.4.7 1.4 2 1c1.1-.3 1.4-1.9 1.3-3.4"/><path fill="#f48fb1" d="M73.7 43.8c1.6-2 4.4-4 7-2.2 1.4 1 1.5 3.7-.3 5-2.9 2-3 3.5-3.3 4.6-.4 1.4-.7 3.1-2 3.8s-2.3 0-3-2c-.1-.4-1.9-5 1.6-9.2"/><path fill="#d93d8e" d="M43.8 37.8c-7.3 2.4-8.5 10.4-8.5 10.4s-4.3-5.4-10.7-3.7c-7.8 2-12.1 10-6.6 19.2 6.4 10.5 28.7 14.8 28.7 14.8S60.4 63 59.6 49.8a12.4 12.4 0 0 0-15.8-11.9"/><path fill="#ad236b" d="M43.8 37.8s-1.8.6-2.5 1.2c0 0 4.8-.1 9 2.6 2.7 1.9 5.2 5 5.8 10.2 1.3 11.4-8.6 25.6-9.3 26.7 1-1.2 13.6-16 12.8-28.7a12.4 12.4 0 0 0-15.8-12M36 49.2 34 47a9 9 0 0 0-7.2-2.8c-2.7 0-5.3 1.4-5.3 1.4s2.7-.8 6.4 1.2q3 1.6 5 4.4.6 1 1.6 1.7c.6.4 1.6.4 2.1-.2.9-1 .2-2.4-.6-3.6"/><path fill="#f48fb1" d="M19 55.3q0-1.1.5-2.3c.4-1.4 1.3-2.9 2.8-3.3 1.4-.5 3.3-.2 4 1.2s.2 2.7-.1 4c-.5 1.7-.4 3.2-.6 4.8 0 1.3-1 2.4-2.3 2.4S21.1 61 20.4 60a8 8 0 0 1-1.3-4.7"/></svg>