<svg viewBox="0 0 128 128"><path fill="#792d85" d="M8.9 7.4c9.2 9.4 21.3 17 32.9 16.7a2 2 0 0 1 1.8 2.8c-5 10.4-16.2 20.8-26.4 19.4a2 2 0 0 1-1.2-.7 59 59 0 0 1-10.5-37 2 2 0 0 1 3.4-1.2m110.2.2c-9.3 9.4-21.4 17-33 16.7a2 2 0 0 0-1.8 2.9c5 10.4 16.2 20.8 26.4 19.4q.8-.2 1.2-.7c6.7-8 11.3-23.8 10.6-37a2 2 0 0 0-2.2-1.9 2 2 0 0 0-1.2.6"/><radialGradient id="a" cx="63.6" cy="2590.2" r="51.5" gradientTransform="translate(0 -2522)" gradientUnits="userSpaceOnUse"><stop offset="0" stop-color="#fc01fc"/><stop offset="0" stop-color="#f0f"/><stop offset=".9" stop-color="#df0be2"/><stop offset="1" stop-color="#8e2698"/><stop offset="1" stop-color="#792d85"/></radialGradient><path fill="url(#a)" d="M63.6 118.8c-25.2 0-52.5-15.8-52.5-50.6s27.3-50.6 52.5-50.6c14 0 27 4.7 36.6 13C110.6 40 116 53 116 68.3s-5.5 28.2-16 37.4a55 55 0 0 1-36.5 13.2"/><path fill="#792d85" d="M107.2 38.3a51 51 0 0 1 7.3 27.3c0 15.3-5.5 28.2-15.9 37.4a55 55 0 0 1-36.4 13 53 53 0 0 1-43.5-20.6c9.7 16 28 23.4 45.3 23.4 13.9 0 26.9-4.7 36.4-13a48 48 0 0 0 16-37.5q-.1-17.4-9.2-30"/><path fill="#422b0d" d="M81.3 87.5q1.9.1 2.9 1.7 1 2.4-.5 4.6c-2.2 3.4-9.5 8.7-19.7 8.7s-17.5-5.3-19.7-8.7a5 5 0 0 1-.5-4.5 3 3 0 0 1 3-1.8l1.2.2a55 55 0 0 0 32 0zM58 68.8A65 65 0 0 0 43.3 59a23 23 0 0 0-4.6-1.5 3 3 0 0 0-2.7 2.3 3 3 0 0 0 1.7 3.3l7.1 3.9a8 8 0 0 0-3.8 6.7v1.5a7.5 7.5 0 0 0 15 0v-1.7q1.6-.1 2.5-1.6.8-1.7-.4-3m35.4-9a3 3 0 0 0-2.8-2.4l-.7.1q-2 .5-3.9 1.4a68 68 0 0 0-14.8 9.8 3 3 0 0 0-.3 3 3 3 0 0 0 2.5 1.7v1.7a7.5 7.5 0 0 0 15 0v-1.5c0-2.7-1.4-5.3-3.8-6.7 2.8-1.6 5.6-3 7.2-3.8a3 3 0 0 0 1.6-3.4"/><path fill="#896024" d="M48.1 68.5a3 3 0 0 0-3.8 1.3q-.7 1.8.6 3.3c1.4.7 3.1 0 3.8-1.3q.8-2-.6-3.3m32.5 0a3 3 0 0 0-3.8 1.3q-.7 1.8.6 3.3c1.4.7 3.1 0 3.8-1.3q.8-2-.6-3.3"/></svg>