<svg xmlns="http://www.w3.org/2000/svg" xml:space="preserve" viewBox="0 0 128 128"><radialGradient id="a" cx="64" cy="2114" r="56.96" gradientTransform="translate(0 -2050)" gradientUnits="userSpaceOnUse"><stop offset=".5" style="stop-color:#fde030"/><stop offset=".92" style="stop-color:#f7c02b"/><stop offset="1" style="stop-color:#f4a223"/></radialGradient><path d="M64 119.9c-27.9 0-58-17.5-58-55.9S36.1 8.1 64 8.1c15.5 0 29.8 5.1 40.4 14.4C115.9 32.7 122 47.1 122 64s-6.1 31.2-17.6 41.4c-10.6 9.3-25 14.5-40.4 14.5" style="fill:url(#a)"/><path d="M111.89 30.77C117.22 39.37 120 49.61 120 61c0 16.9-6.1 31.2-17.6 41.4-10.6 9.3-25 14.5-40.4 14.5-18.06 0-37.04-7.35-48.18-22.94C24.58 111.62 44.81 119.9 64 119.9c15.4 0 29.8-5.2 40.4-14.5C115.9 95.2 122 80.9 122 64c0-12.74-3.47-24.06-10.11-33.23" style="fill:#eb8f00"/><path d="M75.33 107.85c-7.46.35-15.18.35-22.64-.01-3.28-.16-6.18-2.22-6.52-4.9-.34-2.67 2.21-4.95 5.74-4.81 7.95.32 16.21.33 24.17.01 3.54-.14 6.09 2.14 5.76 4.81-.33 2.68-3.24 4.74-6.51 4.9" style="fill:#35220b"/><radialGradient id="b" cx="127.812" cy="722.443" r="28.779" gradientTransform="matrix(.9622 .2724 -.3028 1.0698 127.579 -753.666)" gradientUnits="userSpaceOnUse"><stop offset=".72" style="stop-color:#fff"/><stop offset=".923" style="stop-color:#d9d9d9"/><stop offset="1" style="stop-color:#bdbdbd"/></radialGradient><path d="M28.35 25.26c11.73-2 23.36 8.14 19.85 26.61S32.91 80.82 19.77 77.26c-11.06-3-15.24-14.14-13.35-26.25 1.52-12.4 10.2-23.74 21.93-25.75" style="fill:url(#b)"/><path d="M22.83 38.43c3.58-.49 6.53.97 8.01 4.95.67 1.8 1.45 6.22-1 11.03S23.63 62 19.49 61.36c-4.09-.64-6.93-4.46-6.54-10.59.4-6.15 4.45-11.6 9.88-12.34" style="fill:#422b0d"/><path d="M21.29 42.5c-.77-.77-2.98-.42-4.73 1.96-1.59 2.17-1.42 5.75.55 5.96 1.89.21 3.01-2.12 3.77-3.43 1.09-1.86 1.82-3.08.41-4.49" style="fill:#896024"/><radialGradient id="c" cx="-1585.973" cy="1160.251" r="28.779" gradientTransform="matrix(-.9622 .2724 .3028 1.0698 -1781.156 -755.253)" gradientUnits="userSpaceOnUse"><stop offset=".72" style="stop-color:#fff"/><stop offset=".923" style="stop-color:#d9d9d9"/><stop offset="1" style="stop-color:#bdbdbd"/></radialGradient><path d="M121.58 51.01c1.89 12.12-2.29 23.25-13.35 26.25-13.14 3.56-24.92-6.91-28.43-25.39s8.12-28.61 19.85-26.61 20.41 13.35 21.93 25.75" style="fill:url(#c)"/><path d="M115.05 50.77c.39 6.13-2.45 9.96-6.54 10.59-4.14.64-7.9-2.13-10.35-6.95s-1.67-9.24-1-11.03c1.48-3.98 4.43-5.44 8.01-4.95 5.43.74 9.48 6.19 9.88 12.34" style="fill:#422b0d"/><path d="M104.4 46.45c.13 1.78-.24 3.98-2.11 4.19-2.2.24-3.69-2.79-3.19-5.41.55-2.89 2.62-3.94 3.82-3.67 2.16.48 1.34 3 1.48 4.89" style="fill:#896024"/></svg>