<svg xmlns="http://www.w3.org/2000/svg" xml:space="preserve" viewBox="0 0 128 128"><path d="M79 88H49c-2.21 0-4-1.79-4-4s1.79-4 4-4h30c2.21 0 4 1.79 4 4s-1.79 4-4 4" style="fill:#823e00"/><path d="M44.67 45.94c-4.19 0-8 3.54-8 9.42s3.81 9.42 8 9.42 8-3.54 8-9.42-3.81-9.42-8-9.42m38.35 0c-4.19 0-8 3.54-8 9.42s3.81 9.42 8 9.42 8-3.54 8-9.42-3.81-9.42-8-9.42" style="fill:#af6300"/><linearGradient id="a" x1="63.723" x2="63.723" y1="118.839" y2="6.962" gradientUnits="userSpaceOnUse"><stop offset=".015" style="stop-color:#eb8f00"/><stop offset="1" style="stop-color:#ffd54f"/></linearGradient><path d="M63.77 118.84h-.17c-3.99 0-8.01-.36-11.93-1.07l.54-2.95c3.75.68 7.58 1.03 11.4 1.03h.17v2.99zm11.94-1.1-.55-2.95c3.78-.7 7.48-1.76 10.98-3.14l1.1 2.79a63 63 0 0 1-11.53 3.3m-35.59-3.2c-3.81-1.47-7.41-3.29-10.72-5.43l1.63-2.52c3.13 2.03 6.55 3.76 10.17 5.15zm57.79-5.62-1.65-2.51c2-1.32 3.92-2.77 5.69-4.33a47 47 0 0 0 3.04-2.94l2.18 2.07a50 50 0 0 1-3.23 3.12c-1.88 1.66-3.91 3.2-6.03 4.59m-77.82-7.45a50 50 0 0 1-7.25-9.63l2.6-1.5c1.89 3.27 4.18 6.32 6.81 9.05zm94.28-9.91-2.6-1.49c1.86-3.24 3.37-6.75 4.47-10.44l2.88.86a52.4 52.4 0 0 1-4.75 11.07M8.1 80.77c-1.11-3.72-1.86-7.69-2.22-11.79l2.99-.26c.35 3.9 1.05 7.67 2.11 11.2zm113.24-12.09-2.99-.26c.16-1.8.24-3.66.24-5.52a64 64 0 0 0-.27-5.92l2.99-.28c.19 2.02.28 4.11.28 6.2-.01 1.95-.09 3.89-.25 5.78M8.85 57.27l-2.99-.26c.35-4.1 1.08-8.07 2.18-11.8l2.88.85c-1.04 3.54-1.73 7.31-2.07 11.21m107.28-11.48a49.2 49.2 0 0 0-4.53-10.41l2.59-1.51c2 3.43 3.61 7.15 4.8 11.04zM15.35 35.62l-2.6-1.49c1.99-3.49 4.42-6.74 7.21-9.66l2.17 2.07c-2.62 2.75-4.9 5.81-6.78 9.08m89.43-9.3c-.89-.93-1.85-1.85-2.83-2.72A52 52 0 0 0 96 19.11l1.63-2.52c2.22 1.44 4.34 3.04 6.3 4.76 1.05.93 2.06 1.9 3.01 2.89zm-73.91-7.01-1.64-2.51a58 58 0 0 1 10.7-5.47l1.09 2.8c-3.61 1.4-7.03 3.14-10.15 5.18m54.97-5.35c-3.5-1.34-7.21-2.36-11.01-3.03l.52-2.96c3.99.7 7.88 1.78 11.57 3.19zm-33.82-2.94-.54-2.95c3.92-.72 7.93-1.1 11.93-1.11l.01 3c-3.82.01-7.65.37-11.4 1.06" style="fill:url(#a)"/><path d="M44.28 49.87c-1.03-.72-2.58-.49-3.58.95-1 1.45-.67 2.97.36 3.69s2.58.49 3.58-.95c1-1.45.67-2.97-.36-3.69m38.35 0c-1.03-.72-2.58-.49-3.58.95-1 1.45-.67 2.97.36 3.69s2.58.49 3.58-.95c1.01-1.45.68-2.97-.36-3.69" style="opacity:.4;fill:#fff"/></svg>