<svg viewBox="0 0 128 128"><path fill="#fafafa" d="M34.2 106.5c-15.5 0-28-19-28-42.5s12.5-42.5 28-42.5 28 19 28 42.5-12.6 42.5-28 42.5"/><path fill="#b0bec5" d="M34.2 23.5c6.6 0 13 4 17.8 11.3 5.3 7.7 8.1 18.1 8.1 29.2s-2.8 21.5-8 29.2c-5 7.3-11.3 11.3-18 11.3s-13-4-17.8-11.3C11 85.5 8.2 75.1 8.2 64s2.9-21.5 8-29.2c5-7.3 11.3-11.3 18-11.3m0-4c-16.6 0-30 20-30 44.5s13.4 44.5 30 44.5 30-20 30-44.5-13.5-44.5-30-44.5"/><linearGradient id="a" x1="22.5" x2="22.5" y1="46.7" y2="82.1" gradientUnits="userSpaceOnUse"><stop offset="0" stop-color="#424242"/><stop offset="1" stop-color="#212121"/></linearGradient><path fill="url(#a)" d="M25.6 59.8c-2.7-2.5-2-7.5 1.4-11.2l.5-.6q-2.3-1.2-5-1.3c-7.2 0-13 8-13 17.7S15.3 82 22.5 82s13-8 13-17.7q0-2.7-.5-5c-3.2 2.3-7.1 2.6-9.4.4"/><ellipse cx="93.8" cy="64" fill="#eee" rx="30" ry="44.5"/><path fill="#fafafa" d="M93.8 106.5c-15.4 0-28-19-28-42.5s12.6-42.5 28-42.5 28 19 28 42.5-12.5 42.5-28 42.5"/><path fill="#b0bec5" d="M93.8 23.5c6.7 0 13 4 18 11.3 5.1 7.7 8 18.1 8 29.2s-2.9 21.5-8 29.2c-5 7.3-11.3 11.3-18 11.3s-13-4-17.8-11.3c-5.3-7.7-8.1-18.1-8.1-29.2s2.8-21.5 8-29.2c5-7.3 11.3-11.3 18-11.3m0-4c-16.6 0-30 20-30 44.5s13.4 44.5 30 44.5 30-20 30-44.5-13.5-44.5-30-44.5"/><linearGradient id="b" x1="82.2" x2="82.2" y1="46.7" y2="82.1" gradientUnits="userSpaceOnUse"><stop offset="0" stop-color="#424242"/><stop offset="1" stop-color="#212121"/></linearGradient><path fill="url(#b)" d="M85.3 59.8c-2.7-2.5-2-7.5 1.4-11.2l.5-.6q-2.3-1.2-5-1.3c-7.2 0-13 8-13 17.7S75 82 82.2 82s13-8 13-17.7q0-2.7-.5-5c-3.2 2.3-7.1 2.6-9.4.4"/></svg>