<svg xmlns="http://www.w3.org/2000/svg" width="1em" height="1em" viewBox="0 0 128 128"><path fill="#B6885A" d="M108.16 61.56c0 23.37-12.57 41.89-43.57 41.8c-33.02-.1-43.78-15.22-43.98-40.07c-.19-23.37 13.9-45.05 43.02-45.05c27.34 0 44.53 19.95 44.53 43.32"/><path fill="#FFCD88" d="M63.68 44.31c7.46-.23 15.54-10.47 24.5-2.28c8.22 7.51 1.72 14.46 1.93 21.56c.17 5.88 5.97 10.14 1.32 19.07c-3.75 7.2-14.41 12.31-27.19 12.07c-16.44-.3-26.5-5.17-29.24-13.29c-2.67-7.91 3.07-12.28 2.76-18.36c-.3-6.09-6.78-15.39 1.65-21.51c11.46-8.32 16.35 2.99 24.27 2.74"/><path fill="#393531" d="M55.75 57.5c.45 4.45-2.01 7.43-5 7.73c-2.99.3-5.71-2.37-6.08-5.97c-.37-3.6 1.12-7.11 4.92-7.41c3-.24 5.73 1.43 6.16 5.65m26.48.49c-.13 5.12-3.3 6.76-6.13 6.55s-4.72-3.38-4.47-6.75c.25-3.38 2.51-6.58 6.09-6.24c2.83.27 4.61 2.48 4.51 6.44m-18.13 6.3c3.88.08 5.3.08 5.17 2.02c-.08 1.22-2.59 3.65-5.02 3.69c-2.05.04-5.1-2.02-5.29-3.8c-.21-2.02 1.33-1.99 5.14-1.91"/><path fill="#FF6B17" d="M63.52 72.87c16.59.2 19.42 2.79 19.28 5.53c-.2 3.86-6.8 8.47-18.82 8.37c-12.58-.11-18.92-4.41-19.07-8.12c-.15-3.65 8.27-5.9 18.61-5.78"/><path fill="#B6885A" d="M10.57 68.15c.07-3.65-2.66-6.66-1.72-12.88c1.12-7.41 6.59-11.16 11.36-11.26s7.61 9.84 7.61 9.84L27.11 78l-3.65-.1s-5.48 7.26-6.59 9.23c-1.13 1.99-3.04 7.14 1.12 7.51c4.07.36 6.29-2.43 8.83-5.68s4.36-5.78 4.36-5.78l9.64 12.48s-18.4 24.07-32.8 13.62c-17.24-12.51 2.45-36.05 2.55-41.13m87.24 16.03s-10.25 11.26-9.94 11.67c.3.41 18.67 23.38 32.59 13.99c13.95-9.4 2.92-29.11.69-32.25c-2.23-3.15-4.67-5.17-4.67-7.51c0-2.33 2.33-6.59 2.03-12.58s-5.68-12.99-9.94-13.8s-6.49 5.28-6.49 5.28l1.52 29.12l8.83 10.86s.91 5.78-.2 6.59s-5.17-1.32-8.22-4.57s-6.2-6.8-6.2-6.8"/><path fill="#855B50" d="M20.26 44.06c1.3 1.95 2.61 2.92 2.89 4.97c.56 4.15-2.05 6.16-1.75 10.35c.3 4.18 2.51 7 2.05 12.02c-.46 5.02-2.36 7.69-6.32 12.17s-3.45 8.75-2.31 10.5s3.4 1.67 4.16.91s-2.23-.3-2-4.11c.23-3.8 10.27-11.34 10.2-19.33c-.08-7.99-1.67-9.21-1.9-14.3c-.13-2.89 1.85-6.62.53-10.27c-1.29-3.57-5.95-3.52-5.55-2.91"/><path fill="#865B54" d="M102.83 60.67c-.11 5.8-2.74 6.85-1.83 13.24c.91 6.39 4.11 6.85 7 11.57c2.86 4.67 4.28 8.35 3.8 9.51c-.76 1.85.51 1.85 1.72-.05c1.75-2.73-.08-6.72-2.59-10.91c-2.51-4.18-5.22-5.93-6.06-9.97c-.84-4.03 2.13-9.21 1.07-16.05s-2.59-9.05-.99-11.57c1.01-1.59 4.51-3.4 1.17-2.79c-3.35.61-5.05 3.4-4.9 6.75c.17 3.35 1.69 6.09 1.61 10.27"/></svg>