<svg xmlns="http://www.w3.org/2000/svg" xml:space="preserve" viewBox="0 0 128 128"><radialGradient id="a" cx="-2649.416" cy="2421.407" r="133.28" gradientTransform="matrix(.015 -.9999 .7899 .0119 -1808.673 -2540.018)" gradientUnits="userSpaceOnUse"><stop offset=".86" style="stop-color:#2a81e3;stop-opacity:0"/><stop offset=".87" style="stop-color:#2980e3;stop-opacity:.02"/><stop offset=".89" style="stop-color:#2980e3;stop-opacity:.09"/><stop offset=".91" style="stop-color:#2980e3;stop-opacity:.2"/><stop offset=".93" style="stop-color:#2880e3;stop-opacity:.35"/><stop offset=".95" style="stop-color:#2880e3;stop-opacity:.55"/><stop offset=".97" style="stop-color:#2780e3;stop-opacity:.79"/><stop offset=".99" style="stop-color:#2780e4"/></radialGradient><path d="M63.86 4.17c-28.88 0-58.5 21.04-57.76 57.64.31 15.32 8.07 26.92 17.22 34.95 12.26 10.77 26.63 14.8 39.57 15.22 31.29 1.01 58-22.72 58.74-54.56.73-31.49-25.55-53.25-57.76-53.25z" style="fill:url(#a)"/><path d="M23.76 101.47s-1.62 9.09-1.81 10.02c-.38 1.92-2.08 1.86-2.57.66s-3.01-9.63-3.89-12.92-2.41-8.81-2.41-8.81-1.2 3.94-1.59 4.93-.98 1.92-1.92 1.92c-1.15 0-1.37-1.7-1.81-3.72-.3-1.39-1.2-6.84-1.48-12.32-.17-3.4-.05-9.3-.05-9.3l11.06 4.32 6.46 25.23zm31.7 13.72s2.62 6.71 3.01 7.61c.6 1.37 2.24 1.09 2.57-.11.29-1.08 2.35-7.72 2.35-7.72l-7.94.22zm37.98-7.2s2.19 7.39 2.46 8.43.93 3.34 2.46 3.17 1.81-2.35 1.97-3.5 1.59-11.22 1.59-13.41-7.99 3.5-7.99 3.5zm23.75-24.58s-1.92 10.73-2.35 13.19-1.59 6.79-1.75 7.23-.77.88-1.31.88-1.2-.82-1.48-1.64c-.64-1.92-1.64-7.77-1.64-7.77l8.54-11.88z" style="fill:#0967d7"/><path d="M110.73 93.64s.82 5.53 1.31 5.47 1.75-9.52 1.75-9.52l-3.07 4.05zm-15.21 13.14s2.08 9.03 2.63 9.03 1.86-12.21 1.86-12.21l-4.49 3.17zm-37.29 8.76s.97 3.02 1.35 3.04 1.52-3.42 1.52-3.42zM16.77 94.59s2.62 11.25 3.45 11.25 1.28-7.48 1.28-7.48zM8.15 79.64s1.02 11.88 1.66 11.88 1.41-5.56 1.41-5.56l-3.07-6.33z" style="fill:#d3f1fa"/><path d="M63.42 7.67c-28.88 0-57.71 21.04-57.76 57.64-.04 33.34 33.71 51.29 57.4 50.53 37.62-1.21 59.1-25.74 59.3-57.27.19-31.5-26.72-50.89-58.93-50.89z" style="fill:#0967d7"/><radialGradient id="b" cx="56.778" cy="1196.782" r="57.33" gradientTransform="matrix(1 -.00768 .00653 .85 -.463 -953.966)" gradientUnits="userSpaceOnUse"><stop offset=".65" style="stop-color:#6cd7f5"/><stop offset=".74" style="stop-color:#68d4f4"/><stop offset=".83" style="stop-color:#5ccdf2"/><stop offset=".92" style="stop-color:#48c2ef"/><stop offset="1" style="stop-color:#2fb4eb"/></radialGradient><path d="M63.42 4.17c-28.88 0-58.5 21.04-57.76 57.64.31 15.32 8.07 26.92 17.22 34.95 12.26 10.77 26.63 14.8 39.57 15.22 31.29 1.01 58-22.72 58.74-54.56.73-31.49-25.55-53.25-57.76-53.25z" style="fill:url(#b)"/><radialGradient id="c" cx="56.998" cy="1703.465" r="55.45" gradientTransform="matrix(1 -.00768 .00453 .59 -.373 -934.736)" gradientUnits="userSpaceOnUse"><stop offset=".24" style="stop-color:#a1fcff"/><stop offset=".62" style="stop-color:#a1fcff;stop-opacity:.7"/><stop offset=".73" style="stop-color:#a1fcff;stop-opacity:.54"/><stop offset=".84" style="stop-color:#ccf8fe;stop-opacity:.33"/><stop offset=".96" style="stop-color:#c7f7fe;stop-opacity:.09"/><stop offset="1" style="stop-color:#c6f7fe;stop-opacity:0"/></radialGradient><path d="M63.42 4.17c-28.88 0-58.5 21.04-57.76 57.64.31 15.32 8.07 26.92 17.22 34.95 12.26 10.77 26.63 14.8 39.57 15.22 31.29 1.01 58-22.72 58.74-54.56.73-31.49-25.55-53.25-57.76-53.25z" style="fill:url(#c)"/><path d="M64.05 91.41s3.08 1.55 3.78 3.77c.7 2.23 1.6 4.87 1.95 5.85s.97 1.6 1.88 1.6 1.32-1.39 1.53-2.02 2.3-6.89 2.99-6.82 2.02 14.83 2.51 17.82.77 7.03 2.44 7.03 2.09-5.15 2.37-7.31 1.32-9.26 2.02-11.42 1.95-4.32 2.44-4.32 1.32-.07 1.53 1.81c.13 1.14.77 2.09 2.02 1.95s1.95-2.16 2.23-4.39c.26-2.06.56-5.15.56-6.75s-29.1 0-29.1 0l-1.13 3.19z" style="fill:#b1e3ff"/><path d="M89.23 89.78s1.05 5.76 1.66 5.71 1.25-6.78 1.25-6.78zm-20.84 1.17s.21 2.09.44 2.89c.38 1.36 1.79 3.61 2.45 3.87.98.38 1.64-2.94 1.8-5.89s-4.69-.87-4.69-.87m15.82-.44s-.19 2.31-.44 5.45c-.49 6.11-1.68 15.2-1.96 15.49-.95.95-1.2.22-1.47-1.04s-1.8-20.12-1.8-20.12z" style="fill:#d8f3fa"/><path d="M30.03 85.42s1.46 13.34 1.61 14.64.23 2.76 1.38 2.76 1.3-1.92 1.46-2.84.84-6.21 1.92-6.21 3.53 22.54 3.68 24.15.7 2.81 1.99 2.68c.77-.08 1.38-.92 1.46-2.53.21-4.65 2.33-13.14 2.61-14.95.38-2.53 2.29-8.17 2.99-9.2 1.3-1.92 4.83-3.45 4.83-3.45l-23.92-5.06z" style="fill:#b1e3ff"/><path d="m39.66 93.98-.21-4.09h5.99s-.87 7.68-1.14 9.69-1.42 9.11-2.38 9.19c-.55.05-1.19-1.87-1.37-3.2s-.89-11.59-.89-11.59m-7.61-6.05s.2 7.5 1.16 7.5 1.57-5.59 1.57-5.59z" style="fill:#d8f3fa"/><path d="M39.05 69.62s-9.34 2.33-9.24 10.21 8.05 10.86 8.05 10.86 8.09 1 26.19.71c18.09-.29 24.43-.76 26.22-1.21s5.97-5.7 5.97-5.7l.97-10.31-5.54-4.86z" style="fill:#fff"/><path d="M82.14 35.85c-5.19-.48-8.78 4.94-8.45 10.34s4.03 9.04 7.93 9.04 7.74-3.32 8-9.1c.25-5.47-2.6-9.82-7.48-10.28m-38.34-.04c-5.39.34-7.5 6.08-6.79 11.3.63 4.61 3.91 7.93 8.58 7.67s7.37-5.18 6.96-9.88c-.46-5.14-3.62-9.41-8.76-9.09z" style="fill:#0241bc"/><path d="M43.96 38.72c-1.8-.9-3.24.65-3.74 1.69s-.75 3.64 1.05 4.23 3.29-.75 3.74-2.24.35-2.99-1.05-3.69zm37.91.45c-1.35-.96-3.39-.35-4.18 1.59s-.2 3.59 1 4.18 3.14-.13 3.79-1.94c.5-1.39.6-2.99-.6-3.84z" style="fill:#95d3ff"/><path d="m96.72 79.11-65.89.29.5 3.47 65.69-.3z" style="fill:#b3b3b3"/><path d="m65.43 91.39-3.27.05-.02-21.45h3.27zm10.09-21.5.14 21.27 3.31-.12-.09-21.54zm12.27.4.09 20.26s.82-.1 1.3-.15 1.42-.24 1.42-.24l.18-20.07zm-39.07.49-.04 20.57 3.15.04.28-21.55zm-9.57.21-.21 19.81-1.16-.1-1.79-.99.29-18.52z" style="fill:#b3b3b3"/><path d="M36.88 68.01c-4.36.79-8.46 4.46-8.72 11-.4 10.11 9.71 12.88 9.71 11.69s-5.89-2.08-6.14-10.4c-.2-6.54 3.67-8.52 8.42-9.02 2.18-.23 12.36-.43 22.99-.53 12.53-.12 25.7-.09 27.15.24 2.68.59 5.94 4.06 5.45 8.92-.5 4.85-5.75 10.11-5.45 10.3s8.12-2.48 8.62-10.11c.46-7.14-2.58-12.09-8.03-12.58-2.38-.22-15.24-.59-27.84-.48-11.55.1-22.98.4-26.15.97z" style="fill:#0967d7"/><path d="M42 93.67c-.13-1.03-.49-1.4-1.4-1.35-.58.03-.99.77-.95 1.67s.69 9.31.84 10.8.12 2.34 1.06 2.24c.87-.09.61-1.52.65-2.89.12-3.7-.16-9.98-.22-10.47zm36.97-.05c0 .44.28 9.56 1.05 15.34.24 1.8.69 2.93 1.03 2.93s.37-1.62.49-3.65c.39-6.35 0-14.34 0-14.72s.05-1.47-1.31-1.47-1.25 1.15-1.25 1.58zm-9.76-1.31c-.88.36-.22 2.56.22 3.27s1.2 2.45 1.85 2.13.6-2.24.44-3.16-.76-2.94-2.51-2.24" style="fill:#fff"/></svg>