<svg viewBox="0 0 128 128"><radialGradient id="a" cx="-360.2" cy="-976" r="50.8" gradientTransform="matrix(1 0 0 -1 417.692 -912)" gradientUnits="userSpaceOnUse"><stop offset=".5" stop-color="#fde030"/><stop offset=".9" stop-color="#f7c02b"/><stop offset="1" stop-color="#f4a223"/></radialGradient><path fill="url(#a)" d="M57.5 113.9C32.6 113.9 5.8 98.3 5.8 64s26.9-49.9 51.7-49.9a54 54 0 0 1 36 12.8c10.3 9.1 15.7 21.9 15.7 37s-5.4 27.8-15.7 36.9a54 54 0 0 1-36 13.1"/><path fill="#eb8f00" d="M100.2 34.4a50 50 0 0 1 7.2 27c0 15.1-5.4 27.8-15.7 36.9a55 55 0 0 1-36 12.9c-16.1 0-33-6.6-43-20.5a52 52 0 0 0 44.8 23.1c13.7 0 26.6-4.6 36-12.9A48 48 0 0 0 109.2 64q0-17.3-9-29.6"/><path fill="#422b0d" d="M60.4 54.3q-3.9 4.2-7.7 3.9c-2.1-.1-4-.8-5.6-3.2-1.7-2.6-5.1-2.1-4.8 1.3.5 5 5.6 8.4 10.4 8.6 5.9.2 10.5-3 12.5-7.8 1.3-3-2.8-5.1-4.8-2.8m-34.1 0c-2.5 3.1-4.6 3.9-7.2 3.9-2 0-3.7-1.7-4.5-3.4-1.1-2.1-3.9-1.6-3.9.9 0 4.6 4 8.6 8.7 8.6 5.8 0 9.6-2.9 11.2-7.2 1-3.1-2.3-5.1-4.3-2.8m25.5 24c-.5-.7-2.1-.9-3.8-.6-9.5 1.7-18.1 1-22.2-.1q-2.2-.8-3.3.2c-.6.6-.5 1.9.4 3 2.2 2.5 6.5 4.3 10 5a26 26 0 0 0 18.5-4.4c1-1 1-2.3.4-3.1"/><path fill="#b0bec5" d="m107.2 48.8 1.1 4.5c6.6 1.6 11.7 4.3 11.5 8.5-.3 6.2-23.7 9.1-40.5 8.9-1.3 0-2.4.9-2.4 2s1.1 2 2.4 2c14.5 0 45.4-.8 46-12.6.3-7.8-9.7-11.6-18.1-13.3m-27.5 39q-3-.2-2.9-2c.1-1.8 1-1.9 2.4-2 7-.3 22.6-.8 35.8-5.1q3.1-1 3.7.4.9 1.9-2 3.2c-13.9 5.9-25.4 5.5-37 5.5"/></svg>