<svg viewBox="0 0 128 128"><radialGradient id="a" cx="63.6" cy="808.9" r="57" gradientTransform="translate(0 -746)" gradientUnits="userSpaceOnUse"><stop offset=".5" stop-color="#fde030"/><stop offset=".9" stop-color="#f7c02b"/><stop offset="1" stop-color="#f4a223"/></radialGradient><path fill="url(#a)" d="M63.6 118.8c-27.9 0-58-17.5-58-55.9S35.7 7 63.6 7c15.5 0 29.8 5.1 40.4 14.4 11.5 10.2 17.6 24.6 17.6 41.5s-6.1 31.2-17.6 41.4a61 61 0 0 1-40.4 14.5"/><path fill="#422b0d" d="M25.2 70.6A43 43 0 0 0 51.9 94a43 43 0 0 0 24 0 43 43 0 0 0 27-23.5c.5-1 2-1.5 3-.9q1.5 1 1.1 2.6a45 45 0 0 1-6.7 12A46 46 0 0 1 64 101.9a46 46 0 0 1-36.3-17.7 45 45 0 0 1-6.7-12c-.5-1 0-2.4 1.2-2.9s2.5 0 3 1.2z"/><path fill="#eb8f00" d="M111.5 29.7a57 57 0 0 1 8.1 30.2c0 16.9-6.1 31.2-17.6 41.4a61 61 0 0 1-40.4 14.5 59 59 0 0 1-48.2-23 58 58 0 0 0 50.2 26c15.4 0 29.8-5.2 40.4-14.5a54 54 0 0 0 17.6-41.4q-.1-19.2-10.1-33.2"/><path fill="#422b0d" d="m50.2 56.1-.2-.2-.2-.3-.3-.3-.6-.6-.8-.8-2.2-1.4a6 6 0 0 0-2.5-.5h-1.2l-1.3.5-2.1 1.4-1.6 1.4-.5.7-.3.3a3.3 3.3 0 0 1-4.7.4 3 3 0 0 1-1-3.7l.1-.3.4-1q.7-1.5 1.8-3a13 13 0 0 1 8.7-5.1h1.7a14 14 0 0 1 6.3 1.6 14 14 0 0 1 5.2 5.3l.7 1.4.2.5.1.3.1.3c.6 1.8-.4 3.7-2.2 4.2-1.3.5-2.8 0-3.6-1.1m43.3 0-.2-.2-.2-.3-.3-.3-.6-.6-.9-.8-2.2-1.4a6 6 0 0 0-2.4-.5h-1.2l-1.3.5Q83 53 82 53.9l-1.5 1.5-.5.6-.3.3a3.3 3.3 0 0 1-4.7.6 3 3 0 0 1-1-3.9l.1-.3.4-1q.6-1.5 1.8-3a13 13 0 0 1 8.7-5.1l.9-.1h.7a14 14 0 0 1 6.4 1.7 14 14 0 0 1 5.1 5.2q.5.7.8 1.5l.2.5v.3l.2.3a3.4 3.4 0 0 1-5.9 3.1z"/><path fill="#ff4081" d="m86.7 89.3.4-.3zM74 94.7l2-.5zM92.2 85l-2.9 2.3L87 89l2.9-2z"/><path fill="#ab3f2e" d="m94.2 83.2-.2.2z" opacity=".3"/><path fill="#ff4081" d="m68.4 95.6 3.7 4 .3.4z"/><path fill="#ab3f2e" d="m72.4 100 1 1v-.1z" opacity=".3"/><path fill="#ff4081" d="m109.6 89.1-7-7.3-.3-.3-2.6-2.8-.8-.8-.1-.1-2.6 3.2a42 42 0 0 1-9.1 8 43 43 0 0 1-11 5.1q-3.8 1.2-7.7 1.5l4 4.4 1 1 .6.7.5.4L84.8 113c6 6.3 16 6.5 22.2.5l2.1-2c6.3-6 6.5-16 .6-22.3z"/><path fill="#e62b6b" d="m95.7 96.6-7.8-8.1-.8.5-2.6 1.5 8.4 8.8q.6.5 1.3.6t1.4-.6c.8-.7.8-1.9 0-2.7z"/><path fill="#ab3f2e" d="m99.6 78.7-.8-.9A41 41 0 0 1 87 89a43 43 0 0 1-11 5.1q-3.8 1.2-7.7 1.5l4 4.4 1 1a44 44 0 0 0 26.2-22.3" opacity=".3"/></svg>