<svg viewBox="0 0 128 128"><radialGradient id="a" cx="63.6" cy="2584.9" r="57" gradientTransform="translate(0 -2522)" gradientUnits="userSpaceOnUse"><stop offset=".5" stop-color="#fde030"/><stop offset=".9" stop-color="#f7c02b"/><stop offset="1" stop-color="#f4a223"/></radialGradient><path fill="url(#a)" d="M63.6 118.8c-27.9 0-58-17.5-58-55.9S35.7 7 63.6 7c15.5 0 29.8 5.1 40.4 14.4 11.5 10.2 17.6 24.6 17.6 41.5s-6.1 31.2-17.6 41.4a61 61 0 0 1-40.4 14.5"/><path fill="#eb8f00" d="M111.5 29.7a57 57 0 0 1 8.1 30.2c0 16.9-6.1 31.2-17.6 41.4a61 61 0 0 1-40.4 14.5 59 59 0 0 1-48.2-23 58 58 0 0 0 50.2 26c15.4 0 29.8-5.2 40.4-14.5a54 54 0 0 0 17.6-41.4q-.1-19.2-10.1-33.2"/><path fill="none" stroke="#35220b" stroke-linecap="round" stroke-linejoin="round" stroke-width="8" d="M38 55h15m23 0h15"/><path fill="#422b0d" d="M89 88H39a4 4 0 1 1 0-8h50a4 4 0 1 1 0 8"/></svg>