<svg viewBox="0 0 128 128"><radialGradient id="a" cx="64" cy="-985.9" r="51.1" gradientTransform="matrix(1 0 0 -1 0 -912)" gradientUnits="userSpaceOnUse"><stop offset=".5" stop-color="#fde030"/><stop offset=".9" stop-color="#f7c02b"/><stop offset="1" stop-color="#f4a223"/></radialGradient><path fill="url(#a)" d="M64 124c-25 0-52-15.7-52-50.1s27-50.1 52-50.1c13.9 0 26.7 4.6 36.2 12.9 10.3 9.1 15.8 22.1 15.8 37.2s-5.5 28-15.8 37.1A55 55 0 0 1 64 124"/><path fill="#eb8f00" d="M106.9 44.1a51 51 0 0 1 7.3 27.1c0 15.2-5.5 28-15.8 37.1a55 55 0 0 1-36.2 13A53 53 0 0 1 19 100.7 52 52 0 0 0 64 124a55 55 0 0 0 36.2-13A48 48 0 0 0 116 73.9q0-17.4-9.1-29.8"/><path fill="#422b0d" d="m51.1 81.9-.2.2-.5.4-.6.5-.9.6-1.1.6-1.2.5-1.3.3-1.4.1h-.8l-.6-.1-1.3-.3-1.2-.6-1.1-.6-1.5-1.2-.6-.5-.2-.2a3 3 0 0 0-4.1-.2q-1.4 1.2-.7 2.9l.1.3.4.8q1.4 2.3 3.7 3.9l2.3 1.3q1.4.6 2.7.9l1.6.2.7.1h.7q1.5 0 3-.3 1.4-.3 2.7-.9 1.1-.5 2.3-1.3 1.7-1.2 2.9-2.8l.4-.6.4-.6.3-.7.1-.2c.5-1.3-.1-2.8-1.4-3.3l-.3-.1q-2-.5-3.3.9m40.3 0-.2.2-.5.4-.5.5-.9.6-1.1.6-1.2.5-1.3.3-1.4.1h-.8l-.6-.1-1.3-.3-1.2-.6-1.1-.6-1.5-1.2-.6-.5-.2-.2a3 3 0 0 0-4.1-.2q-1.4 1.2-.7 2.9l.1.3.4.8q1.4 2.3 3.7 3.9l2.3 1.3q1.4.6 2.7.9l1.6.2.7.1h.7q1.5 0 3-.3 1.4-.3 2.7-.9 1.1-.5 2.3-1.3 1.7-1.2 2.9-2.8l.4-.6.4-.6.3-.7.1-.2c.5-1.3-.1-2.8-1.4-3.3l-.3-.1q-2-.4-3.4.9m-11 22.2q-.6-1-2.5-.3c-3.8 1.2-9.2 1.6-13.8 1.6s-10-.4-13.9-1.6q-2-.7-2.5.3c-.5 1-.4 1.6.4 2.7 1.6 2.3 8.8 5.7 16 5.7s14.3-3.5 16-5.7q1-1.6.3-2.7"/><path fill="none" stroke="#b0bec5" stroke-linecap="round" stroke-miterlimit="10" stroke-width="5" d="m30.6 26.4-8.5-10.6m30.2 2.7L48.5 3.2m48.9 23.2 8.5-10.6m-30.2 2.7 3.8-15.3"/></svg>