<svg viewBox="0 0 128 128"><radialGradient id="a" cx="63.6" cy="2584.9" r="57" gradientTransform="translate(0 -2522)" gradientUnits="userSpaceOnUse"><stop offset=".1" stop-color="#fac742"/><stop offset=".3" stop-color="#fac440"/><stop offset=".5" stop-color="#fbba3b"/><stop offset=".6" stop-color="#fba931"/><stop offset=".8" stop-color="#fc9224"/><stop offset=".9" stop-color="#fe7413"/><stop offset="1" stop-color="#ff5100"/></radialGradient><path fill="url(#a)" d="M63.6 118.8c-27.9 0-58-17.5-58-55.9S35.7 7 63.6 7c15.5 0 29.8 5.1 40.4 14.4 11.5 10.2 17.6 24.6 17.6 41.5s-6.1 31.2-17.6 41.4a61 61 0 0 1-40.4 14.5"/><path fill="#d84213" d="M111.5 29.7a57 57 0 0 1 8.1 30.2c0 16.9-6.1 31.2-17.6 41.4a61 61 0 0 1-40.4 14.5 59 59 0 0 1-48.2-23 58 58 0 0 0 50.2 26c15.4 0 29.8-5.2 40.4-14.5a54 54 0 0 0 17.6-41.4q-.1-19.2-10.1-33.2"/><path d="m21 106.2 3.6-33.6 79 8.4-3.6 33.5z"/><path fill="#fff" d="m38.7 94.3-2-.2-1.5 5.3-2.6-.3 1.4-5.3-2.9-.2.2-2.4 3.3.3 1-3.4-3-.3.3-2.4 3.2.4 1.5-5.4 2.6.3-1.4 5.3 2 .2 1.5-5.3 2.6.2-1.4 5.4 3 .2-.3 2.4-3.4-.3-.9 3.4 3 .3-.2 2.4-3.4-.4-1.4 5.3-2.6-.2zm-1.5-2.6 2.1.2 1-3.3-2.1-.2zM57 96.5q0-.7-.3-1.5-.8-.8-1.5-1.1l-2-1.1-1.6-1.3a4 4 0 0 1-1-3.5q.1-1.9 1.6-3a6 6 0 0 1 3.6-1.1l.2-2.5 1.8.2-.2 2.5a5 5 0 0 1 3 2q1.2 1.6 1 3.7l-4-.4q.2-1-.2-1.9-1-1.2-2.3-.5l-.2.1a2 2 0 0 0-.5 1.3q-.1.8.4 1.4.6.7 1.4 1l2 1.2q.8.5 1.4 1.3.7.7 1 1.5.3 1 .2 2-.2 1.9-1.6 3-1.6 1.2-3.4 1.2l-.3 2.3-1.8-.2.2-2.3a6 6 0 0 1-3.6-2 5 5 0 0 1-1-4l3.8.4a3 3 0 0 0 .4 2q.6.8 1.6.8.6 0 1.3-.3c.7-.3.5-.7.6-1.2m8.8 5.2q0-.9.8-1.5c1-.7 2.4-.5 3.3.3a2 2 0 0 1-.1 3l-.2.1q-.7.6-1.7.4-1 0-1.6-.7a2 2 0 0 1-.5-1.6m4.4-3.5-3.4-.4.7-12.5 4.5.4zm26-2a8 8 0 0 1-2 4.7 5 5 0 0 1-3.9 1.5q-.9 0-1.6-.6t-1-1.3q-1.3 1.5-3.3 1.3-1.1-.1-1.9-1a4 4 0 0 1-1-2 7 7 0 0 1 0-2.7 9 9 0 0 1 2.4-4.5 5 5 0 0 1 4-1.5q1.6.2 2.8 1.1l.7.6-1.3 6.8q-.3 1.6 1 1.8a2 2 0 0 0 1.8-1.2q1-1.5 1-3.1.8-3.4-1-6.3a7 7 0 0 0-5-2.6 7 7 0 0 0-4.1.7 8 8 0 0 0-3.1 3 12 12 0 0 0-1.6 4.7q-.6 4 1 6.5a7 7 0 0 0 5.3 2.7 11 11 0 0 0 4-.4l.2 2q-1 .5-2 .6H85a11 11 0 0 1-5.3-1.8 8 8 0 0 1-3-4 13 13 0 0 1-.4-5.9q.5-3.1 2-5.6 1.6-2.4 4.2-3.7a11 11 0 0 1 10.4.9q2 1.5 2.9 3.8 1 2.7.5 5.5m-12 .2a5 5 0 0 0 0 2.3q.4.8 1.2 1 .7 0 1-.5.7-.6 1-1.3l1-5.3-.7-.2q-1.3-.1-2.2.8-.9 1.4-1.2 3.2"/><g fill="#422b0d"><path d="M82.8 51.4c4.2 0 8 3.5 8 9.4s-3.8 9.4-8 9.4-8-3.6-8-9.4 3.8-9.4 8-9.4m-37.6 0c-4.2 0-8 3.5-8 9.4s3.8 9.4 8 9.4 8-3.6 8-9.4-3.8-9.4-8-9.4"/><path d="M36.6 43.7h-.1c-1.7-1.6-4.3.9-2.8 3a19 19 0 0 0 19.5 6.6c2.4-.7 1.9-4.3-.4-4a23 23 0 0 1-16.2-5.6m54.8 0c1.7-1.6 4.3.9 2.8 3a18 18 0 0 1-4.3 4 19 19 0 0 1-15.2 2.6c-2.4-.7-1.9-4.3.4-4a23 23 0 0 0 16.2-5.6"/></g><path fill="#896024" d="M44.3 54.9a3 3 0 0 0-3.8 1.3q-.8 1.8.6 3.3c1.4.7 3 0 3.8-1.3.5-1.1.3-2.5-.6-3.3m38.3 0a3 3 0 0 0-3.8 1.3q-.7 1.8.6 3.3c1.4.7 3.1 0 3.8-1.3.6-1.1.3-2.5-.6-3.3"/></svg>