<svg viewBox="0 0 128 128"><path fill="#b6885a" d="M108.2 61.6c0 23.3-12.6 41.9-43.6 41.8-33-.1-43.8-15.3-44-40.1-.2-23.4 14-45 43-45a42.6 42.6 0 0 1 44.6 43.3"/><path fill="#ffcd88" d="M63.7 44.3c7.4-.2 15.5-10.5 24.5-2.3 8.2 7.5 1.7 14.5 2 21.6 0 5.9 5.9 10.1 1.2 19C87.7 90 77 95 64.2 94.8c-16.4-.3-26.5-5.1-29.2-13.3-2.7-7.9 3-12.2 2.8-18.3S31 47.7 39.4 41.6c11.5-8.4 16.4 3 24.3 2.7"/><path fill="#393531" d="M55.8 57.5c.4 4.5-2 7.4-5 7.7s-5.8-2.3-6.1-6 1-7 4.9-7.3c3-.3 5.7 1.4 6.2 5.6m26.4.5c-.1 5.1-3.3 6.8-6.1 6.5s-4.7-3.3-4.5-6.7 2.5-6.6 6.1-6.2q4.5.4 4.5 6.4m-18.1 6.3c3.9 0 5.3 0 5.2 2-.1 1.2-2.6 3.7-5 3.7-2.1 0-5.1-2-5.3-3.8-.2-2 1.3-2 5.1-2"/><path fill="#ff6b17" d="M63.5 72.9c16.6.2 19.4 2.8 19.3 5.5-.2 3.9-6.8 8.5-18.8 8.4-12.6-.1-19-4.4-19-8.1-.2-3.7 8.2-6 18.5-5.8"/><path fill="#b6885a" d="M10.6 68.2c0-3.7-2.7-6.7-1.7-13 1-7.3 6.5-11 11.3-11.2s7.6 9.9 7.6 9.9L27.1 78l-3.6-.1s-5.5 7.3-6.6 9.2c-1.2 2-3 7.2 1 7.5 4.2.4 6.4-2.4 9-5.6s4.3-5.8 4.3-5.8l9.6 12.5s-18.4 24-32.8 13.6c-17.2-12.5 2.5-36 2.6-41.1m87.2 16s-10.2 11.2-10 11.7c.4.4 18.7 23.3 32.7 14 14-9.5 2.9-29.2.7-32.3-2.3-3.2-4.7-5.2-4.7-7.5s2.3-6.6 2-12.6-5.7-13-10-13.8-6.4 5.3-6.4 5.3l1.5 29.1 8.8 10.9s1 5.7-.2 6.6-5.1-1.4-8.2-4.6-6.2-6.8-6.2-6.8"/><path fill="#855b50" d="M20.3 44c1.3 2 2.6 3 2.9 5 .5 4.2-2.1 6.2-1.8 10.4s2.5 7 2 12-2.3 7.7-6.3 12.2-3.4 8.7-2.3 10.5 3.4 1.6 4.2.9-2.2-.3-2-4.1 10.3-11.4 10.2-19.4-1.7-9.2-2-14.3c0-2.8 2-6.6.6-10.2s-6-3.5-5.5-3"/><path fill="#865b54" d="M102.8 60.7c0 5.8-2.7 6.8-1.8 13.2s4.1 6.9 7 11.6 4.3 8.3 3.8 9.5c-.8 1.8.5 1.8 1.7 0 1.8-2.8 0-6.8-2.6-11-2.5-4.1-5.2-5.9-6-10-.9-4 2.1-9.1 1-16s-2.6-9-1-11.6c1-1.5 4.6-3.4 1.2-2.7s-5 3.4-4.9 6.7c.2 3.4 1.7 6 1.6 10.3"/></svg>