<svg xmlns="http://www.w3.org/2000/svg" width="1em" height="1em" viewBox="0 0 128 128"><defs><path id="notoFaceWithSpiralEyes0" fill="#EB8F00" d="M111.89 29.67c5.33 8.6 8.11 18.84 8.11 30.23c0 16.9-6.1 31.2-17.6 41.4c-10.6 9.3-25 14.5-40.4 14.5c-18.06 0-37.04-7.35-48.18-22.94C24.58 110.52 44.81 118.8 64 118.8c15.4 0 29.8-5.2 40.4-14.5C115.9 94.1 122 79.8 122 62.9c0-12.74-3.47-24.06-10.11-33.23"/></defs><radialGradient id="notoFaceWithSpiralEyes1" cx="64" cy="-2088.9" r="56.96" gradientTransform="matrix(1 0 0 -1 0 -2026)" gradientUnits="userSpaceOnUse"><stop offset=".5" stop-color="#FDE030"/><stop offset=".919" stop-color="#F7C02B"/><stop offset="1" stop-color="#F4A223"/></radialGradient><path fill="url(#notoFaceWithSpiralEyes1)" d="M64 118.8c-27.9 0-58-17.5-58-55.9S36.1 7 64 7c15.5 0 29.8 5.1 40.4 14.4C115.9 31.6 122 46 122 62.9s-6.1 31.2-17.6 41.4c-10.6 9.3-25 14.5-40.4 14.5"/><use href="#notoFaceWithSpiralEyes0"/><radialGradient id="notoFaceWithSpiralEyes2" cx="64" cy="-2088.9" r="56.96" gradientTransform="matrix(1 0 0 -1 0 -2026)" gradientUnits="userSpaceOnUse"><stop offset=".5" stop-color="#FDE030"/><stop offset=".919" stop-color="#F7C02B"/><stop offset="1" stop-color="#F4A223"/></radialGradient><path fill="url(#notoFaceWithSpiralEyes2)" d="M64 118.8c-27.9 0-58-17.5-58-55.9S36.1 7 64 7c15.5 0 29.8 5.1 40.4 14.4C115.9 31.6 122 46 122 62.9s-6.1 31.2-17.6 41.4c-10.6 9.3-25 14.5-40.4 14.5"/><use href="#notoFaceWithSpiralEyes0"/><path fill="#5F7AFF" d="M38.53 48c.05 0 .02 0 0 0m57.33 0c.04 0 .02 0 0 0m-59.33 0c.05 0 .02 0 0 0m57.33 0c.04 0 .02 0 0 0"/><path fill="#422B0D" d="M82.1 34.68c-8.45 2.31-13.06 9.49-11.62 18.67c.88 5.66 6.55 16.63 21.59 13.31c8.97-1.98 13.51-8.51 13.34-17.06c-.01-.53-.35-.84-.45-.86c0 0-.21.2-.55 1.47c-1.72 6.39-6.21 12.36-14.24 13.25C80.12 64.58 75 57.6 74.22 52.6c-1.03-6.65 2.35-12.47 8.89-14.26c3.87-1.06 7.63.04 10.32 3.02c1.26 1.4 2.62 3.99 2.16 6.55c-1.27 6.99-7.76 6.89-9.99 5.23c-1.7-1.28-2.3-3.94 1.25-4.81c1.29-.31 2.4-.61 2.75-2.32c.23-1.09-.67-2.2-1.64-2.69c-2.14-1.09-4.85-.08-6.46 1.32c-1.73 1.5-2.45 3.85-1.99 6.44c.36 2.02 2 4.66 4.83 6.07c3.49 1.74 12.69 1.53 14.85-7.49c.99-4.15-.82-8.44-2.76-10.65c-5.47-6.19-12.95-4.71-14.33-4.33M45.9 66.85c8.45-2.31 13.06-9.49 11.62-18.67c-.88-5.66-6.55-16.63-21.59-13.31c-8.97 1.98-13.51 8.51-13.34 17.06c.01.53.35.84.45.86c0 0 .21-.2.55-1.47c1.72-6.39 6.21-12.36 14.24-13.25C47.88 36.95 53 43.93 53.78 48.93c1.03 6.65-2.35 12.47-8.89 14.26c-3.87 1.06-7.63-.04-10.32-3.02c-1.26-1.4-2.62-3.99-2.16-6.55c1.27-6.99 7.76-6.89 9.99-5.23c1.7 1.28 2.3 3.94-1.25 4.81c-1.29.31-2.4.61-2.75 2.32c-.23 1.09.67 2.2 1.64 2.69c2.14 1.09 4.85.08 6.46-1.32c1.73-1.5 2.45-3.85 1.99-6.44c-.36-2.02-2-4.66-4.83-6.07c-3.49-1.74-12.69-1.53-14.85 7.49c-.99 4.15.82 8.44 2.76 10.65c5.47 6.18 12.95 4.71 14.33 4.33m53.59 20.41c-1.49-1.72-6.05-4.81-14.33-.76c-1.84.9-2.81 1.92-6.14 1.68c-2.19-.15-3.83-1.21-5.71-2.42c-2.39-1.54-5.1-3.26-9.3-3.43c-4.2.17-6.91 1.89-9.3 3.43c-1.89 1.22-3.52 2.27-5.71 2.42c-3.33.24-4.39-.62-6.23-1.52c-8.28-4.05-12.75-1.12-14.24.6c-1.33 1.54-.43 3.18 2.02 1.43c1.51-1.08 4.22-2.45 10.35 1.01c1.97 1.11 3.83 2.79 8.38 2.47c3.22-.23 5.45-1.66 7.6-3.05c2.1-1.36 4.11-2.63 7.13-2.79c3.03.16 5.03 1.43 7.13 2.79c2.15 1.39 4.38 2.83 7.6 3.05c4.55.32 6.32-1.52 8.29-2.63c6.13-3.46 8.93-1.93 10.44-.85c2.44 1.75 3.35.11 2.02-1.43"/></svg>