<svg xmlns="http://www.w3.org/2000/svg" width="1em" height="1em" viewBox="0 0 128 128"><radialGradient id="notoFlushedFace0" cx="63.6" cy="1696.9" r="56.96" gradientTransform="translate(0 -1634)" gradientUnits="userSpaceOnUse"><stop offset=".5" stop-color="#FDE030"/><stop offset=".92" stop-color="#F7C02B"/><stop offset="1" stop-color="#F4A223"/></radialGradient><path fill="url(#notoFlushedFace0)" d="M63.6 118.8c-27.9 0-58-17.5-58-55.9S35.7 7 63.6 7c15.5 0 29.8 5.1 40.4 14.4c11.5 10.2 17.6 24.6 17.6 41.5s-6.1 31.2-17.6 41.4c-10.6 9.3-25 14.5-40.4 14.5z"/><path fill="#EB8F00" d="M111.49 29.67c5.33 8.6 8.11 18.84 8.11 30.23c0 16.9-6.1 31.2-17.6 41.4c-10.6 9.3-25 14.5-40.4 14.5c-18.06 0-37-7.35-48.18-22.94c10.76 17.66 31 25.94 50.18 25.94c15.4 0 29.8-5.2 40.4-14.5c11.5-10.2 17.6-24.5 17.6-41.4c0-12.74-3.47-24.06-10.11-33.23z"/><radialGradient id="notoFlushedFace1" cx="78.308" cy="-948.814" r="19.44" gradientTransform="matrix(.98 0 0 -.93 -49.42 -800.35)" gradientUnits="userSpaceOnUse"><stop offset="0" stop-color="#ED7770"/><stop offset=".9" stop-color="#ED7770" stop-opacity="0"/></radialGradient><circle cx="27.2" cy="82.2" r="17.5" fill="url(#notoFlushedFace1)" opacity=".8"/><radialGradient id="notoFlushedFace2" cx="147.368" cy="-948.814" r="19.44" gradientTransform="matrix(.98 0 0 -.93 -49.42 -800.35)" gradientUnits="userSpaceOnUse"><stop offset="0" stop-color="#ED7770"/><stop offset=".9" stop-color="#ED7770" stop-opacity="0"/></radialGradient><circle cx="94.88" cy="82.2" r="17.5" fill="url(#notoFlushedFace2)" opacity=".8"/><radialGradient id="notoFlushedFace3" cx="147.43" cy="-923.9" r="19.44" gradientTransform="matrix(1 0 0 -1 0 130)" gradientUnits="userSpaceOnUse"><stop offset="0" stop-color="#ED7770"/><stop offset=".9" stop-color="#ED7770" stop-opacity="0"/></radialGradient><circle cx="99.8" cy="82.2" r="17.5" fill="url(#notoFlushedFace3)" opacity=".8"/><path fill="none" stroke="#35220B" stroke-linecap="round" stroke-linejoin="round" stroke-width="8" d="M56 96h15"/><path fill="#FFF" d="M89.2 41.8c9.61 0 17.4 7.79 17.4 17.4s-7.79 17.4-17.4 17.4s-17.4-7.79-17.4-17.4c.01-9.61 7.79-17.39 17.4-17.4"/><ellipse cx="89.2" cy="59.2" fill="#422B0D" rx="7.5" ry="7.6"/><path fill="#FFF" d="M38.7 41.7c9.61 0 17.4 7.79 17.4 17.4s-7.79 17.4-17.4 17.4s-17.4-7.79-17.4-17.4c.01-9.61 7.79-17.39 17.4-17.4"/><ellipse cx="38.7" cy="59.1" fill="#422B0D" rx="7.5" ry="7.6"/><path fill="#422B0D" d="M46.56 27.27h.1a1.83 1.83 0 1 0 1.26-3.44c-1.79-.8-3.69-1.31-5.64-1.5c-5.25-.63-10.55.77-14.8 3.92c-2 1.51.07 4.06 2.05 3.06a26.215 26.215 0 0 1 17.03-2.04zm34.3 0h-.1a1.83 1.83 0 1 1-1.26-3.44c1.79-.8 3.69-1.31 5.64-1.5c5.25-.63 10.55.77 14.8 3.92c2 1.51-.07 4.06-2 3.06c-5.3-2.58-11.32-3.3-17.08-2.04z"/></svg>