<svg xmlns="http://www.w3.org/2000/svg" xml:space="preserve" viewBox="0 0 128 128"><path d="m98.52 87.64 3.33 8.81 1.03-1.88s.26-3.33 4.62-3.85 8.23-.64 11.97-1.88c2.82-.94 4.27-3.16 4.19-5.22-.11-2.65-2.75-3.64-2.75-3.64l-22.38 7.66zM39.67 106.7l-21.9-2.66s-1.42 1.42-.98 4.08 2.75 3.64 7.01 3.99 14.01.62 17.47 1.06 14.3 4.93 29.65 4.93 21.59-5.48 26.96-6.03 14.25 0 16.77-.88 4.32-2.32 4.46-4.64c.12-1.97-.51-3.47-.51-3.47l-45.81 6.73-33.12-3.12zM18.93 78.59l-12.17-.06s-3.34 2.6-2.56 7.07c.62 3.55 4.08 5.5 9.05 6.83s10.11 1.86 11.53 3.99 1.51 4.88 1.51 4.88l7.98-9.31L18.92 78.6z" style="fill:#ed9004"/><radialGradient id="a" cx="58.58" cy="-227.168" r="78.6" gradientTransform="matrix(1 0 0 -.61 0 -85.02)" gradientUnits="userSpaceOnUse"><stop offset=".28" style="stop-color:#fddc2f"/><stop offset=".41" style="stop-color:#fbd42d"/><stop offset=".75" style="stop-color:#f9c32b"/></radialGradient><path d="M9.62 76.27c.29-1.62-1.13-18.47 4.44-33.99C19.92 25.95 44.69.02 81.74 15.64s32.33 53.89 32.2 55.64-.91 5.85.32 6.24 4.22 1.1 5.2 1.56 2.42 1.13 2.38 2.22c-.03.78-.95 2.46-5.04 3.43s-14.17 1.65-14.23 7.8c-.05 4.87 6.74 4.96 11.63 7.02s5.13 4.73 4.52 5.99c-.41.84-3.48 2.26-9.91 2.06-6.43-.19-8.06-.06-9.68.19s-13.87 5.48-27.23 5.74-26.03-4.2-29.46-4.37-15.33-.15-20.72-1.2c-3.08-.6-4.14-2.14-4.2-3-.09-1.37 1.71-2.31 3.6-2.91s5.04-1.89 5.22-5.05c.17-3-1.03-5.91-7.88-7.96-6.85-2.06-9.4-2.79-11.42-4.52-1.86-1.6-2.21-3.02-1.68-4.22 1.28-2.91 4.2-3.68 4.26-4.04z" style="fill:url(#a)"/><radialGradient id="b" cx="75.092" cy="-135.963" r="98.42" gradientTransform="rotate(1.358 1983.489 -399.28)scale(1 -.65)" gradientUnits="userSpaceOnUse"><stop offset=".47" style="stop-color:#f2ae25;stop-opacity:0"/><stop offset=".76" style="stop-color:#f2ae25"/><stop offset=".76" style="stop-color:#f2ae25;stop-opacity:.97"/><stop offset=".82" style="stop-color:#f2ae25;stop-opacity:.56"/><stop offset=".88" style="stop-color:#f2ae25;stop-opacity:.26"/><stop offset=".91" style="stop-color:#f2ae25;stop-opacity:.07"/><stop offset=".93" style="stop-color:#f2ae25;stop-opacity:0"/></radialGradient><path d="M9.62 76.27c.29-1.62-1.13-18.47 4.44-33.99C19.92 25.95 44.69.02 81.74 15.64s32.33 53.89 32.2 55.64-.91 5.85.32 6.24 4.22 1.1 5.2 1.56 2.42 1.13 2.38 2.22c-.03.78-.95 2.46-5.04 3.43s-14.17 1.65-14.23 7.8c-.05 4.87 6.74 4.96 11.63 7.02s5.13 4.73 4.52 5.99c-.41.84-3.48 2.26-9.91 2.06-6.43-.19-8.06-.06-9.68.19s-13.87 5.48-27.23 5.74-26.03-4.2-29.46-4.37-15.33-.15-20.72-1.2c-3.08-.6-4.14-2.14-4.2-3-.09-1.37 1.71-2.31 3.6-2.91s5.04-1.89 5.22-5.05c.17-3-1.03-5.91-7.88-7.96-6.85-2.06-9.4-2.79-11.42-4.52-1.86-1.6-2.21-3.02-1.68-4.22 1.28-2.91 4.2-3.68 4.26-4.04z" style="fill:url(#b)"/><radialGradient id="c" cx="61.945" cy="67.44" r="61.783" gradientTransform="matrix(1 0 0 -1 0 130)" gradientUnits="userSpaceOnUse"><stop offset=".74" style="stop-color:#eeaf2c;stop-opacity:0"/><stop offset=".82" style="stop-color:#eeaf2c"/><stop offset=".83" style="stop-color:#eeaf2c;stop-opacity:.99"/><stop offset=".86" style="stop-color:#eeaf2c;stop-opacity:.57"/><stop offset=".89" style="stop-color:#eeaf2c;stop-opacity:.26"/><stop offset=".91" style="stop-color:#eeaf2c;stop-opacity:.07"/><stop offset=".92" style="stop-color:#eeaf2c;stop-opacity:0"/></radialGradient><path d="M9.62 76.27c.29-1.62-1.13-18.47 4.44-33.99C19.92 25.95 44.69.02 81.74 15.64s32.33 53.89 32.2 55.64-.91 5.85.32 6.24-104.7-.89-104.64-1.25" style="fill:url(#c)"/><linearGradient id="d" x1="63.042" x2="63.302" y1="44.72" y2="23.44" gradientTransform="matrix(1 0 0 -1 0 130)" gradientUnits="userSpaceOnUse"><stop offset=".28" style="stop-color:#412a0d"/><stop offset=".37" style="stop-color:#583b13"/><stop offset=".54" style="stop-color:#805b20"/><stop offset=".76" style="stop-color:#a87b26"/><stop offset=".88" style="stop-color:#ba8a29"/></linearGradient><path d="M55.43 76.72c-10.71-7.93-15.16-17.49-16.87-20.01-1.15-1.7-2.12-2-2.86-1.63-1.06.53-1.02 2.44-.77 4.04s1.62 11.24 9.22 19.27c8.06 8.52 18.05 11.18 24.53 12.59s13.25 2.73 14.2 3c1.82.52 2.1 2.35-.58 2.88-3.68.74-13.18.17-16.86 1.09-3.18.8-5.26 3.69-2.59 6.5s8.76 2.39 10.24 2.17 4.45-1.04 4.07-2c-.32-.8-10.23.88-9.12-2.82.52-1.74 5.81-1.34 10.93-1.38 3.47-.03 6.85-.4 8.63-1.21 4.83-2.19 4.05-6.72 1.16-8.34s-8.87-2.86-15.45-4.95c-7.24-2.3-13.32-5.83-17.88-9.2" style="fill:url(#d)"/><path d="M83.73 54.26c-3.44-.95-7.28 1.56-9.38 8.15s-.23 12.21 2.96 13.17c3.4 1.02 8.05-2.48 9.7-9.15s-.29-11.34-3.28-12.17M56.61 34.7c-3.85-1.2-7.96 1.42-10.27 6.74-2.15 4.96-1.84 12.02 2.31 13.44 4.43 1.52 8.7-2.37 10.51-7.71 1.81-5.32 1.22-11.31-2.55-12.47" style="fill:#412a0d"/><path d="M55.18 37.38c-1.08-.8-2.98-.56-4.04.8-1.33 1.7-1.53 3.19-.36 4.32s3.35.19 4.36-1.11 1.31-3.09.04-4.02zM82.64 57.5c-1.22-1.19-3.1-.65-4.25.93s-1.33 3.41-.06 4.46 3.35.25 4.28-1.27c.76-1.24 1.05-3.13.03-4.12" style="fill:#876022"/></svg>