<svg viewBox="0 0 128 128"><radialGradient id="a" cx="193.5" cy="-2704.4" r="49.7" gradientTransform="rotate(-32.271 -4436.94 1604.531)scale(1 -1)" gradientUnits="userSpaceOnUse"><stop offset=".5" stop-color="#fde030"/><stop offset=".9" stop-color="#f7c02b"/><stop offset="1" stop-color="#f4a223"/></radialGradient><path fill="url(#a)" d="M91.6 103.6c-20.6 13-51 14-68.8-14.3S19 34.1 39.5 21.1A53 53 0 0 1 76 13c13.2 2.2 24.4 10 32.3 22.4s10 25.9 6.3 38.8a53 53 0 0 1-23 29.5"/><path fill="#eeba4b" d="M60 118.8a1 1 0 0 1-1 .9 50 50 0 0 1-32.7-15.4 70 70 0 0 1-11.3-15Q10.3 81 8.4 71.6a51 51 0 0 1 1.7-27c.2-.6 1-1 1.5-.8s1 1 .8 1.5a49 49 0 0 0-.8 25.6A60 60 0 0 0 18 87.6a61 61 0 0 0 25 25.1q7.6 4 16.2 5 1 .2.9 1.1"/><path fill="#eeba4b" d="M3.9 69.7q.9 0 1 1l1.5 6.1A74 74 0 0 0 32 113.4q1 .8.3 2-.8 1-2 .3a59 59 0 0 1-16.3-16A61 61 0 0 1 2.6 71q.1-1.3 1.3-1.3m117.8-6.4q-1.2-.1-1.4-1.3a55 55 0 0 0-3.5-15.6 67 67 0 0 0-19.8-28q-6.2-5-13.7-8a1.4 1.4 0 0 1-.8-1.8q.5-1.1 1.8-.9a56 56 0 0 1 27.2 21.4q5.4 7.5 8.5 16.2a55 55 0 0 1 3.2 16.5q-.1 1.3-1.5 1.5m-24-56c.1-.7.9-1 1.5-.6a58 58 0 0 1 8.3 6.2A74 74 0 0 1 122 31.2a76 76 0 0 1 4.3 9.1q.4 1.5-1 2.2-1.5.4-2.1-1A74 74 0 0 0 119 33a86 86 0 0 0-6.1-9.4q-3.4-4.5-7.3-8.6a68 68 0 0 0-7.5-6.6 1 1 0 0 1-.4-1"/><path fill="#eb8f00" d="M85.4 15.6q12 5.7 20 18.5a47 47 0 0 1 6.3 38.7 53 53 0 0 1-23 29.5 51 51 0 0 1-46.2 5.5c16.2 8 35 4.7 49-4.3a53 53 0 0 0 23-29.4 47 47 0 0 0-6.2-38.8 49 49 0 0 0-23-19.7"/><path fill="#422b0d" d="M66 34.7c2.5-1.6 7.2.7 11.1 7s4 11.5 1.5 13-7.2-.6-11.2-6.9-4-11.5-1.5-13.1M41 50.5c-2.7 1.7-2.8 7 1.1 13.3s8.9 8.5 11.6 6.8 2.8-7-1.2-13.3-8.8-8.5-11.5-6.8"/><path fill="#896024" d="M42.3 53c-1 0-2 .8-2 2.2s.8 2.3 1.8 2.3 2-.8 2-2.1-.8-2.3-1.8-2.4m25.5-16q-1.7 0-2 2.2c-.3 2.1.9 2.2 1.8 2.3s2-.8 2-2.2c.1-1.4-.8-2.3-1.8-2.3"/><path fill="#bf9052" d="M37.7 77.5q-4.1-3.6-6.6-8a27 27 0 0 1-3-8.5q-.2-.8-1.3-1c-1.1-.2-1 .7-1 1q-.3 5 2.6 9.6a25 25 0 0 0 7.7 8.5c.4.2 1.2.6 1.7-.1s.2-1.3-.1-1.5"/><path fill="#896024" d="M39.6 65.4a16 16 0 0 1-3-10q-2.5-.7-4 .3c-2.7 1.7-2.8 7 1.2 13.3s8.8 8.5 11.5 6.8q1.5-1.1 2-3.4a16 16 0 0 1-7.7-7"/><path fill="#bf9052" d="M90.8 44q-1.5-5.3-4.5-9.5a27 27 0 0 0-6.3-6.3q-.7-.6-.4-1.6c.3-1 1-.6 1.4-.4q4.5 1.8 7.6 6.4Q92 38 92.8 43.3c.1.4 0 1.2-.8 1.5s-1.1-.5-1.2-.8"/><path fill="#896024" d="M79 40.5a16 16 0 0 0-7.6-7q.2-2.5 1.8-3.4c2.8-1.8 7.6.5 11.6 6.7s3.8 11.6 1.1 13.3q-1.6 1-3.9.3.5-3.9-3-10"/><path fill="#422b0d" d="M68.6 86.6c-1.3-2-2-5-1.5-8.2a10 10 0 0 1 13-8.3c6 1.8 10.2 8.1 9.4 14.3a10 10 0 0 1-14.4 8.1 14 14 0 0 1-6.5-6"/></svg>