<svg viewBox="0 0 128 128"><radialGradient id="a" cx="63.6" cy="1104.9" r="57" gradientTransform="translate(0 -1042)" gradientUnits="userSpaceOnUse"><stop offset=".5" stop-color="#fde030"/><stop offset=".9" stop-color="#f7c02b"/><stop offset="1" stop-color="#f4a223"/></radialGradient><path fill="url(#a)" d="M63.6 118.8c-27.9 0-58-17.5-58-55.9S35.7 7 63.6 7c15.5 0 29.8 5.1 40.4 14.4 11.5 10.2 17.6 24.6 17.6 41.5s-6.1 31.2-17.6 41.4a61 61 0 0 1-40.4 14.5"/><path fill="#422b0d" d="M39.4 42.5a1.8 1.8 0 0 0 0-3.7q-3-.2-5.8.4a21 21 0 0 0-12.8 8.5c-1.4 2 1.3 3.7 3 2.2 4.1-4.2 9.6-6.9 15.5-7.4"/><path fill="#35220b" d="M46.6 94.3q6-.7 11.5-.9c5.5-.2 7.4-.4 10.9-1q4.8-.5 9.1-2.6a10 10 0 0 0 4.9-6.2v-.1a3.4 3.4 0 0 1 6.6 1q0 3.7-1.8 7a17 17 0 0 1-5 5.5c-4 2.8-8.5 3.8-12.5 4.4q-6 .8-12 .5-6-.1-11.5-.8a3.4 3.4 0 0 1-3-3.8 3.4 3.4 0 0 1 3-3z"/><path fill="#422b0d" d="M48.2 55.8a32 32 0 0 0-18.4.7 2 2 0 0 0-1.2 2.7 2 2 0 0 0 2.5 1.2q3.5-.7 7.2-.4v.4c0 4.9 3.2 7.8 6.7 7.8q2.7 0 4.7-2a7 7 0 0 0 1-8.2 5 5 0 0 0-2.5-2.2m47.8 0a32 32 0 0 0-18.4.7 2 2 0 1 0 1.4 3.9q3.6-.7 7.2-.4v.4c0 4.9 3.2 7.8 6.7 7.8q2.8 0 4.7-2a7 7 0 0 0 1-8.2 5 5 0 0 0-2.6-2.2"/><path fill="#896024" d="M45 59.2a3 3 0 0 1 3.9 1.3c.5 1.1.3 2.5-.6 3.3-1.4.7-3.1.1-3.8-1.3-.6-1.1-.3-2.5.6-3.3m48 0c1.4-.7 3 0 3.8 1.3q.7 2-.6 3.3c-1.5.7-3.2 0-3.8-1.3-.6-1.1-.3-2.5.6-3.3"/><path fill="#eb8f00" d="M111.5 29.7a57 57 0 0 1 8.1 30.2c0 16.9-6.1 31.2-17.6 41.4a61 61 0 0 1-40.4 14.5 59 59 0 0 1-48.2-23 58 58 0 0 0 50.2 26c15.4 0 29.8-5.2 40.4-14.5a54 54 0 0 0 17.6-41.4q-.1-19.2-10.1-33.2"/><path fill="#422b0d" d="M88.2 42.5a1.8 1.8 0 0 1 0-3.7q3-.2 5.8.4a21 21 0 0 1 12.8 8.5c1.4 2-1.3 3.7-3 2.2a26 26 0 0 0-15.6-7.4"/></svg>