<svg viewBox="0 0 128 128"><path fill="#b6885a" d="M107.4 61.4c0 23.3-10.9 44-42.8 43.6-35.2-.3-43.3-17-43.6-42-.2-23.3 13.3-45.3 42.4-45.3a42.3 42.3 0 0 1 43.9 43.7"/><path fill="#ffcd88" d="M64.4 44.1c7.5-.2 15.5-10.5 24.5-2.3 8.2 7.5 1.7 14.5 2 21.6.1 5.9 5.9 10.1 1.3 19-3.8 7.3-13.6 13.6-26.4 13.3-16.4-.3-27.3-6.3-30-14.5-2.7-7.9 3-12.2 2.7-18.3S31.7 47.5 40 41.4c11.5-8.3 16.4 3 24.3 2.7"/><path fill="#393531" d="M64.3 66.5c3.9 0 5.3 0 5.2 2-.1 1.2-2.6 3.7-5 3.7-2.1 0-5.2-2-5.3-3.8-.3-2 1.3-2 5-2"/><path fill="#b6885a" d="M104.8 50.9s14.8.6 14.6 14-12.9 14.7-15.5 14.6.9-28.6.9-28.6m-81.7.3S9.2 50.8 8.7 64.3 21 79.7 24.4 80.1 23 51.2 23 51.2"/><path fill="#ff6b17" d="M63.5 75c16.6.2 19.4 2.8 19.3 5.6-.2 3.8-6.8 8.4-18.8 8.3-12.6 0-19-4.4-19-8-.2-3.7 8.2-6 18.5-5.9"/><path fill="#ffcd88" d="M22.2 74.7c.4-.2-.2-4.7-.5-9s0-8.2-.2-8.4c-.4-.6-8.1-.3-8.1 8s8 9.7 8.8 9.4m83.2-17.8c.6-.4 8.8.9 8.6 9.2-.2 9-7.8 9.4-8.7 8.7-.4-.3.2-4.4.3-8.9.1-4.2-.5-8.8-.2-9"/><path fill="#b8885a" d="m32 77.6 11.8-5L56 68.8s5.8-7.4 5.4-9.5-2.1-8.7-5.2-10-6.6-.6-9 .8c-2.1 1.2-4.5 4.4-4.8 1.8-.2-1.1 4.4-5.4 4.4-5.4s1.2-1.7-1.3-2.4-7 1.7-8 2.4l-5.3 3.1L12.5 75S2.5 85 2.3 95.7s6.5 18.6 19.5 17 22.4-20 22.4-20l-15-7s-4.6 10.4-7 9.2.5-8 .5-8zm67.6 9.1L87.5 99.3s6.7 15.6 20.7 15.3 20.4-14.7 16.3-25.8-16-23.7-16-23.7L94 49.4s-7-7.4-11.4-6.2 3.9 8 3.9 8-1.2 2-3.2 1S73.8 45 69 54c-4.2 7.9 1.8 11.7 1.8 11.7L82.1 72l13 5.4 7.6 7.4s3.8 8.1 3.6 8.8-2.5-.6-4.1-3z"/><path fill="#855b53" d="M46.7 44.9c-.5-.4 0 1.9-2.2 3q-3.1 1.8-2.6 3.7c1 2.5.9-.3 2.7-1.5 1.7-1 4-3.7 2.1-5.3"/><path fill="#865b52" d="M56 49.8c.6 1 5.3 3.3 4 9.2q-1.4 6.4-12.5 10.6C40 72.5 29.4 75 23.4 82.4c-4.8 5.6-6.2 12.2-2.8 14.2 2.3 1.4.2-2.8 1.9-6.9 1.6-4 7-8.7 12.7-11.7S56 71.8 60.1 65.5s2.2-10.2.6-12.4c-2-2.9-5.4-4.6-4.7-3.3m25-5.3c-.4 1.2-.7 2.9 1.6 4.7 2.4 1.8 2.6 2.6 2.2 3.1s-.1.8 2-.2c2.3-.9-1-3.2-1.8-4.1-.9-1-3.2-2.6-2.5-4 .7-1.5-1.2-.2-1.5.5m-7.9 5.9c-.5.7-6.4 6.9-2.4 13.3 2.8 4.6 7.6 5.5 12.4 6.9s10.2 4 13.3 6c4.7 2.9 6.8 6 9.1 9.3 2.8 4 3.4 9.3-.4 11.4-1.6.8 0-3.3-.2-5-.5-3.2-1.9-5-2.9-6s-4.3-5.4-9.1-8-12.1-4.6-14.2-5.4c-3.8-1.3-8.6-3.6-10.7-8.8-2-4.9 0-9.8 2.2-12.4 1.4-1.6 4.2-3.2 3-1.3"/></svg>