<svg xmlns="http://www.w3.org/2000/svg" width="1em" height="1em" viewBox="0 0 128 128"><defs><path id="notoLoudlyCryingFace0" fill="#EB8F00" d="M111.49 29.67c5.33 8.6 8.11 18.84 8.11 30.23c0 16.9-6.1 31.2-17.6 41.4c-10.6 9.3-25 14.5-40.4 14.5c-18.06 0-37.04-7.35-48.18-22.94c10.76 17.66 30.99 25.94 50.18 25.94c15.4 0 29.8-5.2 40.4-14.5c11.5-10.2 17.6-24.5 17.6-41.4c0-12.74-3.47-24.06-10.11-33.23"/></defs><radialGradient id="notoLoudlyCryingFace1" cx="63.6" cy="-2088.9" r="56.96" gradientTransform="matrix(1 0 0 -1 0 -2026)" gradientUnits="userSpaceOnUse"><stop offset=".5" stop-color="#FDE030"/><stop offset=".919" stop-color="#F7C02B"/><stop offset="1" stop-color="#F4A223"/></radialGradient><path fill="url(#notoLoudlyCryingFace1)" d="M63.6 118.8c-27.9 0-58-17.5-58-55.9S35.7 7 63.6 7c15.5 0 29.8 5.1 40.4 14.4c11.5 10.2 17.6 24.6 17.6 41.5s-6.1 31.2-17.6 41.4c-10.6 9.3-25 14.5-40.4 14.5"/><use href="#notoLoudlyCryingFace0"/><path fill="#5F7AFF" d="M38.53 48c.05 0 .02 0 0 0m57.33 0c.04 0 .02 0 0 0"/><radialGradient id="notoLoudlyCryingFace2" cx="63.6" cy="-2088.9" r="56.96" gradientTransform="matrix(1 0 0 -1 0 -2026)" gradientUnits="userSpaceOnUse"><stop offset=".5" stop-color="#FDE030"/><stop offset=".919" stop-color="#F7C02B"/><stop offset="1" stop-color="#F4A223"/></radialGradient><path fill="url(#notoLoudlyCryingFace2)" d="M63.6 118.8c-27.9 0-58-17.5-58-55.9S35.7 7 63.6 7c15.5 0 29.8 5.1 40.4 14.4c11.5 10.2 17.6 24.6 17.6 41.5s-6.1 31.2-17.6 41.4c-10.6 9.3-25 14.5-40.4 14.5"/><path fill="#422B0D" d="M89.74 79.1c-7.32-2.35-16.21-3.6-25.74-3.6c-9.68 0-18.63 1.37-26.07 3.75c-2.82 4.67-4.53 10.08-4.53 15.85c0 4.9 4.9 7.8 9.2 5.8c5.4-2.5 13.3-5 21.4-5s16.1 2.5 21.4 5c4.3 2 9.2-.9 9.2-5.8c0-5.83-1.87-11.3-4.86-16"/><path fill="#FFF" d="M89.74 79.1C83.7 69.6 73.09 67.2 64 67.2c-9.88 0-20.3 2.47-26.07 12.05C45.37 76.87 54.32 75.5 64 75.5c9.52 0 18.42 1.25 25.74 3.6"/><path fill="#EB8F00" d="M63.94 65.7c3.5.09 7.03.41 10.46 1.3c3.44.84 6.78 2.28 9.71 4.34c2.9 2.11 5.34 4.85 7.01 7.97c1.7 3.07 2.94 6.4 3.56 9.85c.32 1.72.49 3.47.49 5.22c.03.84-.05 1.83-.3 2.72c-.26.9-.72 1.73-1.31 2.45c-1.18 1.45-2.98 2.31-4.81 2.44c-.91.05-1.83-.07-2.69-.35c-.87-.32-1.6-.71-2.38-1.05c-6.2-2.74-12.91-4.52-19.74-4.68c6.84-.09 13.66 1.44 20.04 3.99c.8.31 1.6.7 2.34.94c.77.22 1.58.29 2.36.22c1.57-.17 3.07-.97 4.01-2.21c.47-.62.83-1.32 1.01-2.07c.18-.77.22-1.5.17-2.36a28.31 28.31 0 0 0-.65-4.95c-.71-3.25-2-6.37-3.71-9.21c-1.68-2.85-3.98-5.23-6.67-7.05c-2.73-1.77-5.81-2.98-9.03-3.64c-3.21-.7-6.54-.89-9.87-.85z"/><path fill="#EB8F00" d="M64.19 68.7c-3.32-.04-6.66.15-9.87.85c-3.22.66-6.3 1.87-9.03 3.64c-2.69 1.82-4.99 4.2-6.67 7.05c-1.72 2.84-3 5.95-3.71 9.21c-.36 1.63-.59 3.28-.65 4.95c-.06.86-.01 1.59.17 2.36c.19.75.55 1.45 1.01 2.07c.94 1.24 2.44 2.04 4.01 2.21c.79.07 1.59 0 2.36-.22c.74-.24 1.54-.62 2.34-.94c6.37-2.55 13.2-4.08 20.04-3.99c-6.84.16-13.55 1.94-19.74 4.68c-.78.34-1.51.73-2.38 1.05c-.86.28-1.78.4-2.69.35c-1.82-.12-3.62-.99-4.81-2.44a6.915 6.915 0 0 1-1.31-2.45c-.25-.88-.33-1.87-.3-2.72c.01-1.75.18-3.49.49-5.22c.63-3.45 1.86-6.78 3.56-9.85c1.68-3.11 4.12-5.86 7.01-7.97c2.93-2.06 6.27-3.51 9.71-4.34c3.44-.88 6.97-1.21 10.46-1.3z"/><use href="#notoLoudlyCryingFace0"/><path fill="#5F7AFF" d="M36.53 48c.05 0 .02 0 0 0m57.33 0c.04 0 .02 0 0 0"/><path fill="#422B0D" d="M22.19 45.91c-.52.09-1.06.01-1.52-.21c-.91-.44-1.6-1.51-1.08-2.91c1.91-4.94 5.86-9.08 10.84-11.38c1.85-.86 3.79-1.43 5.78-1.7c1.49-.17 2.36.74 2.57 1.71c.23 1.08-.26 2.4-1.66 2.86l-.12.04c-5.39 1.86-10.2 5.67-13.18 10.44c-.41.68-1.01 1.04-1.63 1.15m81.34-1.15c-2.98-4.77-7.79-8.58-13.18-10.44l-.12-.04c-1.4-.45-1.9-1.78-1.66-2.86c.21-.98 1.09-1.88 2.57-1.71c1.98.26 3.93.84 5.78 1.7c4.98 2.3 8.93 6.44 10.84 11.38c.52 1.4-.17 2.47-1.08 2.91c-.45.22-.99.3-1.52.21c-.62-.11-1.22-.47-1.63-1.15"/><path fill="#29B6F6" d="M111.74 111c0-3.07-5.55-5.62-12.52-5.78l-2.15-52.55c-.21-.16-.42-.35-.59-.56c0 0-.06-.08-.18-.22c-.06-.07-.13-.16-.21-.27c-.09-.11-.18-.23-.26-.29l-.62-.62c-.25-.25-.55-.52-.86-.79c-.64-.54-1.4-1.04-2.2-1.39c-.8-.33-1.61-.53-2.44-.52h-.13l-.29.01c-.26 0-.21.02-.29.03c-.07-.01-.35.06-.54.09c-.4.1-.82.22-1.22.39c-.8.35-5.09.54-5.37.71l-.46 61.25c-4.53 1.37-9.49 3.67-9.49 6.24c0 4.19 7.83 7.6 17.49 7.6c9.66 0 17.49-3.39 17.49-7.58c0-.42-.1-.82-.25-1.22c3.1-1.06 5.09-2.69 5.09-4.53"/><path fill="#81D4FA" d="M86.38 106.87c.09 3.25-1.87 6.19-4.89 7.4c-3.67 1.47-7.17 3.54-1.93 4.78c0 0 3.95 1.94 5.96.93c.9-.45.59-1.19-.03-1.86c-.68-.73-.34-1.91.63-2.13l.86-.19a4.664 4.664 0 0 0 3.65-4.68l-1.61-65.63l-3.29-.27z"/><path fill="#29B6F6" d="m46.88 110.49l-.45-61.13c-.49-.22-1.33 2.67-1.45 2.52c-.06-.07-.13-.16-.21-.27c-.09-.11-.18-.23-.26-.29l-.62-.62c-.25-.25-.55-.52-.86-.79c-.64-.54-1.4-1.04-2.2-1.39c-.8-.33-1.61-.53-2.44-.52h-.13l-.29.01c-.26 0-.21.02-.29.03c-.07-.01-.35.06-.54.09c-.4.1-.82.22-1.22.39c-.8.35-1.56.85-2.2 1.39c-.63.54-1.16 1.07-1.52 1.47c-.36.41-.57.64-.57.64l-.3.34c-.03.03-.06.05-.09.08l-2.16 52.77c-6.98.16-12.52 2.69-12.52 5.76c0 1.84 1.99 3.49 5.08 4.54c-.15.4-.25.81-.25 1.23c0 4.19 7.83 7.59 17.49 7.59s17.49-3.42 17.49-7.61c0-2.57-4.97-4.86-9.49-6.23"/><path fill="#81D4FA" d="M35.25 49.14L33.5 104.4a2.884 2.884 0 0 1-3 2.8c-2.08-.09-4.93.15-7.27 1.6c-1.26.78-1.78 2.77-.63 3.88c1.26 1.21 4.56.16 6.21-.01c.72-.07 1.67 0 1.86.7c.11.4-.13.83-.46 1.07c-.33.25-.74.35-1.14.47c-.66.19-1.32.42-1.84.87c-.51.45-.84 1.17-.66 1.83c.24.85 1.18 1.26 2.01 1.55c1.46.53 2.95 1.06 4.5 1.13c.09-1.1-1.62-1.86-1.28-2.91c.12-.37.47-.61.82-.78c.94-.44 2.01-.53 3.02-.77c1.66-.39 4.66-1.23 3.88-3.51c-.26-.75-.79-1.36-1.24-2.02c-1.69-2.5-2.02-4.7-1.72-7.7c.24-2.34.84-39.37 1.24-54.6c.1-3.65-1.09-.29-2.28-.2c-.1.13-.17 1.22-.27 1.34"/><path fill="#422B0D" d="m48.6 54.43l-.2-.2l-.5-.5c-.2-.2-.4-.3-.7-.6c-.3-.2-.6-.5-1-.7s-.8-.5-1.2-.7s-.9-.4-1.4-.6s-1-.3-1.5-.4s-1-.1-1.6-.1h.1h-1c-.2 0-.5.1-.7.1c-.5.1-1 .2-1.5.4s-1 .3-1.4.6c-.4.2-.8.4-1.2.7c-.7.5-1.3 1-1.7 1.3l-.6.6l-.2.2c-1.2 1.2-3.2 1.2-4.6.2c-1-.8-1.3-2.2-.8-3.2l.1-.3c.1-.2.2-.5.4-.8c.4-.7 1.1-1.7 2.2-2.8c.5-.5 1.2-1.1 1.9-1.6s1.6-1 2.5-1.4s2-.8 3-1c.5-.1 1.1-.2 1.7-.3c.3 0 .7-.1.8-.1h.8c1.1 0 2.2.1 3.3.3c1.1.2 2.1.6 3 1s1.8.9 2.5 1.4c.8.5 1.4 1 1.9 1.6c.5.5 1 1 1.3 1.5c.2.2.3.5.5.7c.1.2.3.4.4.6c.3.4.3.6.4.8l.1.2c.7 1.5-.1 3.2-1.8 3.8c-.9.5-2.4.2-3.3-.7m46.91-.36l-.2-.2c-.11-.11-.36-.39-.51-.5c-.19-.16-.42-.35-.69-.57c-.29-.22-.62-.46-.98-.71a13.5 13.5 0 0 0-1.2-.68c-.42-.23-.9-.39-1.38-.57c-.48-.17-.99-.26-1.5-.37c-.51-.08-1.04-.12-1.57-.12h.14h-.31l-.31.01c-.26 0-.3.02-.4.03c-.16 0-.45.05-.7.09c-.51.11-1.02.2-1.5.37c-.47.18-.95.34-1.37.57c-.43.22-.83.45-1.2.68c-.72.48-1.31.96-1.7 1.32c-.4.36-.63.58-.63.58l-.25.25c-1.21 1.17-3.25 1.24-4.57.17c-1.04-.85-1.3-2.16-.78-3.25l.15-.3c.1-.19.22-.49.44-.84c.41-.71 1.09-1.71 2.17-2.76c.54-.52 1.17-1.07 1.92-1.57c.73-.52 1.58-.99 2.52-1.4c.94-.4 1.96-.75 3.04-.97c.55-.1 1.06-.2 1.73-.26c.31-.03.68-.06.84-.07l.77-.03c1.13.02 2.25.14 3.34.35c1.08.22 2.1.57 3.04.97c.93.41 1.79.88 2.52 1.4c.75.5 1.37 1.04 1.91 1.57c.54.52.97 1.04 1.33 1.51c.17.24.33.46.48.67c.14.23.28.44.39.63c.27.42.29.58.39.77l.11.25c.67 1.49-.14 3.18-1.81 3.78c-1.31.47-2.78.11-3.67-.8"/></svg>