<svg xmlns="http://www.w3.org/2000/svg" width="1em" height="1em" viewBox="0 0 128 128"><radialGradient id="notoFaceSavoringFood0" cx="63.6" cy="808.9" r="56.96" gradientTransform="translate(0 -746)" gradientUnits="userSpaceOnUse"><stop offset=".5" stop-color="#FDE030"/><stop offset=".92" stop-color="#F7C02B"/><stop offset="1" stop-color="#F4A223"/></radialGradient><path fill="url(#notoFaceSavoringFood0)" d="M63.6 118.8c-27.9 0-58-17.5-58-55.9S35.7 7 63.6 7c15.5 0 29.8 5.1 40.4 14.4c11.5 10.2 17.6 24.6 17.6 41.5s-6.1 31.2-17.6 41.4c-10.6 9.3-25 14.5-40.4 14.5"/><path fill="#422B0D" d="M25.15 70.57c1.69 3.77 3.92 7.29 6.61 10.43c2.66 3.1 5.75 5.79 9.18 8c3.41 2.22 7.11 3.95 11 5.13a42.78 42.78 0 0 0 24 0c3.89-1.18 7.59-2.91 11-5.13c3.47-2.2 6.61-4.9 9.3-8c2.69-3.13 4.91-6.62 6.61-10.38c.6-1.09 1.96-1.49 3.05-.89c.9.5 1.36 1.54 1.1 2.54a44.973 44.973 0 0 1-6.72 12A46.187 46.187 0 0 1 64 101.88a46.176 46.176 0 0 1-36.28-17.63a44.973 44.973 0 0 1-6.72-12c-.47-1.14.07-2.46 1.21-2.93s2.46.07 2.93 1.21z"/><path fill="#EB8F00" d="M111.49 29.67c5.33 8.6 8.11 18.84 8.11 30.23c0 16.9-6.1 31.2-17.6 41.4c-10.6 9.3-25 14.5-40.4 14.5c-18.06 0-37-7.35-48.18-22.94c10.76 17.66 31 25.94 50.18 25.94c15.4 0 29.8-5.2 40.4-14.5c11.5-10.2 17.6-24.5 17.6-41.4c0-12.74-3.47-24.06-10.11-33.23"/><path fill="#422B0D" d="m50.15 56.1l-.15-.22l-.21-.27c-.08-.11-.16-.2-.26-.29l-.62-.62c-.25-.25-.55-.52-.86-.79c-.66-.57-1.4-1.03-2.2-1.39c-.78-.35-1.63-.52-2.48-.52H43a.708.708 0 0 0-.29 0c-.18.02-.36.05-.54.09c-.42.1-.82.23-1.22.39c-.8.36-1.54.82-2.2 1.39c-.54.46-1.04.95-1.51 1.47l-.57.64l-.3.34a3.328 3.328 0 0 1-4.69.39a3.341 3.341 0 0 1-.97-3.71l.11-.32c.1-.31.22-.61.35-.91c.48-1.09 1.09-2.11 1.83-3.04c1.75-2.31 4.21-3.99 7-4.79c.57-.15 1.15-.26 1.74-.34c.3 0 .74-.09.87-.09h.76c1.14.02 2.27.18 3.37.47c1.05.29 2.06.71 3 1.25c1.55.9 2.91 2.11 4 3.54c.42.54.8 1.1 1.13 1.7c.27.47.51.95.72 1.44c.08.16.15.33.2.5c0 .13.08.24.11.33l.1.26c.57 1.77-.4 3.67-2.17 4.24c-1.34.42-2.81-.04-3.68-1.14m43.33 0l-.18-.22l-.21-.27c-.08-.11-.16-.2-.26-.29l-.62-.62c-.25-.25-.55-.52-.86-.79c-.66-.57-1.4-1.03-2.2-1.39c-.77-.34-1.61-.52-2.45-.52h-.41a.708.708 0 0 0-.29 0c-.18.02-.36.05-.54.09c-.42.1-.82.23-1.22.39c-.81.37-1.57.85-2.24 1.43c-.54.46-1.04.95-1.52 1.47L80 56l-.3.34a3.319 3.319 0 0 1-4.67.6A3.317 3.317 0 0 1 74 53l.11-.32c.1-.31.22-.61.35-.91c.47-1.1 1.09-2.13 1.82-3.08c1.75-2.31 4.21-3.99 7-4.79c.57-.15 1.15-.26 1.74-.34c.3 0 .73-.09.87-.09h.76c1.14.02 2.27.18 3.37.47c1.05.29 2.06.71 3 1.25c1.55.9 2.91 2.11 4 3.54c.42.54.8 1.1 1.13 1.7c.27.47.51.95.72 1.44c.08.16.15.33.2.5l.11.33l.09.27c.57 1.77-.4 3.66-2.17 4.23c-1.33.43-2.78-.01-3.65-1.1z"/><path fill="#FF4081" d="M86.67 89.27c-.83.52-1.67 1-2.53 1.48c1-.54 2-1.11 2.92-1.72zM74 94.68c.67-.16 1.34-.33 2-.53c-.64.21-1.31.36-2 .53m2-.52c.93-.27 1.83-.58 2.73-.92c-.88.34-1.73.65-2.73.92m16.21-9.06c-.61.54-1.24 1.06-1.89 1.55c-.32.26-.65.5-1 .75c-.75.57-1.51 1.12-2.29 1.63c1-.63 1.9-1.31 2.82-2s1.61-1.26 2.36-1.93"/><path fill="#AB3F2E" d="M78.75 93.24h.08zm2.72-1.14h.06zm12.69-8.89c-.07.07-.13.14-.2.2c-.56.59-1.15 1.15-1.75 1.69c.63-.56 1.24-1.14 1.82-1.75z" opacity=".3"/><path fill="#FF4081" d="m68.35 95.64l3.71 3.94l.36.37z"/><path fill="#AB3F2E" d="m72.42 99.95l.89.96l.01-.01v-.01z" opacity=".3"/><path fill="#FF4081" d="m109.62 89.11l-7-7.32l-.28-.29l-2.68-2.8l-.79-.83l-.1-.1c-.79 1.12-1.63 2.2-2.53 3.23c-2.66 3.1-5.75 5.79-9.18 8a43.086 43.086 0 0 1-11 5.13c-2.5.74-5.07 1.23-7.67 1.48l4.03 4.39l.9.94l.72.75l.41.43l10.34 10.8c5.99 6.26 15.92 6.48 22.18.49l2.16-2.07c6.27-5.99 6.51-15.92.52-22.2z"/><path fill="#E62B6B" d="m95.67 96.63l-7.81-8.17c-.27.19-.53.39-.8.57c-.83.53-1.67 1-2.52 1.51l8.36 8.74c.35.37.83.58 1.34.59c.51.02 1-.17 1.37-.53c.76-.72.8-1.92.08-2.69z"/><path fill="#AB3F2E" d="m99.61 78.66l-.79-.83l-.1-.1c-.77 1.13-1.6 2.22-2.48 3.27c-2.66 3.1-5.75 5.79-9.18 8a43.086 43.086 0 0 1-11 5.13c-2.5.74-5.07 1.23-7.67 1.48l4.03 4.39l.9.94c18.61-6.75 25.06-19.23 26.29-22.28" opacity=".3"/></svg>