<svg xmlns="http://www.w3.org/2000/svg" width="1em" height="1em" viewBox="0 0 128 128"><radialGradient id="a" cx="63.6" cy="808.9" r="56.96" gradientTransform="translate(0 -746)" gradientUnits="userSpaceOnUse"><stop offset=".5" stop-color="#fde030"/><stop offset=".92" stop-color="#f7c02b"/><stop offset="1" stop-color="#f4a223"/></radialGradient><path fill="url(#a)" d="M63.6 118.8c-27.9 0-58-17.5-58-55.9S35.7 7 63.6 7c15.5 0 29.8 5.1 40.4 14.4 11.5 10.2 17.6 24.6 17.6 41.5s-6.1 31.2-17.6 41.4c-10.6 9.3-25 14.5-40.4 14.5"/><path fill="#eb8f00" d="M111.49 29.67c5.33 8.6 8.11 18.84 8.11 30.23 0 16.9-6.1 31.2-17.6 41.4-10.6 9.3-25 14.5-40.4 14.5-18.06 0-37-7.35-48.18-22.94 10.76 17.66 31 25.94 50.18 25.94 15.4 0 29.8-5.2 40.4-14.5 11.5-10.2 17.6-24.5 17.6-41.4 0-12.74-3.47-24.06-10.11-33.23"/><defs><path id="b" d="M66.8 76.5c-10.89 3.76-22.1 6.51-33.5 8.2a3.513 3.513 0 0 0-2.6 5.2c8.2 14.2 27.4 21.6 45.8 15.4 20.2-6.8 29.4-24.2 27.2-40.1a3.47 3.47 0 0 0-3.92-2.95 3.5 3.5 0 0 0-1.28.45 197.7 197.7 0 0 1-31.7 13.8"/></defs><clipPath id="c"><use href="#b"/></clipPath><g clip-path="url(#c)"><linearGradient id="d" x1="30.249" x2="104.019" y1="45.137" y2="45.137" gradientTransform="matrix(1 0 0 -1 0 130)" gradientUnits="userSpaceOnUse"><stop offset="0" stop-color="#404040"/><stop offset=".12" stop-color="#3e3a35"/><stop offset=".44" stop-color="#392d1e"/><stop offset=".74" stop-color="#362510"/><stop offset="1" stop-color="#35220b"/></linearGradient><path fill="url(#d)" d="M66.8 76.5c-10.89 3.76-22.1 6.51-33.5 8.2a3.513 3.513 0 0 0-2.6 5.2c8.2 14.2 27.4 21.6 45.8 15.4 20.2-6.8 29.4-24.2 27.2-40.1a3.47 3.47 0 0 0-3.92-2.95 3.5 3.5 0 0 0-1.28.45 197.7 197.7 0 0 1-31.7 13.8"/></g><path fill="#fff" d="M80.4 22.9c9.94.09 17.93 8.22 17.84 18.16A18 18 0 0 1 87.2 57.5c-2.16.88-4.47 1.32-6.8 1.3-9.94-.09-17.93-8.22-17.84-18.16.06-7.19 4.41-13.66 11.04-16.44 2.16-.86 4.47-1.3 6.8-1.3"/><circle cx="80.4" cy="41" r="7" fill="#422b0d"/><path fill="#fff" d="M35.9 44.78c-6.69-.01-12.12 5.41-12.13 12.09-.01 6.69 5.41 12.12 12.1 12.13S47.99 63.59 48 56.91c0-1.56-.3-3.11-.88-4.56a12.14 12.14 0 0 0-11.22-7.57"/><circle cx="36" cy="57" r="7" fill="#422b0d"/><path fill="#ff4081" d="M44.74 90.85v18c.01 9.47 7.7 17.15 17.17 17.15h3.27c9.48 0 17.17-7.69 17.17-17.17L82.11 80zm37.34-14.94L44.74 87.1v3.75l37.37-10.9z"/><path fill="#ab3f2e" d="M63.55 106.25c1.1 0 2-.9 2-2v-23.4l-4 1.14v22.26c0 1.1.9 2 2 2" opacity=".3"/><path fill="#ab3f2e" d="M82.08 75.91 44.74 87.1v3.75l37.37-10.9z" opacity=".3"/></svg>