<svg xmlns="http://www.w3.org/2000/svg" width="1em" height="1em" viewBox="0 0 128 128"><radialGradient id="notoSmirkingFace0" cx="63.6" cy="1104.9" r="56.96" gradientTransform="translate(0 -1042)" gradientUnits="userSpaceOnUse"><stop offset=".5" stop-color="#FDE030"/><stop offset=".92" stop-color="#F7C02B"/><stop offset="1" stop-color="#F4A223"/></radialGradient><path fill="url(#notoSmirkingFace0)" d="M63.6 118.8c-27.9 0-58-17.5-58-55.9S35.7 7 63.6 7c15.5 0 29.8 5.1 40.4 14.4c11.5 10.2 17.6 24.6 17.6 41.5s-6.1 31.2-17.6 41.4c-10.6 9.3-25 14.5-40.4 14.5"/><path fill="#422B0D" d="M39.37 42.45a1.83 1.83 0 0 0 0-3.66c-1.95-.2-3.91-.06-5.81.4a20.998 20.998 0 0 0-12.77 8.47c-1.37 2.09 1.35 3.78 2.95 2.22c4.18-4.21 9.7-6.84 15.6-7.43"/><path fill="#35220B" d="M46.63 94.31c3.92-.51 7.74-.67 11.47-.88s7.4-.42 10.85-1c3.2-.34 6.31-1.24 9.19-2.66A9.762 9.762 0 0 0 83 83.58v-.13c.51-1.8 2.38-2.84 4.18-2.33c1.48.42 2.49 1.79 2.45 3.33c-.05 2.45-.69 4.85-1.87 7A16.52 16.52 0 0 1 82.73 97c-4 2.75-8.39 3.76-12.48 4.42c-3.98.52-7.99.7-12 .53c-3.92-.12-7.76-.46-11.5-.89a3.379 3.379 0 0 1-2.94-3.77c.19-1.54 1.4-2.76 2.94-2.94z"/><path fill="#422B0D" d="M48.16 55.81a31.827 31.827 0 0 0-18.36.69a2.047 2.047 0 0 0-1.18 2.65c.38.99 1.44 1.52 2.46 1.24c2.37-.46 4.79-.59 7.2-.4v.39c0 4.89 3.17 7.85 6.67 7.85c1.79-.02 3.5-.76 4.74-2.06A7.007 7.007 0 0 0 50.74 58a4.573 4.573 0 0 0-2.58-2.19m47.84 0a31.827 31.827 0 0 0-18.36.69A2.056 2.056 0 1 0 79 60.38c2.37-.46 4.79-.59 7.19-.4v.39c0 4.89 3.18 7.85 6.67 7.85c1.8-.02 3.51-.76 4.75-2.06a7.004 7.004 0 0 0 1-8.13A4.651 4.651 0 0 0 96 55.81"/><path fill="#896024" d="M45.06 59.18c1.42-.68 3.13-.08 3.82 1.34c.53 1.11.29 2.44-.6 3.3c-1.42.68-3.13.08-3.82-1.34c-.53-1.11-.29-2.44.6-3.3m48 0c1.43-.67 3.13-.06 3.81 1.37c.52 1.11.28 2.42-.6 3.27c-1.43.67-3.13.06-3.81-1.37c-.52-1.1-.28-2.42.6-3.27"/><path fill="#EB8F00" d="M111.49 29.67c5.33 8.6 8.11 18.84 8.11 30.23c0 16.9-6.1 31.2-17.6 41.4c-10.6 9.3-25 14.5-40.4 14.5c-18.06 0-37-7.35-48.18-22.94c10.76 17.66 31 25.94 50.18 25.94c15.4 0 29.8-5.2 40.4-14.5c11.5-10.2 17.6-24.5 17.6-41.4c0-12.74-3.47-24.06-10.11-33.23"/><path fill="#422B0D" d="M88.22 42.45a1.83 1.83 0 0 1 0-3.66c1.95-.2 3.91-.06 5.81.4c5.17 1.11 9.74 4.13 12.77 8.47c1.37 2.09-1.35 3.78-3 2.22a25.557 25.557 0 0 0-15.6-7.43"/></svg>