<svg xmlns="http://www.w3.org/2000/svg" width="1em" height="1em" viewBox="0 0 128 128"><radialGradient id="a" cx="64" cy="-985.9" r="51.059" gradientTransform="matrix(1 0 0 -1 0 -912)" gradientUnits="userSpaceOnUse"><stop offset=".5" stop-color="#fde030"/><stop offset=".92" stop-color="#f7c02b"/><stop offset="1" stop-color="#f4a223"/></radialGradient><path fill="url(#a)" d="M64 124c-25 0-52-15.7-52-50.1s27-50.1 52-50.1c13.9 0 26.7 4.6 36.2 12.9 10.3 9.1 15.8 22.1 15.8 37.2s-5.5 28-15.8 37.1c-9.5 8.3-22.4 13-36.2 13"/><path fill="#eb8f00" d="M106.9 44.1c4.8 7.7 7.3 16.9 7.3 27.1 0 15.2-5.5 28-15.8 37.1-9.5 8.3-22.4 13-36.2 13-16.2 0-33.2-6.6-43.2-20.6 9.6 15.8 27.8 23.3 45 23.3 13.8 0 26.7-4.7 36.2-13 10.3-9.1 15.8-22 15.8-37.1 0-11.5-3.1-21.6-9.1-29.8"/><path fill="#422b0d" d="m51.1 81.9-.2.2c-.1.2-.3.3-.5.4l-.6.5-.9.6c-.3.2-.7.4-1.1.6s-.8.4-1.2.5-.9.2-1.3.3c-.5.1-.9.1-1.4.1h-.8l-.6-.1c-.5-.1-.9-.2-1.3-.3-.4-.2-.8-.3-1.2-.6-.4-.2-.7-.4-1.1-.6-.5-.4-1-.7-1.5-1.2l-.6-.5-.2-.2c-1.1-1-2.9-1.1-4.1-.2-.9.7-1.2 1.9-.7 2.9l.1.3c.1.3.3.5.4.8.9 1.5 2.2 2.9 3.7 3.9.7.5 1.5.9 2.3 1.3q1.35.6 2.7.9c.5.1 1 .2 1.6.2.3 0 .6.1.7.1h.7q1.5 0 3-.3 1.35-.3 2.7-.9c.8-.3 1.5-.8 2.3-1.3 1.1-.8 2.1-1.7 2.9-2.8l.4-.6.4-.6c.1-.2.3-.5.3-.7l.1-.2c.5-1.3-.1-2.8-1.4-3.3-.1 0-.2-.1-.3-.1-1.3-.3-2.5 0-3.3.9m40.3 0-.2.2c-.1.2-.3.3-.5.4l-.5.5-.9.6c-.3.2-.7.4-1.1.6s-.8.4-1.2.5-.9.2-1.3.3c-.5.1-.9.1-1.4.1h-.8l-.6-.1c-.5-.1-.9-.2-1.3-.3-.4-.2-.8-.3-1.2-.6-.4-.2-.7-.4-1.1-.6-.5-.4-1-.7-1.5-1.2l-.6-.5-.2-.2c-1.1-1-2.9-1.1-4.1-.2-.9.7-1.2 1.9-.7 2.9l.1.3c.1.3.3.5.4.8.9 1.5 2.2 2.9 3.7 3.9.7.5 1.5.9 2.3 1.3q1.35.6 2.7.9c.5.1 1 .2 1.6.2.3 0 .6.1.7.1h.7q1.5 0 3-.3c.9-.2 1.9-.5 2.7-.9.8-.3 1.5-.8 2.3-1.3 1.1-.8 2.1-1.7 2.9-2.8l.4-.6.4-.6c.1-.2.3-.5.3-.7l.1-.2c.5-1.3-.1-2.8-1.4-3.3-.1 0-.2-.1-.3-.1-1.2-.3-2.5 0-3.4.9m-11 22.2c-.4-.7-1.2-.7-2.5-.3-3.8 1.2-9.2 1.6-13.8 1.6s-10-.4-13.9-1.6c-1.3-.4-2.1-.4-2.5.3s-.4 1.6.4 2.7c1.6 2.3 8.8 5.7 16 5.7s14.3-3.5 16-5.7c.7-1.1.7-2 .3-2.7"/><path fill="none" stroke="#b0bec5" stroke-linecap="round" stroke-miterlimit="10" stroke-width="5" d="m30.6 26.4-8.5-10.6m30.2 2.7L48.5 3.2m48.9 23.2 8.5-10.6m-30.2 2.7 3.8-15.3"/></svg>