<svg viewBox="0 0 128 128"><defs><path id="b" fill="#eb8f00" d="M111.5 29.7a57 57 0 0 1 8.1 30.2c0 16.9-6.1 31.2-17.6 41.4a61 61 0 0 1-40.4 14.5 59 59 0 0 1-48.2-23 58 58 0 0 0 50.2 26c15.4 0 29.8-5.2 40.4-14.5a54 54 0 0 0 17.6-41.4q-.1-19.2-10.1-33.2"/></defs><radialGradient id="a" cx="63.6" cy="1992.9" r="57" gradientTransform="translate(0 -1930)" gradientUnits="userSpaceOnUse"><stop offset=".5" stop-color="#fde030"/><stop offset=".9" stop-color="#f7c02b"/><stop offset="1" stop-color="#f4a223"/></radialGradient><path fill="url(#a)" d="M63.6 118.8c-27.9 0-58-17.5-58-55.9S35.7 7 63.6 7c15.5 0 29.8 5.1 40.4 14.4 11.5 10.2 17.6 24.6 17.6 41.5s-6.1 31.2-17.6 41.4a61 61 0 0 1-40.4 14.5"/><use href="#b"/><linearGradient id="c" x1="63.6" x2="63.6" y1="2048.8" y2="1937" gradientTransform="translate(0 -1930)" gradientUnits="userSpaceOnUse"><stop offset=".4" stop-color="#40c0e7" stop-opacity="0"/><stop offset="1" stop-color="#5f7aff"/></linearGradient><path fill="url(#c)" d="M63.6 118.8c-27.9 0-58-17.5-58-55.9S35.7 7 63.6 7c15.5 0 29.8 5.1 40.4 14.4 11.5 10.2 17.6 24.6 17.6 41.5s-6.1 31.2-17.6 41.4a61 61 0 0 1-40.4 14.5"/><linearGradient id="d" x1="63.6" x2="63.6" y1="2048.8" y2="1937" gradientTransform="translate(0 -1930)" gradientUnits="userSpaceOnUse"><stop offset=".2" stop-color="#f4a223"/><stop offset=".3" stop-color="#f7c02b"/><stop offset=".8" stop-color="#fde030" stop-opacity="0"/></linearGradient><path fill="url(#d)" d="M63.6 118.8c-27.9 0-58-17.5-58-55.9S35.7 7 63.6 7c15.5 0 29.8 5.1 40.4 14.4 11.5 10.2 17.6 24.6 17.6 41.5s-6.1 31.2-17.6 41.4a61 61 0 0 1-40.4 14.5"/><use href="#b"/><path fill="#422b0d" d="M64 109.7a11 11 0 0 1-11-10.9V86.2a11 11 0 1 1 22 0v12.6c-.1 6-5 10.9-11 11"/><path fill="#fff" d="M43.3 41.8q3 0 5.8 1.7c5.6 3.6 8 12 3.4 20.7-3.1 6-7.9 8.8-12.3 8.8a11 11 0 0 1-5.8-1.7c-5.6-3.6-8-12-3.4-20.7 3.1-6 7.8-8.8 12.3-8.8"/><linearGradient id="e" x1="-424.9" x2="-424.9" y1="2.2" y2="51.9" gradientTransform="rotate(180 -163.285 65)" gradientUnits="userSpaceOnUse"><stop offset="0" stop-color="#ed6c30"/><stop offset="1" stop-color="#ed6c30" stop-opacity=".2"/></linearGradient><path fill="url(#e)" d="M119 73c-1.4-1-1.3-2.1-5-.6-1.6.7-3.4 4.3-3.4 4.3s-2.7-5.5-8.1 1.7C92.8 91.6 88.5 91 82.8 97c-3.7 3.9-7 7.5-5.7 14.8.7 4 2.6 5.2 2.6 5.2s1.2 0 12.8-6 21.7-14.5 27.3-28.1" opacity=".7"/><radialGradient id="f" cx="-201.4" cy="-76.6" r="44.9" gradientTransform="matrix(-.78 .62 -.57 -.72 -109.26 164.01)" gradientUnits="userSpaceOnUse"><stop offset=".3" stop-color="#fff176"/><stop offset="1" stop-color="#ffc400"/></radialGradient><path fill="url(#f)" d="M87.7 99.5c4.4-3.3 8.6-6.3 10.6-9s4-8 5.4-11.6 5-5.3 7-2.3c.5.9 0 4 0 5.3q1.6-2.7 2.2-5.9c1-4.9 6.1-6.5 7 .1 0 0 3.8.2 2.1 12q-1.2 6.9-4.5 13a46 46 0 0 1-15 18.7c-8.6 5.8-16.7 4.4-19.2 1.1-4.3-5.7-3.1-15.6 4.4-21.4"/><path fill="#ed6c30" d="M110.6 76.7c0 1.9-1.9 8.7-2.6 10.4-2.4 6.5-6.9 9.5-5.6 10.5s3.6-1.1 7-9.3q1.6-4.3 1.9-8.7 0-1.5-.7-3m6.6-4.9c1.3.6 3.2 4.2.3 14.3-1.7 7.7-7.5 13.6-6.1 14.3 1.6 1.1 5.4-5.1 8-13.8q1.1-4 1.3-8c0-1.3-.4-6.4-3.5-6.8"/><linearGradient id="g" x1="80.5" x2="80.5" y1="2.2" y2="51.9" gradientTransform="matrix(1 0 0 -1 -51.35 130)" gradientUnits="userSpaceOnUse"><stop offset="0" stop-color="#ed6c30"/><stop offset="1" stop-color="#ed6c30" stop-opacity=".2"/></linearGradient><path fill="url(#g)" d="M8.5 73c1.4-1 1.2-2.1 5-.6 1.6.7 3.4 4.3 3.4 4.3s2.7-5.5 8 1.7C34.8 91.6 39 91 44.8 97c3.7 3.9 6.9 7.5 5.6 14.8-.6 4-2.6 5.2-2.6 5.2s-1.9 0-11.1-4.7c-.8-.4-.7-.8-1.6-1.3A55 55 0 0 1 7.7 82.8" opacity=".7"/><radialGradient id="h" cx="201.1" cy="252.6" r="44.9" gradientTransform="matrix(.78 .62 .57 -.72 -264.92 151.37)" gradientUnits="userSpaceOnUse"><stop offset=".3" stop-color="#fff176"/><stop offset="1" stop-color="#ffc400"/></radialGradient><path fill="url(#h)" d="M39.7 99.5c-4.3-3.3-8.5-6.3-10.5-9s-4.1-8-5.4-11.6-5-5.3-7-2.3c-.5.9 0 4 0 5.3a19 19 0 0 1-2.3-5.9c-1-4.9-6-6.5-7 .1 0 0-3.8.2-2 12q1.2 6.9 4.4 13a46 46 0 0 0 15 18.7c8.6 5.8 16.7 4.4 19.3 1.1 4.2-5.7 3.1-15.6-4.5-21.4"/><path fill="#ed6c30" d="M16.9 76.7c0 1.9 1.8 8.7 2.5 10.4 2.5 6.5 7 9.5 5.7 10.5s-3.6-1.1-7-9.3a28 28 0 0 1-1.9-8.7q0-1.5.7-3m-6.6-4.9C9 72.3 7 76 9.9 86c1.8 7.7 7.6 13.6 6.2 14.3-1.6 1.1-5.4-5.2-8-13.8q-1.2-4-1.4-8c0-1.4.4-6.4 3.6-6.8"/><path fill="#eb8f00" d="M52.6 64.3a16 16 0 0 1-4 7A13 13 0 0 1 41 75q-4.9.6-8.8-2.2A15 15 0 0 1 26 61v-2l.2-2.2q1-4.1 3.2-7.7a18 18 0 0 1 6-5.8q3.7-2.3 8-1.5v.3q-4 .1-7 2.5-3 2.3-4.9 5.7a21 21 0 0 0-2.5 7q-.6 3.8.6 7.4 1.3 3.7 4.2 6 3.1 2.3 7 2.1a12 12 0 0 0 6.9-2.7q3-2.4 4.7-5.8z"/><path fill="#fff" d="M84.8 41.8c4.5 0 9.2 2.8 12.3 8.8 4.6 8.7 2.2 17.1-3.4 20.7a11 11 0 0 1-5.8 1.7c-4.4 0-9.2-2.8-12.3-8.8-4.6-8.6-2.2-17.1 3.5-20.7a11 11 0 0 1 5.7-1.7"/><path fill="#eb8f00" d="M84.8 41.7q4.2-.7 8 1.4a18 18 0 0 1 6 5.9 22 22 0 0 1 3.4 10v2.2q0 2.2-.9 4.3-1.5 4.5-5.3 7.3a12 12 0 0 1-8.8 2.3 13 13 0 0 1-7.7-3.9 16 16 0 0 1-4-7h.3q1.7 3.4 4.6 5.8a12 12 0 0 0 6.9 2.7q3.9.2 7-2.1 3-2.3 4.2-6t.6-7.4a21 21 0 0 0-2.4-7 18 18 0 0 0-4.9-5.8 12 12 0 0 0-7-2.4z"/></svg>