<svg viewBox="0 0 128 128"><radialGradient id="a" cx="63.6" cy="1400.9" r="57" gradientTransform="translate(0 -1338)" gradientUnits="userSpaceOnUse"><stop offset=".5" stop-color="#fde030"/><stop offset=".9" stop-color="#f7c02b"/><stop offset="1" stop-color="#f4a223"/></radialGradient><path fill="url(#a)" d="M63.6 118.8c-27.9 0-58-17.5-58-55.9S35.7 7 63.6 7c15.5 0 29.8 5.1 40.4 14.4 11.5 10.2 17.6 24.6 17.6 41.5s-6.1 31.2-17.6 41.4a61 61 0 0 1-40.4 14.5"/><path fill="#eb8f00" d="M111.5 29.7a57 57 0 0 1 8.1 30.2c0 16.9-6.1 31.2-17.6 41.4a61 61 0 0 1-40.4 14.5 59 59 0 0 1-48.2-23 58 58 0 0 0 50.2 26c15.4 0 29.8-5.2 40.4-14.5a54 54 0 0 0 17.6-41.4q-.1-19.2-10.1-33.2"/><path fill="#422b0d" d="m71 101-1.7-.4a14 14 0 0 0-11.5 0 4 4 0 0 1-5.4-1.8 4 4 0 0 1 1.8-5.4 23 23 0 0 1 18.5 0 4 4 0 0 1 2 5.3A4 4 0 0 1 71 101"/><path fill="#fff" d="M43 47.7a17.4 17.4 0 1 1-.1 34.7 17.4 17.4 0 0 1 .1-34.7"/><circle cx="42.7" cy="62.8" r="15.4" fill="#422b0d"/><ellipse cx="48.1" cy="68.6" fill="#fff" rx="2.6" ry="2.4" transform="rotate(-40.01 48.133 68.627)"/><ellipse cx="38.7" cy="58" fill="#fff" rx="9" ry="7.3" transform="rotate(-36.661 38.692 58.008)"/><path fill="#fff" d="M86 47.7a17.4 17.4 0 1 1-.1 34.7 17.4 17.4 0 0 1 .1-34.7"/><circle cx="85.7" cy="62.8" r="15.4" fill="#422b0d"/><ellipse cx="91.2" cy="68.6" fill="#fff" rx="2.6" ry="2.4" transform="rotate(-40.01 91.212 68.564)"/><ellipse cx="81.7" cy="58" fill="#fff" rx="9" ry="7.3" transform="rotate(-36.661 81.697 58.016)"/><path fill="#422b0d" d="M27.4 39.8c-2.2.4-2.3 3.6.1 3.7a21 21 0 0 0 18-10c.6-.8.4-2-.4-2.5a2 2 0 0 0-2.6.4l-.1.1a26 26 0 0 1-15 8.3m57.1-8.4A2 2 0 0 0 82 31a2 2 0 0 0-.5 2.5q1.5 2.6 3.7 4.5a21 21 0 0 0 14.3 5.5c2.5-.1 2.3-3.3.1-3.7a26 26 0 0 1-15.1-8.4"/></svg>