<svg viewBox="0 0 128 128"><radialGradient id="a" cx="63.6" cy="2288.9" r="57" gradientTransform="translate(0 -2226)" gradientUnits="userSpaceOnUse"><stop offset="0" stop-color="#fde030"/><stop offset=".2" stop-color="#f1de37"/><stop offset=".5" stop-color="#d1d748"/><stop offset="1" stop-color="#9dcc64"/><stop offset="1" stop-color="#9ccc65"/></radialGradient><path fill="url(#a)" d="M63.6 118.8c-27.9 0-58-17.5-58-55.9S35.7 7 63.6 7c15.5 0 29.8 5.1 40.4 14.4 11.5 10.2 17.6 24.6 17.6 41.5s-6.1 31.2-17.6 41.4a61 61 0 0 1-40.4 14.5"/><path fill="#789e46" d="M111.5 29.7a57 57 0 0 1 8.1 30.2c0 16.9-6.1 31.2-17.6 41.4a61 61 0 0 1-40.4 14.5 59 59 0 0 1-48.2-23 58 58 0 0 0 50.2 26c15.4 0 29.8-5.2 40.4-14.5a54 54 0 0 0 17.6-41.4q-.1-19.2-10.1-33.2"/><g opacity=".7"><radialGradient id="b" cx="144.3" cy="-71.9" r="15.8" gradientTransform="matrix(.89 0 0 -.78 -36.33 40.18)" gradientUnits="userSpaceOnUse"><stop offset="0" stop-color="#ed7770"/><stop offset=".1" stop-color="#ed7770" stop-opacity="1"/><stop offset=".2" stop-color="#ed7770" stop-opacity=".9"/><stop offset=".3" stop-color="#ed7770" stop-opacity=".7"/><stop offset=".5" stop-color="#ed7770" stop-opacity=".6"/><stop offset=".7" stop-color="#ed7770" stop-opacity=".3"/><stop offset=".9" stop-color="#ed7770" stop-opacity="0"/></radialGradient><ellipse cx="92.1" cy="96.1" fill="url(#b)" rx="13" ry="11.9"/></g><g opacity=".7"><radialGradient id="c" cx="82.4" cy="-73.7" r="15.8" gradientTransform="matrix(.89 0 0 -.78 -36.33 40.8)" gradientUnits="userSpaceOnUse"><stop offset="0" stop-color="#ed7770"/><stop offset=".1" stop-color="#ed7770" stop-opacity="1"/><stop offset=".2" stop-color="#ed7770" stop-opacity=".9"/><stop offset=".3" stop-color="#ed7770" stop-opacity=".7"/><stop offset=".5" stop-color="#ed7770" stop-opacity=".6"/><stop offset=".7" stop-color="#ed7770" stop-opacity=".3"/><stop offset=".9" stop-color="#ed7770" stop-opacity="0"/></radialGradient><ellipse cx="37" cy="98.1" fill="url(#c)" rx="13" ry="11.9"/></g><path fill="none" stroke="#35220b" stroke-linecap="round" stroke-linejoin="round" stroke-width="5.3" d="M42.7 87.1c2.7 1.3 5.7 4.9 6.8 7.6q1.3 3.3.7 6.8m34.3-15a17 17 0 0 0-6.8 7.5 12 12 0 0 0-1 4.2m-27.2-4s1.7-4.8 14.1-5c11.4-.2 14 3.4 14 3.4"/><path fill="#422b0d" d="M27.4 51.8c-2.2.4-2.3 3.6.1 3.7a21 21 0 0 0 18-10 1.8 1.8 0 1 0-3-2.1l-.1.1a26 26 0 0 1-15 8.3m57.1-15.4A2 2 0 0 0 82 36a2 2 0 0 0-.5 2.5q1.5 2.6 3.7 4.5a21 21 0 0 0 14.3 5.5c2.5-.1 2.3-3.3.1-3.7a26 26 0 0 1-15.1-8.4M37.8 62.7a3.5 3.5 0 0 0-2 4c1 4.3 4.4 6.8 8 6.8 4.3 0 8.3-3.7 8.3-9.8q0-1.6-.4-3.2a3.5 3.5 0 0 0-5-2.2z"/><path fill="#896024" d="M47.4 61.8q-1.1-1.4-3.4 0c-2.3 1.4-1.9 2.3-1.3 3.1s2 1 3.4 0 1.8-2.3 1.3-3.1"/><path fill="#422b0d" d="M89.8 62.7q2.3 1.3 2 4c-1 4.3-4.4 6.8-8 6.8-4.4 0-8.3-3.7-8.3-9.8q0-1.6.4-3.2a3.5 3.5 0 0 1 4.9-2.2z"/><path fill="#896024" d="M80.2 61.8c.6-.8 2-1 3.4 0s1.9 2.3 1.3 3.1-2 1-3.4 0-1.8-2.3-1.3-3.1"/></svg>