<svg xmlns="http://www.w3.org/2000/svg" xml:space="preserve" viewBox="0 0 128 128"><path d="M103.06 60.5c7.19-3.2 21.36-9.27 21.36-9.27s-13.29-5.46-20.26-8.47c3.03-2.47 17.55-9.52 17.55-9.52l-22.15 1.83 12.22-29.53S92.54 20.15 85.07 22.02c.03-3.43.1-12.51.1-12.51s-6.81 7.46-10.19 9.97C71.05 13.65 63.54 4.72 63.54 4.72s-6.71 8.21-10.41 13.87C50.09 16.13 41.94 4.58 41.94 4.58s1.88 14.07 1.72 17.74c-7.8-1.87-22.21-8.37-22.21-8.37S27.69 25.79 30 31.86c-4.23-.03-18.39-.8-23.45-1.11 4.09 3.1 21.17 15.44 21.17 15.44L3.58 50.87s17.17 4.15 24.14 7.16c-1.7 1.38-6.13 4.93-9.69 7.77h91.4c-2.31-1.83-4.44-3.59-6.37-5.3" style="fill:#f15a24"/><linearGradient id="a" x1="64.117" x2="64.117" y1="60.706" y2="67.834" gradientUnits="userSpaceOnUse"><stop offset="0" style="stop-color:#78c0e8"/><stop offset="1" style="stop-color:#31a0d6"/></linearGradient><path d="M48.28 45.33h31.67v20.48H48.28z" style="fill:url(#a)"/><path d="M120.13 54.86c.19-.5.3-1.03.3-1.59 0-2.5-2.03-4.53-4.53-4.53-2.07 0-3.8 1.4-4.34 3.3a4.51 4.51 0 0 0-2.99 4.24c0 2.5 2.03 4.53 4.53 4.53.29 0 .57-.03.85-.09.62.32 1.31.52 2.06.52 2.5 0 4.53-2.03 4.53-4.53 0-.65-.16-1.28-.41-1.85" style="fill:#ffea5c"/><path d="M103.31 6.31a4.197 4.197 0 0 0-2.44 5.42c.49 1.29 1.54 2.18 2.77 2.54A4.203 4.203 0 0 0 109 16.6a4.197 4.197 0 0 0 2.44-5.42c-.49-1.29-1.54-2.18-2.77-2.54-.87-2.09-3.23-3.14-5.36-2.33" style="fill:#5c5cff"/><path d="M19.42 49.18a3.45 3.45 0 1 0-6.84-.65c0 .52.12 1 .32 1.44-2 .1-3.64 1.69-3.76 3.74a3.98 3.98 0 0 0 3.74 4.2c1.35.08 2.58-.53 3.36-1.52.53.32 1.15.52 1.81.56a3.98 3.98 0 0 0 4.2-3.74c.11-1.87-1.1-3.52-2.83-4.03" style="fill:#45f9ff"/><ellipse cx="14.87" cy="17" rx="5" ry="4.5" style="fill:#4bff17"/><ellipse cx="113.28" cy="24.83" rx="5" ry="4.5" style="fill:#ff17c8"/><path d="M99.74 31.65c-.86-.48-1.11-1.62-.76-2.54.53-1.38.86-2.85.94-4.37.46-8.78-7.23-15.98-17.13-15.88-3.49.03-6.74.99-9.49 2.59-2.29-4.48-7.2-7.56-12.89-7.5-5.9.07-10.88 3.5-12.94 8.28-1.49-.48-3.07-.74-4.7-.73-8.02.07-13.82 4.78-13.24 13.57.1 1.49 1.28 4.3 1.28 4.3s-2.41.59-4.39 3.93c-1.61 2.71-1.78 7.08-.38 9.96 2.19 4.51 8.27 6.63 12.79 4.46.64-.31 1.37-.7 2.03-.43.33.14 1.71 5.2 14.13 7.78 7.16 1.49 15.56-3.76 16.03-3.77.54-.01 1.02.32 1.47.62 0 0 3.32 3.81 10.75 2.03 7.01-1.67 7.69-6.43 8.29-6.62.48-.15 8.7 2.43 12.17-5.44 1.52-3.52-1.07-8.63-3.96-10.24" style="fill:#d2edf7"/><path d="M29.45 24.11c.06 1.25.35 4.6 1.88 5.54 1.03.63 1.95.93 2.76 1.03 1.57.19 2.52-1.75 1.46-2.92-1.16-1.27-2.41-3.45-2.89-7.1-.69-5.15 3.36-7.74 3.36-7.74s-6.96 2.82-6.57 11.19" style="fill:#92cbeb"/><path d="M103.66 41.91c1-2.26.66-5.45-1.16-7.49 0 0 1.11 2.89-.29 5.76-1.42 2.91-4.43 5.63-7.57 4.88-1.96-.47-.04-3.69-2.8-8.43.14 4.47.05 14.6-13.07 15.44-2.4.15-8.15-1.92-8.49-5.4-.76-7.58 6.44-6.53 7.47-6.37 2.47.37 5.17-.7 5.58-2.65.37-1.77-.49-2.47-1.3-3.17-2.32-1.98-5.97-1.61-8.55.03-3.92 2.5-5.73 9.12-8.84 12.33-3.63 3.74-9.51 4.64-14.52 3.2-8.58-2.47-11.26-13.41-11.26-13.41-1.12 2.86-.13 6.62.56 8.3-8.55 1.77-12.82-2.68-14.14-3.98.14.8.37 1.59.73 2.33 2.19 4.51 8.27 6.63 12.79 4.46.64-.31 1.37-.7 2.03-.43.33.14 1.71 5.2 14.13 7.78 7.16 1.49 15.56-3.76 16.03-3.77.54-.01 1.02.32 1.47.62 0 0 3.32 3.81 10.75 2.03 7.01-1.67 7.69-6.43 8.29-6.62.48-.16 8.7 2.42 12.16-5.44" style="fill:#78c0e8"/><path d="M67.06 5.42s1.33 1.9 1.6 2.89c1.05 3.87-.93 6.44-1.5 7.49-.3.56-.57 1.21-.36 1.8.23.64.93.98 1.59 1.08 1.78.29 3.63-.69 4.62-2.19.97-1.5 2.74-7.52-5.95-11.07m31.92 23.69c.53-1.38.86-2.85.94-4.37.18-3.38-.86-6.51-2.76-9.1.95 1.73 1.19 3.88.79 5.84-.55 2.67-2.26 5-4.24 6.87-2.41 2.27-.7 3.32.69 3.32 3.35-.01 4.39-2.07 4.58-2.56" style="fill:#92cbeb"/><path d="M70.5 65.8v-6.72c0-1.26-1.12-2.28-2.5-2.28s-2.5 1.02-2.5 2.28v6.72zm-9.88 0V55.56c0-.83-.67-1.5-1.5-1.5s-1.5.67-1.5 1.5V65.8z" style="fill:#039be5"/><radialGradient id="b" cx="63.72" cy="-2088.9" r="56.957" gradientTransform="matrix(1 0 0 -1 0 -2026)" gradientUnits="userSpaceOnUse"><stop offset=".5" style="stop-color:#fde030"/><stop offset=".919" style="stop-color:#f7c02b"/><stop offset="1" style="stop-color:#f4a223"/></radialGradient><path d="M63.72 118.8c15.4 0 29.8-5.2 40.4-14.5 10.83-9.61 16.87-22.86 17.53-38.5H5.79c1.48 36.38 30.74 53 57.93 53" style="fill:url(#b)"/><path d="M13.54 92.86c.15.25.33.48.49.73-.1-.17-.21-.34-.31-.5-.06-.08-.13-.15-.18-.23" style="fill:#eb8f00"/><path d="M119.45 65.8c-1.27 14.33-7.2 26.51-17.34 35.5-10.6 9.3-25 14.5-40.4 14.5-17.97 0-36.84-7.28-48-22.71.1.17.2.34.31.5.35.55.7 1.08 1.07 1.61.27.39.53.78.81 1.16q.885 1.2 1.83 2.34c.3.36.61.7.91 1.05.43.49.87.97 1.31 1.44a46 46 0 0 0 2.92 2.84c.33.3.67.58 1 .87.57.48 1.14.95 1.72 1.41.34.27.69.53 1.04.79.59.44 1.2.86 1.81 1.28.28.19.56.39.84.58.85.55 1.71 1.08 2.59 1.58.33.19.67.37 1 .55.65.36 1.31.7 1.97 1.04.32.16.65.33.97.48.93.45 1.87.87 2.83 1.27.25.1.5.19.74.29.77.31 1.55.6 2.34.88.33.12.67.23 1 .35.87.29 1.75.57 2.63.82.16.05.32.1.47.14 1.03.29 2.06.54 3.1.78.31.07.61.13.92.2.83.18 1.66.33 2.49.48.27.05.53.1.79.14 1.06.17 2.12.31 3.18.43.23.03.46.04.68.07q1.305.135 2.61.21c.3.02.6.04.89.05 1.07.05 2.15.09 3.22.09 15.4 0 29.8-5.2 40.4-14.5.7-.62 1.38-1.26 2.03-1.9.22-.22.44-.45.66-.68.42-.43.85-.87 1.26-1.31.26-.28.5-.57.75-.86.35-.4.7-.8 1.04-1.22.26-.32.51-.65.76-.97.31-.39.61-.78.91-1.19.25-.35.5-.71.74-1.06.27-.39.54-.78.8-1.18.24-.38.48-.76.71-1.14.24-.39.48-.78.71-1.18s.45-.81.67-1.21c.21-.39.42-.78.62-1.18.22-.42.42-.85.63-1.29.18-.39.36-.78.54-1.18.2-.45.39-.9.58-1.36.16-.39.31-.78.46-1.17.18-.47.36-.95.52-1.43.13-.38.26-.77.39-1.16.16-.5.32-1 .47-1.51.11-.38.21-.76.32-1.15.14-.53.28-1.06.41-1.59.09-.37.17-.74.25-1.12.12-.56.24-1.12.35-1.69.07-.35.12-.71.18-1.06.1-.6.2-1.2.28-1.81.04-.32.08-.64.11-.97.08-.65.16-1.3.22-1.96.02-.25.03-.5.05-.75.06-.74.1-1.49.14-2.24h-2.21z" style="fill:#eb8f00"/><path d="M119.45 65.8c-1.27 14.33-7.2 26.51-17.34 35.5-10.6 9.3-25 14.5-40.4 14.5-17.97 0-36.84-7.28-48-22.71.1.17.2.34.31.5.35.55.7 1.08 1.07 1.61.27.39.53.78.81 1.16q.885 1.2 1.83 2.34c.3.36.61.7.91 1.05.43.49.87.97 1.31 1.44a46 46 0 0 0 2.92 2.84c.33.3.67.58 1 .87.57.48 1.14.95 1.72 1.41.34.27.69.53 1.04.79.59.44 1.2.86 1.81 1.28.28.19.56.39.84.58.85.55 1.71 1.08 2.59 1.58.33.19.67.37 1 .55.65.36 1.31.7 1.97 1.04.32.16.65.33.97.48.93.45 1.87.87 2.83 1.27.25.1.5.19.74.29.77.31 1.55.6 2.34.88.33.12.67.23 1 .35.87.29 1.75.57 2.63.82.16.05.32.1.47.14 1.03.29 2.06.54 3.1.78.31.07.61.13.92.2.83.18 1.66.33 2.49.48.27.05.53.1.79.14 1.06.17 2.12.31 3.18.43.23.03.46.04.68.07q1.305.135 2.61.21c.3.02.6.04.89.05 1.07.05 2.15.09 3.22.09 15.4 0 29.8-5.2 40.4-14.5.7-.62 1.38-1.26 2.03-1.9.22-.22.44-.45.66-.68.42-.43.85-.87 1.26-1.31.26-.28.5-.57.75-.86.35-.4.7-.8 1.04-1.22.26-.32.51-.65.76-.97.31-.39.61-.78.91-1.19.25-.35.5-.71.74-1.06.27-.39.54-.78.8-1.18.24-.38.48-.76.71-1.14.24-.39.48-.78.71-1.18s.45-.81.67-1.21c.21-.39.42-.78.62-1.18.22-.42.42-.85.63-1.29.18-.39.36-.78.54-1.18.2-.45.39-.9.58-1.36.16-.39.31-.78.46-1.17.18-.47.36-.95.52-1.43.13-.38.26-.77.39-1.16.16-.5.32-1 .47-1.51.11-.38.21-.76.32-1.15.14-.53.28-1.06.41-1.59.09-.37.17-.74.25-1.12.12-.56.24-1.12.35-1.69.07-.35.12-.71.18-1.06.1-.6.2-1.2.28-1.81.04-.32.08-.64.11-.97.08-.65.16-1.3.22-1.96.02-.25.03-.5.05-.75.06-.74.1-1.49.14-2.24h-2.21z" style="fill:#eb8f00"/><path d="M121.51 68.04c.06-.74.11-1.49.14-2.24h-.01c-.03.75-.08 1.5-.13 2.24" style="fill:#eb8f00"/><radialGradient id="c" cx="63.72" cy="-2088.9" r="56.957" gradientTransform="matrix(1 0 0 -1 0 -2026)" gradientUnits="userSpaceOnUse"><stop offset=".5" style="stop-color:#fde030"/><stop offset=".919" style="stop-color:#f7c02b"/><stop offset="1" style="stop-color:#f4a223"/></radialGradient><path d="M121.51 68.04c.06-.74.11-1.49.14-2.24h-.01c-.03.75-.08 1.5-.13 2.24" style="fill:url(#c)"/><path d="M77.93 104.94c0 5.6-6.19 8.89-13.82 8.89s-13.82-3.29-13.82-8.89 6.19-11.69 13.82-11.69 13.82 6.09 13.82 11.69" style="fill:#422b0d"/><circle cx="41.6" cy="75.13" r="15.51" style="fill:#fff"/><ellipse cx="41.6" cy="75.13" rx="6.67" ry="6.77" style="fill:#422b0d"/><circle cx="86.6" cy="75.13" r="15.51" style="fill:#fff"/><ellipse cx="86.62" cy="75.21" rx="6.67" ry="6.77" style="fill:#422b0d"/></svg>