<svg viewBox="0 0 128 128"><defs><path id="b" fill="#eb8f00" d="M111.5 29.7a57 57 0 0 1 8.1 30.2c0 16.9-6.1 31.2-17.6 41.4a61 61 0 0 1-40.4 14.5c-18 0-37-7.3-48.2-23a58 58 0 0 0 50.2 26c15.4 0 29.8-5.2 40.4-14.5a54 54 0 0 0 17.6-41.4q-.1-19.2-10.1-33.2"/></defs><radialGradient id="a" cx="63.6" cy="-2088.9" r="57" gradientTransform="matrix(1 0 0 -1 0 -2026)" gradientUnits="userSpaceOnUse"><stop offset=".5" stop-color="#fde030"/><stop offset=".9" stop-color="#f7c02b"/><stop offset="1" stop-color="#f4a223"/></radialGradient><path fill="url(#a)" d="M63.6 118.8c-27.9 0-58-17.5-58-55.9S35.7 7 63.6 7c15.5 0 29.8 5.1 40.4 14.4 11.5 10.2 17.6 24.6 17.6 41.5s-6.1 31.2-17.6 41.4a61 61 0 0 1-40.4 14.5"/><use href="#b"/><radialGradient id="c" cx="63.6" cy="-2088.9" r="57" gradientTransform="matrix(1 0 0 -1 0 -2026)" gradientUnits="userSpaceOnUse"><stop offset=".5" stop-color="#fde030"/><stop offset=".9" stop-color="#f7c02b"/><stop offset="1" stop-color="#f4a223"/></radialGradient><path fill="url(#c)" d="M63.6 118.8c-27.9 0-58-17.5-58-55.9S35.7 7 63.6 7c15.5 0 29.8 5.1 40.4 14.4 11.5 10.2 17.6 24.6 17.6 41.5s-6.1 31.2-17.6 41.4a61 61 0 0 1-40.4 14.5"/><path fill="#422b0d" d="M89.7 79.1A86 86 0 0 0 64 75.5q-14.7.1-26 3.8-4.5 7-4.6 15.8c0 4.9 4.9 7.8 9.2 5.8 5.4-2.5 13.3-5 21.4-5s16.1 2.5 21.4 5c4.3 2 9.2-.9 9.2-5.8q-.2-8.8-4.9-16"/><path fill="#fff" d="M89.7 79.1c-6-9.5-16.6-11.9-25.7-11.9-9.9 0-20.3 2.5-26 12a87 87 0 0 1 26-3.7c9.5 0 18.4 1.3 25.7 3.6"/><path fill="#eb8f00" d="M64 65.7q5.2 0 10.4 1.3 5.2 1.2 9.7 4.3a24 24 0 0 1 7 8 32 32 0 0 1 4 15q.1 1.5-.2 2.8a7 7 0 0 1-8.8 4.5l-2.4-1q-9.5-4.2-19.8-4.7 10.5 0 20 4l2.4 1q1.2.3 2.4.2 2.5-.3 4-2.3.7-1 1-2l.2-2.4a28 28 0 0 0-.7-5q-1.1-4.8-3.7-9.1a22 22 0 0 0-6.7-7q-4.1-2.7-9-3.7-4.8-1-9.9-.9z"/><path fill="#eb8f00" d="M64.2 68.7a44 44 0 0 0-9.9.9q-4.9.9-9 3.6a22 22 0 0 0-6.7 7 30 30 0 0 0-4.3 14.2q-.1 1.3.1 2.4a6 6 0 0 0 1 2 6 6 0 0 0 6.4 2l2.3-1q9.7-3.9 20-4a52 52 0 0 0-19.6 4.8l-2.4 1q-1.4.4-2.7.4-2.9-.3-4.8-2.5a7 7 0 0 1-1.3-2.4q-.4-1.4-.3-2.7a31 31 0 0 1 4-15.1q2.6-4.7 7-8 4.5-3 9.7-4.3a47 47 0 0 1 10.5-1.3z"/><use href="#b"/><path fill="#422b0d" d="M22.2 46q-.7 0-1.5-.3-1.7-.7-1.1-3a21 21 0 0 1 16.6-13c1.5-.2 2.4.7 2.6 1.7.2 1.1-.3 2.4-1.7 2.9H37a26 26 0 0 0-13.2 10.5q-.6 1-1.6 1.1m81.3-1.1a26 26 0 0 0-13.1-10.5h-.2a2.4 2.4 0 0 1-1.6-2.9c.2-1 1-1.9 2.5-1.7q3 .4 5.8 1.7c5 2.3 9 6.4 10.9 11.4.5 1.4-.2 2.5-1.1 2.9q-.7.3-1.5.2-1-.2-1.7-1.1"/><path fill="#29b6f6" d="M111.7 111c0-3-5.5-5.6-12.5-5.8l-2.1-52.5-.6-.6-.2-.2-.2-.3-.3-.3-.6-.6-.9-.8-2.2-1.4Q91 48 89.7 48H89l-.5.1-1.3.4c-.8.4-5 .6-5.3.7l-.5 61.3c-4.5 1.4-9.5 3.7-9.5 6.2 0 4.2 7.8 7.6 17.5 7.6s17.5-3.4 17.5-7.5q0-.7-.3-1.3c3.1-1 5.1-2.7 5.1-4.5"/><path fill="#81d4fa" d="M86.4 106.9c0 3.2-1.9 6.2-5 7.4-3.6 1.4-7 3.5-1.8 4.8 0 0 4 1.9 6 .9q1-.8-.1-1.9c-.7-.7-.4-1.9.6-2.1l.9-.2a5 5 0 0 0 3.6-4.7L89 45.5l-3.3-.3z"/><path fill="#29b6f6" d="m46.9 110.5-.5-61.1C46 49 45.1 52 45 51.9l-.2-.3-.3-.3-.6-.6-.9-.8-2.2-1.4q-1.2-.5-2.4-.5h-.7l-.6.1-1.2.4-2.2 1.4-1.5 1.5-.6.6-.3.4-2.2 52.8c-7 .2-12.5 2.7-12.5 5.8 0 1.8 2 3.5 5 4.5l-.2 1.2c0 4.2 7.8 7.6 17.5 7.6s17.5-3.4 17.5-7.6c0-2.5-5-4.8-9.5-6.2"/><path fill="#81d4fa" d="m35.3 49.1-1.8 55.3a3 3 0 0 1-3 2.8c-2 0-5 .2-7.3 1.6-1.2.8-1.7 2.8-.6 3.9 1.3 1.2 4.6.1 6.2 0 .7-.1 1.7 0 1.9.7q0 .7-.5 1t-1.1.5q-1.1.2-1.9.9t-.6 1.8q.5 1.3 2 1.6 2.2.9 4.5 1c0-1-1.6-1.8-1.3-2.8q.3-.5.8-.8l3-.8c1.7-.4 4.7-1.2 4-3.5l-1.3-2c-1.7-2.5-2-4.7-1.7-7.7.2-2.3.8-39.4 1.2-54.6.1-3.7-1-.3-2.3-.2z"/><path fill="#422b0d" d="m48.6 54.4-.2-.2-.5-.5-.7-.6-1-.7-1.2-.7-1.4-.6-1.5-.4h-1.6.1-1.7l-1.5.4q-.8.2-1.4.6l-1.2.7-1.7 1.3-.6.6-.2.2c-1.2 1.2-3.2 1.2-4.6.2-1-.8-1.3-2.2-.8-3.2l.1-.3.4-.8a14 14 0 0 1 4.1-4.4l2.5-1.4s2-.8 3-1l1.7-.3h1.6l3.3.2q1.6.4 3 1c1.4.6 1.8 1 2.5 1.4q1.2.7 1.9 1.6l1.3 1.5.5.7.4.6.4.8.1.2c.7 1.5-.1 3.2-1.8 3.8-.9.5-2.4.2-3.3-.7m47-.3-.3-.2-.5-.5-.7-.6-1-.7-1.2-.7-1.4-.6-1.5-.3-1.5-.2h.1-1l-.7.2q-.7 0-1.5.4l-1.4.5-2.9 2-.6.6-.3.3a3.5 3.5 0 0 1-4.5.1q-1.5-1.4-.8-3.2l.1-.3.5-.9a13 13 0 0 1 4-4.3 14 14 0 0 1 5.6-2.4l1.8-.2.8-.1h.8l3.3.3a16 16 0 0 1 7.5 4l1.3 1.5.5.6.4.7.4.7v.3c.8 1.5 0 3.2-1.7 3.8a4 4 0 0 1-3.7-.8"/></svg>