<svg viewBox="0 0 128 128"><radialGradient id="a" cx="63.6" cy="1696.9" r="57" gradientTransform="translate(0 -1634)" gradientUnits="userSpaceOnUse"><stop offset=".5" stop-color="#fde030"/><stop offset=".9" stop-color="#f7c02b"/><stop offset="1" stop-color="#f4a223"/></radialGradient><path fill="url(#a)" d="M63.6 118.8c-27.9 0-58-17.5-58-55.9S35.7 7 63.6 7c15.5 0 29.8 5.1 40.4 14.4 11.5 10.2 17.6 24.6 17.6 41.5s-6.1 31.2-17.6 41.4a61 61 0 0 1-40.4 14.5"/><path fill="#eb8f00" d="M111.5 29.7a57 57 0 0 1 8.1 30.2c0 16.9-6.1 31.2-17.6 41.4a61 61 0 0 1-40.4 14.5 59 59 0 0 1-48.2-23 58 58 0 0 0 50.2 26c15.4 0 29.8-5.2 40.4-14.5a54 54 0 0 0 17.6-41.4q-.1-19.2-10.1-33.2"/><radialGradient id="b" cx="78.3" cy="-948.8" r="19.4" gradientTransform="matrix(.98 0 0 -.93 -49.42 -800.35)" gradientUnits="userSpaceOnUse"><stop offset="0" stop-color="#ed7770"/><stop offset=".9" stop-color="#ed7770" stop-opacity="0"/></radialGradient><circle cx="27.2" cy="82.2" r="17.5" fill="url(#b)" opacity=".8"/><radialGradient id="c" cx="147.4" cy="-948.8" r="19.4" gradientTransform="matrix(.98 0 0 -.93 -49.42 -800.35)" gradientUnits="userSpaceOnUse"><stop offset="0" stop-color="#ed7770"/><stop offset=".9" stop-color="#ed7770" stop-opacity="0"/></radialGradient><circle cx="94.9" cy="82.2" r="17.5" fill="url(#c)" opacity=".8"/><radialGradient id="d" cx="147.4" cy="-923.9" r="19.4" gradientTransform="matrix(1 0 0 -1 0 130)" gradientUnits="userSpaceOnUse"><stop offset="0" stop-color="#ed7770"/><stop offset=".9" stop-color="#ed7770" stop-opacity="0"/></radialGradient><circle cx="99.8" cy="82.2" r="17.5" fill="url(#d)" opacity=".8"/><path fill="none" stroke="#35220b" stroke-linecap="round" stroke-linejoin="round" stroke-width="8" d="M56 96h15"/><path fill="#fff" d="M89.2 41.8a17.4 17.4 0 1 1 0 34.8 17.4 17.4 0 0 1 0-34.8"/><ellipse cx="89.2" cy="59.2" fill="#422b0d" rx="7.5" ry="7.6"/><path fill="#fff" d="M38.7 41.7a17.4 17.4 0 1 1 0 34.8 17.4 17.4 0 0 1 0-34.8"/><ellipse cx="38.7" cy="59.1" fill="#422b0d" rx="7.5" ry="7.6"/><path fill="#422b0d" d="M46.6 27.3a1.8 1.8 0 1 0 1.3-3.5q-2.7-1.2-5.6-1.5c-5.3-.6-10.6.8-14.8 4-2 1.5 0 4 2 3a26 26 0 0 1 17-2m34.4 0a1.8 1.8 0 1 1-1.3-3.5q2.7-1.2 5.6-1.5c5.3-.6 10.6.8 14.8 4 2 1.5 0 4-2 3a26 26 0 0 0-17-2"/></svg>