<svg xmlns="http://www.w3.org/2000/svg" width="1em" height="1em" viewBox="0 0 128 128"><radialGradient id="a" cx="63.6" cy="1400.9" r="56.96" gradientTransform="translate(0 -1338)" gradientUnits="userSpaceOnUse"><stop offset=".5" stop-color="#fde030"/><stop offset=".92" stop-color="#f7c02b"/><stop offset="1" stop-color="#f4a223"/></radialGradient><path fill="url(#a)" d="M63.6 118.8c-27.9 0-58-17.5-58-55.9S35.7 7 63.6 7c15.5 0 29.8 5.1 40.4 14.4 11.5 10.2 17.6 24.6 17.6 41.5s-6.1 31.2-17.6 41.4c-10.6 9.3-25 14.5-40.4 14.5"/><path fill="#eb8f00" d="M111.49 29.67c5.33 8.6 8.11 18.84 8.11 30.23 0 16.9-6.1 31.2-17.6 41.4-10.6 9.3-25 14.5-40.4 14.5-18.06 0-37-7.35-48.18-22.94 10.76 17.66 31 25.94 50.18 25.94 15.4 0 29.8-5.2 40.4-14.5 11.5-10.2 17.6-24.5 17.6-41.4 0-12.74-3.47-24.06-10.11-33.23"/><path fill="#422b0d" d="M71 101c-.57 0-1.14-.12-1.66-.36a14.4 14.4 0 0 0-11.56-.06c-1.97.99-4.38.19-5.37-1.78a4.006 4.006 0 0 1 1.78-5.37 22.57 22.57 0 0 1 18.47-.07 4 4 0 0 1 1.98 5.3A3.99 3.99 0 0 1 71 101"/><path fill="#fff" d="M43 47.7c9.58.03 17.33 7.82 17.3 17.4s-7.82 17.33-17.4 17.3S25.57 74.58 25.6 65c.06-9.57 7.83-17.29 17.4-17.3"/><circle cx="42.7" cy="62.8" r="15.4" fill="#422b0d"/><ellipse cx="48.13" cy="68.62" fill="#fff" rx="2.6" ry="2.4" transform="rotate(-40.01 48.133 68.627)"/><ellipse cx="38.69" cy="58.01" fill="#fff" rx="9" ry="7.3" transform="rotate(-36.661 38.692 58.008)"/><path fill="#fff" d="M86 47.7c9.58.03 17.33 7.82 17.3 17.4s-7.82 17.33-17.4 17.3S68.57 74.58 68.6 65c.06-9.57 7.83-17.29 17.4-17.3"/><circle cx="85.7" cy="62.8" r="15.4" fill="#422b0d"/><ellipse cx="91.21" cy="68.56" fill="#fff" rx="2.6" ry="2.4" transform="rotate(-40.01 91.212 68.564)"/><ellipse cx="81.7" cy="58.02" fill="#fff" rx="9" ry="7.3" transform="rotate(-36.661 81.697 58.016)"/><path fill="#422b0d" d="M27.4 39.8c-2.2.4-2.3 3.6.1 3.7 5.3.07 10.42-1.9 14.3-5.5 1.48-1.28 2.73-2.8 3.7-4.5.58-.83.38-1.97-.45-2.55a1.83 1.83 0 0 0-2.55.45l-.1.1a26.03 26.03 0 0 1-15 8.3m57.1-8.4a1.83 1.83 0 0 0-2.55-.45 1.83 1.83 0 0 0-.45 2.55c.97 1.7 2.22 3.22 3.7 4.5 3.9 3.57 9.01 5.54 14.3 5.5 2.5-.1 2.3-3.3.1-3.7a25.54 25.54 0 0 1-15.1-8.4"/></svg>