<svg viewBox="0 0 128 128"><radialGradient id="a" cx="63.6" cy="1992.9" r="57" gradientTransform="translate(0 -1930)" gradientUnits="userSpaceOnUse"><stop offset=".5" stop-color="#fde030"/><stop offset=".9" stop-color="#f7c02b"/><stop offset="1" stop-color="#f4a223"/></radialGradient><path fill="url(#a)" d="M63.6 118.8c-27.9 0-58-17.5-58-55.9S35.7 7 63.6 7c15.5 0 29.8 5.1 40.4 14.4 11.5 10.2 17.6 24.6 17.6 41.5s-6.1 31.2-17.6 41.4a61 61 0 0 1-40.4 14.5"/><path fill="#eb8f00" d="M111.5 29.7a57 57 0 0 1 8.1 30.2c0 16.9-6.1 31.2-17.6 41.4a61 61 0 0 1-40.4 14.5 59 59 0 0 1-48.2-23 58 58 0 0 0 50.2 26c15.4 0 29.8-5.2 40.4-14.5a54 54 0 0 0 17.6-41.4q-.1-19.2-10.1-33.2"/><path fill="#422b0d" d="M64 87.2c10.8 0 17.8 7.9 19.7 11.5q1 2.2 0 3.1a2 2 0 0 1-2 0l-.9-.5a29 29 0 0 0-33.6 0l-.9.6q-1 .6-2 0-1-1 0-3.2A23 23 0 0 1 64 87.1M27.4 39.9c-2.2.4-2.3 3.6 0 3.7 5.4 0 10.5-2 14.4-5.5a17 17 0 0 0 3.7-4.5c.6-.8.4-2-.4-2.5s-2-.4-2.6.4a26 26 0 0 1-15.1 8.4M86 31.5a2 2 0 0 0-2.6-.5 2 2 0 0 0-.5 2.5q1.5 2.6 3.7 4.5 6.2 5.5 14.4 5.5c2.4-.2 2.3-3.4 0-3.7a26 26 0 0 1-15-8.3"/><radialGradient id="b" cx="20.6" cy="-404.7" r="33.4" gradientTransform="matrix(1 0 0 -1.54 0 -560.29)" gradientUnits="userSpaceOnUse"><stop offset=".5" stop-color="#29b6f6"/><stop offset="1" stop-color="#1e88e5"/></radialGradient><path fill="url(#b)" d="M19.5 107c-8.4 0-15-8.2-15-15.2 0-5 2.2-10.7 5.4-18.6l1.4-3.7c1.5-3.7 2.8-7.7 4.8-11.2a3.5 3.5 0 0 1 6.1 0c1.9 3.4 3.2 7.1 5.1 11.4 5.5 12.3 7 17.2 7 22.2.2 7-6.4 15.1-14.8 15.1"/><path fill="#81d4fa" d="M28.7 97.7c-2 3-6.3 2.4-6.3-2.6 0-3.1.7-19.2 3.4-17 4.3 3.7 5.6 15.4 2.9 19.6"/><path fill="#422b0d" d="M44.7 55c-4.2 0-8 3.5-8 9.4s3.8 9.4 8 9.4 8-3.6 8-9.4-3.8-9.5-8-9.5"/><path fill="#896024" d="M44.3 58.9a3 3 0 0 0-3.8 1.3q-.8 1.8.6 3.3c1.4.7 3 0 3.8-1.3.5-1.1.3-2.5-.6-3.3"/><path fill="#422b0d" d="M83 55c-4.2 0-8 3.5-8 9.4s3.8 9.4 8 9.4 8-3.6 8-9.4-3.8-9.5-8-9.5"/><path fill="#896024" d="M82.6 58.9a3 3 0 0 0-3.8 1.3q-.7 1.8.6 3.3c1.4.7 3.1 0 3.8-1.3.6-1.1.3-2.5-.6-3.3"/></svg>