<svg viewBox="0 0 128 128"><radialGradient id="a" cx="63.6" cy="1104.9" r="57" gradientTransform="translate(0 -1042)" gradientUnits="userSpaceOnUse"><stop offset=".5" stop-color="#fde030"/><stop offset=".9" stop-color="#f7c02b"/><stop offset="1" stop-color="#f4a223"/></radialGradient><path fill="url(#a)" d="M63.6 118.8c-27.9 0-58-17.5-58-55.9S35.7 7 63.6 7c15.5 0 29.8 5.1 40.4 14.4 11.5 10.2 17.6 24.6 17.6 41.5s-6.1 31.2-17.6 41.4a61 61 0 0 1-40.4 14.5"/><linearGradient id="b" x1="63.6" x2="63.6" y1="1160.8" y2="1049" gradientTransform="translate(0 -1042)" gradientUnits="userSpaceOnUse"><stop offset="0" stop-color="#f4a223"/><stop offset=".1" stop-color="#f7c02b"/><stop offset=".5" stop-color="#fde030" stop-opacity="0"/></linearGradient><path fill="url(#b)" d="M63.6 118.8c-27.9 0-58-17.5-58-55.9S35.7 7 63.6 7c15.5 0 29.8 5.1 40.4 14.4 11.5 10.2 17.6 24.6 17.6 41.5s-6.1 31.2-17.6 41.4a61 61 0 0 1-40.4 14.5"/><path fill="#eb8f00" d="M111.5 29.7a57 57 0 0 1 8.1 30.2c0 16.9-6.1 31.2-17.6 41.4a61 61 0 0 1-40.4 14.5 59 59 0 0 1-48.2-23 58 58 0 0 0 50.2 26c15.4 0 29.8-5.2 40.4-14.5a54 54 0 0 0 17.6-41.4q-.1-19.2-10.1-33.2"/><radialGradient id="c" cx="41.5" cy="25" r="59.4" gradientTransform="matrix(1 0 0 -.94 0 107.02)" gradientUnits="userSpaceOnUse"><stop offset=".3" stop-color="#fff176"/><stop offset="1" stop-color="#ffc400"/></radialGradient><path fill="url(#c)" d="M6.4 75.1c-1.9 2.2 2 8 2.7 11 1.7 7.3 0 9-.1 15.5-.1 7 2 13 7.4 16.8 5 3.6 11.1 5.4 19 3.1s12.5-4.8 12.9-8.7q.1-2.6-2.1-3.8 1.2-.6 1.7-1.8c1.9-4.4-1.8-5.4-1.8-5.4q.8-1 1.2-2c1.2-2.2 1-5.2-2.2-6.2-1.5-.4-1.9-.2-1.9-.2q2.2-2.3 5.4-3.6c5.3-2.3 11.7-3.7 13.3-5 2.3-2 2.5-6-1.6-7C54.4 76 43.6 80 37 84.1s-12.6 6.4-14.6 5.6-3.2-2-4-5c-1.4-5.5-2.5-7.7-4.9-9.8-2-1.7-5.8-1.6-7.2.1"/><path fill="#eb8f00" d="M64.2 80.4c-.7-9.2-18.7-3.5-28 2.5-11.4 7.5-13 6.2-14.2 5.5-1.3-.9-2.2-1.6-2.8-4.2-1.5-5.8-2-8-4.6-10.3-2.3-2.1-9-2-9.5 1.2-.4 3.6 1.6 4.2 2.9 11 1.7 6.9 1 14.5 1 14.5s3.1-7.3.1-18.6c-.6-3-3.5-7.7 1.4-7.2 4.8.6 5 4.7 6.5 10.4.9 3.2 1.7 5.1 5 6s10.7-3.3 16-6.7c6.7-4.2 16.4-7.8 21.6-6.3 2.2.5 3.7 3.3 1.3 5.4-3.7 3.5-17.9 5-26.5 14.3 0 0 1 .4 2.6-.4l7.5-3.7c1.7.8 2.6 3.7 1.6 5.2-1.5 2.5-7.5 6-10.5 5.9 0 0 0 1.5 3 1 .9 0 4.8-1 7.6-3 2 1.4 1.4 4-.1 5.8a15 15 0 0 1-9.1 4.5s-.4 1.5 2.2 1.5 5.4-1.4 7.5-3q.6.8.2 3c-.5 2.3-3.6 4.6-9.5 5.9-5.4 1.2-11.5 2-23.3-4.1 0 0 4.4 5.7 15.9 6.7 11 1 24-3.9 18.7-13.7 0 0 1.2-1.7 1.3-4 .1-1.5-.4-3.6-1.5-4.6 1-3.2.7-5.4 0-6.7-.4-.8-1.6-1.7-1.6-1.7s2.3-2 9-3.8c4.4-1.1 8.7-2.7 8.3-8.3"/><path fill="#eb8f00" d="M18.6 82.1s4.9 7.9 15.5 2.2c0 0-6.5 6.8-11.6 5.5s-3.9-7.7-3.9-7.7M49 95.5s2.5-5.2 7-6.8c0 0-7.3.6-10.1 3.6z"/><path fill="#422b0d" d="M76.9 71.3q-.6 0-.9-.4A33 33 0 0 0 60.4 64q-8.7-1.5-17 1.6-.4.2-1 .1-1-.2-1.4-1.3t.6-1.9a25 25 0 0 1 37 6q.7 1 0 2-.5 1-1.7.8m3.9-40.2c4.2 0 8 3.5 8 9.4S85 50 80.8 50s-8-3.5-8-9.4 3.8-9.4 8-9.4M46 22c-4.2 0-8 3.5-8 9.4s3.8 9.4 8 9.4 8-3.5 8-9.4-3.8-9.4-8-9.4m-6.4-11.4q-.7-1.1-.1-2.4t2-1.5a21 21 0 0 1 20.2 8.1c.7 1 .4 2.5-.5 3.3a3 3 0 0 1-3.6-.1l.4-.7-.5.6A26 26 0 0 0 42 12q-1.5 0-2.3-1.3zm53.3 18a3 3 0 0 0 1.3-2 3 3 0 0 0-1-2.3A21 21 0 0 0 72.1 21l-.4.2c-1.1.6-1.6 2-1.1 3a3 3 0 0 0 3.1 1.8v-.8l.2.8q8.6-1.5 16.4 2.4 1.3.7 2.7 0z"/><path fill="#896024" d="M46 25.2c-1-.8-2.6-.5-3.6.9s-.7 3 .3 3.7 2.6.5 3.6-1c1-1.4.7-3-.3-3.7m34.6 8.6c-1-.7-2.6-.5-3.6 1-1 1.4-.7 3 .3 3.7s2.6.4 3.6-1 .7-3-.3-3.7"/></svg>