<svg viewBox="0 0 128 128"><radialGradient id="a" cx="63.6" cy="2584.9" r="57" gradientTransform="translate(0 -2522)" gradientUnits="userSpaceOnUse"><stop offset=".5" stop-color="#fde030"/><stop offset=".9" stop-color="#f7c02b"/><stop offset="1" stop-color="#f4a223"/></radialGradient><path fill="url(#a)" d="M63.6 118.8c-27.9 0-58-17.5-58-55.9S35.7 7 63.6 7c15.5 0 29.8 5.1 40.4 14.4 11.5 10.2 17.6 24.6 17.6 41.5s-6.1 31.2-17.6 41.4a61 61 0 0 1-40.4 14.5"/><path fill="#eb8f00" d="M111.5 29.7a57 57 0 0 1 8.1 30.2c0 16.9-6.1 31.2-17.6 41.4a61 61 0 0 1-40.4 14.5 59 59 0 0 1-48.2-23 58 58 0 0 0 50.2 26c15.4 0 29.8-5.2 40.4-14.5a54 54 0 0 0 17.6-41.4q-.1-19.2-10.1-33.2"/><path fill="#35220b" d="M83.9 90.7q-.6 0-1.1-.3A37 37 0 0 0 64 85.6a38 38 0 0 0-18.8 4.8l-1 .3q-1.2 0-1.9-1.2-.4-1.2.3-2.2a28.5 28.5 0 0 1 40.2-2.6q1.4 1.2 2.6 2.6a2 2 0 0 1-1.5 3.4m-10-40.6.2.1q.2 0 .2.2l.2.1.7.3.9.3 2.5.6 1.5.2 1.6.1h1.6l1.5-.2 2.5-.6 1.6-.6.6-.3.5-.2a3 3 0 0 1 4 1.2 3 3 0 0 1-.3 3.3l-.2.3-.6.7q-1.2 1.1-2.5 2a39 39 0 0 1-6.1 1.9l-1.3.1h-1.2a19 19 0 0 1-4.7-.7 14 14 0 0 1-3.9-1.7l-1.5-1-1.1-1-.4-.4-.2-.2-.2-.2a3 3 0 0 1 .6-4.2q1.7-1 3.5-.1m-36.8 0 .2.1q.2 0 .2.2l.2.1.7.3.9.3q1.2.4 2.5.6l1.5.2 1.6.1h1.6l1.5-.2 2.5-.6 1.6-.6.6-.3.5-.2a3 3 0 0 1 4 1.2 3 3 0 0 1-.3 3.3l-.2.3-.6.7q-1.1 1.1-2.5 2-1.9 1.1-4 1.7l-2.3.5-1.3.1h-1.2a19 19 0 0 1-4.7-.7q-2-.6-4-1.7l-1.5-1-1.1-1-.4-.4-.2-.2-.2-.2a3 3 0 0 1 .6-4.2c1-.9 2.6-1 3.8-.4"/><path fill="#422b0d" d="M75.5 37.9v.1c-1.5 2-4.9.5-3.7-2q1.5-3 3.8-5.5c4-4.4 9.6-7 15.6-7.5a2 2 0 0 1 2.3 1.9 2 2 0 0 1-1.8 2.2A30 30 0 0 0 75.5 38m-21 1v.1c1.5 2 4.8.5 3.7-2a22 22 0 0 0-3.8-5.5A24 24 0 0 0 38.7 24a2 2 0 0 0-.5 4.1A30 30 0 0 1 54.4 39"/><path fill="#fff" d="M5.8 92q1.2-1.6.3-3.4A10 10 0 0 1 5 80.9c1-4.4 5-7.7 9.5-7.9h.6q2.6 0 4.9 1.3t4.2 3.6c3.5-1.5 18.5-7 22.3-8.5L36.4 91.2c4.7 3.4 5.7 10 2.2 14.6a10 10 0 0 1-7.7 4.2h-.6q-3.9 0-6.7-2.4a3 3 0 0 0-2-.7q-1 0-1.7.5a11 11 0 0 1-6 1.8q-1.2 0-2.3-.3A10.4 10.4 0 0 1 5.8 92"/><path fill="#92cbeb" d="M46.6 69.4 31.2 89.7l5.1 1.5z"/><path fill="#92cbeb" d="M31.7 89.3q-.6.1-.7.8 0 .3.4.5 3.1 1.6 4 5c.4 2.3-.2 5.3-2 7s-4.8 2-7 1.4-5-3-6.9-4.8a1 1 0 0 0-1 0q-.3 0-.3.4-.1 1.5.2 2.9c.2.9-4.5 4.4-9.7 1.6C1.2 100 7 91.5 6.3 91l-.5.9a10 10 0 0 0-2.4 7.4 10.4 10.4 0 0 0 10.5 9.8q3.1 0 5.9-1.8.7-.5 1.7-.5a3 3 0 0 1 2 .7q2.8 2.4 6.7 2.4h.6a10.4 10.4 0 0 0 5.5-18.8l.6-1.3q-2.6-.7-5.3-.6M5 81q-1 4 1.1 7.7.6 1.2.2 2.6a6 6 0 0 0 2.4-4q0-2.4-.6-5-.7-2 .2-4c1.1-2.7 4.4-4.2 4.7-4.3q.8-.5.8-.8A10 10 0 0 0 5 80.9"/><path fill="#fff" d="M122.2 92a3 3 0 0 1-.3-3.4q2.1-3.6 1.1-7.7a10 10 0 0 0-9.5-7.9h-.6q-2.6 0-4.9 1.2-2.4 1.5-4.2 3.6l-22.3-8.4 10.2 21.8a10.5 10.5 0 0 0 5.5 18.8h.6q3.9 0 6.7-2.4a3 3 0 0 1 2-.7q1 0 1.7.5a11 11 0 0 0 6 1.8l2.3-.3a10.4 10.4 0 0 0 5.7-16.9"/><path fill="#92cbeb" d="m81.4 69.4 15.4 20.3-5.1 1.5z"/><path fill="#92cbeb" d="M96.4 89.3q.5.1.6.8 0 .3-.4.5-3.1 1.6-4 5c-.4 2.3.2 5.3 2 7s4.8 2 7 1.4 5-3 6.9-4.8a1 1 0 0 1 1 0q.3 0 .3.4.1 1.5-.2 2.9c-.2.9 4.5 4.4 9.7 1.6 7.5-4 1.6-12.6 2.5-12.9q0 .5.5.8 2.6 3.3 2.4 7.4a10.4 10.4 0 0 1-10.5 9.8q-3.2 0-6-1.8-.7-.4-1.7-.5a3 3 0 0 0-2 .7A10 10 0 0 1 98 110h-.7a10.4 10.4 0 0 1-5.5-18.8L91 90q2.6-.7 5.3-.6M123 81q1 4-1.1 7.7-.6 1.2-.2 2.6a6 6 0 0 1-2.4-4q0-2.4.6-5 .7-2-.2-4c-1.1-2.7-4.4-4.2-4.7-4.3q-.9-.5-.7-.8c4.2.5 7.7 3.6 8.7 7.8"/></svg>