<svg xmlns="http://www.w3.org/2000/svg" width="1em" height="1em" viewBox="0 0 128 128"><defs><path id="b" fill="#eb8f00" d="M111.49 29.67c5.33 8.6 8.11 18.84 8.11 30.23 0 16.9-6.1 31.2-17.6 41.4-10.6 9.3-25 14.5-40.4 14.5-18.06 0-37.04-7.35-48.18-22.94 10.76 17.66 30.99 25.94 50.18 25.94 15.4 0 29.8-5.2 40.4-14.5 11.5-10.2 17.6-24.5 17.6-41.4 0-12.74-3.47-24.06-10.11-33.23"/></defs><radialGradient id="a" cx="63.6" cy="-2088.9" r="56.96" gradientTransform="matrix(1 0 0 -1 0 -2026)" gradientUnits="userSpaceOnUse"><stop offset=".5" stop-color="#fde030"/><stop offset=".919" stop-color="#f7c02b"/><stop offset="1" stop-color="#f4a223"/></radialGradient><path fill="url(#a)" d="M63.6 118.8c-27.9 0-58-17.5-58-55.9S35.7 7 63.6 7c15.5 0 29.8 5.1 40.4 14.4 11.5 10.2 17.6 24.6 17.6 41.5s-6.1 31.2-17.6 41.4c-10.6 9.3-25 14.5-40.4 14.5"/><use href="#b"/><path fill="#5f7aff" d="M38.53 48c.05 0 .02 0 0 0m57.33 0c.04 0 .02 0 0 0"/><radialGradient id="c" cx="63.6" cy="-2088.9" r="56.96" gradientTransform="matrix(1 0 0 -1 0 -2026)" gradientUnits="userSpaceOnUse"><stop offset=".5" stop-color="#fde030"/><stop offset=".919" stop-color="#f7c02b"/><stop offset="1" stop-color="#f4a223"/></radialGradient><path fill="url(#c)" d="M63.6 118.8c-27.9 0-58-17.5-58-55.9S35.7 7 63.6 7c15.5 0 29.8 5.1 40.4 14.4 11.5 10.2 17.6 24.6 17.6 41.5s-6.1 31.2-17.6 41.4c-10.6 9.3-25 14.5-40.4 14.5"/><path fill="#422b0d" d="M89.74 79.1c-7.32-2.35-16.21-3.6-25.74-3.6-9.68 0-18.63 1.37-26.07 3.75-2.82 4.67-4.53 10.08-4.53 15.85 0 4.9 4.9 7.8 9.2 5.8 5.4-2.5 13.3-5 21.4-5s16.1 2.5 21.4 5c4.3 2 9.2-.9 9.2-5.8 0-5.83-1.87-11.3-4.86-16"/><path fill="#fff" d="M89.74 79.1C83.7 69.6 73.09 67.2 64 67.2c-9.88 0-20.3 2.47-26.07 12.05C45.37 76.87 54.32 75.5 64 75.5c9.52 0 18.42 1.25 25.74 3.6"/><path fill="#eb8f00" d="M63.94 65.7c3.5.09 7.03.41 10.46 1.3 3.44.84 6.78 2.28 9.71 4.34 2.9 2.11 5.34 4.85 7.01 7.97 1.7 3.07 2.94 6.4 3.56 9.85.32 1.72.49 3.47.49 5.22.03.84-.05 1.83-.3 2.72-.26.9-.72 1.73-1.31 2.45-1.18 1.45-2.98 2.31-4.81 2.44-.91.05-1.83-.07-2.69-.35-.87-.32-1.6-.71-2.38-1.05-6.2-2.74-12.91-4.52-19.74-4.68 6.84-.09 13.66 1.44 20.04 3.99.8.31 1.6.7 2.34.94.77.22 1.58.29 2.36.22 1.57-.17 3.07-.97 4.01-2.21.47-.62.83-1.32 1.01-2.07.18-.77.22-1.5.17-2.36a28.3 28.3 0 0 0-.65-4.95c-.71-3.25-2-6.37-3.71-9.21-1.68-2.85-3.98-5.23-6.67-7.05-2.73-1.77-5.81-2.98-9.03-3.64-3.21-.7-6.54-.89-9.87-.85z"/><path fill="#eb8f00" d="M64.19 68.7c-3.32-.04-6.66.15-9.87.85-3.22.66-6.3 1.87-9.03 3.64-2.69 1.82-4.99 4.2-6.67 7.05-1.72 2.84-3 5.95-3.71 9.21-.36 1.63-.59 3.28-.65 4.95-.06.86-.01 1.59.17 2.36.19.75.55 1.45 1.01 2.07.94 1.24 2.44 2.04 4.01 2.21.79.07 1.59 0 2.36-.22.74-.24 1.54-.62 2.34-.94 6.37-2.55 13.2-4.08 20.04-3.99-6.84.16-13.55 1.94-19.74 4.68-.78.34-1.51.73-2.38 1.05-.86.28-1.78.4-2.69.35-1.82-.12-3.62-.99-4.81-2.44a6.9 6.9 0 0 1-1.31-2.45c-.25-.88-.33-1.87-.3-2.72.01-1.75.18-3.49.49-5.22.63-3.45 1.86-6.78 3.56-9.85 1.68-3.11 4.12-5.86 7.01-7.97 2.93-2.06 6.27-3.51 9.71-4.34 3.44-.88 6.97-1.21 10.46-1.3z"/><use href="#b"/><path fill="#5f7aff" d="M36.53 48c.05 0 .02 0 0 0m57.33 0c.04 0 .02 0 0 0"/><path fill="#422b0d" d="M22.19 45.91c-.52.09-1.06.01-1.52-.21-.91-.44-1.6-1.51-1.08-2.91 1.91-4.94 5.86-9.08 10.84-11.38 1.85-.86 3.79-1.43 5.78-1.7 1.49-.17 2.36.74 2.57 1.71.23 1.08-.26 2.4-1.66 2.86l-.12.04c-5.39 1.86-10.2 5.67-13.18 10.44-.41.68-1.01 1.04-1.63 1.15m81.34-1.15c-2.98-4.77-7.79-8.58-13.18-10.44l-.12-.04c-1.4-.45-1.9-1.78-1.66-2.86.21-.98 1.09-1.88 2.57-1.71 1.98.26 3.93.84 5.78 1.7 4.98 2.3 8.93 6.44 10.84 11.38.52 1.4-.17 2.47-1.08 2.91-.45.22-.99.3-1.52.21-.62-.11-1.22-.47-1.63-1.15"/><path fill="#29b6f6" d="M111.74 111c0-3.07-5.55-5.62-12.52-5.78l-2.15-52.55c-.21-.16-.42-.35-.59-.56 0 0-.06-.08-.18-.22q-.09-.105-.21-.27c-.09-.11-.18-.23-.26-.29l-.62-.62c-.25-.25-.55-.52-.86-.79-.64-.54-1.4-1.04-2.2-1.39-.8-.33-1.61-.53-2.44-.52h-.13l-.29.01c-.26 0-.21.02-.29.03-.07-.01-.35.06-.54.09-.4.1-.82.22-1.22.39-.8.35-5.09.54-5.37.71l-.46 61.25c-4.53 1.37-9.49 3.67-9.49 6.24 0 4.19 7.83 7.6 17.49 7.6s17.49-3.39 17.49-7.58c0-.42-.1-.82-.25-1.22 3.1-1.06 5.09-2.69 5.09-4.53"/><path fill="#81d4fa" d="M86.38 106.87c.09 3.25-1.87 6.19-4.89 7.4-3.67 1.47-7.17 3.54-1.93 4.78 0 0 3.95 1.94 5.96.93.9-.45.59-1.19-.03-1.86-.68-.73-.34-1.91.63-2.13l.86-.19a4.664 4.664 0 0 0 3.65-4.68l-1.61-65.63-3.29-.27z"/><path fill="#29b6f6" d="m46.88 110.49-.45-61.13c-.49-.22-1.33 2.67-1.45 2.52q-.09-.105-.21-.27c-.09-.11-.18-.23-.26-.29l-.62-.62c-.25-.25-.55-.52-.86-.79-.64-.54-1.4-1.04-2.2-1.39-.8-.33-1.61-.53-2.44-.52h-.13l-.29.01c-.26 0-.21.02-.29.03-.07-.01-.35.06-.54.09-.4.1-.82.22-1.22.39-.8.35-1.56.85-2.2 1.39-.63.54-1.16 1.07-1.52 1.47-.36.41-.57.64-.57.64l-.3.34c-.03.03-.06.05-.09.08l-2.16 52.77c-6.98.16-12.52 2.69-12.52 5.76 0 1.84 1.99 3.49 5.08 4.54-.15.4-.25.81-.25 1.23 0 4.19 7.83 7.59 17.49 7.59s17.49-3.42 17.49-7.61c0-2.57-4.97-4.86-9.49-6.23"/><path fill="#81d4fa" d="M35.25 49.14 33.5 104.4a2.884 2.884 0 0 1-3 2.8c-2.08-.09-4.93.15-7.27 1.6-1.26.78-1.78 2.77-.63 3.88 1.26 1.21 4.56.16 6.21-.01.72-.07 1.67 0 1.86.7.11.4-.13.83-.46 1.07-.33.25-.74.35-1.14.47-.66.19-1.32.42-1.84.87-.51.45-.84 1.17-.66 1.83.24.85 1.18 1.26 2.01 1.55 1.46.53 2.95 1.06 4.5 1.13.09-1.1-1.62-1.86-1.28-2.91.12-.37.47-.61.82-.78.94-.44 2.01-.53 3.02-.77 1.66-.39 4.66-1.23 3.88-3.51-.26-.75-.79-1.36-1.24-2.02-1.69-2.5-2.02-4.7-1.72-7.7.24-2.34.84-39.37 1.24-54.6.1-3.65-1.09-.29-2.28-.2-.1.13-.17 1.22-.27 1.34"/><path fill="#422b0d" d="m48.6 54.43-.2-.2-.5-.5c-.2-.2-.4-.3-.7-.6-.3-.2-.6-.5-1-.7s-.8-.5-1.2-.7-.9-.4-1.4-.6-1-.3-1.5-.4-1-.1-1.6-.1h.1-1c-.2 0-.5.1-.7.1-.5.1-1 .2-1.5.4s-1 .3-1.4.6c-.4.2-.8.4-1.2.7-.7.5-1.3 1-1.7 1.3l-.6.6-.2.2c-1.2 1.2-3.2 1.2-4.6.2-1-.8-1.3-2.2-.8-3.2l.1-.3c.1-.2.2-.5.4-.8.4-.7 1.1-1.7 2.2-2.8.5-.5 1.2-1.1 1.9-1.6s1.6-1 2.5-1.4 2-.8 3-1c.5-.1 1.1-.2 1.7-.3.3 0 .7-.1.8-.1h.8q1.65 0 3.3.3c1.1.2 2.1.6 3 1s1.8.9 2.5 1.4c.8.5 1.4 1 1.9 1.6.5.5 1 1 1.3 1.5.2.2.3.5.5.7.1.2.3.4.4.6.3.4.3.6.4.8l.1.2c.7 1.5-.1 3.2-1.8 3.8-.9.5-2.4.2-3.3-.7m46.91-.36-.2-.2c-.11-.11-.36-.39-.51-.5q-.285-.24-.69-.57c-.29-.22-.62-.46-.98-.71a14 14 0 0 0-1.2-.68c-.42-.23-.9-.39-1.38-.57-.48-.17-.99-.26-1.5-.37-.51-.08-1.04-.12-1.57-.12h.14-.31l-.31.01c-.26 0-.3.02-.4.03-.16 0-.45.05-.7.09-.51.11-1.02.2-1.5.37-.47.18-.95.34-1.37.57-.43.22-.83.45-1.2.68-.72.48-1.31.96-1.7 1.32-.4.36-.63.58-.63.58l-.25.25c-1.21 1.17-3.25 1.24-4.57.17-1.04-.85-1.3-2.16-.78-3.25l.15-.3c.1-.19.22-.49.44-.84.41-.71 1.09-1.71 2.17-2.76.54-.52 1.17-1.07 1.92-1.57.73-.52 1.58-.99 2.52-1.4.94-.4 1.96-.75 3.04-.97.55-.1 1.06-.2 1.73-.26.31-.03.68-.06.84-.07l.77-.03c1.13.02 2.25.14 3.34.35 1.08.22 2.1.57 3.04.97.93.41 1.79.88 2.52 1.4.75.5 1.37 1.04 1.91 1.57.54.52.97 1.04 1.33 1.51.17.24.33.46.48.67.14.23.28.44.39.63.27.42.29.58.39.77l.11.25c.67 1.49-.14 3.18-1.81 3.78-1.31.47-2.78.11-3.67-.8"/></svg>