<svg xmlns="http://www.w3.org/2000/svg" width="1em" height="1em" viewBox="0 0 128 128"><radialGradient id="a" cx="63.6" cy="2584.9" r="56.96" gradientTransform="translate(0 -2522)" gradientUnits="userSpaceOnUse"><stop offset=".12" stop-color="#fac742"/><stop offset=".32" stop-color="#fac440"/><stop offset=".48" stop-color="#fbba3b"/><stop offset=".62" stop-color="#fba931"/><stop offset=".76" stop-color="#fc9224"/><stop offset=".88" stop-color="#fe7413"/><stop offset="1" stop-color="#ff5100"/></radialGradient><path fill="url(#a)" d="M63.6 118.8c-27.9 0-58-17.5-58-55.9S35.7 7 63.6 7c15.5 0 29.8 5.1 40.4 14.4 11.5 10.2 17.6 24.6 17.6 41.5s-6.1 31.2-17.6 41.4c-10.6 9.3-25 14.5-40.4 14.5"/><path fill="#d84213" d="M111.49 29.67c5.33 8.6 8.11 18.84 8.11 30.23 0 16.9-6.1 31.2-17.6 41.4-10.6 9.3-25 14.5-40.4 14.5-18.06 0-37-7.35-48.18-22.94 10.76 17.66 31 25.94 50.18 25.94 15.4 0 29.8-5.2 40.4-14.5 11.5-10.2 17.6-24.5 17.6-41.4 0-12.74-3.47-24.06-10.11-33.23"/><path d="m21.032 106.208 3.534-33.564 78.994 8.316-3.534 33.565z"/><path fill="#fff" d="m38.73 94.29-2.1-.2-1.39 5.26-2.6-.25L34 93.84l-2.89-.28.23-2.39 3.29.32.9-3.39-2.88-.28.23-2.38 3.27.32 1.43-5.34 2.58.25L38.78 86l2.1.2 1.42-5.34 2.59.25-1.42 5.34 3 .29-.23 2.39-3.4-.33-.91 3.38 3 .29-.23 2.39-3.38-.33-1.39 5.27-2.59-.25zm-1.48-2.55 2.1.2.9-3.38-2.1-.21zM57 96.5c.07-.53-.05-1.06-.35-1.5-.4-.48-.9-.86-1.47-1.12-.72-.38-1.38-.75-2-1.12-.56-.35-1.08-.77-1.53-1.25-.4-.44-.7-.95-.89-1.51-.2-.65-.26-1.33-.18-2 .1-1.18.68-2.26 1.61-3a5.67 5.67 0 0 1 3.62-1.12l.19-2.44 1.81.18-.23 2.45c1.25.25 2.36.97 3.11 2 .72 1.08 1.03 2.4.85 3.69l-3.86-.37c.1-.64 0-1.29-.28-1.87-.48-.77-1.5-1.01-2.27-.53-.06.04-.12.08-.18.13-.33.34-.53.79-.55 1.26-.07.49.05.99.35 1.39.41.46.9.83 1.45 1.1.68.37 1.32.74 1.92 1.13.56.35 1.07.78 1.52 1.26.41.45.72.97.93 1.54.21.64.28 1.33.2 2-.07 1.19-.63 2.3-1.55 3.07-.99.77-2.22 1.17-3.47 1.13l-.23 2.29-1.81-.17.22-2.31a5.82 5.82 0 0 1-3.65-2.07 5.43 5.43 0 0 1-1-3.94l3.84.37c-.11.69.03 1.4.39 2 .37.5.95.81 1.57.84.45.07.91-.06 1.27-.35s.59-.7.65-1.16m8.75 5.18c.04-.59.34-1.12.82-1.46 1.06-.71 2.46-.57 3.37.32a2.1 2.1 0 0 1-.17 2.96c-.04.04-.08.07-.13.11-.51.36-1.13.51-1.74.43-.62-.04-1.2-.31-1.62-.76a2 2 0 0 1-.53-1.6m4.49-3.51-3.44-.33.67-12.59 4.52.44zm26.02-1.99a8.28 8.28 0 0 1-2 4.73 4.51 4.51 0 0 1-3.93 1.46c-.59-.05-1.17-.25-1.66-.58-.45-.33-.8-.77-1-1.29-.8.93-2.02 1.4-3.24 1.25-.72-.06-1.39-.36-1.91-.86a3.74 3.74 0 0 1-1-2c-.19-.92-.19-1.88 0-2.8a8.67 8.67 0 0 1 2.35-4.53 4.83 4.83 0 0 1 3.94-1.43c1.05.08 2.06.46 2.9 1.09l.69.57-1.27 6.83c-.23 1.08.09 1.66 1 1.74.77.02 1.47-.42 1.8-1.11.59-.97.95-2.06 1.06-3.19.49-2.12.13-4.35-1-6.21a6.68 6.68 0 0 0-5.14-2.66 7.2 7.2 0 0 0-4.1.76 7.77 7.77 0 0 0-3.07 3 12.1 12.1 0 0 0-1.61 4.66c-.39 2.73-.06 4.88 1 6.45a6.86 6.86 0 0 0 5.29 2.71c.7.07 1.41.07 2.11 0 .63-.05 1.25-.18 1.85-.36l.25 2c-.63.3-1.31.5-2 .57-.85.12-1.72.12-2.57.02-1.89-.12-3.71-.72-5.3-1.75a7.64 7.64 0 0 1-3-4 13.2 13.2 0 0 1-.39-5.93c.25-2.02.95-3.95 2.05-5.66 1-1.57 2.42-2.82 4.1-3.61 3.4-1.5 7.32-1.19 10.44.83 1.34.94 2.36 2.29 2.89 3.84.6 1.75.76 3.63.47 5.46m-11.87.2a4.6 4.6 0 0 0 0 2.33c.15.5.59.86 1.11.9.4.02.79-.12 1.07-.4.39-.37.7-.83.9-1.33l1-5.32c-.23-.08-.47-.14-.72-.16-.8-.11-1.61.2-2.12.83-.66.93-1.09 2.02-1.24 3.15"/><g fill="#422b0d"><path d="M82.77 51.36c4.19 0 8 3.54 8 9.42s-3.81 9.41-8 9.41-8-3.54-8-9.41 3.81-9.42 8-9.42m-37.54 0c-4.19 0-8 3.54-8 9.42s3.81 9.41 8 9.41 8-3.54 8-9.41-3.81-9.42-8-9.42"/><path d="m36.58 43.73-.11-.09c-1.67-1.49-4.3.92-2.81 3 1.21 1.6 2.67 2.99 4.34 4.11 4.45 3.01 9.98 3.94 15.17 2.54 2.45-.71 1.89-4.25-.35-4.08-5.92.35-11.74-1.62-16.24-5.48m54.84 0 .11-.09c1.67-1.49 4.3.92 2.81 3-1.21 1.6-2.67 2.99-4.34 4.11a18.47 18.47 0 0 1-15.17 2.54c-2.45-.71-1.89-4.25.35-4.08 5.92.35 11.74-1.62 16.24-5.48"/></g><path fill="#896024" d="M44.28 54.87a2.874 2.874 0 0 0-3.82 1.34c-.53 1.11-.29 2.44.6 3.3 1.42.68 3.13.08 3.82-1.34.53-1.11.29-2.44-.6-3.3m38.35 0a2.874 2.874 0 0 0-3.82 1.34c-.53 1.11-.29 2.44.6 3.3 1.42.68 3.13.08 3.82-1.34.53-1.11.29-2.44-.6-3.3"/></svg>