<svg xmlns="http://www.w3.org/2000/svg" width="1em" height="1em" viewBox="0 0 128 128"><radialGradient id="a" cx="63.6" cy="808.9" r="56.96" gradientTransform="translate(0 -746)" gradientUnits="userSpaceOnUse"><stop offset=".5" stop-color="#fde030"/><stop offset=".92" stop-color="#f7c02b"/><stop offset="1" stop-color="#f4a223"/></radialGradient><path fill="url(#a)" d="M63.6 118.8c-27.9 0-58-17.5-58-55.9S35.7 7 63.6 7c15.5 0 29.8 5.1 40.4 14.4 11.5 10.2 17.6 24.6 17.6 41.5s-6.1 31.2-17.6 41.4c-10.6 9.3-25 14.5-40.4 14.5"/><path fill="#eb8f00" d="M111.49 29.67c5.33 8.6 8.11 18.84 8.11 30.23 0 16.9-6.1 31.2-17.6 41.4-10.6 9.3-25 14.5-40.4 14.5-18.06 0-37-7.35-48.18-22.94 10.76 17.66 31 25.94 50.18 25.94 15.4 0 29.8-5.2 40.4-14.5 11.5-10.2 17.6-24.5 17.6-41.4 0-12.74-3.47-24.06-10.11-33.23"/><defs><path id="b" d="M62.82 80.43c-11.5.06-22.98-.9-34.31-2.89a3.51 3.51 0 0 0-4.1 2.79c-.08.44-.08.9 0 1.34 3.26 16 19 29.13 38.4 29.13 21.21 0 35.48-13.57 38.45-29.19.34-1.91-.92-3.73-2.83-4.08-.42-.08-.86-.07-1.28.01a192.6 192.6 0 0 1-34.33 2.89"/></defs><clipPath id="c"><use href="#b"/></clipPath><g clip-path="url(#c)"><path fill="#422b0d" d="M62.82 80.43c-11.5.06-22.98-.9-34.31-2.89a3.51 3.51 0 0 0-4.1 2.79c-.08.44-.08.9 0 1.34 3.26 16 19 29.13 38.4 29.13 21.21 0 35.48-13.57 38.45-29.19.34-1.91-.92-3.73-2.83-4.08-.42-.08-.86-.07-1.28.01a192.6 192.6 0 0 1-34.33 2.89"/></g><path fill="#ff4081" d="M65.54 85h-3.99c-5.73 0-11.38-.27-16.81-.72v24.57c.01 9.47 7.7 17.15 17.17 17.15h3.27c9.48 0 17.17-7.69 17.17-17.17V84.15c-5.42.49-11.06.78-16.81.85"/><path fill="#ab3f2e" d="M63.55 106.25c1.1 0 2-.9 2-2V85h-4v19.24c-.01 1.1.89 2 1.99 2.01z" opacity=".3"/><path fill="#422b0d" d="M44 46.94c-4.19 0-8 3.54-8 9.42s3.81 9.41 8 9.41c4.2 0 8-3.54 8-9.41s-3.76-9.42-8-9.42"/><path fill="#896024" d="M43.65 50.87a2.874 2.874 0 0 0-3.82 1.34c-.53 1.11-.29 2.44.6 3.3 1.42.68 3.13.08 3.82-1.34.53-1.11.29-2.44-.6-3.3"/><path fill="#422b0d" d="M82.4 46.94c-4.19 0-8 3.54-8 9.42s3.81 9.41 8 9.41 8-3.54 8-9.41-3.81-9.42-8-9.42"/><path fill="#896024" d="M82 50.87a2.874 2.874 0 0 0-3.82 1.34c-.53 1.11-.29 2.44.6 3.3 1.42.68 3.13.08 3.82-1.34.53-1.11.29-2.44-.6-3.3"/><path fill="#ab3f2e" d="M65.54 85h-4c-5.73 0-11.38-.27-16.81-.72v3.55c4.74 1.07 18.8 3.48 37.61-.22v-3.46c-5.41.49-11.05.78-16.8.85" opacity=".3"/></svg>