<svg viewBox="0 0 128 128"><radialGradient id="a" cx="63.6" cy="2288.9" r="57" gradientTransform="translate(0 -2226)" gradientUnits="userSpaceOnUse"><stop offset=".5" stop-color="#fde030"/><stop offset=".9" stop-color="#f7c02b"/><stop offset="1" stop-color="#f4a223"/></radialGradient><path fill="url(#a)" d="M63.6 118.8c-27.9 0-58-17.5-58-55.9S35.7 7 63.6 7c15.5 0 29.8 5.1 40.4 14.4 11.5 10.2 17.6 24.6 17.6 41.5s-6.1 31.2-17.6 41.4a61 61 0 0 1-40.4 14.5"/><radialGradient id="b" cx="63.6" cy="2288.9" r="57" gradientTransform="translate(0 -2226)" gradientUnits="userSpaceOnUse"><stop offset=".2" stop-color="#40e3e7"/><stop offset=".5" stop-color="#3fe1e7"/><stop offset=".7" stop-color="#39dae7"/><stop offset=".8" stop-color="#30cde6"/><stop offset=".9" stop-color="#23bce5"/><stop offset=".9" stop-color="#13a5e4"/><stop offset="1" stop-color="#018ce3"/></radialGradient><path fill="url(#b)" d="M63.6 118.8c-27.9 0-58-17.5-58-55.9S35.7 7 63.6 7c15.5 0 29.8 5.1 40.4 14.4 11.5 10.2 17.6 24.6 17.6 41.5s-6.1 31.2-17.6 41.4a61 61 0 0 1-40.4 14.5"/><path fill="#018ce3" d="M111.5 29.7a57 57 0 0 1 8.1 30.2c0 16.9-6.1 31.2-17.6 41.4a61 61 0 0 1-40.4 14.5 59 59 0 0 1-48.2-23 58 58 0 0 0 50.2 26c15.4 0 29.8-5.2 40.4-14.5a54 54 0 0 0 17.6-41.4q-.1-19.2-10.1-33.2"/><linearGradient id="c" x1="38.1" x2="44.6" y1="122.7" y2="106.5" gradientTransform="matrix(1 0 0 -1 0 130)" gradientUnits="userSpaceOnUse"><stop offset="0" stop-color="#fff"/><stop offset=".2" stop-color="#f6fcff"/><stop offset=".6" stop-color="#def3ff"/><stop offset="1" stop-color="#b7e4ff"/></linearGradient><path fill="url(#c)" d="M70.2 19.2c6.5.8 18 2.4 15.5-7.3S66.9 5.3 60.4 4.5s-17.1-3.2-23.6.8-11.4 13.9-16.3 15.5-7.3 1.6-10.2 6.1C7.8 31 5.3 38.6 7 44s8.8.8 19.3-10.7"/><path fill="#b7e4ff" d="M31 66.3a1 1 0 0 0-1.1-.6l-2.2.6q-.8 0-1.6-.3l-3.8-2-.3-.6q0-.3.3-.3l3.8-2.2q.7-.4 1.6-.2l2.2.6a1 1 0 0 0 1-.6h.1l.3-1.3a1 1 0 0 0-.6-1.1l-1.3-.3a1 1 0 0 1-.6-1.1l.3-1.3a1 1 0 0 0-.6-1.1l-1.3-.4a1 1 0 0 0-1 .6l-.7 2.2q-.2.8-1 1.3l-3.8 2.2q-.6.3-.7-.5v-4.3q0-.7.6-1.5l1.6-1.6q.4-.6 0-1.2l-1-1a1 1 0 0 0-1.2 0l-1 1q-.6.6-1.2 0l-1-1a1 1 0 0 0-1.2 0l-1 1q-.5.6 0 1.2l1.7 1.6q.6.7.6 1.5V60q0 .8-.7.4l-3.8-2.2a2 2 0 0 1-1-1.3l-.6-2.2a1 1 0 0 0-1-.6l-1.3.3q-.8.4-.7 1.1l.4 1.3q0 .8-.6 1.1l-1.4.4c-.4 0-.7.6-.6 1l.4 1.3q.3.7 1 .7l2.2-.6a3 3 0 0 1 1.6.2l3.9 2.2q.3.1.2.6l-.3.3-3.6 2q-.8.3-1.7.2l-2.1-.6a1 1 0 0 0-1.1.6l-.3 1.3q-.2.8.6 1l1.3.4q.7.3.6 1l-.4 1.4q0 .8.7 1l1.2.4q.8 0 1.1-.6l.6-2.2q.3-.8 1-1.3l3.8-2.2q.6-.3.7.5v4.3q0 .9-.6 1.5l-1.6 1.6q-.5.7 0 1.3l1 .9q.6.5 1.2 0l1-1q.6-.6 1.2 0l1 1q.7.5 1.3 0l.9-1q.5-.6 0-1.2l-1.6-1.6q-.6-.7-.6-1.5V67q0-.8.7-.4l3.8 2.2q.8.5 1 1.3l.6 2.2q.3.7 1.1.6l1.3-.4q.7-.1.6-1l-.4-1.3q0-.8.6-1.1l1.3-.4q.7-.1.6-1zm90.5-17.7a1 1 0 0 0-.6-1.2l-2.6-.7q-.9-.3-1.5-1.2l-2.5-4.4a.5.5 0 0 1 0-.8l.5-.1h5.1q1 0 1.8.7l1.8 1.9q.7.6 1.4 0l1.1-1q.6-.7 0-1.4l-1.1-1.2a1 1 0 0 1 0-1.4l1.1-1.1q.6-.7 0-1.4l-1-1.2a1 1 0 0 0-1.4 0l-1.9 1.9q-.7.6-1.7.7h-5.1q-1 0-.5-1l2.6-4.3q.6-.9 1.5-1.2l2.5-.6q1-.3.8-1.2l-.4-1.5a1 1 0 0 0-1.2-.8l-1.6.4a1 1 0 0 1-1.2-.7l-.4-1.5a1 1 0 0 0-1.2-.8l-1.5.4a1 1 0 0 0-.8 1.2l.7 2.6q.2 1-.3 1.9l-2.6 4.4q-.6.8-1 0l-2.5-4.4q-.5-1-.2-2l.7-2.5a1 1 0 0 0-.7-1.2l-1.5-.4a1 1 0 0 0-1.3.6l-.4 1.6a1 1 0 0 1-1.2.7l-1.6-.4a1 1 0 0 0-1.2.6l-.5 1.6a1 1 0 0 0 .8 1.2l2.5.7q.9.3 1.5 1.2l2.5 4.4q.3.5 0 .8l-.5.1h-5.1q-1 0-1.8-.7l-1.8-2a1 1 0 0 0-1.4 0L95.4 35a1 1 0 0 0 0 1.4l1.1 1.2q.7.6 0 1.4l-1.1 1a1 1 0 0 0 0 1.5l1 1.1q.7.6 1.5 0l1.9-1.8q.7-.7 1.7-.7h5.1q1 0 .5.9l-2.6 4.4q-.5.9-1.5 1.1l-2.5.7a1 1 0 0 0-.8 1.2l.4 1.5q.4.9 1.2.7l1.6-.4a1 1 0 0 1 1.2.7l.4 1.6q.4.9 1.2.7l1.5-.4q1-.2.8-1.1v-.1l-.7-2.5q0-1 .3-1.9l2.6-4.4q.5-.7 1 0l2.5 4.4q.5 1 .2 2l-.7 2.5q-.1.8.7 1.2l1.5.4a1 1 0 0 0 1.2-.6l.5-1.6a1 1 0 0 1 1.2-.7l1.6.4q.8.3 1.2-.7zM57 116.1l-.8-.2-1.3.9-1.1.2-3-.6q-.3 0-.4-.3l.2-.3 2-2.2q.4-.5 1-.5l1.5-.1q.5 0 .6-.6v-1l-.7-.5h-1l-.6-.5-.1-1-.6-.5h-1q-.5 0-.5.6l.1 1.6q0 .5-.4 1l-2 2.3q-.1.2-.4 0l-.2-.1-1-2.9.1-1.1.7-1.4q.2-.5-.2-.8l-.9-.4-.8.3-.4.8q-.2.4-.8.3l-.8-.4-.8.2-.4.8q-.2.5.2.9l1.4.6q.5.3.8.9l1 2.9q0 .5-.4.4l-3-.6q-.6-.1-1-.6l-.8-1.3a.6.6 0 0 0-.9-.2l-.7.5q-.5.4-.2.8l.5.8q.3.5-.1.9l-.8.5-.2.8.5.8q.4.4.8.1l1.4-.8q.5-.3 1-.2l3 .6q.4 0 .4.3l-.2.2-2 2.3q-.4.5-1 .5l-1.5.1q-.6 0-.6.6v1q0 .5.7.5h.9q.5 0 .6.5l.1 1q0 .5.6.5h1q.5 0 .5-.6l-.1-1.6q0-.6.4-1l2-2.3q.1-.3.4-.1l.2.2 1 2.9-.1 1-.7 1.5q-.2.6.2.8l.9.4q.5.1.8-.3l.4-.8q.3-.5.8-.3l.8.4q.5.2.8-.2l.4-.8q.2-.5-.2-.9l-1.4-.6q-.5-.3-.7-.9l-1-2.9q-.2-.5.4-.4l3 .6q.5 0 .9.6l.8 1.3q.4.5.8.2l.8-.5q.5-.4.2-.8l-.6-.8a.6.6 0 0 1 .2-.9l.8-.5q.4-.3.2-.8z"/><path fill="#422b0d" d="M44 46c-4.2 0-8 3.5-8 9.4s3.8 9.4 8 9.4 8-3.6 8-9.4-3.8-9.5-8-9.5"/><path fill="#896024" d="M43.7 49.9a3 3 0 0 0-3.9 1.3q-.7 1.8.6 3.3a3 3 0 0 0 3.9-1.3 3 3 0 0 0-.6-3.3"/><path fill="#422b0d" d="M82.4 46c-4.2 0-8 3.5-8 9.4s3.8 9.4 8 9.4 8-3.6 8-9.4-3.8-9.5-8-9.5"/><path fill="#896024" d="M82 49.9a3 3 0 0 0-3.8 1.3q-.7 1.8.6 3.3c1.4.7 3.1 0 3.8-1.3.5-1.1.3-2.5-.6-3.3"/><path fill="#fff" d="M39.4 74.1h50a11.4 11.4 0 1 1 0 22.9h-50a11.4 11.4 0 1 1 0-22.9"/><path fill="#b3b3b3" d="M100.7 83.7H28.1a11 11 0 0 0 0 4h72.6q.5-2 0-4"/><path fill="#b3b3b3" d="M89.5 74.1h-.6V97h.6l2.6-.3V74.4q-1.3-.3-2.6-.3m-27 0h3.3V97h-3.2zm-23.1 0q-1.5 0-3.2.5v22q1.5.4 3.2.4zm10 0h3.2V97h-3.2zm26.3 0H79V97h-3.2z"/><path fill="#018ce3" d="M101 85.6q-.7-5.5-5.2-8.7-2.1-1.4-4.7-1.7H86l-10.7.3H53.7l-10.8-.3h-5.2q-2.5.3-4.6 1.7a12 12 0 0 0-5.2 8.6c-.3-3.7 1.3-7.4 4.3-9.8a12 12 0 0 1 5.2-2.4l.7-.2h2.1l2.7-.2 10.8-.2 10.7-.1h10.8l10.7.3 2.7.1H90l.7.2.7.1q3 .6 5.2 2.4c3 2.4 4.6 6 4.3 9.8"/></svg>