<svg viewBox="0 0 128 128"><radialGradient id="a" cx="65.1" cy="61.9" r="53.2" gradientUnits="userSpaceOnUse"><stop offset=".5" stop-color="#fde030"/><stop offset=".9" stop-color="#f7c02b"/><stop offset="1" stop-color="#f4a223"/></radialGradient><path fill="url(#a)" d="M98 33q-.6-1.6-1.5-2.6-1.6-1.3-3.7-1c-4.2.4-10.6-.2-14.7-3-4-3-7-6.9-8.8-10.6v-.1a19 19 0 0 1-21.5 4c-.8 7-8.7 12.1-15.4 10a22 22 0 0 1-20.5 17.9l-.9.2a60 60 0 0 0-1.1 19 21 21 0 0 1 14 11c3.6 6.5 6.6 4.4 12.8 3a32 32 0 0 1 23.7 3 21 21 0 0 1 3.4 2.6C66 83.7 68.5 81.2 75 79a20 20 0 0 1 16.3 1.5c3-6.4 7-12.4 12.6-16.5a30 30 0 0 1 14.4-4.6q-.2-8.1-2.4-15.4c-5.7 1-13.3-.3-18-11"/><path fill="#eb8f00" d="M116.6 58.2v1.4l1.8-.2c-.2-5.3-1-10.8-2.5-15.4l-1 .1q1.5 6.6 1.6 14"/><ellipse cx="44.2" cy="59.4" fill="#422b0d" rx="7" ry="11.5"/><path fill="#422b0d" d="M83.8 70.9c3.7 0 7-4.4 7-11.6s-3.3-11.5-7-11.5-7 4.4-7 11.5 3.3 11.5 7 11.5"/><path fill="#d5ebf5" d="M60.4 83.8a32 32 0 0 0-23.7-3c-6.2 1.4-9.2 3.5-12.9-3C18 67.7 10 66.4 5.5 66.6c-1.1 0-1.6 1.5-.6 2.1a31 31 0 0 1 13.4 18.8s-6.2 7.1-6.6 13.2c-.1 1 1 1.4 1.7.8 5.3-5 21.2-14.5 32.2-10a26 26 0 0 1 16.8 23 2.2 2.2 0 0 0 2.8 2c3-.9 8-1.9 13.5-.8A32 32 0 0 1 94 124c0-10.6-7.8-16.9-17.3-17.9-1-.1-4.3.5-5.2-5.3-1.1-7-5-13.4-11.1-17" opacity=".8"/><path fill="#92cbeb" d="M120 59.3c-5 0-12 1.7-16 4.7a43 43 0 0 0-12.7 16.5s-7-4.6-16.3-1.5c-6.5 2.1-9 4.7-11.2 7.4q4 3.6 6 8.6c4.7-5.1 12.2-6.5 20.2-6 11.4.7 20.1 8.2 20.1 8.2s-2-8.8-11.7-14c4.5-10.1 11.7-18.6 23.1-19.5 1.5-.2 3.8-.2 3.8-1.5 0-1-2.2-3-5.4-3" opacity=".8"/><path fill="#d5ebf5" d="M108 11.6c.4-.5 1.2-.3 1.3.4.7 8.3-6.2 14.3-6.5 15-.7 1.3 1.4 4.7 2.2 5.9a21 21 0 0 0 5.1 5.2 20 20 0 0 0 11.7 3c.5 0 .7.7.2 1-4.9 2.2-17.4 6.2-24-9.2q-.6-1.4-1.6-2.5-1.6-1.3-3.7-1c-4.1.4-10.5-.2-14.6-3.1-9.8-7-12.8-19.7-10.6-22.9 1-1.4 2.5 10.9 15.1 14.7 15 4.4 21.2-1.2 25.4-6.5" opacity=".8"/><path fill="#92cbeb" d="M67.3 9.6c-4.2 4.2-12.4 7.7-18 5.8 1.6-8-4.2-11-4.2-11s3.8 11.4-7 17.8-20.2-3.5-20.2-3.5c-1.4 7.9 6.4 11 6.4 11s.4 10.5-21.5 14.8c0 0 4.2 6.5 17.5.9 6.3-2.6 10.5-9 12-15.7 6.7 2.2 14.7-3 15.5-10 7 3.2 16 1.6 21.4-4 0 0-1.3-2.4-2-6.1" opacity=".7"/></svg>