<svg xmlns="http://www.w3.org/2000/svg" width="1em" height="1em" viewBox="0 0 128 128"><radialGradient id="notoFaceWithSteamFromNose0" cx="63.6" cy="2584.9" r="56.96" gradientTransform="translate(0 -2522)" gradientUnits="userSpaceOnUse"><stop offset=".5" stop-color="#FDE030"/><stop offset=".92" stop-color="#F7C02B"/><stop offset="1" stop-color="#F4A223"/></radialGradient><path fill="url(#notoFaceWithSteamFromNose0)" d="M63.6 118.8c-27.9 0-58-17.5-58-55.9S35.7 7 63.6 7c15.5 0 29.8 5.1 40.4 14.4c11.5 10.2 17.6 24.6 17.6 41.5s-6.1 31.2-17.6 41.4c-10.6 9.3-25 14.5-40.4 14.5"/><path fill="#EB8F00" d="M111.49 29.67c5.33 8.6 8.11 18.84 8.11 30.23c0 16.9-6.1 31.2-17.6 41.4c-10.6 9.3-25 14.5-40.4 14.5c-18.06 0-37-7.35-48.18-22.94c10.76 17.66 31 25.94 50.18 25.94c15.4 0 29.8-5.2 40.4-14.5c11.5-10.2 17.6-24.5 17.6-41.4c0-12.74-3.47-24.06-10.11-33.23"/><path fill="#35220B" d="M83.9 90.7c-.39-.01-.76-.11-1.1-.3A37.058 37.058 0 0 0 64 85.6c-6.58-.05-13.05 1.6-18.8 4.8c-.3.19-.65.29-1 .3c-.8-.03-1.53-.49-1.9-1.2c-.31-.73-.19-1.58.3-2.2c10.36-11.82 28.34-13 40.16-2.64c.94.82 1.82 1.7 2.64 2.64c.74.88.62 2.18-.25 2.92c-.35.29-.79.46-1.25.48m-10-40.6c.08.01.15.04.2.1c.11.01.19.09.2.2c.1 0 .1 0 .2.1c.23.12.46.22.7.3l.9.3c.82.27 1.65.47 2.5.6c.5.1 1 .1 1.5.2c.53.08 1.06.12 1.6.1h1.6a7.52 7.52 0 0 0 1.5-.2c1-.2 1.8-.4 2.5-.6s1.2-.5 1.6-.6c.22-.05.43-.15.6-.3l.5-.2a3 3 0 0 1 4 1.2a3.01 3.01 0 0 1-.3 3.3c-.08.09-.15.19-.2.3c-.17.26-.37.5-.6.7c-.76.76-1.6 1.43-2.5 2c-1.24.53-2.51 1-3.8 1.4c-.76.21-1.52.38-2.3.5c-.4 0-.8.1-1.3.1h-1.2c-.8-.02-1.6-.08-2.4-.2c-.78-.11-1.55-.28-2.3-.5c-1.38-.36-2.69-.94-3.9-1.7c-.6-.3-1-.7-1.5-1c-.39-.31-.76-.64-1.1-1l-.4-.4c-.1-.1-.1-.2-.2-.2l-.2-.2c-.99-1.33-.73-3.21.6-4.2c1.06-.68 2.41-.72 3.5-.1m-36.8 0c.08.01.15.04.2.1c.11.01.19.09.2.2c.1 0 .1 0 .2.1c.23.12.46.22.7.3l.9.3c.82.27 1.65.47 2.5.6c.5.1 1 .1 1.5.2c.53.09 1.06.12 1.6.1h1.6a7.52 7.52 0 0 0 1.5-.2c1-.2 1.8-.4 2.5-.6s1.2-.5 1.6-.6c.22-.05.43-.15.6-.3l.5-.2a3 3 0 0 1 4 1.2a3.01 3.01 0 0 1-.3 3.3c-.08.09-.15.19-.2.3c-.17.26-.37.5-.6.7c-.74.78-1.58 1.45-2.5 2c-1.24.76-2.59 1.34-4 1.7c-.76.21-1.52.38-2.3.5c-.4 0-.8.1-1.3.1h-1.2c-.8-.02-1.6-.08-2.4-.2c-.78-.11-1.55-.28-2.3-.5c-1.4-.38-2.75-.95-4-1.7c-.5-.3-1-.7-1.5-1c-.39-.31-.76-.64-1.1-1l-.4-.4c-.1-.1-.1-.2-.2-.2l-.2-.2c-.99-1.33-.73-3.21.6-4.2c1.06-.9 2.57-1.06 3.8-.4"/><path fill="#422B0D" d="m75.52 37.89l-.1.12c-1.46 2-4.78.52-3.63-2c.97-2.01 2.24-3.86 3.76-5.49c4.07-4.42 9.68-7.11 15.67-7.52c1.14-.1 2.15.76 2.25 1.9a2.08 2.08 0 0 1-1.77 2.23a29.524 29.524 0 0 0-16.18 10.76m-21.1 1l.09.12c1.47 2 4.79.52 3.64-2a22.24 22.24 0 0 0-3.77-5.49A23.46 23.46 0 0 0 38.72 24c-1.14-.11-2.16.73-2.27 1.87c-.11 1.11.68 2.1 1.78 2.26a29.549 29.549 0 0 1 16.19 10.76"/><path fill="#FFF" d="M5.77 92c.8-.96.92-2.31.3-3.4A10.163 10.163 0 0 1 5 80.9c1.07-4.45 4.93-7.66 9.5-7.9h.6c1.71.01 3.39.44 4.9 1.25c1.6.92 3.02 2.15 4.16 3.6c3.52-1.46 18.5-7 22.37-8.43h.06L36.33 91.17c4.64 3.43 5.62 9.98 2.19 14.62a10.428 10.428 0 0 1-7.75 4.21h-.61c-2.44.02-4.81-.83-6.69-2.4c-.56-.46-1.27-.71-2-.7c-.6.01-1.19.18-1.7.5a10.81 10.81 0 0 1-5.91 1.8c-.81 0-1.61-.1-2.39-.3c-4.51-1.02-7.8-4.89-8.11-9.5c-.2-2.69.67-5.35 2.41-7.4"/><path fill="#92CBEB" d="M46.56 69.4L31.18 89.69l5.15 1.48z"/><path fill="#92CBEB" d="M31.65 89.34c-.38.02-.67.33-.65.71c.01.25.16.47.38.58c2.06.9 3.55 2.74 4 4.94c.42 2.32-.2 5.32-2 7s-4.78 2-7.07 1.4s-5-3-6.77-4.79a.8.8 0 0 0-1.12-.02c-.13.12-.21.28-.23.46c-.1.96-.02 1.93.26 2.85c.14.91-4.51 4.41-9.78 1.59C1.18 100 7.11 91.5 6.26 91.17c-.12.3-.28.58-.49.83a10.266 10.266 0 0 0-2.41 7.4c.31 4.61 3.6 8.48 8.11 9.5c.78.2 1.58.3 2.39.3c2.1-.01 4.16-.64 5.91-1.8c.51-.32 1.1-.49 1.7-.5c.73-.01 1.44.24 2 .7c1.88 1.57 4.25 2.42 6.69 2.4h.61c5.76-.36 10.14-5.32 9.77-11.08c-.19-3.08-1.74-5.91-4.21-7.75l.61-1.31c-1.72-.5-3.51-.67-5.29-.52M5 80.9c-.67 2.61-.27 5.38 1.1 7.7c.42.79.49 1.72.19 2.56a6.213 6.213 0 0 0 2.39-3.88c.1-1.69-.09-3.38-.58-5c-.45-1.37-.37-2.85.23-4.16c1.09-2.61 4.35-4.13 4.63-4.24c.68-.28.82-.59.79-.8A10.31 10.31 0 0 0 5 80.9"/><path fill="#FFF" d="M122.23 92a2.99 2.99 0 0 1-.3-3.4c1.37-2.32 1.77-5.09 1.1-7.7a10.321 10.321 0 0 0-9.5-7.9h-.6c-1.72 0-3.42.43-4.93 1.25c-1.6.92-3.02 2.15-4.16 3.6c-3.52-1.46-18.5-7-22.37-8.43h-.06l10.26 21.75c-4.64 3.43-5.62 9.98-2.19 14.62c1.83 2.48 4.67 4.02 7.75 4.21h.61c2.44.02 4.81-.83 6.69-2.4c.56-.46 1.27-.71 2-.7c.6.01 1.19.18 1.7.5a10.81 10.81 0 0 0 5.91 1.8c.81 0 1.61-.1 2.39-.3c4.51-1.02 7.8-4.89 8.11-9.5c.2-2.69-.67-5.35-2.41-7.4"/><path fill="#92CBEB" d="m81.44 69.4l15.37 20.29l-5.14 1.48z"/><path fill="#92CBEB" d="M96.35 89.34c.38.02.67.33.65.71c-.01.25-.16.47-.38.58c-2.06.9-3.55 2.74-4 4.94c-.42 2.32.2 5.32 2 7s4.78 2 7.07 1.4s5-3 6.77-4.79a.8.8 0 0 1 1.12-.02c.13.12.21.28.23.46c.1.96.02 1.93-.26 2.85c-.14.91 4.51 4.41 9.78 1.59c7.51-4 1.58-12.51 2.43-12.84c.12.3.28.58.49.83c1.74 2.05 2.61 4.71 2.41 7.4c-.31 4.61-3.6 8.48-8.11 9.5c-.78.2-1.58.3-2.39.3c-2.1-.01-4.16-.64-5.91-1.8c-.51-.32-1.1-.49-1.7-.5c-.73-.01-1.44.24-2 .7a10.305 10.305 0 0 1-6.69 2.4h-.61c-5.76-.36-10.14-5.32-9.77-11.08c.19-3.08 1.74-5.91 4.21-7.75l-.61-1.31c1.71-.51 3.49-.7 5.27-.57M123 80.9c.67 2.61.27 5.38-1.1 7.7c-.42.79-.49 1.72-.19 2.56a6.213 6.213 0 0 1-2.39-3.88c-.1-1.69.09-3.38.58-5c.45-1.37.37-2.85-.23-4.16c-1.09-2.61-4.35-4.13-4.63-4.24c-.68-.28-.82-.59-.79-.8c4.26.53 7.75 3.65 8.75 7.82"/></svg>