<svg xmlns="http://www.w3.org/2000/svg" width="1em" height="1em" viewBox="0 0 128 128"><path fill="#b6885a" d="M107.35 61.36c0 23.37-10.81 43.95-42.76 43.68-35.15-.3-43.32-17.15-43.52-42-.19-23.37 13.34-45.35 42.46-45.35 27.34-.01 43.82 20.3 43.82 43.67"/><path fill="#ffcd88" d="M64.4 44.12c7.46-.23 15.54-10.47 24.5-2.28 8.22 7.51 1.72 14.46 1.93 21.56.17 5.88 5.97 10.14 1.32 19.07-3.75 7.2-13.56 13.51-26.34 13.28-16.44-.3-27.35-6.38-30.09-14.5-2.67-7.91 3.07-12.28 2.76-18.36-.3-6.09-6.78-15.39 1.65-21.51 11.46-8.32 16.35 2.98 24.27 2.74"/><path fill="#393531" d="M64.29 66.49c3.88.08 5.3.08 5.17 2.02-.08 1.22-2.59 3.65-5.02 3.69-2.05.04-5.1-2.02-5.29-3.8-.21-2.02 1.33-1.99 5.14-1.91"/><path fill="#b6885a" d="M104.77 50.86s14.81.61 14.61 14-12.83 14.76-15.47 14.66.86-28.66.86-28.66m-81.72.35S9.25 50.8 8.75 64.3s12.38 15.42 15.62 15.83c3.24.4-1.32-28.92-1.32-28.92"/><path fill="#ff6b17" d="M63.52 75.03c16.59.2 19.42 2.79 19.28 5.53-.2 3.86-6.8 8.47-18.82 8.37-12.58-.11-18.92-4.41-19.07-8.12-.15-3.65 8.27-5.9 18.61-5.78"/><path fill="#ffcd88" d="M22.23 74.65c.36-.13-.26-4.64-.51-9.03-.23-4.13-.09-8.15-.2-8.32-.41-.61-8.12-.3-8.12 7.91s8.02 9.74 8.83 9.44m83.19-17.76c.54-.36 8.81.91 8.62 9.23-.2 8.93-7.81 9.33-8.72 8.72-.47-.32.22-4.41.3-8.93.08-4.18-.49-8.82-.2-9.02"/><path fill="#b8885a" d="m31.97 77.59 11.87-5.07 12.17-3.65s5.78-7.41 5.38-9.44c-.41-2.03-2.13-8.72-5.17-9.94s-6.58-.72-9.09.72c-2.05 1.18-4.43 4.39-4.76 1.75-.14-1.11 4.45-5.36 4.45-5.36s1.14-1.69-1.29-2.4-6.96 1.74-8.08 2.35-5.28 3.15-5.28 3.15L12.49 74.95S2.55 85.1 2.34 95.65s6.46 18.69 19.45 17.07 22.45-20.01 22.45-20.01l-15.02-7s-4.57 10.35-7.1 9.23.61-8.01.61-8.01zm67.67 9.13L87.47 99.3s6.73 15.63 20.73 15.33 20.44-14.7 16.28-25.86-16.01-23.66-16.01-23.66L94.06 49.39s-7.05-7.41-11.41-6.19 3.91 8.01 3.91 8.01-1.12 2.08-3.15 1.07-9.64-7.25-14.46 1.62c-4.26 7.85 1.78 11.72 1.78 11.72l11.36 6.39 12.99 5.38 7.61 7.41s3.86 8.12 3.65 8.83c-.2.71-2.54-.61-4.16-3.04s-2.54-3.87-2.54-3.87"/><path fill="#855b53" d="M46.71 44.85c-.49-.4-.1 1.94-2.16 3.12-2 1.15-3.14 2.38-2.64 3.6 1.03 2.51.88-.29 2.74-1.43 1.68-1.03 4-3.7 2.06-5.29"/><path fill="#865b52" d="M56.02 49.79c.56 1.01 5.28 3.35 3.93 9.21-1.02 4.44-4.93 7.72-12.44 10.58-7.61 2.89-18.11 5.56-24.16 12.78-4.72 5.63-6.16 12.21-2.74 14.27 2.24 1.35.19-2.85 1.86-6.89 1.67-4.03 7.04-8.75 12.75-11.72s20.81-6.24 24.84-12.48 2.27-10.21.67-12.45c-2.05-2.89-5.43-4.6-4.71-3.3m25.01-5.25c-.47 1.18-.76 2.82 1.6 4.64 2.36 1.83 2.55 2.66 2.17 3.12s-.15.76 2.05-.15c2.21-.91-1.03-3.27-1.86-4.18-.84-.91-3.18-2.59-2.47-4.03.7-1.45-1.19-.16-1.49.6m-7.92 5.86c-.5.73-6.44 6.9-2.43 13.29 2.87 4.58 7.61 5.5 12.4 6.87s10.26 4.05 13.35 5.97c4.72 2.93 6.77 5.99 9.09 9.36 2.78 4.03 3.35 9.32-.42 11.38-1.61.88.02-3.28-.23-5.02-.46-3.16-1.86-4.91-2.85-5.97-.99-1.07-4.34-5.36-9.13-7.95s-12.1-4.67-14.23-5.4c-3.73-1.29-8.55-3.65-10.68-8.83-2-4.86 0-9.79 2.23-12.38 1.39-1.6 4.2-3.22 2.9-1.32"/></svg>