<svg viewBox="0 0 128 128"><radialGradient id="a" cx="63.6" cy="-2382.8" r="57" gradientTransform="matrix(1 0 0 -1 0 -2316.949)" gradientUnits="userSpaceOnUse"><stop offset=".5" stop-color="#fde030"/><stop offset=".9" stop-color="#f7c02b"/><stop offset="1" stop-color="#f4a223"/></radialGradient><path fill="url(#a)" d="M63.6 121.8c-27.9 0-58-17.5-58-55.9S35.7 10 63.6 10c15.5 0 29.8 5.1 40.4 14.4 11.5 10.2 17.6 24.6 17.6 41.5s-6.1 31.2-17.6 41.4a61 61 0 0 1-40.4 14.5"/><path fill="#eb8f00" d="M111.5 32.7a57 57 0 0 1 8.1 30.2c0 16.9-6.1 31.2-17.6 41.4a61 61 0 0 1-40.4 14.5c-18 0-37-7.3-48.2-23a58 58 0 0 0 50.2 26c15.4 0 29.8-5.2 40.4-14.5a54 54 0 0 0 17.6-41.4q-.1-19.2-10.1-33.2"/><path fill="#422b0d" d="M84.7 87c-3-.3-9.6-.5-21.5-.5s-18.6.2-21.6.6c-1.8.2-2.5 2.5-.2 4 4.2 2.8 10.6 4.7 21.8 4.8 11.1-.1 17.5-2 21.7-4.8 2.3-1.5 1.6-3.8-.2-4"/><path fill="#f09300" d="m73.5 14-.1-.3c-1.2-1.3-5-3.4-6.9-2.3-.8.4-1 2-1.4 2.7l-2.3 4C60 22 19.3 52 19.3 52L7.7 50c-1.1 2.9-1.3 6.2-1.3 6.2s3.2 2.3 16.4 1.6c8.5-.5 24.7-7.5 27.8-12.6.8-1.3 7-10 7-10.7 1.3-.8 8.4-5 12-8.1 2.9-2.4 4.7-4.2 5-8q.3-2.5-1-4.6"/><path fill="#422b0d" d="M44 48c-4.2 0-8 3.5-8 9.4s3.8 9.4 8 9.4 8-3.6 8-9.4-3.8-9.5-8-9.5"/><path fill="#896024" d="M43.7 51.9c-1-.8-2.6-.5-3.6 1-1 1.4-.7 2.9.3 3.6s2.6.5 3.6-1 .7-3-.4-3.6"/><path fill="#422b0d" d="M82.4 48c-4.2 0-8 3.5-8 9.4s3.8 9.4 8 9.4 8-3.6 8-9.4-3.8-9.5-8-9.5"/><path fill="#896024" d="M82 51.9c-1-.8-2.6-.5-3.6 1-1 1.4-.6 2.9.4 3.6s2.6.5 3.6-1c1-1.4.6-3-.4-3.6"/><linearGradient id="b" x1="51.8" x2="35.7" y1="59.9" y2="20.2" gradientUnits="userSpaceOnUse"><stop offset="0" stop-color="#ffc400"/><stop offset="1" stop-color="#fff176"/></linearGradient><path fill="url(#b)" d="M7.7 50.2C-.4 42 2 23.5 17.5 19.2c7.3-2 10.4-4.3 14.4-5.8 5.4-2 12.4-6.4 14.9-6.5a5 5 0 0 1 4.5 2.5l5.5-3.2q3.3-2.2 5.1-1c1.6.9 2.6 3.2 2.6 3.2l2.1-2C68.1 5 71 5.4 72.2 8c1.1 2.4-1 7.4-1 7.4s3.2 0 1.7 4.7-4 5.9-5.7 7.5-7 4.7-9.3 6.1c0 0 1.9 2.2 1 5-.3 1.2-1.4 2-2.3 2.9L47 48.3a54 54 0 0 1-20.3 8s-10.8 2.1-19-6.1"/><path fill="#f09300" d="M15.8 41.3c-1.3.6-3-.1-1.8-1.6 2.5-2.5 5.3-4.6 7.3-7.5 1.1-1.3 2-3 2.4-3.7s1-1.4 1.2-.5c.2.6-.1 1.9-.5 2.8-2 4-4.6 8.2-8.6 10.5"/><path fill="#f09300" d="M73.5 20.5c1.7-4.7-1.7-5.9-1.7-5.9s2.4-4.4.6-7.5q-2-3.3-5.2-1.6c-1.4.7-2.8 2.1-2.8 2.1s-.4-2.2-2-3c-2-1-3.4-1-6.3 1.2l-4.8 3.6c-2-3.2-4.5-2.5-4.6-2.5-2.4.1-9.4 4.5-14.8 6.5-4 1.5-8 2.1-15 4.8C3.5 23.4.8 33.5 3.7 42.8 2.9 28.8 11 23.8 18 21q6-2 9.6-3 7-1.8 13.3-5.3l4.4-2.4q1.7-.7 3 .2c.9.5 1.9 1.7.5 3.6-1.2 1.6-4.5 2.8-7.4 4.1-1.6.9-11.3 5-9.7 7.3q.5.6 1.3.5c.4-.1 1.3-.2 1.6-.6 2.6-2.5 6-3.7 9.4-5.4 3.8-1.7 7-3.2 8.7-7.7l.6-.4 5.4-4.5c1.4-1.2 4-.3 4.4 1.4s-.8 3.3-3.2 5.8C55.7 19 45.4 22.8 41 28c-.7.9.2 2.3 1.3 2 .5-.1 1.3-.3 2.5-1.8s4.4-3.5 8.3-5.8c5.1-3.1 10-7.2 12-12.3a5 5 0 0 1 4.1-2.5c1.9 0 3.1 2.3 1.7 5.2-.7 1.4-1.3 2.6-4.3 5.7a42 42 0 0 1-9.9 7c-3.3 2-6.6 4-8.2 6-.8.8-.3 2.3.9 2 .4-.1.7.2 1.8-1.1s3.6-3.2 6.6-5q8-4 13-11s2 .3 1.3 3c-1.7 7.3-10.6 10-16.3 14-3.3 1.7-11.6 8.4-13.2 7.7-3.6-1.6-13.2-2.2-18.5 3-.6.5-1.6 1.5-1.3 2s1-.3 1.5-.6c4.2-2.6 10.2-4 17.4-1.7 1.6.5 12.3-6.5 15.4-8.5l8.5-5.4c3-2.1 6.3-4.7 8-9.5"/><path fill="#f09300" d="m58.6 34-2.2 1.2c.2.2 1.5 1.5 1.3 2.5-.1.4 0 1.3-2 2.8L45 48c-23.8 15.8-39 .5-37.4 2.2 8.2 8.2 19.4 7 19.4 7 10.3-1.4 17-5.8 20.3-8.2 1.5-1 8.7-6 10-7.2q1.6-1.3 2.4-3a5 5 0 0 0-1.2-4.7"/></svg>