<svg viewBox="0 0 128 128"><defs><path id="b" fill="#eb8f00" d="M111.9 29.7a57 57 0 0 1 8.1 30.2c0 16.9-6.1 31.2-17.6 41.4A61 61 0 0 1 62 115.8c-18 0-37-7.3-48.2-23a58 58 0 0 0 50.2 26c15.4 0 29.8-5.2 40.4-14.5A54 54 0 0 0 122 62.9q-.1-19.2-10.1-33.2"/></defs><radialGradient id="a" cx="64" cy="-2088.9" r="57" gradientTransform="matrix(1 0 0 -1 0 -2026)" gradientUnits="userSpaceOnUse"><stop offset=".5" stop-color="#fde030"/><stop offset=".9" stop-color="#f7c02b"/><stop offset="1" stop-color="#f4a223"/></radialGradient><path fill="url(#a)" d="M64 118.8c-27.9 0-58-17.5-58-55.9S36.1 7 64 7c15.5 0 29.8 5.1 40.4 14.4C115.9 31.6 122 46 122 62.9s-6.1 31.2-17.6 41.4A61 61 0 0 1 64 118.8"/><use href="#b"/><radialGradient id="c" cx="64" cy="-2088.9" r="57" gradientTransform="matrix(1 0 0 -1 0 -2026)" gradientUnits="userSpaceOnUse"><stop offset=".5" stop-color="#fde030"/><stop offset=".9" stop-color="#f7c02b"/><stop offset="1" stop-color="#f4a223"/></radialGradient><path fill="url(#c)" d="M64 118.8c-27.9 0-58-17.5-58-55.9S36.1 7 64 7c15.5 0 29.8 5.1 40.4 14.4C115.9 31.6 122 46 122 62.9s-6.1 31.2-17.6 41.4A61 61 0 0 1 64 118.8"/><use href="#b"/><path fill="#422b0d" d="M82.1 34.7c-8.4 2.3-13 9.5-11.6 18.7C71.4 59 77 70 92 66.7c9-2 13.5-8.6 13.3-17.1q-.1-.7-.4-.9s-.3.2-.6 1.5c-1.7 6.4-6.2 12.4-14.2 13.3-10 1-15.2-5.9-16-10.9-1-6.6 2.4-12.5 9-14.3 3.8-1 7.5 0 10.2 3 1.3 1.5 2.7 4 2.2 6.6-1.3 7-7.8 6.9-10 5.2-1.7-1.2-2.3-3.9 1.3-4.8 1.2-.3 2.4-.6 2.7-2.3.2-1-.7-2.2-1.6-2.7-2.2-1-4.9 0-6.5 1.3a7 7 0 0 0-2 6.5 9 9 0 0 0 4.8 6c3.5 1.8 12.7 1.6 14.9-7.4 1-4.2-.8-8.5-2.8-10.7-5.4-6.2-13-4.7-14.3-4.3M45.9 66.8c8.5-2.3 13-9.4 11.6-18.6-.9-5.7-6.5-16.7-21.6-13.3a16 16 0 0 0-13.3 17q.1.9.4.9s.2-.2.6-1.5C25.3 45 29.8 39 37.8 38.1c10-1.1 15.2 5.8 16 10.8 1 6.7-2.4 12.5-9 14.3a10 10 0 0 1-10.2-3c-1.3-1.4-2.7-4-2.2-6.6 1.3-7 7.8-6.9 10-5.2 1.7 1.3 2.3 4-1.2 4.8-1.3.3-2.5.6-2.8 2.3-.2 1.1.7 2.2 1.6 2.7 2.2 1.1 4.9 0 6.5-1.3a7 7 0 0 0 2-6.4 9 9 0 0 0-4.8-6.1c-3.5-1.8-12.7-1.5-14.9 7.5-1 4.1.8 8.4 2.8 10.6 5.4 6.2 13 4.7 14.3 4.4m53.6 20.4c-1.5-1.8-6-4.8-14.3-.8-1.9.9-2.8 2-6.2 1.7-2.2-.2-3.8-1.2-5.7-2.4a17 17 0 0 0-9.3-3.5c-4.2.2-6.9 2-9.3 3.5a12 12 0 0 1-5.7 2.4c-3.3.2-4.4-.6-6.2-1.5-8.3-4-12.8-1.2-14.3.6-1.3 1.5-.4 3.1 2 1.4 1.6-1 4.3-2.5 10.4 1 2 1.1 3.8 2.8 8.4 2.5 3.2-.3 5.4-1.7 7.6-3 2-1.4 4-2.7 7.1-2.9 3 .2 5 1.5 7.1 2.8 2.2 1.4 4.4 2.9 7.6 3 4.6.4 6.4-1.4 8.3-2.6 6.2-3.4 9-1.9 10.5-.8 2.4 1.7 3.3.1 2-1.4"/></svg>