<svg viewBox="0 0 128 128"><radialGradient id="a" cx="63.6" cy="1104.9" r="57" gradientTransform="translate(0 -1042)" gradientUnits="userSpaceOnUse"><stop offset=".5" stop-color="#fde030"/><stop offset=".9" stop-color="#f7c02b"/><stop offset="1" stop-color="#f4a223"/></radialGradient><path fill="url(#a)" d="M63.6 118.8c-27.9 0-58-17.5-58-55.9S35.7 7 63.6 7c15.5 0 29.8 5.1 40.4 14.4 11.5 10.2 17.6 24.6 17.6 41.5s-6.1 31.2-17.6 41.4a61 61 0 0 1-40.4 14.5"/><path fill="#eb8f00" d="M111.5 29.7a57 57 0 0 1 8.1 30.2c0 16.9-6.1 31.2-17.6 41.4a61 61 0 0 1-40.4 14.5 59 59 0 0 1-48.2-23 58 58 0 0 0 50.2 26c15.4 0 29.8-5.2 40.4-14.5a54 54 0 0 0 17.6-41.4q-.1-19.2-10.1-33.2"/><path fill="#422b0d" d="M75 96H53a4 4 0 1 1 0-8h22a4 4 0 1 1 0 8m8.5-50c3.7 0 7 4.3 7 11.5S87.2 69 83.5 69s-7-4.3-7-11.5 3.3-11.4 7-11.5m-56.4-.4 1.1-2.1 1.4-1.8q1.7-1.8 4-2.9 2.4-1 5.1-1 2.5 0 4.8 1.2l1 .5.8.4 1.6.7 3.2 1 1.6.2H53q.6 0 1.2-.4l1.2-.8.2-.2c1-.7 2.4-.5 3.1.5q1 1.5-.2 2.9l-1.9 1.6q-1 .8-2.4 1.1l-1.4.3-1.2.2-2.3-.1a19 19 0 0 1-6.3-1.8l-1.8-.8a8 8 0 0 0-5.3-.3q-1.3.5-2.5 1.4l-1.2 1-1.1 1.1-.4.5c-.8.9-2.1.9-3 .1l-.1-.1q-1-1-.5-2.4m67.5-9.9-1.9-3a8 8 0 0 0-1.7-2.1l-.7-.5-.7-.2q-1 0-2.1.3a26 26 0 0 0-5.5 2.7l-5.6 3.8c-1 .7-2.4.4-3.1-.6-.6-.8-.5-2 .2-2.7a36 36 0 0 1 5.3-5q3-2.5 6.9-3.9 2.4-.7 4.8-.4a8 8 0 0 1 4.6 2.7q1.5 1.6 2.2 3.7l1.2 3.2v.1a2.3 2.3 0 0 1-1.4 2.9q-1.6.3-2.5-1m-51 15.2c-4.1 0-8 3.6-8 9.5s3.9 9.4 8 9.4 8-3.6 8-9.4-3.7-9.5-8-9.5"/><path fill="#896024" d="M43.3 54.9a3 3 0 0 0-3.8 1.3q-.8 1.8.6 3.3c1.4.7 3 0 3.8-1.3.5-1.1.3-2.5-.6-3.3M82.8 50q-2.5.1-2.8 2.4v.2a2.6 2.6 0 0 0 2.1 3c1.4.1 2.6-1 2.7-2.4q.3-2.4-2-3.1"/></svg>