<svg xmlns="http://www.w3.org/2000/svg" xml:space="preserve" viewBox="0 0 128 128"><radialGradient id="a" cx="63.6" cy="3176.9" r="56.96" gradientTransform="translate(0 -3114)" gradientUnits="userSpaceOnUse"><stop offset=".5" style="stop-color:#fde030"/><stop offset=".92" style="stop-color:#f7c02b"/><stop offset="1" style="stop-color:#f4a223"/></radialGradient><path d="M63.6 118.8c-27.9 0-58-17.5-58-55.9S35.7 7 63.6 7c15.5 0 29.8 5.1 40.4 14.4 11.5 10.2 17.6 24.6 17.6 41.5s-6.1 31.2-17.6 41.4c-10.6 9.3-25 14.5-40.4 14.5" style="fill:url(#a)"/><path d="M111.49 29.67c5.33 8.6 8.11 18.84 8.11 30.23 0 16.9-6.1 31.2-17.6 41.4-10.6 9.3-25 14.5-40.4 14.5-18.06 0-37-7.35-48.18-22.94 10.76 17.66 31 25.94 50.18 25.94 15.4 0 29.8-5.2 40.4-14.5 11.5-10.2 17.6-24.5 17.6-41.4 0-12.74-3.47-24.06-10.11-33.23" style="fill:#eb8f00"/><path d="M64 93.81c-11.51 0-19.73-6-22.2-9.74a4.15 4.15 0 0 1-.5-4.22c.47-.89 1.4-1.44 2.41-1.41.37 0 .74.06 1.09.17A65 65 0 0 0 64 81.39c6.5.04 12.98-.9 19.2-2.78.35-.11.72-.17 1.09-.17 1.01-.03 1.94.52 2.41 1.41a4.15 4.15 0 0 1-.5 4.22c-2.47 3.76-10.69 9.74-22.2 9.74m60-48.39s-4.26.09-4.26 3.5c0 8.42.1 26.49-22 26.49-17.66 0-26.09-9.12-27.51-19.19-.58-4.19-2-8.75-6.27-8.75s-5.65 4.53-6.23 8.75c-1.42 10.07-9.85 19.19-27.51 19.19-22.06 0-22-18.07-22-26.49 0-3.41-4.26-3.5-4.26-3.5v-8.34a149 149 0 0 1 20.65-1.26c12.48 0 17.45 0 27.38 1 5.87.58 12 .65 12 .65s6.1-.07 12-.65c9.93-1 14.9-1 27.38-1 6.9-.06 13.79.37 20.63 1.26z" style="fill:#422b0d"/><path d="M21.12 52c-.1 1.6-.74 3.08-2.31 3.38-.18.03-.35.05-.53.05A2.89 2.89 0 0 1 15.44 53c-.61-2.76.06-5.65 1.82-7.86a8.5 8.5 0 0 1 6.58-3.08c1.51-.14 2.85.97 2.99 2.48 0 .03.01.06.01.1 0 1.88-1.5 2.68-3 3.2-1.64.74-2.7 2.36-2.72 4.16m63.58 0c-.09 1.6-.74 3.08-2.3 3.38A2.9 2.9 0 0 1 79 53c-.61-2.76.06-5.65 1.82-7.86a8.52 8.52 0 0 1 6.59-3.08c1.51-.14 2.85.97 2.99 2.48 0 .03.01.06.01.1 0 1.88-1.5 2.68-3 3.2A4.62 4.62 0 0 0 84.7 52" style="fill:#896024"/></svg>