<svg viewBox="0 0 128 128"><radialGradient id="a" cx="63.6" cy="808.9" r="57" gradientTransform="translate(0 -746)" gradientUnits="userSpaceOnUse"><stop offset=".5" stop-color="#fde030"/><stop offset=".9" stop-color="#f7c02b"/><stop offset="1" stop-color="#f4a223"/></radialGradient><path fill="url(#a)" d="M63.6 118.8c-27.9 0-58-17.5-58-55.9S35.7 7 63.6 7c15.5 0 29.8 5.1 40.4 14.4 11.5 10.2 17.6 24.6 17.6 41.5s-6.1 31.2-17.6 41.4a61 61 0 0 1-40.4 14.5"/><path fill="#eb8f00" d="M111.5 29.7a57 57 0 0 1 8.1 30.2c0 16.9-6.1 31.2-17.6 41.4a61 61 0 0 1-40.4 14.5 59 59 0 0 1-48.2-23 58 58 0 0 0 50.2 26c15.4 0 29.8-5.2 40.4-14.5a54 54 0 0 0 17.6-41.4q-.1-19.2-10.1-33.2"/><defs><path id="b" d="M62.8 80.4q-17.3 0-34.3-2.9a3.5 3.5 0 0 0-4 2.8q-.3.8 0 1.4c3.2 16 19 29.1 38.3 29.1 21.2 0 35.5-13.6 38.5-29.2a3.5 3.5 0 0 0-4.2-4 193 193 0 0 1-34.3 2.8"/></defs><clipPath id="c"><use href="#b"/></clipPath><g clip-path="url(#c)"><path fill="#422b0d" d="M62.8 80.4q-17.3 0-34.3-2.9a3.5 3.5 0 0 0-4 2.8q-.3.8 0 1.4c3.2 16 19 29.1 38.3 29.1 21.2 0 35.5-13.6 38.5-29.2a3.5 3.5 0 0 0-4.2-4 193 193 0 0 1-34.3 2.8"/></g><path fill="#ff4081" d="M65.5 85h-4q-8.6 0-16.8-.7v24.6c0 9.4 7.7 17.1 17.2 17.1h3.3c9.5 0 17.2-7.7 17.2-17.2V84.2q-8.2.6-16.9.8"/><path fill="#ab3f2e" d="M63.6 106.3a2 2 0 0 0 2-2V85h-4v19.2q.1 1.8 2 2" opacity=".3"/><path fill="#422b0d" d="M44 47c-4.2 0-8 3.5-8 9.4s3.8 9.4 8 9.4 8-3.6 8-9.4-3.8-9.5-8-9.5"/><path fill="#896024" d="M43.7 50.9a3 3 0 0 0-3.9 1.3q-.7 1.8.6 3.3a3 3 0 0 0 3.9-1.3 3 3 0 0 0-.6-3.3"/><path fill="#422b0d" d="M82.4 47c-4.2 0-8 3.5-8 9.4s3.8 9.4 8 9.4 8-3.6 8-9.4-3.8-9.5-8-9.5"/><path fill="#896024" d="M82 50.9a3 3 0 0 0-3.8 1.3q-.7 1.8.6 3.3c1.4.7 3.1 0 3.8-1.3.5-1.1.3-2.5-.6-3.3"/><path fill="#ab3f2e" d="M65.5 85h-4q-8.5 0-16.8-.7v3.5a93 93 0 0 0 37.6-.2v-3.4q-8.1.6-16.8.8" opacity=".3"/></svg>