<svg xmlns="http://www.w3.org/2000/svg" width="1em" height="1em" viewBox="0 0 128 128"><radialGradient id="notoMeltingFace0" cx="64" cy="55.029" r="51.686" gradientUnits="userSpaceOnUse"><stop offset=".5" stop-color="#FDE030"/><stop offset=".919" stop-color="#F7C02B"/><stop offset="1" stop-color="#F4A223"/></radialGradient><path fill="url(#notoMeltingFace0)" d="M79.23 6.71C40.06-6.28 2.19 29.66 15.96 68.34c3.09 9.95-.34 11.7 1.36 16.28c2.03 5.47 8.24 2.96 8.24 2.96s.02 12.11 2.03 15.78c.72 1.31 2.33 2.13 3.79 1.85c5.08-.96 3.97-10.34 4.26-12.68c.54-4.38 3.21-2.43 4.07-1.39c.86 1.04 1.03 2.46 1.21 3.8c.83 8.29 4.31 13.61 12.84 10.35c.56-.21 2.41-.63 2.16.45c-.22 3.03-.4 8.86-.27 11.9c.13 2.99 1.12 7.16 4.9 6.23c9.13-2.53 4.48-13.83 4.9-21.32c0-6.2 7.02-5.13 7.02-.65c0 4.48-1.58 10.63 2.14 13.29c6.51 4.64 7.93-2.28 7.57-5.58c0 0-.36-7.81.71-9.15c1.07-1.35 1.5 3.03 6.14 1.99c6.23-1.4 5.97-8.45 6.52-11.76c.55-3.31 2.41-6.24 3.57-2.91c1.16 3.33-.7 8.21 0 12.05s2.19 4.96 4.88 4.72c4.19-.37 4.86-4.92 4.92-8.56c.06-3.64.08-10.57.76-14.05c1.35-6.89 1.94-9.82 2.9-12.77c8.4-25.76-6.53-53.72-33.35-62.46z"/><radialGradient id="notoMeltingFace1" cx="64.8" cy="56.677" r="54.092" gradientTransform="matrix(.9842 .1772 -.17 .9438 10.658 -8.297)" gradientUnits="userSpaceOnUse"><stop offset=".5" stop-color="#FDE030"/><stop offset=".919" stop-color="#F7C02B"/><stop offset="1" stop-color="#F4A223"/></radialGradient><path fill="url(#notoMeltingFace1)" d="M79.23 6.71C40.06-6.28 2.19 29.66 15.96 68.34c3.09 9.95-.34 11.7 1.36 16.28c2.03 5.47 8.24 2.96 8.24 2.96s.02 12.11 2.03 15.78c.72 1.31 2.33 2.13 3.79 1.85c5.08-.96 3.97-10.34 4.26-12.68c.54-4.38 3.21-2.43 4.07-1.39c.86 1.04 1.03 2.46 1.21 3.8c.83 8.29 4.31 13.61 12.84 10.35c.56-.21 2.41-.63 2.16.45c-.22 3.03-.4 8.86-.27 11.9c.13 2.99 1.12 7.16 4.9 6.23c9.13-2.53 4.48-13.83 4.9-21.32c0-6.2 7.02-5.13 7.02-.65c0 4.48-1.58 10.63 2.14 13.29c6.51 4.64 7.93-2.28 7.57-5.58c0 0-.36-7.81.71-9.15c1.07-1.35 1.5 3.03 6.14 1.99c6.23-1.4 5.97-8.45 6.52-11.76c.55-3.31 2.41-6.24 3.57-2.91c1.16 3.33-.7 8.21 0 12.05s2.19 4.96 4.88 4.72c4.19-.37 4.86-4.92 4.92-8.56c.06-3.64.08-10.57.76-14.05c1.35-6.89 1.94-9.82 2.9-12.77c8.4-25.76-6.53-53.72-33.35-62.46z"/><radialGradient id="notoMeltingFace2" cx="87.661" cy="-537.013" r="6.746" gradientTransform="matrix(.9999 .00685 -.0189 .8615 -10.16 557.298)" gradientUnits="userSpaceOnUse"><stop offset="0" stop-color="#F7C02B"/><stop offset=".752" stop-color="#F7C02B" stop-opacity="0"/></radialGradient><path fill="url(#notoMeltingFace2)" d="M81.76 95.74c-.63-5.66 2.62-8.24 5.86-8.24s6.63 0 5.86 8.24c-.29 3.13-2.62 5.69-5.86 5.69s-5.52-2.57-5.86-5.69z"/><radialGradient id="notoMeltingFace3" cx="53.326" cy="-179.583" r="5.595" gradientTransform="matrix(.9006 .00937 -.017 1.1786 -29.357 291.006)" gradientUnits="userSpaceOnUse"><stop offset="0" stop-color="#F7C02B"/><stop offset=".752" stop-color="#F7C02B" stop-opacity="0"/></radialGradient><path fill="url(#notoMeltingFace3)" d="M17.1 79.83c.11-.99.48-2.26.49-3.52c.01-1.35-.34-2.67-.34-2.67c.96-1.51 2.33-2.46 3.85-2.46c2.92 0 5.28 3.48 5.28 7.78c0 4.3-2.36 7.78-5.28 7.78c-1.39 0-2.65-.79-3.59-2.08c0-.01-.69-2.18-.41-4.83z"/><radialGradient id="notoMeltingFace4" cx="30.46" cy="90.577" r="4.761" gradientTransform="matrix(.9789 .2042 -.5216 2.5004 47.883 -142.122)" gradientUnits="userSpaceOnUse"><stop offset="0" stop-color="#F7C02B" stop-opacity=".971"/><stop offset=".928" stop-color="#F7C02B" stop-opacity="0"/></radialGradient><path fill="url(#notoMeltingFace4)" d="M25.57 87.58c-.01-1.93-.61-8.62 2.63-8.62s4.91 2.55 5.5 7.01c.57 4.35.14 10.24-.02 12.51c-.34 4.72-3.03 6.65-6.33 4.32c-.01 0-1.73-4.13-1.78-15.22z"/><radialGradient id="notoMeltingFace5" cx="60.474" cy="107.873" r="5.257" gradientTransform="matrix(.9999 .0144 -.0367 2.554 3.962 -168.5)" gradientUnits="userSpaceOnUse"><stop offset=".307" stop-color="#F7C02B" stop-opacity=".971"/><stop offset="1" stop-color="#F7C02B" stop-opacity="0"/></radialGradient><path fill="url(#notoMeltingFace5)" d="M56.11 104.34c-.01-1.93-.17-9.88 3.07-9.88s5.04 1.09 5.63 5.55c.57 4.35 1.68 13.22.65 16.98c-1.61 5.91-7.19 4.98-8.53 2.83c-1.89-3.01-.82-15.48-.82-15.48z"/><radialGradient id="notoMeltingFace6" cx="76.764" cy="103.243" r="6.617" gradientTransform="matrix(1 0 0 2.0255 0 -105.872)" gradientUnits="userSpaceOnUse"><stop offset=".074" stop-color="#F7C02B"/><stop offset=".787" stop-color="#F7C02B" stop-opacity="0"/></radialGradient><path fill="url(#notoMeltingFace6)" d="M73.22 96.06c.41-3.89 2.11-5.87 5.35-5.87s9.82 4.45 4.32 10.25c-1.22 1.28-.69 4.78-1.27 10.05c-.4 3.57-3.21 3.2-4.49 3.2c-5.86 0-5.3-4.23-3.91-17.63z"/><radialGradient id="notoMeltingFace7" cx="102.737" cy="88.12" r="5.479" gradientTransform="matrix(.9769 .2136 -.5379 2.46 49.775 -150.606)" gradientUnits="userSpaceOnUse"><stop offset="0" stop-color="#F7C02B"/><stop offset=".752" stop-color="#F7C02B" stop-opacity="0"/></radialGradient><path fill="url(#notoMeltingFace7)" d="M99.13 87.48c-.99-3.79 2.51-16.16 5.74-16.16s.06 7.04 1.87 26.23c.34 3.58-2.75 4.61-4.03 4.61c-5.86 0-2.3-9.77-3.58-14.68z"/><path fill="#EB8F00" d="M109.45 32.23c-.05 1.92 6.38 17.74.28 35.99c-1.05 3.13-1.66 6.29-2.99 13.12c-1.58 5.7.86 19.82-3.76 23.17c4.69.7 6.08-4.86 5.95-8.54c.06-3.64.08-10.57.76-14.05c1.35-6.89 1.94-9.82 2.9-12.77c4.11-12.62 2.61-25.76-3.14-36.92zM97.58 84.59c-.41-1.88-3.73-.96-4.58 1.46c-1.18 3.35-.57 6.74-1.33 9.99c-.42 1.9-2.62 5.36-5.98 3.15c-1.58-1.04-3.25-2.98-5.14-.6c-3.02 4.94.4 12.32-1.9 16.39c-.62 1.1-1.8 1.44-1.8 1.44c3.53 1.13 5.01-1.34 5.33-4.68c.35-3.67-.58-8.43.71-11.29c.14-.18.28-.26.41-.26c.74 0 1.5 2.41 4.37 2.41c.41 0 .86-.05 1.36-.16c5.31-1 6.2-7.01 6.48-11.48c.27-4.22 2.64-3.77 2.07-6.37zM68.31 96.51c-2.26-1.06-4.24 1.14-4.72 3.14c-1.93 5.5.83 10.18-.78 15.76c-.79 2.04-1.5 3.21-3.1 3.59c-2.9.69-3.82 2.86-2.14 4.27c.82.77 1.92.85 3 .59c12.29-3.03-.41-23.07 7.77-25.6c.09 0 .6-.19 2.2.36c-.01 0-.01-1.07-2.23-2.11zm-26.83-7.93c-1.13-1.69-2.81-2.33-4.84-1.75c-3.64 1.5-3.99 3.66-3.45 10.99c.17 2.38-.52 6.91-.52 6.91s3.31-1.5 2.98-12.2c-.09-3.07 2.61-3.09 4.07-1.39c.86 1.04 1.03 2.46 1.21 3.8c.66 6.6 3 11.32 8.24 11.32c1.67.03 4.18-.92 5.34-1.13c1.16-.21 1.7-1.33 1.44-2.07c-1.06-3-4.95.65-6.78.2c-1.09 0-4.84.12-5.7-8.5c-.11-2-.88-4.54-1.99-6.18zm-14.4-9.1c-.51-.61-.95 2-2.13 3.86c-1.56 2.46-3.94 3.17-6.92 2.47c.36 1.35 2.24 2.93 5.58 2.25c2.98-.61 3.47-2.27 3.47-8.58z"/><path fill="#422B0D" d="M48.62 24.6c-3.68-.74-7.65 1.69-8.69 6.85c-1.04 5.16 1.68 8.93 5.36 9.67c3.69.74 7.65-1.69 8.68-6.84c1.04-5.15-1.63-8.93-5.35-9.68z"/><path fill="#896024" d="M47.62 27.98a2.566 2.566 0 0 0-3.59.5c-.67.88-.69 2.09-.06 3c1.13.85 2.73.63 3.59-.5c.66-.88.68-2.09.06-3z"/><path fill="#422B0D" d="M77.51 33.94c-3.75 0-7.16 3.17-7.16 8.43s3.41 8.42 7.16 8.42c3.76 0 7.16-3.17 7.16-8.42s-3.36-8.43-7.16-8.43z"/><path fill="#896024" d="M77.2 37.46c-1.27-.61-2.8-.07-3.42 1.2c-.48 1-.26 2.19.53 2.95c1.27.61 2.8.07 3.42-1.2c.48-.99.27-2.18-.53-2.95z"/><path fill="#422B0D" stroke="#422B0D" stroke-miterlimit="10" stroke-width="1.059" d="M63.18 73.11c-9.88-1.62-16.9-7.86-20.34-13.86c-.35-.6-.33-1.34.05-1.92c.38-.59 1.05-.91 1.69-.81c.29.05.57.18.81.38c4 3.44 10.91 8.02 18.89 9.33l.77.06c8.74.82 13.48-1.81 18-3.68c.29-.12 1.87-.64 2.43.93c.23.65-.29 1.59-.76 2.1c-3.65 4-10.08 8.51-21.01 7.52l-.53-.05z"/></svg>