<svg xmlns="http://www.w3.org/2000/svg" width="1em" height="1em" viewBox="0 0 128 128"><defs><path id="b" fill="#eb8f00" d="M111.49 29.67c5.33 8.6 8.11 18.84 8.11 30.23 0 16.9-6.1 31.2-17.6 41.4-10.6 9.3-25 14.5-40.4 14.5-18.06 0-37-7.35-48.18-22.94 10.76 17.66 31 25.94 50.18 25.94 15.4 0 29.8-5.2 40.4-14.5 11.5-10.2 17.6-24.5 17.6-41.4 0-12.74-3.47-24.06-10.11-33.23"/></defs><radialGradient id="a" cx="63.6" cy="1992.9" r="56.96" gradientTransform="translate(0 -1930)" gradientUnits="userSpaceOnUse"><stop offset=".5" stop-color="#fde030"/><stop offset=".92" stop-color="#f7c02b"/><stop offset="1" stop-color="#f4a223"/></radialGradient><path fill="url(#a)" d="M63.6 118.8c-27.9 0-58-17.5-58-55.9S35.7 7 63.6 7c15.5 0 29.8 5.1 40.4 14.4 11.5 10.2 17.6 24.6 17.6 41.5s-6.1 31.2-17.6 41.4c-10.6 9.3-25 14.5-40.4 14.5"/><use href="#b"/><linearGradient id="c" x1="63.6" x2="63.6" y1="2048.8" y2="1937" gradientTransform="translate(0 -1930)" gradientUnits="userSpaceOnUse"><stop offset=".39" stop-color="#40c0e7" stop-opacity="0"/><stop offset="1" stop-color="#5f7aff"/></linearGradient><path fill="url(#c)" d="M63.6 118.8c-27.9 0-58-17.5-58-55.9S35.7 7 63.6 7c15.5 0 29.8 5.1 40.4 14.4 11.5 10.2 17.6 24.6 17.6 41.5s-6.1 31.2-17.6 41.4c-10.6 9.3-25 14.5-40.4 14.5"/><linearGradient id="d" x1="63.6" x2="63.6" y1="2048.8" y2="1937" gradientTransform="translate(0 -1930)" gradientUnits="userSpaceOnUse"><stop offset=".16" stop-color="#f4a223"/><stop offset=".33" stop-color="#f7c02b"/><stop offset=".81" stop-color="#fde030" stop-opacity="0"/></linearGradient><path fill="url(#d)" d="M63.6 118.8c-27.9 0-58-17.5-58-55.9S35.7 7 63.6 7c15.5 0 29.8 5.1 40.4 14.4 11.5 10.2 17.6 24.6 17.6 41.5s-6.1 31.2-17.6 41.4c-10.6 9.3-25 14.5-40.4 14.5"/><use href="#b"/><path fill="#422b0d" d="M64 109.73c-6.02-.04-10.89-4.91-10.93-10.93V86.2c0-6.04 4.89-10.93 10.93-10.93s10.93 4.89 10.93 10.93v12.61c-.04 6.02-4.91 10.88-10.93 10.92"/><path fill="#fff" d="M43.29 41.82c2.04 0 4.04.59 5.76 1.69 5.64 3.57 8 12 3.45 20.71-3.14 6-7.86 8.77-12.33 8.77a10.7 10.7 0 0 1-5.76-1.69c-5.64-3.57-8-12-3.45-20.71 3.14-6 7.85-8.77 12.33-8.77"/><linearGradient id="e" x1="-424.871" x2="-424.871" y1="2.18" y2="51.88" gradientTransform="rotate(180 -163.285 65)" gradientUnits="userSpaceOnUse"><stop offset="0" stop-color="#ed6c30"/><stop offset="1" stop-color="#ed6c30" stop-opacity=".2"/></linearGradient><path fill="url(#e)" d="M118.94 73c-1.37-1-1.2-2.11-5-.58-1.57.64-3.37 4.24-3.37 4.24s-2.71-5.42-8.07 1.79c-9.74 13.08-14 12.48-19.73 18.48-3.69 3.84-6.88 7.5-5.65 14.77.69 4.06 2.62 5.17 2.62 5.17s1.18 0 12.76-6 21.69-14.49 27.25-28.09" opacity=".66"/><radialGradient id="f" cx="-201.413" cy="-76.594" r="44.86" gradientTransform="matrix(-.78 .62 -.57 -.72 -109.26 164.01)" gradientUnits="userSpaceOnUse"><stop offset=".27" stop-color="#fff176"/><stop offset="1" stop-color="#ffc400"/></radialGradient><path fill="url(#f)" d="M87.74 99.52c4.35-3.3 8.55-6.33 10.53-8.94s4.11-8.08 5.39-11.66 5-5.33 7-2.27c.52.82.11 4 0 5.22 1.09-1.81 1.86-3.8 2.28-5.87 1-4.88 6.1-6.46 7 .1 0 0 3.79.15 2.11 11.91-.84 4.58-2.35 9.02-4.5 13.15-5.39 10.16-9.61 14.87-15.07 18.61-8.54 5.84-16.63 4.45-19.16 1.13-4.32-5.71-3.16-15.63 4.42-21.38"/><path fill="#ed6c30" d="M110.62 76.65c0 1.95-1.88 8.74-2.59 10.48-2.45 6.45-6.92 9.45-5.67 10.47s3.64-1.15 7.09-9.34c1.06-2.79 1.68-5.72 1.82-8.7-.01-1.01-.23-2-.65-2.91m6.58-4.94c1.27.55 3.16 4.17.33 14.31-1.75 7.66-7.57 13.62-6.17 14.29 1.65 1.11 5.42-5.14 8.09-13.8.7-2.62 1.14-5.3 1.29-8 .04-1.36-.42-6.43-3.54-6.8"/><linearGradient id="g" x1="80.514" x2="80.514" y1="2.18" y2="51.88" gradientTransform="matrix(1 0 0 -1 -51.35 130)" gradientUnits="userSpaceOnUse"><stop offset="0" stop-color="#ed6c30"/><stop offset="1" stop-color="#ed6c30" stop-opacity=".2"/></linearGradient><path fill="url(#g)" d="M8.53 73c1.37-1 1.2-2.11 5-.58 1.57.64 3.37 4.24 3.37 4.24s2.71-5.42 8.07 1.79c9.74 13.08 14 12.48 19.73 18.48 3.68 3.84 6.87 7.5 5.64 14.77-.68 4.06-2.61 5.17-2.61 5.17s-1.92 0-11.13-4.7c-.79-.4-.72-.81-1.63-1.29-11.58-6-21.69-14.49-27.25-28.09" opacity=".66"/><radialGradient id="h" cx="201.116" cy="252.577" r="44.86" gradientTransform="matrix(.78 .62 .57 -.72 -264.92 151.37)" gradientUnits="userSpaceOnUse"><stop offset=".27" stop-color="#fff176"/><stop offset="1" stop-color="#ffc400"/></radialGradient><path fill="url(#h)" d="M39.73 99.52c-4.35-3.3-8.55-6.33-10.53-8.94s-4.11-8.08-5.4-11.66-5-5.33-6.95-2.27c-.52.82-.11 4 0 5.22-1.1-1.81-1.89-3.8-2.32-5.87-1-4.88-6.1-6.46-7 .1 0 0-3.79.15-2.11 11.91.84 4.58 2.35 9.02 4.5 13.15 5.38 10.16 9.61 14.87 15.07 18.61 8.53 5.84 16.62 4.45 19.16 1.13 4.29-5.71 3.16-15.63-4.42-21.38"/><path fill="#ed6c30" d="M16.85 76.65c0 1.95 1.88 8.74 2.59 10.48 2.45 6.45 6.91 9.45 5.67 10.47s-3.65-1.15-7.1-9.34a28.2 28.2 0 0 1-1.81-8.7c0-1.01.22-2 .65-2.91m-6.59-4.94C9 72.26 7.11 75.88 9.94 86c1.75 7.66 7.57 13.62 6.17 14.29-1.65 1.11-5.42-5.14-8.09-13.8-.7-2.62-1.14-5.3-1.29-8-.04-1.34.42-6.41 3.53-6.78"/><path fill="#eb8f00" d="M52.63 64.29a16.4 16.4 0 0 1-4 6.94A13.1 13.1 0 0 1 41 75.1c-3.11.39-6.26-.42-8.8-2.25-2.5-1.82-4.38-4.38-5.37-7.31-.23-.71-.42-1.44-.56-2.18-.13-.73-.22-1.47-.27-2.21L25.93 60l.05-1.1c.03-.73.11-1.45.25-2.17.55-2.76 1.64-5.39 3.2-7.73a17.86 17.86 0 0 1 6-5.82c2.37-1.43 5.18-1.95 7.91-1.47V42c-2.53.05-4.99.91-7 2.45-2 1.53-3.65 3.48-4.84 5.7a21 21 0 0 0-2.5 7.04c-.38 2.48-.17 5.01.62 7.39.76 2.38 2.23 4.48 4.22 6 1.99 1.55 4.48 2.32 7 2.16 2.5-.18 4.89-1.14 6.82-2.74 1.95-1.61 3.55-3.59 4.71-5.84z"/><path fill="#fff" d="M84.81 41.82c4.48 0 9.19 2.8 12.33 8.77 4.57 8.67 2.19 17.14-3.45 20.71-1.72 1.11-3.72 1.7-5.76 1.7-4.47 0-9.19-2.8-12.33-8.77-4.6-8.68-2.19-17.15 3.45-20.72a10.7 10.7 0 0 1 5.76-1.69"/><path fill="#eb8f00" d="M84.81 41.67c2.73-.48 5.54.04 7.91 1.47a17.86 17.86 0 0 1 6 5.82c1.57 2.37 2.66 5.02 3.2 7.81.13.72.22 1.44.25 2.17v2.21c-.06 1.49-.34 2.97-.82 4.39-.99 2.93-2.86 5.48-5.37 7.3a12.35 12.35 0 0 1-8.79 2.25c-2.93-.39-5.64-1.75-7.69-3.87a16.2 16.2 0 0 1-4-6.93l.26-.14c1.15 2.24 2.74 4.23 4.68 5.85 1.94 1.61 4.33 2.57 6.84 2.75 2.52.16 5.01-.61 7-2.16 1.98-1.53 3.45-3.62 4.21-6 .79-2.38 1-4.91.62-7.39-.39-2.48-1.22-4.88-2.46-7.07a17.7 17.7 0 0 0-4.84-5.7c-2.01-1.54-4.47-2.4-7-2.45z"/></svg>