<svg xmlns="http://www.w3.org/2000/svg" width="1em" height="1em" viewBox="0 0 128 128"><radialGradient id="notoFaceWithRaisedEyebrow0" cx="63.6" cy="1104.9" r="56.96" gradientTransform="translate(0 -1042)" gradientUnits="userSpaceOnUse"><stop offset=".5" stop-color="#FDE030"/><stop offset=".92" stop-color="#F7C02B"/><stop offset="1" stop-color="#F4A223"/></radialGradient><path fill="url(#notoFaceWithRaisedEyebrow0)" d="M63.6 118.8c-27.9 0-58-17.5-58-55.9S35.7 7 63.6 7c15.5 0 29.8 5.1 40.4 14.4c11.5 10.2 17.6 24.6 17.6 41.5s-6.1 31.2-17.6 41.4c-10.6 9.3-25 14.5-40.4 14.5"/><path fill="#EB8F00" d="M111.49 29.67c5.33 8.6 8.11 18.84 8.11 30.23c0 16.9-6.1 31.2-17.6 41.4c-10.6 9.3-25 14.5-40.4 14.5c-18.06 0-37-7.35-48.18-22.94c10.76 17.66 31 25.94 50.18 25.94c15.4 0 29.8-5.2 40.4-14.5c11.5-10.2 17.6-24.5 17.6-41.4c0-12.74-3.47-24.06-10.11-33.23"/><path fill="#422B0D" d="M75 96H53c-2.21 0-4-1.79-4-4s1.79-4 4-4h22c2.21 0 4 1.79 4 4s-1.79 4-4 4m8.5-50c3.7 0 7 4.3 7 11.5S87.2 69 83.5 69s-7-4.3-7-11.5s3.3-11.4 7-11.5m-56.4-.4c.4-.8.7-1.4 1.1-2.1c.44-.62.9-1.22 1.4-1.8c1.14-1.21 2.5-2.19 4-2.9c1.59-.74 3.34-1.09 5.1-1c1.66.08 3.3.49 4.8 1.2l1 .5c.3.1.5.3.8.4c.5.2 1.1.5 1.6.7c1.04.41 2.11.74 3.2 1c.52.12 1.06.19 1.6.2H53c.42-.06.83-.19 1.2-.4c.44-.21.84-.48 1.2-.8l.2-.2c1-.71 2.38-.49 3.1.5c.64.89.56 2.11-.2 2.9c-.58.59-1.22 1.13-1.9 1.6c-.74.49-1.55.86-2.4 1.1c-.4.1-1 .2-1.4.3a2.6 2.6 0 0 1-1.2.2c-.77.02-1.54-.01-2.3-.1c-1.47-.17-2.91-.5-4.3-1c-.69-.21-1.36-.47-2-.8c-.62-.23-1.22-.5-1.8-.8a7.513 7.513 0 0 0-5.3-.3c-.89.35-1.73.82-2.5 1.4c-.4.3-.8.7-1.2 1c-.39.34-.76.71-1.1 1.1l-.4.5c-.8.86-2.14.9-3 .1c-.04-.03-.07-.07-.1-.1c-.65-.62-.85-1.57-.5-2.4m67.5-9.9c-.8-1.1-1.3-2.1-1.9-3a7.66 7.66 0 0 0-1.7-2.1c-.3-.2-.5-.4-.7-.5c-.21-.13-.45-.19-.7-.2c-.71-.08-1.44.02-2.1.3c-.92.32-1.82.68-2.7 1.1c-.9.5-1.8 1-2.8 1.6c-1.8 1.2-3.7 2.5-5.6 3.8c-1.02.68-2.4.41-3.1-.6c-.6-.83-.51-1.97.2-2.7a35.83 35.83 0 0 1 5.3-5c2.08-1.65 4.41-2.97 6.9-3.9c1.55-.5 3.19-.63 4.8-.4c.92.18 1.8.52 2.6 1c.77.43 1.45 1.01 2 1.7c.95 1.09 1.7 2.34 2.2 3.7c.5 1.2.9 2.3 1.2 3.2v.1a2.27 2.27 0 0 1-1.39 2.9h-.01c-.96.18-1.93-.21-2.5-1M43.67 50.94c-4.19 0-8 3.54-8 9.42s3.81 9.41 8 9.41c4.19 0 8-3.54 8-9.41s-3.81-9.42-8-9.42"/><path fill="#896024" d="M43.28 54.87a2.874 2.874 0 0 0-3.82 1.34c-.53 1.11-.29 2.44.6 3.3c1.42.68 3.13.08 3.82-1.34c.53-1.11.29-2.44-.6-3.3m39.48-4.82c-1.41-.09-2.62.98-2.71 2.38v.15c-.31 1.38.56 2.75 1.94 3.06c.04.01.08.02.12.02c1.42.08 2.63-1.01 2.71-2.43v-.1c.31-1.38-.56-2.75-1.94-3.06c-.04-.01-.08-.01-.12-.02"/></svg>