<svg viewBox="0 0 128 128"><defs><path id="a" fill="none" d="M103.1 28c2.3 8.6.2 47.3-17.6 65.6-14 14.2-43 19.7-47.4 17.1"/></defs><use href="#a"/><path fill="#e0e0e0" d="M111.3 109.4a4.4 4.4 0 0 0-4.8-2.5l-1 .2h-.3c-3.8 0-5.4-1-6.6-3.8-1.7-4.3-.3-10.6 1.2-15.6 3-10.2 7-24.2 7-38a65 65 0 0 0-3.3-19.4c.4 19.2-3.3 43.7-19.8 60.7-13.2 13.6-35.7 21.5-44.8 20a50 50 0 0 0 40.9 15.6c13.6-1 29.4-6.6 31.7-12.8a6 6 0 0 0-.2-4.4M27.6 43.9c-5.8-.7-11.8-3.5-14-9-1.7-4.2-3.1-10.6-8.1-9.8-6.2.9-4.8 13.4-3.3 18.2C8 63 27.2 66 27.6 65.5s1.5-21.7 0-21.6"/><path fill="#ccc" d="M27.6 43.9q-4.8-.6-8.9-3a11 11 0 0 1-.8 7.7c-2.2 5-8.3 7.6-8.3 7.6a30 30 0 0 0 18 9.3c.4-.5 1.5-21.7 0-21.6"/><path fill="#e0e0e0" d="M100.4 43.9c5.8-.7 11.8-3.5 14-9 1.7-4.2 3.1-10.6 8.1-9.8 6.2.9 4.8 13.4 3.3 18.2-5.9 19.6-25 22.7-25.4 22.2s-1.5-21.7 0-21.6"/><path fill="#ccc" d="M120.1 48a34 34 0 0 1-20.4 8.8q0 4.4.7 8.7a31 31 0 0 0 26.5-33.4c-.5 5.9-3 11.5-6.8 16"/><path fill="#e0e0e0" d="M106.8 49.7q0-3.7-.5-7.6A48 48 0 0 0 82.4 5a34 34 0 0 0-19-3.6 44 44 0 0 0-32.7 20.8c-17.8 29.6-6.4 65.5-3.4 71.6 15.3 31.2 40.1 33.9 52.6 32.9 13.6-1.1 29.4-6.7 31.7-12.9q.8-2.2-.2-4.4a4.4 4.4 0 0 0-4.8-2.5l-1 .2h-.3c-3.8 0-5.4-1-6.6-3.8-1.7-4.3-.3-10.6 1.2-15.6a136 136 0 0 0 7-38"/><use href="#a"/><path fill="#ccc" d="M111.3 109.4a4.4 4.4 0 0 0-4.8-2.5l-1 .2h-.3c-3.8 0-5.4-1-6.6-3.8-1.7-4.3-.3-10.6 1.2-15.6 3-10.2 7-24.2 7-38a65 65 0 0 0-3.3-19.4c.4 19.2-3.3 43.7-19.8 60.7-13.2 13.6-35.7 21.5-44.8 20a50 50 0 0 0 40.9 15.6c13.6-1 29.4-6.6 31.7-12.8a6 6 0 0 0-.2-4.4"/><defs><path id="b" d="M61.7 53.9q-12.8 0-25.4-2.2a2.6 2.6 0 0 0-3 3 28.6 28.6 0 0 0 28.4 21.6c15.7 0 26.3-10 28.5-21.6a2.6 2.6 0 0 0-3-3q-12.7 2.2-25.5 2.2"/></defs><clipPath id="c"><use href="#b"/></clipPath><g clip-path="url(#c)"><linearGradient id="d" x1="61.7" x2="61.7" y1="53.6" y2="78.3" gradientTransform="matrix(1 0 0 -1 0 130)" gradientUnits="userSpaceOnUse"><stop offset="0" stop-color="#404040"/><stop offset=".1" stop-color="#3e3a35"/><stop offset=".4" stop-color="#392d1e"/><stop offset=".7" stop-color="#362510"/><stop offset="1" stop-color="#35220b"/></linearGradient><path fill="url(#d)" d="M61.7 53.9q-12.8 0-25.4-2.2a2.6 2.6 0 0 0-3 3 28.6 28.6 0 0 0 28.4 21.6c15.7 0 26.3-10 28.5-21.6a2.6 2.6 0 0 0-3-3q-12.7 2.2-25.5 2.2"/></g><linearGradient id="e" x1="62.2" x2="62.2" y1="42.4" y2="73.4" gradientTransform="matrix(1 0 0 -1 0 130)" gradientUnits="userSpaceOnUse"><stop offset="0" stop-color="#ff4081"/><stop offset=".3" stop-color="#fb3d80"/><stop offset=".6" stop-color="#ef337d"/><stop offset=".8" stop-color="#db2378"/><stop offset="1" stop-color="#ca1573"/></linearGradient><path fill="url(#e)" d="M63.7 57.3h-3q-6.4 0-12.4-.6V75c0 7 5.7 12.7 12.7 12.7h2.4c7 0 12.7-5.7 12.7-12.7V56.6q-6 .6-12.4.7"/><path fill="#ab3f2e" d="M62.2 73q1.4 0 1.5-1.5V57.3h-3v14.2q.2 1.3 1.5 1.5" opacity=".3"/><circle cx="75.2" cy="34" r="11.7" fill="#fff"/><ellipse cx="75.7" cy="34" fill="#422b0d" rx="5" ry="5.1"/><path fill="#422b0d" d="M55.1 36v-.2l-.4-.5a15 15 0 0 0-3.7-3.5l-1.3-1-1.5-.8-1.5-.8-1.5-.7a21 21 0 0 0-5-1.4h-.8q-1.6.1-1.7 1.6 0 1.2 1.1 1.6h.2l.6.3 4 1.6 1.2.7 1.3.8.3.1-.9.1-.8.2-1 .1a16 16 0 0 0-4.3 2l-1.7 1.5-.4.5-.2.2q-.8 1.2.4 2.3 1 .6 2 0l.1-.2h.1l.4-.3a11 11 0 0 1 3.4-1.6l1.3-.3.6-.1.7-.1a20 20 0 0 1 5 0l.8.2.6.2h.2l.2.1h.2q1 .6 1.9-.4.4-.4.4-1T55 36"/></svg>