<svg viewBox="0 0 128 128"><path fill="#f04e3e" d="M9 75.5c0-9.6-2.9-54.6 4.7-63.5C26.8-3 42 7.6 59.2 7.6s29.3-9.2 38.2 4.2c7.5 11.1 4.6 52.5 4.6 63.7 0 31.3-20.8 48.5-46.4 48.5S9 107.5 9 75.5"/><path fill="#fff8e1" d="M66.7 99.6c11.7 0 17.1 7 19.5 9.5 1 1 1.8.6 1.8.6 0-5.7-6.7-21.3-21.3-21.3C50 88.4 39.9 98 37 109.7c-.7 3.2 14.2-10 29.7-10"/><path fill="#b71c1c" d="M94.6 31.4c-7.9-3-14.6 3.4-17.1 6-3.3 3.2-10.2 8.5-12.6 1.4-.7-2.1 0-4.6-1.2-6.5q-.3-.6-1-1-.9-.5-1.2.1-.4.7-.2 1.5c.3 2.4.2 4.4-1.3 6.6-1.7 2.3-4.8 3.7-7.6 2.9-2.1-.7-3.2-2.2-4.5-3.8-1.5-1.8-3.8-3.4-5.6-4.8-5.2-3.8-8.7-5-18.2-2-5.8 1.7-8.8-1.4-8.7-6.3s1.6-10.2 3.8-14c1.7-3 6-6.1 9-7.3-6.7.3-10.7 1.9-15.1 8.8-6.4 9.8-4 54.9-4 64.5 0 32 20.7 46.5 46.4 46.5a48 48 0 0 0 18.5-3.4c-.9 0-40.8 6-49.5-18-2.6-7.1-2.6-15-3-22.6-5.2-3.2-8.5-19.6-.7-23.5 3.8-2 8.2-2.1 13 2.1 6.4 5.8 12.7 4.2 17.6 2.4 3-1.1 5.2-3 6.7-3.8 2.6-1.3 4.6-.5 5.5.3 1.5 1.3 2.8 8.1 22.5 7.2 10.4-.5 16.4-7.3 16.4-7.3.3-9.2.4-22.9-7.9-26m-17.5 8 1 .6v.5z"/><path fill="#ffecb3" d="M27.4 41.6c-.7-3.4 2-6.6 5.4-6.4 3.6.1 8.4.8 12.9 2.7 5.6 2.5 10 8.7 8.3 15.3-1.1 4.1-3.8 7.4-11.8 6.6-7.2-.6-13-9-14.8-18.2"/><path fill="#281010" d="M90.9 72.5q0 1.8-.5 4.6s4.6 1.4 9.1-10.6q.3-.7 1-.7c.7 0 1.1 1.2 1.3 2.2 1.9 8.2-.5 17.9-5.7 22.9a10 10 0 0 1-9 1.5c-1.9-.7-16.2-9-20-9.5-2.5-.3.4-3.4 1.3-4.3 2.6-2.5 9.6-.8 14.5-3.4a33 33 0 0 0 6-4.2c.9-.7 2 .1 2 1.5"/><path fill="#ffecb3" d="M95.2 41.6c.7-3.4-2-6.6-5.4-6.4-3.6.1-8.4.8-12.9 2.7-5.6 2.5-10 8.7-8.3 15.3 1.1 4.1 5.6 7.8 11.8 6.6 9.6-1.6 13-9 14.8-18.2"/><ellipse cx="43" cy="50" fill="#212121" rx="5.7" ry="6"/><ellipse cx="80.3" cy="50" fill="#212121" rx="5.7" ry="6"/><path fill="#281010" d="M28.6 72.5q-.1 1.8.7 4.6S23 78.5 16.9 66.5q-.4-.7-1.2-.7c-1 0-1.6 1.2-1.9 2.2-2.5 8.2.7 17.9 7.7 22.9 1.7 1.2 7.1 2.8 12.2 1.5 2.5-.7 21.9-9 27-9.5 3.3-.3-.5-3.4-1.8-4.3-3.4-2.5-13-.8-19.6-3.4q-5.3-2.3-8-4.2c-1.2-.7-2.7.1-2.7 1.5"/><path fill="#394d57" d="M22.5 80.7c3.3 2.2 7.4 3 11.2 2.3 0 0-3-2.4-4.5-6.3v.4s-6 1.4-12.2-10.6q-.2-.5-.9-.7c-.3 7 3.2 12.8 6.5 15M59 78.6c-3.4-2.5-13-.8-19.6-3.4q-5.3-2.3-8-4.2l-1-.2c3 1.3 5.5 8.5 13.3 8.5 3.3 0 6.7-.4 10-.3q4.6 0 8.2 2.4c-.6-1-2.2-2.3-2.9-2.8"/><path fill="#f44336" d="M101.3 56.5c-11.4 6.5-19.5 9.5-30 6-5.5-1.8-7.6-5-7.6-5s-7.3 4.6-7.3 10 2.8 8.5 6.8 10.2a77 77 0 0 0 39.3 2c15-2.8 27.6-12.1 20.6-23.1-4-6.1-12.7-5.3-21.8 0"/><path fill="#b31b1b" d="M66.1 98c-13.9-.6-25.9 10.7-26.6 10.5a1 1 0 0 1-.7-.8c0-.2-1.1.1-1.3.2-1.5 1.3-1.6 2.4-1.5 2.5.4.5 1 1.5 4.4.2.7-.3 14.5-8.3 26.5-7.4a37 37 0 0 1 19.5 7.3c.4 0 1.6 0 1.8-.8 0-.4-9-11.3-22.1-11.8"/><path fill="#cc2d2d" d="M41.2 104.5a28 28 0 0 1 24-13.9c12.2.2 18.7 13.2 19.9 15.4.3.6 2.2 5.4 3 3.9q.4-.7.2-1.6c-1.1-5.6-8.5-22-23.3-22-12 0-21.1 6-27 17.1-1 1.7-2 3.9-2.2 5.8q-.2 1.6 1 1.6c1.2 0 3.5-4.8 4.4-6.3"/><path fill="#ff8a66" d="M57.2 112.4c.6-2.7 3.6-5.3 9-5.3 4 0 6.5 3.7 6.5 5.8 0 1.8-1.3 1.9-2.5 1.2-1.4-.8-2.6-1.6-4.5-1.6-2.9 0-3.8 1.7-6.1 2-1.6.3-2.7-.8-2.4-2.1"/><path fill="#281010" d="M41.4 37q3.6 3.1 8.3 5c1.9.6 4.1.9 5.6-.5 2.2-2 1-8.5.3-11a25 25 0 0 0-4.2-9.2c-.5-.7-1.6-.5-2 .3L48 26.4a28 28 0 0 0-10.6-13.2 1 1 0 0 0-1.5 1l.8 4A25 25 0 0 0 21.4 13c.6 0 3.4 9.4 20 24"/><path fill="#394d57" d="m38.6 24.8-.8-5.8s4.6 2.6 11 12.8l.9-5.8A21 21 0 0 1 55 41.7c2.4-1.9 1.1-8.6.5-11.2a25 25 0 0 0-4.2-9.2c-.5-.7-1.7-.5-2 .4L48 26.4a28 28 0 0 0-10.5-13.2 1 1 0 0 0-1.6 1l.8 4A25 25 0 0 0 21.4 13s6.8 1 17.2 11.8"/><path fill="#281010" d="M80.5 37.2q-3.2 3.1-7.1 4.7c-1.6.7-3.6 1-4.8-.3-2-1.9-.8-8-.3-10.5q1-4.7 3.6-8.7c.5-.6 1.4-.5 1.6.3l1.4 4.5c3.3-7.8 7-11.1 9-12.5a.9.9 0 0 1 1.3 1l-.6 3.8a20 20 0 0 1 13-5c-.6 0-3 9-17.1 22.7"/><path fill="#394d57" d="m82.9 25.8.7-5.5s-4 2.4-9.4 12l-.8-5.4a21 21 0 0 0-4.7 14.8c-2-1.8-1-8.1-.4-10.6a25 25 0 0 1 3.6-8.7c.4-.6 1.4-.5 1.7.3l1.3 4.5a26 26 0 0 1 9-12.5.9.9 0 0 1 1.3 1l-.6 3.8a20 20 0 0 1 13-5s-5.8 1-14.8 11.3"/><path fill="#ff8a66" d="M106.1 57.5c5.1-2.9 8.7-2.1 9.6-.5 1.4 2.8-1.8 5.5-5.3 6.3-4.8 1.2-10.5 2.6-11.1.4-.7-2.2 3.4-4.3 6.8-6.2"/><path fill="#b71c1c" d="M125 62.8c0-3-2-6.2-2-6.2s.8 4.1-2.5 9.1c-2.8 4.2-9.5 8.3-18.8 10a89 89 0 0 1-16 1.5A59 59 0 0 1 64.8 74c-2.4-1-5.5-2.2-8.3-6 .1 5 2.9 8 6.7 9.7a63 63 0 0 0 22.5 3.5q7.6 0 16.8-1.5c12-2.3 22.6-8.7 22.6-16.9"/></svg>