<svg xmlns="http://www.w3.org/2000/svg" width="1em" height="1em" viewBox="0 0 128 128"><path fill="#f04e3e" d="M9.04 75.5c0-9.6-2.91-54.6 4.71-63.46C26.61-2.92 41.97 7.58 59.06 7.58s29.33-9.15 38.27 4.17c7.51 11.19 4.58 52.57 4.58 63.75 0 31.31-20.79 48.5-46.43 48.5S9.04 107.46 9.04 75.5"/><path fill="#fff8e1" d="M66.69 99.64c11.7 0 17.16 6.89 19.55 9.46.89.96 1.81.58 1.81.58 0-5.66-6.77-21.25-21.36-21.25-16.56 0-26.78 9.48-29.64 21.25-.78 3.22 14.13-10.04 29.64-10.04"/><path fill="#b71c1c" d="M94.64 31.44c-7.94-2.95-14.61 3.33-17.19 5.93-3.22 3.25-10.15 8.49-12.57 1.41-.72-2.12-.07-4.54-1.15-6.5-.23-.41-.53-.81-.95-1.01s-.99-.17-1.3.18c-.32.37-.28.92-.22 1.4.32 2.49.26 4.47-1.26 6.61-1.68 2.35-4.81 3.72-7.58 2.89-2.14-.65-3.2-2.2-4.54-3.8-1.48-1.76-3.76-3.39-5.61-4.76-5.17-3.82-8.63-4.96-18.16-2.08-5.86 1.77-8.85-1.29-8.68-6.18.17-4.98 1.53-10.26 3.8-14.12 1.65-2.82 5.99-6.05 9.01-7.26-6.77.32-10.75 1.93-15.19 8.85-6.31 9.83-4.01 54.9-4.01 64.5 0 31.97 20.79 46.5 46.43 46.5 5.82 0 11.71-.71 18.56-3.36-.89.02-40.84 6-49.54-17.95-2.62-7.22-2.59-15.16-3.06-22.69-5.11-3.16-8.48-19.56-.68-23.55 3.89-1.99 8.23-2.05 12.99 2.18 6.49 5.78 12.8 4.14 17.63 2.36 2.99-1.1 5.2-3.08 6.77-3.84 2.54-1.24 4.6-.45 5.5.34 1.49 1.32 2.74 8.11 22.46 7.21 10.41-.47 16.44-7.32 16.44-7.32.22-9.15.41-22.86-7.9-25.94m-17.51 8.04.98.49-.03.53c-.32-.44-.64-.82-.95-1.02"/><path fill="#ffecb3" d="M27.37 41.56c-.7-3.37 1.94-6.53 5.38-6.39 3.63.15 8.41.79 12.94 2.76 5.59 2.44 10.08 8.69 8.3 15.27-1.12 4.13-3.75 7.43-11.83 6.64-7.15-.69-12.88-9.11-14.79-18.28"/><path fill="#281010" d="M90.89 72.49c.01 1.19-.1 2.73-.52 4.58 0 0 4.59 1.39 9.14-10.54.17-.46.52-.81.9-.77.75.08 1.2 1.21 1.42 2.2 1.87 8.23-.54 17.89-5.71 22.92-1.23 1.2-5.26 2.81-9.04 1.5-1.87-.65-16.22-9.03-19.94-9.47-2.51-.3.33-3.41 1.25-4.3 2.57-2.5 9.63-.83 14.54-3.45 2.63-1.41 4.67-2.99 5.97-4.12.86-.75 1.97.07 1.99 1.45"/><path fill="#ffecb3" d="M95.22 41.56c.7-3.37-1.94-6.53-5.38-6.39-3.63.15-8.41.79-12.94 2.76-5.59 2.44-10.08 8.69-8.3 15.27 1.12 4.13 5.55 7.76 11.83 6.64 9.52-1.69 12.88-9.11 14.79-18.28"/><ellipse cx="42.98" cy="50.05" fill="#212121" rx="5.74" ry="6"/><ellipse cx="80.35" cy="50.05" fill="#212121" rx="5.74" ry="6"/><path fill="#281010" d="M28.58 72.49c-.02 1.19.14 2.73.7 4.58 0 0-6.19 1.39-12.34-10.54-.24-.46-.7-.81-1.22-.77-1.02.08-1.61 1.21-1.92 2.2-2.53 8.23.72 17.89 7.7 22.92 1.67 1.2 7.1 2.81 12.2 1.5 2.53-.65 21.9-9.03 26.92-9.47 3.39-.3-.45-3.41-1.68-4.3-3.47-2.5-13-.83-19.63-3.45-3.56-1.41-6.31-2.99-8.05-4.12-1.15-.75-2.65.07-2.68 1.45"/><path fill="#394d57" d="M22.47 80.74c3.29 2.13 7.41 2.95 11.27 2.24 0 0-3.02-2.33-4.56-6.32.04.14.06.26.11.4 0 0-6.19 1.39-12.34-10.54-.19-.36-.52-.65-.9-.74-.39 7.05 3.13 12.83 6.42 14.96m36.48-2.13c-3.47-2.5-13-.83-19.63-3.45-3.56-1.41-6.31-2.99-8.05-4.12-.3-.2-.63-.28-.95-.28 2.89 1.35 5.44 8.55 13.27 8.57 3.36.01 6.72-.46 10.08-.35 2.86.09 5.83.73 8.11 2.38-.58-1.02-2.13-2.25-2.83-2.75"/><path fill="#f44336" d="M101.29 56.52c-11.39 6.52-19.52 9.52-30.02 6.04-5.51-1.83-7.54-5.03-7.54-5.03s-7.31 4.59-7.31 9.93 2.81 8.56 6.81 10.26c4.97 2.11 19.86 5.5 39.23 1.94 14.99-2.76 27.65-12.1 20.59-23.06-3.94-6.14-12.69-5.27-21.76-.08"/><path fill="#b31b1b" d="M66.1 97.91c-13.88-.55-25.88 10.84-26.62 10.63a.93.93 0 0 1-.67-.83c-.01-.2-1.14.11-1.29.23-1.56 1.24-1.65 2.38-1.53 2.5.46.46 1.03 1.44 4.44.12.68-.26 14.5-8.25 26.47-7.34 10.13.77 17.15 5.73 18.29 6.54.53.38.83.58 1.2.69s1.65.07 1.77-.75c.06-.4-8.88-11.27-22.06-11.79"/><path fill="#cc2d2d" d="M41.22 104.48c2.03-3.43 9.77-14.08 23.99-13.87 12.15.18 18.74 13.15 19.89 15.38.34.66 2.21 5.4 3.07 3.89.26-.46.22-1.03.12-1.55-1.13-5.63-8.45-21.98-23.29-21.98-11.98 0-21.15 5.91-27.08 17.08-.9 1.69-1.91 3.87-2.15 5.77-.13 1.02.34 1.64.97 1.64 1.23-.01 3.57-4.82 4.48-6.36"/><path fill="#ff8a66" d="M57.22 112.36c.6-2.65 3.63-5.3 8.92-5.3 4.05 0 6.59 3.78 6.59 5.79 0 1.89-1.29 1.94-2.57 1.22-1.37-.77-2.55-1.54-4.43-1.54-2.93 0-3.88 1.63-6.16 2-1.56.24-2.66-.84-2.35-2.17"/><path fill="#281010" d="M41.4 36.92c2.44 2.14 5.24 3.92 8.3 5 1.85.65 4.13.93 5.59-.38 2.21-1.98.94-8.5.34-11.05-.77-3.3-2.21-6.46-4.23-9.18-.53-.71-1.64-.52-1.92.32l-1.55 4.73c-3.85-8.3-8.17-11.79-10.59-13.18-.77-.44-1.69.22-1.51 1.08.26 1.27.58 2.88.74 3.93-4.3-3.33-9.73-5.2-15.18-5.21.65.01 3.43 9.42 20.01 23.94"/><path fill="#394d57" d="m38.63 24.84-.84-5.79s4.6 2.58 10.93 12.7l.93-5.72c3.77 3.63 6.16 10.67 5.49 15.62.01 0 0 0 .01.01 2.4-1.84 1.09-8.56.48-11.17-.77-3.3-2.21-6.44-4.22-9.16-.53-.72-1.66-.52-1.94.33l-1.54 4.71c-3.85-8.29-8.15-11.77-10.58-13.17-.77-.44-1.7.22-1.52 1.09.26 1.27.58 2.87.74 3.92-4.3-3.33-9.73-5.2-15.18-5.21 0-.01 6.81.96 17.24 11.84"/><path fill="#281010" d="M80.47 37.21c-2.09 2.03-4.49 3.71-7.11 4.74-1.59.62-3.54.88-4.79-.36-1.89-1.88-.8-8.05-.29-10.47.66-3.13 1.89-6.11 3.63-8.7.45-.67 1.4-.49 1.64.31l1.33 4.48c3.3-7.86 6.99-11.16 9.07-12.48.66-.42 1.45.21 1.3 1.03-.22 1.2-.5 2.73-.63 3.73 3.69-3.16 8.33-4.92 13-4.93-.57-.02-2.95 8.9-17.15 22.65"/><path fill="#394d57" d="m82.85 25.77.72-5.49s-3.94 2.45-9.36 12.03l-.8-5.42c-3.23 3.44-5.28 10.11-4.7 14.79-.01 0 0 0-.01.01-2.06-1.74-.93-8.11-.41-10.58.66-3.12 1.89-6.1 3.61-8.68.45-.68 1.42-.49 1.66.31l1.32 4.46c3.29-7.85 6.98-11.15 9.06-12.48.66-.42 1.46.21 1.3 1.03-.22 1.2-.49 2.72-.63 3.71 3.69-3.16 8.33-4.92 13-4.93 0 .01-5.84.94-14.76 11.24"/><path fill="#ff8a66" d="M106.13 57.49c5.1-2.88 8.7-2.1 9.54-.45 1.42 2.79-1.8 5.44-5.28 6.31-4.77 1.19-10.48 2.55-11.11.37-.64-2.18 3.44-4.31 6.85-6.23"/><path fill="#b71c1c" d="M125.07 62.76c0-3.04-2.01-6.16-2.01-6.16s.78 4.12-2.57 9.15c-2.8 4.2-9.49 8.28-18.75 9.98-5.37.99-10.78 1.49-16.08 1.49-10.58 0-18.09-1.99-20.86-3.17-2.39-1.02-5.47-2.21-8.35-6.05.18 5.02 2.93 8.08 6.79 9.73 3.4 1.45 11.46 3.49 22.43 3.49 5.04 0 10.7-.43 16.81-1.56 12.05-2.22 22.6-8.69 22.6-16.85-.01-.01-.01-.03-.01-.05"/></svg>