<svg viewBox="0 0 128 128"><radialGradient id="a" cx="56.1" cy="84.3" r="87.5" gradientTransform="matrix(1 0 0 1.0168 0 -1.414)" gradientUnits="userSpaceOnUse"><stop offset=".4" stop-color="#ffd600"/><stop offset=".7" stop-color="#ff9800"/><stop offset="1" stop-color="#f44336"/></radialGradient><path fill="url(#a)" d="M99.7 51C97 35.7 90.5 31 84.8 26.8c-4-2.9-7.3-5.4-9-10.8-1.9-5.8 2.8-11.9 2.8-12v-.5l-.5-.2-1.5.2c-6 .8-22.3 3-26.5 24.6-.6 2.9-2.3 5.2-4.1 5.5q-1.9.4-3.1-1.8c-3.5-5.7 3.8-15.3 3.9-15.4V16l-.5-.3c-.2 0-20.7 4.3-29 25.3-2.6 6.4-9.6 28.6 5.3 47.8s24 20.4 24.2 20.5c0 .1 58-20.8 52.9-58.2"/><linearGradient id="b" x1="66.4" x2="67.9" y1="55.2" y2="7.9" gradientUnits="userSpaceOnUse"><stop offset=".2" stop-color="#ffeb3b"/><stop offset="1" stop-color="#ffd600"/></linearGradient><path fill="url(#b)" d="M70.8 36.9c-4-7.7-10.5-24 6.5-32.8-12.7 2.3-22.1 11.4-21.4 26.7.5 10 6.1 18.9 8.8 28.5 3.5 13 .8 21.2-.7 27.3C85.7 72.4 75.8 46.8 70.8 37" opacity=".8"/><radialGradient id="c" cx="64.6" cy="119.1" r="100.4" gradientUnits="userSpaceOnUse"><stop offset=".1" stop-color="#ff6d00"/><stop offset=".5" stop-color="#f44336"/><stop offset=".8" stop-color="#b71c1c"/></radialGradient><path fill="url(#c)" d="M87.3 41c-16.6 0-22.7 17.1-22.7 17.1s-4.4-17-22.8-17c-12.6 0-27 10-21.7 32.7s44.5 51 44.5 51 39-28.3 44.4-51S101 41 87.3 41"/><path fill="#ff7043" d="M28.9 53.1c2.8-3.5 7.9-6.5 12.2-3 2.3 1.8 1.3 5.5-.8 7.1-3 2.3-5.7 3.7-7.5 7.3a22 22 0 0 0-2.1 7 1 1 0 0 1-1.9.4c-3.2-5.7-4.1-13.6 0-18.8m45.7 7.5a2 2 0 0 1-1.8-2.5q1.4-3.5 3.5-6.5c2.1-3 6-4.6 8.6-2.9 2.5 1.8 2.2 5.5.4 7.2a17 17 0 0 1-10.7 4.7"/><linearGradient id="d" x1="44.8" x2="59.7" y1="96.1" y2="141.3" gradientUnits="userSpaceOnUse"><stop offset=".1" stop-color="#ffeb3b"/><stop offset="1" stop-color="#ffd600" stop-opacity="0"/></linearGradient><path fill="url(#d)" d="M62.6 123.2c-12.1-1.6-17.8-5-22-13.7-2.2-4.5-2.2-12-2.3-16.8 0-5.3-1.6-9.8-1.6-9.8 3.1.6 8.9 6.1 11.5 16.4 4.6 17.8 14.4 24 14.4 24"/><linearGradient id="e" x1="94.7" x2="120.6" y1="46.5" y2="61.1" gradientUnits="userSpaceOnUse"><stop offset="0" stop-color="#ffd600"/><stop offset="1" stop-color="#ffd600" stop-opacity="0"/></linearGradient><path fill="url(#e)" d="M104.8 83s9.1-5.3 11.4-18c1.4-8.2-.3-16.5-8.2-24.6-2.8-2.8-12-9.9-8.5-22 0 0-8.6 7.4-5.7 20.6 3.3 15 17.3 20 11 44"/><linearGradient id="f" x1="87.7" x2="94.9" y1="65.4" y2="140.3" gradientUnits="userSpaceOnUse"><stop offset=".2" stop-color="#ffeb3b"/><stop offset=".9" stop-color="#ffd600" stop-opacity="0"/></linearGradient><path fill="url(#f)" d="M97.9 66c2.4.9 12.2 16.2 3.1 32.3-8.1 14.3-24 16.5-24 16.5s12.5-12.6 17.4-24.5C99 79.5 98 66 98 66"/></svg>