<svg xmlns="http://www.w3.org/2000/svg" width="1em" height="1em" viewBox="0 0 128 128"><defs><path id="notoGrowingHeart0" fill="#D81B60" d="M89.12 24.65c-18.79 0-25.69 19.2-25.69 19.2s-6.81-19.2-25.74-19.2c-14.22 0-30.44 11.27-24.45 36.89c5.17 22.11 38.82 48.9 47.94 55.83c-8.64-6.58-39.14-30.99-43.86-51.15c-5.5-23.53 9.39-33.89 22.46-33.89c17.39 0 23.64 17.64 23.64 17.64s6.34-17.64 23.6-17.64c14.11 0 27.94 10.36 22.44 33.89c-5.5 23.51-45.92 52.79-46 52.85s44.08-31.92 50.07-57.54s-9.04-36.88-24.41-36.88z" opacity=".3"/></defs><path fill="#D81B60" d="M93.96 8.97C72.05 8.97 64 31.35 64 31.35S56.06 8.97 33.99 8.97c-16.58 0-35.48 13.14-28.5 43.01c6.02 25.75 45.2 56.97 55.87 65.08c-10.2-7.77-46.29-36.64-51.87-60.49C2.98 28.73 20.6 16.49 36.04 16.49C56.6 16.49 64 37.35 64 37.35s7.5-20.86 27.91-20.86c16.69 0 33.03 12.24 26.53 40.07c-6.5 27.8-54.31 62.44-54.39 62.49s51.39-37.21 58.38-67.08c6.98-29.86-10.56-43-28.47-43z" opacity=".3"/><path fill="#D81B60" d="M118.44 56.56c6.51-27.82-9.84-40.07-26.53-40.07C71.5 16.49 64 37.35 64 37.35s-7.4-20.86-27.96-20.86c-15.44 0-33.06 12.24-26.55 40.07c5.58 23.85 41.67 52.73 51.87 60.49c1.7 1.29 2.68 2 2.69 2c.07-.05 47.88-34.69 54.39-62.49z" opacity=".3"/><path fill="#EF5090" d="M84.23 42.62c-15.22 0-20.8 15.55-20.8 15.55s-5.52-15.55-20.84-15.55c-11.51 0-24.64 9.13-19.79 29.87c4.85 20.74 40.67 46.59 40.67 46.59s35.69-25.84 40.54-46.58c4.85-20.75-7.34-29.88-19.78-29.88z"/><path fill="#DA2E75" d="M40.24 44.17c11.94 0 17.88 12.84 19.79 18.04c.27.74 1.31.77 1.62.04l1.75-4.09c-2.46-7.88-9.24-15.55-20.81-15.55c-4.79 0-9.85 1.59-13.79 4.92c3.47-2.27 7.55-3.36 11.44-3.36zm43.99-1.55c-3.76 0-6.93.95-9.58 2.38c1.83-.7 4.06-.83 6.3-.83c11.26 0 21.33 8.53 16.78 28.27c-3.9 16.94-26.71 37.49-33.68 45.33c-.16.18-.28.63-.38 1.15c2.99-2.2 35.69-26.63 40.32-46.42c4.87-20.75-7.32-29.88-19.76-29.88z"/><path fill="#F386AB" d="M30.79 53.64c2.6-3.25 7.26-5.94 11.2-2.84c2.13 1.67 1.2 5.11-.71 6.55c-2.78 2.11-5.2 3.38-6.89 6.69c-1.02 1.99-1.63 4.16-1.94 6.38c-.12.87-1.27 1.09-1.7.32c-2.93-5.21-3.76-12.36.04-17.1zm41.75 6.83c-1.22 0-2.09-1.18-1.64-2.32c.83-2.09 1.9-4.13 3.18-5.93c1.9-2.67 5.52-4.22 7.82-2.61c2.35 1.66 2.04 4.96.39 6.56c-3.53 3.42-7.99 4.3-9.75 4.3z"/><g fill="#D81B60"><path d="M89.12 24.65c-18.79 0-25.69 19.2-25.69 19.2s-6.81-19.2-25.74-19.2c-14.22 0-30.44 11.27-24.45 36.89c5.17 22.11 38.82 48.9 47.94 55.83c-8.64-6.58-39.14-30.99-43.86-51.15c-5.5-23.53 9.39-33.89 22.46-33.89c17.39 0 23.64 17.64 23.64 17.64s6.34-17.64 23.6-17.64c14.11 0 27.94 10.36 22.44 33.89c-5.5 23.51-45.92 52.79-46 52.85s44.08-31.92 50.07-57.54s-9.04-36.88-24.41-36.88z" opacity=".3"/><path d="M63.47 119.08c-.01-.01-.84-.61-2.28-1.7c1.44 1.09 2.28 1.7 2.28 1.7z" opacity=".3"/><path d="M109.47 66.23c5.5-23.53-8.32-33.89-22.44-33.89c-17.26 0-23.6 17.64-23.6 17.64s-6.26-17.64-23.64-17.64c-13.06 0-27.96 10.35-22.46 33.89c4.72 20.16 35.22 44.57 43.86 51.15c1.44 1.09 2.27 1.7 2.28 1.7c.08-.06 40.5-29.34 46-52.85z" opacity=".4"/></g><use href="#notoGrowingHeart0" opacity=".3"/><g fill="#D81B60"><path d="M93.96 8.97C72.05 8.97 64 31.35 64 31.35S56.06 8.97 33.99 8.97c-16.58 0-35.48 13.14-28.5 43.01c6.02 25.75 45.2 56.97 55.87 65.08c-10.2-7.77-46.29-36.64-51.87-60.49C2.98 28.73 20.6 16.49 36.04 16.49C56.6 16.49 64 37.35 64 37.35s7.5-20.86 27.91-20.86c16.69 0 33.03 12.24 26.53 40.07c-6.5 27.8-54.31 62.44-54.39 62.49s51.39-37.21 58.38-67.08c6.98-29.86-10.56-43-28.47-43z" opacity=".3"/><path d="M64.05 119.05c-.01-.01-.99-.72-2.68-2c1.69 1.29 2.68 2 2.68 2z" opacity=".3"/></g><use href="#notoGrowingHeart0" opacity=".3"/></svg>