<svg viewBox="0 0 128 128"><g fill="#f44336"><path d="M94 9c-10 0-17.8 6-22.8 13-5.6 7.8-11 20.9-13.1 26-.6 1.4-.3 3 .6 4l13.7 16q.6.9.2 1.7L61.2 89.4q-.7 1.3-.3 2.5l6.2 22.4c.3 1 1.5 1.4 2.3.8 13.3-10.5 47.4-39.1 53-63C129.4 22 112 9 94 9"/><path d="m63.6 68.4-14.7-17 11-23.2q1.2-2.7-.5-5.2A31 31 0 0 0 34 9C17.4 9-1.5 22 5.5 52c5.4 23 37.7 51.3 52 62.7.4.2 1 0 1-.5l.6-7L53 89.5l10.8-18.8q.7-1.3-.2-2.4"/></g><path fill="#c33" d="M94 9c-6.7 0-12.3 2.7-16.8 6.5.8-.6 6.1-4.3 12-4.3 16.2 0 30.8 12.3 24.2 40.7-5.2 22.7-34 50-46.1 62.7.4.7 1.4 1 2.1.4 13.3-10.5 47.4-39.1 53-63C129.4 22 112 9 94 9"/><path fill="#ff8a80" d="M77.1 34.7c-1.7 0-3-1.8-2.3-3.4q1.8-4.6 4.5-8.5c2.8-3.9 8-6.1 11.3-3.8 3.4 2.4 3 7.2.6 9.5a23 23 0 0 1-14 6.2M17 24.8c3.8-4.7 10.5-8.5 16.1-4 3.1 2.3 1.8 7.3-1 9.4-4 3-7.5 4.8-10 9.6a29 29 0 0 0-2.7 9.2 1.3 1.3 0 0 1-2.5.4c-4.2-7.5-5.4-17.8.1-24.6"/><path fill="#c33" d="m53 89.6 10.8-18.8q.7-1.3-.2-2.5l-14.7-17 11.7-24.2c.8-1.7.6-3.7-.4-5.2A32 32 0 0 0 34 9C24 9 13 13.9 7.6 24.3c6-7.5 15-11 23.6-11 13 0 21 7.7 25.5 14q1.6 2.6.4 5.2L46 55.6l14.7 17q1 1.2.2 2.5L50.2 93.8s5.9 15.8 8 20.7l.4-.8s.8-6.3.4-7.8z"/></svg>