<svg viewBox="0 0 128 128"><path fill="#fff" d="M117.6 102.3H10.4c-2.8 0-3.9-1.7-3.9-3.8v-69c0-2.1 1.7-3.8 3.9-3.8h107.2c2.2 0 3.9 1.7 3.9 3.8v69a4 4 0 0 1-3.9 3.8"/><path fill="#6fbff0" stroke="#6fbff0" stroke-miterlimit="10" stroke-width=".5" d="m89 57.6 30.4-28.2c.6-.5 1.8-.7 1.8-.7s-1.4-1.6-3.2-.1L70.3 66.4a11 11 0 0 1-6.3 2.3 11 11 0 0 1-6.3-2.3L10 28.6c-1.8-1.5-3.2 0-3.2 0s1.2.3 1.8.8l30 28L7.8 99.7c-.5.6 1 1.5 1.6.9l33.7-40.1 12.3 11q3.8 3.4 8.6 3.5 4.7-.1 8.6-3.4l12.3-11 33 40c.6.6 2.1-.4 1.6-1z"/><path fill="none" stroke="#6fbff0" stroke-miterlimit="10" stroke-width="4" d="M117.6 102.3H10.4c-2.8 0-3.9-1.7-3.9-3.8v-69c0-2.1 1.7-3.8 3.9-3.8h107.2c2.2 0 3.9 1.7 3.9 3.8v69a4 4 0 0 1-3.9 3.8z"/><path fill="#b71c1c" d="M76.7 41C67.4 41 64 52 64 52s-3.3-11-12.7-11c-7 0-15 5.5-12 18S64 87 64 87s21.8-15.6 24.7-28c3-12.5-5-18-12-18"/><path fill="#f44336" d="M75.2 41C67 41 64 50.8 64 50.8S61 41 52.8 41c-6.2 0-13.3 4.9-10.7 16s22 25.2 22 25.2 19.2-14 21.8-25.1S81.4 41 75.2 41"/></svg>