<svg xmlns="http://www.w3.org/2000/svg" width="1em" height="1em" viewBox="0 0 128 128"><radialGradient id="a" cx="56.143" cy="84.309" r="87.465" gradientTransform="matrix(1 0 0 1.0168 0 -1.414)" gradientUnits="userSpaceOnUse"><stop offset=".39" stop-color="#ffd600"/><stop offset=".69" stop-color="#ff9800"/><stop offset="1" stop-color="#f44336"/></radialGradient><path fill="url(#a)" d="M99.66 51.02C97 35.69 90.52 30.95 84.8 26.77c-3.93-2.87-7.33-5.35-9.04-10.79-1.83-5.8 2.8-11.84 2.85-11.9.13-.16.14-.39.03-.57a.485.485 0 0 0-.52-.23c-.39.07-.89.14-1.48.21-6.1.81-22.29 2.94-26.55 24.65-.56 2.86-2.29 5.18-4.1 5.51-1.16.21-2.25-.43-3.13-1.86-3.5-5.68 3.85-15.25 3.93-15.35.13-.16.14-.39.03-.57a.5.5 0 0 0-.52-.23c-.21.04-20.7 4.31-29.02 25.26-2.53 6.37-9.62 28.64 5.28 47.76 14.94 19.17 24.01 20.48 24.21 20.59.07.05 58.05-20.89 52.89-58.23"/><linearGradient id="b" x1="66.376" x2="67.864" y1="55.177" y2="7.921" gradientUnits="userSpaceOnUse"><stop offset=".165" stop-color="#ffeb3b"/><stop offset="1" stop-color="#ffd600"/></linearGradient><path fill="url(#b)" d="M70.75 36.89c-3.97-7.72-10.41-23.91 6.55-32.76C64.55 6.42 55.18 15.49 55.94 30.8c.49 9.98 6.1 18.88 8.71 28.52 3.51 13.03.86 21.17-.67 27.32 21.76-14.28 11.86-39.87 6.77-49.75" opacity=".8"/><radialGradient id="c" cx="64.554" cy="119.112" r="100.435" gradientUnits="userSpaceOnUse"><stop offset=".119" stop-color="#ff6d00"/><stop offset=".485" stop-color="#f44336"/><stop offset=".814" stop-color="#b71c1c"/></radialGradient><path fill="url(#c)" d="M87.31 41.09c-16.65 0-22.76 17.01-22.76 17.01s-4.38-17.01-22.8-17.01c-12.6 0-26.96 9.98-21.65 32.68 5.31 22.69 44.49 50.97 44.49 50.97s39.05-28.27 44.36-50.96c5.31-22.71-8.03-32.69-21.64-32.69"/><path fill="#ff7043" d="M28.85 53.14c2.85-3.56 7.94-6.49 12.25-3.11 2.33 1.83 1.31 5.59-.77 7.17-3.04 2.31-5.69 3.7-7.53 7.32-1.11 2.18-1.78 4.55-2.12 6.98-.13.96-1.39 1.19-1.86.35-3.22-5.7-4.13-13.52.03-18.71m45.68 7.47c-1.34 0-2.28-1.29-1.79-2.54.91-2.29 2.07-4.52 3.48-6.49 2.08-2.92 6.04-4.62 8.55-2.85 2.57 1.81 2.24 5.43.43 7.17-3.88 3.75-8.75 4.71-10.67 4.71"/><linearGradient id="d" x1="44.847" x2="59.731" y1="96.121" y2="141.33" gradientUnits="userSpaceOnUse"><stop offset=".076" stop-color="#ffeb3b"/><stop offset="1" stop-color="#ffd600" stop-opacity="0"/></linearGradient><path fill="url(#d)" d="M62.56 123.22c-12.1-1.61-17.8-4.96-21.99-13.7-2.14-4.47-2.15-12.11-2.23-16.84-.09-5.24-1.67-9.77-1.67-9.77 3.16.56 8.89 6.11 11.53 16.37 4.59 17.81 14.36 23.94 14.36 23.94"/><linearGradient id="e" x1="94.721" x2="120.608" y1="46.472" y2="61.142" gradientUnits="userSpaceOnUse"><stop offset="0" stop-color="#ffd600"/><stop offset="1" stop-color="#ffd600" stop-opacity="0"/></linearGradient><path fill="url(#e)" d="M104.82 82.91s9.09-5.25 11.34-17.89c1.47-8.25-.28-16.49-8.19-24.58-2.81-2.88-12-9.89-8.47-21.97 0 0-8.64 7.33-5.71 20.55 3.3 14.89 17.35 20 11.03 43.89"/><linearGradient id="f" x1="87.653" x2="94.908" y1="65.354" y2="140.331" gradientUnits="userSpaceOnUse"><stop offset=".187" stop-color="#ffeb3b"/><stop offset=".934" stop-color="#ffd600" stop-opacity="0"/></linearGradient><path fill="url(#f)" d="M97.88 66c2.43.86 12.27 16.19 3.12 32.29-8.14 14.32-24.05 16.54-24.05 16.54s12.56-12.58 17.47-24.52C98.86 79.54 97.88 66 97.88 66"/></svg>