<svg viewBox="0 0 128 128"><path fill="#e0e0e0" d="M94 9C72 9 64 31.4 64 31.4S56 9 34 9C17.4 9-1.5 22 5.5 52S64 119 64 119s51.3-37.1 58.3-67S112 9 94 9"/><path fill="#bdbdbd" d="M30.6 11.2c17.2 0 25.7 18.5 28.5 26 .4 1 1.9 1 2.3 0l2.6-5.8A30.6 30.6 0 0 0 34 9c-7 0-14.2 2.3-19.9 7 5-3.2 11-4.8 16.5-4.8M94 9q-8 .2-13.6 3.8 4-1.5 8.8-1.6c16.2 0 30.8 12.3 24.2 40.7-5.6 24.4-38.5 54-48.5 65.3-.6.7-.9 1.8-.9 1.8s51.4-37.2 58.4-67c7-30-11.9-43-28.4-43"/><path fill="#fff" d="M17 24.8c3.8-4.7 10.5-8.5 16.1-4 3.1 2.3 1.8 7.3-1 9.4-4 3-7.5 4.8-10 9.6a29 29 0 0 0-2.7 9.2 1.3 1.3 0 0 1-2.5.4c-4.2-7.4-5.4-17.7.1-24.6m60.1 9.9c-1.7 0-3-1.7-2.3-3.4q1.8-4.6 4.5-8.5c2.8-3.9 8-6.1 11.3-3.8 3.4 2.4 3 7.2.6 9.5a23 23 0 0 1-14 6.2"/></svg>