<svg viewBox="0 0 128 128"><defs><path id="a" fill="#d81b60" d="M89.1 24.7c-18.8 0-25.7 19.2-25.7 19.2s-6.8-19.3-25.7-19.3c-14.2 0-30.4 11.3-24.5 37 5.2 22 38.9 48.8 48 55.8-8.7-6.6-39.2-31-43.9-51.2-5.5-23.5 9.4-33.9 22.5-33.9C57.2 32.3 63.4 50 63.4 50S69.8 32.3 87 32.3c14.1 0 28 10.4 22.5 34-5.5 23.4-46 52.7-46 52.8s44-32 50-57.6-9-36.9-24.4-36.9" opacity=".3"/></defs><path fill="#d81b60" d="M94 9C72 9 64 31.4 64 31.4S56 9 34 9C17.4 9-1.5 22 5.5 52c6 25.7 45.2 57 55.9 65-10.2-7.7-46.3-36.6-52-60.4C3 28.7 20.7 16.5 36 16.5c20.6 0 28 20.9 28 20.9s7.5-21 28-21c16.6 0 33 12.3 26.4 40.2C112 84.4 64.1 119 64 119s51.4-37.3 58.4-67.1C129.4 22 112 9 94 9" opacity=".3"/><path fill="#d81b60" d="M118.4 56.6c6.5-27.9-9.8-40.1-26.5-40.1C71.5 16.5 64 37.4 64 37.4s-7.4-21-28-21c-15.4 0-33 12.3-26.5 40.2C15 80.4 51.2 109.3 61.4 117l2.7 2c0-.1 47.8-34.7 54.3-62.5" opacity=".3"/><path fill="#ef5090" d="M84.2 42.6c-15.2 0-20.8 15.6-20.8 15.6S58 42.6 42.6 42.6C31 42.6 18 51.8 22.8 72.5S63.5 119 63.5 119 99.2 93.2 104 72.5c4.9-20.7-7.3-29.9-19.8-29.9"/><path fill="#da2e75" d="M40.2 44.2c12 0 18 12.8 19.8 18 .3.7 1.3.8 1.7 0l1.7-4a21 21 0 0 0-20.8-15.6c-4.8 0-9.9 1.6-13.8 5a21 21 0 0 1 11.4-3.4m44-1.6q-5.6.1-9.5 2.4 2.8-1 6.3-.8c11.2 0 21.3 8.5 16.7 28.2-3.9 17-26.7 37.5-33.6 45.4l-.4 1.1c3-2.2 35.7-26.6 40.3-46.4 4.9-20.7-7.3-29.9-19.8-29.9"/><path fill="#f386ab" d="M30.8 53.6c2.6-3.2 7.2-5.9 11.2-2.8 2.1 1.7 1.2 5.1-.7 6.6-2.8 2-5.2 3.3-7 6.6a20 20 0 0 0-1.9 6.4 1 1 0 0 1-1.7.3c-2.9-5.2-3.7-12.3 0-17m41.8 6.8c-1.2 0-2-1.2-1.6-2.4q1.2-3 3.2-5.9c1.9-2.7 5.5-4.2 7.8-2.6 2.4 1.7 2 5 .4 6.6-3.5 3.4-8 4.3-9.8 4.3"/><g fill="#d81b60"><path d="M89.1 24.7c-18.8 0-25.7 19.2-25.7 19.2s-6.8-19.3-25.7-19.3c-14.2 0-30.4 11.3-24.5 37 5.2 22 38.9 48.8 48 55.8-8.7-6.6-39.2-31-43.9-51.2-5.5-23.5 9.4-33.9 22.5-33.9C57.2 32.3 63.4 50 63.4 50S69.8 32.3 87 32.3c14.1 0 28 10.4 22.5 34-5.5 23.4-46 52.7-46 52.8s44-32 50-57.6-9-36.9-24.4-36.9M63.5 119l-2.3-1.6z" opacity=".3"/><path d="M109.5 66.2C115 42.7 101 32.3 87 32.3 69.8 32.3 63.4 50 63.4 50s-6.2-17.7-23.6-17.7c-13 0-28 10.4-22.5 34 4.7 20 35.3 44.5 43.9 51l2.3 1.8s40.5-29.4 46-52.9" opacity=".4"/></g><use href="#a" opacity=".3"/><path fill="#d81b60" d="M94 9C72 9 64 31.4 64 31.4S56 9 34 9C17.4 9-1.5 22 5.5 52c6 25.7 45.2 57 55.9 65-10.2-7.7-46.3-36.6-52-60.4C3 28.7 20.7 16.5 36 16.5c20.6 0 28 20.9 28 20.9s7.5-21 28-21c16.6 0 33 12.3 26.4 40.2C112 84.4 64.1 119 64 119s51.4-37.3 58.4-67.1C129.4 22 112 9 94 9M64 119l-2.6-2z" opacity=".3"/><use href="#a" opacity=".3"/></svg>