<svg viewBox="0 0 128 128"><g fill="#f44336"><path d="M27.1 90.3c10.8-3.1 39-12 76-10 1.1 0 1.3 1.8.1 2C86 85.8 42.8 95 30.6 99.7a4 4 0 0 1-5-2l-1-1.8a4 4 0 0 1 2.5-5.6"/><path stroke="#f44336" stroke-miterlimit="10" d="M7 113.3c17-4.2 88.4-22.1 116-21.8 1.2 0 1.4 1.7.2 2-21.5 4.6-95.6 21.8-112.6 30.1a4 4 0 0 1-5.5-2.3l-.8-2.4c-.9-2.7.4-5 2.7-5.6zm-.5-86C3 28.8 3.5 22 5.9 20 13 14.6 30.1 8.1 40 4.2c2-.8 4 1.3 3.2 3.3A773 773 0 0 0 12 86.7c-.5 1.6-3.8 1.7-4 0-.9-9.2 5.5-34.5 19.1-64.2.5-1-.6-2.2-1.7-2Q19.5 22 6.5 27.4zM111.8 8.7l-1.8-.4c-30-1-44 8.5-44.5 8.9a4 4 0 0 0-.6 5.6c1.1 1.4 2.2 1.5 2.8 1.5q.5 0 .6.4c1.2 5 1.4 12-.8 20.2C63.7 59.1 55.5 67 51.2 67h-.7c-1.7-.6-3.5-3.3-4.5-7a42 42 0 0 1 .7-20.6c2.6-10 7.5-16.8 11.6-20q3-2.3 4.6-5.5c.5-1 2.8-5.5 0-5.6-9.7 0-20.5 12-25 28.8-4.8 18.4-.2 35.7 10.3 38.5q1.5.4 3 .4c9.8 0 20.6-12 25-28.8 2.5-9.3 2.6-18.3.6-25.3q-.2-1.4 1-2c3-1 8.9-2 13.9-2.8.8 0 1.3.8.8 1.5A54 54 0 0 0 83.8 37c-5 18.4-.3 35.7 10.2 38.5q1.5.4 3 .4c9.9 0 20.6-12 25-28.8 5-18.4.4-35.7-10.2-38.5zm1.5 36.2C109.6 59.1 101.3 67 97 67h-.7c-1.7-.6-3.5-3.3-4.5-7a42 42 0 0 1 .7-20.6c3.8-14.2 12-22.1 16.3-22.1h.7c3.7 1 8 12.3 3.8 27.6z"/></g></svg>