<svg viewBox="0 0 128 128"><path fill="#e53935" d="M112.3 6.1a73 73 0 0 1-19.2 1.7c-16.9-.5-32.6-4.4-44.7 5.3-9.5 7.6-6.7 22.3-9.5 25.2-2.9 2.8-17.6 0-25.3 9.6C4 59.9 9 74.3 8.2 90.3a118 118 0 0 1-2.3 21.2c-1 4 1.5 7 5.1 5 13-7.1 21-22.7 27-36.6 2.4-5.2 6-5.7 10.8-7.9 5.2-2.3 9.4-3.7 14.7-9 5.3-5.4 6.7-9.5 9-14.7 2.2-4.9 2.8-8.5 8-10.8 13.8-6 29.4-14 36.6-27 2-3.6-.8-5.4-4.8-4.4m6.4 15.8c-.4-2.4-3.3-3-5.1-1.2a103 103 0 0 0-21.9 28.8C87.2 59 85.2 67 78 74.5 69.3 83.7 57.3 89 48 93.4A93 93 0 0 0 19.5 115c-2 2-1.2 5 1.4 5.2 6.4.4 16.5 1.1 28.3 1.7 18.3 1 36.5-2 53.1-17.7 17.4-16.2 17.4-32.6 18-50.4.5-11.7-.5-26.2-1.5-32"/></svg>