<svg viewBox="0 0 128 128"><path fill="#615555" d="m71.5 103.2-6.8 19.2s14.3-.2 18.4-.6 11.8-3.1 13-7.2-1-20.5-1-20.5 6.2-1.7 9.1-5 2.1-8.7 1.9-12.4-.4-34.7-.8-38.4q-1-8.4-6-14.3c-5-5.9-7.2-5.4-8.6-6.1a58 58 0 0 0-7.4-2.3z"/><path fill="#4a4240" d="M33.3 26c-.1.3-3.4 3-3.5 5.7q.1 4 .7 6.7l1 4.9 52.4-.3s2-1.9 1.7-5.2c-.5-5.5-2.8-8.2-4.8-10.6s-28.5-6.5-28.5-6.5z"/><path fill="#91837f" d="M85.4 8.8s2 .7 4.6 4c2.1 2.9 1.4 6.7.2 10.4-1 3-3.3 7.4-6.4 6.8-2.5-.6-12.3-3.7-20.3-5a47 47 0 0 0-23.7 1.1c-6.5 2.2-10 5.6-10 5.6s-.3-4 .6-6 10.2-6.8 10.2-6.8z"/><path fill="#bfb3b3" d="M78.5 22.7c3.7.3 6.4-2.3 7.6-6.6s.9-6.1.3-6.8c-.5-.6-12.7-6.5-28-5.2S39 10.2 36.8 12.4c-4 3.8-6.7 10.5-6.5 13.4 0 0 2.3-4.4 17-6 16.8-2 26.9 2.4 31.2 2.9"/><path fill="#948585" d="M31.8 45.5s-.8-2.9-.1-3.8 3.2-3 7-3.8 7.7.2 7.7.2l14.3-4.9s1 1.5 1.7 3 1.7 5.2 1.7 5.2 1-1.5 4.3-2.5 8.8.5 8.8.5l3 26.2s-.7 7.2-.5 21.7.1 21.1-.5 26.2c-.3 2.2-2.3 7.5-10.8 8.8-8.1 1.3-22.4 2.8-33.1 1.9s-13.7-5-14.7-7c-1.1-2.2.4-8 .4-8l5.6-5.5-3-20.1c0-.6 8.2-38 8.2-38"/><path fill="#bfb3b3" d="M84.4 43c-1.3-1.7-7.1-5.1-11.9-3.3-5 2-7.5 8.2-5.9 13.4 1.2 3.6 4.4 7 7.2 10 3 3.3 4.3 5.8 5.5 5.8s2.6-11.4 3.5-15.4S85.4 44 84.4 43"/><path fill="#615654" d="M65.5 40.2s-.8.4-1.2.2-1-1.7-1-1.7L51 55.3q-.7 1.3 0 1.8c.6.5 6.4-1 10.1 1.9 4 2.9 4 8.5 2.6 10.7-1.5 2-6.2 2.2-9.2 0a31 31 0 0 0-16-4.5c-3.4 0-9.4.6-9.4.6L25.5 69l3.6 5 14.3 5.2 2.1-3.4s12.5 1.3 16.7.6S69.8 72.3 69 66c-.7-5.8-4.7-8.4-6.6-12.9-1.7-3.9 0-7.7.6-9.2.5-1.2 2.4-3.7 2.4-3.7M47 81.2l8.3 3.7s4.7 1 5.3 2.4c.4.9 0 2.4-2.3 1.8l-9-2.5a73 73 0 0 0-16.6-.4c-2 .5-4.8 2.6-6.3 2.3s-1.4-1.3-1.4-3c0-.9 3.2-3 3.2-3l16.5-2z"/><path fill="#615654" d="M30.7 89.4c-1 2.3 5.8 5 9.1 5.1 7.6.3 11.9-4.2 11.8-4.6-.2-.9-7.3-1-12-1-4.3 0-8.6-.3-9 .5"/><path fill="#bfb3b3" d="M50 65c1.2.4 4.5-.4 7.5-2q4.6-2.2 4.6-3.2c0-1-2-2.4-4.7-2.7q-4.2-.3-5.1.8c-1 .9-4.4 6.3-2.3 7"/><path fill="#4a4240" d="M42 67.6c-2 .2-1 2.8 0 4.2q1.3 2.4 3 2.8c1.7.4 6.7.2 6.7-1.6s-7.3-5.8-9.8-5.4m-7.7.6c-1-.3-3.2 1.6-3.5 2.3-.2.8 1.5 3.5 4 2.9 1.8-.4.4-4.9-.5-5.2"/><path fill="#bfb3b3" d="M60.7 33.2c0 1.4-11.3 19.5-12.7 21.7s-4.5 7.5-5.4 8.3c-1.2 1-5 2-7 2.2-5.1.4-7.6 2.2-8.2 3.4s3.9 5.2 7.1 6 10 .5 11.4 1 3.8 2.8 5.8 4 4.7 3 4.7 4-.5 1.2-1.4 1c-1.1-.3-5.6-1.6-8.2-2a53 53 0 0 0-16 .3c-2.2.6-6.3 2.6-5.7 4.4q.7 2.3 2.5 4.4c1 1.3 3 4.8 4.4 6.9a11 11 0 0 0 8.6 5.8c5.6.4 7.8-2.4 10.4-6 2.6-3.5 4.2-7.1 7.9-6.7s4.4 5 5.1 8.3 2.7 12.2 1.7 14.2-2.7 2.3-5.8 2.8-16.7 2.5-25 1.4-13.4-3.9-13.9-6.6.7-4 .9-9.3-.5-30.2 2-40.4 6.3-15.8 8.7-17.7 7.2-3.7 8.3-3.2-4.5 12.4-4.5 12.4 3.5-1 3.8-1.8 9.4-20.5 11.1-21.4 3.5-.8 5.5-.2 3.9 2.8 3.9 2.8"/><path fill="#d4cccd" d="M34 45.8c-1.1-.8-2.8.4-3.6 2s-.1 2.9.6 3.2 2.2 0 3.2-1.5q1.5-2.3-.2-3.7m19.4-16c-3.5 0-5.3 1.9-7.2 5.1-2 3.6-2.5 7.7-5.5 12.2s-6 8.4-7.3 9.6-4.2 4.8-2.3 6.4 4.5-.9 6.3-3.2 5.5-9.2 7.4-12.2S54 35.2 55.2 33c.7-1.3.2-3.2-1.8-3.2M33 76.1c-1.2-.3-2.4-.3-3.3.9s-1 2.7.2 3c1.6.7 2.8 0 3.8-1 .8-.8 1-2.5-.7-3m2.3 34.1c-2.3.3-2 3.3-1.6 4.5s1.9 2 3.5 1.5 2-2.3 1.4-3.8-1.2-2.4-3.3-2.2m40.5-69.8c-2.4 0-3.3.8-4.1 2.3-1 1.8 0 3.2 1.6 3.3 2 .1 3.2-.4 4.4-2.4.8-1.3.2-3.3-1.9-3.2m-4.5 7.2q-1.6 0-1.8 1.2c-.2 1.2.3 1.4 1 1.5s1.4-.5 1.7-1c.3-.7-.2-1.6-1-1.7M38.7 10.7s2.3-2.3 5.5-3.5c4.5-1.8 8.1-2.3 8.1-2.3s2.4-.2 3 .5c.8 1-.6 2.3-.6 2.3s2.1-.3 2.7.8c.5 1 0 2.7-2.4 2.7s-1.7-2.1-1.7-2.1-1.7.8-3 1.2-3.2-.1-3.2-.1-3 4.7-6.4 3.7c-2.9-.8-2-3.2-2-3.2m-3.3 8.1c.9.8 2.5.4 3.4-1q1.3-2.1 0-3.4c-1.3-1.3-2.3-.1-3.2 1s-1.2 2.5-.2 3.4"/></svg>