<svg viewBox="0 0 128 128"><radialGradient id="a" cx="63.5" cy="56.1" r="68.7" gradientUnits="userSpaceOnUse"><stop offset=".3" stop-color="#fff7b3"/><stop offset=".4" stop-color="#fff5a9"/><stop offset=".6" stop-color="#fff08f"/><stop offset=".8" stop-color="#ffe865"/><stop offset=".8" stop-color="#ffe558"/><stop offset="1" stop-color="#fbc02d"/></radialGradient><circle cx="64" cy="64" r="60" fill="url(#a)"/><path fill="#5d4037" d="M42.5 59.8c-1.5 1.3-4.2 1.4-6.4.5q-4-1.7-4-5.7c0-3.4 2.9-7 8.5-7.4 9.3-.6 12.8 7.7 13 8 .1.7-.2 1.6-2 .1-5.7-4.4-7.7-3.7-7.7-3.7s3.3 4.4-1.4 8.2m42.2 0c-1.5 1.3-4.1 1.4-6.4.4q-3.9-1.5-3.9-5.6c0-3.4 2.8-7 8.4-7.4 9.3-.6 12.9 7.7 13 8 .2.7-.1 1.6-2 .1-5.6-4.4-7.6-3.7-7.6-3.7s3.2 4.4-1.5 8.2"/><path fill="#e2b013" d="M58.4 72.2c-1.4-1.6-.1-2.4 1.5-2 2 .6 5.2.4 6-1.4 1.6-3.5-.4-5.5-2.9-11.4-2.5-6.3.7-13 4.4-13.4 3-.3 2 1.2 1 1.9-1.8 1.3-3.7 5.6-.8 10.4 5 8.2 5.4 12.1 2.5 16a7.7 7.7 0 0 1-11.7 0"/><path fill="#5d4037" d="M80 78q-1.2-.5-2 .1c-1.6 1.4-8 3.9-14 4-6-.2-12.4-2.6-14-4q-.9-.7-2-.1-1.2.9-.4 2.1c2 2.6 7.5 6.5 16.4 6.6 8.9-.1 14.3-4 16.4-6.6q.8-1.2-.4-2"/><path fill="#ffcb38" d="M61.8 93.2c-.7.2-1.6.8-1.4 1.5q0 .4.4.6 1 .7 2 1 3.3.8 6.3-.8c2-1 4.6-3.2 3.8-4.8-.6-1.4-3 .5-4 .9-2.2 1-4.7 1-7.1 1.6"/><radialGradient id="b" cx="87.8" cy="63.4" r="16.4" gradientTransform="matrix(.9201 -.3918 .3131 .7354 -12.827 51.15)" gradientUnits="userSpaceOnUse"><stop offset="0" stop-color="#fbc02d"/><stop offset="1" stop-color="#fbc02d" stop-opacity="0"/></radialGradient><path fill="url(#b)" d="M78.4 73.4c1.6 3.8 7.7 4.8 13.6 2.4 6-2.5 9.5-7.5 8-11.3-1.6-3.7-7.6-4.8-13.6-2.3s-9.5 7.5-8 11.2"/><radialGradient id="c" cx="-2353" cy="63.6" r="16.1" gradientTransform="matrix(-.9201 -.3918 -.3131 .7354 -2108.655 -905.011)" gradientUnits="userSpaceOnUse"><stop offset="0" stop-color="#fbc02d"/><stop offset="1" stop-color="#fbc02d" stop-opacity="0"/></radialGradient><path fill="url(#c)" d="M45.3 73.4c-1.5 3.8-7.6 4.8-13.6 2.4-6-2.5-9.5-7.5-8-11.3 1.6-3.7 7.7-4.8 13.6-2.3 6 2.5 9.6 7.5 8 11.2"/></svg>