<svg viewBox="0 0 128 128"><path fill="#885742" d="M118.9 75.1a16 16 0 0 0-7-7.3 23 23 0 0 0-6-2.6c1.5-5.6-.7-10-3.7-13.4-4.5-4.9-9.2-5.6-9.2-5.6a15 15 0 0 0 1.4-10 13 13 0 0 0-6.4-8.7c-3.1-1.9-7-2.8-10.8-3.5-2-.3-9.9-1.4-13.1-6-2.7-3.7-2.8-10.3-3.5-12.3s-3.4-1.2-6.2.7a42 42 0 0 0-13 16.6 25 25 0 0 0-1.2 13.9q-3.2.5-6.2 1.8l-.5.2c-3 1.3-9.4 7-10 15.9q-.3 4.6 1.2 9.2a25 25 0 0 0-6.3 2.6Q15 68 12.3 70.7q-3 3.7-4.2 8.2a28 28 0 0 0 2 19.8q2.6 5.1 6.8 9.5c8.5 8.8 23.3 12.1 35 14 14.2 2.3 29 1.5 42.3-4 20-8.2 25.2-21.5 26-25.2a33 33 0 0 0-1.3-17.9"/><path fill="#35220b" d="M87.5 92.9 82.7 95l-3.3 1.2-3.3 1a49 49 0 0 1-25.8-.4l-1.4-.4a55 55 0 0 1-7.2-2.9l-1.4-.7a23 23 0 0 0 12.8 15.3q5.2 2.4 10.9 2.4t11-2.3a22 22 0 0 0 12.7-15.4z"/><path fill="#fff" d="M85.2 90Q74.7 91.8 64 91.8T42.8 90a2.2 2.2 0 0 0-2.5 2.5v.3A52 52 0 0 0 64 98.7a49 49 0 0 0 15.4-2.5l3.3-1.2 4.7-2.2h.3v-.3q.2-2-1.8-2.5z"/><circle cx="80.1" cy="69.5" r="12.4" fill="#fff"/><ellipse cx="80.1" cy="69.5" fill="#35220b" rx="5.7" ry="5.8"/><circle cx="47.9" cy="69.5" r="12.4" fill="#fff"/><ellipse cx="47.9" cy="69.5" fill="#35220b" rx="5.7" ry="5.8"/></svg>