<svg viewBox="0 0 128 128"><path fill="#c8dee9" d="m15.6 120.6-.7-1.2c-.8-2-.9-3.6-2.9-4.4l-4.3-1.4c-1.9-.6-3.4-2.2-4-4s0-4.1 1.4-5.6c2-2.2 5.5-2.4 8.5-2.8 8.2-1 14.3-9.7 19.8-15.2l11-11 8.6 8.7-10.6 10.6c-5.5 5.5-15 11.7-14.8 20.3 0 1.6.4 3.3 0 4.8-.8 2.1-2.9 3.4-5 4.1q-1.6.7-3.3.4c-1.7-.3-2.9-1.8-3.7-3.3"/><path fill="#8abfd1" d="M14.4 110.5c2.2.3 2.4 3 1.8 5.4q-.2 1.4-1.4 2c-.6.4-.7-1.5-2.2-2.5-.4-.4-4.1-1-6.3-2.4-.6-.4-.5-1.3.2-1.5 2.5-.5 7-1 8-1M25.8 94c.2-.2 2.9 0 4 2a7 7 0 0 1 1 4.3q-.6 3-2 5.7c-1.7 3.8-1.1 6.2-1.1 6.3 1.3-7.4 9.6-13 14.6-18L53 83.7l-9.4-8.8C42.2 76.2 27.3 92.6 25.9 94"/><path fill="#a5c7d3" d="m27.4 90.7-.1.1v.2z"/><path fill="#c8dee9" d="m112.4 120.6.7-1.2c1-2 2-4.2 4-5q1.5-.6 3.2-.8 3-1 4-4c1-3 0-4.1-1.4-5.6-2-2.2-5.5-2.4-8.5-2.8-8.2-1-14.3-9.6-19.8-15.2l-11-11-8.6 8.7 10.6 10.6c5.5 5.5 15 11.7 14.8 20.3 0 1.6-.4 3.3 0 4.8.8 2.1 2.9 3.4 5 4.1q1.6.7 3.3.4c1.7-.3 2.9-1.8 3.7-3.3"/><path fill="#8abfd1" d="M102.2 94c-.3-.2-3 0-4.1 2a7 7 0 0 0-1 4.3q.6 3 2 5.7c1.7 3.8 1.1 6.2 1.1 6.3-1.3-7.4-9.6-13-14.6-18L75 83.7l9.4-8.8c1.4 1.3 16.3 17.7 17.8 19.1"/><path fill="#a5c7d3" d="M100.6 90.7v.2z"/><path fill="#8abfd1" d="M113.7 110.5c-2.2.3-2.3 3-1.8 5.4q.3 1.4 1.4 2c.7.4.8-1.5 2.2-2.5.5-.4 4.2-1 6.4-2.4.6-.4.4-1.3-.3-1.5-2.4-.5-7-1-7.9-1"/><path fill="#c8dee9" d="m15.6 7.4-.7 1.2c-1 2-2 4.2-4 5q-1.5.5-3.2.8a6 6 0 0 0-4 4A6 6 0 0 0 5.1 24c2 2.2 5.5 2.4 8.5 2.8 8.2 1 14.3 9.7 19.8 15.2l11 11 8.6-8.7-10.6-10.6c-5.5-5.5-15-11.7-14.8-20.3 0-1.6.4-3.3 0-4.8-.8-2.1-2.9-3.4-5-4.1Q21 3.8 19.4 4c-1.7.3-2.9 1.7-3.7 3.3"/><path fill="#a5c7d3" d="m27.4 37.3-.1-.1V37z"/><path fill="#8abfd1" d="M7.9 22.5c5 .1 6.1-.7 7.4-1.2 4-1.4 5.2 1.3 4 3.4-1.4 2.7-7 2.6-11.2 1-.9-.3-3.2-1.3-3.5-2.4-.4-1.7 2.6-.8 3.3-.8m45 21.8S39 31.1 36 27.9c-6 .6-9.4 4.4-9.9 6.3 3.3 3 14.7 15 18.4 18.7z"/><path fill="#c8dee9" d="m112.4 7.4.7 1.2c1 2 2 4.2 4 5q1.5.5 3.2.8a6 6 0 0 1 4 4 6 6 0 0 1-1.4 5.6c-2 2.2-5.5 2.4-8.5 2.8-8.2 1-14.3 9.7-19.8 15.2l-11 11-8.6-8.7 10.6-10.6c5.5-5.5 15-11.7 14.8-20.3 0-1.6-.4-3.3 0-4.8.8-2.1 2.9-3.4 5-4.1q1.6-.7 3.3-.4c1.7.3 2.9 1.7 3.7 3.3"/><path fill="#a5c7d3" d="m100.6 37.3.1-.1V37z"/><path fill="#8abfd1" d="M120.1 22.4c-5 .1-6.1-.7-7.4-1.2-4-1.4-5.2 1.3-4 3.4 1.4 2.7 7 2.5 11.2 1 .9-.3 3.2-1.3 3.5-2.4.4-1.7-2.6-.8-3.3-.8m-45 21.9s15.3-14.4 18.3-17.6c8 1.8 9.4 6.7 9.4 6.7L83.7 52.9z"/><path fill="#e1e7ea" d="M99.7 68.5c.4-2.5 2.2-13.8.6-22.6q-1.7-8.4-7.7-13.7a42 42 0 0 0-27.7-10.9h-1.2c-9.9.3-20.2 3.7-27.7 10.8-4 3.8-6.7 8.1-7.8 13.8-1.6 8.8.2 20 .6 22.6.6 3.4-1 7.2-1.2 10.7q-.3 5.6 4.6 8.7c2.6 1.7 5.7 2.6 8.5 4 3.4 1.5.3 7.2 1.6 10q1.1 2.2 3.4 3.2 2.9 1.6 5.9 1c-.3 0 .5 1.8 1.7 2.5a12 12 0 0 0 3.5 1.6c2.4.5 4.7-.4 6.2-1.2q1.3-.6 2.5 0c1.5.8 3.8 1.7 6.2 1.2a8 8 0 0 0 4.5-2.9q1-1 2.2-1a8 8 0 0 0 8-4.5c1-2.1 0-4.6.6-6.8 1-3.7 4.7-4.6 7.6-6.3q6-3.3 6.3-8.5c.2-3.8-1.7-8.8-1.2-11.7"/><ellipse cx="46.5" cy="66.1" fill="#424242" rx="10.1" ry="9.2" transform="rotate(-75.001 46.45 66.098)"/><ellipse cx="82.1" cy="66.1" fill="#424242" rx="9.2" ry="10.1" transform="rotate(-14.999 82.109 66.101)"/><path fill="#424242" d="M58.4 82.7c0-3.3 2.6-11.3 5.9-11.3s5.9 8 5.9 11.3c0 6.7-6 2.1-6 2.1s-5.8 5-5.8-2"/><path fill="#8abfd1" d="M50 106.3c-.2-.7 0-7.5 0-8.7q.1-1.4 1.6-1.5c1.4-.1 1.5.7 1.5 1.5l-.4 8.7s-1.4.4-2.8 0m12.8 3V97.6q.1-1.4 1.6-1.5c1.5-.1 1.5.7 1.5 1.5v11.7c-2.4-1-3 0-3 0m12.9-2.1-.2-9.6a1.6 1.6 0 0 1 3.1 0v8.8h-1.4c-.3 0-1.5.8-1.5.8"/><path fill="#8abfd1" d="m64.3 105.4-1.6.2c-.2 2.6-4 2.8-6 2.4-1-.3-2.4-.6-3-1.6q-1-1.4-1-3.2L50 103s-.2 1.5-2.1 1.4c-3.1-.3-3.8-1.3-4.4-2.4-.9-1.4-1.2-4.5-1.2-4.5-1.3 5.6 1.5 7.7 2.9 8.4 2.6 1.4 5.9.7 5.9.7s1.3 2 2.4 2.8q1.5.9 3.3 1.2c2.4.5 4.8-.3 6.2-1.1q.6-.3 1.3-.3zm0 0 1.5.2c.2 2.6 4 2.8 6 2.4 1.1-.3 2.4-.6 3-1.6q1-1.4 1-3.2l2.8-.3s.2 1.5 2.1 1.4c3.2-.3 3.8-1.3 4.5-2.4.8-1.4 1.6-4.5 1.6-4.5 1 5.7-2 7.7-3.4 8.4-2.6 1.4-5.8.7-5.8.7s-1.4 2-2.5 2.8q-1.5.9-3.3 1.2c-2.4.5-4.7-.3-6.2-1.1q-.7-.3-1.3-.3z"/></svg>