<svg viewBox="0 0 128 128"><path fill="#ffc107" d="M7.5 123.3c2.2 2.4 11.6-1.9 19-5.3C32 115.4 54 106.4 65 101.6c3-1.2 7.3-2.9 10.4-7 2.8-3.6 10-19-4.6-34.7-15-16-30.4-11.5-36.2-7.5A29 29 0 0 0 27.3 63c-5.2 11.6-12.7 32.9-15.7 41.3-2.2 6.1-6.4 16.5-4.1 19"/><path fill="#ff8f00" d="M25.9 66.5a74 74 0 0 0 4.9 20.3 25 25 0 0 0 12.5 13.4 45 45 0 0 0 13.3 5L50 108s-3.9-.8-9.2-3.4c-5-2.5-10.3-6.7-14.2-15a45 45 0 0 1-4-15.2zm-8 20.3s.8 6.5 6.2 14.7c6.3 9.5 15 11.1 15 11.1l-5.8 2.4s-6.5-2-12.7-10.4c-3.8-5.3-5-11.6-5-11.6zm-5.5 15.4s1.5 5.5 4.7 9.7c3.8 5 8.6 6.5 8.6 6.5l-4.5 2s-3.3-.8-7-5.5c-2.9-3.5-3.7-7.6-3.7-7.6z"/><path fill="#fffde7" d="M10 116.4q-.3-.8 0-1.4l25.4-52.8 4.2 15.7-26.8 38.7c-.7 1-2.3 1-2.8-.2" opacity=".4"/><linearGradient id="a" x1="74.4" x2="44.6" y1="61.8" y2="79.7" gradientUnits="userSpaceOnUse"><stop offset="0" stop-color="#8f4700"/><stop offset="1" stop-color="#703e2d"/></linearGradient><path fill="url(#a)" d="M41.7 83.2c11.8 14 25.4 12.2 30 8.6 4.4-3.5 8-15.6-3.9-29.3-12.4-14.3-26.4-10.3-29.7-7.2s-7.4 15.1 3.5 27.9"/><path fill="#03a9f4" d="M82.5 89c-4.3-3.7-6.6-3-9.7-1.8a26 26 0 0 1-18.9 0l2.6-6.2c5 1.7 8.7 1 12-1 4-2.4 9.6-5.6 18.3 1.6 3.6 3 7.3 5.1 10 4.2 2-.7 3-3.6 3.6-6l.2-1.3c.4-3.7 1.2-11.6 7.1-15.7 6.4-4.3 13-4.3 13-4.3l1.2 12q-4.4-.6-7 1c-6.7 3.8-.8 18.2-11.3 23-10.1 4.8-18.4-3.3-21-5.6"/><path fill="#f44336" d="m45.4 73.7-4.3-3.9c8-8.9 5.8-15.4 4.3-20.2l-.8-2.7q-1-4.6-.6-8.1c-3-3.8-4.4-7.8-4.5-8-1.9-5.7-.5-11.2 2.8-16.4C48.7 4 60.5 4 60.5 4l4 10.5c-3-.1-12.8 0-15.8 4.8-3.8 6-1.3 9.6-1.2 10q1.2-1.4 2.2-2.3c4.8-4.2 9-4.8 11.6-4.6q4.6.5 7.6 4.2c2 2.7 3 6.2 2.3 9.4a11 11 0 0 1-5.8 7.4 16 16 0 0 1-13 1.5v.3l.6 2c1.8 5.4 5 14.2-7.6 26.5m7.4-37.5q.8.6 1.8 1 3 1.3 7-.8c1.5-.9 1.7-1.7 1.7-2q.3-1.5-.7-2.8a3 3 0 0 0-2-1.2Q58 30.2 55 33q-1.5 1.4-2.2 3.2"/><path fill="#f48fb1" d="m62.8 75.4-6.2-.2s3-16.7 12.5-19.5q2.7-.8 5.7-1.3l4-.8q0-2.4-1.3-5.9-1-2.5-1.5-5.5-.9-6 3-9.6c3-2.9 7.9-3.8 13.4-2.5 3.2.7 5.5 2.2 7.6 3.6 2.9 2 4.6 3 8.2.5 4.3-2.9-1.4-14.3-4.4-21l11.3-4.6c1.5 3.3 8.8 20.3 4 30a12 12 0 0 1-8.1 6.2c-8 1.8-12.6-1.3-16-3.6q-2.3-1.6-4.6-2.3c-10.6-3 4.2 12.6-2.7 19.6-4.2 4.2-14.4 5.3-15 5.5-6.6 1.6-10 11.4-10 11.4"/><path fill="#c92b27" d="M44 38.8c-.2 2.2-.3 3.5.3 6.4 2.7 2 8.7 2 8.7 2l-.6-2v-.3c-6.1-3-8.4-6.1-8.4-6.1"/><path fill="#ffc107" d="m31.5 48.6-10.3-5 5.1-7.5 8.2 5.4z"/><path fill="#fb8c00" d="M16.3 34.6A26 26 0 0 1 5 28.9l5.2-6c1.6 1.2 5 3.5 7.2 3.8z"/><path fill="#03a9f4" d="M25.6 21.3 18 18.8q1.3-4 .7-8.3l7.9-1.3q1 6.2-1 12"/><path fill="#fb8c00" d="m73 15.3 7.9-1.7L83 24l-7.8 1.7z"/><path fill="#ffc107" d="M92.5 17.8 87 12c2.8-2.8 3.5-6.3 3.5-6.4L98.4 7c-.1.6-1.1 6.3-6 10.9"/><path fill="#fb8c00" d="m95.5 48.6 7-2.2 2.4 7.6-7 2.2z"/><path fill="#f44336" d="m97.6 113-8-1c.3-2.7-1.8-6.2-2.3-7l6.4-4.8c.4.7 4.6 6.4 3.9 12.8"/><path fill="#fb8c00" d="M120.4 102.9q-4.5-.7-9.1-.5l-.3-8q5.2-.3 10.6.6z"/><path fill="#f48fb1" d="m109.6 113.9 5.6-5.7 7.8 7.6-5.7 5.7z"/><path fill="#f44336" d="m93.1 63.3 5.8 6.6-6.6 5.8-5.8-6.6z"/></svg>