<svg viewBox="0 0 128 128"><path fill="#f44336" d="M63.7 40c-27.8 0-39-27.2-39-27.2-1.1-2.3-1.7-5.3 0-7.4l.4-.4c2.2-2 5.5-.8 6.6 2.1 2.3 6 11.3 18.7 31.8 18.7 21.3 0 30.8-13.9 32.9-19q.7-1.8 2.2-2.5a4 4 0 0 1 4.6 1.3c1.8 2 1.3 4.3 0 7.4 0 0-11.7 27-39.5 27m1 48c27.8 0 39 27.2 39 27.2 1.2 2.3 1.7 5.3 0 7.4l-.4.4c-2.2 2-5.5.8-6.6-2.1-2.3-6-11.3-18.7-31.8-18.7-21.3 0-30.8 13.9-32.9 19q-.6 1.8-2.2 2.5a4 4 0 0 1-4.6-1.3c-1.8-2-1.3-4.3 0-7.4 0 0 11.7-27 39.5-27M88 63.6c0-27.3 27.2-38.3 27.2-38.3 2.3-1.2 5.3-1.7 7.4 0l.4.4c2 2.1.9 5.4-2.1 6.5-6 2.2-18.6 11-18.6 31.3 0 20.9 13.8 30.3 19 32.3a4 4 0 0 1 2.4 2.1 4 4 0 0 1-1.3 4.6c-2 1.7-4.3 1.3-7.4 0 0 0-27-11.6-27-38.9m-48 .6c0 27.3-27.2 38.3-27.2 38.3-2.3 1.2-5.3 1.8-7.4 0l-.4-.3c-2-2.2-.8-5.4 2.1-6.5 6-2.3 18.7-11.1 18.7-31.3 0-21-13.9-30.3-19-32.4a4 4 0 0 1-2.5-2 4 4 0 0 1 1.3-4.7c2-1.7 4.3-1.3 7.4 0 0 0 27 11.6 27 39"/></svg>