<svg viewBox="0 0 128 128"><path fill="#feb804" d="M69.7 54 99.3 6.5c.6-1.1.8-3.3-1-3.3s-47 46-47 46l-32 19s-2.2 1.4-1.8 3 1.7 1.7 2.4 1.7l36.8-.2c2.5 0 1.9 3.4 1.9 3.4l-21.6 34s-9.5 13.1-9.5 14c0 1.3 1.6 2 3 1.1 1.2-.7 74.9-63.1 78.2-67.4.8-1.2 1.3-4.3-2.3-4.3S73.8 62 73.8 62z"/><path fill="#ffc927" d="M64.6 50.4c-.9 1.2-1.1 3.2.8 3.3s41-.1 41-.1L70 86.8 31.7 121c-1.8 1.7-3.5 3.3-4.1 3-.2 0-.3-.5 2.3-4.9l26.4-44 2.1-3.4c.4-.7 2-4.4-1.1-4.4l-38 1s24.1-20.5 31.1-26S97 3.1 98.3 3.1s-32.8 46-33.7 47.2"/><path fill="#ffe567" d="M63.5 70.8c1.8-2.6 3.5-2.8 4.6-2.2 1.4.8 1.5 2.8-.2 5l-23.7 31.6c-1.4 1.8-3.6 1-2.2-1.6 1.2-2.1 19.6-30.2 21.5-32.8m-28.7-5.3c-3.4 2.3-6.6-1.2-4.3-3.7S47.9 46.7 51 44.1l22.4-19.4c1.8-1.4 3 0 1.8 1.6a419 419 0 0 1-19.4 19.3c-4.3 4-17.7 17.7-21 19.9"/></svg>