<svg viewBox="0 0 128 128"><path fill="#ffa000" stroke="#f44336" stroke-miterlimit="10" stroke-width="3" d="M68.3 8.5 84 41.7l35.3-32-18 45.7 19.6-5.3-18.6 26.5 17 5.9-17.4 8.3 17 29-32.2-20-7 21.6-10.1-23-29 21.8 8.8-24.9-40 8 30-22.2L7.8 58.4l36 3.1-33.3-51 53.4 35z"/><radialGradient id="a" cx="77.6" cy="75.7" r="26.4" gradientUnits="userSpaceOnUse"><stop offset="0" stop-color="#fffde7"/><stop offset="1" stop-color="#fff176"/></radialGradient><path fill="url(#a)" stroke="#ffeb3b" stroke-miterlimit="10" stroke-width="2" d="m72.6 34.8 9.6 24.7L101 38.2 87 67.9l17.2-5.2-16 15.9 13.4 4.4-12.8 1.9L99 99.3 82.4 88.7 78.6 101l-5.9-14L58 98l6-13.6-23 5 17-10.3-22.2-10.6 24.5 2.2-20-31.5 30.7 21z"/></svg>