<svg viewBox="0 0 128 128"><linearGradient id="a" x1="93.7" x2="52.9" y1="106.6" y2="81.7" gradientUnits="userSpaceOnUse"><stop offset=".1" stop-color="#ffb300"/><stop offset="1" stop-color="#ffb300" stop-opacity="0"/></linearGradient><path fill="url(#a)" d="M123 107.7c-4-4.2-9.3-9.5-14.9-15q-.5 1.8-1.8 3.2c-6.4 6.4-25.6-2-45.3-19.1-2.4-2.2-16.7 20.3-14 22.8 3.2 3.2 26 17.9 33.7 20.8 22.7 8.3 34.3.2 38.2-3.6q3.4-3.4 4.1-9.1"/><linearGradient id="b" x1="115.3" x2="14.9" y1="82.4" y2=".8" gradientUnits="userSpaceOnUse"><stop offset="0" stop-color="#ffb300"/><stop offset=".7" stop-color="#fdd835"/><stop offset=".8" stop-color="#fddc36"/><stop offset="1" stop-color="#ffe93a"/><stop offset="1" stop-color="#ffeb3b"/></linearGradient><path fill="url(#b)" d="M25 27.7c-1.5-4.8-2.8-11.1-.3-13.5 7.5-7.3 31.6 4.9 54.2 27.4 22.6 22.6 34.8 46.9 27.4 54.3l-.2.2 16.1 15.3c4.9-14.4-6.4-44.1-31.5-70A194 194 0 0 0 64.2 18 74 74 0 0 0 32.6 4.2c-7.6-1-21.2 1-18.3 11.8.5 2.1 2.3 7.2 8.1 13.3 1.2 1.2 3.2 0 2.7-1.6"/><path fill="#fdd835" d="m56 42.1-.8 20q0 2.4 2 3.8l17 10c1.8 1.3 1.4 4.2-.7 4.9l-18.7 4.7a4 4 0 0 0-3 3l-5 20a2.7 2.7 0 0 1-4.7.9L31 92.9a4 4 0 0 0-3.9-1.8L7.5 92.6a2.7 2.7 0 0 1-2.3-4.3l12.6-16.1q1.5-2.1.5-4.4l-7.8-17.5a2.7 2.7 0 0 1 3.3-3.5l18.4 7q2.3.7 4.2-.8l15.2-13a2.7 2.7 0 0 1 4.4 2"/><path fill="#ffff8d" d="m47 59.3 4.7-12.7c.2-.7.7-2 1.7-1.4.9.4.5 2.4.5 2.4l-1 11.5c-.5 4.4-1.6 5.4-3.3 5.5-2 .2-4-1.6-2.6-5.3"/><path fill="#f4b400" d="m53.9 83.7 14.5-3.1c.7-.2 2-.4 1.7-1.6-.3-.9-2.4-.8-2.4-.8l-11-.8q-5-.7-6.7 1.8c-1.4 2.3-.1 5.1 3.9 4.5"/></svg>