<svg viewBox="0 0 128 128"><path fill="#4fc3f7" d="M59.2 94.3c-1.7 16.5-14 27.7-30.5 26.4S5.4 105.5 6.2 92.3c.9-14 7.7-20.3 12-29 6-12 4-21 5.2-25.9A3 3 0 0 1 28 36c9.7 8.4 33.6 33.9 31.1 58.4m59.8-2c5.7 10.6 3 25.3-8.1 29.6-16.7 6.4-27.7-5.6-29.7-25.6-.8-7.6-6.1-19.4-7.3-22.9a2 2 0 0 1 2.2-2.8c9.2 1.1 34.4 5.7 42.9 21.6m-11.7-80.7a30 30 0 0 1 8.4 41.4c-6.5 9.4-24.4 11.5-35.5 4.4-11.9-7.6-15.1-15.5-22-24-6.6-8.1-14.2-12.7-17.8-16.2a3 3 0 0 1 1-4.8c12-4.5 45.6-14.9 65.9-.8"/><path fill="#b3e5fc" d="M53.4 94.8a7 7 0 0 1-1.7 3q-1.4 1.3-3.2 1c-1.7-.4-2.6-2-3.2-3.7a31 31 0 0 1-1.7-13.7c.3-2.7 1.2-6.1 4.2-6.8 2-.5 3.3 1 4.1 2.7a25 25 0 0 1 1.5 17.5m61.5 4.4q.1 1.5-.7 2.5c-1.1 1.1-3 .8-4.4 0a17 17 0 0 1-7-7.6c-1-2-2.6-5.9-.4-7.7a5 5 0 0 1 5.6-.2c4 2.7 7 8.3 7 13M107 24c-2.5 4-8.5 2.6-13.4-4-2.4-3.3-6.3-4.8-8.5-5.8-4-1.8-.4-4.2 1.5-4.4a21 21 0 0 1 13.2 2.3c3.8 2 10 7.5 7.2 12"/></svg>