<svg viewBox="0 0 128 128"><g fill="#176bc6"><path d="M59 92.5a6 6 0 0 0-7.9-3.3l-16.8 6.4 10.2-36.2a6 6 0 0 0-.2-3.8A6.4 6.4 0 0 0 36 52L8 62.6a6 6 0 0 0-3.5 3.1 6 6 0 0 0-.2 4.7c1.1 3 4.7 4.5 8 3.3l16.2-6.1-10.3 36q-.6 2 .1 3.9c1 2.5 3.4 4 6 4a7 7 0 0 0 2.6-.5l28.3-10.7a6 6 0 0 0 3.7-7.8"/><path d="M92.6 61.8a6 6 0 0 0-7.3-4.9l-18 3.1 17.3-34.4q.9-1.8.6-3.8c-.6-3.5-4-5.8-7.7-5.2l-30.1 5.1a7 7 0 0 0-4.1 2.5 6 6 0 0 0-1.2 4.6 6 6 0 0 0 7.3 5l17.6-3-17.5 34a6 6 0 0 0-.6 4 7 7 0 0 0 5.3 5.2q1.2.3 2.5 0l30.6-5a6 6 0 0 0 5.3-7m31.3 12.6a4 4 0 0 0-4.4-3.6l-11.7 1 13-21a4 4 0 0 0 .6-2.4c-.2-2.3-2.3-4-4.7-3.7l-19.5 1.6a4 4 0 0 0-2.7 1.4q-1 1.2-1 2.8a4 4 0 0 0 4.4 3.6l11.4-1-13 20.9a4 4 0 0 0-.6 2.4 4 4 0 0 0 3 3.7q.8.2 1.7.1l19.8-1.6a4 4 0 0 0 3.7-4.2"/></g></svg>