<svg xmlns="http://www.w3.org/2000/svg" width="1em" height="1em" viewBox="0 0 128 128"><path fill="#99674F" d="m115.58 12.85l-.51-.51l-.01-.01c-9.36-9.35-24.52-9.34-33.87.01L13.74 79.78l-.01.01c-10.13 10.13-10.12 26.56.01 36.68l.51.51c9.35 9.35 24.52 9.35 33.87 0l67.44-67.44l.01-.01c10.14-10.12 10.14-26.55.01-36.68zm-94.21 89.89a2.625 2.625 0 0 1-3.72 0a2.625 2.625 0 0 1 0-3.72a2.625 2.625 0 0 1 3.72 0a2.644 2.644 0 0 1 0 3.72zM23 91.98a2.625 2.625 0 0 1-3.72 0a2.625 2.625 0 0 1 0-3.72a2.625 2.625 0 0 1 3.72 0a2.625 2.625 0 0 1 0 3.72zm7.29 19.7a2.625 2.625 0 0 1-3.72 0a2.625 2.625 0 0 1 0-3.72a2.625 2.625 0 0 1 3.72 0a2.625 2.625 0 0 1 0 3.72zm2.05-10.36a2.625 2.625 0 0 1-3.72 0a2.625 2.625 0 0 1 0-3.72a2.625 2.625 0 0 1 3.72 0a2.625 2.625 0 0 1 0 3.72zm1.42-10.98a2.625 2.625 0 0 1-3.72 0a2.625 2.625 0 0 1 0-3.72a2.625 2.625 0 0 1 3.72 0a2.625 2.625 0 0 1 0 3.72zm1.64-10.76a2.625 2.625 0 0 1-3.72 0a2.625 2.625 0 0 1 0-3.72a2.625 2.625 0 0 1 3.72 0a2.625 2.625 0 0 1 0 3.72zm5.65 30.45a2.625 2.625 0 0 1-3.72 0a2.625 2.625 0 0 1 0-3.72a2.625 2.625 0 0 1 3.72 0a2.625 2.625 0 0 1 0 3.72zm1.64-10.75a2.625 2.625 0 0 1-3.72 0a2.625 2.625 0 0 1 0-3.72a2.625 2.625 0 0 1 3.72 0a2.625 2.625 0 0 1 0 3.72zm2.04-10.37a2.625 2.625 0 0 1-3.72 0a2.625 2.625 0 0 1 0-3.72a2.625 2.625 0 0 1 3.72 0a2.625 2.625 0 0 1 0 3.72zm8.73 8.73a2.625 2.625 0 0 1-3.72 0a2.625 2.625 0 0 1 0-3.72a2.625 2.625 0 0 1 3.72 0a2.625 2.625 0 0 1 0 3.72zM79.58 35.4a2.625 2.625 0 0 1-3.72 0a2.625 2.625 0 0 1 0-3.72a2.625 2.625 0 0 1 3.72 0a2.625 2.625 0 0 1 0 3.72zm8.73 8.73a2.625 2.625 0 0 1-3.72 0a2.625 2.625 0 0 1 0-3.72a2.625 2.625 0 0 1 3.72 0a2.625 2.625 0 0 1 0 3.72zm2.03-10.37a2.625 2.625 0 0 1-3.72 0a2.625 2.625 0 0 1 0-3.72a2.625 2.625 0 0 1 3.72 0a2.625 2.625 0 0 1 0 3.72zM91.98 23a2.625 2.625 0 0 1-3.72 0a2.625 2.625 0 0 1 0-3.72a2.625 2.625 0 0 1 3.72 0a2.625 2.625 0 0 1 0 3.72zm5.66 30.45a2.625 2.625 0 0 1-3.72 0a2.625 2.625 0 0 1 0-3.72a2.625 2.625 0 0 1 3.72 0a2.625 2.625 0 0 1 0 3.72zm1.64-10.75a2.625 2.625 0 0 1-3.72 0a2.625 2.625 0 0 1 0-3.72a2.625 2.625 0 0 1 3.72 0a2.625 2.625 0 0 1 0 3.72zm1.42-10.98a2.625 2.625 0 0 1-3.72 0a2.625 2.625 0 0 1 0-3.72a2.625 2.625 0 0 1 3.72 0a2.625 2.625 0 0 1 0 3.72zm2.04-10.36a2.625 2.625 0 0 1-3.72 0a2.625 2.625 0 0 1 0-3.72a2.625 2.625 0 0 1 3.72 0a2.625 2.625 0 0 1 0 3.72zm7.3 19.7a2.625 2.625 0 0 1-3.72 0a2.625 2.625 0 0 1 0-3.72a2.625 2.625 0 0 1 3.72 0a2.625 2.625 0 0 1 0 3.72zm1.64-10.76a2.625 2.625 0 0 1-3.72 0a2.625 2.625 0 0 1 0-3.72a2.625 2.625 0 0 1 3.72 0a2.625 2.625 0 0 1 0 3.72z"/><path fill="#DB9F70" d="m114.26 11.54l-.51-.51l-.01-.01c-9.36-9.35-24.52-9.34-33.87.01L12.42 78.46l-.01.01c-10.12 10.13-10.12 26.56.02 36.68l.51.51c9.35 9.35 24.52 9.35 33.87 0l67.44-67.44l.01-.01c10.13-10.12 10.13-26.54 0-36.67zm-94.21 89.88a2.625 2.625 0 0 1-3.72 0a2.625 2.625 0 0 1 0-3.72a2.625 2.625 0 0 1 3.72 0a2.625 2.625 0 0 1 0 3.72zm1.64-10.76a2.625 2.625 0 0 1-3.72 0a2.625 2.625 0 0 1 0-3.72a2.625 2.625 0 0 1 3.72 0a2.644 2.644 0 0 1 0 3.72zm7.28 19.7a2.625 2.625 0 0 1-3.72 0a2.625 2.625 0 0 1 0-3.72a2.625 2.625 0 0 1 3.72 0a2.625 2.625 0 0 1 0 3.72zM31.02 100a2.625 2.625 0 0 1-3.72 0a2.625 2.625 0 0 1 0-3.72a2.625 2.625 0 0 1 3.72 0a2.625 2.625 0 0 1 0 3.72zm1.43-10.98a2.625 2.625 0 0 1-3.72 0a2.625 2.625 0 0 1 0-3.72a2.625 2.625 0 0 1 3.72 0a2.625 2.625 0 0 1 0 3.72zm1.64-10.75a2.625 2.625 0 0 1-3.72 0a2.625 2.625 0 0 1 0-3.72a2.625 2.625 0 0 1 3.72 0a2.644 2.644 0 0 1 0 3.72zm5.64 30.45a2.625 2.625 0 0 1-3.72 0a2.625 2.625 0 0 1 0-3.72a2.625 2.625 0 0 1 3.72 0a2.625 2.625 0 0 1 0 3.72zm1.64-10.76a2.625 2.625 0 0 1-3.72 0a2.625 2.625 0 0 1 0-3.72a2.625 2.625 0 0 1 3.72 0a2.625 2.625 0 0 1 0 3.72zm2.04-10.36a2.625 2.625 0 0 1-3.72 0a2.625 2.625 0 0 1 0-3.72a2.625 2.625 0 0 1 3.72 0a2.625 2.625 0 0 1 0 3.72zm8.73 8.72a2.625 2.625 0 0 1-3.72 0a2.625 2.625 0 0 1 0-3.72a2.625 2.625 0 0 1 3.72 0a2.625 2.625 0 0 1 0 3.72zm26.13-62.23a2.625 2.625 0 0 1-3.72 0a2.625 2.625 0 0 1 0-3.72a2.625 2.625 0 0 1 3.72 0a2.644 2.644 0 0 1 0 3.72zM87 42.81a2.625 2.625 0 0 1-3.72 0a2.625 2.625 0 0 1 0-3.72a2.625 2.625 0 0 1 3.72 0a2.644 2.644 0 0 1 0 3.72zm2.03-10.37a2.625 2.625 0 0 1-3.72 0a2.625 2.625 0 0 1 0-3.72a2.625 2.625 0 0 1 3.72 0a2.644 2.644 0 0 1 0 3.72zm1.63-10.75a2.625 2.625 0 0 1-3.72 0a2.625 2.625 0 0 1 0-3.72a2.625 2.625 0 0 1 3.72 0a2.625 2.625 0 0 1 0 3.72zm5.66 30.45a2.625 2.625 0 0 1-3.72 0a2.625 2.625 0 0 1 0-3.72a2.625 2.625 0 0 1 3.72 0a2.625 2.625 0 0 1 0 3.72zm1.64-10.76a2.625 2.625 0 0 1-3.72 0a2.625 2.625 0 0 1 0-3.72a2.625 2.625 0 0 1 3.72 0a2.625 2.625 0 0 1 0 3.72zm1.43-10.98a2.625 2.625 0 0 1-3.72 0a2.625 2.625 0 0 1 0-3.72a2.625 2.625 0 0 1 3.72 0a2.644 2.644 0 0 1 0 3.72zm2.03-10.36a2.625 2.625 0 0 1-3.72 0a2.625 2.625 0 0 1 0-3.72a2.625 2.625 0 0 1 3.72 0a2.625 2.625 0 0 1 0 3.72zm7.3 19.7a2.625 2.625 0 0 1-3.72 0a2.625 2.625 0 0 1 0-3.72a2.625 2.625 0 0 1 3.72 0a2.625 2.625 0 0 1 0 3.72zm1.64-10.75a2.625 2.625 0 0 1-3.72 0a2.625 2.625 0 0 1 0-3.72a2.625 2.625 0 0 1 3.72 0a2.625 2.625 0 0 1 0 3.72z"/><path fill="#99674F" d="M87.15 66.04c2.11-2.32 1.73-2.95-2.18-2.7c-3.23.2-5.3 2.27-6.58 3.55L64.32 80.95a3.193 3.193 0 0 1-4.52 0l-.12-.12L48.25 69.4c-1.28-1.28-2.75-2.96-4.45-3.46c-1.39-.41-2.61-1.02-5.19-.42c-2.22.51 1.71 3.84 2.65 4.78L58.96 88a4.297 4.297 0 0 0 6.08 0c.01-.01 21.44-21.22 22.11-21.96z"/><path fill="#FCBF90" d="M87.95 58.87c-.03-.09-19.68-19.63-20.23-20.18a4.297 4.297 0 0 0-6.08 0c-1.95 1.95-20.55 20.38-20.55 20.38s-2.52 2.51.12 2.95c2.65.44 4.38.07 6.31-1.8c4.96-4.8 14.84-14.5 14.84-14.5a3.193 3.193 0 0 1 4.52 0c2.27 2.27 10.09 10 11.72 11.58c2.04 1.98 4.2 3.16 7.11 3.28c3.76.16 2.45-1.14 2.24-1.71z"/></svg>