<svg xmlns="http://www.w3.org/2000/svg" width="1em" height="1em" viewBox="0 0 128 128"><path fill="#FCEACC" d="M122 81.14c-4.21-5.9-14.22-5.49-17.03-5.38l-.37.01c-4.94.2-9.74-1.7-13.2-5.22l-34.1-34.1a17.495 17.495 0 0 1-4.99-13.29l.02-.37c.16-2.8.35-6.57-.05-9.52c-.62-4.57-5.23-11.57-17.29-9.12c-6.22 1.26-8.57 3.72-9.04 9.56c-.1 1.24.53 7.65-1.94 10.22c-1.22 1.27-8.11.62-9.35.7c-5.85.38-10.76 4.56-10.76 12.94c-.01 9.07 5.68 14.25 8.95 14.45c2.97.18 6.71.33 9.52.22l8.59-.43s1.15 1.14 4.61 4.66l34.48 35.08c3.47 3.53 5.28 8.36 4.99 13.29l-.02.37c-.16 2.8-1.72 13.28 5.07 17.12c.94.53 5.6 2.84 12.27 1.53c6.23-1.23 8.57-3.72 9.04-9.56c.1-1.24.11-8.87 2.65-11.36s8.43-1.52 9.67-1.6c5.85-.37 9.32-1.99 10.49-8.23c1.03-5.5-1.58-11.09-2.21-11.97z"/><path fill="#DEBCA8" d="M26.26 11.1c.8-3.07 4.92-2.66 5.94-1.67c1.05 1.01 1.63 2.42 1.82 3.84c.75 5.81-1.2 9.15-3.23 10.24c-2.06 1.09-3.43 1.28-6.48 1.59c-1.85.19-3.38-.11-2.73-.46c1.03-.55 3.14-1.99 3.6-2.83c.53-.98.51-1.86.61-2.9c.24-2.6-.2-5.25.47-7.81zm97.95 82c0-.02.01-.04.01-.06c.32-1.75-1.72-3-3.15-1.95c-.33.24-.7.48-1.09.7c-4.09 2.29-9.73.46-13.55 3.17c-6.79 4.82-2.82 17.85-7.43 20.95c-2.63 1.77-7.73 2.3-10.55.87c-4.55-2.3-5.24-5.19-5.48-8.35c-.36-4.73-.41-10.04-1.14-13.72c-.99-4.98-7.27-11.72-7.27-11.72S48.8 54.75 39.12 45.96c-3.72-3.37-9.51-2.21-13.93-1.67c-5.17.62-8.6.19-11.63-2.4s-3.85-8.54-2.59-12.32s7.01-4.86 7.01-4.86c-2.02-.09-2.7-.12-3.33-.08c-5.84.38-10.75 4.56-10.75 12.94c-.01 9.07 5.42 13.76 8.6 14.55c3.58.9 12.96-.04 12.96-.04s5.07-.7 7.15 1.38c.71.71 1.68 1.7 2.96 3.01l34.48 35.08c3.47 3.53 5.28 8.36 4.99 13.29l-.02.37c-.16 2.8-1.72 13.28 5.07 17.12c.94.53 5.6 2.84 12.27 1.53c6.23-1.23 8.57-3.72 9.04-9.56c.1-1.24.11-8.87 2.65-11.36s8.43-1.52 9.67-1.6c5.85-.38 9.33-2 10.49-8.24z"/></svg>