<svg xmlns="http://www.w3.org/2000/svg" width="1em" height="1em" viewBox="0 0 128 128"><path fill="#B7D019" d="M14.16 48.37c-.43 4.5-10 10.84-9.57 26.89s13.09 44.06 57.72 44.77c44.63.7 60.96-27.31 61.1-46.6c.13-17.88-8.58-21.43-9.57-26.04c-.84-3.94 6.76-21.96-10.28-28.44c-20.11-7.65-27.6 11.68-28.16 12.1c-.56.42-6.05.7-10.84.7s-10 0-10.56-.56c-.56-.56-12.81-19.99-30.55-11.83c-16.64 7.67-9.01 26.05-9.29 29.01z"/><path fill="#2F2F2F" d="M103.08 42.36c0 5.29-3 9.76-8.02 9.57c-4.33-.16-7.84-4.29-7.84-9.57s3.51-9.49 7.84-9.57c5.11-.1 8.02 4.28 8.02 9.57zm-61.19-.75c.28 6.76-3 10.14-8.02 10.04c-4.22-.08-7.56-3.19-7.65-9.67c-.08-5.34 1.97-9.48 7.65-9.67c4.22-.13 7.8 3.97 8.02 9.3zm11.4 21.89c-.81 1.79-3.06 2.35-4.57 1.48c-1.5-.87-1.91-3.23-.93-4.93c.98-1.7 2.65-1.96 3.87-1.48c1.63.64 2.83 2.28 1.63 4.93zm27.04-2.95c.77 1.86-.16 4.04-1.94 4.57c-1.78.53-3.69-.61-4.26-2.54c-.57-1.93.14-3.61 1.87-4.3c1.13-.44 3.19-.48 4.33 2.27z"/><path fill="#FF6011" d="m27.44 78.31l.38 2.72s10.51 10.98 35.85 11.36c26 .39 37.26-12.29 37.26-12.29l-11.64-5.63s-11.07 4.69-25.34 4.41c-14.27-.28-28.34-4.41-28.34-4.41l-8.17 3.84z"/><path fill="#865B51" d="M104.59 71.92c-3.28-4.79-7.23-.43-13.42 1.88c-3.43 1.28-5.7 2.02-5.7 2.02s5.09.99 7.34 2.21s6.17 3.89 6.17 3.89s8.37-5.96 5.61-10zm-79.78-.56c-3.94 2.63 3.02 9.68 3.02 9.68s2.15-1.98 5.06-3.2s7.78-2.1 7.78-2.1s-5.63-1.27-8.9-3.16c-1.69-.96-4.71-2.72-6.96-1.22z"/></svg>