<svg xmlns="http://www.w3.org/2000/svg" width="1em" height="1em" viewBox="0 0 128 128"><path fill="#DC0D28" d="m45.43 68.14l-5.45-13.51l.15-21.87s14.68-2.2 22.39-3.26s23.04-7.52 37.02-1.33c15.88 7.03 24.3 23.3 20.06 48.1s-22.83 44.87-39.57 47.03c-8.29 1.07-9.77-2.15-16.12-1.69c-5.14.37-4.86 3.04-13.63 2.59c-8.77-.45-16.21-3.71-20.59-9.15s15.74-46.91 15.74-46.91z"/><path fill="#FF5117" d="M21.23 36.99c-12.57 10.5-18.5 32.63-8.47 56.25c8.92 21.02 23.17 27.03 23.17 27.03s24.92-1.63 42.31-11.01s34.18-25.71 34.18-47.18s-11.19-28.73-12.4-29.03c-1.21-.3-6.2 2.87-11.8 3.02c-5.6.15-9.98-1.21-9.98-1.21l-17.69 5.9l-16.54-3.86s-.53-2.31 1.26-3.25c3.72-1.94 11.49 1.36 14.67 1.21s5.9-4.39 5.9-4.39s-7.41-.76-9.98-1.36c-2.57-.58-19.96-4.37-34.63 7.88z"/><path fill="#8D1D0A" d="M62.03 37.12c-4.58.21-16.86-4.1-17.97-.73c-1.18 3.58 7.96 8.33 19.09 7.55c11.61-.81 18.84-7.23 17-10.69c-1.83-3.46-9.36 3.46-18.12 3.87z"/><path fill="#513630" d="M51.04 16.96s-1.93-.1-2.95-.51c-1.02-.41-2.46-.38-2.34-2.14c.2-2.95 3.98-5.98 4.89-6.52c1.73-1.02 4.76-.74 5.91 0c1.43.92.71 4.28.71 4.28s5.09 7.64 5.8 12.32c.65 4.27 3.31 16.73-.71 17.51c-3.67.71-2.14-8.86-4.17-13.54c-1.22-2.8-2.95-5.8-4.58-7.84a36.966 36.966 0 0 1-2.56-3.56z"/><path fill="#2F7C31" d="M105.41 5.05c.41-.71-.41-1.43-3.77-1.53c-3.36-.1-21.69-1.83-32.07 11.1c-7.46 9.29-6.31 17.21-6.31 17.21l6.82.31l35.33-27.09z"/><path fill="#709F19" d="M82.9 17.77c6.17-4.26 22.6-13.54 22.6-13.54s0 2.34-1.02 4.38S100 20.73 85.95 28.06c-13.19 6.88-21.99 5.19-22.71 3.97c-.7-1.22 9.48-7.23 19.66-14.26z"/><path fill="#FFD2B1" d="M37.6 39.97c-2.73-3.93-9.34-2.82-15.27 5.09c-7.64 10.18-7.23 23.72-2.04 24.54c5.15.81.61-4.38 8.55-14.66c6.08-7.87 12.22-9.98 8.76-14.97z"/></svg>