<svg xmlns="http://www.w3.org/2000/svg" width="1em" height="1em" viewBox="0 0 128 128"><path fill="#E07F14" d="M12.71 56.61s-.71 25.48-.71 29s-.31 7.14 2.48 9.31c1.69 1.32 9.48 7.18 19.87 13.04s24.27 12.83 27.12 14c2.85 1.17 6.11.52 9.77-.84c3.35-1.24 10.84-5.03 21.73-10.56s15.9-8.32 18.94-10.73c2.3-1.82 4.52-4.19 4.19-8.38c-.34-4.19-.24-13.71-.57-17.73c-.34-4.02-.6-18.73-.6-18.73l8.96-16.45s-.22-3.43-1-5.55c-1.16-3.16-3.31-4.86-3.31-4.86L48.91 15.74s-36.07 8.52-38.07 9.68c-2 1.16-7.19 5.47-7.05 13.15c.21 11.03 8.92 18.04 8.92 18.04z"/><path fill="#FFEBCA" d="M17.39 55.09s-1.33 29.35-.62 33.58c.59 3.54 11.4 9.85 19.28 14.35c7.1 4.06 22.15 10.43 24.21 11.41c2.06.98 3.04-.87 3.04-2.5s.11-36.89.11-36.89s9.16-1.63 10.89-9.77s-7.57-21.02-32.49-30.7c-25.72-9.97-33.26-4.18-33.56 3c-.43 10.64 9.14 17.52 9.14 17.52z"/><path fill="#AC5811" d="M81.46 57.13s2.9 10.21-2.45 15.86c-5.42 5.72-9.98 6.73-9.98 6.73s-.37 4.61-.15 5.15c.51 1.27 16.53-5.26 26.62-9.49l19.64-8.24s-.33-4.99 0-4.88s5.53-4.99 7.38-11.61c1.84-6.62 1.38-12.08 1.38-12.08s-16.63 6.94-22.42 9.58c-5.54 2.52-17.5 7.6-20.02 8.98z"/><path fill="#F5B03E" d="M76.94 48.77c.66.72 44.61-18.42 44.61-18.42S106.58 6.8 68.93 6.16C30.42 5.5 8.62 26.29 8.16 27.55c-.36.98 6.96-8.59 31.48-.67s33.68 17.97 37.3 21.89z"/></svg>