<svg xmlns="http://www.w3.org/2000/svg" width="1em" height="1em" viewBox="0 0 128 128"><path fill="#FFF" d="M123.43 50.54c-2.44-9.55-4.56-13.75-8.91-14.56c-4.18-.78-10.12 1.93-11.6 2.73l-.02-.07s.34-1.85-.14-3.71s-2.4-2.61-2.95-2.47L25.58 43.38l-.5 2.95l-.94 4.73c-2.42-.44-8.81-1.29-12.26 1.25c-4.31 3.17-6.05 9-7.11 16.63s-.38 11.62 2.04 14.21c2.97 3.19 7.63 4.09 10.06 4.35l-1.4 7s-1.72.62-2.75 3.5s.34 5.63.34 5.63s2.87-5.06 25.01-1.15c22.47 3.97 23.51 8.84 23.51 8.84s1.24-1.24 2.2-4.19s-.82-6.04-.82-6.04l4.32-19.08l4.32 11.8s-1.6 1.94-.89 4.74c.85 3.37 8.84 10.23 28.64 2.77c19.63-7.41 20.25-17.85 19.12-21.09c-.77-2.22-3.36-2.81-3.36-2.81l-1.14-3.63c1.11-.64 2.82-1.76 5.4-3.72c6.04-4.58 6.53-9.85 4.06-19.53zM11.12 76.72c-1.51-4.61 1.06-16.21 3.25-17.92c3.24-2.53 6.67-1.3 8.31-.45l-4.45 22.33c-1.73.02-5.92-.32-7.11-3.96zm106.82-17.11c-.5 3.92-4.89 5.42-6.59 5.86l-6.41-20.35c1.53-1.04 4.52-2.55 7.01-2.27c2.6.3 6.61 11.89 5.99 16.76z" opacity=".5"/><path fill="#E0E0E0" d="M123.43 50.54c-2.44-9.55-4.61-13.52-8.91-14.56c-5.97-1.45-11.62 2.66-11.62 2.66s.34-1.85-.14-3.71s-2.4-2.61-2.95-2.47L25.58 43.38l-.5 2.95l-.94 4.73c-2.42-.44-8.81-1.29-12.26 1.25c-4.31 3.17-6.05 9-7.11 16.63s-.38 11.62 2.04 14.21c2.97 3.19 7.63 4.09 10.06 4.35l-1.4 7s-1.72.62-2.75 3.5s.34 5.63.34 5.63s1.54-2.53 10.47-2.57c3.56-.02 8.24.29 14.54 1.42c21.97 3.94 23.51 8.84 23.51 8.84s1.24-1.24 2.2-4.19s-.82-6.04-.82-6.04l4.32-19.08l4.32 11.8s-1.6 1.94-.89 4.74c.85 3.37 8.84 10.23 28.64 2.77c19.63-7.41 20.25-17.85 19.12-21.09c-.77-2.22-3.36-2.81-3.36-2.81l-1.14-3.63c1.11-.64 2.82-1.76 5.4-3.72c6.04-4.58 6.53-9.85 4.06-19.53zM11.12 76.72c-1.51-4.61 1.06-16.21 3.25-17.92c3.24-2.53 6.67-1.3 8.31-.45l-4.45 22.33c-1.73.02-5.92-.32-7.11-3.96zm106.82-17.11c-.5 3.92-4.89 5.42-6.59 5.86l-6.41-20.35c1.53-1.04 4.52-2.55 7.01-2.27c2.6.3 6.61 11.89 5.99 16.76z" opacity=".7"/><path fill="#BCBCBC" d="M36.32 113.32c-21.53-3.22-23.26-9.69-23.26-9.69s2.67-5 25.01-1.15c21.78 3.75 23.51 8.84 23.51 8.84s-1.78 5.52-25.26 2z" opacity=".7"/><radialGradient id="notoClinkingBeerMugs0" cx="38.178" cy="106.632" r="60.091" gradientUnits="userSpaceOnUse"><stop offset=".331" stop-color="#FDB408"/><stop offset=".502" stop-color="#F1A20D"/><stop offset=".745" stop-color="#DB8116"/></radialGradient><path fill="url(#notoClinkingBeerMugs0)" d="M29.16 49.11S21.4 87.76 21.18 89.5c-.22 1.74-.22 3.41 1.74 3.92s10.01.65 18.2 2.18s13.78 3.99 15.08 4.42s2.76-.36 3.55-2.97c.8-2.61 9.35-40.02 9.35-40.02L49.97 44.11l-20.81 5z"/><radialGradient id="notoClinkingBeerMugs1" cx="76.648" cy="36.911" r="45.012" gradientUnits="userSpaceOnUse"><stop offset=".628" stop-color="#DB8116"/><stop offset=".786" stop-color="#EE9D0E"/><stop offset=".939" stop-color="#FDB408"/></radialGradient><path fill="url(#notoClinkingBeerMugs1)" d="m69.32 74.1l3.76-19.35l24.69-14.71s11.25 34.83 11.73 36.33c.6 1.88-2.24 8.22-13.62 13.03s-19.04 2.73-20 .89c-.95-1.83-6.56-16.19-6.56-16.19z"/><path fill="#F4D097" d="m74.48 44.82l21.5-10.28l2.29 6.97s-1.77 4.69-11.73 9.18c-8.67 3.91-13.68 2.97-13.68 2.97l1.62-8.84zm-43.93-2.04l-2.97 13.68S32 53.66 43.3 54c11.3.34 24.83 7.42 24.83 7.42l.67-3.03l2.46-11.18l-40.71-4.43z"/><path fill="#FFEBC9" d="M23.39 39.17c-.82 6.61 2.45 11.17 10.37 12c7.02.73 11.02-2.77 14.94.82c4.98 4.57-1.8 19.42-2.29 21.71s-.82 5.14 1.55 5.79c2.37.65 4.07-2.31 4.73-4.9c1.63-6.37 4.65-16.16 8.49-17.14c5.38-1.37 4.54 2.71 10.12 1.8c4.98-.82 6.77-5.63 7.1-7.75c.33-2.12-.82-5.22-.82-5.22s2.86-.98 6.04-2.86s3.9-3.39 6.37-4.73c3.59-1.96 8.9-1.42 11.43-5.79c2.77-4.82 2.53-15.22-7.8-16.25c-3.26-.33-5.02.85-7.22.66c-2.51-.22-3.4-1.91-7.75-1.1c-4.36.81-5.39 4.04-7.92 4.69c-2.8.72-6.94.08-10.94 3.02s-4.98 6.77-4.98 6.77s-3.07-1.27-7.26-.98c-4.56.31-6.45 2.2-9.71 1.96s-13.12-3.28-14.45 7.5z"/><path fill="#FFE267" d="M87.75 56.38c-1.17-.23-2.21.74-2.29 2.29c-.08 1.55.54 2.44 1.32 2.48s1.63-.54 1.94-2.01c.31-1.48 0-2.57-.97-2.76zM85.8 69.51c-.48.82.12 1.7.77 2.17s1.7.35 1.94-.19c.23-.54.31-1.55-.46-2.17c-.77-.62-1.74-.66-2.25.19zm5.97 2.71c-1.05-.12-1.9.74-1.9 2.52s.66 2.45 1.63 2.52c1.12.08 1.74-1.74 1.78-2.83c.04-1.08-.19-2.05-1.51-2.21zm1.97 9.99c-.74-.81-2.01-.43-2.6.54c-.48.79-.58 2.01.12 2.52c.7.5 1.76.2 2.21-.58c.58-1 .66-2.05.27-2.48zm-49.61-20.1c-.52.4-.58 1.55 0 2.4c.58.85 1.59 1.01 1.94.46c.35-.54.19-1.55-.12-2.17c-.31-.61-1.01-1.31-1.82-.69zm-2.91 9.57c.9.86 2.32.15 2.94-.74c.62-.89.77-1.9.15-2.52s-1.8-.5-2.67.12c-1.04.74-1.31 2.29-.42 3.14zm-3.52 1.74c-1.12-.15-2.13.95-2.13 2.52c0 1.74 1.05 3.21 2.09 3.1c1.08-.12 1.74-1.47 1.78-2.83c.04-1.35-.58-2.63-1.74-2.79zm-.86 12.3c-.8.14-1.24 1.01-1.09 2.16c.14 1.09.79 2 1.91 1.8c.84-.14 1.12-1.29 1.01-2.38c-.1-1.09-.92-1.74-1.83-1.58z"/><path fill="#FFF" d="M11.02 57.84c1.22.89 2.33-1.5 4.05-2.44c1.7-.93 3.27-1.55 2.55-2.78c-.72-1.22-3.11-1.05-4.77.11c-1.66 1.17-3.37 3.99-1.83 5.11zm17.76-7c-1.33-.28-1.94.56-2.16 1.61c-.22 1.07.11 2.22 1.17 2.5s2.16-.56 2.39-1.72c.21-1.14-.2-2.14-1.4-2.39zm-1.02 5.57c-1.97-.38-2.67 2.39-3.6 7.43c-.85 4.58-3.73 20.15-3.73 21.37s0 2.55 1.28 2.88c1.28.33 2.38-.82 2.85-3.06c.42-1.99 4.25-24.25 4.47-25.75s-.21-2.67-1.27-2.87z"/><path fill="#B0B0B0" d="M12.74 61.83c.06.09 1.8-2.83 5.82-2.57c2.37.15 3.38.94 3.72.77c.34-.17 1.03-2.7.81-3.25c-.21-.56-2.63-1.39-5.16-.97c-4.4.75-5.62 5.4-5.19 6.02zM5.31 80.84c-.17.37 1.61 4.69 5.2 6.5c3.18 1.6 6.13 1.57 6.29 1.07c.13-.39.43-1.63.47-2.91c.03-.84-1.68-.27-5.52-1.46c-4.84-1.48-6.27-3.59-6.44-3.2z"/><path fill="#FFF" d="M39.64 35.36c-1.42.39-4.23-.91-6.96-.65c-2.54.24-5.04 1.93-5.33 5.49c-.49 6.02 5.22 6.41 7.93 6.3c2.72-.11 10.49-1.9 14.24.92c3.78 2.85 4.08 7.88 3.53 10.6s-3.67 13.1-4.08 14.45c-.76 2.55.54 2.83 1.47 1.3c.92-1.52 4.18-13.31 5.6-15.92s2.93-4.56 5.49-4.84c4.08-.43 4.02 1.36 8.48 1.36c3.91 0 5.49-3.77 3.64-7.55c-2.45-5-10-5.43-10.92-5.92s-3.59-6.09-10.05-7.34s-9.73.88-13.04 1.8zm18.92-3.65s1.63 1.19 3.11 2.74c.94.98 2.05 2.99 3.36 3.37s2.98.18 5.78 1.42c2.8 1.24 4.23 2.92 4.23 2.92s2.99-.44 5.66-2.43c2.67-1.99 5.22-5.22 8.65-5.97c3.42-.75 11.55-2 9.08-8.52c-2.68-7.06-9.46-3.49-11.45-3.67s-3.37-2.49-8.4-1.18c-3.39.88-4.09 4.05-7.45 4.42c-3.36.37-5.79-.32-8.71 1.86c-2.92 2.18-3.86 5.04-3.86 5.04z"/><path fill="#FF2A23" d="M58.57 19.68c-.05 0-.1 0-.16-.01c-.91-.09-1.57-.89-1.49-1.8l1-10.57c.08-.91.89-1.58 1.8-1.49c.91.09 1.57.89 1.49 1.8l-1 10.57c-.08.86-.8 1.5-1.64 1.5zm-4.61 2.55c-.53 0-1.06-.26-1.38-.74L45.3 10.54c-.5-.76-.3-1.78.46-2.29c.76-.5 1.78-.3 2.29.46l7.28 10.95c.5.76.3 1.78-.46 2.29c-.28.19-.59.28-.91.28zm-4.17 3.85c-.2 0-.4-.04-.6-.11l-10.82-4.23a1.654 1.654 0 0 1-.94-2.14c.33-.85 1.29-1.27 2.14-.94L50.4 22.9c.85.33 1.27 1.29.94 2.14c-.26.65-.89 1.04-1.55 1.04z"/><path fill="#FEFFFF" d="M72.75 67.28c-1.55.65-1.25 3.3 0 6.6s4.15 11.75 4.8 13.15c.65 1.4 1.5 2.45 3.1 1.95c1.6-.5.95-2.45.4-4.4c-.55-1.95-4.25-12.45-4.85-14.1c-.6-1.65-1.31-4.1-3.45-3.2z"/><path fill="#BCBCBC" d="M18.36 101.41s1.73 4.76 18.62 7.18s20.89-.32 20.89-.32s-5.84-3.56-19.99-5.89c-14.92-2.46-19.52-.97-19.52-.97z"/><path fill="#FFF" d="M16.74 95.73c-1.48-.19-2.36 1.13-2.71 1.87c-.34.74-.69 2.71.59 2.91s2.36-1.03 2.76-2.07c.39-1.04.49-2.56-.64-2.71z"/><path fill="#D4D4D4" d="M18.61 96.91c-.16 1.48 1.58 1.63 3.94 1.67s10.47.73 15.76 1.72c11.03 2.07 18.03 4.92 20.29 6.06c2.27 1.13 2.49-.08 2.51-.39c.05-.89-1.48-2.31-3.5-3.3c-1.56-.76-6.99-3.94-18.47-5.71c-11.12-1.72-16.84-1.23-18.03-1.18c-1.17.05-2.4.25-2.5 1.13z"/><path fill="#9E9E9E" d="M75.97 93.04c-.22.72.97 1.73 3.68 2.23c3.56.65 10.13.12 17.22-2.7c7.05-2.8 11.25-6.51 13.59-9.34c1.46-1.77 1.45-3.82.89-4.27c-.71-.57-1.1 1.2-2.71 3.13c-1.56 1.87-5.23 5.26-12.53 8.52c-7.24 3.23-12.82 3.2-16.05 2.79c-2.25-.28-3.78-1.38-4.09-.36z"/><path fill="#D5D5D5" d="M73.33 96.24c-.25 1.37 2.01 2.67 3.07 3.14c3.07 1.34 11.15 2.04 21.66-2.03c13.64-5.29 16.52-11.36 17.43-13.07c.93-1.76.53-2.57.1-2.8c-.67-.36-1.47.14-2.39 1.35c-2.85 3.73-6.79 7.62-16.18 11.46s-15.88 3.68-20.23 2.28c-1.2-.39-3.2-1.73-3.46-.33z"/><path fill="#B0B0B0" d="M113.57 72.55c-.47 1.16.41 2.49.57 2.54l.16.05s4.89-2.33 7.97-6.03c3.16-3.79 3.06-9.03 2.59-9.09c-.36-.05-1.26 4.26-5.68 8.43c-3.67 3.46-5.01 2.59-5.61 4.1zm-9.26-29.18l.96 2.95s2.58-2.67 5.98-2.41c3.4.26 4.11 3.99 4.25 3.99c.78.01.79-5.1-2.51-6.42c-4.01-1.62-8.68 1.89-8.68 1.89z"/></svg>