<svg xmlns="http://www.w3.org/2000/svg" width="1em" height="1em" viewBox="0 0 128 128"><path fill="#FFF" d="m20.08 25.95l9.19 76.28l12.01 7.22l27.45 3.03l28.58-7.95l1.41-1.82l10.5-74.79l-21.37 5.43l-35.59 3.03l-27.83-7.76z" opacity=".5"/><path fill="#E0E0E0" d="M16.96 20.21c-.12-2.87 13.99-14.49 49.2-13.99s45.33 10.28 45.5 15.33s-6.4 69.09-6.4 69.09l-1.52 10.28s0 8.76-.84 10.45s-6.56 12.44-37.47 12.75c-33.67.33-40.05-13.25-40.55-14.77c-.51-1.52-.51-12.64-.51-12.64l-7.25-66.9c.01 0 .01-5.73-.16-9.6z" opacity=".7"/><radialGradient id="notoTumblerGlass0" cx="65.349" cy="68.918" r="29.397" gradientTransform="matrix(-.00809 1 -1.6846 -.0136 181.973 4.51)" gradientUnits="userSpaceOnUse"><stop offset=".671" stop-color="#AC5810"/><stop offset=".767" stop-color="#A8560F"/><stop offset=".864" stop-color="#9C4F0D"/><stop offset=".96" stop-color="#884409"/></radialGradient><path fill="url(#notoTumblerGlass0)" d="M27.25 67.61s1.9 17.37 2.22 19.84c.48 3.71 1.48 5.51 2.43 6.36c.95.85 12.25 11.49 32.28 11.96s31.69-10.1 33.23-12.15c.85-1.14 1.23-4.75 1.52-6.27c.28-1.52 2.18-17.94 2.18-17.94l-73.86-1.8z"/><path fill="#CF701E" d="M38.62 90.03c-1.5 3.68 4.05 7.04 10.62 9.23c10.29 3.43 24.17 3.18 32.09.08c5.1-2 8.66-4.41 7.84-8s-6.72-.24-10.86.24c-8.41.98-17.15 1.14-25.32 0s-13.3-4.17-14.37-1.55z"/><path fill="#DD821D" d="m28.68 66.22l4.09 6.75l13.63 4.91l15.54 1.36l17.48-.29l11.12-2.47l6.75-4.66l3.65-6.14s-2.7-6.6-18.75-9.16c-16.06-2.57-33.25.38-33.25.38l-14.85 4l-5.41 5.32z"/><path fill="#F6AF3B" d="M36.02 71.5s2.12-3.25 6.45-5.14c5.23-2.29 13.47-2.78 17.15-1.47c3.67 1.31 3.02 4.74 1.55 6.21c-1.47 1.47-3.1 2.86-3.76 4.33s-1.14 3.51-1.14 3.51l-9.88-1.06l-7.76-2.86l-2.61-3.52zm48.84-6.07c-.05 1.54 1.64 1.97 2.65 2.21s1.92.82 1.92 1.49s-.23 1.56-.96 2.12c-.82.63-1.16 1.65-.72 2.31c.58.87 2.31 1.49 4.33.05c2.19-1.56 3.11-3.57 2.6-6.16c-.63-3.18-3.37-4.23-5.87-4.43c-2.26-.17-3.9.77-3.95 2.41z"/><path fill="#F6AF3B" d="M32.32 67.43s2.01-5.92 13.61-7.94c12.43-2.16 22.35-1.42 27.06-1.36c5.12.06 13.48 1.9 13.79.36c.31-1.54-5.57-3.17-13.82-3.71c-8.26-.54-26.26-1.54-37.76 4.25s-6.49 8.88-6.49 8.88l3.61-.48z"/><path fill="#F8C977" d="M97.67 63.82c-1.72.2-.76 2.01-1.16 4.17c-.93 5.02-13.05 9.73-30.43 9.42c-17.22-.31-30.81-4.4-33.36-9.65c-1.08-2.22-.93-3.86-3.4-3.78s-2.49 2.9-1.85 4.32c1.31 2.93 3.6 7.95 20 11.66c18.77 4.25 36.76 1.54 45.49-2.32c8.23-3.64 8.26-7.65 8.42-9.58s-1-4.55-3.71-4.24z"/><path fill="#FFF" d="M31.69 39.41s.48 14.37 1.96 19.8c1.09 4.01 3.04 6.45 5.88 6.58c2.16.1 5.21-1.96 5.63-6.91c.46-5.56.51-17 .51-17s-3.04-.13-7.15-.7c-3.78-.52-6.83-1.77-6.83-1.77z"/><path fill="#9E9E9E" d="M109.22 27.92s-7.92 58.43-8.18 62.31c-.27 3.95-.7 7.34 1.83 7.42c2.25.07 2.73-8.07 3.17-11.7c.45-3.64 8.02-63.67 8.02-63.67l-2.2-3.17l-2.64 8.81z"/><path fill="#D5D5D5" d="M15.17 21.94s8.29 67.6 8.5 69.7c.21 2.1.19 6.34 3.26 6.09c2.52-.2 1.47-4.83 1.15-6.93c-.31-2.1-7.03-64.66-7.03-64.66l-5.88-4.2zm13.75 80.51c-.94 3.25 4.94 13.57 34.54 13.96c23.72.31 36.24-7.76 35.69-13.65c-.52-5.67-13.96 7.62-34.85 6.93c-25.51-.83-33.51-13.67-35.38-7.24z"/><path fill="#FEFEFE" d="M31.02 103.92c.07 2.03 2.49 4.63 9.04 7.2c7.24 2.83 13.2 3.17 13.41.74c.25-2.84-4.39-2.38-11.32-4.89c-6.74-2.45-11.25-6.4-11.13-3.05z"/><path fill="silver" d="M65.12 4.22c-33.02-.25-49.26 7.99-50.08 15.83c-.78 7.42 11.87 18.97 49.81 18.83c36.57-.13 49.14-9.83 49.26-17.19c.13-8.05-13.51-17.2-48.99-17.47zm.13 28.93c-32.61-.82-44.08-9.83-43.94-13.1c.14-3.28 11.05-11.74 43.67-11.46c31.66.27 43.12 9.28 43.12 11.6c0 2.32-10.23 13.78-42.85 12.96z"/><path fill="#FFF" d="M64.48 35.34c35.28.35 44.66-10.32 44.78-13.95s-3.4-4.1-3.4-4.1s.45 1.87 0 3.05c-1.29 3.4-11.49 11.02-41.61 11.25c-29.67.23-40.9-7.65-41.5-11.02c-.35-1.99.94-2.93.47-3.63c-.47-.7-2.93.82-3.63 3.63c-.93 3.73 3.51 14.36 44.89 14.77z"/></svg>