<svg xmlns="http://www.w3.org/2000/svg" width="1em" height="1em" viewBox="0 0 128 128"><radialGradient id="notoThinkingFace0" cx="63.6" cy="1104.9" r="56.96" gradientTransform="translate(0 -1042)" gradientUnits="userSpaceOnUse"><stop offset=".5" stop-color="#FDE030"/><stop offset=".92" stop-color="#F7C02B"/><stop offset="1" stop-color="#F4A223"/></radialGradient><path fill="url(#notoThinkingFace0)" d="M63.6 118.8c-27.9 0-58-17.5-58-55.9S35.7 7 63.6 7c15.5 0 29.8 5.1 40.4 14.4c11.5 10.2 17.6 24.6 17.6 41.5s-6.1 31.2-17.6 41.4c-10.6 9.3-25 14.5-40.4 14.5z"/><linearGradient id="notoThinkingFace1" x1="63.6" x2="63.6" y1="1160.8" y2="1049" gradientTransform="translate(0 -1042)" gradientUnits="userSpaceOnUse"><stop offset="0" stop-color="#F4A223"/><stop offset=".08" stop-color="#F7C02B"/><stop offset=".54" stop-color="#FDE030" stop-opacity="0"/></linearGradient><path fill="url(#notoThinkingFace1)" d="M63.6 118.8c-27.9 0-58-17.5-58-55.9S35.7 7 63.6 7c15.5 0 29.8 5.1 40.4 14.4c11.5 10.2 17.6 24.6 17.6 41.5s-6.1 31.2-17.6 41.4c-10.6 9.3-25 14.5-40.4 14.5z"/><path fill="#EB8F00" d="M111.49 29.67c5.33 8.6 8.11 18.84 8.11 30.23c0 16.9-6.1 31.2-17.6 41.4c-10.6 9.3-25 14.5-40.4 14.5c-18.06 0-37-7.35-48.18-22.94c10.76 17.66 31 25.94 50.18 25.94c15.4 0 29.8-5.2 40.4-14.5c11.5-10.2 17.6-24.5 17.6-41.4c0-12.74-3.47-24.06-10.11-33.23z"/><radialGradient id="notoThinkingFace2" cx="41.45" cy="25.006" r="59.432" gradientTransform="matrix(1 0 0 -.94 0 107.02)" gradientUnits="userSpaceOnUse"><stop offset=".27" stop-color="#FFF176"/><stop offset="1" stop-color="#FFC400"/></radialGradient><path fill="url(#notoThinkingFace2)" d="M6.36 75.1c-1.82 2.21 2.05 8.08 2.74 11.07c1.66 7.22 0 9-.13 15.42c-.11 7.06 2 13 7.38 16.79c5.06 3.59 11.16 5.43 18.96 3.13s12.54-4.84 12.94-8.68c.22-1.59-.62-3.15-2.08-3.83c.78-.37 1.4-1 1.75-1.79c1.86-4.44-1.85-5.38-1.85-5.38c.51-.61.94-1.28 1.28-2c1.11-2.21.93-5.21-2.27-6.19c-1.47-.45-1.87-.21-1.87-.21c1.52-1.56 3.34-2.81 5.35-3.65c5.38-2.31 11.76-3.71 13.35-5.06c2.31-2 2.45-5.85-1.63-7C54.42 76 43.64 80 37.08 84.17S24.5 90.59 22.5 89.83s-3.24-2-4-5c-1.41-5.58-2.5-7.74-4.89-9.83c-1.98-1.7-5.85-1.6-7.25.1z"/><path fill="#EB8F00" d="M64.19 80.38c-.67-9.16-18.71-3.5-27.92 2.53c-11.45 7.5-13.13 6.17-14.25 5.47c-1.35-.84-2.2-1.54-2.86-4.14c-1.49-5.88-1.9-8.04-4.58-10.38c-2.24-2.07-8.99-2.02-9.44 1.26C4.65 78.65 6.65 79.31 8 86.1c1.67 6.88 1 14.48 1 14.48s3.12-7.25.12-18.55c-.61-3.05-3.51-7.72 1.39-7.19c4.74.51 5.05 4.64 6.53 10.35c.82 3.23 1.66 5.13 4.92 6.03c3.24.89 10.73-3.27 16.11-6.69c6.59-4.19 16.36-7.85 21.49-6.35c2.22.48 3.7 3.35 1.37 5.38c-3.7 3.49-17.93 5.06-26.5 14.33c0 0 1.04.38 2.6-.39c1.57-.77 7.43-3.67 7.43-3.67c1.75.74 2.59 3.65 1.64 5.2c-1.54 2.51-7.53 5.98-10.52 5.83c0 0-.05 1.53 2.95 1.12c.95-.13 4.88-.99 7.63-3.12c2.05 1.48 1.47 4-.07 5.82c-1.53 1.81-5.27 4.15-9.12 4.56c0 0-.38 1.46 2.21 1.43c2.59-.03 5.4-1.35 7.47-2.96c.31.49.6 1.56.25 3.03c-.54 2.27-3.59 4.57-9.48 5.85c-5.43 1.18-11.55 2.01-23.36-4.12c0 0 4.41 5.73 15.92 6.75c11.04.98 23.93-3.91 18.76-13.72c0 0 1.12-1.66 1.26-3.94c.1-1.56-.39-3.69-1.54-4.66c1.08-3.18.74-5.38.05-6.68c-.46-.86-1.62-1.7-1.62-1.7s2.29-2.07 9.04-3.81c4.33-1.13 8.67-2.73 8.26-8.33z"/><path fill="#EB8F00" d="M18.64 82.13s4.83 7.86 15.47 2.16c0 0-6.53 6.85-11.61 5.54s-3.86-7.7-3.86-7.7zM49 95.54s2.46-5.28 6.94-6.85c0 0-7.28.62-10.05 3.61L49 95.54z"/><path fill="#422B0D" d="M76.87 71.31c-.32-.06-.62-.19-.87-.4a32.924 32.924 0 0 0-15.6-6.86c-5.71-.99-11.57-.45-17 1.56c-.3.12-.62.16-.94.11c-.7-.12-1.27-.64-1.46-1.33c-.19-.68.04-1.4.58-1.85c10.6-8.8 26.32-7.34 35.12 3.26c.72.87 1.38 1.79 1.98 2.74c.38.59.38 1.35 0 1.94c-.39.61-1.1.93-1.81.83zm3.9-40.2c4.19 0 8 3.54 8 9.42s-3.81 9.41-8 9.41c-4.19 0-8-3.54-8-9.41s3.81-9.42 8-9.42zM46.14 22c-4.19 0-8 3.54-8 9.41s3.81 9.42 8 9.42c4.2 0 8-3.54 8-9.42s-3.8-9.41-8-9.41zm-6.41-11.37c-.45-.74-.51-1.66-.16-2.45c.38-.79 1.13-1.33 2-1.44c5.45-.85 11.01.44 15.53 3.59c1.69 1.16 3.19 2.56 4.46 4.17c.08.1.15.21.22.33c.68 1.06.45 2.46-.53 3.25a2.75 2.75 0 0 1-3.6-.08l.42-.68l-.51.6A25.46 25.46 0 0 0 42 12c-.95 0-1.83-.5-2.31-1.32l.04-.05zM93 28.52a2.65 2.65 0 0 0 1.34-2a2.59 2.59 0 0 0-1-2.24c-4.33-3.45-9.83-5.1-15.34-4.58c-2.04.17-4.04.65-5.94 1.42l-.36.17c-1.11.59-1.6 1.92-1.14 3.09a2.743 2.743 0 0 0 3.15 1.7v-.8l.14.78c5.6-1.04 11.39-.17 16.44 2.47c.83.47 1.84.47 2.67 0l.04-.01z"/><path fill="#896024" d="M45.96 25.15c-1.03-.72-2.58-.49-3.58.95c-1 1.45-.67 2.97.36 3.69c1.03.72 2.58.49 3.58-.95c1-1.45.67-2.97-.36-3.69zm34.61 8.56c-1.03-.72-2.58-.49-3.58.95c-1 1.45-.67 2.97.36 3.69c1.03.72 2.58.49 3.58-.95c1.01-1.45.68-2.97-.36-3.69z"/></svg>