<svg xmlns="http://www.w3.org/2000/svg" width="1em" height="1em" viewBox="0 0 128 128"><radialGradient id="notoNauseatedFace0" cx="63.6" cy="2288.9" r="56.96" gradientTransform="translate(0 -2226)" gradientUnits="userSpaceOnUse"><stop offset="0" stop-color="#FDE030"/><stop offset=".19" stop-color="#F1DE37"/><stop offset=".53" stop-color="#D1D748"/><stop offset=".99" stop-color="#9DCC64"/><stop offset="1" stop-color="#9CCC65"/></radialGradient><path fill="url(#notoNauseatedFace0)" d="M63.6 118.8c-27.9 0-58-17.5-58-55.9S35.7 7 63.6 7c15.5 0 29.8 5.1 40.4 14.4c11.5 10.2 17.6 24.6 17.6 41.5s-6.1 31.2-17.6 41.4c-10.6 9.3-25 14.5-40.4 14.5z"/><path fill="#789E46" d="M111.49 29.67c5.33 8.6 8.11 18.84 8.11 30.23c0 16.9-6.1 31.2-17.6 41.4c-10.6 9.3-25 14.5-40.4 14.5c-18.06 0-37-7.35-48.18-22.94c10.76 17.66 31 25.94 50.18 25.94c15.4 0 29.8-5.2 40.4-14.5c11.5-10.2 17.6-24.5 17.6-41.4c0-12.74-3.47-24.06-10.11-33.23z"/><g opacity=".65"><radialGradient id="notoNauseatedFace1" cx="144.306" cy="-71.919" r="15.84" gradientTransform="matrix(.89 0 0 -.78 -36.33 40.18)" gradientUnits="userSpaceOnUse"><stop offset="0" stop-color="#ED7770"/><stop offset=".08" stop-color="#ED7770" stop-opacity=".97"/><stop offset=".21" stop-color="#ED7770" stop-opacity=".88"/><stop offset=".35" stop-color="#ED7770" stop-opacity=".74"/><stop offset=".52" stop-color="#ED7770" stop-opacity=".55"/><stop offset=".71" stop-color="#ED7770" stop-opacity=".29"/><stop offset=".9" stop-color="#ED7770" stop-opacity="0"/></radialGradient><ellipse cx="92.13" cy="96.1" fill="url(#notoNauseatedFace1)" rx="12.97" ry="11.89"/></g><g opacity=".65"><radialGradient id="notoNauseatedFace2" cx="82.371" cy="-73.689" r="15.833" gradientTransform="matrix(.89 0 0 -.78 -36.33 40.8)" gradientUnits="userSpaceOnUse"><stop offset="0" stop-color="#ED7770"/><stop offset=".08" stop-color="#ED7770" stop-opacity=".97"/><stop offset=".21" stop-color="#ED7770" stop-opacity=".88"/><stop offset=".35" stop-color="#ED7770" stop-opacity=".74"/><stop offset=".52" stop-color="#ED7770" stop-opacity=".55"/><stop offset=".71" stop-color="#ED7770" stop-opacity=".29"/><stop offset=".9" stop-color="#ED7770" stop-opacity="0"/></radialGradient><ellipse cx="36.98" cy="98.1" fill="url(#notoNauseatedFace2)" rx="12.97" ry="11.89"/></g><path fill="none" stroke="#35220B" stroke-linecap="round" stroke-linejoin="round" stroke-width="5.26" d="M42.73 87.14c2.65 1.27 5.69 4.86 6.8 7.58c.86 2.16 1.09 4.53.64 6.82M84.5 86.41c-2.65 1.26-5.71 4.83-6.82 7.55c-.56 1.36-.86 2.82-.89 4.29m-27.34-4.07s1.72-4.81 14.19-5c11.31-.18 14 3.45 14 3.45"/><path fill="#422B0D" d="M27.4 51.8c-2.2.4-2.3 3.6.1 3.7c5.3.07 10.42-1.9 14.3-5.5c1.48-1.28 2.73-2.8 3.7-4.5c.58-.83.38-1.97-.45-2.55s-1.97-.38-2.55.45l-.1.1a26.03 26.03 0 0 1-15 8.3zm57.1-15.4a1.83 1.83 0 0 0-2.55-.45a1.83 1.83 0 0 0-.45 2.55c.97 1.7 2.22 3.22 3.7 4.5c3.9 3.57 9.01 5.54 14.3 5.5c2.5-.1 2.3-3.3.1-3.7a25.539 25.539 0 0 1-15.1-8.4M37.75 62.65a3.545 3.545 0 0 0-1.91 4c1 4.31 4.36 6.81 7.95 6.81c4.34 0 8.28-3.67 8.28-9.75c.01-1.09-.13-2.17-.41-3.22a3.474 3.474 0 0 0-4.88-2.15l-9.03 4.31z"/><path fill="#896024" d="M47.38 61.78c-.55-.83-1.94-1-3.41 0s-1.85 2.32-1.3 3.15c.56.84 1.94 1 3.41 0s1.85-2.31 1.3-3.15z"/><path fill="#422B0D" d="M89.84 62.65c1.5.72 2.3 2.38 1.92 4c-1.05 4.31-4.37 6.81-8 6.81c-4.34 0-8.29-3.67-8.29-9.75c0-1.09.13-2.17.41-3.22a3.491 3.491 0 0 1 4.89-2.15l9.07 4.31z"/><path fill="#896024" d="M80.21 61.78c.56-.83 2-1 3.42 0s1.85 2.32 1.29 3.15c-.55.84-1.94 1-3.41 0s-1.85-2.31-1.3-3.15z"/></svg>