<svg xmlns="http://www.w3.org/2000/svg" width="1em" height="1em" viewBox="0 0 128 128"><radialGradient id="notoFaceWithSymbolsOnMouth0" cx="63.6" cy="2584.9" r="56.96" gradientTransform="translate(0 -2522)" gradientUnits="userSpaceOnUse"><stop offset=".12" stop-color="#FAC742"/><stop offset=".32" stop-color="#FAC440"/><stop offset=".48" stop-color="#FBBA3B"/><stop offset=".62" stop-color="#FBA931"/><stop offset=".76" stop-color="#FC9224"/><stop offset=".88" stop-color="#FE7413"/><stop offset="1" stop-color="#FF5100"/></radialGradient><path fill="url(#notoFaceWithSymbolsOnMouth0)" d="M63.6 118.8c-27.9 0-58-17.5-58-55.9S35.7 7 63.6 7c15.5 0 29.8 5.1 40.4 14.4c11.5 10.2 17.6 24.6 17.6 41.5s-6.1 31.2-17.6 41.4c-10.6 9.3-25 14.5-40.4 14.5z"/><path fill="#D84213" d="M111.49 29.67c5.33 8.6 8.11 18.84 8.11 30.23c0 16.9-6.1 31.2-17.6 41.4c-10.6 9.3-25 14.5-40.4 14.5c-18.06 0-37-7.35-48.18-22.94c10.76 17.66 31 25.94 50.18 25.94c15.4 0 29.8-5.2 40.4-14.5c11.5-10.2 17.6-24.5 17.6-41.4c0-12.74-3.47-24.06-10.11-33.23z"/><path d="m21.032 106.208l3.534-33.564l78.994 8.316l-3.534 33.565z"/><path fill="#FFF" d="m38.73 94.29l-2.1-.2l-1.39 5.26l-2.6-.25L34 93.84l-2.89-.28l.23-2.39l3.29.32l.9-3.39l-2.88-.28l.23-2.38l3.27.32l1.43-5.34l2.58.25L38.78 86l2.1.2l1.42-5.34l2.59.25l-1.42 5.34l3 .29l-.23 2.39l-3.4-.33l-.91 3.38l3 .29l-.23 2.39l-3.38-.33l-1.39 5.27l-2.59-.25l1.39-5.26zm-1.48-2.55l2.1.2l.9-3.38l-2.1-.21l-.9 3.39zM57 96.5c.07-.53-.05-1.06-.35-1.5c-.4-.48-.9-.86-1.47-1.12c-.72-.38-1.38-.75-2-1.12c-.56-.35-1.08-.77-1.53-1.25c-.4-.44-.7-.95-.89-1.51c-.2-.65-.26-1.33-.18-2c.1-1.18.68-2.26 1.61-3a5.666 5.666 0 0 1 3.62-1.12l.19-2.44l1.81.18l-.23 2.45c1.25.25 2.36.97 3.11 2c.72 1.08 1.03 2.4.85 3.69l-3.86-.37c.1-.64 0-1.29-.28-1.87c-.48-.77-1.5-1.01-2.27-.53c-.06.04-.12.08-.18.13c-.33.34-.53.79-.55 1.26c-.07.49.05.99.35 1.39c.41.46.9.83 1.45 1.1c.68.37 1.32.74 1.92 1.13c.56.35 1.07.78 1.52 1.26c.41.45.72.97.93 1.54c.21.64.28 1.33.2 2c-.07 1.19-.63 2.3-1.55 3.07c-.99.77-2.22 1.17-3.47 1.13l-.23 2.29l-1.81-.17l.22-2.31a5.822 5.822 0 0 1-3.65-2.07a5.43 5.43 0 0 1-1-3.94l3.84.37c-.11.69.03 1.4.39 2c.37.5.95.81 1.57.84c.45.07.91-.06 1.27-.35s.59-.7.65-1.16zm8.75 5.18c.04-.59.34-1.12.82-1.46c1.06-.71 2.46-.57 3.37.32a2.1 2.1 0 0 1-.17 2.96c-.04.04-.08.07-.13.11c-.51.36-1.13.51-1.74.43c-.62-.04-1.2-.31-1.62-.76a2 2 0 0 1-.53-1.6zm4.49-3.51l-3.44-.33l.67-12.59l4.52.44l-1.75 12.48zm26.02-1.99a8.28 8.28 0 0 1-2 4.73a4.515 4.515 0 0 1-3.93 1.46c-.59-.05-1.17-.25-1.66-.58c-.45-.33-.8-.77-1-1.29c-.8.93-2.02 1.4-3.24 1.25c-.72-.06-1.39-.36-1.91-.86a3.74 3.74 0 0 1-1-2c-.19-.92-.19-1.88 0-2.8a8.668 8.668 0 0 1 2.35-4.53a4.833 4.833 0 0 1 3.94-1.43c1.05.08 2.06.46 2.9 1.09l.69.57l-1.27 6.83c-.23 1.08.09 1.66 1 1.74c.77.02 1.47-.42 1.8-1.11c.59-.97.95-2.06 1.06-3.19c.49-2.12.13-4.35-1-6.21a6.681 6.681 0 0 0-5.14-2.66a7.19 7.19 0 0 0-4.1.76a7.77 7.77 0 0 0-3.07 3a12.1 12.1 0 0 0-1.61 4.66c-.39 2.73-.06 4.88 1 6.45a6.856 6.856 0 0 0 5.29 2.71c.7.07 1.41.07 2.11 0c.63-.05 1.25-.18 1.85-.36l.25 2c-.63.3-1.31.5-2 .57c-.85.12-1.72.12-2.57.02c-1.89-.12-3.71-.72-5.3-1.75a7.638 7.638 0 0 1-3-4a13.22 13.22 0 0 1-.39-5.93c.25-2.02.95-3.95 2.05-5.66c1-1.57 2.42-2.82 4.1-3.61c3.4-1.5 7.32-1.19 10.44.83c1.34.94 2.36 2.29 2.89 3.84c.6 1.75.76 3.63.47 5.46zm-11.87.2a4.6 4.6 0 0 0 0 2.33c.15.5.59.86 1.11.9c.4.02.79-.12 1.07-.4c.39-.37.7-.83.9-1.33l1-5.32c-.23-.08-.47-.14-.72-.16c-.8-.11-1.61.2-2.12.83c-.66.93-1.09 2.02-1.24 3.15z"/><g fill="#422B0D"><path d="M82.77 51.36c4.19 0 8 3.54 8 9.42s-3.81 9.41-8 9.41c-4.19 0-8-3.54-8-9.41s3.81-9.42 8-9.42zm-37.54 0c-4.19 0-8 3.54-8 9.42s3.81 9.41 8 9.41c4.19 0 8-3.54 8-9.41s-3.81-9.42-8-9.42z"/><path d="m36.58 43.73l-.11-.09c-1.67-1.49-4.3.92-2.81 3c1.21 1.6 2.67 2.99 4.34 4.11c4.45 3.01 9.98 3.94 15.17 2.54c2.45-.71 1.89-4.25-.35-4.08c-5.92.35-11.74-1.62-16.24-5.48zm54.84 0l.11-.09c1.67-1.49 4.3.92 2.81 3c-1.21 1.6-2.67 2.99-4.34 4.11a18.474 18.474 0 0 1-15.17 2.54c-2.45-.71-1.89-4.25.35-4.08c5.92.35 11.74-1.62 16.24-5.48z"/></g><path fill="#896024" d="M44.28 54.87a2.874 2.874 0 0 0-3.82 1.34c-.53 1.11-.29 2.44.6 3.3c1.42.68 3.13.08 3.82-1.34c.53-1.11.29-2.44-.6-3.3zm38.35 0a2.874 2.874 0 0 0-3.82 1.34c-.53 1.11-.29 2.44.6 3.3c1.42.68 3.13.08 3.82-1.34c.53-1.11.29-2.44-.6-3.3z"/></svg>