<svg xmlns="http://www.w3.org/2000/svg" width="1em" height="1em" viewBox="0 0 128 128"><radialGradient id="notoFaceInClouds0" cx="65.129" cy="61.906" r="53.237" gradientUnits="userSpaceOnUse"><stop offset=".5" stop-color="#FDE030"/><stop offset=".919" stop-color="#F7C02B"/><stop offset="1" stop-color="#F4A223"/></radialGradient><path fill="url(#notoFaceInClouds0)" d="M97.92 32.95c-.39-.91-.73-1.89-1.46-2.54c-.98-.87-2.4-1.2-3.7-1.06c-4.15.46-10.53-.14-14.65-3.04c-4.09-2.87-6.99-6.77-8.82-10.56c-.02-.04-.06-.07-.08-.1c-5.32 5.68-14.38 7.23-21.41 4.03c-.77 6.97-8.73 12.15-15.42 10.04c-1.52 6.62-5.8 13.02-12.07 15.65c-3.34 1.4-6.11 2.05-8.38 2.23c-.3.07-.61.13-.92.15c-.93 4.08-1.44 8.49-1.44 13.25c0 1.49.15 3.99.29 5.83c4.34.87 9.7 3.6 13.99 11.04c3.68 6.39 6.65 4.32 12.89 2.88c7.9-1.82 16.43-1.19 23.63 3.08c1.26.74 2.41 1.61 3.47 2.57c2.08-2.69 4.63-5.24 11.16-7.42c9.31-3.1 16.29 1.49 16.29 1.49c3-6.33 7.04-12.33 12.66-16.5c3.59-2.66 9.58-4.24 14.32-4.59c.04 0 .08-.01.12-.01c-.17-5.27-1.01-10.7-2.44-15.36c-5.77.98-13.33-.29-18.03-11.06z"/><path fill="#EB8F00" d="M116.55 58.18c0 .32-.02 1.07-.02 1.38c.62-.09 1.24-.16 1.86-.2c-.17-5.28-1-10.72-2.44-15.39c-.35.06-.71.11-1.06.14c1.1 4.43 1.66 9.14 1.66 14.07z"/><ellipse cx="44.22" cy="59.35" fill="#422B0D" rx="7.04" ry="11.5"/><path fill="#422B0D" d="M83.76 70.85c3.69 0 7.04-4.33 7.04-11.5s-3.35-11.5-7.04-11.5s-7.04 4.33-7.04 11.5s3.36 11.5 7.04 11.5z"/><path fill="#D5EBF5" d="M60.37 83.83c-7.2-4.27-15.73-4.9-23.63-3.08c-6.24 1.44-9.21 3.5-12.89-2.88C17.94 67.6 9.96 66.28 5.48 66.48c-1.13.05-1.55 1.5-.61 2.13c3.95 2.6 10.95 8.5 13.44 18.83c0 0-6.2 7.06-6.64 13.16c-.07.94 1.07 1.44 1.74.79c5.25-5.08 21.24-14.47 32.18-10.03c13.88 5.63 16.44 17.59 16.86 23.11a2.165 2.165 0 0 0 2.79 1.91c2.93-.88 7.91-1.87 13.44-.82c8.79 1.67 15.34 8.51 15.34 8.51c0-10.6-7.81-16.84-17.3-17.86c-1-.11-4.34.53-5.25-5.32c-1.1-7.04-4.97-13.43-11.1-17.06z" opacity=".8"/><path fill="#92CBEB" d="M119.91 59.29c-4.91 0-11.94 1.69-15.96 4.67c-5.63 4.17-9.66 10.18-12.66 16.5c0 0-6.97-4.59-16.29-1.49c-6.53 2.17-9.09 4.72-11.16 7.42c2.62 2.36 4.63 5.31 5.98 8.58c4.71-5.07 12.15-6.44 20.19-5.96c11.43.69 20.11 8.17 20.11 8.17s-1.94-8.74-11.75-13.99c4.56-10.14 11.69-18.55 23.15-19.53c1.48-.13 3.77-.16 3.77-1.47c-.01-.97-2.17-2.9-5.38-2.9z" opacity=".8"/><path fill="#D5EBF5" d="M108.01 11.59c.39-.49 1.19-.26 1.25.36c.7 8.3-6.19 14.39-6.48 14.96c-.71 1.4 1.39 4.79 2.17 5.99c1.35 2.06 3.21 3.74 5.18 5.2c3.6 2.67 8.73 3.05 11.62 3.02c.54-.01.7.72.21.95c-4.86 2.27-17.36 6.21-24.05-9.13c-.39-.91-.73-1.89-1.46-2.54c-.98-.87-2.4-1.2-3.7-1.06c-4.15.46-10.53-.14-14.65-3.04c-9.85-6.91-12.79-19.73-10.58-22.86c1.04-1.48 2.53 10.84 15.08 14.61c14.93 4.49 21.22-1.12 25.41-6.46z" opacity=".8"/><path fill="#92CBEB" d="M67.25 9.55c-4.14 4.27-12.35 7.7-18.04 5.83c1.66-7.98-4.07-11.05-4.07-11.05s3.8 11.43-7.12 17.83s-20.14-3.46-20.14-3.46c-1.35 7.89 6.37 11.06 6.37 11.06s.47 10.42-21.49 14.78c0 0 4.23 6.42 17.53.84c6.27-2.63 10.55-9.02 12.07-15.65c6.68 2.12 14.65-3.07 15.42-10.04c7.04 3.2 16.11 1.64 21.42-4.05c.01 0-1.31-2.31-1.95-6.09z" opacity=".7"/></svg>