<svg xmlns="http://www.w3.org/2000/svg" width="1em" height="1em" viewBox="0 0 128 128"><defs><path id="notoGhost0" fill="none" d="M103.13 28c2.27 8.6.12 47.26-17.67 65.57c-13.88 14.28-43 19.77-47.33 17.13"/></defs><use href="#notoGhost0"/><path fill="#E0E0E0" d="M111.29 109.36a4.397 4.397 0 0 0-4.82-2.41l-1 .11h-.26c-3.78 0-5.44-1-6.59-3.81c-1.75-4.27-.31-10.54 1.15-15.52c3-10.24 7.1-24.25 7-38c-.01-2.55-.16-5.09-.47-7.62c-.49-4.03-1.44-8-2.82-11.82c.37 19.2-3.25 43.71-19.78 60.71c-13.2 13.58-35.7 21.49-44.77 20a50.026 50.026 0 0 0 40.87 15.64c13.58-1.1 29.43-6.61 31.69-12.81a5.78 5.78 0 0 0-.2-4.47zm-83.66-65.5c-5.81-.68-11.83-3.43-14-8.93c-1.71-4.27-3.17-10.64-8.16-9.88c-6.2.95-4.75 13.44-3.3 18.26C8.06 62.91 27.25 66 27.56 65.53s1.51-21.69.07-21.67z"/><path fill="#CCC" d="M27.63 43.86c-3.16-.33-6.2-1.35-8.91-3c.67 2.58.39 5.31-.8 7.7c-2.21 5-8.32 7.68-8.32 7.68c7.78 8.13 17.74 9.64 18 9.3c.4-.54 1.47-21.7.03-21.68z"/><path fill="#E0E0E0" d="M100.37 43.86c5.81-.68 11.83-3.43 14-8.93c1.71-4.27 3.17-10.64 8.16-9.88c6.17.94 4.72 13.44 3.27 18.26c-5.89 19.6-25.08 22.7-25.39 22.22s-1.48-21.69-.04-21.67z"/><path fill="#CCC" d="M120.11 48.06c-3.78 4.17-12.44 8.15-20.38 8.73c.03 2.92.25 5.84.64 8.74c.32.47 19.5-2.62 25.39-22.22c1.02-3.65 1.42-7.44 1.17-11.22c-.57 5.9-2.96 11.48-6.82 15.97z"/><path fill="#E0E0E0" d="M106.82 49.7c-.01-2.55-.16-5.09-.47-7.62c-2-16.35-11.24-30.55-24.12-37.08A33.946 33.946 0 0 0 63.3 1.35a43.594 43.594 0 0 0-32.73 20.82c-17.74 29.67-6.38 65.56-3.38 71.66c15.34 31.17 40.12 33.83 52.62 32.82c13.58-1.1 29.43-6.61 31.69-12.81c.53-1.46.46-3.07-.2-4.48a4.397 4.397 0 0 0-4.82-2.41l-1 .11h-.26c-3.78 0-5.44-1-6.59-3.81c-1.75-4.27-.31-10.54 1.15-15.52c3-10.22 7.11-24.23 7.04-38.03z"/><use href="#notoGhost0"/><path fill="#CCC" d="M111.29 109.36a4.397 4.397 0 0 0-4.82-2.41l-1 .11h-.26c-3.78 0-5.44-1-6.59-3.81c-1.75-4.27-.31-10.54 1.15-15.52c3-10.24 7.1-24.25 7-38c-.01-2.55-.16-5.09-.47-7.62c-.49-4.03-1.44-8-2.82-11.82c.37 19.2-3.25 43.71-19.78 60.71c-13.2 13.58-35.7 21.49-44.77 20a50.026 50.026 0 0 0 40.87 15.64c13.58-1.1 29.43-6.61 31.69-12.81a5.78 5.78 0 0 0-.2-4.47z"/><defs><path id="notoGhost1" d="M61.67 53.88c-8.51.05-17.01-.67-25.39-2.14a2.597 2.597 0 0 0-3 3C35.7 66.58 47.35 76.3 61.7 76.3c15.69 0 26.26-10 28.45-21.6a2.587 2.587 0 0 0-3-3c-8.41 1.49-16.94 2.22-25.48 2.18z"/></defs><clipPath id="notoGhost2"><use href="#notoGhost1"/></clipPath><g clip-path="url(#notoGhost2)"><linearGradient id="notoGhost3" x1="61.716" x2="61.716" y1="53.65" y2="78.289" gradientTransform="matrix(1 0 0 -1 0 130)" gradientUnits="userSpaceOnUse"><stop offset="0" stop-color="#404040"/><stop offset=".12" stop-color="#3E3A35"/><stop offset=".44" stop-color="#392D1E"/><stop offset=".74" stop-color="#362510"/><stop offset="1" stop-color="#35220B"/></linearGradient><path fill="url(#notoGhost3)" d="M61.67 53.88c-8.51.05-17.01-.67-25.39-2.14a2.597 2.597 0 0 0-3 3C35.7 66.58 47.35 76.3 61.7 76.3c15.69 0 26.26-10 28.45-21.6a2.587 2.587 0 0 0-3-3c-8.41 1.49-16.94 2.22-25.48 2.18z"/></g><linearGradient id="notoGhost4" x1="62.22" x2="62.22" y1="42.38" y2="73.37" gradientTransform="matrix(1 0 0 -1 0 130)" gradientUnits="userSpaceOnUse"><stop offset="0" stop-color="#FF4081"/><stop offset=".28" stop-color="#FB3D80"/><stop offset=".55" stop-color="#EF337D"/><stop offset=".82" stop-color="#DB2378"/><stop offset="1" stop-color="#CA1573"/></linearGradient><path fill="url(#notoGhost4)" d="M63.68 57.26h-2.93c-4.25 0-8.42-.21-12.44-.54v18.2c.01 7.01 5.68 12.69 12.69 12.7h2.42c7.02 0 12.7-5.68 12.71-12.7V56.63c-4.02.37-8.2.58-12.45.63z"/><path fill="#AB3F2E" d="M62.2 73c.81.01 1.47-.65 1.48-1.46V57.26h-2.93v14.25c-.01.81.64 1.48 1.45 1.49z" opacity=".3"/><circle cx="75.18" cy="33.95" r="11.65" fill="#FFF"/><ellipse cx="75.68" cy="33.95" fill="#422B0D" rx="5" ry="5.08"/><path fill="#422B0D" d="m55.13 36l-.1-.16c-.11-.18-.23-.36-.36-.53c-.44-.58-.92-1.13-1.44-1.64c-.7-.67-1.45-1.3-2.23-1.87c-.43-.31-.88-.64-1.35-.94s-.94-.58-1.46-.89s-1-.53-1.48-.78s-1-.46-1.5-.68c-.91-.4-1.84-.73-2.8-1c-.7-.19-1.42-.32-2.14-.4h-.87c-.91-.03-1.66.68-1.7 1.58c-.03.73.44 1.39 1.14 1.62l.18.06l.58.19c.38.13.93.33 1.61.62s1.46.65 2.3 1.06l1.29.67c.44.23.86.46 1.34.74l.27.16l-.9.09c-.35.06-.51.08-.84.15s-.61.12-.88.19c-.56.14-1.1.32-1.64.52c-.97.36-1.89.84-2.74 1.42c-.35.24-.68.51-1 .79c-.25.22-.49.46-.71.71c-.19.21-.32.39-.42.51l-.14.19c-.54.73-.39 1.75.34 2.29c.58.43 1.38.43 1.96 0l.18-.13l.12-.09l.33-.24c.42-.28.86-.54 1.32-.76c.68-.32 1.39-.59 2.11-.81c.4-.12.83-.22 1.27-.32c.22-.06.43-.09.63-.13s.54-.08.71-.11c.88-.12 1.77-.18 2.66-.18c.75.01 1.51.08 2.25.21c.32.06.61.11.85.18c.21.05.41.11.61.18l.2.05l.21.09l.17.08c.68.29 1.47.1 1.94-.47c.23-.28.36-.64.36-1c.08-.42 0-.86-.23-1.22z"/></svg>