<svg xmlns="http://www.w3.org/2000/svg" width="1em" height="1em" viewBox="0 0 128 128"><path fill="#F44336" d="M93.99 8.97c-21.91 0-29.96 22.39-29.96 22.39s-7.94-22.39-30-22.39c-16.58 0-35.48 13.14-28.5 43.01c6.98 29.87 58.56 67.08 58.56 67.08s51.39-37.21 58.38-67.08c6.98-29.87-10.56-43.01-28.48-43.01z"/><path fill="#C33" d="M30.65 11.2c17.2 0 25.74 18.49 28.5 25.98c.39 1.07 1.88 1.1 2.33.06L64 31.35C60.45 20.01 50.69 8.97 34.03 8.97c-6.9 0-14.19 2.28-19.86 7.09c5.01-3.29 10.88-4.86 16.48-4.86zm63.34-2.23c-5.29 0-10.11 1.15-13.87 3.47c2.64-1.02 5.91-1.24 9.15-1.24c16.21 0 30.72 12.29 24.17 40.7c-5.62 24.39-38.46 53.98-48.49 65.27c-.64.72-.86 1.88-.86 1.88s51.39-37.21 58.38-67.08c6.98-29.86-10.53-43-28.48-43z"/><path fill="#F5F5F5" d="M64.88 29.38c-.56 0-1.12.01-1.67.01c.56 1.21.83 1.96.83 1.96s.27-.75.84-1.97z"/><path fill="#F5F5F5" d="M123.13 30.93c-18.99-1.27-51.24-1.54-59.93-1.54c-25.76.15-48.01 1.11-58.12 1.61c-1.43 5.77-1.48 12.73.45 20.97c.08.34.93 3.19 1.02 3.53c16.86-.83 71.11-5.62 115.68-2.58c.08-.32.17-.63.24-.94c1.93-8.28 1.98-15.27.66-21.05z"/><path fill="#AAA" d="m123.04 31.04l-14.67-.11c-4.92-.02-9.84 0-14.76.05l-7.38.08l-7.38.03c-4.92.03-9.84.08-14.74.17c-4.9.11-9.82.27-14.73.45l-7.37.29l-7.37.23c-9.81.34-19.63.77-29.44 1.32l2.34-1.93c-.88 3.72-1.07 7.63-.75 11.53c.16 1.95.45 3.9.83 5.84c.2.97.39 1.93.68 2.91l.85 2.92l-2.73-2l28.88-1.59c9.65-.5 19.31-.9 28.98-1.15c9.67-.15 19.35-.11 29.03.15c2.42.04 4.84.14 7.26.24c2.42.1 4.84.17 7.25.33c4.83.27 9.66.73 14.47 1.17l-1.01.73c.51-1.73.94-3.52 1.29-5.31c.35-1.79.61-3.6.78-5.43c.16-1.82.24-3.65.19-5.49c-.03-.92-.07-1.83-.17-2.75c-.04-.46-.1-.91-.16-1.37c-.07-.49-.13-.85-.17-1.31zm.19-.22c.27.99.42 1.91.55 2.82c.14.92.23 1.84.3 2.77c.14 1.85.14 3.71.04 5.57c-.21 3.71-.81 7.39-1.73 10.99l-.04.14l-.14-.01c-9.63-.62-19.27-.89-28.92-.94c-9.65-.06-19.29.12-28.93.46c-9.64.33-19.28.8-28.91 1.37L6.57 55.8l-.24.01l-.07-.24l-.86-2.98c-.29-1-.48-2.02-.68-3.04a55.92 55.92 0 0 1-.83-6.18c-.31-4.16-.08-8.37.92-12.43l.05-.2l.2-.01c19.67-.94 39.35-1.47 59.04-1.55c9.85.04 19.69.19 29.53.41c4.92.12 9.84.26 14.76.45l7.38.32l3.69.19l3.77.27z"/><path fill="#F5F5F5" d="M110.67 13.36a525.98 525.98 0 0 0-44.7 13.9C45.24 33.24 14.98 48.57 5.89 53.39c1.77 6.35 5.46 13 10.16 19.53C29.18 65.99 69.64 46.07 123.5 32.8c-1.56-9.24-6.45-15.62-12.83-19.44z"/><path fill="#AAA" d="m110.64 13.51l-13.32 4.3a505.89 505.89 0 0 0-13.27 4.56l-13.17 4.81c-4.39 1.76-8.92 3.07-13.21 4.75c-4.34 1.65-8.62 3.48-12.88 5.36c-2.13.95-4.25 1.91-6.36 2.9c-2.13.95-4.24 1.94-6.35 2.92c-8.43 3.97-16.8 8.14-25.01 12.52l1.26-2.92c.95 3.3 2.4 6.52 4.1 9.63c1.71 3.11 3.68 6.1 5.8 9.01l-3.43-.81c4.27-2.26 8.62-4.35 12.98-6.4c4.36-2.05 8.76-4 13.18-5.92c8.85-3.8 17.8-7.36 26.84-10.64c9.06-3.25 18.26-6.09 27.49-8.78c9.24-2.67 18.56-5.03 27.96-7.02l-.79 1.2c-.53-3.85-1.72-7.64-3.75-10.99a27.722 27.722 0 0 0-3.57-4.68c-1.33-1.43-2.94-2.74-4.5-3.8zm.05-.3c1.84 1.08 3.38 2.27 4.86 3.68c1.46 1.39 2.75 2.96 3.85 4.65c2.21 3.38 3.59 7.26 4.28 11.23l.03.16l-.16.04c-9.28 2.36-18.52 4.88-27.66 7.73c-9.14 2.86-18.21 5.94-27.18 9.28c-8.97 3.34-17.85 6.95-26.62 10.79c-8.76 3.86-17.42 7.96-25.89 12.41l-.23.12l-.15-.21c-2.15-3-4.17-6.12-5.92-9.38c-1.75-3.26-3.26-6.67-4.26-10.25l-.06-.21l.2-.1c8.3-4.35 16.73-8.47 25.24-12.39c8.52-3.9 17.14-7.6 25.97-10.78c4.41-1.62 8.94-2.82 13.32-4.47c4.42-1.55 8.87-3.03 13.33-4.45c8.94-2.86 17.86-5.47 27.05-7.85z"/><path fill="#AAA" d="M123.93 36.28c-1.62-18.2-12.97-22.75-13.26-22.92c-2.31.61-4.58 1.22-6.84 1.85c8.84 5.66 14.04 17.48 9.61 36.69c-.04.17-.08.33-.13.5c3 .16 5.98.32 8.91.52c.08-.32.17-.63.24-.94c.14-.58 1.97-10.05 1.47-15.7z"/><path fill="#666" d="m114.72 33.68l.15 1.33l9.06 1.27l-.42-3.49z"/><path fill="#FF8A80" d="M16.5 25.43c-.77-3.42 4.73-9.73 12.56-9.91c6.98-.16 6.42 6.04 1.74 8.69c-4.79 2.69-13.67 4.03-14.3 1.22z"/></svg>