<svg xmlns="http://www.w3.org/2000/svg" width="1em" height="1em" viewBox="0 0 128 128"><path fill="#E53935" d="M112.3 6.13C105.57 7.79 98.47 8 93.12 7.83c-16.89-.54-32.6-4.41-44.71 5.25c-9.53 7.61-6.72 22.35-9.54 25.17l-.03.03l-.03.03c-2.81 2.81-17.56 0-25.17 9.54C3.99 59.96 8.87 74.28 8.2 90.27c-.22 5.35-.66 14.47-2.32 21.19c-.99 4.01 1.54 7.06 5.15 5.07c12.98-7.16 21-22.75 27.04-36.6c2.29-5.24 5.9-5.75 10.76-7.93c5.2-2.34 9.35-3.72 14.65-9.02l.03-.03l.03-.03c5.3-5.3 6.69-9.45 9.02-14.65c2.18-4.86 2.69-8.47 7.93-10.76c13.85-6.04 29.44-14.06 36.6-27.04c2-3.61-.79-5.33-4.79-4.34zm6.44 15.79c-.41-2.44-3.33-2.99-5.14-1.18c-8.71 8.69-16.34 17.24-21.87 28.77c-4.48 9.34-6.53 17.44-13.81 25.08c-8.6 9.03-20.57 14.29-29.95 18.69c-13.03 6.1-20.53 13.6-28.61 21.83c-1.89 1.92-1.15 4.99 1.47 5.18c6.37.45 16.52 1.13 28.27 1.72c18.28.92 36.49-2.1 53.12-17.66c17.37-16.25 17.37-32.69 18.01-50.44c.43-11.75-.53-26.23-1.49-31.99z"/></svg>