<svg viewBox="0 0 128 128"><defs><path id="a" fill="#f9df9d" d="M24 29.7c4.5-7.1 14.1-13 24.1-14.8q3.9-.8 7.1.2c1.6.6 2.9 2.1 2 3.8-.7 1.4-2.6 2-4.1 2.5-9.3 3-17.9 6.4-23.1 14.3-2 3-4.9 14.4-8.6 12.3-3.9-2.3-3.1-9.5 2.6-18.3" opacity=".7"/></defs><circle cx="64" cy="64" r="60" fill="#ffa000"/><circle cx="60.1" cy="63.1" r="56.1" fill="#ffca28"/><use href="#a" opacity=".7"/><g fill="#fafafa"><path d="M45.1 76.2a22.4 22.4 0 0 0 9.4-40.4q3.9-.5 7.9-.5 9.3 0 17.6 2.7 6.5 2.2 12 5.8 1 .6 1.9.6c2 0 3.6-1.6 3.6-3.6q0-1.6-1.2-2.7A44 44 0 0 0 81.1 29a60 60 0 0 0-37.7-.1C24.9 34.8 21 45.9 21 54.2c0 12.2 9.6 22.1 21.5 22.1zm-14.3-22c0-6.8 5.3-12.3 11.9-12.3s11.9 5.5 11.9 12.3-5.3 12.3-11.9 12.3S30.8 61 30.8 54.2"/><path d="m85.4 51.7-2.4.1a22 22 0 0 0-19 19.4 23 23 0 0 0 9.4 21q-3.9.5-7.9.5-9.3 0-17.7-2.7a49 49 0 0 1-12-5.8 3.6 3.6 0 0 0-5.6 3q0 1.6 1.1 2.7 6.5 6 15.2 9.2a60 60 0 0 0 37.7.1c18.5-5.8 22.4-17 22.4-25.3a21.5 21.5 0 0 0-21.2-22.2m0 34.4c-6.6 0-11.9-5.5-11.9-12.3s5.3-12.3 11.9-12.3S97.2 67 97.2 73.8s-5.3 12.3-11.8 12.3"/></g><use href="#a" opacity=".3"/></svg>