<svg viewBox="0 0 128 128"><circle cx="64" cy="64" r="60" fill="#fbc02d"/><circle cx="60.1" cy="63.1" r="56.1" fill="#fce438"/><path fill="#fff" d="M24 29.7c4.5-7.1 14.1-13 24.1-14.8q3.9-.8 7.1.2c1.6.6 2.9 2.1 2 3.8-.7 1.4-2.6 2-4.1 2.5-9.3 3-17.9 6.4-23.1 14.3-2 3-4.9 14.4-8.6 12.3-3.9-2.3-3.1-9.5 2.6-18.3" opacity=".6"/><path fill="#fafafa" d="M92.6 93.1q-1-.5-2.2-.5-1.1 0-2.1.4c-.7.3-2.6 1-4.9 1l-2.2-.2q-3.5-.7-4.4-4.3c-1.9-7.4 2-12 7.9-18.9l1.9-2.2 1.3-1.5c5.4-6.4 8.2-9.7 8.2-19.3a25 25 0 0 0-5-16q-6.3-7.7-19.6-8.1h-.7a23 23 0 0 0-23.8 21q0 .3-.3.3a20 20 0 0 0-10.1-.2 21.1 21.1 0 0 0 4.7 41.7h1.2a21 21 0 0 0 19.8-18.8q.7-6.6-2.5-12.4c-2.6-4.7-2.4-11 .5-15.4C62 36.9 67 34 72.2 34h.8c7.1.4 12.6 6.4 12.6 13.6 0 4.5-1.7 7.8-7 14.1l-2.2 2.6c-6.7 7.7-12.9 15.1-9.7 27.8a16 16 0 0 0 12.5 12q2 .4 4.1.4 4.9 0 9.2-1.9 2.8-1.4 3.1-4.6c0-2-1.1-3.9-3-4.9M51.7 66.6c-.6 4.7-4.5 8.6-9.2 9.2l-1.4.1a10.7 10.7 0 0 1-10.6-12c.6-4.7 4.5-8.6 9.2-9.2l1.4-.1a10.7 10.7 0 0 1 10.6 12"/></svg>