<svg xmlns="http://www.w3.org/2000/svg" width="1em" height="1em" viewBox="0 0 128 128"><circle cx="64" cy="64" r="60" fill="#fbc02d"/><circle cx="60.1" cy="63.1" r="56.1" fill="#fce438"/><path fill="#fff" d="M24 29.7c4.5-7.1 14.1-13 24.1-14.8 2.5-.4 5-.6 7.1.2 1.6.6 2.9 2.1 2 3.8-.7 1.4-2.6 2-4.1 2.5-9.3 3-17.9 6.4-23.1 14.3-2 3-4.9 14.4-8.6 12.3-3.9-2.3-3.1-9.5 2.6-18.3" opacity=".6"/><path fill="#fafafa" d="M92.6 93.1c-.7-.3-1.4-.5-2.2-.5-.7 0-1.5.2-2.1.4-.7.3-2.6 1-4.9 1-.8 0-1.5-.1-2.2-.2-2.4-.5-3.8-1.8-4.4-4.3-1.9-7.4 2-12 7.9-18.9.6-.7 1.2-1.5 1.9-2.2.4-.5.9-1 1.3-1.5 5.4-6.4 8.2-9.7 8.2-19.3 0-6.4-1.7-11.9-5-16-4.2-5.1-10.8-7.9-19.6-8.1h-.7c-12.7 0-22.2 8.4-23.8 21 0 .2-.2.3-.3.3-1.8-.5-3.6-.7-5.4-.7-1.6 0-3.1.2-4.7.5-9 2.1-15.8 9.9-16.4 19.1-.4 5.9 1.6 11.6 5.6 15.9s9.6 6.7 15.5 6.7h1.2c10.2-.6 18.8-8.7 19.8-18.8.5-4.3-.4-8.6-2.5-12.4-2.6-4.7-2.4-11 .5-15.4C62 36.9 67 34 72.2 34h.8c7.1.4 12.6 6.4 12.6 13.6 0 4.5-1.7 7.8-7 14.1-.7.9-1.5 1.8-2.2 2.6-6.7 7.7-12.9 15.1-9.7 27.8 1.6 6.4 6.1 10.6 12.5 12 1.3.3 2.7.4 4.1.4 3.2 0 6.4-.7 9.2-1.9 1.8-.8 3-2.6 3.1-4.6 0-2-1.1-3.9-3-4.9M51.7 66.6c-.6 4.7-4.5 8.6-9.2 9.2-.5.1-.9.1-1.4.1-3 0-6-1.3-8-3.6s-3-5.3-2.6-8.4c.6-4.7 4.5-8.6 9.2-9.2.5-.1.9-.1 1.4-.1 3 0 6 1.3 8 3.6 2.1 2.3 3 5.3 2.6 8.4"/></svg>