<svg viewBox="0 0 128 128"><circle cx="64" cy="64" r="60" fill="#388e3c"/><circle cx="60.1" cy="63.1" r="56.1" fill="#66bb6a"/><path fill="#fff" d="M24 29.7c4.5-7.1 14.1-13 24.1-14.8q3.9-.8 7.1.2c1.6.6 2.9 2.1 2 3.8-.7 1.4-2.6 2-4.1 2.5-9.3 3-17.9 6.4-23.1 14.3-2 3-4.9 14.4-8.6 12.3-3.9-2.3-3.1-9.5 2.6-18.3" opacity=".3"/><path fill="#fafafa" d="M95.5 94.2h-63c-2.5 0-4.5-2-4.5-4.5s2-4.5 4.5-4.5h63c2.5 0 4.5 2 4.5 4.5s-2 4.5-4.5 4.5m-.1-25.1h-8.2A28 28 0 0 0 66 25.8l-2-.1c-7.5 0-14.5 2.9-19.7 8.2A28 28 0 0 0 40.7 69H32c-2.5 0-4.6 2.1-4.6 4.6s2.1 4.6 4.6 4.6h20.3c1.6 0 2.9-1.3 2.9-2.9v-3.4a3 3 0 0 0-1.4-2.5l-.2-.2A18.7 18.7 0 0 1 61.8 35l2.2-.1c10.3 0 18.8 8.4 18.8 18.8 0 6.3-3.1 12.1-8.4 15.6l-.2.2a3 3 0 0 0-1.4 2.5v3.4c0 1.6 1.3 2.9 2.9 2.9h19.8c2.5 0 4.6-2.1 4.6-4.6a4.7 4.7 0 0 0-4.7-4.6"/></svg>