<svg viewBox="0 0 128 128"><circle cx="64" cy="64" r="60" fill="#0097a7"/><circle cx="60.1" cy="63.1" r="56.1" fill="#00bcd4"/><path fill="#fff" d="M24 29.7c4.5-7.1 14.1-13 24.1-14.8q3.9-.8 7.1.2c1.6.6 2.9 2.1 2 3.8-.7 1.4-2.6 2-4.1 2.5-9.3 3-17.9 6.4-23.1 14.3-2 3-4.9 14.4-8.6 12.3-3.9-2.3-3.1-9.5 2.6-18.3" opacity=".3"/><path fill="#fafafa" d="M101.8 50.3a5 5 0 0 0-6.6-2l-2 1-5.2 2.5V32.9c0-2.7-1.9-5-4.4-5.2h-.5q-2 0-3.5 1.5-1.4 1.5-1.4 3.6v21.4h-1.7q-4.3 0-9.3-1.3l-7.3-2a46 46 0 0 0-11.7-1.7h-1.6V32.9c0-2.7-1.9-5-4.4-5.2h-.5q-2 0-3.5 1.5-1.4 1.5-1.4 3.6V51q-4.6 1.4-9.6 4.1l-3 1.5a5 5 0 0 0-2.5 6.3 5 5 0 0 0 4.6 3.4q1.2 0 2.2-.6l3.1-1.6q2.7-1.5 5.2-2.5V77c0 15.1 11.4 27.3 25.5 27.3S88 92.2 88 77.1V62.6q4.6-1.4 9.6-4.1l2.2-1.1a5.4 5.4 0 0 0 2-7.1M78.2 76.7c0 9.3-6.8 17.2-15.2 17.5h-.6c-8.7 0-15.8-7.7-15.8-17.1V59.4h1.7q4.3 0 9.3 1.3l7.3 2a46 46 0 0 0 11.7 1.7h1.6z"/></svg>