<svg viewBox="0 0 128 128"><defs><path id="a" fill="#e380a1" d="M24 29.7c4.5-7.1 14.1-13 24.1-14.8q3.9-.8 7.1.2c1.6.6 2.9 2.1 2 3.8-.7 1.4-2.6 2-4.1 2.5-9.3 3-17.9 6.4-23.1 14.3-2 3-4.9 14.4-8.6 12.3-3.9-2.3-3.1-9.5 2.6-18.3" opacity=".7"/></defs><circle cx="64" cy="64" r="60" fill="#c2185b"/><circle cx="60.1" cy="63.1" r="56.1" fill="#ec407a"/><use href="#a" opacity=".7"/><path fill="#fafafa" d="M96.6 60H86q-1-.1-1-1.1c1.1-11.8 5.7-20 9.7-22.3a4 4 0 0 0 2.1-3.6c-.1-3-3.3-4.9-5.9-3.4-7.3 4-12.8 15.5-13.9 29.5q-.2.8-1 .9H52q-.9 0-1-.9c-1-13.7-6.4-25-13.5-29.2-2.6-1.6-5.5-.6-6.2 2.3a4 4 0 0 0 1.9 4.4c4 2.2 8.7 10.5 9.8 22.3q0 1-1 1.1H31.4c-2.1 0-4 1.5-4.1 3.6a4 4 0 0 0 3.9 4.4H42q1 .1 1 1.1c-1.1 11.8-5.7 20-9.7 22.3a4 4 0 0 0-2.1 3.6 4 4 0 0 0 5.9 3.4c7.3-4.1 12.8-15.5 13.9-29.5q.1-.8 1-.9h24q.8 0 1 .9c1 13.7 6.4 25 13.5 29.2 2.6 1.6 5.5.7 6.2-2.3a4 4 0 0 0-1.9-4.4c-4-2.2-8.7-10.4-9.8-22.3q0-1 1-1.1h10.8a4 4 0 0 0 4-4.4c-.2-2.1-2.1-3.6-4.2-3.6"/><use href="#a" opacity=".3"/></svg>