<svg viewBox="0 0 128 128"><circle cx="64" cy="64" r="60" fill="#7b1fa2"/><circle cx="60.1" cy="63.1" r="56.1" fill="#ab47bc"/><path fill="#fff" d="M24 29.7c4.5-7.1 14.1-13 24.1-14.8q3.9-.8 7.1.2c1.6.6 2.9 2.1 2 3.8-.7 1.4-2.6 2-4.1 2.5-9.3 3-17.9 6.4-23.1 14.3-2 3-4.9 14.4-8.6 12.3-3.9-2.3-3.1-9.5 2.6-18.3" opacity=".3"/><g fill="#fafafa"><path d="M100 64q-2.2 0-3.4-1.9l-7.7-12.9c-.4-.7-1.3-.7-1.7 0l-7.7 12.7q-.8 1.3-2.2 1.8a4 4 0 0 1-4.7-1.7l-7.7-12.9c-.4-.7-1.3-.7-1.7 0l-7.7 12.7q-.8 1.3-2.2 1.8a4 4 0 0 1-4.7-1.7L40.9 49c-.4-.7-1.3-.7-1.7 0l-7.6 12.7a4 4 0 0 1-5.2 1.7 4 4 0 0 1-1.7-5.7l11.9-19.9q.8-1.3 2.2-1.8a4 4 0 0 1 4.7 1.7l7.7 12.9c.4.7 1.3.7 1.7 0l7.6-12.7q.8-1.3 2.2-1.8a4 4 0 0 1 4.7 1.7l7.7 12.9c.4.7 1.3.7 1.7 0L84.5 38q.8-1.3 2.2-1.8a4 4 0 0 1 4.7 1.7l11.9 19.9a4 4 0 0 1-1 5.4q-1 .8-2.3.8"/><path d="M100 92q-2.2 0-3.4-1.9l-7.7-12.9c-.4-.7-1.3-.7-1.7 0l-7.7 12.7q-.8 1.3-2.2 1.8a4 4 0 0 1-4.7-1.7l-7.7-12.9c-.4-.7-1.3-.7-1.7 0l-7.7 12.7q-.8 1.3-2.2 1.8a4 4 0 0 1-4.7-1.7L40.9 77c-.4-.7-1.3-.7-1.7 0l-7.6 12.7a4 4 0 0 1-5.2 1.7 4 4 0 0 1-1.7-5.7l11.9-19.9q.8-1.3 2.2-1.8a4 4 0 0 1 4.7 1.7l7.7 12.8c.4.7 1.3.7 1.7 0L60.5 66q.8-1.3 2.2-1.8a4 4 0 0 1 4.7 1.7l7.7 12.8c.4.7 1.3.7 1.7 0L84.5 66q.8-1.3 2.2-1.8a4 4 0 0 1 4.7 1.7l11.9 19.8a4 4 0 0 1-1 5.4q-1 1-2.3.9"/></g></svg>