<svg viewBox="0 0 128 128"><defs><path id="a" fill="#e68c87" d="M24 29.7c4.5-7.1 14.1-13 24.1-14.8q3.9-.8 7.1.2c1.6.6 2.9 2.1 2 3.8-.7 1.4-2.6 2-4.1 2.5-9.3 3-17.9 6.4-23.1 14.3-2 3-4.9 14.4-8.6 12.3-3.9-2.3-3.1-9.5 2.6-18.3" opacity=".6"/></defs><circle cx="64" cy="64" r="60" fill="#c62828"/><circle cx="60.1" cy="63.1" r="56.1" fill="#ef5350"/><use href="#a" opacity=".6"/><path fill="#fafafa" d="M104.9 45.5c-1.9-5-5.9-8.9-10.9-10.7q-3.7-1.3-7.3-1.3a19.7 19.7 0 0 0-19.6 18.4v.2l-.1 1.4-2.5 20.7c-.1.6-.9.6-1 0L60.9 53v-.8c-.4-10.5-9-18.8-19.6-18.8q-4 0-8 1.6a18 18 0 0 0-9.8 9.6q-2.1 5-1.7 10.2c.1 1.5 1.5 2.7 3 2.7h1.5q.9 0 1.6-.3a5 5 0 0 0 2.8-4.1q0-3.6 2.4-7 2-2.7 5.4-3.4l2.9-.3q7.9.1 10.2 8.9.3 1.2.5 3.1l7.4 44.1q.5 3.2 3.5 4l1 .1c2.3 0 4.2-1.7 4.5-4L76 53.2c1-6.8 4.9-10.8 10.7-10.8l2.1.2q4.3.7 6.7 4.3 2.2 3.7 1.8 7.5-.2 1.3.7 2.2c.9.9 1.3.9 2.2.9h1.7c2.5 0 4.6-2 4.6-4.5q-.2-3.7-1.6-7.5"/><use href="#a" opacity=".3"/></svg>