<svg viewBox="0 0 128 128"><circle cx="64" cy="64" r="60" fill="#0d47a1"/><circle cx="60.1" cy="63.1" r="56.1" fill="#1976d2"/><path fill="#fff" d="M24 29.7c4.5-7.1 14.1-13 24.1-14.8q3.9-.8 7.1.2c1.6.6 2.9 2.1 2 3.8-.7 1.4-2.6 2-4.1 2.5-9.3 3-17.9 6.4-23.1 14.3-2 3-4.9 14.4-8.6 12.3-3.9-2.3-3.1-9.5 2.6-18.3" opacity=".3"/><path fill="#fafafa" d="M92 34H64.2c-2.1 0-4 1.5-4.2 3.6a4 4 0 0 0 4 4.4h15.8c.9 0 1.3 1.1.7 1.7L59 64.8a2 2 0 0 1-2.8 0l-9.7-9.6c-1.6-1.6-4.1-1.6-5.7 0s-1.6 4.1 0 5.7l9.7 9.6c.8.8.8 2.1 0 2.8L33.3 91c-1.5 1.5-1.8 4.1-.3 5.7a4 4 0 0 0 5.8.2l17.5-18a2 2 0 0 1 2.8 0l10.1 10c1.6 1.6 4.1 1.6 5.7 0s1.6-4.1 0-5.7l-10.1-10c-.8-.8-.8-2.1 0-2.8l21.6-21.1c.6-.6 1.7-.2 1.7.7v15.9c0 2.1 1.5 3.9 3.6 4.2a4 4 0 0 0 4.4-4V38c-.1-2.2-1.9-4-4.1-4"/></svg>