<svg xmlns="http://www.w3.org/2000/svg" width="1em" height="1em" viewBox="0 0 128 128"><circle cx="64" cy="64" r="60" fill="#26A69A"/><circle cx="64" cy="64" r="60" fill="#00796B"/><circle cx="60.1" cy="63.1" r="56.1" fill="#26A69A"/><path fill="#FFF" d="M24 29.7c4.5-7.1 14.1-13 24.1-14.8c2.5-.4 5-.6 7.1.2c1.6.6 2.9 2.1 2 3.8c-.7 1.4-2.6 2-4.1 2.5c-9.3 3-17.9 6.4-23.1 14.3c-2 3-4.9 14.4-8.6 12.3c-3.9-2.3-3.1-9.5 2.6-18.3z" opacity=".3"/><path fill="#FAFAFA" d="m109.6 76.4l-6-8c-.7-1.5-2.8-1.5-3.6 0l-6 8c-.7 1.3.3 2.9 1.8 2.9h2v.1c0 3.4-1.2 6.2-3.5 7.4c-1.7.9-10.9 1.8-10.2-19.7V45.3c0-8.7-6.8-16.1-15.5-16.4c-4.6-.1-8.7 1.6-11.7 4.6c-.4.4-1.1.4-1.6 0c-3-3-7.2-4.8-11.7-4.6c-8.7.3-15.5 7.7-15.5 16.4v43.4c0 2.1 1.5 3.9 3.6 4.2c2.4.2 4.4-1.6 4.4-4V45.1c0-4.3 3.2-8 7.5-8.3c4.7-.3 8.5 3.4 8.5 8v43.8c0 2.1 1.5 3.9 3.6 4.2c2.4.2 4.4-1.6 4.4-4V45.1c0-4.3 3.2-8 7.4-8.3c4.7-.3 8.6 3.4 8.6 8c0 0-.1 19.2-.1 20.6c0 8.8-.9 23.5 9.7 28.6c5.3 2.5 11.1.4 13.1-.9c4.2-2.8 6.8-8.6 6.9-13.8h2c1.6 0 2.6-1.6 1.9-2.9z"/></svg>