<svg viewBox="0 0 128 128"><circle cx="64" cy="64" r="60" fill="#26a69a"/><circle cx="64" cy="64" r="60" fill="#00796b"/><circle cx="60.1" cy="63.1" r="56.1" fill="#26a69a"/><path fill="#fff" d="M24 29.7c4.5-7.1 14.1-13 24.1-14.8q3.9-.8 7.1.2c1.6.6 2.9 2.1 2 3.8-.7 1.4-2.6 2-4.1 2.5-9.3 3-17.9 6.4-23.1 14.3-2 3-4.9 14.4-8.6 12.3-3.9-2.3-3.1-9.5 2.6-18.3" opacity=".3"/><path fill="#fafafa" d="m109.6 76.4-6-8c-.7-1.5-2.8-1.5-3.6 0l-6 8c-.7 1.3.3 2.9 1.8 2.9h2v.1c0 3.4-1.2 6.2-3.5 7.4-1.7.9-10.9 1.8-10.2-19.7V45.3c0-8.7-6.8-16.1-15.5-16.4q-7 0-11.7 4.6-.7.6-1.6 0c-3-3-7.2-4.8-11.7-4.6-8.7.3-15.5 7.7-15.5 16.4v43.4c0 2.1 1.5 3.9 3.6 4.2a4 4 0 0 0 4.4-4V45.1c0-4.3 3.2-8 7.5-8.3a8 8 0 0 1 8.5 8v43.8c0 2.1 1.5 3.9 3.6 4.2a4 4 0 0 0 4.4-4V45.1c0-4.3 3.2-8 7.4-8.3a8 8 0 0 1 8.6 8L76 65.4c0 8.8-.9 23.5 9.7 28.6 5.3 2.5 11.1.4 13.1-.9 4.2-2.8 6.8-8.6 6.9-13.8h2c1.6 0 2.6-1.6 1.9-2.9"/></svg>