<svg viewBox="0 0 128 128"><circle cx="64" cy="64" r="60" fill="#e64a19"/><circle cx="60.1" cy="63.1" r="56.1" fill="#ff7043"/><path fill="#fff" d="M24 29.7c4.5-7.1 14.1-13 24.1-14.8q3.9-.8 7.1.2c1.6.6 2.9 2.1 2 3.8-.7 1.4-2.6 2-4.1 2.5-9.3 3-17.9 6.4-23.1 14.3-2 3-4.9 14.4-8.6 12.3-3.9-2.3-3.1-9.5 2.6-18.3" opacity=".3"/><path fill="#fafafa" d="M94.8 36.7q.9-2.2-.5-4.2c-1.4-2-2.3-2-3.8-2H90a5 5 0 0 0-4.3 2.9c-3.4 8.5-9.9 12.1-21.8 12.1s-18.4-3.6-21.8-12.1a5 5 0 0 0-4.3-2.9h-.5q-2.3.1-3.8 2c-1.5 1.9-1 2.8-.5 4.2 2.4 5.8 9 11.9 14.3 15.3a29.3 29.3 0 1 0 33.1-.2 38 38 0 0 0 14.4-15.1M64 96.5a20.3 20.3 0 1 1 0-40.6 20.3 20.3 0 0 1 0 40.6"/></svg>