<svg viewBox="0 0 128 128"><defs><path id="a" fill="#bfe094" d="M24 29.7c4.5-7.1 14.1-13 24.1-14.8q3.9-.8 7.1.2c1.6.6 2.9 2.1 2 3.8-.7 1.4-2.6 2-4.1 2.5-9.3 3-17.9 6.4-23.1 14.3-2 3-4.9 14.4-8.6 12.3-3.9-2.3-3.1-9.5 2.6-18.3" opacity=".3"/></defs><circle cx="64" cy="64" r="60" fill="#689f38"/><circle cx="60.1" cy="63.1" r="56.1" fill="#9ccc65"/><use href="#a" opacity=".3"/><path fill="#fafafa" d="M91.4 96.7c-3.5-1-7-3.9-8.5-8.1q-.2-.6.2-1.1c11.4-11.1 20-25.4 19.8-35.8-.1-6.2-3.2-10.8-8.7-12.8a16 16 0 0 0-12.4.3q-1 .3-1.4-.7a16 16 0 0 0-26.9-7.8 1 1 0 0 1-1.4 0c-3-3-7.2-4.9-11.8-4.7-8.5.3-15.5 7.9-15.5 16.4v43.4c0 2.1 1.5 3.9 3.6 4.2a4 4 0 0 0 4.4-4V42.3c0-4.3 3.2-8 7.5-8.3a8 8 0 0 1 8.5 8v43.8c0 2.1 1.5 3.9 3.6 4.2a4 4 0 0 0 4.4-4V42.3c0-4.3 3.2-8 7.5-8.3a8 8 0 0 1 8.6 8s-.1 38.8.7 42.8q0 .6-.3 1-6.5 5.5-13.7 8.4c-1.9.8-3.1 2.9-2.5 4.9a4 4 0 0 0 3.8 2.8q.7 0 1.5-.3Q69 98.9 75.5 94q.9-.5 1.5.3c1.9 4.2 6 9 12.5 10.4l.8.1c2.2 0 4.7-2.3 4.5-4.8-.2-1.6-1.7-2.9-3.4-3.3m4.5-43.5c-1.6 9-8.9 19.3-14.9 24.9-.5-5.5-1.5-24.4.2-28.4a7.6 7.6 0 0 1 14.7 3.5"/><use href="#a" opacity=".7"/></svg>