<svg xmlns="http://www.w3.org/2000/svg" width="1em" height="1em" viewBox="0 0 128 128"><circle cx="64.46" cy="63.96" r="60" fill="#f2a600"/><circle cx="60.56" cy="63.06" r="56.1" fill="#ffcc32"/><path fill="#fff170" d="M24.46 29.66c4.5-7.1 14.1-13 24.1-14.8 2.5-.4 5-.6 7.1.2 1.6.6 2.9 2.1 2 3.8-.7 1.4-2.6 2-4.1 2.5a44.64 44.64 0 0 0-23 17.4c-2 3-5 11.3-8.7 9.2-3.9-2.3-3.1-9.5 2.6-18.3" opacity=".65"/><path d="M52.86 45.96c6.41-4.09 14.5-4.51 21.3-1.1 1 .5 3.2 1.5 1.8 2.8-.59.57-1.31.98-2.1 1.2-.6 0-1.2-.6-1.8-.8-3.47-1.61-7.34-2.1-11.1-1.4q-1.545.315-3 .9c-.9.3-1.8 1.1-2.7 1.3s-4-1.9-2.4-2.9m-14.9 16.3c-7.14.3-13.71 3.97-17.7 9.9-.92 1.41-1.69 2.92-2.3 4.5-.28.72-.51 1.45-.7 2.2-.1.4-.1 1.2-.7 1.1-1.4-.1 1-7.4 1.3-8.3a26.3 26.3 0 0 1 14-14.4c2.96-1.3 6.16-1.98 9.4-2h2.4c.5 0 1.1 0 1.4-.6s-.4-1.3-.8-1.8c-.5-.7-1-1.3-1.5-2a25.8 25.8 0 0 1-3.5-20.6c.89-3.52 2.49-6.82 4.7-9.7.3-.3.8-1.3 1.3-1.3s.5.3.4.6c-.3.75-.71 1.46-1.2 2.1-.4.9-.8 1.7-1.1 2.6-2.28 6.81-1.2 14.3 2.9 20.2 2.1 2.91 4.83 5.31 8 7 1.55.81 3.2 1.41 4.9 1.8.82.21 1.66.38 2.5.5.6.1 1.2.2 1.4.8.3 1.1-.2 1.7-1.2 2.1a6.78 6.78 0 0 0-3.3 2.5 7.63 7.63 0 0 0-1.5 4.1c-.05.84.05 1.69.3 2.5.2.7.9 1.6.9 2.3-.22.91-.91 1.63-1.8 1.9-.8.1-1.3-.9-1.8-1.4-.7-.7-1.4-1.3-2.1-1.9a22.3 22.3 0 0 0-9.4-4.3c-1.71-.33-3.46-.46-5.2-.4m19.1 21.7c-.82-.15-1.6-.46-2.3-.9-.8-.4-1.6-.9-2.4-1.4-1.35-.93-2.59-2-3.7-3.2-2.31-2.5-3.99-5.52-4.9-8.8-.3-.9-1.2-3.2.1-3.7.92-.07 1.84.17 2.6.7.7.5.7 1.4.9 2.2.9 3.18 2.71 6.03 5.2 8.2 1.41 1.09 2.92 2.06 4.5 2.9 1.1.6 1.7 4 0 4m17.3 16.3c1.93 1.93 4.2 3.49 6.7 4.6q1.755.735 3.6 1.2c.3.1.9.1 1 .5.1.6-.5.6-.8.5-5.1-.1-10.4-2.5-14.3-5.7-1.04-.86-2.01-1.79-2.9-2.8-.4-.5-.8-.9-1.2-1.4s-.9-1.5-1.5-1.8c-1.1-.6-1.9 1.3-2.5 2-.92 1.14-1.92 2.21-3 3.2a25.65 25.65 0 0 1-13.5 6.3c-.5.1-2.2.6-2.5.1-.6-.9 2.2-1.3 2.7-1.4 2.43-.83 4.7-2.08 6.7-3.7 4.45-3.63 7.26-8.89 7.8-14.6.24-2.86-.04-5.74-.8-8.5-.3-1.3-.7-2.5-1.1-3.8-.3-.9-.9-1.7-.3-2.5.41-.46.84-.89 1.3-1.3.8-.8 1.3-.5 2.3-.1 1.33.42 2.74.49 4.1.2 1-.2 1.8-1 2.7-.3q.825.675 1.5 1.5c.7.8 0 1.7-.3 2.5-.9 2.81-1.6 5.69-2.1 8.6-.8 6 2.2 12.5 6.4 16.7m11-31.7c-.73 3.39-2.28 6.54-4.5 9.2a23.4 23.4 0 0 1-4 3.7c-.68.47-1.38.9-2.1 1.3-.83.54-1.74.95-2.7 1.2-1.4.2-1.2-1.5-1.1-2.4s.1-1.2.9-1.5c.8-.37 1.57-.81 2.3-1.3 2.66-1.7 4.77-4.13 6.1-7 .47-.92.84-1.9 1.1-2.9.2-.8.3-1.8 1.1-2.3.9-.56 2.08-.29 2.65.61.25.42.34.91.25 1.39m27.3 11.2c-.8.9-1.5-2.7-1.7-3.2a18.8 18.8 0 0 0-2.3-4.4c-1.91-2.9-4.48-5.29-7.5-7a22.7 22.7 0 0 0-20.9-.8c-1.72.78-3.3 1.83-4.7 3.1-.6.5-1.2 1.1-1.8 1.7-.4.4-.7.9-1.3 1s-1.5-.9-1.8-1.4 0-.9.2-1.4c.42-.81.69-1.69.8-2.6a7.33 7.33 0 0 0-3.9-7.4c-.5-.3-1.4-.4-1.8-.8-.36-.53-.44-1.2-.2-1.8a.99.99 0 0 1 .7-.7c.92-.22 1.86-.39 2.8-.5 7.17-1.6 13.11-6.6 15.9-13.4 1.41-3.41 1.89-7.14 1.4-10.8-.2-1.77-.6-3.52-1.2-5.2-.27-.76-.61-1.5-1-2.2-.49-.64-.9-1.35-1.2-2.1 0-.3.1-.6.4-.6.5 0 1.1 1 1.3 1.4 1.02 1.36 1.92 2.8 2.7 4.3 1.59 3.11 2.51 6.51 2.7 10 .23 3.46-.24 6.93-1.4 10.2-.6 1.58-1.3 3.11-2.1 4.6-.8 1.4-2 2.6-2.8 3.9-.34.47-.25 1.13.2 1.5.5.3 1.3.1 1.8.1 1.68-.02 3.35.11 5 .4a26.04 26.04 0 0 1 21 19.5c.22.82.39 1.66.5 2.5.2.3.6 1.7.2 2.1"/><path fill="#fff" d="M24.46 29.66c4.5-7.1 14.1-13 24.1-14.8 2.5-.4 5-.6 7.1.2 1.6.6 2.9 2.1 2 3.8-.7 1.4-2.6 2-4.1 2.5a44.64 44.64 0 0 0-23 17.4c-2 3-5 11.3-8.7 9.2-3.9-2.3-3.1-9.5 2.6-18.3" opacity=".3"/></svg>