<svg xmlns="http://www.w3.org/2000/svg" width="1em" height="1em" viewBox="0 0 128 128"><path fill="#F2A600" d="m69.61 6.36l52.2 52a7.887 7.887 0 0 1-.2 11.1l-52 52.2a7.991 7.991 0 0 1-11.3 0l-52-52.2a8 8 0 0 1-.2-11.1l52.2-52c3.12-3.11 8.18-3.11 11.3 0z"/><path fill="#FFCC32" d="m64.71 10.46l48.5 48.4a7.268 7.268 0 0 1-.18 10.28l-.02.02l-48.4 48.5a7.42 7.42 0 0 1-10.49.01l-.01-.01l-48.3-48.5a7.28 7.28 0 0 1-.21-10.29l.01-.01l48.6-48.4c2.9-2.9 7.6-2.9 10.5 0z"/><g fill="#424242" opacity=".2"><path d="M71.61 25.96a6.5 6.5 0 1 1-6.5 6.5c-.01-3.58 2.9-6.49 6.48-6.5h.02"/><path d="M72.51 39.66c1.15 0 2.3.17 3.4.5c1.48.47 2.7 1.51 3.4 2.9l4.5 8.2c.2.3.4.5.6.8l8.8 7.1c1.01.85 1.19 2.34.4 3.4c-.47.57-1.16.9-1.9.9c-.54-.01-1.06-.19-1.5-.5l-9.5-7.7c-.16-.14-.3-.31-.4-.5c-.1-.1-.1-.2-.2-.3l-1.2-2.2v10.5c.01.99.18 1.97.5 2.9l8.5 22.2c.6 1.6-.2 3.39-1.8 4c-.36.11-.73.18-1.1.2a3.243 3.243 0 0 1-2.9-2l-8.5-22.3a1.55 1.55 0 0 0-1.5-1c-.87-.01-1.59.69-1.6 1.56v.04l-.1 7.4c-.02.34-.09.68-.2 1c-.01.39-.11.76-.3 1.1l-6.4 12.6c-.59.98-1.65 1.59-2.8 1.6c-.48.01-.96-.1-1.4-.3a3.128 3.128 0 0 1-1.3-4.2l6.3-12.2l.2-9.7v-1.8c-.2.19-.44.33-.7.4c-.29.11-.59.18-.9.2c-.99 0-1.89-.59-2.3-1.5l-3.7-9.4c-.4-.95-.12-2.06.7-2.7l7.7-8.4c1.6-1.9 4.5-2.8 7.2-2.8m-8.1 19.8v-8.4c0-.2-.1-.2-.2-.2s-.1 0-.2.1l-1.7 1.9c-.21.21-.29.52-.2.8l2.3 5.8m-19.1-20.7a6.5 6.5 0 1 1-6.5 6.5c-.01-3.58 2.9-6.49 6.48-6.5h.02"/><path d="M45.51 52.56c1.54.01 3.07.31 4.5.9c1.7.7 4.1 5 5.1 6.5c.18.26.48.42.8.4h.2l5.8-1.2h.5a2.423 2.423 0 0 1 2.49 2.35c.03 1.19-.81 2.23-1.99 2.45l-8 1.6h-1c-.6-.1-1.13-.42-1.5-.9l-1.3-1.7v9c0 .1.1.1.1.2l6.1 16.7c.46 1.23-.16 2.6-1.39 3.06c-.03.01-.07.03-.11.04c-.26.08-.53.12-.8.1c-1.02 0-1.94-.64-2.3-1.6l-5.1-14.1a1.84 1.84 0 0 0-1.7-1.2c-.99-.01-1.79.79-1.8 1.78v3.22c.12.63-.02 1.28-.4 1.8l-6.5 9c-.45.65-1.21 1.03-2 1c-.49-.03-.97-.16-1.4-.4a2.518 2.518 0 0 1-.6-3.4l5.8-8.1c.11-.18.18-.39.2-.6l-.1-7.1c-.02-.21.02-.41.1-.6v-9.4c0-.55-.45-1-1-1c-.21.02-.42.09-.6.2l-1.3 1c-.12.11-.23.25-.3.4l-3 6.7c-.39.86-1.25 1.41-2.2 1.4c-.56 0-1.09-.22-1.5-.6a2.313 2.313 0 0 1-.6-2.9l3.3-7.3c.1-.1.1-.3.2-.4l.3-.3l.1-.1s6.9-5.3 7.2-5.5c1.76-.92 3.72-1.4 5.7-1.4"/></g><linearGradient id="notoChildrenCrossing0" x1="75.272" x2="75.272" y1="-1800.904" y2="-1869.794" gradientTransform="matrix(1 0 0 -1 -3.66 -1776.09)" gradientUnits="userSpaceOnUse"><stop offset="0" stop-color="#424242"/><stop offset="1" stop-color="#212121"/></linearGradient><circle cx="71.61" cy="32.47" r="6.5" fill="url(#notoChildrenCrossing0)"/><linearGradient id="notoChildrenCrossing1" x1="79.15" x2="79.15" y1="-1800.904" y2="-1869.794" gradientTransform="matrix(1 0 0 -1 -3.66 -1776.09)" gradientUnits="userSpaceOnUse"><stop offset="0" stop-color="#424242"/><stop offset="1" stop-color="#212121"/></linearGradient><path fill="url(#notoChildrenCrossing1)" d="m93.31 59.06l-8.7-7c-.28-.19-.49-.47-.6-.8l-4.6-8.2a6.455 6.455 0 0 0-3.4-2.9c-3.4-1-8.3-.4-10.7 2.2l-7.7 8.4c-.81.65-1.09 1.74-.7 2.7l3.7 9.4a2.437 2.437 0 0 0 3.1 1.4c.26-.07.5-.21.7-.4v1.8l-.2 9.7l-6.3 12.2c-.76 1.54-.13 3.41 1.41 4.16c1.48.73 3.28.18 4.09-1.26l6.5-12.7c.2-.33.31-.71.3-1.1c.12-.32.19-.66.2-1l.1-7.4c-.01-.87.69-1.59 1.56-1.6h.04c.66-.02 1.27.38 1.5 1l8.6 22.4a3.102 3.102 0 0 0 5.8-2.2l-8.5-22.3c-.32-.93-.49-1.91-.5-2.9v-10.4l1.2 2.2c.1.1.1.2.2.3s.3.3.4.5l9.5 7.7c1.03.83 2.54.67 3.37-.37l.03-.03c.84-1.08.66-2.63-.4-3.5zm-31.1-6.2l1.7-1.9c.2-.2.4-.1.4.2v8.4l-2.3-5.8c0-.4 0-.7.2-.9z"/><linearGradient id="notoChildrenCrossing2" x1="48.972" x2="48.972" y1="-1800.904" y2="-1869.794" gradientTransform="matrix(1 0 0 -1 -3.66 -1776.09)" gradientUnits="userSpaceOnUse"><stop offset="0" stop-color="#424242"/><stop offset="1" stop-color="#212121"/></linearGradient><circle cx="45.31" cy="45.26" r="6.5" fill="url(#notoChildrenCrossing2)"/><linearGradient id="notoChildrenCrossing3" x1="50.502" x2="50.502" y1="-1800.904" y2="-1869.794" gradientTransform="matrix(1 0 0 -1 -3.66 -1776.09)" gradientUnits="userSpaceOnUse"><stop offset="0" stop-color="#424242"/><stop offset="1" stop-color="#212121"/></linearGradient><path fill="url(#notoChildrenCrossing3)" d="M64.61 60.46a2.3 2.3 0 0 0-2.7-1.2l-5.8 1.2c-.38.07-.77-.08-1-.4c-1.1-1.5-3.4-5.9-5.1-6.5a11.466 11.466 0 0 0-9.9.5c-.3 0-7.2 5.4-7.2 5.4l-.1.1l-.3.3c-.11.11-.17.25-.2.4l-3.3 7.3c-.48.99-.23 2.18.6 2.9a2.409 2.409 0 0 0 3.8-.9l3-6.7c.07-.15.18-.29.3-.4l1.3-1a1.003 1.003 0 0 1 1.6.8v9.4c0 .2-.1.4-.1.6l.1 7.1c-.02.21-.09.42-.2.6l-5.8 8.1c-.77 1.1-.5 2.63.6 3.4s2.63.5 3.4-.6l6.5-9c.38-.52.52-1.17.4-1.8v-3.2c-.01-.99.79-1.79 1.78-1.8h.02c.76.01 1.44.49 1.7 1.2l5.1 14.1a2.545 2.545 0 0 0 3.1 1.5a2.5 2.5 0 0 0 1.5-3.1l-6.4-16.7c0-.1-.1-.1-.1-.2v-9l1.3 1.7c.37.48.9.8 1.5.9h1l8-1.6a2.29 2.29 0 0 0 1.86-2.67c-.04-.25-.13-.5-.26-.73z"/><path fill="#FFF170" d="M52.91 17.66c-1.6 1.1-33.1 32.3-33.1 32.3s-2.6 2.3-.8 4.7c1.7 2.2 4.3 1.1 5.6-.1s29.7-29 30.9-30.4a5.425 5.425 0 0 0 .6-5.5c-.8-1.6-2.1-1.8-3.2-1z"/><circle cx="15.51" cy="60.47" r="3.3" fill="#FFF170"/></svg>