<svg viewBox="0 0 128 128"><path fill="#f2a600" d="m69.6 6.4 52.2 52a8 8 0 0 1-.2 11l-52 52.3a8 8 0 0 1-11.3 0l-52-52.2a8 8 0 0 1-.2-11.1l52.2-52a8 8 0 0 1 11.3 0"/><path fill="#ffcc32" d="m64.7 10.5 48.5 48.4A7.3 7.3 0 0 1 113 69l-48.4 48.6a7.4 7.4 0 0 1-10.5 0L5.8 69.2a7.3 7.3 0 0 1-.2-10.3l48.6-48.4a7.4 7.4 0 0 1 10.5 0"/><g fill="#424242" opacity=".2"><path d="M71.6 26a6.5 6.5 0 1 1-6.5 6.5c0-3.6 3-6.5 6.5-6.5"/><path d="M72.5 39.7q1.8 0 3.4.5 2.3.7 3.4 2.9l4.5 8.2.6.8 8.8 7q1.5 1.7.4 3.5a2.5 2.5 0 0 1-3.4.4l-9.5-7.7-.4-.5-.2-.3-1.1-2.2v10.5q0 1.5.5 2.9L88 87.9c.6 1.6-.2 3.3-1.8 4l-1 .2a3 3 0 0 1-3-2l-8.5-22.3a2 2 0 0 0-1.5-1q-1.5 0-1.6 1.5v7.5l-.3 1q0 .6-.3 1l-6.4 12.7a3.3 3.3 0 0 1-4.2 1.3 3 3 0 0 1-1.3-4.2l6.3-12.2.2-9.7v-1.8l-.7.4-.9.2q-1.6 0-2.3-1.5L57 53.6q-.5-1.6.7-2.7l7.7-8.4c1.6-2 4.5-2.8 7.2-2.8m-8 19.8V51q0-.2-.3-.2H64l-1.7 2q-.3.3-.2.8zM45.2 38.8a6.5 6.5 0 1 1-6.5 6.5c0-3.6 3-6.5 6.5-6.5"/><path d="M45.5 52.6q2.3 0 4.5.9c1.7.7 4.1 5 5.1 6.5q.3.4.8.4h.2l5.8-1.2h.5a2.4 2.4 0 0 1 2.5 2.3q-.1 2-2 2.5l-8 1.6h-1q-.9-.2-1.5-1L51.1 63v9l.1.2 6.1 16.7c.5 1.2-.2 2.6-1.4 3l-.9.2q-1.7-.1-2.3-1.6l-5-14.1a2 2 0 0 0-1.8-1.2q-1.7.2-1.8 1.7v3.3q.2.9-.4 1.8l-6.5 9q-.7 1-2 1-.8 0-1.4-.4a2.5 2.5 0 0 1-.6-3.4L39 80l.2-.6v-17q0-1-1-1l-.6.2-1.3 1-.3.4-3 6.7q-.6 1.3-2.2 1.4-.7 0-1.5-.6a2.3 2.3 0 0 1-.6-3l3.3-7.2.2-.4.3-.3.1-.1 7.2-5.5q2.7-1.4 5.7-1.4"/></g><linearGradient id="a" x1="75.3" x2="75.3" y1="-1800.9" y2="-1869.8" gradientTransform="matrix(1 0 0 -1 -3.66 -1776.09)" gradientUnits="userSpaceOnUse"><stop offset="0" stop-color="#424242"/><stop offset="1" stop-color="#212121"/></linearGradient><circle cx="71.6" cy="32.5" r="6.5" fill="url(#a)"/><linearGradient id="b" x1="79.2" x2="79.2" y1="-1800.9" y2="-1869.8" gradientTransform="matrix(1 0 0 -1 -3.66 -1776.09)" gradientUnits="userSpaceOnUse"><stop offset="0" stop-color="#424242"/><stop offset="1" stop-color="#212121"/></linearGradient><path fill="url(#b)" d="m93.3 59-8.7-7q-.5-.2-.6-.7L79.4 43a7 7 0 0 0-3.4-3c-3.4-1-8.3-.3-10.7 2.3l-7.7 8.4q-1.2 1-.7 2.7l3.7 9.4a2.4 2.4 0 0 0 3.1 1.4l.7-.4v1.8l-.2 9.7L58 87.6a3.1 3.1 0 0 0 5.5 2.9L70 77.8q.3-.6.3-1.1l.2-1 .1-7.4q.1-1.5 1.6-1.6 1.1 0 1.5 1L82.2 90a3.1 3.1 0 0 0 5.8-2.2l-8.5-22.3q-.5-1.5-.5-3V52.4l1.2 2.2.2.3.4.5 9.5 7.7c1 .8 2.6.6 3.4-.4.9-1.1.7-2.7-.4-3.5m-31-6.2 1.6-2q.3-.2.4.3v8.4L62 53.8q0-.6.2-1"/><linearGradient id="c" x1="49" x2="49" y1="-1800.9" y2="-1869.8" gradientTransform="matrix(1 0 0 -1 -3.66 -1776.09)" gradientUnits="userSpaceOnUse"><stop offset="0" stop-color="#424242"/><stop offset="1" stop-color="#212121"/></linearGradient><circle cx="45.3" cy="45.3" r="6.5" fill="url(#c)"/><linearGradient id="d" x1="50.5" x2="50.5" y1="-1800.9" y2="-1869.8" gradientTransform="matrix(1 0 0 -1 -3.66 -1776.09)" gradientUnits="userSpaceOnUse"><stop offset="0" stop-color="#424242"/><stop offset="1" stop-color="#212121"/></linearGradient><path fill="url(#d)" d="M64.6 60.5a2.3 2.3 0 0 0-2.7-1.2l-5.8 1.2a1 1 0 0 1-1-.4c-1-1.5-3.4-6-5-6.5a12 12 0 0 0-10 .5c-.3 0-7.2 5.4-7.2 5.4l-.4.4-.2.4-3.3 7.3q-.7 1.6.6 2.9a2.4 2.4 0 0 0 3.8-1l3-6.6q0-.3.3-.4l1.3-1a1 1 0 0 1 1.6.8v17q0 .4-.2.7l-5.8 8c-.8 1.2-.5 2.7.6 3.5s2.6.5 3.4-.6l6.5-9q.6-.9.4-1.8v-3.2q.1-1.7 1.8-1.8 1.2 0 1.7 1.2l5.1 14a2.5 2.5 0 0 0 3.1 1.6 2.5 2.5 0 0 0 1.5-3.1L51.3 72v-9.2l1.2 1.7q.7.7 1.5.9h1l8-1.6a2.3 2.3 0 0 0 1.9-2.7q0-.4-.3-.7"/><path fill="#fff170" d="M53 17.7C51.2 18.7 19.7 50 19.7 50s-2.6 2.3-.8 4.7c1.7 2.2 4.3 1 5.6-.1s29.7-29 31-30.4a5 5 0 0 0 .5-5.5q-1.3-2.3-3.2-1"/><circle cx="15.5" cy="60.5" r="3.3" fill="#fff170"/></svg>