<svg viewBox="0 0 128 128"><path fill="#f2a600" d="m57.2 8.4-52 104a8 8 0 0 0 7.2 11.6h104a8 8 0 0 0 8-8.1 8 8 0 0 0-.8-3.5l-52-104a8 8 0 0 0-14.4 0"/><path fill="#ffcc32" d="M53.6 15.7 4.8 113.1a7.6 7.6 0 0 0 6.7 11H109a7.6 7.6 0 0 0 7.4-7.7 8 8 0 0 0-.7-3.3L67 15.7a7.4 7.4 0 0 0-10-3.5 8 8 0 0 0-3.4 3.5"/><path fill="#424242" d="M64.4 34c4.6 0 8.3 3.7 8 8L69 90a4.6 4.6 0 0 1-5.3 4 5 5 0 0 1-4-4l-3.3-48c-.3-4.3 3.4-8 8-8m0 64a6 6 0 1 1 0 12 6 6 0 0 1 0-12" opacity=".2"/><linearGradient id="a" x1="68" x2="68" y1="-1808.4" y2="-1887" gradientTransform="matrix(1 0 0 -1 -3.64 -1776.09)" gradientUnits="userSpaceOnUse"><stop offset="0" stop-color="#424242"/><stop offset="1" stop-color="#212121"/></linearGradient><path fill="url(#a)" d="M64.4 34c4.6 0 8.3 3.7 8 8L69 90a4.6 4.6 0 0 1-5.3 4 5 5 0 0 1-4-4l-3.3-48c-.3-4.3 3.4-8 8-8"/><linearGradient id="b" x1="64.4" x2="64.4" y1="-1808.4" y2="-1887" gradientTransform="matrix(1 0 0 -1 0 -1772.11)" gradientUnits="userSpaceOnUse"><stop offset="0" stop-color="#424242"/><stop offset="1" stop-color="#212121"/></linearGradient><circle cx="64.4" cy="104" r="6" fill="url(#b)"/><path fill="#fff170" d="M53.6 23c-1.2 1.5-21.4 41-21.4 41s-1.8 3 .7 4.7c2.3 1.6 4.4-.3 5.3-1.8S57.4 30 58 28.3q.8-3-1.1-5.4-2-1.7-3.4.1"/><circle cx="31.4" cy="75.3" r="3.3" fill="#fff170"/></svg>