<svg viewBox="0 0 128 128"><path fill="#02ab47" d="M59.8 3.7c-1.6 0-2.4.2-2.4 3.7l.3 115.1q0 1.7 3.3 1.7h8.4q1.9.2 1.7-3c-.2-2.3-.2-113.6-.2-115s-.7-2.4-2.8-2.5z"/><path fill="#2f7c31" d="M45.4 44s-.3-6.3 4.2-10.4c4-3.7 7.8-3.4 7.8-3.4v6.2s2.4-.8 6.3-.6 7.2 1.5 7.2 1.5v-6.5s2.1-.1 5.4 3.7c1.7 2 3 6 3.5 8 .5 2.8 1.5 4 4.1 4.2s4.6.2 6.2.1c2.3 0-4.9-12.5-4.9-12.5s-8-12.1-10.6-12.2-18.8.3-20.4 1.2-11.7 7.9-11.7 7.9l-1.4 11s3.9 4.5 3.9 4.2zm-7.8 0L30 38s-1.7 12.4 4.5 19.9A35 35 0 0 0 49 67.6c4.3 2 8.5 3.3 8.5 3.3V78L71 85v-9.5s5 2.7 7.6 5.4 2.8 6 2.9 8.2-1 5.5-1 5.5l-1.5 6.5L96 84 55.8 57.4z"/><path fill="#2f7c31" d="M30.9 82.4s-2 1.7-1.5 6.5c.6 4.4 3 11.3 10.5 17.3s17.8 7.2 17.8 7.2v5H71v-5s8-.3 14.6-4.6c7-4.4 12.2-13.5 11.9-22-.1-3-2-2.5-2-2.5s-24.4 21-26 21.3-17.6-2.7-17.6-2.7L37.1 87z"/><path fill="#02ab47" d="M37.1 80.6c-5 .5-6.7 1.5-6.8 3a32 32 0 0 0 34.6 26.7c29-.4 32.4-18 32.7-25 .3-8.2-4.6-15-15.6-21.6-8.1-4.8-27.9-12-31.1-14-3-1.9-7.2-6-6.7-12.3s7.4-12.3 20-12.3S81.5 34 82.4 36.5c1.6 4.2 1.3 9.6 3.6 10.3 1 .3 4.1.2 6 0s4.3-1.7 4.4-5.3c.2-4.2-4.1-27.5-33.1-27.2-27.7.2-34.5 17.2-33.4 26.9C31 50.4 38.5 59 50.6 64S84.2 74.9 84 86c-.2 9.8-11.7 13.3-21.2 12.9S48 92.8 46 86.1c-2-6.2-5.5-6-8.9-5.6"/><path fill="#7adc8a" d="M41.7 83.7c-1-1.9-7.8-1.6-8.7 1.6s2.2 8.3 4.3 7.8c3-.6.5-4 1.6-5.3s4-1.7 2.8-4m22-78.4c-2 0-4.3 0-4.4 2.6s0 4.6 1 4.7c1.2.1 2.8-2.4 3.5-3.4.9-1.4 2-3.8-.2-4m-15.3 16c-.7-1.1-5-2-11 5.3s-3.5 11-2.3 11.2q2.5.1 4-3.8c1.6-3.5 3.5-5.6 6.5-8 2.6-1.9 4.2-3 2.8-4.8"/></svg>