<svg viewBox="0 0 128 128"><path fill="#00796b" d="M106.7 6.9H76.5a4 4 0 0 0-4 4v8.2a4 4 0 0 0 4 4h16.3c.9 0 1.3 1.2.7 1.8L71.3 46a42.7 42.7 0 1 0 11.3 11.5L105 36.4c.6-.7 1.7-.2 1.7.7v16.2a4 4 0 0 0 4 4h8.2a4 4 0 0 0 4-4V11a4 4 0 0 0-4-4.1zM65.5 99.5c-10 9.9-26.2 9.9-36.3 0s-10-26.2 0-36.2 26.2-10 36.3 0 10 26.2 0 36.2"/><linearGradient id="a" x1="63.8" x2="63.8" y1="-1538.2" y2="-1653.8" gradientTransform="matrix(1 0 0 -1 0 -1534)" gradientUnits="userSpaceOnUse"><stop offset="0" stop-color="#00bfa5"/><stop offset=".7" stop-color="#00b29a"/><stop offset="1" stop-color="#00ab94"/></linearGradient><path fill="url(#a)" d="M106.7 3.9H76.5a4 4 0 0 0-4 4V15a4 4 0 0 0 4 4h16.3c1 0 2.3 1.4.7 2.8L71.3 43a43 43 0 0 0-55.4 6.6 41.5 41.5 0 0 0 .3 57 42.7 42.7 0 0 0 61.3.9 42.6 42.6 0 0 0 4.3-54.1L104.3 32c1.3-1.2 2.5.6 2.3 2v15.1a4 4 0 0 0 4 4.1h8.2a4 4 0 0 0 4-4V7.8a4 4 0 0 0-4-4zM65.4 96.4c-10 10-26.2 10-36.3 0s-10-27.2 0-37.2 26.2-10 36.3 0 10 27.3 0 37.2"/><path fill="#fff" d="M86.2 7.3c0-.9-.6-1.2-4.3-1-3 .1-4.5.5-5.4 1.5s-1 3.4-1.2 6c0 2 0 3.7 1 3.7 1.5 0 1.5-3.2 2.5-4.9 2-3.3 7.4-4 7.4-5.3M109 40.6c-1 0-1.2.6-1 4.3 0 3 .5 4.4 1.5 5.3s3.4 1.2 6 1.3c2 0 3.6 0 3.6-1 0-1.5-3.1-1.5-4.8-2.5-3.4-2-4-7.4-5.3-7.4m-92 13c3.8-5.8 11.9-12 20.7-13.4a12 12 0 0 1 6.3.2c1.4.5 2.6 1.9 1.8 3.3-.6 1.2-4.2 1.1-5.5 1.5A38 38 0 0 0 29 49.6c-3.9 2.5-7.6 7-9.3 10-3.2 5.7-4.3 10.8-6.9 8.9-2.5-1.7.3-9 4.2-14.9" opacity=".3"/></svg>