<svg xmlns="http://www.w3.org/2000/svg" width="1em" height="1em" viewBox="0 0 128 128"><path fill="#00796B" d="M106.7 6.9H76.53c-2.23 0-4.06 1.83-4.06 4.06v8.13c0 2.23 1.83 4.06 4.06 4.06h16.26c.91 0 1.32 1.12.71 1.73L71.25 46.03c-17.06-11.58-40.83-9.34-55.35 6.6c-15.03 16.36-14.83 41.85.3 58c16.56 17.57 44.28 17.88 61.24.91c14.73-14.73 16.45-37.48 5.18-54.03l22.25-21.15c.61-.61 1.73-.2 1.73.71v16.26c0 2.23 1.83 4.06 4.06 4.06h8.13c2.23 0 4.06-1.83 4.06-4.06V10.96c0-2.23-1.83-4.06-4.06-4.06H106.7zM65.46 99.45c-9.95 9.95-26.2 9.95-36.26 0s-9.95-26.2 0-36.16s26.2-9.95 36.26 0s9.95 26.21 0 36.16z"/><linearGradient id="notoMaleSign0" x1="63.803" x2="63.803" y1="-1538.156" y2="-1653.779" gradientTransform="matrix(1 0 0 -1 0 -1534)" gradientUnits="userSpaceOnUse"><stop offset="0" stop-color="#00BFA5"/><stop offset=".705" stop-color="#00B29A"/><stop offset="1" stop-color="#00AB94"/></linearGradient><path fill="url(#notoMaleSign0)" d="M106.71 3.87H76.54c-2.23 0-4.06 1.83-4.06 4.06v7.09c0 2.23 1.83 4.06 4.06 4.06H92.8c.91 0 2.27 1.28.71 2.76L71.26 43c-17.06-11.58-40.83-9.34-55.35 6.6c-15.03 16.35-14.83 40.81.3 56.96c16.56 17.57 44.28 17.88 61.24.91c14.73-14.73 15.58-37.54 4.31-54.1l22.49-21.24c1.35-1.2 2.56.62 2.36 1.9v15.22c0 2.23 1.83 4.06 4.06 4.06h8.13c2.23 0 4.06-1.83 4.06-4.06V7.94c0-2.23-1.83-4.06-4.06-4.06c.1-.01-12.09-.01-12.09-.01zM65.47 96.43c-9.95 9.95-26.2 9.95-36.26 0s-9.95-27.24 0-37.19s26.2-9.95 36.26 0s9.95 27.23 0 37.19z"/><path fill="#FFF" d="M86.19 7.33c0-.91-.61-1.22-4.27-1.02c-3.05.1-4.47.51-5.38 1.52s-1.12 3.35-1.22 5.99c0 1.93 0 3.66 1.02 3.66c1.42 0 1.42-3.15 2.44-4.88c2.03-3.34 7.41-4.05 7.41-5.27zm22.91 33.26c-.91 0-1.22.61-1.02 4.27c.1 3.05.51 4.47 1.52 5.38s3.35 1.12 5.99 1.22c1.93 0 3.66 0 3.66-1.02c0-1.42-3.15-1.42-4.88-2.44c-3.34-2.02-4.05-7.41-5.27-7.41zM17.07 53.61c3.82-5.8 11.93-11.96 20.77-13.45c2.19-.4 4.37-.5 6.26.2c1.39.5 2.58 1.89 1.79 3.38c-.6 1.19-4.23 1.07-5.53 1.46c-4.54 1.16-8.26 2.51-11.22 4.41c-3.94 2.53-7.68 7.07-9.36 10.04c-3.19 5.63-4.27 10.71-6.85 8.82c-2.48-1.7.32-9.05 4.14-14.86z" opacity=".3"/></svg>