<svg viewBox="0 0 128 128"><path fill="#9f0cc4" d="M101.5 44.5A38.1 38.1 0 1 0 56 82v11.6H40.4c-2 0-3.7 1.6-3.7 3.6v7.3c0 2 1.7 3.6 3.7 3.6H56V121c0 2 1.7 3.6 3.7 3.6H67c2 0 3.7-1.6 3.7-3.6v-13h15.7c2 0 3.7-1.6 3.7-3.6v-7.3c0-2-1.7-3.6-3.7-3.6H70.7V82a38 38 0 0 0 30.8-37.4m-61.2-.4c.2-16 12.7-22.7 23.1-22.4 12.8.2 23 9.2 22.9 22.8C86 57.1 76 67.4 63.4 67.4S40.1 58.2 40.3 44"/><path fill="#c71fff" d="M101.5 41.2a38.1 38.1 0 0 0-76.2-1.7C24.4 58.8 38 73.2 56.2 76.7v13.6H40.3c-2 0-3.7 1.7-3.7 3.7v6.2c0 2 1.7 3.2 3.7 3.2h15.8v13.3c0 2 1.6 3.6 3.6 3.6H67c2 0 3.7-1.6 3.7-3.6v-13.3h15.8c2 0 3.6-1.2 3.6-3.2V94c0-2-1.6-3.7-3.6-3.7H70.7V76.6c17.6-3.3 30.8-16.8 30.8-35.4m-61.2-.4c0-14.9 10-23.9 23-23.9 14.7 0 23.3 11.6 23 25-.2 12.6-10.3 22.2-22.9 22.2S40.3 55 40.3 40.8"/><path fill="#fff" d="M37 18.3A32 32 0 0 1 56.6 7q3.1-.4 5.6.5c1.3.5 2.3 1.8 1.5 3.2-.6 1-3.1 1.7-4.3 2q-6.3 1.2-10.4 3.5c-3.7 2.1-7.4 6-9 8.7-3.2 5-5.2 8.6-7.5 6.8s.4-8.4 4.5-13.4m11.4 74.5c0-.7-.5-1-3.2-.8-2.2 0-4.8.4-5.5 1.2q-.8 1.6-.9 4.9c0 1.6 0 3 .8 3 1 0 1-2.6 1.8-4 1.5-2.6 7-3.3 7-4.3m10.2 16.5c-.8 0-1 .4-.9 3.2.1 2.3.3 4.3 1.2 5 1 .7 3.2.8 5.5.8q2.6.2 2.6-.7c0-1-1.6-.2-4.3-2.4s-3-6-4-6" opacity=".3"/></svg>