<svg xmlns="http://www.w3.org/2000/svg" width="1em" height="1em" viewBox="0 0 128 128"><path fill="#9f0cc4" d="M101.49 44.51c0-21.5-17.87-38.91-39.55-38.1-19.68.82-35.73 16.69-36.64 36.38-.91 19.32 12.7 35.65 30.84 39.18v11.64H40.36c-2 0-3.63 1.63-3.63 3.63v7.26c0 2 1.63 3.63 3.63 3.63h15.78v12.85c0 2 1.63 3.63 3.63 3.63h7.26c2 0 3.63-1.63 3.63-3.63v-12.85h15.78c2 0 3.63-1.63 3.63-3.63v-7.26c0-2-1.63-3.63-3.63-3.63H70.65V81.88c17.6-3.35 30.84-18.77 30.84-37.37m-61.22-.41c.19-16.02 12.77-22.66 23.13-22.45 12.77.26 23.09 9.27 22.86 22.86-.22 12.61-10.25 22.86-22.86 22.86S40.1 58.25 40.27 44.1"/><path fill="#c71fff" d="M101.5 41.24c0-21.5-17.87-38.91-39.55-38.1-19.68.82-35.74 16.7-36.64 36.38C24.4 58.84 38 73.17 56.15 76.71v13.64H40.37c-2 0-3.63 1.63-3.63 3.63v6.26c0 2 1.71 3.15 3.7 3.15h15.78l-.07 13.33c0 2 1.63 3.63 3.63 3.63h7.26c2 0 3.63-1.63 3.63-3.63l.07-13.33h15.78c2 0 3.56-1.16 3.56-3.15v-6.26c0-2-1.63-3.63-3.63-3.63H70.66V76.61c17.6-3.35 30.84-16.77 30.84-35.37m-61.23-.41c-.01-14.91 10-23.9 23.02-23.9 14.73 0 23.34 11.57 23.07 24.97-.24 12.61-10.35 22.2-22.96 22.2s-23.12-9.12-23.13-23.27"/><path fill="#fff" d="M36.99 18.34c4.03-4.9 11.42-10.36 19.56-11.31 2.01-.26 4.01-.25 5.7.47 1.25.52 2.27 1.84 1.48 3.16-.6 1.06-3.14 1.72-4.33 2.03-4.19.85-7.65 1.91-10.44 3.5-3.71 2.12-7.33 6.09-8.99 8.72-3.16 4.99-5.16 8.63-7.42 6.78-2.2-1.66.32-8.35 4.44-13.35m11.38 74.47c0-.74-.45-.99-3.13-.82-2.23.08-4.83.41-5.5 1.24-.67.91-.82 2.72-.89 4.86 0 1.57 0 2.97.74 2.97 1.04 0 1.04-2.55 1.79-3.95 1.49-2.65 6.99-3.31 6.99-4.3m10.27 16.44c-.82 0-1.09.46-.91 3.25.09 2.32.27 4.25 1.18 4.95 1 .7 3.18.81 5.53.89 1.72 0 2.52.04 2.52-.73 0-1.08-1.51-.26-4.23-2.44-2.71-2.17-3.09-5.92-4.09-5.92" opacity=".3"/></svg>