<svg viewBox="0 0 128 128"><path fill="#8e24aa" d="M116.5 4h-104a8 8 0 0 0-8 8v104a8 8 0 0 0 8 8h104a8 8 0 0 0 8-8V12a8 8 0 0 0-8-8"/><path fill="#ab47bc" d="M110.2 4H12a7.6 7.6 0 0 0-7.5 7.5v97.9c0 4.1 3.3 7.5 7.4 7.5h98.2c4.1 0 7.5-3.4 7.5-7.5v-98c0-4-3.2-7.4-7.2-7.4z"/><path fill="#fafafa" d="M40.2 12.9c0-2.3-1.6-3-10.8-2.7-7.7.3-11.5 1.2-13.8 4s-3 8.5-3 15.3c0 4.8 0 9.3 2.5 9.3 3.4 0 3.4-8 6.2-12.3 5.4-8.7 18.9-10.6 18.9-13.6" opacity=".3"/><circle cx="61.5" cy="64" r="6" fill="#fafafa"/><path fill="#fafafa" d="M103 40c-3.2-5.8-13-7-25.2-4.1-3.7-12.1-9.6-20-16.3-20s-12.6 8-16.2 20c-12.3-3-22-1.7-25.4 4s.5 14.9 9 24c-8.5 9.3-12.4 18.3-9 24s13 7 25.3 4.2c3.7 12 9.6 19.9 16.3 19.9s12.6-7.8 16.2-20c12.3 3 22 1.8 25.3-4s-.5-14.8-9.1-24c8.7-9.2 12.5-18.2 9.2-24m-5.2 3c1.4 2.4-.8 8.6-7.5 16a1 1 0 0 1-1.4.2 97 97 0 0 0-7.6-6.1l-.4-.7q-.5-5-1.5-9.7a1 1 0 0 1 .7-1.2c9.8-2.1 16.3-1 17.7 1.5M68.5 76l-6.6 3.6h-1L54.5 76Q51 74 48 72l-.4-.7a169 169 0 0 1 0-14.8q0-.5.4-.8l6.3-4 6.6-3.4h.9a109 109 0 0 1 12.9 7.4q.3.2.4.8.3 3.5.2 7.4l-.2 7.4q0 .5-.4.8-3 2-6.3 3.9m5.9 3.5-1 5-4.8-1.6 2.9-1.6zm-20 3.3q-2.5 1-5 1.7l-.8-5.1 2.9 1.7zm-13-15.5-4-3.4 4-3.4zm7.2-19 .9-5.1q2.4.7 4.9 1.7l-3 1.6zm20-3.3q2.5-1 4.9-1.7l.9 5-3-1.6zm12.8 15.5 3.9 3.4-4 3.4.2-3.4zM61.4 22c2.9 0 7 5 10.2 14.6q.2.8-.6 1.3-4.5 1.5-9.1 3.5H61q-4.5-2.1-9.1-3.5a1 1 0 0 1-.6-1.3c3-9.6 7.3-14.6 10-14.6M25.2 43c1.4-2.4 7.9-3.6 17.7-1.5q.8.2.8 1.1-.9 4.6-1.5 9.8l-.4.7a83 83 0 0 0-7.6 6 1 1 0 0 1-1.4 0c-6.8-7.5-9-13.7-7.6-16.1m0 42c-1.4-2.4.8-8.6 7.5-16.1a1 1 0 0 1 1.4-.1 97 97 0 0 0 7.6 6l.4.8q.3 4.9 1.5 9.7a1 1 0 0 1-.8 1.2c-9.7 2-16.2.9-17.6-1.5m36.4 21c-2.8 0-7-5-10.1-14.6a1 1 0 0 1 .5-1.3q4.8-1.6 9.2-3.6.3-.1.8 0a107 107 0 0 0 9 3.6q1 .3.7 1.2C68.5 101 64.3 106 61.5 106m36.4-21c-1.4 2.4-8 3.6-17.7 1.5a1 1 0 0 1-.8-1.2l1.5-9.7q0-.5.4-.7 4-3 7.6-6.1a1 1 0 0 1 1.4 0c6.7 7.6 8.9 13.8 7.6 16.2"/></svg>