<svg viewBox="0 0 128 128"><path fill="#c33" d="M64 4a60 60 0 1 0 .1 120.1A60 60 0 0 0 64 4m50 60c0 12-4.2 23-11.3 31.6L32.4 25.3A50 50 0 0 1 114 64M14 64c0-12 4.2-23 11.3-31.6l70.3 70.3A50 50 0 0 1 14 64"/><path fill="#f44336" d="M60.1 7a56 56 0 0 0-34.7 12l-.1-.1-1.1 1.1A56.2 56.2 0 1 0 60.1 7M32.4 25.3a50 50 0 0 1 70.3 70.3l-70.6-70zM14 64c0-11.8 4.1-22.7 11-31.2l70.6 69.9A50 50 0 0 1 14 64"/><path fill="#ff8a80" d="M45 10.9c1.7-.4 4.2-1.6 5.9-1.1 1 .3 1.9 1.5 1.5 2.5q-.6 1.2-2 1.5A52 52 0 0 0 21 33.7c-1.9 2.7-3.4 5.5-5.8 7.8q-.3.3-.8.4l-.5-.1q-1.7-.6-1.2-2.3.3-1.5 1-2.9 1.5-2.6 3.3-5.1a46 46 0 0 1 6.6-8A57 57 0 0 1 45 10.9"/><path fill="#c33" d="m32.4 25.3-2 2 71.1 71.1 1.8-2.2z"/></svg>