<svg xmlns="http://www.w3.org/2000/svg" width="1em" height="1em" viewBox="0 0 128 128"><path fill="#C33" d="M64 4C30.9 4 4 30.9 4 64s26.9 60 60 60s60-26.9 60-60S97.1 4 64 4zm50 60c0 12-4.2 23-11.3 31.6L32.4 25.3C41 18.2 52 14 64 14c27.6 0 50 22.4 50 50zM14 64c0-12 4.2-23 11.3-31.6l70.3 70.3C87 109.8 76 114 64 114c-27.6 0-50-22.4-50-50z"/><path fill="#F44336" d="M60.1 7C47 7 35 11.5 25.4 19l-.1-.1l-1.1 1.1C11.9 30.3 4 45.8 4 63.1c0 31 25.1 56.1 56.1 56.1s56.1-25.1 56.1-56.1S91.1 7 60.1 7zM32.4 25.3C41 18.2 52 14 64 14c27.6 0 50 22.4 50 50c0 12-4.2 23-11.3 31.6l-70.6-70l.3-.3zM14 64c0-11.8 4.1-22.7 11-31.2l70.6 69.9C87 109.8 76 114 64 114c-27.6 0-50-22.4-50-50z"/><path fill="#FF8A80" d="M45 10.9c1.7-.4 4.2-1.6 5.9-1.1c1 .3 1.9 1.5 1.5 2.5c-.3.8-1.1 1.3-2 1.5c-4.1 1.1-7.7 2.3-11.3 4.1C32 21.6 25.6 27.2 21 33.7c-1.9 2.7-3.4 5.5-5.8 7.8c-.2.2-.5.4-.8.4c-.2 0-.4 0-.5-.1c-1.2-.5-1.4-1.1-1.2-2.3c.2-1 .5-2 1-2.9c.9-1.8 2.2-3.4 3.3-5.1c1.9-2.9 4.1-5.6 6.6-8c6.8-6.3 15.6-11.1 21.4-12.6z"/><path fill="#C33" d="m32.4 25.3l-2 2l71.1 71.1l1.8-2.2z"/></svg>