<svg viewBox="0 0 128 128"><path fill="#34700d" d="m27.3 36.6 20.6 11c1.1.4 2.6-.3 3.3-2L63 23.9c.5-.8 1-2.4 2.7-1.5s4.2-5.3 4.2-5.3L51.1 6 42 7.3 26.6 34.9zm-1 47.7 28.9.3c1.6 0 3.1.4 3.3 2.6.2 2.1-.2 26.3-.2 26.3l-10.4.1-15.5-.7-8.3-3.4-6.5-15.1zM107.8 44 86 56.6c-.5.3-1.1 1.4-.2 3L97.7 81c.9 1.5 1.7 3.1.3 4.1s2 4.9 2 4.9l10-1.1 6.9-4.4 5-8.4-1-10.2c-.3-.3-9.5-19-9.5-19z"/><path fill="#7cb342" d="M75.5 37.6s-10.6-16.4-14-20.2q-4.2-4.5-8-7.6c-2.4-1.8-4-2.2-6-1.8-3.1.4-5 2-6.7 5-5.3 8.9-13.5 23.6-13.5 23.6s-2.9-1-3-2.9c0-1.8 11.8-21.9 13-24s3.3-4.9 8.9-5.2 34.7-.5 36.4-.2 5.3 1.8 8.8 7.1c4 6 6.4 11.4 6.4 11.4s7.8-4.6 8.6-4c1.2.7-10.8 24.2-11.8 25-.6.6-27.7 2.3-28.3.8-.4-1 9.2-7 9.2-7m32.2 6.3s1.5-1.3 2.6-1S122 66 123 68s1.7 7.5-1.6 12.8-18.9 28.9-20 30.3-1.8 2.6-5 2.6l-15.1-.2-.5 9.7c-.1.7-1.4 1.3-2.3-.3S65 100.2 65 99.7 77.2 75 79 75.2c1.3.2 1.1 9.8 1.1 9.8s27.6-.5 30.3-.7 5.4-1.2 6.8-3.3 4.6-7.2 2.2-12.4c-2.1-4.6-9.4-18.9-10.5-21-.6-1.3-1.6-2.7-1.3-3.7m-49.4 69.6c-.4 1.6-1.6 1.6-3 1.7s-20.4 0-24.5-.4-8.1-3.6-9.6-7-7.6-14.2-11.8-23-5.2-11.5-5.5-13.5 2-7.1 4.3-10.8l4-6S3.7 49 3.6 48c-.2-.7 8.3-1 15.5-1.3s14.4-.4 15 .1 4.2 8.4 6.4 12.9 6.7 12.7 6.6 13.5c-.1 1.2-1.3.6-3-.1s-7.8-4-7.8-4-7 12-9.7 17.5-5.3 10.9-4.6 15.8c.4 3 4 8.3 10.7 9s21.6.3 23.3.4q2.7-.1 2.2 1.7"/><path fill="#fff" d="M15.3 56.7c-1.2-.5-3.5 1.8-6.6 8.3-2.5 5.2-2.6 7-1.4 9.4 1.2 2 3.2 5.3 4.1 5.4 1.2 0 1-6.7 2-11.6 1.3-6.9 3.5-10.9 1.9-11.5M56 6.5c-.8.8 3.3 4.3 4.7 4.4 1.8.2 22.5 0 24 0s2.4-1.1 1-2.5-3.1-2-4.3-2.2h-12c-5.8 0-12.4-.6-13.4.3m19.8 78.6c-1.3.5-7 13-7 14s3.4 6.1 4.6 6 2.6-6.3 3.1-11.8c.4-3.7.7-8.8-.7-8.2" opacity=".3"/></svg>