<svg viewBox="0 0 128 128"><path fill="#689f38" d="M116.5 4h-104a8 8 0 0 0-8 8v104a8 8 0 0 0 8 8h104a8 8 0 0 0 8-8V12a8 8 0 0 0-8-8"/><path fill="#7cb342" d="M110.2 4H12a7.6 7.6 0 0 0-7.5 7.5v97.9c0 4.1 3.3 7.5 7.4 7.5h98.2c4.1 0 7.5-3.4 7.5-7.5v-98c0-4-3.2-7.4-7.2-7.4z"/><path fill="#fff" d="M40.2 12.9c0-2.3-1.6-3-10.8-2.7-7.7.3-11.5 1.2-13.8 4s-3 8.5-3 15.3c0 4.8 0 9.3 2.5 9.3 3.4 0 3.4-8 6.2-12.3 5.4-8.7 18.9-10.6 18.9-13.6" opacity=".3"/><path fill="#fbf9f9" d="M43.3 109.5a9 9 0 0 1-8.7-6.2L19.5 57.8A9.1 9.1 0 0 1 36.8 52l9.8 29.5 47-59.6A9.1 9.1 0 1 1 108 33.3L50.4 106a9 9 0 0 1-7.1 3.5"/></svg>