<svg viewBox="0 0 128 128"><path fill="#dc0d28" d="M45.4 68.1 40 54.6l.1-21.8 22.4-3.3c7.7-1.1 23-7.5 37-1.3 16 7 24.3 23.3 20.1 48s-22.8 45-39.6 47.1c-8.3 1-9.7-2.1-16-1.7-5.2.4-5 3-13.7 2.6s-16.2-3.7-20.6-9.1 15.7-47 15.7-47"/><path fill="#ff5117" d="M21.2 37C8.7 47.5 2.7 69.6 12.8 93.2c8.9 21 23.1 27 23.1 27s25-1.6 42.3-11 34.2-25.6 34.2-47.1-11.2-28.7-12.4-29-6.2 2.8-11.8 3-10-1.2-10-1.2l-17.6 5.9L44 36.9s-.5-2.3 1.3-3.2c3.7-2 11.5 1.3 14.6 1.2s6-4.4 6-4.4-7.5-.8-10-1.4A41 41 0 0 0 21.2 37"/><path fill="#8d1d0a" d="M62 37.1c-4.5.2-16.8-4-18-.7-1.1 3.6 8 8.3 19.2 7.5 11.6-.8 18.8-7.2 17-10.6-1.9-3.5-9.4 3.4-18.2 3.8"/><path fill="#513630" d="M51 17s-1.9-.1-3-.5-2.4-.4-2.3-2.2c.2-3 4-6 5-6.5a7 7 0 0 1 5.8 0c1.5 1 .8 4.3.8 4.3s5 7.6 5.8 12.3c.6 4.3 3.3 16.7-.8 17.5-3.6.7-2-8.9-4.1-13.5a40 40 0 0 0-4.6-7.9z"/><path fill="#2f7c31" d="M105.4 5c.4-.7-.4-1.4-3.8-1.5S80 1.7 69.6 14.6C62 24 63.3 31.8 63.3 31.8l6.8.3z"/><path fill="#709f19" d="M82.9 17.8c6.2-4.3 22.6-13.6 22.6-13.6s0 2.4-1 4.4S100 20.7 86 28.1c-13.2 6.8-22 5.1-22.8 4-.7-1.3 9.5-7.3 19.7-14.3"/><path fill="#ffd2b1" d="M37.6 40c-2.7-4-9.3-2.9-15.3 5-7.6 10.2-7.2 23.8-2 24.6 5.1.8.6-4.4 8.5-14.7 6.1-7.8 12.3-10 8.8-15"/></svg>