<svg viewBox="0 0 128 128"><path fill="#757e40" d="M55.9 32.4S17.4 43.1 14.4 47.2 6.2 59 5.8 75.4c-.4 13.1 7 47 43 48 36.7 1.2 50.4-23 57-38 6-13.6 5.8-29.1 9.6-36.3s7.1-13.3 7-21.4-3.3-15-8.5-18.4-9.8-2.8-12-3.4-46 26.5-46 26.5"/><path fill="#afb42a" d="M62.6 18.9c-16 6.6-37.1 12.8-47.3 27-9.1 13-12.2 29 .2 47.7 11.3 17.1 41.5 24.5 64 8.3 20.7-14.9 22.6-36.6 28.8-51.1s19.2-33.5 3.5-42.8C95.1-2 75.2 13.7 62.6 18.9"/><path fill="#fff69d" d="M108.3 12.1c-7.6-4.3-17.3-2.4-28 2.9s-19 9.2-22.7 10.5c-3.8 1.3-35.7 13-41.9 28.5-5 12.8-3.7 29.5 9.6 41.7s47 11.4 59.9-7S98.7 55.5 101.5 49s9-16.2 10.7-21.4c2-6.2 1-12.5-4-15.4"/><path fill="#855c52" d="M71.5 47.8c-6-7.1-29-4.9-36.8 6.4s-4.6 20.4-.8 25.3C38.6 85.5 51.4 91 63 83s15-27.3 8.5-35.1"/><path fill="#d67659" d="M47.3 60.6c-3 4.4-1.5 11.4-6.5 11.7s-8.1-7.9-4.5-14.7c4-7.4 13.2-10.7 15.8-7.2s-2 6.1-4.8 10.2"/></svg>