<svg xmlns="http://www.w3.org/2000/svg" width="1em" height="1em" viewBox="0 0 128 128"><path fill="#fc873d" d="m43.96 78.53-21.42 29.41 4.7 3.93s8.22 1.64 16.04-4.74c7.83-6.38 10.25-12.85 11.02-14.59s4.24-7.97 8.7-10.44c6.72-3.72 13.4-2.92 15.62-3.41 2.22-.48 6.28-1.84 9.18-6.38s2.26-9.06 6.9-12.54 9.68-2.49 15.47-6.07c5.8-3.58 10.66-11.45 11.88-14.03 1.76-3.72 3.07-7.25 3.01-9.71-.05-1.84-.96-3.13-2.96-4.2-1.63-.87-2.58-1.24-2.58-1.24z"/><path fill="#d9411c" d="M49.96 62.1 36.62 72.15S19.82 94.1 19.58 94.76c-.23.65-.9 1.32-2.48 2.16-1.43.76-3.95 1.83-3.95 1.83s5.49 5.68 7.13 7.22c1.64 1.55 4.74 4.02 4.74 4.02s7.53.04 14.39-5.66 9.67-13.05 11.4-17.11c1.74-4.06 5.12-9.47 9.38-11.4 4.25-1.93 14.3-1.45 20.97-6.48s4.93-11.69 10.44-15.56 9.82-2.71 14.6-5.85c5.03-3.31 8.46-8.43 10.45-12.09 2.18-4 4.23-10.72 4.23-10.72s-4.06-2.37-8.89-4.3c-3.72-1.49-8.31-3-8.31-3s-7.44 10.54-9.47 12.66-15.27 6.09-15.27 6.09L65.9 54.85z"/><path fill="#b42f17" d="m13.19 92.58-6.28-1.37s-3.07-3.41-3.62-4.44c-.55-1.02-.14-2.25 1.43-2.39s6.35-.14 9.36-.48c3-.34 8.6-1.5 12.09-5.8 3.48-4.3 5.05-10.6 5.94-14.41 1.26-5.37 4.5-8.39 9.28-9.55s13.38-.93 16.52-3.39 4.12-10.55 5.2-13.9c1.43-4.44 4.44-6.9 7.65-7.1 3.93-.25 8.53 1.86 8.53 1.86l-5.52 6.54-6.55 17.41s-23.92 7.47-24.24 7.47-8.97 13.78-9.5 14.63-8.12 11.53-9.93 11.85c-1.83.33-10.36 3.07-10.36 3.07"/><path fill="#feb896" d="M95.08 16.05c-2.41-.01-3.07 3.07-3.35 4.78-.27 1.71-.41 4.51-1.91 7.1s-3.69 3.69-3.69 3.69-13.92-1.85-17.7 5.88c-4.05 8.29-1.9 13.1-6.75 16.93-7.91 6.24-14.82.68-22.12 7.24-5.54 4.97-7.51 20.55-16.59 25.61s-16.25 3.7-16.25 3.7l3.55 4.5s4.04-.95 6.65-1.32c1.19-.17 1.82-.03 2.1.05.63.2.48.76.48.76s4.5-1.54 9-5.57c4.51-4.03 9.15-13.04 10.04-15.02s2.8-5.33 3.82-4.37-2.4 13.67-8.06 21.65c-4.78 6.73-9.88 8.69-12.98 9.94-3 1.21-4.18 1.34-4.18 1.34s1.25 1.28 2.27 2.27c.74.72 2.13 1.95 2.13 1.95s6.74-1.23 15.07-9.29S48.1 74.86 53.8 67.49c4.93-6.38 11.56-6.81 14.84-8.24s5.66-3.78 6.89-8.29 2.12-12.16 8.74-13.93 14.2.41 17.07-5.87 2.9-13.11 2.9-13.11-5.8-1.99-9.16-2"/><path fill="#fc6b4a" d="M80.08 41c1.21-.5 4.84 1.67 5.37 3.59.52 1.93.52 3.02 1.51 4.06s3.44 1.79 3.49 2.92c.07 1.38-4.17 4.95-9.06 3.33-4.9-1.61-4.48-5.01-4.53-5.64s1.71-7.63 3.22-8.26m-11.93-5.37c-.14-.59-3.17-1.74-4.12.7-.98 2.52-1.16 4.25-.12 5.39.62.68 1.35.72 1.76.37s.24-1.06 1.4-3.7c.47-1.09 1.23-2.12 1.08-2.76"/><path fill="#faffff" d="M66.19 43.76s.37.3 1.52.33c1.66.05 2.46-1.5 3.77-.98 1.42.56 1.74 2.15 1.92 3.18.2 1.1.76 1.72 1.46 1.86.63.12 1.43-.26 1.43-.26s.48-1.99 1.35-4.32c.46-1.24 1.58-2.98 1.58-2.98s-.49-1-2.26-1.3c-1.56-.26-2.36.75-4-.14-1.34-.73-.9-1.66-2.14-2.68-.96-.8-1.28-.69-1.28-.69s-.95 1.04-1.87 3.28c-.83 2.06-1.48 4.7-1.48 4.7m32.25-22.19c-1.39.5-3.06 4.03-1.83 6.21s5.26 2.18 5.26 2.18.71-1.9 1.04-3.18.7-2.92.7-2.92-1.88-.88-2.55-1.4c-.65-.51-1.29-1.37-2.62-.89"/><path fill="#fc6b48" d="M103.64 23.87s1.93.94 5.64.6c2.93-.27 4.41-.28 5.22.71.81 1 .73 2.62.33 4.61-.52 2.62-1.82 3.25-3.84 2.6-2.05-.66-4.16-1.43-5.07-1.69-1.7-.47-4.02-.73-4.02-.73s.66-1.86.99-3.05.75-3.05.75-3.05"/><path fill="#fa6c43" d="M37.47 57.15c-1.03.07-3.46 2.55-3.2 4.18.2 1.25 1.6 2.04 1.94 2.18.88.36 1.85-1.5 2.4-2.06s1.78-1.35 1.71-2.06c-.1-.99-1.56-2.32-2.85-2.24"/><path fill="#fefeff" d="M37.15 64.74c-.29.59 1.27 1.99 2.27 2.51s2.9-.77 4.61.51 1.13 3.38 1.75 4.13c.62.76 1.72 1.88 3.14 2.3 1.02.3 1.31-.68 2.31-2.59 1.01-1.92 1.36-2.02 1.31-2.59-.06-.74-2.21-2.99-3.96-4.18s-4.22-2.32-4.93-3.04c-.71-.71-1.29-2.12-1.87-1.79-.41.23-1.58.92-2.63 2.04-.81.86-1.69 2.08-2 2.7"/><path fill="#fa6c43" d="M52.69 71.51c-1.12.44-2.43 3.26-2.5 4.01-.08.93 2.02 2.9 3.25 2.9s2.94-2.94 2.66-3.94c-.29-.99-2.4-3.37-3.41-2.97"/></svg>