<svg xmlns="http://www.w3.org/2000/svg" xml:space="preserve" viewBox="0 0 128 128"><path d="m44 89.9-24.5 21.8 3.4 4.4s6.9 3 15-1.1 11.5-9.3 12.5-10.7 5.2-6.2 9.6-7.5c6.6-2 12.3 0 14.4 0s5.9-.4 9.3-3.9c3.4-3.4 3.7-7.5 8.5-9.7 4.7-2.2 9-.3 14.8-2.4 5.8-2 11.6-8 13.1-10.1 2.3-2.9 4.1-5.8 4.5-8 .3-1.6-.2-2.9-1.8-4.3s-2-1.6-2-1.6L44 89.8z" style="fill:#fc873d"/><path d="m52.4 76.6-13.6 6.3S19.8 99 19.5 99.5s-1 1-2.6 1.4-3.8.9-3.8.9 3.7 6 4.9 7.7c1.1 1.7 3.4 4.4 3.4 4.4s6.6 1.5 13.7-2.2 11-9.6 13.3-12.9 6.3-7.3 10.4-8.2 12.9 1.5 19.7-1.7 6.6-9.3 12.2-11.7c5.6-2.3 9.2-.5 14-2.3 5.1-1.9 9-5.8 11.5-8.6s5.8-8.6 5.8-8.6-3.1-2.9-7-5.5-6.7-4.2-6.7-4.2-8.6 7.8-10.7 9.3C95.4 58.8 83 59.7 83 59.7L68 73.3l-15.4 3.3z" style="fill:#d9411c"/><path d="M14.3 96.4 9 94s-2-3.6-2.3-4.6.3-2 1.7-1.8 5.6 1.1 8.3 1.4 7.9.3 11.7-2.8c3.9-3.1 6.5-8.4 8-11.5s5.6-6.5 10-6.6 11.9 1.7 15.2.2c3.2-1.6 5.6-8.5 7.2-11.2s5.2-5.2 8.1-4.8c3.5.5 7.1 3.3 7.1 3.3l-6.1 4.7-9.1 14.1s-22.5 2-22.7 1.9-10.5 10.4-11.2 11-9.3 8.6-11 8.5c-1.7 0-9.7.7-9.7.7z" style="fill:#b42f17"/><path d="M100.9 44.8c-2.1-.5-3.3 2.1-3.9 3.6-.6 1.4-1.2 3.9-3 5.9s-3.9 2.5-3.9 2.5-11.9-4.3-16.7 1.8c-5.1 6.5-4.2 11.2-9.2 13.6-8.1 4-13.2-2.2-20.8 2.1-5.8 3.3-10.5 16.6-19.5 19.3s-15 .1-15 .1l2.3 4.6s3.7 0 6.1.1c1.1 0 1.6.3 1.8.4.5.3.3.8.3.8s4.2-.5 9-3.2 10.5-9.7 11.7-11.3 3.5-4.1 4.2-3.1-4.7 11.6-11.2 17.5c-5.5 5-10.3 5.8-13.3 6.3s-3.9.4-3.9.4.9 1.4 1.6 2.4c.5.8 1.5 2.1 1.5 2.1s6.2.2 15-5.3c8.9-5.5 14.5-18 20.9-23.4 5.6-4.7 11.5-3.8 14.6-4.4s5.7-2.2 7.6-6C79 67.9 81.3 61.3 87.4 61s12.4 3.1 16.1-1.9 5.1-11 5.1-11-4.8-2.8-7.7-3.5z" style="fill:#feb896"/><path d="M83 63.8c1.2-.2 3.9 2.4 4 4.2 0 1.8-.1 2.8.6 3.9s2.7 2.2 2.5 3.2-4.6 3.6-8.6 1.2-3-5.3-2.9-5.8 3-6.4 4.4-6.7m-9.5-7c0-.5-2.5-2.1-3.8-.2-1.3 2-1.8 3.5-1.1 4.7s1 .9 1.5.7.4-.9 1.9-3c.6-.9 1.5-1.6 1.5-2.2" style="fill:#fc6b4a"/><path d="M70.2 63.6s.3.3 1.3.6c1.5.4 2.4-.8 3.5-.1 1.1.8 1.1 2.2 1.1 3.2s.3 1.7.9 1.9 1.3 0 1.3 0 .8-1.7 2-3.5c.6-1 2-2.3 2-2.3s-.2-1-1.7-1.6-2.2.2-3.5-.9-.5-1.6-1.4-2.8-1-.9-1-.9-1 .7-2.3 2.5-2.2 3.8-2.2 3.8zm32.6-13.3c-1.3.2-3.5 3-2.8 5.1.7 2.2 4.2 2.9 4.2 2.9s1-1.5 1.5-2.6 1.2-2.4 1.2-2.4-1.5-1.1-2-1.7-.9-1.5-2.1-1.3" style="fill:#faffff"/><path d="M107 53.3s1.5 1.2 4.8 1.6c2.6.3 3.9.6 4.5 1.6s.1 2.4-.6 4.1c-1 2.2-2.2 2.5-3.9 1.6s-3.4-2.1-4.1-2.5c-1.4-.7-3.4-1.4-3.4-1.4l1.5-2.5c.6-1 1.2-2.5 1.2-2.5" style="fill:#fc6b48"/><path d="M42.4 69.9c-.9-.1-3.5 1.6-3.6 3.1s1 2.1 1.3 2.3c.7.5 1.9-1 2.5-1.4s1.8-.8 1.9-1.5-.9-2.3-2.1-2.5" style="fill:#fa6c43"/><path d="M40.7 76.5c-.4.5.7 2 1.5 2.6s2.7-.1 4 1.3.3 3.2.7 4 1.2 2 2.3 2.6 1.3-.3 2.5-1.8c1.3-1.5 1.6-1.5 1.6-2s-1.4-3.1-2.7-4.4c-1.3-1.4-3.3-2.9-3.8-3.6s-.7-2.1-1.3-1.9-1.6.5-2.7 1.3-1.9 1.5-2.3 2z" style="fill:#fefeff"/><path d="M53 85.4c-1.1.2-2.8 2.4-3 3.1s1.2 2.9 2.3 3.2 3.1-2 3.1-3-1.5-3.4-2.4-3.3" style="fill:#fa6c43"/><path d="M33.6 46.3 13.3 61.6l2.3 3.6s5.2 2.8 11.7.1 9.5-6.5 10.3-7.5 4.5-4.5 7.9-5.2c5.3-1.1 9.6.8 11.1.9s4.6 0 7.4-2.4c2.9-2.4 3.4-5.6 7.2-7s7 .3 11.6-.9 9.5-5.5 10.8-7c1.9-2.1 3.5-4.2 4-5.9s0-2.3-1.1-3.4-1.5-1.4-1.5-1.4L33.5 46.2z" style="fill:#fc873d"/><path d="m40.9 36.5-11 4s-15.7 11.2-16 11.6-.9.7-2.1.9-3 .4-3 .4 2.5 4.9 3.3 6.3 2.3 3.7 2.3 3.7 5 1.6 10.8-.8 9.1-6.7 11.1-9.1 5.4-5.3 8.6-5.7 9.9 2 15.3 0c5.5-2 5.7-6.8 10.2-8.3s7.1.2 11-.9 7.4-3.9 9.5-5.9 5-6.3 5-6.3-2.2-2.4-5.1-4.7-4.9-3.7-4.9-3.7-7.1 5.5-8.9 6.5-11.5 1-11.5 1L53 35l-12.1 1.6z" style="fill:#d9411c"/><path d="m10.1 49.4-3.9-2.2s-1.4-2.9-1.5-3.7.4-1.5 1.4-1.3 4.3 1.2 6.4 1.6 6.1.8 9.3-1.4 5.5-6.1 6.9-8.4c1.9-3.3 4.7-4.7 8.2-4.5s9.1 2.1 11.7 1.1 4.9-6.2 6.3-8.2c1.9-2.7 4.4-3.7 6.6-3.2s5.3 3 5.3 3l-5 3.2-7.9 10.3s-17.5.1-17.7 0-8.8 7.4-9.3 7.8-7.8 6.1-9.1 5.9-7.5 0-7.5 0z" style="fill:#b42f17"/><path d="M80.5 15c-1.6-.5-2.7 1.4-3.2 2.5s-1.2 2.9-2.7 4.4-3.2 1.7-3.2 1.7-8.9-4.1-13 .3c-4.4 4.7-3.9 8.4-8 9.9-6.6 2.6-10-2.6-16.3.3-4.7 2.2-9.2 12.2-16.3 13.7S6.2 47 6.2 47l1.5 3.7s2.9.2 4.7.5 1.2.3 1.4.5c.4.3.2.6.2.6s3.3-.1 7.2-1.9c3.8-1.8 8.8-6.9 9.8-8s3-3 3.4-2.1S30 49 24.6 53.1s-8.4 3.8-10.7 4-3.1 0-3.1 0 .6 1.1 1.1 2 1 1.7 1 1.7 4.8.6 12-3.1 12.4-13 17.7-16.8c4.6-3.3 9.1-2.2 11.6-2.5s4.6-1.4 6.3-4.1 3.9-7.7 8.7-7.5 9.4 3.2 12.6-.4 4.6-8.2 4.6-8.2-3.5-2.5-5.7-3.2z" style="fill:#feb896"/><path d="M65.4 28.6c.9 0 2.9 2.1 2.9 3.5s-.3 2.1.2 3 1.9 1.9 1.7 2.7-3.8 2.5-6.7.4-2-4.3-1.9-4.7 2.7-4.8 3.9-4.9zm-6.9-6.1c0-.4-1.8-1.8-2.9-.4s-1.6 2.6-1.2 3.6.8.8 1.1.6.4-.7 1.7-2.2 1.3-1.2 1.3-1.6" style="fill:#fc6b4a"/><path d="M55.5 27.6s.2.3 1 .5c1.1.4 1.9-.5 2.7.1s.7 1.8.6 2.5.2 1.3.6 1.5 1 .1 1 .1.7-1.2 1.8-2.6 1.7-1.7 1.7-1.7-.1-.8-1.2-1.3-1.7 0-2.6-.9-.3-1.3-.9-2.2-.7-.7-.7-.7-.8.5-1.9 1.8c-1 1.2-2 2.8-2 2.8zm26.1-8.3c-1 0-2.9 2.1-2.5 3.8s3.1 2.5 3.1 2.5.9-1.1 1.3-1.9 1.1-1.8 1.1-1.8-1.1-1-1.4-1.5-.6-1.2-1.6-1.1" style="fill:#faffff"/><path d="M84.6 21.9s1.1 1 3.6 1.6 3 .7 3.3 1.5 0 1.9-.7 3.1-1.9 1.8-3.1 1c-1.2-.9-2.5-1.8-3-2.2-1-.7-2.5-1.3-2.5-1.3s.8-1.1 1.3-1.8 1.1-1.9 1.1-1.9" style="fill:#fc6b48"/><path d="M33.6 30.7c-.7-.2-2.8 1-3 2.1s.7 1.7.9 1.9c.5.4 1.5-.6 2-.9s1.5-.5 1.6-1-.6-1.9-1.4-2.1z" style="fill:#fa6c43"/><path d="M31.8 35.7c-.3.3.4 1.6 1 2.1s2.1 0 3 1.3 0 2.5.3 3.1.8 1.6 1.6 2.2 1-.2 2.1-1.3 1.3-1.1 1.4-1.5-.9-2.5-1.8-3.6-2.3-2.4-2.7-3-.4-1.7-.9-1.6-1.2.3-2.2.8-1.6 1-1.9 1.4z" style="fill:#fefeff"/><path d="M40.9 43.4c-.8 0-2.3 1.7-2.5 2.2s.8 2.3 1.6 2.6 2.6-1.4 2.6-2.1-.9-2.7-1.7-2.7" style="fill:#fa6c43"/></svg>