<svg viewBox="0 0 128 128"><path fill="#fc873d" d="M44 78.5 22.5 108l4.7 4s8.3 1.6 16-4.8c8-6.3 10.3-12.8 11.1-14.6s4.2-8 8.7-10.4c6.7-3.7 13.4-3 15.6-3.4 2.2-.5 6.3-1.8 9.2-6.4s2.3-9 6.9-12.5 9.7-2.5 15.5-6.1a39 39 0 0 0 11.9-14 25 25 0 0 0 3-9.7q0-2.8-3-4.2-2.5-1.4-2.6-1.3z"/><path fill="#d9411c" d="m50 62.1-13.4 10s-16.8 22-17 22.7q-.4.9-2.5 2.1c-1.4.8-4 1.8-4 1.8l7.2 7.3c1.6 1.5 4.7 4 4.7 4s7.5 0 14.4-5.7 9.7-13 11.4-17 5.1-9.5 9.4-11.5c4.2-2 14.3-1.4 21-6.5S86 57.6 91.6 53.8s9.8-2.7 14.6-5.9a34 34 0 0 0 10.4-12c2.2-4 4.3-10.8 4.3-10.8s-4-2.4-9-4.3c-3.6-1.5-8.2-3-8.2-3s-7.5 10.6-9.5 12.7-15.3 6-15.3 6L66 55z"/><path fill="#b42f17" d="m13.2 92.6-6.3-1.4s-3-3.4-3.6-4.4-.2-2.3 1.4-2.4 6.4-.2 9.4-.5 8.6-1.5 12-5.8a37 37 0 0 0 6-14.4q2-8 9.3-9.6c7.3-1.6 13.4-.9 16.5-3.4s4.1-10.5 5.2-13.9c1.4-4.4 4.4-6.8 7.7-7 3.9-.3 8.5 1.8 8.5 1.8l-5.5 6.5-6.6 17.5L43 63c-.3 0-9 13.8-9.5 14.7s-8.1 11.5-10 11.8c-1.8.3-10.3 3-10.3 3"/><path fill="#feb896" d="M95 16c-2.3 0-3 3.1-3.3 4.8s-.4 4.5-1.9 7.1-3.7 3.7-3.7 3.7-13.9-1.8-17.7 5.9c-4 8.3-1.9 13.1-6.7 17-8 6.2-14.8.6-22.1 7.2C34 66.7 32 82.2 23 87.3S6.7 91 6.7 91l3.6 4.5s4-1 6.6-1.3a5 5 0 0 1 2.1 0c.7.2.5.8.5.8s4.5-1.6 9-5.6 9.2-13 10-15 2.8-5.3 3.9-4.4-2.4 13.7-8.1 21.7c-4.8 6.7-9.9 8.6-13 9.9-3 1.2-4.2 1.3-4.2 1.3l4.4 4.3s6.8-1.3 15.1-9.3 11.5-23 17.2-30.4c5-6.4 11.6-6.8 14.8-8.3s5.7-3.7 7-8.2 2-12.2 8.7-14 14.2.4 17-5.8 3-13.2 3-13.2-5.9-2-9.2-2"/><path fill="#fc6b4a" d="M80 41c1.3-.5 5 1.7 5.4 3.6.6 2 .6 3 1.6 4s3.4 1.8 3.5 3c0 1.4-4.2 5-9.1 3.3-5-1.6-4.5-5-4.5-5.6s1.7-7.7 3.2-8.3m-12-5.4c0-.6-3.1-1.7-4 .7q-1.6 3.8-.2 5.4 1 1 1.8.4c.8-.6.2-1 1.4-3.7.4-1.1 1.2-2.1 1-2.8"/><path fill="#faffff" d="M66.2 43.8s.4.3 1.5.3c1.7 0 2.5-1.5 3.8-1 1.4.6 1.7 2.2 1.9 3.2q.4 1.6 1.5 1.9c.6 0 1.4-.3 1.4-.3s.5-2 1.3-4.3c.5-1.3 1.6-3 1.6-3s-.5-1-2.2-1.3c-1.6-.3-2.4.7-4-.1-1.4-.8-1-1.7-2.2-2.7-1-.8-1.3-.7-1.3-.7s-1 1-1.8 3.3a29 29 0 0 0-1.5 4.7m32.2-22.2c-1.4.5-3 4-1.8 6.2S102 30 102 30l1-3.2.7-3s-1.9-.8-2.5-1.3-1.3-1.4-2.7-1"/><path fill="#fc6b48" d="M103.6 23.9s2 1 5.7.6c3-.3 4.4-.3 5.2.7q1 1.6.3 4.6-.8 3.7-3.8 2.6l-5-1.7-4.1-.7 1-3z"/><path fill="#fa6c43" d="M37.5 57.2c-1 0-3.5 2.5-3.2 4.1.2 1.3 1.6 2 2 2.2.8.4 1.8-1.5 2.3-2s1.8-1.4 1.7-2.1c0-1-1.5-2.3-2.8-2.3"/><path fill="#fefeff" d="M37.2 64.7c-.3.6 1.2 2 2.2 2.5s3-.7 4.6.6 1.2 3.3 1.8 4a6 6 0 0 0 3.1 2.4c1 .3 1.3-.7 2.3-2.6s1.4-2 1.3-2.6-2.2-3-4-4.2-4.1-2.3-4.8-3-1.3-2.1-2-1.8c-.3.2-1.5 1-2.5 2s-1.7 2.1-2 2.7"/><path fill="#fa6c43" d="M52.7 71.5c-1.1.5-2.4 3.3-2.5 4 0 1 2 3 3.2 3s3-3 2.7-4-2.4-3.4-3.4-3"/></svg>