<svg viewBox="0 0 128 128"><path fill="#f1b34f" d="M94.2 68.6s27.8-5.5 29.2 5c.7 6.2-1.2 17.6-11.7 27-8.7 7.7-23.2 14.2-47.2 13.8-19.6-.4-32.9-5-41.9-10.3C7.5 95.4 4.5 83.7 5.3 76.3c1.1-10.6 18.1-15.5 18.9-16z"/><path fill="#fadfb1" d="M7.3 79.1s16 26.6 57.8 26.8c45.2.1 59-26.9 58.3-32.3C121.9 63 97.8 61 97.8 61L40.4 74.5 7.4 71z"/><path fill="#fff" d="M7.5 69.5s-2.6 3-2.1 9c.4 5.3 5.3 13.1 14 16 7.7 2.4 13.3-.5 21.2 2.1S56 107 66 106.4s15.5-7.9 22.8-9c11-1.5 16.3 1.4 24.6-6.8 9.1-9 9.2-17.4 9.1-19.5 0-4.2-3-6.5-3-6.5L18.6 68.3z"/><radialGradient id="a" cx="64.2" cy="44.1" r="65.6" gradientTransform="matrix(1 -.00654 .00426 .652 -.186 15.766)" gradientUnits="userSpaceOnUse"><stop offset=".2" stop-color="#f1b14a"/><stop offset=".2" stop-color="#f1b049"/><stop offset=".4" stop-color="#e89825"/><stop offset=".5" stop-color="#e28810"/><stop offset=".6" stop-color="#e08308"/><stop offset=".7" stop-color="#e1860d"/><stop offset=".8" stop-color="#e5901b"/><stop offset=".9" stop-color="#eba031"/><stop offset=".9" stop-color="#f1b14a"/></radialGradient><path fill="url(#a)" d="M64.6 13.5c-39.6 0-59.5 20.7-61 44.4a23 23 0 0 0 8.8 20.7c11.2 9.9 31.8 16 53 16.3 22.8.3 40-5.5 53.2-23 4.4-5.6 4.8-8.8 5-15.2.6-19.8-17.3-43.2-59-43.2"/><path fill="#fcde8c" d="M44.3 50c-.4-1 3-2.2 4.8-3.5 1.9-1.4 2.2-3 3-3.1s3.6.8 11.4 1c6.9 0 11.2-1.8 11.8-1.3l3.4 4c1.6 1.6 3.5 2.7 3.6 3.3s-4.3 1.5-5 1.7-25.8.1-25.8.1l-2.7-.8c-1.2-.3-4-.5-4.5-1.4"/><path fill="#fff" d="M63.8 56c4.4 0 6.8-1.4 9.8-2.4l5.6-2s-4.6-4.7-14.7-4.7-14.6 4.8-14.6 4.8 8.7 4.2 13.9 4.2"/><path fill="#f5e5c7" d="M37.4 29c-1.2.3-1.2 2-1.6 3.8-.7 3.5.9 6.3 4 5.4 3.6-1 2.8-4.5.7-6.9-1.3-1.3-1.9-2.6-3.1-2.3M54 26.6c-.3.8-3.2 1.4-6 1-2.1-.2-4-2.3-2.8-4.6 1.2-2.4 4-2.7 6-.8q3.1 3 2.8 4.4m6.1-1.6c-.7-.1-2.9 1.8-3.4 3.9-.5 2.4 1 3.4 2.4 3.5 1.6.2 2.8-1 2.9-2.7 0-1.6-1.2-4.5-1.9-4.7M25.7 50c.4 1.2 2.2.9 4 1 3.5 0 6-2 4.6-5-1.7-3.3-5-1.9-6.9.6-1 1.4-2.2 2.3-1.7 3.5m-12.3-.2c-1.2 0-1.7 1.7-2.5 3.3-1.6 3-.8 6.2 2.5 6.2 3.7 0 3.8-3.6 2.4-6.4-.8-1.6-1.1-3-2.4-3.1m90.7-2.5c1.2-.1 1.4-2 2-3.6 1-3.4-.3-6.3-3.5-5.7-3.7.6-3.2 4.2-1.3 6.7 1 1.4 1.6 2.8 2.8 2.6M38.4 65.7c-.6-.4-2.5.1-4.1.8-3.3 1.3-4.7 4.2-2.3 6.3 2.8 2.4 5.3-.2 6-3.2.5-1.8 1-3.4.4-4m-5.8-3.3c.3-.5-.5-2-1.2-3.2-1-1.5-1.9-2.9-3.3-3.3-4.4-1.2-6 4.4-3 6.2q1.5.9 3.5.8c1.9 0 3.7 0 4-.5M22.5 46c-.2 1.2-5.1 2.1-7.7.6-3-1.9-1.4-6.1 2.2-5.8 3.1.3 5.7 4 5.5 5.2m2.5-6c1.2.3 4.6-2.2 5.6-4 .7-1.4 1.3-4.8-1-5.8-2.7-1.2-4.9.5-5.6 2.7-.8 2.8 0 6.8 1 7m20 13.9c.2.8-1.4 5.6-5.4 5.8-2.7 0-5-3.5-1.6-5.9 2.5-1.8 7-.6 7 0m3.4 7.6c-.7-.6-4.8 2.3-6 4.4-.7 1.3-1.2 3.6 1.8 5 2.8 1.2 4.4-1 4.8-2.8s0-6-.6-6.6m4 14.3c1 1.9 6.2 1 7.4.7 1.8-.5 4.3-2.2 2.7-5.6-1.3-2.8-4.7-2.2-6.8-.4-1.8 1.5-3.9 4-3.2 5.3M69 69c-1 .8-.2 5.6.4 7a3.5 3.5 0 0 0 5.2 1.2c2-1.5 1.7-4.1.4-5.5-1-1-5-3.5-6-2.7m7.6-3c-.4.4-3.8.7-6.3-1.5-1.5-1.2-1.4-4 0-5.1 1.6-1.2 3.8-.8 5.2 1.2.8 1.2 1.6 5 1.1 5.5m5.3-1.7c.7.6 5.1-.2 6.8-2.1 1-1 2.2-3.3.4-5s-3.8-1.3-5.6 1c-1.3 1.6-2.3 5.4-1.6 6m17.2-13.2c-.4 1.3-5.4 1.9-7.3 1-2-1-1.7-3.3-1.3-4.3s1.4-2.1 4-1.4c2.8.8 4.8 3.8 4.6 4.7m-7 15.4c-1-.3-1.7 1.2-2.5 1.9-.9.8-4.6 5.2.2 6.3s3.5-4.2 3.3-5.3c-.1-.7-.2-2.7-1-3m5.2-2.8c-.4 1.2 1.8 3.5 3 4.8s3.4 2.5 4.8-.1-.8-4.2-2.7-4.7-4.7-1-5.1 0m17.3-9.2c0 .7-2.7 2.9-5.8 3-2.2 0-3.9-.8-3.9-3s2-3.5 4.6-3c1.4.4 5 1.8 5 3m-5.2-6.6c.3 1 3 1.2 4.9 1.3 2 0 4.3-.7 3.4-3.3s-3.6-2-4.5-1.5c-1 .5-4 2.3-3.8 3.5M101 30c-.8 1.2.7 3.6 2.1 4.7s3.4 1.8 4.5-.1-.9-3.6-2-4.4c-1.3-.7-3.8-1.3-4.6-.2m-4.5 2.3c-.6-.4-3.4.3-5 1.8s-2.3 3.7-.3 5.3 4.1 0 5-2c.8-1.9.9-4.8.3-5.1m-22-1.3c.6-.8-.4-4.8-1.6-6.3s-2.9-2.1-4.6-.8c-1.4 1-2 3.8 0 5.2 2.2 1.6 5.7 2.7 6.3 1.9m1.5-6.2c.7.5 3.1.1 4.8-1s2-2.8 1-4c-1.2-1.4-3.1-.9-4.5.9-1.1 1.5-2.1 3.4-1.3 4m4 5.9c.6 1.4 6 1.1 7.6.4 1.5-.6 2.6-2 1.8-4.2-1-2.3-2.6-2.3-3.7-2-2.3.7-6.2 4.4-5.7 5.8"/></svg>