<svg viewBox="0 0 128 128"><path fill="#ff8e00" d="M119.2 95.1c-1.1 2.4-5.9 2.2-8.5 1.4-6.7-2.1-11-7.9-11-7.9L65.2 73.9l-10.6-5.6s-2-3.5 2-6.1 7.1-3 7.1-3l12 7.7s7.7-6 15.5-7c7.5-.8 16.8 5.3 19.2 16.8 2 9.3 5.2 12.6 6.1 13.8 1 1.2 3.8 2.6 2.8 4.6"/><path fill="#ffe4b4" d="M77.7 32.2C74.7 22 70.7 10 65 6c-5.2-3.6-10.2-3-12.6-1.3 0 0-4.4 1.7-5.5 6.2-1.9 7.3.6 16.1 2.2 25.2s2.5 15.4 3.2 22.7A636 636 0 0 0 64.4 81l9.7 5.2s7.4-16 7.3-18.2a263 263 0 0 0-3.6-35.8"/><path fill="#ffe265" d="M52.6 67c-.2 2.4 5.7 21.7 5.7 21.7L74 86.1s11.2-6.6 11.5-18.5c.4-18-2.6-26.6-4.9-34-3-10.1-10-23.5-15.7-27.6A13 13 0 0 0 56 3.5s10.3 8 15.6 21.9S78 55.2 78 55.2s-3.8 2.8-12.9 4c-7 1.1-13-.6-13-.6s.5 5.3.4 8.3"/><path fill="#ffa726" d="M85.3 83.8 79 70.6l.4-4.7s1.3-3.9-7 2.5c-4 2.9-6.3 8.3-6.3 8.3s-1.1-3-5.3-6.8c-3.7-3.4-8.6-5-8.6-5s-10.3-2-11.4-1.2c-7.3 5.7-12.6 12.6-12.6 12.6L23 96.4l-8.9 5.4s2.5 3.6 6 2.3c2.7-1 6-4.2 7.9-8 2.5-5.4 7.7-15.5 10.4-18.7 5.2-6.2 10.2-8.4 14-6.6 4.3 2 .9 22.3.9 22.3l-27.6 23.2-.5 3.1s4 3.9 15 3.5 25.9-4.4 35.3-17.2c8.2-11.2 10-22 10-22"/><path fill="#ffb803" d="M63.6 85c.2 5.5-3.2 14-11.2 21s-16.5 9.3-21.7 9.7c-3.8.2-5-2-5-2s7.7-7 13.4-12.6c5.4-5.4 11.3-16.7 12.6-21.9s0-8.6 0-8.6 2.6.7 6.2 4.3q5.5 5.4 5.7 10"/><path fill="#875b54" d="M29.5 118.7c-.9 2-3.7 2-5 1-1.1-1-2.3-3-1.1-5.3.8-1.5 3.3-1.9 4.8-.7s2 3.3 1.3 5"/><path fill="#fee4b4" d="M23.8 97.8c-3.3 4.6-6.6 5.3-8 5.4-1.2.2-2.5-1.3-2.3-2.7s2.4-3.4 2.7-7.7 0-20 8.7-29.1c6.2-6.4 13.7-4.2 18.6-2.5 5.5 1.9 8.7 3.7 8.7 3.7s-4.5-.4-12.3 5.8a35 35 0 0 0-9.6 14c-1.8 4-4.2 10-6.5 13.1"/><path fill="#feb804" d="M111 109.6a6 6 0 0 1-5.2 2.9c-4.2-.2-8-2.4-12.3-7.9-6-7.7-11.2-26.3-15.1-31.3-2.7-3.3-6-5-6-5s1.9-1.6 3.7-2.5 6.2-.5 6.2-.5L101 95.5z"/><path fill="#ffe4b4" d="M100.4 68.5c4.1 5.8 4.6 11 5.3 16.3.5 4.8 1.7 14.8 3.4 18 1.8 3.3 3.4 5.5 1.6 7.5s-7.4 1.2-11.4-3c-3.1-3.5-4.9-7.3-7.3-12.9S86.1 75.8 81.5 70c-2.9-3.8-5.8-4-5.8-4s3.9-3 11.2-3.1c6.6-.1 10 .8 13.5 5.7"/></svg>