<svg viewBox="0 0 128 128"><path fill="#871e0c" d="M57 30.3 3.7 48.4s.4 3.6 2 6.6a19 19 0 0 0 13.1 10c11 2.5 24-1.4 36.5-9.9s19.4-22.4 16.9-33.3C69.9 11.7 63.5 9 58.9 8.6c-1.8-.2-4.9 0-6.2.4-2.1.7 4.3 21.3 4.3 21.3"/><path fill="#a62714" d="M33 23.2c-7.4 5.3-20.7 3.7-27.4 15.5a14.2 14.2 0 0 0 11.8 21.7c10 0 23-4.6 32.8-11 10.2-6.8 24-28.1 13-37C50.6 2.3 42.5 16.3 33 23.2"/><path fill="#fbcb89" d="M41.5 20.6c-1.2-.3-2.2 2.4-7.3 5.8-6.9 4.5-11.1 3.7-10.6 6 .4 1.9 4.3 3 9.6 1.3 9-2.9 11-12.6 8.3-13.1"/><path fill="#d16250" d="M46.6 20c-2.3-1.3-1-4.3 1.7-6.7 3-2.7 6.5-2.4 7.3-1 1 1.6-1.6 3.7-3 5-1.9 1.7-3.3 4.1-6 2.7M17 36c-1.9-2.4-5.4-.2-7.5 2.6-2.4 3.2-3.7 11-.4 11.4 2.5.3 2.5-4.4 4.2-6.5s5.6-5.1 3.7-7.6"/><path fill="#871e0c" d="M86.5 35s2-6 4.8-5.8c2.9.3 5.7.7 9.4 5.7 4.2 5.7 5.7 13.8 8.8 17.7C118 63 123 64 124.2 74.7c1.2 10.2-6 23.4-21 20.6-18-3.3-25.8-25.2-25.8-25.2z"/><path fill="#a62714" d="M77 34.6c-4.6 5.5-4.6 14.4-4 19.5s4.6 21.4 11.4 28.6 16.9 11.4 24 9 11-8 9.6-16.5c-.7-4.7-3.6-8.7-7.8-11.7s-11.5-11-11.5-11-2-10.8-2.4-14.5-.4-7.4-3.5-8.5A17 17 0 0 0 77 34.6"/><path fill="#d16250" d="M85.8 35c-1.5-1.4-3.4-.3-4.2 1-.6 1.1-1 2.6.2 3.5 1.5 1.1 2.7.3 3.8-1 1-1 1.2-2.5.2-3.4m-7 7.7c-1.4.2-3 2.4-2.1 11A49 49 0 0 0 86 76.5c3.5 4.8 7 4 7 3.5 0-1.5-2.2-3.6-4.9-8.9a61 61 0 0 1-6.9-20.3c-.5-6.2-.3-8.5-2.3-8.1"/><path fill="#fbcb89" d="M96 43.5c-.9.6-2 5.6 3.1 14 6 9.7 11 8 11.5 7s-3.5-4.4-5.3-6.9C102 53.3 101 51.1 99 47c-1-1.7-2.3-4.2-3.1-3.5"/><path fill="#871e0c" d="M50.4 95.6 14.4 85l-.5 2.8a26 26 0 0 0 3 14.9q4 6.7 12.7 10.5 5.1 2.4 14.4 4.3c18.2 3.8 40.3-1.3 42.5-18.5 1-7-3-12.4-6.6-15-5-4-10.5-3.3-10.5-3.3z"/><path fill="#a62714" d="M56 80.8c-11.8 0-17-7.6-27.3-7-7 .5-11.3 4.5-13 7.9s-3.4 9.2.7 13.8c4.5 5 11.4 12.4 33 16 21.7 3.8 32.5-9.4 33.4-16.9S79.5 81.9 73.3 81s-15-.2-17.3-.2"/><path fill="#fbcb89" d="M42.4 81.4c-1 1.2 2.1 7.5 10 8s11-4.7 10-5.3c-.5-.4-6.8-.2-9.8-.5-5.2-.5-9.5-2.8-10.2-2.2"/><path fill="#d16250" d="M34.9 80.7c-1.1 3.6-7.5.6-11.4 3-4.1 2.6-5.5 7.4-6.4 7.4-1.5 0-1.6-8.4 5.8-12.6 5.6-3 12.7-.4 12 2.2"/></svg>