<svg xmlns="http://www.w3.org/2000/svg" width="1em" height="1em" viewBox="0 0 128 128"><path fill="#fea8a6" d="M121.03 21.75 4.47 62.94s-.43 9.23.57 16.89 2.41 11.78 2.41 11.78 3.83 17.46 26.12 26.12 45.1-1.17 51.96-4.97c8.24-4.56 19-15.08 23.26-20.33s12.52-17.14 13.51-24.81 2.03-19.79 1.99-27.46c-.07-11.36-3.26-18.41-3.26-18.41"/><path fill="#fed5b6" d="M64.09 29.72c-6.67 1.56-27.97 3.97-33.08 5.39s-12.15 4.18-14.35 5.92c-3.6 2.85-12.25 17.36-12.2 21.91.08 7.91 3.02 17.68 5.58 20.04 1.86 1.72 16.29 22.54 35.88 22.68s62.75-29.39 64.59-31.94c1.85-2.56 8.25-14.8 10.03-22.53 1.57-6.83 3.56-21.51.19-30.42-2.59-6.86-8.71-13.19-12.88-14.02-8.25-1.63-12.95-.03-14.23.4s-3.47 13.74-8.94 15.76c-8.09 2.98-20.59 6.81-20.59 6.81"/><path fill="#dc0d28" d="M89.19 22.6c5.82-3.44 6.43-15.97 6.43-15.97s-4.46.29-9.43 4.32-10.71 11.22-13.54 13.28-8.56 5.49-8.56 5.49 16.13-1.83 25.1-7.12m6.77 14.65c3.07 9.44 14.22 12.42 17.39 11.57 3.17-.86 5.14-7.8 4.88-17.91s-5.4-15.77-10.2-15.42c-4.11.29-9.86 4.31-12 10.45a17.9 17.9 0 0 0-.07 11.31m-18.77-2.31c1.33 1.33-2.31 5.23-.26 11.31 2.06 6.08 5.48 7.8 5.23 9.6s-14.48 19.79-24.5 23.56-37.83 2.51-42.93-11.65c-3.86-10.71 4.29-19.95 6.43-21.68 3.25-2.63 6.47-4.64 11.4-5.57 1.88-.35 15.94-2.48 24.25-3.34 8.3-.86 18.84-3.77 20.38-2.23"/><path fill="#ff5f5d" d="M53.54 42.22c.7 3.25-8.83 6.43-16.19 11.82-5.45 3.99-9.6 11.31-14.31 8.4s1.93-14.16 4.46-16.11c2.99-2.31 25.27-7.71 26.04-4.11m25.94-19.44c.72 1.6 6-2.31 8.57-4.46 2.08-1.73 4.6-3.3 3.26-5.4-1.54-2.4-4.28-.34-6.94 2.48-1.74 1.85-5.67 5.67-4.89 7.38"/><path fill="#dc0d28" d="M40.09 89.69c3.98 1.26 2.59 15.21 5.57 15.08 3.45-.14.93-11.84 4.1-14.66 3.17-2.83 7.16-2.37 12.9-5.2s12.05-8.15 16.5-13.38c4.46-5.23 9.43-11.14 11.74-12.94s14.4-5.4 18.59-2.48c4.2 2.91 2.66 15.25 2.66 15.25s-8.18 14.66-24.63 24.39-25.81 13.59-45.83 11.3S9.66 82.58 9.66 82.58s7.72 3.29 16.45 4.72 10.02 1.14 13.98 2.39"/><path fill="#fff" d="M87.58 29.47c-4.94 3-9.34 8.6-7.1 16.11s13.86 12.07 21.51 4.75c6.78-6.48 5.18-14.04 2.07-17.71-3.09-3.66-10.04-7.06-16.48-3.15"/><path fill="#ffa8a7" d="M97.94 32.83c-5.24-2.66-10.61.38-12.28 3.79-1.66 3.41-1.45 8.2 2.51 11.04 4.24 3.05 10.75 1.52 13.02-3.15s.91-9.57-3.25-11.68"/></svg>