<svg viewBox="0 0 128 128"><path fill="#fea8a6" d="M121 21.8 4.5 62.9S4 72.2 5 80s2.4 11.7 2.4 11.7 3.9 17.5 26.2 26.1 45-1.1 52-5c8.2-4.5 19-15 23.2-20.3s12.5-17.1 13.5-24.8 2-19.8 2-27.4c0-11.4-3.3-18.4-3.3-18.4"/><path fill="#fed5b6" d="M64 29.7c-6.6 1.6-27.9 4-33 5.4s-12.1 4.2-14.3 6A53 53 0 0 0 4.5 62.8c0 8 3 17.7 5.5 20 1.9 1.8 16.3 22.6 36 22.8s62.7-29.4 64.5-32a92 92 0 0 0 10-22.5c1.6-6.8 3.6-21.5.2-30.4-2.6-6.9-8.7-13.2-12.8-14-8.3-1.7-13 0-14.3.3s-3.4 14-9 16c-8 3-20.5 6.8-20.5 6.8"/><path fill="#dc0d28" d="M89.2 22.6c5.8-3.4 6.4-16 6.4-16s-4.4.3-9.4 4.4-10.7 11.2-13.6 13.2-8.5 5.5-8.5 5.5 16.1-1.8 25-7.1M96 37.2c3 9.5 14.2 12.5 17.3 11.6 3.2-.8 5.2-7.8 5-17.9s-5.5-15.8-10.3-15.4c-4 .3-9.8 4.3-12 10.4a18 18 0 0 0 0 11.4m-18.8-2.4c1.3 1.4-2.3 5.3-.3 11.4 2 6 5.5 7.8 5.3 9.6S67.7 75.6 57.7 79.4s-37.9 2.5-43-11.6C11 57 19 47.8 21.2 46a24 24 0 0 1 11.4-5.6c1.8-.3 15.9-2.5 24.2-3.3 8.3-.9 18.8-3.8 20.4-2.3"/><path fill="#ff5f5d" d="M53.5 42.2c.7 3.3-8.8 6.4-16.2 11.8-5.4 4-9.6 11.4-14.3 8.4s2-14.1 4.5-16c3-2.4 25.3-7.8 26-4.2m26-19.4c.7 1.6 6-2.3 8.5-4.5 2.1-1.7 4.6-3.3 3.3-5.4-1.5-2.4-4.3-.3-7 2.5-1.7 1.8-5.6 5.7-4.8 7.4"/><path fill="#dc0d28" d="M40 89.7c4 1.2 2.7 15.2 5.7 15 3.4 0 .9-11.8 4-14.6 3.2-2.8 7.2-2.4 13-5.2s12-8.1 16.5-13.4c4.4-5.2 9.4-11.1 11.7-13s14.4-5.3 18.6-2.4c4.2 3 2.6 15.3 2.6 15.3S104 86 87.5 95.8 61.7 109.3 41.7 107s-32-24.5-32-24.5 7.7 3.3 16.4 4.7 10 1.1 14 2.4"/><path fill="#fff" d="M87.6 29.5c-5 3-9.4 8.6-7.1 16s13.8 12.1 21.5 4.8c6.8-6.4 5.2-14 2-17.7-3-3.6-10-7-16.4-3.1"/><path fill="#ffa8a7" d="M98 32.8a9.3 9.3 0 0 0-12.3 3.8c-1.7 3.4-1.5 8.2 2.5 11 4.2 3.1 10.7 1.6 13-3s.9-9.7-3.3-11.8"/></svg>