<svg xmlns="http://www.w3.org/2000/svg" width="1em" height="1em" viewBox="0 0 128 128"><path fill="#7CB342" d="M41.94 35.98s-8.71-2.65-15.91 5.41c-8.37 9.38-4.22 23.7-.42 34.32s5.54 14.43 7.44 23.44c1.43 6.74 3.02 18.74 15.09 22.64c8.44 2.72 17.13-3.43 17.13-3.43s3.57 3.99 11.45 4.94c8.53 1.02 17.58-1.63 20.73-9.07c1.65-3.89 3.25-16.36 4.38-24.29c1.48-10.4 6.77-21.69 8.09-30.64c1.12-7.64-.76-25.31-24.47-25.78c-8.29-.16-17.61 3.13-17.61 3.13s-7.3-3.83-12.87-4.45c-10.72-1.2-13.03 3.78-13.03 3.78"/><path fill="#558B2F" d="M96.97 35.57c-3.06-1.34-6.72-2.58-13.27-2.99c-9.28-.58-15.85 4.06-15.85 4.06s-7.3-3.83-12.87-4.45c-10.73-1.2-14.03 3.57-14.03 3.57s1.75.3 4.57 1.34c2.29.84 1.44 2.88-.45 3.07c-3.71.37-6.74 2.81-7.11 4.13c0 0 5.93-2.55 12.11-.6c8.22 2.6 10.44 8.7 10.44 8.7s4.63-5.4 15.63-7.9c10.46-2.38 17.98 2.13 17.98 2.13c-.61-2.64-2.12-3.96-3.47-5.22c-2.43-2.27-1.63-4.26.85-4.96c2.06-.58 5.47-.88 5.47-.88"/><path fill="#E0E080" d="M40.44 11.17c.09 4.78 3.73 7 5.4 7.1c3.38.19 5.89-3.91 12.19 2.14c2.56 2.46 3.56 5.96 3.48 9.44c-.03 1.15.25 5.45-1.77 6.41c-.63.3-1.05.53-3.01-.22c-2.19-.84-4.14 1.24-4.14 1.24l3.76 4.29l9.31 3.02L75 42.73l5.4-4.75s-2.51-1.95-4.69-1.17c-1.18.42-3.46-.27-3.47-1.65c-.04-2.91.08-5.68-.46-8.58c-.9-4.79-2.94-9.37-6.21-13.01c-4.69-5.22-11.4-7.93-18.21-9.03c-5.59-.89-7.01 1.91-6.92 6.63"/><path fill="#C4C451" d="M62.27 10.55C57.98 7.27 52.7 5.4 47.35 4.54c-1.8-.29-3.16-.19-4.18.22c2.08.05 6.11 1.07 12.62 5.56c4.1 2.82 12.2 12.95 5.46 23.42c-.18.87-.5 1.66-1.04 2.16c1.67-.75 4.93-3.32 5.67-10.16c.78-7.24-.94-12.02-3.61-15.19"/><path fill="#33691E" d="M57.63 76.34c-.08 3.79.53 12.25 2.89 24.3c2.01 10.26-.03 17.71-2.7 21.04c4.32-1.17 7.44-3.31 7.44-3.31s1.11-4.12 1.18-8.33c.09-5.06-2.02-15.22-4.49-23.28c-1.74-5.66-2.26-14.2-2.34-19c0-.01-1.84 1.73-1.98 8.58" opacity=".6"/><path fill="#BBE68B" d="M51.85 63.26c-1.06.12-2.02-.55-2.82-1.2c-2.92-2.39-4.58-4.39-7.86-6.38c-2.54-1.54-7.55-2.58-5.87-6.51c.81-1.89 3.92-2.13 6.03-1.77c7.35 1.24 10.62 5.56 12.17 10.96c.27.94.63 1.89.42 2.86c-.2.96-.98 1.89-2.02 2.04zm23-10.67c4.84-2.88 11.98-2.82 17.96.24c1.48.76 2.9 1.75 3.76 3.18c.65 1.08.82 2.7-.21 3.43c-.86.6-2.04.24-3.04-.08c-6-1.9-12.79-1.18-18.25 1.95c-2.06 1.18-6.48 5.55-7.78 2.49c-1.29-3.09 1.54-7.63 7.56-11.21" opacity=".75"/></svg>