<svg viewBox="0 0 128 128"><path fill="#7cb342" d="M42 36s-8.8-2.7-16 5.4c-8.3 9.4-4.2 23.7-.4 34.3s5.5 14.4 7.4 23.5c1.5 6.7 3 18.7 15.1 22.6 8.5 2.7 17.2-3.4 17.2-3.4s3.5 4 11.4 4.9c8.5 1 17.6-1.6 20.7-9 1.7-4 3.3-16.4 4.4-24.4 1.5-10.4 6.8-21.7 8.1-30.6 1.1-7.6-.7-25.3-24.5-25.8a59 59 0 0 0-17.6 3.1s-7.3-3.8-12.8-4.4C44.3 31 42 36 42 36"/><path fill="#558b2f" d="M97 35.6a36 36 0 0 0-13.3-3c-9.3-.6-15.8 4-15.8 4s-7.3-3.8-13-4.4c-10.6-1.2-14 3.6-14 3.6s1.8.3 4.6 1.3c2.3.8 1.5 2.9-.4 3-3.7.4-6.8 2.9-7.1 4.2 0 0 5.9-2.5 12-.6a16 16 0 0 1 10.5 8.7s4.6-5.4 15.6-7.9a26 26 0 0 1 18 2.1c-.6-2.6-2.1-4-3.4-5.2-2.5-2.3-1.7-4.2.8-5 2-.5 5.5-.8 5.5-.8"/><path fill="#e0e080" d="M40.4 11.2c.1 4.8 3.8 7 5.4 7 3.4.3 6-3.8 12.2 2.2 2.6 2.5 3.6 6 3.5 9.5 0 1.1.3 5.4-1.8 6.4-.6.3-1 .5-3-.3-2.2-.8-4.1 1.3-4.1 1.3l3.7 4.3 9.4 3 9.3-1.9 5.4-4.7s-2.5-2-4.7-1.2c-1.2.4-3.4-.3-3.5-1.6q.2-4.4-.4-8.6-1.5-7.4-6.2-13c-4.7-5.3-11.4-8-18.2-9-5.6-1-7 1.8-7 6.6"/><path fill="#c4c451" d="M62.3 10.6a33 33 0 0 0-15-6 8 8 0 0 0-4.1.2c2 0 6 1 12.6 5.5 4 2.8 12.2 13 5.5 23.4a4 4 0 0 1-1 2.2c1.6-.7 4.8-3.3 5.6-10.2.8-7.2-1-12-3.6-15.1"/><path fill="#33691e" d="M57.6 76.3c0 3.8.6 12.3 3 24.3 2 10.3-.1 17.8-2.8 21 4.3-1 7.5-3.2 7.5-3.2s1-4.2 1.1-8.4c.1-5-2-15.2-4.4-23.2a79 79 0 0 1-2.4-19s-1.8 1.7-2 8.5" opacity=".6"/><path fill="#bbe68b" d="M51.9 63.3q-1.6-.1-2.9-1.2c-2.9-2.4-4.5-4.4-7.8-6.4-2.6-1.6-7.6-2.6-5.9-6.5.8-2 4-2.2 6-1.8a14 14 0 0 1 12.2 11q.6 1.3.4 2.8c-.2 1-1 2-2 2zm23-10.7c4.8-2.9 12-2.8 18 .2a9 9 0 0 1 3.7 3.2c.6 1 .8 2.7-.2 3.4s-2 .3-3 0c-6-2-12.9-1.2-18.3 2-2 1-6.5 5.5-7.8 2.4-1.3-3 1.5-7.6 7.6-11.2" opacity=".8"/></svg>