<svg viewBox="0 0 128 128"><path fill="#64696c" d="m19 88.5-13.5-7-1.7 5.2s.2 9.2 1 15.7c.4 3.8 1 10 1.3 10.8.6 1.4 2 1.3 3.4 1.5s109.1-.4 110.3-.4 2.1-1.8 2.4-3.2 2.2-20.5 2.2-21.6l-.3-7.1-6 4.5z"/><path fill="#505152" d="M10.7 14.7c-3.2 0-4 1.7-4.4 4.8s-2.6 65.2-2.5 67S5 91 9 91l111.3-.7c2.3 0 4.1-1.1 4-4.6s-3.5-66.4-3.8-69-1.5-3-3.9-3.1-103.7 1-106 1"/><path fill="#a94230" d="M51.8 19.3s-34.4.5-36.1.4-3.5.8-3.6 4l-1.4 58c0 1.6-.2 4.4 3.7 4.4l38.3-.2zm4.7 36.9 27.8-.4.6 29.8-28.5.2zm32.1-.2 27.6-.3 1 26.2L96 85.7h-6.7zm0-4.8-.4-32.5 24-.4c1 0 3.2-.1 3.3 2.5l.6 30zM56.2 28.3h28V46h-28z"/><path fill="#fefffe" d="M23.4 23.8c-2.3 0-8-2.2-9.8 3-1.5 4.2.1 7.1.9 10s.5 7.1-.2 9.7c-.5 1.9-1.5 5-1.4 7.7.2 4.2 1.5 6.2 1.9 8s.4 4-.4 6.6-.8 8.8-.3 11 1.7 4 6.6 4.1 21.8 0 24.4-.3 5.6-1 5.9-8c.4-9.8-2.3-11-1.8-14.7s2.2-6 2.3-10S49 45 49.2 40s2.7-9.3 1.6-13.4-4.4-4-6.1-4-3.2.6-5.2.6c-3.8 0-3.4-1-7.3-1.1-3.8-.2-4.2 1.4-8.8 1.6"/><path fill="#ec5f32" d="M32.6 47c-4.6.1-6.4 6-6 7.8.5 2.6 2.2 2.6 6.3 2.7 4 0 5.5-.6 5.7-3 .2-2.3-1.2-7.6-6-7.5"/><path fill="#f8d4b5" d="m89 51.2 26.6-.4s.7-.7.6-1.5c0-1.7-1.5-1.3-1.4-2.7s1.8-1.4 1.8-3.7-2-1.8-2-3.7c0-1.7 1.9-1.2 1.6-3.8-.3-2.8-1.2-2.1-1.2-3.8 0-2.4 1.6-2.2 1.5-4s-1.7-1.7-1.7-3.2 3.1-2.6 1.1-4.9-3.8.6-4.9.5c-1.4 0-.9-2.1-3.4-2.2-3-.1-2.9 2.7-4.7 2.6-2 0-1.8-2.4-4.3-2.3-3 0-2.9 2.2-4.4 2.2-1.4 0-3.8-2.4-5.5-.5-1.7 2 .6 3.5.6 5s-2.1 2.1-2 3.8c.4 2.8 2.8 1.4 2.8 3.4 0 1.8-2.2 2-2 4.3 0 2.5 1.9 2 1.9 4 0 1.6-2 1.1-2 3.9.2 2.2 1.6 2.2 1.6 3.5 0 1.5-.7 1.6-.6 3.5"/><path fill="#88b050" d="M56.3 25s-.2-11 .1-10.8c.7.2 5.2 4.8 5.2 4.8s3.7-4.8 4.2-4.8 3.9 4.7 3.9 4.7 4-4.7 4.5-4.7 4.1 4.6 4.1 4.6 5.8-4.8 6.1-4.8 0 11.6 0 11.6l-14.1 1.2z"/><path fill="#4d3730" d="M104.5 21.8c-7.4.2-9.1 6.6-9 9.4s2.7 9.3 8.3 9.2c5.8 0 9.9-3 9.9-9.6 0-6-4.5-9.1-9.2-9"/><path fill="#ec5f32" d="M92.6 44.2s-.6-5.1-.8-8.3l-.3-7.4 6-.3 5.4 12.7-2.1 3.4s-7.7.2-8.2-.1"/><path fill="#fffefe" d="M93.4 47.6c.1.8 5.3 3.4 5.3 3.4h12.1l.4-7.8c0-1.8.6-4.7-1.3-4.7-2-.1-9.6.1-10 .1-.6 0-6.6 8.3-6.5 9"/><path fill="#a12422" d="m60.2 28.3-4 1v2.2l1.6.6-.8.4-.7.7v8l1.1.6 1 .3-1.3.8-.8.5V51h28.1v-7s-.2-.6-.8-1.2l-1.2-.9 1.2-.6.8-.7v-7.2s-.3-.6-1-1l-1-.4c-.2 0 1-.7 1.4-1l.6-.8v-2z"/><path fill="#dd733f" d="M56.3 29.3V25s1.4-2.3 13.5-2.2 13.6 1.5 14 2q.8.7.6.8v2.7s-2.2 2-5.8 2.1-12.9.7-17.5.3c-3-.3-4.8-1.4-4.8-1.4m0 6.2V39s1.7 1.5 4.4 1.6 13.8.5 17.8.1 5.9-2.4 5.9-2.4V36s-2.5-3.2-7.9-3.2l-15.3.2c-3.7.1-5 2.4-5 2.4m0 10.4s2.4-3 7.2-3 13-.1 16.4.3 4.6 2.2 4.6 2.2V50H56.3z"/><path fill="#a12422" d="M68.4 22c-1.7 0-2.8.8-4.3 2.4-1.3 1.3-2.9 4.8-1.8 5 .8.2 1.9-2 4-4 1.5-1.4 4.8-3.3 2.1-3.4m8.9.4q-1.5-.3-3.8 2.3c-2.3 2.6-2.6 4.5-1.8 4.7s2.4-2.2 4-3.8c1.6-1.7 4.2-3 1.6-3.2m-14 17.5c.5.1 2-3 3.1-4.4s2.9-2.5 2.6-2.9-1.5-.8-2.8 0a8 8 0 0 0-3 4c-.5 1.2-.7 3.1 0 3.3m11.9-7c-.6.4-1.6 1.7-2.2 3.1s-.7 3.5 0 3.6 1.5-2.5 2.8-4 2.8-2.3 2.8-2.8-1.6-1.4-3.4 0m-8.4 8.5q-2.1 1-3.2 3.7c-.9 1.7-.8 4.2-.2 4.2.8 0 1.2-2.3 2.4-4.2 1-1.5 3.4-2.9 3.1-3.4s-1.4-.5-2-.3m6.3 3.8c-.7 1.2-1.3 4-.4 4 .5.1 1.8-2.9 2.8-4 1.3-1.7 2.5-2.7 2.6-3 0-.2 0-.9-1.2-.8s-1.4.6-2.1 1.3q-1 .9-1.7 2.5"/><path fill="#f7cf92" d="M73.7 50c-5 0-10.2 2.8-10.2 8.4s3.8 8.2 9.7 8.3c7.1.2 10.1-4.6 10-8.8S78.5 50 73.7 50m-2.4 9.4c-.7.9-6.2-.6-4.3-3.2 1.8-2.6 4.8 2.4 4.3 3.2m2.6-1.6c-1.2 0-3.3-5-.1-5.2 3.2 0 1.2 5.2.1 5.2m3.7 2.3c-.8-.5.5-5.6 2.9-4 2.2 1.5-1.6 4.8-3 4"/><path fill="#737f3f" d="M56.4 83.6s.2.7.7 1.2l1.2 1H68s1.3-.5 2.3-2.8c.7-1.6.4-15.6.4-17.3s-1.2-7.5-7.3-7.5-7 5-7 5z"/><path fill="#e3dda6" d="M56.4 68 70 80.6c1 .8 1.2.2 1.2-.4s-.4-1-.8-1.5l-14-13z"/><path fill="#e3dda6" d="m62 58.2.7 27.6h1.5L63.8 58h-.9z"/><path fill="#e3dda6" d="M70 62 56.3 81v2.6L70.6 64l-.3-.8q-.2-.8-.4-1"/><path fill="#e3dda6" d="M63.1 73.7 61 74s-2.6 1.3-3 1.1-.7-1-.7-1.5 0-1.3.5-1.4l4.7-.2 2-.7s2.5-1.7 3.1-1.4.8 1.1.8 1.5c0 .5 0 1.4-.2 1.8-.3.3-3.6.1-3.6.1z"/><path fill="#eab554" d="m84.5 66 .1 6.3s-1.7 5.3-8.3 4.6c-6.5-.6-6.7-6.2-6.5-8.7.3-3 2.6-6.5 7.8-6.4s7 4.2 7 4.2"/><path fill="#e38130" d="M75.4 72.4s.8-4 5-3 2.8 5.1 2.8 5.1 3.2-.2 3.5 3.6c.3 4-3.3 4.2-3.3 4.2s.2.7 0 1.7-.9 1.5-.9 1.5l-6 .1-.4-.4-.1-.7s-2.9 2.7-5.6-.1.5-5.8.5-5.8-3.3-2.6-.6-5.8c2.3-2.7 5-.4 5-.4"/><path fill="#f2c548" d="m94.3 70.5-3.3-1-2.1-1-.2-6.5s.4-3.2 2.6-4 6.8-1 11-1.1 9 0 11.6 1c1.7.7 2.4 2.2 2.4 2.2l.3 7s-1.8 2.4-4.4 3.2-18 .2-18 .2"/><path fill="#f2ab47" d="M88.9 66.9s1.3 2 3 2.4 3.3.3 3.3.3-3-.9-3.7-3.4c-.6-2.2-.4-5.4 2.1-6.3s8.3-1 11.2-.9 6.8 0 8 1.3 1.5 4-1 6c-2.4 1.8-11.6 1.8-14.1.9-1.5-.5-3.2-2.2-1.6-4.4 1.4-1.9 10.6-1 11.4-.7s1.1 1.3 0 1.4-8.7-.3-9.9.2.1 1.8.7 2c1.2.6 4.2.6 7.2.3s6.2-.8 6.3-3c.1-2.1-2.3-2.5-7.7-2.5s-8.2 0-9.7 1c-.8.4-1.8 2.1-1.2 4 .7 2 4.2 3.7 5.5 3.8s10.7.1 13-.3c3.7-.8 4.9-3.9 4.9-3.9v3s0 2.7-2.8 3.8-21.2.7-22.1.4q-1.4-.6-2.1-1.3c-.5-.5-.7-1.3-.7-1.3z"/><path fill="#f2c548" d="m113.8 84.2-21.2.4-3.4-1.7L89 75s.3-1.9 2.1-2.5 4.7-.7 11.2-.8 8.5 0 11 .8 3.6 2.9 3.6 2.9l.3 6.5z"/><path fill="#f2ab47" d="M117.2 80.5V83c0 .5-.5 2.7-2.2 2.9-1.6.1-22.8-.2-22.8-.2s-1.4.2-2.3-.6q-.9-1-.7-1.2V82s.8 1 1.4 1.3q1.4.4 1.6.3c.2 0-1.4-1-1.1-3.8.3-3.7 2.5-5.2 5.8-5.5 3-.2 10.8 0 12.8.1 2.6.1 3.8 2.3 3.6 4.2s-1.3 3-4.3 3.3-10.4.2-11.6.2-2.4-.8-2.3-2.6c0-1.6 1.5-1.8 2.9-1.8h9.4c.8.1 1.1 1.4-.3 1.4h-9.9c-.9 0-1 1.4 0 1.5l12.3-.3c.8-.1 2.3-.5 2.3-2 0-1.9-2.7-2.3-4.5-2.4H97c-1 0-4 .7-4.4 4.2-.2 2.4 1.4 3.5 1.4 3.5s17.9 0 19-.2 2-.4 2.6-.8 1.6-2 1.6-2"/></svg>