<svg xmlns="http://www.w3.org/2000/svg" width="1em" height="1em" viewBox="0 0 128 128"><path fill="#64696C" d="m18.99 88.5l-13.46-7l-1.74 5.18s.2 9.21.98 15.72c.46 3.82 1.02 10.09 1.31 10.8c.58 1.42 1.94 1.33 3.39 1.46s109.13-.4 110.32-.4c1.19 0 2.11-1.72 2.38-3.17s2.25-20.48 2.25-21.54c0-1.06-.3-7.16-.3-7.16l-6.04 4.52z"/><path fill="#505152" d="M10.67 14.65c-3.17 0-3.96 1.72-4.36 4.89S3.67 84.67 3.8 86.52c.13 1.85 1.19 4.49 5.15 4.49s109.13-.66 111.38-.66s4.1-1.19 3.96-4.62s-3.44-66.46-3.83-69.1s-1.45-2.91-3.83-3.04c-2.42-.13-103.71 1.06-105.96 1.06"/><path fill="#A94230" d="M51.76 19.27s-34.35.53-36.07.4s-3.44.79-3.57 3.96c-.13 3.17-1.45 56.55-1.45 58.13s-.13 4.36 3.7 4.36s38.31-.26 38.31-.26zm4.77 36.88l27.75-.37l.65 29.78l-28.58.28zm32.08-.18l27.57-.28l1.01 26.19l-21.2 3.78h-6.73zm-.09-4.8l-.37-32.45s23.05-.46 24.06-.46s3.23-.09 3.32 2.58s.54 29.99.54 29.99zM56.25 28.31h28.12v17.61H56.25z"/><path fill="#FEFFFE" d="M23.41 23.77c-2.3.1-7.94-2.19-9.81 3.08c-1.46 4.13.12 7.08.86 10.03c.74 2.95.5 7.06-.15 9.62c-.49 1.89-1.5 4.99-1.39 7.67c.17 4.2 1.49 6.24 1.86 7.99c.37 1.75.41 4.06-.38 6.62c-.81 2.6-.83 8.85-.28 11.06s1.66 3.96 6.55 4.06s21.85-.09 24.43-.28s5.61-1.11 5.9-8.02c.42-9.82-2.3-11.06-1.75-14.66c.55-3.6 2.12-5.99 2.21-10.05s-2.4-5.81-2.21-10.79s2.67-9.31 1.57-13.37s-4.37-4.09-6.12-4.09s-3.22.64-5.16.66c-3.85.03-3.46-.98-7.35-1.14c-3.8-.14-4.15 1.41-8.78 1.61"/><path fill="#EC5F32" d="M32.62 47.05c-4.65.09-6.38 5.88-6.03 7.72c.51 2.66 2.24 2.63 6.31 2.72c4.07.1 5.47-.61 5.67-3.01c.21-2.27-1.2-7.53-5.95-7.43"/><path fill="#F8D4B5" d="m89 51.16l26.6-.32s.67-.72.63-1.49c-.09-1.76-1.54-1.36-1.4-2.76c.14-1.4 1.76-1.36 1.76-3.66c0-2.31-1.94-1.85-1.99-3.71c-.05-1.67 1.85-1.22 1.58-3.8c-.29-2.79-1.19-2.12-1.22-3.8c-.05-2.4 1.63-2.21 1.54-4.11s-1.72-1.63-1.72-3.12c0-1.49 3.15-2.54 1.13-4.88c-1.99-2.31-3.8.59-4.88.54c-1.41-.06-.9-2.17-3.44-2.26c-2.94-.1-2.89 2.7-4.66 2.62c-2.12-.09-1.81-2.4-4.38-2.35c-2.89.05-2.84 2.21-4.34 2.26c-1.4.05-3.77-2.46-5.47-.54c-1.72 1.94.55 3.57.55 4.97s-2.09 2.2-1.91 3.85c.32 2.8 2.76 1.4 2.76 3.44c0 1.72-2.21 1.99-2.12 4.29c.09 2.44 1.94 1.99 1.94 4.02c0 1.58-2.01 1.08-1.9 3.84c.09 2.17 1.54 2.17 1.58 3.53c.05 1.45-.78 1.59-.64 3.44"/><path fill="#88B050" d="M56.3 25.05s-.16-10.97.14-10.88c.64.19 5.2 4.79 5.2 4.79s3.66-4.75 4.14-4.75s3.9 4.64 3.9 4.64s4.08-4.68 4.51-4.68s4.14 4.64 4.14 4.64S84.13 14 84.42 14c.29 0-.03 11.62-.03 11.62l-14.13 1.22z"/><path fill="#4D3730" d="M104.52 21.82c-7.37.21-9.14 6.62-9.01 9.42c.14 2.8 2.73 9.21 8.33 9.14c5.81-.07 9.83-3.05 9.83-9.55c0-6.01-4.44-9.15-9.15-9.01"/><path fill="#EC5F32" d="M92.58 44.2s-.61-5.12-.82-8.33c-.2-3.21-.27-7.37-.27-7.37l6.01-.34l5.39 12.69l-2.12 3.41c0 .01-7.65.21-8.19-.06"/><path fill="#FFFEFE" d="M93.4 47.61c.14.75 5.25 3.44 5.25 3.44l12.19-.14s.37-5.96.37-7.73c0-1.77.61-4.64-1.36-4.71c-1.98-.07-9.55.14-10.03.14c-.49-.01-6.56 8.25-6.42 9"/><path fill="#A12422" d="m60.24 28.29l-3.96 1.05l-.02 2.19l1.55.58s-.28.12-.84.44c-.56.33-.71.66-.71.66l.01 7.97s.81.45 1.14.61c.39.18.98.35.98.35s-.9.5-1.33.75c-.41.24-.8.49-.8.49l.03 7.62l28.12-.01l-.04-6.87s-.16-.64-.78-1.18c-.34-.3-1.22-.93-1.22-.93s.81-.35 1.22-.64c.41-.29.8-.69.8-.69l-.04-7.19s-.2-.56-.87-.98c-.46-.29-1.04-.46-1.04-.46s.98-.7 1.33-1.04c.35-.35.61-.74.61-.74l.01-1.97z"/><path fill="#DD733F" d="m56.29 29.34l.02-4.3s1.39-2.3 13.49-2.24c12.11.06 13.63 1.49 14.07 1.91c.5.48.52.87.52.87l-.03 2.72s-2.12 2.09-5.77 2.15c-3.65.06-12.86.7-17.49.23c-3.07-.31-4.81-1.34-4.81-1.34m-.05 6.15v3.48s1.8 1.56 4.46 1.68c2.66.12 13.84.46 17.84.06s5.81-2.43 5.81-2.43v-2.19s-2.45-3.2-7.84-3.14c-5.39.06-12.63.09-15.29.17c-3.7.11-4.98 2.37-4.98 2.37m.01 10.43s2.3-3.02 7.11-3.02s13.03-.12 16.39.35c3.36.46 4.62 2.15 4.62 2.15l.02 4.57l-28.1.08z"/><path fill="#A12422" d="M68.42 22.02c-1.67-.04-2.82.8-4.32 2.35c-1.33 1.36-2.88 4.79-1.78 5.04c.83.19 1.86-2.06 3.94-3.94c1.59-1.44 4.85-3.39 2.16-3.45m8.88.38c-1.06-.1-2.27.49-3.82 2.31c-1.55 1.82-2.61 4.47-1.74 4.66s2.37-2.12 3.9-3.75c1.62-1.73 4.22-2.99 1.66-3.22M63.28 39.89c.55.14 1.97-3.03 3.14-4.39c1.17-1.36 2.84-2.54 2.54-2.88c-.3-.34-1.44-.8-2.8.04c-1.36.83-2.58 2.54-3.03 3.86c-.46 1.33-.61 3.18.15 3.37m11.81-7.08c-.61.48-1.55 1.78-2.2 3.22s-.64 3.52.04 3.6s1.51-2.54 2.76-3.98s2.8-2.31 2.84-2.88c.05-.56-1.66-1.36-3.44.04m-8.37 8.49c-1.57.55-2.42 2.01-3.26 3.71c-.82 1.68-.76 4.2-.19 4.2c.87 0 1.25-2.35 2.46-4.2c1-1.52 3.41-2.88 3.07-3.37s-1.44-.57-2.08-.34m6.36 3.8c-.65 1.25-1.25 3.94-.42 4.05c.57.08 1.88-2.94 2.84-4.13c1.29-1.59 2.5-2.58 2.58-2.84c.08-.27.04-.95-1.17-.91c-1.21.04-1.46.66-2.12 1.29c-.61.57-1.18 1.52-1.71 2.54"/><path fill="#F7CF92" d="M73.65 50.03c-5.02-.07-10.15 2.75-10.15 8.32c0 5.78 3.75 8.25 9.73 8.39c7.08.17 10.08-4.64 10.01-8.87c-.07-4.23-4.73-7.77-9.59-7.84m-2.39 9.35c-.67.89-6.15-.61-4.31-3.22c1.84-2.6 4.87 2.48 4.31 3.22m2.65-1.55c-1.22.03-3.3-5.08-.11-5.19c3.23-.1 1.18 5.17.11 5.19m3.67 2.24c-.83-.49.54-5.61 2.9-3.96c2.18 1.52-1.6 4.74-2.9 3.96"/><path fill="#737F3F" d="M56.37 83.63s.27.64.75 1.13c.46.46 1.17 1.07 1.17 1.07l9.72-.05s1.27-.46 2.24-2.75c.7-1.66.46-15.62.46-17.3c0-1.68-1.22-7.53-7.28-7.53s-6.97 4.99-6.97 4.99z"/><path fill="#E3DDA6" d="M56.44 68.04s12.88 12.14 13.51 12.6c.97.71 1.22.15 1.27-.46c.05-.61-.41-1.02-.81-1.48c-.41-.46-13.96-12.98-13.96-12.98z"/><path fill="#E3DDA6" d="m61.95 58.2l.72 27.57h1.58l-.56-27.67s-.49-.06-.85-.04c-.35.02-.89.14-.89.14"/><path fill="#E3DDA6" d="M69.93 62.01L56.38 80.95l-.01 2.68L70.58 63.9s-.11-.45-.24-.82c-.12-.37-.41-1.07-.41-1.07"/><path fill="#E3DDA6" d="m63.1 73.65l-2.15.44s-2.56 1.33-2.97 1.13c-.41-.2-.72-1.09-.72-1.54s-.03-1.3.58-1.4c.61-.1 4.64-.14 4.64-.14l2.08-.72s2.46-1.67 3.07-1.4c.61.27.72 1.09.75 1.5c.03.44.1 1.43-.2 1.78c-.31.34-3.59.14-3.59.14z"/><path fill="#EAB554" d="m84.52 66.04l.1 6.22s-1.74 5.36-8.27 4.68c-6.52-.68-6.72-6.28-6.52-8.78c.24-2.97 2.53-6.46 7.79-6.39c5.19.06 6.9 4.27 6.9 4.27"/><path fill="#E38130" d="M75.37 72.42s.81-3.97 5.05-3.04c4.2.92 2.83 5.12 2.83 5.12s3.18-.24 3.45 3.59c.29 4-3.35 4.2-3.35 4.2s.24.68 0 1.71c-.24 1.02-.82 1.54-.82 1.54l-6.08.1s-.24-.24-.31-.48s-.14-.61-.14-.61s-2.87 2.63-5.64-.17c-2.77-2.8.55-5.81.55-5.81s-3.35-2.56-.65-5.77c2.32-2.74 5.11-.38 5.11-.38"/><path fill="#F2C548" d="m94.28 70.54l-3.28-1l-2.1-1.08l-.16-6.43s.37-3.25 2.58-4.11c2.21-.86 6.74-.95 10.95-1.02c4.21-.07 9.01-.05 11.61 1.01c1.67.68 2.46 2.21 2.46 2.21l.25 6.99s-1.78 2.42-4.42 3.14c-2.64.72-17.89.29-17.89.29"/><path fill="#F2AB47" d="M88.87 66.86s1.35 2.09 3.1 2.48c1.75.39 3.26.29 3.26.29s-3.11-.9-3.75-3.41c-.55-2.19-.34-5.45 2.14-6.37c2.48-.92 8.32-.88 11.14-.83c2.82.05 6.81-.05 8.03 1.26s1.51 4.09-.92 5.93c-2.43 1.85-11.67 1.85-14.2.97c-1.51-.52-3.21-2.21-1.61-4.38c1.4-1.9 10.65-.92 11.48-.73c.83.19 1.07 1.31-.05 1.41c-1.12.1-8.68-.29-9.85.24s.08 1.76.66 2.03c1.15.53 4.18.6 7.2.3c3.02-.29 6.23-.88 6.32-3.02c.1-2.14-2.33-2.48-7.73-2.53c-5.4-.05-8.19.09-9.67.92c-.82.46-1.81 2.2-1.18 4.09c.63 1.9 4.18 3.7 5.45 3.75s10.75.18 13.09-.29c3.64-.74 4.77-3.83 4.77-3.83l.11 3.05s.03 2.63-2.84 3.7s-21.22.73-22.13.44c-1.07-.34-1.61-.88-2.09-1.36c-.49-.49-.68-1.31-.68-1.31z"/><path fill="#F2C548" d="m113.81 84.18l-21.21.44l-3.4-1.7l-.18-7.9s.3-1.9 2.12-2.56c1.75-.63 4.67-.63 11.14-.78c6.47-.15 8.51.1 10.99.83c2.48.73 3.65 2.89 3.65 2.89l.27 6.48z"/><path fill="#F2AB47" d="M117.15 80.52s.04 1.77.09 2.34c.04.57-.53 2.74-2.21 2.91c-1.68.18-22.86-.13-22.86-.13s-1.36.11-2.26-.63c-.71-.57-.69-1.21-.69-1.21l-.04-1.85s.84 1.05 1.44 1.35c.79.4 1.55.31 1.55.31s-1.37-1.02-1.1-3.8c.35-3.71 2.56-5.25 5.78-5.47c3.06-.21 10.86.02 12.85.09c2.6.09 3.75 2.25 3.62 4.15c-.13 1.9-1.37 2.96-4.33 3.31c-2.96.35-10.37.22-11.57.18c-1.19-.04-2.44-.75-2.34-2.56c.09-1.63 1.5-1.77 2.87-1.81s8.74.04 9.49.09c.75.04 1.1 1.28-.35 1.32c-1.46.04-9.4.07-9.89.04c-.88-.04-.93 1.32.04 1.41c.62.06 11.48-.13 12.23-.26s2.33-.53 2.3-2.03c-.04-1.85-2.65-2.3-4.5-2.34c-1.85-.04-9.27-.18-10.24-.09c-.97.09-4.11.79-4.41 4.28c-.21 2.38 1.37 3.44 1.37 3.44s17.88 0 19.03-.13c1.15-.13 1.99-.4 2.56-.88s1.57-2.03 1.57-2.03"/></svg>