<svg xmlns="http://www.w3.org/2000/svg" width="1em" height="1em" viewBox="0 0 128 128"><path fill="#C3FECE" d="M56.39 48.74L26.22 33.8s-.07-1.43 1.28-2.15c1.36-.72 22.74-9.48 24.46-9.48s11.79 1.94 19.12 3.57c7.33 1.63 26.7 5.79 26.79 7.06c.09 1.27-19.82 21.63-19.82 21.63z"/><path fill="#FFF" d="M83.91 39.42s-12.65-3.72-24.96-6.61c-5.73-1.35-22.57-4.88-22.57-4.88s1.79-.78 3.14-1.35c1.37-.57 2.46-.87 2.46-.87s10.98 2.19 19.14 3.93c11.04 2.35 26.49 6.96 26.85 7.69c.37.72-4.06 2.09-4.06 2.09"/><path fill="#ACB1B2" d="M59.41 35.92c-2.69 1.87-.05 3 4.91 4.16c5.43 1.27 9.57 3.14 13.06 1.11c3.15-1.82-4.56-3.8-8.1-4.56c-2.7-.58-7.79-2.15-9.87-.71"/><path fill="#FFD816" d="M69.27 39.68c-.02 0 .09-21.91.09-22.72s-.91-1.54.09-3.26c1-1.72 3.62-1.54 3.62-1.54S83.94 9 88.28 7.91s13.94-3.62 13.94-3.62l.64 5.49s-10.06 2.84-15.04 4.11c-4.98 1.27-11.77 3.35-11.77 3.35l-1 .91l.29 21.41s-.93 1.04-3.01 1.04c-2.02-.01-3.06-.92-3.06-.92"/><path fill="#FEB804" d="M100.43 7.1c.08 1.71.99 2.77 2.07 2.77c1.08 0 1.82-1.38 1.66-3.18c-.17-1.79-1.33-2.61-2.32-2.28c-.99.33-1.47 1.44-1.41 2.69M75.07 18.65c-.19 0-.38-.05-.55-.17l-5.19-3.46a1.01 1.01 0 0 1-.28-1.39a1 1 0 0 1 1.39-.28l5.19 3.46c.46.31.58.93.28 1.39c-.2.29-.52.45-.84.45"/><path fill="#FEB804" d="M75.87 17.81c-.3 0-.6-.14-.8-.4c-1.33-1.77-2.85-3.78-3.12-4.09c-.34-.33-.41-.87-.14-1.28a1 1 0 0 1 1.39-.28c.18.12.28.19 3.47 4.44c.33.44.03 1.07-.41 1.4c-.18.14-.18.21-.39.21"/><path fill="#FEB804" d="M74.65 19.49c-.05 0-.1 0-.16-.01l-5-.79a.996.996 0 1 1 .31-1.97l5 .79c.54.09 1.01.19.92.74c-.07.48-.58 1.24-1.07 1.24"/><path fill="#79DD8A" d="M26.18 33.69c1.59 0 14.35 3.35 20.93 4.56s26.45 5.91 27.12 6.04s.54 8.73.54 8.73s9.4 48.6 9.13 50.89c-.27 2.28-6.44 19.87-6.44 19.87s-3.63.54-12.89-2.15s-33.7-9.4-35.18-11.28s-.54-26.72-1.34-42.02c-.82-15.31-1.87-34.64-1.87-34.64"/><path fill="#02AB46" d="M100.27 111.42c.51-1.69-2.33-19.81-2.73-36.46c-.4-16.64 1.03-41.96.34-42.16c-.69-.19-23.65 11.49-23.65 11.49s-.1 16.52.18 32.1c.36 20.16 1.97 46.85 3.04 47.39c1.07.54 10.36-4.66 13.16-6.18c4.96-2.69 9.26-4.83 9.66-6.18"/><path fill="#DBDFE1" d="m83.84 51.94l.05-12.54L88 37.38l.12 13.75l-1.9 3.33z"/><path fill="#FEFEFD" d="M47.45 56.34c-8.88-.95-15.03 6.97-14.55 17.29c.57 12.19 8.6 21.17 17.29 22.96s17.11-1.98 17.29-15.31c.2-13.89-12.01-24.09-20.03-24.94"/><path fill="#EF5B44" d="M53.37 67.47s-1.8-6.05-7.21-4.44c-5.41 1.61-8.34 13.38.84 18.68c8.82 5.09 16.94-4.25 14.1-10.3c-2.58-5.52-7.73-3.94-7.73-3.94"/><path fill="#B8CF17" d="M51.31 60.07c-.61.22-1.09 2.71-.45 5.09c.48 1.78 2.01 4.22 2.9 4.06c.71-.13 1.25-2.93.58-5.28c-.78-2.71-2.32-4.13-3.03-3.87"/><path fill="#FD8F01" d="M51.18 74.11c-2.54-.77-5.4 7.96-.26 13.4c5.67 5.99 12.29.71 12.11-.45c-.26-1.61-4.7-2.77-6.89-5.47c-2.19-2.72-3.48-7.03-4.96-7.48"/><path fill="#A281D0" d="M43.06 72.63s.51-3.82-3.03-3.61c-3.42.21-2.58 4.25-2.58 4.25s-2.85.34-2.37 3.5c.36 2.39 2.88 2.36 2.88 2.36s-2.77 1.09-1.51 4.25c1.12 2.81 3.7 1.68 3.7 1.68s-.95 2.74 1.29 4.19c1.89 1.22 3.54.19 3.54.19s-.1 2.34 2.51 2.77c3.16.52 4.53-3.33 2.28-5.11c-1.71-1.35-3.26-.3-3.26-.3s.32-.75.02-1.61c-.2-.56-.52-.77-.52-.77s2.77-.26 2.32-3.41c-.45-3.16-3.22-2.77-3.22-2.77s1.61-1.29.97-3.61c-.63-2.33-3.02-2-3.02-2"/><path fill="#2D802D" d="M86.69 55.43c-2.3 0-12.11-9.75-12.2-9.85a.999.999 0 0 1 .11-1.41c.42-.36 1.04-.31 1.41.1c.63.7 8.13 7.66 10.29 9c1.4-2.09 5.95-11.24 9.86-19.5c.24-.5.84-.71 1.33-.48c.5.24.71.83.48 1.33c-9.64 20.37-10.59 20.64-11.1 20.78c-.06.03-.12.03-.18.03"/></svg>