<svg viewBox="0 0 128 128"><path fill="#c3fece" d="M56.4 48.7 26.2 33.8s0-1.4 1.3-2.1 22.7-9.5 24.5-9.5 11.8 2 19 3.5 26.8 5.8 26.9 7.1S78 54.4 78 54.4z"/><path fill="#fff" d="M84 39.4s-12.7-3.7-25-6.6L36.3 28l3.1-1.3 2.5-.9s11 2.2 19.1 4c11 2.3 26.5 6.9 26.9 7.6.3.8-4 2.1-4 2.1"/><path fill="#acb1b2" d="M59.4 36c-2.7 1.8 0 3 5 4 5.3 1.3 9.5 3.2 13 1.2 3.1-1.8-4.6-3.8-8.1-4.6-2.7-.6-7.8-2.1-9.9-.7"/><path fill="#ffd816" d="M69.3 39.7V17c0-.7-.8-1.6.2-3.3s3.6-1.5 3.6-1.5S83.9 9 88.3 7.9l14-3.6.6 5.5-15 4c-5 1.3-11.9 3.4-11.9 3.4l-1 1 .3 21.4s-.9 1-3 1c-2 0-3-1-3-1"/><path fill="#feb804" d="M100.4 7.1q.3 2.7 2.1 2.8c1.8 0 1.8-1.4 1.7-3.2s-1.4-2.6-2.4-2.3-1.4 1.4-1.4 2.7M75.1 18.6l-.6-.1-5.2-3.5a1 1 0 0 1-.2-1.4 1 1 0 0 1 1.3-.3l5.2 3.5q.8.6.3 1.4a1 1 0 0 1-.8.4"/><path fill="#feb804" d="M75.9 17.8a1 1 0 0 1-.8-.4l-3.1-4a1 1 0 0 1-.2-1.4 1 1 0 0 1 1.4-.2c.2 0 .3.2 3.5 4.4q.3.7-.4 1.4z"/><path fill="#feb804" d="M74.7 19.5h-.2l-5-.8a1 1 0 1 1 .3-2l5 .8q.9 0 1 .7c-.1.5-.7 1.3-1.1 1.3"/><path fill="#79dd8a" d="M26.2 33.7c1.6 0 14.3 3.3 21 4.5s26.4 6 27 6 .6 8.8.6 8.8 9.4 48.6 9.1 51c-.3 2.2-6.4 19.8-6.4 19.8s-3.7.5-13-2.2-33.6-9.4-35.1-11.2-.5-26.8-1.3-42z"/><path fill="#02ab46" d="M100.3 111.4c.5-1.7-2.4-19.8-2.8-36.4-.4-16.7 1-42 .4-42.2S74.2 44.3 74.2 44.3s0 16.5.2 32c.4 20.3 2 47 3 47.5s10.4-4.7 13.2-6.2c5-2.7 9.3-4.8 9.7-6.2"/><path fill="#dbdfe1" d="M83.8 52V39.3l4.2-2 .1 13.7-1.9 3.4z"/><path fill="#fefefd" d="M47.5 56.3c-9-1-15 7-14.6 17.3.6 12.2 8.6 21.2 17.3 23s17.1-2 17.3-15.3c.2-14-12-24.1-20-25"/><path fill="#ef5b44" d="M53.4 67.5s-1.8-6-7.2-4.5-8.4 13.4.8 18.7c8.8 5.1 17-4.2 14.1-10.3-2.6-5.5-7.7-4-7.7-4"/><path fill="#b8cf17" d="M51.3 60c-.6.3-1 2.8-.4 5.2.4 1.7 2 4.2 2.9 4 .7-.1 1.2-3 .5-5.3-.7-2.7-2.3-4-3-3.8"/><path fill="#fd8f01" d="M51.2 74.1c-2.6-.8-5.4 8-.3 13.4 5.7 6 12.3.7 12.1-.4-.2-1.6-4.7-2.8-6.9-5.5s-3.4-7-5-7.5"/><path fill="#a281d0" d="M43 72.6s.6-3.8-3-3.6c-3.4.2-2.5 4.3-2.5 4.3s-2.9.3-2.4 3.5C35.4 79.2 38 79 38 79s-2.8 1.1-1.5 4.3c1 2.8 3.7 1.7 3.7 1.7s-1 2.7 1.2 4.2c2 1.2 3.6.1 3.6.1s-.1 2.4 2.5 2.8c3.2.5 4.5-3.3 2.3-5.1-1.7-1.3-3.3-.3-3.3-.3s.3-.7 0-1.6l-.5-.8s2.8-.2 2.3-3.4-3.2-2.8-3.2-2.8 1.6-1.2 1-3.6c-.6-2.3-3-2-3-2"/><path fill="#2d802d" d="M86.7 55.4c-2.3 0-12.1-9.7-12.2-9.8a1 1 0 0 1 .1-1.4 1 1 0 0 1 1.4 0c.6.8 8.1 7.7 10.3 9 1.4-2 6-11.2 9.9-19.4a1 1 0 0 1 1.3-.5q.8.4.5 1.3C88.3 55 87.4 55.3 86.9 55.4z"/></svg>