<svg viewBox="0 0 128 128"><path fill="#fbb75a" d="M19.7 84.1s-1.9 3.4-2 5.5S19 109 22 112.7s12.6 13.8 40.4 14 42.1-12.3 43.7-14.8 3.5-14.4 3.6-23.7-49.4-2.8-49.4-2.8z"/><path fill="#f2a05b" d="M61.9 106.7c24.8.7 47.7-14.5 47.7-14.5l-.7 7.6S90 114.3 62.3 113.6 18.5 99.8 18.5 99.8l-.7-6.7s22.4 13 44 13.6"/><radialGradient id="a" cx="65.3" cy="62.7" r="45.8" gradientTransform="rotate(91.119 101.513 99.639)scale(1 2.177)" gradientUnits="userSpaceOnUse"><stop offset=".4" stop-color="#feeac9"/><stop offset=".6" stop-color="#fee7c2"/><stop offset=".7" stop-color="#fedeae"/><stop offset="1" stop-color="#ffcf8d"/><stop offset="1" stop-color="#ffcb85"/></radialGradient><path fill="url(#a)" d="M65 47.5c-10.6 0-42.4 2.6-45.6 16S16.6 89.9 17 91s1.8-.8 4.8.3c3.8 1.4 3.5 11.6 10.4 13.5s7-7.6 15-7 4.2 11 14.6 11.2c10.7.1 6.7-10.5 14.2-11.4s3.5 10.6 13.8 9 9.1-16.2 14.4-17.7c4-1.2 3.6 2.7 5.5 2.5 1.6 0 1-21.5-.5-26.3S94.7 47.4 65 47.5"/><path fill="#fdffff" d="M33 77.7c-7.5-3.1-10-6.1-11.2-7.7q-1.4-1.7-2.8-.6-.9 1.4.4 2.7c.8 1 4.3 6.2 13.1 9 7.8 2.6 13 3 15 3 2.1.1 3-2.6.2-3-3.4-.4-6.6 0-14.7-3.4m22.5 4.4c-2 0-2.7 1-2.7 1.9q.1 1.5 2.5 1.7c2.4.2 2.4-1 2.4-1.7s-.4-1.9-2.2-1.9"/><path fill="#fce9ca" d="M25.1 88.8c-.8.8-.5 1.8 0 2.4.6.8 1.9 1 2.5.4s.7-1.6.2-2.2c-.6-1-1.8-1.5-2.7-.6m2.5 3.7c-1.2.7-.7 2.2 0 3.4 1.4 2.6 1.8 4.8 3.4 5.9 1.6 1 3.6.3 3.4-.8-.3-1.8-1.3-.5-2.3-2.7L30 94c-.5-1.2-1.2-2.1-2.4-1.4m28.2 7.1c-1.2.9-.5 3 1 4.7s3.6 3 6 2.4c1.7-.4 1.6-2.4.3-3s-2.6-.2-4-2c-.6-.8-1.5-3.4-3.3-2m28.2-2c-1.1 1 0 2.7.7 4s3.1 3.6 4.6 2.2c1-1-1-2.3-1.9-3.6-.6-1-1.8-3.7-3.4-2.5m-2-3.3c-.8.6-.6 1.5-.4 2 .4.6 1.6 1 2.3.3s.3-1.5 0-2-1.4-.7-1.9-.3"/><path fill="#ee5b4a" d="M86.4 39.6s-7.7 10.6-7.2 12.7c.3 1.7 2.1 3.5 6 3.8s6.3-1.6 6.8-3.3c.7-2.2-1.7-9.4-2.5-10.8-1.3-2-2.4-2.4-3.1-2.4m16 9.6L94 60.8s.2 2.6 2.7 3.7c2.6 1.1 8 1.2 9.5-1 1.7-2.6 1-7 .1-9.5-.7-2.1-2.1-5-4-4.8m-14 13.1-8.1 12.4s-.1 3 3.5 3.9c2.9.7 8.2.7 10.2-1s1.8-5 0-8.6c-1.8-4-4.6-7.6-5.7-6.7m-20 3L57.8 78.2s-.2 2.5 2.4 3.7c3.3 1.5 8.4 1.4 11 0 2.3-1.2 2.7-5 1.8-7.5-.6-2-1.6-3.7-2-4.6-.3-1-1.5-3.8-2.7-4.3M45.6 61l-9 14s.3 3.3 3.7 4c3 .5 7.9.8 9.5-1.3s1.8-7.5.2-11.3-3-5-4.4-5.4M32 47.9l-1.2-.5-8 12.7s-.2 2.2 1.6 3.4a14 14 0 0 0 10.4.2c3-1.5 2.8-6.4.7-10.7-2-4-3.5-5.1-3.5-5.1m14.7-9.4L38.9 52s.4 1.8 3 2.5c2.7.8 6.1.6 7.9-.7 1.7-1.4 2.2-4.4 1.4-7.8-.6-2.4-2.7-6.7-4.5-7.4"/><path fill="#fd6f42" d="M39 66c-1.7 3.6-4 8.9-1.3 10.7s6.6-1.1 8-6.4 1.6-7.9.3-9-4.8 0-7 4.7m-9-19c-2 .1-4.1 3-5.2 6s-2.4 6.5-2 7.6 3.7 2.6 5 .1 1-5.7 1.4-7.4c.5-3 2.8-5.4 2.8-5.4s-.8-1-2-.9m15-9c-1.4 0-2.6.6-3.8 4.4-.6 2-2.4 4.5-2.6 6.8S39 52 39 52s3.2.7 4.5-1.9c1.2-2.4.8-4.9 1.2-6 .4-1.2 2.3-5.4 2.3-5.4s-.8-.8-2-.8"/><path fill="#ff6e45" d="M86 39.5c-1.4 0-3.5 1.7-4.8 4.9-1.3 3.1-2.1 6.6-2 7.6s5.3 1 7.1-2c1.2-1.9 1.1-7 1-8.3-.1-1.2.3-2.1-1.2-2.2m15.8 9.7c-1.2.1-4 .9-6.4 6-1.5 3-2 6-.9 6.5s4 1 5.3-.7 2.8-6.2 3.1-8.4.6-3.7-1-3.5M80.5 75.5c1.5 1.5 4.6.1 5.6-1.2 1.7-2 3-6 3.1-9 0-2 .6-3.2-1.3-3.1-.6 0-2.3.4-4.3 3.3a18 18 0 0 0-3 6.5q-.8 2.9-.1 3.5M66.2 64.7c-1 0-3 .5-5 3.8S57 77.2 58 78.8s3.4 1.9 6 .9c2.4-1 4-4.6 4.2-6s1.1-7.7.3-8.3q-1-.8-2.2-.7"/><radialGradient id="b" cx="64.8" cy="26.3" r="39" gradientTransform="matrix(1 0 0 .6157 0 10.1)" gradientUnits="userSpaceOnUse"><stop offset="0" stop-color="#ffe265" stop-opacity=".7"/><stop offset=".1" stop-color="#ffe575" stop-opacity=".6"/><stop offset=".4" stop-color="#fff0b0" stop-opacity=".4"/><stop offset=".7" stop-color="#fff8db" stop-opacity=".2"/><stop offset=".9" stop-color="#fffdf5" stop-opacity=".1"/><stop offset="1" stop-color="#fff" stop-opacity="0"/></radialGradient><path fill="url(#b)" d="M104.3 26c0 14-22.3 26.3-39.6 26.3s-39.4-13-39.4-27S47 .3 64.3.3s40 11.8 40 25.7"/><path fill="#fea8a8" d="M72.8 31.1c.3-.5 7 0 7.5.2.3.1.2 25.2-.1 25.4S78.7 58 76.5 58s-3.6-.8-4-1c-.4-.3 0-25.4.3-25.9"/><path fill="#ec7fae" d="M60.7 37.3c-.3.3-.4 24.5-.2 24.7s1.7 1.5 4.4 1.4c2.8 0 4-1 4.2-1.2s.2-24.9 0-25-8-.2-8.4.1"/><path fill="#93c7ee" d="M48.9 32.1c-.4.2-.4 24.9-.2 25s2.1 1 4 1 3.8-.4 4-.6 0-25.1-.2-25.4-7.3-.2-7.6 0"/><radialGradient id="c" cx="64.9" cy="36" r="19.4" gradientUnits="userSpaceOnUse"><stop offset=".2" stop-color="#ff9616"/><stop offset=".7" stop-color="#ffd429"/></radialGradient><path fill="url(#c)" d="M65 15c.4 0 1 3.3 1.7 5.2s3.7 6.6 2.6 10.7a5 5 0 0 1-9.7-.5c-1.1-4 2.5-8.3 3.4-10.2.6-1.3 1.7-5.2 2-5.2"/><radialGradient id="d" cx="77.2" cy="30.8" r="19" gradientUnits="userSpaceOnUse"><stop offset=".2" stop-color="#ff9616"/><stop offset=".7" stop-color="#ffd429"/></radialGradient><path fill="url(#d)" d="M76.3 9.9s-1 4.7-2.3 6.7c-1.8 3-3 6.9-1.6 10 1.9 4.2 9.2 4 9.3-3 .1-3.7-1.5-5.6-2.6-7.7-.8-1.4-2.3-5.9-2.8-6"/><radialGradient id="e" cx="52.8" cy="30.8" r="18.9" gradientUnits="userSpaceOnUse"><stop offset=".2" stop-color="#ff9616"/><stop offset=".7" stop-color="#ffd429"/></radialGradient><path fill="url(#e)" d="M53 10.6s-1.9 4.8-3 6.5-3.4 6-2.2 9.2c1.5 4 8 4.5 9.3-.7.8-3.5-1-6.2-2.3-9.1-.8-1.8-1.8-5.9-1.8-5.9"/></svg>