<svg xmlns="http://www.w3.org/2000/svg" width="1em" height="1em" viewBox="0 0 128 128"><path fill="#FBB75A" d="M19.65 84.13s-1.83 3.38-1.97 5.49c-.14 2.11 1.27 19.29 4.36 23.09s12.53 13.8 40.4 14.08c27.87.28 42.09-12.39 43.64-14.92c1.55-2.53 3.52-14.36 3.66-23.65S60.33 85.4 60.33 85.4z"/><path fill="#F2A05B" d="M61.88 106.65c24.78.7 47.72-14.5 47.72-14.5l-.7 7.6s-18.86 14.5-46.6 13.8s-43.78-13.8-43.78-13.8l-.7-6.62s22.39 12.9 44.06 13.52"/><radialGradient id="notoBirthdayCake0" cx="65.314" cy="62.727" r="45.785" gradientTransform="matrix(-.0195 .9998 -2.1765 -.0425 203.115 .09)" gradientUnits="userSpaceOnUse"><stop offset=".445" stop-color="#FEEAC9"/><stop offset=".565" stop-color="#FEE7C2"/><stop offset=".741" stop-color="#FEDEAE"/><stop offset=".952" stop-color="#FFCF8D"/><stop offset="1" stop-color="#FFCB85"/></radialGradient><path fill="url(#notoBirthdayCake0)" d="M64.98 47.52c-10.56.05-42.37 2.53-45.61 16.05s-2.82 26.19-2.25 27.31c.56 1.13 1.82-.82 4.79.28c3.8 1.41 3.52 11.68 10.42 13.51s7.04-7.6 14.92-7.04c7.88.56 4.22 11.13 14.64 11.26c10.7.14 6.73-10.46 14.22-11.4c7.41-.94 3.52 10.56 13.8 9.01S99 90.32 104.26 88.77c3.99-1.17 3.65 2.75 5.54 2.58c1.55-.14.94-21.59-.47-26.37s-14.65-17.6-44.35-17.46"/><path fill="#FDFFFF" d="M32.95 77.72c-7.49-3.16-9.91-6.15-11.12-7.67c-.84-1.06-2.11-1.48-2.82-.63c-.7.84-.35 1.76.42 2.67c.77.92 4.22 6.19 13.09 9.08c7.8 2.54 12.95 2.89 14.92 2.96c2.19.08 3.1-2.67.21-3.03c-3.31-.41-6.53.07-14.7-3.38m22.5 4.39c-1.92-.05-2.63 1.03-2.63 1.88c0 1.03.89 1.6 2.44 1.69c1.55.09 2.44-.94 2.44-1.64c.01-.71-.42-1.89-2.25-1.93"/><path fill="#FCE9CA" d="M25.14 88.78c-.88.86-.51 1.86-.09 2.38c.69.85 1.93.99 2.57.49c.73-.56.64-1.6.18-2.29c-.59-.9-1.79-1.44-2.66-.58m2.46 3.7c-1.21.68-.67 2.19-.02 3.43c1.39 2.64 1.83 4.79 3.43 5.85c1.62 1.07 3.62.33 3.43-.78c-.3-1.77-1.39-.43-2.33-2.67c-.39-.93-1.19-2.42-2.12-4.43c-.54-1.18-1.17-2.09-2.39-1.4m28.18 7.13c-1.19.85-.47 3 1.03 4.69c1.5 1.69 3.61 3.05 5.91 2.44c1.78-.47 1.64-2.44.42-3s-2.67-.23-3.99-1.97c-.64-.85-1.54-3.47-3.37-2.16m28.26-1.85c-1.18.87-.07 2.68.66 3.93s3.14 3.65 4.55 2.23c1.03-1.04-.91-2.3-1.82-3.66c-.68-1.03-1.82-3.67-3.39-2.5m-2.03-3.26c-.78.57-.66 1.47-.38 1.97c.38.66 1.6.94 2.3.33c.68-.59.28-1.55-.09-2.02s-1.31-.66-1.83-.28"/><path fill="#EE5B4A" d="M86.4 39.57s-7.73 10.66-7.24 12.78c.38 1.67 2.18 3.46 6.03 3.72s6.26-1.53 6.81-3.23c.74-2.26-1.67-9.46-2.54-10.89c-1.23-2.03-2.34-2.32-3.06-2.38m15.98 9.62l-8.31 11.64s.25 2.55 2.75 3.65c2.61 1.14 7.94 1.21 9.47-1.02c1.74-2.53.99-6.88.11-9.51c-.68-2.06-2.12-4.98-4.02-4.76M88.31 62.34l-8.04 12.35s-.09 3.06 3.54 3.91c2.88.67 8.17.7 10.14-.99c1.97-1.69 1.81-5.09.11-8.66c-1.86-3.88-4.62-7.53-5.75-6.61m-20.02 3.03L57.76 78.11s-.21 2.46 2.39 3.66c3.34 1.55 8.48 1.47 11.09.07c2.29-1.23 2.64-5.13 1.81-7.57c-.68-1.99-1.62-3.68-1.97-4.6c-.35-.91-1.53-3.74-2.79-4.3m-22.67-4.3l-8.97 14.01s.28 3.27 3.7 3.94c2.95.58 7.81.92 9.5-1.2s1.76-7.5.14-11.3c-1.62-3.79-3.03-4.95-4.37-5.45M32 47.86l-1.2-.43l-8 12.64s-.23 2.23 1.63 3.42c1.76 1.13 7.36 1.69 10.38.21c3.03-1.48 2.81-6.44.7-10.7c-1.95-3.95-3.51-5.14-3.51-5.14m14.68-9.33l-7.77 13.41s.34 1.74 3.02 2.5c2.63.75 6.07.61 7.83-.75c1.77-1.36 2.24-4.35 1.43-7.82c-.55-2.37-2.68-6.66-4.51-7.34"/><path fill="#FD6F42" d="M39.01 65.96c-1.67 3.6-4.01 8.94-1.34 10.7c2.67 1.76 6.62-1.06 8.02-6.34s1.62-7.92.28-9.05c-1.33-1.11-4.78-.02-6.96 4.69m-9.06-18.94c-1.9.12-4.08 3.06-5.17 5.95s-2.36 6.48-1.9 7.64s3.59 2.57 4.93.11c1.34-2.46 1.07-5.75 1.37-7.43c.53-2.96 2.82-5.42 2.82-5.42s-.78-.93-2.05-.85m15.06-9.07c-1.36.08-2.65.65-3.81 4.45c-.63 2.08-2.41 4.49-2.58 6.76c-.17 2.28.34 2.87.34 2.87s3.26.63 4.53-1.91c1.22-2.43.84-4.91 1.25-6.06c.41-1.16 2.28-5.37 2.28-5.37s-.82-.8-2.01-.74"/><path fill="#FF6E45" d="M86.07 39.5c-1.43-.07-3.52 1.7-4.85 4.86c-1.34 3.16-2.15 6.59-2.09 7.6s5.34 1.13 7.2-1.92c1.17-1.92 1.11-7.07.98-8.31c-.12-1.25.25-2.16-1.24-2.23m15.87 9.65c-1.23.2-4.13.91-6.47 5.96c-1.46 3.15-1.9 6.18-.84 6.62s3.95.88 5.27-.77c1.32-1.65 2.78-6.14 3.11-8.38c.32-2.22.54-3.69-1.07-3.43M80.57 75.54c1.58 1.44 4.59.08 5.67-1.2c1.65-1.97 3.03-6.09 3.1-8.97c.05-2.09.53-3.27-1.3-3.17c-.63.04-2.36.35-4.36 3.31c-1.59 2.34-2.5 4.19-3.03 6.48c-.45 1.9-.54 3.13-.08 3.55M66.21 64.66c-1.02-.04-2.96.56-4.96 3.87c-2.01 3.31-4.29 8.66-3.31 10.31c.99 1.65 3.41 1.83 5.88.81c2.46-1.02 4.15-4.58 4.29-6.02c.14-1.44 1.09-7.6.28-8.2c-.81-.59-1.3-.73-2.18-.77"/><radialGradient id="notoBirthdayCake1" cx="64.791" cy="26.285" r="39.024" gradientTransform="matrix(1 0 0 .6157 0 10.1)" gradientUnits="userSpaceOnUse"><stop offset=".034" stop-color="#FFE265" stop-opacity=".7"/><stop offset=".112" stop-color="#FFE575" stop-opacity=".643"/><stop offset=".417" stop-color="#FFF0B0" stop-opacity=".422"/><stop offset=".677" stop-color="#FFF8DB" stop-opacity=".234"/><stop offset=".88" stop-color="#FFFDF5" stop-opacity=".087"/><stop offset="1" stop-color="#FFF" stop-opacity="0"/></radialGradient><path fill="url(#notoBirthdayCake1)" d="M104.3 26.03c0 13.93-22.26 26.28-39.61 26.28s-39.42-13.1-39.42-27.03S47.03.26 64.37.26S104.3 12.1 104.3 26.03"/><path fill="#FEA8A8" d="M72.79 31.12c.35-.49 6.94.06 7.53.21c.28.07.21 25.2-.14 25.41c-.3.18-1.48 1.27-3.73 1.27s-3.52-.77-3.94-1.06c-.42-.28-.07-25.34.28-25.83"/><path fill="#EC7FAE" d="M60.69 37.32c-.27.23-.35 24.5-.14 24.71c.21.21 1.62 1.48 4.36 1.41c2.75-.07 4.01-1.06 4.22-1.27c.21-.21.14-24.85-.07-24.99c-.21-.15-7.95-.22-8.37.14"/><path fill="#93C7EE" d="M48.86 32.11c-.34.2-.35 24.85-.21 25.06c.14.21 2.18.92 4.08.92s3.73-.42 3.94-.63c.21-.21.07-25.06-.14-25.34s-7.32-.22-7.67-.01"/><radialGradient id="notoBirthdayCake2" cx="64.909" cy="35.978" r="19.428" gradientUnits="userSpaceOnUse"><stop offset=".17" stop-color="#FF9616"/><stop offset=".654" stop-color="#FFD429"/></radialGradient><path fill="url(#notoBirthdayCake2)" d="M64.98 15c.42 0 .99 3.31 1.76 5.21s3.66 6.62 2.53 10.7c-1.23 4.47-8.2 5.34-9.71-.49c-1.06-4.08 2.53-8.31 3.45-10.21c.63-1.31 1.68-5.21 1.97-5.21"/><radialGradient id="notoBirthdayCake3" cx="77.212" cy="30.827" r="19.044" gradientUnits="userSpaceOnUse"><stop offset=".17" stop-color="#FF9616"/><stop offset=".654" stop-color="#FFD429"/></radialGradient><path fill="url(#notoBirthdayCake3)" d="M76.31 9.86s-1.04 4.74-2.32 6.76c-1.83 2.89-2.99 6.84-1.55 10.07c1.83 4.08 9.16 3.87 9.29-3.1c.07-3.66-1.53-5.6-2.67-7.67c-.78-1.41-2.26-5.92-2.75-6.06"/><radialGradient id="notoBirthdayCake4" cx="52.822" cy="30.822" r="18.853" gradientUnits="userSpaceOnUse"><stop offset=".17" stop-color="#FF9616"/><stop offset=".654" stop-color="#FFD429"/></radialGradient><path fill="url(#notoBirthdayCake4)" d="M53.01 10.64s-1.9 4.72-3.1 6.48s-3.33 5.91-2.11 9.22c1.48 4.01 8.03 4.49 9.29-.77c.84-3.52-.99-6.19-2.25-9.08c-.79-1.82-1.83-5.85-1.83-5.85"/></svg>