<svg viewBox="0 0 128 128"><path fill="#3f51b5" d="M21.1 23.8c-.5.1-2-1.2-7-.8q-2.7.5-2.6.7c.1.2.2-2.7 2.5-4.5q2.4-1.7 4-1.9 1.1-.3 1-1.5c-.3-1.7-.3-4.6 1.8-6 2-1.3 4.2-.4 5.6.5q1.1.6 1.9-.5.7-1.6 2.6-3.2c2.5-2 4.9-.6 4.9-.6s-2.2 1.9-2.3 6.6c0 .5.2 1.8 0 2.3-3.4 2.3-5.5 4.1-8.8 6.5z"/><circle cx="43.8" cy="39.4" r="30.2" fill="#3f51b5"/><path fill="#303f9f" d="M61.2 14.7c1.5 3 4 5 2.2 14.8C62 37 55.8 44.9 42.9 45.8c-11 .7-18.8-5.3-21-12.6q-3.1-10.5 3.5-17.7C14.1 23 13.6 36 13.6 39.6a30.2 30.2 0 1 0 47.6-24.8"/><circle cx="90.4" cy="59.8" r="33.1" fill="#5064c9"/><path fill="#4054b0" d="M123.5 61c-5.7 14.5-18.8 26-39.2 19.7-16.7-5.2-25.4-25-20.5-40.6a33 33 0 0 0-4.8 9.5 33 33 0 1 0 64.5 11.5"/><path fill="#8092f2" d="M100.4 46.2s3.4 8 9 6c3.5-1.1 2.6-6.7 2.6-6.7s9-.4 8.6-4.4-6.1-5.4-6.1-5.4-.5-5.8-2.5-7.4c-3.4-2.5-7.6 1.5-7.6 1.5s-3.2-5.5-8-4.4c-4 .8-1.9 9.2-1.9 9.2s-5.6 0-3.3 4.6c2.6 5 9.2 7 9.2 7"/><ellipse cx="104.4" cy="39.2" fill="#2f3e82" rx="6.5" ry="7.3" transform="rotate(-63.294 104.415 39.165)"/><ellipse cx="103.9" cy="40.2" fill="#5064c9" rx="5.5" ry="6.4" transform="rotate(-55.82 103.867 40.165)"/><circle cx="38.7" cy="88.2" r="34.2" fill="#6678d9"/><path fill="#5366cf" d="M71 77c.2 1.4.7 35.4-33.8 36.4-14.1.3-23.7-9-28.1-19.6-4.6-11 .8-24 .8-24S7 74.5 6.4 77.1a34 34 0 0 0 32.3 45.3A34.2 34.2 0 0 0 71 77.1"/><path fill="#9aa7ed" d="M35.4 81.8s-4 7.9-11.4 5.7c-3.4-1-1.8-6.3-1.8-6.3s-4.7-.4-6.5-4.5c-1.5-3.6 6.7-5 6.7-5s-3.2-6 .2-8.5 7.2 3 7.2 3 3.1-8.8 7.1-6c3.8 2.9 2.9 11 2.9 11s6.8 1.2 4.5 5.8c-2.5 5.1-8.9 4.8-8.9 4.8"/><ellipse cx="30.2" cy="75.2" fill="#2c3f9e" rx="7.8" ry="7.2" transform="rotate(-12.285 30.206 75.172)"/><ellipse cx="31.4" cy="75.7" fill="#5366cf" rx="6.6" ry="6.3" transform="rotate(-12.285 31.43 75.709)"/></svg>