<svg viewBox="0 0 128 128"><path fill="#485020" d="m76.1 60.1-4.5-1.4-12.8-2.4L49.6 45c-.3-.4-1.6-4.3-1.6-4.3s-.7.1-1.1-.3-1.3-2.3-1.3-2.3l-10.5 9.4s1.3.7 1.6 1.5l.3 1.3 10.3 5 8 16.1s-1.4 2.2-1.6 4c-.6 6.7 3.5 14 6.9 18.7 1.6 2.4 10.9 13.9 14 17s11.2 12.4 13 13 5.5-.2 8.2-1 6.2-2.3 8.4-3.8 2.8-5.9 0-9.4-28-49.7-28-49.7"/><path fill="#f6af41" d="m44 50.4-3.6 2.4S43.6 56 48 64s5.6 13.3 5.6 13.3l3.2-1.1 5.3-2-7.8-13.5a84 84 0 0 0-7.4-9.6z"/><path fill="#f7c876" d="m49.5 43.4-4.4 7.5s4.7 6 7.5 11.1 6 13.5 6 13.5 6.4-2.4 10.5-3.3c5.1-1.2 8.7-1.3 8.9-1.6.4-.6-3-7.6-3.6-8.9s-1.5-2.6-1.5-2.6-7.2-2.3-13.5-7.2-9.9-8.5-9.9-8.5"/><path fill="#317c31" d="M59.5 77.7s6-2.8 12.7-4 9-.8 9.4-1.4S76 60.1 76 60.1s3.7 1 9.6 5 11.6 10.1 11.6 10.1l17.3 19.5s2.4 2.5 2.5 5.4-1.4 6-3.7 9.9A32 32 0 0 1 96 122.9c-.4-.2-8.7-8.6-15-15.6S66.8 91.5 63.7 86.4c-4-6.8-4.2-8.7-4.2-8.7"/><path fill="#f5b03e" d="M77.8 92.4c-.2 1.4 17.5 21.2 19 21.3 1.7 0 9.5-3.7 13.7-11.3 3.4-6 2.7-9.3 2.5-9.5L98.4 76.3c-1.4-1.6-5.2-5.1-5.2-5.1s-.7 4.2-4.2 9.4c-5.4 8-11 11-11.2 11.8"/><path fill="#ffebca" d="M90.8 81.8c-4.1 5-6 12.6.3 19.5s14.5 2.8 17-2c2.7-5.2 1.6-10.2 1.6-10.2l-5.3-6.2-4-4.4s-6-1-9.6 3.3"/><path fill="#317c31" d="M36.4 37.5c-3.2 2.8-4.7 7.2-2.4 9.4s6.6.4 9-1.8c3.3-3 4.4-6 2-8.5s-5.9-1.4-8.6 1m.6 12.3s4 .8 7.7-3 3.3-6.3 3.3-6.3 2.8-.2 2.6 3.2c0 3.6-5.1 9.9-11.3 9.7-2.7 0-2.3-3.6-2.3-3.6"/><path fill="#fff1c2" d="M39.6 27.2s.4-4-1.8-4.1c-2.8-.3-3.6 2.5-3.6 4.5l-.1 5.3-6.7 2.5s-3.6-.6-4.7 1.5c-1 1.8.5 3 .5 3l11.3-1.7s4-4.9 4-5.3z"/><path fill="#fee465" d="M36.1 30.9s-.3-7 1.8-7.4c1.7-.3 1.8 1.7 1.8 2.6l.6 11.2c0 2-2.5 4.4-5.4 4.5-1 0-10.5-.5-11.7-1.8-.7-.8.3-1.7 1-2s2.7-.5 2.7-.5-1.6-3 .9-5c2.4-2.2 8.3-1.6 8.3-1.6m-1.7-17.5c1.7-.1 2-2.7 1.7-5.4-.2-2.7-1-4.7-2.5-4.6-1.8.2-2.2 2.8-2 5.2s1 4.8 2.8 4.8m5.3 6.1c1.5.6 2.8-1.6 3.3-3.2s1-3.7-.6-4.5-3 1.7-3.5 3.2-.7 4 .8 4.5m-21.6 16c0 1-1.6 2.2-4.5 2.2-3 .1-4.4-1.3-4.3-3 0-1.7 2.8-2.2 4.6-2s4.2 1 4.2 2.7"/><path fill="#f2a259" d="M26.9 15.7s-2.2-3.4-4-3.5c-1.4-.1-4.7 1.1-7.1 3.4-3 2.8-4 6.4-3.8 7.4.4 1.3 2.5 3.5 3.1 3.7s10.7-2.5 10.7-2.8z"/><path fill="#cd844f" d="M22 22.3c-4.6 3.9-8 3.7-8 3.7s1 1.6 2 1.6c1 .1 2-.1 2-.1s3 4 5 4 3.8-.9 5.5-2.5c1.6-1.4 2.9-3.2 2.7-5.1-.1-1-3.5-4.8-3.5-4.8s0-1.2-.2-2-1-1.5-1-1.5-.8 3.5-4.7 6.8"/></svg>