<svg viewBox="0 0 128 128"><path fill="#2f7c31" d="M21.7 24.8 8.6 41s-4 5-3 9.9c1.2 5.4 4 5.8 4 5.8s-.1 4.2 2.4 7.8 3.7 5.3 12.8 8 25.4 6 25.4 6l4.3 16.3s1 4 6.1 6.2 9 1.5 9 1.5 2 5.8 9 7.4c6 1.4 10.7-1.6 10.7-1.6s5 3 11.5 1.6c7.5-1.7 9.3-6.3 9.3-6.3s6.1-.7 10.2-6.5 1.1-12.5 1.1-12.5 3.6-5.3 2.6-11.4c-1-5.4-3-7.3-3-7.3l-13-9s5.4-2.3 7.4-12-3-14.6-3-14.6 2-5.5-1.2-10.4c-3.1-4.7-7.5-2.4-9.6-4.5C99 12.8 84.3 11 84.3 11l-17 14.2z"/><path fill="#709921" d="M28 8.5s5-5.6 12-5.1S48 8 48 8s4.2-.7 6.8.4c5.4 2.4 4.8 5.2 6.5 5s1.6-7 9.2-9.5 11.7 1.3 13.3 1.2 3.7-2 9.5-.2c5.2 1.6 6.3 5 6.5 6.1.3 1.3.3 2.7 1.8 4.4s0 7.5-2.3 9.9-6.5 2.6-6.5 2.6 1 8.3-6 13c-4.8 3.1-10 1.8-10 1.8s-5.5 4.9-11.8 2.8-7-4.6-3.5-7.5c3.5-2.8 5-8.4 1-9.5s-8.4 1-9.9 5.5-1.5 8.5-6.2 11.8-8.2 2.3-13 3.6-7.8 5.3-11.7 5.4c-4 0-7-2.8-9-2.5l-6.2 1.2s-1.9-3.4-.7-7.7S8.6 41 8.6 41s-9.4-9-.8-22.8C15.6 5.7 28 8.5 28 8.5m51.7 64.7s3.7-1.5 6-5.6c2.5-4.2 3.7-7.2 7.6-9.3 3.8-2 8.1-1.8 13.7-1.5s7 2 8.4 3.4c2.7 2.6 5.6 5.7 5.6 5.7s-4.7.4-7.2 4.2-4 9.2-4 9.2-3.4 1.2-7 3.2-11.4 7-16.6 5.6-8-7.3-8-8c0-.6 1.5-6.9 1.5-6.9"/><path fill="#9fb525" d="M35.3 81.8c-.2.8-25.2 29-25.2 29s3 4.5 5.6 6.7 7 5.4 9.7 6.1c3 .8 5.2 1.7 7.9-1.8s4.7-8 12-15.8 12.3-12.4 18-15.1 14.2-4.7 16.3-5l5-.4s1.6-3.3 1-6c-.6-2.9-4.6-4.2-4.6-4.2l-20.7 3 2.4-.8s-1-1.4.3-3.2c1.1-1.7 6.3-7.9 8-10.2s5-6.7 5-7.4c-.1-1.3-3.2-3-4.2-3.6l-3-1.5-22.1 23-1.3-1s-1.4-.1-2.2-2.4c-.6-1.5-.9-6.2-1.4-10.3-.3-2.6-.4-5.6-.4-5.6s-3.5-1.5-5.8-1.3-5 2.8-5 2.8z"/><path fill="#b7d118" d="M27 57.5c-.4 1 .2 5.3.2 11s-.4 11.2-3.2 14.6a144 144 0 0 1-14.4 15c-2 1.8-3.4 2.5-3.5 3s.9 4.8 1.8 6.7c1.7 3.4 4.8 6.5 4.8 6.5s12.5-14 17.8-19.5 8.2-9 9.4-7.8-2.8 5.9-5.6 9.1c-4.4 5-16.5 23-16.5 23s.7.7 2 1.6L22 122s6.4-10.5 15.3-19.8 14-13.8 20-15.8 28.4-6.9 28.4-6.9l-1.6-4.8c-.6-1.5-2-3.1-2-3.1l-13 3.5c-2 .6-12.8 1.9-13.3.7s7.3-11 9.6-14L72 53s-2.5-1.6-5.5-2.4-4 0-4 0l-9.6 12.7c-2.2 2.9-6.4 9.1-10.2 10.2s-4.8.1-5.3-2.8C36.8 68 35.6 54 35.6 54s-3.9.3-5.3 1-3 1.6-3.4 2.5"/><path fill="#2f7c31" d="M103 75.1s2.2-4 4.1-2.3c2 1.7-1.7 7-2.5 7.2s-7-1.9-6-4.2 4.4-.7 4.4-.7M44.8 34.5c2.3 0 7.1-4.8 5-7.3-1.6-2-5 1.9-5 1.9s-3.7-3.7-5.1-2c-2 2.7 3.4 7.4 5 7.4M32 39.2s2-4.1 4.3-2.4c2.3 1.8-1.7 7.7-3 8s-7.7-3.3-6-5.9c1.5-2.1 4.7.3 4.7.3m-17.6-3.7c.7 0 5.8-2.8 4.4-5.4s-4.4.7-4.4.7-2.8-2.5-4-1c-2 2.5 2.9 5.5 4 5.7m.9 8.3s2-4 4-2.5-1.6 7.6-2.1 7.8-7.8-1.8-6.2-4.7c1-2 4.3-.6 4.3-.6m64-4.5c1.5-.7 4.2-6 1.7-7.1-2-1-3 2.4-3 2.4s-2.3-2-3.9-.4c-2.3 2.5 4.1 5.5 5.1 5.1m11.3-21s.1-2.3 2-2.1c2 .1 1.7 5 .1 5.9s-6.4-1.7-5.3-3.6c.7-1.1 3.3-.3 3.2-.1"/></svg>