<svg viewBox="0 0 128 128"><path fill="#bae2fd" d="M64 25.3c-34.2.3-38 9.6-38 9.6l10.7 75.3c1 6.7 12.6 13.5 27.2 13.5s26.2-6.8 27.2-13.5L102 35.3s-4-9.7-38-10" opacity=".8"/><linearGradient id="a" x1="63.9" x2="63.9" y1="71.3" y2="93.5" gradientUnits="userSpaceOnUse"><stop offset="0" stop-color="#eeb68e"/><stop offset="1" stop-color="#f5cea7"/></linearGradient><path fill="url(#a)" d="m30.3 64.3 6.4 45.9c1 6.7 12.6 13.5 27.2 13.5s26.2-6.8 27.3-13.5l6.2-44.7s-24.4-9-39.2-7.2a170 170 0 0 0-27.9 6"/><radialGradient id="b" cx="50.2" cy="68.1" r="67.1" gradientTransform="matrix(.9469 .3217 -.2221 .6538 17.794 7.434)" gradientUnits="userSpaceOnUse"><stop offset="0" stop-color="#c48c63"/><stop offset="1" stop-color="#eeb68e"/></radialGradient><path fill="url(#b)" d="M97.2 64c1.8 4.6-7.4 19.3-33.9 8-25-10.6-33-7.7-33-7.7 3.7-3.7 11-8.7 29.3-8.7 20.6 0 35.4 3 37.6 8.4"/><path fill="#9575cd" d="M70.5 38.4c-2.3 8-9 29.7-9 29.7s3 2.3 7.9 2.3c5.3 0 6.1-2.1 6.1-2.1S82.1 47 84.3 39c0 0-2.1.4-7.4.3-5.3 0-6.4-1-6.4-1"/><radialGradient id="c" cx="86.1" cy="82.9" r="5.7" gradientTransform="matrix(1 0 0 .9699 0 3.75)" gradientUnits="userSpaceOnUse"><stop offset="0" stop-color="#6d4c41"/><stop offset="1" stop-color="#3d3832"/></radialGradient><ellipse cx="84.9" cy="86.9" fill="url(#c)" rx="4.8" ry="4.6"/><radialGradient id="d" cx="70.3" cy="81.6" r="5.7" gradientTransform="matrix(1 0 0 .9699 0 3.75)" gradientUnits="userSpaceOnUse"><stop offset="0" stop-color="#6d4c41"/><stop offset="1" stop-color="#3d3832"/></radialGradient><ellipse cx="69.2" cy="85.6" fill="url(#d)" rx="4.8" ry="4.6"/><radialGradient id="e" cx="60.8" cy="102.6" r="5.7" gradientTransform="matrix(1 0 0 .9699 0 3.75)" gradientUnits="userSpaceOnUse"><stop offset="0" stop-color="#6d4c41"/><stop offset="1" stop-color="#3d3832"/></radialGradient><ellipse cx="59.6" cy="106" fill="url(#e)" rx="4.8" ry="4.6"/><radialGradient id="f" cx="74.4" cy="101.9" r="5.7" gradientTransform="matrix(1 0 0 .9699 0 3.75)" gradientUnits="userSpaceOnUse"><stop offset="0" stop-color="#6d4c41"/><stop offset="1" stop-color="#3d3832"/></radialGradient><ellipse cx="73.3" cy="105.3" fill="url(#f)" rx="4.8" ry="4.6"/><radialGradient id="g" cx="73.9" cy="104.5" r="5.6" gradientTransform="matrix(1 0 0 .9699 0 3.75)" gradientUnits="userSpaceOnUse"><stop offset=".5" stop-color="#f5cea7" stop-opacity="0"/><stop offset="1" stop-color="#f5cea7"/></radialGradient><ellipse cx="73.3" cy="105.3" fill="url(#g)" rx="4.8" ry="4.6"/><radialGradient id="h" cx="69.4" cy="84.2" r="5.7" gradientTransform="matrix(1 0 0 .9699 0 3.75)" gradientUnits="userSpaceOnUse"><stop offset=".6" stop-color="#f5cea7" stop-opacity="0"/><stop offset="1" stop-color="#f5cea7"/></radialGradient><ellipse cx="69.2" cy="85.6" fill="url(#h)" rx="4.8" ry="4.6"/><radialGradient id="i" cx="85.2" cy="85.6" r="5.7" gradientTransform="matrix(1 0 0 .9699 0 3.75)" gradientUnits="userSpaceOnUse"><stop offset=".6" stop-color="#f5cea7" stop-opacity="0"/><stop offset="1" stop-color="#f5cea7"/></radialGradient><ellipse cx="84.9" cy="86.9" fill="url(#i)" rx="4.8" ry="4.6"/><radialGradient id="j" cx="44.3" cy="102.1" r="5.2" gradientTransform="matrix(1 0 0 .9699 0 3.75)" gradientUnits="userSpaceOnUse"><stop offset="0" stop-color="#6d4c41"/><stop offset="1" stop-color="#3d3832"/></radialGradient><ellipse cx="43.2" cy="105.3" fill="url(#j)" rx="4.4" ry="4.3"/><radialGradient id="k" cx="43.4" cy="104.2" r="5.5" gradientTransform="matrix(1 0 0 .9179 0 9.179)" gradientUnits="userSpaceOnUse"><stop offset=".6" stop-color="#f5cea7" stop-opacity="0"/><stop offset="1" stop-color="#f5cea7"/></radialGradient><ellipse cx="43.2" cy="105.3" fill="url(#k)" rx="4.4" ry="4.3"/><radialGradient id="l" cx="83.5" cy="108.5" r="5.2" gradientTransform="matrix(1 0 0 .9699 0 3.75)" gradientUnits="userSpaceOnUse"><stop offset="0" stop-color="#6d4c41"/><stop offset="1" stop-color="#3d3832"/></radialGradient><ellipse cx="82.4" cy="111.5" fill="url(#l)" rx="4.4" ry="4.3"/><radialGradient id="m" cx="82.6" cy="110.6" r="5.5" gradientTransform="matrix(1 0 0 .9179 0 9.511)" gradientUnits="userSpaceOnUse"><stop offset=".6" stop-color="#f5cea7" stop-opacity="0"/><stop offset="1" stop-color="#f5cea7"/></radialGradient><ellipse cx="82.4" cy="111.5" fill="url(#m)" rx="4.4" ry="4.3"/><radialGradient id="n" cx="59.6" cy="105.7" r="6" gradientTransform="matrix(1 0 0 .9179 0 9.254)" gradientUnits="userSpaceOnUse"><stop offset=".6" stop-color="#f5cea7" stop-opacity="0"/><stop offset="1" stop-color="#f5cea7"/></radialGradient><path fill="url(#n)" d="M54.8 106c0-2.6 2-4.5 4.6-4.7 2.6-.1 5 1.9 5 4.4s-1.6 5-4.8 4.9c-2.6-.1-4.8-2.1-4.8-4.6"/><radialGradient id="o" cx="66.9" cy="114.1" r="5.7" gradientTransform="matrix(1 0 0 .9699 0 3.75)" gradientUnits="userSpaceOnUse"><stop offset="0" stop-color="#6d4c41"/><stop offset="1" stop-color="#3d3832"/></radialGradient><ellipse cx="65.7" cy="117.1" fill="url(#o)" rx="4.8" ry="4.6"/><radialGradient id="p" cx="65.6" cy="117.2" r="5.8" gradientTransform="matrix(1 0 0 .9284 0 8.616)" gradientUnits="userSpaceOnUse"><stop offset=".6" stop-color="#f5cea7" stop-opacity="0"/><stop offset="1" stop-color="#f5cea7"/></radialGradient><path fill="url(#p)" d="M61 117.1c0-2.5 1.9-4.4 4.5-4.6s5 1.8 5 4.4-1.6 5-4.8 4.8c-2.6 0-4.8-2-4.8-4.6"/><radialGradient id="q" cx="53.4" cy="93.7" r="5.7" gradientTransform="matrix(1 0 0 .9699 0 3.75)" gradientUnits="userSpaceOnUse"><stop offset="0" stop-color="#6d4c41"/><stop offset="1" stop-color="#3d3832"/></radialGradient><ellipse cx="52.3" cy="97.4" fill="url(#q)" rx="4.8" ry="4.6"/><radialGradient id="r" cx="52.2" cy="96.8" r="6" gradientTransform="matrix(1 0 0 .9179 0 8.793)" gradientUnits="userSpaceOnUse"><stop offset=".6" stop-color="#f5cea7" stop-opacity="0"/><stop offset="1" stop-color="#f5cea7"/></radialGradient><path fill="url(#r)" d="M47.5 97.4c0-2.6 2-4.5 4.5-4.7 2.6-.1 5 1.9 5 4.4s-1.6 5-4.8 4.9c-2.6-.1-4.7-2-4.7-4.6"/><radialGradient id="s" cx="65.5" cy="92" r="5.7" gradientTransform="matrix(1 0 0 .9699 0 3.75)" gradientUnits="userSpaceOnUse"><stop offset="0" stop-color="#6d4c41"/><stop offset="1" stop-color="#3d3832"/></radialGradient><ellipse cx="64.4" cy="95.7" fill="url(#s)" rx="4.8" ry="4.6"/><radialGradient id="t" cx="64.3" cy="95" r="5.7" gradientTransform="matrix(1 0 0 .9565 0 5.032)" gradientUnits="userSpaceOnUse"><stop offset=".6" stop-color="#f5cea7" stop-opacity="0"/><stop offset="1" stop-color="#f5cea7"/></radialGradient><path fill="url(#t)" d="M59.6 95.7c0-2.6 2-4.5 4.6-4.7 2.6-.1 5 1.9 5 4.4s-1.6 5-4.8 4.9c-2.7-.1-4.8-2-4.8-4.6"/><radialGradient id="u" cx="80.1" cy="95.9" r="5.7" gradientTransform="matrix(1 0 0 .9699 0 3.75)" gradientUnits="userSpaceOnUse"><stop offset="0" stop-color="#6d4c41"/><stop offset="1" stop-color="#3d3832"/></radialGradient><ellipse cx="79" cy="99.5" fill="url(#u)" rx="4.8" ry="4.6"/><radialGradient id="v" cx="78.7" cy="98.3" r="5.9" gradientTransform="matrix(1 0 0 .9179 0 8.873)" gradientUnits="userSpaceOnUse"><stop offset=".5" stop-color="#f5cea7" stop-opacity="0"/><stop offset="1" stop-color="#f5cea7"/></radialGradient><path fill="url(#v)" d="M74.2 99.5c0-2.6 1.9-4.5 4.5-4.6 2.6-.2 5 1.8 5 4.3s-1.6 5-4.8 5c-2.6-.2-4.7-2.2-4.7-4.7"/><radialGradient id="w" cx="44" cy="85.4" r="5.7" gradientTransform="matrix(1 0 0 .9699 0 3.75)" gradientUnits="userSpaceOnUse"><stop offset="0" stop-color="#6d4c41"/><stop offset="1" stop-color="#3d3832"/></radialGradient><ellipse cx="42.8" cy="89.3" fill="url(#w)" rx="4.8" ry="4.6"/><radialGradient id="x" cx="42.7" cy="88.5" r="6" gradientTransform="matrix(1 0 0 .9681 0 3.916)" gradientUnits="userSpaceOnUse"><stop offset=".6" stop-color="#f5cea7" stop-opacity="0"/><stop offset="1" stop-color="#f5cea7"/></radialGradient><path fill="url(#x)" d="M38 89.3c0-2.5 2-4.4 4.6-4.6s5 1.8 5 4.4-1.6 5-4.8 4.8c-2.6 0-4.8-2-4.8-4.6"/><radialGradient id="y" cx="52.8" cy="111" r="5.7" gradientTransform="matrix(1 0 0 .9699 0 3.75)" gradientUnits="userSpaceOnUse"><stop offset="0" stop-color="#6d4c41"/><stop offset="1" stop-color="#3d3832"/></radialGradient><ellipse cx="51.6" cy="114.2" fill="url(#y)" rx="4.8" ry="4.6"/><radialGradient id="z" cx="51.5" cy="114.4" r="6" gradientTransform="matrix(1 0 0 .9702 0 3.724)" gradientUnits="userSpaceOnUse"><stop offset=".6" stop-color="#f5cea7" stop-opacity="0"/><stop offset="1" stop-color="#f5cea7"/></radialGradient><path fill="url(#z)" d="M46.8 114.2c0-2.6 2-4.5 4.6-4.6 2.6-.2 5 1.8 5 4.3s-1.6 5-4.8 4.9c-2.7-.1-4.8-2-4.8-4.6"/><path fill="#33ac71" d="M101.3 40.1c.2-1 1.1-3.6.5-5.6 0 0-2 9-37.8 9s-38-9-38-9c-.2 1.9.5 4.7.7 5.6.5 3-1.7 3-1.7 3s.4 3.4 6.4 2.7c1 0 4-.7 5.5 1s2.8 3.3 5.3 4c3.7 1.2 6.5-1.7 11-.7 2.7.6 4.5 2.3 9.2 2.8 5.2.6 7-2.2 9.8-2.6 5-.7 6.7 1.1 11 1 4.7-.1 6.3-2.4 8.2-3.7 2.7-1.8 5-.7 6-.6 6 .6 5.6-3.9 5.6-3.9s-2.2 0-1.7-3"/><path fill="#72e6ac" d="M64 23.4c-21.6 0-38 5.1-38 11.5s16.4 11.5 38 11.5 37.8-5.2 37.8-11.5S85.4 23.4 64 23.4m12.9 15.2c-4.8 0-8.6-1.3-8.6-3s3.8-3.1 8.6-3.1 8.6 1.4 8.6 3c0 1.8-3.9 3.1-8.6 3.1"/><path fill="#b39ddb" d="M87.8 4.7c-4-1-7.1 0-8 2.6l-9.1 30.5s1.8 1 7.4 1c4.6 0 7-2.3 7-2.3l7.4-26c.7-2.2-1.2-4.9-4.7-5.8"/><path fill="#9575cd" d="M78.1 38.8c4.6 0 7-2.3 7-2.3l1.1-3.9s-3.8 3-7.9 4c-4.4 1-7.6 1.2-7.6 1.2s1.8 1 7.4 1"/><ellipse cx="86.3" cy="9.1" fill="#7e57c2" rx="3.5" ry="5.2" transform="rotate(-74.585 86.266 9.084)"/><path fill="#33ac71" d="m71.7 34.3.5-1.5-1.8.6c-1.4.6-2 1-2.3 2-.1.8.7 1.4.7 1.4s0-.7.3-1c.8-.9 1.2-1 2.6-1.5"/><path fill="#fff" d="M33.3 57.2c-.8-6.7 5.9-7.3 7 5.1l.4 14s.5 4-1.5 4.4c-3 .6-3.2-3.7-3.2-3.7z" opacity=".8"/></svg>