<svg xmlns="http://www.w3.org/2000/svg" width="1em" height="1em" viewBox="0 0 128 128"><path fill="#9A9A9A" d="M45.79 74.25s-18.68 2.79-17.25 4.65c2.23 2.9 19.94 18.59 30.25 26.94c9.76 7.91 18.65 16.63 25.32 17.78c10.07 1.74 24.68-1.06 35.33-15.2c6.13-8.14 1.87-19.82-1.06-25.56s-32.45-24.8-32.45-24.8z"/><path fill="#B0B0B0" d="M54.2 84.96s1.27 6.37 4.84 8.54c3.57 2.17 5.73 1.66 9.56 4.97c3.82 3.31 6.37 9.17 8.54 10.83c2.17 1.66 6.5 2.93 9.56 5.1c3.06 2.17 4.08 4.84 7.64 5.35s20.76-3.63 25.97-12.66c5.03-8.71 3.46-17.43 2.18-21.38c-1.27-3.95-20.25-28.31-25.35-34.68c-5.1-6.37-12.36-16.64-12.36-16.64z"/><path fill="#E0E0E0" d="M83.76 62.53s.82 3.83 1.78 8.19c.81 3.7 2.58 9.47 4.87 10.36c2.29.89 5.2.18 5.2.18s3.65 12.75 5.73 14.27c1.4 1.02 5.61 0 6.37.89c.76.89 4.2 10.57 6.37 10.57s4.02-3.01 5.73-8.79c2.04-6.88.09-11.28-3.57-16.56c-4.59-6.63-17.71-23.95-21.15-27.9s-5.73-6.63-6.75-5.99c-1.01.64-4.58 14.78-4.58 14.78"/><path fill="#FFF" d="M115.12 95.26c-1.49 0-2.33 2.37-2 4.89c.33 2.52.75 3.97 2.56 3.81c2.11-.19 1.78-3.18 1.74-4.89s-.63-3.81-2.3-3.81M97.3 77.45c2.35 2.52 5.6 4.09 8.4 7c2.8 2.91 5.26 7.5 7.45 8.62c2.18 1.12 4.03 1.01 4.59-.62c.56-1.62-.84-4.31-2.52-5.6s-2.97-2.07-3.58-3.36s-.34-3.25-2.46-5.43c-2.13-2.18-7.11-3.42-8.45-5.09c-1.34-1.68-.73-5.99-2.74-7.78c-2.02-1.79-4.42-1.12-4.42 1.74s1.18 3.14 1.74 5.09c.53 1.96.36 3.69 1.99 5.43m-7.73-9.63c2.36.34 3.58-2.63 3.75-6.38c.17-3.75.58-7.91-2.63-8.45c-2.97-.5-3.47 7.33-3.58 10.25c-.08 1.89.11 4.24 2.46 4.58"/><path fill="#807F7D" d="M33.42 65.45s-12.58 7.82-3.48 14.87s18.01 8.93 31.62 4.99c14.96-4.33 23.46-18.24 26.09-27.51c2.63-9.26 1.78-17.51-2.04-23.2s-8.41-9.77-10.62-10.28c-2.21-.51-21.16 35.7-21.16 35.7z"/><path fill="#F6B140" d="m74.89 68.73l3.33-.11s2.58-3.57 2.89-4.34c.31-.78-9.33-27.37-9.23-27.89c.1-.52-5.01-26.89-14.62-30.58c-6.74-2.59-10.89-1.56-13.79-1.76s-4.58-.96-8.81-.41c-5.6.73-13.06 1.87-22.19 12.44c-8.8 10.2-7.14 17.2-6.94 24.35S4.32 53.5 8.05 58.69s12.41 8.59 12.41 8.59z"/><path fill="#A1C23C" d="M61.71 18.32c-.16-1.21-.38-6.85-8.4-6.97c-3.98-.06-6.64 2.09-6.64 2.09s-7.65-2.06-13.6.26C29.67 15.02 21.8 29 21.8 29l9.72 2.19z"/><path fill="#95A61D" d="M52.91 24.45c.06-.31 8.73-5.86 8.73-5.86s.5-1.98-4.21-2.4c-3.49-.31-5.27 2.15-5.27 2.15s-4.33-2.08-7.55.69c-2.19 1.88-.5 3.62-.5 3.62zm-28.89 4.86s.23-3.54 3.43-8.24c3.74-5.49 9.73-6.68 9.86-7.49c.13-.87-4.93-1.5-9.73 1.56c-4 2.55-7.4 7.02-7.9 12.08c-.58 5.86 4.34 2.09 4.34 2.09"/><path fill="#FFD61C" d="M27.3 32.1c.04 1.16-10.43 2.58-11.86 2.58s-3.19-1.42-2.64-3.37c.68-2.45 4.15-2.93 6.26-2.93c2.72 0 8.1.12 8.24 3.72"/><path fill="#FFFFFE" d="M26.41 33.35s-3.81-1.23-8.44.27c-4.52 1.46-6.38 3.7-7.49 7.83c-1.53 5.72 1.36 12.32 1.36 12.32l9.19 6.13s7.49-5.79 7.21-6.53s-1.83-20.02-1.83-20.02"/><path fill="#FFD61C" d="M11.91 48.26c-.98.63-2.04 3.33.61 7.76c2.47 4.12 4.56 4.76 5.99 3.33c1.43-1.43-1.75-3.47-3.27-6.74c-.71-1.53-1.63-5.44-3.33-4.35"/><path fill="#FAB16E" d="M20.01 49.55s-3.47-2.72-2.11-8.58s8.24-9.39 8.24-9.39s-.41-8.3 6.87-11.3s15.72 4.22 15.72 4.22l3.88 21.1z"/><path fill="#D27857" d="M36.13 27.15c-.9 2.26-2.27 6.29.19 7.02s4.8-3.26 5.53-5.15c.73-1.89 1.97-4.92-.25-6.13s-4.45 1.7-5.47 4.26m-4.06-.48c-1.98-.15-3.26 1.96-3.19 5.66c.05 2.56.63 4.26 2.66 4.31c2.23.05 2.47-3.34 2.61-5.27s.31-4.52-2.08-4.7m-10.94 19.4c.74 1.47 3.63 1.94 7.26-.29c2.83-1.73 4.06-4.06 3.68-5.56c-.39-1.5-4.11-1.98-7.31.05c-3.19 2.03-4.45 4.16-3.63 5.8"/><path fill="#543630" d="M44.02 18.3c-1.72.39-3.73 1.84-3.29 4.6c.37 2.33 3.24 2.56 5.23 2.13c1.7-.37 3.97-2.56 3.53-4.69c-.44-2.14-2.71-2.67-5.47-2.04m-8.76 21.77c1.5 2.84 5.57.57 6.97-.34c1.47-.96 3.15-3 2.47-4.74s-2.95-2.37-6.1-.77s-4.31 4.01-3.34 5.85"/><path fill="#6D4C41" d="M61.65 18.58s-3.14-.11-7.39 3.1C44.73 28.87 42.97 44.8 42.97 44.8L38.84 46s-2.58-.25-4.63.22c-2.9.64-5.21 2.81-5.21 2.81L20.57 61.2s4.33 1.96 10.7 1.3c3.85-.4 19.45.27 19.45.27s15.69-1.64 15.47-2c-.22-.36-3.51-4.8-4.59-7.47c-1.09-2.68.92-21.64.92-21.64l-1.16-6.51z"/><path fill="#FFD61C" d="M43.96 41.01c2.14.68 3.43-1.22 3.97-2.39c.85-1.83 1.58-3.97 3.7-6.09c2.46-2.47 4.8-3.12 3.56-5.56c-1.45-2.86-7.13 3.13-7.13 3.13s1.42-3.09 3.47-4.96c1.77-1.61.55-4.9-2.62-2.75c-3.3 2.24-5.37 5.91-6.18 8.71c-.69 2.39-1.34 9.1 1.23 9.91"/><path fill="#8D6256" d="M58.45 30.45c-2.54-.68-5.02.77-6.68 5.28c-1.13 3.07.05 6.36 1.94 6.86c3.32.87 6.68-3.84 6.99-7.13c.32-3.3-.4-4.51-2.25-5.01m-20.9 17.42c.54 1.95 5.14 2.53 7.94 1.35c3.43-1.44 4.87-4.51 4.06-6.63c-.81-2.12-4.54-2.74-7.67-1.22c-3.06 1.49-5.05 3.88-4.33 6.5m9.66 5.82c.72 2.43 4.06 2.21 5.51 1.71c1.44-.5 3.88-1.58 3.34-4.29s-3.56-2.3-5.19-2.03c-1.63.28-4.38 2.17-3.66 4.61m-17.73 3.16c.31 1.38-.05 3.83-4.87 4.47c-3.42.45-6.36-.14-6.63-2.71c-.48-4.58 4.6-4.33 4.6-4.33s-4.02-.14-4.15-3.75c-.1-2.62 2.8-4.24 6.5-4.87s6.58.72 6.99 3.25c.63 3.84-5.14 5.46-5.14 5.46s2.32.84 2.7 2.48"/><path fill="#FAB16E" d="M40.22 52.6c.23 2.98-3.52 3.84-6.09 3.7c-1.8-.09-5.41-1.25-4.74-4.11c.81-3.43 5.32-3.25 7.08-2.98s3.6 1.46 3.75 3.39"/><radialGradient id="notoBurrito0" cx="79.698" cy="71.572" r="51.155" gradientUnits="userSpaceOnUse"><stop offset=".532" stop-color="#F8CD7F"/><stop offset=".63" stop-color="#FAD593"/><stop offset=".847" stop-color="#FEE4BB"/><stop offset=".961" stop-color="#FFEACA"/></radialGradient><path fill="url(#notoBurrito0)" d="M19.46 68.67c2.01 1.73 10.17 9.58 13.58 11.75c3.42 2.17 10.08 5.75 21.5 3.42s17.5-8.83 19.91-11c2.42-2.17 3.35-4.09 3.34-4.21c-.01-.12-18.34-9.7-24.09-9.29c-5.75.42-16.75 4.75-22.75 5.75s-19.83-3.08-19.83-3.08s4.84 3.66 8.34 6.66"/><radialGradient id="notoBurrito1" cx="79.606" cy="68.217" r="45.142" gradientUnits="userSpaceOnUse"><stop offset=".532" stop-color="#F8CD7F"/><stop offset=".63" stop-color="#FAD593"/><stop offset=".847" stop-color="#FEE4BB"/><stop offset=".961" stop-color="#FFEACA"/></radialGradient><path fill="url(#notoBurrito1)" d="M63.12 50.01V26.95l2.04-11.47l-2.6-6.27S73.47 22.1 77.12 27.04c3.65 4.93 6.89 8.45 7.69 11.51c.92 3.51 1.05 11.19-.35 16.72c-1.7 6.69-4.02 10.18-4.02 10.18s-5.2-2.46-10.13-6.21s-7.19-9.23-7.19-9.23"/><path fill="#F6C977" d="M72.97 34.72c-1.64.39-2.13 4.58-1.58 7.9c.62 3.7 1.58 6.32 4.03 5.84c2.45-.47 1.89-5.92 1.18-9.63s-1.97-4.51-3.63-4.11m-6.55 7.73c-1.74-.55-3.55 1.58-3.71 5.84s1.82 4.11 2.53 4.26s2.68-1.5 2.84-4.82c.12-2.67-.23-4.82-1.66-5.28M55.05 72.54c-2.43 2.06-2.61 5.76-1.42 7.82c1.18 2.05 2.29 3.16 2.29 3.16s5.17-1.26 7.95-2.68c2.52-1.29 5.86-3.87 5.86-3.87s-5.12-4.89-8.6-5.68s-5.06.38-6.08 1.25"/><path fill="#F7BF5E" d="M76.34 54.99c-.22 1.79.46 3.55 1.9 4.62c1.68 1.25 5.1 0 3.14-3.79c-1.91-3.7-4.8-2.79-5.04-.83"/><path fill="#F6C977" d="M36.78 72.1c-1.32 2.01-.68 5.6 4.07 7.01c3.29.98 5.57-.47 6.28-2.01c.71-1.54.62-5.07-3.97-6.52c-3.2-1.02-5.25-.2-6.38 1.52"/><radialGradient id="notoBurrito2" cx="46.632" cy="78.765" r="9.442" gradientUnits="userSpaceOnUse"><stop offset=".532" stop-color="#F6AF3D"/><stop offset=".959" stop-color="#F6AF3D" stop-opacity="0"/></radialGradient><path fill="url(#notoBurrito2)" d="M38.6 74.42c-.52 1.62 1.13 3.44 3.91 3.79s4.27-.36 4.74-1.96c.47-1.6-1.78-3.38-4.33-3.67c-2.24-.25-3.85.36-4.32 1.84"/><path fill="#F7BD5C" d="M55.96 76.62c-.69.84-.71 3.32 1.48 4.21c2.19.89 3.56-.36 3.85-1.3c.3-.95-.26-2.53-1.66-3.26c-1.25-.66-2.84-.66-3.67.35"/><radialGradient id="notoBurrito3" cx="66.022" cy="80.624" r="4.499" gradientTransform="matrix(-.4024 -.9155 2.0944 -.9206 -76.267 215.287)" gradientUnits="userSpaceOnUse"><stop offset=".532" stop-color="#F6AF3D"/><stop offset=".959" stop-color="#F6AF3D" stop-opacity="0"/></radialGradient><path fill="url(#notoBurrito3)" d="M60.27 82.23s-.88-3.26 1.14-4.34s3.23.13 3.23.13s.47-1.38 2.19-1.63c1.72-.26 2.84.6 2.84.6s-2.63 2.13-4.55 3.23c-1.96 1.13-4.85 2.01-4.85 2.01"/><radialGradient id="notoBurrito4" cx="82.629" cy="63.218" r="4.716" gradientUnits="userSpaceOnUse"><stop offset=".532" stop-color="#F6AF3D"/><stop offset=".959" stop-color="#F6AF3D" stop-opacity="0"/></radialGradient><path fill="url(#notoBurrito4)" d="M83.17 59.58s-3.31-1.46-4.24.82c-.96 2.34 1.87 4.54 1.87 4.54s.9-1.76 1.33-2.8c.52-1.25 1.04-2.56 1.04-2.56"/><radialGradient id="notoBurrito5" cx="64.656" cy="34.435" r="7.309" gradientUnits="userSpaceOnUse"><stop offset=".532" stop-color="#F6AF3D"/><stop offset=".959" stop-color="#F6AF3D" stop-opacity="0"/></radialGradient><path fill="url(#notoBurrito5)" d="M67.72 27.85c-1.43 0-2.43 2.2-2.34 4.03c.09 1.83 1.1 3.62 2.7 3.53c2.25-.13 2.35-2.43 2.29-4.21c-.04-1.43-.86-3.35-2.65-3.35"/><radialGradient id="notoBurrito6" cx="72.622" cy="40.407" r="9.178" gradientUnits="userSpaceOnUse"><stop offset=".532" stop-color="#F6AF3D"/><stop offset=".959" stop-color="#F6AF3D" stop-opacity="0"/></radialGradient><path fill="url(#notoBurrito6)" d="M78.14 37c.15-.61.16-1.31.03-2c-.32-1.65-1.72-2.94-3.39-2.38c-1.79.6-1.74 3.3-1.33 4.4c.19.49.54.95 1.01 1.28c-.41 1.13-.36 2.58-.23 3.58c.23 1.83 1.01 3.66 2.7 4.17c1.45.43 2.7-.41 2.84-2.93c.11-2-.15-5-1.63-6.12"/><path fill="#FFEBC8" d="M47.67 57.9c-5.74 1.15-13.27 3.63-20.48 5.01c-7.18 1.37-14.7-1.55-16.52-1.7c-1.82-.15 5.46 5.11 6.78 5.82c1.08.58 5.37 1.47 15.49-.8c10.12-2.27 14.18-4.21 18.7-4.13c6.83.12 11.45 1.17 17.11 4.57c5.26 3.15 5.83 4.05 6.96 4.94c.89-.93 2.96-3.6 2.96-3.6s-15.3-13.27-31-10.11m21.18-.14c-.24.49-2.99.13-4.94-1.17c-1.94-1.3-3.69-5.13-4.19-9.88c-.57-5.42.16-14.63 1.62-21.56s2.09-9.19 1.45-12.21c-.7-3.31-2.39-3.76-2.87-5.37c-.33-1.1 3.02 1.71 4.5 3.36c4.89 5.44 1.24 9.51.43 17.61c-.69 6.89-1.45 15.12.09 20.14c1.54 5.02 3.91 9.08 3.91 9.08"/></svg>