<svg viewBox="0 0 128 128"><path fill="#9a9a9a" d="M45.8 74.3S27 77 28.5 78.9c2.3 2.9 20 18.6 30.3 27 9.8 7.8 18.6 16.6 25.3 17.7 10 1.8 24.7-1 35.3-15.2 6.2-8.1 2-19.8-1-25.5S85.9 58 85.9 58z"/><path fill="#b0b0b0" d="M54.2 85s1.3 6.3 4.8 8.5 5.8 1.7 9.6 5 6.4 9.1 8.5 10.8 6.5 3 9.6 5.1 4 4.8 7.6 5.3 20.8-3.6 26-12.6c5-8.7 3.5-17.4 2.2-21.4S102.2 57.4 97 51 84.8 34.4 84.8 34.4z"/><path fill="#e0e0e0" d="m83.8 62.5 1.7 8.2c.9 3.7 2.6 9.5 5 10.4s5.1.2 5.1.2 3.7 12.7 5.7 14.2c1.4 1 5.7 0 6.4 1s4.2 10.5 6.4 10.5 4-3 5.7-8.8c2-6.9.1-11.3-3.6-16.6-4.5-6.6-17.7-24-21.1-27.9s-5.7-6.6-6.8-6c-1 .7-4.5 14.8-4.5 14.8"/><path fill="#fff" d="M115.1 95.3c-1.5 0-2.3 2.3-2 4.9s.8 4 2.6 3.8c2-.2 1.8-3.2 1.7-5s-.6-3.7-2.3-3.7M97.3 77.5c2.4 2.5 5.6 4 8.4 7s5.3 7.5 7.5 8.6c2.1 1 4 1 4.5-.6s-.8-4.4-2.5-5.6-3-2.1-3.6-3.4-.3-3.3-2.4-5.4-7.1-3.5-8.5-5.1c-1.3-1.7-.7-6-2.7-7.8s-4.4-1.1-4.4 1.7 1.2 3.2 1.7 5.1c.5 2 .4 3.7 2 5.4m-7.7-9.6c2.3.4 3.6-2.6 3.7-6.4s.6-7.9-2.6-8.4c-3-.5-3.5 7.3-3.6 10.2 0 2 .1 4.3 2.5 4.6"/><path fill="#807f7d" d="M33.4 65.5S20.8 73.3 30 80.3s18 9 31.7 5a41 41 0 0 0 26-27.5c2.7-9.3 1.8-17.5-2-23.2S77.2 24.8 75 24.3 53.8 60 53.8 60z"/><path fill="#f6b140" d="M74.9 68.7h3.3s2.6-3.6 3-4.4c.2-.8-9.4-27.4-9.3-28s-5-26.8-14.6-30.5c-6.8-2.6-11-1.6-13.8-1.8s-4.6-1-8.8-.4c-5.6.8-13.1 2-22.2 12.5-8.8 10.2-7.2 17.2-7 24.3S4.3 53.5 8.1 58.7s12.4 8.6 12.4 8.6z"/><path fill="#a1c23c" d="M61.7 18.3c-.2-1.2-.4-6.8-8.4-7-4 0-6.6 2.1-6.6 2.1s-7.7-2-13.6.3C29.7 15 21.8 29 21.8 29l9.7 2.2z"/><path fill="#95a61d" d="M53 24.5c0-.4 8.6-6 8.6-6s.5-1.9-4.2-2.3c-3.5-.3-5.2 2.1-5.2 2.1s-4.4-2-7.6.7c-2.2 2-.5 3.7-.5 3.7zm-29 4.8s.2-3.5 3.4-8.2c3.8-5.5 9.8-6.7 10-7.5 0-.9-5-1.5-9.8 1.5a17 17 0 0 0-8 12.1c-.5 5.9 4.4 2.1 4.4 2.1"/><path fill="#ffd61c" d="M27.3 32.1c0 1.2-10.4 2.6-11.9 2.6s-3.1-1.4-2.6-3.4c.7-2.4 4.2-3 6.3-3 2.7 0 8 .2 8.2 3.8"/><path fill="#fffffe" d="M26.4 33.4s-3.8-1.3-8.4.2-6.4 3.7-7.5 7.9a22 22 0 0 0 1.3 12.3l9.2 6.1s7.5-5.8 7.2-6.5-1.8-20-1.8-20"/><path fill="#ffd61c" d="M12 48.3c-1 .6-2.1 3.3.5 7.7 2.5 4.1 4.6 4.8 6 3.3s-1.7-3.4-3.3-6.7c-.7-1.5-1.6-5.4-3.3-4.3"/><path fill="#fab16e" d="M20 49.6s-3.5-2.8-2-8.6 8.2-9.4 8.2-9.4-.4-8.3 7-11.3 15.6 4.2 15.6 4.2l4 21.1z"/><path fill="#d27857" d="M36.1 27.2c-.9 2.2-2.2 6.2.2 7s4.8-3.3 5.6-5.2 2-4.9-.3-6.1-4.4 1.7-5.5 4.3m-4-.5c-2-.2-3.3 2-3.2 5.6 0 2.6.6 4.3 2.6 4.3 2.3 0 2.5-3.3 2.6-5.2s.4-4.5-2-4.7M21 46c.8 1.4 3.7 2 7.3-.3 2.8-1.7 4-4 3.7-5.6-.4-1.5-4.1-2-7.3 0Q19.8 43.4 21 46"/><path fill="#543630" d="M44 18.3c-1.7.4-3.7 1.8-3.3 4.6.4 2.3 3.3 2.6 5.3 2.1 1.7-.3 4-2.5 3.5-4.7-.4-2.1-2.7-2.6-5.5-2m-8.7 21.8c1.5 2.8 5.5.5 7-.4 1.4-1 3-3 2.4-4.7s-3-2.4-6.1-.8-4.3 4-3.3 5.9"/><path fill="#6d4c41" d="M61.7 18.6s-3.2-.1-7.4 3C44.7 29 43 44.9 43 44.9L38.8 46s-2.5-.2-4.6.2C31.3 47 29 49 29 49l-8.4 12.2s4.3 2 10.7 1.3c3.8-.4 19.4.3 19.4.3s15.7-1.7 15.5-2-3.5-4.8-4.6-7.5 1-21.6 1-21.6l-1.2-6.5z"/><path fill="#ffd61c" d="M44 41c2.1.7 3.4-1.2 4-2.4.8-1.8 1.5-4 3.6-6 2.5-2.5 4.8-3.2 3.6-5.6-1.5-3-7.2 3-7.2 3s1.4-3 3.4-5c1.8-1.6.6-4.9-2.6-2.7s-5.4 5.9-6.2 8.7c-.7 2.4-1.3 9.1 1.3 10"/><path fill="#8d6256" d="M58.5 30.5c-2.6-.7-5 .7-6.7 5.2-1.2 3.1 0 6.4 2 6.9 3.2.9 6.6-3.9 6.9-7.1.3-3.3-.4-4.6-2.2-5m-21 17.4c.6 2 5.2 2.5 8 1.3 3.4-1.4 4.9-4.5 4-6.6S45 39.8 42 41.4s-5 3.8-4.3 6.5m9.6 5.8c.7 2.4 4 2.2 5.5 1.7s3.9-1.6 3.4-4.3-3.6-2.3-5.2-2-4.4 2.1-3.7 4.6m-17.7 3.1c.3 1.4 0 3.9-4.9 4.5-3.4.5-6.3-.1-6.6-2.7-.5-4.6 4.6-4.3 4.6-4.3s-4-.2-4.2-3.8c0-2.6 2.8-4.2 6.5-4.8s6.6.7 7 3.2c.7 3.8-5.1 5.5-5.1 5.5s2.3.8 2.7 2.4"/><path fill="#fab16e" d="M40.2 52.6c.2 3-3.5 3.8-6 3.7-1.9 0-5.5-1.2-4.8-4.1.8-3.4 5.3-3.3 7-3s3.7 1.5 3.8 3.4"/><radialGradient id="a" cx="79.7" cy="71.6" r="51.2" gradientUnits="userSpaceOnUse"><stop offset=".5" stop-color="#f8cd7f"/><stop offset=".6" stop-color="#fad593"/><stop offset=".8" stop-color="#fee4bb"/><stop offset="1" stop-color="#ffeaca"/></radialGradient><path fill="url(#a)" d="M19.5 68.7c2 1.7 10.1 9.5 13.5 11.7s10.1 5.8 21.5 3.4 17.5-8.8 20-11c2.4-2.1 3.3-4 3.3-4.2S59.5 59 53.7 59.3C48 59.8 37 64.1 31 65.1S11 62 11 62s4.9 3.6 8.4 6.6"/><radialGradient id="b" cx="79.6" cy="68.2" r="45.1" gradientUnits="userSpaceOnUse"><stop offset=".5" stop-color="#f8cd7f"/><stop offset=".6" stop-color="#fad593"/><stop offset=".8" stop-color="#fee4bb"/><stop offset="1" stop-color="#ffeaca"/></radialGradient><path fill="url(#b)" d="M63.1 50V27l2-11.5-2.5-6.3S73.5 22.1 77 27c3.7 5 7 8.5 7.7 11.5a41 41 0 0 1-.3 16.8c-1.7 6.7-4 10.1-4 10.1s-5.3-2.4-10.2-6.2S63 50 63 50"/><path fill="#f6c977" d="M73 34.7c-1.7.4-2.2 4.6-1.6 8 .6 3.6 1.6 6.2 4 5.8 2.5-.5 2-6 1.2-9.7s-2-4.5-3.6-4m-6.6 7.6c-1.7-.5-3.5 1.6-3.7 5.9s1.8 4.1 2.5 4.2 2.7-1.5 2.9-4.8c.1-2.6-.2-4.8-1.7-5.3M55 72.5a7 7 0 0 0-1.4 7.9c1.2 2 2.3 3.1 2.3 3.1s5.2-1.2 8-2.7c2.5-1.2 5.8-3.8 5.8-3.8s-5-5-8.6-5.7-5 .4-6 1.2"/><path fill="#f7bf5e" d="M76.3 55a5 5 0 0 0 2 4.6c1.6 1.3 5 0 3-3.8-1.8-3.7-4.7-2.8-5-.8"/><path fill="#f6c977" d="M36.8 72.1c-1.3 2-.7 5.6 4 7 3.3 1 5.6-.5 6.3-2s.7-5-4-6.5c-3.1-1-5.2-.2-6.3 1.5"/><radialGradient id="c" cx="46.6" cy="78.8" r="9.4" gradientUnits="userSpaceOnUse"><stop offset=".5" stop-color="#f6af3d"/><stop offset="1" stop-color="#f6af3d" stop-opacity="0"/></radialGradient><path fill="url(#c)" d="M38.6 74.4c-.5 1.6 1.1 3.5 4 3.8s4.2-.3 4.7-2-1.8-3.3-4.4-3.6q-3.4-.4-4.3 1.8"/><path fill="#f7bd5c" d="M56 76.6c-.7.9-.7 3.3 1.4 4.2s3.6-.3 3.9-1.3-.3-2.5-1.7-3.2c-1.2-.7-2.8-.7-3.6.3"/><radialGradient id="d" cx="66" cy="80.6" r="4.5" gradientTransform="rotate(246.272 32.135 132.537)scale(1 2.2878)" gradientUnits="userSpaceOnUse"><stop offset=".5" stop-color="#f6af3d"/><stop offset="1" stop-color="#f6af3d" stop-opacity="0"/></radialGradient><path fill="url(#d)" d="M60.3 82.2s-1-3.2 1.1-4.3 3.2.1 3.2.1.5-1.4 2.2-1.6 2.9.6 2.9.6-2.7 2-4.7 3.2c-2 1.1-4.8 2-4.8 2"/><radialGradient id="e" cx="82.6" cy="63.2" r="4.7" gradientUnits="userSpaceOnUse"><stop offset=".5" stop-color="#f6af3d"/><stop offset="1" stop-color="#f6af3d" stop-opacity="0"/></radialGradient><path fill="url(#e)" d="M83.2 59.6s-3.3-1.5-4.3.8 1.9 4.5 1.9 4.5l1.3-2.8c.6-1.2 1-2.5 1-2.5"/><radialGradient id="f" cx="64.7" cy="34.4" r="7.3" gradientUnits="userSpaceOnUse"><stop offset=".5" stop-color="#f6af3d"/><stop offset="1" stop-color="#f6af3d" stop-opacity="0"/></radialGradient><path fill="url(#f)" d="M67.7 27.9c-1.4 0-2.4 2.2-2.3 4s1 3.6 2.7 3.5c2.2-.1 2.3-2.4 2.3-4.2 0-1.4-.9-3.3-2.7-3.3"/><radialGradient id="g" cx="72.6" cy="40.4" r="9.2" gradientUnits="userSpaceOnUse"><stop offset=".5" stop-color="#f6af3d"/><stop offset="1" stop-color="#f6af3d" stop-opacity="0"/></radialGradient><path fill="url(#g)" d="M78.1 37q.3-1 0-2c-.2-1.6-1.6-3-3.3-2.4-1.8.6-1.8 3.3-1.3 4.4q.2.8 1 1.3a8 8 0 0 0-.3 3.6c.3 1.8 1 3.6 2.7 4.1q2.4.8 2.9-2.9c0-2-.2-5-1.7-6.1"/><path fill="#ffebc8" d="M47.7 57.9c-5.8 1.2-13.3 3.6-20.5 5s-14.7-1.5-16.5-1.7 5.4 5.1 6.8 5.8c1 .6 5.3 1.5 15.4-.8s14.2-4.2 18.7-4.1c6.9.1 11.5 1.2 17.2 4.6 5.2 3.1 5.8 4 7 5l2.9-3.7s-15.3-13.3-31-10m21.1-.1c-.2.5-3 0-4.9-1.2-2-1.3-3.7-5.1-4.2-9.9-.6-5.4.2-14.6 1.6-21.5s2.1-9.2 1.5-12.3c-.7-3.3-2.4-3.7-2.9-5.3-.3-1.1 3 1.7 4.5 3.3 5 5.5 1.3 9.5.4 17.6-.6 7-1.4 15.2.1 20.2s4 9 4 9"/></svg>