<svg xmlns="http://www.w3.org/2000/svg" width="1em" height="1em" viewBox="0 0 128 128"><path fill="#E0E0E0" d="M26.54 15.7s.79-4.27 2.36-6.74s4.16-5.28 4.94-4.94c.79.34 1.57 3.48 4.5 9.78s7.87 14.83 7.75 20.45s-2.25 8.43-2.25 8.43s-6.05 9.99-17.5 9.06c-9.3-.75-13.45-3.86-18.55-6.57c-2.13-1.13-4.75-1.25-4.97-2.38c-.22-1.12 1.1-2.95 2.14-4.16c1.75-2.04 5.46-3.28 6.93-5.91s1.48-6.62 3.86-9.97c4.42-6.19 10.79-7.05 10.79-7.05"/><path fill="#FFF" d="M33.23 13.68c-.91-.1-2.14 2.33-1.96 4.04s1.65 4.44 3.31 7.96c1.96 4.16 3.42 9.98 5.27 9.55c1.84-.43.37-6.18-1.22-10.59c-1.61-4.41-4.24-10.84-5.4-10.96m-4.06 21.38c1.49-.72.8-3.98-.37-7.96s-1.9-5.87-4.16-6.31c-2.2-.43-3.73.86-4.9 2.51s-2.02 3.61-1.96 4.71c.06 1.1.37 1.84 2.02 2.51c.99.4 2.5.88 3.98 1.84c1.71 1.1 3.73 3.49 5.39 2.7m-18.23 2c-1.6 0-4.29 2.08-3.8 3.61c.55 1.72 4.27 1.62 8.69 2.51c6.98 1.41 11.23 3.02 11.88.98c.43-1.35-5.2-3.61-8.63-4.78c-2.57-.86-6.18-2.32-8.14-2.32"/><path fill="#E0E0E0" d="M81.73 81.65c-4.85 5.17-7.37 12.51-2.6 21.25c3.73 6.82 8.65 9.22 11.68 14.07c3.03 4.85 2.67 7.81 3.45 7.74c.77-.07 3.24-2.53 4.5-5.21c1.27-2.67.77-5.07 2.04-6.61s5.49-1.76 7.95-4.71s2.11-5.42 4.36-7.74c2.25-2.32 5.56-3.03 7.81-5.63s4.29-5.91 3.8-6.68c-.49-.77-2.25-.35-7.46-1.9c-5.21-1.55-15.69-8.3-23.5-8.86c-5.49-.4-8.86.91-12.03 4.28"/><path fill="#FFF" d="M89.74 83.42c-.81 1.43 7.27 3.2 11.68 6s6.87 5.45 8.55 5.45s6.01-2.44 5.66-4.19s-3.19-1.7-4.42-2.07c-1.39-.43-7.46-3.33-9.55-4.25c-3.02-1.35-10.62-3.23-11.92-.94m-.43 6.46c-.82.92 1.55 3.47 5.69 7.89c4.49 4.8 6.63 6.44 8.59 4.49c1.78-1.78.31-3.87-3.33-6.61c-2.65-2-9.98-6.85-10.95-5.77m-1.55 7.68c-1.3.47 1.24 6.85 2.09 9.59c.85 2.75 2.48 6.19 4.18 6.19c1.7 0 3.33-2.09 3.06-4.22s-3.8-5.87-4.76-7.04c-1.36-1.66-3.72-4.83-4.57-4.52"/><path fill="#FF5960" d="M39.09 44.82c-6.47 6.72-8.63 13.58-7.9 22.97c.95 12.07 14.11 27.36 29.97 27.01c12.8-.28 20.09-6.7 23.41-11.37c3.06-4.3 7.29-10.97 6.22-21.12c-1.28-12.18-13.96-26.76-29.25-26.85c-12.22-.08-17.48 4.2-22.45 9.36"/><path fill="#FE7C84" d="M40.82 54c-4.42 9.69-9.69 12.85-9.69 12.85s.1 1.98.5 3.81c.47 2.15 1.22 3.85 1.22 3.85s5.65-4.17 9.13-10.22c3.78-6.57 6.2-12.13 7.15-17.09c.95-4.96 1.37-10.22 1.37-10.22s-1.67.52-3.67 1.56c-1.59.83-2.39 1.49-2.39 1.49s.07 5.89-3.62 13.97m16.52-18.37s.75 4.09-1.17 11.9c-.93 3.78-2.46 8.74-5.04 14.22c-2.31 4.92-4.53 8.43-6.46 11.34c-4.53 6.85-7.65 8.79-7.65 8.79s1.01 1.4 2.04 2.52s2.37 2.34 2.37 2.34s5.3-2.89 12.31-15.45s8.89-20.42 9.65-25.8c.77-5.38.64-9.89.64-9.89s-1.79-.16-3.33-.15c-1.91.01-3.36.18-3.36.18m13.69 1.76s-.45 15.85-7.47 29.7c-6.53 12.88-16.6 23.78-16.6 23.78s1.4.91 3.26 1.72c2.12.92 3.94 1.34 3.94 1.34s2.29-2.1 5.68-6.95c2.84-4.08 6.95-9.85 10.61-18.2c2.99-6.81 4.28-12 5.3-16.42c1.63-7.05 1.38-11.62 1.38-11.62s-1.11-.9-2.95-1.87c-1.79-.96-3.15-1.48-3.15-1.48m12.27 8.94s-.39 10.78-7.32 26.44c-2.69 6.07-5.04 9.94-7.32 13.26c-4.21 6.12-7.5 8.77-7.5 8.77s2.79-.09 5-.44c2.45-.39 4.37-1.02 4.37-1.02s5.57-5.68 10.86-17.37c5.08-11.22 6.78-22.35 6.78-22.35s-.75-1.76-2.17-3.82c-1.1-1.6-2.7-3.47-2.7-3.47"/><path fill="#FFF" d="M55.7 41.92c-5.44 1.19-10.95 5.01-12.33 8.46c-1.4 3.5 1.01 5.24 3.4 4.51c2.39-.74 5.61-4.19 10.76-5.11c5.15-.92 9.52-.41 11.68.18s3.93.42 4.38-1.24c.43-1.58-.43-3.71-4.06-5.57c-4-2.04-9.83-2.1-13.83-1.23"/><path fill="#FFF" d="M90.8 62.31c-1.28-12.18-13.96-26.76-29.25-26.85c-12.23-.08-17.49 4.21-22.46 9.37c-6.47 6.72-8.63 13.58-7.9 22.97c.95 12.07 14.11 27.36 29.97 27.01c12.8-.28 20.09-6.7 23.41-11.37c3.07-4.31 7.3-10.98 6.23-21.13m-9.54 18.63c-2.88 4.04-9.18 9.6-20.26 9.84c-13.72.3-25.11-12.93-25.94-23.38c-.64-8.12 1.23-14.06 6.83-19.88c4.3-4.47 8.85-8.17 19.43-8.1c13.23.08 24.21 12.7 25.31 23.24c.94 8.79-2.73 14.56-5.37 18.28" opacity=".5"/></svg>