<svg viewBox="0 0 128 128"><path fill="#e0e0e0" d="M26.5 15.7s.8-4.3 2.4-6.7 4.2-5.3 5-5c.7.4 1.5 3.5 4.4 9.8s8 14.8 7.8 20.4-2.3 8.5-2.3 8.5-6 10-17.5 9C17 51 13 48 7.8 45.2c-2.1-1.2-4.8-1.3-5-2.4s1.1-3 2.2-4.2c1.7-2 5.4-3.3 6.9-5.9s1.5-6.6 3.8-10c4.5-6.1 10.8-7 10.8-7"/><path fill="#fff" d="M33.2 13.7c-.9-.1-2.1 2.3-2 4s1.7 4.5 3.4 8c2 4.1 3.4 10 5.2 9.5s.4-6.1-1.2-10.6-4.2-10.8-5.4-11m-4 21.5c1.5-.8.8-4-.4-8s-1.9-5.9-4.2-6.3c-2.2-.4-3.7.9-4.9 2.5s-2 3.6-2 4.7.4 1.9 2.1 2.5q1.6.5 4 1.9c1.7 1 3.7 3.5 5.4 2.7m-18.3 2c-1.6 0-4.3 2-3.8 3.6s4.3 1.6 8.7 2.5c7 1.4 11.3 3 12 1 .3-1.4-5.3-3.6-8.7-4.8-2.6-.9-6.2-2.3-8.2-2.3"/><path fill="#e0e0e0" d="M81.7 81.7a17 17 0 0 0-2.6 21.2c3.8 6.8 8.7 9.2 11.7 14s2.7 7.9 3.5 7.8c.7 0 3.2-2.5 4.5-5.2s.7-5 2-6.6 5.5-1.8 8-4.7 2-5.4 4.3-7.8 5.6-3 7.8-5.6 4.3-5.9 3.8-6.7-2.2-.3-7.4-1.9-15.7-8.3-23.5-8.8c-5.5-.4-8.9.9-12 4.3"/><path fill="#fff" d="M89.7 83.4c-.8 1.4 7.3 3.2 11.7 6s6.9 5.5 8.6 5.5 6-2.5 5.6-4.2-3.2-1.7-4.4-2c-1.4-.5-7.5-3.4-9.5-4.3-3-1.4-10.7-3.3-12-1m-.4 6.5c-.8.9 1.6 3.5 5.7 7.9 4.5 4.8 6.6 6.4 8.6 4.5 1.8-1.8.3-4-3.3-6.6-2.7-2-10-6.9-11-5.8m-1.5 7.7c-1.3.4 1.2 6.8 2 9.6s2.5 6.1 4.2 6.1 3.4-2 3-4.2-3.7-5.8-4.7-7c-1.3-1.7-3.7-4.8-4.5-4.5"/><path fill="#ff5960" d="M39 44.8a27 27 0 0 0-7.8 23c1 12 14.1 27.3 30 27 12.8-.3 20-6.7 23.4-11.4 3-4.3 7.3-11 6.2-21-1.3-12.3-14-26.9-29.3-27a27 27 0 0 0-22.4 9.4"/><path fill="#fe7c84" d="M40.8 54c-4.4 9.7-9.7 12.9-9.7 12.9a27 27 0 0 0 1.8 7.6s5.6-4.2 9-10.2q5.8-9.8 7.2-17.1c1.4-7.3 1.4-10.2 1.4-10.2s-1.7.5-3.7 1.5L44.4 40s.1 6-3.6 14m16.5-18.4s.8 4.1-1.1 12A76 76 0 0 1 37 81.8a32 32 0 0 0 4.4 4.8s5.3-2.9 12.3-15.4 9-20.4 9.7-25.8c.8-5.4.6-9.9.6-9.9l-3.3-.2c-2 0-3.4.2-3.4.2M71 37.4s-.4 15.8-7.4 29.7C57 80 47 90.9 47 90.9a25 25 0 0 0 7.2 3s2.2-2 5.6-7a86 86 0 0 0 16-34.6c1.6-7 1.3-11.6 1.3-11.6s-1-.9-3-1.8c-1.7-1-3-1.5-3-1.5m12.2 9S82.9 57 76 72.7a74 74 0 0 1-14.8 22s2.7 0 5-.4c2.4-.4 4.3-1 4.3-1s5.6-5.7 10.9-17.4c5-11.3 6.8-22.4 6.8-22.4s-.8-1.7-2.2-3.8z"/><path fill="#fff" d="M55.7 42c-5.4 1.1-11 5-12.3 8.4s1 5.2 3.4 4.5 5.6-4.2 10.7-5.1 9.6-.4 11.7.2 4 .4 4.4-1.3c.4-1.6-.4-3.7-4-5.6-4-2-9.9-2-13.9-1.2"/><path fill="#fff" d="M90.8 62.3c-1.3-12.2-14-26.7-29.2-26.8A27 27 0 0 0 39 44.8a27 27 0 0 0-8 23c1 12 14.2 27.4 30 27a29 29 0 0 0 23.5-11.4c3-4.3 7.3-11 6.2-21m-9.5 18.5c-3 4-9.2 9.6-20.3 9.9-13.7.3-25.1-13-26-23.4-.6-8.1 1.3-14 6.9-19.9 4.3-4.4 8.8-8.1 19.4-8 13.2 0 24.2 12.6 25.3 23.2a25 25 0 0 1-5.3 18.2" opacity=".5"/></svg>