<svg viewBox="0 0 128 128"><path fill="#ed6c31" d="M55.5 70.7 4 110.7s-1.7 2.4-.3 4.5q2.4 3.3 14.2-2c7.2-3.2 25.6-12.7 34.5-18.7C59 90.1 69 84.4 75.2 78.6a16 16 0 0 0 5.4-8c2.8-9.7-2.5-13.8-2.5-13.8z"/><path fill="#ff8d02" d="M7 112.5c5.7-1 21-10.7 28.8-15.2s35-20.8 38.6-27.4c2-3.7 3-10.4-.1-14.6s-9-7.6-17.2-3.7C49.6 55.3 35 75 27.5 83.1A619 619 0 0 0 5 109.2c-1.2 1.6-1.4 2.4-1.4 2.4s1.3 1.3 3.5.9"/><path fill="#2f7c31" d="M80.8 42.4c-.3 1.7-2 3.4-5 6.1-4.1 3.7-5.8 3.4-6.5 5.3-.5 1.2.4 3.7 2.9 6.4q3.5 3.3 5 3c2-.4 3-3 7.2-6.5 3.1-2.5 4.2-3.4 5.7-3.3 1.6.1 3 1.6 4.6 3.3 2.5 2.6 7.4 5 12.4 3.3 6-2 6.3-7.6 6.9-8.2s5.2-.6 7.6-3.4 3.1-9.6 2-11.4-49-15.3-49-15.3-2 5.9-.6 10.2c2.4 6.7 7.3 7.2 6.8 10.5"/><path fill="#ffa726" d="M47 68.4c2.2 1.9 4.4.4 5.9-1 1.3-1.4 4.3-4.4 5.7-5.3s4-3 5.8-4.3 1.6-6-2.4-5.2c-2.4.4-5 2.6-8.1 5-2.4 2-5.2 5-6.3 6.6-1.2 1.6-1.7 3.1-.6 4.2m-9 9.8c-1.5-1.4-3-.4-5 1.8s-2.2 3.6-1 4.8c1.7 1.6 3.4-.4 4.8-2s2.8-3 1.2-4.6"/><path fill="#ed6c31" d="M59.5 63.7q-1.6 1.7.2 4 2.3 2.5 4.2 4.2c1.3 1 3 .6 3.5-.2q1.2-1.7-.5-3.6c-1-1-3-3.4-4.3-4.3-.9-.6-2.1-1-3.1-.1m-17.8 8c-1.6 1.4-.7 3.5.4 5.1 1.1 1.7 3 3.8 5 2.6s.3-4.8-.6-6.2c-1-1.4-2.9-3.2-4.8-1.5m-9.6 17c-1.4 1.6-.4 3.4 1.3 4.6s3.8 2 4.9.6-.3-3.4-1.7-4.3c-1.3-1-3.2-2.3-4.5-.8M14.9 99.5c-1.7 1.3-.5 3.7.3 4.7s2.3 2.4 3.8 1.1c1.4-1.2.6-3-.2-4.4-1.1-1.9-2.9-2.2-4-1.4"/><path fill="#709921" d="M88.4 16.3c.7-.2 8.1-9 19.4-3 10.8 5.7 5.9 14.9 6.3 15.5s5.2.4 7.8 4.4c2.9 4.2 2 6.6 2 6.6s-1 4-5.8 5c-3 .6-6.4-.8-7.4-.3s-.7 4.9-6.2 6.6c-3.5 1-10.6-.4-15.2-4.7-4.6-4.5-3-9.1-6-11.4-3.9-3.1-12.1-7.6-8.2-14.7 4.6-8.2 12.5-4 13.3-4"/></svg>