<svg xmlns="http://www.w3.org/2000/svg" width="1em" height="1em" viewBox="0 0 128 128"><path fill="#ED6C31" d="M55.46 70.67L4.01 110.71s-1.71 2.41-.27 4.5c1.45 2.09 6.33 1.55 14.21-1.99c7.14-3.21 25.54-12.74 34.49-18.7c6.57-4.38 16.59-10.13 22.77-15.92c2.86-2.67 4.47-4.72 5.39-7.91c2.82-9.79-2.47-13.85-2.47-13.85z"/><path fill="#FF8D02" d="M7.09 112.46c5.65-.99 20.94-10.66 28.73-15.13s34.9-20.88 38.54-27.43c2.03-3.66 3.01-10.39-.1-14.65s-9.03-7.58-17.14-3.64c-7.48 3.64-22.23 23.28-29.61 31.48C17.5 94.22 8.59 104.68 4.98 109.23c-1.23 1.54-1.4 2.34-1.4 2.34s1.33 1.28 3.51.89"/><path fill="#2F7C31" d="M80.8 42.38c-.26 1.76-2.01 3.37-5.09 6.13c-4.05 3.64-5.71 3.43-6.44 5.3c-.45 1.17.47 3.67 2.91 6.34c2.18 2.39 4.17 3.16 4.99 3.01c1.99-.35 3.12-3.01 7.27-6.44c3.08-2.54 4.16-3.43 5.71-3.32c1.56.1 2.89 1.57 4.57 3.32c2.49 2.6 7.36 4.94 12.41 3.25c6.01-2.02 6.25-7.6 6.87-8.22c.62-.62 5.23-.53 7.62-3.34c2.39-2.8 3.08-9.59 2.04-11.46c-1.04-1.87-49.1-15.24-49.1-15.24s-2.04 5.89-.52 10.18c2.4 6.75 7.24 7.2 6.76 10.49"/><path fill="#FFA726" d="M47.04 68.35c2.14 1.94 4.36.42 5.82-1.04c1.31-1.31 4.36-4.26 5.71-5.19c1.35-.93 4.05-3.01 5.82-4.36c1.77-1.35 1.57-5.88-2.39-5.19c-2.39.42-5.09 2.6-8.1 5.09c-2.38 1.97-5.19 4.99-6.34 6.54c-1.14 1.55-1.66 3.11-.52 4.15m-9.07 9.89c-1.47-1.47-2.88-.47-4.88 1.71s-2.24 3.69-1.06 4.82c1.65 1.59 3.41-.41 4.82-2c1.41-1.59 2.77-2.88 1.12-4.53"/><path fill="#ED6C31" d="M59.45 63.7c-1.07.94-.99 2.57.25 3.97c1.51 1.7 2.96 3.15 4.23 4.23c1.26 1.07 2.9.57 3.47-.19c.78-1.04.63-2.4-.5-3.6c-.96-1.01-3.09-3.41-4.35-4.35c-.83-.61-2.09-.94-3.1-.06m-17.79 8.02c-1.55 1.35-.69 3.47.44 5.11c1.14 1.64 2.96 3.78 5.05 2.52s.25-4.73-.69-6.12c-.95-1.39-2.85-3.22-4.8-1.51M32.1 88.79c-1.39 1.52-.37 3.27 1.26 4.48c1.7 1.26 3.85 2.02 4.92.63c1.07-1.39-.32-3.41-1.64-4.35c-1.32-.95-3.21-2.21-4.54-.76M14.85 99.53c-1.67 1.27-.5 3.66.32 4.67s2.33 2.4 3.78 1.14c1.41-1.23.6-3.13-.19-4.48c-1.07-1.83-2.84-2.15-3.91-1.33"/><path fill="#709921" d="M88.39 16.25c.76-.13 8.16-8.86 19.38-2.95c10.83 5.7 5.93 14.89 6.33 15.47s5.17.4 7.83 4.39c2.85 4.28 2 6.65 2 6.65s-1.03 4-5.84 4.95c-3.04.6-6.42-.77-7.37-.29s-.72 4.91-6.23 6.62c-3.5 1.09-10.55-.35-15.15-4.72c-4.67-4.43-3.08-9.11-5.95-11.37c-3.99-3.14-12.21-7.58-8.24-14.69c4.56-8.17 12.49-3.93 13.24-4.06"/></svg>