<svg viewBox="0 0 128 128"><path fill="#ffe265" d="M48.2 68.5 6.7 70s-2.6-2.7-2.2-3.6 34.7-27.8 36-27.6 4.3 3.4 6.8 2.2 0-7.7.7-8.6c.8-1 27.6-15.4 29.3-16.1s3.2-2.5 6.6-1.7 11.8 2.2 21 8.4 18.7 13.4 18 17.3-74.7 28.2-74.7 28.2"/><path fill="#feb502" d="M19.5 115.6c9.2-1.2 95-19.5 98.5-20.1s5.8-4 5.8-7.7l-1-47.5s-4 1.3-9 2.4C109 44 69 53.7 53.4 57.2s-41 10.1-43.8 10.1-5-1-5-1 .7 39.1.9 42 1.5 6.1 4.7 7 5.2.8 9.4.3"/><path fill="#ff8b0d" d="M75 25.6c0 2.4 2.4 4 6.5 3.8 4.4-.1 5.6-2.7 5.4-4.4s-2.1-3.2-6.2-3.1c-3.7 0-5.7 1.6-5.7 3.7"/><path fill="#ed6b31" d="M30 55.5c-6.6 2.2-5.8 7.9-4 9.1s4.5 1.2 7.4.2 4.9-2.3 5.2-4.3c.3-1.9-2.2-7.2-8.7-5m59-16.3c-4.3.2-9.1 3.3-10.9 6.4s-2 6.9 2.3 9.2 19.8-3.6 19-9c-.7-5.5-5.7-6.8-10.3-6.6M73.8 83.1s6.2-4.6 6.2-7.8-2.6-11-14-11.5c-10.6-.6-17.2 14-10.2 21.4s11.2 4 13.8 3.4 4.2-5.5 4.2-5.5M43.2 96s6.2-3.9 1.5-8c-3.4-3-7.8-1.7-10 .6-3 3-2.2 7.7.5 9.8s8-2.4 8-2.4M22.4 78.8s-.7-2.2-3.2-3.1c-2.8-1-7 2.5-5.2 6.2 1.6 3.4 5.2 2.4 5.2 2.4zm90 3.2c.6-.6 4.6-3.5 4.6-5.7s-6-9-13.7-3.9-3.6 12.8-1.5 14 8-1.5 10.6-4.4"/><path fill="#ff8b0d" d="M30.9 59c-4.3 1.4-6 4.4-4.8 5.6 1 1.3 3.5 2.1 7.8.6 3.4-1.2 5-3.2 4.8-5-.3-1.3-4-2.6-7.8-1.3M16.6 78.6c-1.9 2.4-.3 5 1.4 5.7s4.9-1.3 4.7-4.5c-.2-3.1-4.4-3.3-6-1.2m21.7 12.8c-4 3.2-4.2 6.4-2.6 7.5 1 .8 5 2.3 8.7-.3 2.7-2 2.7-6.2 1.9-8.2-.7-1.7-4.6-1.8-8 1m24.4-17.8c-5.4 5.2-6.7 13.7-1.4 15.7a14 14 0 0 0 15.3-4.1c4.1-5.1 4.5-10.8 1.9-14-3.2-4-11.7-1.6-15.8 2.4m24.4-29.2c-7 2.4-11.2 7.5-7.6 10 3.6 2.6 7.3 2.2 11.4.8 4.7-1.6 8.2-5.2 8.3-8.7.1-2.8-5.9-4.2-12-2M106 76.7c-4.8 3.9-6.2 7.8-4.2 9.6s6.7 2.7 11-.3c4.6-3.2 5-6.7 4.4-9.6-.5-3.2-6.3-3.7-11.2.3"/></svg>