<svg xmlns="http://www.w3.org/2000/svg" width="1em" height="1em" viewBox="0 0 128 128"><path fill="#FFE265" d="M48.18 68.45L6.7 69.95s-2.63-2.63-2.25-3.57S39.18 38.6 40.49 38.79s4.32 3.38 6.76 2.25c2.44-1.13 0-7.7.75-8.63c.75-.94 27.59-15.39 29.28-16.14c1.69-.75 3.19-2.44 6.57-1.69s11.83 2.25 21.02 8.45s18.77 13.33 18.02 17.27c-.75 3.94-74.71 28.15-74.71 28.15"/><path fill="#FEB502" d="M19.46 115.57c9.2-1.13 94.98-19.52 98.55-20.08c3.57-.56 5.82-3.94 5.82-7.7s-.94-47.49-.94-47.49s-4.13 1.31-9.01 2.44C109 43.86 69.01 53.62 53.25 57.19S12.33 67.33 9.51 67.33s-5.07-.94-5.07-.94s.75 39.04.94 41.86c.19 2.82 1.5 6.19 4.69 7.13s5.27.69 9.39.19"/><path fill="#FF8B0D" d="M74.97 25.56c0 2.4 2.44 3.99 6.48 3.87c4.41-.13 5.63-2.75 5.49-4.43c-.14-1.69-2.17-3.17-6.19-3.1c-3.73.07-5.78 1.55-5.78 3.66"/><path fill="#ED6B31" d="M29.92 55.48c-6.5 2.19-5.77 7.88-3.87 9.15c1.9 1.27 4.43 1.2 7.39.14s4.84-2.27 5.14-4.25c.28-1.88-2.18-7.23-8.66-5.04m59.06-16.26c-4.36.2-9.18 3.33-10.98 6.34c-1.9 3.17-2.04 6.9 2.32 9.22c4.36 2.32 19.78-3.59 19.01-9.01c-.77-5.43-5.77-6.76-10.35-6.55M73.85 83.07s6.19-4.58 6.19-7.81c0-3.24-2.67-10.89-14.01-11.47c-10.63-.55-17.18 13.94-10.21 21.4c6.97 7.46 11.19 4.08 13.8 3.38c2.61-.71 4.23-5.5 4.23-5.5M43.23 96.09s6.15-3.85 1.43-8.07c-3.32-2.97-7.76-1.63-10.02.68c-2.89 2.96-2.11 7.67.56 9.78c2.68 2.12 8.03-2.39 8.03-2.39M22.39 78.78s-.7-2.21-3.21-3.1c-2.82-1-7.03 2.51-5.23 6.26c1.62 3.38 5.21 2.39 5.21 2.39zm90.03 3.23c.61-.66 4.6-3.54 4.6-5.73c0-2.18-6.01-8.92-13.68-3.85s-3.66 12.74-1.55 14.01c2.11 1.27 7.96-1.54 10.63-4.43"/><path fill="#FF8B0D" d="M30.86 58.93c-4.27 1.48-5.88 4.5-4.81 5.7c1.13 1.27 3.59 2.11 7.88.56c3.32-1.2 5-3.21 4.72-5c-.2-1.3-3.92-2.6-7.79-1.26m-14.24 19.7c-1.87 2.34-.35 5 1.41 5.63c1.76.63 4.86-1.27 4.65-4.43c-.22-3.17-4.37-3.31-6.06-1.2m21.75 12.75c-4.02 3.26-4.13 6.45-2.58 7.53c1.08.76 5.06 2.34 8.7-.35c2.7-1.99 2.75-6.17 1.9-8.17c-.71-1.7-4.64-1.76-8.02.99m24.4-17.77c-5.38 5.23-6.66 13.72-1.38 15.72c4.65 1.76 11.33.7 15.27-4.15c4.14-5.1 4.58-10.73 1.92-14.05c-3.18-3.99-11.65-1.55-15.81 2.48m24.45-29.18c-7.04 2.39-11.19 7.46-7.6 10c3.59 2.53 7.32 2.16 11.4.77c4.63-1.57 8.17-5.21 8.31-8.66c.11-2.83-5.91-4.22-12.11-2.11m18.8 32.37c-4.79 3.9-6.19 7.81-4.22 9.64s6.69 2.67 11.05-.35c4.53-3.14 4.86-6.7 4.36-9.57c-.56-3.23-6.27-3.73-11.19.28"/></svg>