<svg xmlns="http://www.w3.org/2000/svg" width="1em" height="1em" viewBox="0 0 128 128"><path fill="#af0c1a" d="m79.05 78.15-13.17-2.32s-.57.46-2.15 2.38-3.16 5.46-3.16 5.46l-31.52-6.3s-14.21 9.19-10.62 27.77c3.2 16.53 17.55 20.18 25.44 20.34 16.68.34 24.36-12.12 24.36-12.12s16.24 12.16 31.89 1.69c16-10.7 10.18-31.63 6.46-34.45-3.25-2.45-27.53-2.45-27.53-2.45"/><path fill="#dc0d27" d="M44.45 73.13c-13.97-.11-21.48 7.22-22.08 16.56-.56 8.68 5.3 21.07 20.96 22.08s25.8-10.7 24.34-20.39c-1.31-8.6-8.91-18.14-23.22-18.25m34.14 26.14s-1.69-7.1-4.96-12.84c-3.27-5.75-7.77-10.59-7.77-10.59s9.16-9.16 22.79-7.13 19.8 14.57 19.8 14.57-1.33 11.43-9.92 16c-12.05 6.41-19.94-.01-19.94-.01"/><path fill="#ff605f" d="M71.61 75.61c-1.42 1.32.03 6.21 4.42 9.14s8.87 3.7 10.68.55c1.8-3.15-.56-5.44-3.38-6.54-1.84-.72-3.53-.55-5.67-2.24s-4.46-2.4-6.05-.91m17.71 3.48c-.78 1.88 1.97 4.03 4.03 3s2.06-3.6-.6-4.37c-2.28-.66-3.01.35-3.43 1.37M41.4 95.89c1.22 3.14 5.66 1.29 8.14-.17 2.49-1.46 3.34-3.43 2.57-5.31s-4.2-2.23-7.11-.77c-2.36 1.18-4.8 3.17-3.6 6.25M30.77 78.24c-3.87 2.29-4.11 6.54-3.51 7.89 1.54 3.51 3.34 3.26 4.46 5.06 1.11 1.8 2.82 5.33 5.23 4.97 3.43-.51 3.17-4.97 2.06-7.8-.83-2.11-1.8-4.2-1.97-6.86-.18-2.66-.18-6.86-6.27-3.26"/><path fill="#759937" d="M15.17 19.6c-1.29 3.35 1.03 5.79 3.51 7.03 2.71 1.35 5.67 1.35 5.67 1.35s8.51 10.13 12.43 22.56c3.66 11.6 4.96 25.24 4.73 27.56-.27 2.7-.41 5.27.27 6.22 1.34 1.88 4.73 1.49 5.4.14.95-1.89-.14-6.22-.14-6.22s-.41-15.67-4.32-28.1-8.92-19.59-8.92-19.59 16.97 4.62 27.97 14.73C78.4 60.54 80.16 69.56 80.16 69.56s.09 4.49 1.17 5.84 6.02.54 6.16-1.49-1.27-5.73-1.27-5.73-4.16-14.83-21.99-28.31C48.19 27.75 28.55 23.11 28.55 23.11s-2.01-3.03-5.27-4.73c-2.85-1.48-6.9-1.93-8.11 1.22"/><path fill="#366918" d="M26.81 23.32c-.54-1.22 1.47-7.82 11.47-13.09s21.39-6.88 36.09-6.64c16.51.27 24.18 2.8 24.49 3.79.32 1.02-7.67 6.52-7.67 6.52l-26.42 7.8-25 3.24z"/><path fill="#518e30" d="M66.65 28.92c21.01-3.99 32.13-20.1 32.13-21.09 0-.12-1.33.14-3.08.55-1.76.41-17.17 4.76-25 6.89-8.92 2.43-20.55 4.58-24.59 5.13-5.95.81-19.05 2.97-19.05 2.97s15.9 10.05 39.59 5.55"/></svg>