<svg viewBox="0 0 128 128"><path fill="#af0c1a" d="m79 78.2-13-2.4s-.6.5-2.2 2.4-3.1 5.5-3.1 5.5L29 77.4S14.8 86.6 18.4 105c3.2 16.6 17.6 20.2 25.5 20.4 16.6.3 24.3-12.1 24.3-12.1s16.3 12.1 32 1.6c16-10.7 10.1-31.6 6.4-34.4-3.3-2.4-27.6-2.4-27.6-2.4"/><path fill="#dc0d27" d="M44.5 73.1c-14 0-21.5 7.3-22.1 16.6-.6 8.7 5.3 21 21 22S69 101.2 67.6 91.5c-1.3-8.6-9-18.2-23.2-18.3m34 26.2s-1.6-7.1-4.9-12.9A62 62 0 0 0 66 75.8s9.1-9.1 22.8-7 19.8 14.5 19.8 14.5-1.4 11.4-10 16c-12 6.4-20 0-20 0"/><path fill="#ff605f" d="M71.6 75.6c-1.4 1.3 0 6.2 4.4 9.2s8.9 3.7 10.7.5c1.8-3.1-.5-5.4-3.4-6.5-1.8-.8-3.5-.6-5.6-2.3s-4.5-2.4-6-.9m17.6 3.5c-.8 1.9 2 4 4 3s2.1-3.6-.5-4.4c-2.3-.6-3 .4-3.5 1.4M41.4 95.9c1.2 3.1 5.7 1.3 8.1-.2q3.8-2.3 2.6-5.3c-1.2-3-4.2-2.2-7.1-.8-2.4 1.2-4.8 3.2-3.6 6.3M30.8 78.2c-3.9 2.3-4.1 6.6-3.5 8 1.5 3.4 3.3 3.2 4.4 5s2.8 5.3 5.3 5c3.4-.6 3.1-5 2-7.8-.8-2.2-1.8-4.2-2-6.9s-.1-6.9-6.2-3.3"/><path fill="#759937" d="M15.2 19.6c-1.3 3.4 1 5.8 3.5 7 2.7 1.4 5.7 1.4 5.7 1.4s8.5 10 12.4 22.5a107 107 0 0 1 4.7 27.6c-.3 2.7-.4 5.3.3 6.2 1.3 1.9 4.7 1.5 5.4.2 1-2-.2-6.3-.2-6.3s-.4-15.6-4.3-28-8.9-19.6-8.9-19.6 17 4.6 28 14.7c16.6 15.2 18.4 24.3 18.4 24.3s0 4.5 1.1 5.8 6 .5 6.2-1.5-1.3-5.7-1.3-5.7-4.1-14.8-22-28.3C48.2 27.8 28.5 23 28.5 23s-2-3-5.2-4.7c-2.9-1.5-7-2-8.1 1.2"/><path fill="#366918" d="M26.8 23.3c-.5-1.2 1.5-7.8 11.5-13s21.4-7 36-6.7C91 3.9 98.7 6.4 99 7.4s-7.7 6.5-7.7 6.5l-26.4 7.8-25 3.2z"/><path fill="#518e30" d="M66.7 29c21-4 32-20.2 32-21.2l-3 .6-25 6.9c-9 2.4-20.5 4.6-24.6 5.1-6 .8-19 3-19 3s15.9 10 39.6 5.5"/></svg>