<svg xmlns="http://www.w3.org/2000/svg" width="1em" height="1em" viewBox="0 0 128 128"><radialGradient id="notoChestnut0" cx="63.345" cy="19.241" r="79.421" gradientTransform="matrix(.00317 1 -2.5368 .00805 111.955 -44.258)" gradientUnits="userSpaceOnUse"><stop offset=".348" stop-color="#A82209"/><stop offset="1" stop-color="#543121"/></radialGradient><path fill="url(#notoChestnut0)" d="M62.53 15.12c-3.27.16-8.43 5.56-8.43 5.56s-3.13 2.43-6.99 4.52C43.9 26.94 21.47 36 10.31 53.64C1.95 66.87-.68 85.77 13.64 101.92s34.96 15.32 34.96 15.32s24.64 1.17 34.47-.67c8.29-1.55 17.68-3.39 17.68-3.39s21.96-10.04 23.48-36.92c1.36-24.05-16.56-36.4-25.94-41.85c-5.26-3.05-18.22-9.94-23.31-13.81c-7.92-6.01-8.74-5.66-12.45-5.48"/><path fill="#F5B03E" d="M64.17 27.79s3.15-3.58 4.89-5.21c1.74-1.63 4.13-3.37 4.13-3.37s-4.78-4.02-5.97-5.54c-1.19-1.52-3.04-4.89-4.23-4.89c-1.19 0-2.61 4.13-4.02 6.08c-1.41 1.95-4.99 5.86-4.99 5.86s3.69 1.74 5.43 3.04c1.72 1.32 4.76 4.03 4.76 4.03"/><path fill="#CF701E" d="M50.6 106.67c-8.75.2-19.94 7.11-19.94 7.11s9.81 6.76 36.56 6.17c26.75-.59 35.54-7.89 35.54-7.89s-8.4-6.57-18.33-6.87c-8.16-.24-9.74 2.36-17.7 2.56c-7.97.2-7.37-1.28-16.13-1.08"/><path fill="#543121" d="M44.93 38.64C42.59 37.91 34.26 49.22 31 59.98c-2.92 9.66-2.39 18.79-.15 26.87c1.61 5.8 8.14 18.32 10.72 18.21c2.58-.11-6.31-12.63-6.46-28.78c-.17-18.55 3.08-22.47 5.87-28.19c1.05-2.14 5.74-8.89 3.95-9.45m16.84 7.39c-1.59 0-5.39 8.31-5.28 27.74c.09 16.3.84 25.92 4.15 28.07c2.25 1.46 1.28-22.57 1.24-27.96c-.11-12.24 2.03-27.85-.11-27.85m16.62-6.38c-1.91.9 1.01 7.3 2.7 17.86c1.06 6.66 1.91 22.12 1.12 28.86c-.79 6.74-3.82 15.05-.34 15.16s6.85-10.56 5.95-29.87c-.89-19.32-7.65-32.84-9.43-32.01m21.69 8.09c-2.02 1.35 3.48 9.88 4.15 24.26c.67 14.37-5.17 31.11-3.14 31.11c2.02 0 7.41-12.13 8.2-24.71c.97-15.59-7.11-32.06-9.21-30.66"/><path fill="#D06150" d="M34.61 40.56c-1.78-1.61-10.06-.17-17.76 13.13c-6.46 11.15-4 18.89.34 19.65c6.4 1.12 5.69-7.45 10.33-16.73c4.22-8.44 8.97-14.35 7.09-16.05M51 41.68c-2.46-.86-4.47 4.91-5.39 8.09c-.77 2.65-1.36 6.9 2.13 7.52c3.88.7 4.39-4.37 4.6-8.09c.17-2.91.9-6.73-1.34-7.52"/></svg>