<svg viewBox="0 0 128 128"><radialGradient id="a" cx="63.3" cy="19.2" r="79.4" gradientTransform="rotate(89.818 78.177 34.026)scale(1 2.53681)" gradientUnits="userSpaceOnUse"><stop offset=".3" stop-color="#a82209"/><stop offset="1" stop-color="#543121"/></radialGradient><path fill="url(#a)" d="M62.5 15.1c-3.2.2-8.4 5.6-8.4 5.6s-3.1 2.4-7 4.5C44 26.9 21.5 36 10.3 53.6 2 67-.7 85.8 13.6 102s35 15.3 35 15.3 24.6 1.2 34.5-.6l17.7-3.4s22-10 23.4-37c1.4-24-16.5-36.3-26-41.8-5.2-3-18.1-10-23.2-13.8-8-6-8.8-5.7-12.5-5.5"/><path fill="#f5b03e" d="M64.2 27.8s3.1-3.6 4.9-5.2l4-3.4s-4.7-4-5.9-5.5-3-5-4.2-5-2.6 4.2-4 6.2-5 5.8-5 5.8 3.7 1.8 5.4 3z"/><path fill="#cf701e" d="M50.6 106.7c-8.7.2-20 7-20 7s9.9 6.8 36.6 6.2 35.6-7.8 35.6-7.8-8.4-6.6-18.4-7c-8.1-.1-9.7 2.5-17.7 2.7s-7.3-1.3-16.1-1.1"/><path fill="#543121" d="M45 38.6C42.5 38 34.2 49.2 31 60c-3 9.6-2.4 18.8-.1 26.9 1.6 5.7 8 18.3 10.7 18.2S35.3 92.4 35 76.3c0-18.6 3.1-22.5 6-28.3 1-2.1 5.7-8.9 4-9.5M61.7 46c-1.6 0-5.4 8.3-5.3 27.8 0 16.3.8 25.9 4.1 28 2.3 1.5 1.3-22.5 1.3-28-.1-12.2 2-27.8-.1-27.8m16.6-6.4c-2 1 1 7.3 2.7 18 1 6.6 1.9 22 1.1 28.8s-3.8 15-.3 15.1 6.8-10.5 6-29.8c-1-19.4-7.7-32.9-9.5-32m21.7 8c-2 1.4 3.5 10 4.1 24.3.7 14.4-5.1 31.1-3.1 31.1s7.4-12.1 8.2-24.7c1-15.6-7.1-32-9.2-30.7"/><path fill="#d06150" d="M34.6 40.6c-1.8-1.6-10-.2-17.8 13-6.4 11.2-4 19 .4 19.7 6.4 1.2 5.7-7.4 10.3-16.7 4.2-8.4 9-14.3 7.1-16m16.4 1c-2.5-.8-4.5 5-5.4 8.2-.8 2.6-1.4 6.9 2.1 7.5 4 .7 4.4-4.4 4.6-8.1.2-3 1-6.7-1.3-7.5"/></svg>