<svg viewBox="0 0 128 128"><path fill="#50352f" d="M9.2 43.3s-2.7 1.4-3.7 2.6q-1.7 1.6-1.6 3.6c.4 2.8 10 10 16.5 16.6 5.5 5.5 17.3 15.8 17.3 15.8l5.6-5.8-9.6-12.4z"/><path fill="#865c50" d="m79.9 37.5-16.3-17C59 15.9 49.8 5.6 48.8 4.9s-3.5-1.2-5 .3L28.3 21.6 5.5 45.9s2-1.2 4 .7l31.3 30.7 27.4-10.8z"/><path fill="#50352f" d="M46.7 73.8 17.7 46q-.7-.9 0-1.8L46 14.4q.3-.3.9-.3.4 0 .9.3l27.6 28-1.8 1.8L47 17.1 20.3 45l28 26.8z"/><path fill="#50352f" d="m33 31.1 1.8-1.8L60.4 55l-1.7 1.8z"/><path fill="#50352f" d="m28.2 54.3 28-29.6 1.8 1.7L30 56zM39 64.5l26.8-29 1.8 1.7-26.8 29z"/><path fill="#dc0d28" d="m48.4 80.7-.7 7 14.4 14.7c4 4.1 17.8 16.3 17.8 16.3s6.8-3.2 7-3.9 34.8-37.4 34.8-37.4L104.4 60C99.9 55.4 90 44 90 44z"/><path fill="#b0091b" d="m90.2 52.6 3.5 6.4c.5 1.1 1.3 3 0 3.5-1.7.7-15.7 3.8-15.7 3.8s-.3 14.1-1.7 15.6c-1.7 1.6-24.4 3.7-25.1 3.8-1.4.2-.2 1.4.6 2.4l29.7 28.5-1.5 5.8-2.9-2.4-18-17.5c-9.3-9-17.3-17.3-17.3-17.3l43-36z"/><path fill="#b0b3af" d="m83.9 116-2.9.3-3.9 3.7s3 3.8 4.6 4 19.3-19.2 24.7-24.5 18.3-18.6 18.3-19c0-1.2-3-3.1-3-3.1z"/><path fill="#e4e0e8" d="M83.6 118.7c.3-.6 39.8-40 39.8-40l-2.5-2.1L81 116.3z"/><path fill="#e0e0e0" d="m66 46 8.4-3.6 4.8-6c.5-.5 6.6-1 6.6-1l5.2 4.2 1.4 5.8c.2 1 2.2 8.5 1.4 10.7-.7 2-16 5.5-17.6 6-1 .2-.7.9-.9 2.4-.1 1-.5 11.7-1.4 12.9S64 80 60.8 80.6L47.4 83l-3 4.4s.4 1.6-.7 2.1c-1 .5-3.8-.8-4.3-1.4s-4.1-7-3.7-8 4.3-6.4 5-6.8c.7-.5 6.2-1.8 6.2-1.8s5.2-13.7 6.3-14.8C54 56 63.4 52 63.4 52z"/><path fill="#fff" d="M68.3 48.8c-.7 0-2.1 7.8-2 8.3.3.4 14.4.2 14.5-1s-10.4-7.4-12.5-7.3m20.4-6c.3.9-3 4-3.3 4S78 45 77.8 43.4c-.2-1.4 4-1.2 5.9-1.2 1.8 0 4.8 0 5 .6M55 60.6c-1.4-.7-4.6 8.2-5 9.3-.6 1.4 2.4 2 4.1 2a45 45 0 0 0 11.5 0c.3-1.3-8.6-10.4-10.6-11.3M41.8 75.9c-1.3.6 2.3 11.4 2.6 11.4s3-4.4 3-4.4-4.2-7.6-5.6-7"/></svg>