<svg xmlns="http://www.w3.org/2000/svg" width="1em" height="1em" viewBox="0 0 128 128"><path fill="#50352f" d="M9.15 43.27S6.54 44.7 5.5 45.88c-1.04 1.17-1.77 2.21-1.56 3.65.39 2.74 9.9 10.03 16.42 16.55 5.54 5.54 17.33 15.77 17.33 15.77l5.6-5.73-9.64-12.38z"/><path fill="#865c50" d="M79.9 37.54S69.86 27.07 63.6 20.59C58.98 15.81 49.78 5.47 48.81 4.82s-3.56-1.19-5.07.32C42.22 6.66 32.29 17.46 28.4 21.56S5.54 45.86 5.54 45.86s2.02-1.2 3.97.74c1.35 1.35 31.31 30.66 31.31 30.66l27.42-10.8z"/><path fill="#50352f" d="M46.65 73.75 17.71 46c-.5-.48-.51-1.27-.04-1.76l28.4-29.8c.23-.25.56-.38.89-.39.36.01.66.13.9.37L75.5 42.49l-1.78 1.75-26.73-27.15-26.65 27.97 28.04 26.88z"/><path fill="#50352f" d="m33.03 31.104 1.764-1.771 25.655 25.553-1.764 1.772z"/><path fill="#50352f" d="m28.245 54.301 27.926-29.595 1.818 1.716-27.925 29.595zm10.642 10.243 26.799-29.06 1.838 1.695-26.799 29.06z"/><path fill="#dc0d28" d="m48.44 80.65-.71 7.01S58.1 98.33 62.06 102.4s17.79 16.27 17.79 16.27 6.81-3.15 7.01-3.86 34.87-37.41 34.87-37.41-12.71-12.81-17.28-17.38-14.54-15.96-14.54-15.96z"/><path fill="#b0091b" d="M90.22 52.59s2.95 5.29 3.46 6.4c.51 1.12 1.29 3 .01 3.52-1.73.71-15.66 3.74-15.66 3.74s-.3 14.19-1.78 15.66c-1.63 1.63-24.34 3.7-25.07 3.81-1.42.2-.2 1.42.61 2.34.81.91 29.68 28.57 29.68 28.57l-1.42 5.79-2.95-2.44s-8.7-8.45-17.95-17.5-17.32-17.26-17.32-17.26l43-36.09z"/><path fill="#b0b3af" d="m83.89 115.96-2.85.3-3.94 3.73s2.97 3.79 4.61 3.97 19.27-19.18 24.64-24.46c5.36-5.27 18.32-18.6 18.32-19.09 0-1.09-2.93-3.02-2.93-3.02z"/><path fill="#e4e0e8" d="M83.58 118.72c.27-.64 39.83-40.04 39.83-40.04l-2.46-2.1-39.91 39.68z"/><path fill="#e0e0e0" d="m66 45.99 8.38-3.58s4.3-5.59 4.81-6.1 6.63-.94 6.63-.94l5.14 4.24s1.21 4.76 1.42 5.79c.2 1.02 2.21 8.52 1.41 10.71-.73 2-16.05 5.48-17.62 5.92-.91.26-.69.96-.87 2.46-.11.92-.46 11.75-1.38 12.87s-9.95 2.65-13.12 3.27c-1.78.35-13.36 2.3-13.36 2.3l-2.99 4.34s.31 1.63-.72 2.15c-1.02.51-3.8-.82-4.31-1.43s-4.14-7.06-3.73-7.98 4.33-6.45 5.04-6.86c.72-.41 6.17-1.71 6.17-1.71s5.19-13.74 6.35-14.82c.69-.64 10.1-4.69 10.1-4.69z"/><path fill="#fff" d="M68.25 48.8c-.7.04-2.09 7.76-1.89 8.26.21.49 14.29.25 14.42-.9.12-1.16-10.37-7.49-12.53-7.36m20.43-6.01c.33.9-3.04 3.98-3.29 4.03s-7.38-1.87-7.6-3.41c-.21-1.44 4.05-1.23 5.86-1.23 1.82-.01 4.83.06 5.03.61M55 60.58c-1.45-.69-4.65 8.24-5.09 9.37-.53 1.36 2.48 1.89 4.23 2.04 2.56.21 11.24.64 11.43-.08.32-1.28-8.6-10.39-10.57-11.33M41.81 75.9c-1.31.58 2.27 11.37 2.6 11.37s3.03-4.39 3.03-4.39-4.26-7.58-5.63-6.98"/></svg>