<svg xmlns="http://www.w3.org/2000/svg" width="1em" height="1em" viewBox="0 0 128 128"><path fill="#E0E0E0" d="m63.46 15.98l1.21 6.44l-9.83-5.06l-6.89-1.29S36.86 35.1 33.12 43.52c-7.72 17.37-4.82 28.19-4.61 34.95c.15 4.61-1.39 7.4-2.36 9.43c-.96 2.04-6.67 14.05-6.67 14.05s-5.42-2.99-10.92-2.77c-4.71.18-5.18 3.13-5.08 3.88c.11.75 6.69 9.4 16.98 14.12s15.32 2.53 15.32 2.53s3.03-2.19-.51-6.59s-8.36-7.11-8.36-7.11l8.68-18.97l5.68-6l6.43-4.72l6.43-7.08l5.9-9.11l7.18-13.72l1.61-3s3.86 13.61 8.68 21.33c4.82 7.72 7.5 8.36 10.29 14.04s6.57 22.06 6.57 22.06s-4.16 1.35-8.05 3.61c-5.63 3.27-3.9 5.9-3.73 7.22c.34 2.66 8.42 4.74 21.61.13s14.34-8.45 14.01-10.38c-.32-1.93-4.22-2.64-7.61-2.86c-3.08-.2-7.91.62-7.91.62l-3.43-10.96l-1.93-10.08l.75-7.4l1.93-7.72l.75-10.61l-1.72-15.01l-4.82-21.65l-2.11-7.48s-11.7.95-16.42 2.12c-9.54 2.36-12.22 5.59-12.22 5.59z" opacity=".7"/><path fill="#FFF" d="m63.46 15.98l1.21 6.44l10.4 6.48l-11.21-1.78l-7.98-4.35l-7.93-6.7S36.86 35.1 33.12 43.52c-7.72 17.37-4.82 28.19-4.61 34.95c.15 4.61-1.39 7.4-2.36 9.43c-.96 2.04-6.67 14.05-6.67 14.05s-5.42-2.99-10.92-2.77c-4.71.18-5.18 3.13-5.08 3.88c.11.75 6.69 9.4 16.98 14.12s15.43 2.02 15.43 2.02s2.91-1.67-.63-6.07s-8.36-7.11-8.36-7.11l8.68-18.97l5.68-6l6.43-4.72l6.43-7.08l5.9-9.11l7.18-13.72l1.61-3s3.86 13.61 8.68 21.33c4.82 7.72 7.5 8.36 10.29 14.04s6.57 22.06 6.57 22.06s-4.16 1.35-8.05 3.61c-5.63 3.27-3.9 5.9-3.73 7.22c.34 2.66 8.42 4.74 21.61.13s14.34-8.45 14.01-10.38c-.32-1.93-4.22-2.64-7.61-2.86c-3.08-.2-7.91.62-7.91.62l-3.43-10.96l-1.93-10.08l.75-7.4l1.93-7.72l.75-10.61l-1.72-15.01l-4.82-21.65l-1.94-6.25s-4.42 4.16-12.99 5.8c-9.63 1.86-15.81.67-15.81.67z" opacity=".5"/><path fill="#FEF3C0" d="M41.77 36.48s.39-.57 1.75-.78c.75-.12 7.88-1.13 12.01-2.47c3.66-1.18 10.4-4.93 12.33-4.4s1.72 1.82 1.07 3.97s-3.66 7.9-3.66 7.9s-19.75 10.81-19.32 10.49c.43-.32-4.18-14.71-4.18-14.71z"/><radialGradient id="notoClinkingGlasses0" cx="48.517" cy="56.866" r="18.683" gradientUnits="userSpaceOnUse"><stop offset=".404" stop-color="#FFD61B"/><stop offset=".531" stop-color="#FFD71F"/><stop offset=".66" stop-color="#FFD92B"/><stop offset=".79" stop-color="#FFDC40"/><stop offset=".921" stop-color="#FFE05C"/><stop offset=".96" stop-color="#FFE266"/></radialGradient><path fill="url(#notoClinkingGlasses0)" d="M35.48 76.75c5.47 2.57 12.54-4.5 17.9-13.4c4.6-7.64 11.9-22.73 11.9-22.73s-9.11 3.32-13.72 1.93s-9.76-6.11-9.76-6.11s-5.21 9.41-7.83 17.58c-2.67 8.37-3.74 20.26 1.51 22.73z"/><path fill="#FFFEFF" d="M44.97 49.66c-1.24.57-.84 2.27-.69 2.88c.21.91.91 2.45 2.61 1.71c1.49-.65.91-2.56.59-3.31c-.29-.65-1.23-1.86-2.51-1.28zm4.53-1.76c-.05 1.12.8 2.08 2.24 2.03c1.44-.05 2.19-1.07 2.24-2.19c.05-1.12-1.2-1.98-2.45-1.87c-1.23.11-1.98.75-2.03 2.03zm-8.75 14.67c-.96-1.02-2.72-.53-3.79.53c-.72.72-1.44 2.45-.48 3.47c.96 1.01 2.83.37 3.79-.53c.96-.91 1.23-2.67.48-3.47zm3.1-.43c.57.5 1.55.32 2.03-.27c.48-.59.48-1.71-.21-2.13c-.69-.43-1.6-.08-1.97.53c-.44.7-.33 1.44.15 1.87zm-6.14 8.43c-1.38.24-1.71 1.76-1.55 2.61c.16.85.91 1.65 1.97 1.44c1.07-.21 1.81-1.12 1.71-2.4c-.1-1.28-1.22-1.81-2.13-1.65z"/><path fill="#FEF3C0" d="M68.76 24.08s-.94-1.49.39-1.99s6.74 1.22 11.05 2.21c4.31.99 12.54 3.15 12.54 3.15l-.28 1.99s-15.58 3.04-15.69 2.87c-.11-.17-1.77-2.1-1.88-2.43c-.11-.33-3.59-4.69-3.76-4.69c-.16 0-2.37-1.11-2.37-1.11z"/><radialGradient id="notoClinkingGlasses1" cx="84.066" cy="49.413" r="17.862" gradientUnits="userSpaceOnUse"><stop offset=".404" stop-color="#FFD61B"/><stop offset=".531" stop-color="#FFD71F"/><stop offset=".66" stop-color="#FFD92B"/><stop offset=".79" stop-color="#FFDC40"/><stop offset=".921" stop-color="#FFE05C"/><stop offset=".96" stop-color="#FFE266"/></radialGradient><path fill="url(#notoClinkingGlasses1)" d="M75.39 28.89s5.41 0 8.95-.11c3.54-.11 8.4-1.33 8.4-1.33s2.52 11.9 3.49 20.63c.84 7.55.34 21.95-4.14 23.14c-5.87 1.56-11.41-9.29-13.79-14.63c-3.48-7.79-6.71-19.42-6.71-19.42l3.8-8.28z"/><path fill="#FEFFFF" d="M80.04 37.09c.7.7 1.89.41 2.78-.41c.89-.81.81-2.22.07-2.7s-1.81-.33-2.48.41c-.7.77-1.11 1.95-.37 2.7zm8.25 2.77c-1.59-.26-2.52.59-2.85 2.63c-.32 1.96 1.55 2.3 2.3 2.3c1.04 0 1.81-1.07 1.96-2.59s-.34-2.16-1.41-2.34zm-2.37 8.74c-.09 1.3 1.48 2 2.78 1.96c1.3-.04 1.93-.7 1.93-1.55c0-.85-1-1.74-2.44-1.81s-2.19.29-2.27 1.4zm.74 6.33c-1.52-.96-3.7.56-3.33 2.52c.37 1.96 1.89 2.41 3.22 1.74c1.23-.62 1.65-3.29.11-4.26zm4.15 7c-1.12-.44-2.31.11-2.81 1.18c-.33.7-.33 2.7 1.22 2.96c1.55.26 2.37-.7 2.59-1.67s.04-2.07-1-2.47z"/><path fill="#FF2A23" d="M104.91 28.08a1.998 1.998 0 0 1-1.66-3.12l7.27-10.78c.62-.92 1.86-1.16 2.78-.54c.92.62 1.16 1.86.54 2.78l-7.27 10.78c-.39.57-1.02.88-1.66.88zm2.58 6.1a2 2 0 0 1-.56-3.92l15.24-4.45a2 2 0 0 1 1.12 3.84l-15.24 4.45c-.18.05-.37.08-.56.08zm13.48 11.6c-.25 0-.5-.05-.75-.15l-11.84-4.81a2.003 2.003 0 0 1 1.51-3.71l11.84 4.81a2.003 2.003 0 0 1-.76 3.86z"/><path fill="#AFAFAF" d="M102.26 102.23c-.22-.76-5.38-18.67-5.95-21.78c-.55-2.98.37-6.9 1.35-11.04c.5-2.14 1.02-4.35 1.37-6.53c.93-5.88.64-17.36-1.7-27.93c-2.2-9.92-5.77-24.91-5.81-25.06l2-.71c.04.15 3.56 15.38 5.77 25.33c2.12 9.54 2.85 21.6 1.73 28.67c-.36 2.26-.89 4.5-1.4 6.68c-.93 3.94-1.8 7.65-1.33 10.22c.55 3 5.85 21.4 5.91 21.58l-1.94.57z"/><path fill="#C9C9C9" d="M64.35 16.97c-.53 0-.84-.46-.92-1c-.21-1.34 1.09-3.92 13.22-6.59c8.9-1.96 14.42-2.19 16.15-1.04c.51.34.69.7.73.91c.11.6-.46 1.04-1.06 1.15c-.43.08-.85-.11-1.09-.44c-.42-.18-3.01-.91-14.26 1.57c-9.72 2.14-11.69 4.16-11.69 4.17c.09.6-.32 1.16-.92 1.26c-.04.01-.1.01-.16.01zM91.2 9.52zm0 0zm0 0z"/><path fill="#FFF" d="M69.26 17.6c-3.26 0-4.84-.47-4.95-.51a1.101 1.101 0 0 1 .66-2.1c.04.01 4.33 1.24 13.76-.65c10.32-2.08 12.86-5.35 12.89-5.38c.36-.48 1.04-.59 1.53-.24s.61 1.02.26 1.51c-.28.4-3.07 4.01-14.25 6.26c-4.25.86-7.52 1.11-9.9 1.11z"/><path fill="#AFAFAF" d="m26.31 108.49l-2.58-.86c.07-.16 8.08-16.09 10.83-21.26c1.51-2.84 4.62-4.75 7.76-6.97c2.95-2.09 6.3-4.47 8.86-7.78C56.09 65.28 61.47 56.2 64.9 48.5c2.64-5.93 9.55-19.66 9.62-19.8l1.66 1.14c-.07.14-6.84 13.58-9.45 19.47c-3.49 7.84-8.97 17.08-13.97 23.54c-2.74 3.54-6.22 6.01-9.29 8.19c-3.07 2.18-5.72 4.06-7.01 6.48c-2.72 5.12-10.07 20.81-10.15 20.97z"/><path fill="#C9C9C9" d="M75.18 30.54c-.52 0-.95-.36-1.07-.83c-.17-.29-1.68-2.41-11.97-7.6c-9.88-4.98-12.44-4.61-12.74-4.53c-.45.26-1.02.18-1.38-.23c-.4-.46-.36-1.15.1-1.55c.87-.76 3.98-1.22 15.01 4.35c6 3.02 13.14 7.09 13.14 9.3c.01.6-.48 1.09-1.09 1.09zm-1.1-1.1zm0 0zM49.37 17.58zm.2-.13zm.01-.01c0 .01-.01.01 0 0c-.01.01 0 0 0 0zm0 0z"/><path fill="#FFF" d="M74.33 30.68c-1.92 0-7.11-.44-14.54-4.43c-8.32-4.47-11.71-8.6-11.85-8.77c-.38-.47-.31-1.17.16-1.55c.47-.38 1.16-.31 1.55.16c.03.04 3.3 3.98 11.18 8.21c8.64 4.64 14.01 4.16 14.07 4.15c.61-.07 1.14.37 1.21.98c.07.6-.37 1.14-.97 1.21c-.05.01-.33.04-.81.04z"/><path fill="#B0B0B0" d="M94.81 102.13c-.65.33-.3 2.54.52 3.09c1.01.68 2.27.85 4.8.17c2.7-.72 4.1-1.66 4.34-2.26c.24-.6-.7-2.89-.7-2.89s-1.87 1.21-3.97 1.81c-2.1.61-4.27-.28-4.99.08z"/><path fill="#FFF" d="M93.73 78.94c-1.46.48-1.42 2.32-.46 5.98s3.96 14.98 4.2 15.76c.24.78.9 2.1 3.3 1.32s1-1.67.4-3.83c-.45-1.61-4.62-16.94-4.84-17.72c-.36-1.21-1.51-1.87-2.6-1.51zm-7.42 28c-2.03-.3-2.22 2.04-1.26 3.36c.64.87 1.67 1.36 3.06 1.5c1.92.19 3.66-.29 3.66-1.68c0-1.14-1.74-.72-3-1.26c-.77-.33-1.27-1.74-2.46-1.92z"/><path fill="#B0B0B0" d="M101.41 111.41c5.78-1.41 9.43-2.92 11.76-4.54c2.98-2.08 3.74-4.19 3.71-4.87c-.06-1.2-.62-2.05-.54-2.22c.18-.36 2.3 1.08 2.4 2.4c.08 1.02.44 3.52-4.25 6.51c-2.47 1.58-6.09 3.44-12.41 5c-6.21 1.53-11.21 1.85-14.69 1.21c-3.7-.68-5.68-2.41-5.8-4.36c-.11-1.8 1.03-3.03 1.2-2.99c.24.06-.43 1.32.24 2.58c.53.98 1.85 1.93 4.44 2.44c2.71.54 6.83.58 13.94-1.16z"/><path fill="#FFF" d="M47.56 21.05c-1.23 2.15-5.53 9.54-5.99 10.49c-1.2 2.5 2.75 3.8 4.23 1.76c1.76-2.43 5-7.82 5.11-8.94c.15-1.61-2.73-4.38-3.35-3.31z"/><path fill="#AFAFAF" d="M19.17 103.63c-.76.16-1.55 1.48-1.48 2.04c.14 1.12 2.09 2.43 3.61 3.24c2.16 1.15 3.9 1.42 4.78.08c.88-1.34-.63-2.84-.63-2.84s-2.08.75-3.28-.06c-1.19-.81-2.01-2.67-3-2.46z"/><path fill="#FFF" d="M7.41 102.44c-.61.49-1.34 1.75.7 3.77c2.07 2.05 3.39 2.56 4.36 1.54s-.16-2.29-1.61-3.8c-1.11-1.15-2.2-2.49-3.45-1.51zm23.57-18.9c-.6.93-9.4 19.22-9.71 19.85c-.43.85-.27 2.07 1.01 2.72c1.42.73 2.4.32 2.93-.48c.36-.54 7.96-16.5 8.67-17.94c.96-1.97 2.24-4.05.3-5.21c-1.6-.97-2.72.31-3.2 1.06z"/><path fill="#B0B0B0" d="M18.17 114.57c5.28 2.75 9.02 4.02 11.83 4.34c3.62.4 5.02.06 5.81-.63c.9-.79.88-1.95 1.06-2.02c.37-.15 1.01 2.33.22 3.38c-.61.82-1.81 2.35-7.31 1.5c-2.9-.44-6.85-1.43-12.63-4.42c-5.68-2.94-9.65-6-11.84-8.77c-2.33-2.95-2.68-5.56-1.49-7.1c1.1-1.43 2.05-1.24 2.16-1.09c.14.2-.48.35-.8 1.73c-.25 1.09.12 2.67 1.73 4.76c1.69 2.18 4.77 4.93 11.26 8.32z"/></svg>