<svg viewBox="0 0 128 128"><path fill="#fff" d="M123.4 50.5C121 41 119 36.8 114.5 36c-4.2-.8-10.1 2-11.6 2.7s.3-2-.1-3.8-2.4-2.6-3-2.4L25.6 43.4l-.5 3-1 4.7c-2.4-.5-8.8-1.3-12.2 1.2-4.3 3.2-6 9-7.1 16.6s-.4 11.7 2 14.2c3 3.2 7.6 4.1 10 4.4l-1.3 7s-1.8.6-2.8 3.5.4 5.6.4 5.6 2.8-5 25-1.1c22.4 4 23.5 8.8 23.5 8.8s1.2-1.2 2.2-4.2-.8-6-.8-6l4.3-19 4.3 11.7s-1.6 2-.9 4.7c.9 3.4 8.8 10.3 28.6 2.8 19.7-7.4 20.3-17.8 19.2-21-.8-2.3-3.4-2.9-3.4-2.9l-1.1-3.6 5.4-3.7c6-4.6 6.5-9.9 4-19.6M11.1 76.7c-1.5-4.6 1-16.2 3.3-17.9 3.2-2.5 6.6-1.3 8.3-.4l-4.5 22.3c-1.7 0-5.9-.3-7-4m106.7-17c-.5 3.8-4.9 5.3-6.6 5.8L105 45c1.6-1 4.6-2.5 7-2.3 2.6.3 6.7 12 6 16.8" opacity=".5"/><path fill="#e0e0e0" d="M123.4 50.5C121 41 118.8 37 114.5 36c-6-1.5-11.6 2.6-11.6 2.6s.3-1.8-.1-3.7-2.4-2.6-3-2.4L25.6 43.4l-.5 3-1 4.7c-2.4-.5-8.8-1.3-12.2 1.2-4.3 3.2-6 9-7.1 16.6s-.4 11.7 2 14.2c3 3.2 7.6 4.1 10 4.4l-1.3 7s-1.8.6-2.8 3.5.4 5.6.4 5.6 1.5-2.5 10.4-2.5q5.3-.1 14.6 1.4c22 4 23.5 8.8 23.5 8.8s1.2-1.2 2.2-4.2-.8-6-.8-6l4.3-19 4.3 11.7s-1.6 2-.9 4.8c.9 3.3 8.8 10.2 28.6 2.7 19.7-7.4 20.3-17.8 19.2-21-.8-2.3-3.4-2.9-3.4-2.9l-1.1-3.6 5.4-3.7c6-4.6 6.5-9.9 4-19.6M11.1 76.7c-1.5-4.6 1-16.2 3.3-17.9 3.2-2.5 6.6-1.3 8.3-.4l-4.5 22.3c-1.7 0-5.9-.3-7-4m106.7-17c-.5 3.8-4.9 5.3-6.6 5.8L105 45c1.6-1 4.6-2.5 7-2.3 2.6.3 6.7 12 6 16.8" opacity=".7"/><path fill="#bcbcbc" d="M36.3 113.3c-21.5-3.2-23.2-9.7-23.2-9.7s2.6-5 25-1.1c21.8 3.7 23.5 8.8 23.5 8.8s-1.8 5.5-25.3 2" opacity=".7"/><radialGradient id="a" cx="38.2" cy="106.6" r="60.1" gradientUnits="userSpaceOnUse"><stop offset=".3" stop-color="#fdb408"/><stop offset=".5" stop-color="#f1a20d"/><stop offset=".7" stop-color="#db8116"/></radialGradient><path fill="url(#a)" d="M29.2 49.1s-7.8 38.7-8 40.4-.2 3.4 1.7 4 10 .6 18.2 2.1 13.8 4 15.1 4.4 2.8-.3 3.5-3c.8-2.6 9.4-40 9.4-40L50 44.1z"/><radialGradient id="b" cx="76.6" cy="36.9" r="45" gradientUnits="userSpaceOnUse"><stop offset=".6" stop-color="#db8116"/><stop offset=".8" stop-color="#ee9d0e"/><stop offset=".9" stop-color="#fdb408"/></radialGradient><path fill="url(#b)" d="m69.3 74.1 3.8-19.3L97.8 40l11.7 36.4c.6 1.8-2.2 8.2-13.6 13s-19 2.7-20 .9S69.3 74 69.3 74"/><path fill="#f4d097" d="M74.5 44.8 96 34.5l2.3 7s-1.8 4.7-11.8 9.2c-8.6 3.9-13.6 3-13.6 3zm-44-2-3 13.7S32 53.7 43.4 54s24.8 7.4 24.8 7.4l.7-3 2.5-11.2z"/><path fill="#ffebc9" d="M23.4 39.2c-.8 6.6 2.4 11.1 10.4 12 7 .7 11-2.8 14.9.8 5 4.6-1.8 19.4-2.3 21.7s-.8 5.1 1.6 5.8 4-2.3 4.7-5c1.6-6.3 4.6-16 8.5-17 5.4-1.4 4.5 2.7 10.1 1.8 5-.9 6.8-5.7 7.1-7.8s-.8-5.2-.8-5.2 2.8-1 6-2.9 4-3.4 6.4-4.7c3.6-2 8.9-1.4 11.4-5.8 2.8-4.8 2.6-15.2-7.8-16.2-3.2-.4-5 .8-7.2.6-2.5-.2-3.4-1.9-7.7-1-4.4.7-5.4 4-8 4.6-2.8.7-7 0-11 3s-4.9 6.8-4.9 6.8-3-1.3-7.2-1c-4.6.3-6.5 2.2-9.8 2s-13-3.3-14.4 7.5"/><path fill="#ffe267" d="M87.8 56.4c-1.2-.2-2.3.7-2.3 2.3S86 61 86.8 61s1.6-.5 2-2q.4-2.2-1-2.7m-2 13.1c-.5.8.1 1.7.8 2.2s1.7.3 2-.2c.1-.5.2-1.6-.6-2.2s-1.7-.6-2.2.2m6 2.7c-1-.1-2 .8-2 2.5s.7 2.5 1.7 2.6c1.1 0 1.7-1.8 1.8-2.9 0-1-.2-2-1.5-2.2m2 10c-.8-.8-2-.4-2.7.5-.4.8-.5 2 .2 2.6.7.5 1.7.2 2.2-.6q.8-1.6.2-2.5m-49.6-20c-.5.3-.6 1.5 0 2.3s1.6 1 2 .5.2-1.6-.2-2.2c-.3-.6-1-1.3-1.8-.7m-2.9 9.6c1 .8 2.3.1 3-.8s.7-1.9.1-2.5-1.8-.5-2.7.1c-1 .8-1.3 2.3-.4 3.2m-3.5 1.7c-1.1-.1-2.1 1-2.1 2.5 0 1.8 1 3.2 2 3.1 1.1 0 1.8-1.4 1.8-2.8s-.5-2.6-1.7-2.8m-.9 12.3q-1.2.4-1 2.2c0 1 .7 2 1.9 1.8.8-.2 1-1.3 1-2.4q-.4-1.6-1.9-1.6"/><path fill="#fff" d="M11 57.8c1.2 1 2.3-1.5 4-2.4 1.8-1 3.3-1.5 2.6-2.8s-3-1-4.7.1-3.4 4-1.9 5.1m17.8-7q-2-.1-2.2 1.7c-.2 1 .1 2.2 1.2 2.5s2.1-.6 2.4-1.8q.4-1.8-1.4-2.4m-1 5.6c-2-.4-2.7 2.4-3.6 7.4-.9 4.6-3.8 20.2-3.8 21.4s0 2.6 1.3 2.9 2.4-.8 2.9-3L29 59.2q.3-2.4-1.2-2.9"/><path fill="#b0b0b0" d="M12.7 61.8c.1.1 1.8-2.8 5.9-2.5 2.3.1 3.3.9 3.7.7s1-2.7.8-3.2-2.6-1.4-5.2-1c-4.4.8-5.6 5.4-5.2 6m-7.4 19c-.2.4 1.6 4.7 5.2 6.5 3.2 1.6 6.1 1.6 6.3 1.1q.3-.8.5-2.9c0-.8-1.7-.3-5.6-1.5-4.8-1.4-6.2-3.5-6.4-3.2"/><path fill="#fff" d="M39.6 35.4c-1.4.4-4.2-1-7-.7-2.5.2-5 2-5.3 5.5-.4 6 5.3 6.4 8 6.3s10.5-1.9 14.2 1c3.8 2.8 4.1 7.8 3.6 10.5S49.4 71.1 49 72.5c-.8 2.5.5 2.8 1.4 1.3 1-1.6 4.2-13.3 5.6-16s3-4.5 5.5-4.8c4.1-.4 4 1.4 8.5 1.4 4 0 5.5-3.8 3.7-7.6-2.5-5-10-5.4-11-5.9s-3.6-6-10-7.3-9.7.8-13 1.8m18.9-3.7s1.6 1.2 3 2.7c1 1 2.1 3 3.4 3.4s3 .2 5.8 1.4 4.2 3 4.2 3 3-.5 5.7-2.5 5.2-5.2 8.7-6 11.5-2 9-8.5c-2.6-7-9.4-3.5-11.4-3.6s-3.4-2.5-8.4-1.2c-3.4.9-4.1 4-7.5 4.4s-5.8-.3-8.7 1.9-3.8 5-3.8 5"/><path fill="#ff2a23" d="M58.6 19.7h-.2c-.9-.1-1.6-1-1.5-1.8l1-10.6c.1-1 1-1.6 1.8-1.5s1.6.9 1.5 1.8l-1 10.6q-.2 1.4-1.6 1.5M54 22.2q-1 0-1.4-.7l-7.3-11q-.7-1.2.5-2.3 1.2-.6 2.3.5l7.2 11a1.7 1.7 0 0 1-1.3 2.5m-4.2 3.9-.6-.1-10.8-4.3a2 2 0 0 1-1-2.1q.7-1.3 2.2-1L50.4 23c.9.3 1.3 1.3 1 2.1q-.6 1-1.6 1"/><path fill="#feffff" d="M72.8 67.3c-1.6.6-1.3 3.3 0 6.6s4.1 11.7 4.8 13.1 1.5 2.5 3 2 1-2.5.4-4.4l-4.8-14.1c-.6-1.6-1.3-4.1-3.4-3.2"/><path fill="#bcbcbc" d="M18.4 101.4s1.7 4.8 18.6 7.2 20.9-.3 20.9-.3-5.9-3.6-20-6c-15-2.4-19.5-.9-19.5-.9"/><path fill="#fff" d="M16.7 95.7c-1.4-.2-2.3 1.2-2.7 1.9-.3.7-.7 2.7.6 3s2.4-1.1 2.8-2.2c.4-1 .5-2.5-.7-2.7"/><path fill="#d4d4d4" d="M18.6 97c-.2 1.4 1.6 1.5 4 1.6s10.4.7 15.7 1.7c11 2 18 5 20.3 6 2.3 1.2 2.5 0 2.5-.3 0-1-1.5-2.3-3.5-3.3-1.6-.8-7-4-18.5-5.7-11-1.8-16.8-1.3-18-1.2-1.2 0-2.4.2-2.5 1.1"/><path fill="#9e9e9e" d="M76 93q-.4 1.4 3.6 2.3a37 37 0 0 0 17.3-2.7c7-2.8 11.2-6.5 13.6-9.4 1.4-1.7 1.4-3.8.9-4.2-.8-.6-1.1 1.2-2.8 3a35 35 0 0 1-12.5 8.6 30 30 0 0 1-16 2.8c-2.3-.3-3.8-1.4-4.1-.4"/><path fill="#d5d5d5" d="M73.3 96.2c-.2 1.4 2 2.7 3.1 3.2 3 1.3 11.1 2 21.7-2 13.6-5.3 16.5-11.4 17.4-13.1 1-1.8.5-2.6 0-2.8q-1-.5-2.3 1.3c-2.9 3.8-6.8 7.7-16.2 11.5S81.1 98 76.8 96.6c-1.2-.4-3.2-1.8-3.5-.4"/><path fill="#b0b0b0" d="M113.6 72.6c-.5 1.1.4 2.4.5 2.5h.2s4.9-2.3 8-6 3-9 2.6-9c-.4-.1-1.3 4.2-5.7 8.3-3.7 3.5-5 2.6-5.6 4.1m-9.3-29.1 1 3s2.5-2.8 6-2.5 4 4 4.2 4c.8 0 .8-5.1-2.5-6.4-4-1.6-8.7 1.9-8.7 1.9"/></svg>