<svg viewBox="0 0 128 128"><path fill="#e0e0e0" d="m63.5 16 1.2 6.4-9.9-5L48 16S36.9 35 33 43.5c-7.7 17.4-4.8 28.2-4.6 35 .2 4.6-1.4 7.4-2.4 9.4l-6.6 14s-5.4-3-11-2.7c-4.7.2-5.1 3.1-5 3.9s6.7 9.4 17 14 15.3 2.6 15.3 2.6 3-2.2-.5-6.6-8.4-7-8.4-7l8.7-19 5.7-6 6.4-4.8 6.4-7 6-9.2 7.1-13.7 1.6-3s3.9 13.6 8.7 21.3 7.5 8.4 10.3 14 6.6 22.1 6.6 22.1-4.2 1.4-8 3.7c-5.7 3.2-4 5.9-3.8 7.2.3 2.6 8.4 4.7 21.6.1s14.3-8.4 14-10.4-4.2-2.6-7.6-2.8c-3-.2-8 .6-8 .6l-3.3-11-2-10 .8-7.5 2-7.7.8-10.6-1.8-15-4.8-21.6-2.1-7.5s-11.7 1-16.4 2C66 12.8 63.5 16 63.5 16" opacity=".7"/><path fill="#fff" d="m63.5 16 1.2 6.4L75 29l-11.2-1.8-8-4.3-8-6.7S37 35 33.2 43.5c-7.7 17.4-4.8 28.2-4.6 35 .2 4.6-1.4 7.4-2.4 9.4l-6.6 14s-5.4-3-11-2.7c-4.7.2-5.1 3.1-5 3.9s6.7 9.4 17 14 15.4 2.1 15.4 2.1 2.9-1.7-.6-6S27 106 27 106l8.7-19 5.7-6 6.4-4.7 6.4-7 6-9.2 7.1-13.7 1.6-3s3.9 13.6 8.7 21.4 7.5 8.3 10.3 14 6.5 22 6.5 22-4.1 1.4-8 3.7c-5.6 3.2-3.9 5.9-3.7 7.2.3 2.6 8.4 4.7 21.6.1s14.3-8.4 14-10.4c-.3-1.9-4.2-2.6-7.6-2.8-3.1-.2-8 .6-8 .6l-3.4-11-1.9-10 .8-7.5L100 63l.7-10.6-1.7-15-4.8-21.6-2-6.3s-4.4 4.2-13 5.8c-9.6 1.9-15.7.7-15.7.7" opacity=".5"/><path fill="#fef3c0" d="M41.8 36.5s.4-.6 1.7-.8c.8-.1 7.9-1.1 12-2.5C59.2 32 66 28.3 68 28.8s1.7 1.8 1 4-3.6 7.9-3.6 7.9L46 51.2c.4-.3-4.2-14.7-4.2-14.7"/><radialGradient id="a" cx="48.5" cy="56.9" r="18.7" gradientUnits="userSpaceOnUse"><stop offset=".4" stop-color="#ffd61b"/><stop offset=".5" stop-color="#ffd71f"/><stop offset=".7" stop-color="#ffd92b"/><stop offset=".8" stop-color="#ffdc40"/><stop offset=".9" stop-color="#ffe05c"/><stop offset="1" stop-color="#ffe266"/></radialGradient><path fill="url(#a)" d="M35.5 76.8c5.4 2.5 12.5-4.5 17.9-13.4 4.6-7.7 11.9-22.8 11.9-22.8s-9.1 3.3-13.7 2-9.8-6.2-9.8-6.2S36.6 46 34 54c-2.7 8.4-3.8 20.3 1.5 22.8"/><path fill="#fffeff" d="M45 49.7c-1.3.5-.9 2.2-.7 2.8.2 1 .9 2.5 2.6 1.7 1.5-.6.9-2.5.6-3.3-.3-.6-1.2-1.8-2.5-1.2m4.5-1.8q0 1.8 2.2 2c2.2.2 2.2-1 2.3-2.2s-1.2-2-2.5-1.8q-1.9 0-2 2m-8.7 14.7c-1-1-2.8-.6-3.8.5-.8.7-1.5 2.5-.5 3.5s2.8.3 3.8-.6 1.2-2.6.5-3.4m3-.5c.6.5 1.6.4 2-.2s.6-1.7-.1-2.2q-1.2-.5-2 .6-.6 1.1.2 1.8m-6.2 8.5c-1.4.2-1.7 1.7-1.5 2.6s.9 1.6 2 1.4q1.6-.4 1.6-2.4c0-2-1.2-1.8-2-1.6"/><path fill="#fef3c0" d="M68.8 24s-1-1.4.4-2 6.7 1.3 11 2.3l12.5 3.2-.2 2s-15.6 3-15.7 2.8-1.8-2-2-2.4-3.5-4.7-3.7-4.7z"/><radialGradient id="b" cx="84.1" cy="49.4" r="17.9" gradientUnits="userSpaceOnUse"><stop offset=".4" stop-color="#ffd61b"/><stop offset=".5" stop-color="#ffd71f"/><stop offset=".7" stop-color="#ffd92b"/><stop offset=".8" stop-color="#ffdc40"/><stop offset=".9" stop-color="#ffe05c"/><stop offset="1" stop-color="#ffe266"/></radialGradient><path fill="url(#b)" d="m75.4 28.9 9-.1c3.5-.1 8.3-1.3 8.3-1.3s2.6 11.9 3.5 20.6c.9 7.5.4 22-4.1 23.1-5.9 1.6-11.4-9.3-13.8-14.6-3.5-7.8-6.7-19.4-6.7-19.4z"/><path fill="#feffff" d="M80 37c.7.8 2 .5 2.8-.3 1-.8.8-2.2 0-2.7s-1.7-.3-2.4.4c-.7.8-1.1 2-.4 2.7m8.3 2.8q-2.3-.4-2.9 2.6c-.3 2 1.6 2.3 2.3 2.3q1.6-.1 2-2.6c.4-2.5-.3-2.2-1.4-2.3m-2.4 8.7c0 1.3 1.5 2 2.8 2s2-.7 2-1.6-1-1.7-2.5-1.8-2.2.3-2.3 1.4m.8 6.3c-1.6-1-3.7.6-3.4 2.6s2 2.4 3.3 1.7 1.6-3.3 0-4.3m4.2 7q-1.8-.5-2.8 1.2c-.3.7-.3 2.7 1.2 3s2.4-.7 2.6-1.7 0-2-1-2.5"/><path fill="#ff2a23" d="M105 28a2 2 0 0 1-1.8-3l7.3-10.8a2 2 0 1 1 3.3 2.2l-7.2 10.8a2 2 0 0 1-1.7.9m2.6 6a2 2 0 0 1-.6-3.8l15.3-4.5a2 2 0 0 1 1 3.8l-15.1 4.5zM121 45.9l-.8-.2-11.8-4.8a2 2 0 0 1 1.5-3.7l11.8 4.8a2 2 0 0 1-.7 3.9"/><path fill="#afafaf" d="M102.3 102.2c-.3-.7-5.4-18.6-6-21.7a30 30 0 0 1 1.4-11q.8-3.3 1.3-6.6c1-5.9.7-17.4-1.7-28l-5.8-25 2-.7 5.8 25.3a89 89 0 0 1 1.7 28.7l-1.4 6.7A29 29 0 0 0 98.3 80c.5 3 5.8 21.4 5.9 21.6z"/><path fill="#c9c9c9" d="M64.4 17q-.9-.1-1-1c-.2-1.4 1.1-4 13.2-6.6q13.6-2.9 16.2-1 .7.5.7.8 0 1-1 1.2-.8 0-1.1-.4c-.4-.2-3-1-14.3 1.5-9.7 2.2-11.7 4.2-11.7 4.2q0 1-.9 1.3zm26.9-7.5"/><path fill="#fff" d="M69.3 17.6c-3.3 0-4.9-.5-5-.5A1.1 1.1 0 0 1 65 15s4.3 1.2 13.7-.7c10.4-2 12.9-5.3 13-5.3q.6-.7 1.5-.3c.9.4.6 1 .2 1.5s-3 4-14.2 6.3q-6.4 1.2-10 1.1"/><path fill="#afafaf" d="m26.3 108.5-2.6-.9c.1-.1 8.1-16 10.9-21.2 1.5-2.9 4.6-4.8 7.7-7 3-2 6.3-4.5 8.9-7.8 4.9-6.3 10.3-15.4 13.7-23.1 2.6-6 9.6-19.7 9.6-19.8l1.7 1.1c0 .2-6.9 13.6-9.5 19.5-3.5 7.9-9 17-14 23.6-2.7 3.5-6.2 6-9.2 8.1s-5.7 4.1-7 6.5c-2.8 5.1-10.1 20.8-10.2 21"/><path fill="#c9c9c9" d="M75.2 30.5q-.9 0-1-.8c-.3-.3-1.8-2.4-12-7.6-10-5-12.5-4.6-12.8-4.5a1 1 0 0 1-1.4-.3 1 1 0 0 1 .1-1.5c.9-.8 4-1.2 15 4.3 6 3 13.2 7.1 13.2 9.3q-.1 1-1.1 1.1m-25.6-13"/><path fill="#fff" d="M74.3 30.7c-1.9 0-7-.5-14.5-4.4-8.3-4.5-11.7-8.6-11.9-8.8q-.5-.9.2-1.6c.7-.7 1.2-.3 1.5.2 0 0 3.3 4 11.2 8.2 8.7 4.6 14 4.2 14.1 4.2a1 1 0 0 1 1.2 1q0 .8-1 1.1z"/><path fill="#b0b0b0" d="M94.8 102.1c-.6.4-.3 2.6.5 3.1 1 .7 2.3.9 4.8.2q4-1.2 4.4-2.3c.4-1-.7-2.9-.7-2.9s-1.9 1.2-4 1.8-4.3-.2-5 .1"/><path fill="#fff" d="M93.7 79q-2 .5-.4 6c1.6 5.4 4 14.9 4.2 15.7s.9 2 3.3 1.3 1-1.7.4-3.8c-.5-1.6-4.6-17-4.9-17.7-.3-1.3-1.5-2-2.6-1.6m-7.4 28c-2-.3-2.2 2-1.2 3.4q.9 1.4 3 1.5c2 .2 3.7-.3 3.7-1.7 0-1.1-1.8-.7-3-1.2-.8-.4-1.3-1.8-2.5-2"/><path fill="#b0b0b0" d="M101.4 111.4c5.8-1.4 9.4-3 11.8-4.5 3-2.1 3.7-4.2 3.7-4.9 0-1.2-.6-2-.6-2.2.2-.4 2.3 1 2.4 2.4.1 1 .5 3.5-4.2 6.5a41 41 0 0 1-12.4 5 37 37 0 0 1-14.7 1.2q-5.6-1.2-5.8-4.4c-.1-1.8 1-3 1.2-3 .2.1-.4 1.4.2 2.6q.8 1.6 4.5 2.5c2.7.5 6.8.5 14-1.2"/><path fill="#fff" d="m47.6 21-6 10.5c-1.2 2.5 2.7 3.8 4.2 1.8 1.8-2.4 5-7.8 5.1-9 .2-1.6-2.7-4.3-3.3-3.3"/><path fill="#afafaf" d="M19.2 103.6c-.8.2-1.6 1.5-1.5 2 .1 1.2 2 2.5 3.6 3.3q3.4 2 4.8 0c1.4-2-.6-2.8-.6-2.8s-2.1.8-3.3 0-2-2.7-3-2.5"/><path fill="#fff" d="M7.4 102.4c-.6.5-1.3 1.8.7 3.8q3 3 4.4 1.5c1.4-1.5-.2-2.2-1.6-3.8-1.2-1.1-2.2-2.4-3.5-1.5M31 83.5c-.6 1-9.4 19.3-9.7 19.9-.5.8-.3 2 1 2.7q2.1.9 3-.5l8.6-18c1-1.9 2.2-4 .3-5.1-1.6-1-2.7.3-3.2 1"/><path fill="#b0b0b0" d="M18.2 114.6q7.8 4 11.8 4.3c3.6.4 5 0 5.8-.6 1-.8.9-2 1-2 .4-.2 1 2.3.3 3.3s-1.8 2.4-7.3 1.5c-3-.4-6.9-1.4-12.6-4.4q-8.6-4.6-11.9-8.8-3.4-4.5-1.5-7c1.1-1.5 2-1.3 2.2-1.1.1.2-.5.3-.8 1.7q-.6 1.6 1.7 4.8a33 33 0 0 0 11.3 8.3"/></svg>