<svg viewBox="0 0 128 128"><path fill="#8e4d2f" d="m107.4 38 8-.9s2 6.5 3.7 10c1.7 3.6 4.6 7.1 4.6 7.1S123 67.4 121 81s-7 18.2-8.7 20.6c-2.1 3.2-6.4 7.4-8.2 10.9s-3 5-3.8 5.1-8.7 2.4-13.3 3.3-15.3 3.5-15.3 3.5-8.6-2-10.6-2.2-4.7.7-5.4.1-6.4-4.7-11.6-7-9.5-2.8-10-3.8-1.4-4.1-3.2-6.6-3.5-4-3.5-4l7.3-21.2zM21 52s1-3.4-6-7c-4.5-2.3-8.6-1.7-8.6 0s3 .6 6.4 4.9 6.4 10 6.4 10zm6.2-13.6s1.5-2.7 1.4-5c-.1-2.4-2-4.2-1-5.2.8-1 4 1.7 4.7 4.1 1 3 .8 4.4.8 4.4l-4.8 4.1zm52.4-22.6s-2-1.5-2-6c.1-3 .7-5.4 1.8-5.3s1.3 2.2 2.4 5.5a23 23 0 0 0 4.5 7zm26 10.2s-.4-6.5.3-9.9c.5-2.6 2.1-4.1 3-3.5.7.5-.2 1.3.4 6.7.2 2.8 1.7 13.3 1.7 13.3zM17.8 85s-1.5-1-6-2.5c-2.4-.7-8-1.4-7.8 0 0 1.2 1.8 1.2 7.5 4.1 5.6 3 10 7.7 10 7.4s-3.7-9-3.7-9"/><path fill="#532d1d" d="M14.3 68.8c0 2-3.3 7-3.2 8.3s3.2 6.5 4.1 8c1 1.5 1.7 5 1.7 5a46 46 0 0 0 10.5 10.8s3.4-.4 8 .3c4.6.8 3 1.7 9.7 2s8-.6 16-1.7 17-2.6 17-2.6 12.2-6.9 22.6-17.3c6.2-6.2 11.5-18 13.1-20.5s2.5-6.5 2.6-7.4-1.6-7.9-1.6-10.9.8-4.5.6-5.7a74 74 0 0 0-8.9-13C104 21 97 15 95.4 15.6l-1.6.7s-7-3-12.8-3-8 1.1-11.3 1.2c-3 .1-2.3-1-4.5-.8-1.9 0-8.2 3.4-12.2 5.5-3.5 1.8-10.9 4.5-13.6 6.8s-8.6 7.8-9.2 8.8c-.5.9-1 2.9-1 2.9s-5.5-.9-6.7.2c-1 1-3.6 11.1-5.1 14.3s-5.8 12.6-5.2 13.4z"/><path fill="#feffff" d="M28.1 89.1s-3-3.5-4.7-7.5c-2-4.7-2.8-12.1-2-17 1-5 1.4-7.6 4-13.7q2.8-6.9 8.2-11.5c1.3-1.2 3.1-1 6.9-4.6S51.8 24 64 21.8s16.1-1 21.6-.1c3.8.5 5.6 3 8.2 4s5 1.4 8 3.8a12 12 0 0 1 4.2 6.3c.5 2.5-.6 3.8-.7 4.7-.2 1.4 3 2.4 2.5 9.9-.5 6.8-4.6 21.9-24.3 35.2S39.8 95 39.8 95s-.8-3.5-4-5.5C31.3 86.9 28 89 28 89"/><path fill="#e0e0e0" d="M41.9 40.9C26.8 53 28.2 67.2 28.2 67.2s-7.2 2-6.6 5.3c.6 3 7.6.7 7.6.7l.8 3.5s-7.8 2.5-6 6c1.4 2.5 13.7-3.5 13.7-3.5l57.8-32.6s11.6-6.3 9-10c-1.9-3-6 .6-6 .6s-1.2-1.4-3-2.5L92 32.6s4.8-4.2 2-6.3-6.9 3.8-6.9 3.8-6.4-2-11.5-1.9S65 29.4 65 29.4s-.3-7.5-4.2-6.5c-3.5 1-1.5 8.2-1.5 8.2s-7.9 2-17.4 9.8m5.9 39.6L43 82.6s-3.4 9.2 0 11S50.2 83 50.2 83z"/><path fill="#e1e1e1" d="m75.8 72.4-4.5 5.8 3.8 7.2c1.1 2 2.3 3 4.1 2q2.6-1.4.9-5c-1.7-3.5-4.3-10-4.3-10"/><path fill="#b1b1b1" d="M51.2 41C34.5 51.5 29.5 69 35.4 78.7s32.4 6.8 44.7-2.1c13.4-9.7 20-21.3 17.3-31.4-1.5-5.6-6.8-8.3-12.5-10-9-3-22.5-1.2-33.7 5.8"/><path fill="#532d1d" d="M92.9 101c-1.9 1 0 4 1.3 7.4s2.3 6.5 4.3 5.2c1.9-1.1-.3-5.7-1.3-7.9s-2.3-6-4.3-4.7M107 83.5c-2.4 0-2 2.8-3 7.6-.7 4.8-1.4 6.9 1.2 7.2 1.8.2 1.8-3.3 2.5-8 .6-3.5 1.3-6.8-.6-6.8m8.8-11c-1.6 0-1.2 3.9-1.2 9 0 3.7-.5 8.5 1.8 8.3 1.8-.2 1.5-6.1 1.6-9.8.1-5.2.4-7.7-2.2-7.6m-45.4 36.8q-1.4 2 4 6c3.1 2.2 5.8 4.4 7 3 1.8-2-1-3.6-4-6.2-3.2-2.6-5.5-4.8-7-2.8m-24.5.5c-1.2 1.8 1.8 3.9 5.2 6.7 3 2.5 6 5.6 7.8 3.7 1-1.3-1.6-4-5.3-7.1-3-2.5-5.9-6.3-7.7-3.3"/></svg>