<svg viewBox="0 0 128 128"><path fill="#f6af3d" d="M116.9 72.3 87.4 53 52.6 78l1.2 14.5 14 13.4s2 8.8-1.6 11.2-9 4.3-20.8 3.7c-11.9-.7-15.7-4.7-16.8-6s-2.9-5.9-2.9-5.9-9.4-2.1-14.4-9.2a17 17 0 0 1-2.9-14.9c.8-2.9 3-4.6 3-4.6l-.7-1.6s-6-3-6.7-9.8 2.2-17 7.5-24.5 6.9-6.7 6.9-6.7-2.3-1.3-1.6-6.9 8.6-12.1 16.3-17S46.4 6.6 52 7.5s7.5 4 7.5 4S68 6 78.2 8s15 9 15.8 10.5 2 1.1 2 1.1 4-1 10.6 2.3 8.8 10 9.3 12l1.1 5.4s2.9 2 4.9 6.4q3.8 8.8 1.5 19c-1.4 6.7-2.7 8.7-2.7 8.7z"/><path fill="#f9e0ca" d="M26.6 26c2.1 2.8 5.5.6 9.4-2.6s6.3-5.4 4.4-7.6-7 1-9.6 3-6.1 4.6-4.2 7.2M18 83.8c-2 0-2.8 2.3-2.8 4.5s0 4.2 2.2 4.3c1.8.1 2.9-1.1 3-4.5q.2-4.4-2.4-4.3"/><radialGradient id="a" cx="66" cy="97.6" r="39" gradientUnits="userSpaceOnUse"><stop offset=".3" stop-color="#e07f16"/><stop offset=".8" stop-color="#e07f16" stop-opacity="0"/></radialGradient><path fill="url(#a)" d="m62.3 100.7-2 .8-10.2-1.8-10.5 1.4-7 3c-2.5 5.5 3.3 16.3 12.8 16.8 11.8.6 17-1.3 20.8-3.7s1.6-11.2 1.6-11.2z"/><radialGradient id="b" cx="54.1" cy="64.9" r="31.2" gradientUnits="userSpaceOnUse"><stop offset=".3" stop-color="#e07f16"/><stop offset="1" stop-color="#e07f16" stop-opacity="0"/></radialGradient><path fill="url(#b)" d="M56 86.3 62.2 69 47.8 47.9l-13.3-7.6s-7 4.3-10.3 12.7c-3.8 10-.2 21.7-.2 21.7l17.5 2.2z"/><radialGradient id="c" cx="50.2" cy="22.2" r="37.9" gradientTransform="rotate(54.462 77.735 36.31)scale(1 2.2772)" gradientUnits="userSpaceOnUse"><stop offset=".2" stop-color="#e07f16" stop-opacity="0"/><stop offset=".9" stop-color="#e07f16"/></radialGradient><path fill="url(#c)" d="M56.7 58.3 45 44.6l-18.5-9s20.5-3.4 30-8.4 9.4-13.4 9.4-13.4l10.5 11.8 6.4 15.8 1.7 15-21.6 6.9-4.8-1z"/><radialGradient id="d" cx="85.2" cy="6" r="53.5" gradientTransform="rotate(73.698 86.455 6.873)scale(1 1.3096)" gradientUnits="userSpaceOnUse"><stop offset=".3" stop-color="#e07f16" stop-opacity="0"/><stop offset=".6" stop-color="#e07f16"/></radialGradient><path fill="url(#d)" d="M68 16.4s5.8-2.3 13.8-.8a51 51 0 0 1 16.7 6.8l4 14.6-1.1 13.3-4.2 6.9L84.5 53l-2.1-15.2L76 27z"/><radialGradient id="e" cx="68.1" cy="86.8" r="43.5" gradientUnits="userSpaceOnUse"><stop offset=".5" stop-color="#e07f16"/><stop offset=".9" stop-color="#e07f16" stop-opacity="0"/></radialGradient><path fill="url(#e)" d="M24.8 89.5c2 12.1 9.3 14 9.3 14l12.3-3.6 9.2 1.2-5-21-16.5-5.3s-11.6.4-9.3 14.7"/><path fill="#f9e0ca" d="M23.8 44.2c-4.8-2.6-9.4 5.2-11 8-1.6 3-2.5 11.2.1 12 2.5.7 3.8-5 6.1-8 3.6-4.6 10.4-9 4.8-12"/><radialGradient id="f" cx="95.2" cy="57.7" r="38.4" gradientUnits="userSpaceOnUse"><stop offset=".6" stop-color="#e07f16"/><stop offset="1" stop-color="#e07f16" stop-opacity="0"/></radialGradient><path fill="url(#f)" d="m97.1 59.4 9.1 6 5.9-6 4.2-11.9.7-8.2-1-5.4a19 19 0 0 0-20-14.4l6.6 17.5-2.5 14.4z"/><radialGradient id="g" cx="113.5" cy="68.6" r="35.3" gradientUnits="userSpaceOnUse"><stop offset=".1" stop-color="#e07f16"/><stop offset=".8" stop-color="#e07f16" stop-opacity=".1"/><stop offset=".9" stop-color="#e07f16" stop-opacity="0"/></radialGradient><path fill="url(#g)" d="M121.9 45.7a17 17 0 0 0-4.9-6.4l-.7 8.3-3.7 13.2-6.1 4.7 10.4 6.8 3.8 1s1.3-2 2.7-8.5q2.3-10.3-1.5-19"/><path fill="#cf7118" d="M54.5 56.6s7.8 4.4 18-4.4c7.5-6.4 8.9-13 8.9-13s3.3 6.8 9.8 9.2 10.5 0 10.5 0 .2 5.1 3.8 8.3 6.6 2.8 6.6 2.8-1.2 6.3 3.2 8.8c4.3 2.6 6.7 1.8 6.7 1.8s-1.8 9.7-8.2 9.8c-9.5 0-10.3-12.4-10.3-12.4s-2.7-.4-4.5-1.1-3.7-2-3.7-2-2.8 1.2-5 1.4c-2.3.3-5.3-.5-5.3-.5s-1.5 5.3-7.4 10-13.1 6.1-13.1 6.1.6 2.6-.6 5.6c-1 2.7-4 5.4-4 5.4s1.6 1 2.4 3.2.8 4.5.8 4.5 6.8 1.4 8.2 7.2c1.6 6.4-5.7 10.4-5.7 10.4s3-6.3-.2-11.1c-4.8-7-17.1-7.2-17.1-7.2s1-5.2-.1-10.3S41.6 77 41.6 77s4.9-1.6 8.6-7.6 4.3-12.8 4.3-12.8"/><radialGradient id="h" cx="7.8" cy="80.6" r="30.5" gradientUnits="userSpaceOnUse"><stop offset=".4" stop-color="#f8c975"/><stop offset=".5" stop-color="#f9c368"/><stop offset=".8" stop-color="#fcb445"/><stop offset="1" stop-color="#ffa828"/></radialGradient><path fill="url(#h)" d="M59.9 92c-1 2.4-8-13.7-26.1-13.8S9.3 82.8 9.3 82.8s.6-1.7.6-2.6v-2s5.2-5.8 17.5-6c11.7-.3 20.5 2.1 26.4 8.2 6 6.1 6.7 10.3 6 11.6"/><radialGradient id="i" cx="21.5" cy="111.3" r="26.7" gradientUnits="userSpaceOnUse"><stop offset=".4" stop-color="#f8c975"/><stop offset=".5" stop-color="#f9c368"/><stop offset=".8" stop-color="#fcb445"/><stop offset="1" stop-color="#ffa828"/></radialGradient><path fill="url(#i)" d="M60.4 101.5c-.1 2.2-8.1-1-19.1 1.9s-14.7 8.4-14.7 8.4l-1.3-2c-.6-.8-2-1.8-2-1.8s5.3-7.2 16.8-9.3 20.4.8 20.3 2.8"/><radialGradient id="j" cx="12.4" cy="36" r="44.6" gradientUnits="userSpaceOnUse"><stop offset=".2" stop-color="#f8c975"/><stop offset=".5" stop-color="#fbba53"/><stop offset=".9" stop-color="#ffa828"/></radialGradient><path fill="url(#j)" d="M16.7 34s.2 1.4 0 2.8q-.6 2.2-.8 2.3c-.2 0 13.8.3 23 6.7s16.5 15.3 20 22.3 3.2 12 4.8 11.3S65 70.1 60.5 62s-12-18.8-23.4-23.6S16.7 34 16.7 34"/><radialGradient id="k" cx="61.5" cy="9.8" r="36.4" gradientUnits="userSpaceOnUse"><stop offset=".4" stop-color="#f8c975"/><stop offset=".5" stop-color="#f9c368"/><stop offset=".8" stop-color="#fcb445"/><stop offset="1" stop-color="#ffa828"/></radialGradient><path fill="url(#k)" d="M59.8 11.4c-.3.7 10.8 8.8 16 19 5.3 10.3 6.4 20.5 7 25.6s.3 8.7 1.8 8.3c1.4-.3 1.7-3.8 2.2-11C87.2 45 84 34.8 80 27.6a41 41 0 0 0-16-15.7c-2-1-3.9-1.5-4.2-.6"/><radialGradient id="l" cx="94.1" cy="17.2" r="27.3" gradientUnits="userSpaceOnUse"><stop offset=".4" stop-color="#f8c975"/><stop offset=".5" stop-color="#f9c368"/><stop offset=".8" stop-color="#fcb445"/><stop offset="1" stop-color="#ffa828"/></radialGradient><path fill="url(#l)" d="M94.5 19.2c-.4.5 6.1 7.8 5.8 20.6-.4 11.9-5.7 22.3-4.8 22.6q1.5.8 5.3-7a32 32 0 0 0 3.4-21.8c-1.1-6-4-11.5-6.6-13.3-.8-.6-2.7-1.6-3.1-1"/><radialGradient id="m" cx="117" cy="34.3" r="19.6" gradientUnits="userSpaceOnUse"><stop offset=".4" stop-color="#f8c975"/><stop offset=".5" stop-color="#f9c368"/><stop offset=".8" stop-color="#fcb445"/><stop offset="1" stop-color="#ffa828"/></radialGradient><path fill="url(#m)" d="M105 66.6c.7 1.2 7.3-1.5 10.5-8.5 3.1-7 3.1-17 1.3-16.8-.9 0-1 7.6-5.2 16.2-2.8 5.7-6.9 8.6-6.6 9.1"/></svg>