<svg xmlns="http://www.w3.org/2000/svg" width="1em" height="1em" viewBox="0 0 128 128"><path fill="#F6AF3D" d="M116.86 72.26L87.43 53.07L52.56 78.02l1.28 14.55l13.92 13.44s2.08 8.8-1.6 11.2c-3.68 2.4-8.96 4.32-20.79 3.68c-11.84-.64-15.67-4.64-16.79-5.92c-1.12-1.28-2.88-5.92-2.88-5.92s-9.4-2.15-14.39-9.28c-4.48-6.4-3.68-12-2.88-14.87c.8-2.88 2.88-4.64 2.88-4.64l-.64-1.6s-5.92-2.88-6.72-9.76c-.8-6.88 2.24-16.95 7.52-24.47s6.88-6.72 6.88-6.72s-2.24-1.28-1.6-6.88c.64-5.6 8.64-12.16 16.31-16.95s13.31-7.39 18.91-6.43s7.57 3.98 7.57 3.98s8.39-5.55 18.62-3.47s15.03 9.12 15.83 10.56s2.08 1.12 2.08 1.12s4-1.12 10.56 2.24c6.56 3.36 8.8 10.08 9.28 12s1.12 5.44 1.12 5.44s2.87 1.96 4.84 6.4c2.56 5.76 3 12.32 1.56 19.04c-1.41 6.6-2.72 8.64-2.72 8.64z"/><path fill="#F9E0CA" d="M26.64 26.01c2.09 2.79 5.45.54 9.37-2.61s6.32-5.45 4.36-7.62s-6.97 1.09-9.59 3.05c-2.61 1.95-6.1 4.56-4.14 7.18m-8.6 57.76c-2 0-2.87 2.37-2.87 4.49s0 4.24 2.24 4.36c1.75.1 2.87-1.12 2.99-4.49c.13-3.12-.61-4.36-2.36-4.36"/><radialGradient id="notoCroissant0" cx="65.966" cy="97.591" r="38.986" gradientUnits="userSpaceOnUse"><stop offset=".34" stop-color="#E07F16"/><stop offset=".821" stop-color="#E07F16" stop-opacity="0"/></radialGradient><path fill="url(#notoCroissant0)" d="m62.3 100.74l-1.92.77l-10.25-1.76l-10.55 1.39l-7.01 2.97c-2.44 5.54 3.34 16.26 12.79 16.77c11.84.64 17.11-1.28 20.79-3.68c3.68-2.4 1.6-11.2 1.6-11.2z"/><radialGradient id="notoCroissant1" cx="54.124" cy="64.933" r="31.201" gradientUnits="userSpaceOnUse"><stop offset=".254" stop-color="#E07F16"/><stop offset="1" stop-color="#E07F16" stop-opacity="0"/></radialGradient><path fill="url(#notoCroissant1)" d="m55.95 86.25l6.27-17.29l-14.44-21.09l-13.3-7.6S27.41 44.55 24.22 53c-3.8 10.07-.19 21.66-.19 21.66l17.51 2.28z"/><radialGradient id="notoCroissant2" cx="50.236" cy="22.16" r="37.917" gradientTransform="matrix(.5812 .8137 -1.853 1.3236 62.099 -48.05)" gradientUnits="userSpaceOnUse"><stop offset=".243" stop-color="#E07F16" stop-opacity="0"/><stop offset=".924" stop-color="#E07F16"/></radialGradient><path fill="url(#notoCroissant2)" d="M56.71 58.32L44.93 44.64L26.42 35.6s20.51-3.45 30.01-8.39s9.36-13.39 9.36-13.39l10.49 11.81l6.46 15.77l1.71 15.01l-21.66 6.84l-4.75-.95z"/><radialGradient id="notoCroissant3" cx="85.227" cy="5.954" r="53.466" gradientTransform="matrix(.2807 .9598 -1.2569 .3676 68.784 -78.035)" gradientUnits="userSpaceOnUse"><stop offset=".31" stop-color="#E07F16" stop-opacity="0"/><stop offset=".6" stop-color="#E07F16"/></radialGradient><path fill="url(#notoCroissant3)" d="M68.04 16.4s5.8-2.3 13.71-.81c9.39 1.77 16.78 6.78 16.78 6.78l4.05 14.66l-1.22 13.3l-4.18 6.84L84.45 53l-2.09-15.2l-6.27-10.83z"/><radialGradient id="notoCroissant4" cx="68.084" cy="86.822" r="43.498" gradientUnits="userSpaceOnUse"><stop offset=".454" stop-color="#E07F16"/><stop offset=".913" stop-color="#E07F16" stop-opacity="0"/></radialGradient><path fill="url(#notoCroissant4)" d="M24.81 89.49c1.94 12.13 9.29 14.05 9.29 14.05l12.35-3.61l9.12 1.14l-4.94-20.9l-16.53-5.32s-11.57.39-9.29 14.64"/><path fill="#F9E0CA" d="M23.81 44.2c-4.77-2.62-9.41 5.2-11 8.06c-1.63 2.94-2.47 11.09.11 11.87c2.51.76 3.8-4.84 6.1-7.84c3.59-4.69 10.35-9.04 4.79-12.09"/><radialGradient id="notoCroissant5" cx="95.202" cy="57.692" r="38.434" gradientUnits="userSpaceOnUse"><stop offset=".585" stop-color="#E07F16"/><stop offset="1" stop-color="#E07F16" stop-opacity="0"/></radialGradient><path fill="url(#notoCroissant5)" d="m97.1 59.37l9.13 5.95l5.84-5.86l4.22-11.93l.74-8.23s-.64-3.52-1.12-5.44c-.48-1.92-2.76-8.57-9.28-12c-5.32-2.8-9.34-2.52-10.63-2.35l6.59 17.51l-2.5 14.43z"/><radialGradient id="notoCroissant6" cx="113.484" cy="68.604" r="35.34" gradientUnits="userSpaceOnUse"><stop offset=".098" stop-color="#E07F16"/><stop offset=".759" stop-color="#E07F16" stop-opacity=".125"/><stop offset=".854" stop-color="#E07F16" stop-opacity="0"/></radialGradient><path fill="url(#notoCroissant6)" d="M121.86 45.71c-1.65-3.75-4.06-5.83-4.83-6.38l-.74 8.22l-3.71 13.23l-6.12 4.7l10.41 6.79l3.84 1.12s1.3-2.04 2.72-8.64c1.43-6.73.97-13.28-1.57-19.04"/><path fill="#CF7118" d="M54.5 56.56s7.82 4.4 18.01-4.33c7.53-6.46 8.86-13.01 8.86-13.01s3.31 6.75 9.79 9.13c6.48 2.38 10.59 0 10.59 0s.13 5.16 3.71 8.34c3.57 3.18 6.62 2.78 6.62 2.78s-1.19 6.35 3.18 8.87c4.37 2.51 6.75 1.72 6.75 1.72s-1.85 9.7-8.2 9.79c-9.53.13-10.32-12.31-10.32-12.31s-2.65-.4-4.5-1.19s-3.71-1.99-3.71-1.99s-2.78 1.19-5.03 1.46c-2.25.26-5.29-.53-5.29-.53s-1.46 5.29-7.41 10.06s-13.1 6.09-13.1 6.09s.66 2.51-.53 5.56c-1.04 2.65-3.97 5.43-3.97 5.43s1.59 1.06 2.38 3.18c.79 2.12.79 4.5.79 4.5s6.8 1.41 8.2 7.15c1.59 6.48-5.69 10.45-5.69 10.45s3-6.31-.26-11.12c-4.76-7.01-17.07-7.15-17.07-7.15s.93-5.29-.13-10.32s-6.62-12.17-6.62-12.17s4.9-1.59 8.6-7.54s4.35-12.85 4.35-12.85"/><radialGradient id="notoCroissant7" cx="7.826" cy="80.576" r="30.524" gradientUnits="userSpaceOnUse"><stop offset=".353" stop-color="#F8C975"/><stop offset=".508" stop-color="#F9C368"/><stop offset=".794" stop-color="#FCB445"/><stop offset="1" stop-color="#FFA828"/></radialGradient><path fill="url(#notoCroissant7)" d="M59.89 92.03c-.96 2.32-7.95-13.75-26.14-13.87S9.3 82.79 9.3 82.79s.56-1.67.59-2.58c.03-.91-.08-2.05-.08-2.05s5.3-5.72 17.62-6.01c11.71-.28 20.42 2.16 26.4 8.27c5.99 6.1 6.63 10.24 6.06 11.61"/><radialGradient id="notoCroissant8" cx="21.492" cy="111.3" r="26.699" gradientUnits="userSpaceOnUse"><stop offset=".353" stop-color="#F8C975"/><stop offset=".508" stop-color="#F9C368"/><stop offset=".794" stop-color="#FCB445"/><stop offset="1" stop-color="#FFA828"/></radialGradient><path fill="url(#notoCroissant8)" d="M60.38 101.52c-.13 2.2-8.1-1.04-19.1 1.85c-11 2.89-14.7 8.45-14.7 8.45s-.67-1.24-1.32-2.05c-.65-.81-2.04-1.77-2.04-1.77s5.33-7.18 16.9-9.26s20.38.81 20.26 2.78"/><radialGradient id="notoCroissant9" cx="12.415" cy="35.956" r="44.582" gradientUnits="userSpaceOnUse"><stop offset=".221" stop-color="#F8C975"/><stop offset=".535" stop-color="#FBBA53"/><stop offset=".881" stop-color="#FFA828"/></radialGradient><path fill="url(#notoCroissant9)" d="M16.67 34.01s.19 1.42-.04 2.8c-.23 1.39-.72 2.25-.72 2.25s13.79.39 22.94 6.76S55.4 61.11 58.88 68.06s3.24 12.04 4.86 11.35s1.16-9.26-3.24-17.37s-12.04-18.87-23.39-23.62s-20.44-4.41-20.44-4.41"/><radialGradient id="notoCroissanta" cx="61.465" cy="9.799" r="36.353" gradientUnits="userSpaceOnUse"><stop offset=".353" stop-color="#F8C975"/><stop offset=".508" stop-color="#F9C368"/><stop offset=".794" stop-color="#FCB445"/><stop offset="1" stop-color="#FFA828"/></radialGradient><path fill="url(#notoCroissanta)" d="M59.76 11.35c-.29.78 10.85 8.82 16.11 19.06c5.26 10.25 6.35 20.5 6.98 25.58c.63 5.08.27 8.71 1.72 8.34c1.45-.36 1.77-3.81 2.18-11.06c.45-8.16-2.76-18.47-6.8-25.67c-4.13-7.35-11.22-13.62-15.87-15.72c-2.04-.92-3.97-1.49-4.32-.53"/><radialGradient id="notoCroissantb" cx="94.065" cy="17.175" r="27.265" gradientUnits="userSpaceOnUse"><stop offset=".353" stop-color="#F8C975"/><stop offset=".508" stop-color="#F9C368"/><stop offset=".794" stop-color="#FCB445"/><stop offset="1" stop-color="#FFA828"/></radialGradient><path fill="url(#notoCroissantb)" d="M94.49 19.24c-.36.42 6.11 7.81 5.77 20.51c-.31 11.9-5.62 22.31-4.72 22.67c.91.36 2.72-1.72 5.26-7.07s4.81-13.7 3.36-21.77c-1.08-6.02-4.05-11.45-6.56-13.28c-.85-.62-2.66-1.59-3.11-1.06"/><radialGradient id="notoCroissantc" cx="116.994" cy="34.341" r="19.552" gradientUnits="userSpaceOnUse"><stop offset=".353" stop-color="#F8C975"/><stop offset=".508" stop-color="#F9C368"/><stop offset=".794" stop-color="#FCB445"/><stop offset="1" stop-color="#FFA828"/></radialGradient><path fill="url(#notoCroissantc)" d="M104.98 66.6c.73 1.22 7.3-1.53 10.47-8.52c3.17-6.98 3.18-16.91 1.39-16.78c-.93.07-.98 7.61-5.24 16.22c-2.8 5.66-6.9 8.63-6.62 9.08"/></svg>