<svg viewBox="0 0 128 128"><path fill="#2e7e30" d="m75.6 49-71 54.7s2 8 9.4 12.3c6.2 3.7 12.9 3.7 21.3.9 8.5-3 13.4-7.1 13.4-7.1s3.4 1 5.9-.9c2.3-1.8 2-4.5 2-4.6.8-.7 13.6-10.4 19.5-16s23.7-23.9 23.7-23.9 3.3.3 5.2-1.9c1.8-2 .8-4 .8-4s18.2-15.7 18.5-28.4c.3-14-10.8-18.8-12.7-19.3S75.6 49 75.6 49"/><path fill="#559833" d="m73 29.6-5.9 6.7c-1.3 1.7-5 5.6-5 5.6s-2.8-1.2-5.1 1.4c-2.1 2.2-1.6 5.4-1.6 5.4S42.3 60.4 30.7 68.3 7 84.3 4.4 94c-1.5 5.4.1 9.7.1 9.7s3 .6 5.5 2.5 4.1 4 4.1 4 10 .9 18.9-3.7 32.8-22.8 38.7-28.2 28.4-28 34-35c6-7.6 10.5-17.3 9.1-24.9-1.3-7.6-3.2-7.6-3.2-7.6s-10-4-19 .5c-8.3 4.3-13.3 11-13.3 11s-2.8-1-4.8 1.3c-2.4 2.7-1.5 6-1.5 6"/><path fill="#2e7e30" d="M109.4 26.7c-1.5-.9-3.7 0-4.7 2s-.5 4 1.1 4.7 3.5.2 4.7-1.7c.9-1.3 1-3.8-1.1-5M67 73.7c-2-1.4-4.3-.3-5.6 1.6q-1.9 3 .3 5.2c2.2 2.2 4 .6 5.4-1.5 1.3-1.8 1.7-4-.1-5.3m-.3-7.9c.8 2 14-10 21.6-19s20.3-24.3 16.9-25.8c-3.6-1.6-11.4 11.3-17.4 19-8.7 11.2-22.2 23-21 25.8M57 74.4c.4 2.6-10.6 12.3-15.5 16-2.8 2.1-19 11-20.1 8-.8-1.9 11.1-7.5 15.8-10.7 5.2-3.5 9.2-7 12.3-9.5 1.8-1.4 7.2-5.7 7.5-3.8M105.8 14c0 1.3-2 2.5-4.9 3.2s-8.7 6.4-12.5 10.4S75.6 43.1 74.2 45s-9.5 9-11.6 11.2S47.6 68.5 44 71c-3.4 2.6-16.3 11.2-19.3 13.4-2.8 2-7.4 5.4-9.8 9.7-1.8 3.4-3.2 7.2-4.4 6.8S9.4 95.1 12 90.3s8.7-8.5 11.9-10.7l18.3-12 12.9-10.8c2.5-2 13.6-11.8 17-16.3S83 26.7 87.4 22s9.5-7.6 12.1-8.4 6.3-1.7 6.4.4"/><path fill="#7fba42" d="M20.3 91.7c.6 1.5 3 1.6 6.1-.2a202 202 0 0 0 22.2-16q3-3.1 2.1-5c-.9-2-2.5-.9-4.4.5-4.2 3-7 4.7-14.2 9.6-3 2-7.5 5.2-9.2 6.6-1.8 1.4-3.4 2.7-2.6 4.5m70.5-75.1q1.1 1.6 5-1c3.9-2.6 3-2.6 2.1-3.8s-3.2-.9-4.7 0c-1.4 1-3.3 3-2.4 4.7m2 11c1.4 1.7 4-.5 5.8-2.3s3.8-3.4 4.6-4.3c.6-.7 2-4-1.3-3.9-2.6 0-6 3.3-7.6 4.9-1.1 1.1-2.7 3.9-1.4 5.6"/></svg>