<svg xmlns="http://www.w3.org/2000/svg" width="1em" height="1em" viewBox="0 0 128 128"><path fill="#2e7e30" d="M75.57 49.03 4.53 103.66s2.03 7.95 9.47 12.35c6.19 3.66 12.85 3.72 21.31.85 8.46-2.88 13.36-7.1 13.36-7.1s3.39 1.08 5.92-.85c2.32-1.76 2.01-4.55 2.03-4.57.81-.76 13.56-10.48 19.48-16.06s23.65-23.86 23.65-23.86 3.31.3 5.25-1.91c1.81-2.06.84-4.01.84-4.01s18.13-15.73 18.44-28.41c.34-14.04-10.82-18.77-12.69-19.28-1.86-.51-36.02 38.22-36.02 38.22"/><path fill="#559833" d="M73.03 29.58s-4.57 5.07-5.92 6.77c-1.35 1.69-5.07 5.58-5.07 5.58s-2.74-1.19-5.07 1.35c-2.07 2.25-1.52 5.41-1.52 5.41s-13.2 11.67-24.7 19.62S6.95 84.38 4.37 94.02c-1.44 5.38.17 9.64.17 9.64s2.88.68 5.41 2.54 4.19 3.96 4.19 3.96 10.02.94 18.82-3.62 32.8-22.84 38.72-28.25 28.45-27.96 34-35.01c5.95-7.56 10.49-17.25 9.13-24.86-1.35-7.61-3.21-7.61-3.21-7.61s-9.98-4.06-18.94.51C84.26 15.6 79.3 22.31 79.3 22.31s-2.85-1-4.85 1.3c-2.37 2.71-1.42 5.97-1.42 5.97"/><path fill="#2e7e30" d="M109.38 26.66c-1.43-.84-3.7.12-4.68 1.97s-.49 4.07 1.11 4.81 3.45.12 4.68-1.73c.88-1.33.98-3.82-1.11-5.05m-42.4 47.07c-1.99-1.46-4.31-.37-5.55 1.6-1.23 1.97-1.23 3.82.25 5.18s3.94.62 5.42-1.48c1.31-1.85 1.73-3.94-.12-5.3m-.25-7.88c.74 1.88 14.05-10.11 21.57-18.98s20.27-24.36 16.88-25.88c-3.57-1.6-11.4 11.32-17.38 18.98-8.74 11.21-22.18 23.04-21.07 25.88m-9.72 8.45c.44 2.61-10.57 12.33-15.5 16.03-2.79 2.09-18.94 10.9-20.12 8.01-.78-1.92 11.14-7.55 15.77-10.71 5.23-3.57 9.23-6.97 12.37-9.49 1.78-1.45 7.16-5.72 7.48-3.84m48.77-60.27c.05 1.31-1.92 2.44-4.88 3.22s-8.71 6.36-12.46 10.37-12.8 15.5-14.28 17.42-9.41 8.97-11.58 11.15-15.07 12.28-18.46 14.89c-3.4 2.61-16.3 11.22-19.35 13.39-2.81 2.01-7.36 5.47-9.74 9.78-1.86 3.34-3.22 7.14-4.44 6.79s-1.22-5.92 1.48-10.71S20.78 81.79 24 79.62s18.29-12.11 18.29-12.11S52.74 58.8 55.18 56.8s13.67-11.85 17.07-16.29 10.63-13.76 15.07-18.47c4.44-4.7 9.49-7.66 12.11-8.45 2.61-.78 6.27-1.65 6.35.44"/><path fill="#7fba42" d="M20.25 91.72c.65 1.51 3.14 1.57 6.18-.17 3.05-1.74 9.23-6.1 12.63-8.54 4.01-2.87 8.19-6.18 9.49-7.49 2.09-2.09 2.7-3.82 2.18-5.05s-2.53-.87-4.44.52c-4.18 3.05-6.97 4.7-14.2 9.58-2.9 1.96-7.49 5.23-9.23 6.62-1.74 1.4-3.39 2.7-2.61 4.53M90.8 16.55c.65 1.3 2.53.61 4.96-.96s2.96-2.61 2.18-3.83-3.25-.85-4.7.09c-1.48.96-3.31 2.96-2.44 4.7m2.09 10.99c1.27 1.68 3.89-.56 5.71-2.36 1.72-1.69 3.8-3.38 4.58-4.3.61-.72 1.99-3.97-1.23-3.88-2.6.07-6.08 3.28-7.63 4.88-1.12 1.15-2.75 3.92-1.43 5.66"/></svg>