<svg viewBox="0 0 128 128"><path fill="#f5b03e" d="M97.2 57 64 63.9 6.4 62.5s-3.2 16.6 8.4 32c9.4 12.3 26.6 17.6 52.7 17.2 26.9-.5 43.8-10.6 50.6-24.4 8-16.4-.3-36.4-.3-36.4z"/><path fill="#df8013" d="M41.5 43.7 43.6 62l6.8-3s2-4.6 13.9-4.8c12.7-.2 15 4.1 15 4.1s16-9.6 15.3-10.5S71 36 71 36s-29.2 7.2-29.5 7.6"/><path fill="#875b4f" d="M115 38.3c-7.1-8.8-20.7-20.6-53.8-20.6-21.6 0-34.1 7.7-43.3 16.1S1 58.6 4.6 66.1c2.4 5 4.8 4 7 8.2s4.1 9.4 9.7 12.8 12 3.8 16 5.4 11.7 6.6 23 6.8c11.5.3 17.7-4 24.1-5.7s15.1-1.8 21.8-5.3 7.2-9.4 10.6-13.2 6.3-5.8 7-9.4-1.2-18.3-8.7-27.4M63.3 60c-9.4.1-17-2-16.8-7.5.2-7.2 13.5-8.5 17.7-8.6 5.5 0 17.6 1 18 7.5s-9.5 8.5-19 8.6"/><path fill="#fea8a6" d="M58 22.3c1.7 1.5 3.7.2 5-1.6s1.3-4 .2-4.8c-1.1-.9-3-.6-4.8 1.5-1.1 1.3-2 3.6-.5 4.9"/><path fill="#93c9ef" d="M69.4 34.2c1.4 1.6 4.6 0 7.4-2s5-4 3.5-6.2c-1.8-2.8-6.4 1-7.8 2s-5.2 3.6-3 6.1"/><path fill="#fdba02" d="M83.8 31c.5 2.4 3.2 2.4 6.7 1.4 3.4-.9 5.6-1.7 5-4.2-.7-2.8-5-1.3-7-.9s-5.3 1.2-4.7 3.8"/><path fill="#fea8a6" d="M96.5 36.8c-1 1.4-.9 3.1 2.2 5.2s4.7 2.1 5.7.6c1.3-1.8-.6-3.5-2.5-5-1.8-1.4-4.4-2.2-5.4-.8"/><path fill="#fd5e5b" d="M89.8 45.2c-1.1 1.9 1 3.6 4 5.5 2.8 1.9 5.1 3.7 6.6 1 1.3-2.4-2.2-4.3-4-5.3s-5-3.9-6.7-1.2"/><path fill="#f47ba8" d="M110.7 54.7c-2-1.5-4.5.9-6.6 3.7s-4.8 6.2-2.7 7.8c2.4 1.9 4.7-1 7-3.9s4.2-6.2 2.3-7.6"/><path fill="#ffb502" d="M110.2 68.6c1.2 1.8 3.8.6 6.2-1s4.2-3.7 3.1-5.7-4.2.2-5.9 1.3c-1.7 1-4.7 3.4-3.4 5.3"/><path fill="#f47ba8" d="M29.5 48q-5.8 5-3.4 7.4c2.4 2.4 4.3 0 8.1-3.6s4.8-5.5 3.2-7.2c-1.8-1.9-5.3 1-7.9 3.4M45 26c-1.7.7-1.6 3 .7 6 2.3 2.9 3.3 4.9 5.4 3.5 2.2-1.3.3-4.6-1.3-6.6s-3.1-3.7-4.8-3"/><path fill="#fea8a6" d="M18.2 47.5c-1.7-1.4-3.4 0-6 2.9s-3.1 4.9-1.4 6.4 4.2-1.7 5.4-3.2c1.6-1.8 4.2-4.4 2-6.1m6.2 18.3c-.8 2.6 1.8 3.2 4.4 3.8s6.2 1.2 6.7-1.1-1.8-3.3-4.9-3.8-5.5-1.3-6.2 1.1"/><path fill="#93c9ef" d="M20.6 37c-2.2 1.2-.8 4.3 0 6s1.8 4.2 4 3 .6-4.2 0-5.7c-.8-1.8-2-4.4-4-3.3m23.1 35c-2.3 1-.6 4.3 1.2 7.4s2.4 4.8 4.7 3.7.4-4.6-.8-7c-1.2-2.3-2.8-5.3-5-4.2"/><path fill="#fd5e5b" d="M74.2 65.1c-2.6 2-5.9 4-4.3 6.5 1.5 2.5 5.5-.6 7.3-1.9 1.9-1.3 5.8-3.7 4.3-6-1.4-2.3-5.1-.3-7.3 1.4"/><path fill="#fea8a6" d="M82.2 76.5c0 2.8 2.3 2.5 5.6 2.8 3.4.4 6.4.4 6.3-2.3 0-2.5-2.9-2.6-5.8-2.6-2.5-.1-6-.8-6 2.1"/><path fill="#ffb502" d="M68.9 79.4c-4.3-.6-6.9-1-7.5 1.2s1.2 3.3 5.8 4 6.7.8 7.2-1.5-2.5-3.2-5.5-3.7"/><path fill="#b79279" d="M92.7 87c.2 2.5 3.6 2.6 7.8 1s6.5-3.6 5-5.5c-1.7-2.3-6.2 1.2-7.5 1.6-1.4.3-5.5 0-5.3 2.9m-33.3 4.5c3.7.3 9.6-1.4 9.9 1.7s-5.5 4-12 3.3c-6.5-.6-10.4-2-10-5.3.3-3.2 5-.1 12.1.3M10 65.3c-.8 1.3 0 2.6 1.2 3.4s2.7 2.1 4.3 4.6 2.7 6.5 6.2 9.7c3.6 3.3 7.1 3.2 9.2 4s5.3 1.7 7 1.7c2.8 0 2.3-2.6 1.1-3.7s-4.5-2.3-7.6-3.4c-2-.7-4.2-1.7-7.9-6.4a36 36 0 0 0-7.2-7.8c-2-1.5-5.4-4-6.3-2.1"/></svg>