<svg xmlns="http://www.w3.org/2000/svg" width="1em" height="1em" viewBox="0 0 128 128"><path fill="#f5b03e" d="m97.23 57-33.3 6.86-57.58-1.38s-3.13 16.65 8.42 31.93c9.41 12.44 26.6 17.69 52.72 17.27 26.91-.43 43.83-10.56 50.56-24.36 8.03-16.45-.26-36.4-.26-36.4z"/><path fill="#df8013" d="m41.53 43.69 2.1 18.42 6.8-3.09s1.98-4.47 13.85-4.7c12.73-.25 14.96 4.08 14.96 4.08s16.07-9.64 15.33-10.51-23.61-11.74-23.61-11.74-29.18 7.16-29.43 7.54"/><path fill="#875b4f" d="M115.09 38.25c-7.24-8.78-20.77-20.52-53.9-20.52-21.64 0-34.12 7.67-43.27 16.07S.9 58.55 4.57 66.06c2.47 5.07 4.82 4.08 7.05 8.28s4.08 9.4 9.64 12.73 11.99 3.83 16.07 5.44 11.62 6.55 23 6.8c11.5.25 17.68-4.08 24.11-5.69s15.08-1.85 21.76-5.32c6.68-3.46 7.17-9.4 10.63-13.23s6.31-5.81 7.05-9.4-1.25-18.28-8.79-27.42m-51.8 21.76c-9.4.12-17.01-2.05-16.81-7.54.25-7.18 13.47-8.44 17.68-8.53 5.56-.12 17.64.95 17.99 7.46.33 6.37-9.46 8.48-18.86 8.61"/><path fill="#fea8a6" d="M57.92 22.3c1.76 1.51 3.78.21 5.14-1.57s1.28-4 .14-4.85c-1.14-.86-3-.57-4.78 1.5-1.12 1.3-2 3.64-.5 4.92"/><path fill="#93c9ef" d="M69.41 34.15c1.39 1.67 4.64 0 7.35-2s4.95-3.88 3.5-6.14c-1.78-2.78-6.35 1-7.71 1.93s-5.28 3.64-3.14 6.21"/><path fill="#fdba02" d="M83.76 31.08c.49 2.37 3.28 2.28 6.71 1.36 3.43-.93 5.59-1.7 4.98-4.24-.67-2.78-4.98-1.33-6.98-.9s-5.25 1.17-4.71 3.78"/><path fill="#fea8a6" d="M96.47 36.82c-1.03 1.37-.87 3.11 2.2 5.18s4.72 2.13 5.78.57c1.21-1.78-.64-3.46-2.5-4.89-1.85-1.43-4.42-2.27-5.48-.86"/><path fill="#fd5e5b" d="M89.75 45.21c-1.07 1.85 1 3.55 4 5.5 2.86 1.86 5.17 3.7 6.64 1.07 1.36-2.43-2.21-4.35-4.07-5.42s-5-3.86-6.57-1.15"/><path fill="#f47ba8" d="M110.72 54.72c-2.05-1.55-4.53.85-6.62 3.7s-4.78 6.13-2.69 7.77c2.4 1.88 4.74-.91 6.99-3.84 2.23-2.92 4.2-6.21 2.32-7.63"/><path fill="#ffb502" d="M110.17 68.55c1.25 1.88 3.79.62 6.28-.93s4.2-3.7 3.07-5.71-4.26.2-5.92 1.28c-1.67 1.1-4.72 3.43-3.43 5.36"/><path fill="#f47ba8" d="M29.51 48.01c-3.9 3.51-5.04 5.72-3.46 7.41s4.37-.04 8.17-3.58 4.75-5.58 3.2-7.23c-1.82-1.91-5.32 1.07-7.91 3.4m15.38-22.06c-1.69.77-1.64 3.04.69 5.99 2.3 2.92 3.3 4.92 5.46 3.61 2.15-1.31.23-4.69-1.31-6.61s-3.15-3.76-4.84-2.99"/><path fill="#fea8a6" d="M18.23 47.46c-1.76-1.38-3.46.08-6.07 2.92s-3.11 4.88-1.38 6.38c1.77 1.54 4.21-1.71 5.46-3.15 1.53-1.77 4.14-4.46 1.99-6.15m6.15 18.36c-.76 2.61 1.77 3.15 4.46 3.76s6.15 1.23 6.61-1.08c.46-2.3-1.77-3.3-4.84-3.76s-5.54-1.3-6.23 1.08"/><path fill="#93c9ef" d="M20.61 37.01c-2.22 1.24-.77 4.3-.08 6.07s1.92 4.15 4 2.92.71-4.16.08-5.69c-.77-1.84-1.92-4.45-4-3.3m23.11 34.91c-2.27 1.13-.57 4.37 1.21 7.45s2.35 4.86 4.7 3.72c2.35-1.13.4-4.61-.81-6.96-1.22-2.35-2.84-5.34-5.1-4.21"/><path fill="#fd5e5b" d="M74.16 65.13c-2.56 1.94-5.84 3.92-4.3 6.45 1.54 2.54 5.53-.54 7.38-1.84 1.84-1.31 5.76-3.76 4.3-6.07-1.46-2.3-5.15-.23-7.38 1.46"/><path fill="#fea8a6" d="M82.23 76.5c0 2.84 2.23 2.54 5.61 2.84 3.38.31 6.39.39 6.3-2.38-.08-2.46-2.92-2.54-5.84-2.61-2.47-.06-6.07-.71-6.07 2.15"/><path fill="#ffb502" d="M68.86 79.42c-4.26-.66-6.84-1.08-7.45 1.15s1.23 3.3 5.76 4.07 6.76.77 7.22-1.54c.46-2.29-2.53-3.22-5.53-3.68"/><path fill="#b79279" d="M92.7 86.98c.15 2.49 3.58 2.61 7.83 1.09s6.43-3.68 4.98-5.58c-1.76-2.31-6.19 1.21-7.53 1.58-1.34.36-5.46-.06-5.28 2.91m-33.26 4.55c3.7.25 9.53-1.46 9.83 1.64s-5.52 4.01-12.02 3.34c-6.46-.66-10.38-2-10.02-5.28.37-3.28 4.98-.18 12.21.3M9.85 65.25c-.75 1.35.06 2.61 1.27 3.46s2.67 2.12 4.25 4.61 2.74 6.48 6.19 9.65c3.64 3.34 7.16 3.28 9.23 3.95s5.26 1.8 7.04 1.76c2.79-.06 2.31-2.55 1.09-3.7s-4.55-2.25-7.59-3.34c-2.02-.73-4.22-1.7-7.89-6.43-2.73-3.52-4.25-5.46-7.28-7.77-2.02-1.54-5.34-3.95-6.31-2.19"/></svg>