<svg xmlns="http://www.w3.org/2000/svg" width="1em" height="1em" viewBox="0 0 128 128"><path fill="#307B32" d="m28.66 105.23l-12.72-5.59s-.56 3.06-1.98 4.7c-1.6 1.84-4.34 2.83-4.34 2.83s1.49 1.72 1.59 2.13c.1.41 3.47 11.84 3.47 11.84s2.65 1.73 3.47 2.35s2.86 1.12 3.88-.51c1.02-1.63 2.69-3.95 3.98-5.51c1.49-1.81 3.05-2.98 3.05-2.98s5.83 2.47 13.89 2.47s17.14-3.47 27.45-11.22s21.97-19.26 25.03-21.71c3.06-2.45 9.46-7.07 12.63-7.88s5.82-.2 5.82 1.84s-1.33 3.27-.31 3.98s4.39-2.04 4.39-2.35c0-.31-.31-9.69-.31-9.69l-8.89-5.77s2.43-3.07 4.5-5.66c1.62-2.03 4.18-4.69 4.18-4.69s.1-3.57-.51-3.27s-26.02 9.18-31.23 13.67S59.68 88.7 59.38 88.8s-30.72 16.43-30.72 16.43"/><path fill="#649726" d="M9.63 107.14c-1.3.61-5.17 1.95-4.96 4.7c.2 2.75 2.9 4.57 5.12 6.05c2.21 1.48 4.9 3.27 4.9 3.27s4.29-1.83 4.49-6.22c.1-2.24-2.24-3.78-3.78-5.2s-3.51-3.69-3.51-3.69s-.88.45-2.26 1.09m31.52-97.03c.01.5 5.36-.21 7.79 2.17c2.37 2.32 3.16 6.8-.69 12.52S34.84 41.96 30.21 47.78S14.92 66.21 13.05 78.91c-1.96 13.31.41 23.06 7.35 28.88s16.43 9.69 32.14 3.27c12.61-5.16 20-15.2 31.84-24.8s19.29-14.39 26.33-14.69c7.04-.31 7.14 5.1 6.22 7.04c-.92 1.94-3.02 3.65-2.24 3.37c.96-.35 4.18-1.33 5.82-5.71c1.63-4.39-.51-9.69-5.2-11.73s-14.8-.1-22.65 4.08C84.8 72.8 76.54 78.93 75.41 79.84c-1.12.92-3.37.2-1.43-2.04c1.94-2.24 12.25-11.84 23.67-16.84s19.8-7.14 19.8-7.14s3.47-3.37 4.49-4.29c1.02-.92 2.55-1.63 2.35-2.65s-4.87-2.44-11.18 1.28c-.02.01-45.15 3.52-45.15 2.7c0-.82 5.94-39.6 5.84-41.03c-.1-1.43-.65-2.46-1.5-1.92c-.77.49-3.68 4.85-4.95 6.51c-1.1 1.43-2.76 3.37-2.86 3.06s-.79-9.44-6.03-12.25C49.68.54 41.09 8.05 41.15 10.11"/><path fill="#307B32" d="M46.72 71.15C43.46 75.33 19.07 83.8 19.07 83.8s1.26-8.07 5.71-17.04c7.05-14.2 29.28-32.93 34.69-44.39c3.21-6.8 1.94-12.04-.71-15S53.5 3.73 53.5 3.73s7.61-.23 10.47 6.81s.41 12.04.41 12.04s3.37-3.98 5.61-7.24c2.24-3.27 3.67-6.33 3.67-6.33s1.53 3.47.51 8.67c-1.02 5.2-2.45 8.06-2.45 8.06z"/><path fill="#FFC01E" d="M97.64 8.09s1.96-3.35 5.61-3.78c4.39-.51 6.84 2.04 6.84 2.04s3.75-3.98 8.51-.96c4.39 2.79 1.92 7.73 1.92 7.73s3.66.87 3.57 5.53c-.09 4.44-2.87 6.17-2.87 6.17l-19.08 25.92l-13.06 9.49l-7.14 4.59l-13.67 9.49l-30.2 22.45s-10.94 6.34-16.43.31c-3.06-3.37-3.27-7.35-3.06-10.1c.3-4.07 1.12-6.05 2.96-8.16c2.4-2.75 5.1-3.47 5.1-3.47s-.98-4.18 1.82-8.38c2.78-4.16 7.06-3.76 7.06-3.76s-.15-5.74 3.12-8.7c3.33-3.02 5.15-1.61 5.35-2.12c.2-.51-.49-4 3.49-7.54c2.86-2.54 6.71-1.85 6.71-1.85s-.74-4.79 3.02-8.47c3.95-3.87 7.69-1.63 7.69-1.63s-.71-4.75 1.89-7.66c3.1-3.46 6.27-3.24 6.27-3.24s.52-4.28 3.91-7.22c2.57-2.24 6.92-1.87 7.22-2.28s1.67-4.28 5.75-5.61c4.33-1.42 7.7 1.21 7.7 1.21"/><path fill="#F99628" d="M113.7 27.45s-.53 4.48-2.06 6.47c-2.77 3.61-5.5 2.95-5.5 2.95s1.18 4.57-1.47 7.8c-2.96 3.6-7.22 3.14-7.22 3.14s.23 3.89-1.93 6.1c-3.24 3.32-5.84 2.66-5.84 2.66s0 2.14-1.68 4.19c-.37.45 10.83-6.49 14.39-8.19c3.56-1.71 10.74-4.41 10.74-4.41s4.05-2.49 5.05-5.76c1-3.27.36-6.05.64-7.04s2.13-2.21 2.99-5.05s-.18-5.84-.18-5.84s-.8 1.37-2.89 2.27c-2.63 1.12-5.04.71-5.04.71m-11.09-15.93s-.78 1.35-1.28 2.21c-.5.85-1.07 1.99-1.07 1.99s-1.28-.07-2.35-.14s-2.86.06-2.86.06s.85-1.16 1.42-1.87c.57-.71.81-1.96.81-1.96s1 .14 2.42.07c1.41-.08 2.91-.36 2.91-.36M31.12 84.29s.21-2.63.28-3.77c.07-1.14-.21-3.13-.21-3.13s4.84-.57 6.83-3.98c1.99-3.41 1.64-5.9 1.64-5.9s5.05.85 7.82-4.13s.92-7.68 1.35-7.47s5.34-.43 7.9-4.2c2.56-3.77 1.92-5.76 1.92-5.76s4.27-.28 6.33-3.41c2.06-3.13 1.56-6.26 1.56-6.26s4.3-.16 6.57-2.72c2.28-2.56 2.65-6.71 2.65-6.71s2.35.51 6.12-1.62s4.78-6.38 4.78-6.38s1.31.26 2.52.08c1.49-.22 2.33-.73 2.33-.73s-.78.73-1.33 2.84c-.4 1.53-.61 3.01-.61 3.01s-3.35-1.47-6.76 2.99C80.74 29.76 80.84 33 80.84 33s-3.26-.58-6.19 2.99c-2.7 3.28-2.21 5.98-2.21 5.98s-3.77-.36-6.47 3.2c-2.95 3.88-2.06 7.82-2.06 7.82s-4.69-.5-6.97 2.49c-2.28 2.99-1.92 6.97-1.92 6.97s-3.36-.39-6.05 2.85c-2.42 2.92-2.06 4.98-2.06 4.98s-4.27-.07-6.97 3.49s-2.7 7.68-2.7 7.68s-1.92.14-3.41.85c-1.5.71-2.71 1.99-2.71 1.99m12.94 3.98s3.63.92 6.19-3.2c2.56-4.13 2.42-7.75 2.42-7.75s4.05.14 6.47-2.99s2.55-7.16 2.55-7.16s3.76.15 6.27-3.65c2.04-3.08 2.06-6.19 2.06-6.19s3.06-.57 5.48-3.49s1.92-6.97 1.92-6.97s4.2.28 6.62-3.56s1.78-6.19 1.78-6.19s3.17.43 5.95-3.06c2.77-3.49 1.59-6.48 1.59-6.48s4.27.92 6.9-2.06c2.63-2.99 2.89-6.59 3.13-6.54c1.4.26 5.1-1.38 5.1-1.38s-.36 3.13-.21 5.06c.02.22-3.97-.12-6.53 4.15s-1.56 7.11-1.56 7.11s-3.73.35-5.51 3.55c-1.78 3.2-1.17 6.76-1.17 6.76s-3.38-1.21-6.12 2.42c-1.79 2.37-1.78 5.05-1.78 5.05s-3.79-1.5-6.67 3.3c-2.1 3.5-1.16 7.44-1.16 7.44s-3.63-.21-6.54 3.13c-2.92 3.34-2.98 8.73-2.98 8.73s-6.91 5.86-13.1 10.7c-5.06 3.95-17.6 12.14-17.11 11.76c2.04-1.61 3.1-2.64 4.31-4.35c1.21-1.7 1.7-4.14 1.7-4.14"/><path fill="#FBE36A" d="M91.44 9.24c-1.72-.72-3.7-.07-4.27 2.42c-.39 1.7 0 3.13 1.49 3.77c1.67.71 2.97-.7 3.56-1.92c.85-1.78.57-3.7-.78-4.27m-9.68 6.41c-1.2-.95-3.63-.36-4.84 2.28s-.65 5.08 1.56 5.19c2.93.14 5.99-5.34 3.28-7.47m-10.45 9.46c-1.21-.76-3.52-.26-4.62 2.13c-.85 1.85-.47 3.92.92 4.55c1.42.64 3.29-.32 4.27-2.28c.85-1.7 1.13-3.34-.57-4.4m-8.4 9.46c-1.8-1.23-4.2-.28-5.69 2.06c-1.49 2.35-1.35 5.05.07 5.9s4.11.27 5.69-2.35c1.43-2.34 1.5-4.55-.07-5.61M52.17 45.88c-1.28-1.02-3.7-.28-4.77 1.71c-1.07 1.99-.47 3.45.64 4.27c1.35 1 2.99.5 4.34-1.28s.86-3.85-.21-4.7m-7.76 9.59c-1.08-.98-3.49-.71-4.77 1.21s-.85 3.84.5 4.69s3.27-.21 4.27-1.42c.99-1.21 1.49-3.13 0-4.48M33.68 66.92c-1.46-.99-3.49.14-4.2 1.28c-.71 1.14-.78 2.77.64 3.84c1.42 1.07 3.41.28 4.13-.78c.71-1.07 1.42-2.99-.57-4.34m6.9 10.19c-.9 1.72-.71 3.34.43 4.34s3.13.43 4.34-1.49c.62-.99.85-3.13-.64-4.13c-1.5-1-3.42-.08-4.13 1.28m10.52-8.68c-1.12 1.45-1 3.2 0 4.13c1 .92 3.49.36 4.41-1.14c.78-1.28.64-2.77-.5-3.77c-.9-.8-2.7-.79-3.91.78m8.19-7.26c1.32 1.01 3.13.36 3.98-.5s1.64-2.85.5-4.13c-1.14-1.28-3.27-.85-4.48.43c-1.21 1.29-1.21 3.28 0 4.2m8.03-15.15c-1.14 1.8-1.64 4.84.36 5.9c2.13 1.14 4.41-1.21 5.41-2.85c1-1.64 1-3.98-.64-4.91c-1.83-1.02-3.78-.27-5.13 1.86m8.11-8.25c-1.27 2.01-1.92 4.55-.28 5.83c1.4 1.1 3.84-.14 5.19-2.06c1.35-1.92 1.64-4.05.14-5.41c-1.49-1.35-3.84-.28-5.05 1.64m8.4-9.6c-1.2 1.39-1.56 3.41-.28 4.55c1.28 1.14 2.99 1 4.34-.71c1.35-1.71 1.28-3.63-.21-4.62c-1.33-.88-2.93-.29-3.85.78"/></svg>