<svg viewBox="0 0 128 128"><path fill="#307b32" d="m28.7 105.2-12.8-5.6s-.5 3.1-2 4.7a12 12 0 0 1-4.3 2.9s1.5 1.7 1.6 2.1l3.5 11.8 3.5 2.4c.8.6 2.8 1.1 3.8-.5s2.7-4 4-5.5c1.5-1.8 3-3 3-3s6 2.5 14 2.5 17-3.5 27.4-11.3 22-19.2 25-21.7 9.5-7 12.7-7.9 5.8-.2 5.8 1.9-1.4 3.3-.3 4 4.4-2 4.4-2.4l-.4-9.7-8.8-5.7 4.5-5.7c1.6-2 4.1-4.7 4.1-4.7s.1-3.6-.5-3.3-26 9.2-31.2 13.7-26 24.5-26.3 24.6z"/><path fill="#649726" d="M9.6 107.1c-1.3.7-5.1 2-5 4.7.3 2.8 3 4.6 5.2 6l4.9 3.4s4.3-1.9 4.5-6.3c0-2.2-2.3-3.7-3.8-5.2l-3.5-3.7zm31.6-97c0 .5 5.3-.2 7.7 2.2 2.4 2.3 3.2 6.8-.7 12.5s-13.4 17.2-18 23S15 66.2 13.1 78.9q-3 20 7.3 28.9c10.3 8.9 16.4 9.7 32.1 3.3 12.6-5.2 20-15.2 31.9-24.8s19.3-14.4 26.3-14.7 7.1 5 6.2 7-3 3.7-2.2 3.4c1-.4 4.2-1.3 5.8-5.7s-.5-9.7-5.2-11.8-14.8 0-22.6 4.1a141 141 0 0 0-17.3 11.2c-1.1 1-3.4.2-1.4-2S86.2 66 97.6 61s19.8-7.2 19.8-7.2l4.5-4.3c1-.9 2.6-1.6 2.4-2.6s-4.9-2.5-11.2 1.3c0 0-45.1 3.5-45.1 2.7s5.9-39.6 5.8-41-.7-2.5-1.5-2-3.7 4.9-5 6.5c-1 1.4-2.7 3.4-2.8 3s-.8-9.4-6-12.2C49.7.5 41 8.1 41.2 10.2"/><path fill="#307b32" d="M46.7 71.2c-3.2 4.1-27.6 12.6-27.6 12.6s1.2-8 5.7-17c7-14.2 29.3-33 34.7-44.4 3.2-6.8 2-12-.7-15s-5.3-3.7-5.3-3.7 7.6-.2 10.5 6.8.4 12 .4 12 3.3-3.9 5.6-7.2c2.2-3.2 3.7-6.3 3.7-6.3s1.5 3.5.5 8.7-2.5 8-2.5 8z"/><path fill="#ffc01e" d="M97.6 8s2-3.3 5.7-3.7c4.3-.5 6.8 2 6.8 2s3.7-4 8.5-1c4.4 2.9 2 7.8 2 7.8s3.6.9 3.5 5.6c-.1 4.4-2.9 6.1-2.9 6.1l-19 26L89 60.1l-7.2 4.6-13.6 9.5L38 96.8s-11 6.3-16.5.3a13 13 0 0 1-3-10.1c.3-4.1 1.1-6 3-8.2 2.3-2.7 5-3.5 5-3.5s-1-4.1 1.9-8.3c2.7-4.2 7-3.8 7-3.8s-.1-5.7 3.1-8.7c3.4-3 5.2-1.6 5.4-2.1s-.5-4 3.5-7.6c2.8-2.5 6.7-1.8 6.7-1.8s-.8-4.8 3-8.5c4-3.8 7.7-1.6 7.7-1.6s-.7-4.8 1.9-7.7c3-3.4 6.3-3.2 6.3-3.2s.5-4.3 3.9-7.2c2.5-2.3 6.9-1.9 7.2-2.3s1.7-4.3 5.7-5.6A9 9 0 0 1 97.6 8"/><path fill="#f99628" d="M113.7 27.5s-.5 4.4-2 6.4c-2.8 3.6-5.6 3-5.6 3s1.2 4.5-1.4 7.8c-3 3.6-7.3 3.1-7.3 3.1s.3 3.9-1.9 6.1c-3.2 3.3-5.8 2.7-5.8 2.7s0 2.1-1.7 4.2c-.4.4 10.8-6.5 14.4-8.2s10.7-4.4 10.7-4.4 4-2.5 5-5.8.4-6 .7-7 2.1-2.2 3-5-.2-6-.2-6-.8 1.4-2.9 2.3c-2.6 1.2-5 .8-5 .8m-11-16-1.4 2.2-1 2-2.4-.1H95l1.5-1.8c.6-.7.8-2 .8-2s1 .2 2.4 0c1.4 0 3-.3 3-.3M31 84.3l.3-3.8c.1-1.2-.2-3.1-.2-3.1s4.8-.6 6.8-4 1.7-5.9 1.7-5.9 5 .9 7.8-4.1.9-7.7 1.3-7.5 5.4-.4 8-4.2 1.9-5.8 1.9-5.8 4.2-.2 6.3-3.4 1.5-6.2 1.5-6.2 4.3-.2 6.6-2.7c2.3-2.6 2.7-6.7 2.7-6.7s2.3.5 6-1.7 4.9-6.3 4.9-6.3 1.3.2 2.5 0q2.3-.5 2.3-.7c0-.2-.8.7-1.3 2.8l-.6 3s-3.4-1.4-6.8 3c-2 2.8-2 6-2 6s-3.2-.6-6.1 3c-2.7 3.3-2.3 6-2.3 6s-3.7-.4-6.4 3.2C63 49 64 53 64 53s-4.8-.5-7 2.5-2 7-2 7-3.3-.4-6 2.8c-2.4 3-2 5-2 5s-4.4 0-7 3.5-2.8 7.6-2.8 7.6-1.9.2-3.4.9-2.7 2-2.7 2m13 4s3.6.9 6.2-3.2c2.5-4.2 2.4-7.8 2.4-7.8s4 .2 6.4-3 2.6-7.1 2.6-7.1 3.8.1 6.3-3.7c2-3 2-6.2 2-6.2s3-.5 5.5-3.5 2-7 2-7 4.1.3 6.5-3.5 1.8-6.2 1.8-6.2 3.2.4 6-3c2.7-3.5 1.6-6.5 1.6-6.5s4.2.9 6.9-2c2.6-3 2.9-6.7 3-6.6 1.5.2 5.2-1.4 5.2-1.4s-.4 3.1-.2 5c0 .3-4 0-6.5 4.2s-1.6 7.1-1.6 7.1-3.7.4-5.5 3.6-1.2 6.7-1.2 6.7-3.4-1.2-6.1 2.4c-1.8 2.4-1.8 5.1-1.8 5.1S81.8 50.2 79 55c-2 3.5-1.1 7.4-1.1 7.4s-3.6-.2-6.6 3.2c-2.9 3.3-3 8.7-3 8.7s-6.8 5.9-13 10.7C50 89 37.6 97.1 38 96.8a19 19 0 0 0 4.3-4.4c1.2-1.7 1.7-4.1 1.7-4.1"/><path fill="#fbe36a" d="M91.4 9.2c-1.7-.7-3.7 0-4.2 2.5q-.7 2.6 1.5 3.7c1.6.7 3-.7 3.5-1.9.9-1.8.6-3.7-.8-4.3m-9.6 6.5c-1.2-1-3.7-.4-4.9 2.2s-.6 5.1 1.6 5.2c3 .2 6-5.3 3.3-7.4M71.3 25c-1.2-.7-3.5-.2-4.6 2.1-.9 1.9-.5 4 1 4.6 1.3.6 3.2-.3 4.2-2.3.8-1.7 1.1-3.3-.6-4.4M63 34.6c-1.8-1.3-4.2-.3-5.7 2-1.5 2.4-1.3 5 0 6s4.2.2 5.8-2.4c1.4-2.4 1.5-4.6 0-5.6m-11 11.3c-1.3-1-3.7-.3-4.8 1.7s-.5 3.4.6 4.3q2.2 1.4 4.4-1.3c2.2-2.7.8-3.9-.2-4.7m-7.8 9.6c-1-1-3.5-.7-4.8 1.2s-.8 3.8.5 4.7 3.3-.2 4.3-1.5c1-1.2 1.5-3 0-4.4M33.7 66.9c-1.5-1-3.5.2-4.2 1.3s-.8 2.8.6 3.8 3.4.3 4.1-.7c.8-1.1 1.5-3-.5-4.4m6.9 10.2q-1.4 2.7.4 4.4c1.8 1.7 3.1.4 4.3-1.5.7-1 .9-3.2-.6-4.2s-3.4 0-4.1 1.3M51 68.4c-1.1 1.5-1 3.2 0 4.2s3.5.3 4.4-1.2q1.2-2.1-.5-3.8c-.9-.7-2.7-.7-3.9.8m8.2-7.2c1.3 1 3.1.3 4-.5s1.6-2.9.5-4.2-3.3-.8-4.5.5-1.2 3.3 0 4.2m8-15.2c-1.1 1.8-1.6 4.9.4 6 2.1 1 4.4-1.3 5.4-3s1-4-.7-4.8q-2.9-1.4-5 1.8m8-8.2c-1.2 2-1.9 4.5-.3 5.8 1.4 1.1 3.9-.1 5.2-2s1.7-4.1.2-5.5c-1.5-1.3-3.9-.2-5 1.7m8.3-9.6c-1.2 1.4-1.5 3.4-.2 4.5s3 1 4.3-.7 1.3-3.6-.2-4.6c-1.3-.9-3-.3-3.9.8"/></svg>