<svg viewBox="0 0 128 128"><path fill="#8e2f97" d="M20 25.8 9.2 33s-1.5 3 .6 13.3 11.5 30.6 30.6 50C57 112.9 76.1 121 93.1 121.9s25-10 25-10z"/><path fill="#a057a1" d="m29.3 20.6-9.3 16s6 21 15.7 34.2a115 115 0 0 0 41.8 36.4c16.3 8.3 31.5 11.4 31.5 11.4s10-4 14-15c3.7-10.4-1.3-22-8.4-27.5s-21.5-9-34.5-16C66.1 53 56 44.3 46.8 34.6c-5.7-6-7-8.7-7.2-9.8q0-.9-.9-1z"/><path fill="#bdcf46" d="m22.7 38-.8 5.7s1.5 2 3.2 1.8 4.5-4.6 5.2-7.7c1-4.5.4-7 .4-7s3.6 1.8 8.8 1 8-3.7 8.7-5.3.5-3.2-.2-3.6-4.6 1.3-4.6 1.3l-11.9-.4L20.2 27zM3 46.4s-1.6.6-1.1 2.4C2.2 50 5.2 51.9 9 50s6.4-7.2 7.4-9.6c1.6-4 2.3-6.8 2.3-6.8l-5.4-3.3L8.5 42S6.3 45.5 3 46.4"/><path fill="#6f9823" d="M11 20.2s-3.2-5.3-3.6-8.5C7.1 9 8.4 7.3 9 6.5c1-1.3 3.1-2.1 4.5-1.4 1.7 1 1.7 2.6 2.8 4.9s3 5.5 3 5.5 3.8-1.2 9.4.8 8 4.4 11.5 5.4 7.5-.3 7.8 1.2-5.3 4.9-10 5.1-7.8-2.5-9.4-1.4-.4 7.4-1.9 11.9c-1.1 3.6-4 5.4-4.8 5.3-.1 0-3.5-5.2-4.1-6.6-.7-1.4-2-5-3.8-2.2s-1.5 7-5.1 10.1c-2.7 2.4-5.4 2.2-6 1.5-.2-.2 2.4-2 2.4-4.1S4.6 32 5.8 28c1.4-5.4 5.2-7.9 5.2-7.9"/></svg>