<svg viewBox="0 0 128 128"><path fill="#d4d4d4" d="M64.5 114.3c40.2 0 61.1-19.3 60-44.7-.9-24-34.5-32.8-58.9-32.8S7 43.4 4.2 70.4c-2.3 23 17.4 43.9 60.3 43.9"/><path fill="#f6f6f7" d="M63.5 108.7c36.7.2 58.6-19.6 59-39C123 42 92 34.9 63.3 34c-27.7-.8-56 11.6-57.2 33.8C5 88 25 108.5 63.5 108.7"/><path fill="#f4b54c" d="M9.2 68.2c.2 18.3 22.8 36.1 56.2 36.1 33.7 0 56.5-21.2 55.8-40.7a23 23 0 0 0-17.3-22.3S90 24.2 58.5 26.8C23 29.7 19.8 47.3 19.8 47.3S9.1 53.7 9.2 68.2"/><path fill="#ffe0b1" d="M16.6 62.8c-1.4 1.1-2.7 23.7 29.4 32 34 9 66.1-7.7 67.3-28.1S81.2 47.4 81.2 47.4s-.3 8.9-.1 12.4-12.5 7.3-22.9 7.5c-10.3 0-16-2.2-16-2.2s9.2 14.6 25.7 14.1c16.4-.4 26.6-11.8 26.6-11.8s-1 19.5-27.8 19.5c-38 0-48.4-25.5-50.1-24"/><path fill="#66361f" d="m54 28.8-9 3s-2 1.2-2 3.8 1.3 4.4 1.3 4.4l6 43.5s7.5.1 12.6-5.6 6-10 6-10l2.2 1.2-.8 3.5s1.1 6 5.1 8.9c3.2 2.3 6 2 6 2s1.6 2.6 7.1 3c5.3.3 8.4-2 8.4-2s3.2.6 6-1.8c2.6-2.3 2.2-4.9 2.2-4.9s3-.8 4-3.6.4-6 .4-6 2.3-3.4.4-10.4c-1.7-6.4-7.3-8.3-7.3-8.3l-18-6s1.4-2.1 1.9-3.8 0-4.1 0-4.1 1-1.8.6-3.8c-.5-2.8-3.6-4.3-3.6-4.3z"/><path fill="#974f2f" d="M51.6 20.7s-3 0-5.2 3.8c-2.5 4-1.5 7.3-1.5 7.3s8.8-.9 14.2 2 10.3 9.7 10.3 9.7 4.4 0 6-1.2c2.6-2.1 3.6-5.4 4.8-6s4-2 4-3.6.7-5.4-.7-8.4c-1.5-3.4-4.3-7-9-8.2-3.5-1-5.8 0-5.8 0s-2.5-2.4-7-2c-3.8.4-5.6 2.8-5.6 2.8s-1.7-.5-3.4 1c-1.3 1.1-1 2.8-1 2.8m-4 19.3s-3.4-3-10.7-1c-7.1 2-8.2 6.2-8.2 6.2s-4 .7-5.9 6a19 19 0 0 0-1.3 10.5c.5 2.8 1.9 4.7 1.9 4.7s-.4 1.7.5 5c1.1 4.1 3.6 6.2 6.4 7.7l4.4 2s3.7 2.4 6.5 3.4c5 1.8 11.3-.6 12.9-2.5s2-3.3 2-3.3 4.1-.7 6.3-5c2.7-5.3 1.5-8.5 1.8-9.3s1.4-5 1-10C64.7 48.4 59 42.7 54 41c-3.3-1.2-6.3-.9-6.3-.9M82.3 79s7 1.5 11.6-.5c5-2.1 7-4.8 8.7-8.8 1.4-3.4 3.8-5.1 4-9.2.4-10.3-4-11-4-11s-2-3.7-5.3-5.2C94.3 43 91 44 91 44s-1.7-2-5.3-1.3c-2.8.7-3.6 2.7-3.6 2.7s-4-1.2-8.7 4.5c-3.7 4.5-2.4 8-2.4 8s-3 1.6-3.2 6.3c-.3 4.8 2.5 7 2.5 7s-.3 3.6 3.5 6.1 8.5 1.7 8.5 1.7"/><path fill="#f8910a" d="M29.9 47.9s-4-.2-5.5 7.1c-1.7 7.7 1.2 10.7 1.2 10.7s-.5 4 2.4 7.6 6.4 4 6.4 4 2.7 4.3 9.8 3.7c7.8-.6 9.5-5.1 9.5-5.1s3.3-2.3 5.5-6.4 2.9-11.3.8-15c-1.9-3.4-3.6-4.6-3.6-4.6s-.2-3.3-4.2-5.8c-3-1.9-5.5-1-5.5-1s-3.7-3.6-9.8-1.7c-6 1.9-7 6.5-7 6.5"/><path fill="#9acd66" d="M31.2 49.6s-3.4 0-4.8 5.8c-1.7 7 1.4 10 1.4 10s-.4 3.7 1.6 6.3c2.8 3.6 5.5 3.4 5.5 3.4s2.7 4.3 9 3.6c6.4-.6 7.8-4.6 7.8-4.6s7.1-3.5 7.2-11.8-4.4-10.7-4.4-10.7-.7-4-3.4-5.5-4.9-.3-4.9-.3-3.3-3.7-8.2-2.6c-5 1.1-6.8 6.4-6.8 6.4"/><path fill="#699f1a" d="M21.6 88.2c0 .8 5.1 2.4 6 2.4s4.8-3.3 4.8-4.6-5.5-1.9-6.7-1.9c-1 0-4.1 3-4.1 4"/><path fill="#307b37" d="M70.7 83.1c-.9.3-2 6.7-2.1 7.5-.3 1.6.7 2.5 2 1.6 1.3-1 6.7-5.2 6.7-6.3s-4.8-3.2-6.6-2.8"/><path fill="#6f9923" d="M79.4 86.1c-.6 0-3 4.5-2.8 5.5.1 1 2.9 4.3 3.6 4.2s2.9-6.8 2.7-7.5c-.1-.6-2.6-2.2-3.5-2.2m13.8-56.9c-.7-.4-4.4 2.9-4.5 3.8s.4 5 1.3 5.4 5-3.4 5.2-4.3-1-4.4-2-4.9M39.7 59.6s.4-3.4 2.6-4.5 4.6-.3 4.6-.3-.9 3-2.8 4.1-4.4.7-4.4.7m.5 4.4c-1.5 1.3-1.6 4.7-1.6 4.7s2.2.3 4.1-1 2.5-4.6 2.5-4.6-3-.8-5 .9m-3.3-13.4s1-2.8 3.7-3c2.6-.2 4 2.4 4 2.4S43 52 41 52c-2.6 0-4.1-1.4-4.1-1.4M30.7 59s-2 1-1.9 3 2.6 4.4 2.6 4.4 1-3 .8-4.5-1.5-2.9-1.5-2.9"/><path fill="#307b37" d="M35.5 65s1.5-2.6 1.7-6c.3-3.3-1-5.6-1-5.6s-3.4.8-3.3 5.3c.2 3.3 2.6 6.4 2.6 6.4M49 49.6c-.3.1-.7 3.7 0 5.2 1 2 3.8 3 3.8 3s.7-3.2-.3-5a6 6 0 0 0-3.5-3.2m2.9 9.2s-1.3 1.3-1.4 3.2 2.3 5 2.3 5 1.5-2.5 1.6-4c.2-3-2.5-4.2-2.5-4.2M36.6 73.7c0 .5 3 3.3 7.8 1.8 4-1.2 3.6-6.1 3.6-6.1s-3.3-1-6.9.7c-3.5 1.6-4.5 3.6-4.5 3.6"/><path fill="#f8910a" d="M74.5 59.5q-1.1 0-1.2-1.2V57l.2-1.7q0-.9 1.3-1 1 .3 1 1.2V57l-.2 1.2q-.1 1.1-1.1 1.2m3.3-5.5q-.4 0-.7-.2-.9-.8-.3-1.7s.5-.7 1.3-1.2c.6-.5 1.4-.8 1.5-.8q1-.4 1.6.6c.6 1 0 1.3-.7 1.6q-.2 0-1 .6l-.8.6q-.3.5-1 .5m7.7-4.6a1 1 0 0 1-1-.5q-.4-.9.3-1.5.2-.3 2-.9l1.8-.2q1 .2 1 1.2-.2 1.3-1.3 1l-1 .2-1.2.4zm.5 5.2q-.5 0-1-.5-.5-.9.2-1.6l1.5-.8 1.9-.5a1.2 1.2 0 1 1 .4 2.3l-1.4.4-.9.4q-.3.3-.7.3m13.1-1q-.7 0-1-.6l-.5-.6-.6-.4q-1-.3-.8-1.4c.2-1 .7-1 1.3-.9q.5-.1 1.8 1l.9 1.1a1.2 1.2 0 0 1-1 1.8M72.7 67.3a1 1 0 0 1-1-1.5l.6-1.4.7-1.3a1.1 1.1 0 0 1 1.9 1.2l-1.1 2.2q-.3.8-1 .8m2 6.8q-.7 0-1-.8l-.4-1.7.1-1.7q.4-1 1.4-1 1.1.4 1 1.5v1l.1 1.1a1.2 1.2 0 0 1-1.1 1.6M70 24.2a1.2 1.2 0 0 1-1-1.8c.2-.2 1-1 2-1.5.8-.4 1.7-.6 1.8-.6q1.2-.1 1.4 1 .1 1-1 1.3L72 23l-1 .8q-.3.4-.9.4M79 29q-.9 0-1-1l-.4-.6-.6-.6c-.6-.2-.9-1-.7-1.5q.6-1 1.5-.7.5 0 1.7 1.4.8 1.3.8 1.6 0 1-1 1.4zm-15.6-7q-.5 0-.9-.5L62 21l-.8-.4a1.2 1.2 0 1 1 .7-2.3c.1 0 .9.3 1.5.8q1 .7 1 1a1.2 1.2 0 0 1-.9 1.8m-6 4q-.5 0-.9-.4-.8-.7 0-1.6l1.1-1.1c.5-.4 1.3-.8 1.5-.8a1.2 1.2 0 0 1 .9 2.2l-1 .4-.8.8q-.4.4-.9.4m-7 3.1h-.2q-1-.2-1-1.3l.7-2c.5-.7 1.2-1.3 1.2-1.3q1-.7 1.7.1.6 1-.2 1.7l-.6.8-.4 1q-.2 1-1.2 1"/></svg>