<svg xmlns="http://www.w3.org/2000/svg" width="1em" height="1em" viewBox="0 0 128 128"><path fill="#D4D4D4" d="M64.48 114.29c40.2 0 61.13-19.34 60.11-44.65c-.96-23.97-34.59-32.86-58.95-32.86S6.9 43.41 4.18 70.41c-2.32 23.01 17.39 43.88 60.3 43.88"/><path fill="#F6F6F7" d="M63.52 108.69c36.72.19 58.55-19.6 58.95-39.04c.58-27.65-30.35-34.8-59.15-35.57C35.61 33.33 7.39 45.7 6.11 67.9C4.95 88 24.85 108.48 63.52 108.69"/><path fill="#F4B54C" d="M9.23 68.2c.21 18.32 22.77 36.13 56.16 36.13c33.73 0 56.53-21.24 55.82-40.75c-.68-18.83-17.29-22.26-17.29-22.26S89.91 24.2 58.54 26.77c-35.61 2.91-38.7 20.55-38.7 20.55S9.06 53.65 9.23 68.2"/><path fill="#FFE0B1" d="M16.6 62.81c-1.36 1.13-2.73 23.64 29.35 32.08c34.06 8.96 66.17-7.8 67.3-28.24S81.2 47.37 81.2 47.37s-.28 8.88-.14 12.41c.14 3.53-12.5 7.33-22.84 7.47c-10.29.14-16.07-2.12-16.07-2.12s9.21 14.53 25.8 14.1C84.3 78.82 94.46 67.4 94.46 67.4s-.95 19.45-27.74 19.45c-37.93 0-48.43-25.45-50.12-24.04"/><path fill="#66361F" d="m54.08 28.77l-9.16 3.01s-1.79 1.23-1.79 3.8s1.23 4.47 1.23 4.47l6.03 43.44s7.48.11 12.62-5.58c5.14-5.69 6.03-9.94 6.03-9.94l2.19 1.12l-.79 3.51s1.11 6.09 5.08 8.88c3.22 2.27 5.95 2.01 5.95 2.01s1.65 2.59 7.15 2.95c5.24.34 8.35-1.94 8.35-1.94s3.27.56 5.95-1.79c2.68-2.34 2.32-4.91 2.32-4.91s2.88-.85 3.89-3.64c1-2.79.52-5.91.52-5.91s2.3-3.45.4-10.43c-1.75-6.46-7.37-8.37-7.37-8.37l-17.9-5.95s1.34-2.12 1.79-3.8c.45-1.67 0-4.13 0-4.13s1.04-1.82.66-3.81c-.53-2.76-3.67-4.23-3.67-4.23z"/><path fill="#974F2F" d="M51.62 20.73s-2.97.03-5.25 3.8c-2.44 4.03-1.45 7.26-1.45 7.26s8.82-.89 14.18 2.01c5.36 2.9 10.27 9.71 10.27 9.71s4.44.08 6.03-1.23c2.57-2.12 3.57-5.36 4.8-5.92s3.91-2.12 4.02-3.68c.11-1.56.67-5.41-.67-8.37c-1.56-3.46-4.35-6.92-9.04-8.26c-3.5-1-5.81 0-5.81 0s-2.46-2.34-6.92-1.9c-3.91.39-5.69 2.79-5.69 2.79s-1.67-.56-3.35.89c-1.38 1.18-1.12 2.9-1.12 2.9m-3.9 19.31s-3.39-3.19-10.73-1.14c-7.09 1.98-8.22 6.23-8.22 6.23s-3.9.66-5.85 5.98c-2.09 5.71-1.62 9.07-1.34 10.5c.56 2.79 1.92 4.69 1.92 4.69s-.44 1.69.48 5.03c1.12 4.07 3.59 6.15 6.47 7.67c1.59.84 4.31 1.92 4.31 1.92s3.7 2.44 6.58 3.48c4.94 1.77 11.28-.56 12.84-2.46c1.56-1.9 2.09-3.3 2.09-3.3s4.08-.7 6.28-5.08c2.67-5.31 1.41-8.47 1.74-9.26c.33-.78 1.41-5.04.95-10.01c-.54-6.04-6.24-11.68-11.23-13.4c-3.34-1.15-6.29-.85-6.29-.85m34.54 38.81s7.05 1.5 11.65-.47c4.93-2.11 6.92-4.75 8.65-8.83c1.41-3.32 3.84-5.05 4.02-9.19c.44-10.24-3.93-10.94-3.93-10.94s-2.01-3.77-5.33-5.18c-3.06-1.3-6.33-.3-6.33-.3s-1.71-2.11-5.33-1.31c-2.79.62-3.52 2.71-3.52 2.71s-4.07-1.26-8.75 4.42c-3.72 4.52-2.41 8.04-2.41 8.04s-2.92 1.62-3.2 6.3c-.28 4.75 2.55 7.02 2.55 7.02s-.36 3.57 3.46 6.09c3.83 2.52 8.47 1.64 8.47 1.64"/><path fill="#F8910A" d="M29.87 47.89s-3.9-.16-5.51 7.13c-1.71 7.68 1.22 10.7 1.22 10.7s-.44 3.95 2.42 7.6s6.41 3.92 6.41 3.92s2.69 4.36 9.76 3.79c7.81-.63 9.52-5.17 9.52-5.17s3.29-2.25 5.55-6.39c2.27-4.14 2.82-11.28.76-15.01c-1.85-3.33-3.59-4.55-3.59-4.55s-.16-3.3-4.23-5.83c-3.03-1.88-5.48-.89-5.48-.89s-3.65-3.65-9.76-1.78c-6.07 1.86-7.07 6.48-7.07 6.48"/><path fill="#9ACD66" d="M31.17 49.59s-3.35.01-4.75 5.83c-1.68 7 1.39 9.98 1.39 9.98s-.38 3.71 1.59 6.27c2.82 3.67 5.45 3.39 5.45 3.39s2.76 4.3 8.96 3.67c6.44-.65 7.87-4.63 7.87-4.63s7.17-3.54 7.27-11.82s-4.47-10.7-4.47-10.7s-.71-3.95-3.37-5.53s-4.88-.24-4.88-.24s-3.35-3.7-8.27-2.62c-5.05 1.13-6.79 6.4-6.79 6.4"/><path fill="#699F1A" d="M21.6 88.19c0 .86 5.12 2.46 5.96 2.46s4.86-3.31 4.86-4.6c0-1.3-5.57-1.94-6.68-1.94c-1.09 0-4.14 3.05-4.14 4.08"/><path fill="#307B37" d="M70.73 83.14c-.92.23-1.98 6.68-2.14 7.45c-.32 1.62.71 2.53 1.94 1.62c1.38-1.02 6.81-5.25 6.74-6.35c-.05-1.1-4.72-3.18-6.54-2.72"/><path fill="#6F9923" d="M79.42 86.12c-.65 0-2.98 4.47-2.85 5.45c.13.97 2.92 4.28 3.63 4.21c.71-.06 2.85-6.81 2.72-7.45c-.13-.66-2.66-2.21-3.5-2.21m13.81-56.91c-.71-.39-4.41 2.85-4.54 3.76c-.13.91.45 5.06 1.36 5.38c.91.32 4.99-3.37 5.12-4.28c.13-.91-1.03-4.37-1.94-4.86M39.74 59.63s.32-3.44 2.59-4.54s4.54-.32 4.54-.32s-.84 3.11-2.72 4.15c-1.88 1.04-4.41.71-4.41.71m.46 4.35c-1.51 1.27-1.56 4.73-1.56 4.73s2.14.32 4.08-1.04s2.46-4.6 2.46-4.6s-2.97-.78-4.98.91m-3.31-13.36s1.04-2.79 3.69-2.98c2.66-.19 4.08 2.4 4.08 2.4s-1.62 1.88-3.69 1.88c-2.52 0-4.08-1.3-4.08-1.3m-6.22 8.3s-1.88.97-1.82 2.98c.06 2.01 2.59 4.41 2.59 4.41s.91-2.92.78-4.54s-1.55-2.85-1.55-2.85"/><path fill="#307B37" d="M35.53 65.08s1.43-2.67 1.69-6.03c.26-3.37-.97-5.64-.97-5.64s-3.49.78-3.31 5.32c.13 3.24 2.59 6.35 2.59 6.35m13.48-15.5c-.32.13-.71 3.75.06 5.25c.97 1.88 3.69 3.05 3.69 3.05s.71-3.23-.26-5.12c-1.28-2.53-3.49-3.18-3.49-3.18m2.85 9.27s-1.3 1.3-1.36 3.11c-.06 2.07 2.27 4.99 2.27 4.99s1.52-2.47 1.62-3.95c.2-2.91-2.53-4.15-2.53-4.15M36.57 73.67c0 .5 3.12 3.29 7.84 1.85c4.02-1.23 3.57-6.16 3.57-6.16s-3.31-.91-6.87.76c-3.47 1.62-4.54 3.55-4.54 3.55"/><path fill="#F8910A" d="M74.48 59.51c-.65 0-1.17-.52-1.17-1.17c0 0 0-.61.07-1.42c.06-.75.04-1.2.13-1.69c.08-.49.51-.99 1.33-.95c.71.04 1.04.58 1 1.1c-.04.52-.06.96-.13 1.72c-.06.69-.06 1.21-.06 1.23c0 .66-.52 1.18-1.17 1.18m3.3-5.5c-.25 0-.5-.08-.72-.24c-.53-.4-.64-1.14-.25-1.67c.05-.07.51-.67 1.27-1.2c.67-.47 1.43-.79 1.51-.83c.61-.25 1.31.03 1.57.64s-.03 1.31-.64 1.57c-.01 0-.6.25-1.06.58c-.44.31-.72.67-.72.67c-.24.31-.6.48-.96.48m7.61-4.65c-.35 0-.69-.16-.9-.46c-.35-.49-.24-1.18.25-1.54c.08-.06.81-.57 1.91-.83c1.04-.25 1.7-.2 1.82-.19c.61.06 1.05.6.99 1.21c-.06.61-.61 1.06-1.21.99c-.01 0-.42-.02-1.09.14c-.67.16-1.12.47-1.12.47c-.21.15-.43.21-.65.21m.54 5.22c-.36 0-.72-.16-.95-.46c-.39-.51-.33-1.23.17-1.64c.12-.1.52-.39 1.49-.78s1.74-.52 1.83-.54c.65-.11 1.27.33 1.38.99c.11.65-.33 1.27-.99 1.38c0 0-.6.11-1.33.4c-.65.26-.88.42-.89.42c-.21.15-.46.23-.71.23m13.1-1.09c-.43 0-.84-.23-1.06-.63c0 0-.15-.26-.49-.6c-.25-.25-.53-.32-.53-.32c-.63-.16-1.03-.8-.89-1.43c.14-.63.75-1.04 1.39-.91c.16.03.98.23 1.73.97c.59.59.86 1.07.91 1.16c.31.58.09 1.31-.49 1.62c-.18.09-.38.14-.57.14m-26.22 13.8a1.115 1.115 0 0 1-1.05-1.47c.01-.03.25-.75.62-1.43c.34-.63.74-1.26.74-1.26a1.115 1.115 0 0 1 1.88 1.2c-.01.01-.36.57-.67 1.13c-.27.5-.46 1.06-.46 1.07c-.16.47-.59.76-1.06.76m2.16 6.8c-.5 0-.97-.32-1.13-.82c-.02-.07-.23-.7-.29-1.64c-.07-.95.06-1.65.08-1.73c.13-.65.77-1.07 1.41-.94c.65.13 1.07.76.94 1.41c0 .01-.08.47-.04 1.09c.04.64.18 1.06.18 1.06a1.204 1.204 0 0 1-1.15 1.57m-4.86-49.84a1.187 1.187 0 0 1-.98-1.84c.16-.25 1-1.09 1.9-1.52c.84-.4 1.81-.57 1.92-.59c.64-.11 1.25.33 1.35.98c.1.64-.33 1.25-.98 1.35c-.2.03-.82.17-1.27.38c-.42.2-.89.64-1.01.77c-.22.31-.57.47-.93.47m8.85 4.76c-.49-.06-.91-.44-1.01-.95c0 0-.08-.27-.34-.63c-.33-.44-.63-.59-.64-.59c-.58-.27-.86-.95-.62-1.54c.25-.59.89-.88 1.49-.66c.15.06.94.39 1.67 1.38c.59.79.73 1.46.76 1.59c.12.64-.3 1.26-.94 1.38c-.12.03-.25.04-.37.02m-15.53-7.06c-.34 0-.67-.14-.9-.42c0 0-.24-.27-.62-.55c-.23-.16-.64-.34-.85-.41c-.62-.21-.95-.88-.74-1.49c.21-.62.87-.95 1.49-.74c.09.03.89.31 1.49.73c.61.44 1 .89 1.04.94c.42.5.36 1.24-.14 1.66c-.23.19-.5.28-.77.28m-6.11 3.88c-.28 0-.56-.1-.78-.3c-.49-.43-.53-1.17-.1-1.66c.05-.06.52-.59 1.2-1.1c.51-.39 1.28-.72 1.43-.78c.6-.25 1.29.04 1.54.64s-.04 1.29-.64 1.54c-.26.11-.7.32-.91.48c-.49.37-.85.78-.86.78c-.23.27-.55.4-.88.4m-7.02 3.1c-.06 0-.11 0-.17-.01c-.64-.09-1.09-.68-1-1.32c.01-.1.15-1 .7-1.93c.47-.79 1.14-1.34 1.22-1.41c.51-.41 1.25-.32 1.66.18c.41.51.33 1.25-.18 1.66c-.11.09-.46.41-.67.77a3.16 3.16 0 0 0-.39 1.05c-.09.58-.59 1.01-1.17 1.01"/></svg>