<svg viewBox="0 0 128 128"><path fill="#afafaf" d="M64.2 3.7c4 0 13.2 8 13.2 8s16-1.6 19 .3 5.8 16 5.8 16 11.5 2 13.6 5 .8 17 .8 17 7.8 8.8 7.5 13.2-8 13.4-8 13.4 2.7 14.3 1 17.5-14.5 8.8-14.5 8.8-4.8 12-7 13.5c-2.2 1.4-18.3-.3-18.3-.3s-9.8 8.5-12.5 8.6-13.2-8.8-13.2-8.8-16 2.2-18.4.8c-2.6-1.6-6.6-12.9-6.6-12.9S14 100.6 12 97.2C10.3 94.7 10.8 80 10.8 80s-7-10.7-7.3-15c-.1-3.5 8.3-13.4 8.3-13.4S10.6 36 12.3 33s11.8-4 11.8-4 4.6-14.5 7.7-16.4 18.6.6 18.6.6 10-9.4 13.8-9.4"/><path fill="#e2e2e2" d="M64 7.3c-1.8-.2-12 9.6-12 9.6s-15.3-1.6-17-.8c-1.8.8-6.6 15.4-6.6 15.4s-11.5 1.6-13 3.8.7 17.1.7 17.1-8.5 10.4-8.5 12.1S15.5 78 15.5 78 14 89.8 15 91.4s13.7 6 13.7 6 4 12.8 6.3 13.6 17.6-1.4 17.6-1.4 9.9 7.6 11.6 7.6 11.2-8 11.2-8 16.6 1.8 18.2 1.2 8-14 8-14 11.8-3.9 12.4-5.8-2.3-17-2.3-17 9-9.7 8.8-12.2a44 44 0 0 0-7.9-10.9s1.3-14 .2-15.9S99.3 31 99.3 31 96 16.6 94.5 15.6s-16.8.8-16.8.8-12-9-13.7-9.1"/><path fill="#feffff" d="M64.2 12.6s10.5 8.2 12 8.5c1.4.3 15.4-1.7 15.4-1.7s3 13.8 3.9 14.8 13 3.6 13 3.6-.3 13.2.2 14l7 9.7s-8.1 10-8.4 11.2 3 15.9 3 15.9S99 93 98 93.8s-6.3 12-6.3 12-15.5-1.7-17.4-1.2-9.8 7-9.8 7-9.7-6.4-11.1-6.8-16.4 1.7-16.4 1.7-4.9-12.1-5.6-12.9-11.7-5-11.7-5 .8-12.3.5-13.2c-.3-1-7.2-11.2-7.2-11.2s7.2-9.6 7.7-11.6-1-14.6-1-14.6 11.7-2.7 12.4-3.5 5.2-14.8 5.2-14.8 14.3 2.2 16 2 10.9-9 10.9-9"/><path fill="#ef7ead" d="M67.5 29.4c.3 2-5.3 2.2-11.3 5.3-5.6 2.8-25.6 16.8-14.3 39.3 5 9.9 15 13.9 25.5 12.6 13.2-1.6 24-12.2 20.6-26A15.6 15.6 0 0 0 73.6 48c-8.4-1-15.5 5-15.6 11.4-.2 11 13 9.7 12.7 4s3-6 3.8-6.2c1 0 4.8.8 5 5.9s-3.3 15-16.3 14.2c-13.7-1-15.1-14.3-14.5-19.8.4-2.7 3.6-17.3 20.8-18.4a25 25 0 0 1 27.3 23.6C98 85.3 80.2 97.2 61.3 96.1S30.5 78.7 31 59.8c.4-19.8 17.1-27.9 22-30 5.3-2.3 14.4-2.8 14.6-.4"/></svg>