<svg xmlns="http://www.w3.org/2000/svg" width="1em" height="1em" viewBox="0 0 128 128"><path fill="#AFAFAF" d="M64.2 3.67c4.09 0 13.2 8.02 13.2 8.02s16.03-1.57 19.02.31c2.99 1.89 5.82 16.03 5.82 16.03s11.48 2.04 13.52 5.03c2.04 2.99.79 16.98.79 16.98s7.86 8.8 7.55 13.2s-8.02 13.36-8.02 13.36s2.67 14.31.94 17.45c-1.73 3.14-14.46 8.8-14.46 8.8s-4.72 12.1-6.92 13.52c-2.2 1.41-18.39-.31-18.39-.31s-9.75 8.49-12.42 8.65c-2.67.16-13.2-8.8-13.2-8.8s-16.03 2.2-18.39.79c-2.66-1.59-6.6-12.89-6.6-12.89s-12.69-3.26-14.78-6.6c-1.57-2.52-1.1-17.29-1.1-17.29s-7.04-10.7-7.24-15.1c-.16-3.46 8.33-13.36 8.33-13.36s-1.26-15.56.47-18.55s11.79-3.93 11.79-3.93s4.56-14.62 7.7-16.51s18.55.63 18.55.63S60.42 3.67 64.2 3.67"/><path fill="#E2E2E2" d="M64.04 7.29c-1.88-.17-11.95 9.59-11.95 9.59s-15.41-1.57-17.13-.79c-1.73.79-6.6 15.41-6.6 15.41s-11.48 1.57-13.05 3.77s.79 17.13.79 17.13s-8.5 10.38-8.5 12.11c0 1.73 7.86 13.52 7.86 13.52s-1.41 11.79-.47 13.36c.94 1.57 13.68 5.97 13.68 5.97s4.09 12.89 6.29 13.68c2.2.79 17.61-1.41 17.61-1.41s9.9 7.55 11.63 7.55c1.73 0 11.16-8.02 11.16-8.02s16.66 1.89 18.24 1.26s8.02-13.99 8.02-13.99s11.79-3.93 12.42-5.82s-2.36-16.98-2.36-16.98s8.96-9.75 8.8-12.26c-.16-2.52-7.86-10.85-7.86-10.85s1.26-13.99.16-15.88c-1.1-1.89-13.52-3.77-13.52-3.77s-3.14-14.31-4.72-15.25c-1.57-.94-16.82.79-16.82.79S65.77 7.45 64.04 7.29"/><path fill="#FEFFFF" d="M64.2 12.63s10.53 8.17 11.95 8.49c1.41.31 15.41-1.73 15.41-1.73s2.99 13.83 3.93 14.78s13.05 3.62 13.05 3.62s-.31 13.2.16 13.99c.47.79 6.92 9.75 6.92 9.75s-8.02 9.9-8.33 11.16s2.99 15.88 2.99 15.88s-11.32 4.4-12.26 5.19c-.94.79-6.29 12.1-6.29 12.1s-15.56-1.73-17.45-1.26c-1.89.47-9.75 6.92-9.75 6.92s-9.75-6.29-11.16-6.76c-1.41-.47-16.35 1.73-16.35 1.73s-4.87-12.1-5.66-12.89c-.79-.79-11.63-5.03-11.63-5.03s.79-12.26.47-13.2c-.31-.94-7.23-11.16-7.23-11.16s7.23-9.59 7.7-11.63s-.94-14.62-.94-14.62s11.63-2.67 12.42-3.46c.79-.79 5.19-14.78 5.19-14.78s14.31 2.2 15.88 1.89s10.98-8.98 10.98-8.98"/><path fill="#EF7EAD" d="M67.54 29.39c.24 1.93-5.32 2.25-11.38 5.3c-5.56 2.8-25.58 16.83-14.3 39.29c4.98 9.92 14.98 13.91 25.58 12.64c13.13-1.57 23.93-12.25 20.52-26.07c-2.13-8.63-8.25-11.86-14.36-12.56c-8.4-.96-15.48 4.97-15.6 11.39c-.19 10.99 12.94 9.73 12.74 4.08s2.92-6.13 3.79-6.22c.88-.1 4.77.78 4.96 5.84s-3.3 15.11-16.24 14.2c-13.71-.96-15.18-14.29-14.5-19.73c.34-2.73 3.51-17.32 20.73-18.49c17.29-1.17 26.77 12.4 27.36 23.68c1.17 22.56-16.66 34.48-35.53 33.41S30.48 78.66 30.87 59.79c.41-19.84 17.15-27.88 22.03-30.02c5.29-2.31 14.35-2.76 14.64-.38"/></svg>