<svg viewBox="0 0 128 128"><radialGradient id="a" cx="64.6" cy="-7.9" r="83.1" gradientUnits="userSpaceOnUse"><stop offset=".4" stop-color="#fcc216"/><stop offset=".6" stop-color="#fabb16"/><stop offset=".8" stop-color="#f3a814"/><stop offset=".9" stop-color="#ed9913"/></radialGradient><path fill="url(#a)" d="m29.5 59.9-2.7-5.7-6.4-25-1.6-3.8 2.4-5.8s3.3.5 5.8 3.3c3.1 3.5 8.2 14 8.2 14L34 28.6l5.7-14.9s2.6-.2 3.2.5c1.2 1.2 3.3 9.7 4 12.4s1.7 6.5 3 8 2.7 2 2.7 2l4.6-17.4 1-15.8s1.6 0 3.8.5q2.5.6 3.4 1.6c.9 1 .5 11.3.5 11.3s9.5-8.1 9.9-8c.6.2 2.7.6 3.7 1.8 1.1 1.2.2 5.5-.6 8.4l-3.6 12.3 2.5-1 .6.5 4.7-7.2s1.7 0 3 .7a6 6 0 0 1 2.5 2.5l12-17.5 1.8 1.7q1.3 1 1.4 2.2c0 .8-2.8 6.2-4.2 8.9S96 30.2 96 30.2l9.8-7.5s3.3.4 3.4 1.5c0 1.1-1.6 3.1-3.4 6s-4.6 8.8-5.6 10.8.4 2.1.4 2.1l11.8-7.4s2.5.5 2.8 1.7c.2 1.3-2.7 4-4.6 6.2a68 68 0 0 0-11.5 18l-18 17.9-47.7-3z"/><path fill="#fbde93" d="M89.2 40.2c-1.2.3-5 6.8-8.6 16.8-2 6-3.5 12.6-3.4 15.7S82 75 82 75l2-6.5s2.3-7.7 5-13.4c3-6.7 7-11 6.8-12-.4-1.3-5-3.2-6.6-2.8m11.9-17c-1.7 1-5.5 7.3-6.6 9.7s-1.2 7 0 7.5c1.6.8 3.3-4.4 5.9-8.6l5.6-9.1s-3-.7-5 .4m6.4 12.6c-2.5 1-7.3 6.2-9 8.8-3 4.7-5.3 10-6.1 12.2s-1.4 5.2 1 3.8 5.8-7.8 9.9-13.6c4.7-6.7 9.3-11.3 9.3-11.3s-3-.8-5 .1M96.6 7c-1 0-3.7 7.1-5.3 10.6l-3.6 8s-1.1 9.1.6 9.3 5-11 7.4-16 5-9.6 5-9.6-2.2-2-4.1-2.3M78.9 25c-1 1-.4 5.9-.4 5.9s3.4 2.5 4 2 .8-9.3.8-9.3-3 0-4.4 1.5m-7.2 6.6c-1.2 1-.4 6-.7 10.3-.5 6.6-2.4 20.2-3 24.1l-1.1 8.3 6.2-1L76.5 48c1-7 2.4-17.1 1.4-17.7s-4.7.2-6.2 1.5M71 8.2c-1.6.3-5 8.6-5 8.6l-.2 9c0 3-.5 6.3.4 6.3s2.9-5.6 4.8-10.4l4.9-13s-2.7-1-5-.5m-18.1-3c-1.1 1 .6 4 .8 12.1.1 8.2-.9 19.3-.9 19.3s.9 0 1.4 1.7c.5 1.4 1.2 10 2.2 9.6 1-.3 2.2-6 3.1-15.7s.6-17.1.3-20.2-1.4-8.6-1.4-8.6-4 0-5.5 1.7m-13 8.6s-4.6.4-5.9 2.9-.9 3.7-.6 6l1 7.3s4.2 5.3 6.6 4-1-20.2-1-20.2m-18.7 5.9s-2.6-.5-4.2-.2-1.4 1.8-.7 2.8 4 7 4 7 1 0 2.4.5 3.5 1.6 3.4-.3c-.2-3.4-5-9.8-5-9.8m7.3 38s-4.8-9.8-8.5-15.2-7.4-9.6-7.4-10.5 2.5-1.8 4-2.2 4-.4 4-.4 5.9 10 8.3 15.5 4.7 11.9 4.1 12.6c-.5.7-4.1.3-4.5.2M31.7 40c-.4 1.5 1.4 7.9 2.6 12.4l2.5 9.5 3.8 7.9 4.3-1.6s-2.2-4.3-3.5-8.8-3-18.6-4.7-20.4c-1.2-1.3-4.8.2-5 1M45 38.4c-1 .7.5 11.4 1.3 15.8s2.5 9.1 3.4 11.3 3.5 7.6 3.5 7.6 2.6 3.2 2.7 2.9l1.2-4.3s-3.5-10.5-4.1-15-1.4-18.2-2.3-18.7-4.1-.6-5.7.4m18 .3c-1.3 1-2.5 16-3 21.4s-.9 13.5-.9 13.5l5.4-.4L67 50.7c.3-2.6 1.8-8.4 1-10.8-.6-2.3-3.9-2.2-4.9-1.2"/><path fill="#fd703f" d="M26.8 59.4c-.3.8 10.2 58.3 10.4 59.2s-.2 1.6 1.4 2.4a21 21 0 0 0 5.9 1.3c1.6.2 12.9.2 13-1.1s33.8-50.6 33.8-50.6 6.2-10.4 5.8-11.3-2.1-.4-4 .8-3.4 4.4-8.6 7.8c-5.6 3.8-13 4.6-20.4 4.5-6.8-.1-15-1.4-20.7-5.7-5.2-3.8-6.7-6.5-11.2-7.7-4-1-5.4.4-5.4.4"/><path fill="#ff2a23" d="m34.8 63.2 9.5 59.2s11.4 1.6 20.2 1.8c9 .1 19.5-1.7 19.5-1.7l7.7-26 6.5-34.2s-1.6-1.6-3.4-.3c-1.4 1-5.7 7.7-13.3 10.6a53 53 0 0 1-33.6-.5c-8.8-3.7-11.5-8.6-13.1-9"/><path fill="#dc0d25" d="M89.5 120.7c-2 1.1-6.4 2-6.4 2l7-33.2c2.5-11.3 6-30.6 6-30.6s1.4-.3 3 0q2.4.2 3 1.1c.5.9-2.8 17-6 32.6-3 14.4-5.6 27.5-6.6 28"/></svg>