<svg xmlns="http://www.w3.org/2000/svg" width="1em" height="1em" viewBox="0 0 128 128"><radialGradient id="a" cx="64.587" cy="-7.872" r="83.128" gradientUnits="userSpaceOnUse"><stop offset=".447" stop-color="#fcc216"/><stop offset=".59" stop-color="#fabb16"/><stop offset=".794" stop-color="#f3a814"/><stop offset=".921" stop-color="#ed9913"/></radialGradient><path fill="url(#a)" d="m29.46 59.86-2.62-5.69-6.41-24.92-1.63-3.88 2.35-5.78s3.33.47 5.87 3.34c3.09 3.5 8.13 13.97 8.13 13.97l-1.06-8.26 5.75-14.91s2.52-.27 3.19.42c1.19 1.22 3.22 9.78 3.94 12.49s1.72 6.41 2.98 8.03 2.8 1.99 2.8 1.99l4.51-17.42 1.08-15.8s1.58-.01 3.79.45c1.67.35 2.79.92 3.33 1.59s.56 11.32.56 11.32 9.53-8.12 9.84-8.03c.66.18 2.71.63 3.79 1.81 1.08 1.17.18 5.51-.63 8.4s-3.61 12.28-3.61 12.28l2.53-.96.56.54 4.71-7.23s1.7-.01 3.08.67c1.5.74 2.4 2.56 2.4 2.56l12.1-17.51s.92.82 1.73 1.63 1.38 1.38 1.42 2.2c.04.81-2.88 6.2-4.23 8.91S96.1 30.2 96.1 30.2l9.84-7.51s3.26.46 3.36 1.54c.09 1.08-1.64 3.08-3.36 6.06s-4.6 8.76-5.6 10.74.36 2.08.36 2.08l11.79-7.45s2.54.52 2.78 1.7c.27 1.35-2.65 4.04-4.55 6.2-1.9 2.17-5.96 7.4-8.03 11.47s-3.46 6.61-3.46 6.61L81.28 79.45l-47.76-2.89z"/><path fill="#fbde93" d="M89.17 40.2c-1.2.28-4.99 6.84-8.53 16.82-2.13 6-3.54 12.56-3.46 15.7S82 74.9 82 74.9l2.01-6.52s2.25-7.65 4.91-13.36c3.11-6.7 7.14-10.96 6.84-11.99-.4-1.38-4.9-3.23-6.59-2.83m11.91-17.06c-1.68.98-5.47 7.32-6.6 9.74s-1.17 6.97.07 7.56c1.53.72 3.23-4.42 5.81-8.69s5.63-9.1 5.63-9.1-2.98-.64-4.91.49m6.36 12.56c-2.57 1.09-7.36 6.2-9.02 8.77-3.06 4.75-5.31 10.06-6.12 12.23-.8 2.17-1.45 5.15 1.05 3.78s5.71-7.81 9.82-13.6c4.76-6.72 9.34-11.27 9.34-11.27s-2.98-.8-5.07.09M96.65 7.04c-.99-.12-3.7 7.08-5.23 10.54s-3.57 8.04-3.57 8.04-1.18 9.11.51 9.27 5-10.95 7.47-16.04c2.41-4.96 4.95-9.55 4.95-9.55s-2.2-2.02-4.13-2.26m-17.8 18.04c-.89.94-.39 5.78-.39 5.78s3.46 2.58 4.11 2.01.68-9.31.68-9.31-2.95-.01-4.4 1.52m-7.15 6.59c-1.25 1.05-.4 5.97-.72 10.38-.48 6.6-2.41 20.12-2.98 24.07s-1.13 8.29-1.13 8.29l6.2-.97s2.41-18.43 3.38-25.52 2.41-17.14 1.45-17.71c-.97-.55-4.67.17-6.2 1.46m-.75-23.51c-1.58.3-4.92 8.64-4.92 8.64s-.2 6.02-.2 8.92-.56 6.36.4 6.36 2.82-5.55 4.75-10.38 4.89-12.93 4.89-12.93-2.68-1.03-4.92-.61M52.78 5.11c-1.09 1.15.64 4.11.8 12.23.16 8.13-.84 19.31-.84 19.31s.86-.06 1.4 1.61c.46 1.41 1.21 9.98 2.17 9.66.97-.32 2.17-6.04 3.14-15.7s.56-17.14.24-20.2-1.36-8.6-1.36-8.6-3.94 0-5.55 1.69m-12.94 8.62s-4.65.33-5.93 2.83c-1.29 2.5-.88 3.71-.64 6.12s1 7.22 1 7.22 4.27 5.31 6.6 4.02c2.33-1.28-1.03-20.19-1.03-20.19m-18.69 5.86s-2.58-.48-4.11-.16-1.45 1.77-.72 2.74c.72.97 4.05 6.99 4.05 6.99s.99.02 2.28.5 3.5 1.68 3.41-.25c-.16-3.37-4.91-9.82-4.91-9.82m7.27 38.01s-4.86-9.83-8.48-15.23-7.41-9.58-7.41-10.46c0-.89 2.5-1.77 3.94-2.17s3.95-.49 3.95-.49 5.95 10.06 8.37 15.54 4.67 11.86 4.11 12.64c-.51.7-4.12.23-4.48.17m3.27-17.56c-.38 1.41 1.45 7.81 2.58 12.4s2.5 9.42 2.5 9.42l3.86 7.89 4.27-1.53s-2.25-4.35-3.54-8.85C40.07 54.85 38.4 40.83 36.68 39c-1.2-1.29-4.74.16-4.99 1.04m13.37-1.61c-1.01.66.56 11.35 1.37 15.78s2.5 9.1 3.38 11.27c.89 2.17 3.46 7.65 3.46 7.65s2.66 3.14 2.74 2.82 1.21-4.27 1.21-4.27-3.55-10.47-4.12-14.98c-.56-4.51-1.45-18.19-2.33-18.67s-4.1-.64-5.71.4m17.95.24c-1.21 1.12-2.41 15.94-2.9 21.41s-.89 13.52-.89 13.52l5.39-.4s2.01-19.88 2.33-22.46 1.77-8.45 1.05-10.79c-.72-2.32-3.94-2.24-4.98-1.28"/><path fill="#fd703f" d="M26.82 59.43c-.34.77 10.17 58.28 10.34 59.14s-.17 1.64 1.46 2.41c1.64.77 4.2 1.18 5.84 1.36 1.64.17 12.93.19 13.02-1.18.09-1.38 33.84-50.54 33.84-50.54s6.22-10.43 5.79-11.29-2.11-.46-3.94.79c-1.83 1.26-3.52 4.37-8.66 7.82-5.57 3.74-12.95 4.53-20.37 4.44-6.84-.09-14.97-1.33-20.79-5.64-5.12-3.8-6.63-6.54-11.19-7.75-4.02-1.07-5.34.44-5.34.44"/><path fill="#ff2a23" d="m34.77 63.19 9.54 59.17s11.37 1.64 20.23 1.81c8.87.17 19.44-1.68 19.44-1.68l7.68-25.96 6.52-34.25s-1.61-1.61-3.42-.28c-1.39 1.02-5.68 7.66-13.26 10.59-8.55 3.3-23.96 3.54-33.58-.52-8.82-3.71-11.51-8.54-13.15-8.88"/><path fill="#dc0d25" d="M89.51 120.67c-1.94 1.16-6.46 1.94-6.46 1.94s4.48-21.78 6.97-33.15 6.08-30.6 6.08-30.6 1.44-.23 2.92-.05c1.68.21 2.68.7 3.02 1.23.55.86-2.76 16.92-6 32.6-2.96 14.4-5.5 27.42-6.53 28.03"/></svg>