<svg viewBox="0 0 128 128"><path fill="#ed6d30" d="M56.2 82.5s-3-5.4-7.6-10.2-9.3-7-9.3-7l-.1-4c-.2-1.6-.8-4-.8-4S40 50 39.5 42s-3.5-11-7-11.4c-3.7-.5-5.4 2.5-5.4 2.5s-3.5-5.2-9.6-3c-5.4 2-4.8 8.2-4.8 8.2s-4.5-1-7.2 1.8c-2.3 2.3-2.9 7 1.3 14.4 6 10.6 14 15.1 14 15.1s.8 7.7 5.8 17.5c5.3 10.1 13.4 16 17 16 4.4.2 12.6-20.6 12.6-20.6"/><path fill="#e17f13" d="m108.5 33-12-2.6-11.2 59-41.6 16.2s-1 3.7 4 5.7c3.6 1.5 6.3.1 6.3.1s1.4 3 5.8 3.3 5.8-1 5.8-1 1.8 2.4 5.8 2c4-.2 4.9-2.3 6-2.4s4 2.6 9.4.6 6.3-6 6.2-5.7 6.4.5 10.6-4.2c3.8-4.3 3-6 4-7.9 1.1-1.7 4.2-1 7.8-6.5 3.6-5.7 2.2-7 2.9-8.6s3.6-3.4 4.4-7.4-1.7-6.2-1.3-9c.3-2.3 2.6-4.8 2.6-8.6 0-5-5.7-7.7-5.7-7.7s.5-5.4-1-8.5c-2.4-5.4-8.8-6.8-8.8-6.8"/><path fill="#d63102" d="M19.7 38.9c-2.4.9-1.3 4.6 0 7s3.6 8.2 4.6 10c.6 1.2 1.6 2.8 3.3 2.3s1.2-2.7.7-4l-3.5-9.7c-.7-2-2.1-6.8-5.1-5.6M31.6 40q-3.4.1-2.5 6.4l1.7 11.4c.1 1.2.6 3 2.3 2.8 1.6-.1 1.4-2.4 1.4-3.5l-.3-11.8c-.2-2-.3-5.4-2.7-5.3m-19 7.6c-1.5 1-1.4 3.3.4 5.8 1.5 2 7.4 9 8.3 10.1s2.4 1.6 3.4.5c.8-.8.2-2.3-.3-3-.8-1-5.6-8.5-6.4-9.9-.8-1.3-3-5.2-5.4-3.5"/><path fill="#fcc11a" d="M64.4 79.9s-2.2-3.6-6.8-3.2-5.2 3.9-5.2 3.9-4.4-1.7-7.3 2c-2.3 3-1 7.5-1 7.5s-4.8 1.4-4.7 7.8 4 7.9 5 8.3 3 .1 3 .1 2.3 3 5.8 2.8 6.6-1.8 8.4-1.6c2 .1 3.8 2 6.3 2.6 4 1 7.2-1 9.8-3.1s3.5-4.2 5.4-5.1c2.2-1.1 5.4-.4 7.7-2 2.3-1.5 1.7-3.3 3.7-4.7s3.3-.5 6.4-3.7c3-3.3 1.8-6.5 3-8.6s2.5-.4 4.6-4.4.2-8 1-10.7 3.3-3.3 3.7-7.2-2.8-7.5-2.7-10 2.7-3.5 2.8-8.6-2-8-2-8 1-3.9-2.2-8-7.5-4-7.5-4 .8-4-3.8-6.7-9-1-9-1-2.4-2.9-8-3c-6 0-8.2 2.6-8.2 2.6s-3.5-2.7-9-.3c-4.6 2.1-5 5.4-5 5.4s-4.3-.5-7.2 3c-3 3.6-1.8 8-1.8 8s-3.7 2.4-3.5 7.2c.1 5.6 3.4 7.3 3.4 7.3s-3 5.4 3.3 12 10.4 4.3 10.4 4.3 2.3 2.7 5.8 3.4 6.6-.6 6.6-.6 1 1.7 2.3 2.9 2.8 2 2.8 2-1.2 1.2-1.7 3.1-.1 4.5-.1 4.5-3.4-.3-7.6.6a16 16 0 0 0-7 3.2"/><path fill="#e17f13" d="M104.6 34.3c-1.7 0-1.5 2.1-1.5 3.6s-.6 3.7 1.5 3.8c2 0 2-2.6 2-3.7.2-1.6 0-3.8-2-3.7m2.2 22.7c-1.6.1-1.7 2-1.8 3.6-.1 1.5-1.1 3.9.7 4.5 1.8.5 2.8-1.7 3-3.9.1-2.2.1-4.4-2-4.2M65 103.2c-.3 1.6.4 3 3.7 3.5s4.2-.8 4.3-2c.2-2-1.8-2.8-3.8-3-1.6-.3-3.8-.3-4.2 1.5m-17.6-1.8c-.8 2 .8 3 3.3 3.8s4.3.3 4.8-1.2c.5-1.4-1-2.4-3.5-3-2.4-.7-4-1.1-4.6.4"/></svg>