<svg xmlns="http://www.w3.org/2000/svg" width="1em" height="1em" viewBox="0 0 128 128"><path fill="#ED6D30" d="M56.17 82.48s-2.95-5.43-7.56-10.16c-4.61-4.72-9.33-6.97-9.33-6.97s0-2.6-.12-4.13c-.12-1.54-.77-3.89-.77-3.89s1.6-7.33 1.12-15.48c-.47-8.15-3.54-10.75-6.97-11.22c-3.76-.52-5.43 2.48-5.43 2.48s-3.46-5.21-9.57-2.95c-5.43 2.01-4.84 8.15-4.84 8.15s-4.49-1.06-7.2 1.77c-2.25 2.35-2.87 7.06 1.3 14.41c6.02 10.63 14.05 15.12 14.05 15.12s.77 7.73 5.79 17.48c5.22 10.15 13.35 15.94 17.01 16.06c4.39.14 12.52-20.67 12.52-20.67"/><path fill="#E17F13" d="m108.53 33l-12.08-2.57l-11.2 58.99l-41.53 16.19s-.93 3.66 4.02 5.72c3.54 1.48 6.22.11 6.22.11s1.45 2.9 5.87 3.28s5.81-1.01 5.81-1.01s1.77 2.4 5.74 2.08c3.98-.32 4.92-2.35 5.93-2.45c1.01-.1 4.04 2.58 9.47.56c5.43-2.02 6.31-5.93 6.25-5.68c-.06.25 6.37.5 10.54-4.23c3.8-4.31 2.98-6.08 4.07-7.84c1.08-1.76 4.2-1.07 7.73-6.54c3.66-5.68 2.27-6.94 2.9-8.58s3.66-3.41 4.48-7.38c.82-3.98-1.7-6.2-1.33-9.02c.31-2.34 2.63-4.82 2.63-8.67c0-4.94-5.72-7.61-5.72-7.61s.44-5.46-.95-8.52c-2.46-5.45-8.85-6.83-8.85-6.83"/><path fill="#D63102" d="M19.69 38.85c-2.4.93-1.31 4.6-.08 7.06s3.73 8.21 4.68 10.07c.58 1.13 1.63 2.74 3.29 2.22s1.19-2.74.75-4.05c-.44-1.31-2.86-7.65-3.53-9.68c-.67-2.01-2.14-6.77-5.11-5.62M31.55 40c-2.3.12-2.93 2.18-2.46 6.43s1.59 10.19 1.71 11.38s.63 2.97 2.26 2.82c1.63-.16 1.39-2.42 1.39-3.49c0-1.07-.16-9.76-.28-11.82c-.13-2.07-.29-5.44-2.62-5.32m-19.08 7.58c-1.46.98-1.35 3.37.44 5.83c1.45 1.99 7.34 9.04 8.29 10.11c.95 1.07 2.42 1.55 3.37.52c.8-.87.18-2.37-.32-3.05c-.71-.99-5.51-8.49-6.35-9.84c-.83-1.35-3.01-5.2-5.43-3.57"/><path fill="#FCC11A" d="M64.38 79.89s-2.19-3.56-6.75-3.17c-4.54.39-5.27 3.84-5.27 3.84s-4.38-1.68-7.24 2.11c-2.27 3-.93 7.41-.93 7.41s-4.85 1.37-4.79 7.8c.06 6.48 3.91 7.91 5.05 8.31c1.14.4 3.01.15 3.01.15s2.22 2.96 5.76 2.74c3.54-.22 6.57-1.77 8.34-1.62c2.09.17 3.8 1.95 6.33 2.63c4.09 1.1 7.25-1.05 9.83-3.12s3.45-4.14 5.39-5.09c2.23-1.09 5.39-.37 7.67-1.92c2.29-1.55 1.7-3.39 3.69-4.72c1.99-1.33 3.32-.52 6.42-3.76c3.1-3.25 1.77-6.49 2.95-8.56c1.18-2.07 2.58-.44 4.65-4.43s.22-8.04 1.03-10.7s3.32-3.25 3.69-7.23s-2.83-7.44-2.68-9.95c.15-2.51 2.63-3.49 2.78-8.65c.15-5.16-1.95-7.88-1.95-7.88s.96-3.98-2.29-8.11c-3.25-4.13-7.45-4.06-7.45-4.06s.74-3.91-3.84-6.64s-9-.89-9-.89s-2.36-2.96-7.89-3.02c-6.05-.07-8.26 2.51-8.26 2.51s-3.54-2.66-9-.22c-4.61 2.06-5.02 5.31-5.02 5.31s-4.31-.41-7.23 3.1c-2.95 3.54-1.77 7.89-1.77 7.89s-3.69 2.43-3.54 7.3c.17 5.54 3.39 7.23 3.39 7.23s-3.02 5.46 3.39 12.1s10.4 4.2 10.4 4.2s2.25 2.68 5.79 3.42c3.54.74 6.61-.62 6.61-.62s.96 1.77 2.29 2.88s2.73 2.07 2.73 2.07s-1.18 1.18-1.7 3.1c-.52 1.92-.07 4.43-.07 4.43s-3.39-.3-7.6.66c-4.64 1.06-6.92 3.17-6.92 3.17"/><path fill="#E17F13" d="M104.56 34.29c-1.63.08-1.44 2.12-1.47 3.56c-.03 1.44-.63 3.75 1.47 3.81c1.96.05 2.03-2.61 2.09-3.62c.11-1.63-.02-3.86-2.09-3.75M106.77 57c-1.53.12-1.68 1.96-1.78 3.58c-.09 1.56-1.09 3.92.72 4.49c1.81.56 2.83-1.68 2.99-3.86c.15-2.19.12-4.38-1.93-4.21m-41.83 46.22c-.37 1.59.34 3.07 3.71 3.52c3.27.44 4.14-.83 4.27-2.12c.19-1.96-1.78-2.71-3.77-2.96c-1.67-.21-3.8-.21-4.21 1.56m-17.66-1.78c-.77 1.92.87 2.99 3.36 3.74c2.49.75 4.27.28 4.77-1.18c.49-1.44-1.06-2.37-3.46-3.05c-2.4-.69-4.05-1.06-4.67.49"/></svg>