<svg xmlns="http://www.w3.org/2000/svg" width="1em" height="1em" viewBox="0 0 128 128"><path fill="#BB9176" d="m63.2 98.97l-16.13 10.8s3.79 1.95 5.53 5.16c2.1 3.87.81 6.52 1.72 6.79c.73.22 2.77-.42 3.35-1.54c.72-1.4.68-2.36.68-2.36s1.06.68 2.67 3.4c1.06 1.8 1.63 3.67 2.72 3.67c1.45 0 1.72-1.86 1.81-2.94s.17-3.09.17-3.09s2.04 3.69 2.85 4.5s2.19 1.17 2.78-.01c.59-1.18.35-2.75 1.5-5.67c1.65-4.18 6.83-9.23 6.83-9.23z"/><radialGradient id="notoGarlic0" cx="64.612" cy="87.374" r="115.018" gradientUnits="userSpaceOnUse"><stop offset=".181" stop-color="#EDDFDF"/><stop offset=".335" stop-color="#E7CED1"/><stop offset=".519" stop-color="#E3C1C6"/><stop offset=".69" stop-color="#E1BDC2"/></radialGradient><path fill="url(#notoGarlic0)" d="M27.4 96.62s3.29 7.55 9.33 10.51c8.14 3.99 14.95 2.63 14.95 2.63s5.17 4.17 13.68 4.17c8.52 0 16.31-6.98 16.31-6.98s5.45 2.12 13.41-2.18c6.89-3.72 7.43-9.24 7.43-9.24s6.71-2.72 8.97-9.7c2.27-6.98 2.3-14.69-2.36-21.93c-4.89-7.61-19.94-17.22-22.38-19.12c-2.45-1.9-10.69-7.16-12.51-11.33s-3.2-13.16-3.35-17.7c-.24-7.33.36-10.94-1.64-12.03c-1.99-1.09-5.8 1.09-7.79 1.99s-6.62 3.21-6.93 4.18s.68 6.06.04 12.31c-.63 6.25-2.29 12.31-6.43 16.22c-9.61 9.06-20.84 13.5-26.92 22.11s-7.98 19.94-3.35 27.46c4.64 7.54 9.54 8.63 9.54 8.63"/><radialGradient id="notoGarlic1" cx="64.565" cy="66.371" r="26.049" gradientTransform="matrix(-.00995 -1 1.9707 -.0196 -65.592 132.234)" gradientUnits="userSpaceOnUse"><stop offset="0" stop-color="#F8F6F7" stop-opacity=".7"/><stop offset=".824" stop-color="#F8F6F7" stop-opacity="0"/></radialGradient><path fill="url(#notoGarlic1)" d="M27.4 96.62s3.29 7.55 9.33 10.51c8.14 3.99 14.95 2.63 14.95 2.63s5.17 4.17 13.68 4.17c8.52 0 16.31-6.98 16.31-6.98s5.45 2.12 13.41-2.18c6.89-3.72 7.43-9.24 7.43-9.24s6.71-2.72 8.97-9.7c2.27-6.98 2.3-14.69-2.36-21.93c-4.89-7.61-14.05-13.56-22.38-19.12c-2.58-1.72-10.69-7.16-12.51-11.33s-3.27-12.1-3.47-16.63c-.25-5.79-15.56-.86-16.2 5.39c-.63 6.25-2.29 12.31-6.43 16.22c-9.61 9.06-20.84 13.5-26.92 22.11S13.23 80.48 17.86 88c4.64 7.53 9.54 8.62 9.54 8.62"/><radialGradient id="notoGarlic2" cx="25.932" cy="98.597" r="35.817" gradientUnits="userSpaceOnUse"><stop offset=".181" stop-color="#C8A9B3"/><stop offset=".488" stop-color="#D2B2BA"/><stop offset=".69" stop-color="#DBBAC0"/></radialGradient><path fill="url(#notoGarlic2)" d="M40.35 64.12s-11.79 3.91-16.1 14.2c-3.29 7.85-1.62 15.41-1.62 15.41s1.44 1.6 2.55 2.08c1.12.48 2.21.81 2.21.81s.74 1.67 1.38 2.62s2.24 3.03 2.24 3.03s-2.18-5.81-.07-16.19c2.94-14.43 9.41-21.96 9.41-21.96"/><radialGradient id="notoGarlic3" cx="107.737" cy="91.951" r="38.442" gradientUnits="userSpaceOnUse"><stop offset=".126" stop-color="#B494A7"/><stop offset=".283" stop-color="#BB9BAC"/><stop offset=".6" stop-color="#C4A5B2"/></radialGradient><path fill="url(#notoGarlic3)" d="M87.61 56.45s9.82 11.42 12.67 19.19c4.93 13.45 2.24 19.88 2.24 19.88s3.28-.92 5.68-3.79s3.3-6.95 1.69-14.63c-1.49-7.08-8.86-12.55-8.86-12.55l1.66 6.49s-1.77-3.35-5.6-7.43c-5.14-5.47-9.48-7.16-9.48-7.16"/><radialGradient id="notoGarlic4" cx="65.073" cy="6.791" r="108.381" gradientUnits="userSpaceOnUse"><stop offset=".094" stop-color="#A385A0"/><stop offset=".403" stop-color="#C0A0AD"/><stop offset=".405" stop-color="#C0A0AD"/><stop offset=".559" stop-color="#D5B7C0"/><stop offset=".671" stop-color="#E0C3CA"/></radialGradient><path fill="url(#notoGarlic4)" d="M44.31 58.89s7.76-13.17 10.34-19.59c2.72-6.77 4.44-9.5 4.14-19.83c-.16-5.14-1.49-11.68-1.49-11.68l2.93-1.49s3.21 8.08 4.43 17.69c1.22 9.61 1.66 15.94-3.08 30.15c-3.94 11.81-8.52 18.37-11.56 26.04c-3.04 7.67-6.81 27.91 14.12 30.64c18.62 2.43 20.38-14.28 14.96-26.63c-4.13-9.43-9.61-21.05-9.73-28.23s.37-10.1.37-10.1s6.08 10.34 8.88 15.82c2.8 5.48 9.16 16.49 9.03 26.95c-.12 10.13-3.24 25.05-23.44 25.7c-18.98.62-28.42-19.93-21.61-36.46c7.25-17.6 11.17-21.72 13.32-27.12c2.78-6.98 2.74-10.7 2.74-10.7s-4.25 6.42-7.41 10.68c-2.1 2.82-6.94 8.16-6.94 8.16"/><radialGradient id="notoGarlic5" cx="64.939" cy="86.32" r="52.059" gradientUnits="userSpaceOnUse"><stop offset="0" stop-color="#F8F6F7"/><stop offset=".782" stop-color="#F8F6F7" stop-opacity="0"/></radialGradient><path fill="url(#notoGarlic5)" d="M67.37 35.58s1.48 4.72 1.77 12.4c.3 7.68 1.41 12.53 3.11 20.09c1.34 5.95 8.99 15.91 9.35 28.18c.24 8.19-3.69 15.12-15.85 14.63c-19.63-.79-18.37-18.39-17.79-23.99c.63-5.94 11.29-24.29 14.24-34.19c1.93-6.46 5.17-17.12 5.17-17.12"/><radialGradient id="notoGarlic6" cx="76.919" cy="46.384" r="63.068" gradientUnits="userSpaceOnUse"><stop offset=".238" stop-color="#E0C3CA"/><stop offset=".357" stop-color="#D8BBC5"/><stop offset=".542" stop-color="#C3A6B6"/><stop offset=".753" stop-color="#A385A0"/><stop offset=".819" stop-color="#A688A2" stop-opacity=".705"/><stop offset=".871" stop-color="#B092A9" stop-opacity=".472"/><stop offset=".918" stop-color="#C0A3B4" stop-opacity=".26"/><stop offset=".963" stop-color="#D7BAC4" stop-opacity=".061"/><stop offset=".976" stop-color="#E0C3CA" stop-opacity="0"/></radialGradient><path fill="url(#notoGarlic6)" d="M79.11 84.2c7.33 16.75-3.06 27.05-3.06 27.05c9.57-4.82 11.52-14.91 11.61-22.61c.12-10.46-6.24-21.48-9.03-26.95c-2.8-5.48-8.88-15.82-8.88-15.82s-.49 2.92-.37 10.1s5.57 18.82 9.73 28.23"/></svg>