<svg xmlns="http://www.w3.org/2000/svg" width="1em" height="1em" viewBox="0 0 128 128"><path fill="#bb9176" d="m63.2 98.97-16.13 10.8s3.79 1.95 5.53 5.16c2.1 3.87.81 6.52 1.72 6.79.73.22 2.77-.42 3.35-1.54.72-1.4.68-2.36.68-2.36s1.06.68 2.67 3.4c1.06 1.8 1.63 3.67 2.72 3.67 1.45 0 1.72-1.86 1.81-2.94s.17-3.09.17-3.09 2.04 3.69 2.85 4.5 2.19 1.17 2.78-.01.35-2.75 1.5-5.67c1.65-4.18 6.83-9.23 6.83-9.23z"/><radialGradient id="a" cx="64.612" cy="87.374" r="115.018" gradientUnits="userSpaceOnUse"><stop offset=".181" stop-color="#eddfdf"/><stop offset=".335" stop-color="#e7ced1"/><stop offset=".519" stop-color="#e3c1c6"/><stop offset=".69" stop-color="#e1bdc2"/></radialGradient><path fill="url(#a)" d="M27.4 96.62s3.29 7.55 9.33 10.51c8.14 3.99 14.95 2.63 14.95 2.63s5.17 4.17 13.68 4.17c8.52 0 16.31-6.98 16.31-6.98s5.45 2.12 13.41-2.18c6.89-3.72 7.43-9.24 7.43-9.24s6.71-2.72 8.97-9.7c2.27-6.98 2.3-14.69-2.36-21.93-4.89-7.61-19.94-17.22-22.38-19.12-2.45-1.9-10.69-7.16-12.51-11.33s-3.2-13.16-3.35-17.7c-.24-7.33.36-10.94-1.64-12.03-1.99-1.09-5.8 1.09-7.79 1.99s-6.62 3.21-6.93 4.18.68 6.06.04 12.31c-.63 6.25-2.29 12.31-6.43 16.22-9.61 9.06-20.84 13.5-26.92 22.11s-7.98 19.94-3.35 27.46c4.64 7.54 9.54 8.63 9.54 8.63"/><radialGradient id="b" cx="64.565" cy="66.371" r="26.049" gradientTransform="matrix(-.00995 -1 1.9707 -.0196 -65.592 132.234)" gradientUnits="userSpaceOnUse"><stop offset="0" stop-color="#f8f6f7" stop-opacity=".7"/><stop offset=".824" stop-color="#f8f6f7" stop-opacity="0"/></radialGradient><path fill="url(#b)" d="M27.4 96.62s3.29 7.55 9.33 10.51c8.14 3.99 14.95 2.63 14.95 2.63s5.17 4.17 13.68 4.17c8.52 0 16.31-6.98 16.31-6.98s5.45 2.12 13.41-2.18c6.89-3.72 7.43-9.24 7.43-9.24s6.71-2.72 8.97-9.7c2.27-6.98 2.3-14.69-2.36-21.93-4.89-7.61-14.05-13.56-22.38-19.12-2.58-1.72-10.69-7.16-12.51-11.33s-3.27-12.1-3.47-16.63c-.25-5.79-15.56-.86-16.2 5.39-.63 6.25-2.29 12.31-6.43 16.22-9.61 9.06-20.84 13.5-26.92 22.11S13.23 80.48 17.86 88c4.64 7.53 9.54 8.62 9.54 8.62"/><radialGradient id="c" cx="25.932" cy="98.597" r="35.817" gradientUnits="userSpaceOnUse"><stop offset=".181" stop-color="#c8a9b3"/><stop offset=".488" stop-color="#d2b2ba"/><stop offset=".69" stop-color="#dbbac0"/></radialGradient><path fill="url(#c)" d="M40.35 64.12s-11.79 3.91-16.1 14.2c-3.29 7.85-1.62 15.41-1.62 15.41s1.44 1.6 2.55 2.08c1.12.48 2.21.81 2.21.81s.74 1.67 1.38 2.62 2.24 3.03 2.24 3.03-2.18-5.81-.07-16.19c2.94-14.43 9.41-21.96 9.41-21.96"/><radialGradient id="d" cx="107.737" cy="91.951" r="38.442" gradientUnits="userSpaceOnUse"><stop offset=".126" stop-color="#b494a7"/><stop offset=".283" stop-color="#bb9bac"/><stop offset=".6" stop-color="#c4a5b2"/></radialGradient><path fill="url(#d)" d="M87.61 56.45s9.82 11.42 12.67 19.19c4.93 13.45 2.24 19.88 2.24 19.88s3.28-.92 5.68-3.79 3.3-6.95 1.69-14.63c-1.49-7.08-8.86-12.55-8.86-12.55l1.66 6.49s-1.77-3.35-5.6-7.43c-5.14-5.47-9.48-7.16-9.48-7.16"/><radialGradient id="e" cx="65.073" cy="6.791" r="108.381" gradientUnits="userSpaceOnUse"><stop offset=".094" stop-color="#a385a0"/><stop offset=".403" stop-color="#c0a0ad"/><stop offset=".405" stop-color="#c0a0ad"/><stop offset=".559" stop-color="#d5b7c0"/><stop offset=".671" stop-color="#e0c3ca"/></radialGradient><path fill="url(#e)" d="M44.31 58.89s7.76-13.17 10.34-19.59c2.72-6.77 4.44-9.5 4.14-19.83-.16-5.14-1.49-11.68-1.49-11.68l2.93-1.49s3.21 8.08 4.43 17.69 1.66 15.94-3.08 30.15c-3.94 11.81-8.52 18.37-11.56 26.04s-6.81 27.91 14.12 30.64c18.62 2.43 20.38-14.28 14.96-26.63-4.13-9.43-9.61-21.05-9.73-28.23s.37-10.1.37-10.1 6.08 10.34 8.88 15.82 9.16 16.49 9.03 26.95c-.12 10.13-3.24 25.05-23.44 25.7-18.98.62-28.42-19.93-21.61-36.46 7.25-17.6 11.17-21.72 13.32-27.12 2.78-6.98 2.74-10.7 2.74-10.7s-4.25 6.42-7.41 10.68c-2.1 2.82-6.94 8.16-6.94 8.16"/><radialGradient id="f" cx="64.939" cy="86.32" r="52.059" gradientUnits="userSpaceOnUse"><stop offset="0" stop-color="#f8f6f7"/><stop offset=".782" stop-color="#f8f6f7" stop-opacity="0"/></radialGradient><path fill="url(#f)" d="M67.37 35.58s1.48 4.72 1.77 12.4c.3 7.68 1.41 12.53 3.11 20.09 1.34 5.95 8.99 15.91 9.35 28.18.24 8.19-3.69 15.12-15.85 14.63-19.63-.79-18.37-18.39-17.79-23.99.63-5.94 11.29-24.29 14.24-34.19 1.93-6.46 5.17-17.12 5.17-17.12"/><radialGradient id="g" cx="76.919" cy="46.384" r="63.068" gradientUnits="userSpaceOnUse"><stop offset=".238" stop-color="#e0c3ca"/><stop offset=".357" stop-color="#d8bbc5"/><stop offset=".542" stop-color="#c3a6b6"/><stop offset=".753" stop-color="#a385a0"/><stop offset=".819" stop-color="#a688a2" stop-opacity=".705"/><stop offset=".871" stop-color="#b092a9" stop-opacity=".472"/><stop offset=".918" stop-color="#c0a3b4" stop-opacity=".26"/><stop offset=".963" stop-color="#d7bac4" stop-opacity=".061"/><stop offset=".976" stop-color="#e0c3ca" stop-opacity="0"/></radialGradient><path fill="url(#g)" d="M79.11 84.2c7.33 16.75-3.06 27.05-3.06 27.05 9.57-4.82 11.52-14.91 11.61-22.61.12-10.46-6.24-21.48-9.03-26.95-2.8-5.48-8.88-15.82-8.88-15.82s-.49 2.92-.37 10.1 5.57 18.82 9.73 28.23"/></svg>