<svg viewBox="0 0 128 128"><path fill="#fff" d="m20 26 9.3 76.2 12 7.3 27.4 3 28.6-8 1.4-1.8L109.2 28l-21.4 5.5-35.5 3-27.9-7.8z" opacity=".5"/><path fill="#e0e0e0" d="M17 20.2c-.2-2.9 14-14.5 49.2-14s45.3 10.3 45.5 15.4-6.4 69-6.4 69l-1.6 10.3s0 8.8-.8 10.5-6.6 12.4-37.5 12.7c-33.6.4-40-13.2-40.5-14.7-.5-1.6-.5-12.7-.5-12.7L17 29.8z" opacity=".7"/><radialGradient id="a" cx="65.3" cy="68.9" r="29.4" gradientTransform="matrix(-.00809 1 -1.6846 -.0136 181.973 4.51)" gradientUnits="userSpaceOnUse"><stop offset=".7" stop-color="#ac5810"/><stop offset=".8" stop-color="#a8560f"/><stop offset=".9" stop-color="#9c4f0d"/><stop offset="1" stop-color="#884409"/></radialGradient><path fill="url(#a)" d="m27.3 67.6 2.2 19.9c.4 3.7 1.4 5.5 2.4 6.3s12.3 11.5 32.3 12 31.7-10.1 33.2-12.2c.9-1.1 1.2-4.7 1.5-6.2.3-1.6 2.2-18 2.2-18z"/><path fill="#cf701e" d="M38.6 90c-1.5 3.7 4 7 10.6 9.3a54 54 0 0 0 32.1 0c5.1-2 8.7-4.4 7.9-8s-6.8-.2-10.9.3q-12.8 1.6-25.3 0C40.5 90 39.7 87.4 38.6 90"/><path fill="#dd821d" d="m28.7 66.2 4 6.8 13.7 4.9 15.5 1.3 17.5-.3 11.1-2.4 6.8-4.7 3.6-6.1s-2.7-6.6-18.7-9.2-33.3.4-33.3.4l-14.8 4z"/><path fill="#f6af3b" d="M36 71.5s2.1-3.2 6.5-5.1a29 29 0 0 1 17.1-1.5c3.7 1.3 3 4.7 1.6 6.2S58 74 57.4 75.4 56.3 79 56.3 79l-10-1-7.7-2.9zm48.9-6c0 1.5 1.6 1.9 2.6 2.1s2 .9 2 1.5-.3 1.6-1 2.2q-1.3 1-.7 2.3c.5.8 2.3 1.5 4.3 0q3.3-2.3 2.6-6.1c-.6-3.2-3.4-4.3-5.9-4.5-2.2-.1-3.9.8-4 2.4"/><path fill="#f6af3b" d="M32.3 67.4s2-5.9 13.6-8c12.5-2 22.4-1.3 27-1.3 5.2 0 13.6 2 13.9.4s-5.6-3.2-13.8-3.7-26.3-1.6-37.8 4.2-6.5 9-6.5 9z"/><path fill="#f8c977" d="M97.7 63.8c-1.8.2-.8 2-1.2 4.2-1 5-13 9.7-30.4 9.4-17.2-.3-30.8-4.4-33.4-9.6-1-2.3-1-3.9-3.4-3.8s-2.5 2.9-1.8 4.3c1.3 3 3.6 8 20 11.7A80 80 0 0 0 93 77.6c8.2-3.6 8.2-7.6 8.4-9.5s-1-4.6-3.7-4.3"/><path fill="#fff" d="M31.7 39.4s.5 14.4 2 19.8c1 4 3 6.5 5.8 6.6 2.2 0 5.2-2 5.7-7 .4-5.5.5-17 .5-17s-3 0-7.2-.6c-3.8-.5-6.8-1.8-6.8-1.8"/><path fill="#9e9e9e" d="M109.2 28s-7.9 58.4-8.2 62.2c-.2 4-.7 7.4 1.9 7.5 2.2 0 2.7-8.1 3.1-11.7l8-63.7-2-3.3z"/><path fill="#d5d5d5" d="m15.2 22 8.5 69.6c.2 2.1.2 6.4 3.2 6.1 2.6-.2 1.5-4.8 1.2-6.9l-7-64.7zm13.7 80.5c-1 3.2 5 13.5 34.6 14 23.7.2 36.2-7.9 35.7-13.7s-14 7.6-34.9 6.9c-25.5-.8-33.5-13.7-35.4-7.3"/><path fill="#fefefe" d="M31 104c0 2 2.5 4.6 9 7.1 7.3 2.9 13.3 3.2 13.5.8.2-2.9-4.4-2.4-11.4-5-6.7-2.4-11.2-6.3-11-3"/><path fill="silver" d="M65.1 4.2c-33-.2-49.2 8-50 15.9-.8 7.4 11.8 19 49.8 18.8 36.5-.2 49-9.9 49.2-17.2.1-8-13.5-17.2-49-17.5m.2 29c-32.7-.9-44.1-9.9-44-13.2S32.3 8.3 65 8.6c31.6.3 43.1 9.3 43.1 11.6S97.9 34 65.3 33.2"/><path fill="#fff" d="M64.5 35.3c35.3.4 44.6-10.3 44.8-14s-3.4-4-3.4-4 .4 1.9 0 3c-1.3 3.4-11.5 11-41.7 11.3-29.6.2-40.8-7.7-41.4-11-.4-2 .9-3 .4-3.7s-3 .9-3.6 3.7c-1 3.7 3.5 14.3 44.9 14.7"/></svg>