<svg xmlns="http://www.w3.org/2000/svg" xml:space="preserve" viewBox="0 0 128 128"><path d="M35.88 45.15c-5.39 6.09-1.57 14.3-1.57 14.3l-14.74 9.61s-2.2 1-4.48 4.06c-1.67 2.24 14.44 23.39 14.44 23.39s2.62-.48 4.76-1.41c2.2-.96 4.9-3.46 4.9-3.46l17.44 17.75s1.3 2 3.98 2.62c3.68.86 5.05-.55 5.05-.55l22.74 5.61s1.14 1.28 2.28 2.11 3 1.6 3 1.6l18.49-19.91s-1.21-1.85-2.27-2.97c-1.62-1.72-3.86-2.84-3.86-2.84l-.68-21.95s-1.35-.86-5.03-1.51c-3.95-.7-6.75-2.28-6.75-2.28l-5.5-19.1 1.76-2.28s3.43-6.33-1.35-7.89-16.4-2.49-16.4-2.49l-2.91-9.45s-1.49 1.52-2.53 3.28-1.83 3.99-1.83 3.99l-17.34 5.5-2.24.11c.02-.02-4.72-1.09-9.36 4.16" style="fill:#4c186e"/><path d="M25.24 55.08s7.86-1.29 7.75-2.23c-.1-.93-.34-11.45-.19-11.45.1 0 4.35 1.2 8.12 2.24 4.77 1.32 7.16 2.19 7.16 2.19l1.97-6.96s-3.63-1.25-8.72-2.91c-4.09-1.33-8.64-2.61-9.3-3.39-1.14-1.35-4.01-5.39-4.35-9.02-.62-6.75 2.74-9.81 7.31-10.01 4.46-.2 6.64 2.39 8.31 2.49 1.66.1 3.31-2.73 2.28-5.81-1.66-4.98-9.86-7.49-16.82-5.19C19 8.25 18.07 20.39 19.52 25.69c1.99 7.26 5.5 11.52 5.5 11.52z" style="fill:#727f37"/><path d="M52.65 33.49C46 36.71 40.69 49 49.95 57.37c7.58 6.85 18.06 3.11 21.28-2.39 2.79-4.77 3.74-12.35-.42-17.34s-11.19-7.53-18.16-4.15" style="fill:#a363b1"/><path d="M69.19 28.11s2.23-2.43 6.04-3.43c3.17-.83 7.69-1.06 12.66 2.3 5.21 3.52 6.26 9.41 5.59 14.28-.7 5.04-3.52 9.39-6.37 10.18-5.61 1.56 2.8-1.45 1.35-4.15s-9.52 1.53-16.2-6.54c-4.98-6.01-3.07-12.64-3.07-12.64" style="fill:#a363b1"/><path d="M74.14 60.48c-2.64 7.91 1.14 16.82 10.49 18.89 9.34 2.08 14.95-4.05 17.23-9.45s.21-16.09-9.03-18.89-16.41 2.6-18.69 9.45" style="fill:#a363b1"/><path d="M46.63 73.87c-2.38 7.52 1.87 14.43 7.06 17.03 6.58 3.29 16.4.42 19.1-7.47 2.49-7.27.62-15.57-7.27-18.48s-16.3.72-18.89 8.92M19.22 60.9c-2.24 6.73 0 15.78 9.14 18.48s15.07-3.01 17.03-9.65c1.56-5.29 1.25-13.91-8.41-17.54-9.42-3.55-15.79 2.79-17.76 8.71m64.15 21.55c-3.05.59-4.7 3.37-6.07 6.63-2.37 5.6-4.84 7.12-5.76 9.15-1.18 2.6 2.23 4.82 3.63 5.6 2.39 1.33 11.55 2.85 15.54-5.05 5.1-10.12-2.85-17.2-7.34-16.33m17.16 14.21c.07 1.09 12.02.54 11.87-11.58-.12-9.29-7.08-12-7.08-12s-4.56 3.37-4.4 9.14c.16 5.78 1.28 4.91.93 9.62-.11 1.47-1.35 4.42-1.32 4.82m11.71 4.21s-8.02.34-12.67 6.67c-4.33 5.9-5.86 13.25-5.86 13.25s11.05 5.8 17.83-1.66c7.58-8.36.7-18.26.7-18.26m-46.62 6.58c-1.45.82-2.34 6.9.55 11.5 1.53 2.43 4.31 4.62 8.41 5.24 5.61.85 9.48-1.38 12.07-4.12 2.98-3.15 3.99-7.19 3.11-8.75-1.66-2.92-5.98 1.04-13.32-.07-7.34-1.1-8.3-5.22-10.82-3.8m-25.08-19.4c-1.3.27-5.88 5.28-5.44 11.63.2 2.89.95 5.89 4 9.02 4.2 4.3 10.2 4.78 14.22 3.64 3.68-1.05 6.38-3.45 6.46-5.52.09-2.53-.28-5.1-4.73-6.94-2.02-.83-5.36-1.74-8.6-4.42-5.28-4.38-4.59-7.69-5.91-7.41M15.21 73.06s-2.42 2.81-3.22 7.02c-.55 2.92-.74 6.26 1.62 10.07 5.47 8.84 15.98 6.35 15.98 6.35s4.72-3.72 2.76-8.49c-.62-1.52-1.96-2.21-4.84-3.36-4.95-1.98-7.89-5.05-9.39-7.1-1.49-2.04-2.91-4.49-2.91-4.49" style="fill:#a363b1"/><path d="M86.78 54.66c-1.49-1.69-6.47-.24-8.91 5.44-1.86 4.31-1.58 11 2.84 11.75 5.01.85 2.13-6.22 4.18-10.25 1.33-2.61 3.62-4.96 1.89-6.94M58.99 67.85c-2.13-2.37-6.47.47-8.36 5.36-2.67 6.89.8 10.33 2.45 10.02 2.92-.55 2.68-4.1 4.1-7.65 1.12-2.78 3.88-5.43 1.81-7.73m16.03-41.06c-2.2-.41-2.85 2.14-2.85 3.83s.35 3.47 2.05 3.56c1.6.09 2.32-1.51 2.58-3.83.23-1.96-.35-3.29-1.78-3.56M56.99 35.8c-2.73-1.5-6.96 1.39-7.93 7.92-.83 5.63 1.35 9.31 4.44 8.59 3.48-.81 2.54-5.96 3.37-8.86.87-3.03 2.62-6.27.12-7.65M28.93 56.18c-3.51-.8-5.84 2.68-6.39 6.23-.44 2.8.12 6.75 2.92 7.34 3 .63 5.44-3 5.84-5.92.39-2.92.39-7.02-2.37-7.65M15.9 80.81c-1.73.21-2.37 3.08-1.5 5.44.87 2.37 1.89 3.47 3.71 3 2.03-.53.63-3.39.08-5.05-.56-1.65-.32-3.62-2.29-3.39m24.47 13.23c-2.29.24-3.25 3.24-2.56 6.61.56 2.71 2.57 5.66 5.09 4.7 2.59-.98.48-4.07-.17-6.54-.66-2.46-.24-4.99-2.36-4.77m43.84-3.85c-1.87-1.42-4.17.04-5.77 2.4s-1.66 4.34-.09 5.6c1.73 1.39 4.34.28 5.75-1.96 1.2-1.91 2.08-4.54.11-6.04m-15.73 21.12c-1.95.15-2.53 2.04-1.98 4.29.45 1.84 1.89 3.03 3.33 2.44 1.23-.51 2.01-2.11 1.28-4.53-.54-1.74-1.64-2.28-2.63-2.2" style="fill:#dabcf3"/></svg>