<svg xmlns="http://www.w3.org/2000/svg" xml:space="preserve" viewBox="0 0 128 128"><path d="M63.87 43.71S5.32 49.66 5.56 55.41c.19 4.6-1.1 20.34 12.08 36.44 8.64 10.55 23.78 20.72 48.53 20.72 24.34 0 37.71-11.24 46.04-23.4 10.7-15.64 10.17-30.31 10.17-33.95-.01-7.29-45.66-14.38-58.51-11.51" style="fill:#d5d5d5"/><path d="M66.9 30.59s-3.95-2.59-7.56-2.26c-3.61.34-5.3 2.48-5.3 2.48L42.73 58.95l12.03 13.42 7.85 5.44 15.19-.38 6.71-46.71z" style="fill:#307d31"/><path d="M67.66 37.46s-2.75-4.63-3.08-8.59 2.77-6.24 4.42-6.24c4.04 0 4.5 2.5 6.92 2.28s3.2-2.36 3.85-5.62c.66-3.32 3.51-5.19 6.1-3.54 2.49 1.59 1.61 6.29 1.61 6.29s1.98-2.42 4.19-.66c1.96 1.57 1.32 6.39 1.32 6.39s4.3-4.96 7.93-2.53.88 10.79.88 10.79l-1.21 7.49-20.7-7.93s-1.21-2.86-5.62-2.53c-4.4.33-6.61 4.4-6.61 4.4M45.53 57.29s3.7-7.51 11.75-5c8.44 2.63 6.91 10.76 6.91 10.76s2.16-1.58 4.69-1.8 5.62.22 5.62.22l-.4-4.36s-5.37.71-8.63-3.13c-4.38-5.17-1.43-11.12-1.43-11.12l.77-3.74-7.71-4.96-5.29-6.83s-1.76-3.85-6.5-4.07-6.97 3.12-6.97 3.12-10.15-2.93-15.33 1.47c-3.5 2.98-2.59 7.86-2.59 7.86s-2.46 1.46-6.71-2.11c-1.89-1.59-5.59-.38-6.14 2.6-.55 2.97.63 6.68.63 6.68l-3.41 2.09 11.56 11.89z" style="fill:#58a12f"/><path d="M71.19 54.64s-4.69.27-8.26-8.04c-2.14-4.98-.64-14.64 4.41-13.66 3.96.77 3.41 7.49 6.17 8.04 1.37.27 4.41-6.94 10.9-7.38 5.28-.36 12.22 6.61 12.22 6.61s3.08-2.2 3.41-2.97.88-3.74 4.3-3.52c3.79.24 3.3 4.41 3.3 4.41s4.52-1.76 7.82-.11c3.55 1.78 3.3 5.18 3.3 5.18s3.19-3.41 5.73-1.65-4.62 15.81-11.45 22.86-15.67 6.58-15.67 6.58z" style="fill:#86c82c"/><path d="m27.92 32.02-.83-1.61s2.53-3.27 8.17-2.37c6.19.99 6.81 5.3 6.81 5.3s-3.19 1.21-3.29 1.06-3.09-3.29-3.09-3.29l-5.92.2z" style="fill:#d2608c"/><path d="M28.51 33.24s2.88-1.36 5.71-.75 3.49 2.88 3.49 2.88l2.63-1.06s-1.66-3.56-5.57-4.25c-4.29-.76-6.93 1.83-6.93 1.83z" style="fill:#fff"/><path d="M27.58 37.38s9.2-2.61 12.72-4.35c5.64-2.79 10.54-5.3 11.97-6.26.76-.51 1.29-1.09 2.31-.88s10.19 18.45-4.76 25.09c-6.05 2.69-12.55 3.6-12.55 3.6l-9.34-7.89z" style="fill:#fe2a19"/><path d="M30.77 40.03c-.22.65 4.7 10.02 15.03 6.19 9.72-3.6 6.53-15.1 5.92-15.51-.4-.26-5.01 2.29-9.99 4.51-5.2 2.31-10.78 4.29-10.96 4.81" style="fill:#cb1c35"/><path d="M38.15 41.86c1.7.67 3.95-.03 6.22-1.01 2.09-.9 4.67-2.3 4.74-3.81.07-1.5-3.6-3.18-4.56-3.15-.95.04-5.23 1.92-5.8 2.83-.57.92-1.84 4.65-.6 5.14" style="fill:#ff5f5d"/><path d="M37 41.82c-.96-.25-1.84.7-2.08 1.81-.31 1.45 1.09 1.76 1.73 1.23.99-.82 1.26-2.81.35-3.04M42.16 42.6c-.95.03-1.31 1.55-.98 2.64.42 1.43 1.85 1.05 2.1.26.46-1.4-.18-2.93-1.12-2.9M47.29 40.07c-.69.61-.02 1.97.9 2.58 1.2.8 2.03-.36 1.73-1.11-.53-1.33-1.95-2.07-2.63-1.47M49.13 35.71c.05.89 1.46 1.25 2.45.96 1.3-.38.91-1.73.18-1.98-1.3-.45-2.68.14-2.63 1.02" style="fill:#f7ca76"/><path d="M47.76 59.21c.91-2.46 5.68-6.4 10.72-2.77 4.91 3.54 2.66 9.36.56 11.27-2.28 2.08-6.82 2.69-9.37-.13s-3.13-5.08-1.91-8.37" style="fill:#e9fcae"/><path d="M18.32 62.6c.26-.32.91-1.14.51-2.58-.67-2.41-2.37-5.38-5.62-9.21-5.67-6.68-8.48-8.42-10.28-6.52-1.91 2.02.79 6.74 4.38 11.07s9.38 9.26 11.01 7.24" style="fill:#307d31"/><path d="M16.41 58.5c-.55.45-3.54-1.63-6.63-5.28S4.42 46.5 5.4 45.75c1.24-.95 5.73 3.76 6.91 5.39s5.33 6.35 4.1 7.36" style="fill:#e9fcae"/><path d="m81.34 39.45 1.69-1.63s5.47 7.27 9.77 4.04c5.17-3.88.06-10.17.06-10.17l2.25-1.12 2.98 4.61.22 6.52-5.11 4.44s-5.62 0-6.07-.67c-.45-.68-5.79-6.02-5.79-6.02" style="fill:#fff"/><path d="m79.6 40.97 2.23-1.98s6.31 8.95 12.61 4.3c6.04-4.47.49-12.62.49-12.62l2.23-1.31s4.42 4.99 2.67 11.52c-1.41 5.24-6.64 7.69-10.91 6.79-6.7-1.42-9.32-6.7-9.32-6.7" style="fill:#d2608c"/><path d="M88.92 52.48s.18-4.16 6-8.8 10.71-3.37 12.34-1.98c1.64 1.4 3.59 6.54-.84 12.12-2.12 2.66-3.76 3.04-6.07 2.83-2.7-.25-7.39-2.59-7.39-2.59z" style="fill:#2c7b2e"/><path d="M105.05 43.55c-2.43-1.61-7.44.94-10.02 3.35-2.75 2.58-3.51 5.5-3.51 5.5l6.01 2.12s3.38-.08 5.64-2.66c3.37-3.84 3.7-7.1 1.88-8.31" style="fill:#e0feac"/><path d="M72.43 45.73c-.84.42-3.98 4.1-3.05 11.42.97 7.57 6.38 12.55 15.34 13.2 11.47.82 17.92-7.58 18.8-9.1s2.64-4.86 1.41-5.97-8.9-1.58-17.74-4.33c-9.93-3.1-12.89-6.16-14.76-5.22" style="fill:#fe2a19"/><path d="M76.4 49.99c-1.25.62-2.48 11.73 7.33 14.98 8.45 2.8 14.73-6.5 14.09-7.74s-4.45-.82-10.74-3.05c-6.3-2.24-9.7-4.67-10.68-4.19" style="fill:#cb1c35"/><path d="M80.68 55.89c.29 1.47 1.66 3.26 4.77 4.59 2.47 1.06 5.12.59 6.24.12s.69-4.93.18-5.06c-1.59-.41-6.41-2.06-7.88-2.65-.95-.38-3.62 1.42-3.31 3" style="fill:#fe6261"/><path d="M80.12 56c-.05-.92-1.54-1.23-2.58-.89-1.37.44-.97 1.81-.2 2.04 1.37.42 2.83-.24 2.78-1.15M83.13 59.84c-.72-.57-1.94.34-2.37 1.35-.57 1.32.72 1.93 1.4 1.5 1.22-.76 1.68-2.29.97-2.85" style="fill:#f7ca76"/><path d="M68.86 76.25s.27-1.81-1.05-4.43c-.57-1.13-2.82-3.38-1.13-5.32 1.69-1.93 7.41-.72 9.26-.32s4.83.32 5.96-.81 1.93-5.8 6.04-6.93c4.24-1.16 6.24 2.58 7.97 4.11 1.37 1.21 3.38 1.69 6.2.72s2.01 2.74 2.01 2.74l-3.3 7.33zM17.89 65.95s-2.98-5.72-4.91-14.5-1.78-11.66.24-12.32c3.46-1.13 5.8 3.06 7.01 2.82s1.45-5.32 4.99-6.12c3.54-.81 4.91 2.42 6.68 5.32s5.07 10.63 5.07 10.63 3.14-1.45 5.88 0 5.4 5.8 6.52 8.86c1.13 3.06 2.23 5.75 2.23 5.75s3.87.73 7.43 2.87c4.03 2.42 5.96 7.17 5.96 7.17l-19.8 1.27s-24-8.62-24.24-9.02c-.25-.4-3.31-3.06-3.06-2.73" style="fill:#86c82c"/><path d="M21.03 69.09s-1.21-2.9-.81-6.6 2.13-6.06 5.03-6.06c2.26 0 6.16 1.47 9.95 6.78s4.27 10.15 4.27 10.15l-16.03-2.09z" style="fill:#2d792a"/><path d="M22.07 68.04s-1.57-6.39.4-7.89c1.37-1.05 3.46-.72 7.25 3.46 4.32 4.78 5.23 8.94 5.23 8.94z" style="fill:#e7fcae"/><path d="m41.51 74.12 1.85.16s1.05-4.91 5.15-6.93c3.95-1.93 8.13-.32 8.13-.32l.64-2.34-4.35-1.77-5.88 1.21s-5.32 4.83-5.32 5.07-.22 4.68-.22 4.92" style="fill:#fff"/><path d="M38.3 74.83c0-.24.49-7 6.2-10.79 7.25-4.81 13.25-.72 13.25-.72L57 65.63s-6.24-2.73-11.05 1.39c-3.95 3.38-4.83 8.46-4.83 8.46z" style="fill:#d2608c"/><path d="M67.45 108.67c34.77-.11 46.57-28.2 49.38-38.6 1.84-6.81 2.5-13 2.5-13l-12.2 13.74s-38.26 7.34-39.54 7.34-22.42-1.7-22.42-1.7l-21.72-5.19L8.56 56.84s.28 8.97 2.69 15.78c1.86 5.25 12.63 36.19 56.2 36.05" style="fill:#f6f6f6"/><path d="M64.04 80.43c16.6.21 40.86-4.11 49.95-13.2 5.82-5.82 5.39-11.07 5.39-11.07s-10.5 19.83-55.49 19.16C25.73 74.75 8.53 56.79 8.53 56.79s1.02 6.18 5.7 10.02C25.3 75.86 41.9 80.14 64.04 80.43M20.46 78.82c-1.95 1.83.16 6.48 4.92 10.67s9.52 7.55 11.9 5.17c2.47-2.47-3.36-8.37-6.65-11.24s-7.63-6.98-10.17-4.6" style="fill:#fff"/></svg>