<svg viewBox="0 0 128 128"><path fill="#fcb745" d="M14 89.9s-1 6.2 1.2 11.8c1.8 4.6 6.7 10.7 15.9 15.4s19.8 6.3 35.4 6.6 31.7-3.3 39.4-10c7.7-6.9 10.4-12.6 10.2-18.7s-3.5-8.6-3.5-8.6z"/><path fill="#e78b20" d="M18.4 83.6 13.8 88s-1.2 6.1 5.7 12.7c5.2 5 14.4 13.7 45 14 28.7.1 37.7-6.2 43.2-10.6 5.5-4.5 7.6-12.2 7-14.4-.5-2.1-2.2-3.4-2.2-3.4z"/><path fill="#ffd290" d="M20.3 90s-1.3 2.3-.8 3.6c.3 1.1 1 5.6 13.8 11.2a81 81 0 0 0 33.6 5c17.9-.5 32.2-4.1 39.2-10.6 7-6.7 5.7-10.7 5.7-10.7z"/><path fill="#6d544d" d="M16.6 74.9s-4.2 4.3-5 6.3c-.6 1.8-.5 4.5.7 6.6 1.5 2.9 3.5 3.2 6 4.7C20.9 94 25 99 35.4 101s23.9 3.2 31.2 3.2 16.9-.1 26-3.2 19.2-9 21.6-14.3.1-8.5.1-8.5l-5.2-3.4z"/><path fill="#9b7169" d="M14.1 69.3s-3.3-.1-4 5c-.7 3.6 2 5.9 2 5.9s-1.4 2 .2 4.5c1.5 2.4 3.2 3 6.5 3.5 2.4.4 3.7-.3 6.9 1.4 3.9 2.2 5.6 6.1 11 7.3s11.5.1 11.7-.8-7.6-4-21.7-12c-4.7-2.7-9-6.3-10.3-8.2s-2.3-6.6-2.3-6.6m68.3 26.5c0 1.4 4.7.8 6.9-.4s5.6-4.2 8.8-5.6c3.1-1.3 4.3 0 8.9-2.2s7-7.3 7-7.3 2.2-2.7 2.4-4.7c.3-2.9 0-4.3-2-5s-6.6 6.1-7.3 6.9S97 85.3 93.1 88s-10.7 7-10.7 7.8"/><path fill="#ffe869" d="M18.4 65.7s-5.4.6-6.2 2.9 1.6 5.6 8 9.9c5 3.4 22.8 11.8 29.8 16.1 8 5 14.8 12 16 12 1.3.2 11.1-10.2 24.7-19.3 12.9-8.7 21.7-10.9 24.8-17.3 1.7-3.5-2.4-5.4-2.4-5.4L60.8 44.7z"/><path fill="#ffbe01" d="M66.6 100.8c1.6-.2 10-8.3 20-14.6s24.8-13 27-16.9-3-6.3-3-6.3l-61-10.1-35.6 14s-2 .7-.6 2.3 3.3 4.4 8 7.2c5.4 3.4 19.7 9.1 28.7 14s14.4 10.7 16.4 10.5"/><path fill="#f4482b" d="m19 68.5 2 5s13.5 13.7 40.6 14.3c26.9.5 42-12.3 42-12.3L107 67z"/><path fill="#a6b732" d="m54.5 76.8-2.1 3.4s4.5 2.8 5.8 3.2c2 .7 3.8.5 6.5-.4S79 77.6 79 77.6l15.5.2c5.3.1 10.6-1.8 13.3-5s7.1-10 7.1-10 2.2-.6 3.7-2.3 1.6-3.2 1.6-3.2-.4-2.9-2-3.6-72.8-5.1-72.8-5.1l-28.6 2.1-4.8 10 15.9 13.5 22.3 1.2z"/><path fill="#c2dd1f" d="M13.5 52c-1.6-.8-3.3-.7-4 1.4s-.6 3-.6 3-2.2.5-2.4 3.3C6 63 9.8 64 9.8 64s.1 1.3 1.6 2.6c1.6 1.5 3.2 1.3 3.2 1.3s4.3 4.3 7.2 6 7 2.8 11.2 2.7 5.5-2 8.6-1 11.3 5.4 14.6 5.5c5.2.1 16.5-8 19-7.9s14.2 2 20.4 2 8.4-1.9 9.8-3.7 3.7-6.4 3-6.5-5.6 4-9.2 3.6-6.6-2.3-11-2.3-25.6 2.8-27 3.4-7.3 5.2-8.5 5-5.2-3.6-6.6-4.3-16-1.3-18-.9l-3.6.6s.2-3.3-1.6-5.2-7.8-5.2-7.8-5.2.7-6.8-1.6-7.9m94.5 5.8 8.3-.1 4-.3s-.7-3-1.6-4.5c-2-3.2-6.6-4-6.6-4z"/><path fill="#de8010" d="m12 48-.7 3.1s9.8 17.4 54 18c25.9.5 40.7-7.4 47.3-13.8 4-3.8 4-7.6 4-7.6z"/><radialGradient id="a" cx="63.5" cy="15.5" r="44" gradientTransform="matrix(.0112 .9999 -1.7423 .0196 89.803 -48.242)" gradientUnits="userSpaceOnUse"><stop offset=".5" stop-color="#df8016"/><stop offset=".6" stop-color="#e58c21"/><stop offset="1" stop-color="#f5ac3c"/></radialGradient><path fill="url(#a)" d="M9.8 39.3c-.6 8.7 1.5 11.8 1.5 11.8S26 64.4 63.3 65c38.3.6 50.7-12 52.9-15.8 1.4-2.3 2.5-7 1.6-13.7-1.5-11-14.2-32.1-54.7-32S10.6 26.7 9.8 39.3"/><path fill="#fdeac8" d="M48.2 14.4c.3 1.7-7.4 7.3-8.5 1.9-1-5.1 8.2-3.5 8.5-2M50.9 25c.4 1 8.3 2.6 7.5-1.9-1-4.6-8.3-.3-7.5 2m7-12.3c.1 1.6 9.3 3.3 9-1-.1-5.2-9.3-.7-9 1M42.6 28.6c0 .4-2.2 2.1-4.5 2.8-2 .6-4 .4-4.3-2.1s1.5-3.3 3.6-3.1c2.3.2 5.1 1.8 5.2 2.4m19 7c-.3-1.5-9-3.7-8.4 1.3s8.9.5 8.4-1.2M69.8 24c-.4-.5-2.4-.4-4.8.3-1.7.4-3 2.4-1.8 4.2 1.4 2.2 3.7 1.3 5.2-.6 1.3-1.4 1.9-3.3 1.4-3.9M79 12.4c-.3-.3-2.2-.5-3.8.3-1.7.8-3 2.7-1.6 4.4 1.6 1.8 3.8.7 4.9-1.1.8-1.5 1-3.1.5-3.6m6.2 15.3c-.3-1.7-7.5-4.6-7.5-.1.1 4.5 7.7 1.5 7.5 0m10-8c-.2-1.2-9.4-2.2-7.9 2.4 1.7 4.9 8.2-.9 8-2.4M82.4 36c0-1.4-7-4.6-7.4-.4s7.4 2.2 7.4.4"/></svg>