<svg xmlns="http://www.w3.org/2000/svg" width="1em" height="1em" viewBox="0 0 128 128"><path fill="#AC5811" d="m28.1 39.94l-3.92 4.04l24.37 22.83s55.65-12.72 55.65-13.2c0-.48.24-9.04.24-9.04s-.74-.98-1.23-1.5s-3.09-2.84-3.09-2.84z"/><path fill="#8A460A" d="m39.26 29.35l1.37 7.95l42.21 4.47l14.65-10.43l-25.82-4.72z"/><path fill="#E17F13" d="M32.66 43.22s-6.37-1.39-8.74-4.38c-1.4-1.77-1.48-4.33-.21-6.66c1.74-3.17 6.61-4.66 8.79-5.11c2.18-.45 13.6-4.36 33.67-3.76s39.99 5.04 39.61 12.1s-8.57 6.99-8.57 6.99l-1.2-12.1l-10.92.12s-11.93-1.31-20.04-1.62c-9.47-.35-16.32.52-16.32.52L35.5 31.65z"/><path fill="#AE5614" d="M69.64 38.1c.3-.3 22.55-23 22.55-23s-.32-3.35.08-5.04c.68-2.86 3.83-6.69 6.54-6.46c2.71.23 10.3 8.34 9.92 10.52s-2.63 4.74-4.89 5.56c-2.25.83-4.58.6-4.58.6l-18.8 18.8z"/><path fill="#DF8116" d="M94.75 14.8c1.67.39 5.49-2.86 5.94-3.61c.45-.75-1.13-1.88-1.65-3.16s-.53-2.33-1.58-2.1c-1.05.23-2.85 2.2-3.31 3.83c-.68 2.41-.38 4.82.6 5.04"/><path fill="#E07F14" d="M24.38 43.67s-8.02 8.39-7.54 20.54c.49 12.15 5.47 26.5 9.48 33.91s9.6 18.11 11.79 19.57c2.19 1.46 8.69 5.81 23.94 6.08c18.02.32 26.45-4.01 28.51-5.83c2.07-1.82 7.22-9.6 11.96-21.76s8.14-22.73 8.02-34.03s-6.13-17.56-6.13-17.56s-15.2 8.53-40.84 7.92s-39.19-8.84-39.19-8.84"/><path fill="#AC5811" d="M63.05 112.62c23.7.42 35.09-6.33 35.09-6.33s2.35-5.12 3.76-8.48c1.46-3.51 3.4-9.01 3.4-9.01s-9.21 8.26-42.29 8.4c-26.52.11-41.03-8.95-41.03-8.95s2.38 6.24 4.42 10.11c2.88 5.46 4.73 8.68 4.73 8.68s11.74 5.23 31.92 5.58"/><path fill="#FFB803" d="M50.48 28.49c.21-1.73-.73-7.63-12.56-6.94c-12.74.74-11.79 10.66-11.18 12.57c1.49 4.72 4.22 6.04 4.38 8.52c.17 2.48-1.9 8.27-2.32 18.37s.57 14.81.91 16.21c.64 2.62 2.56 4.3 4.63 2.98c2.07-1.32 1.08-5.21.83-7.53c-.25-2.32-.05-12.84.7-16.81c.74-3.97 1.65-6.52 4.05-5.85s1.63 4.05 1.46 6.86c-.17 2.81-.25 8.19.08 10.84s1.72 4.26 3.95 4.13c2.99-.17 3.66-2.56 3.82-6.53c.17-3.97-.08-6.7.58-10.59c.66-3.89 2.56-5.87 4.05-6.62c1.49-.74 4.88-1.32 10.01-1.16s9.18.5 10.75 2.73c1.57 2.23 2.07 7.61 4.96 9.76c2.9 2.15 6.2 0 7.28 2.32s1.74 7.78 1.82 14.15c.08 6.37-.66 14.64-1.16 18.2c-.5 3.56-1.72 8.6-.08 11.17c1.27 1.98 4.05 1.57 5.29-.91c1.24-2.48 1.99-7.94 2.56-14.23c.58-6.29.83-26.14 1.08-28.54c.25-2.4 2.02-7.81 4.55-15.72c2.75-8.61 5.88-15.55-.51-19.44c-3.41-2.08-5.54-1.77-5.54-1.77l-6.25 6.26s3.56.58 3.53 1.95c-.04 2.38-15.22 4.5-25.65 4.67s-24.94-1.86-24.94-4.51s8.5-1.15 8.92-4.54"/><path fill="#FFF" d="M93.55 27.98c-.78 1.64.98 1.96 1.19 3.19c.2 1.23-.49 3.15.33 3.35s4.17-.94 3.43-4.5c-.74-3.56-4.44-3.13-4.95-2.04m-14.6 19.78c-1.03.25-.99 3.42.45 6.3c1.59 3.19 4.21 3.23 4.82 2.17s-1.06-2.17-2.17-4.13c-1.63-2.91-2.08-4.58-3.1-4.34M39.83 37.21c-.8 1.33.9 3.47 5.44 4.78s6.91.41 7.03-1.27c.1-1.37-3.8-1.68-6.21-2.37c-2.42-.69-5.16-2.98-6.26-1.14m-3.6-13.82c-1.23-.68-5.52-.33-5.97 3.47c-.35 2.94 3.4 7.55 5.6 6.17c1.31-.82-.98-3.19-.33-5.15c.53-1.57 2.42-3.55.7-4.49"/><path fill="#FFFCFF" d="M43.34 64.55c-1.29.23-1.12 2.9-.83 3.87s.91 2.53 2.43 2.14c1.16-.3 1.01-2.21.76-3.33c-.26-1.13-.92-2.94-2.36-2.68m-11.95 9.62c-1.28.17-1.24 1.47-.86 3.07c.27 1.15 1.18 2.47 2.27 2.18c1.09-.29.87-1.78.55-2.87c-.29-.95-.62-2.56-1.96-2.38"/><path fill="#FFF" d="M89.55 97.94c-1.36.07-1.26 1.8-1.31 3.51c-.05 1.71-.08 2.96 1.16 2.96c1.25 0 1.19-2.27 1.22-3.32s.38-3.22-1.07-3.15"/></svg>