<svg viewBox="0 0 128 128"><path fill="#ac5811" d="m28.1 40-4 4 24.5 22.8s55.6-12.7 55.6-13.2l.2-9-1.2-1.5-3-2.9z"/><path fill="#8a460a" d="m39.3 29.4 1.3 7.9 42.2 4.5 14.7-10.5-25.8-4.7z"/><path fill="#e17f13" d="M32.7 43.2s-6.4-1.4-8.8-4.4c-1.4-1.7-1.5-4.3-.2-6.6 1.7-3.2 6.6-4.7 8.8-5.1s13.6-4.4 33.7-3.8 40 5 39.6 12.1-8.6 7-8.6 7L96 30.3l-11 .1s-11.8-1.3-20-1.6a105 105 0 0 0-16.3.5l-13.2 2.3z"/><path fill="#ae5614" d="m69.6 38.1 22.6-23s-.3-3.3 0-5c.7-2.9 3.9-6.7 6.6-6.5s10.3 8.3 10 10.5-2.7 4.8-5 5.6-4.5.6-4.5.6L80.5 39z"/><path fill="#df8116" d="M94.8 14.8c1.6.4 5.4-2.9 5.9-3.6S99.6 9.3 99 8s-.5-2.3-1.5-2-2.9 2-3.5 3.7c-.6 2.4-.3 4.8.6 5"/><path fill="#e07f14" d="M24.4 43.7s-8 8.4-7.6 20.5 5.5 26.5 9.5 34 9.6 18 11.8 19.5 8.7 5.8 24 6c18 .4 26.4-4 28.5-5.8 2-1.8 7.2-9.6 12-21.7s8-22.8 8-34-6.2-17.6-6.2-17.6-15.2 8.5-40.8 8-39.2-9-39.2-9"/><path fill="#ac5811" d="M63 112.6c23.7.4 35.1-6.3 35.1-6.3l3.8-8.5c1.5-3.5 3.4-9 3.4-9s-9.2 8.3-42.3 8.4c-26.5.1-41-9-41-9s2.4 6.3 4.4 10.2l4.7 8.6s11.8 5.3 32 5.6"/><path fill="#ffb803" d="M50.5 28.5c.2-1.7-.8-7.6-12.6-7-12.7.8-11.8 10.7-11.2 12.6 1.5 4.7 4.3 6 4.4 8.5S29.2 51 28.8 61s.6 14.8 1 16.2c.5 2.6 2.5 4.3 4.5 3s1.1-5.2.9-7.5 0-12.9.7-16.8 1.6-6.6 4-5.9 1.6 4 1.5 6.9-.3 8.2 0 10.8 1.8 4.3 4 4.1c3-.1 3.7-2.5 3.8-6.5.2-4 0-6.7.6-10.6s2.6-5.9 4-6.6q2.4-1.2 10-1.2c7.7 0 9.2.5 10.8 2.8s2 7.6 5 9.7c2.9 2.2 6.2 0 7.3 2.3s1.7 7.8 1.8 14.2-.7 14.6-1.2 18.2-1.7 8.6 0 11.2c1.2 2 4 1.5 5.2-1s2-7.9 2.6-14.2.8-26.1 1-28.5 2-7.8 4.6-15.7c2.8-8.6 5.9-15.6-.5-19.5-3.4-2-5.5-1.7-5.5-1.7l-6.3 6.2s3.6.6 3.5 2c0 2.3-15.2 4.5-25.6 4.6s-25-1.8-25-4.5 8.6-1.1 9-4.5"/><path fill="#fff" d="M93.6 28c-.8 1.6 1 2 1.1 3.2s-.5 3.1.4 3.3 4.1-1 3.4-4.5-4.4-3.1-5-2M79 47.8c-1 .2-1 3.4.5 6.3 1.6 3.2 4.2 3.2 4.8 2.1s-1-2.1-2.2-4.1c-1.6-3-2-4.6-3-4.3M39.8 37.2c-.8 1.3 1 3.5 5.5 4.8s6.9.4 7-1.3c.1-1.4-3.8-1.7-6.2-2.4s-5.2-3-6.3-1m-3.6-14c-1.2-.6-5.5-.2-6 3.6-.3 2.9 3.5 7.5 5.7 6.1 1.3-.8-1-3.2-.4-5.1.6-1.6 2.5-3.6.7-4.5"/><path fill="#fffcff" d="M43.3 64.6c-1.2.2-1 2.9-.8 3.8s1 2.5 2.4 2.2c1.2-.3 1-2.2.8-3.4-.3-1.1-1-3-2.4-2.6m-12 9.6c-1.2.1-1.1 1.4-.8 3 .3 1.2 1.2 2.5 2.3 2.2s.9-1.8.6-2.9c-.3-.9-.7-2.5-2-2.3"/><path fill="#fff" d="M89.6 98c-1.4 0-1.3 1.7-1.4 3.4s0 3 1.2 3 1.2-2.3 1.2-3.3.4-3.2-1-3.2"/></svg>