<svg viewBox="0 0 128 128"><path fill="#f8af3c" d="M31 41.2s-3-22.8 9.8-21.4c12.5 1.4 15 17 31 29 22.9 17.3 33 18 37.2 24.2s3.1 11.5 3.1 11.5-34.4 1-51.8-13.8-29.2-29.5-29.2-29.5"/><path fill="#ec6b31" d="M17.1 13.3c9-4.5 17.1 2 19 7.3 1.8 5.1 11.3 20.2 17.9 27A131 131 0 0 0 87 73c14 6 26.3 4.8 31.8 8.7s6.4 14.5 3.7 17.7-9.2 6.8-20 2.9-45.1-11.8-61.2-28.6-33-47.6-31.6-51.1 3-7 7.4-9.3"/><path fill="#af5832" d="M16 45.6C12.8 39.8 8 34.8 8.8 26c.4-4.3 2.8-7.8 2.8-7.8s-.5 6.3 3.1 9 9 4.4 13.1 10.2S37.7 57.8 56 72c18.6 14.3 33.6 13 40.4 17.4 6.7 4.5 8.3 11.9 16.3 11.7 8-.1 10.7-3.2 10.7-3.2s-2.4 8.3-11.4 9.1-16-3-20-4.5S48.2 88.6 37.1 75 17.5 48.4 16 45.6"/><path fill="#f5b03c" d="M29.5 95.1c18.8 15 41.5 22.4 55.8 18.9 16.7-4.2 14.9-14.5 13.6-17.2-1.8-3.8-8.6-6.5-15-8a80 80 0 0 1-37-19.5C29 53 25.2 32.4 15.3 32.3c-6.3 0-10.1 3.3-11 13.3-1 10.4 6 34.2 25.2 49.5"/><path fill="#ffe361" d="M26.9 14.3c-2.6-1.6-4.9.8-5.1 5.3-.2 3.5 1.2 7 5.3 8.9 3.3 1.6 8.6 3 10.3 6.5s.2 15.5 5.3 20.5 16.6 4 21 8.5 5.4 13.5 12 16.9 12.3-1.4 18.3.4 10.8 10.2 11.5 11.4 2.8 3.7 5 2.3c2.2-1.6.1-4.3-.7-5.7s-7-11.7-14.9-13.8-11.8 1.7-16.4-.2c-4.6-2-4.7-12.5-11.5-17s-15.8-3-19.8-7.2-1-15.2-4.1-19.7c-3.4-5-14.1-7.2-15.4-10.6-1-2.7 1.3-5.2-.8-6.5"/></svg>