<svg xmlns="http://www.w3.org/2000/svg" width="1em" height="1em" viewBox="0 0 128 128"><path fill="#f8af3c" d="M31.05 41.19s-2.96-22.81 9.71-21.4c12.52 1.39 14.98 16.93 30.97 29C94.68 66.11 104.82 66.81 109.04 73s3.1 11.54 3.1 11.54-34.49.99-51.81-13.8-29.28-29.55-29.28-29.55"/><path fill="#ec6b31" d="M17.11 13.31c8.96-4.48 17.1 1.9 19.01 7.32C37.9 25.73 47.38 40.76 54 47.66 59.1 52.99 74.66 67.61 87.08 73c13.94 6.05 26.19 4.79 31.68 8.73s6.44 14.43 3.77 17.67-9.26 6.83-19.96 2.89-45.19-11.83-61.24-28.58S8.39 26.12 9.65 22.6s2.96-7.03 7.46-9.29"/><path fill="#af5832" d="M15.99 45.55c-3.16-5.74-7.88-10.63-7.18-19.43.35-4.36 2.82-7.81 2.82-7.81s-.56 6.26 3.1 8.94 9.01 4.5 13.09 10.28 9.85 20.27 28.16 34.35c18.64 14.34 33.65 12.95 40.4 17.46 6.76 4.5 8.31 11.83 16.33 11.68 8.02-.14 10.7-3.24 10.7-3.24s-2.39 8.31-11.4 9.15-16.05-3.1-19.99-4.5-43.78-13.8-54.9-27.45-19.58-26.61-21.13-29.43"/><path fill="#f5b03c" d="M29.5 95.11c18.76 14.93 41.53 22.38 55.75 18.86 16.71-4.14 14.94-14.5 13.66-17.18-1.83-3.8-8.59-6.48-15.06-8.02-6.48-1.55-21.72-5.34-37.03-19.43-17.74-16.33-21.49-36.92-31.4-37.02-6.54-.07-10.2 3.31-11.12 13.23-.96 10.41 5.92 34.21 25.2 49.56"/><path fill="#ffe361" d="M26.87 14.3c-2.58-1.56-4.83.79-5.07 5.26-.19 3.57 1.22 6.96 5.26 8.92 3.38 1.64 8.59 3 10.37 6.52s.19 15.49 5.26 20.51 16.64 3.93 21.09 8.53 5.37 13.48 11.85 16.81 12.39-1.36 18.35.47 10.84 10.18 11.5 11.4 2.79 3.66 4.93 2.25c2.34-1.55.19-4.27-.56-5.63s-7.09-11.73-14.92-13.89-11.83 1.74-16.42-.19c-4.6-1.92-4.74-12.44-11.54-16.94s-15.77-3-19.8-7.18-1.04-15.21-4.08-19.71C39.66 26.36 29 24.23 27.7 20.82c-1.08-2.76 1.27-5.25-.83-6.52"/></svg>