<svg viewBox="0 0 128 128"><path fill="#fff" d="M63 5.4 16.8 20.9l-6.6 3.7-.8 24.9 6 43.4 30.8 16.6 19.7 7.1 14.6-5.9L114.6 95s3.4-.2 1.8-5.4.4-53.3.4-53.3l.2-11.6s0-2.7-9-4.7S63 5.4 63 5.4" opacity=".5"/><path fill="#7ec8ee" d="m9.3 25.8 54.5 25 52.2-24s.3 63.5-.5 63.8C115 90.8 64.3 71 64.3 71L14.5 90.7l-5-54.8z" opacity=".7"/><path fill="#63abde" d="m66 116.7-25.5-9.3-25.2-14.5-.8-2.2L62.4 69l53 21.7-.8 4.3L93 105.4z" opacity=".7"/><path fill="#b0e4ff" d="M63 5 15.2 21.2l-6 4.6 8.2 3.9 44 19.1 3.6-.5 51-24.4z" opacity=".7"/><path fill="#37b4e2" d="M116.8 89.6c-1.5-1.5-31.7-13.7-37.5-16.2S71 69.2 70 66.6s-3-45.8-3-48.5-.4-10.9-3.5-10.9c-2.6 0-3.2 7.4-3.2 11.2s-1 44.8-2 48.4c-1.1 4.3-12 8-21.3 12.3S15 87 14.5 90.7s2 4.6 6.8 7.9c2 1.3 8.2 4.8 15.4 8.4a101 101 0 0 0 28.4 10.5c7.4.1 18.2-5.8 29.7-11.2 11.3-5.3 21.3-9.5 22.2-11.5 1.2-3 1.3-3.7-.2-5.2m-23 12.7c-7.4 3.4-24.9 11-29 11.4s-18.5-6.5-25-9.6c-7.2-3.5-21.3-10.7-20.5-12.6.8-1.8 9.6-4.9 21.7-9.8l23-9.2s7.5 2.7 20.7 8.4L112.8 93s-9.8 5-19 9.3"/><path fill="#58c4fd" d="M63.6 4c-4.1-.6-12.7 3.8-24.4 7.8-12.5 4.3-23.1 7.1-26.8 9A8 8 0 0 0 7.7 28a256 256 0 0 0 2.1 36.6c.8 7.3 3.5 25.9 3.9 27.2 1.8 6.7 5 1.9 4.2-3.4-.5-3.7-2-12-3.4-26.3s-2.8-32-1.5-35 9.2-5.4 14.7-7C45 14.8 60.2 8 63.6 8s25.7 8.2 29.5 9.6c3.7 1.4 19.7 6 20.5 8.1s.1 58.6.3 61.6-.7 6.9 1.6 7.3 2.8-3.4 2.8-6-.2-27.7.1-39.2 2-22.6-1-26.6-13-6-29.3-11.7A194 194 0 0 0 63.6 4"/><radialGradient id="a" cx="61.8" cy="58.7" r="46.2" gradientTransform="rotate(140.603 65.346 68.45)scale(1 1.3334)" gradientUnits="userSpaceOnUse"><stop offset=".1" stop-color="#fff" stop-opacity=".9"/><stop offset="1" stop-color="#fcfcfc" stop-opacity="0"/></radialGradient><path fill="url(#a)" d="m15.3 29.7 48 22 2.5 61.1-5.4 1.2-36.5-16.2-8.6-5L9.6 36l1.3-8.3z"/><radialGradient id="b" cx="69.5" cy="53.8" r="54.6" gradientTransform="matrix(.8254 .5645 -.6684 .9774 48.117 -37.996)" gradientUnits="userSpaceOnUse"><stop offset=".2" stop-color="#32afe0" stop-opacity=".9"/><stop offset="1" stop-color="#32afe0" stop-opacity="0"/></radialGradient><path fill="url(#b)" d="m64.5 51.9 1 63.5L108.9 98l6.5-4.5-.4-5.6 2-63-6.6 1.6z"/><radialGradient id="c" cx="63.6" cy="49.5" r="47.1" gradientTransform="rotate(-90.115 37.744 75.435)scale(1 2.0491)" gradientUnits="userSpaceOnUse"><stop offset=".3" stop-color="#67ccf9" stop-opacity=".9"/><stop offset=".4" stop-color="#6ccdf9" stop-opacity=".7"/><stop offset=".6" stop-color="#7cd1f9" stop-opacity=".4"/><stop offset=".8" stop-color="#95d8f9" stop-opacity=".1"/><stop offset=".9" stop-color="#9ddaf9" stop-opacity="0"/></radialGradient><path fill="url(#c)" d="m15.9 31.2 25.9 11.9 21.7 8.7 51-25.7 1.2-1.1-53-19-48.9 16-5 3.6.2 3.1z"/><path fill="#37b5e1" d="M7.8 102.1c1 2.5 3.8 5.5 9.7 6.5 4.8.7 8-.1 10.3-1.5 2.1-1.3 2.7-4.1 2.6-5.4 0-1.6-1.8-4-3.8-5S7.2 100.3 7.8 102"/><path fill="#b0e3fd" d="M12 94c-3.2 1.8-6.5 6-3.6 9s13.8 3.7 18-.1-.8-7.9-4.1-9.4-7-1.5-10.3.4"/><path fill="#fdfefe" d="M11 97.3c-1.3 0-3.2 2.9-.2 5 3.7 2.5 8.8 1 8.4-.6s-3.9-1.5-5.3-2.3c-1.5-.8-1.6-2.2-3-2"/><path fill="#37b5e1" d="M28.7 118.4c-1 2.2 0 4.9 4.7 6 7.2 1.8 11.8-.8 13.3-2.3s1.8-3.8 1-4.6-19 .9-19 .9"/><path fill="#b0e4ff" d="M37.5 113.8c-5.9.3-8.5 3.2-8.7 4.5s2.5 4 9 3.7c8.7-.5 10-4.2 10-4.2s-2-4.4-10.3-4"/><path fill="#fff" d="M35.8 116.3c-1.2-.8-3-.3-4.2.5-.9.6-1.3 2-.7 2.8 1 1.3 3 1 4.3.1 1.2-.7 2-2.5.6-3.4m-9.4-94.5c-1.7-2.6-8.7.2-11.4 1.6s-4.2 3.4-4 5.4 3.8 3.2 7.6 4.8 32.9 15 35 16.1c3.2 1.7 6.5 3.9 7.5 10.4.7 4.3 2.5 45.7 2.5 47.1.2 3.4 0 8.3 2 8.2 1.7 0 1.4-4.5 1.3-8.2s.3-44 .3-46.8c0-3.4 1.2-7.2 3.4-9.3s6.7-4.5 11.8-7.2c6.2-3.1 20-9.9 25.2-12.2s8.3-3 8.3-5.7-12-6-13.3-6.2c-1.4 0-3 .4-2.6 2.2.3 1.7 1.6 4.7-1 7s-8.5 5.5-11.8 7.2c-5.7 2.8-19.4 10-24.1 9.7s-7.6-1.1-14.7-4c-7-3-15.5-7.2-19.6-9.5-3-1.6-5-4-4.8-6.4s4-2 2.4-4.2m17.3-6c.7 1.8 6.8 0 9.6-.9 3-.8 7.9-2.4 10.8-2.6 3-.1 12.9 2.9 15.4 3.3s4.7.6 5.2-.2-3-2.8-8-4.5-10.7-4.4-13.2-4c-2.5.3-8 2.8-12.3 4.3-2.6 1-8.3 2.5-7.5 4.7"/></svg>