<svg xmlns="http://www.w3.org/2000/svg" width="1em" height="1em" viewBox="0 0 128 128"><path fill="#fff" d="M63.03 5.38 16.79 20.85l-6.58 3.79-.83 24.84 5.95 43.37 30.91 16.7 19.7 7.1 14.53-5.95 34.17-15.67s3.34-.27 1.78-5.38.42-53.34.42-53.34l.18-11.58s-.02-2.73-9.07-4.71S63.03 5.38 63.03 5.38" opacity=".5"/><path fill="#7ec8ee" d="m9.31 25.82 54.45 24.9 52.26-23.8s.27 63.47-.55 63.75c-.41.14-51.16-19.7-51.16-19.7l-49.79 19.7-4.93-54.73z" opacity=".7"/><path fill="#63abde" d="m65.95 116.65-25.45-9.3-25.17-14.5-.82-2.19 47.88-21.62 53.08 21.62-.82 4.38-21.61 10.39z" opacity=".7"/><path fill="#b0e4ff" d="M62.94 5.02 15.33 21.16l-6.02 4.66 8.21 3.83L61.57 48.8l3.56-.55 50.89-24.35z" opacity=".7"/><path fill="#37b4e2" d="M116.84 89.59c-1.5-1.5-31.75-13.7-37.53-16.24s-8.33-4.16-9.37-6.71-3.12-45.8-3.12-48.57-.33-10.85-3.46-10.86c-2.57-.01-3.12 7.34-3.12 11.19s-1.03 44.81-1.98 48.35c-1.16 4.36-12.04 7.97-21.39 12.37-9.36 4.4-21.84 7.83-22.36 11.53-.51 3.7 2.06 4.62 6.83 7.92 1.95 1.35 8.17 4.83 15.41 8.42 10.49 5.2 23.16 10.42 28.38 10.51 7.35.13 18.19-5.83 29.67-11.2 11.27-5.27 21.34-9.5 22.15-11.46 1.25-3.01 1.4-3.75-.11-5.25m-22.96 12.67c-7.5 3.42-24.98 11.1-29.03 11.45s-18.52-6.52-24.98-9.6c-7.29-3.47-21.39-10.76-20.59-12.61.81-1.85 9.6-4.86 21.74-9.83s23.01-9.14 23.01-9.14 7.52 2.68 20.7 8.33C97.68 86.41 112.83 93 112.83 93s-9.81 5.09-18.95 9.26"/><path fill="#58c4fd" d="M63.56 3.92c-4.11-.57-12.68 3.86-24.4 7.86-12.51 4.27-23.06 7.12-26.74 8.96-3.03 1.52-4.55 4-4.69 7.31-.13 3.3-.41 12.67 2.07 36.65.76 7.3 3.53 25.86 3.89 27.17 1.85 6.73 4.93 1.91 4.24-3.33-.49-3.7-2.07-12.13-3.45-26.33s-2.76-32.11-1.52-35.15 9.19-5.38 14.75-7.03c17.23-5.1 32.53-11.85 35.84-11.85s25.77 8.13 29.5 9.51c3.72 1.38 19.71 5.93 20.54 8.13s.14 58.58.28 61.61-.65 6.83 1.59 7.24c2.25.4 2.82-3.38 2.82-6s-.14-27.7.14-39.14 2.07-22.6-1.1-26.6-12.96-6.06-29.22-11.72C77.96 7.7 67.55 4.47 63.56 3.92"/><radialGradient id="a" cx="61.845" cy="58.67" r="46.169" gradientTransform="rotate(140.603 65.346 68.45)scale(1 1.3334)" gradientUnits="userSpaceOnUse"><stop offset=".1" stop-color="#fff" stop-opacity=".9"/><stop offset="1" stop-color="#fcfcfc" stop-opacity="0"/></radialGradient><path fill="url(#a)" d="m15.32 29.69 47.96 21.92 2.48 61.2-5.36 1.23-36.54-16.26-8.53-4.93-5.74-56.91 1.31-8.31z"/><radialGradient id="b" cx="69.465" cy="53.845" r="54.634" gradientTransform="matrix(.8254 .5645 -.6684 .9774 48.117 -37.996)" gradientUnits="userSpaceOnUse"><stop offset=".152" stop-color="#32afe0" stop-opacity=".9"/><stop offset=".963" stop-color="#32afe0" stop-opacity="0"/></radialGradient><path fill="url(#b)" d="m64.52 51.89.97 63.54 43.41-17.51 6.48-4.55-.37-5.52 2.02-63.12-6.61 1.66z"/><radialGradient id="c" cx="63.646" cy="49.481" r="47.148" gradientTransform="rotate(-90.115 37.744 75.435)scale(1 2.0491)" gradientUnits="userSpaceOnUse"><stop offset=".256" stop-color="#67ccf9" stop-opacity=".9"/><stop offset=".416" stop-color="#6ccdf9" stop-opacity=".674"/><stop offset=".616" stop-color="#7cd1f9" stop-opacity=".392"/><stop offset=".837" stop-color="#95d8f9" stop-opacity=".081"/><stop offset=".895" stop-color="#9ddaf9" stop-opacity="0"/></radialGradient><path fill="url(#c)" d="m15.87 31.2 25.91 11.85 21.71 8.75 51.07-25.7 1.18-1.11L62.67 6.11 13.8 21.96l-4.96 3.59.14 3.17z"/><path fill="#37b5e1" d="M7.81 102.12c.91 2.5 3.8 5.52 9.68 6.45 4.86.77 7.96-.11 10.3-1.49 2.12-1.25 2.74-4.09 2.65-5.39-.12-1.63-1.83-4.04-3.8-5.05-1.98-1.02-19.46 3.76-18.83 5.48"/><path fill="#b0e3fd" d="M12 93.94c-3.24 1.88-6.55 6.11-3.61 9.05s13.82 3.71 18-.1c4.19-3.8-.77-7.89-4.14-9.39s-6.93-1.49-10.25.44"/><path fill="#fdfefe" d="M10.94 97.31c-1.22.08-3.09 2.86-.14 4.91 3.66 2.55 8.76 1.01 8.42-.53s-3.9-1.44-5.34-2.26c-1.45-.82-1.55-2.22-2.94-2.12"/><path fill="#37b5e1" d="M28.71 118.38c-1.01 2.27.05 4.89 4.66 6.03 7.22 1.78 11.83-.8 13.37-2.29s1.73-3.85.91-4.62c-.82-.76-18.94.88-18.94.88"/><path fill="#b0e4ff" d="M37.46 113.82c-5.82.3-8.46 3.15-8.7 4.5s2.58 3.95 8.99 3.64c8.71-.42 10.11-4.19 10.11-4.19s-2.07-4.38-10.4-3.95"/><path fill="#fff" d="M35.78 116.32c-1.22-.79-3.03-.29-4.14.48-.89.62-1.34 2.07-.72 2.84 1.01 1.25 3.03.87 4.24.1 1.19-.77 1.96-2.55.62-3.42m-9.37-94.57c-1.74-2.56-8.72.22-11.4 1.69s-4.25 3.33-3.98 5.4 3.76 3.11 7.58 4.8 32.87 14.9 35.06 16.08c3.12 1.69 6.47 3.86 7.47 10.41.65 4.31 2.44 45.69 2.51 47.11.16 3.36-.13 8.23 1.9 8.15 1.78-.07 1.42-4.5 1.37-8.21s.31-44.05.32-46.78c.02-3.41 1.12-7.25 3.41-9.27s6.64-4.58 11.8-7.21c6.18-3.14 19.97-9.92 25.2-12.26s8.23-3.05 8.23-5.62-11.89-6.11-13.3-6.22c-1.42-.11-2.94.38-2.62 2.13.33 1.74 1.66 4.71-1.01 7.05s-8.45 5.52-11.75 7.18c-5.69 2.85-19.41 10.09-24.1 9.76s-7.63-1.15-14.67-4.09c-7.03-2.94-15.49-7.2-19.63-9.43-2.94-1.59-4.96-3.93-4.8-6.38.18-2.44 3.92-2.08 2.41-4.29m17.34-5.89c.67 1.73 6.71-.05 9.6-.93 2.89-.87 7.85-2.45 10.8-2.62 2.94-.16 12.81 2.84 15.32 3.33s4.69.6 5.23-.27-3-2.78-7.96-4.47S66 6.54 63.54 6.86c-2.54.34-7.99 2.83-12.32 4.36-2.62.93-8.29 2.51-7.47 4.64"/></svg>