<svg viewBox="0 0 128 128"><path fill="#95683d" d="M4.3 68.9c1.3 19.7 23.4 50.9 61 53.4C91 124.1 115.8 112 121 83.5c5-26.1-5-50.8-13-61.8C95.6 4.5 66.5-5.3 35.3 13a58 58 0 0 0-31 56"/><path fill="#b7d118" d="M12 79.5c13.6 25 53.4 26.7 75 9.6 23.8-18.9 29.3-46.3 16.4-65.5C88.4 1.3 53.9 4.4 32.8 19 12.1 33.6 1.7 60.7 12 79.5"/><path fill="#e5dda0" d="M39.2 49.5c-.8 2.4 2.4 4.4 1.9 9-.7 6.7-5.3 10.5-4 11.8 1.6 1.6 6.5-1.4 12.7-2.6 7-1.2 8.2 2 10 1 2.3-1.2 1.1-6.4 5.7-10.4 4.4-4 8.7-4.1 9.5-5.4s-.7-5 .4-9.6 4.8-8.6 3.5-10.4-6.5 3.3-12.5 3c-4-.2-6-2.1-7.7-1.3s-2.4 5.9-7 10c-6 5.2-12 3.2-12.5 5"/><path fill="#7fb240" d="M79.8 14.2c-3.4-1.5-5.7 5.8-7 8.4s-4 7.7-1.2 9c2.3 1.3 5.8-6.6 7-9s4-7.1 1.2-8.4m3.6 13.2c1.2 1.4 3.5-.2 5.5-1.8 1.8-1.6 2.4-3.6 1.6-4.7q-1.9-2.5-5.3 1c-1.7 1.6-3.5 3.6-1.8 5.5M81.6 36c.7 2.7 7.6 1 12.7 0 6-1.2 10.4-1.8 9.8-5.2-.7-3.8-6.7-1.7-11.3-.6-7.7 2-12 2.4-11.2 5.8M79 45.7c.4 3.5 9.4 1.9 17 1.8 6.5 0 11-.6 10.6-3.5-.3-3-6-2.5-12.3-2s-16-.3-15.3 3.7m2.5 8.3c-1 2.9 1.5 3.6 7.5 6.3 4.5 2 8.2 4.3 9.4 1.2 1-2.7-2.9-4.3-6.3-5.9C86.5 53 82.6 51 81.5 54m-7.6 3.3c-3 3.8 4.5 7.7 9.9 11.9s9.6 7.2 11.4 4.6c1.8-2.8-3.5-6-8.2-9.3s-11.4-9.4-13-7.2m-7.5 8.4c-1.9 1.5-1.1 3.2 1.7 6.8l6.2 7.9c.9 1.2 4 5.4 6.5 3.7 2.6-1.9-.7-5.8-1.6-7.1s-7-8.8-8.6-10.5-2.8-1.8-4.2-.8M58 73c-1.9.6-2.2 2.7-1 8.6 1 5.2 1.8 6.6 2.5 9 .3.9 1.4 5 4.3 4.2 2.4-.7.7-6 .2-8.2-.7-3.3-3.7-14.5-6-13.6m-7.7-2c-2.7-.7-3.5 4.2-4 10-.4 4.3-.9 9.2 2 9.2 3.5.1 3.4-5.2 3.7-9.2.3-5 .6-9.5-1.7-10M33 94c3.4 1.3 5.3-4.4 6.7-8l4-9.2c.4-1.2.1-3.6-2-4.3s-3.5 3-5 6.4-7.1 13.6-3.7 15m-10-6.5c2.6 1.8 4-1 7-4.6 2.8-3.6 7-8 4.4-9.7-2.2-1.5-5.1 2.8-7.6 5.8-2.4 3-6.6 6.4-3.8 8.5m-9-12.5c.9 2.7 4.8 1.2 9.3-.4s12.5-3.7 11.3-6.8c-.7-2-6.7.1-12.3 1.7-2.8.8-9.5 2-8.3 5.5m0-15.4c.2 3.3 5.4 2.6 11.4 2.9 10.4.5 12.8 0 12.8-2.3.1-3.5-6.3-2.8-13.1-3.3-5.5-.4-11.5-1.5-11.2 2.7M19.8 44c-1 2.4.7 4 6.4 6 6.3 2.2 8.9 3.3 10 .9s-3.3-4-8-6C26 44 21 41.2 19.8 44M24 33c-2 2.8 1.3 5 6.5 8.2 5.1 3.2 10 6.8 12 3.7 1.7-2.6-5.8-7-9-9S25.8 30.8 24 33m14-12c-1.7 1-1.2 4 2.5 9.5s6 9.8 8.8 8.6c2.5-1.1-1.3-7.8-3.5-11.4-2-3.5-5-8.6-7.8-6.8m14.5-6.2c-2.2.3-2.6 3.7-1.5 8.8 1.1 5.5 2.4 10.6 4.9 10 2.5-.7 1.7-6 .9-11.7-.5-3.2-1.5-7.6-4.3-7.1M68 11.5c-2.6-.4-3.7 2-4.6 7.8-1 5.9-2.5 11 .3 12.2 2.9 1.3 4.5-8 5.3-12 .7-3 2-7.6-1-8"/><path fill="#303030" d="M65.6 25.2c-2.6-.6-4 1.4-4.4 4s.6 4 2 4.4q2.8.5 3.8-3.1c.7-2.4.4-4.8-1.4-5.3m5.1 7.4c1.5.8 3.2 0 4-1.9.4-1 .7-3.5-1-4.2q-2.8-1.1-3.9 2c-.6 1.5-.5 3.4 1 4.1m11.5-4.2c1.3 1 3 .5 4-.4.7-.7 1.2-2.4.1-3.6s-3-.8-3.8 0c-.8 1-1.7 2.8-.2 4m5.8 5.8q.4 2.9-3.4 3.7-3.5.5-4-1.9c-.4-2.4.8-3 2.5-3.5s4.4-.5 4.9 1.7m-9.5 11.5c0 2.2 2.3 2.7 4 2.6 2.2-.2 4-1.2 3.9-2.9s-1.7-2.7-4-2.7-4 .7-4 3m2 7.8q-1 2.4 1.9 3.7c1.7.8 4 .2 4.4-1.2.3-1.5-.5-3.1-2.4-3.6s-3.2-.2-3.9 1m-8 3.4q-1.8 2.3 1.2 5c3 2.7 4.3 2 5.4.6 1.5-1.7-.2-4-1.8-5.4s-4-1.3-4.9-.2m-8.1 6.7c-1.9 1.6-.7 4 .6 5.6 1.4 1.7 3.7 2.4 5 1.2s1.3-3.7-.9-5.8q-2.6-2.6-4.7-1m-7.6 7c-2 .6-1.9 2.8-1.4 4.5s2 3.2 3.6 2.7q2.3-.9 1.5-4.2c-.8-3.3-2.2-3.4-3.7-3M50.7 69q-2.5-.2-3.3 3.2c-.8 3.4.5 4 2.3 4.2s3-1.5 3.2-3.7-.7-3.6-2.2-3.7m-7.5 2.5c-2.4-1.2-4 1.1-4.5 2.4s-1 4 .9 5c1.9.8 3.6-1.2 4.3-2.7.7-1.7 1-4-.7-4.7m-11.7 5c1.5 1.5 3.5-.3 4-.8.6-.9.6-2.4 0-3.2-1-1-2.5-.6-3.5.2-1 .7-1.7 2.6-.5 3.8m.7-9.9c-1.2.3-2.7 1.2-2.4 2.8s1.7 2.1 3.4 1.8 2.5-1.9 2.3-3c-.1-1.2-2-1.8-3.3-1.6m-2-6.5c0 1.8 1.7 2.7 4.2 2.9q5 .3 5-3.2-.2-3-4.6-2.8c-4.4.2-4.4 1-4.5 3M32 49c-.9 1.3 0 3.7 2 4s3.5-1.7 2.8-3.6c-.6-2-3.5-2.4-4.8-.4m3.8-8.2c-1.3 2.1.2 4 2.8 5.3q3.5 1.5 5-.5c.9-1.4.1-3.5-2-4.8-2.3-1.6-4.6-2-5.8 0M46.5 34c-1.2.7-2.3 2.6-.3 5.3 1.4 2 3.5 2.2 4.6 1.6 1-.5 1.4-3 .2-4.9-1-1.6-2.9-2.8-4.5-2m8.3-6.3c-1.6.2-2.3 2.5-1.7 4.1s1.6 2.6 3.2 2.2 1.8-2.5 1.6-3.4c0-.8-1-3.2-3-3"/></svg>