<svg viewBox="0 0 128 128"><path fill="#757f3e" d="M24 29.5 13 54.2 14 84s6 19.5 6.4 19.7c.3.2 1.3-.2 3.7-4.6s8.6-13 9.1-15.1.7-17.4.7-17.4l1.4-32.9z"/><path fill="#94a61d" d="M24 30.5S4 49.7 4 68c0 12.9 6.3 20 7.9 22.5l5.8 9c.8 1 1.8 3.3 2.5 4 .7.9 0-5.3-.9-7.8s-3-16.2-3-25.3a75 75 0 0 1 4.3-29A49 49 0 0 1 28 29.6z"/><path fill="#fcc219" d="M30.7 33s-5.9 3-6 6.5 1.5 7.2 2.2 12 .7 11 .8 12.9c.1 1.8 5.3 14.1 5.3 14.1l32 28.8 40.2 1.2s12.7.7 14.3-1.3 4.7-6.2 5-9c.7-5.4-1.2-8.2-2.6-16.8-.6-3.7-.8-18-6.3-29.5-6.1-13-18.4-24.2-43.1-27.5-18-2.3-27.1 1.4-29.8 1s-4.7-1.6-7.8-.2C31 27 30.7 33 30.7 33"/><path fill="#f7932a" d="M110.8 112.2c4.7.2 7.2-2.5 8.3-3.6s3-5 3-5-3.4 3-7.4 2.7-9.2-1.2-12.3-1.5-13 2-25.1-.7-25.3-9.3-34-17.9c-12-11.6-15.7-24.6-15.7-24.6S27 77.7 38.4 92.5s22.8 20 37 21.5c16 1.7 25-2 27.3-2z"/><path fill="#ffebc9" d="M53 35.3c-.3 3.2 1.7 5.5 4 6 2.5.3 6.2-.3 11.8 2.8 5.6 3.2 13.4 11 18 6.8 4.3-3.8-2.6-10.9-5-13-2.5-2.1-8.6-7.6-20-7.8-6.6-.1-8.6 3.1-8.8 5.2"/><path fill="#757f3e" d="M20.4 17.3c0-.7-.7-5-2.8-4q-5.2 2.7-3.6 7c1.4 3.5 3.8 5.8 6.4 8.5l7.2 7.4c1.5 1.2 3.5 2.8 6-.3 2.6-3.4.9-4-1.4-6.2S29 27 24.7 22.5c-2.1-2.2-4.3-4.4-4.3-5.2"/></svg>