<svg xmlns="http://www.w3.org/2000/svg" width="1em" height="1em" viewBox="0 0 128 128"><path fill="#757f3e" d="M24 29.48 13.08 54.15l.91 29.83s6.07 19.56 6.37 19.77c.3.2 1.31-.25 3.74-4.6s8.6-13.05 9.1-15.17c.51-2.12.71-17.39.71-17.39l1.42-32.87z"/><path fill="#94a61d" d="M24.03 30.48S4.09 49.65 4.08 68.11c0 12.85 6.27 19.92 7.79 22.45s5.06 7.99 5.87 9.1 1.79 3.21 2.49 4.02c.71.81-.07-5.34-.88-7.86-.81-2.53-3.02-16.26-3.03-25.28-.01-9.88.83-21.85 4.28-29.1 3.81-8 7.39-11.78 7.39-11.78z"/><path fill="#fcc219" d="M30.68 33.02s-5.87 2.93-6.07 6.47 1.62 7.18 2.33 12.03.71 11.02.81 12.84C27.84 66.19 33 78.53 33 78.53l32.06 28.72 40.15 1.21s12.64.71 14.26-1.21 4.68-6.23 5.06-9.1c.71-5.36-1.21-8.19-2.63-16.79-.6-3.66-.81-17.98-6.27-29.43-6.17-12.94-18.41-24.27-43.18-27.51-18.01-2.35-27.1 1.42-29.73 1.01-2.63-.4-4.75-1.62-7.79-.2-3.89 1.81-4.25 7.79-4.25 7.79"/><path fill="#f7932a" d="M110.77 112.2c4.77.16 7.28-2.53 8.29-3.64s3.04-4.93 3.04-4.93-3.45 2.91-7.39 2.7c-3.94-.2-9.2-1.21-12.34-1.52s-13.05 1.92-25.08-.71-25.31-9.28-34.08-17.9c-11.83-11.63-15.6-24.64-15.6-24.64s-.58 16.14 10.75 30.91 22.86 20.02 37.01 21.54c16 1.71 24.98-1.92 27.3-2.02 2.34-.09 5.17.11 8.1.21"/><path fill="#ffebc9" d="M53.03 35.34c-.3 3.14 1.62 5.46 3.94 5.87 2.5.43 6.27-.2 11.83 2.93 5.56 3.14 13.37 10.96 18 6.78 4.25-3.84-2.63-10.92-5.06-13.05-2.43-2.12-8.49-7.58-19.92-7.79-6.57-.11-8.59 3.14-8.79 5.26"/><path fill="#757f3e" d="M20.36 17.34c-.02-.75-.71-4.95-2.72-3.98-3.47 1.66-4.78 4.1-3.65 6.92 1.42 3.54 3.8 5.84 6.37 8.49 1.97 2.04 5.87 6.17 7.28 7.38 1.42 1.21 3.51 2.86 5.97-.3 2.62-3.37.85-3.98-1.38-6.11S29 26.9 24.71 22.5c-2.15-2.21-4.33-4.41-4.35-5.16"/></svg>