<svg viewBox="0 0 128 128"><path fill="#6ea517" d="m22.5 14.8 99 44c2.7 1.2 2.9 3.1 2 12.4-1 10.5-1.9 37.8-40.2 42.9-24.6 3.2-55.9-4.3-70.9-27.2C-6 58.8 11 23.4 14.8 17.7c2.4-3.5 4.8-4.2 7.7-2.9"/><path fill="#f0f4c3" d="M121.5 58.8 22.6 14.9C9.6 31.5-3.8 76 27.9 96.2c33.6 21.5 78.7-10.2 93.6-37.4"/><path fill="#f0f4c3" d="M117.7 57 24.5 15.7C12.3 31.2.6 74.8 30.2 93.7c31.4 20.2 73.6-11.2 87.5-36.7"/><path fill="#b0e244" d="M56.2 37.6 19.5 48.2a7 7 0 0 0-5 5.3c-1.9 8.5.8 23.3 8.9 29.8a7.3 7.3 0 0 0 10.8-2.1L58.5 41c1.3-1.7.5-4.2-2.3-3.4m14.3 2.9 16 33c1.4 2.9 6.3 4.7 9.9 2.8a40 40 0 0 0 19.2-20.2L73.2 37.3c-2.4-1.1-4 .6-2.7 3.2m-8.6 1.9L37.6 84.1a6.6 6.6 0 0 0 2.7 9.2c12.3 6.5 30.9.4 39.6-7 2.2-1.9 4.5-5.1 3.2-8.2S68.9 44.6 67.8 42.3c-1.2-2.7-4.1-2.8-5.9.1"/><path fill="#f0f4c3" d="m52.2 42.2-11.1 3.4c-1.4.5-2.2 1.7-1.9 2.5s1.7 1.1 3.1.6c.8-.3 7.1-3.9 9.5-5.2-3.1 2.4-10.2 9.4-11.1 10.3-1.4 1.5-1.7 3.4-.8 4.3 1 .9 2.9.5 4.3-1 1.2-1.3 8.5-12.8 9.1-13.9s.4-1.4-1.1-1m10.1 16.4c0-2.2 1.4-10.3 1.8-12.3.4-1.6 1.5-1.8 1.8.5s1.7 9.7 1.7 11.8-1.2 3.3-2.7 3.3c-1.4 0-2.6-1.1-2.6-3.3M79.9 49l-4.1-6.1c-.7-1.2.1-2.1 1.8-.9l5.4 4c1.6 1.3 1.9 3 .8 4s-2.7.8-3.9-1"/><ellipse cx="87.3" cy="103.1" fill="#b0e244" rx="3.4" ry="2.3" transform="rotate(-27.098 87.298 103.126)"/><ellipse cx="98.9" cy="103.8" fill="#b0e244" rx="3.4" ry="2.3" transform="rotate(-30.642 98.887 103.818)"/><ellipse cx="102" cy="93.8" fill="#b0e244" rx="3.4" ry="2.3" transform="rotate(-37.16 102.017 93.797)"/><path fill="#b0e244" d="M57.6 30.3 28 17.3c-3.6 2.2-9.7 11.4-11.2 21.2-.6 3.6 1.7 5.9 5.3 4.9l35.3-9.7c1.6-.5 2-2.6.2-3.4"/></svg>