<svg xmlns="http://www.w3.org/2000/svg" width="1em" height="1em" viewBox="0 0 128 128"><path fill="#FF5E59" d="m69.2 69.7l10.98-8l6.34-2.77l6.76-6.19s6.13-.14 4.12 6.19c-1.13 3.54-6.79 4.15-6.79 4.15s-6.93 6.3-10.79 6.41c-2.46.07-4.5.66-4.5.66l.16.57s11.41.33 12.92.14c1.5-.19 8.88-5.5 9.73-5.97c.84-.47 1.96-.93 2.53 0c.47.75-.26 1.55-1.1 2.21c-.84.66-9.4 6.13-10.07 6.52c-1.55.9-14.18.55-14.18.55l.39.76s11.9 1.21 13.59 2.09c.56.29 6.78 8.14 7.16 8.61c.38.47.45 1.42-.19 1.97c-.67.58-1.5-.19-2.06-.66c-.56-.47-5.97-6.44-6.35-6.72s-12.52-2.1-12.52-2.1l.09 1.22s10.55 2.69 11.54 3.47c1.09.86 4.82 6.42 5.31 7.33s1.09 3.03.11 3.48c-.75.35-2.32-1.41-2.53-1.97c-.21-.56-3.94-6.34-4.36-6.55c-.42-.21-10.28-2.39-10.28-2.39l.21.99s7.88 3.87 8.52 4.79c.63.92 2.89 7.81 2.96 8.38s.39 2.1-.35 2.39c-1.16.46-1.9-1.37-2.25-2.01c-.35-.63-2.32-6.51-2.75-7.14c-.42-.63-7.18-2.96-7.18-2.96l-19.99-.67s-7.74 4.68-7.88 5.1c-.14.42-1.37 6.86-1.55 7.6c-.11.48-.39 1.51-1.41 1.48c-1.3-.04-1.06-1.13-.99-2.32c.07-1.2 1.2-8.27 1.97-9.08c.24-.25 7.53-5.84 8.87-5.84c1.34 0 .92-.21.92-.21l-.35-.95s-5.42 2.32-6.83 2.89c-1.41.56-6.09 2.43-6.37 2.64c-.31.21-3.36 6.41-3.66 6.82c-.35.49-1.16 1.06-1.9.77c-.64-.24-.7-1.13-.28-2.18c.42-1.06 2.99-8.02 3.34-8.31c.35-.28 10.03-3.87 10.8-4.22c.77-.35 4.72-1.62 4.72-1.62l-.56-.67s-8.09.74-9.29.95c-1.2.21-5.46.95-5.74 1.09c-.28.14-3.06 5.1-3.41 5.67c-.35.56-2.11 2.18-2.82 1.69c-.7-.49-.49-1.83-.21-2.53c.28-.7 3.8-7.18 4.5-7.74c.7-.56 4.58-1.2 6.97-1.55s9.26-1.13 9.26-1.13l-.14-.63l-8.9.14c-1.55.03-5.27.18-6.05-.14c-1.3-.53-5.88-3.45-6.83-4.29c-.42-.38-3.63-2.43-2.53-3.94c.87-1.21 3.17.56 3.87.99c.7.42 5.53 3.48 6.79 3.77c1.27.28 12.85.25 12.85.25l-.21-1.83s-3.94 1.49-8.17-.16c-4.43-1.73-4.65-3.11-4.65-3.11s-3.52.11-4.72-2.96c-.71-1.82-1.2-5.95-1.2-5.95l8.24.21l1.06 4.29l18.93 6.48z"/><path fill="#FB1B1D" d="M56.81 104.16c-.69 1.21-4.55 2.86-7.98 6.52c-2.99 3.19-4.22 8.35-.56 11.26c3.66 2.91 6.95 1.41 7.88.56c.94-.84 3-2.72 3-2.72l5.91 1.88l6.19-1.69s1.97 3 4.69 3.47c2.72.47 8.82-.75 8.35-7.13c-.47-6.38-10.19-10.63-10.61-11.59c-.75-1.74 1.22-13.19 1.69-16.1c.47-2.91 2.14-14.1 2.16-16.71c.03-3-.19-5.26-.19-5.26s3.2-3.73 5.21-4.72c2.01-.99 6.37-1.51 6.37-1.51s.32-3.7 2.89-5.14c2.57-1.44 5.84-.56 5.84-.56s4.12.25 7.6-4.54c3.48-4.79 3.1-18.34.63-24.07s-4.14-11.22-10.49-18.06c-3.52-3.79-4.93-4.01-6.69-2.43s2.53 8.3 4.02 13.16c1.37 4.46 1.97 6.29 2.16 9.95c.17 3.34.26 5.22-.76 5.33c-1.02.11-1.29-1.11-1.68-4.95c-.39-3.84-2.55-8.94-3.6-10.46c-1.02-1.48-2.75-1.27-3.63.07c-.88 1.34-.49 8.66.18 12.95s1.08 9.35 2.15 12.88c1.48 4.89 3.94 7.46 3.94 7.46s-1.94.07-3.03 1.55c-1.09 1.48-1.76 3.52-1.76 3.52s-2.11 1.41-3.1 2.04c-.99.63-6.29 3.47-6.29 3.47s-2.49-6.87-4.58-9.55c-2.09-2.67-8.17-10.7-8.8-10.72c-.77-.02-6.64 9.13-8.19 11.19c-1.55 2.06-3.26 5.28-3.68 6.66s-.66 2.65-.66 2.65s-3.21-1.15-4.74-1.38c-1.53-.23-4.11-.75-4.11-.75s.19-1.74-.84-3.38c-.65-1.04-1.88-2.39-1.88-2.39s1.67-1.27 2.06-3.73s-1.17-12.74-1.74-15.84c-.56-3.1-.75-12.06-1.64-13.7s-3.47-.84-4.69 1.97c-.76 1.76-1.41 5.91-1.27 8.82c.14 2.91 1.13 5.49-.47 5.58s-1.92-6.38-1.5-10.7c.42-4.32 3.71-13.56 3.66-15.25c-.05-1.69-1.92-3.19-5.02-.23s-7.74 7.84-9.1 17.83c-.96 7.08-.94 12.72.23 16.85c1.17 4.13 2.96 9.15 8.68 11.83c5.73 2.67 9.08-1.91 10.93 1.17c.84 1.41.56 3.66.56 3.66s2.14-.45 6.38.99c3.61 1.22 3.99 2.58 3.99 2.58s.01 1.16.28 4.97c.33 4.65 3.1 16.52 3.33 17.46c.23.94 1.87 9.97 2.16 11.4c.4 1.66.54 2.93.16 3.58"/><path fill="#FB1B1D" d="M44 23.24c1.9.36 1.9-1.47 2.04-3.24c.28-3.59 2.11-7.53 5.91-7.6c3.8-.07 5.28 6.12 5.35 13.8s.92 23.86.92 23.86l2.89-1.2s-.49-21.26-.7-24.78s-.36-15.27-8.24-15.41s-8.97 9.01-9.01 9.92c-.07 1.69-.64 4.37.84 4.65m22.46 24s.35-22.67.49-26.61c.14-3.94.21-12.49 7.6-12.32c4.97.12 5.98 2.58 6.62 6.55c.35 2.18.16 4.13.07 5.07c-.07.77-.38 1.85-1.55 1.83c-1.27-.03-1.48-1.13-1.48-2.32s.21-7.81-3.31-7.88c-3.52-.07-4.72 3.73-4.79 9.01s-.56 28.58-.56 28.58z"/><path fill="#FF5F00" d="M55.97 107.71s-3.03 2.6-1.34 8.02c1.15 3.7 3.8 7.11 10 7.39s10.28-3.17 11.68-7.95c1.04-3.53-.14-6.76-.77-7.32c-.63-.56-2.44 5.42-3.5 7.32s-2.91 4.93-7.13 4.72c-3.87-.19-5.88-3.83-6.41-5.28c-1.19-3.31-1.69-6.9-2.53-6.9"/><path fill="#FF5F00" d="M58.78 106.37s2.39-.99 6.34-1.06c3.94-.07 6.83.99 6.83.99s-1.55 10.49-6.55 10.49s-6.62-10.42-6.62-10.42m-1.92-4.93s.05 1.03.07 1.53c.02.49-.12 1.2-.12 1.2s3.87-1.03 8.59-.96s8.31 1.53 8.31 1.53s-.2-.92-.19-1.45c.01-.54.02-1.27.02-1.27s-3.36-1.69-8.21-1.62c-4.86.06-8.47 1.04-8.47 1.04m-1.67-8.84s3.8-1.5 9.92-1.57s9.69 1.34 9.69 1.34l-1.03 7.6s-3.24-1.62-8.8-1.62s-8.45 1.36-8.45 1.36z"/><path fill="#FE9004" d="M58.41 93.25c.2 1.25 1.08 1.85 2.63 1.78c1.97-.09 3.03-.92 3.17-1.97c.14-1.06-.96-2.16-3.1-2.04c-1.41.08-2.91.89-2.7 2.23m-3.57-2.58s5.7-1.55 9.92-1.55s10.35 1.48 10.35 1.48s.45-2.72.87-5.33c.42-2.6.77-6.1.77-6.1s-5.51 6.62-12.13 6.34c-6.62-.28-12.18-6.03-12.18-6.03s.63 3.71 1.24 6.24c.51 2.07 1.16 4.95 1.16 4.95"/><path fill="#FF5E00" d="M53.51 68.22c.16 3.52.92 9.36 3.31 8.45s.14-5.56.28-8.66c.14-3.1 1.76-6.41.42-7.25c-1.34-.85-4.3 1.19-4.01 7.46"/><path fill="#FE9004" d="M57.45 60.05c1.32.55 1.22 1.95.77 3.1c-.35.92-1.44 1.52-2.53 1.34c-1.27-.21-1.83-2.25-.92-3.52c.92-1.27 1.83-1.27 2.68-.92"/><ellipse cx="69.11" cy="54.14" fill="#2E2F2D" rx="2.43" ry="2.46" transform="rotate(-24.3 69.113 54.145)"/><ellipse cx="59.85" cy="53.7" fill="#2E2F2D" rx="2.6" ry="2.32" transform="rotate(-64.526 59.844 53.7)"/><path fill="#FF5E00" d="M89.55 45.69c.33 2.46 1.27 5.28 3.17 5s1.48-4.29 1.48-5.7s-.85-5.46-2.53-5.35c-2.2.14-2.55 2.88-2.12 6.05"/><path fill="#A42615" d="M92.43 35.98c1.45-.31 4.01-.56 3.87-2.32c-.14-1.76-2.89-1.06-4.22-.92c-1.34.14-3.38.7-3.31 2.18s2.68 1.27 3.66 1.06m-59.13 3.8c.92-.05 3.8.42 3.73-1.55s-3.73-1.55-4.36-1.55c-.63 0-2.75.35-2.75 1.76s1.98 1.41 3.38 1.34"/></svg>