<svg viewBox="0 0 128 128"><path fill="#ff5e59" d="m69.2 69.7 11-8 6.3-2.8 6.8-6.2s6.1-.1 4.1 6.2c-1.1 3.6-6.8 4.2-6.8 4.2s-7 6.3-10.8 6.4c-2.4 0-4.5.6-4.5.6l.2.6s11.4.3 12.9.2c1.5-.2 8.9-5.5 9.7-6 .9-.5 2-1 2.6 0 .4.7-.3 1.5-1.1 2.2s-9.4 6.1-10.1 6.5c-1.6 1-14.2.6-14.2.6l.4.7s11.9 1.2 13.6 2.1c.6.3 6.8 8.2 7.2 8.6s.4 1.4-.2 2-1.5-.2-2.1-.7l-6.3-6.7c-.3-.3-12.6-2-12.6-2l.1 1.1S86 82 87 82.8c1 .9 4.8 6.4 5.3 7.3s1 3 0 3.5c-.7.4-2.2-1.4-2.4-2s-4-6.3-4.4-6.5-10.3-2.4-10.3-2.4l.2 1s7.9 3.9 8.5 4.8c.7 1 3 7.8 3 8.4s.4 2-.3 2.4c-1.2.4-2-1.4-2.3-2S82 90.6 81.6 90s-7.2-3-7.2-3l-20-.6s-7.8 4.7-7.9 5L45 99.3c-.2.5-.4 1.5-1.5 1.5-1.3 0-1-1.2-1-2.4.1-1.2 1.3-8.2 2-9 .3-.3 7.6-5.9 8.9-5.9s1-.2 1-.2l-.4-1-6.9 3-6.3 2.6c-.3.2-3.4 6.4-3.7 6.8-.3.5-1.2 1-1.9.8q-.9-.6-.3-2.2c.4-1 3-8 3.4-8.3s10-3.9 10.8-4.2l4.7-1.7-.6-.6-9.3 1-5.7 1c-.3.1-3 5.1-3.4 5.7-.4.5-2.1 2.2-2.8 1.7s-.5-1.9-.2-2.6 3.8-7.1 4.5-7.7 4.5-1.2 7-1.5l9.2-1.2-.2-.6-8.9.1c-1.5 0-5.2.2-6-.1-1.3-.5-5.9-3.5-6.8-4.3-.5-.4-3.7-2.4-2.6-4 .9-1.1 3.2.6 3.9 1s5.5 3.5 6.8 3.8 12.8.3 12.8.3l-.2-1.9s-4 1.5-8.1-.1c-4.5-1.7-4.7-3.1-4.7-3.1s-3.5 0-4.7-3c-.7-1.8-1.2-6-1.2-6l8.2.3 1 4.3 19 6.4z"/><path fill="#fb1b1d" d="M56.8 104.2c-.7 1.2-4.5 2.8-8 6.5-3 3.2-4.2 8.3-.5 11.2s7 1.4 7.8.6l3-2.7 6 1.9 6.2-1.7s2 3 4.6 3.4 8.9-.7 8.4-7-10.2-10.7-10.6-11.7c-.8-1.7 1.2-13.2 1.7-16s2.1-14.2 2.1-16.8c0-3-.2-5.3-.2-5.3s3.2-3.7 5.2-4.7 6.4-1.5 6.4-1.5.3-3.7 3-5.1 5.7-.6 5.7-.6 4.2.3 7.6-4.5 3.1-18.4.7-24S101.7 14.8 95.4 8c-3.5-3.7-5-4-6.7-2.4s2.5 8.3 4 13.2c1.4 4.4 2 6.3 2.2 10 .1 3.3.2 5.1-.8 5.3s-1.3-1.2-1.7-5-2.5-9-3.6-10.5c-1-1.4-2.7-1.2-3.6.1s-.5 8.7.2 13 1 9.3 2.1 12.8c1.5 5 4 7.5 4 7.5s-2 0-3 1.6-1.8 3.5-1.8 3.5l-3.1 2-6.3 3.5s-2.5-6.9-4.6-9.6-8.2-10.7-8.8-10.7c-.8 0-6.6 9.1-8.2 11.2s-3.2 5.3-3.7 6.7-.6 2.6-.6 2.6-3.2-1.1-4.8-1.4l-4-.7s.1-1.8-.9-3.4L39.8 55s1.7-1.3 2-3.7-1-12.8-1.7-15.9c-.5-3-.7-12-1.6-13.7s-3.5-.8-4.7 2c-.8 1.8-1.4 6-1.3 8.8s1.2 5.5-.4 5.6-2-6.4-1.5-10.7 3.7-13.5 3.6-15.2-1.9-3.2-5-.3-7.7 7.9-9 17.9q-1.5 10.6.1 16.8c1.6 6.2 3 9.2 8.7 11.8s9.1-1.9 11 1.2c.8 1.4.5 3.7.5 3.7s2.1-.5 6.4 1c3.6 1.2 4 2.5 4 2.5l.3 5c.3 4.7 3 16.5 3.3 17.5s1.9 10 2.1 11.4q.7 2.6.2 3.6"/><path fill="#fb1b1d" d="M44 23.2c1.9.4 1.9-1.4 2-3.2.3-3.6 2.1-7.5 6-7.6s5.2 6.1 5.3 13.8 1 23.9 1 23.9l2.8-1.2s-.5-21.3-.7-24.8-.3-15.3-8.2-15.4-9 9-9 9.9c-.1 1.7-.7 4.4.8 4.6m22.5 24 .5-26.6c.2-4 .2-12.5 7.6-12.3 5 .1 6 2.6 6.6 6.6q.3 3.3 0 5c0 .8-.3 1.9-1.5 1.9-1.3 0-1.5-1.2-1.5-2.4s.2-7.8-3.3-7.8-4.7 3.7-4.8 9l-.6 28.6z"/><path fill="#ff5f00" d="M56 107.7s-3 2.6-1.4 8c1.2 3.7 3.8 7.1 10 7.4s10.3-3.2 11.7-8c1-3.5-.1-6.7-.8-7.3s-2.4 5.5-3.5 7.4-2.9 4.9-7 4.7-6-3.8-6.5-5.3c-1.2-3.3-1.7-6.9-2.5-6.9"/><path fill="#ff5f00" d="M58.8 106.4s2.4-1 6.3-1c4-.2 6.9.9 6.9.9s-1.6 10.5-6.6 10.5-6.6-10.4-6.6-10.4m-2-5 .1 1.6v1.2s3.8-1 8.5-1 8.3 1.5 8.3 1.5l-.2-1.4V102s-3.3-1.7-8.2-1.6-8.4 1-8.4 1m-1.7-8.8s3.8-1.5 10-1.6 9.6 1.4 9.6 1.4l-1 7.6s-3.3-1.6-8.8-1.6-8.5 1.3-8.5 1.3z"/><path fill="#fe9004" d="M58.4 93.3Q58.7 95 61 95q3-.2 3.2-2c.1-1-1-2.1-3-2-1.5.1-3 1-2.8 2.2m-3.6-2.5s5.7-1.6 10-1.6S75 90.6 75 90.6l.9-5.3c.4-2.6.7-6.1.7-6.1s-5.5 6.6-12 6.3-12.3-6-12.3-6a116 116 0 0 0 2.4 11.2"/><path fill="#ff5e00" d="M53.5 68.2c.2 3.5 1 9.4 3.3 8.5s.2-5.6.3-8.7 1.8-6.4.4-7.2c-1.3-.9-4.3 1.2-4 7.4"/><path fill="#fe9004" d="M57.5 60c1.3.6 1.2 2 .7 3.1q-.6 1.6-2.5 1.4c-1.3-.2-1.8-2.3-1-3.5 1-1.3 1.9-1.3 2.8-1"/><ellipse cx="69.1" cy="54.1" fill="#2e2f2d" rx="2.4" ry="2.5" transform="rotate(-24.3 69.113 54.145)"/><ellipse cx="59.9" cy="53.7" fill="#2e2f2d" rx="2.6" ry="2.3" transform="rotate(-64.526 59.844 53.7)"/><path fill="#ff5e00" d="M89.6 45.7c.3 2.4 1.2 5.3 3.1 5s1.5-4.3 1.5-5.7-.8-5.5-2.5-5.4c-2.2.2-2.6 3-2.2 6"/><path fill="#a42615" d="M92.4 36c1.5-.3 4-.6 3.9-2.3s-2.9-1.1-4.2-1-3.4.7-3.3 2.2 2.7 1.3 3.6 1m-59.1 3.9c1 0 3.8.4 3.7-1.6s-3.7-1.5-4.3-1.5-2.8.3-2.8 1.7 2 1.4 3.4 1.4"/></svg>