<svg viewBox="0 0 128 128"><radialGradient id="a" cx="75.4" cy="-61.6" r="184" gradientUnits="userSpaceOnUse"><stop offset=".5" stop-color="#f33a1f"/><stop offset=".6" stop-color="#f86922"/><stop offset=".7" stop-color="#fd9124"/><stop offset=".7" stop-color="#ffa025"/><stop offset=".8" stop-color="#fca025"/><stop offset=".8" stop-color="#f1a124"/><stop offset=".9" stop-color="#dfa222"/><stop offset=".9" stop-color="#c7a41f"/><stop offset="1" stop-color="#aaa61c"/></radialGradient><path fill="url(#a)" d="M4 89.4c-1.2 6 5.7 29.2 41.5 33.8 18.4 2.3 36.4-4.2 50.7-15.1s23.1-25.1 26.1-38c4.6-19.8-.7-49.8-40-51.6C42 16.7 28.5 58.8 20 71.2 10 86 5.1 84 4 89.4"/><path fill="#dc0d27" d="M41.9 36.3s13.6 7 34.6 5.5c17-1.2 23.7-9.6 23.7-9.6s7.5 2 12.5.8c2-.6 2.4-1.6 0-4.2C109 25 96.4 18 77.8 19.1a53 53 0 0 0-36 17.2"/><path fill="#ffebc9" d="M26 76.6c2.4 4 9.4-1.1 14.3-6 7.1-7.2 10.3-13.7 12.2-17S57 43.2 51.8 42s-7 5.5-9.7 10.4-6.6 10.7-9.7 14.5c-3.2 4-7.8 7.4-6.4 9.7"/><path fill="#6d4c41" d="M102.4 25c-.7 3 2 5 3.9 6.5s6.2 2 7.6 1-.2-4 .8-5.8 2.9-4 .7-5.5q-3-2-6.7-1.3c-3.7.7-2.2 2.2-3.2 2.7s-3 1.4-3.1 2.4"/><path fill="#518e30" d="M100.1 25.9c-2.5 1-9.9 7-27.2 8.3-19.1 1.4-41.6-.8-45.3-1.4s-10.1-.7-10-2.3c.1-2.5 2.6-1.7 7.6-3.1 6-1.8 12.1-4.2 16.8-7 7.2-4.3 21.8-15 36.2-15.3C94 4.8 99 9.7 103 13.9s4 8.5 2.9 10.2c-1 1.7-2.6.4-5.7 1.8"/><path fill="#366918" d="M50.5 25c.3.4 7.3.6 11.2.5 8.9-.3 16-2.6 24.7-3.6s16.3 0 16.6-.4c.6-.6-4.8-7.9-22.4-6a94 94 0 0 0-20.5 6.4c-3.7 1.5-10 2.6-9.6 3"/></svg>