<svg viewBox="0 0 128 128"><path fill="#ddbca8" d="M33.2 39.7s-5.9-8.6-9.8-10c-4-1.6-8.2-.6-10-3s-2.8-6.5-2.2-9.2 2.1-4.6 3.4-5 4.8 1.6 4.8 1.6-.1-4.5.3-6S22 4.6 23 4c3-2 4.7-.4 4.7-.4S26.5 14 30.3 18.5s19 20.4 16 20.5z"/><path fill="#ffebca" d="M33.4 33S27 26.7 25 25.7s-6.3-.6-7.8-1.4c-2-1-4.2-3.2-4.4-6.9s.8-5.4 4.5-5.6c2.9-.1 4.7 1 5.5.2s0-6.2.5-7c.5-1 1.7-2.6 5-2.1s4.7 3.6 4.9 4.4c.7 3.2.2 9.2 1 10.6 1.3 2.3 10 11.9 10 11.9l-10.7 3"/><path fill="#cf701e" d="M33.2 30.7a40 40 0 0 0-18.3 33.9c.4 8.8 3.5 13.5 8.6 17.7s8.3 5.4 10.4 8.3 5.1 14.7 11.7 21 27.7 18.7 52.3-3.3c25.3-22.7 17.5-45.5 8.1-54-9-8.1-16.8-8.7-20.8-13.6-4.7-5.6-2.9-7.8-10.4-14-8.8-7.2-24.3-8.2-41.6 4"/><path fill="#fbd5b2" d="M61.2 63.5c-14.8 12-25 36.5-7.2 48 13.3 8.6 32.3 2.1 43.2-8 8.4-7.8 19.1-28.6 9-40.9-9-11-29.2-11.8-45 1"/><path fill="#ab5931" d="M58.8 32.6Q57 31 55 33.2c-2 2.2-1.4 3.3-.4 4.1 1.5 1.2 3.1-.3 4-1.4s1.2-2.2 0-3.3M31.5 44.4c-1.8-.3-2.4 1.5-2.5 3s-.3 3.3 1.7 3.4 2.5-1.9 2.5-3.3.2-2.8-1.7-3M32 62q-2.6 0-2.3 3.7c.3 3.7.8 3.6 2 3.5 1.3 0 2-1.5 2-3.3.2-2.2 0-3.9-1.7-4m6.4 7.3c-1-.8-2.6-.2-3.2 2-.6 2.4.3 3.2 1 3.5 1.3.5 2.2-.8 2.7-2.2s.6-2.6-.5-3.3"/><path fill="#ff605e" d="M81 60.5c-1.2-.8-10 1-18.3 9S51.5 84.1 52.4 86.4s6.5 2.1 8.8 2.1h10c3.7-.2 3.7 3.4-.1 4-3.1.4-11.6.7-15 2-3 1-5.7 1.9-5.9 4.3s3.5 8.2 9.7 10.4 13.6 1.6 15 .5 2.2-8.4 2.4-11.8 0-8.2 2.7-8.2 1.8 6 2 8.5-.2 6.9 1.2 8 6.7-1.7 11.3-6.4c4.3-4.2 7.7-8.8 6.5-10.3s-11.5-1.8-14-1.7-2.9-4.1.6-4.2 12 .6 14.7-.9 6-8 1.5-15.5-9.9-7.6-12.1-7.4-3.3 6.2-4.2 9.1c-.8 2.9-1.6 8.3-2 9.5s-3 2.3-3.1-.4.2-7.4.3-10.1.3-6-1.7-7.4"/><path fill="#dfbbaa" d="M86.9 91.5s-8-6.9-8.7-6-1.8 2.2-2 4.5c-.3 2.3.5 3 .5 3s7.5 9.9 9.2 11.8 4 5.3 4.2 7-.6 7 0 8.8q1.5 3.3 5.7 4.1c1.4.3 6.4 0 7.8-1.4s2-3.8 2-5-.7-2.2.7-2.8 5.3-.2 7.2-1.2 3.3-3.3 3.2-5.8c-.1-2.6-3.8-4.4-4-4.4z"/><path fill="#ffebca" d="M88 81.9q-.7-.6-1.1-.5c-1.5-.1-3.4 0-5.6 1.4-2.3 1.4-3.9 3.7-3.9 3.7s12.7 15.6 13.8 17.2c1.2 1.7 3.2 4.4 3.2 5.7s-.7 6.8-.3 8c.7 2 3.4 4.5 6 4.5 3.4 0 4.8-2 5.3-3.3s.5-5.4 1.3-7.4c1-2.6 9.4-.4 10-2s1.2-6.2-2.4-8.3c-2.7-1.5-9.4-.7-9.4-.7s-15.7-17.5-17-18.4"/></svg>