<svg viewBox="0 0 128 128"><radialGradient id="a" cx="61.8" cy="1.2" r="110.3" gradientUnits="userSpaceOnUse"><stop offset=".2" stop-color="#f2a05b"/><stop offset=".2" stop-color="#f5ad68"/><stop offset=".3" stop-color="#fecc88"/><stop offset=".6" stop-color="#fecc88"/><stop offset=".7" stop-color="#fecc88"/><stop offset=".7" stop-color="#fcc581"/><stop offset=".8" stop-color="#f7b16d"/><stop offset=".8" stop-color="#f3a05c"/><stop offset=".8" stop-color="#e6915b"/><stop offset=".9" stop-color="#d77f59"/><stop offset=".9" stop-color="#d17858"/></radialGradient><path fill="url(#a)" d="M62.2 6.8s-7.1-5-7.7-2.5.4 7.3-1.6 10.5-5 4.7-7.2 5.4-26.6 10-34 34.4 4 45.2 21.2 55.2c14 8.1 23.4 6.9 23.4 6.9s-2 1.7-2.7 1.9-3.2.3-4.5.5-5.5 1.6-5.1 2.8 4.1-.5 5.7-.8 4.3-.5 4.9-.7 3.3-2.2 3.3-2.2-1 2.8-2 3.9.8 2.4 2.9 1.8 3.6-5.4 3.6-5.4v3.8c0 .8-.2 2.5.2 2.9.3.3 3.1.8 4 .3s.7-2.3.7-2.3l4 2.4c1.6.8 3.3 1.7 3.8 1s.1-2.3-.4-2.7-2.6-1.3-3-1.8l-1-2.3s2-1.5 3-1.3 3.4 2.8 4.7 3.4 4 2.3 4.9 2q1.6-.5 1.2-1.6c-.4-1-3.5-2-4.2-2.7l-3.7-3s14.7-2.5 24.4-11.8c11.3-10.6 22.6-33.7 11.7-56.1-10.4-21.4-30.7-28-37.6-30.4-3.5-1.3-4.2-3.1-4.6-5.7-.5-2.5-.7-9.7-2.7-10.1s-5.6 4.3-5.6 4.3"/><path fill="#d17759" d="M59 11.5c1.5.1.8-2.5 3-2.9 2-.3 2 2.5 3.3 2s.8-4 1-6c.2-1.8 1.5-2.1 1.5-2.1s-1-1-3-.5-2.6 3.1-2.6 3.1-2-3.3-4.5-3-3 1.9-3 1.9 1.8 0 2.4 1.5-.1 5.8 1.9 6"/><radialGradient id="b" cx="61.1" cy="10.4" r="96.5" gradientUnits="userSpaceOnUse"><stop offset=".5" stop-color="#f2a05b"/><stop offset=".6" stop-color="#ee9b5b"/><stop offset=".8" stop-color="#e38d5a"/><stop offset=".9" stop-color="#d17759"/></radialGradient><path fill="url(#b)" d="M66 32.8c.5 3.5 5.2 21.2 5.5 33.4a141 141 0 0 1-3 32.6c-1.6 7.8-3.4 14-3.4 14l4.4-5.6s3.6-12.7 4.8-24.8c1-10.5.1-23.5-2.6-36-2.6-12.5-4.7-21.5-5.2-25.8l-.8-7.9s3 6.3 5 9.3c1.9 2.7 6.4 8.6 10.9 17.6 5 10.1 8.5 23.9 8 35.1s-2.6 19.7-4.9 24c-2.2 4.4-8.4 10.6-8.4 10.6l-3 2.5S81 109.6 84 105s9-13.6 8.7-31.9-5.3-28.6-8.8-36c-2.9-5.7-12-17.8-12-17.8s14.3 10.3 17.8 13.4A46 46 0 0 1 106 67.4c.8 13-2.8 21.5-6.8 27.1S88 108.3 88 108.3L99.5 99s10.8-11 9.8-31.7-10.8-30.3-16.9-36a134 134 0 0 0-18.6-13c-3.3-2-4-3.9-4.5-5.4s-1.2-1.5-1.2-1.5l-11.2 1-1-.5S50.4 20.2 45 24.1c-4.1 3-14.1 9.6-20.8 19.7a47 47 0 0 0-6.6 31.7c1 11.3 6.2 23.7 16.2 29.9s22.4 7.9 22.4 7.9l-11.7-4.5a36 36 0 0 1-15-10.3A46.7 46.7 0 0 1 34.3 36c7.4-6.8 11.2-9.3 13-10.8 4.2-3.5 8-9.1 8-9.1s1.7-1.7.2 1.4a82 82 0 0 1-6.4 9.9c-3 4.4-7.3 8.1-12.7 22.5-5.7 14.8-4 28-2.2 34.9a47 47 0 0 0 7.7 17c4.2 5.4 13.8 10.9 13.8 10.9s-8-7-11.3-11.6a57 57 0 0 1-5.6-49.6c3.4-10.2 6-13.6 9.4-18.6s5.6-8 8.4-12.5c1.7-2.7 3.2-7.1 3.2-7.1l.7-.2s-.7 5.8-1.4 8.7-1.5 7.6-3.3 12.6-8.3 18.4-7.7 33.8c.6 18.6 5.3 30 7.1 34.4l4.7 12 1.6-5.5s-7.1-14.7-9.1-27a77 77 0 0 1-.6-26.9c.9-5.3 6.1-18 7.1-21.6s2.3-9.5 2.6-11.2l1.4-6.2z"/><path fill="#feeac4" d="M35.8 38.9c-2.4-.6-4.5 1.8-6.9 5.9-2.2 3.9-3.3 8.2-.2 9s6-5.3 7-7.8c.7-2.5 1.9-6.7 0-7.1m6.7 7.3c-2.3 6.2-2.7 11-.5 11.8s5.8-6.3 6.8-9.6 2.8-9.7.4-10.5c-2.3-.7-5 4-6.6 8.3m13.7 6.3q-1.4 6 1.4 6.6c2.8.6 2.6-4 2.9-6s1.2-6.1-1-6.6-2.7 2.7-3.3 6"/></svg>