<svg xmlns="http://www.w3.org/2000/svg" width="1em" height="1em" viewBox="0 0 128 128"><radialGradient id="a" cx="61.836" cy="1.175" r="110.269" gradientUnits="userSpaceOnUse"><stop offset=".187" stop-color="#f2a05b"/><stop offset=".225" stop-color="#f5ad68"/><stop offset=".291" stop-color="#fecc88"/><stop offset=".639" stop-color="#fecc88"/><stop offset=".658" stop-color="#fecc88"/><stop offset=".703" stop-color="#fcc581"/><stop offset=".769" stop-color="#f7b16d"/><stop offset=".814" stop-color="#f3a05c"/><stop offset=".849" stop-color="#e6915b"/><stop offset=".905" stop-color="#d77f59"/><stop offset=".946" stop-color="#d17858"/></radialGradient><path fill="url(#a)" d="M62.16 6.84s-7.09-5.02-7.65-2.58.42 7.32-1.64 10.51-4.88 4.69-7.13 5.44-26.65 9.95-33.97 34.35 3.94 45.22 21.12 55.19c14.08 8.17 23.37 6.95 23.37 6.95s-1.88 1.69-2.63 1.88-3.28.28-4.5.47-5.54 1.69-5.16 2.82 4.13-.47 5.73-.75 4.32-.47 4.88-.75 3.28-2.16 3.28-2.16-1.03 2.82-1.97 3.85.84 2.44 2.91 1.88 3.57-5.44 3.57-5.44.09 2.91.09 3.85-.28 2.44.09 2.82c.38.38 3.19.84 4.04.38s.66-2.35.66-2.35 2.53 1.6 4.13 2.44 3.19 1.69 3.75.94.09-2.25-.47-2.63-2.53-1.31-2.91-1.88c-.38-.56-1.13-2.25-1.13-2.25s2.16-1.5 3.1-1.31 3.38 2.82 4.69 3.38 3.94 2.35 4.88 2.06c.94-.28 1.6-1.13 1.22-1.6s-3.47-1.97-4.22-2.72-3.66-3.1-3.66-3.1 14.63-2.44 24.4-11.68c11.22-10.61 22.6-33.75 11.68-56.17-10.42-21.4-30.69-28.02-37.59-30.41-3.57-1.24-4.22-3.1-4.65-5.63-.42-2.53-.7-9.71-2.67-10.14s-5.64 4.34-5.64 4.34"/><path fill="#d17759" d="M58.97 11.48c1.5.14.79-2.53 3.05-2.86 1.92-.28 2.06 2.49 3.28 2.02s.79-4.03.99-5.96c.19-1.88 1.5-2.21 1.5-2.21s-.93-1.03-2.9-.47-2.72 3.1-2.72 3.1-1.88-3.28-4.5-3c-2.43.26-3 1.88-3 1.88s1.88.09 2.44 1.5-.15 5.81 1.86 6"/><radialGradient id="b" cx="61.131" cy="10.45" r="96.493" gradientUnits="userSpaceOnUse"><stop offset=".486" stop-color="#f2a05b"/><stop offset=".616" stop-color="#ee9b5b"/><stop offset=".768" stop-color="#e38d5a"/><stop offset=".922" stop-color="#d17759"/></radialGradient><path fill="url(#b)" d="M65.92 32.79c.56 3.52 5.31 21.17 5.54 33.41.28 15.3-1.5 25.64-2.96 32.57-1.64 7.79-3.38 13.94-3.38 13.94l4.36-5.49s3.66-12.76 4.79-24.78c.99-10.57.14-23.51-2.53-36.04-2.68-12.53-4.74-21.5-5.21-25.77-.34-3.09-.84-7.93-.84-7.93s2.96 6.28 5.02 9.29c1.85 2.7 6.38 8.63 10.89 17.64 5.04 10.07 8.54 23.84 7.98 35.1s-2.63 19.66-4.88 24.03c-2.25 4.36-8.45 10.56-8.45 10.56l-2.96 2.53s7.74-2.39 10.7-6.9 8.96-13.61 8.68-31.91-5.26-28.63-8.82-35.95c-2.84-5.83-11.9-17.88-11.9-17.88S86.19 29.46 89.66 32.6c8.73 7.88 15.39 17.36 16.42 34.77.77 12.99-2.82 21.54-6.76 27.17s-11.45 13.8-11.45 13.8l11.64-9.48s10.79-10.93 9.81-31.63-10.84-30.31-16.89-35.9c-5.17-4.77-14.75-10.8-18.63-13.09-3.31-1.95-4.04-3.8-4.46-5.35s-1.27-1.5-1.27-1.5L56.9 12.42l-1.08-.48s-5.3 8.28-10.75 12.17C41 27.02 31 33.73 24.34 43.77c-6.75 10.18-7.56 20.93-6.66 31.72.94 11.26 6.19 23.7 16.19 29.89s22.38 7.88 22.38 7.88-7.73-2.84-11.64-4.46c-4.32-1.78-9.76-4.22-14.97-10.32-4.42-5.17-11.66-18.16-9.43-35.19 1.6-12.2 7.03-20.81 14.08-27.31 7.37-6.8 11.16-9.26 13-10.79 4.22-3.52 7.98-9.13 7.98-9.13s1.72-1.62.28 1.48c-1.23 2.65-5.58 8.67-6.41 9.85-3.03 4.36-7.34 8.12-12.79 22.48-5.63 14.85-3.99 28.02-2.16 34.91 1.83 6.9 4.22 12.67 7.7 17.08 4.19 5.32 13.8 10.79 13.8 10.79s-8-6.91-11.26-11.54c-4.04-5.73-6.13-11.96-7.88-19.43-1.5-6.38-2.07-16.97 2.25-30.13 3.38-10.28 5.98-13.68 9.36-18.61s5.65-7.95 8.47-12.55c1.65-2.7 3.21-7.09 3.21-7.09l.63-.19s-.7 5.77-1.41 8.73-1.45 7.6-3.28 12.53-8.24 18.39-7.7 33.83c.66 18.63 5.3 30.03 7.13 34.4s4.69 12.06 4.69 12.06l1.6-5.58s-7.13-14.69-9.1-26.94c-1.78-11.07-1.92-18.54-.56-26.94.86-5.29 6.1-17.97 7.09-21.63s2.25-9.48 2.53-11.17l1.48-6.22z"/><path fill="#feeac4" d="M35.79 38.89c-2.35-.56-4.5 1.78-6.85 5.91-2.2 3.87-3.3 8.19-.28 9.01 3.1.84 6.1-5.26 6.95-7.79.84-2.53 1.95-6.71.18-7.13m6.66 7.32c-2.35 6.23-2.72 11.07-.56 11.83 2.16.75 5.82-6.38 6.85-9.67 1.03-3.28 2.72-9.67.38-10.42-2.35-.75-5.07 4.03-6.67 8.26m13.71 6.29c-.82 4.09-.47 6.19 1.41 6.57s2.63-4.04 2.91-6.01 1.22-6.1-.94-6.57-2.73 2.72-3.38 6.01"/></svg>