<svg viewBox="0 0 128 128"><path fill="#d17020" d="M87.7 110.5s-28.8 4-29.5 5c-.6.8-1.2 1.5 1.9 4.1 2.8 2.5 14 10.1 37.7 3 13.6-4.2 20.2-17.2 18-20.9s-5.7-2.4-5.7-2.4z"/><path fill="#ac5811" d="M64.5 112.5s-7.2 0-6.5 3.2c.3 1.1 8 3.3 13 3.6 5.3.3 14 .4 25.7-4.2 9.7-3.9 13.8-7.2 16.7-11.7 1.3-2.2 0-5 0-5z"/><path fill="#fce9c5" d="M8.8 69.5s-1.6 1.2-3 5.9c-1 3.4-3 8.7-.3 14.6 1.9 4 11.8 24.7 55.5 26.5 46.1 1.8 58.5-22.5 60-28.2 2.3-8.7-1-13.2-2.5-14.2-1.4-1-109.7-4.6-109.7-4.6"/><path fill="#ffa828" d="M14.7 66.6c-.3.4-7.4 4.8-7.4 4.8s-3.7 8 2.9 16.7 20.7 19 51 20.9c30.4 2 53.8-10.9 57.6-23.4s-3.8-15-3.8-15z"/><path fill="#ab580f" d="M78 93.5c-.2 1.4 1.2 5.2 5.6 8.3 3.3 2.4 6.2 3.2 6.6 3.5 0 1 .2 7-.5 8.6-.8 1.7-6.1 2.4-6.1 2.4h8.1s5.2 1.9 5.2-3.1 1-10.3 1.8-11.9c.4-.8 3.8-2.7 6-5.7 2-2.5 2.6-5.2 2.8-6.3s1-3.6-.8-4.7c-2-1.3-28.8 8.9-28.8 8.9"/><path fill="#fce9c5" d="M8.6 48.2s-4.8 4.9-4.3 14.3 11.1 32.7 57.5 34.3c45.7 1.5 59.8-23.1 61.5-30.3 1.5-6.7-.4-11.8-3.4-15.9s-71.6-7.3-71.6-7.3z"/><path fill="#ffa828" d="M12.3 45.6S5.8 48 6.3 56c.5 9.7 15.6 32.6 57.3 32.4 37.2-.1 57.6-20.3 57.8-31 .3-10.5-8-11-8-11z"/><path fill="#af5713" d="m92.4 66-27.6 4s2 5.1 9.5 8.7c8.2 4 15.2 3.1 15.6 5.7.4 2.7.8 10.5.8 10.5l3.1-.6 8-19.7 4-5s2.6-7.2-.3-9.8S92.4 66 92.4 66"/><path fill="#fce9c5" d="M26.4 18.5 15.7 20s-8.7 4.7-9 17.3c-.4 14.2 12.7 33.8 55.6 34 44 .3 59-17 60-29 1-14.3-7-20.1-7-20.1z"/><path fill="#ffa828" d="M10.5 31.5c.1 15.3 16.4 30.4 53.4 31.7 36.1 1.2 56-16.3 55.8-31-.1-13.7-22-27-56.4-27-35.1-.2-53 13-52.8 26.3"/><path fill="#d0701c" d="M85.4 75.8c0 3 7.4 4.4 7.8 6.8.5 2.4.7 12 .7 12s-2 .8-4.2 1.3c-2.5.5-5.3.7-4.9 2.2 1 3.5 8.5 5.2 8.5 5.2s.3 5.4.2 7.7c-.3 5.2-1.8 6.1-1.8 6.1l3.7 3 4.5-5.7-.2-6.7-.3-5.2s3.7-2.7 6.2-7.4c1.8-3.6 1.8-6.1-.5-5l-6 3s-.5-8.9.3-11.2 7.2-11.2 6.3-12.8S98.9 71 95.4 72c-3.4 1-10.1 1.7-10 4"/><path fill="#ab580f" d="M46.8 5.2s-8.7 1-9.5 6.5c-.8 5.7.3 6.5-3.4 8.6s-13.8 7.5-14.3 9.5-1.7 7.7 11.1 9.1c9 1 11.6 0 17 3.7S54 53.4 62.5 56.4c5.6 2 9.6.3 14.3 2.6s9.2 6.7 14.4 5.7c4.4-.9 7.3-14.1 7.3-14.4l.4-15.2s-2-2.7-.6-5.3c1-1.9 7.8-6.5 8.8-9.3 1-2.6.5-5.4-.7-6.4s-15 1.6-15.3 1.3-16.5-3.9-18.8-4.6-25.6-5.6-25.6-5.6"/><path fill="#cf701e" d="M95.6 28.5c-.6 5.8 6.8 6 7 13.6.3 5.3-3.4 8.5-5 12-1.4 3.7-3.5 6.9-6.9 7.6s-9.4-4.1-14.5-6c-5.2-2-8 1.1-15.8-3.3C56 50 51 39.4 44.7 37.7c-2.8-.9-9-.7-14-1.4-6.2-.8-11.2-2.6-11.3-5.4-.3-7.5 17.5-10.7 19.2-13.4s-2.2-11 8.6-12.7C61.6 2.3 68.4 8.4 77.4 10s24.2 0 28 3c7 5.5-9.2 9.9-9.8 15.5"/><path fill="#ac5813" d="M53.8 30.2c.3.8 1.3 7 4.4 8.1s9.9-.8 15.7-2c7.3-1.6 15.5-3 15.3-5-.4-3.2-4.2-6.6-7.4-11.2-2-2.8-3.8-7-6.8-6.5S53.8 30.1 53.8 30.1"/><path fill="#fdfffc" d="M27.3 26.4c-1.8.5-2.8 4.2 1.1 6 5 2.3 11 2 11.3-.5s-5.4-2-7.4-3.3c-2-1.4-2.6-2.8-5-2.2m15.5 6.2c-1.3 1.2.1 2.5 1.7 3.1s3 .7 3.7-.3-.7-2.5-2.1-2.9-2.5-.6-3.3.1"/><path fill="#fade62" d="M48.9 16.2s.4-1.5 2.8-1.8 8.1-.4 10.7-1 6.8-2.8 9-2.3 4.6 5.4 5.2 6.3c2.4 3.8 4.3 6.5 4.6 8 .2 1.4-12 6.4-12.5 6.4s-9 5.8-11.3 1.2L49 16.2"/><path fill="#f5ad02" d="M67.6 27.7c-2.8.6-10 2.6-10 2.6l-1.2 3s.5 2.4 2.1 2.5 7-1.4 11.1-2.5c3.8-1 11.3-2.7 11.6-3.4s.7-5-.3-5.1c-.5-.1-3.8.7-5.6 1.2-2.5.6-4.8 1.2-7.7 1.7"/><path fill="#fdfffc" d="M47.9 20c.2.8 2 4.9 3.6 7.3s5.2 8.5 6.3 8.6.9-1.6 1-2.7q0-1.8-.2-3.2c-.3-.8-2.6-4.4-3.8-6.4s-4.8-8.2-5.6-8c-.8.3-1.7 3.3-1.3 4.5m10.3 23c-1.7.8.4 5.7 5 7.9s9.6 1.8 10.4-.8c.7-2.3-5.5-2.4-8.1-3.6-4.1-2-5-4.7-7.3-3.5"/><path fill="#fce9c5" d="M34.5 78.8c-.3 1 .4 2 3.1 2.6s3.9.3 4.2-.6-.6-2-3-2.6c-2.8-.7-4.1-.1-4.3.6m18.3 3.7c-.4 1.3 1.5 3.1 7.2 3.3q9 .5 9.2-2.6c0-1.4-4.5-.8-9-1-4.6-.3-7-.9-7.4.3m-34.8 8q-1 1 .8 2.4c1.4 1.1 3.2 1.5 4 .7s-1-2-2-2.7-2-1.3-2.9-.4"/></svg>