<svg xmlns="http://www.w3.org/2000/svg" width="1em" height="1em" viewBox="0 0 128 128"><path fill="#D17020" d="M87.7 110.45s-28.85 4.11-29.55 5.05c-.6.79-1.12 1.46 1.92 4.12c2.84 2.48 14.05 10.1 37.68 2.95c13.66-4.13 20.21-17.15 18.02-20.86s-5.68-2.4-5.68-2.4z"/><path fill="#AC5811" d="M64.54 112.52s-7.28-.02-6.51 3.14c.28 1.17 7.92 3.32 13.05 3.64c5.24.33 14.01.39 25.59-4.2c9.74-3.86 13.83-7.17 16.69-11.7c1.38-2.19.11-4.93.11-4.93z"/><path fill="#FCE9C5" d="M8.75 69.52s-1.54 1.21-2.97 5.84c-1.07 3.45-2.97 8.7-.31 14.6c1.89 4.19 11.79 24.78 55.55 26.53c46.09 1.84 58.52-22.47 60.01-28.23c2.23-8.67-1.05-13.13-2.49-14.18c-1.46-1.06-109.79-4.56-109.79-4.56"/><path fill="#FFA828" d="M14.66 66.58c-.26.39-7.35 4.86-7.35 4.86s-3.68 8.01 2.89 16.68S30.94 107.03 61.28 109c30.33 1.97 53.71-10.9 57.52-23.37c3.81-12.47-3.84-14.94-3.84-14.94z"/><path fill="#AB580F" d="M77.95 93.5c-.13 1.44 1.21 5.21 5.6 8.32c3.31 2.35 6.23 3.2 6.61 3.49c.05 1.08.29 6.9-.49 8.61c-.79 1.71-6.07 2.42-6.07 2.42h8.14s5.12 1.84 5.12-3.15s1.07-10.31 1.86-11.88c.43-.85 3.79-2.68 6.03-5.66c1.9-2.54 2.52-5.23 2.75-6.36s.95-3.59-.79-4.73c-1.95-1.26-28.76 8.94-28.76 8.94"/><path fill="#FCE9C5" d="M8.62 48.2s-4.86 4.86-4.33 14.31s11.16 32.7 57.52 34.27c45.69 1.55 59.81-23.1 61.45-30.33c1.5-6.61-.38-11.75-3.4-15.82s-71.58-7.29-71.58-7.29z"/><path fill="#FFA828" d="M12.3 45.57s-6.48 2.45-6.04 10.51c.53 9.72 15.63 32.57 57.38 32.43c37.16-.12 57.52-20.35 57.78-30.99c.26-10.51-8.01-11.03-8.01-11.03z"/><path fill="#AF5713" d="M92.4 66.06L64.82 70s2.01 5.12 9.45 8.67c8.27 3.94 15.23 3.15 15.63 5.78c.39 2.63.78 10.45.78 10.45l3.16-.6l7.98-19.73l4.03-5.04s2.56-7.14-.33-9.76c-2.88-2.64-13.12 6.29-13.12 6.29"/><path fill="#FCE9C5" d="M26.35 18.52c-.39 0-10.64 1.44-10.64 1.44S7 24.66 6.65 37.3c-.4 14.18 12.74 33.75 55.68 34.01c43.99.27 58.94-17.04 59.88-29.02c1.12-14.27-6.96-20.1-6.96-20.1z"/><path fill="#FFA828" d="M10.46 31.52c.15 15.23 16.41 30.33 53.44 31.65c36.14 1.28 55.94-16.28 55.81-30.99c-.12-13.66-21.92-26.92-56.46-27.05c-35.07-.13-52.92 13-52.79 26.39"/><path fill="#D0701C" d="M85.37 75.82c.1 3.05 7.4 4.36 7.84 6.75c.44 2.4.66 12.04.66 12.04s-1.99.83-4.2 1.29c-2.5.52-5.23.75-4.82 2.18c1.01 3.47 8.42 5.25 8.42 5.25s.35 5.37.22 7.62c-.3 5.27-1.75 6.17-1.75 6.17l3.64 2.97l4.57-5.65s-.22-5.08-.29-6.75c-.07-1.67-.22-5.15-.22-5.15s3.66-2.71 6.13-7.47c1.84-3.55 1.86-6.1-.46-5.01c-2.32 1.09-5.98 3.11-5.98 3.11s-.48-8.92.31-11.24c.8-2.32 7.19-11.25 6.24-12.78s-6.75 1.81-10.24 2.76c-3.47.93-10.15 1.73-10.07 3.91"/><path fill="#AB580F" d="M46.8 5.2s-8.71.91-9.52 6.53c-.82 5.62.27 6.44-3.36 8.53s-13.82 7.51-14.37 9.5s-1.69 7.72 11.19 9.18c8.91 1.01 11.6-.11 16.87 3.7s6.41 10.76 14.95 13.72c5.66 1.96 9.63.36 14.35 2.63c4.72 2.27 9.17 6.67 14.38 5.66c4.4-.85 7.28-14.06 7.28-14.34s.45-15.23.45-15.23s-1.96-2.63-.61-5.3c.92-1.83 7.8-6.5 8.8-9.25c.94-2.58.53-5.39-.74-6.39s-14.95 1.59-15.22 1.22s-16.51-3.81-18.87-4.54C70.02 10.1 46.8 5.2 46.8 5.2"/><path fill="#CF701E" d="M95.6 28.51c-.65 5.77 6.81 5.99 7.08 13.61c.18 5.26-3.45 8.44-4.99 12.06c-1.54 3.63-3.63 6.8-6.98 7.53c-3.36.73-9.36-4.11-14.53-6.02c-5.17-1.9-8.01 1.12-15.74-3.25c-4.56-2.57-9.55-12.96-15.72-14.77c-2.81-.83-8.94-.67-14.07-1.36c-6.13-.83-11.13-2.62-11.24-5.44c-.27-7.44 17.51-10.7 19.23-13.33c1.72-2.63-2.29-10.95 8.53-12.79c14.42-2.45 21.23 3.63 30.2 5.26s24.27.05 28.12 3.08c6.89 5.44-9.25 9.8-9.89 15.42"/><path fill="#AC5813" d="M53.83 30.15c.23.9 1.31 7.13 4.4 8.19c3.09 1.05 9.86-.79 15.66-2.03c7.27-1.56 15.53-2.97 15.27-5.03c-.39-3.19-4.15-6.55-7.34-11.14c-1.94-2.8-3.8-7.09-6.81-6.49s-21.18 16.5-21.18 16.5"/><path fill="#FDFFFC" d="M27.28 26.44c-1.77.44-2.75 4.13 1.13 5.95c4.97 2.33 10.92 2.03 11.3-.53c.38-2.56-5.42-1.96-7.38-3.31c-1.96-1.36-2.64-2.71-5.05-2.11m15.52 6.17c-1.26 1.17.1 2.49 1.74 3.12s2.94.68 3.68-.3c.74-.97-.69-2.49-2.14-2.92c-1.45-.43-2.52-.61-3.28.1"/><path fill="#FADE62" d="M48.85 16.18s.48-1.44 2.82-1.81c2.34-.37 8.15-.37 10.7-.96c2.56-.59 6.87-2.77 9.1-2.29c2.24.48 4.52 5.35 5.09 6.26c2.41 3.81 4.33 6.51 4.59 7.95c.27 1.44-11.87 6.5-12.45 6.5s-9 5.8-11.29 1.12s-8.46-16.93-8.56-16.77"/><path fill="#F5AD02" d="M67.64 27.73c-2.82.59-10.06 2.56-10.06 2.56l-1.17 3.03s.48 2.4 2.13 2.5c1.65.11 7-1.42 11.09-2.48c3.73-.97 11.28-2.74 11.6-3.43s.67-4.97-.28-5.14c-.58-.1-3.82.77-5.63 1.2c-2.55.6-4.86 1.18-7.68 1.76"/><path fill="#FDFFFC" d="M47.85 20.07c.22.68 2.13 4.79 3.67 7.24s5.22 8.44 6.28 8.55c.97.1.87-1.56.95-2.63c.09-1.23.06-2.35-.2-3.2c-.27-.85-2.56-4.47-3.78-6.39s-4.79-8.25-5.59-7.99c-.8.27-1.7 3.25-1.33 4.42m10.36 23.02c-1.7.85.37 5.75 5 7.88s9.55 1.81 10.38-.75c.75-2.29-5.52-2.37-8.09-3.62c-4.15-2.02-5-4.66-7.29-3.51"/><path fill="#FCE9C5" d="M34.47 78.83c-.27 1.01.45 1.94 3.18 2.54c2.74.6 3.83.35 4.13-.6c.3-.95-.6-1.89-3.04-2.54c-2.71-.72-4.07-.15-4.27.6m18.36 3.68c-.4 1.29 1.44 3.13 7.12 3.33c5.93.21 9.26-.55 9.3-2.64c.03-1.4-4.53-.85-9.11-1.09c-4.57-.25-6.94-.79-7.31.4m-34.88 7.96c-.64.72-.24 1.47.9 2.44c1.34 1.14 3.18 1.54 3.93.65s-1-1.89-1.99-2.64c-1-.75-2.05-1.35-2.84-.45"/></svg>