<svg viewBox="0 0 128 128"><path fill="#9ccc65" d="M111.6 35.5c0-5.3-7.3-5.2-15.6-1.7 0 0 1.2 32-31 58.7s-56.5 19-56.5 19c-2 3.5 1.3 6.7 2.5 7.5 15.3 9 48.9 7 72.9-16.2 23.6-22.8 27.7-41.3 27.7-67.3"/><path fill="#689f38" d="M8.5 111.6s47.8 8.5 75.3-40c16.3-28.4 12.8-52 12.8-52s-24.4 5.8-52.3 36.8C15.1 89 8.5 111.6 8.5 111.6"/><path fill="#33691e" d="M14.5 111.2S57 110 82.2 72.5C99.6 46.7 92.3 28 92.3 28s-7.6 1.7-13.6 5.3c-6.6 4-18 12.3-32.2 28.3-25 28-32 49.7-32 49.7"/><circle cx="43.2" cy="102.8" r="16.9" fill="#9ccc65"/><path fill="#33691e" d="M54.5 100.5a13 13 0 0 1-7.3-9.9c-.5-2.6.2-4.8 1.6-4.6.7 0 8.6 7.5 12 8.8z"/><circle cx="64.9" cy="77.8" r="18.7" fill="#9ccc65"/><path fill="#33691e" d="M79.3 76.3a16 16 0 0 1-10.8-10.8c-1-3.2-.8-6 .8-6.1 1 0 12 7.6 16.4 8.5z"/><circle cx="85.7" cy="54" r="16.9" fill="#9ccc65"/><path fill="#dce775" d="M8.5 111.6q1.4-1.6 6-1.5c11-.1 30.5-2.8 53-23.5A73 73 0 0 0 92 42.8c1.3-12.2-1.1-17.6.4-19.2 1.6-1.5 4 1.7 4.8 7.7s4 32.2-26 59.2C51.4 108.1 33.3 115 21.5 115c-11.2 0-14.3-1.8-13.1-3.4"/><path fill="#fff" d="M36.5 89.7c1.7-.6 3.9-.4 5.5 2.8 1.3 2.5 1 5.4-1.3 6.5-.7.3-4.2 1-6.3-3-1.1-2.2-.4-5.3 2.1-6.3M76.7 44c1.2-1.3 3.6-2 6.2.4 2.2 2 2.5 5.3.7 6.9-1.4 1.1-4.4 1.4-6.7-1.2-1.4-1.5-2-4-.2-6.1M56.2 65.2c1.7-1 4-1.2 6.2 1.5 2 2.5 2.4 6.3 0 7.8-1.6.9-5.2 1-7.2-2.8-1-1.9-1-5.2 1-6.5"/><path fill="#689f38" d="M119.7 41.6c-1-.7-2.8 1.5-4.5.8-3.3-1.5-3.5-9.5-2.9-14.3 1-7.6 4.1-15.2 4.4-16.4q1.1-5.2-1.7-7c-2.8-1.8-5-.1-7.2 1.7q-5 4.5-10.4 8.4c-2.4 1.7-15.4 9.1-15.9 2-.1-1.7 2.3-3.8-.3-4.1-3.2-.4-7.6 5.3-5.8 10.1q2.3 6.2 8.6 6.3c3.4 0 8-1.3 8-1.3s-1.2 5.7.5 11c1.2 3.7 3.9 6.8 7.4 8.3 1.6.7 4 1.4 5.1.1q1-1-1.2-2.6-2-2-2.2-5.5c-.3-4.5 2.5-6.6 3.5-6s.1 3 .8 6.2c.7 3.4 3.2 9.3 8.7 8.5 4-.7 6.7-4.9 5.1-6.2"/><path fill="#9ccc65" d="M102.5 16.5c3.2-2.3 10.2-9.3 9.7-11.3s-3.2.2-4.4 1.2q-5 4.5-10.4 8.4c-2.4 1.6-15.4 9.1-15.9 2-.1-1.7 2.3-4-.3-4.2-2.4 0-4.7 4.7-3 7.8 2.4 4 8.7 7.3 24.3-4"/></svg>