<svg viewBox="0 0 128 128"><path fill="#69a246" d="M102 24.3s6.4-5 9.9-8.5c4.3-4.4 5.6-9 4.1-9.5s-7.4.5-7.4.5L91 15.4l-4.5 6.7zM28.4 22s-3.7-1.3-7.9-5.8c-4-4.4-5.2-7.3-4.7-9 .6-1.6 20.7 4.4 20.7 4.4l13.4 6 3.5 7.2z"/><path fill="#82b032" d="M67 22.3s4.3-8.5 11.1-12.1 14-4.4 25-4.8 13 .9 13 .9l-16.3 7.6c-7.9 3.7-14.4 8.6-14.4 8.6l-17 12.9-23-17.2s-8.1-4-14.7-6.6-14.9-4.3-14.9-4.3 1.7-2.1 16.8-1.4c15.3.8 21 4.6 25.5 7.3s9 9 9 9"/><radialGradient id="a" cx="79.1" cy="16.9" r="88.8" gradientUnits="userSpaceOnUse"><stop offset=".7" stop-color="#fe622b"/><stop offset=".8" stop-color="#fb582c"/><stop offset=".9" stop-color="#f23d2f"/><stop offset="1" stop-color="#e71932"/></radialGradient><path fill="url(#a)" d="M68.2 24.7c2.5-.2 8-7.8 23-6.6s37.8 18.2 31.6 50c-3.3 17.4-12.3 28.6-29 40.7-11.8 8.6-23.8 14-29.3 14-5 .2-11.9-10.8-11.9-10.8z"/><radialGradient id="b" cx="103" cy="33.8" r="28.4" gradientTransform="rotate(143.815 109.465 53.731)scale(1 2.1774)" gradientUnits="userSpaceOnUse"><stop offset=".4" stop-color="#ff9759"/><stop offset=".7" stop-color="#ff9759" stop-opacity="0"/></radialGradient><path fill="url(#b)" d="M68.2 24.7c2.5-.2 8-7.8 23-6.6 14 1.1 35 16.1 32.5 44.3-.2 1.8-2.1 10-6 10.3-18.4 2-27.2-20.6-32-26.6z"/><radialGradient id="c" cx="53.5" cy="15.5" r="50.7" gradientUnits="userSpaceOnUse"><stop offset=".5" stop-color="#ff9759"/><stop offset="1" stop-color="#ff9759" stop-opacity="0"/></radialGradient><path fill="url(#c)" d="M67.5 24.9c2.5-.2 8.7-8 23.7-6.8a38 38 0 0 1 31.6 29.6c1 4.4-4.8 9.5-8.6 10.1-11.5 2-25.3-14.7-30-20.7-6.5-8-11.8-9.9-14.5-10.8a7 7 0 0 1-2.2-1.4"/><radialGradient id="d" cx="55.2" cy="29.1" r="76.9" gradientUnits="userSpaceOnUse"><stop offset=".7" stop-color="#fe622b"/><stop offset=".8" stop-color="#fd5d2b"/><stop offset=".8" stop-color="#f8502d"/><stop offset=".9" stop-color="#f1392f"/><stop offset="1" stop-color="#e71a32"/><stop offset="1" stop-color="#e71932"/></radialGradient><path fill="url(#d)" d="m88.4 67-2.2 23-9.5 21.6-8 9.8s-2.3 1.4-4.2 1.5c-2 0-16.4-4.1-29.4-12.9S12 90.8 7.5 79C2 64.5 1.8 42.2 15.1 29.9s26.4-14.1 37.5-11.7 14.5 6.1 16.7 8 11.5 13 11.5 13l7.4 19z"/><radialGradient id="e" cx="44.7" cy="18.4" r="73.1" gradientTransform="rotate(88.986 42.779 16.498)scale(1 .7964)" gradientUnits="userSpaceOnUse"><stop offset=".6" stop-color="#ff9759"/><stop offset="1" stop-color="#ff9759" stop-opacity="0"/></radialGradient><path fill="url(#e)" d="M56.8 95.2C32.6 98.2 12 83.7 7.5 71.9 4.4 63.8 3 60.5 4.6 50.7c1.3-8 4.3-15 10.5-20.9a41 41 0 0 1 38.1-11.7c11.1 2.6 14 6.1 16 8s11.6 13 11.6 13l7.4 19s1.5 33-31.4 37.1"/><radialGradient id="f" cx="77.9" cy="17.4" r="85.7" gradientUnits="userSpaceOnUse"><stop offset=".5" stop-color="#f34124"/><stop offset="1" stop-color="#d10d22"/></radialGradient><path fill="url(#f)" d="M68 121.5c.3 0 4.5-2 7.1-5.2a71 71 0 0 0 17.5-43.4C95 39 73 26.6 71.6 26c-1.2-.6-3.2-.6-1.7 1s18 20 15.7 45.1a96 96 0 0 1-14 43.5c-3 3.8-5 5.5-3.7 5.9"/><radialGradient id="g" cx="33.4" cy="35.6" r="23.3" gradientTransform="matrix(.8812 -.4727 .2402 .4479 -4.585 35.468)" gradientUnits="userSpaceOnUse"><stop offset=".3" stop-color="#febd92"/><stop offset="1" stop-color="#febd92" stop-opacity="0"/></radialGradient><path fill="url(#g)" d="M28.3 51s-3.2 7.6-9.5 2.5c-3.5-2.7-3.2-9.8.1-15.7a29 29 0 0 1 22.3-13.6c9.2-1.3 15.5 1.4 16.7 6.8 1.4 6.6-4.5 6.4-4.5 6.4-16.4-.6-22.7 8-25 13.5"/><radialGradient id="h" cx="40.6" cy="50.7" r="19.8" gradientTransform="matrix(.9695 -.5798 .4027 .6582 -16.188 41.227)" gradientUnits="userSpaceOnUse"><stop offset=".8" stop-color="#ff9759"/><stop offset="1" stop-color="#ff9759" stop-opacity="0"/></radialGradient><path fill="url(#h)" d="M23.6 58c-.6-7.3 4-15.4 11.5-20a26 26 0 0 1 25-1.7z"/><radialGradient id="i" cx="35.6" cy="39.6" r="22.3" gradientTransform="matrix(.8689 -.4949 .2885 .5066 -6.754 37.149)" gradientUnits="userSpaceOnUse"><stop offset=".7" stop-color="#ff9759" stop-opacity="0"/><stop offset="1" stop-color="#ff9759"/></radialGradient><path fill="url(#i)" d="M28.3 51s-3.2 7.6-9.5 2.5c-3.5-2.7-3.2-9.8.1-15.7a29 29 0 0 1 22.3-13.6c9.2-1.3 15.5 1.4 16.7 6.8 1.4 6.6-4.5 6.4-4.5 6.4-16.4-.6-22.7 8-25 13.5"/></svg>