<svg xmlns="http://www.w3.org/2000/svg" width="1em" height="1em" viewBox="0 0 128 128"><path fill="#F3AE38" d="M71.38 14.81c-16.74 11.23-23.25 33.4-27.17 36.4c-9.22 7.04-26 7.88-36.4 26.16c-9.27 16.3-2.18 30.53 5.03 37.07s21.64 1.51 21.64 1.51s23.65-13.75 23.65-15.09S74.4 75.52 81.95 67.81s37.07-22.14 37.07-22.14s5.3-22.8 4.03-26.33c-1.52-4.2-24.67-22.65-51.67-4.53"/><path fill="#D97A08" d="M71.26 68C59.81 83.16 58.94 95.72 44.9 105.58s-32.05 8.85-32.05 8.85s9.69 10.48 28.11 6.18c20.58-4.81 26.83-18.36 33.88-31.91c3.08-5.91 3.7-8.5 5.17-9.98c1.48-1.48 19.34-8.62 26.98-13.8s14.95-14.83 16.63-25.75c1.97-12.81-.59-19.84-.59-19.84s-.73 16.78-11.11 26.61C100.22 57.04 78.36 58.62 71.26 68"/><path fill="#F7C875" d="M13.87 77.4c-1.95 3.13-2.15 5.57-.44 6.58c1.93 1.15 4.37-1.14 5.57-3.23c1.2-2.09 2.02-5 .44-6.01c-1.77-1.14-3.79-.19-5.57 2.66m11.46-7.85c1.47 2.47 4.56 1.27 7.28-.57s4.43-4.11 3.35-5.89c-1.08-1.77-4.49-.7-6.71.82c-2.21 1.53-5.31 3.3-3.92 5.64M53.3 51.26c2.12 1.34 4.25-.95 6.02-3.93c1.77-2.97 2.89-6.21.81-7.4c-1.95-1.12-3.99.33-6.1 4.22c-2.4 4.43-2.43 6.03-.73 7.11"/><path fill="#D97A08" d="M15.7 106.14c.66 2.02 3.27 1.73 5.04 1.18c2.9-.9 4.01-2.68 3.64-4.17s-2.87-2.02-5.32-.98c-1.57.67-4.01 1.97-3.36 3.97m13.48-4.38c1.33 1.75 3.61 1.38 7.1-1.3c2.71-2.08 3.78-4.89 2.58-6.34c-1.2-1.45-2.54-.29-5.46 1.88c-2.71 2.01-5.32 4.32-4.22 5.76m2.78-12.03c1.14 1.77 3.82 1.08 6.56-1.12c2.55-2.05 3.57-4.14 2.01-5.82c-1.49-1.61-4.07.69-5.44 1.77c-1.67 1.32-4.49 3.06-3.13 5.17m13.05-2.58c-2.44 2.31-3.98 4.42-2.09 6.04c1.89 1.62 4.7-1.07 5.86-2.17c1.16-1.11 3.7-3.83 2.01-5.69c-1.68-1.85-4.62.72-5.78 1.82m7.4-18.26c-1.61 1.98-4 4.43-2.86 6.01c1.19 1.64 4.13 1.06 6.69-2.22c1.61-2.07 2.17-4.98.78-6.18c-1.38-1.2-3.19.65-4.61 2.39M69.7 56.26c.99 2.28 4.51 1.1 7.11-.42c2.6-1.53 4.71-3.54 3.8-5.32c-.83-1.63-3.74-1.53-6.79.29c-3.06 1.81-4.97 3.5-4.12 5.45m21.13-8.34c1.07 1.85 3.59 1.22 6.43-.9c2.79-2.08 4.05-4.06 2.79-5.85c-1.27-1.79-3.52-.19-6.1 1.66c-2.51 1.78-4.16 3.31-3.12 5.09m12.69-6.72c1.44 1.36 3.67.11 5.88-2.23c2.32-2.45 2.89-4.4 1.78-5.6c-1.1-1.2-3.1-.4-5.7 2.33c-2.41 2.53-3.2 4.33-1.96 5.5m.47-16.18c-2.03 2.61-4.24 4.66-2.33 6.34c1.43 1.26 4.25-.32 6.2-2.91c1.75-2.33 2.26-5.74.62-6.46c-1.64-.71-2.61.62-4.49 3.03m9.95-.39c-.78 2.76-2.41 4.45-.8 5.91c1.9 1.74 4.54-.53 5.48-4.64c.86-3.79.13-5.58-1.74-5.51c-1.87.06-2.3 2-2.94 4.24"/></svg>