<svg viewBox="0 0 128 128"><path fill="#dc0d28" d="m113.7 45.2-11.3 4.3-22.3 49.2L44 123.3s24.8 2 44.2-11.1 29-30.2 32.2-44.1 1.7-18 1.7-18z"/><path fill="#ff5117" d="M82.5 36.2s-7.1 1-10.9 13.5S70 72.2 61.5 83 45.4 98 31.9 95.5c-18.5-3.6-17.3-17.1-23-17.8C4.7 77 2 91 8.7 102s19.3 19.7 33.2 21 38-6.6 51.6-27.4 15.2-35.7 15.6-45-12.6-14.3-12.6-14.3z"/><path fill="#ffcb88" d="M86.1 50c-3.1-2.5-7 1.2-8.6 7S75.8 67.7 75 70.5s-3.1 6.7-.2 8.4 6-3.8 7-8 2.2-10 3.7-12.8 3-6.3.6-8.2M72.8 82.5c-3.2-1.1-3.9 1.6-4.4 2.5s-1.6 2.9.1 4c2 1.3 3.6-.2 4.5-1.6 1-1.4 1.6-4.2-.2-4.9"/><path fill="#98b71e" d="M85 38.6c2.4 2.3-.9 4.5.8 5.8 2 1.6 7.6-1.6 12.2 0s4.4 6.9 7.8 7.3 3.3-2.9 7.9-2.2 6.7 6.7 9 6 1-8-4.4-13.2c-4.4-4.1-7.2-5-7.5-7s1.8-11 2.4-15.5c.7-4.6.5-10.7-5.1-13.6-5.7-2.8-10.5-.1-11.4 1.5-1.1 1.9-.7 4.6 4 2.8 4.4-1.7 7.4 2.3 6.9 6.3s-3.6 9.5-5.4 11.8-2.7 3.6-4 3.8c-1.3.3-5.6-.4-9.7-.2-4.8.2-9.8 2.6-9.2 4.6s4 0 5.8 1.8"/></svg>