<svg xmlns="http://www.w3.org/2000/svg" width="1em" height="1em" viewBox="0 0 128 128"><path fill="#878787" d="M68.86 99.8L9.95 88.64s3.56 14.74 4.78 16.73c1.22 1.99 8.69 7.43 15.86 9.98s61.98.9 66.61-.86c4.62-1.75 12.96-5.53 14.75-7.85c1.52-1.97 5.9-18.97 5.9-18.97z"/><path fill="#E0E0E0" d="m16.45 96.14l4.09 14.15s2.93 2.09 7.11 3.98c4.24 1.92 9.9 3.39 9.9 3.39s6.41-10.22 6.3-10.92s-8.16-2.85-8.16-2.85s-6.54-1.81-10.16-3.21c-3.61-1.39-9.08-4.54-9.08-4.54"/><path fill="#ABABAB" d="M96.45 103.05s4.61-1.43 7.02-2.34c2.8-1.06 6.11-2.8 6.11-2.8l-3.42 12.6s-2.79 1.58-5.35 2.7a71.142 71.142 0 0 1-6.54 2.46l-2.44-5.83z"/><path fill="#C8C8C8" d="M37.53 117.66s13.08 3.04 28.73 2.57c14.36-.43 28.03-4.55 28.03-4.55l2.23-12.65s-8.88 3.41-33.64 3.99c-14.95.35-27.18-3.13-27.18-3.13z"/><radialGradient id="notoPie0" cx="65.727" cy="51.905" r="43.314" gradientTransform="matrix(0 1 -2.179 0 178.83 -13.822)" gradientUnits="userSpaceOnUse"><stop offset=".386" stop-color="#FAC470"/><stop offset=".767" stop-color="#ED9C2C"/></radialGradient><path fill="url(#notoPie0)" d="M8.68 72.58c0 1.17 1.28 10.98 1.28 10.98s2.92 4.09 4.44 4.91c1.52.82 23.71 8.18 24.64 8.41s34.45 1.52 36.91 1.52s29.2-6.31 29.2-6.31l15.17-7.37s.73-6.52.73-7.1s-1.71-8.07-2.34-8.64c-.89-.81-5.62-3.05-5.62-3.05s-2.43-2.94-6.73-5.43c-4.42-2.55-16.24-7.47-23.36-9.22c-7.12-1.75-28.77-2.76-40.68.16s-20.09 6.07-23.83 10.04s-5.14 6.54-5.14 6.54z"/><path fill="#CE701D" d="M53.91 53.25c.22.98-1.97.8-6.83 3.03c-3.69 1.69-7.83 6.2-8.96 3.63c-1.2-2.71 2.73-5.2 8.04-6.41c3.88-.89 7.57-1.05 7.75-.25m4.93 4.25c-.81-.37-2.83 1.97-4.75 5.05s-4.45 7.16-1.82 8.09c3.08 1.09 3.94-4.06 4.58-6.02c1.24-3.8 2.66-6.82 1.99-7.12m10.21-.56c-.59.29.33 2.66 1.35 5.6s1.98 8.03 5.13 6.93c3.15-1.09-1.27-7.04-2.12-8.21c-1.22-1.67-3.62-4.69-4.36-4.32m5.21-3.06c-.04 1.09 4.29 2.07 8.52 4.29c3.39 1.79 7.36 4.31 8.11 2.21c.75-2.12-1.19-3.13-6.39-4.98c-5.19-1.85-10.19-2.6-10.24-1.52"/><path fill="#EAEAEA" d="M70.99 7.79c-1.38.79.09 4.17-1.36 7.24s-4.94 5.62-7.84 7.58c-2.9 1.96-11.54 7.08-10.73 16.36c.69 7.94 4.04 11.97 7.1 15.04c2.76 2.76 6.53 5.49 8.23 5.32s-.09-6.39 2.9-10.82c2.98-4.43 8.18-8.01 11.84-10.99c3.66-2.98 7.67-10.22 3.07-17.8c-4.61-7.59-12.02-12.61-13.21-11.93" opacity=".6"/><path fill="#E08013" d="M79.1 94.4s3.71-3.88 9.57-3.96c5.86-.09 8.19 1.64 8.19 1.64s2.5-4.38 6.91-5.54c5.15-1.35 8.25 1.06 8.51.63c.26-.43 1.25-5.84 2.99-8.34c2.01-2.87 3.69-2.82 3.69-2.82s-.43-3.04-2.33-5.8c-1.6-2.33-3.52-4.28-3.52-4.28s4.23-.7 7.32 2.93c2.25 2.64 1.77 7.45 1.77 7.45s3.02 1.9 1.21 6.46s-5.39 7.91-10.94 11.37c-3.9 2.44-18.91 8.51-33.8 9.46c-15.57.99-33.55 1.52-50.85-4.85C15.38 94.18 5.3 87.12 3.95 80.22c-1.36-6.9 3.69-10.28 5.26-11.23c1.57-.95 4.15-.96 4.15-.96s-1.24 1.75-1.8 3.42c-.56 1.68-.79 3.15-.79 3.15s2.02 2.44 2.52 4.07c.5 1.62.56 5.53.56 5.53s2.4-2.55 6.27-.98c5.2 2.11 11 9.53 11 9.53s1.73-3.35 8.22-2.85s15.32 6.93 15.32 6.93s5.29-5.49 13.44-5.33c7.43.15 11 2.9 11 2.9"/><path fill="#EC9C2A" d="M119.56 78.24c-.88-.57-2.21.58-3.13 1.99c-1.2 1.82-1.51 4.14-.8 4.44c1.08.46 2.17-1.99 3.25-3.36c.72-.91 1.82-2.33.68-3.07M107.2 88.87c.64 1.05-1.56 1.93-2.42 3.07c-.85 1.14-.76 2.8-1.54 2.96c-1.71.36-3.31-2.28-3.19-3.25s2.51-2.56 3.36-2.85s3.17-.96 3.79.07m-17.73 4.26c.35.84-2.39 3.25-3.42 4.39c-1.03 1.14-2.19 3.37-3.42 3.19c-1.54-.23-1.95-3.18-1.21-4.89c.74-1.71 2.09-3.24 4.12-3.6c1.59-.29 3.53-.06 3.93.91M57.5 102.3c1.89 1.75 4.8-2.23 5.58-3.25c2.34-3.02 4.97-3.86 5.01-4.84c.06-1.31-4.05-1.42-6.95.17c-2.61 1.44-5.92 5.81-3.64 7.92m-17.42-9.7c-.05 1.16-1.88 1.65-3.19 3.25c-.97 1.18-2.05 4.44-4.27 3.36c-2.22-1.08-1.23-4.36.34-5.93c2.16-2.16 7.17-2.11 7.12-.68m-24.52-1.58c1.2.68 1.31-2.19 2.28-3.33c.97-1.14 2.4-1.23 2.34-2.6c-.06-1.37-3.18-1.69-4.5-.8c-2.29 1.54-1.72 5.82-.12 6.73m-7.81-7.86c1.54.28.97-2.62 1.77-3.82c.8-1.2 1.99-1.65 1.2-3.08c-.8-1.42-3.65-1.14-4.5 1.25c-.63 1.75-.75 5.22 1.53 5.65"/></svg>