<svg xmlns="http://www.w3.org/2000/svg" width="1em" height="1em" viewBox="0 0 128 128"><path fill="#FFBE1F" d="M64.36 54.09c-15.61-.56-28.51 9.61-31.55 29.94c-3.06 20.45 6.76 40.38 31.26 39.93c26.04-.47 34.07-21.65 30.62-41.26c-3.94-22.28-16.97-28.12-30.33-28.61z"/><path fill="#F79429" d="M77.01 72.23c-2.19-.06-6.91 4.64-7.85 5.69c-1.9 2.13-.5 4.24 1.69 3.18c2.11-1.02 5.38-3.28 6.2-3.29c.88-.01 3.42 1.67 4.49 2.48c3.08 2.3 4.79-.11 2.9-2.42c-1.06-1.29-4.92-5.57-7.43-5.64zm-26.09.06c-2.5-.13-8.08 5.56-8.38 5.88c-1.59 1.74-.11 3.75 2.01 2.85c1.22-.52 5.08-3.1 6.01-3.07c.69.02 2.19 1.14 4.35 2.55c3.54 2.3 5.49-.08 3.15-2.62c-2.36-2.56-4.97-5.48-7.14-5.59zM40.09 86.26c-1.45-.1-4.41 2.6-5.24 3.52c-.83.92-1.5 1.73-.87 2.7c.43.66 1.78.69 2.8.11c1.31-.74 2.66-1.47 3.17-1.45c.83.04 4.12 2.95 5.14 3.82c2.66 2.25 4.35-.77 2.88-2.51c-1.57-1.86-5.2-6-7.88-6.19zm24.04.24c-2.78-.04-7.96 5.49-8.75 6.41c-1.91 2.23-.46 5.2 2.51 3.12c.89-.63 4.63-3.84 5.98-3.74c.86.07 3.79 2.37 5.8 3.78c2.68 1.89 4.49-.29 2.64-2.77c-.83-1.12-5.11-6.76-8.18-6.8zm23.22-.63c-1.61-.09-7.02 5.6-7.94 6.8c-1.59 2.08.15 4.06 2.59 2.33c1.73-1.23 5.32-3.94 5.69-3.96c.53-.04 1.95 1.03 3.04 1.66c1.17.68 2.51.62 2.92-.15c.56-1.04-.27-2.06-1.12-2.85c-1.42-1.34-3.78-3.75-5.18-3.83zM76.5 101.91c-2.9.05-7.07 4.98-7.83 6.25c-1.45 2.44.78 3.46 2.03 2.84c1.89-.95 3.93-3.16 5.95-3.53c.87-.16 3.69 2.07 4.43 2.53c3.68 2.3 5.01-.81 2.58-3.22c-1.75-1.73-5.07-4.91-7.16-4.87zm-24.74-.09c-2.04-.1-6.92 4.33-8.14 5.51c-1.64 1.6-.45 4.26 2.15 3c2.27-1.1 4.99-2.78 5.75-2.74c.96.05 3.03 1.66 4.26 2.5c3.66 2.52 5.24-.25 2.96-2.89c-1.63-1.87-4.78-5.27-6.98-5.38z"/><path fill="#2F7C31" d="M25.53 23.68c-.91-1.17 4.1-3.87 9.38-4.02c6.63-.19 12.71 1.57 12.71 1.57s.55-4.36-2.95-9.24c-2.4-3.35-3.49-5.01-3.42-6.2c.07-1.2 5.27-1.93 12.2 1.16c5.79 2.58 10.29 7.5 10.29 7.5s3.66-5.12 8.48-7.59C77.82 4 84.68 3.51 85.28 4.64c.46.86-1.72 3.38-3.15 6.62c-2.25 5.08-2.12 9.27-2.12 9.27s4.66-3.4 9.66-4.4c2.54-.51 10.03-.97 9.53.86c-.08.29-12.88 9.28-12.88 9.28l-1.91 9.35s6.79-3.88 12.84-3.17c3.13.37 2.61 1.35 2.61 1.35l-14.52 8.24l-2.16 7.13s4.07-1.02 8.03-1.07c1.91-.02 5.04.48 5.19 1.45c.2 1.25-8.75 5.67-8.75 5.67l-24.09 9.76l-22.87-8.28s-10.27-1.62-10.27-2.74c0-1.13 2.05-2.01 5.13-2.49c3.56-.56 7.22-.36 7.22-.36L32.2 44.1s-6.5-.61-7.06-1.88c-.56-1.27 2.92-3.59 5.05-4.21c5.39-1.58 11.53-.32 11.53-.32l-3.47-9.29c-.02-.03-11.73-3.45-12.72-4.72z"/><path fill="#709921" d="M54.36 33.59c.54.27 1.94-3.05 3.67-5.18c2.52-3.11 5.8-5.44 6.37-5.44c.55 0 3.12 1.95 5.35 4.62c2.7 3.24 3.91 5.95 4.18 6.08c1 .49 4.24-5.22 10.48-10.04c5.39-4.17 14.34-7.9 14.81-6.64c.15.41-4.44 3.43-8.84 9.55c-4.83 6.71-4.36 13.94-4.36 13.94s5.53-3.97 7.31-4.89c1.49-.77 7.14-2.94 6.5-1.73c-.46.86-5.86 6.24-8.96 9.19c-4.88 4.62-6.32 11.51-5.85 11.9c.54.45 4.17-2.24 6.36-3.47c2.08-1.17 5.02-2.12 5-1.92c-.13 1.47-5.43 5.29-9.16 8.64c-2.76 2.47-8.1 9.52-23.31 9.27c-12.57-.2-19.92-6.78-24.5-9.24c-3.16-1.7-9.04-3.6-8.97-4.18c.04-.32 2.8-.54 4.66-.31c5.14.62 8.44 2.17 8.79 1.72c.36-.46-4.55-6.68-13.03-10.46c-4.09-1.83-5.88-2.3-5.8-3.12c.03-.36 2.59-.83 5.85-.94c5.78-.19 11.28 1.85 11.79 1.91c1.2.15-3.65-8.26-6.4-11.54c-4.36-5.21-11.16-6.6-10.88-7.91c.15-.71 8.07-.81 14.57 1.63c6.77 2.52 13.2 7.98 14.37 8.56z"/><path fill="#2F7C31" d="M64.38 38.24c-.61.08-3.02 1.38-6.19 4.71c-3.75 3.93-5.07 8.18-4.2 8.9c1.17.96 2.8-.87 5.04-2.45c2.64-1.86 4.78-2.87 5.24-2.87c.46 0 2.52 1.3 4.25 2.61c2.15 1.64 4.01 3.41 4.96 2.81c1.6-.99-.62-6.17-3.12-9c-2.66-3.02-5.45-4.78-5.98-4.71z"/></svg>