<svg viewBox="0 0 128 128"><path fill="#ffbe1f" d="M64.4 54c-15.7-.5-28.6 9.7-31.6 30-3 20.5 6.8 40.4 31.3 40 26-.5 34-21.7 30.6-41.3-4-22.3-17-28.1-30.3-28.6"/><path fill="#f79429" d="M77 72.2c-2.2 0-6.9 4.7-7.8 5.7-2 2.1-.5 4.3 1.7 3.2 2-1 5.3-3.3 6.2-3.3a14 14 0 0 1 4.4 2.5c3.1 2.3 4.8-.1 3-2.4-1.1-1.3-5-5.6-7.5-5.7m-26 0c-2.6 0-8.2 5.7-8.5 6-1.5 1.7 0 3.7 2 2.8 1.3-.5 5.1-3 6-3q1.2.1 4.4 2.5c3.6 2.3 5.5 0 3.2-2.6-2.4-2.6-5-5.5-7.2-5.6m-10.8 14c-1.5-.1-4.4 2.6-5.2 3.5s-1.5 1.7-1 2.7c.5.6 1.9.7 2.9 0 1.3-.6 2.6-1.4 3.2-1.4.8 0 4 3 5 3.9 2.8 2.2 4.4-.8 3-2.6-1.6-1.8-5.2-6-8-6.1m24.1.2c-2.7 0-8 5.5-8.7 6.4-2 2.2-.5 5.2 2.5 3.1.9-.6 4.6-3.8 6-3.7.8 0 3.8 2.4 5.8 3.8 2.6 1.9 4.5-.3 2.6-2.8-.8-1.1-5.1-6.8-8.2-6.8m23.3-.6c-1.7-.1-7 5.6-8 6.8-1.6 2 .2 4 2.6 2.3 1.7-1.2 5.3-4 5.7-4s2 1 3 1.7c1.2.7 2.5.6 3-.1.5-1-.3-2.1-1.2-2.9-1.4-1.3-3.7-3.7-5.1-3.8m-10.9 16c-2.9 0-7 5-7.8 6.3-1.5 2.4.7 3.4 2 2.8 1.9-1 4-3.2 6-3.5.8-.2 3.6 2 4.4 2.5 3.7 2.3 5-.8 2.6-3.2-1.8-1.7-5.1-5-7.2-4.9m-24.7 0c-2-.2-7 4.2-8.2 5.4-1.6 1.6-.4 4.3 2.2 3 2.2-1 5-2.7 5.7-2.7 1 0 3 1.7 4.3 2.5 3.6 2.5 5.2-.3 3-2.9-1.7-1.9-4.8-5.3-7-5.4"/><path fill="#2f7c31" d="M25.5 23.7c-.9-1.2 4.1-3.9 9.4-4 6.6-.2 12.7 1.5 12.7 1.5s.6-4.3-3-9.2c-2.3-3.4-3.4-5-3.3-6.2 0-1.2 5.2-2 12.2 1.2 5.7 2.5 10.2 7.5 10.2 7.5s3.7-5.2 8.5-7.6c5.6-2.9 12.5-3.4 13-2.3.5.9-1.6 3.4-3 6.7-2.3 5-2.2 9.2-2.2 9.2s4.7-3.4 9.7-4.4c2.5-.5 10-1 9.5.9 0 .3-12.9 9.3-12.9 9.3l-1.9 9.3s6.8-3.9 12.8-3.1c3.2.3 2.7 1.3 2.7 1.3L85.3 42l-2.1 7.2s4-1 8-1.1c2 0 5 .5 5.2 1.5.2 1.2-8.7 5.6-8.7 5.6L63.6 65l-23-8.3S30.5 55.1 30.5 54s2-2 5.1-2.5c3.6-.6 7.3-.4 7.3-.4l-10.6-7s-6.5-.6-7-1.9 2.9-3.6 5-4.2c5.4-1.6 11.5-.3 11.5-.3l-3.4-9.3S26.5 25 25.5 23.7"/><path fill="#709921" d="M54.4 33.6c.5.3 1.9-3 3.6-5.2 2.6-3.1 5.8-5.4 6.4-5.4s3.1 2 5.4 4.6c2.7 3.2 3.9 6 4.1 6 1 .6 4.3-5.1 10.5-10 5.4-4.1 14.4-7.9 14.8-6.6.2.4-4.4 3.4-8.8 9.5-4.8 6.8-4.4 14-4.4 14s5.6-4 7.3-5c1.5-.7 7.2-2.8 6.5-1.6-.4.8-5.8 6.2-9 9.2A20 20 0 0 0 85 55c.6.4 4.2-2.3 6.4-3.5 2-1.2 5-2.1 5-2-.1 1.5-5.4 5.4-9.2 8.7-2.7 2.5-8 9.5-23.3 9.3-12.6-.2-20-6.8-24.5-9.3-3.1-1.7-9-3.6-9-4.2 0-.3 2.8-.5 4.7-.3 5.1.7 8.4 2.2 8.8 1.8s-4.6-6.7-13-10.5c-4.1-1.8-6-2.3-5.8-3.1 0-.4 2.6-.9 5.8-1 5.8-.2 11.3 1.9 11.8 2 1.2.1-3.6-8.3-6.4-11.6-4.4-5.2-11.2-6.6-10.9-7.9.2-.7 8-.8 14.6 1.6 6.8 2.5 13.2 8 14.4 8.6"/><path fill="#2f7c31" d="M64.4 38.2c-.6.1-3 1.4-6.2 4.7-3.8 4-5 8.2-4.2 9 1.2 1 2.8-1 5-2.5 2.7-1.9 4.8-2.9 5.3-2.9s2.5 1.3 4.2 2.6c2.2 1.7 4 3.4 5 2.8 1.6-1-.6-6.1-3.1-9-2.7-3-5.5-4.7-6-4.7"/></svg>