<svg viewBox="0 0 128 128"><path fill="#ff8e00" d="M20.2 47.3s-5.4 3.4-6 6.9c-.7 3.4.6 7.5 2.3 10.1s3.7 4.9 6.3 5.8 4.6.8 4.6.8 5.9 6.6 16.2 15.5S67 106 82 114.3s20.2 10.3 24.2 10.3 4-6 3.5-8-26.6-31-26.6-31z"/><path fill="#f5b03e" d="m31.2 62.5-4-4.3s-4-7.6-7.7-7.6-5.4 3.6-5.4 3.6-.4-4 4.3-11.5 10.6-13.4 16-17.2 11.8-8.2 16.2-10.7 14-5.6 19.5-7.5 17.4-4.2 22.8-3.1 7.9 4.9 7.9 8.8-1 6.5-1.8 7.3l-6 5.2z"/><path fill="#ffcc8a" d="m42.2 46-9.7 6.2-4 8s.7 2.7 2 4c1.2 1.5 11.7 11.5 19.2 18l18.4 15.6 1 9c.5 3 .6 8 3.7 7.9 4-.2 1.7-8.2 4.8-8.1 6.3.1 0 17.1 6.8 17 5.4 0 2-9.3 4.7-11 1.4-.8 4.3 2.9 9 5 5.9 2.5 9.5 4.4 11.3 3.6 4-2-4.4-45.3-5.3-52.6s-5.6-45.2-6-46.4-6.7-1.5-6.7-1.5l-9.9 3.5-14 1.9-16.7 9.8z"/><path fill="#cb6c22" d="M39.8 44.4c-3.1 1.7-7.1 2.7-10.4 8.2-2.8 4.6-3.6 9.3-1.6 9.7s3.5-6.6 6.2-9.2c4.2-4.3 7.7-4.7 10-7s5.2-8.4 15.4-13.8c11.8-6.4 18.9-4.7 21.7-5.7 3.6-1.4 4.6-3.6 9.1-4.5 4.8-1 8.1.9 8.1.9s1.1-2.6-.3-3.7-4.2-2.1-8.6-1.2c-4.9 1-8.5 4.2-9.5 4.3s-11.1-.4-23.2 6.4-14.2 14-17 15.6"/><path fill="#db0d27" d="M53.6 55.3 37.4 59s-.2 3 0 4c.4 3 4.5 7.9 7 8.7s7.4.9 9 .2 6.5-4.3 7.1-6.2.5-9.8-.8-11c-1.2-1.4-6.1.7-6.1.7"/><path fill="#ed6d30" d="M42.2 50.3c-1.7 1.3-5 5.8-4.8 9 .3 3.4 5.9 9 7.4 9.6s6.5.6 7.8.2 6.1-4 6.9-5.2c.7-1.3 1.3-8.3.1-9.6s-4.7-5-7.5-5.8-8.3.5-10 1.8"/><path fill="#db0d27" d="M83.6 65.5s-14.3-1-14.5-.2-.5 4.4.4 7.2a11.5 11.5 0 0 0 17.3 6.3c2.2-1.7 3.6-3.8 4-5s-7.2-8.4-7.2-8.4"/><path fill="#ed6d30" d="M76.6 58c-2.2.7-7.5 4-7.6 7.6 0 3.7 2.6 8 4 9s5.8 3.7 9.2 3.5 8-2.9 8.5-4.3 1-5.7.7-7.9-5-7-7.4-7.8a13 13 0 0 0-7.4-.2"/><path fill="#db0d27" d="M76.1 91.8S63 88 62.8 88.4s-2 2.5-1.5 3.6 5 4.8 7 6.5 7.6 5 8.2 4.8c1.7-.2 3-2.9 3-2.9z"/><path fill="#ed6d30" d="M77.3 86.2c-3.2-2.3-7.9-2.1-10.4-1s-4.1 2.8-4.4 4 1.8 3.4 2.7 4l8.2 6.4c2 1.5 4.3 2.3 5 2.4s3.5-3.7 3-8.8q-.3-4-4.1-7"/><path fill="#db0d27" d="m100 79-4.8-.2s-2 3.7-.6 7.9q1.5 5 7.3 6.5c3.9 1.1 6 .7 6 .7v-2.7z"/><path fill="#ed6d30" d="M104.8 72.8s-6-.7-9.2 4.8c-2.3 4.3-.7 8 1.2 10s4.8 3.4 7 3.6 4.2 0 4.2 0L106.4 81z"/><path fill="#db0d27" d="M87.2 33.6s-11.6.4-12.4 1.6-.7 6.4-.3 8.5 3.5 7.1 9.8 7.2 8.6-1.5 11-6.3 0-10.1 0-10.1z"/><path fill="#ed6d30" d="M87.3 28.3c-2.5-.5-6 .5-7.8 1.7s-4.5 3.6-4.7 5.4 1.5 7 2.1 8 3.3 3.8 4 4.2c2 .9 7.2.4 8.8-.1s5.7-4 6.2-5.8 1-5-1-8.6-5.2-4.4-7.6-4.8"/><path fill="#db0d27" d="m103.8 104.2-10.4-.5s-1.4 2.8-1 5.3c.3 2 2 4.8 5 6 1.8.6 6.3.2 7.4-.5a7 7 0 0 0 2.8-5.7c0-.8-3.8-4.6-3.8-4.6"/><path fill="#ed6d30" d="M101.5 99.8c-2.7-.5-5.8 1-7.1 2.4s-1.7 3.1-1.1 5.2c.9 3.9 3.4 5 4.5 5.5 1.7 1 6.3.7 7.8-.4 1.4-1 2.5-3 2.2-5.8-.4-3-1.6-6.3-6.3-7"/><path fill="#fcc12b" d="M36 31c0 2.2 3.9 1.8 5.4 1.7 1.2-.2 4.1-.4 4.1-2.3s-2.6-2-4.5-1.9c-1.9 0-5 .8-5 2.5m20.3-12.7c0 1.4 1.6 1.6 2.5 1.7 1 0 2.3-.3 2.4-1.5q-.1-1.6-2.4-1.8c-1.4-.1-2.5.4-2.5 1.6m9.3 3.4c1.4 1.6 3.6-.5 4.3-1.5.8-1 1-2.4.1-3.2s-2.4.1-3.4 1-1.9 2.8-1 3.7m16.2-7.9c1.7 2 4.6-1.3 5.8-2.4s2.1-2.7 1-4S85 8 84 9.1c-1 1-3.4 3.5-2.2 4.7M26.9 47.3c1.7.4 2.3-1.6 2.6-3.2.3-1.5.3-3-1-3.3-1.5-.2-2.2 1.2-2.5 2.6-.2 1.3-.6 3.5 1 3.8"/></svg>