<svg viewBox="0 0 128 128"><path fill="#b40e1c" d="m20.7 44.6-6.5-6s-.3-3 2-3.9c2.7-1 5.2.2 5.2.2l4 7.7zm86 .2-5.6-4.5 3.7-5.5s2-1.6 5.4 0c2.6 1.3 3.2 3.8 3 4.6-.4.8-6.5 5.4-6.5 5.4"/><path fill="#ffb91f" d="m22.8 43.5-3.2-.9s-.4-1.5.3-2.8 2.1-1.2 2.1-1.2-3.3-1.6-1.9-5.6 6-3.1 6-3.1-.1-2.5 2-4.1c2-1.6 3.5-.4 3.5-.4S30 20.4 34 18c3.4-2 5.7 0 5.7 0s1.3-3.5 5-3.5c2.8 0 3.6 1 3.6 1s1-2 2.6-2.8c1.5-1 2.5-.8 2.5-.8s-.7-2.4 0-4.4C54.6 4 58.3 3.2 61 4c3.7 1 3.3 3.5 3.3 3.5s1.8-1.3 3.6-1c1.7.1 2.7 1.3 2.7 1.3s1.2-3.6 5.3-3.6 5.2 2.4 5.4 4.3-1 4-1 4 .6.3.8 1.7c0 1-.3 2-.3 2s1.9-1.5 5.6 0c6.2 2.4 5 9 5 9s1.7-.2 3 .4c1.6.7 2.4 1.8 2.4 1.8s.3-3 4-3 6.9 7.2 6.2 9.2-2.5 2.5-2.5 2.5 1.6.5 2.3 2.6c.7 2.4.1 5 .1 5s-26.4 16-26.7 16l-33 2.4z"/><path fill="#fce193" d="M34.8 48.5c0-.2.3-1.1 1-1.5.7-.5 1.8-.5 1.8-.5s-1.2-.6-2-2.5c-.4-1.2.2-2.5.2-2.5s-3.2.1-4-2.3.5-2.7.5-2.7-1.3-6.8 4-6.9c7.4-.2 6.1 9.1 6.1 9.1s1 0 1.7.6q.9 1 .8 1.1c-.1.1 1.4-2 4.6-1.5 7.6 1.1 4 8.6 4 8.6s-1.4-3.9-3.8-4c-2.5-.2-5.5 1.5-5.5 1.5s4.7.5 5.9 3 1.2 5.8 1.2 5.8-9.3 2.7-9.5 2.4z"/><path fill="#e17a2c" d="M40.6 40.4c-.7-.3-2.5 1.3-2.6 2.5s1 2.8 2.3 3c1.2 0 2.4-1.2 2.4-2.4 0-.7-1.3-2.8-2-3.2"/><path fill="#fce193" d="M46.3 26.6s-5-.8-5 3.3c.2 5.5 6.4 4.7 6.4 5L48 37s2.4-.2 4.8 1.1 3.4 3 3.4 3 .4-2.2 1.1-3.1l1.4-1.7s0-1.2-.4-2.2c-.2-.7-.8-1-.8-1s5.4-2.6 2.7-6.8c-3-4.8-8-.4-8-.4s-1.9-2.8-4.3-2c-2.4.6-1.6 2.7-1.6 2.7m12.2 18s-1.4-5 1.3-6.4 4.4.2 4.5-.1 4.3-4.8 7.9-4.7c5.3.2 6.5 3.6 6.7 4 .5 1.6-.2 4.4-.2 4.4s2-3 4.9-2.8 3.2 2.6 3.2 2.6 3.1 2 3 3.8c-.2 1.9-2.2 3.3-2.2 3.3l-4.9 4.8-5.2-1.8s-.8-2.4-.8-4c0-1.4.2-2.6.2-2.6s-1.5.8-2.5 1c-1 .3-3 .4-3 .4s-.2-1.2-2.2-2.6c-4.4-3-10.7.6-10.7.6"/><path fill="#fce193" d="M60.7 51.2s-1.7-6 3-6c5.6-.2 6.4 4.8 6.6 7.6s-7.2 7-7.5 6.9l-7.2-4.5s-.6-1.5.6-2.9 4.5-1.1 4.5-1.1m31.2-2.8s-1.7-1.3-1.2-3.8 2.5-2.7 2.5-2.7-1.5-2.3-.8-3.8 1.9-1.8 5.5-1.8 5.6 1 6.8 2.4c1 1.1.4 4.7.4 4.7S99.6 50 99 49.8zM76.6 31.3s1.9 1.2 2.5 2.2l1.4 2.6s.4-4.7 2.4-7c2-2.5 4.8-2.4 4.9-2.4.5 0 1.4-3.8-.6-5.9-2.6-2.6-6.9-1.7-6.8-1.3s1.5 2.3.5 6.6c-.9 4-4.3 5.2-4.3 5.2m-13.5 1c.8.3 2.2-1 3.3-1.5 1.4-.6 3.1-.9 3.2-1.5s-1.9-3-4.7-1.8-2.6 4.3-1.8 4.7m-41.3 2.4c-.2 2.4 2.3 3.2 2.3 3.2s-.3 2.2.5 3.5c.8 1 2.3 2.4 2.9 2.2s2.6-2 2.6-2.1-.1-5.5-1.3-7.5c-1.6-2.7-6.6-3.7-7 .7m8.7-3.3c.7 0 1.4-1.5 1.8-2s1.8-1.6 1.8-1.6-2.2-1.5-3.6-.1-1 3.7 0 3.7M36 27l2.1-.1c.8 0 2 .3 2 .3s.3-1.3 1.7-2.2 2.6-.6 2.6-.6.3-1.7 1.4-2.5q1.7-1 1.8-.8c.1.2 1-2.6-.5-3.6-4.2-2.7-6.4 2.8-7.2 3-.5 0-2.4-1.8-4.4-.4-3.5 2.5.5 6.9.5 6.9m13.5-6.3s1.2.3 2 .8l2.2 1.5 6.3-.2s1.4-1.9 3.4-2.7c1.7-.7 3.6-.7 3.6-.7s.2-4.7-3.7-5.9c-5-1.5-6.6 3.5-6.6 3.5s-1.5-1.7-3.1-1.6c-3.8 0-4.2 5.3-4.2 5.3"/><path fill="#e17a2c" d="M56.6 19c-.6 0-4 3-4.1 3.2s.8.8 1 1c0 .4 6.1-.3 6.5-.5.3-.3-2.1-3.7-3.4-3.7m-7.7 10c0 .6 2.8 4.3 3.7 4.5s3.7-3 2.9-3.8c-.4-.3-3.2 0-3.2 0s0-2-.3-2.4-3.1.7-3 1.7"/><path fill="#fce193" d="M55.9 12.5c.7 0 1.4-2.7 2.2-3.5s3-1.8 2.4-3.1-4.1-1-5.3 1c-1.4 2.2-1 5.5.7 5.6m10.2-.7c.1.6 2 1.4 2.3 1.7l1.6 1.6s3-.8 4.9-.3 2.7 1.8 3.2 1.4c.5-.3.2-1.7 0-2.2l-1-1.4s2.8-4.3 0-5c-4-1-4.9 3.1-5.4 3.2s-2-1.5-3.8-1.3c-1.6.3-2 1.4-1.8 2.3M68.4 24c.6 1.5 2.8 1.6 2.8 1.6s1 3.4 3.2 3.7 3.6-2 4-3.9c.6-2.4.6-7.5-4.7-7.5-4 0-5.8 5.1-5.3 6.1m21.1 17.1c.7 0 .3-4 2.4-5.6 2.3-1.7 4-1.4 6.4-1.2s4.1 1 4.6.2c.7-.8 1-6.7-2.3-7.2-2-.2-2.5 1.7-2.5 1.7s-2-.5-3 1.6c-.9 1.3-.9 2.3-1.2 2.4-.2 0-5.3-8-9.3-3.1-4.2 5 3.4 9.2 3.4 9.2s.3 2 1.5 2"/><path fill="#e17a2c" d="M74.4 18.9c-.3.2-.4 4.8-.2 4.9s3.3 1.6 3.7 1.2.4-2.6-.3-4c-.5-1-2.3-2.8-3.2-2.1M68 13c0 .5.6 3.1 1.4 3.2 1.2.1 3.6-1.2 3.8-1.7s-.1-1.9-2-2.3c-2-.5-3.2.2-3.2.8m.5 29.2c.6.7 3-1.2 3.8-.8 1 .4 0 2.9 1 3.2s3.2-3.2 3-4.6c-.1-.7-1.4-1.5-2.7-2s-3.2-.8-4-.2-2.3 3.1-1.1 4.4m28 3.5s-.1-3.1.7-4.6c.8-1.6 2.9-1.3 3.2-1s1.5 3.2 1.5 3.2l-2.4 4.2z"/><path fill="#dfdfdf" d="m63.4 61.4-9.6-3.8-.3-.4a27 27 0 0 0-6.8-1.8h-.5l-7.9-1.8-.2-.3c-.5-.9-6.8-3.1-6.8-3.1l-6-2.4-.1-.4c-.5-1.3-4.6-3.5-4.6-3.3l-1.8-.9c.4-1 2-2.5 4.2-1.6 2 .8 4.2 3.5 4.7 4.6l3.2 1.7a5 5 0 0 1 4.3-.3c3 1 3.8 3.3 4.4 4.3l6.5 1.4a5 5 0 0 1 4.1-1.2c3.4.5 4.2 2.5 5 3.5l7.4.6a9 9 0 0 1 5.7-3.6c2.7-.4 4.8.6 5.6 1.6l7.2-2.5c.6-.9 2.6-3.5 5.9-4.1 3-.6 5.4 1 6.4 1.7l4.8-2.5c.5-.8 2.2-3.5 4.7-4.3 3.2-1 5.2 1 5.3 1.1l-1.4 1.5-6.6 3.7-1.4 2.4-5.5.4-.5-.4L82.6 53l-.2.4-9 3-.5-.4z"/><path fill="#fff" d="M107.7 46.6c-.2 0-2-2.6-4.5-1.6s-4.8 5.2-4.8 5.2l-7.7 1.2s-1-2-3.8-1.3-5.5 4.3-5.5 4.1-8.4 2-8.4 2-1.7-2-4.6-1.2c-3 .8-4.7 4.5-4.7 4.5l-9.5-1.9s-1.6-2.7-4-3-4 1.2-4 1.2L39 54.1s-1.1-3-4.2-4-4.6.3-4.6.3l-4.5-3.1s-1.4-2.3-4-3.5c-2.5-1.2-3.3 1-3.3 1l16 67.1L65 124.3l30.1-13.2s13.2-64.6 12.5-64.5"/><path fill="#ed3d23" d="M20.7 44.6v-.1c-.3-1.3-1-4.3-2.7-5.6-2.3-1.8-3.8-.3-3.8-.3l17.3 72.2 4.3 1.6zM32 50s-.3-4.5-3.9-5.6c-2.8-.8-3 2-3 2L39.4 114l5.3 2.1zm15 5.2s-1.4-4.9-5-5.3-3.4 2.7-3.4 2.7l9.6 64.9 5.3 2.2zm11.8-1.4c-4-.5-4.6 3.6-4.6 3.6l4.2 64.2 6.7 2.7-1.2-65.1s-.9-4.8-5.1-5.4m23.2.3s.2-5.1-4.3-3.8a7 7 0 0 0-5 5.5l-1.2 65.8L77 119zm17-5.5s-.2-4-4.2-3.2c-4 .9-4 5-4 5l-7.3 66 5.5-2.5zm10.4-9.6c-3.4 1.6-3.7 6-3.7 6l-11.4 66.6 5.4-2.4 13.5-69.8s-.9-1.8-3.8-.4"/></svg>