<svg xmlns="http://www.w3.org/2000/svg" width="1em" height="1em" viewBox="0 0 128 128"><path fill="#2F2F2F" d="m23.82 77.13l-7.7-12.07l2.11-8.3l17.81-11.77l24.6-3.02l27.92 3.62L102 50.87s10.11 8.75 10.26 10.56c.15 1.81-2.72 11.32-2.87 11.77s-2.11 10.26-8 12.37c-5.89 2.11-43.76 7.55-44.37 7.24s-33.2-15.68-33.2-15.68"/><path fill="#F7B03A" d="M19.75 73.36s.23-2.56 1.1-5.11c1.16-3.42 11.88-18.28 41.91-18.28s46.63 14.79 44.97 22.18c-1.66 7.39-22.33 25.96-22.33 25.96s-36.22-5.58-36.82-5.73c-.61-.16-28.83-19.02-28.83-19.02"/><path fill="#FFE36A" d="M33.72 64.56c-.88.19-1.65.76-1.57 1.78c.07 1.02 1.01 1.5 1.85 1.36c1.31-.22 1.78-1.15 1.61-2.06c-.17-.83-1.09-1.26-1.89-1.08m-.84 4.75c.88 1.39-.45 3.32-3.11 4.16s-4.51.42-4.82-1.4c-.31-1.82 2.06-2.97 3.28-3.39c1.22-.42 3.74-.8 4.65.63m14.25-10.06c.06 1.35 1.99 2.1 4.72 1.75s4.19-1.85 4.05-3.21c-.14-1.36-2.06-1.89-4.26-1.75s-4.58 1.5-4.51 3.21m9.37-3.53c0 1.21 1.43 1.61 3.28 1.5c2.2-.12 2.8-.98 2.9-1.78c.1-.8-1.22-2.06-3.08-1.92c-1.84.14-3.1.87-3.1 2.2m18.34 11.32c-.14 1.53.91 3.21 5.03 2.87s4.93-2.41 4.93-3.14s-.68-2.95-4.61-3.01c-2.37-.04-5.14.97-5.35 3.28m19.19-.87c-.08.78.17 2.8 3.88 2.69c3.7-.1 3.25-1.36 3.25-1.92c0-.56-1.26-2.62-3.88-2.9c-2.09-.23-3.11.83-3.25 2.13m4.75 5.41c-.07.94 1.01 1.68 3.32 1.54c1.96-.12 2.81-1.15 2.76-1.92c-.07-1.12-1.15-1.68-2.83-1.61c-1.47.06-3.14.67-3.25 1.99m-42.42 9.37c.04.8 1.75 1.75 4.51 1.75s3.28-1.15 3.28-1.99c0-.84-.87-1.78-3.42-1.89c-2.28-.1-4.44.77-4.37 2.13"/><path fill="#D64C12" d="M27.71 78.19c.1-.24.22-1.29.73-2.17c.45-.77 1.25-1.4 2.17-1.4c1.61 0 5.24.63 6.08 1.78c.61.84.56 3.95-1.89 4.75c-2.45.81-7.09-2.96-7.09-2.96m7.47-16.08c.05.64 1.08 1.92 2.45 1.82c1.36-.1 5.31-1.92 5.7-2.73c.38-.8-1.22-2.62-2.27-2.62s-5.98 2.21-5.88 3.53m40.26 10.77c-.41.83-.84 3.28.94 3.95c1.78.66 8.67.98 8.67-1.01s-1.96-3.42-2.69-3.53c-.74-.11-6.29-.67-6.92.59m8.07-3.25c-1.13 1.75.93 3.83 2.45 4.54c3.28 1.54 4.93 1.28 6.08.42c1.96-1.47 1.29-2.94-2.9-4.89c-2.99-1.4-4.86-1.26-5.63-.07"/><path fill="#7F594B" d="M65.07 59.2c-.03 1.85 4.11 3.72 7.09 3.81c2.98.09 3.76-1.31 3.98-1.97c.22-.66-.83-2.93-2.01-3.9s-4.2-1.97-5.56-1.79c-1.36.17-3.46 1.49-3.5 3.85"/><path fill="#FE8D00" d="M40.73 68.92c.2 1.25 2.11 2.1 5.47 2.32c4.07.26 6.65-1.58 6.74-2.36c.09-.79-2.28-2.8-6.43-2.8c-5.04-.01-5.95 1.74-5.78 2.84"/><path fill="#7F594B" d="M39.29 76.36c-.13 2.23 1.44 3.15 3.63 3.06c2.19-.09 6.3-2.14 7.13-4.51c.52-1.47-1.93-4.07-5.52-3.94c-2.07.08-5.13 3.44-5.24 5.39"/><path fill="#FE8D00" d="M77.81 63.18c.88.48 4.16-.44 6.74-.96s5.21-.79 5.6-1.62s-.31-4.33-4.16-4.64c-3.85-.31-6.04 1.14-6.96 2.14c-.92 1.01-1.53 2.23-1.58 2.58c-.04.36-.25 2.17.36 2.5m15.67 6.57c1.25-.22.44-3.98-.57-5.12c-1.01-1.14-3.85-1.66-5.65-1.44c-1.79.22-3.02.7-3.11 1.71c-.09 1.01 3.11 2.71 4.77 3.46c1.67.73 3.81 1.52 4.56 1.39"/><path fill="#92A51E" d="M50.5 72.58c1.03.36 3.43-.34 3.46-1.86c.03-1.52-1.34-2.94-2.69-2.63c-.68.15-2.1 1.92-2.07 2.6c.03.69.77 1.71 1.3 1.89m5.04-9.12c.09 1.21 2.78 2.47 3.71 1.67c.88-.76.37-3.99-.77-3.99c-1.42 0-2.98 1.82-2.94 2.32m2.54 5.81c.02.43.65 2.41 2.2 2.38c1.55-.03 3.65-1.61 3.65-2.41s-2.44-3.37-3.59-3.34c-.78.02-2.29 2.54-2.26 3.37"/><path fill="#FBE0BC" d="M63.18 63.55c-.18 1.07.62 1.18 1.33 1.3c.71.12 1.61.34 2.54 1.55c.93 1.21 1.84 3.72 1.95 3.99c.34.87 1.89 1.33 3 .25s-1.08-5.84-3.03-7.36c-1.96-1.52-5.45-1.71-5.79.27"/><path fill="#92A51E" d="M62.68 66.09c.15.99 2.41 2.81 3.99 2.01c1.58-.8-.12-3.75-.81-4.07c-.43-.21-3.4.62-3.18 2.06m9.19-2.44c-.71-.03-1.3.22-1.27 1.42c.03 1.21.49 2.57 2.07 2.66c1.58.09 1.73-1.98 1.73-2.23s-.96-1.79-2.53-1.85m.46 6.55c-.59-.14-3.43 1.08-3.49 2.23c-.06 1.14.99 2.01 2.78 2.23s3 .22 3.25-.65c.24-.87-.78-3.38-2.54-3.81"/><path fill="#FBE0AF" d="M85.22 80.61c.11.67 2.47 1.72 3.23 1.51c.75-.21 2.6-4.07 5.37-4.86c2.77-.8 3.69-.46 4.07-.88c.38-.42-.17-2.35-1.09-2.68s-3.4-.8-6.5 1.01c-3.18 1.84-5.21 5.15-5.08 5.9m-29.55-9.52c-1.36.08-3.19 2.1-3.98 3.94c-1.21 2.79-1.59 5.11-1.26 5.7c.34.59 2.75 1.41 3.73.75c.25-.17.5-3.27 1.72-5.62c.83-1.59 2.22-2.22 2.47-2.47s-.46-2.42-2.68-2.3m-11.7-14.16c-.37.35-1.38 1.97-1.05 4.82c.26 2.17.56 3.49 1.26 3.81c.54.25 4.4.63 4.74-.38c.34-1.01-2.05-3.81-2.31-4.32s-.38-3.44-.42-3.81c-.04-.38-1.63-.67-2.22-.12"/><path fill="#6A6E70" d="M122.67 56.61c-1.81-3.62-3.77-4.98-5.43-4.98s-7.39 2.72-7.39 2.72S97 40.55 64.41 40.08c-31.54-.46-44.95 12.59-44.95 12.59s-4.54-3.46-8.92-3.01c-4.37.46-8.14 11.93-6.18 15.25c1.96 3.32 4.83 3.17 7.09 4.38s4.38 2.57 4.83 3.32c.45.75 1.81 17.51 6.04 25.05c4.23 7.55 12.22 17.66 41.5 18.26S101 104.7 104.56 97.96c4.23-8 6.19-22.79 6.19-22.79s3.02-2.72 6.34-4.07c3.67-1.5 5.28-1.81 6.34-3.32c1.05-1.52 1.05-7.55-.76-11.17m-57.8 28.22c-31.54-.31-46.79-10.27-46.33-21.58c.3-7.39 15.09-19.62 44.07-19.32C91.9 44.24 110.15 54.8 110 64.6c-.16 9.81-14.19 20.53-45.13 20.23"/><path fill="#EAEAEA" d="M63.71 57.25c3.19-.34 1.74-5.71 4.36-10.89c5.99-11.87 17.76-13.07 17.43-23.2c-.36-11.08-17.54-16.46-22.77-12.21c-1.68 1.37 7.95 2.94 6.43 9.26c-1.53 6.32-13.18 6.75-16.01 16.88c-3.37 12.02 8.49 20.37 10.56 20.16" opacity=".6"/></svg>