<svg viewBox="0 0 128 128"><path fill="#2f2f2f" d="m23.8 77.1-7.7-12 2.1-8.3L36 45l24.6-3 28 3.6 13.4 5.3s10.1 8.7 10.3 10.5-2.8 11.4-3 11.8-2 10.3-8 12.4S57.7 93 57 92.8z"/><path fill="#f7b03a" d="M19.8 73.4s.2-2.6 1-5.2c1.2-3.4 12-18.2 42-18.2s46.6 14.8 45 22.2-22.4 26-22.4 26l-36.8-5.8c-.6-.2-28.8-19-28.8-19"/><path fill="#ffe36a" d="M33.7 64.6q-1.5.3-1.6 1.7.4 1.5 1.9 1.4 2-.5 1.6-2-.4-1.4-1.9-1.1m-.8 4.7c.9 1.4-.5 3.3-3.1 4.2s-4.5.4-4.9-1.4 2.1-3 3.3-3.4 3.8-.8 4.7.6m14.2-10c0 1.3 2 2 4.7 1.7s4.2-1.9 4.1-3.2-2-1.9-4.3-1.8-4.5 1.5-4.5 3.2m9.4-3.5c0 1.2 1.4 1.6 3.3 1.5 2.2-.1 2.8-1 2.9-1.8s-1.2-2-3.1-1.9q-2.9.3-3.1 2.2M74.8 67c-.1 1.6 1 3.2 5 3s5-2.5 5-3.2-.7-3-4.6-3c-2.4 0-5.2 1-5.4 3.2m19.2-.8c0 .7.2 2.8 4 2.7 3.6-.1 3.2-1.4 3.2-2s-1.3-2.6-4-2.9c-2-.2-3 .9-3.2 2.2m4.8 5.4q0 1.6 3.3 1.5c2-.1 2.8-1.1 2.8-1.9q-.2-1.7-2.9-1.6c-1.4 0-3.1.7-3.2 2m-42.4 9.3c0 .8 1.7 1.8 4.5 1.8s3.2-1.2 3.2-2-.8-1.8-3.4-1.9c-2.3 0-4.4.8-4.3 2.1"/><path fill="#d64c12" d="M27.7 78.2q0-.6.7-2.2.8-1.3 2.2-1.4c1.6 0 5.2.6 6 1.8.7.8.6 4-1.8 4.7-2.4.9-7-3-7-3m7.4-16c0 .6 1 2 2.4 1.8 1.4 0 5.3-1.9 5.7-2.7s-1.2-2.6-2.2-2.6-6 2.2-6 3.5M75.5 73c-.4.8-.8 3.3 1 4 1.8.6 8.6 1 8.6-1s-2-3.5-2.6-3.6c-.8-.1-6.3-.7-7 .6m8.1-3.3c-1.1 1.8 1 3.9 2.5 4.6 3.2 1.5 4.9 1.3 6 .4q3.2-2.2-2.9-4.9-4.4-2-5.6 0"/><path fill="#7f594b" d="M65 59.2c0 1.9 4.2 3.7 7.2 3.8s3.7-1.3 4-2-.9-2.9-2-3.9-4.3-2-5.6-1.7c-1.4.1-3.5 1.4-3.5 3.8"/><path fill="#fe8d00" d="M40.7 69q.4 1.8 5.5 2.2c4 .3 6.6-1.5 6.7-2.3S50.7 66 46.5 66c-5 0-6 1.7-5.8 2.8"/><path fill="#7f594b" d="M39.3 76.4c-.1 2.2 1.4 3.1 3.6 3s6.3-2.1 7.2-4.5c.5-1.5-2-4-5.6-4-2 .1-5.1 3.5-5.2 5.5"/><path fill="#fe8d00" d="M77.8 63.2c.9.5 4.2-.5 6.8-1s5.2-.8 5.6-1.6-.4-4.3-4.2-4.6-6 1.1-7 2.1-1.5 2.2-1.5 2.6-.3 2.1.3 2.5m15.7 6.5c1.2-.2.4-4-.6-5s-3.8-1.7-5.6-1.5q-2.8.3-3.1 1.7c-.3 1.4 3 2.7 4.7 3.5s3.8 1.5 4.6 1.3"/><path fill="#92a51e" d="M50.5 72.6c1 .3 3.4-.4 3.5-1.9s-1.4-3-2.7-2.6c-.7.1-2.1 2-2.1 2.6s.8 1.7 1.3 1.9m5-9.1c.1 1.2 2.8 2.4 3.7 1.6s.4-4-.7-4c-1.4 0-3 1.9-3 2.4m2.6 5.8c0 .4.6 2.4 2.2 2.3s3.6-1.6 3.6-2.4-2.4-3.3-3.6-3.3c-.7 0-2.2 2.5-2.2 3.4"/><path fill="#fbe0bc" d="M63.2 63.6c-.2 1 .6 1.1 1.3 1.2s1.6.4 2.6 1.6 1.8 3.7 1.9 4c.3.9 1.9 1.3 3 .2s-1-5.8-3-7.3-5.5-1.7-5.8.2"/><path fill="#92a51e" d="M62.7 66c.1 1 2.4 2.9 4 2.1s-.2-3.7-.8-4c-.5-.3-3.4.6-3.2 2m9.2-2.4c-.7 0-1.3.2-1.3 1.4s.5 2.5 2 2.6 1.8-2 1.8-2.2-1-1.8-2.5-1.8m.4 6.5c-.6-.1-3.4 1-3.5 2.2q0 1.8 2.8 2.3c2.8.5 3 .2 3.3-.7s-.8-3.4-2.6-3.8"/><path fill="#fbe0af" d="M85.2 80.6c.1.7 2.5 1.7 3.2 1.5s2.6-4 5.4-4.8 3.7-.5 4-1 0-2.3-1-2.6-3.4-.8-6.5 1c-3.2 1.9-5.2 5.2-5 6M55.6 71c-1.4 0-3.2 2-4 4-1.2 2.7-1.6 5-1.3 5.6s2.8 1.4 3.8.8c.2-.2.5-3.3 1.7-5.6.8-1.6 2.2-2.3 2.5-2.5s-.5-2.4-2.7-2.3M44 56.9c-.4.4-1.4 2-1 4.9q.2 3.2 1.2 3.8c.5.2 4.4.6 4.7-.4s-2-3.8-2.3-4.3-.4-3.5-.4-3.8c0-.4-1.6-.7-2.2-.2"/><path fill="#6a6e70" d="M122.7 56.6q-2.8-5.2-5.5-5c-2.7.2-7.3 2.7-7.3 2.7S97 40.6 64.4 40.1c-31.5-.5-45 12.6-45 12.6s-4.5-3.5-8.9-3c-4.3.4-8.1 11.9-6.1 15.2s4.8 3.2 7 4.4 4.4 2.6 4.9 3.3 1.8 17.5 6 25 12.2 17.7 41.5 18.3 37.2-11.2 40.8-18c4.2-8 6.2-22.7 6.2-22.7s3-2.8 6.3-4.1c3.7-1.5 5.3-1.8 6.3-3.3s1-7.6-.7-11.2M64.9 84.8C33.3 84.5 18 74.6 18.5 63.3c.3-7.4 15.1-19.7 44.1-19.4 29.3.3 47.6 10.9 47.4 20.7S95.8 85.1 64.9 84.8"/><path fill="#eaeaea" d="M63.7 57.3c3.2-.4 1.7-5.8 4.4-11 6-11.8 17.7-13 17.4-23.1C85.1 12 68 6.7 62.7 11c-1.6 1.3 8 2.9 6.5 9.2-1.6 6.3-13.2 6.8-16 16.9-3.4 12 8.4 20.4 10.5 20.2" opacity=".6"/></svg>