<svg xmlns="http://www.w3.org/2000/svg" width="1em" height="1em" viewBox="0 0 128 128"><path fill="#B8885A" d="M3.84 82.02c-1.59-16.7 7.93-29.95 16-35.29c8.25-5.46 12.1-6.24 13.96-7.29c8.57-4.82 14.6-15.57 26.12-23.5c13.11-9.02 31.04-10.36 42.04-4.33c10.03 5.5 20.31 17.48 17.56 41.33c-2.75 23.85-62.67 63.1-72.95 63.66c-10.28.56-40.33-9.34-42.73-34.58"/><path fill="#875B52" d="M70.64 76.69c-4.71 2.76-22.4 20.29-42.7 19.81S4.52 86.21 4.52 86.21s2.91 17.1 16.91 27.23c15.84 11.46 32.64 6.95 37.54 5.85c7.27-1.63 13.69-4.97 20.12-8.46c6.43-3.49 29.29-14.5 38.27-31.83c9.91-19.12 7.55-34.44 2.6-45.58c-5.24-11.79-10.35-16.12-10.35-16.12s4.76 24.69-5.32 38.43c-14.3 19.49-28.94 18.2-33.65 20.96"/><path fill="#513531" d="M63.23 97.17c.06 1.26 4.55 1.16 7.81.63c3.45-.56 6.3-.61 6.78-1.94c.48-1.33-4.78-5.96-7.88-5.8c-1.94.11-6.8 5.27-6.71 7.11m23.36 2.43c.67.97 3.45-.51 4.47-1.84c1.02-1.33 2.17-3.9 1.25-4.47c-.92-.57-3.55-.56-4.85 1.04c-1.29 1.61-1.54 4.3-.87 5.27m30.66-61.32c-1.09-1.92-3.04 2.62-3.13 4.19c-.09 1.57 1.09 2.49 2.4 2.77c1.29.27 4.23-.79.73-6.96m-88.17 68.8c-.88 1.49.57 2.57 2.04 3.57c1.16.79 4 1.21 4.56.33c.57-.88-.55-2.07-2.67-3.85c-1.45-1.21-3.05-1.54-3.93-.05"/><path fill="#875B52" d="M17.4 84.24c-1.25.87-.24 4.73-.07 5.47c.17.74 5.15 1 5.89-.14s-.82-2.79-1.92-3.94c-1.1-1.14-2.65-2.26-3.9-1.39m8.9-8.99c1.54 2.09 4.33-.42 4.78-2.29c.48-2.01-1.21-3.32-3.12-2.13c-1.53.94-2.56 3.21-1.66 4.42m19.92-39.79c-2-.84-2.76.92-3.51 2.7s-3.17 5.02-1.65 5.47c1.52.45 5.1.24 5.99-1.21c.89-1.46 1.17-6.11-.83-6.96"/><path fill="#D9AC82" d="M12.07 79.48c2.2.99 5.62-3.69 7.19-5.94c2.31-3.31 5.79-7.49 13.94-12.54c11.18-6.92 22.85-5.18 28.85-10.39s9.48-15.54 14.06-20.66c8.37-9.36 17.06-2.97 18.27-7.5c1.21-4.53-4.99-8.38-12.31-8.37c-7.31.02-15.67 2.71-23.27 15s-9.49 16.05-16.54 18.27c-7.05 2.23-15.81 5.17-24.25 14.56c-4.69 5.22-9.61 15.92-5.94 17.57"/><path fill="#875B52" d="M82.77 33.82c.43 3.2 4.83 4.94 7.42 4.97c2.43.03 4.18-1.55 4.15-3.16c-.03-1.93-3.17-2.82-4.4-3.3c-2.41-.93-2.97-2.95-5.22-2.23c-2.04.66-2.01 3.23-1.95 3.72"/></svg>