<svg viewBox="0 0 128 128"><path fill="#b8885a" d="M3.8 82c-1.5-16.7 8-30 16-35.3 8.3-5.4 12.1-6.2 14-7.3C42.4 34.6 48.4 24 59.9 16 73 7 91 5.6 102 11.6c10 5.5 20.4 17.5 17.6 41.3S57 116 46.5 116.6 6.3 107.3 3.9 82"/><path fill="#875b52" d="M70.6 76.7C66 79.4 48.2 97 28 96.5S4.5 86.2 4.5 86.2s3 17.1 17 27.2c15.8 11.5 32.6 7 37.5 5.9 7.2-1.6 13.7-5 20-8.5s29.4-14.5 38.4-31.8a50 50 0 0 0 2.6-45.6c-5.3-11.8-10.4-16.1-10.4-16.1s4.8 24.7-5.3 38.4C90 75.2 75.3 74 70.6 76.7"/><path fill="#513531" d="M63.2 97.2c0 1.2 4.6 1.1 7.8.6 3.5-.6 6.3-.6 6.8-2S73 90 70 90.2c-1.9 0-6.8 5.2-6.7 7m23.4 2.5c.7 1 3.4-.5 4.5-1.8s2.1-4 1.2-4.5-3.5-.6-4.8 1-1.6 4.3-1 5.3m30.8-61.3c-1.1-2-3 2.6-3.2 4.2s1.1 2.5 2.4 2.7 4.3-.7.8-7M29 107.2c-.9 1.5.6 2.6 2 3.6 1.2.7 4 1.2 4.6.3s-.6-2-2.7-3.9c-1.4-1.2-3-1.5-4 0"/><path fill="#875b52" d="M17.4 84.2c-1.2 1-.2 4.8 0 5.5s5 1 5.8-.1-.8-2.8-1.9-4c-1.1-1.1-2.7-2.2-3.9-1.4m8.9-9c1.5 2.1 4.3-.4 4.8-2.2.5-2-1.2-3.4-3.1-2.2-1.6 1-2.6 3.2-1.7 4.5m20-39.8c-2-.9-2.8.9-3.6 2.7s-3.2 5-1.6 5.4 5 .3 6-1.2c.8-1.4 1.1-6-.9-7"/><path fill="#d9ac82" d="M12 79.5c2.3 1 5.7-3.7 7.3-6 2.3-3.3 5.8-7.4 13.9-12.5 11.2-7 22.9-5.2 28.9-10.4S71.5 35.1 76 30c8.4-9.4 17-3 18.3-7.5S89.4 14 82 14s-15.7 2.7-23.3 15-9.5 16-16.5 18.3c-7 2.2-15.8 5.1-24.3 14.5-4.7 5.2-9.6 16-6 17.6"/><path fill="#875b52" d="M82.8 33.8c.4 3.2 4.8 5 7.4 5 2.4 0 4.2-1.6 4.1-3.2 0-1.9-3.1-2.8-4.4-3.3-2.4-.9-3-3-5.2-2.2-2 .7-2 3.2-2 3.7"/></svg>