<svg viewBox="0 0 128 128"><path fill="#dfbca6" d="M27.1 7.6c-.3-.4-4.8-3.6-4.8-3.6s-6.4 1.4-7.2 6.8 4 11.3 4 11.3l-4.7-3s-7.6-.6-8.5 5.7 5.8 9.3 7.6 10.1 5.6 2.3 10.8 5.3 11.2 8.5 11.2 8.2 9.5 4.8 5.5-3.7S27 7.6 27 7.6"/><path fill="#ffebca" d="M46.7 41.3c-.3.2-11.2 2.5-11.2 2.5s-3.7-4.6-11.4-9.3S12 28.6 10.6 25c-.5-1.4-.6-4 1.2-5.2 3.5-2.4 7.7 1.8 10-.3 2.3-2.2-5.5-13 .5-15.4 4-1.7 7.3 1.9 9.3 5.6 1.4 2.6 1.4 6.6 4 12.2 3.1 7 10.7 14.2 10.7 14.2s.6 5.2.4 5.3"/><path fill="#ac5832" d="m44 43.4-8.4.4s-2.2-1.3-3.2.2.6 3 .6 3 6 6.6 7.6 9.8q2.5 4.5 4.8 15c1.7 7.3 2 16 4.7 22.4s2.7 8.1 6.3 13.4a76 76 0 0 0 12.1 12 41 41 0 0 0 38.6 0c5.7-3.8-8.9-36.7-11.5-40.8s-39.5-27-40.3-27.6z"/><path fill="#d27856" d="M35.6 43.8s.2-4.5 3.2-7.2c3.6-3.1 5.7-2.4 5.7-2.4s7 6.7 10.4 8.9 7.6 5.6 14.8 7.6c7.1 2 28.2 5 40 15.8 8.6 8 13.1 17.3 12.4 30.5s-13.4 24-21.3 24.6-13-1.1-16.2-2c-4-1.1-15.4-9.1-18.7-13s-6-10.3-8.9-21-6.7-22.5-8-24.7-13.4-17.1-13.4-17.1"/><path fill="#ac5832" d="M59.6 62.9c-2.1 1.9 1.1 4.2 2.7 7.5 1.2 2.4 2.9 8.7 6.3 6.7 3.5-2-.9-9-2.8-11.1s-4.5-4.7-6.2-3.1m3.6 24.4c-1.6 1-1 4.7 0 7.1.5 1.5 2.6 4.8 4.5 3.6s.6-5.4 0-6.7c-.7-1.4-2.7-5.3-4.6-4m11.2 13.9c-1 1.6.8 3 4.2 5.4 2.6 1.7 6.1 4.1 7.6 1.9s-2.6-5.3-5.2-6.6c-3-1.5-5.7-2.4-6.6-.7"/></svg>