<svg xmlns="http://www.w3.org/2000/svg" width="1em" height="1em" viewBox="0 0 128 128"><path fill="#DFBCA6" d="M27.1 7.58c-.32-.4-4.78-3.59-4.78-3.59s-6.46 1.44-7.18 6.78s3.91 11.32 3.91 11.32l-4.69-3.04S6.77 18.5 5.9 24.8s5.82 9.33 7.57 10.12s5.58 2.31 10.84 5.26s11.16 8.53 11.16 8.21s9.49 4.78 5.5-3.67S27.1 7.58 27.1 7.58"/><path fill="#FFEBCA" d="M46.71 41.31c-.32.16-11.16 2.47-11.16 2.47s-3.75-4.54-11.4-9.25s-12.25-5.93-13.53-9.6c-.5-1.45-.58-4.03 1.17-5.23c3.48-2.37 7.68 1.81 9.97-.32c2.31-2.15-5.42-12.92.56-15.39c3.98-1.65 7.25 1.91 9.25 5.58c1.45 2.66 1.42 6.62 3.99 12.2c3.19 6.94 10.76 14.27 10.76 14.27s.55 5.19.39 5.27"/><path fill="#AC5832" d="m44.03 43.39l-8.48.39s-2.19-1.32-3.17.24s.62 3.05.62 3.05s6 6.49 7.63 9.68c1.63 3.18 3.18 7.92 4.81 15.14c1.63 7.21 2.03 15.92 4.62 22.32c2.59 6.4 2.79 8.12 6.33 13.39c1.46 2.17 9.23 10.2 12.13 11.99c5.13 3.16 12.37 4.67 17.82 4.81c5.33.13 15.02-1 20.74-4.81c5.72-3.81-8.86-36.65-11.44-40.74c-2.59-4.09-39.51-26.98-40.33-27.66c-.83-.69-11.28-7.8-11.28-7.8"/><path fill="#D27856" d="M35.55 43.78s.24-4.51 3.28-7.19c3.55-3.14 5.7-2.4 5.7-2.4s6.93 6.75 10.32 8.9c3.39 2.15 7.69 5.57 14.82 7.6c7.13 2.04 28.21 5.09 39.94 15.84c8.67 7.95 13.24 17.31 12.45 30.44c-.79 13.13-13.35 23.99-21.27 24.67c-7.92.68-13.05-1.17-16.22-2.06c-4.03-1.13-15.36-9.1-18.64-13.06s-6.09-10.22-8.92-20.86s-6.68-22.52-7.92-24.78s-13.54-17.1-13.54-17.1"/><path fill="#AC5832" d="M59.6 62.85c-2.13 1.91 1.12 4.26 2.72 7.55c1.17 2.41 2.84 8.66 6.3 6.65c3.46-2-.91-9.01-2.83-11.1s-4.46-4.65-6.19-3.1m3.55 24.4c-1.54 1.08-1 4.73 0 7.19c.58 1.43 2.64 4.73 4.55 3.55s.55-5.37-.09-6.74c-.63-1.36-2.64-5.27-4.46-4m11.11 13.93c-.87 1.66.82 3 4.28 5.37c2.59 1.77 6.1 4.19 7.56 1.91s-2.63-5.28-5.19-6.56c-3.1-1.54-5.74-2.45-6.65-.72"/></svg>