<svg viewBox="0 0 128 128"><path fill="#f47a00" d="M62.4 120.4s36.4-3.8 43.3-9.8a64 64 0 0 0 9.6-13.3c2.3-3.8 3.8-6.5 5.2-10.3 2.7-7.6 4.1-30.3 0-41.6s-9.5-21.5-16.9-27.5A61 61 0 0 0 43 7.7c-8.4 3-13.1 6-16.3 8.8A58 58 0 0 0 9.9 38.3a64 64 0 0 0-5 17c-2.4 20.9 1.4 38.4 13.4 50.8s16.5 10.7 16.5 10.7z"/><path fill="#ffa726" d="M31.3 104.8s-2 0-4.1-1-10.5-12.6-12-17S10 66.6 11.6 59c1-4.3 2-7.6 2-7.6s4.2-11.2 4.7-14.8 5.1-7.7 7.4-10.3 3.8-5.2 7.9-7.6S42 16.4 44.9 15s6.8-3.8 10.8-5c7.6-2 12.2.2 16.3 0s8 1.2 13.2 4c3.6 1.8 6.4 4 9.6 6.7s7.8 4 11.1 8.3c3.2 4 3.8 8.6 5.7 13.7 1.9 5.2 4 8 4.3 11.3.4 3.5 0 6.2.2 10.1s1 7 .9 9.3c-.4 5-2.3 6-2.9 9.4-.5 3.5-2.7 7.5-3.8 9.7-3 6-8.5 9.1-10.8 10.7-4 2.7-68.2 1.6-68.2 1.6"/><path fill="#f27b00" d="M17.1 62c-3.5-.5-6.8 3.1-6.5 7.4s3 5.7 6.1 4.9c4-1 5.3-4.6 5.2-7.2s-1.2-4.7-4.8-5.1m22.6-26.6c-3.1-2.6-2-6-.3-8.2s6.3-3.2 8.2.2.5 5.7-1 7.3-4.9 2.3-7 .7m13.2-9.2c1.4 2.7 5.2 3.2 7.7 1.8s3.4-4.2 1.9-6.7a5.5 5.5 0 0 0-8-1.5 5 5 0 0 0-1.6 6.4m15.5 9.9c1.3 2.8 4.8 3.3 7.5 2s4.6-5 3-7.8c-1.7-2.8-5.3-3-7.7-1.4s-4.1 4-2.8 7.2m14.9-7.3c2.2 1.8 6.2.7 7.7-2 1-2 1.7-4.4-.6-6.7s-6-1.2-7.8 1.2c-1.3 2-1.7 5.6.7 7.5"/><path fill="#3c3c3c" d="M27.8 42.2c-1.7.1-1.4 3.6-1.5 8.6 0 4.7-1 14.7-.5 25.5.2 4.5-.2 17.2.2 23.6s.2 13.5.2 13.5 10.2 10.6 37.8 11c29 .5 40.8-13.4 40.8-13.4l-.3-24.4c0-10.2-.6-29.6-.6-32.7s.3-10.5-.8-11.5-9.2-.6-16.5-.4c-6.6.2-29.4.2-37.8.2s-17.5-.3-21 0"/><path fill="#858585" d="M31.8 49c-1.1.6-1.3 9.3-1 17.3S31 82 33.6 82.5s5.3-5.4 8-7.7 6-4 8.2-7.1 4.5-8.2 5.6-10.7c1.2-2.5 4.7-5.9 4.3-7.9S47 48 43.3 48s-9.3-.3-11.5 1m35-1.2c-1.7 1.2-3.3 5.5-4.5 7.6s-4.2 6.4-1.8 7.9c2.3 1.5 7.1-2 8.6-3s3.5-1.5 4.3-2.2 4.5-6.1 5.4-7 2.7-1.9 2.7-2.9-4.6-1-8.8-.9-5 0-6 .5M52.3 73.2c-1.1 1.6-3.1 5-.9 6.6 2.3 1.7 4.8-.1 6.6-2s2.6-4.4.5-6.6-4.8.1-6.2 2m-7.5 9c-1.2 0-3.9 3.9-6.3 4.9s-6 .4-6.6 2.6-2 11.8 0 13 7.5-.8 8.8-1.6 1-2.5 3.6-4.1c2.5-1.6 2.9-5.9 3-8.9s-.9-5.8-2.5-5.9"/></svg>