<svg viewBox="0 0 128 128"><path fill="#cdcbbf" d="M63.6 9.2C79.3 8.7 99.8 30 109.4 43c9.2 12.5 18 29.8 14.2 47s-19.1 24.7-35.8 26.7-54.4 2.5-67.1-4.6C7.9 105-.3 91.9 4.4 71 9.7 47.4 41.9 10 63.6 9.2"/><path fill="#fff" d="M63.8 14.8C51.2 14.8 30 36.5 23 46.5s-17 31-8 41.3 25.2 4.7 48 5 34.3.7 38.6-.2S114 88.3 116 79.1s-5-28-17.6-41.7c-14.8-16-25-22.6-34.6-22.6"/><path fill="#d4d4d4" d="M42.9 37.7c0 2.6 1.9 3.2 6 3s6-1 5.8-3.1c-.3-3-2.8-3-5.9-3s-6 .4-6 3M79.3 43c1 2.8 4 1.6 6.8.6s5-3 3.8-5.4c-1.3-2.7-3.9-.6-6 .3-2.5 1.1-5.6 1.8-4.6 4.5M56 28c.8 2 3.3 1.8 5.9.6 3.5-1.5 4.8-2.9 3.8-5.2s-4-1-5.7-.2c-1.7.7-5 2-4 4.8M27.3 46.2c-1.3 2.4 1 4.5 3.6 5.9s4.7 1.6 5.8 0c1.4-2.1-.1-3.6-3-5.4-3.5-2.2-5.6-2-6.4-.5M15 78.8c.2 2.1 1.3 2.9 5.6 2.6 4.4-.3 5.6-1.7 5.5-3.6-.2-2.6-3.1-2.6-6-2.2-3 .4-5.4.8-5.1 3.2m84-12.3c1.7 2.1 4.6-.4 6.1-2s4-3.7 2.1-5.8c-2-2.3-4.2.2-5.9 1.7S97 64 99.1 66.5m-2.8 14.1c0 3.4 3.2 3.2 5.8 3s5.8-.8 5.8-3.3-2.4-3-6-2.5-5.6.7-5.6 2.8"/><path fill="#3c3c3c" d="M35.5 59.6c1.8-.3 19 .4 28 0s26.4-.4 27.5-.2c2 .4 1.9 2 1.9 3.9V92c-.1 6 .5 23.5-.4 24.2s-6 1.6-9.1 1.8-17.5 2-41.1-.1c-3.2-.3-8.6-1.4-9-1.8s-.2-24-.1-30.7v-24c0-1.5 1.6-1.8 2.3-2"/><path fill="#858585" d="M73.7 80.7c.3 1 3 2.4 4.8 2.3s4-.8 4.5-2.2c.2-.8-.7-3-.6-3.6s0-3.1-1.7-3.9-3.8 2.5-4.5 3.2-1.5.6-2 1.4q-1 1.1-.5 2.8m-26 4.3c.4 1.7 2.8 2.2 3.6 2.5s2.6 1 4.4.9 5.6-3.6 6.2-4.8 1.7-3.7 3-4.5 10-5.2 9.8-7.3c-.2-1.6-1.2-3.3-4-3.5s-6.9 1.1-9.3 1.3-6.8.3-8.7 2-4.2 4.8-4.8 6.7a12 12 0 0 0-.3 6.7"/><path fill="#858585" d="M36.5 65.2 37 75c.3 5 .1 12.2.1 14.9s.6 13 2.5 13.2 4.8-1.3 5.1-4.1 0-8.8 0-9.7-2-4.6-1.8-5.3-1-5.3 1-8.6 5.4-6.6 6.7-7.3c.7-.5 8.4-2.2 8.4-2.2s4.2.3 5-2.4-4.3-1-6.8-1c-2.7.3-9.3.6-12.6.8s-8.5-1.7-8.3 2"/></svg>