<svg xmlns="http://www.w3.org/2000/svg" width="1em" height="1em" viewBox="0 0 128 128"><path fill="#F47A00" d="M62.36 120.37s36.46-3.78 43.34-9.8c3.44-3.01 7.35-9.44 9.63-13.24c2.28-3.81 3.78-6.54 5.16-10.32c2.75-7.57 4.13-30.27 0-41.62s-9.46-21.5-16.86-27.52C96.36 11.93 83.51 3.92 63.9 3.92c-8.75 0-15.38 1.84-20.98 3.78c-8.38 2.91-13.14 6.09-16.34 8.77c-3.84 3.23-11.44 9.9-16.68 21.85c-2.05 4.66-4.31 11.19-4.99 17.03c-2.41 20.81 1.37 38.36 13.41 50.74s16.51 10.66 16.51 10.66z"/><path fill="#FFA726" d="M31.28 104.83s-1.89 0-4.13-1.03s-10.49-12.56-12.04-17.03c-1.55-4.47-5.08-20.21-3.44-27.69c.94-4.27 2.06-7.57 2.06-7.57s4.16-11.22 4.68-14.83c.52-3.61 5.13-7.7 7.36-10.28s3.78-5.16 7.91-7.57s8.43-2.41 11.18-3.78c2.75-1.38 6.83-3.87 10.84-4.99c7.61-2.13 12.21.17 16.34 0c4.13-.17 8.04 1.13 13.11 3.85c3.61 1.94 6.4 4.17 9.66 6.75s7.79 4.13 11.11 8.31c3.18 4 3.78 8.6 5.68 13.76c1.89 5.16 3.97 7.88 4.32 11.32c.34 3.44.04 6.14.21 10.09s1.05 6.91.85 9.21c-.42 4.96-2.32 6.05-2.83 9.49c-.52 3.44-2.72 7.46-3.83 9.65c-3 5.93-8.51 9.14-10.83 10.68c-4.03 2.71-68.21 1.66-68.21 1.66"/><path fill="#F27B00" d="M17.12 61.96c-3.55-.47-6.79 3.16-6.56 7.43c.24 4.27 3.08 5.69 6.16 4.9c3.9-1 5.29-4.58 5.21-7.19s-1.27-4.67-4.81-5.14m22.55-26.61c-3.11-2.52-1.97-5.95-.29-8.13s6.31-3.19 8.24.17c1.93 3.36.49 5.7-1.04 7.3c-1.5 1.58-4.84 2.34-6.91.66m13.16-9.12c1.34 2.69 5.13 3.16 7.66 1.74c2.53-1.42 3.4-4.19 1.9-6.71c-1.48-2.49-5.29-3.63-8.06-1.42c-2.76 2.2-2.29 4.81-1.5 6.39m15.51 9.83c1.23 2.84 4.73 3.3 7.44 1.95c2.71-1.35 4.62-4.96 3-7.75c-1.63-2.78-5.28-3.03-7.71-1.35s-4.1 3.99-2.73 7.15m14.84-7.31c2.27 1.82 6.23.77 7.68-1.91c1.11-2.05 1.72-4.41-.57-6.7s-6.03-1.27-7.75 1.15c-1.35 1.92-1.73 5.57.64 7.46"/><path fill="#3C3C3C" d="M27.82 42.19c-1.7.12-1.45 3.61-1.53 8.59c-.08 4.76-1.02 14.75-.49 25.47c.22 4.51-.25 17.23.18 23.62c.44 6.4.18 13.55.18 13.55s10.25 10.62 37.8 11.02c29.02.42 40.86-13.46 40.86-13.46s-.32-17.51-.29-24.4c.04-10.19-.59-29.57-.59-32.7c0-3.13.26-10.51-.87-11.51s-9.16-.55-16.48-.37c-6.55.16-29.4.22-37.8.22s-17.46-.28-20.97-.03"/><path fill="#858585" d="M31.76 48.99c-1.07.65-1.25 9.27-1 17.3s.25 15.67 2.88 16.17c2.63.5 5.26-5.39 8.02-7.65c2.76-2.26 6.02-4.01 8.15-7.14c2.13-3.13 4.51-8.15 5.64-10.65c1.13-2.51 4.64-5.89 4.26-7.9c-.38-2.01-12.66-1.25-16.42-1.25c-3.76 0-9.27-.25-11.53 1.12m34.97-1.25c-1.59 1.13-3.26 5.51-4.39 7.52s-4.26 6.39-1.88 7.9c2.38 1.5 7.14-2.01 8.65-3.01c1.5-1 3.51-1.5 4.26-2.13c.75-.63 4.51-6.14 5.39-7.02c.88-.88 2.76-1.88 2.76-2.88s-4.64-1-8.77-.88s-5.14-.13-6.02.5M52.32 73.18c-1.16 1.58-3.13 5.01-.88 6.64c2.26 1.63 4.76-.13 6.52-2.01s2.63-4.39.5-6.64s-4.77.13-6.14 2.01m-7.52 9.03c-1.25-.1-3.89 3.89-6.27 4.89c-2.38 1-6.02.38-6.64 2.63c-.63 2.26-2.01 11.78 0 12.91s7.52-.75 8.77-1.5s1.13-2.51 3.63-4.14c2.51-1.63 2.88-5.89 3.01-8.9s-.88-5.77-2.5-5.89"/></svg>