<svg viewBox="0 0 128 128"><path fill="#bf0577" d="M111.2 15c0-1 1.8-11.2 3.8-10.7 3.6.9 2.8 5.3 2.9 7.2l1 11.2c.3 3.2 0 13.8-1.3 20.2s-4.4 14.4-5.9 17.6-7.1 12.9-9.4 16.2a101 101 0 0 1-15.6 14.6C83 93.7 76 97.7 73.9 98.6s-17.5-2-18.7-2.8 39.5-64.6 39.5-64.6z"/><path fill="#d5588b" d="M29.7 60.2c-.5 9 3.2 17.1 4.3 19s3.4 5.4 7.4 8.6S74 89 74 89s8.8-5.8 13.6-9.5c4.9-3.7 12.7-10.6 15.7-14.4s8.7-16.7 9.5-20.1A165 165 0 0 0 116 9.7c.1-2.6 1-5.1-1.7-6-3.6-1.3-6 3.7-6 3.7s-7.6 4.2-9.5 5S83 13 74.4 16c-8.8 3-20.6 10.3-27.6 16s-11.6 8.2-14.2 14.8-2.7 10.3-2.9 13.4"/><path fill="#fcc11a" d="M37.7 46.7a27 27 0 0 0-4 17A26 26 0 0 0 41.1 81c2.7 2.3 3.3 8 11 12s17 2.2 19.4 1.4c3.1-1 6.7-3.1 8-4.6s4.8-6 5.7-10.2 2-17.2-3.2-25.7c-4.7-7.9-9.2-9.5-11.7-11.5s-5-3-8.1-4.2c-3-1-7.6-2.8-15.4-.2-5.3 1.8-6.8 5.3-9 8.6"/><path fill="#a62910" d="M72.9 35.4c-.3 1.8 2.4 4.1 7 3.1 4.7-1 6.7-6.3 4.9-7.6-3-2.3-5.3 2.4-6.7 2.8-2.1.6-5 0-5.2 1.7m24.4 9.3c-3.4-.5-3.2-5.5-.3-8.6 2.6-2.7 7.7-1.8 7.5.8 0 1.2-1.5.5-3 2.3-1.4 1.5-.8 6-4.2 5.5m2.4-21c-.1 2.6 3.6 3 5.2 2.6 4.3-.9 6-6 4.2-6.7-1.9-.8-2 1.5-3.8 2-1.8.3-5.4-.5-5.6 2m2 30c-.8-2.2-6.1-1.9-8.9 3.7-2.4 5-.4 8 1.3 8.1 3 .2 2.8-4 3.9-6 1.7-3 4.7-3 3.7-5.9"/><path fill="#d5588b" d="M11 111.3c.8 1.3 7.8 12.5 30.4 12.7s30.4-11 30.9-12a61 61 0 0 0 1.8-10.7c.2-2.8 0-5.7-1.1-7.6s-5.4-3.7-6.8-5-1.6-4.4-11.3-7.6-22.5-2-26.7-.4c-2.5 1-2.9 2.7-6 3.7s-8 2.7-11 5c-3.7 2.9-2.5 5.1-2.9 6.3a32 32 0 0 0 2.8 15.6"/><path fill="#fad675" d="M10.6 96.5c-.2 5.1 7 15.5 31.6 16 21.3.5 29.6-10 29.7-14.5s-4.3-4.7-7.3-7.4-2.9-4.8-10.1-7.1c-6.5-2.1-17-2.7-23.3-1s-4.6 3.7-8.6 5-11.8 3.7-12 9"/></svg>