<svg xmlns="http://www.w3.org/2000/svg" width="1em" height="1em" viewBox="0 0 128 128"><path fill="#bf0577" d="M111.15 14.95c0-.96 1.86-11.2 3.84-10.69 3.65.94 2.76 5.33 2.9 7.25s.68 8.03.96 11.19 0 13.84-1.23 20.17-4.4 14.44-5.91 17.6-7.14 12.93-9.42 16.21C99.81 80.25 89.96 89 86.66 91.27c-3.55 2.44-10.7 6.47-12.77 7.29s-17.47-1.93-18.7-2.75 39.47-64.64 39.47-64.64z"/><path fill="#d5588b" d="M29.73 60.16c-.55 9.08 3.17 17.19 4.27 19.12s3.44 5.36 7.43 8.53c3.99 3.16 32.59 1.1 32.59 1.1s8.8-5.78 13.62-9.49c4.81-3.71 12.65-10.59 15.68-14.44s8.66-16.64 9.49-20.08 2.61-15.82 2.75-21.45c.14-5.64.28-11.14.41-13.75.14-2.61 1.11-5.12-1.65-6.05-3.61-1.22-6.05 3.71-6.05 3.71s-7.56 4.26-9.49 4.95-15.82.83-24.34 3.71C65.61 19 53.8 26.33 46.79 31.97s-11.55 8.25-14.17 14.85c-2.61 6.6-2.7 10.31-2.89 13.34"/><path fill="#fcc11a" d="M37.71 46.72c-3.7 5.22-4.23 11.49-3.99 16.92.28 6.19 2.89 13.48 7.43 17.47 2.65 2.33 3.3 7.98 10.86 11.97s17.07 2.25 19.54 1.46c3.05-.96 6.64-3.14 8.02-4.65s4.76-6.03 5.59-10.16 2.03-17.27-3.13-25.76c-4.78-7.87-9.25-9.45-11.73-11.51s-5.09-3.03-8.11-4.13c-3.03-1.1-7.58-2.8-15.35-.2-5.37 1.79-6.79 5.29-9.13 8.59"/><path fill="#a62910" d="M72.88 35.39c-.3 1.81 2.43 4.11 6.98 3.11 4.72-1.04 6.72-6.28 4.91-7.64-3.02-2.26-5.23 2.43-6.7 2.83-2.08.57-4.91 0-5.19 1.7m24.42 9.28c-3.45-.48-3.18-5.48-.27-8.53 2.58-2.7 7.65-1.83 7.51.81-.06 1.13-1.51.44-3.11 2.23-1.35 1.51-.75 5.96-4.13 5.49m2.43-21.06c-.14 2.64 3.56 3.05 5.21 2.71 4.26-.88 6.03-6.09 4.2-6.77-1.91-.71-2.03 1.56-3.86 1.96-1.82.4-5.41-.41-5.55 2.1m1.97 29.92c-.78-2.18-6.1-1.83-8.87 3.79-2.44 4.94-.41 8.02 1.22 8.12 3.11.2 2.84-4.04 3.93-5.96 1.75-3.11 4.73-3.11 3.72-5.95"/><path fill="#d5588b" d="M11.06 111.34c.69 1.24 7.71 12.47 30.36 12.66s30.34-11.09 30.83-11.98c.49-.88 1.67-7.84 1.86-10.69.2-2.84.02-5.75-1.15-7.62s-5.35-3.67-6.73-4.95c-1.37-1.27-1.63-4.5-11.34-7.64s-22.52-2.04-26.64-.38c-2.54 1.03-2.9 2.68-6.03 3.66s-7.95 2.73-10.98 5.04c-3.73 2.84-2.53 5.11-2.92 6.28s.1 6.08.59 8.73c.48 2.67 1.66 6.01 2.15 6.89"/><path fill="#fad675" d="M10.57 96.53c-.2 5.1 7.06 15.42 31.67 15.98 21.28.49 29.52-10 29.61-14.51.1-4.61-4.22-4.71-7.26-7.45-3.04-2.75-2.84-4.71-10.1-7.06-6.48-2.1-17.06-2.65-23.24-.98s-4.61 3.73-8.63 4.9-11.85 3.82-12.05 9.12"/></svg>