<svg xmlns="http://www.w3.org/2000/svg" width="1em" height="1em" viewBox="0 0 128 128"><path fill="#598b15" d="M30.94 78.75c0-.94-.31-14.43-1.57-19.29s-3.61-7.06-4.24-14.12 3.47-12.98 5.34-15.19c3.45-4.07 8.46-5.98 8.46-5.98S37.76 17 43.32 13.66C49.6 9.89 54.31 16 55.25 16.47S75.33 6.44 75.33 6.44s3.45-2.61 10.2-2.51c9.32.13 13.15 5.79 14.9 7.84 2.67 3.14 4.92 10.73 4.77 15.28s-1.23 6.71-.71 7.79 3.37.55 5.93 3.62c2.35 2.82 5.5 7.29 5.66 15.6.15 8.05-7.72 18.69-9.6 20.41-1.88 1.73-4.09 3.48-5.66 5.84-1.57 2.35-3.53 7.09-7.6 10.23-4.08 3.14-10.34 4.36-14.42 4.83s-8.2-.34-11.04 1.53c-2.94 1.93-6.42 10.17-12.08 14.59-3.32 2.6-6.13 3.6-9.31 3.77-4.88.27-7.01-.91-8.98-1.47-3.31-.94-6.45-35.04-6.45-35.04"/><path fill="#85bb41" d="M22.43 102.03s-6.64-4.85-4.8-14.03c1.64-8.2 6.44-11.65 8.62-19.27 2.16-7.56.88-10.87.33-14.45-.6-3.91-.92-4.21-.47-4.41.47-.21 4.83 11.78 4.83 12.05.09 3.47 1.08 9.31.35 12.85s-7.63 8.62-8.08 12.07-1.82 11.17-1 13.25c.82 2.09 4.81 2.83 4.81 2.83z"/><radialGradient id="a" cx="102.033" cy="18.288" r="125.793" gradientUnits="userSpaceOnUse"><stop offset=".554" stop-color="#85bb41"/><stop offset=".614" stop-color="#a2c65f"/><stop offset=".706" stop-color="#c9d487"/><stop offset=".779" stop-color="#e1dda0"/><stop offset=".823" stop-color="#eae0a9"/></radialGradient><path fill="url(#a)" d="M22.94 101.02c-.36.48-1.81 2.29-3.38 3.62s-5.07 2.17-4.95 3.02c.12.84 10.13 9.89 10.13 9.89l8.3 5.97s2.44-2.87 3.98-5.66c.84-1.52 1.84-3.57 1.84-3.57s2.66 1.22 6.77.56c6.15-.98 11.71-8.11 14.11-12.38 1.52-2.7 4.33-8.09 8.79-10.62s9.81-2.96 14.88-5.73c3.97-2.18 9.37-6.94 11.54-10.43 2.17-3.5 2.05-4.8 2.05-4.8s11.7-13.54 7.72-28.5-7.96-13.27-10.74-17.13c-2.77-3.86-3.14-13.63-12.79-17.61s-19.29-.02-24.27 4.04c-4.79 3.9-12.74 10.26-17.13 24.94-2.27 7.61-.01 20.15-.3 23.44-.48 5.4-6.9 12.61-6.9 12.61s-7.24 8.2-7.6 9.17-3.02 12.91-3.02 12.91z"/><path fill="#598b15" d="M41.65 101.91c.91.09 8.08-.91 12.98-7.35s4.81-14.07 4.72-13.8-12.62 1.63-12.8 5.9c-.18 4.26-4.9 15.25-4.9 15.25"/><path fill="#e9e7d7" d="M26.28 104.73s-6.9-2.26-6.28-11.74c.6-9.25 8.07-13.44 9.43-23.83.66-5.03-.74-8.95-1.98-13.16-1.35-4.59-2.45-9.03-1.7-7.54 1.17 2.33 2.03 3.85 4.75 10.41 1.63 3.93 2.94 8.67 2.33 13.46-.99 7.79-8.34 14.15-8.97 20.58-.74 7.54 3.05 10.77 3.05 10.77z"/><path fill="#e9e7d7" d="M30.04 111.83c-2.32-2.05-5.57-6.43-3.96-12.12 2.1-7.42 6.68-9.77 11.25-16.7s5.32-13.45 5.41-20.39c.12-9.28.65-16.72 2.26-17.21s.78 9.26 1.15 17.3c.26 5.56.95 14.11.95 14.11s4.91-4.12 6.09-9.69c2.1-9.89-1.86-20.6-1.02-31.74.63-8.29 4.56-16.34 8.53-20.65 2.84-3.09 5.69-5.44 6.55-4.95s-4.95 6.43-7.54 13.36-3.2 13.73-2.21 21.15 2.38 14.78 3.25 14.53 6.16-10.77 7.81-18.86c1.61-7.92 2.43-13.23 6.26-18.55s8.29-8.41 9.03-7.67c1.31 1.31-3.56 3.7-6.77 11.61-1.92 4.72-1.88 7.97-3.54 16.15-.85 4.21-4.01 13.63-3.89 14.01s4.46-1.82 7.55-4.04 8.51-6.34 13.33-12.65c2.73-3.58 4.57-6.53 5.81-5.67 1.24.87-4.3 11.54-9.42 16.31-7.3 6.8-16.68 11.89-16.68 12.87s8.94.19 17.85-2.27c7.17-1.98 14.8-7.5 15.67-6.14s-8.04 6.41-13.84 8.66c-9.28 3.59-17.08 3.22-22.4 6.43-5.32 3.22-8.5 8.54-9.03 9.52-.19.35 8.9-2.1 17.56-3.34s20.53-5.44 20.9-4.08-4.33 4.08-14.72 6.55-18.3 4.82-23.99 8.41S48.97 94.02 46 99.21s-3.02 13.37-7.35 15.23c-2.85 1.22-6.5-.76-8.61-2.61"/><path fill="#b5cf17" d="M14.75 107.1c-1.28.64-.77 2.53-.01 3.68 1.15 1.77 3.1 3.78 7.77 7.43 3.63 2.83 5.45 4.12 7.55 5.03 1.64.71 3.29.75 3.56-.35.07-.28-5.89-4.15-9.64-7.13-6.46-5.12-8.95-8.8-9.23-8.66"/></svg>