<svg viewBox="0 0 128 128"><path fill="#598b15" d="M31 78.8c0-1-.4-14.5-1.6-19.3s-3.6-7.1-4.3-14.2 3.5-13 5.4-15.1c3.4-4.1 8.4-6 8.4-6s-1.1-7.2 4.4-10.5c6.3-3.8 11 2.3 12 2.8s20-10 20-10 3.5-2.7 10.2-2.6c9.4.2 13.2 5.8 15 7.9 2.6 3.1 4.9 10.7 4.7 15.3s-1.2 6.7-.7 7.7 3.4.6 6 3.7c2.3 2.8 5.4 7.3 5.6 15.6.1 8-7.7 18.7-9.6 20.4s-4.1 3.4-5.7 5.8c-1.5 2.4-3.5 7.1-7.6 10.2-4 3.2-10.3 4.4-14.4 4.9s-8.2-.4-11 1.5c-3 2-6.5 10.2-12.1 14.6a16 16 0 0 1-9.3 3.8c-5 .2-7-1-9-1.5-3.3-1-6.5-35-6.5-35"/><path fill="#85bb41" d="M22.4 102s-6.6-4.8-4.8-14c1.7-8.2 6.5-11.6 8.6-19.3 2.2-7.5 1-10.8.4-14.4-.6-4-1-4.2-.5-4.4s4.8 11.8 4.8 12c.1 3.5 1.1 9.3.4 12.9s-7.6 8.6-8 12-2 11.2-1 13.3c.7 2 4.7 2.8 4.7 2.8z"/><radialGradient id="a" cx="102" cy="18.3" r="125.8" gradientUnits="userSpaceOnUse"><stop offset=".6" stop-color="#85bb41"/><stop offset=".6" stop-color="#a2c65f"/><stop offset=".7" stop-color="#c9d487"/><stop offset=".8" stop-color="#e1dda0"/><stop offset=".8" stop-color="#eae0a9"/></radialGradient><path fill="url(#a)" d="M23 101c-.4.5-1.9 2.3-3.4 3.6s-5.1 2.2-5 3c.1.9 10.1 10 10.1 10l8.3 6s2.5-3 4-5.7l1.9-3.6s2.6 1.2 6.7.6c6.2-1 11.7-8.2 14.1-12.4 1.6-2.7 4.4-8.1 8.8-10.6s9.8-3 15-5.8c3.9-2.2 9.3-7 11.4-10.4 2.2-3.5 2.1-4.8 2.1-4.8s11.7-13.6 7.7-28.5S96.7 29 94 25.3c-2.8-3.9-3.2-13.7-12.8-17.6s-19.3 0-24.3 4c-4.8 3.9-12.7 10.3-17.1 25-2.3 7.5 0 20-.3 23.4-.5 5.4-7 12.6-7 12.6s-7.1 8.2-7.5 9.2-3 12.9-3 12.9z"/><path fill="#598b15" d="M41.7 102c.9 0 8-1 13-7.4s4.7-14.1 4.6-13.8-12.6 1.6-12.8 5.9c-.1 4.2-4.9 15.2-4.9 15.2"/><path fill="#e9e7d7" d="M26.3 104.7s-7-2.2-6.3-11.7c.6-9.3 8-13.4 9.4-23.8.7-5-.7-9-2-13.2-1.3-4.6-2.4-9-1.6-7.5 1.1 2.3 2 3.8 4.7 10.4a26 26 0 0 1 2.3 13.4c-1 7.8-8.3 14.2-9 20.6-.7 7.6 3.1 10.8 3.1 10.8z"/><path fill="#e9e7d7" d="M30 111.8a12 12 0 0 1-4-12c2.2-7.5 6.8-9.9 11.3-16.8s5.4-13.4 5.4-20.4c.2-9.3.7-16.7 2.3-17.2s.8 9.3 1.1 17.3l1 14.1s5-4.1 6-9.7c2.2-9.9-1.8-20.6-1-31.7.7-8.3 4.6-16.3 8.6-20.7 2.8-3 5.7-5.4 6.5-5s-4.9 6.5-7.5 13.5-3.2 13.7-2.2 21.1 2.4 14.8 3.3 14.5 6.1-10.7 7.8-18.8c1.6-8 2.4-13.3 6.2-18.6s8.3-8.4 9-7.6c1.4 1.3-3.5 3.6-6.7 11.6-2 4.7-1.9 8-3.6 16.1-.8 4.2-4 13.6-3.8 14s4.4-1.8 7.5-4 8.5-6.4 13.3-12.7c2.8-3.5 4.6-6.5 5.8-5.6 1.3.8-4.3 11.5-9.4 16.3-7.3 6.8-16.7 11.9-16.7 12.8s9 .2 17.9-2.2c7.2-2 14.8-7.5 15.7-6.2s-8 6.4-13.9 8.7c-9.3 3.6-17 3.2-22.4 6.4a28 28 0 0 0-9 9.5c-.2.4 8.9-2 17.6-3.3s20.5-5.4 20.9-4-4.4 4-14.8 6.5-18.3 4.8-24 8.4S49 94 46 99.2s-3 13.4-7.3 15.2c-2.9 1.3-6.6-.7-8.7-2.6"/><path fill="#b5cf17" d="M14.8 107.1c-1.3.6-.8 2.5 0 3.7 1 1.8 3 3.8 7.7 7.4a35 35 0 0 0 7.6 5c1.6.8 3.2.8 3.5-.3 0-.3-5.9-4.2-9.6-7.1-6.5-5.2-9-8.8-9.3-8.7"/></svg>