<svg xmlns="http://www.w3.org/2000/svg" width="1em" height="1em" viewBox="0 0 128 128"><path fill="#DCEDF6" d="m48.83 32.34l-9.85 12.99l-8.14 63.68l14.85 10.71s26.56.86 27.84.29s21.99-9.57 21.99-9.57l-8-65.82l-10.99-13.13z"/><path fill="#E0E0E0" d="M37.41 69.04s1.86-4.28 12.99-5.85c6.02-.85 9.26.8 13.72.68c5.76-.15 9.24-1.32 14.83.17c7.29 1.95 9.64 7.15 9.64 7.15s2.93 9.41 2.21 9.41s-56.54 8.42-56.54 8.42z"/><path fill="#FFF" d="M31.61 98.9s3.04 13.76 32.84 13.92c17.68.09 22.17-3.94 24.53-5.32c2.36-1.39 5.2-5.07 5.2-5.07l-1.93-17.41l-1.84-11.62s-3.12-1.82-7.55-.71c-2.08.52-6.77 3.02-10.27 4.49s-6.69 3.34-15.17 2.77c-7.77-.52-12.39-6.44-15.16-8.4s-5.54-2.85-5.54-2.85z"/><path fill="#E0E0E0" d="M70.75 89.52c-1.05 0-1.85.53-2.08 1.91s.97 2.15 1.89 2.01c1.2-.19 1.57-1.34 1.57-2.2c0-.86-.51-1.72-1.38-1.72m10.56 1.02c-.54 1.05.09 2.58 1.29 2.81c1.2.23 2.1-.78 2.03-1.94c-.09-1.61-2.49-2.49-3.32-.87m3 9.22c-.72.87-.14 2.86 1.38 2.91c1.52.05 2.11-1.69 1.38-2.81c-.59-.93-1.84-1.21-2.76-.1m-16.51 7.61c0 1.02.55 1.75 1.8 1.71c1.25-.05 1.43-1.38 1.34-2.08c-.09-.69-.46-1.38-1.61-1.38s-1.53 1.15-1.53 1.75m-5.45-7.88c-.74-.83-2.17-.64-2.91.32c-.6.78-.56 2.93 1.48 2.86c1.39-.05 2.63-1.85 1.43-3.18m-22.19 3.22c-.75.82-.6 2.17.32 2.86c.92.69 2.17.37 2.54-.37c.35-.71.09-1.94-.55-2.44s-1.75-.65-2.31-.05"/><path fill="#A6CFD6" d="M99.63 109.81c-.18-1.32-2.91-11.28-4.49-21.93c-1.59-10.66-3.79-30.84-4.14-37.53c-.35-6.69-1.98-9.44-3.31-10.5c-1.32-1.06-42.85-4.74-42.85-4.74s-4.95 2.79-6.69 5.29c-1.23 1.76-1.5 2.73-1.94 5.29c-.44 2.55-1.32 13.3-1.5 16.65c-.18 3.35-1.94 17.09-3.17 23.26c-1.23 6.17-3.61 20.97-3.88 22.64c-.26 1.67.35 4.23 1.85 5.37c1.5 1.15 15.96 9.5 17.81 10.03c1.85.53 28.55.68 30.64.28c2.51-.49 19.14-7.97 20.61-9.34c.76-.71 1.24-3.45 1.06-4.77M49.82 75.2c-.62 9.14-3.11 36.37-4.88 37.61c-1.77 1.25-10.6-4.26-11.54-5.82s2.49-17.56 3.53-26.39c.61-5.2 2.83-31.16 3.64-33.15c.47-1.14 2.94.44 5.34 1.61c2.49 1.21 4.92 1.93 5.18 2.76c.52 1.67-.65 14.24-1.27 23.38m23.58 41.05c-1.25.52-5.51.67-9.88.72c-4.82.05-8.8-.37-10.45-1.84c-1.97-1.77-.46-13.83.37-25.89c.63-9.14 2.21-34.64 2.48-36.06c.31-1.66 3.98 0 8.14 0c4.78 0 8.2-1.43 8.41.34c.21 1.77.51 12.34.92 18.89c.42 6.55 2.18 39.28 2.18 41.04s-.92 2.28-2.17 2.8m20.27-8.42c-.31 2.39-9.88 6.63-11.01 5.71c-1.56-1.25-2.91-18.18-3.74-26.81c-.83-8.62-2.18-32.69-2.18-34.08c0-1.26 2.58-1.62 4.64-2.78c2.15-1.21 4.08-2.74 4.4-2.21c.62 1.04 1.35 14.24 2.81 29.61c1.44 15.39 5.39 28.17 5.08 30.56"/><path fill="#6CA4AE" d="M55.54 32.1L42.6 36.13s-1.78 1.21-2.76 2.25c-.84.89-1.69 2.01-1.69 2.01s10.6 8.65 25.19 9.14c14.59.49 25.11-8.94 25.11-8.94s-1-1.41-2.22-2.27c-1.22-.85-6.63-3.78-6.63-3.78z"/><path fill="#AEB0B1" d="M42.17 32.53s-1.73 1.99-.37 4.64c1.55 3.02 8.42 8.41 21.55 8.06c16.18-.43 20.96-7.57 21.25-8.06c.43-.73.92-1.83.98-3.17c.06-1.34-.85-2.14-.85-2.14s3.85-4.52 3.97-10.99s-3-13.07-13.69-16.12c-9.24-2.64-20.7-.98-26.13.73c-4.46 1.4-11 6.11-11.11 14.65c-.12 9.28 4.4 12.4 4.4 12.4"/><path fill="#E0E0E0" d="M42.82 14.65c-.28 4.51 4.79 7.64 20.9 7.92c17.28.31 20.15-5.37 20.27-7.75c.15-2.84-2.99-9.4-20.51-9.52c-16.31-.12-20.51 6.84-20.66 9.35m1.48 19.77c-.6 1.41 4.79 7.85 18.89 7.85s20.28-6.23 19.02-7.73c-.85-1.02-6.85 4.33-18.75 4.03c-16.18-.42-18.3-6.16-19.16-4.15"/><path fill="#5E6367" d="M48.99 14.35c.06 1.89 2.14 2.23 4.18 2.23c2.29 0 4.06-.77 4.09-2.14c.03-1.36-1.15-2.63-4.33-2.51c-2.67.11-3.99 1.06-3.94 2.42m10.12-5.07c-.1 1.48 1.55 2.48 4.15 2.32c2.94-.17 4.06-1.15 4.09-2.42c.03-1.43-1.92-2.26-4.27-2.17c-2.36.1-3.88.91-3.97 2.27m10.12 6c.09 1.86 2.39 2.14 3.99 2.07c2.97-.12 3.87-1.08 3.87-2.42c0-1.7-1.95-2.38-3.87-2.42s-4.08.92-3.99 2.77"/></svg>