<svg viewBox="0 0 128 128"><path fill="#dcedf6" d="m48.8 32.3-9.8 13-8.2 63.7 14.9 10.7s26.5.9 27.8.3l22-9.6-8-65.8-11-13.1z"/><path fill="#e0e0e0" d="M37.4 69s1.9-4.2 13-5.8c6-.9 9.3.8 13.7.7 5.8-.2 9.3-1.3 14.9.1 7.2 2 9.6 7.2 9.6 7.2s3 9.4 2.2 9.4S34.3 89 34.3 89z"/><path fill="#fff" d="M31.6 98.9s3 13.8 32.9 14c17.6 0 22.1-4 24.5-5.4s5.2-5 5.2-5l-2-17.5-1.8-11.6s-3.1-1.8-7.5-.7c-2.1.5-6.8 3-10.3 4.5s-6.7 3.3-15.2 2.8c-7.7-.6-12.4-6.5-15.1-8.4s-5.6-2.9-5.6-2.9z"/><path fill="#e0e0e0" d="M70.8 89.5q-1.7-.1-2.1 2c-.4 2 1 2 1.9 2 1.2-.3 1.5-1.4 1.5-2.3s-.5-1.7-1.3-1.7m10.5 1c-.5 1 .1 2.6 1.3 2.8s2.1-.7 2-1.9c0-1.6-2.5-2.5-3.3-.9m3 9.3c-.7.8-.1 2.8 1.4 2.9s2.1-1.7 1.4-2.8c-.6-1-1.9-1.3-2.8-.1m-16.5 7.6q0 1.6 1.8 1.7c1.3 0 1.4-1.4 1.3-2.1q.1-1.2-1.6-1.4c-1.7-.2-1.5 1.2-1.5 1.8m-5.4-8c-.8-.7-2.2-.6-3 .4-.6.8-.5 3 1.5 2.9 1.4 0 2.6-1.9 1.4-3.2m-22.1 3.2c-.8.8-.6 2.2.3 2.9s2.1.3 2.5-.4.1-2-.5-2.4-1.8-.7-2.3 0"/><path fill="#a6cfd6" d="M99.6 109.8c-.1-1.3-2.9-11.3-4.5-22C93.6 77.3 91.4 57 91 50.5s-2-9.5-3.3-10.6-42.9-4.7-42.9-4.7-5 2.8-6.7 5.3a11 11 0 0 0-1.9 5.3c-.4 2.5-1.3 13.3-1.5 16.6s-2 17.1-3.2 23.3-3.6 21-3.8 22.6c-.3 1.7.3 4.3 1.8 5.4s16 9.5 17.8 10 28.6.7 30.7.3c2.5-.5 19.1-8 20.6-9.3.7-.7 1.2-3.5 1-4.8M49.8 75.2c-.6 9.1-3 36.4-4.9 37.6-1.7 1.3-10.6-4.2-11.5-5.8s2.5-17.6 3.5-26.4c.6-5.2 2.9-31.2 3.7-33.1.4-1.2 3 .4 5.3 1.6 2.5 1.2 5 1.9 5.2 2.7.5 1.7-.7 14.3-1.3 23.4m23.6 41c-1.3.6-5.5.7-9.9.8-4.8 0-8.8-.4-10.4-1.9-2-1.7-.5-13.8.3-25.9.7-9.1 2.2-34.6 2.5-36 .3-1.7 4 0 8.2 0 4.7 0 8.2-1.5 8.4.3s.5 12.4.9 19l2.2 41c0 1.7-1 2.2-2.2 2.7m20.3-8.4c-.3 2.4-10 6.7-11 5.7-1.6-1.2-3-18.1-3.8-26.8a1033 1033 0 0 1-2.2-34c0-1.3 2.6-1.7 4.7-2.8 2.1-1.2 4-2.8 4.4-2.2.6 1 1.3 14.2 2.8 29.6s5.4 28.1 5 30.5"/><path fill="#6ca4ae" d="m55.5 32.1-12.9 4s-1.8 1.2-2.8 2.3l-1.6 2s10.6 8.6 25.1 9.1 25.2-9 25.2-9-1-1.3-2.3-2.2l-6.6-3.8z"/><path fill="#aeb0b1" d="M42.2 32.5s-1.8 2-.4 4.7c1.6 3 8.4 8.4 21.6 8 16.1-.4 21-7.5 21.2-8q.8-1.2 1-3.2c.2-2-.9-2.1-.9-2.1s3.9-4.6 4-11S85.7 7.8 75 4.7c-9.2-2.6-20.7-1-26.1.8-4.5 1.4-11 6-11.1 14.6-.1 9.3 4.4 12.4 4.4 12.4"/><path fill="#e0e0e0" d="M42.8 14.7c-.3 4.5 4.8 7.6 21 7.9 17.2.3 20-5.4 20.2-7.8.1-2.8-3-9.4-20.5-9.5-16.3-.1-20.5 6.8-20.7 9.4m1.5 19.7c-.6 1.4 4.8 7.9 18.9 7.9s20.3-6.3 19-7.8c-.8-1-6.8 4.4-18.7 4-16.2-.3-18.3-6-19.2-4"/><path fill="#5e6367" d="M49 14.4c0 1.8 2.1 2.2 4.2 2.2 2.3 0 4-.8 4-2.2 0-1.3-1-2.6-4.3-2.5q-4 .2-4 2.4m10.2-5q.1 2.4 4.2 2.3 4.2-.4 4-2.4c0-1.5-1.9-2.3-4.2-2.2q-3.7.2-4 2.3m10.1 6c.1 1.8 2.4 2.1 4 2 3 0 3.9-1 3.9-2.4 0-1.7-2-2.4-3.9-2.4s-4 1-4 2.8"/></svg>