<svg viewBox="0 0 128 128"><path fill="#d46f1e" d="M120.8 78.8c-1 2-14.6 13.8-23.1 21.1s-18.2 13.8-18.2 13.8l-7.5-.4 1.4-62.4L119.6 66s1.3 1 1.5 3.2.6 7.8-.3 9.6"/><path fill="#e48216" d="M12.2 81.7c-1 .2-2.5.3-3.1 3.6s0 9.7 2.3 12c5 5 11.9 6.6 17.2 7.2 4.7.5 7.4 0 8.7.7 2.3 1.4 2.3 4 8.2 7.5 4.5 2.6 12.3 5 17.7 5 9 0 16.3-4 16.3-4l-.2-12.5-5.2-28.6z"/><path fill="#fadfb1" d="M18.2 92.5c9.9 3.7 22.1 2.3 22.1 2.3s2.8 6.2 12.7 9.4 21.8 1.6 29.6-3.8 21.1-18 25.7-21.7 10.8-9.6 11-11-25.4-21.5-25.4-21.5-80.3 36.6-82 37.7c-1.4 1 .1 6.2 6.3 8.5"/><path fill="#ec8b7a" d="M14.8 74.7s-5.1.3-5.1 3.8 1.9 6.5 6.7 8.7 15.3 5 23.5 6.9c8.3 1.9 21 9 28.5 9.8 7.2.7 13-5.6 16.4-8.7s20-16 23.9-19.8L120.6 63 65.4 42.9z"/><path fill="#d45e51" d="M19 80s-2 0-3.3-.3-3.6-1.2-3.3-.2 2.4 3.1 6.6 5c4.5 2 10.4 2.5 10.3 2.3 0 0 3 2.3 6.3 3.4 4 1.3 8.2 2.5 11.5 2.8q4.3.2 2.5-1.5c-1.8-1.7-4-3-4-3l-15.7-9.2zm34.5 13.6c-.1 1 4.7 3.6 8.2 5.1s9.6 3.4 9.3-1c-.2-3-4-3.4-8.3-3.8-4.5-.4-9-1.1-9.2-.3"/><path fill="#b7d019" d="M12.7 57.6s-5 9.2-6.6 8.8-2.3-1.5-3-.5-1 7.9 3 9 4.3-.3 6.6.7 5.3 2.7 5.3 2.7-1.8 1.6-1.5 2 3.2 2 4.5 3.2 1.7 2.8 8 3.8 7.7 1 10 .6 3.2-1.3 3.2-1.3 3.3 4.4 6.6 4.6 4.3-1 5.4-1-.6 1.1 3 1.1 7.4.4 12 1.6c3.3 1 6.4 4.2 8.5 5s5.3 0 6.2-1 .9-3.4 2.6-5.2 6.3-4.2 7.9-5.8 2.5-6.9 2.5-6.9 2.2 1.7 4 1.3 4-3.6 5.6-3.9 3.3-.7 4.9-2.3 1-5.7 2-6.4 4.8 1.6 6.8 1 4-3.5 3.5-5.4-.9-2.2-.9-3.3 1.2-3-.3-4.8-26.7-11.9-26.7-11.9z"/><path fill="#96a819" d="M21 72.9s-1.2 2.6-.7 3.2 7.3 6.1 9 6.3 13.5-.3 13.5-.3l-5.1-9.3zm43.3 1.6S59 86 59.7 87s5.8 1.2 10.2 2.4 5.7 1.8 7.2 1.8 7.5-3.5 7.6-4.6-4.7-6.7-4.7-6.7zM94.7 71 93 75.8s8.5.5 12.4-1.3S112 66 113.2 64c1.6-2.8 4-5.2 3.8-6.2s-6-5-6-5z"/><path fill="#dc0d2a" d="M95.5 72s-9.3 2.4-9.5 3-8.7 9.8-8.7 9.8 6.3 3 13.3-1c7-3.9 4.9-11.8 4.9-11.8m22.7-27.4s5 1.4 4.2 7.6c-1 7.4-13.3 7-13.3 7s-3.3-8.8-2.8-9.2 11.9-5.4 11.9-5.4M44.8 72.8l-7.5 3.8s1.2 7.8 13.7 10 19.3-8.7 19.3-8.7zm-22.4-8-8.2.3s-.3 5.3 4 8.4c5.3 3.8 13 2 13 2z"/><path fill="#fedf64" d="m37.6 63.1-15.6 4s7.9 10.5 11 10.7 18.6-3 18.6-3zm23.6 15.8s9.6 7.8 14 7.5C78.6 86 83 80 88.6 77s14-5.3 15.5-6.4c3-2.1 7-14 8.9-16.7s6.7-9.1 6.8-10.1-.9-4.3-.9-4.3l-36.5 29z"/><path fill="#d46f1e" d="M69 77.5c.4-.1 9.4.9 9.4.9s7.2-5.6 18.2-14.7 21.3-19 23.6-23a43 43 0 0 0 1-9.9c0-3-1.6-3.6-1.6-3.6L70 62.7z"/><path fill="#e38211" d="M78.5 64.7c0 .9.6 13-.1 13.7a38 38 0 0 1-28.6-.2C38 72.8 36 68 36 68s-15 1.7-24-3.3C6.3 61.4 6 55.2 6.1 52s.5-6.3 1.8-7.7S26 29 29.6 26s19.6-14.6 22-15 24 3.6 31 5.3 28.1 7 31.7 8.4 5.8 2.3 6 3.3-1 2.5-2.4 3.6-29-.3-29.7 4.7-9.7 28.4-9.7 28.4"/><path fill="#fadfb1" d="M52.1 13.3c-2.8.5-18.5 12.9-23 16.4s-15.8 13-17.8 14.7-4.1 8 5.4 11.8 22.9 2 22.9 2 4.7 9.2 16.1 10.4 19.2.8 24.2-3.2 21.5-18.1 25.3-21.6a90 90 0 0 0 13.3-13.3c-.5-3.5-27.2-9.3-38.5-12a200 200 0 0 0-28-5.1"/></svg>