<svg xmlns="http://www.w3.org/2000/svg" width="1em" height="1em" viewBox="0 0 128 128"><radialGradient id="notoShavedIce0" cx="63.703" cy="22.525" r="53.846" gradientTransform="matrix(0 1 -1.6812 0 101.571 -41.178)" gradientUnits="userSpaceOnUse"><stop offset=".223" stop-color="#F16592"/><stop offset=".358" stop-color="#F16793"/><stop offset=".435" stop-color="#F37098"/><stop offset=".497" stop-color="#F47D9F"/><stop offset=".547" stop-color="#F78FA8"/><stop offset=".678" stop-color="#FBCAD6"/><stop offset=".778" stop-color="#FEF0F4"/><stop offset=".831" stop-color="#FFF"/></radialGradient><path fill="url(#notoShavedIce0)" d="m28.64 76.37l-8.07-10.42l.84-5.21s-6.39-20.33 3.86-35.96S51.32 4.49 66.77 5.67S94.1 13.32 101.9 26.8c8.21 14.2 5.88 28.9 4.37 34.95s-3.86 14.45-3.86 14.45l-36.3 7.73z"/><path fill="#9C9C9C" d="M101.82 31.28s22.16-18.37 23.37-19.59s1.98-1.56 1.94-2.74c-.04-1.15-1.18-2.65-1.18-2.65l-23.83 18.68l-1.89 3.57z"/><path fill="#C8C8C8" d="M96.97 23.47s21.89-18.23 23.14-19.23s2.13-1.42 3.25-.83s2.23 2.38 2.6 2.9c.12.17-25.74 22.25-25.74 22.25z"/><path fill="#C9C9C9" d="M21.41 60.75s-3.31 3.09-3.49 5.92c-.23 3.69.38 10.65 1.57 12.71c1.19 2.06 3 5.49 4.76 6.87c1.91 1.5 11.25 15.39 21.42 21.19c5.48 3.12 36.77 2.4 36.77 2.4s12.89-17.95 11.69-17.08c-1.19.87 9.08-6.85 10.27-7.83c1.19-.98 3.41-5.32 4.28-7.16c.87-1.85 2.51-11.95.43-14.34c-1.28-1.48-2.86-1.67-2.86-1.67s-.14 4.15-3.66 6.67c-3.8 2.72-14.43 8.13-39.52 7.92c-24.88-.22-35.43-4.98-39.13-9.87c-1.84-2.48-2.53-5.73-2.53-5.73"/><path fill="#E0E0E0" d="M64.7 79.61c-19.23-.24-29.82-3.26-36.25-6.24c-5.93-2.75-10.46-7.55-10.46-7.55s-.87 2.28-.43 6.41c.48 4.54 1.96 7.17 1.96 7.17s3.69 5.02 14.23 8.67c7.04 2.43 17.69 3.96 30.31 4.04c34 .22 44.01-12.99 44.01-12.99s1.78-3.2 2.16-8.85c.21-3.16-.33-5.21-.33-5.21s-2.5 5.43-10.97 8.91c-6.66 2.72-16.96 5.86-34.23 5.64"/><path fill="#FFF" d="M25.43 75.3c-.96.61-.25 5.04.12 5.74c.74 1.39 4.47 3.32 5.78 2.87c1.31-.45.66-4.71.16-5.78s-4.96-3.52-6.06-2.83"/><path fill="#E0E0E0" d="M23.71 85.66s-.33 5.36 2.63 14.55c2.76 8.6 5.89 12.81 7.22 14.11c1.53 1.5 8.86 9.19 28.77 9.63s29.28-7.12 31.93-9.64c2.25-2.15 5.34-7.93 7.4-13.73c2.9-8.15 3.02-15.97 3.02-15.97s-4.05 3.67-12.01 6.47c-6.92 2.44-16.81 4.08-29.38 3.78c-30.96-.75-39.58-9.2-39.58-9.2"/><path fill="#FFF" d="M27.98 90.3c-.73.94.78 8.01 3.11 14.09c1.38 3.61 3.73 7.73 6.1 9.69c2.37 1.96 4.28 1.96 4.78 1.55c.8-.66-.55-2.24-1.87-4.75s-2.93-5.68-4.48-10.24c-1.12-3.3-1.38-6.26-2.5-7.99c-.56-.86-4.48-3.2-5.14-2.35"/><path fill="#D7598B" d="M40.65 34.3c-1.5 2.71.18 4.87 2.52 4.94c3.05.09 3.7-3.6 2.61-5.12c-1.18-1.62-4.23-1.44-5.13.18m-4.51-10.37c1.08 1.52 3.76 1.01 5.03-.31c1.27-1.31 1.79-3.32.66-4.46c-1.14-1.14-3.19-1.4-4.9.26c-1.71 1.66-1.45 3.59-.79 4.51m9.31-.92c-1.18 1.05-.61 3.1.79 3.5c1.84.52 2.93-.78 2.93-2.14c0-1.71-2.33-2.6-3.72-1.36m4.73-9.72c-.14 1.53 1.09 2.72 2.58 2.76c1.49.05 2.8-1.4 2.67-2.63c-.17-1.62-.92-2.44-2.67-2.49s-2.5 1.41-2.58 2.36M32.04 32.05c-1.08-.18-2.46.82-2.41 2.41s1.41 2.05 2.19 2.1s2.1-.77 2.14-2.28s-1.1-2.09-1.92-2.23m4.36 11.34c-1.03-.75-2.45-.31-3.32.83c-.87 1.14-.61 2.8.22 3.45c.83.66 2.49.48 3.32-.61c.53-.69 1.22-2.62-.22-3.67m13.08-8.24c-1.79.15-2.09 1.84-2.06 2.76s.96 2.47 2.53 2.26s2-1.94 1.86-2.78c-.15-.85-.79-2.37-2.33-2.24m7.56 10.55c-1.18.07-2.67.96-2.71 2.89s1.44 3.1 3.06 3.06s2.76-1.44 2.76-2.89c0-1.83-1.62-3.14-3.11-3.06m7.52 6.52c-.04 1.53 1.27 2.8 3.02 2.84c1.75.04 3.98-2.97 1.97-4.9c-2.01-1.92-4.93.09-4.99 2.06m-5.68 2.27c-.67.03-1.88.39-1.92 1.97c-.04 1.36 1.18 1.92 2.06 1.97c.52.03 2.23-.48 2.1-2.01s-1.37-1.97-2.24-1.93m23.9-8.54c.04 2.01 1.21 3.02 2.98 3.12s3.53-1.44 3.4-3.93c-.11-2.21-1.89-3.12-3.45-2.83c-1.55.28-2.98 1.09-2.93 3.64"/><path fill="#DBEDF6" d="M89.51 63.26c-1.28.98-1.25 2.69-.63 3.37c.63.67 2.12 1.22 3.42.16c1.07-.87 1.27-2.7.09-3.53c-.96-.67-2.07-.62-2.88 0m-16.3.87c-1.59.05-2.69.87-2.64 2.4c.05 1.54 1.01 2.36 2.69 2.26c1.68-.1 2.64-1.35 2.26-2.98c-.21-.89-1.25-1.71-2.31-1.68m1.06 8.46c-.47.94 0 2.4 1.78 2.55c1.78.14 2.69-.67 2.74-1.73c.05-1.06-1.11-1.88-2.36-1.88c-1.01 0-1.88.48-2.16 1.06m-19.14-.91c.51.9-.04 2.09-1.25 2.64c-1.06.48-2.31.1-2.74-.96c-.43-1.06.38-2.26 1.25-2.6c.88-.34 2.16-.09 2.74.92m-29.18-6.93c0 .82.72 1.73 2.07 1.59c1.05-.11 1.73-.62 1.73-1.59c0-.96-1.11-1.63-2.12-1.59c-.82.05-1.68.58-1.68 1.59m11.06 4.19c-.05 1.39.96 2.16 2.45 2.21c1.49.05 2.31-.96 2.26-2.26c-.05-1.3-1.44-1.88-2.45-1.88s-2.22.58-2.26 1.93m2.02-5.92c-.25.83.02 1.94 1.49 2.36c1.44.41 2.43-.47 2.43-1.49c0-1.09-.71-1.86-1.73-1.96c-1.06-.11-1.9.1-2.19 1.09"/></svg>