<svg viewBox="0 0 128 128"><path fill="#fe6117" d="M120.4 66.4a13 13 0 0 0-6.2-5.6s-.8-4.2-4.4-7.3c-3.9-3.2-10.2-4.1-18-3.5-9.3.7-17.8 7-17.8 7s-2.8-4.6-6.2-7a37 37 0 0 0-17.4-6.2c-10-.6-22 1.5-22 1.5s-7.5-4.1-9.6-5.9-4.8-4.8-7-6.7c-2-1.8-3.3-4-4.5-3.7q-1.1.6-.7 2c.4 1.5 3.7 5.8 4.2 6.7l4.2 6s-2.5-.9-4.5-2c-1.2-.7-4.8-2.3-5.7-1.3-1 1.3 3.5 4 5.5 5.5l6.5 5h-2.6c-1.5 0-3.1.3-2.9 1.5s3.6 1.8 5.7 2.8 7 2.7 7 2.7l10.3 5.6L42 71s-6.4.2-8-.2-3.8-1.8-5-2-5.7 2.3-9.2 3.8-5.5 2.7-5.4 3.4c.3 1.7 3.5 1.1 5.2.7s9.2-3.3 9.2-3.3A16 16 0 0 0 33 76s-2.4.1-3.4.8-1.5 2.1-2 3.7-3.5 6.8-4.8 8.6-3.7 5.3-3 6.2c.6 1 1.4.8 2.1.4a86 86 0 0 0 11.6-14.8l5.4.8s-2.1.7-2.4 2.5l-2 6.5c-.3 1.6-3 6.7-3.2 7.6s-.1 3.3 0 5 .4 4.7 2 4.5 1.7-7.5 1.7-7.5 2.8-4.2 3.9-6.7c1-2.5 2.1-7.6 2.1-7.6l3.8.2 3.4-.2s-2 9.8-1.3 15c.5 5.3 1.9 11.6 3.5 11.6s1.4-3.1 1.5-5.7c0-2.5-.5-3.5-.3-7.8s2.5-12 2.5-12 7.6.8 11.2 0c2.3-.4 6.9-1.4 9-3.4a4 4 0 0 0 1.5-2.4l6.6-.2 14.2-.9L103 75s1.9 1 3.3 2.7 2.8 3 3.2 6.5.2 7.5.2 7.5-3 .9-5.6 2.1a38 38 0 0 0-8.9 7.2c-2.1 2.4-4 6.3-3.6 7 .5.5 4.7-.5 6-1 1.4-.5 5.5-2.6 5.5-2.6l-3.2 3.9a34 34 0 0 0-4.9 7.5c.1.8 8.3.3 14.1-2 5.4-2.3 10.3-8 11.4-12.3 1-3.8 0-8.8 0-8.8l1-2.6s1.3-2.5 1.9-6.2c.4-3.4.6-11.7-2.9-17.4M67 80.5c-1.5.6-3.6.5-3.6.5l2.4-1.2q1.2-1 2.5-.8c1.3.2.2.9-1.3 1.5"/><path fill="#fe6117" d="M26.3 47q-.6 0-1-.5-.7-1 0-2c.5-.4 10.7-9.7 20-13.2A62 62 0 0 1 69.4 27c2.8 0 7 .5 11.4 1 6 .6 12.9 1.3 17.3 1.2 7.5 0 12.7-1.2 12.7-1.2a1.4 1.4 0 0 1 .7 2.6c-.3.1-5.5 1.3-13.4 1.4-4.6 0-11.5-.7-17.6-1.3-4.4-.4-8.5-.9-11.2-1q-11.1-.3-23 4.2a72 72 0 0 0-19 12.7 1 1 0 0 1-1 .3"/><path fill="#fe6117" d="M21.2 43.2A1.4 1.4 0 0 1 20 41a39 39 0 0 1 11.3-11.4c6-3.6 15.6-8 26.7-8.7 10.2-.6 18.5-.8 26.2-.8 7 0 12.6-.6 15-1.1 2.3-.5 4.6-1.8 4.6-1.8a1.4 1.4 0 1 1 1.3 2.4s-2.6 1.4-5.3 2S91.4 23 84.2 23c-7.7 0-16 .3-26 .8a57 57 0 0 0-25.5 8.4 37 37 0 0 0-10.4 10.4q-.4.7-1.1.7"/><path fill="#fe8e06" d="M109.7 88.6s2.4 2 5.3 2.5c3.6.5 6.4-1 6.4-1l-1 3.5s-2.5 1.2-6 .5c-2.8-.6-4.8-2.2-4.8-2.2zm-1.2-7.7s5 0 8.6-1.2c4-1.3 6.2-4.4 6.2-4.4l.3 4.6s-1.5 2-5.8 3.5c-3 1.1-8.4.8-8.4.8zM84.1 51.6l-3.3 1.5s6.6 6.9 7.4 12.8c.8 6.5-1.5 11-2.1 12.4l-1.3 2.4-4 .3s1 4.4 6 4.7c6 .2 7-4.8 7-4.8s2.4 4.3 7.2 2.2 2.8-7 2.8-7l2.4 1.5s4.3-1.8 7-7.2c2.5-4.8 2.6-8.9 2.3-9.1l-1.3-.5s-.7-2.7-1-3c0 1-.1 5.3-1.5 9q-1.6 4.6-4.9 7c-1.3.9-2.4.7-2.4.7s3-5.5 1.5-13.8c-1.3-7-6.2-10.8-6.2-10.8l-4.4-.1s5.7 3.3 7.2 12c1.2 7-1.4 13.4-3 14.7s-10.6 3.2-10.6 3.2 3.7-7.2 2.8-13.6a25 25 0 0 0-7.6-14.5m-42.4 6.7q-1.2 1.6 3 3.4c4.2 1.8 7 1.3 9.6 1.6 3.1.3 9.2-.5 10.3-1s1.5-2 .9-2.7-2.2-.4-3.4 0-3.3.8-7.5.6a41 41 0 0 1-9.6-1.4c-1-.5-2.5-1.6-3.3-.5"/><path fill="#fe8e06" d="M24 58s7 11 21.7 14.9c11.6 3 18 0 19.7-.9s3.6-3 3-4.8c-.6-2.2-4.7-2-12-1.5s-19.6-3.2-22.2-4.1-9.3-4-10.1-3.7"/><path fill="#302c30" d="M38 52.6c-1.2 1.8-4.5 2.3-6.3.9s-1.9-3.8-.6-5.6 4.1-2.5 6-1.2 2.2 4 1 5.9"/></svg>