<svg xmlns="http://www.w3.org/2000/svg" width="1em" height="1em" viewBox="0 0 128 128"><path fill="#FF2A23" d="M73.13 16.43c-.58-.58-17.72-.37-17.72-.37L16.14 59.68s-1.37 12.84-.11 18.22c.71 3.03 2.16 8.48 6.56 14.95c3.01 4.43 5.37 6.35 5.37 6.35l23.44 10.13l39.19 4.03l22.95-14.89s1.71-6.84 1.1-11.84c-.61-5.01-1.59-8.79-1.47-12.09c.12-3.3 2.08-16.55-1.02-26.04c-2.74-8.38-10.82-19.99-20.95-25.97s-18.07-6.1-18.07-6.1"/><path fill="#DC0D27" d="M67.15 116.99c5.55 1.35 16.32 6.28 20.96 6.99c4.8.73 11.63.8 18.87-4.69c6.46-4.9 9.44-9.88 9.8-14.1c.51-5.91-.52-11.14-.84-13.64c-.31-2.5-1.72-7.94-1.72-7.94s-4.01 8.88-9.02 13.05s-17.1 9.7-29.09 10.11c-11.99.42-20.02.73-28.47-1.36s-22.8-9.51-22.8-9.51s5.04 7.5 14.88 13.05c7.43 4.19 11.9 5.26 14.91 5.94c4.68 1.07 8.24 1.05 12.52 2.1M35.87 33.05S15.34 63.72 15.15 68.83c-.21 5.84 1 9.32 1 9.32s4.17-.15 8.24-2.77c1.89-1.21 3.31-2.42 3.31-2.42s5.79 8.11 7.66 8.21s6.85-3.5 9.04-6.1c2.19-2.61 3.65-7.41 3.65-7.41s3.38 1.53 10.47 1.32s9.27-.84 9.79-1.36c.52-.52 1.22-3.81 1.84-6.42c.63-2.61.69-6.33.69-7.9c0-1.56-.44-3.94-.44-3.94s5.59-2.65 8.2-5.16c2.61-2.5 3.86-3.75 4.28-4.59c.42-.83-1.15-4.9-2.92-7.61s-4.17-4.59-4.17-4.59s3.55-2.82 5.01-4.38s3.36-3.99 3.36-3.99s-3.04-1.33-6.69-2.16c-3.65-.83-10.95-1.77-10.95-1.77z"/><path fill="#759937" d="M19.32 52.84c-.29.2-9.08 13.97-9.18 15.23c-.1 1.27-.31 3.31 1.07 4c.98.49 1.76-.39 2.44-.98s2.05-1.46 3.61-2.25s4.24-1.32 6.15-2.44c2.83-1.66 5.37-5.66 5.37-5.66l6.93 9.96l-2.47 6.14s1.74 2.09 2.09 2.35c.63.47 4.39-2.34 6.34-7.32s2.44-11.33 2.44-11.33s3.91 2.73 7.72 3.52c3.81.78 11.61.39 12.11-.2c.44-.52.7-7.96.31-11.28c-.39-3.32-2.22-7.71-2.22-7.71s3.96.63 8.65-.64s8.2-4 8.4-5.08s-2.68-3.82-2.68-3.82l-11.58-4.09l-1.4-3.49s5.92-1.74 9.01-5.4c2.23-2.65 6.23-6.01 6.23-7.58s-2.52-1.21-2.52-1.21l-21.48 8.59z"/><path fill="#98B715" d="M29.77 26.42c6.31-5.8 12.68-10.56 22.95-13.23c10.23-2.66 17.37-1.35 19.03-1.05c1.66.29 6.66 1.2 6.27 1.73c-.17.23-3.82 1.96-7.44 4.3s-5.14 3.1-6.05 3.61c-1.36.76-3.32 1.81-3.24 3.03c.12 1.66 2.36 1.76 4.8 3.03c2.44 1.27 5.47 3.22 7.72 5.18s3.38 2.74 3.69 3.51c.34.84-7.01 4.79-11.99 4.69s-7.32-2.34-8.5-.59c-1.17 1.76 2.54 6.15 3.52 11.04s.98 9.77.98 9.77s-7.48.56-10.94-.69c-5.21-1.88-5.86-5.89-8.69-5.37c-3.83.7-.41 7.29-3.1 15.16c-2.4 7.04-4.44 7.58-4.44 7.58s-3.31-3.41-4.49-5.27s-2.53-2.82-2.82-6.82c-.29-4 .2-9.08-1.76-9.28s-2.44 3.91-4.69 5.96s-5.66 3.13-7.23 4.39c-1.56 1.27-3.18 3.53-3.18 3.53s-1.12-6.75 1.91-15.83s8.02-19.49 17.69-28.38"/><path fill="#98B715" d="M17.95 7.09c.25-.93 4.52-3.52 6.57-3.42s1.64.68 1.93 1.46s-1.17 8.2 1.17 12.5c2.11 3.87 4 5.76 8.2 5.66s-5.27 12.4-5.27 12.4s-8.11-4.49-11.33-12.79s-1.66-14.35-1.27-15.81"/><path fill="#FFEBCA" d="M101.21 85.18c-1.85.09-3.55 2.61-2.58 6.03c.8 2.83 2.83 3.88 4.31 3.69c1.48-.18 2.83-2.46 2.28-5.66c-.43-2.43-1.55-4.18-4.01-4.06m-2.46-28.11c-2.53.65-2.28 3.97-1.72 5.78c.55 1.81 2.09 3.02 3.75 2.69s2.65-2.96 2.21-4.97c-.42-2.02-1.9-4.1-4.24-3.5M85.4 33.62c-1.84 1.6-1.05 4.18.55 5.91c1.6 1.72 3.69 2.15 5.05 1.11s.92-4.68-.68-6.21c-1.6-1.54-3.51-2.04-4.92-.81m-8.94 20.93c-1.46 1.31-1.18 4.16.46 6.14c1.64 1.98 4.13 3.1 5.38 1.45c1.25-1.65.33-4.88-.98-6.6c-1.32-1.72-3.62-2.11-4.86-.99"/><path fill="#FFFEFF" d="M76.48 58.39c1.65.99 3.85-2.49 2.18-3.66c-1.8-1.27-4.25 2.42-2.18 3.66"/><path fill="#FFEBCA" d="M76.88 79.24c-1.35 1.68-.29 4.13.95 5.61c1.43 1.7 4.7 2.77 6.19 1.32c1.73-1.68.95-4.6-1.29-6.62c-1.69-1.52-4.49-2.02-5.85-.31m2.06 24.77c-.58 2.09.3 4.04 4.18 4.68c3.38.55 5.11-1.05 5.05-2.77c-.04-1.17-1.35-3.14-4.55-3.69c-2.57-.45-4.19 0-4.68 1.78m-26.09-8.18c-1.31 1.96.3 4.67 1.91 5.91c1.84 1.42 4.92 1.11 5.72-.62c.8-1.72-.18-4.06-2.09-5.41c-1.91-1.36-4.43-1.54-5.54.12m-20.98-12c-2.42 2.02-.67 5.06.86 6.21c1.72 1.29 3.88 2.21 5.78.55s.06-5.11-1.11-6.15c-1.16-1.04-3.68-2.15-5.53-.61"/><path fill="#FFFFFE" d="M33.6 83.88c-1.63-.31-3.51 2.89-1.48 4.06c1.89 1.09 3.75-3.63 1.48-4.06"/><path fill="#FFEBCA" d="M55.68 74.23c-1.28 1.93-.06 4.92 1.54 5.97s4.06 1.78 5.54-.12c1.48-1.91.62-4.37-1.11-5.78c-1.72-1.42-4.61-2.1-5.97-.07"/><path fill="#FFF" d="M57.9 73.74c-1.11-.12-1.78 1.05-1.97 2.15c-.18 1.11.12 2.21 1.29 2.46s1.85-1.48 1.91-2.15c.06-.68-.06-2.34-1.23-2.46"/></svg>