<svg viewBox="0 0 128 128"><path fill="#ff2a23" d="M73.1 16.4c-.5-.5-17.7-.3-17.7-.3L16.1 59.7s-1.3 12.8 0 18.2A43 43 0 0 0 28 99.2l23.4 10.1 39.2 4 23-14.8s1.7-6.9 1-11.9-1.5-8.8-1.4-12 2-16.6-1-26.1c-2.8-8.4-10.9-20-21-26s-18-6-18-6"/><path fill="#dc0d27" d="M67.2 117c5.5 1.3 16.3 6.3 21 7s11.5.8 18.8-4.7c6.4-5 9.4-9.9 9.8-14.1.5-6-.5-11.2-.9-13.7-.3-2.5-1.7-7.9-1.7-7.9s-4 8.9-9 13-17.1 9.8-29 10.2c-12 .4-20.1.7-28.6-1.4S24.8 96 24.8 96s5 7.5 15 13a50 50 0 0 0 14.8 6c4.7 1 8.3 1 12.6 2M35.9 33S15.3 63.8 15.2 68.9c-.3 5.9 1 9.4 1 9.4s4.1-.2 8.2-2.8c1.9-1.2 3.3-2.4 3.3-2.4s5.8 8 7.7 8.2 6.8-3.5 9-6.1 3.7-7.4 3.7-7.4 3.3 1.5 10.4 1.3 9.3-.9 9.8-1.4 1.2-3.8 1.9-6.4a39 39 0 0 0 .2-11.8s5.6-2.7 8.2-5.2 3.9-3.7 4.3-4.6-1.2-4.9-3-7.6-4.1-4.6-4.1-4.6 3.5-2.8 5-4.4 3.4-4 3.4-4-3-1.3-6.7-2.1-11-1.8-11-1.8z"/><path fill="#759937" d="M19.3 52.8c-.3.2-9 14-9.2 15.3 0 1.2-.3 3.3 1.1 4 1 .5 1.8-.4 2.5-1s2-1.5 3.6-2.3 4.2-1.3 6.1-2.4c2.8-1.7 5.4-5.7 5.4-5.7l7 10-2.6 6.1 2.1 2.4c.7.5 4.4-2.3 6.4-7.3S44 60.5 44 60.5s4 2.8 7.7 3.6c3.8.7 11.6.4 12.1-.2s.7-8 .4-11.3-2.3-7.7-2.3-7.7 4 .6 8.7-.7 8.2-4 8.4-5-2.7-3.9-2.7-3.9l-11.6-4-1.4-3.6s6-1.7 9-5.3c2.3-2.7 6.3-6 6.3-7.6S76 13.6 76 13.6l-21.4 8.6z"/><path fill="#98b715" d="M29.8 26.4a51 51 0 0 1 23-13.2 41 41 0 0 1 19-1c1.6.2 6.6 1.1 6.2 1.7-.2.2-3.8 2-7.4 4.3s-5.2 3-6 3.6c-1.4.7-3.4 1.8-3.3 3 .1 1.7 2.4 1.8 4.8 3s5.5 3.3 7.7 5.2 3.4 2.8 3.7 3.5c.3.9-7 4.8-12 4.7s-7.3-2.3-8.5-.6c-1.2 1.8 2.6 6.2 3.5 11s1 9.8 1 9.8-7.5.6-11-.7c-5-1.7-5.7-5.7-8.5-5.2-3.8.7-.4 7.3-3.1 15.1-2.4 7-4.5 7.6-4.5 7.6S31 74.7 30 73s-2.7-3-3-7 .2-9-1.7-9.2-2.5 3.9-4.7 6-5.7 3-7.2 4.3a22 22 0 0 0-3.2 3.5S9 64 12 54.8s8-19.5 17.7-28.4"/><path fill="#98b715" d="M18 7c.2-.8 4.5-3.4 6.5-3.3s1.7.6 2 1.4-1.2 8.2 1.1 12.5c2.1 3.9 4 5.8 8.2 5.7s-5.3 12.4-5.3 12.4-8-4.5-11.3-12.8S17.6 8.6 18 7.1"/><path fill="#ffebca" d="M101.2 85.2c-1.8 0-3.5 2.6-2.6 6 .8 2.8 2.9 3.9 4.3 3.7 1.5-.2 2.9-2.5 2.3-5.7-.4-2.4-1.5-4.1-4-4M98.7 57c-2.5.6-2.2 4-1.7 5.8s2.1 3 3.8 2.6 2.6-3 2.2-5-2-4-4.3-3.4M85.5 33.6c-1.8 1.6-1 4.2.6 6 1.6 1.6 3.6 2 5 1s1-4.6-.7-6.2q-2.6-2.4-4.9-.8m-9 21c-1.4 1.3-1.1 4.1.5 6s4.1 3.2 5.4 1.5.3-4.8-1-6.6-3.6-2-4.8-1"/><path fill="#fffeff" d="M76.5 58.4c1.6 1 3.8-2.5 2.2-3.7-1.8-1.2-4.3 2.5-2.2 3.7"/><path fill="#ffebca" d="M76.9 79.2c-1.4 1.7-.3 4.2 1 5.6 1.4 1.7 4.6 2.8 6.1 1.4 1.7-1.7 1-4.6-1.3-6.7-1.7-1.5-4.5-2-5.8-.3m2 24.8c-.5 2.1.3 4 4.2 4.7 3.4.5 5.1-1 5-2.8 0-1.2-1.3-3.1-4.5-3.7q-3.9-.7-4.7 1.8m-26-8.2c-1.4 2 .2 4.7 1.9 6 1.8 1.4 4.9 1 5.7-.7s-.2-4-2.1-5.4-4.4-1.5-5.6.1m-21-12c-2.4 2-.6 5 1 6.2s3.8 2.2 5.7.6 0-5.1-1.1-6.2c-1.2-1-3.7-2.1-5.5-.6"/><path fill="#fffffe" d="M33.6 83.9c-1.6-.3-3.5 2.9-1.5 4s3.8-3.6 1.5-4"/><path fill="#ffebca" d="M55.7 74.2c-1.3 2 0 5 1.5 6s4 1.8 5.6-.1c1.4-2 .6-4.4-1.1-5.8s-4.7-2.1-6 0"/><path fill="#fff" d="M57.9 73.7q-1.7.2-2 2.2c-.1 1.1.2 2.2 1.3 2.4s1.9-1.4 2-2.1c0-.7-.1-2.3-1.3-2.5"/></svg>