<svg viewBox="0 0 128 128"><path fill="#c9cabb" d="M63.4 62.2s-56.4 5-56.1 9S8.2 89 11.6 93s16.5 12.2 26.3 17.3 27.6 14 37.6 13.7 27.9-16 28.7-20.1-.3-18.8-.3-18.8z"/><path fill="#c9cabb" d="m44.6 29.4-17.3 6s.4 5 1.3 8.4c1 4.1 3.6 13.8 12 17.4s54.8 13.9 57.6 13 11.4-7.7 14.6-10.4C116 61.2 82 27.2 82 27.2z"/><path fill="#fff" d="m51.8 28-20 4.2s2.3 19 6.5 22 53.4 15.4 56.5 15c3-.4 14.3-8.7 14.3-8.7s3-10.6 2.9-11-60.3-21.4-60.3-21.4M12.2 72.4S13 86.7 15 89.2c2 2.6 12.8 11.2 27 18s28.2 11.2 33.7 11.3 22.5-13.2 23.8-15.9S98.1 85 98.1 85z"/><path fill="#ff6110" d="M24.7 39.6c4.6 2 7.6-7 21.5-7.2s26.5 7.3 35.2 11.7 26.7 19 32.2 20.5 10.4-3.8 10.3-11.1-3.2-26.9-23-39.6S55.4 2.1 40 9.5s-23.8 26.2-15.3 30"/><path fill="#d4d3d4" d="M37.4 40.4c.2 1.5 2.4 1.7 4.6 1.3 1.6-.2 3.8-1 3.5-3-.2-1.3-2.8-1.7-4.7-1.3s-3.6 1.4-3.4 3M75 50.6c-.4 1.8 2 2.5 4.4 2.8s4.2.2 4.6-1.6-2.2-2.6-4-2.8-4.7-.3-5 1.6m15.9 6Q89.2 58 92.4 61c2.3 2 3.8 2 4.6 1s-.5-3.1-1.8-4.3-3-2.3-4.3-1.3M16.8 85.2c-1.4 1.6 0 3.5 2.2 5.4s4.3 3.8 5.8 2.4c2-1.9-1-4.5-2.7-6s-3.8-3.6-5.3-1.8m9.4.4q-1.1 2 2.5 3.9Q32 91 33 89.3c1-1.8-1-3-2.9-3.8s-3.3-1.2-4 .1m2 10.4c0 1.5.5 2.7 5 3.1 4.6.5 5.5-1 5.5-2q0-2.6-5-3c-3.3-.2-5.4 0-5.5 2"/><path fill="#fe8e6e" d="M31.4 37.2c-.5-2.8-1.2-6.6-.3-11.2 1.4-7.4 6.8-14.2 16-19.2a61 61 0 0 1 16.4-2.7C61.3 5 56.7 6 52 8.1c-9.8 4.6-15.4 11.4-16.7 18.3A27 27 0 0 0 35 35zM53.6 33c0-3.4.7-8.1 4.2-12.1A42 42 0 0 1 78.3 9.5c3-.9 6.6-1.4 10-1.7q2.5.8 7.8 3.3a59 59 0 0 0-14.8 1.5A43 43 0 0 0 61 23.3a15 15 0 0 0-3.3 10.6zm19.6 7c1-3 3-6.9 6.7-10 9.7-7.9 20.2-8.8 23.4-9.1l5.9-.3c1.2 1.2 2.7 2.8 3.6 4q-3.4-.4-8.2.2A45 45 0 0 0 83 33c-3.3 2.6-5 6.1-6 8.8zM91 50a29 29 0 0 1 8.1-8 34 34 0 0 1 20.9-5.8l1.5 4h-2.2c-6.6 0-12 1.4-18 5.3a26 26 0 0 0-7 6.8z"/><path fill="#f6fffe" d="M30.4 20c1 .5.6 3-.6 5-1.3 1.8-2.6 3.4-4 2.7s-.4-3.7.4-5.1c1-1.5 2.5-3.5 4.2-2.6m19.4-3.6c1.9 2.2-1.8 3.8-2 5.8s1.5 1.2 1.4 3.4c-.1 2.6-9.3 4.3-10.5-.2s8.4-12.1 11-9m20.5 5.3c-1.5-1.5-5.2-.2-7.4 2S60.1 30 64 31.6s4.9-.7 4.6-1.6c-.1-.6-.6-2 0-3 .5-1.1 3.4-3.4 1.6-5.2"/><path fill="#cc1935" d="M40.6 58S5 62 4.3 65.2q-1.1 6 1.4 8.8c2.7 3.3 14 4.5 29.2 11.6 13.8 6.5 19.4 10 27.5 14.2s14.2 5.8 20 4.3 12.7-3.9 18.4-8.4a15 15 0 0 0 5.5-13.3c-.4-4.2-2.6-8.7-5.4-11a653 653 0 0 0-60.3-13.5"/><path fill="#ff605f" d="M31.6 47.3C11.2 51.1 3.9 63 4.4 65.7c.3 1.7 4.5.8 21.2 6.7 24 8.4 43.2 18.5 50 19.6 9.3 1.6 18.9-3.8 22.6-6.5 6-4.5 6.7-9.1 4.5-12.1A87 87 0 0 0 68.1 51a64 64 0 0 0-36.5-3.8"/><path fill="#f9ffff" d="M17.2 55.1c-2.4-.2-10.7 5-7.8 9.7 3 4.8 17 4 17.3.6.3-4-7.9-4-9-5.7-1.2-1.7 2.2-4.3-.5-4.6"/></svg>