<svg viewBox="0 0 128 128"><path fill="#ffb803" d="m44.6 106-4 7.2s6.8-1.8 13.5-6.2 12.3-11.4 25-19.6c14-9 31.7-10.8 40.8-20.9 7.2-8 6.8-19 3.2-28.2-4-10-10-13.7-10-13.7z"/><path fill="#fa0" d="M96.2 32.6c.8-.6-10.4-12.4-10.4-12.4S67.7 6.8 42 17.8 1 60 4 85c2.6 22.2 12.7 29.8 23.4 29.3a34 34 0 0 0 24.9-11.8z"/><path fill="#ffe265" d="M84 21.3s-10.5-9.6-34.4-3.1-44.6 36.5-43 63C8 107 19.3 104.5 19.3 104.5S51.8 53.6 52.8 53z"/><path fill="#da8119" d="M31.4 109.8s-6.7 2.5-11.4.6-7.5-7.5-7.2-10.6C13 95 17 94.5 17 94.5l7-13L15.4 63s-.6-3.6.6-5.2q1.8-2.3 5-2.8c3.1-.5 13.2-7.8 13.2-7.8s-2.2-6.8 1.4-11.5 7.2-5.2 7.2-5.2 2.5-.7 5.6 0 4.7 1.6 4.7 1.6l5.7-3.7 9.3-.7 1.2-2.6c.2-.6.1-3.2 4.2-5.8s7.3-1.9 8.5-1.6q3.1.6 4.1 3c.9 2.5-.7 11.4-.7 11.4l-44 68.5z"/><path fill="#714c40" d="M32 54.7 19 58s0 5.9 3.8 8.3 6.4 1.7 12.2.9c5.8-.9 12-1.5 13.3-4 1.3-2.4 0-5.2-2-7.4-1.9-2.2-5.2-5.6-5.2-5.6zM16.1 85.3l-2-1.2-.5 3.9c0 2.7 1.7 5.3 1.7 5.3s-.5 5.7-.2 6.6 16.7 4 16.7 4l5.3-1.8 5-17.4-13.9-1.5s-11.9 1.6-12.1 2m55.2-55.1-6.1 4.7s.4 2.6 3.2 3.2c2.7.7 6-2.3 8-4s6.3-6.4 5.8-7c-.5-.7-5.8-1.3-5.8-1.3z"/><path fill="#ac5832" d="M69 34.6c1.8-.3 9.1-8.6 9.3-9s-6.3-2.3-8.5-1.2-5.3 3.4-5.4 5.6c-.1 2.3 0 4.4.9 4.8q1.6.3 3.8-.2M26.6 63.8c3.4.2 10.7-1.9 14-4.9s1.7-6.8 1.2-7.8-3.5-4.5-6.8-4.6-14.7 6-15.8 9.5 1.2 4.7 2.6 5.7 2.8 2 4.8 2.1m14.9 13.7s.6-1.8.6-3c0-1-1-3.6-2.4-3S34.5 78 34.5 78 30 75 25 75.3s-8.4 4.4-9.6 6.2-1.4 3-1.3 4.2 3.5 5 5 6 9.6 1.2 10.7.5 5.8-5.3 6.6-6.9 5-7.8 5-7.8M26 96.6s-3-2.2-4.4-2.6-5.8.2-6.2 1.5-.5 3.2-.3 4.5 2.4 5.4 3.1 6.4 5.7 3.4 7 3.4 4.7 0 5.2-.5.6-3.3-.1-5.7c-.8-2.7-4.4-7-4.4-7"/><path fill="#4e8f34" d="M26.2 43.5c-.2.8-.7 6 .4 6.9s7.4-2 7.6-2.7c.2-.9-.2-5.5-1-6.8s-6.5 1-7 2.6m10.8-15c-1.7.6-3.2 8-2.3 8.8s7.8 2 8.8 1.1 1.4-6.3.7-7-5.2-3.5-7.2-2.9m61.7-6s.5-4-1.5-4.3c-1.9-.4-3 2.2-3 2.2s-1-4.4-3.2-4.7c-1.4-.2-4.5 1.5-5 3.3l-.8 3.6s-2.6-.6-1.8 2L85 30zm-48 8.5c.3 1.6 2.6 4.4 3.5 4.5s6.9-4.4 6.8-5.7-2.4-6.2-4.2-6.6-6.5 6-6.1 7.8"/><path fill="#4e8f34" d="M64 23c-2.4-.7-4 4.8-3.5 5.7s3.6 1.6 5 .6.8-5.8-1.4-6.4M46.8 76c2.2.7 6.2-8.8 6.2-11s-4.4-4.6-5.7-4-5.5 6.7-5.5 8.3c0 1.5 3.3 6.2 5 6.7m2 9.3s-4.7-8.6-5.5-9.4-2-1.9-3.7-.3-3.8 7.5-3.4 9 3.2 4.3 3 4.6-5.1 1.8-5.6 4 1.2 8.7 2.5 9.6 4.3 0 4.3 0zm-35.1-22c-1.8 0-1.1 2.9-.9 4.5s-.3 3.7 1.8 3.9 6.8-1.2 6.8-1.2-.2-1.8-1.2-4-1.3-3.5-2.4-3.3-4.2 0-4.2 0"/><path fill="#fcecc8" d="M26 75.3c.7 2.3-6 7-8 6.1-3.5-1.3-5.3-5.8-4.7-8.4.7-2.7 7.3-4.2 8.4-4.2s3.8 4.5 4.4 6.5"/><path fill="#fcecc8" d="M24.6 70.7c.3 3.4 2.5 7.4 4.7 7.5 1.5 0 4-1.9 6-3.2q3-2.3 4.3-3.8c1.3-1.5-1.2-3.7-2.4-5.2s-2.6-2.3-3.6-2a15 15 0 0 0-5 2.6c-1.4.9-4.1 2.3-4 4.1M23 85.1c.1 2.2 1.6 2.4 3.3 3.2s3.3 1.3 4.4.2 1.9-6.7 1.4-8.2-4-2.3-5.5-1.8c-1.1.4-3.7 4.4-3.6 6.6m12.3-42.5c.6 1.8 4.4 3.9 5.9 3.3s2.2-7.1 1.8-8.7-6.4-.9-7 .1c-.7 1-1.2 4-.7 5.3m8.5.2c-.4 1.6 2.3 3.7 3 4s1.9.3 1.9.3l-1.9 4.3c-.6 1.6-1.8 5.6-.6 6.1s7.5 1.5 8.5 0 2.7-8.8 1.8-10c-.9-1-6.3-1.2-6.3-1.2s1.7-.9 2.1-1.7-2-4.2-3.5-4.4c-1.6-.2-4.7 1-5 2.6m2.6-5.8c.2 1.3 2.4 2.7 4.3 2.4s2.5-5.2 2-5.7-3-1.3-4-.9c-.8.5-2.4 3.1-2.3 4.2m10-.6c-.7 2.3 1.4 6.3 3.7 6.7 2 .3 7.2-3.2 8-4.7s-3.5-5.9-4.7-6-3.3 1.3-4.1 2c-.8.5-2.6.9-3 2m21.1-15.8c-1 .6-1.6 6.4-.7 7.9s5.8 1 7.5-1.4c.9-1.2.6-6.4-.2-6.8s-5.5-.4-6.6.3M39 104s-.9-2.4-2.6-3-5.3 2-5.3 2-.6-5.6-1.7-6.8-4.2-.6-5-.2-3 1.8-3 2.7 0 7 1.5 7.6 2.7.8 3.8.7 3-1 3-1-.6 2.5.2 3.3c.9.9 3.8 0 4-.2.2 0 5.1-5.1 5.1-5.1"/><path fill="#fa0" d="m36.1 113-7.2-2.5s3.3-.4 6.5-3.8c4.9-5.2 9.7-16.7 13-25.4s6.6-18 11.2-27S73.4 33.5 83 26.4c11.9-8.7 24.3-4.3 24.3-4.3l-3.2 28L48.5 107z"/><path fill="#ffe265" d="M112.8 58.5c8.2-9.4 8.7-21.8 5.1-28.9-3.9-7.6-14.6-9.2-21.4-7.3-6.7 2-19.5 8.1-29.5 26s-19.5 48.5-24.5 56a23 23 0 0 1-10.3 8.9c-3.7 1.4-7.4 1-7.4 1s11 1.9 19-2.4 13-10.8 19.3-18.2c2.5-3 10.3-11.3 18.9-16.7s23.2-9.7 30.7-18.4"/><path fill="#ffb700" d="M58 83.3c2.2 0 2.8-1.7 3-3.2s-.2-3.4-2-3.6q-2.1-.3-2.9 3c-.3 2 .5 3.7 2 3.8m-.4 7.8c-1.2-.6-2.7.3-3.3 1.6s-.6 3 .5 3.5 2.5.1 3.3-1.5c.8-1.5.6-3-.5-3.6m5.2-2.4c-2-1.2-1.1-3.4 0-5.1s3-3 4.4-2.1c1.5 1 .9 3.3 0 5-.9 1.2-2.6 3.3-4.4 2.2"/></svg>