<svg xmlns="http://www.w3.org/2000/svg" width="1em" height="1em" viewBox="0 0 128 128"><path fill="#ffb803" d="m44.56 106.02-4.03 7.17s6.82-1.76 13.54-6.23 12.31-11.37 24.99-19.58c14-9.06 31.7-10.81 40.84-20.88 7.19-7.92 6.82-19 3.17-28.16-4.01-10.05-9.9-13.79-9.9-13.79z"/><path fill="#fa0" d="M96.21 32.55c.75-.56-10.44-12.31-10.44-12.31S67.68 6.82 41.95 17.82.93 59.96 3.91 84.95c2.65 22.16 12.76 29.74 23.46 29.26 16.6-.75 24.9-11.76 24.9-11.76z"/><path fill="#ffe265" d="M84.06 21.27s-10.6-9.61-34.47-3.08S5.03 54.74 6.52 81.22c1.45 25.75 12.87 23.31 12.87 23.31s32.44-50.9 33.38-51.65c.93-.75 31.29-31.61 31.29-31.61"/><path fill="#da8119" d="M31.43 109.76s-6.7 2.53-11.39.59-7.51-7.45-7.28-10.51c.36-4.82 4.2-5.34 4.2-5.34L24 81.49l-8.65-18.43s-.57-3.56.65-5.17c1.21-1.62 2.83-2.43 4.93-2.83s13.26-7.76 13.26-7.76-2.19-6.8 1.45-11.49 7.11-5.17 7.11-5.17 2.51-.73 5.66-.08 4.69 1.62 4.69 1.62l5.66-3.72 9.3-.65s1.05-1.94 1.21-2.59.15-3.21 4.28-5.8 7.26-1.88 8.41-1.64c2.07.43 3.53 1.42 4.15 3.1.89 2.4-.75 11.37-.75 11.37l-43.95 68.48z"/><path fill="#714c40" d="m31.94 54.69-12.88 3.3s-.11 5.9 3.69 8.35 6.41 1.69 12.24.84c5.82-.84 12.07-1.52 13.33-3.97 1.27-2.45 0-5.23-1.94-7.43-1.94-2.19-5.26-5.54-5.26-5.54zM16.16 85.25l-2.04-1.15s-.37 2.41-.4 3.85c-.06 2.76 1.7 5.36 1.7 5.36s-.55 5.68-.21 6.61 16.65 3.98 16.65 3.98l5.32-1.77 5.06-17.39-13.93-1.52s-11.9 1.61-12.15 2.03m55.21-55.16-6.09 4.7s.46 2.61 3.19 3.25c2.72.64 6.09-2.38 8.12-4.06s6.2-6.38 5.68-7.01c-.52-.64-5.8-1.28-5.8-1.28z"/><path fill="#ac5832" d="M69.05 34.61c1.75-.3 9.1-8.58 9.22-9.1s-6.26-2.2-8.46-1.1-5.28 3.36-5.39 5.62c-.12 2.26-.06 4.41.87 4.75.92.35 2.43.06 3.76-.17M26.64 63.84c3.39.14 10.65-1.94 13.96-4.92s1.69-6.86 1.21-7.83-3.55-4.52-6.78-4.6-14.77 6.05-15.81 9.52 1.21 4.68 2.58 5.73 2.82 2.02 4.84 2.1m14.85 13.63s.65-1.78.65-2.9c0-1.13-1.13-3.63-2.42-3.07s-5.24 6.54-5.24 6.54-4.52-3.15-9.44-2.74-8.39 4.36-9.68 6.21-1.39 2.92-1.3 4.16 3.56 5.12 5.01 6.09 9.68 1.13 10.73.48 5.81-5.33 6.62-6.94 5.07-7.83 5.07-7.83M25.91 96.6s-2.9-2.18-4.28-2.58c-1.37-.4-5.81.16-6.21 1.45s-.48 3.23-.32 4.52 2.42 5.41 3.15 6.45c.73 1.05 5.65 3.39 6.86 3.39s4.76-.08 5.33-.56c.56-.48.55-3.29-.16-5.65-.82-2.67-4.37-7.02-4.37-7.02"/><path fill="#4e8f34" d="M26.23 43.53c-.22.73-.73 6.05.4 6.86s7.42-1.94 7.58-2.74c.16-.81-.24-5.49-1.05-6.78s-6.45 1.05-6.93 2.66M37.05 28.5c-1.78.59-3.23 7.99-2.34 8.79s7.75 1.94 8.79 1.13c1.05-.81 1.37-6.29.73-7.02-.65-.72-5.24-3.55-7.18-2.9m61.64-5.97s.48-3.95-1.45-4.36c-1.94-.4-2.99 2.18-2.99 2.18s-1.13-4.36-3.23-4.68c-1.39-.21-4.52 1.53-5.08 3.31s-.73 3.63-.73 3.63-2.58-.65-1.78 2.02c.81 2.66 1.61 5.41 1.61 5.41s13.65-7.67 13.65-7.51M50.68 31c.36 1.59 2.66 4.44 3.55 4.52s6.86-4.44 6.78-5.73-2.42-6.21-4.2-6.62-6.53 6.05-6.13 7.83"/><path fill="#4e8f34" d="M64.06 22.92c-2.42-.65-4.03 4.84-3.55 5.81s3.63 1.61 5 .56.76-5.79-1.45-6.37M46.81 75.94c2.14.71 6.21-8.79 6.21-11.05s-4.44-4.6-5.73-3.95-5.49 6.7-5.49 8.23c.01 1.53 3.32 6.21 5.01 6.77m1.94 9.28s-4.68-8.63-5.41-9.44-2.02-1.86-3.71-.24-3.87 7.42-3.47 9.04 3.23 4.2 3.07 4.52-5.16 1.78-5.65 4.03c-.48 2.26 1.21 8.63 2.5 9.52s4.36.08 4.36.08zm-35.1-22.03c-1.78 0-1.05 2.9-.81 4.52.24 1.61-.32 3.71 1.78 3.87s6.78-1.21 6.78-1.21-.16-1.78-1.21-3.95c-1.05-2.18-1.29-3.47-2.42-3.31s-4.12.08-4.12.08"/><path fill="#fcecc8" d="M26.08 75.3c.65 2.26-6.05 6.94-8.15 6.13-3.41-1.31-5.24-5.81-4.6-8.47.65-2.66 7.26-4.2 8.39-4.2s3.79 4.56 4.36 6.54"/><path fill="#fcecc8" d="M24.62 70.7c.24 3.39 2.48 7.38 4.68 7.5 1.45.08 3.98-1.87 5.97-3.23 2.02-1.37 3.55-2.82 4.36-3.79s-1.21-3.71-2.42-5.16-2.59-2.3-3.63-2.02c-1.78.48-2.74 1.13-5 2.58-1.36.87-4.08 2.33-3.96 4.12m-1.69 14.44c.08 2.12 1.53 2.34 3.23 3.15s3.39 1.29 4.44.24 1.86-6.7 1.37-8.23c-.48-1.53-4.03-2.26-5.49-1.78-1.1.37-3.63 4.36-3.55 6.62m12.26-42.52c.62 1.76 4.44 3.87 5.89 3.31s2.26-7.18 1.86-8.71-6.45-.89-7.1.08c-.65.96-1.13 3.95-.65 5.32m8.48.16c-.32 1.58 2.34 3.71 2.99 4.03s1.94.32 1.94.32-1.29 2.66-1.86 4.28-1.86 5.57-.65 6.13 7.5 1.45 8.55-.08 2.66-8.79 1.78-9.92c-.89-1.13-6.29-1.21-6.29-1.21s1.69-.89 2.1-1.78-1.94-4.11-3.55-4.36c-1.63-.23-4.69.98-5.01 2.59m2.66-5.81c.21 1.38 2.34 2.74 4.28 2.42s2.5-5.24 2.02-5.73-3.07-1.29-3.95-.81c-.9.49-2.51 3.07-2.35 4.12m9.92-.56c-.66 2.3 1.48 6.34 3.71 6.7 2.02.32 7.26-3.23 7.99-4.68s-3.47-5.89-4.68-6.05-3.31 1.37-4.11 1.94c-.81.55-2.59.96-2.91 2.09m21.06-15.82c-1.07.66-1.6 6.4-.73 7.91.89 1.53 5.81.97 7.5-1.37.89-1.23.65-6.45-.16-6.78-.8-.32-5.56-.4-6.61.24m-38.29 83.5s-.91-2.36-2.67-2.91-5.28 1.88-5.28 1.88-.55-5.58-1.7-6.73-4.18-.61-4.91-.24c-.73.36-3.03 1.82-3.15 2.67s.06 7.09 1.58 7.64 2.67.85 3.82.67 2.91-.91 2.91-.91-.55 2.43.3 3.27c.85.85 3.82-.06 4-.18.19-.13 5.1-5.16 5.1-5.16"/><path fill="#fa0" d="m36.12 113.05-7.17-2.58s3.28-.33 6.48-3.77c4.83-5.2 9.65-16.69 12.96-25.38s6.62-17.93 11.17-27.03 13.81-20.76 23.45-27.86c11.86-8.73 24.31-4.31 24.31-4.31l-3.21 28.04-55.58 56.69z"/><path fill="#ffe265" d="M112.84 58.5c8.2-9.4 8.69-21.78 5.07-28.89-3.86-7.59-14.62-9.24-21.38-7.31-6.73 1.92-19.58 8.14-29.52 26.07S47.46 96.8 42.47 104.23c-3.43 5.11-7.11 7.69-10.23 8.93-3.74 1.48-7.47.99-7.47.99s11.08 1.95 18.94-2.33 13.24-10.86 19.45-18.21c2.53-2.99 10.37-11.3 18.9-16.69 8.52-5.4 23.2-9.73 30.78-18.42"/><path fill="#ffb700" d="M58.09 83.27c2.13.1 2.72-1.69 2.94-3.16s-.22-3.38-1.98-3.6c-1.39-.17-2.57.81-2.94 3.01-.33 1.96.44 3.67 1.98 3.75m-.36 7.86c-1.19-.64-2.72.29-3.31 1.54s-.59 2.94.51 3.53 2.47.13 3.31-1.54c.73-1.47.59-2.94-.51-3.53m5.14-2.43c-1.91-1.18-1.1-3.45 0-5.14s2.94-3.01 4.41-2.06c1.47.96.88 3.31-.07 4.92-.77 1.31-2.55 3.39-4.34 2.28"/></svg>