<svg xmlns="http://www.w3.org/2000/svg" width="1em" height="1em" viewBox="0 0 128 128"><path fill="#E0E0E0" d="M72.47 80.6s48.46-53.8 47.83-54.85c-.63-1.05-19.78-9.21-20.69-9.37c-.91-.17-5.85-.58-6.26-.49c-.41.08-6.92-2.86-6.92-2.86s.1-1.86-.65-2.28s-13.56-6.38-17.04-6.47c-4.52-.1-58.3 17.54-59.9 18.12c-2.75.99-.65 8.23.31 14.5s9.41 63.7 11.34 66.36s37.88 21.23 41.02 21.23c.53 0 2.23.26 2.94-1.82c3.49-10.32 7.5-42.45 8.02-42.07"/><path fill="#FFF" d="M12.48 25.46c6.85-1.75 39.28-12.32 43.9-13.93c4.95-1.72 8.79-3.42 14.02-2.61c1.65.25 5.93 1.98 12.02 4.56c.93.4-1.48 1.87-.5 2.29c1.15.49 5.68-.06 6.86.45c12.06 5.28 25.21 11.38 25.21 11.38L63.37 50.43l-2.01-.54l-42.3-19.47z"/><path fill="#B0B0B0" d="M64.2 48.58s-13.8-7.69-14.63-8.38c-1.48-1.25-3.06-8.19-2.89-8.59c.53-1.24 34.23-13.95 34.23-13.95s17.19.22 18.27.19c2.61-.08 2.74-1.6-1.53-1.92c-4.27-.32-13.18-1.02-13.67-1.35c-.53-.35 1.65-1.96 2.18-3.06c.38-.8-.93-1.58-3.19.15c-1.58 1.21-4.64 3.2-4.64 3.2s-6.17 1.83-14.86 5.34c-9.73 3.92-19.92 8.33-20.99 8.52c-2.04.36-13.02 1.82-15.18 1.7s-16.85-6.79-17.74-7.08c-1.61-.54-2.57.9-1.19 1.98s15.4 8.73 18.1 9.03c2.7.3 15.8-1.05 15.8-1.05S44.1 42.1 45.36 43s16.25 7.75 16.56 8.5c.67 1.6-.19 72.04.48 72.63s2.81-.34 7.76-2.92s29.95-15.8 31.81-17.04c1.86-1.24 2.68-2.89 3.3-5.78s15.18-67.02 15.49-68.67c.31-1.65.62-4.75-2.07-4.23c-2.68.52-34.49 14.25-34.49 14.25z"/><path fill="#858585" d="M82.66 56.87c.12-1.61 17.51-20.91 18.75-21.69c1.24-.78 15.75-8.26 16.59-8.78c.85-.52 1.3-1.76-.91-1.17c-2.21.59-18.23 7.98-18.94 8.56s-5.78 5.75-5.78 5.75s-4.17-1.39-4.66-1.35c-1.23.1-22.34 9.35-23.19 9.68c-.85.33-1.63 2.02.78 1.5s21.21-7.74 21.93-7.87c.72-.13 3.46 1.07 3.46 1.07s-11.4 12.57-11.34 14.34c.1 2.7 9.15 20.24 8.89 21.47c-.26 1.24-23.36 39.81-25.76 43.9c-1.11 1.89.68 3.03 2.04 1.34s24.96-39.34 26.23-39.51c1.27-.16 10.87 18.4 11.39 19.02c.52.61 2.42-.47 1.65-1.88c-1.05-1.92-8.01-15.31-11.44-22.44c-6.67-13.85-9.86-19.66-9.69-21.94"/><path fill="#FE2A28" d="M24.7 89.71c.26.79 28.02 13.19 28.74 12.93c.72-.26.1-3.01-.6-4.13c-.86-1.37-2.61-2.43-2.61-2.43l-.06-4.96s2.65 2.08 4.09 2.21c1.44.13 1.97-1.61 1.04-2.25c-.83-.58-1.53-.25-1.53-.25s-1.59-1.13-2.96-2.36s-2.46-2.87-2.46-2.87l-.11-5.07s2.25 1.84 3.56 1.97c1.31.13 2.23-1.57.98-2.36c-.72-.46-1.47.03-1.47.03s-1.41-.81-2.45-1.99c-1.24-1.4-1.96-3.11-1.96-3.11l-.09-3.58s1.79 1.37 3.1 1.57c1.31.2 1.64-1.14.91-1.8c-.72-.66-1.32-.11-1.32-.11s-3.84-3.87-6.82-7.87C40.53 60.4 39 58.49 39 58.49l-.07-4.64s.06-1.21-1.05-1.47c-1.12-.26-.98.98-.98.98v4.79s-4.13 3.67-6.36 4s-2.56 0-2.56 0s-.22-1.37-1.45-.92c-.98.36-.68 1.91.2 2.5c1.89 1.26 4.26.66 4.26.66v4.13s-1.97 1.84-3.08 1.71l-1.12-.13s-.1-1.35-1.38-.85c-1.22.48-.23 2.73 1.77 2.95c1.71.19 2.36.07 2.36.07v5.45s-1.44.79-2.43.85c-.98.07-1.84-.33-1.84-.33s-.57-1.58-1.57-.66c-.94.86.13 2.36 1.57 2.95c1.44.59 2.95.26 2.95.26v6.5s-1.77-.07-2.69.72c-.9.78-.83 1.7-.83 1.7"/><path fill="#E0E0E0" d="m34.94 88.92l8.2 3.54s-.41-5.63-4.22-6.55c-3.8-.91-3.98 3.01-3.98 3.01m.32-10.33l6.34 2.46s-.23-4.45-3.19-5.16c-2.95-.71-3.15 2.7-3.15 2.7m.51-9.3l5.25 2.1s.26-4.07-2.82-4.72c-2.6-.56-2.43 2.62-2.43 2.62"/></svg>