<svg viewBox="0 0 128 128"><path fill="#e0e0e0" d="M72.5 80.6s48.4-53.8 47.8-54.8-19.8-9.3-20.7-9.4c-.9-.2-5.8-.6-6.2-.5s-7-2.9-7-2.9.1-1.8-.6-2.3-13.6-6.3-17-6.4c-4.6-.1-58.4 17.5-60 18.1-2.7 1-.6 8.2.3 14.5s9.5 63.7 11.4 66.4 37.9 21.2 41 21.2c.5 0 2.2.2 3-1.8 3.4-10.4 7.4-42.5 8-42.1"/><path fill="#fff" d="M12.5 25.5c6.8-1.8 39.3-12.4 43.9-14 5-1.7 8.8-3.4 14-2.6 1.6.3 6 2 12 4.6 1 .4-1.5 1.9-.5 2.3 1.2.5 5.7 0 6.9.4 12 5.3 25.2 11.4 25.2 11.4L63.4 50.4l-2-.5L19 30.4z"/><path fill="#b0b0b0" d="M64.2 48.6s-13.8-7.7-14.6-8.4c-1.5-1.3-3-8.2-3-8.6.6-1.2 34.3-14 34.3-14l18.3.2c2.6 0 2.7-1.6-1.6-1.9s-13-.9-13.6-1.3 1.6-2 2.2-3c.3-.9-1-1.7-3.2 0-1.6 1.3-4.7 3.3-4.7 3.3s-6.1 1.8-14.8 5.3c-9.8 4-20 8.3-21 8.5-2 .4-13 1.8-15.2 1.7s-16.8-6.8-17.7-7c-1.6-.6-2.6.8-1.2 2s15.4 8.7 18 9 15.9-1 15.9-1 1.8 8.7 3 9.6 16.3 7.8 16.6 8.5c.7 1.6-.2 72 .5 72.6s2.8-.3 7.8-2.9 30-15.8 31.8-17 2.6-3 3.3-5.8l15.5-68.7c.3-1.7.6-4.7-2.1-4.2S84.2 39.7 84.2 39.7z"/><path fill="#858585" d="M82.7 56.9c0-1.6 17.5-21 18.7-21.7l16.6-8.8c.9-.5 1.3-1.8-1-1.2s-18.1 8-18.8 8.6l-5.8 5.7s-4.2-1.4-4.7-1.3c-1.2 0-22.3 9.3-23.2 9.7s-1.6 2 .8 1.5 21.2-7.8 22-7.9 3.4 1 3.4 1S79.3 55.2 79.4 57c0 2.7 9.1 20.2 8.8 21.5-.2 1.2-23.3 39.8-25.7 43.9-1.1 1.9.7 3 2 1.3s25-39.3 26.3-39.5c1.2-.1 10.8 18.4 11.3 19s2.5-.4 1.7-1.8c-1-2-8-15.4-11.4-22.5-6.7-13.8-10-19.6-9.7-22"/><path fill="#fe2a28" d="M24.7 89.7c.3.8 28 13.2 28.7 13s.1-3-.6-4.2a9 9 0 0 0-2.6-2.4v-5s2.6 2.1 4 2.2 2-1.6 1.1-2.2-1.5-.3-1.5-.3-1.6-1.1-3-2.3-2.5-2.9-2.5-2.9v-5s2.2 1.8 3.5 1.9 2.2-1.6 1-2.4c-.7-.4-1.5 0-1.5 0s-1.4-.7-2.4-2c-1.3-1.3-2-3-2-3v-3.6s1.7 1.4 3 1.6 1.6-1.2 1-1.8c-.8-.7-1.4-.2-1.4-.2s-3.8-3.8-6.8-7.8L39 58.5v-4.6s0-1.3-1.1-1.5c-1.1-.3-1 1-1 1v4.8s-4.1 3.6-6.4 4-2.5 0-2.5 0-.2-1.4-1.5-1c-1 .4-.6 2 .2 2.5 2 1.3 4.3.7 4.3.7v4.1s-2 1.9-3 1.7l-1.2-.1s-.1-1.3-1.4-.8-.2 2.7 1.8 2.9q2.4.2 2.3 0v5.5s-1.4.8-2.4.9-1.8-.4-1.8-.4-.6-1.5-1.6-.6.1 2.3 1.6 3 3 .2 3 .2v6.5s-1.8 0-2.8.7c-.9.8-.8 1.7-.8 1.7"/><path fill="#e0e0e0" d="m35 89 8.1 3.5s-.4-5.7-4.2-6.6-4 3-4 3m.4-10.3 6.3 2.5s-.2-4.5-3.2-5.2-3.1 2.7-3.1 2.7m.5-9.3 5.2 2s.3-4-2.8-4.6c-2.6-.6-2.4 2.6-2.4 2.6"/></svg>