<svg xmlns="http://www.w3.org/2000/svg" width="1em" height="1em" viewBox="0 0 128 128"><path fill="#CC701F" d="m36.02 63.39l-18.1 4.7L6.04 83.56l.83 12.16l8.01 10.91l16.85 8.98l16.44 4.01l12.57-2.21l6.22-6.35l4.7-4.01s2.76-4.83 4.01-6.77c1.24-1.93 2.9-4.01 2.9-4.01s1.81-.64 3.28-.39c2.29.38 3.7 1.2 3.7 1.2l4.48-20.56l17.68-17.13s12.02-9.67 12.02-11.33s-.14-15.47-.14-15.47z"/><path fill="#E89806" d="M25.09 70.47s-4.73 2.55-9.9 8.98c-2.31 2.87-3.46 6.7-3.46 6.7l27.76 12.88l20.68 13.49s3.02-2.49 3.97-3.58c2.08-2.39 2.88-4.49 2.88-4.49l-4.26-15.66z"/><path fill="#FFD61C" d="M11.73 89.7s1.27 4.49 3.69 7.83s4.61 5.99 11.52 9.79s17.28 7.54 24.99 7.6c7.22.06 9.09-2.94 9.74-4.38c.36-.8.47-1.55.47-1.55s-.95-.6-5.21-1.23c-4.23-.62-25.46-8.48-25.46-8.48L12.38 88.14z"/><path fill="#FEE942" d="M11.68 86.39s.58-3.5 4.49-4.9s9.96-2.48 24.61 4.52c14.64 7 17.36 9.37 20.47 15.8c.7 1.44 1.27 5.93.86 7.22c-.01.03-1.05-.04-1.78-.12c-1.52-.18-19.02-5.72-19.02-5.72l-19.84-9.68l-9.86-5.72z"/><path fill="#FEF58A" d="M14.57 91.41s6.48 3.62 9.39 5.25c2.92 1.63 7.21 4.62 11.08 6.13c7.93 3.09 18.52 5.6 18.52 5.6s1.55 1.63 3.41 2.04c1.87.41 3.4.14 3.88-.88c.5-1.05-.03-3.73-3.35-4.32c-3.33-.58-5.1-.53-5.1-.53s-9.48-2.45-17.71-6.13c-2.67-1.19-18.26-10.56-19.02-11.03c-.76-.47-2.6-2.74-4.73-1.87c-2.37.97-1.18 4.36.18 5.31c1.58 1.13 3.45.43 3.45.43"/><path fill="#F6AF41" d="M26.75 90.31c-.45.49-.58 2.16 1.34 2.74s2.33-1.69 1.52-2.51c-.82-.82-2.22-.93-2.86-.23m8.72-3.38c-.78.68-.47 2.1.58 2.74c1.05.64 2.04.53 2.51-.12s-.12-1.87-.7-2.28c-.58-.4-1.51-1.1-2.39-.34m-15.23-3.4c-.54.65.42 1.78 1.56 1.69c1.14-.08 1.31-1.14.97-1.56c-.33-.42-1.68-1.14-2.53-.13m-3.29 1.4c-.72.57-.21 2.03.76 2.41c1.2.47 2.37-.04 2.03-1.52c-.16-.71-1.4-1.99-2.79-.89m27.72 24.72c0 1.23.97 1.61 1.86 1.69s1.73-.17 1.65-1.35s-.93-1.52-1.78-1.52c-.67 0-1.73.17-1.73 1.18"/><path fill="#FBDF96" d="m22.2 71.65l-2.89.32S7.52 77.33 8.05 77.01c.54-.32.54-2.25 4.82-6.65s16.62-16.19 19.84-19.62c3.22-3.43 14.6-16.95 18.44-22.19c7.61-10.4 11.79-17.37 13.94-19.08c2.14-1.72 5.04-2.36 6.86-2.68c1.82-.32 11.26.32 25.09 6.86s22.19 10.83 23.91 12.97s3.22 3.86 3.22 8.36c0 3.76.32 9.97-1.39 12.12s-6.22 5.9-6.22 5.9l3.18-4.94l.25-13.18l-2.89-.43l-7.72 9.01l-19.42 30.12l-16.51 21.66l-5.9 6.43s.43 3 1.29 4.07c.86 1.07 2.82 1.29 2.82 1.29s-1.2 3.01-2.25 4.31c-1.73 2.15-3.72 4.13-3.72 4.13l1.32-8.66l-2.14-9.11s1.61-.32-3.54-4.93c-5.15-4.61-7.4-5.79-8.68-6.75c-1.29-.96-11.26-5.47-12.54-5.79c-1.29-.32-14.58-3.97-14.58-3.97l-4.41-.01s.76-1.49 1.4-2.24c.64-.75 1.82-2.36 1.82-2.36z"/><path fill="#F9C86F" d="m23.21 71.94l-2.67-.31c.19-.2 18.91-20.53 31.41-35.04c2.9-3.36 6.98-9.71 10.26-14.81c2.25-3.51 4.2-6.53 5.29-7.87c2.69-3.29 7.65-6.81 7.93-7.01c0 0 .84.07 1.51.18c.81.14 1.88.32 1.88.32c-.07.05-7.05 4.93-9.54 7.97c-1.01 1.23-2.92 4.21-5.14 7.66c-3.32 5.16-7.45 11.58-10.45 15.07c-12.53 14.54-30.3 33.64-30.48 33.84m15.42 1.96l-3.02-1.06c.11-.13 11.3-14.41 16.33-20.73c5.12-6.44 17.55-23.28 20.43-27.76c2.77-4.3 5.33-7.74 8.82-10.6c3.26-2.66 6.56-3.78 6.72-3.85l2.53.91c-.95.55-4.73 2.21-7.79 4.72c-3.26 2.67-5.69 5.95-8.35 10.07c-2.91 4.51-15.58 22-20.73 28.47c-5.04 6.33-14.83 19.7-14.94 19.83m11.19 4.49l-2.74-1.1c.15-.21 14.91-21.34 20.23-28.82c1.19-1.67 2.64-3.76 4.23-6.04c5.78-8.29 11.58-17.67 16.55-22.19c4.85-4.42 10.01-5.86 10.26-5.95l3.15 1.49c-.05.02-7.34 2.11-11.61 6.38c-3.44 3.44-11.07 14.18-16.49 21.96c-1.6 2.29-6.43 9.35-7.51 11.1c-6.45 10.46-15.92 22.96-16.07 23.17m8.75 7.13l-1.72-2.45c.05-.05 4.51-4.07 10.92-13.9c2.18-3.34 5.14-7.72 8.19-12.51c6.19-9.73 12.59-19.79 14.66-22.36c.73-.91 1.44-1.82 2.15-2.73c2.21-2.87 4.5-5.83 7.47-8.33c3.15-2.66 7.15-4.37 7.37-4.47l2.54 1.27c-.05.02-4.69 2.44-7.6 4.9c-2.78 2.35-5.71 5.14-7.95 8.04c-.71.92-1.43 1.85-2.18 2.77c-2 2.47-8.65 12.93-14.51 22.15c-3.05 4.8-5.94 9.33-8.12 12.68c-6.53 9.99-11.01 14.72-11.22 14.94m6.19 6.66l-.98-2.29c.8-1.03 8.83-9.39 13.66-17.63c4.98-8.49 13.99-23.33 17.53-28.18c3.55-4.88 9.58-12.1 13.54-15.74c3.74-3.44 7.55-4.97 7.76-5.06l2.29 1.39c-.05.02-4.72 2.21-8.16 5.38c-3.85 3.55-10.08 10.59-13.56 15.38c-3.49 4.79-12.45 19.54-17.4 27.99c-4.97 8.46-14.29 18.34-14.68 18.76"/><path fill="#F4B13A" d="M71.96 100.84c-.74 1.1-3.36 5.11-4.06 5.22c-.7.11.54-3.7.11-4.26c-.86-1.13 1.64-3.71 2.07-4.35c.44-.64 13.51-17.47 20.04-26.67c3.67-5.16 7.54-11.39 10.96-16.89c2.75-4.41 5.12-8.22 6.84-10.62l1.14-1.59c4.97-6.95 7.91-10.86 10.64-10.16c.76.19 1.4.75 1.69 1.72c.84 2.85.46 14.02-.82 15.91c-.6.89-2.08 2.22-5.36 5.14c-2.59 2.31-6.14 5.46-10.19 9.34l-1.91 1.82c-5.25 5.01-10.17 10.42-11.33 12.1c-.71 1.12-2.55 7.59-3.35 13.53c-.46 3.36-.48 7.64-.8 7.66c-.88.06-3.83-1.36-3.71-2.87s2.08-10.35 3.57-16.4c-7.35 9.89-14.7 20.13-15.53 21.37m45.86-64.74c-.24-.98-4.18 4.35-6.31 7.33l-1.14 1.6c-1.67 2.31-3.95 6.46-6.66 10.82c-2.77 4.44-4.97 7.93-8 12.41c1.86-1.81 3.08-2.8 5.34-4.96l1.91-1.82c4.09-3.91 7.66-7.09 10.27-9.41c2.39-2.13 3.7-3.27 4.11-3.89c.67-1.35 1.21-8.4.48-12.08m.33-1.39"/><path fill="#FFF6AD" d="M49.96 121.31c-4.69 0-10.42-.65-17.79-3.41C7.49 108.65 2.71 94.27 3.65 87.04c.58-4.45 2.92-10.56 8.59-14.19c6.51-4.15 15.85-4.59 26.99-.86c21.74 7.29 28.53 21.26 29.1 22.59c.57 1.33 2.34 3.84 1.07 4.59c-1.1.65-1.72-1.44-2.41-2.73c-.69-1.28-1.88-3.42-4.37-6.31c-3.89-4.53-12.3-10.92-25.1-14.96c-10.03-3.18-17.52-2.34-22.98 1.15c-5.83 3.72-6.4 8.13-6.71 11.53c-.53 5.68 3.71 18.2 26.07 26.58c14.26 5.34 21.99 3.02 26.02 1.01c2.94-1.47 4.64-3.96 5.09-6.77c.75-4.66 1.42-16.49-24.12-26.52c-8.11-3.19-17.32-3.43-17.91-3.47c-.9-.06-1.9-.06-2.01-1.51c-.11-1.4 1.09-1.59 1.68-1.62c.59-.05 9.35-.3 18.86 3.45c28.22 11.13 28.16 24.77 27.25 30.38c-.64 3.99-2.89 6.86-6.77 9.12c-2.56 1.5-6.72 2.81-12.03 2.81"/><path fill="#CC701F" d="M49.01 35.32s-8.69 4.38-9.06 5.03s-.35 2.41-.13 2.24c1.98-1.6 8.27-3.84 23.55 3.67s22.04 13.79 24.51 20.58c.72 1.98 1.35 3.77 1.69 5.73c.74 4.23.78 7.41 1.01 8.39c.38-.23 1.22-1.34 1.22-1.34l5.4-7.25S87.17 50.22 86.61 49.76S61.15 36.99 61.15 36.99s-11.86-2.04-12.14-1.67"/><path fill="#F4B13A" d="M53.09 34.21s-11.96 4.46-12.79 4.92c-.83.46-.66 2.25-.63 2.8c1.83-2.08 5.33-2.71 9.13-2.34c3.8.37 9.67 2.21 9.67 2.21s1.57 1.95 4.35 2.87c2.78.93 5.83 1.06 5.83 1.06s14.51 9.24 18.15 15.06c3.86 6.16 4.26 10.24 4.75 14.1c.23 1.76.21 4.41.26 4.74c7.13-6.81 3.14-9.11 3.14-9.11s.09-11.39-.93-12.13C93 57.65 80.4 47.92 80.4 47.92l-1.48-4.45l-3.43-1.85l15.28-8.06s1.39-4.54-1.67-3.15c-3.06 1.39-17.24 7.2-17.24 7.2l-2.94-1.71l-5.16-2.36s-1.59-1.38-2.05-1.75c-.46-.37-9.74-15.64-9.74-15.64l-3.06.19l6.39 17.32z"/><path fill="#FFF9AF" d="M57.71 40.15s-.36-1.65-.25-2.56c.1-.85.85-1.65.85-1.65s-3.77-8.95-4.41-10.62c-.86-2.26-2.78-8.3-2.41-8.67s3.06 7.32 4.11 9.47c.71 1.46 3.91 8.97 3.91 8.97s1.16-1.09 1.69-1.46s1.44-1.07 1.44-1.07s-3.9-7-5.35-10.96S53.4 5.98 53.35 6.14s-2.73 1.6-3.64 1.92s-4.48.58-4.48 1.11s1.84 10.61 4.14 15.9c2.3 5.29 3.92 7.49 3.92 7.49s-5.22-.92-7.09-.12s-5.7 3.19-6.47 7.55c0 .01 3.89-2.04 9.02-1.56c3.48.34 8.96 1.72 8.96 1.72"/><path fill="#FFF9AF" d="M66.63 44.06c-.32.16-3.44-.27-5.41-1.6c-1.26-.85-2.68-2.53-1.82-4.62c.86-2.09 4.32-4.4 4.32-4.4s1.04-.41 3.04.4c2.05.83 2.73 2.3 2.73 2.3s-2.66 3.05-3.04 4.65c-.38 1.61.18 3.27.18 3.27m2.47-4.12c-.16-.43.04-1.39.32-1.82c.57-.9.88-1.02.88-1.02s2.25-.21 8.29-3.64c6.04-3.42 11.71-6.9 13.05-7.97c1.34-1.07 3.64-3.26 3.64-3.26s2.83 2.03 3.9 4.28s1.87 5.24 1.87 5.24s-10.43 5.88-14.81 7.54c-4.38 1.66-15.67 5.61-15.67 5.61s-1.18-1.58-1.18-2.27s3.37-.79 11.02-4.36c3.86-1.8 8.34-4.44 8.02-5.13s-5.66 1.81-11.12 4.22c-1.84.82-8.21 2.58-8.21 2.58m9.83 3.53s-1.57 1.5-2.48 2.3c-.91.8-2.03 1.71-2.03 1.71s4.04 2.33 7.67 5.21c3.34 2.64 6.25 6.21 7.21 8.08s2.86 5.71 3.55 12.34c.32 3.11.16 5.35.16 5.35s1.43-.74 3.34-3.89c1.68-2.77 1.98-3.78 2.14-4.64c.16-.86.29-6.54-2.3-12.35c-3.33-7.43-17.26-14.11-17.26-14.11"/></svg>