<svg viewBox="0 0 128 128"><path fill="#cc701f" d="M36 63.4 18 68 6 83.6l1 12.1 8 11 16.8 9 16.5 4 12.5-2.3 6.3-6.3 4.7-4 4-6.8c1.2-2 2.9-4 2.9-4s1.8-.7 3.3-.4c2.2.4 3.7 1.2 3.7 1.2L90 76.5l17.7-17.1s12-9.7 12-11.3l-.1-15.5z"/><path fill="#e89806" d="M25 70.5s-4.6 2.5-9.8 9a23 23 0 0 0-3.5 6.7L39.5 99l20.7 13.5s3-2.5 4-3.6c2-2.4 2.8-4.5 2.8-4.5l-4.2-15.6z"/><path fill="#ffd61c" d="M11.7 89.7s1.3 4.5 3.7 7.8 4.6 6 11.5 9.8 17.3 7.6 25 7.6c7.2 0 9.1-3 9.8-4.4l.4-1.5s-1-.6-5.2-1.2-25.4-8.5-25.4-8.5L12.4 88z"/><path fill="#fee942" d="M11.7 86.4s.6-3.5 4.5-5 10-2.4 24.6 4.6 17.3 9.4 20.5 15.8c.7 1.4 1.2 6 .8 7.2h-1.8l-19-5.8-19.8-9.7-9.9-5.7z"/><path fill="#fef58a" d="m14.6 91.4 9.4 5.3c2.9 1.6 7.2 4.6 11 6 8 3.2 18.6 5.7 18.6 5.7s1.5 1.6 3.4 2 3.4.2 3.8-.9c.6-1 0-3.7-3.3-4.3q-5-.7-5.1-.5c-.1.2-9.5-2.5-17.7-6.1-2.7-1.2-18.3-10.6-19-11s-2.6-2.8-4.8-2c-2.3 1-1.1 4.4.2 5.4 1.6 1.1 3.5.4 3.5.4"/><path fill="#f6af41" d="M26.8 90.3c-.5.5-.6 2.2 1.3 2.8s2.3-1.7 1.5-2.6c-.8-.8-2.2-.9-2.9-.2m8.8-3.4c-.8.7-.5 2.1.5 2.8s2 .5 2.6-.2-.2-1.8-.7-2.2c-.6-.4-1.6-1.1-2.4-.4m-15.3-3.4c-.5.7.5 1.8 1.6 1.7 1.1 0 1.3-1.1 1-1.5-.4-.5-1.7-1.2-2.6-.2M17 85c-.7.6-.2 2 .8 2.4 1.2.5 2.4 0 2-1.5-.1-.7-1.4-2-2.8-.9m27.8 24.7c0 1.3 1 1.7 1.8 1.7s1.8-.1 1.7-1.3-1-1.5-1.8-1.5c-.7 0-1.7.1-1.7 1.1"/><path fill="#fbdf96" d="m22.2 71.7-2.9.3-11.2 5c.5-.3.5-2.2 4.8-6.6s16.6-16.2 19.8-19.7 14.6-17 18.5-22.2c7.6-10.4 11.7-17.3 13.9-19C67.2 7.7 70 7 72 6.8s11.2.3 25 6.8 22.2 10.9 24 13 3.2 3.9 3.2 8.4c0 3.7.3 10-1.4 12.1s-6.2 5.9-6.2 5.9l3.1-5 .3-13-2.9-.5-7.7 9L90 73.7 73.5 95.2l-6 6.5s.5 3 1.3 4 2.9 1.3 2.9 1.3-1.2 3-2.3 4.3c-1.7 2.2-3.7 4.2-3.7 4.2l1.3-8.7-2.1-9.1s1.6-.3-3.6-5S54 87 52.6 86s-11.2-5.5-12.5-5.8l-14.6-4h-4.4l1.4-2.2 1.8-2.4z"/><path fill="#f9c86f" d="m23.2 72-2.7-.4c.2-.2 19-20.5 31.5-35 2.9-3.4 7-9.7 10.2-14.8 2.3-3.5 4.2-6.6 5.3-7.9 2.7-3.3 7.7-6.8 8-7l3.3.5s-7 5-9.5 8c-1 1.2-3 4.2-5.2 7.6-3.3 5.2-7.4 11.6-10.4 15.1a1393 1393 0 0 1-30.5 33.8m15.4 2-3-1L52 52c5.2-6.4 17.6-23.3 20.5-27.8 2.7-4.3 5.3-7.7 8.8-10.6 3.2-2.6 6.5-3.7 6.7-3.8l2.5 1c-1 .5-4.7 2.1-7.8 4.6-3.2 2.7-5.6 6-8.3 10.1-3 4.5-15.6 22-20.7 28.5-5 6.3-14.9 19.7-15 19.8m11.2 4.5-2.7-1.1 20.2-28.8 4.2-6c5.8-8.4 11.6-17.7 16.6-22.3 4.8-4.4 10-5.8 10.2-6l3.2 1.6s-7.3 2-11.6 6.4a467 467 0 0 0-24 33c-6.5 10.5-16 23-16 23.2m8.7 7.1L56.9 83c.1 0 4.6-4.1 11-14L76 56.8C82.1 47 88.5 37 90.6 34.4l2.2-2.7q3.2-4.5 7.4-8.4c3.2-2.6 7.2-4.3 7.4-4.4l2.6 1.2a49 49 0 0 0-17.8 15.7c-2 2.5-8.6 13-14.5 22.2l-8.1 12.7c-6.5 10-11 14.7-11.2 15m6.2 6.6-1-2.3c.8-1 8.8-9.4 13.6-17.6 5-8.5 14-23.4 17.6-28.2 3.5-4.9 9.5-12.1 13.5-15.8 3.7-3.4 7.6-5 7.8-5l2.3 1.4s-4.8 2.2-8.2 5.3a149 149 0 0 0-13.6 15.4 519 519 0 0 0-17.4 28c-5 8.5-14.3 18.4-14.6 18.8"/><path fill="#f4b13a" d="M72 100.8c-.8 1.1-3.4 5.2-4.1 5.3s.5-3.7.1-4.3c-.9-1.1 1.6-3.7 2-4.3.5-.7 13.6-17.5 20.1-26.7 3.7-5.2 7.6-11.4 11-17 2.7-4.3 5.1-8.1 6.8-10.5l1.2-1.6c5-7 7.9-10.9 10.6-10.2q1.2.3 1.7 1.7c.8 2.9.4 14-.8 16-.6.8-2.1 2.2-5.4 5L105 63.7l-1.9 1.9a122 122 0 0 0-11.3 12c-.7 1.2-2.6 7.6-3.4 13.6-.4 3.3-.4 7.6-.8 7.6-.8.1-3.8-1.3-3.7-2.8s2.1-10.4 3.6-16.4A624 624 0 0 0 72 100.8m45.8-64.7c-.2-1-4.2 4.4-6.3 7.3l-1.1 1.6c-1.7 2.3-4 6.5-6.7 10.9l-8 12.4 5.4-5 1.9-1.8q6.1-6 10.2-9.4 3.6-3.1 4.1-4c.7-1.3 1.3-8.3.5-12m.4-1.4"/><path fill="#fff6ad" d="M50 121.3a48 48 0 0 1-17.8-3.4C7.5 108.7 2.7 94.3 3.6 87a20 20 0 0 1 8.6-14c6.5-4.2 15.9-4.6 27-1C61 79.4 67.8 93.4 68.3 94.7s2.4 3.8 1.1 4.6c-1.1.6-1.7-1.5-2.4-2.8q-.9-1.9-4.4-6.3a56 56 0 0 0-25-15c-10.1-3.1-17.6-2.3-23 1.2A13 13 0 0 0 7.7 88c-.5 5.6 3.7 18.2 26.1 26.5 14.3 5.4 22 3 26 1a9 9 0 0 0 5.1-6.7c.8-4.7 1.4-16.5-24.1-26.5a59 59 0 0 0-18-3.5c-.8 0-1.8 0-2-1.5 0-1.4 1.2-1.6 1.8-1.6.5-.1 9.3-.3 18.8 3.4 28.2 11.1 28.2 24.8 27.3 30.4q-1 5.8-6.8 9.1a24 24 0 0 1-12 2.8"/><path fill="#cc701f" d="M49 35.3s-8.7 4.4-9 5-.4 2.5-.2 2.3c2-1.6 8.3-3.8 23.6 3.7s22 13.8 24.5 20.5q1 2.9 1.7 5.8c.7 4.2.7 7.4 1 8.4.4-.3 1.2-1.4 1.2-1.4l5.4-7.2s-10-22.2-10.6-22.6L61.2 37s-12-2-12.2-1.7"/><path fill="#f4b13a" d="M53 34.2s-11.9 4.5-12.7 5-.7 2.2-.6 2.7c1.8-2 5.3-2.7 9.1-2.3s9.7 2.2 9.7 2.2 1.5 2 4.3 2.9 5.9 1 5.9 1 14.5 9.3 18.1 15C90.7 67 91.1 71 91.6 75c.2 1.7.2 4.4.2 4.7 7.1-6.8 3.2-9 3.2-9s0-11.5-1-12.2L80.4 47.9l-1.5-4.4-3.4-1.9 15.3-8s1.4-4.6-1.7-3.2l-17.2 7.2-3-1.7-5.1-2.4-2-1.7L52 16l-3 .2 6.3 17.4z"/><path fill="#fff9af" d="M57.7 40.2s-.4-1.7-.2-2.6c0-.9.8-1.7.8-1.7L54 25.3c-.9-2.2-2.8-8.3-2.4-8.6s3 7.3 4.1 9.4l4 9s1-1.1 1.6-1.5l1.4-1s-3.9-7-5.3-11-3.9-15.6-4-15.5l-3.6 2c-.9.4-4.5.5-4.5 1s1.9 10.7 4.2 16 3.9 7.5 3.9 7.5-5.2-1-7.1-.2-5.7 3.2-6.5 7.6c0 0 4-2 9-1.6 3.5.4 9 1.8 9 1.8"/><path fill="#fff9af" d="M66.6 44a10 10 0 0 1-5.4-1.5c-1.2-.9-2.7-2.6-1.8-4.7s4.3-4.4 4.3-4.4 1-.4 3 .4c2.1.9 2.8 2.3 2.8 2.3s-2.7 3-3 4.7c-.4 1.6.1 3.3.1 3.3m2.5-4.2c-.2-.4 0-1.3.3-1.8q.9-1.2.9-1c0 .2 2.3-.2 8.3-3.6 6-3.5 11.7-7 13-8s3.7-3.3 3.7-3.3 2.8 2 3.9 4.3 1.9 5.3 1.9 5.3-10.5 5.8-14.9 7.5-15.6 5.6-15.6 5.6-1.2-1.6-1.2-2.3 3.4-.8 11-4.3c3.9-1.8 8.3-4.5 8-5.2s-5.6 1.8-11 4.3c-2 .8-8.3 2.5-8.3 2.5m9.8 3.6-2.5 2.3-2 1.7s4 2.3 7.7 5.2c3.3 2.6 6.2 6.2 7.2 8s2.9 5.8 3.5 12.4c.4 3.1.2 5.4.2 5.4s1.4-.8 3.3-4c1.7-2.7 2-3.7 2.2-4.6s.3-6.5-2.3-12.3C92.9 50 78.9 43.5 78.9 43.5"/></svg>