<svg xmlns="http://www.w3.org/2000/svg" width="1em" height="1em" viewBox="0 0 128 128"><path fill="#FF8E00" d="M4.45 78.74c3.05 28.59 23.74 44.75 59.43 45.3s49.02-16.75 54.54-25.73c6.34-10.33 16.49-58.89-39.5-70.3c-21.39-4.36-38.01-.8-49.47 5.62C9 45.07 3.17 66.77 4.45 78.74z"/><path fill="#5C6A23" d="M114.83 11.19c-.14-1.4-5.06-6.32-17.7-7.17S75.05 8.78 70.76 16.67c-3.31 6.09-5.24 11.09-5.24 11.09l7.8.75l32.67-11.42l8.84-5.9z"/><path fill="#767E3A" d="M89.26 18.21c8.77-3.08 25.57-7.02 25.57-7.02s-2.95 6.6-8.85 12.64c-5.9 6.04-15.51 12.3-28.8 8.99c-5.43-1.35-9.03-4.89-9.03-4.89s7.91-5.08 21.11-9.72z"/><path fill="#5C6A23" d="M55.91 11.86c-.75 1.6 1.74 2.86 3.28 5.52c2.83 4.88 2.83 11.76 2.83 11.76s-6.04.64-5.85 5.91c.17 4.69 4.36 6.62 9.19 6.62c5.27 0 7.32-3.92 7.13-6.49c-.3-3.98-4.43-5.52-4.43-5.52s.58-9.12 0-13.68s-1.35-5.72-2.7-6.3c-1.35-.58-8.48.12-9.45 2.18z"/><path fill="#FFE265" d="M18.26 77.68c3.48 1.1 6.5-2.84 10.44-10.44c2.05-3.97 6.62-9.84 8.85-12.27c4.77-5.19 10.81-10.57 7.18-14.94c-3.88-4.66-15.2.27-22.62 11.27s-8.93 24.78-3.85 26.38z"/><path fill="#FF6110" d="M84.04 41.09c-.57 2.28.43 4.21 2.11 4.35c2.02.17 3.02-1.77 3.06-3.75c.03-1.6-1.03-2.67-2.41-2.8c-1.39-.12-2.42.82-2.76 2.2zm13.61 9.82c-1.49 1.6-1.65 4.67.26 5.86c2.15 1.34 4.39-.43 5.13-1.94c.58-1.19.9-3.13-.47-4.39c-1.65-1.51-3.72-.82-4.92.47zm9.16 6.67c-.38 1.92.43 4.12 2.47 4.43s3.42-1.67 3.54-3.13c.16-1.84-.56-3.32-2.18-3.94c-1.62-.64-3.49.9-3.83 2.64zm1.18 9.49c-1.35-.66-4.02-.11-4.93 3.09c-.74 2.6.11 5.12 2 5.58c2.54.61 4.22-1.36 4.65-3.58c.49-2.49-.16-4.32-1.72-5.09zm-8.62 21.27c1.9 1.46 1.06 3.99-.39 5.47c-1.59 1.64-3.96 1.81-5.13.65c-1.16-1.16-.82-3.53.82-5.17s3.68-1.74 4.7-.95zm-25.2 17.53c.77 1.58-.34 3.62-1.81 4.69c-1.17.86-4.18 1.77-5.6-.3c-1.17-1.7-.3-3.49 1.64-4.95s4.91-1.2 5.77.56z"/></svg>