<svg viewBox="0 0 128 128"><path fill="#ff8e00" d="M4.5 78.7c3 28.6 23.7 44.8 59.4 45.3s49-16.7 54.5-25.7A48.4 48.4 0 0 0 79 28a71 71 0 0 0-49.4 5.6 49 49 0 0 0-25 45.1"/><path fill="#5c6a23" d="M114.8 11.2c-.1-1.4-5-6.3-17.7-7.2s-22 4.8-26.3 12.7c-3.3 6-5.3 11-5.3 11l7.8.8L106 17.1z"/><path fill="#767e3a" d="M89.3 18.2c8.7-3 25.5-7 25.5-7s-3 6.6-8.8 12.6-15.5 12.3-28.8 9c-5.4-1.3-9-4.9-9-4.9s7.9-5 21-9.7"/><path fill="#5c6a23" d="M56 11.9c-.8 1.6 1.6 2.8 3.2 5.5C62 22.3 62 29 62 29s-6 .7-5.8 6c.1 4.6 4.3 6.6 9.2 6.6 5.2 0 7.3-4 7-6.5-.2-4-4.3-5.5-4.3-5.5s.5-9.2 0-13.7-1.4-5.7-2.7-6.3-8.5.1-9.5 2.2"/><path fill="#ffe265" d="M18.3 77.7c3.4 1 6.5-2.9 10.4-10.5 2-4 6.6-9.8 8.9-12.2 4.7-5.2 10.8-10.6 7.1-15-3.8-4.6-15.2.3-22.6 11.3s-9 24.8-3.8 26.4"/><path fill="#ff6110" d="M84 41c-.5 2.4.5 4.3 2.2 4.4 2 .2 3-1.7 3-3.7q-.2-2.5-2.4-2.8-2.2 0-2.8 2.2m13.7 9.8c-1.5 1.6-1.7 4.7.2 5.9 2.2 1.3 4.4-.5 5.1-2 .6-1.2 1-3.1-.4-4.4-1.7-1.5-3.7-.8-5 .5m9.2 6.7c-.4 1.9.4 4.1 2.5 4.4s3.4-1.7 3.5-3.1q.3-2.9-2.2-4c-1.6-.6-3.4 1-3.8 2.7M108 67c-1.4-.7-4-.1-5 3-.7 2.7.2 5.2 2 5.6 2.6.7 4.3-1.3 4.7-3.5q.7-3.9-1.7-5.1m-8.6 21.2c1.9 1.5 1 4-.4 5.5-1.6 1.7-4 1.8-5.1.7-1.2-1.2-.9-3.6.8-5.2s3.6-1.7 4.7-1M74.2 106c.7 1.5-.4 3.6-1.8 4.7-1.2.8-4.2 1.7-5.6-.3-1.2-1.7-.3-3.5 1.6-5s5-1.2 5.8.6"/></svg>