<svg viewBox="0 0 128 128"><path fill="#ff2a23" d="M119.8 69.4s1.7-13-1.4-19-12.7-18.9-32.7-21.3c-10.5-1.2-17.7.2-24.2 1-4.1.5-11.8-2-25.6 1A42 42 0 0 0 5 62a45 45 0 0 0 2.8 30.6 43 43 0 0 0 24.9 22.2l32.5 2.7 39.3-16.7z"/><path fill="#dc0d27" d="M82 119a54 54 0 0 0 41.7-42c2.9-18.3-7.8-30.6-7.8-30.6s1.2 9.8-1 20.2a56 56 0 0 1-32 40.2c-27.7 13-57.9 4.4-57.9 4.4s20.6 15 57 7.9"/><path fill="#fed3b0" d="M25 52.8c-5.6-1.5-12.4 2.7-13.4 14.8-1 11.2 5.1 24.6 11 23 5-1.4.2-10.7 2-18.3s8.7-17.4.3-19.5"/><path fill="#bdcf44" d="M31.9 46c-.8 1 1 5.5 10.2 5.4s10.7-2.8 14.8-1.6 7.3 6.2 11.8 8.9c6.3 3.8 15.4 2.8 15.4 1.1s-2.3-.8-4.2-3.1c-2-2.4-5.4-8.6-5.4-8.6s1-3 3-2.8a24 24 0 0 0 12.7-2.5c3.4-2.1 4.6-5.4 4-6.1-.6-.8-2.5 1.2-3.6 1s-7.9 0-7.9 0l-8.2-1.4s1.1-4.8 3.3-7.3 5.8-5.9 5.7-6.3-2.9 0-2.9 0l-8.7 4-6 8L54.3 36l-11.1-7.4s-6.4-5.2-6.7-5c-1.6.6.9 3 2.7 6 1.6 2.6 2 3.9 4.1 5.7 2.1 1.7 5.7 3.4 5.7 3.4l-2.6 4.6s-8.2 3.3-9.6 3.3-4.5-1.2-5-.7"/><path fill="#94a61d" d="M57.5 43.3c3.4.2 5.8 4.7 8.8 7.7 4.4 4.4 7.9 6.7 11.6 7.6l6.1 1.1s.6-.4-1.5-1.6-3.4-3.4-3.7-4.5-1.3-4.5-3.3-7.3-4.4-4.1-3.6-5.4 7.1.9 13.3 0c8.1-1.4 9.4-4 9-4.3s-5.4 1.2-8 .6-4.7-2.3-8.5-2.3c-2.6 0-5.2 1-5.9-.5-.6-1.2 1.6-5.2 3.3-6.7 4-3.6 8.4-4.5 8.4-5 0-1-7.1-1.6-12 2.3s-4 9-10.3 9c-2.1 0-3-.5-3-.5s-2.8-2.3-6.5-4.4-6.7-1.1-8.9-2.2c-2.1-1-6-3.8-6.3-3.2s2.8 4.3 7 7.3 8.6 4.6 7.3 5.8-3.4 2-5.5 3.6-3.8 3.8-6.3 4.6-6.6.3-7.1 1 4.3 3 11.9 1.6c7.6-1.5 7.6-4.8 13.7-4.3"/><path fill="#728035" d="M65.1 5c-1.6-.1-3.8 1.2-3.8 1.2s-3 3.7-4.2 13c-.6 4.3 0 10-.1 13.2s-.8 4.3-.6 6c.2 1.5 1.9 3.4 5.8 3.3 3.1 0 4.7-2.4 4.7-3.3s-2.8-9.7-2-17.6c.7-7.2 3.3-12.3 3.5-13.3 0-.6-.7-2.4-3.3-2.6"/></svg>