<svg xmlns="http://www.w3.org/2000/svg" width="1em" height="1em" viewBox="0 0 128 128"><path fill="#ff2a23" d="M119.77 69.38s1.71-13.05-1.4-18.95-12.71-18.93-32.62-21.28c-10.56-1.24-17.71.16-24.23.93-4.13.49-11.82-2.05-25.63 1.09C25.65 33.5 10.11 42.51 5.06 61.93 2.4 72.16 3.41 83.21 7.94 92.52c8.7 17.86 24.85 22.21 24.85 22.21l32.46 2.64 39.3-16.62z"/><path fill="#dc0d27" d="M82.03 119.08c20.66-4.04 38.52-22.52 41.63-42.09 2.91-18.31-7.79-30.58-7.79-30.58s1.22 9.77-1.06 20.18c-2.45 11.14-9.54 29.71-32 40.23-27.57 12.91-57.77 4.4-57.77 4.4s20.52 14.99 56.99 7.86"/><path fill="#fed3b0" d="M24.92 52.76c-5.49-1.42-12.34 2.73-13.33 14.88-.91 11.13 5.12 24.54 11.03 22.94 5.02-1.36.19-10.66 1.98-18.29 1.81-7.63 8.69-17.36.32-19.53"/><path fill="#bdcf44" d="M31.87 46.05c-.78 1.01 1.03 5.45 10.22 5.39 9.18-.06 10.72-2.83 14.81-1.59s7.28 6.16 11.8 8.85c6.32 3.76 15.44 2.8 15.38 1.13-.06-1.68-2.29-.82-4.21-3.17-1.92-2.36-5.32-8.59-5.32-8.59s.95-2.92 2.96-2.81c4.64.25 9.8-.67 12.64-2.45 3.4-2.12 4.68-5.39 4.06-6.14-.62-.74-2.55 1.26-3.6 1.07s-7.88-.06-7.88-.06l-8.25-1.34s1.13-4.83 3.36-7.31 5.73-5.89 5.66-6.32-2.88-.05-2.88-.05l-8.69 3.97-6.08 8-11.54 1.49-11.11-7.45s-6.37-5.14-6.66-5.02c-1.61.66.84 3.11 2.69 6.07 1.6 2.57 1.93 3.86 4.09 5.65 2.11 1.74 5.65 3.47 5.65 3.47l-2.54 4.59s-8.19 3.23-9.62 3.23c-1.42.01-4.51-1.16-4.94-.61"/><path fill="#94a61d" d="M57.51 43.28c3.35.25 5.77 4.7 8.79 7.73 4.41 4.41 7.86 6.71 11.57 7.58 1.86.43 6.13 1.14 6.13 1.14s.62-.43-1.49-1.61-3.38-3.44-3.69-4.49-1.28-4.5-3.32-7.36-4.36-4.07-3.62-5.37 7.14.9 13.3-.09c8.13-1.3 9.37-3.91 9-4.22s-5.4 1.18-7.94.62-4.72-2.3-8.56-2.3c-2.62 0-5.18.95-5.87-.48-.58-1.2 1.6-5.21 3.26-6.72 4.03-3.66 8.38-4.53 8.38-5.03 0-1.03-7.07-1.61-11.97 2.3-4.88 3.89-3.96 9-10.3 9-2.11 0-2.92-.5-2.92-.5s-2.83-2.33-6.61-4.38-6.63-1.14-8.81-2.19c-2.17-1.05-6.02-3.77-6.39-3.22s2.89 4.27 6.99 7.31 8.69 4.59 7.38 5.83c-1.3 1.24-3.47 2.05-5.52 3.6s-3.85 3.78-6.33 4.59-6.56.24-7.12.92 4.32 3.03 11.95 1.61c7.61-1.42 7.63-4.72 13.71-4.27"/><path fill="#728035" d="M65.12 4.94c-1.67-.08-3.78 1.24-3.78 1.24s-3.06 3.73-4.27 12.99c-.56 4.28.05 10.03-.07 13.2-.12 3.16-.81 4.34-.62 5.96.19 1.61 1.88 3.43 5.79 3.39 3.14-.03 4.76-2.46 4.7-3.33s-2.75-9.74-1.99-17.56c.71-7.27 3.36-12.29 3.47-13.34.06-.57-.69-2.43-3.23-2.55"/></svg>