<svg viewBox="0 0 128 128"><path fill="#fff" d="M43.8 29c-1.4 1.9-.2 8-2 16.8S35.6 62 36.2 72.6c1.3 21.3 22.2 25.3 22.2 25.3v9s-14 1.6-14 7.6 10 8.2 19.3 8 18.6-2.8 18.7-8.1c0-5.9-14.2-7.8-14.2-7.8l-.1-4.1.2-4.6s21-3.1 22-25c.3-10-4-19.8-4.6-28.3s0-12.5 0-15-2 3.6-22.2 3.8c-18.3.3-18-6.6-19.6-4.4" opacity=".5"/><path fill="#e0e0e0" d="M43.8 29c-1.4 1.9-.2 8-2 16.8S35.6 62 36.2 72.6c1.3 21.3 22.2 25.3 22.2 25.3v9s-14 1.6-14 7.6 10 8.2 19.3 8 18.6-2.8 18.7-8.1c0-5.9-14.2-7.8-14.2-7.8l-.1-4.1.2-4.6s21-3.1 22-25c.3-10-4-19.8-4.6-28.3s0-12.5 0-15-12.3-4-22-4.2-18.2 1.4-19.8 3.6" opacity=".7"/><path fill="#c9c9c9" d="M46.3 29.5A86 86 0 0 1 62.7 28c11.6 0 20.5 1.8 20.5 1.8l1.3-2.5s-4.7-2.9-21.5-2.6q-7.6.1-12 .7c-5.2.5-5.7 4.1-4.7 4"/><path fill="#ffebc9" d="M45.1 42.8c-.2-.4-.5-1.5.6-2.2s3.5-2.5 17-2.4c13.4 0 20 1.9 20 3.4 0 1-1.3 2.4-1.3 2.4l-16.7 3.7z"/><radialGradient id="a" cx="63.6" cy="47.1" r="40.1" gradientTransform="matrix(.0123 .9999 -1.6696 .0206 141.405 -17.521)" gradientUnits="userSpaceOnUse"><stop offset=".3" stop-color="#ffd3a6"/><stop offset=".3" stop-color="#ffcf97"/><stop offset=".4" stop-color="#ffc471"/><stop offset=".5" stop-color="#ffb334"/><stop offset=".6" stop-color="orange"/><stop offset=".7" stop-color="#ff8702"/><stop offset=".8" stop-color="#ff5b05"/><stop offset=".9" stop-color="#ff3f06"/><stop offset="1" stop-color="#ff3507"/></radialGradient><path fill="url(#a)" d="M64.5 44.5c7.9-.1 18.2-2.9 18.2-2.9l1.6 10.7c.6 3.4 5.5 15.9 2.2 27-1.8 6.2-8 15.1-22.3 15.1-19 0-25.8-13-26-22.6 0-8.6 3.7-16.7 5-20.5 1-3.5 1.7-9.7 1.7-9.7s5.4 3 19.6 2.9"/><path fill="#fff" d="M45 54.4c-.9 1.5-1.8 4.5-2.6 7.8q-1 3.4-1 9.1c0 3.3.9 10.1 7.3 9.6 2.1-.2-.3-4.2.5-14.9.6-9.8 3.4-12-1-12.6-2-.3-2.7.2-3.2 1m16 44.2.3 11.6c.4 1.3 1.1 2.8 4.7 2.6s1.7-3.7 1.6-4l-.5-8.3-.4-3z"/><path fill="#9f9f9f" d="M58.4 107.9c-.6-.2-3 3.8-3 4.2s2.8 3.1 8.3 3.1 7.9-2.7 7.9-3.2c0-.7-3-4.9-3-4.9l.2-8.6s-.6-1.3-1.5-.8-.9 1.1-.9 1.8v7.1c0 1.5 1.1 4.6-2.6 4.8-4.4.2-4.9-3.4-5.4-3.5"/><path fill="#9f9f9f" d="M60 97.1c0 .9 1.1 2.7 3.7 2.8s4.2-1.3 4.2-1.3 9.7-.6 16.8-8.7c6.5-7.5 7.7-19.4 4.6-30.2a60 60 0 0 1-3.5-20.1v-8.3c0-1.2-1.2-1.6-1.2 1.7-.1 3.5-.3 5.6 0 10.2 0 4 1.6 11 3 16.8 2.3 9.3 2.3 21.9-4.4 28.5a25 25 0 0 1-16.9 8c-4.5.3-6.4-.5-6.3.6"/><path fill="#ff2a23" d="m68.3 41.4 5.8-10.9c3.3-6.6 4.9-10.1 5.8-11s19-3.8 19.6-4 0 2.4 0 2.4c.1.5-.4 3-.4 3l-17 2.8-3.5 7-5.4 10.4z"/><path fill="#db0d25" d="M98 18c-.2 1.2 0 2.9 1 3 1.1 0 1.4-1.8 1.5-2.9 0-1-.1-2.5-1-2.5s-1.4.9-1.5 2.4m-13.8 6-.6-.6-.8-5a.7.7 0 0 1 1.3-.2l.8 5a1 1 0 0 1-.7.8"/><path fill="#db0d25" d="m83.2 24.3-.6-.4-2.1-4.7q-.2-.5.3-.9c.5-.4.7 0 .9.3l2 4.8q.2.6-.3.8z"/><path fill="#db0d25" d="m82 24.6-.6-.2-3-3.5a1 1 0 0 1 0-.9 1 1 0 0 1 1 0l3 3.5a.7.7 0 0 1-.5 1.1"/><path fill="#f8c976" d="m56.6 41.4-30-38.2s.3-1 .8-1.4 1.3-.4 1.3-.4l31.2 40z"/><path fill="#c9c9c9" d="m45 28 2.6 2.6 8.3 2.9 17.3.2 10-3.8 1.3-2.5s1.9.7 1.8 2.7c0 1.7-.7 3.5-5 5s-9 2.4-17.3 2.4-18.6-1.2-20.6-5.2C42 29.7 44.9 28 44.9 28"/><path fill="#f9fbfa" d="M44.2 29.6c-.2 1 2.5 3.5 10.3 4.8 8.7 1.5 18.7 0 22.5-.6 5.6-1 7.4-2.7 7.1-3.8-.3-1.3-1.5-.4-2.4 0a64 64 0 0 1-32.5.3c-1.7-.8-4.5-2.7-5-.7"/><path fill="#d5d5d5" d="M58.8 97.2c.1-1-2.3-1.3-5.9-2.9S40.8 88.7 38 78.6c-2.7-9.8 0-16.3 3.5-26.6 1.5-4.4 2.6-11 2.7-14.5s.2-4.8-.8-5.2-.8 1-.8 5-1.3 9.5-2.7 13.6c-3.6 10.2-7.2 18-3.6 29.2 2.2 7 6.2 11.6 15.2 15.9 4.1 2 7.2 2.7 7.3 1.2"/><path fill="#fff" d="M47.4 112.8c-1.3.2-1.6 2 1.4 3.9s10.2 2.7 10.5 1.6-4.3-1.6-7.9-3.4c-2.4-1.2-2.7-2.3-4-2.1m21 6c.5.8 8.7.2 10.8-2.4 2-2.6.5-4.7-2-4.6-1.8.2.8 1.5-1.5 3.2s-8.1 2.4-7.3 3.8"/><path fill="#9f9f9f" d="M44.7 112.9c-.6 0-2 2.6-.8 5q1.2 2 4.2 3.4c2.9 1.5 7.5 2.8 15 2.8q8-.2 12-1.6c5.6-1.6 7-4.6 7.2-5.5.4-1.3.3-3.1 0-3.2-.4 0-.8 1.7-1.5 2.6q-2 2.6-6.4 3.6c-2.9.7-5.7 1.3-11.7 1.2-12.3-.3-15.6-3.4-16.9-5-1.4-2-.3-3.4-1-3.4"/><path fill="#ff8e00" d="M36.4 13.2c-2.5 2-6 6.5-5 14.5C32 33.5 36 38 36.3 38S60 18 60 17.7s-2.8-5.7-9.5-7.5-12 1.3-14 3"/><path fill="orange" d="m48.7 23.9 7.8-6.5s-2.8-3.6-7-4.5zM34 26.4c.4 4.3 2.5 7.7 2.5 7.7l8.3-7zm12.4-3 1-10.8q-4-.8-8 1.9zm-8.7-7.1a12 12 0 0 0-3.6 7.5L45 25z"/><path fill="#dc0d27" d="M30.2 7.8s1 1.1 2 .1.2-1.8.2-1.8 3.4-1.1 5.5 1.2 2 5.8-.6 7.6c-2.4 1.7-5.7 1.5-7.5-1.5s.4-5.7.4-5.7"/></svg>