<svg xmlns="http://www.w3.org/2000/svg" width="1em" height="1em" viewBox="0 0 128 128"><path fill="#fff" d="M43.78 28.97c-1.4 1.92-.2 7.96-1.91 16.82s-6.39 16.23-5.74 26.79c1.31 21.35 22.16 25.28 22.16 25.28v9.06s-13.9 1.61-14 7.55 10.07 8.26 19.34 8.06 18.53-2.82 18.63-8.16c.11-5.85-14.2-7.75-14.2-7.75s-.1-2.22-.1-4.13.2-4.63.2-4.63 21.08-3.08 21.95-24.98c.4-10.07-3.93-19.74-4.53-28.3s.1-12.49.1-15.01-2.13 3.58-22.33 3.85c-18.29.25-17.95-6.67-19.57-4.45" opacity=".5"/><path fill="#e0e0e0" d="M43.78 28.97c-1.4 1.92-.2 7.96-1.91 16.82s-6.39 16.23-5.74 26.79c1.31 21.35 22.16 25.28 22.16 25.28v9.06s-13.9 1.61-14 7.55 10.07 8.26 19.34 8.06 18.53-2.82 18.63-8.16c.11-5.85-14.2-7.75-14.2-7.75s-.1-2.22-.1-4.13.2-4.63.2-4.63 21.08-3.08 21.95-24.98c.4-10.07-3.93-19.74-4.53-28.3s.1-12.49.1-15.01-12.39-3.93-22.16-4.13-18.12 1.31-19.74 3.53" opacity=".7"/><path fill="#c9c9c9" d="M46.31 29.45c2.48-.49 8.05-1.37 16.37-1.37 11.58 0 20.52 1.81 20.52 1.81l1.33-2.53s-4.78-2.85-21.5-2.56c-5.19.09-9.09.36-11.96.67-5.28.57-5.73 4.18-4.76 3.98"/><path fill="#ffebc9" d="M45.13 42.81c-.26-.39-.54-1.5.56-2.21s3.5-2.46 16.96-2.4c13.47.06 20.07 1.88 20.07 3.43 0 .94-1.36 2.4-1.36 2.4l-16.64 3.63z"/><radialGradient id="a" cx="63.616" cy="47.06" r="40.067" gradientTransform="matrix(.0123 .9999 -1.6696 .0206 141.405 -17.521)" gradientUnits="userSpaceOnUse"><stop offset=".262" stop-color="#ffd3a6"/><stop offset=".304" stop-color="#ffcf97"/><stop offset=".384" stop-color="#ffc471"/><stop offset=".494" stop-color="#ffb334"/><stop offset=".578" stop-color="orange"/><stop offset=".667" stop-color="#ff8702"/><stop offset=".817" stop-color="#ff5b05"/><stop offset=".932" stop-color="#ff3f06"/><stop offset="1" stop-color="#ff3507"/></radialGradient><path fill="url(#a)" d="M64.46 44.48c7.9-.09 18.26-2.85 18.26-2.85s1.05 6.97 1.62 10.68c.51 3.38 5.45 15.88 2.18 26.91-1.86 6.26-7.95 15.18-22.37 15.18-18.88 0-25.74-13-25.87-22.56-.12-8.69 3.66-16.75 4.84-20.52 1.09-3.48 1.78-9.69 1.78-9.69s5.35 3.01 19.56 2.85"/><path fill="#fff" d="M45.02 54.43c-.9 1.5-1.84 4.43-2.63 7.77-.54 2.27-1.11 5.16-1 9.14.09 3.25.9 10.1 7.29 9.57 2.15-.18-.24-4.24.48-14.89.66-9.84 3.47-12.11-.88-12.66-2.14-.25-2.73.19-3.26 1.07m15.85 44.19s.28 11.13.38 11.57c.31 1.34 1.09 2.82 4.63 2.57s1.77-3.62 1.64-3.87-.55-8.38-.55-8.38l-.38-2.95z"/><path fill="#9f9f9f" d="M58.35 107.87c-.57-.12-2.95 3.83-2.95 4.25s2.75 3.1 8.31 3.1 7.86-2.67 7.85-3.18c-.01-.78-2.9-4.92-2.9-4.92l.13-8.59s-.63-1.34-1.49-.85-.86 1.12-.86 1.79-.08 5.67-.03 7.15 1.11 4.6-2.65 4.79c-4.37.23-4.84-3.42-5.41-3.54"/><path fill="#9f9f9f" d="M59.96 97.1c.04.85 1.18 2.71 3.74 2.76 2.57.05 4.16-1.25 4.16-1.25s9.76-.65 16.82-8.74c6.53-7.48 7.7-19.37 4.59-30.22-3.3-11.51-3.33-13.95-3.43-20.1-.04-2.37.09-7.62.05-8.23-.07-1.24-1.28-1.6-1.33 1.63-.06 3.53-.24 5.63-.05 10.2.17 4.05 1.68 11.06 3.1 16.85 2.27 9.28 2.26 21.86-4.43 28.49-6.88 6.82-13.24 7.83-16.88 8.02-4.51.25-6.4-.48-6.34.59"/><path fill="#ff2a23" d="M68.3 41.43s4.32-7.9 5.81-10.93c3.26-6.57 4.86-10.13 5.76-11.08.9-.96 19.11-3.77 19.65-3.83s0 2.33 0 2.33c.12.48-.39 2.96-.39 2.96l-17.02 2.85s-2.32 4.66-3.5 7.02c-2.57 5.15-5.38 10.34-5.38 10.34z"/><path fill="#db0d25" d="M97.95 18c-.11 1.23.07 2.85 1.04 2.91 1.13.07 1.38-1.76 1.49-2.81.1-.94-.1-2.51-.94-2.51s-1.46.9-1.59 2.41m-13.76 5.95a.65.65 0 0 1-.54-.54l-.83-5.05a.654.654 0 0 1 1.29-.21l.83 5.05a.654.654 0 0 1-.75.75"/><path fill="#db0d25" d="M83.15 24.28c-.25 0-.49-.14-.59-.39l-2.08-4.71c-.14-.33 0-.71.33-.86s.71 0 .86.33l2.08 4.71c.14.33 0 .71-.33.86-.09.05-.18.06-.27.06"/><path fill="#db0d25" d="M81.92 24.62a.64.64 0 0 1-.49-.22l-3.07-3.48a.65.65 0 0 1 .06-.92.65.65 0 0 1 .92.06l3.07 3.48a.65.65 0 0 1-.49 1.08"/><path fill="#f8c976" d="M56.59 41.38 26.61 3.16s.25-.94.78-1.34c.53-.41 1.34-.41 1.34-.41l31.18 40.05z"/><path fill="#c9c9c9" d="m44.93 27.94 2.69 2.69 8.33 2.82 17.22.25 10.03-3.8 1.31-2.54s1.86.71 1.78 2.76c-.07 1.63-.65 3.46-4.91 4.96s-9.14 2.38-17.35 2.44-18.6-1.19-20.66-5.2c-1.35-2.61 1.56-4.38 1.56-4.38"/><path fill="#f9fbfa" d="M44.19 29.61c-.23.96 2.55 3.47 10.35 4.79 8.62 1.46 18.68.03 22.43-.64 5.61-1 7.43-2.69 7.16-3.74-.35-1.34-1.55-.46-2.46-.09-.91.36-9.57 2.64-18.55 2.37s-12.26-1.14-13.95-1.96-4.5-2.73-4.98-.73"/><path fill="#d5d5d5" d="M58.81 97.22c.09-1.02-2.29-1.31-5.87-2.92S40.77 88.66 38 78.55c-2.68-9.76-.08-16.29 3.49-26.57 1.52-4.38 2.59-11.01 2.68-14.5s.27-4.78-.8-5.16-.81 1.05-.81 4.89-1.24 9.57-2.68 13.69c-3.58 10.2-7.21 17.99-3.6 29.24C38.54 87.18 42.5 91.69 51.51 96c4.11 1.97 7.17 2.69 7.3 1.22"/><path fill="#fff" d="M47.35 112.8c-1.25.22-1.55 2 1.49 3.89s10.14 2.69 10.48 1.6-4.29-1.6-7.9-3.38c-2.4-1.17-2.76-2.34-4.07-2.11m21.04 5.95c.47.8 8.7.23 10.77-2.35 2.06-2.58.52-4.75-1.89-4.58-1.9.14.74 1.49-1.55 3.21-2.29 1.71-8.14 2.34-7.33 3.72"/><path fill="#9f9f9f" d="M44.74 112.85c-.63.05-2 2.63-.8 5.04.72 1.45 2.14 2.43 4.12 3.44 2.93 1.49 7.57 2.78 14.96 2.72 5.51-.04 9.33-.71 12.12-1.52 5.55-1.6 6.88-4.68 7.16-5.56.39-1.23.27-3.1-.05-3.15-.35-.05-.8 1.68-1.5 2.58-1.34 1.71-3.42 2.95-6.32 3.63-2.93.69-5.75 1.32-11.72 1.18-12.31-.29-15.63-3.38-16.89-5.1-1.41-1.92-.34-3.32-1.08-3.26"/><path fill="#ff8e00" d="M36.43 13.16c-2.56 1.99-6.04 6.49-5.06 14.53.71 5.86 4.6 10.38 4.89 10.32s23.76-19.95 23.7-20.35-2.74-5.65-9.44-7.48-12.03 1.37-14.09 2.98"/><path fill="orange" d="m48.65 23.9 7.88-6.51s-2.81-3.55-7.1-4.52zm-14.53 2.45c.4 4.32 2.48 7.7 2.48 7.7l8.28-6.97zm12.35-3.03.99-10.72c-2.44-.38-5.41-.02-8.05 1.9zm-8.7-7.04c-2.18 2.22-3.27 4.58-3.52 7.5l10.62 1.31z"/><path fill="#dc0d27" d="M30.17 7.75s1.04 1.19 2.12.15c.9-.86.09-1.8.09-1.8s3.41-1.13 5.47 1.22 2 5.78-.52 7.56c-2.43 1.72-5.76 1.57-7.56-1.43-1.77-3 .4-5.7.4-5.7"/></svg>