<svg viewBox="0 0 128 128"><path fill="#7a9c41" d="M30.4 22.8c-.6-1-6.8-7.2-6.8-7.2s-1.4-2-4.2-2-3.7 2.8-5.8 6.4c-1.8 3.1-9.9 16-9.8 36.1a52 52 0 0 0 11.7 36.3 68 68 0 0 0 38.9 20.8c17 3.2 39.8 1.9 52.6-7s15.3-18.8 16.5-26c1.5-9.2 1.2-21.1-2.5-22.5-3.2-1.2-8.2 1.4-8.2 1.4z"/><path fill="#fff6a0" d="M108.7 55h3.7l6.5 2.4s-17 35.6-51.2 43.4C35.5 108.2 11.9 92.5 9.2 63a63 63 0 0 1 14-47.9l4.6 2.5L53 64z"/><path fill="#ff6c75" d="M31.6 89.2C49.5 102 79.4 94 95 77.6c16.3-17 17.4-22.5 17.4-22.5s-19.2-8-28.7-12.4-37.7-16.9-42.2-19l-13.9-6.3s-8.3 11.3-11.5 26.3-1.4 33.5 15.5 45.5"/><path fill="#2f2f2f" d="M42.6 42.2c.2.9-.4 4-4.6 5.9-2.1 1-3.8 0-4.4-1.5-.7-1.7.3-3.9 2.7-4.9 2.7-1.2 6.1-.1 6.3.5M50 54.6c1.3 1.2-.4 5-1.3 6.1-.9 1.2-3.6 3.7-5.8 1.4-2.3-2.5.6-5.4 1.6-6.2s4.3-2.5 5.5-1.3m13.4 5c-1.2 0-4.1 2.8-3.7 6.2.4 3.2 2 3.8 3.4 3.9 1.3 0 3-1.2 3.3-4.4.2-3.6-2-5.7-3-5.7m13.7-3c-.9.7-1.3 4 .3 6.7 1.3 2.1 3.6 3.1 5.4 1.7s1.5-4-.5-6.2-4.3-2.8-5.2-2.2"/><path fill="#c1ca32" d="M119.5 70.5c.4.7 1 2 0 3.8-1 1.5-2 2.3-1.7 4.2s1.8 1.6 1.7 5.5c0 2.9-2.2 5-4 6.5s-3 2.7-3.2 5.2c-.2 2.6-.6 5-2.2 6.5-2.7 2.6-5 1-7.5 3.5-2 2-1.6 3.8-1.6 3.8s-1.9 1-5.3 2c-4.2 1.4-6.5 1.6-6.5 1.6s2.4-1.8 3-3.7 1.4-5.1 3.7-7c4.5-3.6 7.7-.8 9.7-2.9 1.9-1.8-.3-4.1 2-8.4 2-3.6 6.1-3.6 6.4-6.4s-1.5-3-1-6.6c.7-4.4 6.3-8 6.5-7.6"/><path fill="#c1ca32" d="M57.2 113.7s.6-3.2 4.5-4.4c2.4-1 4.6.4 7-.4s2.7-4 6.3-5.7 6.2.8 9.6-.4 1.8-5.4 4.8-8.4c3.7-3.6 7-1.2 9.6-3.2 3.5-2.6 2.7-7 5.4-7 1.4 0 2 2.6 1.2 5.9a8 8 0 0 1-5.6 6c-2.5.7-4 .1-5.7 2.5-1.2 1.6-1.7 5.3-5.1 7.4-5.1 3-7 1-10 3-3.4 2.8-3.7 5.7-3.7 5.7s-6 .2-8.8 0c-4.5-.3-9.5-1-9.5-1m-20.6-6.1s5.5.4 8.3.2 8.2-1.2 8.5 1.4-2.4 3.3-2.4 3.3-4.6-1-7.5-2c-3-1.1-6.9-3-6.9-3"/></svg>