<svg viewBox="0 0 128 128"><path fill="#fff" d="m43.3 11.8 12 6.6 18 .5 11-6.5 1.6 4.2s7 18.8 6.5 29.4c-.5 9.9-1.7 18.6-10.8 26.5-6.9 6-13.7 6.4-13.7 6.4l.1 20.2s9 .4 14.2 3.9c4.8 3 5.6 6 5.6 8s-1.9 12.1-24.3 11.9-23.7-11.3-23.7-13.2 2.1-5.8 8.4-8.2c6-2.3 11.1-2 11.1-2v-21s-8.3-2-14.6-8.1a32 32 0 0 1-9.5-26.1c.8-12.2 8.1-32.5 8.1-32.5" opacity=".5"/><path fill="#e0e0e0" d="m43.3 11.8 4.8-4.3L55.5 5l17 .1 7.8 3.3 4 3.9 1.6 4.2s7 18.8 6.5 29.4c-.5 9.9-1.7 18.6-10.8 26.5-6.9 6-13.7 6.5-13.7 6.5V99s9 1 14.3 4.5c4.8 3 5.6 5.4 5.6 7.4s-1.9 12.1-24.3 11.9-23.7-11.2-23.7-13.2 2.1-5.8 8.4-8.2a38 38 0 0 1 11-2.4l.1-20.5s-8.3-2.1-14.6-8.2a32 32 0 0 1-9.5-26.1c.8-12.2 8.1-32.5 8.1-32.5" opacity=".7"/><path fill="#d4d4d4" d="M58.6 79c-.3 0-6.8-1.6-11.2-5a31 31 0 0 1-13.1-24c-.3-5.8 2-15.7 3.8-22.7S41.9 15 41.9 15s.3-.8.6-.6c.6.3 0 3 0 3-.5 1.9-1 3.6-2.6 10.5a96 96 0 0 0-3.6 22c.5 9.3 4.3 16.2 12.4 22.5 4 3.3 9.3 4.5 10 4.9s1.6.5 1.5 1.4-1.6.4-1.6.4"/><path fill="#9e9e9e" d="M68.6 79.3c-.7 0-1.5 0-1.5-.8-.1-1 1-1 1-1 .8-.2 4.6-.5 8.3-2.8a30 30 0 0 0 15-29.2 85 85 0 0 0-8-31.5l1.4-1.9c0 .1 7.7 15 8.6 33.3.7 13.7-4.4 24.3-15.6 31-4.1 2.5-8.8 2.8-9.2 2.9"/><path fill="#c8c8c8" d="M65.1 22h-.7c-8.8-.2-16.3-2.7-20-6.2a4 4 0 0 1-1.5-3.5c-.2-2.4 2.7-8.3 21-8.2C76 4 85 7.9 85.1 12.6q.2 2-1.6 4c-3.5 3.3-10.3 5.3-18.4 5.3m-2-15.3C51 6.6 45.7 10 45.8 12.2q-.2.6.7 1.5c2.4 2.5 8.8 5 17.8 5.2s14.7-2.2 17-4.5c.7-.8 1.1-1 1.1-1.6 0-2.3-4.8-6-17.7-6.2z"/><path fill="#fff" d="M65.3 19.7h-2.5c-14-.8-16.7-6.4-16.9-6.6-.2-.5-.3-1.5 0-1.6q.7-.1 1.4.8c.8.7 3.8 4.8 16.5 5 12.4.4 16.4-3.4 17.1-4 .5-.6 1.1-1.6 1.6-1.3s.2 1.5 0 2c-.5.7-3.6 5.7-17.2 5.7"/><path fill="#9e9e9e" d="M63.8 79.7c-2.2 0-1.7 1.7-1.8 12.7-.1 8.7.8 10.3 1.7 10.4 1 0 1.7-.6 1.7-9.9 0-10.7.4-13.2-1.6-13.2"/><path fill="#fff" d="M67.1 100c-.8.1 0 2-1 3.3s-2.6 1.8-2.5 3c0 1.3 6.6.5 6.6-1.9q-.2-1.2-1.4-2.4c-1.2-1.2-1.3-2-1.7-2"/><path fill="#9e9e9e" d="M52.1 109s2.9 3.9 11.7 4c8.8 0 11-2.6 11.4-3.7.2-.8-2.8-5-3.2-5s-1.3 4-8.2 3.8-7-3-7.5-3.5-4.2 4.5-4.2 4.5"/><path fill="#fff" d="M44 107.2c-2.3.3-2.4 2.9-1 5.2 3 4.8 12.6 8 13 5.4.5-2.3-4.5-2.9-4-6.7.4-2.9 5.4-5.5 4-7s-3.6 2-6.5 2.7c-2.5.6-3.8.2-5.5.4"/><path fill="#cacaca" d="M76.1 103.4c-1.2 1 2.5 2 2.3 5s-3.2 4.4-2.6 5.3c1 1.2 6.2-1.5 6-5.6-.2-3.4-4.6-5.6-5.7-4.7"/><path fill="#fff" d="M74.8 117.5c.4 1.4 6.4.8 9.1-3.2 3-4.2 1-7.7-.2-7.3s.5 3-2.4 5.7c-2.8 2.8-7 3.2-6.5 4.8"/><path fill="#9e9e9e" d="M39.8 109.5c-.3-.2-.7 2.2 0 4.1.7 1.6 4.2 10.2 24.7 10.4 22.9.1 24-9.7 23.7-12.4q-.4-2.5-.7-2.4c-.2 0-.3 1.5-.5 2.4-.5 2.7-3.1 9.6-22.1 9.7-17.3.2-22.4-6.9-23.3-8.1-.6-1-1.7-3.5-1.8-3.7"/><path fill="#cc1935" d="m38.3 47.9 3 8.4 11.3 6L67 65l14.3-12.4 5-7.4s-4.9-2.1-10.5-3c-8.7-1.2-16-1.6-24.7 0-10.7 2-12.8 5.7-12.8 5.7"/><radialGradient id="a" cx="64" cy="49.6" r="25.3" gradientTransform="rotate(90.155 64.987 50.615)scale(1 1.0419)" gradientUnits="userSpaceOnUse"><stop offset=".4" stop-color="#af0d1a"/><stop offset=".5" stop-color="#ab0c19"/><stop offset=".7" stop-color="#9f0b17"/><stop offset=".8" stop-color="#8a0813"/><stop offset=".9" stop-color="#6e050d"/><stop offset="1" stop-color="#68040c"/></radialGradient><path fill="url(#a)" d="M58 60.5c10 .3 11.4-5.5 19.6-11.3S89 45 89 45s2.7 12.4-6.7 22.3a25.6 25.6 0 0 1-35.4 1C38 61 38.3 48 38.3 48s7 12 19.7 12.5"/><path fill="#fff" d="M45 20s-1.3 4-3.1 12c-1.5 6.8-2.2 11.2-2.2 11.2s3.3-1.6 6.9-2.5c3.2-.9 6-.7 6-.7s0-5.2.4-9c.3-3 1-7 1-7s-2.8-.8-4.5-1.5-4.4-2.4-4.4-2.4"/></svg>