<svg xmlns="http://www.w3.org/2000/svg" width="1em" height="1em" viewBox="0 0 128 128"><path fill="#fff" d="m43.34 11.83 11.98 6.53 17.92.49 11.11-6.5 1.58 4.22s6.99 18.86 6.46 29.41c-.49 9.88-1.7 18.62-10.81 26.51-6.86 5.93-13.71 6.46-13.71 6.46L68 99.13s8.97.4 14.24 3.82c4.76 3.09 5.54 6.07 5.54 8.04 0 1.98-1.85 12.13-24.26 11.87s-23.74-11.21-23.74-13.19 2.12-5.79 8.44-8.18c5.93-2.24 11.08-1.98 11.08-1.98V78.56s-8.31-2.11-14.64-8.18c-3.91-3.75-10.42-12.26-9.49-26.11.8-12.14 8.17-32.44 8.17-32.44" opacity=".5"/><path fill="#e0e0e0" d="m43.34 11.83 4.75-4.35 7.38-2.37 17.01.13 7.78 3.3 4.09 3.82 1.58 4.22s6.99 18.86 6.46 29.41c-.49 9.88-1.7 18.62-10.81 26.51-6.86 5.93-13.71 6.46-13.71 6.46l.06 20.14s9.02 1.03 14.3 4.46c4.76 3.09 5.55 5.47 5.55 7.45s-1.85 12.13-24.26 11.87-23.74-11.21-23.74-13.19 2.12-5.79 8.44-8.18c5.93-2.24 11.01-2.4 11.01-2.4l.07-20.54s-8.31-2.11-14.64-8.18c-3.91-3.75-10.42-12.26-9.49-26.11.8-12.15 8.17-32.45 8.17-32.45" opacity=".7"/><path fill="#d4d4d4" d="M58.59 79.03c-.29-.09-6.77-1.66-11.17-5.1-8.56-6.7-12.62-14.09-13.14-23.95-.31-5.82 2.08-15.71 3.78-22.64 1.74-7.06 3.84-12.34 3.86-12.4 0 0 .28-.8.58-.65.63.32 0 3.1 0 3.1-.48 1.78-.94 3.46-2.64 10.42-1.67 6.81-3.86 16.5-3.57 22.05.49 9.23 4.3 16.17 12.37 22.48 4.1 3.21 9.31 4.47 10.02 4.81s1.63.5 1.5 1.41c-.14.94-1.59.47-1.59.47"/><path fill="#9e9e9e" d="M68.62 79.28c-.75.07-1.48-.06-1.54-.79-.08-.9 1.04-.96 1.04-.96.74-.27 4.53-.58 8.28-2.83 10.57-6.34 15.69-16.29 15.03-29.19-.92-17.79-7.9-31.34-7.97-31.47l1.32-1.94c.07.14 7.7 15.08 8.65 33.31.71 13.69-4.4 24.3-15.65 31.04-4.1 2.46-8.77 2.79-9.16 2.83"/><path fill="#c8c8c8" d="M65.13 21.92c-.25 0-.5 0-.75-.01-8.8-.13-16.32-2.61-19.96-6.13-1.3-1.25-1.48-2.12-1.55-3.5-.13-2.37 2.69-8.29 21.06-8.19 12.11.06 21.1 3.81 21.15 8.51.02 1.42-.23 2.58-1.58 3.92-3.45 3.39-10.29 5.4-18.37 5.4m-2.1-15.34c-12.04.1-17.2 3.42-17.15 5.57.01.55.05.86.71 1.54 2.4 2.5 8.85 5.08 17.84 5.21 8.96.15 14.65-2.25 16.97-4.54.75-.73 1.13-.97 1.13-1.55 0-2.27-4.87-5.94-17.75-6.22-.59 0-1.18-.01-1.75-.01"/><path fill="#fff" d="M65.32 19.74c-.81 0-1.66-.02-2.54-.07-14-.74-16.72-6.35-16.85-6.61-.24-.5-.35-1.47.03-1.58.51-.15.78.3 1.3.78.84.78 3.87 4.83 16.52 5.12 12.4.29 16.39-3.49 17.12-4.15.55-.5 1.13-1.54 1.59-1.24s.22 1.5-.05 1.97c-.42.72-3.55 5.78-17.12 5.78"/><path fill="#9e9e9e" d="M63.79 79.74c-2.15 0-1.71 1.65-1.82 12.62-.08 8.75.83 10.31 1.73 10.4.91.08 1.73-.58 1.73-9.82.01-10.72.34-13.2-1.64-13.2"/><path fill="#fff" d="M67.11 100.05c-.82.07.07 1.86-1.04 3.28-.88 1.12-2.53 1.79-2.46 3.05.07 1.27 6.55.45 6.55-1.94 0-.93-.68-1.58-1.34-2.46s-1.3-1.97-1.71-1.93"/><path fill="#9e9e9e" d="M52.14 109.06s2.85 3.82 11.63 3.9c8.86.08 11.05-2.6 11.38-3.66.24-.8-2.76-4.99-3.13-4.92s-1.34 3.96-8.19 3.71-7.03-2.94-7.58-3.45c-.44-.41-4.11 4.42-4.11 4.42"/><path fill="#fff" d="M43.95 107.2c-2.22.29-2.32 2.87-.89 5.21 2.9 4.77 12.53 8.03 13.03 5.44.45-2.31-4.61-2.9-4.1-6.78.37-2.83 5.44-5.44 4.02-6.93-1.41-1.49-3.57 2.01-6.48 2.68-2.54.59-3.87.16-5.58.38"/><path fill="#cacaca" d="M76.12 103.4c-1.24.99 2.46 2.01 2.31 5.06s-3.2 4.37-2.61 5.21c.89 1.27 6.14-1.42 5.96-5.59-.15-3.41-4.54-5.57-5.66-4.68"/><path fill="#fff" d="M74.78 117.48c.45 1.41 6.37.8 9.16-3.2 2.9-4.17.89-7.67-.22-7.3-1.12.37.45 2.98-2.38 5.73-2.84 2.75-7.06 3.19-6.56 4.77"/><path fill="#9e9e9e" d="M39.79 109.54c-.26-.24-.73 2.12.06 4.06.67 1.64 4.1 10.2 24.65 10.35 22.86.17 24.03-9.63 23.74-12.37-.19-1.81-.54-2.43-.72-2.43-.17-.01-.35 1.6-.5 2.47-.48 2.72-3.16 9.58-22.15 9.73-17.28.14-22.34-6.93-23.23-8.19-.63-.9-1.7-3.48-1.85-3.62"/><path fill="#cc1935" d="m38.26 47.89 3.07 8.36 11.26 6.06L67 65.03l14.33-12.45 5.03-7.42s-4.94-2.1-10.52-2.92c-8.7-1.28-16.09-1.6-24.79.02-10.69 1.99-12.79 5.63-12.79 5.63"/><radialGradient id="a" cx="63.951" cy="49.576" r="25.281" gradientTransform="rotate(90.155 64.987 50.615)scale(1 1.0419)" gradientUnits="userSpaceOnUse"><stop offset=".404" stop-color="#af0d1a"/><stop offset=".535" stop-color="#ab0c19"/><stop offset=".667" stop-color="#9f0b17"/><stop offset=".801" stop-color="#8a0813"/><stop offset=".935" stop-color="#6e050d"/><stop offset=".96" stop-color="#68040c"/></radialGradient><path fill="url(#a)" d="M57.96 60.51c10.06.34 11.43-5.54 19.62-11.34s11.51-4.09 11.51-4.09 2.75 12.47-6.74 22.34c-8.27 8.61-23.42 11.2-35.38 1.07-8.87-7.51-8.71-20.6-8.71-20.6s6.99 12.19 19.7 12.62"/><path fill="#fff" d="M45.09 20.08s-1.41 3.97-3.19 11.93c-1.53 6.84-2.16 11.19-2.16 11.19s3.22-1.6 6.81-2.54c3.25-.85 6.06-.68 6.06-.68s-.09-5.21.34-8.97c.35-3.1 1.11-7.09 1.11-7.09s-2.82-.68-4.53-1.45-4.44-2.39-4.44-2.39"/></svg>