<svg viewBox="0 0 128 128"><path fill="#1851ed" d="M6.2 61C9.7 22 46 4 66 4c26.6 0 54.3 22 56 60 2.8 33-22.9 60-56 60S2.6 101 6.2 61"/><path fill="#002691" d="M117.5 53.9c-1.6-5.5-6.4-11.1-12.4-11-6.8.6-12 5.4-17.3 9a135 135 0 0 1-53.3 21.6c-4.1.7-17.9 3-19.6 10.8a18 18 0 0 0 5 15.9c8.8 8.7 16 12.2 20 13.6 1.3.4 2.3-1 1.6-2-1.2-2-2.5-4.1-2.2-4.8 1.7-3.9 10.9 2 16.3 3 12.3 2.1 17 0 25-2.5 2.3-.7 6.6-2.7 8.7-1.6 2.3 1.3-2.5 6.7-5.6 9.8-.7.7 0 1.8 1 1.5A58 58 0 0 0 118 74.9a45 45 0 0 0-.6-21" opacity=".8"/><path fill="#f5f5f5" d="M31.1 65c0-18.8 15.9-37.2 32.1-37.2s31 15.5 33.5 37.1C99 83.7 81 102.3 60.5 100.1 39.7 97.8 31 83.7 31 64.9"/><ellipse cx="64" cy="64" fill="#5ac7f0" rx="20" ry="20.7"/><ellipse cx="64" cy="64" fill="#212121" rx="9.2" ry="8.5" transform="rotate(-64.094 63.996 64)"/><path fill="#00cfff" d="M27 35c-2.3-.4-6-4.6 1.9-11.3 8.7-7.3 14.1-6.9 15.4-5.8 2 1.7.5 4.1-3.5 7-6.7 4.8-7.9 11.4-13.9 10.2m-5.1 1.3c5.4.8 0 8.4-2 10-.3.4-2.1 1.5-3.6 1s-1.1-3.7-.9-4.8c.7-2.9 2.9-6.7 6.5-6.2" opacity=".6"/></svg>