<svg viewBox="0 0 128 128"><path fill="#ffcc80" d="M97.7 113.8C92 87.5 81.9 84 70.2 70.6 62.2 61.2 60.1 57 55 47l-8.4-16.8 19.3-10.8s12 27.5 22.8 38.4c5.5 5.5 23 22.9 35.2 56 1.2 3.2 0 11.8-13.2 10-10.9-1.6-12.2-6-13-10"/><path fill="#eaab57" d="M68.8 25.9c-2 .5-5 1.4-5.2 1.3L61.4 23 56 25.7 48 33l7 14 5.4 10.3s0-7.4 5.6-13c3-3.2 6.6-8.9 6.6-11z"/><path fill="#f44336" d="M29.6 66c.8.3 3 1.3 4.1-.2 4-4.8 14.2-24.7 20-26q2.8-.6 5.5-1.4c7.7-2.2 10.6-6 11.8-8.3.7-1.3.8-2.4-.4-4.5C69.3 23.3 60.3 5 60.3 5s-3.1-1-7 .3c-1.4.4-7 3.3-10.8 6.2-2.7 2-1.9 4.2-8 6.3-7 2.6-19.7 5.5-25.8 7-3.6.8-4.4 1.9-4.5 5a43 43 0 0 0 25.4 36.1"/><path fill="#c62828" d="M52 5c-2 .7-37.3 16.7-43.5 19-3.5 1.2-4.7.7-4.8 3.7-.1 5 3.4 22.5 17 33-1.6-2.3-11.3-11.7-13.3-30-.2-1.9 1-3.7 2.8-4C17.4 25 39.5 20 52.4 14c5.3-2.4 9.6-6.3 8-9-.8-1.3-4.4-1.4-8.4 0"/><path fill="#e0e0e0" d="M24.3 44.4C19.5 38.2 18 24.8 18 24.8s-7.2-1.4-10-.5c-3.5 1.2-3.8.6-3.9 4-.1 6 2.4 27 25.4 37.6.8.4 3 1.4 4.2 0 1.2-1.6 3.7-5.6 5.8-9-5.7-2.4-10-5.5-15.3-12.5"/><path fill="#bdbdbd" d="m10.2 26.6 7.9-1.8-3.6-3.3L7 24c-2.8 1-3.4 1.2-3.4 3.7 0 5 2.5 22.2 17 33C19 58.4 9.3 49 7.3 30.7c-.2-1.9 1-3.7 2.8-4.1"/><ellipse cx="49" cy="10.3" fill="#ffcc80" rx="10.4" ry="2.3" transform="rotate(-23.717 48.96 10.253)"/><path fill="#ff5450" d="M50.1 17.9c1.8.3 3 2 3.8 3.7q3 5.8 5 12.3v.7q-.1.4-.7.7c-1.8.9-4 1.7-6 1-2.4-.7-3.7-3.4-4.7-5.7l-3.2-7.8c-1.4-3.5 2.6-5.6 5.8-5"/></svg>