<svg xmlns="http://www.w3.org/2000/svg" width="1em" height="1em" viewBox="0 0 128 128"><path fill="#FFCC80" d="M97.66 113.81C91.95 87.49 81.91 84 70.23 70.55C62.12 61.21 60.07 57.08 55 46.98s-8.4-16.74-8.4-16.74l19.27-10.86S77.88 46.94 88.74 57.8c5.46 5.46 23.05 22.9 35.2 56.04c1.15 3.14 0 11.75-13.21 9.91c-10.92-1.53-12.19-5.91-13.07-9.94z"/><path fill="#EAAB57" d="M68.82 25.88c-2 .47-5.1 1.37-5.21 1.3l-2.21-4.14l-5.39 2.62l-8.04 7.33c1.43 2.85 3.9 7.77 7.03 14c1.68 3.34 3.52 6.85 5.45 10.28c0 0-.02-7.42 5.53-13.06c3.1-3.15 6.64-8.8 6.64-10.84c-1.28-2.81-2.56-5.1-3.8-7.49z"/><path fill="#F44336" d="M29.61 65.92c.81.37 2.95 1.38 4.14-.09c3.9-4.79 14.18-24.72 19.93-26.1c1.84-.44 3.71-.74 5.52-1.28c7.65-2.27 10.57-6.13 11.81-8.34c.72-1.28.76-2.42-.4-4.48c-1.29-2.3-10.28-20.65-10.28-20.65s-3.15-.92-6.99.28c-1.44.45-6.96 3.36-10.86 6.29c-2.72 2.04-1.88 4.11-7.93 6.29c-7.13 2.58-19.72 5.47-25.88 6.92c-3.59.85-4.39 1.94-4.49 4.97C4 35.61 8.31 56.34 29.61 65.92z"/><path fill="#C62828" d="M52 5.01c-1.95.68-37.28 16.67-43.54 18.95c-3.47 1.26-4.64.74-4.73 3.78c-.16 4.94 3.34 22.43 17.02 32.92c-1.62-2.22-11.36-11.67-13.31-29.9c-.21-1.93.88-3.74 2.78-4.15c7.16-1.55 29.32-6.53 42.2-12.57c5.27-2.47 9.55-6.39 7.93-9.04c-.78-1.27-4.35-1.4-8.35.01z"/><path fill="#E0E0E0" d="M24.27 44.43c-4.77-6.22-6.18-19.62-6.18-19.62s-7.15-1.4-9.96-.48c-3.51 1.15-3.83.57-3.91 4.02c-.13 5.86 2.35 26.94 25.4 37.56c.81.37 2.95 1.38 4.14-.09c1.2-1.47 3.73-5.55 5.82-8.9c-5.67-2.44-9.93-5.47-15.31-12.49z"/><path fill="#BDBDBD" d="M10.21 26.6c1.41-.31 7.88-1.79 7.88-1.79l-3.62-3.32s-3.91 1.3-7.32 2.49c-2.88 1-3.43 1.2-3.42 3.76c.01 4.94 2.5 22.15 17.02 32.92c-1.62-2.22-11.36-11.67-13.31-29.9c-.21-1.93.87-3.75 2.77-4.16z"/><ellipse cx="48.96" cy="10.25" fill="#FFCC80" rx="10.43" ry="2.25" transform="rotate(-23.717 48.96 10.253)"/><path fill="#FF5450" d="M50.13 17.86c1.78.34 2.89 2.09 3.73 3.7c2.04 3.94 3.73 8.06 5.04 12.3c.08.25.15.51.08.75c-.1.33-.44.53-.76.68c-1.85.91-3.97 1.72-5.94 1.1c-2.48-.78-3.75-3.45-4.75-5.84c-1.07-2.58-2.14-5.17-3.21-7.75c-1.47-3.55 2.53-5.57 5.81-4.94z"/></svg>