<svg viewBox="0 0 128 128"><path fill="#99674f" d="m115.6 12.9-.5-.6a24 24 0 0 0-34 0L13.8 79.8a26 26 0 0 0 0 36.7l.5.5a24 24 0 0 0 34 0l67.4-67.5a26 26 0 0 0 0-36.6m-94.2 89.8a2.6 2.6 0 0 1-3.7 0 2.6 2.6 0 0 1 0-3.7 2.6 2.6 0 0 1 3.7 0 2.6 2.6 0 0 1 0 3.7M23 92a2.6 2.6 0 0 1-3.7 0 2.6 2.6 0 0 1 0-3.7 2.6 2.6 0 0 1 3.7 0 2.6 2.6 0 0 1 0 3.7m7.3 19.7a2.6 2.6 0 0 1-3.7 0 2.6 2.6 0 0 1 0-3.7 2.6 2.6 0 0 1 3.7 0 2.6 2.6 0 0 1 0 3.7m2-10.4a2.6 2.6 0 0 1-3.7 0 2.6 2.6 0 0 1 0-3.7 2.6 2.6 0 0 1 3.7 0 2.6 2.6 0 0 1 0 3.7m1.5-11a2.6 2.6 0 0 1-3.8 0 2.6 2.6 0 0 1 0-3.7 2.6 2.6 0 0 1 3.8 0 2.6 2.6 0 0 1 0 3.7m1.6-10.7a2.6 2.6 0 0 1-3.7 0 2.6 2.6 0 0 1 0-3.7 2.6 2.6 0 0 1 3.7 0 2.6 2.6 0 0 1 0 3.7m5.7 30.4a2.6 2.6 0 0 1-3.8 0 2.6 2.6 0 0 1 0-3.7 2.6 2.6 0 0 1 3.8 0 2.6 2.6 0 0 1 0 3.7m1.6-10.7a2.6 2.6 0 0 1-3.7 0 2.6 2.6 0 0 1 0-3.7 2.6 2.6 0 0 1 3.7 0 2.6 2.6 0 0 1 0 3.7m2-10.4a2.6 2.6 0 0 1-3.7 0 2.6 2.6 0 0 1 0-3.7 2.6 2.6 0 0 1 3.7 0 2.6 2.6 0 0 1 0 3.7m8.8 8.7a2.6 2.6 0 0 1-3.8 0 2.6 2.6 0 0 1 0-3.7 2.6 2.6 0 0 1 3.8 0 2.6 2.6 0 0 1 0 3.7m26-62.2a2.6 2.6 0 0 1-3.6 0 2.6 2.6 0 0 1 0-3.7 2.6 2.6 0 0 1 3.7 0 2.6 2.6 0 0 1 0 3.7m8.7 8.7a2.6 2.6 0 0 1-3.7 0 2.6 2.6 0 0 1 0-3.7 2.6 2.6 0 0 1 3.7 0 2.6 2.6 0 0 1 0 3.7m2-10.3a2.6 2.6 0 0 1-3.7 0 2.6 2.6 0 0 1 0-3.8 2.6 2.6 0 0 1 3.7 0 2.6 2.6 0 0 1 0 3.8M92 23a2.6 2.6 0 0 1-3.7 0 2.6 2.6 0 0 1 0-3.7 2.6 2.6 0 0 1 3.7 0 2.6 2.6 0 0 1 0 3.7m5.6 30.5a2.6 2.6 0 0 1-3.7 0 2.6 2.6 0 0 1 0-3.8 2.6 2.6 0 0 1 3.7 0 2.6 2.6 0 0 1 0 3.8m1.7-10.8a2.6 2.6 0 0 1-3.7 0 2.6 2.6 0 0 1 0-3.7 2.6 2.6 0 0 1 3.7 0 2.6 2.6 0 0 1 0 3.7m1.4-11a2.6 2.6 0 0 1-3.7 0 2.6 2.6 0 0 1 0-3.7 2.6 2.6 0 0 1 3.7 0 2.6 2.6 0 0 1 0 3.7m2-10.3a2.6 2.6 0 0 1-3.7 0 2.6 2.6 0 0 1 0-3.8 2.6 2.6 0 0 1 3.7 0 2.6 2.6 0 0 1 0 3.8M110 41a2.6 2.6 0 0 1-3.7 0 2.6 2.6 0 0 1 0-3.8 2.6 2.6 0 0 1 3.7 0 2.6 2.6 0 0 1 0 3.8m1.7-10.8a2.6 2.6 0 0 1-3.7 0 2.6 2.6 0 0 1 0-3.7 2.6 2.6 0 0 1 3.7 0 2.6 2.6 0 0 1 0 3.7"/><path fill="#db9f70" d="m114.3 11.5-.5-.5a24 24 0 0 0-34 0L12.5 78.5a26 26 0 0 0 0 36.7l.5.5a24 24 0 0 0 34 0l67.4-67.5a26 26 0 0 0 0-36.7m-94.2 90a2.6 2.6 0 0 1-3.8 0 2.6 2.6 0 0 1 0-3.8 2.6 2.6 0 0 1 3.8 0 2.6 2.6 0 0 1 0 3.7m1.6-10.7a2.6 2.6 0 0 1-3.7 0 2.6 2.6 0 0 1 0-3.8 2.6 2.6 0 0 1 3.7 0 2.6 2.6 0 0 1 0 3.8m7.3 19.7a2.6 2.6 0 0 1-3.7 0 2.6 2.6 0 0 1 0-3.8 2.6 2.6 0 0 1 3.7 0 2.6 2.6 0 0 1 0 3.8m2-10.4a2.6 2.6 0 0 1-3.7 0 2.6 2.6 0 0 1 0-3.7 2.6 2.6 0 0 1 3.7 0 2.6 2.6 0 0 1 0 3.7m1.4-11a2.6 2.6 0 0 1-3.7 0 2.6 2.6 0 0 1 0-3.7 2.6 2.6 0 0 1 3.8 0 2.6 2.6 0 0 1 0 3.7M34 78.3a2.6 2.6 0 0 1-3.7 0 2.6 2.6 0 0 1 0-3.8 2.6 2.6 0 0 1 3.7 0 2.6 2.6 0 0 1 0 3.8m5.6 30.4a2.6 2.6 0 0 1-3.7 0 2.6 2.6 0 0 1 0-3.7 2.6 2.6 0 0 1 3.7 0 2.6 2.6 0 0 1 0 3.7M41.4 98a2.6 2.6 0 0 1-3.7 0 2.6 2.6 0 0 1 0-3.8 2.6 2.6 0 0 1 3.7 0 2.6 2.6 0 0 1 0 3.8m2-10.4a2.6 2.6 0 0 1-3.7 0 2.6 2.6 0 0 1 0-3.7 2.6 2.6 0 0 1 3.7 0 2.6 2.6 0 0 1 0 3.7m8.7 8.7a2.6 2.6 0 0 1-3.7 0 2.6 2.6 0 0 1 0-3.7 2.6 2.6 0 0 1 3.7 0 2.6 2.6 0 0 1 0 3.7m26.2-62.2a2.6 2.6 0 0 1-3.8 0 2.6 2.6 0 0 1 0-3.7 2.6 2.6 0 0 1 3.8 0 2.6 2.6 0 0 1 0 3.7m8.7 8.7a2.6 2.6 0 0 1-3.7 0 2.6 2.6 0 0 1 0-3.7 2.6 2.6 0 0 1 3.7 0 2.6 2.6 0 0 1 0 3.7m2-10.4a2.6 2.6 0 0 1-3.7 0 2.6 2.6 0 0 1 0-3.7 2.6 2.6 0 0 1 3.7 0 2.6 2.6 0 0 1 0 3.7m1.7-10.7a2.6 2.6 0 0 1-3.8 0 2.6 2.6 0 0 1 0-3.7 2.6 2.6 0 0 1 3.8 0 2.6 2.6 0 0 1 0 3.7M96.3 52a2.6 2.6 0 0 1-3.7 0 2.6 2.6 0 0 1 0-3.7 2.6 2.6 0 0 1 3.7 0 2.6 2.6 0 0 1 0 3.7M98 41.4a2.6 2.6 0 0 1-3.8 0 2.6 2.6 0 0 1 0-3.7 2.6 2.6 0 0 1 3.8 0 2.6 2.6 0 0 1 0 3.7m1.4-11a2.6 2.6 0 0 1-3.7 0 2.6 2.6 0 0 1 0-3.7 2.6 2.6 0 0 1 3.7 0 2.6 2.6 0 0 1 0 3.7m2-10.4a2.6 2.6 0 0 1-3.7 0 2.6 2.6 0 0 1 0-3.7 2.6 2.6 0 0 1 3.7 0 2.6 2.6 0 0 1 0 3.7m7.3 19.7a2.6 2.6 0 0 1-3.7 0 2.6 2.6 0 0 1 0-3.7 2.6 2.6 0 0 1 3.7 0 2.6 2.6 0 0 1 0 3.7m1.7-10.7a2.6 2.6 0 0 1-3.8 0 2.6 2.6 0 0 1 0-3.7 2.6 2.6 0 0 1 3.8 0 2.6 2.6 0 0 1 0 3.7"/><path fill="#99674f" d="M87.2 66c2-2.3 1.7-3-2.2-2.7-3.3.2-5.3 2.3-6.6 3.6l-14 14a3 3 0 0 1-4.6 0h-.1L48.2 69.3c-1.2-1.3-2.7-3-4.4-3.5-1.4-.4-2.6-1-5.2-.4-2.2.5 1.7 3.9 2.7 4.8L59 88a4.3 4.3 0 0 0 6 0z"/><path fill="#fcbf90" d="M88 58.9 67.7 38.7a4.3 4.3 0 0 0-6 0L41 59s-2.5 2.5.1 3c2.7.4 4.4 0 6.3-1.9l14.9-14.5a3 3 0 0 1 4.5 0l11.7 11.6q2.9 3 7.1 3.3c3.8.1 2.5-1.2 2.2-1.7"/></svg>