<svg xmlns="http://www.w3.org/2000/svg" width="1em" height="1em" viewBox="0 0 128 128"><path fill="#bdbdbd" d="M117.34 17.56c.12-4.96-2.09-9.62-5.95-11.85-5.8-3.35-12.44-1.66-15.71 4l-1.53 2.59 3.44 1.95 1.33-2.33c2.22-3.85 6.58-4.98 10.43-2.76 2.49 1.44 4.12 4.35 4.03 8.32v61.58l3.97-.02V17.56z"/><radialGradient id="a" cx="57.779" cy="-6.697" r="5.6" gradientTransform="rotate(5.317 -789.84 116.852)scale(.9917)" gradientUnits="userSpaceOnUse"><stop offset=".22" stop-color="#80deea" stop-opacity="0"/><stop offset="1" stop-color="#80deea" stop-opacity=".8"/></radialGradient><circle cx="64.96" cy="72.32" r="5" fill="url(#a)"/><radialGradient id="b" cx="105.614" cy="-9.612" r="6.332" gradientTransform="rotate(31.553 -38.604 45.95)scale(.9916)" gradientUnits="userSpaceOnUse"><stop offset=".261" stop-color="#80deea" stop-opacity="0"/><stop offset="1" stop-color="#80deea" stop-opacity=".8"/></radialGradient><circle cx="112.47" cy="73.52" r="5.66" fill="url(#b)"/><radialGradient id="c" cx="68.1" cy="-6.143" r="8.834" gradientTransform="rotate(5.317 -789.84 116.852)scale(.9917)" gradientUnits="userSpaceOnUse"><stop offset=".304" stop-color="#80deea" stop-opacity="0"/><stop offset="1" stop-color="#80deea" stop-opacity=".8"/></radialGradient><circle cx="75.14" cy="73.25" r="7.89" fill="url(#c)"/><radialGradient id="d" cx="79.794" cy="-10.893" r="10.587" gradientTransform="rotate(5.317 -789.84 116.852)scale(.9917)" gradientUnits="userSpaceOnUse"><stop offset=".261" stop-color="#80deea" stop-opacity="0"/><stop offset="1" stop-color="#80deea" stop-opacity=".8"/></radialGradient><circle cx="86.95" cy="70.12" r="9.46" fill="url(#d)"/><radialGradient id="e" cx="94.472" cy="-7.433" r="10.9" gradientTransform="rotate(5.317 -789.84 116.852)scale(.9917)" gradientUnits="userSpaceOnUse"><stop offset=".261" stop-color="#80deea" stop-opacity="0"/><stop offset="1" stop-color="#80deea" stop-opacity=".8"/></radialGradient><circle cx="101.12" cy="74.88" r="9.74" fill="url(#e)"/><radialGradient id="f" cx="79.25" cy="-114.314" r="9.645" gradientTransform="matrix(.8557 .5011 -.5055 .8633 -27.493 119.117)" gradientUnits="userSpaceOnUse"><stop offset=".376" stop-color="#80deea" stop-opacity="0"/><stop offset="1" stop-color="#80deea" stop-opacity=".8"/></radialGradient><circle cx="97.94" cy="59.69" r="8.07" fill="url(#f)"/><path fill="#78909c" d="M100.53 9.89c-.6-1.22-2.31-2.16-3.44-2.16-.79 0-1.18.5-1.71 1.41-.52.9-.21 2.06.69 2.58l1.64.94c.9.52 2.06.21 2.58-.69s.57-1.41.24-2.08"/><path fill="#bdbdbd" d="M98.06 10.6c-4.32-2.49-10.18-.43-12.69 3.85 0 0 2.53 3.31 7.25 5.95s8.45 3.11 8.45 3.11c2.45-4.31 1.31-10.41-3.01-12.91"/><path fill="#78909c" d="M99.05 25.62s-3.61-.59-8.16-3.4-6.71-5.18-6.71-5.18c-.74-.77-1.22-1.68-.69-2.59.52-.91 1.94-1.38 2.59-.69 0 0 1.94 2.54 6.73 5.19 5.17 2.86 8.14 3.39 8.14 3.39 1.17.27 1.22 1.68.69 2.59-.52.91-1.9.93-2.59.69"/><path fill="#dfecf5" d="M88.97 13.18c.43-1.51 2.8-2.56 4.43-2.76 1.58-.2 2.54.29 2.53 1.12-.01.79-.93 1.04-1.59 1.03-2.33-.05-3.23.46-3.63.69-1.74.98-1.78.08-1.74-.08"/><radialGradient id="g" cx="74.745" cy="-31.119" r="6.27" gradientTransform="rotate(5.317 -789.84 116.852)scale(.9917)" gradientUnits="userSpaceOnUse"><stop offset=".376" stop-color="#80deea" stop-opacity="0"/><stop offset="1" stop-color="#80deea" stop-opacity=".8"/></radialGradient><circle cx="83.27" cy="48.95" r="6.01" fill="url(#g)"/><path fill="#fff" d="M78.98 48.21c.5-.02.92-.77 1.82-1.46.82-.62 2.01-.92 2.73-.96.4-.02.97-.15 1.2-.57.13-.24-.08-1.42-1.76-1.19-1.98.27-3.72 1.57-4.16 2.75-.28.78-.31 1.44.17 1.43" opacity=".8"/><path fill="#eee" d="M13.06 75.92c5.32 20.33 4.89 36.85 23.12 36.85l66.2.48c20.91-.25 14.58-27.44 19.51-37.18-16.68 1.77-31.8 2.05-50.2.83-13.07-.86-24.37-9.25-36.93-12.07-8.67-1.31-18.27-3.35-26.74-.5 2.12 3.66 3.81 7.55 5.04 11.59"/><path fill="#b7d5e5" d="M114.23 82.29c-2.66 1.54-2.83 7.53-2.54 10.72.8 8.98-.04 14.4-4.26 16.32-.01-.33-.07-.7-.24-1.12-.56-1.4-1.84-2.64-3.35-2.65-2.92-.02-3.89 1.13-5.56 2.39-1.2.91-2.72 2.02-4.9 2.27l-48.63-.35c-1.97-.12-3.66-1.23-4.86-2.14-1.88-1.43-2.51-1.91-4.95-2.41-1.48-.3-2.79.65-3.34 2.05-.31.77-.35 1.4-.19 1.91-11.91-1.61-11.32-27.76-17.74-40.29-2.08-4.06-5.03-3.56-4.82-3.19 1.74 3.23 3.16 6.63 4.23 10.14 5.32 20.33 4.89 36.85 23.12 36.85l66.2.48c14.95-.18 16.86-14.27 17.89-31.59.07-1.45-4.82-.11-6.06.61"/><path fill="#69a1ba" d="M10.41 69.03c4.95-1.03 10.06-.11 11.59.22 14.95 3.23 24.77 9.51 42.52 13.43 19.71 4.35 42.22 3.06 55.68.1 0 0 .52-3.58.97-4.95 0 0-27.73 3.6-46.03 1.35-19.12-2.35-41.06-13.02-53.83-14.58-9.66-1.18-12.82.78-12.82.78z"/><path fill="#bdbdbd" d="M33 105.34c-2.41-.3-2.84 2.8-2.84 2.8s-1.45-1.82-3.85-1.24c-1.47.36-1.99 2.2-1.35 2.68 1.14.86 4.95 2.78 3.81 5.5-.44 1.06-1.65 1.37-2.81 1.89-2.66 1.2-3.7 3.18-3.96 4.45-.06.3-.08.77.6 1.13s1.93.7 5.12.7 5.43-.59 5.78-1.06c1.16-1.58-1-4.69 1.41-7.77.98-1.26 1.76-1.04 4.22-1.62.6-.14.49-1.67-.34-2.66-.64-.77-2.63-1.15-3.9-.46 0 0 1.09-3.97-1.89-4.34"/><path fill="#78909c" d="M39.61 110c-1.54-1.68-3.73-.82-4.12-.61.29-.16.14-1.65.1-1.9-.18-1.18-1.23-2.03-2.45-2.13 2.45 1.26.96 4.72.96 4.72s.72-.23 1.76-.43c1.19-.22 2.69.13 2.85 1.7.08.75-1.22 1.02-1.68 1.16-3.38 1-3.66 2.73-4.01 4.02-.34 1.25.55 3.35-.12 4.61-.88 1.66-4.34 1.73-6.9 1.38-1.98-.27-4-1.1-4-1.1s-.12 1 .6 1.41c3.39 1.92 9.51 1.14 11.33.08.27-.16.45-.38.51-.69.09-.52.16-1.46-.21-2.95-.38-1.54-.18-3.21.88-4.48.93-1.11 1.75-1.27 4.15-1.54 1.54-.17 1.22-2.31.35-3.25"/><path fill="#dfecf5" d="M26.48 117.41c1.4-.47 3.15-.44 2.94.63-.12.61-.85.93-1.64 1.17-.83.24-2.45.34-2.58-.24-.16-.73.42-1.28 1.28-1.56"/><path fill="#b7d5e5" d="M87.99 81.1c-7.04 0-21.7 0-39-6.67-10.29-3.96-27.25-11.19-41.46-8.05-1.61.35-3.19-.66-3.55-2.27-.35-1.6.66-3.19 2.27-3.55 16.03-3.53 33.97 4.41 45 8.36 16.89 6.05 30.55 6.2 37.05 6.22 10.93-.03 21.62-.23 32.22-2.43 1.61-.34 3.18.7 3.52 2.31.33 1.61-.7 3.18-2.31 3.52-11.14 2.31-22.16 2.53-33.41 2.55-.12.01-.22.01-.33.01"/><path fill="#fff" d="M31.2 77.94c1.24 2.33 1.37 5.09 1.18 7.72s-.66 5.26-.49 7.9c.15 2.34 2.16 6.24 2.3 7.65.1.95-.77 1.81-1.73 1.9-.95.09-1.87-.38-2.65-.94-3.24-2.35-4.95-6.29-5.88-10.19-1.26-5.3-2.6-10.34-3.27-12.08-1.94-5.02 1.27-7.27 5.09-6.29 2.3.6 4.33 2.24 5.45 4.33"/><path fill="#bdbdbd" d="M105.01 105.34c2.41-.3 2.84 2.8 2.84 2.8s1.45-1.82 3.85-1.24c1.47.36 1.74 2.3 1.23 2.75-1.21 1.04-4.83 2.71-3.69 5.43.44 1.06 1.65 1.37 2.81 1.89 2.66 1.2 3.7 3.18 3.96 4.45.06.3.08.77-.6 1.13s-1.93.7-5.12.7-5.43-.59-5.78-1.06c-1.16-1.58 1-4.69-1.41-7.77-.98-1.26-1.76-1.04-4.22-1.62-.6-.14-.49-1.67.34-2.66.64-.77 2.63-1.15 3.9-.46 0 0-1.09-3.97 1.89-4.34"/><path fill="#78909c" d="M98.4 110c1.54-1.68 3.73-.82 4.12-.61-.29-.16-.14-1.65-.1-1.9.18-1.18 1.23-2.03 2.45-2.13-2.45 1.26-.96 4.72-.96 4.72s-.72-.23-1.76-.43c-1.19-.22-2.69.13-2.85 1.7-.08.75 1.22 1.02 1.68 1.16 3.38 1 3.66 2.73 4.01 4.02.34 1.25-.55 3.35.12 4.61.88 1.66 4.34 1.73 6.9 1.38 1.98-.27 4-1.1 4-1.1s.12 1-.6 1.41c-3.39 1.92-9.51 1.14-11.33.08-.27-.16-.45-.38-.51-.69-.09-.52-.16-1.46.21-2.95.38-1.54.18-3.21-.88-4.48-.93-1.11-1.75-1.27-4.15-1.54-1.54-.17-1.22-2.31-.35-3.25"/><path fill="#dfecf5" d="M107.83 117.35c-.83.7-1.61 2.08-.96 2.85.27.32 1.15-.42 1.36-.6.55-.49 1.02-.84 1.59-1.31.25-.21.46-.5.39-.82-.16-.72-1.69-.7-2.38-.12"/><path fill="#fff" d="M82.14 68.06c-.3.21-.61.42-.97.49s-.77-.01-1-.29c-1.78-2.17 3.71-6.54 5.8-5.69 1.38.56 1.58 2.46.27 3.09-1.52.71-2.7 1.4-4.1 2.4" opacity=".8"/><path fill="#fff" d="M93.55 59.15c-.44-.07-.84-.43-1.01-.85-.21-.54-.12-1.15.07-1.69.46-1.31 1.54-2.41 2.86-2.84.36-.12.74-.19 1.12-.13.61.1 1.13.58 1.29 1.18.42 1.59-1.24 1.72-2.12 2.48-.63.54-.96 1.67-1.87 1.85a1 1 0 0 1-.34 0m-80.2 3.5c-.33 1.36 1.1 1.59 5.85 1.57 5.72-.02 9.73 1.83 9.18.59-.4-.9-4.46-3.05-7.87-3.37-2.08-.2-6.74-.46-7.16 1.21"/></svg>