<svg viewBox="0 0 128 128"><path fill="#bdbdbd" d="M117.3 17.6c.2-5-2-9.7-6-11.9a11 11 0 0 0-15.6 4l-1.5 2.6 3.4 2 1.3-2.4c2.2-3.8 6.6-5 10.4-2.7 2.5 1.4 4.2 4.3 4 8.3V79h4z"/><radialGradient id="a" cx="57.8" cy="-6.7" r="5.6" gradientTransform="rotate(5.317 -789.84 116.852)scale(.9917)" gradientUnits="userSpaceOnUse"><stop offset=".2" stop-color="#80deea" stop-opacity="0"/><stop offset="1" stop-color="#80deea" stop-opacity=".8"/></radialGradient><circle cx="65" cy="72.3" r="5" fill="url(#a)"/><radialGradient id="b" cx="105.6" cy="-9.6" r="6.3" gradientTransform="rotate(31.553 -38.604 45.95)scale(.9916)" gradientUnits="userSpaceOnUse"><stop offset=".3" stop-color="#80deea" stop-opacity="0"/><stop offset="1" stop-color="#80deea" stop-opacity=".8"/></radialGradient><circle cx="112.5" cy="73.5" r="5.7" fill="url(#b)"/><radialGradient id="c" cx="68.1" cy="-6.1" r="8.8" gradientTransform="rotate(5.317 -789.84 116.852)scale(.9917)" gradientUnits="userSpaceOnUse"><stop offset=".3" stop-color="#80deea" stop-opacity="0"/><stop offset="1" stop-color="#80deea" stop-opacity=".8"/></radialGradient><circle cx="75.1" cy="73.3" r="7.9" fill="url(#c)"/><radialGradient id="d" cx="79.8" cy="-10.9" r="10.6" gradientTransform="rotate(5.317 -789.84 116.852)scale(.9917)" gradientUnits="userSpaceOnUse"><stop offset=".3" stop-color="#80deea" stop-opacity="0"/><stop offset="1" stop-color="#80deea" stop-opacity=".8"/></radialGradient><circle cx="87" cy="70.1" r="9.5" fill="url(#d)"/><radialGradient id="e" cx="94.5" cy="-7.4" r="10.9" gradientTransform="rotate(5.317 -789.84 116.852)scale(.9917)" gradientUnits="userSpaceOnUse"><stop offset=".3" stop-color="#80deea" stop-opacity="0"/><stop offset="1" stop-color="#80deea" stop-opacity=".8"/></radialGradient><circle cx="101.1" cy="74.9" r="9.7" fill="url(#e)"/><radialGradient id="f" cx="79.3" cy="-114.3" r="9.6" gradientTransform="matrix(.8557 .5011 -.5055 .8633 -27.493 119.117)" gradientUnits="userSpaceOnUse"><stop offset=".4" stop-color="#80deea" stop-opacity="0"/><stop offset="1" stop-color="#80deea" stop-opacity=".8"/></radialGradient><circle cx="97.9" cy="59.7" r="8.1" fill="url(#f)"/><path fill="#78909c" d="M100.5 9.9a4 4 0 0 0-3.4-2.2q-1 0-1.7 1.4-.7 1.7.7 2.6l1.6 1q1.6.7 2.6-.7c1-1.4.6-1.4.2-2.1"/><path fill="#bdbdbd" d="M98 10.6c-4.3-2.5-10.1-.4-12.6 3.9 0 0 2.5 3.3 7.2 5.9s8.5 3.1 8.5 3.1c2.4-4.3 1.3-10.4-3-12.9"/><path fill="#78909c" d="M99 25.6s-3.6-.6-8.1-3.4-6.7-5.2-6.7-5.2q-1.3-1.1-.7-2.5c.5-1 2-1.4 2.6-.7a30 30 0 0 0 14.9 8.5c1.1.3 1.2 1.7.6 2.6s-1.9 1-2.5.7"/><path fill="#dfecf5" d="M89 13.2c.4-1.5 2.8-2.6 4.4-2.8q2.5-.2 2.5 1.1c0 .8-.9 1-1.6 1-2.3 0-3.2.5-3.6.8-1.7 1-1.8 0-1.7-.1"/><radialGradient id="g" cx="74.7" cy="-31.1" r="6.3" gradientTransform="rotate(5.317 -789.84 116.852)scale(.9917)" gradientUnits="userSpaceOnUse"><stop offset=".4" stop-color="#80deea" stop-opacity="0"/><stop offset="1" stop-color="#80deea" stop-opacity=".8"/></radialGradient><circle cx="83.3" cy="49" r="6" fill="url(#g)"/><path fill="#fff" d="M79 48.2c.5 0 .9-.8 1.8-1.5s2-.9 2.7-1q.8.1 1.2-.5c.2-.2 0-1.4-1.7-1.2-2 .3-3.8 1.6-4.2 2.8q-.5 1.3.2 1.4" opacity=".8"/><path fill="#eee" d="M13 76c5.4 20.3 5 36.8 23.2 36.8l66.2.5c20.9-.3 14.6-27.5 19.5-37.2-16.7 1.7-31.8 2-50.2.8-13-.9-24.4-9.2-37-12-8.6-1.4-18.2-3.4-26.7-.6Q11.2 70 13 76"/><path fill="#b7d5e5" d="M114.2 82.3c-2.6 1.5-2.8 7.5-2.5 10.7.8 9 0 14.4-4.3 16.3l-.2-1c-.6-1.5-1.9-2.7-3.4-2.7-2.9 0-3.8 1-5.5 2.4-1.2.9-2.7 2-5 2.2l-48.6-.3c-2-.2-3.6-1.3-4.8-2.2-1.9-1.4-2.5-1.9-5-2.4-1.4-.3-2.8.7-3.3 2q-.5 1.2-.2 2C19.5 107.7 20.1 81.5 13.7 69c-2.1-4-5-3.6-4.9-3.2q2.7 4.8 4.3 10.1c5.3 20.4 4.9 36.9 23.1 36.9l66.2.5c15-.2 16.9-14.3 17.9-31.6 0-1.5-4.8-.1-6 .6"/><path fill="#69a1ba" d="M10.4 69c5-1 10 0 11.6.3 15 3.2 24.8 9.5 42.5 13.4a142 142 0 0 0 55.7 0s.5-3.5 1-4.9c0 0-27.8 3.6-46 1.4-19.2-2.4-41.2-13-54-14.6-9.6-1.2-12.8.8-12.8.8z"/><path fill="#bdbdbd" d="M33 105.3c-2.4-.3-2.8 2.8-2.8 2.8s-1.5-1.8-3.9-1.2c-1.5.4-2 2.2-1.3 2.7 1.1.8 5 2.8 3.8 5.5q-1 1.3-2.8 1.9a7 7 0 0 0-4 4.4q-.2.5.6 1.2c.8.7 2 .7 5.1.7s5.4-.6 5.8-1.1c1.2-1.6-1-4.7 1.4-7.8 1-1.2 1.8-1 4.2-1.6.6-.1.5-1.7-.3-2.7-.7-.7-2.6-1.1-4-.4 0 0 1.2-4-1.8-4.4"/><path fill="#78909c" d="M39.6 110c-1.5-1.7-3.7-.8-4.1-.6.3-.2.1-1.7 0-2 0-1-1.1-2-2.4-2 2.5 1.2 1 4.7 1 4.7l1.8-.4c1.2-.3 2.7 0 2.8 1.6 0 .8-1.2 1-1.7 1.2-3.3 1-3.6 2.7-4 4s.6 3.4-.1 4.6c-.9 1.7-4.3 1.8-6.9 1.4-2-.3-4-1-4-1s-.1 1 .6 1.3c3.4 2 9.5 1.2 11.3.1q.5-.3.5-.7a7 7 0 0 0-.2-3 5 5 0 0 1 1-4.4c.8-1.1 1.7-1.3 4-1.6 1.6-.1 1.3-2.3.4-3.2"/><path fill="#dfecf5" d="M26.5 117.4c1.4-.5 3.1-.4 3 .6q-.5.9-1.7 1.2c-.8.2-2.5.3-2.6-.2q-.2-1.2 1.3-1.6"/><path fill="#b7d5e5" d="M88 81.1c-7 0-21.7 0-39-6.7-10.3-4-27.3-11.2-41.5-8a3 3 0 0 1-1.3-5.8c16-3.6 34 4.4 45 8.3 17 6 30.6 6.2 37.1 6.2 11 0 21.6-.2 32.2-2.4a3 3 0 1 1 1.2 5.8 164 164 0 0 1-33.4 2.6z"/><path fill="#fff" d="M31.2 78q1.6 3.5 1.2 7.7c-.4 4.2-.7 5.2-.5 7.9.1 2.3 2.2 6.2 2.3 7.6q-.2 1.6-1.7 2-1.6-.1-2.7-1c-3.2-2.4-5-6.3-5.9-10.2-1.2-5.3-2.6-10.4-3.2-12.1-2-5 1.2-7.3 5-6.3q3.7 1.1 5.5 4.3"/><path fill="#bdbdbd" d="M105 105.3c2.4-.3 2.9 2.8 2.9 2.8s1.4-1.8 3.8-1.2c1.5.4 1.7 2.3 1.2 2.8-1.2 1-4.8 2.7-3.7 5.4q1 1.3 2.9 1.9a7 7 0 0 1 4 4.4q.2.5-.7 1.2c-.9.7-2 .7-5.1.7s-5.4-.6-5.8-1.1c-1.1-1.6 1-4.7-1.4-7.8-1-1.2-1.8-1-4.2-1.6-.6-.1-.5-1.7.3-2.7.7-.7 2.7-1.1 4-.4 0 0-1.2-4 1.8-4.4"/><path fill="#78909c" d="M98.4 110c1.5-1.7 3.7-.8 4.1-.6-.3-.2-.1-1.7 0-2 .1-1 1.2-2 2.4-2-2.5 1.2-1 4.7-1 4.7l-1.7-.4c-1.2-.3-2.7 0-2.9 1.6 0 .8 1.2 1 1.7 1.2 3.4 1 3.6 2.7 4 4s-.6 3.4.1 4.6c.9 1.7 4.4 1.8 7 1.4 1.9-.3 4-1 4-1s0 1-.7 1.3c-3.4 2-9.5 1.2-11.3.1l-.5-.7a7 7 0 0 1 .2-3 5 5 0 0 0-.9-4.4c-1-1.1-1.7-1.3-4.1-1.6-1.6-.1-1.3-2.3-.4-3.2"/><path fill="#dfecf5" d="M107.8 117.4c-.8.6-1.6 2-1 2.8.3.3 1.2-.4 1.4-.6l1.6-1.3q.5-.3.4-.8c-.1-.8-1.7-.7-2.4-.2"/><path fill="#fff" d="M82.1 68q-.4.4-1 .6t-1-.3C78.5 66 84 61.7 86 62.6c1.3.5 1.5 2.4.2 3q-2.2 1.1-4 2.5" opacity=".8"/><path fill="#fff" d="M93.6 59.2q-.8-.2-1-.9-.4-.8 0-1.7a5 5 0 0 1 2.9-2.8l1-.2q1 .2 1.4 1.2c.4 1.6-1.3 1.7-2.1 2.5-.7.5-1 1.7-2 1.8zm-80.2 3.5c-.3 1.4 1.1 1.6 5.9 1.6 5.7 0 9.7 1.8 9.2.6-.4-.9-4.5-3-7.9-3.4-2-.2-6.7-.4-7.2 1.2"/></svg>