<svg xmlns="http://www.w3.org/2000/svg" width="1em" height="1em" viewBox="0 0 128 128"><path fill="#8dcc47" d="M34.02 20.35v88.57c0 7.92 13.42 14.34 29.98 14.34s29.98-6.42 29.98-14.34V20.35z"/><path fill="#9ee350" d="M94 20.36c0 9.44-15.79 15.37-29.98 15.37-13.82 0-29.02-5.96-29.98-15.37-1.03-10.14 13.42-17.1 29.98-17.1S94 10.92 94 20.36"/><ellipse cx="64.2" cy="17.55" fill="#d9d9d9" rx="23.64" ry="11.43"/><path fill="#9e9e9e" d="M76.56 6.44v.66c.03-.41 0-.66 0-.66"/><path fill="#fff" d="M76.99 51.54c0-.66-.25-1.06-.86-1.3-.57-.23-1.4.01-2.25.23-1.68.42-3.41.66-4.97.64-.63-.01-.57-.61-.57-1.16v-5.48c0-.6-.07-1.36-1.18-1.36-.67 0-1.48.18-3.17.2-1.69-.01-2.5-.2-3.17-.2-1.11 0-1.18.76-1.18 1.36v5.48c0 .55.06 1.15-.57 1.16-1.56.02-3.29-.22-4.97-.64-.86-.21-1.68-.45-2.25-.23-.61.25-.86.64-.86 1.3l-.03 5.09c.28.79.57 1.36.89 1.53.94.49 2.99 1.24 6.27 1.4.65.03 1.38-.19 1.53.52.07.35 0 4.67 0 6.42 0 1.59 2.3 1.76 3.54 1.86.27.02 1.35.02 1.61 0 1.23-.11 3.54-.27 3.54-1.86 0-1.75-.07-6.07 0-6.42.15-.71.87-.49 1.53-.52 3.28-.16 5.33-.92 6.27-1.4.31-.16.61-.73.89-1.53zm-1.92 51.02s-3.85 1.17-11.07 1.17-11.07-1.17-11.07-1.17c-1.37-.2-1.95.87-1.95 1.95v4.22c0 1 .65 1.93 1.81 2.5 2.39 1.18 6.25 1.98 10.87 1.93.12 0 .23-.01.35-.01s.23.01.35.01c4.63.05 8.48-.75 10.87-1.93 1.16-.57 1.81-1.5 1.81-2.5v-4.22c-.01-1.08-.6-2.15-1.97-1.95"/><path fill="#f5f5f5" d="M58.59 27.81c1.6-1.54-4.16-2.87-6.88-3.8-3.42-1.17-7-3.23-8.09-7.26-.82-3.04-2.25-2.09-2.51-1.73-.37.51-1.8 3.49.95 6.8 1.89 2.28 4.95 4.01 7.56 4.89 3.57 1.21 7.91 2.12 8.97 1.1M56 13.18c.33-1.12 3.23-1.81 4.99-1.83 3.01-.04 6.11 2.27 6.57 3.06 1.29 2.2-1.65 2.98-6.79 2.53-3.46-.3-5.1-2.63-4.77-3.76"/><path fill="#9e9e9e" d="M73.11 15.01c-.35-.62-.71-1.27-1.05-1.9-.36-.65-.35.05-.43.32-.41 1.42-1.22 2.05-1.79 2.36-1.72.92-3.78 1.36-5.83 1.33-2.06.02-4.11-.41-5.83-1.33-.58-.31-1.38-.94-1.79-2.36-.08-.28-.07-.97-.43-.32-.35.63-.7 1.28-1.05 1.9-.9 1.58-.12 3.33 1.03 4.45 2.01 1.95 5.13 2.85 8.08 2.85s6.07-.9 8.08-2.85c1.14-1.13 1.91-2.88 1.01-4.45"/></svg>