<svg viewBox="0 0 128 128"><path fill="#8dcc47" d="M34 20.4v88.5c0 8 13.4 14.4 30 14.4s30-6.5 30-14.4V20.3z"/><path fill="#9ee350" d="M94 20.4c0 9.4-15.8 15.3-30 15.3-13.8 0-29-6-30-15.3C33 10.2 47.5 3.3 64 3.3s30 7.6 30 17"/><ellipse cx="64.2" cy="17.6" fill="#d9d9d9" rx="23.6" ry="11.4"/><path fill="#9e9e9e" d="M76.6 6.4v.7z"/><path fill="#fff" d="M77 51.5q0-.9-.9-1.3-.9-.2-2.2.3a20 20 0 0 1-5 .6q-.7-.2-.6-1.2v-5.4c0-.6 0-1.4-1.1-1.4l-3.2.2-3.2-.2c-1 0-1.2.8-1.2 1.4v5.4q.2 1-.5 1.2a20 20 0 0 1-5-.6q-1.4-.5-2.3-.3-.9.4-.8 1.3v5.1q.3 1.2.8 1.6c1 .4 3 1.2 6.3 1.4.7 0 1.4-.2 1.5.5.1.3 0 4.6 0 6.4 0 1.6 2.3 1.8 3.6 1.9h1.6c1.2-.2 3.5-.3 3.5-1.9v-6.4c.2-.7 1-.5 1.6-.5a18 18 0 0 0 6.2-1.4q.6-.4 1-1.6zm-2 51s-3.8 1.2-11 1.2-11-1.1-11-1.1c-1.4-.2-2 .8-2 2v4.1q0 1.6 1.8 2.5 3.7 1.9 10.9 2h.7q7-.1 10.8-2 1.8-.9 1.8-2.5v-4.2c0-1-.6-2.1-2-2"/><path fill="#f5f5f5" d="M58.6 27.8c1.6-1.5-4.2-2.9-6.9-3.8-3.4-1.2-7-3.2-8-7.3-.9-3-2.3-2-2.6-1.7-.4.5-1.8 3.5 1 6.8 1.9 2.3 5 4 7.5 5 3.6 1.1 8 2 9 1M56 13.2c.3-1.1 3.2-1.8 5-1.8 3 0 6.1 2.2 6.6 3 1.3 2.2-1.7 3-6.8 2.5-3.5-.3-5.1-2.6-4.8-3.7"/><path fill="#9e9e9e" d="m73.1 15-1-1.9c-.4-.6-.4 0-.5.3q-.7 2-1.8 2.4-2.6 1.4-5.8 1.3t-5.8-1.3q-1-.4-1.8-2.4c0-.3 0-1-.4-.3l-1 2c-1 1.5-.2 3.2 1 4.4 2 2 5 2.8 8 2.8s6-.9 8.1-2.8c1.1-1.2 2-3 1-4.5"/></svg>