<svg viewBox="0 0 128 128"><path fill="#e06767" d="M61.5 89.7s1.9 8 12.3 13.9c6.5 3.7 20.2 7.6 27.2 2.4 8-5.9 9.7-11.7 10.1-13.9s-.7-8-.7-8l-13.2-4.7-22 5.3c-.4 0-13.7 5-13.7 5"/><path fill="#b05353" d="m110.4 94.7.6-2q-3.6-1-7.5-2.6l.6-.3a10 10 0 0 0 3.3-2.3 6 6 0 0 0 1.2-4l-11.4-4.1-22 5.3c-.4 0-13.7 5-13.7 5-.2 0 1.2 3 1.3 3.2 1.3 2.3 4.2 5.6 6.2 7.4 0 0-.9-2.1.9-2.9q1.1-.4 2.4.1c2 .8 4.5 3.9 10.7 7.1 4.2 2.2 8.5 4 10 3.9 1.8-.1 5.2-1 5.2-1s-4.3-.4-11.3-3.6c-2-1-9.8-4.8-10.6-7-.2-.6-1-1.6.4-2.2 2.1-1 7.8 4 12.6 6.2 5.8 2.6 12.2 4.8 12.2 4.8l1.9-1.6a63 63 0 0 1-18.2-8.2c-1.8-1.2-3-3.2-1.1-3.5 3-.4 7 2.5 11 4.6 3.7 1.8 8 2.7 12 3.2l1.4-1.9-6-1.2q-3-.6-5.7-2c-.5-.3-2-2 .1-2.7s4.3.7 7.6 1.5c3.4.8 5.9.8 5.9.8"/><path fill="#ffb3b3" d="M118 53.3s-.2-8.1-4.6-15.3c-3.7-6.1-9.1-6.8-9.1-6.8s-1-3.9-4.8-6.8-11.3-5.5-11.3-5.5c-15.4-7-25-1.3-25-1.3s-22.6-5.4-40.8 10c0 0-9.2 4.4-13 12.5-2 4.6-1.1 12-1.1 12-6.4 7.3-4.7 19 2.5 25a23 23 0 0 0 12 5c1.7.2 2.6-.2 3.3 1.6 1 2.5 1.9 5.2 4 7q3.3 3 7.4 4.4a24 24 0 0 0 16.4.2c1.8-.6 7.4-.7 7.4-.7s3 2.5 13.5 2 15-4.8 17.4-5.7c1.8-.7 4.1-2 6.1-1.7q1.7.4 3.3 1.3 4.5 2.2 9.4 1.9c12.3-1.2 13.6-15.3 12.4-25a26 26 0 0 0-5.4-14.1"/><path fill="#ea6363" d="M27.5 72.5c-.2.5-2.7 6-4.8 6.9-3.7 1.5-9.3-2.2-11.4-3.2-.4-.2-.7.3-.7.3-.4.5.5 1.4 1 1.8 1.8 1.2 6 4.1 9.2 5 4.1 1 7.2 0 7.2 0l1.2-8.6c.2-.3 0-3.7 0-3.7z"/><path fill="#f07371" d="M63.3 95.6s-2.1-.4-5.3-.3-7.6 1-7.6 1 3.2-1.5 4.6-2.7 1.6-4.4 1.4-6.2-.9-2.8-5.6-3.8l14.2-.8c-4.7 3.2-5.6 9.8-1.7 12.8m43.1-30.1q-3.8.4-7-1.4c-1-.6-1-2-.2-2.6q.9-.7 2-.1c3.4 2.2 7 .7 8.8-.4a15 15 0 0 0 6.9-13.9q1.5 2.6 1.8 5.5c.4 4.8-3 8.4-6.8 10.8a14 14 0 0 1-5.5 2"/><path fill="#f07371" d="M117.1 70.2q-1.6 0-3.3-1a6 6 0 0 1-2.4-2.8q-.5-1.5-2.3-1.4c-.9 0-1.7.6-2.5.4q1.8-3.1 5-4.4 1.6-.7 3.1-.4 0 1-.6 2-.7 2 .5 3.6.9 1.2 2.4 1.4c.6 0 1-.6 1.6-.6 1.8-.2 2.3 2.5.5 3zM99.5 33q-1.1.2-1.8-.7c-.5-.8 0-1.8.8-2.1 2.5-1 5.4-.8 7.8.2 2.1.9 3.4 2.3 4.3 3.3s1.4 3 1.4 3c-2.1-1.9-3.3-4.8-12.5-3.7M90 31c-3.4 0-7.5-1.1-8-5-1-7.1 9.4-4.4 13.3-3.8 0 0-3-3.1-7-3.4q-2.9-.2-5.6.4c-2 .5-3 2-4.8 2.8q-2 .6-4.3-.1c-1.3-.4-5.5-2.7-5.6.1q0 1.3 1.3 1.6c3 .4 7.2 1.8 8.8 4.7q1.1 2 .4 4.4-.5 1.2.1 2 .9.5 1.6-.3l1-1.3c1.4-1.3 2.5-.4 3.9.1q2.3.9 4.9.9s-3-.3 0 0c3.1.2 2.2-3 0-3m-48-3.3c-1.7-1.5-2.5-7.3 2.3-10.4 0 0-2.6.1-4.8 1.8-1.8 1.5-2.2 4-1.7 6.6a1 1 0 0 1-1.1 1.3q-3.9-.2-7.1 1.3-1.3.8-.6 2.2a1.5 1.5 0 0 0 1.9.5 14 14 0 0 1 8.6-1c2.9.7 4.9 1.5 7 5.4q.9 1 1.9.5.8-.7.5-1.5c-2-5.3-4.7-4.7-7-6.7m6.3 18a1.5 1.5 0 0 0-1.9-1c-2.4.7-5.9.5-7.4-1-2-4.9-3.6-5.7-6.2-6.6-1-.3-2 .6-1.9 1.6q.2.9 1 1.3c1.8.5 3.6 2.9 4.6 5.3.8 2.2.9 5.1-1 7.2q-.8 1-.2 2c.6.7 1.7.8 2.3 0q1.1-1 1.7-2.6c.3-1 .3-2 1.1-2.8 1-.9 2-.7 3.2-.7q1.9-.1 3.6-.8 1.3-.6 1-1.9M17.5 59.5h-1c-4.6-.5-7-3.8-8.2-7.5s-.1-7.6-.1-7.6c1.4 10.8 7 11.9 8.6 12 3 .3 5.7-1 6.5-3 1.2-3-2.5-6-4.3-8a6 6 0 0 1-1.4-5q.3-1.2 1.3-2.2c.7-.5 2.4-1 2.2.5q-.1.8-.6 1.3c-1.4 3.2 3.5 6 4.8 8.4q1.8 2.9.8 6.2c-1.2 2.9-4.7 4.9-8.6 4.9"/><path fill="#f07371" d="M16.4 58.7q1.2.1 2.3-.4 1-.8 2.1-1 .8 0 .8.6l.7.4c-2 1.3-7 2.5-3.5 11.4q.3 1.2-.6 2-1.4.5-2.2-.7-1.5-3.2-1.3-6.7c0-2.3.2-4.2-1.3-6.1q-.3-.4-.2-.7l.4-.2q1-.3 2-.2c.2 0 3.3 1.8 3.4 1.7m86.6 14.3a13 13 0 0 0-6.2.6c-1.7.7-2.9 2-4.8 1.5a5 5 0 0 1-2.9-1.9c-1.5-2-1.3-4-.7-6.2s.5-4.8-.5-6.8q-.4-.9-1.3-1.3-1-.3-1.6.5-.4.8 0 1.8c.3 1.9.8 4 .2 5.8q-.7 2.6-2.5 4.6a9 9 0 0 1-8.7 3 8 8 0 0 1-5.2-4.5c-.4-1.8-.9-4.2-3.1-4.4q-.8 0-1.3.3-.6.5-.5 1.2c0 1.2 1 2 1.3 3.2.6 3.4-1.7 7.4-5.2 9.3-2.7 1.5-10.1 2.3-16.8-3.2l-.5-1-.6-.3c-1-.2-2 .8-2 1.8.1.9.9 1.6 1.5 2.2 1.8 1.6 1 2.3.7 3.1l-.2.7c-.1.6.9.4 1.5.4s1.2-.4 1.9-.6 4.3 1 5 1.2c2 .5 2.7.7 4.5.7 2.2 0 4 1 5.6-.4 2.3-2.1 4-3.5 6.1-4.2q1.7-.7 3 .1 1 .9 1.1 2 .6 2.3 1.4 4.4a6 6 0 0 0 3 3.3q.8.3 1.5.2 1-.1.9-1 0-.4-.4-.9-1.1-1.5-2-3.2c-1-1.7-1.1-2.5-.9-3.8.5-2.3 3.2-3 5.2-3.6 1.8-.5 3.7-1.6 5.7-1.5a9 9 0 0 1 4.8 2.5l.2.7c.4 2.1-1.2 4-2.7 5.6q-.5.5-.3 1l.4.2q1.7.5 3.2-.7c2-1.5 2.6-4 4.3-5.8q2.2-2.2 5.2-3c6.7-2.3 7 3 8.3 6s3 1 3 .1c0-3.8-2.4-9-8.6-9.7"/><path fill="#f07371" d="M42.3 88.9c-1 0-1.8-1.1-1.3-2q1-2.4 3.5-4.3 3.7-2.5 7.5-1.3l.5 2.5a8 8 0 0 0-6.2 1.3q-1.9 1.5-2.6 2.9-.4 1-1.4.9"/><path fill="#ea6363" d="M107 42.8c-.2-1.3-1.2-2.4-2.4-2.5q-1.2 0-1.5 1v.8c0 2-1.7 4-3.7 4.4-2.4.3-4-1.1-5.8-2.3q-2.7-1.8-5.8-2.5-7.8-2.5-13 3.8-1.7 2.6-4.2 4.3c-2.8 1.5-8.6 1.6-10.4-1.4-2.3-4-2.3-16 5-14.7 2.2.4 3.9 2.4 4 3.8q0 1.5-1.2 2.4a1.5 1.5 0 0 0-.3 1.9c.5.8 1.6 1 2.3.4 2-1.8 2.4-3.7 2.2-5-.5-4.3-5.3-6.7-9-6.8q-1.6 0-2.2-1l-.2-1.1c-.2-2.6-2.8-5.4-4.8-6.7q-1.4-.7-2.2.6-.4 1.1.6 2 3 1.9 3.5 5.5.5 4.3-1.3 8.1-.9 2-2.1 3.6c-.7 1-1.8 1.6-2.2 2.8v.4q0 .3.6.3 1 0 2.1-.4c-.4 1.4.6 2.9 1.4 4.1s1.5 3 .6 4.3l-.2.1q-3 1.3-5.3 3.6c-2.6 2.7-4.5 5-8.2 6.3-3.3 1-7 1-10.2-.4q-.9-.4-1.9-.5-1.4 0-1.4 1.2l.3 1c1.7 3.4-1.4 5.6-2.7 8.6a22 22 0 0 0-2 9c0 3.3 1.2 5.8 5.4 10q3 2.8 6.4 3.7c.6.3 1-.6.5-1-4.3-2.7-5-5.1-6.3-7.6-3-6 .3-15 6.2-19.7 2.3-1.8 5.5-1.6 8.2-.7 3 1 4.7 3.2 7 5.2.5.5 1.3 1.1 2 .9q1.1-.5 1-1.8c0-1.3-.5-1.3-.9-2l-1.3-2a8 8 0 0 1-1.3-2.8c-.2-1.1.8-5 10.3-7.5q2.4-.5 4.9.3c2.1.6 3.7 2.2 5.5 3.4q.8.7 1.7.8 1.4-.1 1.7-1.4c.2-1-.6-2-1-2.9-1.8-3.1.2-7.2 2.8-9.2 2.3-1.8 5.4-2.4 8.3-2.1 4.4.4 8.7 3.4 9.7 7.7.2 1 .5 2.2 1.5 2.3 1.1.2 1.7-1.3 1.6-2.4s-.5-2.4.2-3.3q.5-.5 1.3-.8 2-.7 4-2 2-1.2 2.3-3.5z"/><path fill="#f07371" d="M52.9 44.9q1 0 2.1-.4c-.4 1.4.6 2.9 1.4 4.1.6 1 1.4 2.6.5 4.4 0 0 1.4-.8 3.5-1.4s4.3-.8 4.3-.8c-1.5-.3-3.8-1.2-4.5-2.4-2.3-4-2.3-16 5-14.7 2.2.4 3.9 2.4 4 3.8q0 1.4-1.2 2.4a1.5 1.5 0 0 0-.3 1.9c.5.8 1.6 1 2.3.3 2-1.7 2.4-3.6 2.2-4.9-.5-4.3-5.3-6.7-9.1-6.8-.8 0-1.8-.3-2.1-1l-.2-1.2c-.2-2.5-2.8-5.3-4.8-6.6q-1.4-.7-2.2.6-.4 1.1.6 2 3 1.8 3.5 5.5.5 4.3-1.3 8-.9 2-2.1 3.7c-.7 1-1.8 1.6-2.2 2.8v.4q0 .3.6.3"/></svg>