<svg xmlns="http://www.w3.org/2000/svg" width="1em" height="1em" viewBox="0 0 128 128"><path fill="#e06767" d="M61.53 89.7s1.87 7.96 12.23 13.88c6.53 3.73 20.26 7.6 27.27 2.42 7.98-5.9 9.7-11.74 10.08-13.89s-.76-8.08-.76-8.08l-13.13-4.67s-21.71 5.3-22.09 5.3c-.37.01-13.6 5.04-13.6 5.04"/><path fill="#b05353" d="M110.39 94.67c.29-.75.47-1.39.6-1.92-2.32-.62-5.01-1.62-7.45-2.66.2-.09.4-.18.59-.28 1.2-.61 2.38-1.32 3.23-2.36.92-1.12 1.34-2.57 1.29-4.02l-11.43-4.07s-21.71 5.3-22.09 5.3-13.6 5.03-13.61 5.04c-.17.06 1.23 3 1.32 3.15 1.27 2.37 4.19 5.67 6.19 7.46 0 0-.92-2.12.82-2.91.77-.35 1.7-.18 2.49.13 1.98.79 4.46 3.83 10.66 7.09 4.21 2.22 8.54 3.92 9.94 3.86 1.87-.08 5.26-.99 5.26-.99s-4.32-.41-11.26-3.64c-2.1-.98-9.87-4.8-10.61-6.93-.21-.6-.96-1.66.4-2.26 2.08-.93 7.75 3.96 12.62 6.2 5.8 2.66 12.12 4.79 12.12 4.79q1.02-.78 1.92-1.56c-3.23-.83-6.39-1.97-9.44-3.3-3.04-1.32-6.02-3.03-8.77-4.91-1.75-1.2-2.96-3.22-1.08-3.48 3.08-.43 7.06 2.5 11.05 4.57 3.6 1.87 7.92 2.73 11.97 3.24.52-.65 1.37-1.89 1.37-1.89s-1.53-.26-6.05-1.26c-1.98-.44-3.9-1.01-5.66-2-.46-.26-2.07-1.91.13-2.67s4.29.75 7.61 1.52c3.33.79 5.84.83 5.87.76"/><path fill="#ffb3b3" d="M118 53.3s-.25-8.1-4.6-15.27c-3.75-6.18-9.1-6.81-9.1-6.81s-1.06-3.89-4.78-6.87-11.37-5.47-11.37-5.47c-15.32-6.9-24.87-1.25-24.87-1.25s-22.72-5.4-40.91 10.03c0 0-9.18 4.32-12.93 12.48-2.07 4.52-1.18 11.89-1.18 11.89-6.37 7.4-4.62 19.12 2.53 24.99 3.41 2.79 7.62 4.64 12.01 5.11 1.72.18 2.59-.23 3.31 1.52 1.06 2.58 1.89 5.23 4.02 7.08 2.17 1.88 4.7 3.34 7.39 4.34 5.22 1.93 11.12 2.14 16.39.25 1.75-.63 7.36-.69 7.36-.69s2.97 2.45 13.51 2.06 14.99-4.94 17.4-5.79c1.85-.65 4.12-2.08 6.14-1.71 1.15.21 2.18.8 3.23 1.3 2.94 1.41 6.24 2.18 9.48 1.88 12.25-1.13 13.54-15.24 12.33-24.94C122.14 57.64 118 53.3 118 53.3"/><path fill="#ea6363" d="M27.52 72.45c-.25.57-2.75 6.03-4.85 6.91-3.63 1.53-9.25-2.11-11.4-3.11-.42-.2-.7.3-.7.3-.35.45.56 1.38 1.02 1.71 1.78 1.28 6.05 4.18 9.22 4.97 4.09 1.02 7.16 0 7.16 0s1.12-8.19 1.21-8.56 0-3.63 0-3.63z"/><path fill="#f07371" d="M63.25 95.56s-2.06-.32-5.22-.27-7.61.96-7.61.96 3.14-1.43 4.54-2.68c1.4-1.26 1.68-4.32 1.45-6.14-.24-1.86-.87-2.8-5.63-3.79l14.26-.79c-4.78 3.18-5.65 9.73-1.79 12.71m43.17-30.09c-2.48.33-4.89-.14-7.03-1.41-.93-.56-1.03-1.88-.21-2.59.55-.47 1.34-.5 1.95-.1 3.46 2.27 6.98.78 8.86-.39 4.8-2.99 7.18-8.29 6.86-13.85.96 1.7 1.66 3.58 1.83 5.52.43 4.71-2.96 8.38-6.75 10.75-1.81 1.14-3.68 1.83-5.51 2.07"/><path fill="#f07371" d="M117.14 70.16c-1.08 0-2.25-.23-3.36-.91-1.14-.7-1.78-1.64-2.35-2.8-.47-.95-1.13-1.54-2.34-1.45-.85.07-1.67.55-2.52.43 1.13-2 2.94-3.6 5.07-4.47.98-.4 2.08-.65 3.08-.34.11.7-.36 1.35-.63 2.01-.47 1.17-.28 2.57.48 3.57.52.68 1.51 1.41 2.42 1.35.6-.04 1.02-.55 1.61-.6 1.83-.13 2.29 2.55.49 2.97-.58.14-1.24.24-1.95.24m-17.6-37.08c-.73.09-1.47.01-1.85-.63-.49-.83-.08-1.87.83-2.19 2.51-.88 5.33-.72 7.78.26 2.14.86 3.43 2.32 4.28 3.31s1.43 2.95 1.43 2.95c-2.13-1.85-3.34-4.76-12.47-3.7m-9.58-1.93c-2.16-.09-.06 0-.08 0-3.42 0-7.51-1.18-8.06-5.08-.99-7.1 9.49-4.34 13.33-3.81 0 0-3.03-3.11-7-3.38-1.85-.12-3.76-.07-5.56.41-1.98.53-2.98 2.02-4.78 2.76-1.36.55-2.91.34-4.31-.08-1.29-.39-5.48-2.64-5.6.16-.03.77.52 1.43 1.27 1.54 3.04.43 7.24 1.79 8.8 4.69.72 1.33.89 2.94.47 4.39-.2.71-.49 1.62.1 2.07.45.35 1.14.12 1.55-.28s.67-.94 1.08-1.34c1.28-1.26 2.44-.36 3.8.12 1.57.56 3.23.83 4.9.83.04 0-2.93-.29.11 0 3.03.28 2.13-2.91-.02-3m-48.07-3.26c-1.66-1.5-2.45-7.34 2.32-10.35 0 0-2.6.09-4.77 1.79-1.85 1.45-2.22 3.96-1.78 6.61.11.68-.42 1.3-1.11 1.26-2.48-.13-4.95.32-7.08 1.3-.81.38-1.09 1.4-.61 2.16a1.5 1.5 0 0 0 1.91.54c2.39-1.1 5.87-1.69 8.66-.99 2.83.71 4.82 1.53 7.04 5.38.38.65 1.2.88 1.82.46.48-.33.68-.95.48-1.49-1.9-5.24-4.64-4.65-6.88-6.67m6.19 18.01a1.496 1.496 0 0 0-1.87-1.03c-2.4.72-5.87.51-7.42-1.05-2.07-4.79-3.64-5.64-6.15-6.49-1-.34-2 .52-1.9 1.56.06.59.45 1.09 1.02 1.26 1.78.53 3.57 2.92 4.49 5.36.84 2.21.94 5.12-.96 7.2-.49.54-.59 1.32-.16 1.91l.02.03c.55.76 1.65.82 2.29.13.68-.74 1.39-1.7 1.69-2.67.31-1.03.22-1.95 1.11-2.77.99-.92 1.93-.73 3.12-.73 1.22 0 2.53-.44 3.68-.85.78-.25 1.28-1.08 1.04-1.86M17.42 59.46c-.34 0-.67-.01-1.02-.04-4.63-.4-7.06-3.73-8.16-7.38s-.17-7.62-.17-7.62c1.4 10.8 7.03 11.87 8.59 12.01 2.95.26 5.77-1.02 6.54-2.97 1.22-3.08-2.52-6.1-4.35-7.97-1.21-1.24-1.66-3.35-1.34-5.02.16-.86.54-1.7 1.25-2.25.7-.54 2.46-1.03 2.22.51-.07.48-.38.88-.57 1.32-1.37 3.12 3.5 6.01 4.83 8.32 1.09 1.87 1.57 4.13.75 6.19-1.16 2.94-4.67 4.9-8.57 4.9"/><path fill="#f07371" d="M16.35 58.66c.81.1 1.64-.04 2.37-.4.7-.34 1.33-.88 2.1-.94.37-.02.83.2.77.56-.02.13.83.37.72.44-1.99 1.24-7.03 2.47-3.55 11.4.28.71.06 1.51-.59 1.9-.76.46-1.77.16-2.13-.65-.95-2.09-1.41-4.4-1.38-6.7.03-2.24.26-4.2-1.24-6.07-.16-.19-.33-.46-.2-.67.08-.13.24-.18.39-.22.62-.16 1.28-.33 1.91-.2.28.06 3.41 1.79 3.44 1.73m86.6 14.26c-2.07-.25-4.2-.1-6.16.64-1.66.63-2.9 1.9-4.81 1.48-1.14-.25-2.15-.98-2.86-1.91-1.5-1.95-1.3-4-.74-6.22.56-2.2.5-4.75-.49-6.82-.26-.55-.7-1.04-1.27-1.24-.58-.2-1.29-.03-1.63.48-.34.52-.21 1.21-.09 1.82.39 1.87.89 3.89.33 5.72-.53 1.74-1.26 3.3-2.51 4.64-2.37 2.55-5.81 3.72-8.78 2.97-2.19-.55-3.96-2.08-5.15-4.42-.42-1.83-.86-4.21-3.13-4.47-.46-.05-.96.02-1.31.31-.35.3-.51.78-.51 1.24 0 1.15 1.1 2.01 1.3 3.14.63 3.46-1.67 7.42-5.16 9.34-2.7 1.49-10.11 2.33-16.75-3.24-.28-.24-.28-.7-.55-.95-.18-.16-.41-.26-.64-.3-.99-.19-2.02.75-1.93 1.75.08.91.83 1.61 1.5 2.23 1.74 1.62.96 2.27.66 3.14-.07.22-.2.42-.22.65-.06.64.92.43 1.56.38s1.22-.4 1.84-.58c.78-.22 4.35 1.09 5.05 1.24 2.03.44 2.73.64 4.48.64 2.19 0 4.05 1.13 5.65-.37 2.28-2.13 4.05-3.52 6.07-4.21 1-.34 2.2-.51 3.04.14.6.46.87 1.23 1.08 1.95.43 1.48.75 2.99 1.38 4.4.63 1.4 1.63 2.71 3.03 3.34.44.2.94.33 1.42.22s.9-.52.91-1c.01-.33-.16-.63-.34-.9-.69-1.1-1.51-2.12-2.12-3.26s-1.01-2.47-.76-3.74c.46-2.35 3.18-3.01 5.13-3.6 1.87-.57 3.74-1.64 5.75-1.53 1.26.07 3.93 1.54 4.73 2.52.16.2.23.45.27.71.34 2.11-1.21 4.01-2.68 5.55-.26.27-.53.68-.31.99.08.11.2.17.32.21 1.06.41 2.3.05 3.2-.64 1.98-1.5 2.67-4.07 4.36-5.85 1.39-1.45 3.26-2.4 5.15-3.02 6.76-2.22 7.11 3.1 8.32 6.08s3 .92 3.02.1c.07-3.89-2.42-9.01-8.65-9.75"/><path fill="#f07371" d="M42.25 88.89c-1.03-.06-1.71-1.13-1.29-2.08.67-1.52 1.93-3.03 3.56-4.19 2.48-1.76 4.96-2.08 7.45-1.37l.51 2.54c-1.61-.46-4.49.05-6.22 1.28-1.25.89-2.11 1.98-2.53 2.89-.27.59-.84.97-1.48.93"/><path fill="#ea6363" d="M107.01 42.8c-.19-1.27-1.18-2.45-2.46-2.49-.63-.02-1.33.31-1.5.92-.08.27-.04.57-.03.85.08 2.08-1.59 4.09-3.65 4.38-2.33.33-4.05-1.11-5.81-2.31-1.68-1.14-3.78-1.91-5.72-2.46-5.17-1.45-9.62-.48-13.01 3.79-1.26 1.59-2.46 3.33-4.23 4.31-2.78 1.54-8.65 1.65-10.38-1.37-2.27-3.95-2.35-16.09 4.93-14.71 2.25.43 3.92 2.38 4.08 3.83.1.92-.47 1.72-1.2 2.34a1.49 1.49 0 0 0-.3 1.91c.48.79 1.56.96 2.26.37 2.05-1.76 2.37-3.61 2.22-4.95-.47-4.27-5.28-6.68-9.1-6.79-.84-.03-1.81-.3-2.13-1.09-.14-.34-.12-.71-.15-1.07-.2-2.55-2.81-5.32-4.85-6.64-.75-.49-1.76-.17-2.15.63-.33.69-.07 1.5.57 1.92 1.94 1.28 3.12 3.14 3.51 5.54.44 2.76-.16 5.58-1.32 8.09-.58 1.26-1.29 2.48-2.12 3.6-.71.97-1.72 1.62-2.18 2.78-.05.13-.1.27-.06.4.07.25.38.32.64.33.74.03 1.48-.13 2.14-.44-.38 1.47.6 2.9 1.41 4.18s1.46 3.02.54 4.23c-.04.05-.09.1-.13.16-1.97.83-3.87 1.96-5.35 3.52-2.55 2.7-4.44 5.13-8.17 6.33-3.3 1.07-6.97.94-10.18-.35-.62-.25-1.25-.54-1.92-.52s-1.38.49-1.4 1.16c-.01.34.16.65.31.96 1.7 3.45-1.42 5.69-2.75 8.69-1.25 2.8-1.89 5.87-1.89 8.94 0 3.35 1.15 5.79 5.3 10.05 1.88 1.92 4.34 3.06 6.41 3.73.65.21 1.06-.68.48-1.05-4.27-2.72-4.94-5.13-6.24-7.61-3.12-5.97.29-15.07 6.16-19.69 2.27-1.78 5.49-1.64 8.23-.7 2.94 1.01 4.68 3.17 6.89 5.18.6.55 1.37 1.14 2.14.9.7-.21 1.05-1.04.97-1.76s-.49-1.36-.88-1.97c-.43-.67-.86-1.34-1.3-2.01-.57-.88-1.16-1.8-1.34-2.84-.2-1.13.8-5.04 10.3-7.46 1.61-.41 3.25-.23 4.87.23 2.18.62 3.74 2.22 5.57 3.47.51.35 1.07.72 1.69.74.78.03 1.54-.56 1.7-1.33.22-1.06-.58-2.01-1.11-2.95-1.76-3.1.29-7.24 2.88-9.22 2.32-1.76 5.37-2.41 8.26-2.11 4.4.45 8.74 3.39 9.75 7.69.23.97.51 2.22 1.5 2.35 1.1.15 1.69-1.32 1.58-2.43s-.47-2.36.22-3.24c.32-.4.8-.63 1.27-.84 1.35-.59 2.76-1.08 3.97-1.93 1.21-.84 2.22-2.13 2.31-3.6-.01-.17-.02-.37-.05-.57"/><path fill="#f07371" d="M52.86 44.9c.74.03 1.48-.13 2.14-.44-.38 1.47.6 2.9 1.41 4.18.59.94 1.41 2.61.52 4.32 0 0 1.34-.75 3.51-1.38s4.29-.77 4.29-.77c-1.54-.32-3.82-1.19-4.52-2.4-2.27-3.95-2.35-16.09 4.93-14.71 2.25.43 3.92 2.38 4.08 3.83.1.92-.47 1.72-1.2 2.34a1.49 1.49 0 0 0-.3 1.91c.48.79 1.56.96 2.26.37 2.05-1.76 2.37-3.61 2.22-4.95-.47-4.27-5.28-6.68-9.1-6.79-.84-.03-1.81-.3-2.13-1.09-.14-.34-.12-.71-.15-1.07-.2-2.55-2.81-5.32-4.85-6.64-.75-.49-1.76-.17-2.15.63-.33.69-.07 1.5.57 1.92 1.94 1.28 3.12 3.14 3.51 5.54.44 2.76-.16 5.58-1.32 8.09-.58 1.26-1.29 2.48-2.12 3.6-.71.97-1.72 1.62-2.18 2.78-.05.13-.1.27-.06.4.07.25.38.32.64.33"/></svg>