<svg xmlns="http://www.w3.org/2000/svg" xml:space="preserve" viewBox="0 0 128 128"><path d="M67.08 121.59c-14.92 0-31.12-.21-36.37-1.21-5.03-.96-20.34-3.87-21.74-20.41-.95-11.21-1.33-23.17-1.33-41.28v-.03c.01-.93.3-22.81 1.34-32.4.67-6.18 4.11-16.76 19.67-18.11 10.65-.93 21.69-.86 31.44-.79 2.3.01 4.52.03 6.63.03 2.33 0 5.22-.12 8.56-.27 5.74-.25 12.24-.52 18.6-.3 7.74.28 15.03 2.98 19.01 7.06 4.39 4.49 6.65 11.65 6.71 21.29.04 6.65.27 13.84.45 19.62.11 3.52.2 6.63.24 8.99.19 11.39-.66 28.84-1.53 36.27-.9 7.77-3.13 16.08-12.85 18.79-9.07 2.53-22 2.73-25.75 2.73h-2.94c-3.2.03-6.64.04-10.14.04zM11.73 58.7c0 17.98.38 29.84 1.32 40.93 1.01 11.91 10.37 15.19 18.42 16.73 6.85 1.3 36.12 1.16 45.73 1.11h2.96c7.45-.01 17.83-.69 24.65-2.59 6.95-1.94 8.98-7.53 9.88-15.32.85-7.3 1.69-24.49 1.5-35.72-.04-2.35-.13-5.44-.24-8.93-.18-5.8-.4-13.02-.45-19.72-.06-8.53-1.92-14.74-5.55-18.45-3.23-3.3-9.6-5.59-16.23-5.83-6.2-.22-12.62.06-18.28.3-3.39.15-6.32.27-8.74.27-2.12 0-4.35-.01-6.66-.03-9.65-.06-20.6-.13-31.06.78-12 1.04-15.3 8.45-15.95 14.47-1.01 9.31-1.31 31.35-1.3 32" style="fill:#858585"/><path d="M120.04 54.78c-.04-1.26-.08-2.6-.12-3.98l-2.25-.07s.36-17.05-1.4-26.05c-2.26-11.58-13.72-14.54-18.84-15.47S80.8 8.86 80.8 8.86l-.07-1.96c-1.87.07-3.72.14-5.47.21-3.34.14-6.23.27-8.56.27-2.11 0-4.33-.01-6.63-.03-3.19-.02-6.52-.04-9.93-.02l.08 2.12s-18.14.35-22.68.93-8.14 1.98-11.28 4.88c-3.74 3.47-4.71 8.87-5.12 11.63-.66 4.5-1.16 24.07-1.16 24.07l-2.21.09c-.1 4.22-.14 7.28-.14 7.61v.03c0 8.95.09 16.39.3 22.99l2.05.1s-.23 8.72 1.16 19.07c1.4 10.35 9.74 14.89 13.93 16.17s16.19 2.43 16.19 2.43l.05 1.78c7.25.28 16.73.36 25.76.36 3.5 0 6.94-.01 10.14-.03h2.94c1.18-.01 3.26-.03 5.84-.14l.05-2.21s15.23-.81 21.51-3.6 7.44-7.68 8.49-11.86c1.05-4.19 1.63-20.82 1.63-20.82l2.26-.07c.28-6.57.44-13.55.35-19.1-.04-2.36-.14-5.47-.24-8.98m-5.35 44.78c-.9 7.79-2.93 13.38-9.88 15.32-6.81 1.9-17.2 2.58-24.65 2.58H77.2c-9.61.06-38.88.2-45.73-1.1-8.05-1.53-17.42-4.82-18.42-16.73-.94-11.08-1.32-22.94-1.32-40.93 0-.65.31-22.69 1.31-32 .65-6.03 3.95-13.43 15.95-14.47 10.46-.91 21.4-.84 31.06-.78 2.31.01 4.54.03 6.66.03 2.42 0 5.35-.13 8.74-.27 5.66-.24 12.08-.52 18.28-.3 6.63.24 13 2.52 16.23 5.83 3.62 3.71 5.49 9.92 5.55 18.45.04 6.7.27 13.92.45 19.72.11 3.5.2 6.58.24 8.93.19 11.23-.65 28.43-1.5 35.72z" style="fill:#5f6468"/><path d="m33.66 48.25.85 10.31 7.75-1.19s2.3-7.07 7.24-10.99 9.02-4.81 15.75-4.64 12.87 1.83 17.04 6.86 4.94 8.94 4.94 8.94l15.25 2.3-8.43-26.74L73.1 22.79l-24.02 1.96-15.42 23.51zM31.18 64.5l-19.25 7.45s1.08 20.35 16.24 33.38c14.1 12.13 24.57 14.16 36.28 14.05 11.7-.12 27.68-2.61 41.02-17.58 13.33-14.95 11.7-31.09 11.7-31.09l-28.85-1.27s-1.57 9.1-7.02 13.62S73.1 88 73.1 88l-9.23 5.07-6.58-4.91s-5.91-2.41-10.43-7.28-5.05-10.27-5.05-10.27l-10.62-6.12z" style="fill:#de2b01"/><path d="M65.21 11.8c-8.95-.08-25.87 2.81-37.85 15.57S11.89 51.99 12.28 63.86s26.37-8.17 26.37-8.17 1.62-5.76 5.83-10.58 9.15-5.76 9.73-6.35-.58-9.54.19-13.72 22.14-.8 22.14-.8.27 13.96.22 14.84c-.03.55 5.61 2.59 9.65 7.86 4.41 5.74 5.35 11 5.35 11l25.49-1.26s-.82-16.1-14.89-30.16c-14.6-14.6-31.75-14.65-37.17-14.69z" style="fill:#ff3d00"/><path d="m18.53 57.67-4.01-3.41s-2.35.68-3.5.68-2.9-.09-3.88 0-1.58.3-1.49 2.3.26 11.86.38 13.18 1.15 2.35 2.35 2.35 6.78-.51 6.78-.51zm12.03 6.14 10.11-7.68s2.77.73 2.77 1.83-.55 2.94-.55 6.36.34 5.97.38 6.87c.09 1.83-3.11 1.58-3.11 1.58z" style="fill:#9d9d9d"/><path d="m57.22 113.5-2.06 2.08s.76 7.06 2.07 7.69c1.39.66 4.84.19 7.87.27s6.02.6 7.25 0 1.39-2.43 1.55-3.78.61-4.44.61-4.44L57.2 113.5zm2.99-16.85-4.07-5.94s.45-3.03 1.21-3.14c1.59-.24 3.69.83 7.84.83 3.43 0 7.19-.82 7.8-.6 1 .37 1.41 3.17 1.41 3.17z" style="fill:#b0b0b0"/><path d="m106.69 59.44 5.96-5.05 2.9.32c.97.11 1.72.27 1.72.27s2.95.03 3.6.64c1.13 1.07.97 5.42.86 9.13-.08 2.63-.05 8.86-.05 9.39s-.54 1.66-1.5 1.56-3.27-1.13-3.27-1.13-1.56-.91-3.33-1.4-6.87-13.74-6.87-13.74zm-11.11 0-6.82-3.01s-2.04 1.13-2.42 1.77.21 4.23.21 7.84-.59 6.98.05 7.14 2.52-.32 2.52-.32l8.43-8.27-1.99-5.15zM57.3 39.66s.57 1.15.8 2.12.29 2.02 2.12 1.96 3.01-.44 5.53-.44 5.1.48 6.07.42 1.03-1.5 1.32-2.24.61-1.71.61-1.71l-8.83-4.18zm-.46-21.73-1.86-2.94s.37-2.5.31-3.65-.43-3.15-.46-4.24c-.06-2.01 1.26-2.69 2.35-2.69s5.1-.17 8.71-.11 6.36-.17 7.85-.17 2.52.69 2.52 2.29-.11 5.33-.11 5.33l-.02 3.1-19.3 3.09z" style="fill:#9d9d9d"/><path d="M33.3 26.1c-7.59 6.45-11.32 15.27-8.04 17.21s5.41-6.88 11.72-12.12c7.9-6.56 15.47-7.97 13.66-11.32S38.18 21.95 33.3 26.1" style="fill:#ff9270"/><path d="M54.98 14.99s4.63-1.29 10.4-1.24 10.75 1.1 10.75 1.1.67 6.97.31 12.72c-.46 7.4-2.69 12.21-2.69 12.21s-4.47-1.15-8.43-1.03-8.03.92-8.03.92-2.35-5.22-2.69-12.61c-.33-7.05.38-12.06.38-12.07m33.78 41.44s.98-2.05 10.31-2.79c10.15-.81 13.58.75 13.58.75s1.23 4.72 1.18 9.77-.27 9.02-.27 9.02-7.68-1.83-13.96-1.4-10.47 1.07-10.47 1.07 1.4-4.46 1.29-8.59-1.66-7.84-1.66-7.83M56.14 90.71s3.69 1.1 8.94 1.17c5.25.06 9.33-.91 9.33-.91s.58 7.25.71 13.21-.58 11.14-.58 11.14-4.79 1.17-9.39 1.04-9.97-.78-9.97-.78-1.42-6.09-1.04-13.73c.32-6.21 2.01-11.14 2-11.14M14.52 54.25s5.38-1.88 12.93-1.41 13.23 3.29 13.23 3.29-1.37 3.11-1.28 7.81.77 8.83.77 8.83-9-.64-13.57-.64-11.43.13-11.43.13-1.07-5.5-1.19-9.98c-.12-4.05.55-8.02.55-8.02z" style="fill:#e0e0e0"/><path d="M16.59 75.27s5.34-.76 12.5-.38c7.15.38 10.49.86 10.49.86s1.81 4.2 6.49 8.78c4.67 4.58 9.44 6.01 9.44 6.01s-2.15 3.66-3.01 11.1-.43 10.26-.43 10.26-16.05-2.49-25.94-14.98c-8.66-10.93-9.54-21.65-9.54-21.65m73.54.19s-2.58 6.3-6.58 10.21c-4.01 3.91-9.15 5.3-9.15 5.3s2.11 8 2.49 12.29.46 9.02.46 9.02 15.49-3.56 24.9-13.45c11.26-11.83 11.8-22.02 11.8-22.02s-3.7-2.3-12-2.68-11.92 1.34-11.92 1.33" style="fill:#ff3d00"/></svg>