<svg viewBox="0 0 128 128"><path fill="#dd2c00" d="M64 9.5C30.8 9.5 6 36.8 6 68.2s25 55.3 58 55.3c34 0 58.1-23.7 58.1-55.1s-17.8-58.9-58-58.9M63.8 91a26.8 26.8 0 1 1 0-53.6 26.8 26.8 0 0 1 0 53.6"/><path fill="#ff3d00" d="M64 5C31 5 6 30.6 7 62c1 31.5 21.8 57 57 57 36.6 0 57.1-25.5 57.1-57S99.8 5 64.1 5m-.2 87.4a30.3 30.3 0 1 1 0-60.6 30.3 30.3 0 0 1 0 60.6"/><path fill="#ff9e80" d="M19.1 40c-1.3-.5-1.2-2.8-.6-4.4C22.9 24.1 30.6 17.5 43 13.1q3.6-1.4 4.3 1.1c.4 1.6-.7 2.7-2.2 3.3a46 46 0 0 0-22.3 20.8c-.5 1-2 2.3-3.8 1.7" opacity=".9"/><path fill="#e0e0e0" d="M74.4 6.1q-.3-1-1.2-1.3C71.8 4.5 69 4 64 4s-7.8.5-9.1.8q-.9.2-1 1.2c-.6 1.8-1.6 4.9-1.4 13 .2 7.7 2.7 15.6 2.7 15.6.2.4 4.4.5 8.9.5s8.6-.1 8.8-.5c0 0 2.2-7.8 2.2-15.6 0-7-.2-11-.8-12.9m-1.1 85q-.5-1-1.8-1.5h-1.2c-1 .4-2.4.8-6.1.8s-5.2-.5-6.2-.8h-1.2q-1.3.5-1.7 1.6s-2 3-2 14.5c0 5.8.4 10.3.7 12.7q.5 2.1.7 2.3c.2.2 5 .7 9.7.7s9.3-.9 9.3-.9.7-.8 1-2c.3-2.3.8-7 .8-12.8 0-11.6-2-14.5-2-14.5"/><path fill="#9e9e9e" d="M74.2 119.6q0-.9-1.1-.6c-1.6.2-4.6.8-9.3.8q-6.6-.2-8.7-.7-1.3-.3-1 .8c.3 1.2 1 3.2 2 3.5a50 50 0 0 0 16.2 0c.8-.3 1.6-2.4 1.9-3.8M55 34.8a13 13 0 0 0 1.8 3.3q.5.7 1.5.3 2-.5 5.7-.7 3.7.2 5.6.7 1 .2 1.5-.3s1.5-2.3 1.8-3.3q.5-.7-1.1-1.3c-1.5-.6-3.7-1.2-7.9-1.2q-5.8.2-7.7 1-1.5.5-1.2 1.5"/><path fill="#e0e0e0" d="M8.4 53.1q-1.2.3-1.4 1.3A46 46 0 0 0 6.8 71c0 .3 0 1 .5.9.9-.3 2.5-1.4 13.2-2 6-.2 12.6.4 14.6.5 1.1.1 2.3-.3 2.3-.3.3 0-1-3.8-.8-7.8s.8-7.4.8-7.4-.6-.7-2.2-1.3c-1.3-.5-6.2-2-13-2.2-10.5-.2-13.8 1.7-13.8 1.7"/><path fill="#9e9e9e" d="M35.2 54.5c.1-.5.8-.6 1.2-.3 0 0 1.4.9 1.8 1.5s.6.7.5 1.2c-.3.9-1 3.3-1 6.4 0 2.9.6 5 .6 6.3q.2.5-1.3.7c-.4 0-1.6.4-2-.8a27 27 0 0 1 .2-15"/><path fill="#e0e0e0" d="M119.6 52.7a2 2 0 0 1 1.5 1.3 51 51 0 0 1 .2 17.5q0 .6-.9.7c-.8 0-3.4-1.8-14.2-2.3-10-.4-14.8 1.2-14.8 1.2-.4-.1.1-4.6 0-8.8s-.8-7.7-.8-7.7.6-.8 2.2-1.4c1.3-.5 6.2-2 13-2.2 10.5-.3 13.8 1.7 13.8 1.7"/><path fill="#bdbdbd" d="M92.8 54.2c-.1-.5-.8-.7-1.2-.4 0 0-1.4 1-1.8 1.6s-.6.8-.5 1.3c.3.9 1 3.5 1 6.7 0 3-.8 6.4-.8 7.6 0 .5.8.1 1.9.1.5 0 1.2 0 1.5-1.2a29 29 0 0 0 0-15.7M71.4 89.6h-1.3c-1 .4-2.5.8-6.1.8s-5-.4-6-.8h-1.2A3 3 0 0 0 55 91a1 1 0 0 0 .6 1.3q2.6.9 8.4 1 5.7-.3 8.5-1 1-.3.6-1.4a3 3 0 0 0-1.6-1.3M6.1 72.2a36 36 0 0 1 .3-17q.4-1.6 1.3-1.8l-.2.8c-1.2 5.3-.8 11.5.1 17q.2.6-.4.8-.3 0-.5.3c-.5.3-.6-.1-.6-.1"/><path fill="#9e9e9e" d="M121.9 72.7c1.4-6.3 1-12.4-.3-17.8q-.5-1.9-1.2-1.9v.8c1.3 5.6 1 12 0 17.8q-.2.7.4.9.3 0 .5.3c.5.3.6-.1.6-.1"/></svg>