<svg viewBox="0 0 128 128"><path fill="#bdbdbd" d="M6.8 45.8v64.7c0 3.1 3 5.2 6.3 7.6 4 2.8 8.5 5.3 10.2 5.3l93.6.6c2.3 0 4.3-3 4.3-5.3v-73z"/><linearGradient id="a" x1="117" x2="117" y1="74.7" y2="114.6" gradientUnits="userSpaceOnUse"><stop offset=".3" stop-color="#616161"/><stop offset="1" stop-color="#616161" stop-opacity="0"/></linearGradient><path fill="url(#a)" d="m121.2 118.7-8.3-8.6V44l8.3-.2z" opacity=".3"/><path fill="#c62828" d="m121.2 51.3-6.5-4-10-43.3h5.4c9.6 0 11 5.6 11 7.5z"/><path fill="#fafafa" d="M9.8 45.8v62.7c0 2.7 2.1 4.8 4.8 4.8h94.9c2.7 0 5.2-2 5.2-4.7V45.8z"/><path fill="#f44336" d="M114.7 47.3H6.8V9.8C6.8 6.6 9.4 4 12.6 4h96.6c3.1 0 5.7 2.6 5.7 5.8z"/><path fill="#fff" d="M42 15.5h4v13.8q0 2-.8 3.4a5 5 0 0 1-2.4 2.2q-1.5.9-3.4.8-3.2 0-5-1.6c-1.8-1.6-1.7-2.6-1.7-4.5h4.1q0 1.5.6 2.1.8.8 2 .7 1.2 0 1.9-.8c.7-.8.7-1.3.7-2.3zm16.2 18.4a5 5 0 0 1-4 1.8q-2.4 0-3.7-1.4-1.2-1.3-1.2-4v-9.7h4v9.6q0 2.4 2 2.3 2 0 2.8-1.4V20.6h4v14.9h-3.8zm11 1.5h-4v-21h4zm8.9-5.6 2.7-9.2h4.3l-6 17.2-.3.7q-1.5 3-4.4 3l-1.8-.3v-3h.6q1.1 0 1.7-.4.6-.3.9-1.1l.4-1.2-5.2-15h4.3z"/><path d="M51.6 102.3H43v-33l-10.2 3.1v-7l17.9-6.3h.9zM92 64l-16.7 38.4h-9.1L82.9 66H61.4v-6.9H92z"/><path fill="#616161" d="m114.7 52.2-105 .1v-5h105z" opacity=".3"/><circle cx="22.8" cy="17.7" r="7.1" fill="#606060"/><circle cx="20.4" cy="15.4" r="7.1" fill="#94d1e0"/><path fill="#c9eff2" d="M21 12.5q-.2 1.2-1.3 2.1a7 7 0 0 1-2.6 1.7q-.8.4-1.7 0c-1.4-1-.3-4.6.8-5.6 1.6-1.4 5.4-1.1 4.9 1.8"/><circle cx="101.3" cy="17.7" r="7.1" fill="#606060"/><circle cx="99" cy="15.4" r="7.1" fill="#94d1e0"/><path fill="#c9eff2" d="M99.6 12.5q-.3 1.2-1.4 2.1a7 7 0 0 1-2.5 1.7q-1 .4-1.8 0c-1.4-1-.3-4.6.8-5.6 1.6-1.4 5.4-1.1 4.9 1.8"/><path fill="#757575" d="m103.7 118.7-9.5.9-9.6.5-9.5.3H56l-9.5-.3-9.6-.5-9.5-.9v-.2h76.3zm-19.2-5.4h25.3c2.7 0 4.9-2.2 4.9-4.8V90s-5.5 7.7-13.8 14-16.4 9.3-16.4 9.3"/><path fill="#bdbdbd" d="M107.2 104.3c7.7-9 7.5-14.3 7.5-14.3s-2.2 3.2-9.2 3.9c-2.5.2-6-.7-8.7-1.6-1.5-.5-3.2.6-3.2 2.3q.1 3.1-1.6 8.6c-1.8 5.8-7.5 10.2-7.5 10.2s14 1 22.7-9"/></svg>