<svg viewBox="0 0 128 128"><radialGradient id="a" cx="64.9" cy="25.4" r="39.4" gradientTransform="matrix(.6861 0 0 .6604 19.244 9.323)" gradientUnits="userSpaceOnUse"><stop offset=".1" stop-color="#ffe265" stop-opacity=".7"/><stop offset=".4" stop-color="#ffec99" stop-opacity=".4"/><stop offset=".9" stop-color="#fff" stop-opacity="0"/></radialGradient><path fill="url(#a)" d="M91 26.6c0 13.6-9.3 26-27.3 25.6-22.1-.5-27-12.8-27-26.3S46.3 0 66 0c18 0 25 13 25 26.6"/><linearGradient id="b" x1="63.8" x2="63.8" y1="66.2" y2="132.5" gradientUnits="userSpaceOnUse"><stop offset="0" stop-color="#e0e0e0"/><stop offset="1" stop-color="#b0bec5"/></linearGradient><path fill="url(#b)" d="M45 56.2V117c0 4 8.4 7.1 18.9 7.1s18.8-3.2 18.8-7.1V56.2z"/><path fill="#eee" d="M84.2 66c-1.4-3.1 0-5-.5-8.2-.2-1.2 0-3.2-3.1-4.8l-.8-.4q-1.5-.7-2.9-.9c-5.7-1.2-15-1.7-23.7-4q-6.2-1.3-7.5-.2c-2.2 1.1-2 5.8-1.6 9.3s.7 7.4-1 10.5q-.8 1.2-1.3 2.5a4 4 0 0 0 2.2 4.8c-1 2.2-1.9 4.5-1.7 6.9 0 2.4 1.5 4.8 3.9 5.5q.9.2 1.7-.1c1.5-.8 1.8-2.6 1.9-3.8 0-8.9-1.9-17.1-1.5-26l.2-.6q.2-.3.6-.3c1.4 0 2.9.7 3.6 2 .6 1.1.6 2.5 1.1 3.7.9 1.8 3.2 3 5.1 2.5q1.7-.6 3.1-1.5c1-.5 2.8-1.1 3.3-.1 2.3 4.6 5.2 4.4 5.4 5.2 0 0 1 8.1.9 13.7-.2 6.5-1.3 12.7-.4 15s3 2 3.8 1.6c3.3-2.2.7-10.5 1-12.1 0 0 2.4 1 3.1-1.9S76.8 75.1 77 70c0-3.2 1.5-4.5 3.2-3 .2.1 1.3.5 1.7 2.8.4 2.4 0 6.2.8 8s3.7-.3 3.7-4.1c0-2-1.4-5.8-2.2-7.6"/><radialGradient id="c" cx="64.4" cy="49.5" r="22.6" gradientTransform="rotate(10.056 -126.602 32.701)scale(1 .3212)" gradientUnits="userSpaceOnUse"><stop offset="0" stop-color="#fff176"/><stop offset="1" stop-color="#fff176" stop-opacity="0"/></radialGradient><path fill="url(#c)" d="M53.2 47.7c-5.6-1.4-7.9-.4-8 .3-.2 4 18.5 8.4 26.5 9.4q11.2 1.4 10.6-2.4c-.8-4.5-15.8-3.8-29.1-7.3"/><radialGradient id="d" cx="62.9" cy="40.7" r="31.2" gradientUnits="userSpaceOnUse"><stop offset=".2" stop-color="#ff9616"/><stop offset=".7" stop-color="#ffd429"/></radialGradient><path fill="url(#d)" d="M70.2 43c-4 2.4-9 2.6-13.2.3-4.5-2.4-9.3-8.9-5.2-20.6A35 35 0 0 1 66.4 4.1a.7.7 0 0 1 1 .8c-.6 2.7-.8 8.7 5 17.4 5.5 8.3 4.4 16.4-2.2 20.6"/><path fill="#546e7a" d="M62.3 50.1s-1.4-3-1-7.4q.6-3.6 1.5-6c.5-2.2.6-4 .6-4 .7.3 1.8 1.8 1.5 4.7-.1 2.1-.8 5.4-.8 6.3q.2 3.6 1.4 7.1c.2.9-3 0-3.2-.7"/><linearGradient id="e" x1="64" x2="61.5" y1="34" y2="52.8" gradientUnits="userSpaceOnUse"><stop offset="0" stop-color="#ffa726"/><stop offset=".6" stop-color="#ffa726" stop-opacity="0"/></linearGradient><path fill="url(#e)" d="M61.4 42.7c.2-2.5 1-4.4 1.4-6 .5-2.2.6-4 .6-4 .8.3 1.8 1.8 1.6 4.7-.2 2-.9 5.4-.8 6.3 0 2.4-3.3 3.3-2.9-1"/><path fill="#fffde7" d="M49.1 48.6c2 1 3.6 2.5 5.5 3.6q2 1.1 4.4 1.5 1.6 0 2.8.7c.5.3 1 1 .6 1.5q-.3.3-.7.3c-1 .2-2-.2-3.1-.3-1.6-.1-3.2.5-4.7-.2-1.2-.6-1.9-2-3.1-2.7q-1-.5-2.3-.4c-1.5-.1-4.2-.7-4-2.8.3-2.2 3.2-1.8 4.6-1.2m23 10.9a9 9 0 0 0 8-.9q1.4-1 1.7-2.6c0-1-.9-2.2-2-2.1q-1 .1-1.8.9c-2.6 1.7-5.2.6-8 1-4.3.4.3 3.1 2 3.7"/><path fill="#fff" d="m73.4 92.6-.2 2.7c0 .2-.7 1.2-1.6.6-.7-.7-.6-1.8-.6-2.8q.2-4.3.9-8.8c.2-1.3.8-.1.9.7l.2 2.3zM46 73.8h-.6q-.6-.1-.7-.8v-1q.7-2.2 1.8-4c1-1.8 1.5 1.3 1.5 2 0 1.5-.5 3.3-2 3.8"/></svg>