<svg xmlns="http://www.w3.org/2000/svg" width="1em" height="1em" viewBox="0 0 128 128"><radialGradient id="a" cx="64.939" cy="25.413" r="39.391" gradientTransform="matrix(.6861 0 0 .6604 19.244 9.323)" gradientUnits="userSpaceOnUse"><stop offset=".088" stop-color="#ffe265" stop-opacity=".7"/><stop offset=".398" stop-color="#ffec99" stop-opacity=".448"/><stop offset=".949" stop-color="#fff" stop-opacity="0"/></radialGradient><path fill="url(#a)" d="M90.91 26.63c0 13.56-9.16 25.96-27.18 25.58-22.17-.48-27.04-12.76-27.04-26.31S46.34 0 66.05 0c17.86 0 24.86 13.07 24.86 26.63"/><linearGradient id="b" x1="63.848" x2="63.848" y1="66.192" y2="132.535" gradientUnits="userSpaceOnUse"><stop offset="0" stop-color="#e0e0e0"/><stop offset="1" stop-color="#b0bec5"/></linearGradient><path fill="url(#b)" d="M45 56.23v60.64c0 3.94 8.44 7.13 18.85 7.13s18.85-3.19 18.85-7.13V56.23z"/><path fill="#eee" d="M84.18 66c-1.4-3.1-.06-4.96-.49-8.24-.16-1.21-.07-3.18-3.1-4.77h-.01c-.24-.13-.5-.25-.77-.37-.94-.41-2.04-.78-2.91-.87h-.01c-5.71-1.28-15.06-1.76-23.73-4.04-4.19-1.1-6.52-.77-7.43-.24h-.01c-2.19 1.14-1.99 5.79-1.64 9.35s.72 7.37-1 10.5c-.45.83-1.05 1.59-1.33 2.49-.58 1.86.47 4.07 2.28 4.79-1 2.18-1.91 4.49-1.77 6.88.13 2.39 1.58 4.86 3.89 5.48.59.16 1.25.18 1.79-.1 1.46-.77 1.79-2.57 1.81-3.75.13-8.88-1.83-17.15-1.45-26.02.01-.21.03-.44.16-.61.15-.19.42-.24.66-.25 1.42-.09 2.85.7 3.54 1.94.63 1.14.64 2.52 1.18 3.71.85 1.86 3.11 2.95 5.1 2.47 1.11-.27 2.07-.95 3.1-1.43 1.04-.48 2.78-1.17 3.29-.14 2.28 4.63 5.18 4.44 5.32 5.22 0 0 1.1 8.1.93 13.66-.2 6.52-1.27 12.75-.37 14.96 1.02 2.51 2.98 2.17 3.74 1.67 3.37-2.21.72-10.5.96-12.13 0 0 2.53.96 3.23-1.83.72-2.89-2.33-9.22-2.19-14.45.09-3.2 1.54-4.44 3.23-3.04.22.19 1.27.59 1.68 2.89.42 2.38.05 6.13.81 7.89s3.77-.22 3.77-4.04c-.02-1.99-1.44-5.76-2.26-7.58"/><radialGradient id="c" cx="64.363" cy="49.504" r="22.627" gradientTransform="rotate(10.056 -126.602 32.701)scale(1 .3212)" gradientUnits="userSpaceOnUse"><stop offset="0" stop-color="#fff176"/><stop offset="1" stop-color="#fff176" stop-opacity="0"/></radialGradient><path fill="url(#c)" d="M53.16 47.73c-5.52-1.45-7.82-.41-7.88.29-.31 3.9 18.46 8.43 26.41 9.4 7.48.92 11.01.03 10.6-2.43-.75-4.52-15.75-3.74-29.13-7.26"/><radialGradient id="d" cx="62.871" cy="40.668" r="31.156" gradientUnits="userSpaceOnUse"><stop offset=".17" stop-color="#ff9616"/><stop offset=".654" stop-color="#ffd429"/></radialGradient><path fill="url(#d)" d="M70.19 42.93c-3.95 2.5-9.05 2.63-13.17.42-4.55-2.44-9.34-8.95-5.21-20.63 3.99-11.3 11.34-16.7 14.55-18.61.54-.32 1.18.16 1.05.76-.59 2.7-.84 8.73 4.96 17.43 5.55 8.32 4.47 16.42-2.18 20.63"/><path fill="#546e7a" d="M62.28 50.13s-1.34-3.08-.94-7.46c.22-2.42 1.02-4.31 1.44-6.03.54-2.16.57-3.85.57-3.85.79.2 1.83 1.73 1.59 4.58-.18 2.13-.83 5.42-.79 6.31.11 2.42.58 4.82 1.33 7.13.01.03.02.05.02.08.25.77-3.05-.08-3.22-.76"/><linearGradient id="e" x1="63.983" x2="61.483" y1="34.004" y2="52.754" gradientUnits="userSpaceOnUse"><stop offset="0" stop-color="#ffa726"/><stop offset=".598" stop-color="#ffa726" stop-opacity="0"/></linearGradient><path fill="url(#e)" d="M61.35 42.66c.22-2.42 1.02-4.31 1.44-6.03.54-2.16.57-3.85.57-3.85.79.2 1.83 1.73 1.59 4.58-.18 2.13-.83 5.42-.79 6.31.09 2.42-3.21 3.38-2.81-1.01"/><path fill="#fffde7" d="M49.13 48.59c1.97.92 3.55 2.49 5.43 3.58 1.35.78 2.85 1.3 4.39 1.52.97.14 2 .18 2.84.68.51.31.95 1 .6 1.49-.16.23-.44.33-.71.38-1.02.19-2.05-.23-3.09-.32-1.56-.13-3.24.47-4.66-.22-1.26-.61-1.92-2.08-3.17-2.71-.7-.36-1.51-.41-2.3-.44-1.5-.07-4.2-.65-3.94-2.74.29-2.18 3.22-1.86 4.61-1.22m22.9 10.88c2.65.87 5.74.79 8.01-.83.88-.63 1.65-1.56 1.71-2.64.07-1.08-.82-2.24-1.9-2.15-.7.06-1.26.56-1.84.94-2.57 1.66-5.17.65-7.94.96-4.35.48.28 3.17 1.96 3.72"/><path fill="#fff" d="M73.36 92.57c.05.92.08 1.87-.17 2.76-.06.21-.71 1.2-1.55.53-.77-.61-.65-1.78-.6-2.76.15-3.09.34-5.73.81-8.76.2-1.3.87-.15.95.65s.11 1.76.17 2.36c.19 1.73.3 3.47.39 5.22m-27.4-18.81c-.2.06-.41.1-.61.04-.35-.09-.59-.43-.66-.78s0-.71.08-1.06c.36-1.42 1.07-2.73 1.76-4.03.96-1.77 1.51 1.4 1.48 2.13-.05 1.42-.54 3.22-2.05 3.7"/></svg>