<svg xmlns="http://www.w3.org/2000/svg" width="1em" height="1em" viewBox="0 0 128 128"><radialGradient id="notoCandle0" cx="64.939" cy="25.413" r="39.391" gradientTransform="matrix(.6861 0 0 .6604 19.244 9.323)" gradientUnits="userSpaceOnUse"><stop offset=".088" stop-color="#FFE265" stop-opacity=".7"/><stop offset=".398" stop-color="#FFEC99" stop-opacity=".448"/><stop offset=".949" stop-color="#FFF" stop-opacity="0"/></radialGradient><path fill="url(#notoCandle0)" d="M90.91 26.63c0 13.56-9.16 25.96-27.18 25.58c-22.17-.48-27.04-12.76-27.04-26.31S46.34 0 66.05 0c17.86 0 24.86 13.07 24.86 26.63z"/><linearGradient id="notoCandle1" x1="63.848" x2="63.848" y1="66.192" y2="132.535" gradientUnits="userSpaceOnUse"><stop offset="0" stop-color="#E0E0E0"/><stop offset="1" stop-color="#B0BEC5"/></linearGradient><path fill="url(#notoCandle1)" d="M45 56.23v60.64c0 3.94 8.44 7.13 18.85 7.13s18.85-3.19 18.85-7.13V56.23H45z"/><path fill="#EEE" d="M84.18 66c-1.4-3.1-.06-4.96-.49-8.24c-.16-1.21-.07-3.18-3.1-4.77h-.01c-.24-.13-.5-.25-.77-.37c-.94-.41-2.04-.78-2.91-.87h-.01c-5.71-1.28-15.06-1.76-23.73-4.04c-4.19-1.1-6.52-.77-7.43-.24h-.01c-2.19 1.14-1.99 5.79-1.64 9.35c.35 3.56.72 7.37-1 10.5c-.45.83-1.05 1.59-1.33 2.49c-.58 1.86.47 4.07 2.28 4.79c-1 2.18-1.91 4.49-1.77 6.88c.13 2.39 1.58 4.86 3.89 5.48c.59.16 1.25.18 1.79-.1c1.46-.77 1.79-2.57 1.81-3.75c.13-8.88-1.83-17.15-1.45-26.02c.01-.21.03-.44.16-.61c.15-.19.42-.24.66-.25c1.42-.09 2.85.7 3.54 1.94c.63 1.14.64 2.52 1.18 3.71c.85 1.86 3.11 2.95 5.1 2.47c1.11-.27 2.07-.95 3.1-1.43c1.04-.48 2.78-1.17 3.29-.14c2.28 4.63 5.18 4.44 5.32 5.22c0 0 1.1 8.1.93 13.66c-.2 6.52-1.27 12.75-.37 14.96c1.02 2.51 2.98 2.17 3.74 1.67c3.37-2.21.72-10.5.96-12.13c0 0 2.53.96 3.23-1.83c.72-2.89-2.33-9.22-2.19-14.45c.09-3.2 1.54-4.44 3.23-3.04c.22.19 1.27.59 1.68 2.89c.42 2.38.05 6.13.81 7.89c.76 1.76 3.77-.22 3.77-4.04c-.02-1.99-1.44-5.76-2.26-7.58z"/><radialGradient id="notoCandle2" cx="64.363" cy="49.504" r="22.627" gradientTransform="matrix(.9846 .1746 -.0561 .3163 3.765 22.608)" gradientUnits="userSpaceOnUse"><stop offset="0" stop-color="#FFF176"/><stop offset="1" stop-color="#FFF176" stop-opacity="0"/></radialGradient><path fill="url(#notoCandle2)" d="M53.16 47.73c-5.52-1.45-7.82-.41-7.88.29c-.31 3.9 18.46 8.43 26.41 9.4c7.48.92 11.01.03 10.6-2.43c-.75-4.52-15.75-3.74-29.13-7.26z"/><radialGradient id="notoCandle3" cx="62.871" cy="40.668" r="31.156" gradientUnits="userSpaceOnUse"><stop offset=".17" stop-color="#FF9616"/><stop offset=".654" stop-color="#FFD429"/></radialGradient><path fill="url(#notoCandle3)" d="M70.19 42.93c-3.95 2.5-9.05 2.63-13.17.42c-4.55-2.44-9.34-8.95-5.21-20.63c3.99-11.3 11.34-16.7 14.55-18.61c.54-.32 1.18.16 1.05.76c-.59 2.7-.84 8.73 4.96 17.43c5.55 8.32 4.47 16.42-2.18 20.63z"/><path fill="#546E7A" d="M62.28 50.13s-1.34-3.08-.94-7.46c.22-2.42 1.02-4.31 1.44-6.03c.54-2.16.57-3.85.57-3.85c.79.2 1.83 1.73 1.59 4.58c-.18 2.13-.83 5.42-.79 6.31c.11 2.42.58 4.82 1.33 7.13c.01.03.02.05.02.08c.25.77-3.05-.08-3.22-.76z"/><linearGradient id="notoCandle4" x1="63.983" x2="61.483" y1="34.004" y2="52.754" gradientUnits="userSpaceOnUse"><stop offset="0" stop-color="#FFA726"/><stop offset=".598" stop-color="#FFA726" stop-opacity="0"/></linearGradient><path fill="url(#notoCandle4)" d="M61.35 42.66c.22-2.42 1.02-4.31 1.44-6.03c.54-2.16.57-3.85.57-3.85c.79.2 1.83 1.73 1.59 4.58c-.18 2.13-.83 5.42-.79 6.31c.09 2.42-3.21 3.38-2.81-1.01z"/><path fill="#FFFDE7" d="M49.13 48.59c1.97.92 3.55 2.49 5.43 3.58c1.35.78 2.85 1.3 4.39 1.52c.97.14 2 .18 2.84.68c.51.31.95 1 .6 1.49c-.16.23-.44.33-.71.38c-1.02.19-2.05-.23-3.09-.32c-1.56-.13-3.24.47-4.66-.22c-1.26-.61-1.92-2.08-3.17-2.71c-.7-.36-1.51-.41-2.3-.44c-1.5-.07-4.2-.65-3.94-2.74c.29-2.18 3.22-1.86 4.61-1.22zm22.9 10.88c2.65.87 5.74.79 8.01-.83c.88-.63 1.65-1.56 1.71-2.64c.07-1.08-.82-2.24-1.9-2.15c-.7.06-1.26.56-1.84.94c-2.57 1.66-5.17.65-7.94.96c-4.35.48.28 3.17 1.96 3.72z"/><path fill="#FFF" d="M73.36 92.57c.05.92.08 1.87-.17 2.76c-.06.21-.71 1.2-1.55.53c-.77-.61-.65-1.78-.6-2.76c.15-3.09.34-5.73.81-8.76c.2-1.3.87-.15.95.65c.08.8.11 1.76.17 2.36c.19 1.73.3 3.47.39 5.22zm-27.4-18.81c-.2.06-.41.1-.61.04c-.35-.09-.59-.43-.66-.78c-.07-.35 0-.71.08-1.06c.36-1.42 1.07-2.73 1.76-4.03c.96-1.77 1.51 1.4 1.48 2.13c-.05 1.42-.54 3.22-2.05 3.7z"/></svg>