<svg viewBox="0 0 128 128"><path fill="#ffc107" d="M116.3 102H11.7A7.6 7.6 0 0 1 4 94.3V33.7c0-4.2 3.5-7.7 7.7-7.7h104.6c4.2 0 7.7 3.5 7.7 7.7v60.6c0 4.2-3.5 7.6-7.7 7.6"/><path fill="#424242" d="M4 38.9h120v16H4z"/><path fill="#fff" d="M114.2 74.1H13.9q-1.7-.2-1.8-1.7v-8.5q.1-1.6 1.8-1.8h100.3q1.7.1 1.8 1.8v8.5q-.1 1.6-1.8 1.7"/><path fill="none" stroke="#424242" stroke-linecap="round" stroke-linejoin="round" stroke-miterlimit="10" stroke-width="2" d="m24 70.5 1.2-3.5c.6-1.8 1.6-2.1 2.8-2 1 .3 1.8 1.4 2.2 2.4q.9 2.2 1 4.6l-.3.9q-.8.5-1.4-.3c-.6-.8-.2-1-.1-1.6a8 8 0 0 1 5-5.6h.9q.8.1 1.2 1.2.9 1.8 2.2 3.3.5.7 1.2 1c1.7.5 2.7-2 4.4-2.7 2-.8 3.9 1.3 6 1.7 3 .6 4.7-1.8 7.4-2.4q.5-.2 1 0c.7.1 1.1.8 1.5 1.3 1 1.4 2.2 2.7 3.9 2.7q1.5-.1 2.9-1c3.3-1.6 7.2-2.2 10.7-1"/></svg>