<svg xmlns="http://www.w3.org/2000/svg" width="1em" height="1em" viewBox="0 0 128 128"><path fill="#522f21" d="M121.7 82.43v18.86c0 1.37-.65 2.66-1.75 3.47l-23.29 17.27c-.31.23-.72.26-1.06.09l-.9-.46v-19.2z"/><path fill="#ab664b" d="M5.02 53.35 21.5 83.66c.17.32.44.58.77.75l.13-19.14L4.6 33.96v17.75c0 .57.14 1.13.42 1.64"/><path fill="#874d36" d="M96.16 121.51v-19.08l-74.4-38.25v19.05c0 .57.32 1.09.82 1.35L95.36 122c.37.18.8-.08.8-.49"/><path fill="#c87d5e" d="M120.79 76.68 74.23 23.91c-.43-.49-.99-.85-1.61-1.05L33.61 10.38a3.62 3.62 0 0 0-3.26.54S6.88 28.36 6.76 28.47l-.04.03c-2.12 1.52-3.52 5.31-1.75 8.61l14.44 26.56c.35.64.88 1.16 1.53 1.49l72.76 36.92c1.23.63 2.71.51 3.82-.31l24.7-18.28c1.54-1.14 1.58-3.49-1.43-6.81"/><path fill="#ab664b" d="M95.79 90.7 27.26 55.47 14.09 31.25l19.36-14.36 36.4 11.64 43.42 49.21zM31.04 52.15l65.64 33.23 12.09-8.97L68.43 30.7 33.91 19.67 19.28 30.52z"/><path fill="#7a4631" d="m69.85 28.53-36.4-11.64.44 2.8.02-.02L68.43 30.7l40.34 45.72 4.5 1.32z"/><path fill="#522f21" d="m42.51 86.7.6-4.3-3.69 2.62-5.83-3-.22-4.54-3.52 2.62c-.74-.38-1.64-.09-2.02.65s-.09 1.64.65 2.02l12.29 6.32c.22.11.45.17.68.17.54 0 1.07-.3 1.34-.81.31-.6.17-1.3-.28-1.75m35.96 18.4.3-4.6s-3.28 2.37-3.8 2.8l-15.29-7.86v-4.25s-2.46 1.79-3.4 2.5l-.88-.45c-.74-.38-1.64-.09-2.02.65s-.09 1.64.65 2.02l23.07 11.86c.22.11.45.17.68.17.54 0 1.07-.3 1.33-.81.39-.74.1-1.65-.64-2.03"/><path fill="#e2a610" d="M56.22 95.22c-.28 0-.57-.08-.82-.25-.69-.45-.61-1.07-.16-1.77l1.96-2.99c.45-.69 1.29-1.06 1.98-.61s.71 1.25.26 1.94l-1.96 2.99c-.29.45-.77.69-1.26.69m-16.67-8.55c-.28 0-.57-.08-.82-.25-.69-.45-.61-1.07-.16-1.77l1.96-2.99c.45-.69 1.29-1.06 1.98-.61s.71 1.25.26 1.94l-1.96 2.99c-.3.45-.78.69-1.26.69m-9.64-4.96c-.28 0-.57-.08-.82-.25-.69-.45-.61-1.07-.16-1.77l1.96-2.99c.45-.69 1.29-1.06 1.98-.61s.71 1.25.26 1.94l-1.96 2.99c-.3.45-.78.69-1.26.69m45.33 23.22c-.28 0-.57-.08-.82-.25-.69-.45-.61-1.07-.16-1.77l1.96-2.99c.45-.69 1.29-1.06 1.98-.61s.71 1.25.26 1.94l-1.96 2.99c-.29.45-.77.69-1.26.69"/><path fill="#ffca28" d="M77.28 106.05c-.23 0-.47-.05-.68-.17L53.52 94.02c-.74-.38-1.03-1.28-.65-2.02s1.28-1.03 2.02-.65l23.07 11.86c.74.38 1.03 1.28.65 2.02-.26.53-.79.82-1.33.82M40.95 87.38a1.4 1.4 0 0 1-.68-.17l-12.29-6.32a1.496 1.496 0 0 1-.65-2.02c.38-.74 1.28-1.03 2.02-.65l12.29 6.32c.74.38 1.03 1.28.65 2.02-.27.52-.79.82-1.34.82"/><path fill="#ffcc80" d="m14.09 31.25 19.36-14.36.46 2.78-14.63 10.85 11.76 21.63-3.78 3.32z" opacity=".8"/><path fill="#ab664b" d="M94.06 98.03 23.2 62.08c-.63-.32-1.15-.83-1.49-1.45L5.17 30.26c-1.1 1.85-1.47 4.48-.19 6.85l14.44 26.56c.35.64.88 1.16 1.53 1.49l72.76 36.92c1.23.63 2.71.51 3.82-.31V97.9c-1.06.64-2.37.7-3.47.13"/><path fill="#ffcc80" d="M21.72 60.63 5.17 30.25c-1.1 1.85-1.47 4.48-.19 6.86l14.44 26.56c.35.64.88 1.16 1.53 1.49 0 0-.91-2.47 1.53-3.6-.31-.26-.57-.57-.76-.93" opacity=".8"/><path fill="#874d36" d="M122.55 79.1c-.17.33-.41.61-.72.83l-24.05 17.8c-.51.38-1.1.6-1.71.67-.09.07-.19.15-.27.21 1.44.93.95 3.45.36 3.79.48-.11.94-.32 1.36-.62l24.7-18.28c1.19-.89 1.4-2.67.33-4.4"/></svg>