<svg viewBox="0 0 128 128"><path fill="#522f21" d="M121.7 82.4v18.9q0 2.2-1.7 3.5L96.7 122a1 1 0 0 1-1.1.1l-.9-.4v-19.2z"/><path fill="#ab664b" d="m5 53.4 16.5 30.3q.2.4.8.7l.1-19.1L4.6 34v17.7q0 .9.4 1.6"/><path fill="#874d36" d="M96.2 121.5v-19L21.8 64.1v19q0 1 .8 1.4L95.4 122q.6.3.8-.5"/><path fill="#c87d5e" d="M120.8 76.7 74.2 23.9q-.7-.7-1.6-1l-39-12.5a4 4 0 0 0-3.3.5S7 28.4 6.9 28.5A7 7 0 0 0 5 37.1l14.4 26.6q.6.9 1.5 1.5L93.7 102q2 .9 3.8-.3l24.7-18.3c1.6-1.2 1.6-3.5-1.4-6.8"/><path fill="#ab664b" d="M95.8 90.7 27.3 55.5 14 31.3l19.4-14.4 36.4 11.6 43.4 49.2zM31 52.1l65.7 33.3 12-9-40.3-45.7-34.5-11-14.6 10.8z"/><path fill="#7a4631" d="M69.9 28.5 33.3 17l.5 2.8 34.5 11 40.4 45.7 4.5 1.3z"/><path fill="#522f21" d="m42.5 86.7.6-4.3-3.7 2.6-5.8-3-.2-4.5-3.5 2.6q-1.4-.5-2 .7c-.7 1.2-.2 1.6.6 2L40.8 89l.7.2q.8 0 1.3-.8.5-1-.3-1.8m36 18.4.3-4.6-3.8 2.8-15.3-7.9v-4.2l-3.4 2.5-.9-.5q-1.2-.4-2 .7c-.8 1-.1 1.6.6 2l23.1 11.9.7.1q.8 0 1.3-.8.5-1.2-.6-2"/><path fill="#e2a610" d="M56.2 95.2q-.5 0-.8-.2-1-.7-.2-1.8l2-3q.9-1.1 2-.6c1 .5.7 1.3.2 2l-2 3q-.4.6-1.2.6m-16.7-8.5-.8-.3q-1-.6-.1-1.8l2-3q.7-1 2-.5c1.2.5.6 1.2.2 1.9l-2 3q-.5.7-1.3.7m-9.6-5q-.5 0-.8-.2-1-.7-.2-1.8l2-3q.8-1.1 2-.6c1.2.5.7 1.2.2 2l-2 3q-.4.6-1.2.6M75.2 105l-.8-.2q-1-.7-.1-1.8l2-3q.7-1.1 1.9-.6c1.2.5.7 1.3.3 2l-2 3q-.5.6-1.3.6"/><path fill="#ffca28" d="m77.3 106-.7-.1-23-11.9q-1.2-.8-.7-2c.5-1.2 1.3-1 2-.6l23 11.8q1.2.8.7 2-.4.8-1.3.8M41 87.4l-.7-.2L28 81a1.5 1.5 0 0 1-.7-2q.8-1.2 2-.7l12.3 6.3q1.2.8.7 2-.5.9-1.3.9"/><path fill="#ffcc80" d="m14 31.3 19.5-14.4.4 2.8-14.6 10.8L31 52.2l-3.7 3.3z" opacity=".8"/><path fill="#ab664b" d="M94 98 23.3 62q-.9-.4-1.5-1.4L5.2 30.3A7 7 0 0 0 5 37l14.4 26.6q.6.9 1.5 1.5L93.8 102q2 .9 3.8-.3v-3.9q-1.6 1-3.4.1"/><path fill="#ffcc80" d="M21.7 60.6 5.2 30.3A7 7 0 0 0 5 37l14.4 26.6q.6.9 1.6 1.5s-1-2.5 1.5-3.6z" opacity=".8"/><path fill="#874d36" d="m122.6 79.1-.8.8-24 17.8q-.8.6-1.7.7l-.3.2c1.4 1 1 3.5.4 3.8q.7-.2 1.3-.6l24.7-18.3c1.2-.9 1.4-2.7.4-4.4"/></svg>