<svg viewBox="0 0 128 128"><path fill="#e0e0e0" d="M103 37.7C103 16 85.6 4 64 4S25 16.1 25 37.7v47.2a39.1 39.1 0 0 0 78 0z"/><path fill="#fff" d="M97.8 43.5c0-8.8-2.3-20.1-10.9-27.7-3.7-3.3-8.2-6.1-12.2-5.3-6.3 1.2-4.4 8.1-1.8 12.2 1.8 2.9 5 6.1 5.4 18.9.2 5 .2 9.6-1.3 14.4-3.8 12.4-14.2 10.2-15.8 11-3 1.7-3.5 5.8-3.5 9.3 0 8.3-.4 17.2.4 25.5.6 5.6 4 13 11 12.8a25 25 0 0 0 13.7-5.2c9-6.2 14.5-16.6 14.5-27.5z" opacity=".5"/><path fill="#b5b5b5" d="M66.6 4c-.8 0-1.8-.2-3.1 1-1.4 1.3-1.8 2.5-2 5.8l-.1 32.9h5.2z"/><path fill="#b5b5b5" d="M96 48a55 55 0 0 0-20.4-6.6 2.6 2.6 0 0 1-2.2-2.6v-4.5C73 26.3 69 23 63.6 23s-10 2.1-10.5 12.2v3.4a3 3 0 0 1-2.8 3.1A54 54 0 0 0 32 48a14 14 0 0 0-7 12.3v1.2c.8-1.5 6.7-11 24.7-14.3 1.7-.3 3.1 1 3.1 2.6v1c.6 10 5.4 12.7 10.8 12.7s9.8-3.4 9.7-10.7V49c0-1.4 1.3-2.5 2.7-2.3 19.9 3 26.2 13 27 14.7v-1.2c0-5-2.6-9.8-7-12.3"/><path fill="#504f4f" d="M64 60.7c-4 0-7.3-3.5-7.3-7.9V33.6c0-4.4 3.2-7.9 7.3-7.9s7.3 3.5 7.3 8v19.1c0 4.4-3.2 7.9-7.3 7.9"/><path fill="#757575" d="M69 32.3c1.2 6.7.7 14.7.3 20.1s-3 6.5-4.5 6.8c-1.9.4-4-.2-4.9-2.3 0 0 2-2.3 2.4-5.5.5-5.3.9-10.8.2-16.1-.3-2.4-.4-4.6-2.6-5.3 0 0 .5-1.5 2.2-2.2 5.4-2 6.7 3 7 4.5"/><path fill="#fff" d="M51.8 10c4.9-1.9 6.3 2.4 6.4 3.4 0 1.6 1.2 7.5-1.5 9-6.2 3.6-4.8 8.3-8.1 9.7-4.2 1.7-6.2-3-6.1-6.1.3-13.1 7-15 9.3-16" opacity=".5"/></svg>