<svg xmlns="http://www.w3.org/2000/svg" width="1em" height="1em" viewBox="0 0 128 128"><path fill="#FFD600" d="M110.93 8.32c0-2.36-5.89-4.28-13.16-4.28c-7.27 0-13.17 1.91-13.17 4.28c0 2.01-3.42 18.4-4.33 23.28c-.33 1.77.21 2.49 1.09 3c2.68 1.54 9.02 2.63 16.4 2.63c7.74 0 14.33-1.19 16.76-2.85c.65-.45.95-1.56.6-3.55c-1.03-5.87-4.19-21.74-4.19-22.51z"/><ellipse cx="97.77" cy="31.79" fill="#FFFF8D" rx="14.91" ry="3.59"/><linearGradient id="notoCouchAndLamp0" x1="97.768" x2="97.768" y1="14.655" y2="73.951" gradientUnits="userSpaceOnUse"><stop offset=".041" stop-color="#FFFF8D"/><stop offset=".567" stop-color="#C87D5E"/><stop offset=".676" stop-color="#BA7151"/><stop offset=".799" stop-color="#A65F3E"/></linearGradient><path fill="url(#notoCouchAndLamp0)" d="M95.78 28.2h3.98v50.42h-3.98z"/><path fill="#C87D5E" d="m112.27 117l-.77 5.95c-.02.51-.57 1.01-2.2 1.01c-1.45 0-1.8-.62-1.84-1.03l-.61-5.92h5.42z"/><path fill="#A65F3E" d="M107 118.53c.17.8 1.26 1.56 2.61 1.56s2.44-.69 2.44-1.55l.19-1.55c-.15 0-5.25.01-5.4.03l.16 1.51z"/><path fill="#C87D5E" d="m15.73 117l.77 5.95c.02.51.57 1.01 2.2 1.01c1.45 0 1.8-.62 1.84-1.03l.61-5.92h-5.42z"/><path fill="#A65F3E" d="M21 118.53c-.17.8-1.26 1.56-2.61 1.56c-1.35 0-2.44-.69-2.44-1.55l-.19-1.54c.15 0 5.25.01 5.4.03l-.16 1.5z"/><path fill="#0B52A0" d="m115.07 82.41l-.4 15.8l-9.27-6.89l1.83-11.73z"/><path fill="#48CDED" d="M113.04 82.31c1.04.54 1.9.48 2.52-.52c1.54-2.44 3.6-2.32 5.07-2.21c1.4.1 2.33.74 3.2 2.51c-.24-1.02-.48-2.74-3.59-3.38c-3.54-.74-12.78-.82-12.78-.82c-.18-.09-.23 2.22-.23 2.22l5.81 2.2z"/><path fill="#0B52A0" d="m13.05 82.41l.4 15.8l9.27-6.89l-1.83-11.73z"/><path fill="#48CDED" d="M15.08 82.31c-1.04.54-1.9.48-2.52-.52c-1.54-2.44-3.6-2.32-5.07-2.21c-1.4.1-2.33.74-3.2 2.51c.24-1.02.48-2.74 3.59-3.38c3.54-.74 12.78-.82 12.78-.82c.18-.09.23 2.22.23 2.22l-5.81 2.2z"/><path fill="#3DAAE0" d="M107.28 65.77c-.04-.28-.09-.56-.14-.82c-.37-1.87-1.73-3.29-3.42-3.55c-3.43-.53-10.4-1.43-18.7-1.43c-7.37 0-13.69.71-17.41 1.24c-2.04.29-3.56 2.25-3.56 4.56c0-2.32-1.52-4.27-3.56-4.56a126.07 126.07 0 0 0-17.41-1.24c-8.3 0-15.28.9-18.7 1.43c-1.69.26-3.03 1.68-3.42 3.55c-1.99 9.52 1.15 26.56 1.15 26.56h83.9c-.02 0 2.77-16.3 1.27-25.74z"/><path fill="#188AD6" d="M65.09 91.51c-.55 1.3-1.8 1.31-2.11 0c-.31-1.31 0-18.09 0-20.65c0-2.56 1.06-5.33 1.06-5.33s1.06 3.29 1.06 5.33s.54 19.35-.01 20.65z"/><path fill="#48CDED" d="M114.42 97.58c.16-.01-5.43-6.07-8.98-6.68c0 0-6.46-1.21-17.75-1.21s-23.66 1.82-23.66 1.82l-.03.46l-.03-.47s-12.38-1.82-23.66-1.82c-11.29 0-17.75 1.21-17.75 1.21c-3.55.61-9.14 6.67-8.98 6.68l45.18-.12l5.24 3.56l4.22-3.56l46.2.13z"/><path fill="#188AD6" d="M120.21 79.37c-3.29-.28-5.37 1.37-5.68 4.86c-.32 3.55-.26 9.23-.16 13.32c-.41-.5-.97-.84-1.61-.93c-3.89-.53-12.36-1.47-23.21-1.47s-19.37.61-23.21 1.47c-.88.2-1.63 1.18-2.03 2.26c-.1.28-.51.29-.61 0c-.4-1.08-1.15-2.06-2.03-2.27c-3.77-.86-12.36-1.47-23.21-1.47c-10.85 0-19.32.94-23.21 1.47c-.64.09-1.2.43-1.61.93c.1-4.09.15-9.76-.16-13.32c-.31-3.49-2.01-5.09-5.68-4.86c-2.13.13-3.91 1.76-3.79 4.16l.86 17.64c0 11.53 6.71 16.86 14.95 16.86h88.36c8.24 0 14.95-5.33 14.95-16.86l.86-17.64c.13-2.39-1.66-3.97-3.78-4.15z"/><path fill="#0B52A0" d="M112.67 108.75c-3.82.95-11.68.95-23.13.95c-11.44 0-19.39-.6-23.13-.95c-.84-.08-1.57-.91-2-1.9a.46.46 0 0 0-.85 0c-.43.99-1.15 1.82-2 1.9c-3.73.36-11.68.95-23.13.95c-11.44 0-19.64 0-23.13-.95c-.73-.2-1.38-.62-1.82-1.21c.62 2.66 2.9 4.68 5.72 4.84c7.47.44 82.08.44 89.56 0c2.81-.16 5.08-2.18 5.71-4.82c-.42.59-1.07 1.01-1.8 1.19z"/></svg>