<svg viewBox="0 0 128 128"><path fill="#ffd600" d="M111 8.3C111 6 105 4 97.7 4S84.6 6 84.6 8.3c0 2-3.4 18.4-4.3 23.3-.4 1.8.2 2.5 1 3 2.7 1.5 9 2.6 16.5 2.6 7.7 0 14.3-1.2 16.7-2.8q1.1-.7.6-3.6c-1-5.8-4.2-21.7-4.2-22.5"/><ellipse cx="97.8" cy="31.8" fill="#ffff8d" rx="14.9" ry="3.6"/><linearGradient id="a" x1="97.8" x2="97.8" y1="14.7" y2="74" gradientUnits="userSpaceOnUse"><stop offset="0" stop-color="#ffff8d"/><stop offset=".6" stop-color="#c87d5e"/><stop offset=".7" stop-color="#ba7151"/><stop offset=".8" stop-color="#a65f3e"/></linearGradient><path fill="url(#a)" d="M95.8 28.2h4v50.4h-4z"/><path fill="#c87d5e" d="m112.3 117-.8 6q.1.9-2.2 1c-1.4 0-1.8-.7-1.8-1l-.7-6z"/><path fill="#a65f3e" d="M107 118.5q.5 1.4 2.6 1.6c2.1.2 2.5-.7 2.5-1.6l.1-1.5h-5.4z"/><path fill="#c87d5e" d="m15.7 117 .8 6q-.1.9 2.2 1c1.5 0 1.8-.7 1.8-1l.6-6z"/><path fill="#a65f3e" d="M21 118.5q-.5 1.4-2.6 1.6c-2.1.2-2.4-.7-2.4-1.6l-.2-1.5h5.4z"/><path fill="#0b52a0" d="m115 82.4-.3 15.8-9.3-6.9 1.8-11.7z"/><path fill="#48cded" d="M113 82.3q1.6 1 2.6-.5c1.5-2.4 3.6-2.3 5-2.2q2-.1 3.2 2.5c-.2-1-.4-2.7-3.6-3.4-3.5-.7-12.7-.8-12.7-.8-.2-.1-.3 2.2-.3 2.2z"/><path fill="#0b52a0" d="m13 82.4.5 15.8 9.2-6.9L21 79.6z"/><path fill="#48cded" d="M15 82.3q-1.5 1-2.4-.5C11 79.4 9 79.5 7.5 79.6q-2-.1-3.2 2.5c.2-1 .5-2.7 3.6-3.4 3.5-.7 12.8-.8 12.8-.8.1-.1.2 2.2.2 2.2z"/><path fill="#3daae0" d="m107.3 65.8-.2-.9a4 4 0 0 0-3.4-3.5 126 126 0 0 0-36-.2c-2.1.3-3.7 2.3-3.7 4.6 0-2.3-1.5-4.3-3.5-4.6A126 126 0 0 0 43 60c-8.3 0-15.3.9-18.7 1.4Q21.7 62 21 65a93 93 0 0 0 1 26.5h84c-.1 0 2.7-16.3 1.2-25.7"/><path fill="#188ad6" d="M65 91.5c-.5 1.3-1.7 1.3-2 0s0-18 0-20.6 1-5.4 1-5.4 1.1 3.3 1.1 5.4.5 19.3 0 20.6"/><path fill="#48cded" d="M114.4 97.6c.2 0-5.4-6-9-6.7 0 0-6.4-1.2-17.7-1.2S64 91.5 64 91.5v.5-.5s-12.4-1.8-23.7-1.8-17.7 1.2-17.7 1.2c-3.6.6-9.2 6.7-9 6.7l45.2-.2L64 101l4.2-3.6z"/><path fill="#188ad6" d="M120.2 79.4q-5.1-.5-5.7 4.8c-.3 3.6-.2 9.3-.1 13.4q-.7-.8-1.6-1a177 177 0 0 0-46.5 0q-1.3.5-2 2.3c0 .3-.5.3-.6 0q-.6-1.7-2-2.3a178 178 0 0 0-46.4 0q-1 .1-1.7 1c.1-4.1.2-9.8-.1-13.4q-.3-5.2-5.7-4.8c-2.1 0-4 1.7-3.8 4.1l.9 17.7c0 11.5 6.7 16.8 15 16.8h88.3c8.2 0 15-5.3 15-16.8l.8-17.7c.1-2.4-1.7-4-3.8-4.1"/><path fill="#0b52a0" d="M112.7 108.8c-3.9.9-11.7.9-23.2.9s-19.3-.6-23-1c-1 0-1.7-.9-2-1.9a.5.5 0 0 0-1 0q-.5 1.7-2 2c-3.7.3-11.6.9-23 .9s-19.7 0-23.2-1q-1.1-.3-1.8-1.2a6 6 0 0 0 5.7 4.9c7.5.4 82 .4 89.6 0 2.8-.2 5-2.2 5.7-4.8q-.7.9-1.8 1.2"/></svg>