<svg viewBox="0 0 128 128"><path fill="#f19534" d="M94.5 21.8a7 7 0 0 0 4.1-6.6 7.3 7.3 0 0 0-14.5 0c0 3 1.7 5.5 4.2 6.7C85.4 37.5 81 49 64.6 51.5c0 0 4.4 22.2 25.1 22.2s22.8-22 22.8-22c-16.8 1-18.2-20.2-18-29.9"/><path fill="#f19534" d="M34.7 21.8a7 7 0 0 1-4-6.6 7.3 7.3 0 0 1 14.5 0c0 3-1.8 5.5-4.3 6.7 3 15.6 7.4 27.2 23.8 29.6 0 0-4.4 22.2-25.1 22.2s-22.9-22-22.9-22c16.8 1 18.3-20.2 18-29.9"/><path fill="#ffca28" d="M89.4 73.7h.3a22 22 0 0 0 13.2-4z"/><path fill="#ffca28" d="M119.2 16.9c-3.3-.5-6.5 2.7-7 7-.4 2.7.3 5.3 1.7 6.9l-2.4 10s-3.6 23.5-22.2 28c-14.8 3.8-20.2-23.3-21.5-31.7a8.6 8.6 0 1 0-7.5 0c-1 8.3-5.5 34.5-21.5 31.8-16.3-2.8-23.4-30.2-25-37.6a8 8 0 0 0 2.6-7.4c-.6-4.4-4-7.5-7.7-7s-6.1 4.4-5.5 8.7A8 8 0 0 0 8 32.2l12.7 79s11 8.8 43.3 8.8 43.4-8.7 43.4-8.7L120 32c2.1-1 3.7-3.5 4.1-6.5.6-4.3-1.6-8.2-5-8.6"/><ellipse cx="64.4" cy="88.3" fill="#26a69a" rx="9.7" ry="11.6"/><path fill="#69f0ae" d="M64.4 79.6c.4.4.8 1.2 0 2.7s-4.6 3.5-5.3 3.9q-1 .5-1.4 0c-1-.8-.6-2.7 0-3.9 1.5-2.5 4.6-5 6.7-2.7"/><path fill="#00796b" d="M63.7 92.6c-1 .6-4.7 2.2-3.5 4q1.2 1.8 3.5 1.7c2.3 0 2.6-.3 3.8-1 5.6-2.8 6-10.4 5-11-1.2-.6-2 1-2.5 1.6a20 20 0 0 1-6.3 4.7"/><path fill="#26a69a" d="M118 78.8c1.8-8.6-4-10.8-4-10.8s-3.8-.7-5.5 9 2 10.4 2 10.4 6.1 0 7.7-8.6"/><path fill="#69f0ae" d="M115.5 71c1.4 1.8-.2 4.5-2.8 6.3-.8.5-1.8.3-2-.2q-.5-1.9.3-3.9c1.7-3.6 3.8-3.2 4.5-2.2"/><path fill="#26a69a" d="M9.8 79C8.2 70.5 14 68.4 14 68.4s3.7-.7 5.5 9-2 10.4-2 10.4-6.2 0-7.7-8.6"/><path fill="#69f0ae" d="M15.8 71.2c1.3 1 .8 2.3-.2 3.2q-1.7 1.5-3 3.4-.3.4-.6.4-.7 0-1-.8a5 5 0 0 1 .3-3.9c1.8-3.3 4-2.7 4.5-2.3"/><path fill="#f44336" d="M100 87.2c-.7 3.9-3.9 6.6-7 6s-3.7-3.9-3-7.8 2.2-7 5.4-6.4 5.3 4.2 4.6 8.2m-69.6 0c.7 3.9 3.9 6.6 7 6s3.7-3.9 3-7.8-2.2-7-5.4-6.4-5.2 4.2-4.6 8.2"/><path fill="#ffa8a4" d="M35 84.5c-.7.9-2.4 2.5-3 1.3-1-1.8.3-4.4 1.6-5.2s2.5-.2 2.7.6c.2 1-.6 2.6-1.2 3.3M92 87c-1-.1-1.1-3.5 1.5-6.2 1.3-1.3 3.1.3 2.7 2.3-.5 2-2.4 4.2-4.2 4"/><path fill="#ffca28" d="M109.2 98.2c-6 3-19.8 11-45.1 11s-39.2-8-45.1-11c0 0-2.2 1.2-2.2 2.4v9.2q.1 1.9 1.7 3c4.7 2.7 19 9.2 45.6 9.2s40.8-6.5 45.5-9.2a4 4 0 0 0 1.7-3v-9.2c0-1.2-2.2-2.4-2.2-2.4"/><path fill="#fff59d" d="M39.6 110.8c2.8.6 3.7.8 3.5 2.4-.4 3-6.8 2.3-10.6 1.3-7.8-2-9.3-4.2-9.3-6.1q.1-2.5 3.4-1.2c2.5.8 6.4 2.3 13 3.6"/><path fill="none" stroke="#f19534" stroke-linecap="round" stroke-miterlimit="10" stroke-width="4" d="M109.2 100.2s-16.6 9.4-45.1 9.4-45.1-9.4-45.1-9.4"/><path fill="#ffca28" d="M27 49.6c5.3-3.8 8-10.6 8.4-21.6q0-1.4.8-1.3c.9-.1 1 .7 1 1.2-.2 11.7-1.7 19-7.6 23.2-.3.1-2.4 1.4-3.3.5-1-1 .3-1.9.7-2.1m4.8-34c-.1-1.9.3-5.1 5-6.6 1.4-.4 2.3.2 2.4.8.4 1.3-.7 1.8-1.2 2-3.7 1.2-3.9 3-4.6 4.1s-1.5.2-1.6-.4m46.4 31.7c4.8-4.3 8-9 10.1-20q.3-1.3 1-1.1c.9 0 .9.8.8 1.3-1.8 11.7-3.5 15-9.4 21.7-.7.7-2.3 1.4-3.2.6-.8-.7.1-1.8.7-2.3m7.1-31.6c-.2-1.8.2-5 5-6.5 1.4-.4 2.2.2 2.4.8.4 1.3-.8 1.8-1.3 2-3.6 1.2-3.8 3-4.6 4.1-.7 1.2-1.4.2-1.5-.4"/><path fill="#fff59d" d="M31.6 71.6c-11.6-5.2-15-19-16.9-25q-.3-1.3.7-1.7 1.3-.4 1.5 1c1.3 4.3 6.5 18.8 17 23 .8.2 2 1 1.4 2.2-.5.8-1.8 1.4-3.7.5m-19-47c-.5-1.1-.7-2.2-3.8-3.5q-1.2-.5-1-1.8c.2-1.3 1-1.4 2.1-1.2 3.8.6 4.6 4.4 4.8 5.8.1 1.3-1.4 1.9-2 .7m84.2 47c11.6-5.2 15-19 16.8-25q.5-1.3-.6-1.7c-1.1-.4-1.3.2-1.5 1-1.4 4.3-6.5 18.8-17 23-.9.2-2 1-1.4 2.2.4.8 1.8 1.4 3.7.5m18.9-47c.5-1.1.8-2.2 3.8-3.5q1.3-.5 1-1.8c-.2-1.3-1-1.4-2-1.2-3.8.6-4.7 4.5-4.8 5.8-.2 1.3 1.4 1.9 2 .7m-56.4 5c.6-1.3 1.7-3 5.2-3.7q1.9-.4 1.6-1.8c-.3-1.8-2.6-1.7-3.8-1.4-4 1-5 4.6-5.2 6-.1 1.4 1.6 2.1 2.2.9"/></svg>