<svg xmlns="http://www.w3.org/2000/svg" width="1em" height="1em" viewBox="0 0 128 128"><path fill="#e1f5fe" d="m4.01 47.94 17.48-26.51L35.03 36.9z"/><path fill="#81d4fa" d="M44.11 68.26 4.01 47.94 35.03 36.9z"/><path fill="#64b5f6" d="M63.94 43.06 35.03 36.9l9.08 31.36z"/><path fill="#0288d1" d="m123.87 47.94-17.48-26.51L92.85 36.9z"/><path fill="#81d4fa" d="m83.77 68.26 40.1-20.32L92.85 36.9z"/><path fill="#e1f5fe" d="m63.94 43.06 28.91-6.16-9.08 31.36z"/><path fill="#b2ebf2" d="m83.77 68.26-19.83-25.2-19.83 25.2z"/><path fill="#b3e5fc" d="M43 10.06h41.88l21.51 11.37L92.85 36.9l-28.91 6.16-28.91-6.16-13.54-15.47z"/><path fill="#1e88e5" d="M63.94 117.27 4.01 47.94l40.1 20.32z"/><path fill="#b3e5fc" d="m63.94 117.27 59.93-69.33-40.1 20.32z"/><path fill="#e1f5fe" d="m83.77 68.26-19.83 49.01-19.83-49.01z"/></svg>