<svg viewBox="0 0 128 128"><path fill="#e1f5fe" d="m4 48 17.5-26.6L35 37z"/><path fill="#81d4fa" d="m44.1 68.3-40-20.4 31-11z"/><path fill="#64b5f6" d="m64 43-29-6 9.1 31.4z"/><path fill="#0288d1" d="m123.9 48-17.5-26.6L92.8 37z"/><path fill="#81d4fa" d="m83.8 68.3 40-20.4-31-11z"/><path fill="#e1f5fe" d="m64 43 28.8-6-9.1 31.4z"/><path fill="#b2ebf2" d="M83.8 68.3 63.9 43 44.1 68.3z"/><path fill="#b3e5fc" d="M43 10h41.9l21.5 11.4L92.8 37 64 43.1l-29-6.2-13.5-15.5z"/><path fill="#1e88e5" d="M64 117.3 4 47.9l40.1 20.4z"/><path fill="#b3e5fc" d="m64 117.3 59.9-69.4-40.1 20.4z"/><path fill="#e1f5fe" d="m83.8 68.3-19.9 49-19.8-49z"/></svg>