<svg viewBox="0 0 128 128"><path fill="#cecece" d="M33 16.6s-11.3 4.7-14 6.7a30 30 0 0 0-9.4 9.4c-2 3.9-2.9 6.8-3 11.8s5.1 46.2 5.1 46.2 28.8 27 33.3 29 11.2 4.6 19.2 4.5 13.3-2.7 16.4-4.1c3-1.5 39.4-55.3 39.7-59.6s.6-12.8.4-16.3c-.2-3.6-1-6.5-2.8-10.2s-5-7.2-7-8.8a206 206 0 0 0-33-14C57 6.7 33.2 16.7 33.2 16.7"/><path fill="#eaeaea" d="M15.4 29.1c.2 4.9 4.1 7.2 12.1 11.2s28.5 16 37 16.4 39.8-18.8 44.3-21.7c4.5-3 5.2-7.6 1-10.7-5.8-4.4-32-16.5-37.5-18.5a25 25 0 0 0-15.7-.5c-4.5 1.8-33.2 15-36 16.8s-5.2 4.3-5.2 7"/><path fill="#fff" d="M34.3 19.1c-1.7-2-14.3 4.6-14.3 10.2 0 5.4 11.4 12.3 14.3 9.7 2-1.8-5.3-7.6-4.3-10.9s5.9-7.3 4.3-9m12.4 29c-2 2.8 10.7 9 18.3 9 7.3 0 19-7.1 17.6-9.1-2.5-3.4-8.5-.2-17.8 0-5 0-16-2.9-18 0m45.6-9c2.5 1.7 16.5-5.5 16.8-9.7s-8.7-9.4-11.3-7.6.8 3.1 0 6.3-8.4 9.1-5.5 11"/><path fill="#dfdfdf" d="M6.5 45c-.2 5.3.1 36.8.2 41.1 0 4.7 1.2 10 4.4 12.7s28.6 18.8 34.3 21.2c8 3.5 15.8-.3 16.3-9 .6-8.5.3-34.9.3-38.5s-1.8-8.8-5.8-11.5-34.9-20.5-38-22.3c-4.5-2.6-11.5-1.3-11.7 6.4"/><path fill="#b8b8b8" d="M70.7 61.3Q65.8 65.5 66 72c.2 6.5-.2 36-.1 39.3s4.7 11.9 11.8 9.8c7.5-2.2 16.9-8.9 23.6-13s12-7.4 14.3-9.3c3-2.4 5-8.4 5.1-13.4s0-35.8-.1-38.2c-.2-5.7-2.5-10.4-8.7-9s-36.4 19.2-41.2 23"/><ellipse cx="64.3" cy="29.3" fill="#fe4e27" rx="13.8" ry="9.9"/><path fill="#2f2f2f" d="M26.5 55.6c1.8 5 1.2 10.2-2.6 11.5s-8.5-2-10.2-7c-1.8-5-1.4-10.1 2.6-11.5 3.8-1.3 8.4 2 10.2 7m25.3 44c2.2 4.9 2 10.7-1.7 12.3s-8.8-1.8-11-6.6c-2-4.8-1.8-10.2 2-11.8s8.6 1.2 10.7 6.1M102 67c3.2 1.8 8.5-.5 11.2-5.2s2.2-10.1-1-12-8.5.4-11.2 5.2-2.3 10.1 1 12M89 88.7c3.4 2 8.8-.4 11.6-5.2s2.4-10.3-1-12.2-8.7.2-11.6 5c-2.8 4.8-2.3 10.5 1 12.4m-12.8 22.2c3.2 2 8.6-.2 11.4-4.8s2.6-10-.7-12-8.1-.6-11.4 4.6c-3 4.6-2.5 10.3.7 12.2"/></svg>