<svg xmlns="http://www.w3.org/2000/svg" width="1em" height="1em" viewBox="0 0 128 128"><path fill="#b9e4ea" d="M54.79 7.76C23.76 12.84 2.67 42.18 7.76 73.21s34.43 52.11 65.46 47.03 52.11-34.43 47.03-65.46C115.16 23.76 85.82 2.67 54.79 7.76m11.51 70.3c-7.78 1.27-15.09-3.98-16.36-11.76s3.98-15.09 11.76-16.36 15.09 3.98 16.36 11.76c1.37 7.76-3.88 15.07-11.76 16.36"/><linearGradient id="a" x1="34.657" x2="31.029" y1="44.491" y2="50.352" gradientUnits="userSpaceOnUse"><stop offset="0" stop-color="#fff9c4" stop-opacity=".6"/><stop offset=".95" stop-color="#fff9c4" stop-opacity="0"/></linearGradient><path fill="url(#a)" d="m10.77 43.61 39.28 17.38s.37-1.46 1.05-3.05 1.77-2.87 1.77-2.87L17.9 30.45s-1.97 2.69-4.04 6.43c-2.06 3.75-3.09 6.73-3.09 6.73"/><linearGradient id="b" x1="38.141" x2="48.932" y1="40.904" y2="31.695" gradientUnits="userSpaceOnUse"><stop offset="0" stop-color="#fff9c4" stop-opacity=".6"/><stop offset=".989" stop-color="#fff9c4" stop-opacity=".007"/><stop offset="1" stop-color="#fff9c4" stop-opacity="0"/></linearGradient><path fill="url(#b)" d="M62.53 49.83 44.8 10.33s-7.16 2.24-14.78 7.91C22.61 23.76 17.9 30.45 17.9 30.45l34.97 24.62s1.33-1.82 4.05-3.45 5.61-1.79 5.61-1.79"/><linearGradient id="c" x1="34.103" x2="33.579" y1="48.856" y2="56.277" gradientTransform="rotate(6.603 -13.46 14.437)" gradientUnits="userSpaceOnUse"><stop offset="0" stop-color="#ffc2c8" stop-opacity=".8"/><stop offset=".93" stop-color="#ffcdd2" stop-opacity="0"/></linearGradient><path fill="url(#c)" d="m7.35 57.71 42.4 7.51s-.03-1.23.07-2.69c.11-1.46.46-2.42.46-2.42L10.07 45.57s-.92 2.29-1.71 5.83-1.01 6.31-1.01 6.31"/><linearGradient id="d" x1="34.478" x2="41.061" y1="45.128" y2="32.508" gradientTransform="rotate(6.603 -13.46 14.437)" gradientUnits="userSpaceOnUse"><stop offset="0" stop-color="#ffc2c8" stop-opacity=".8"/><stop offset=".93" stop-color="#ffcdd2" stop-opacity="0"/></linearGradient><path fill="url(#d)" d="M51.94 56.39c.94-1.59 2.28-2.77 2.28-2.77L21.99 25.51s-3.63 3.88-6.87 9.32c-3.71 6.23-5.05 10.74-5.05 10.74l40.21 14.54s.52-1.78 1.66-3.72"/><linearGradient id="e" x1="45.492" x2="39.352" y1="33.598" y2="38.202" gradientUnits="userSpaceOnUse"><stop offset="0" stop-color="#80deea" stop-opacity=".5"/><stop offset=".926" stop-color="#80deea" stop-opacity="0"/></linearGradient><path fill="url(#e)" d="M28.4 19.46c-3.89 3.05-6.94 6.57-6.94 6.57L52.8 55.09s1.12-1.3 2.6-2.45 3.05-1.77 3.05-1.77L36.92 13.84s-4.64 2.57-8.52 5.62"/><linearGradient id="f" x1="53.405" x2="63.451" y1="31.356" y2="28.659" gradientUnits="userSpaceOnUse"><stop offset="0" stop-color="#80deea" stop-opacity=".5"/><stop offset=".947" stop-color="#80deea" stop-opacity="0"/></linearGradient><path fill="url(#f)" d="M69.07 50.68 60.28 7.13s-5.7.33-11.57 1.96c-6.16 1.72-11.8 4.75-11.8 4.75l21.53 37.01s2.48-1.09 5.38-1.11 5.25.94 5.25.94"/><linearGradient id="g" x1="96.534" x2="99.371" y1="49.734" y2="60.432" gradientUnits="userSpaceOnUse"><stop offset="0" stop-color="#fff" stop-opacity=".5"/><stop offset=".907" stop-color="#fff" stop-opacity="0"/></linearGradient><path fill="url(#g)" d="M114.72 38.01 75.94 55.93c3.67 5.3 2.34 10.38 2.34 10.38l42.58-6.2c-.48-9.19-3.76-17.46-6.14-22.1"/><linearGradient id="h" x1="93.391" x2="91.112" y1="45.481" y2="41.481" gradientUnits="userSpaceOnUse"><stop offset="0" stop-color="#fff" stop-opacity=".5"/><stop offset=".907" stop-color="#fff" stop-opacity="0"/></linearGradient><path fill="url(#h)" d="M103.42 22.86 71.37 51.81c1.72 1.04 3.41 2.44 4.57 4.12l38.78-17.92c-1.92-3.67-5.78-9.97-11.3-15.15"/><linearGradient id="i" x1="36.143" x2="37.352" y1="84.388" y2="86.341" gradientUnits="userSpaceOnUse"><stop offset="0" stop-color="#fff" stop-opacity=".5"/><stop offset=".907" stop-color="#fff" stop-opacity="0"/></linearGradient><path fill="url(#i)" d="M52.95 72.99 15.85 94.5a57.1 57.1 0 0 0 11.8 13.35L58.1 76.98c-1.99-.91-3.75-2.28-5.15-3.99"/><linearGradient id="j" x1="32.583" x2="28.862" y1="80.69" y2="69.621" gradientUnits="userSpaceOnUse"><stop offset="0" stop-color="#fff" stop-opacity=".5"/><stop offset=".907" stop-color="#fff" stop-opacity="0"/></linearGradient><path fill="url(#j)" d="M49.94 66.3a13.7 13.7 0 0 1-.15-3.18L7.62 72.21c.05.33.08.67.14 1 1.28 7.81 4.1 15 8.1 21.29l37.1-21.51c-1.53-1.86-2.6-4.13-3.02-6.69"/><linearGradient id="k" x1="-19.454" x2="-23.082" y1="-6.239" y2="-.379" gradientTransform="rotate(179.043 36.664 38.843)" gradientUnits="userSpaceOnUse"><stop offset="0" stop-color="#fff9c4" stop-opacity=".6"/><stop offset=".95" stop-color="#fff9c4" stop-opacity="0"/></linearGradient><path fill="url(#k)" d="M117.16 83.31 78.02 67.03s-.34 1.46-1 3.07-1.73 2.9-1.73 2.9l34.96 23.58s1.93-2.72 3.93-6.5 2.98-6.77 2.98-6.77"/><linearGradient id="l" x1="-15.918" x2="-5.128" y1="-9.905" y2="-19.114" gradientTransform="rotate(179.043 36.664 38.843)" gradientUnits="userSpaceOnUse"><stop offset="0" stop-color="#fff9c4" stop-opacity=".6"/><stop offset=".989" stop-color="#fff9c4" stop-opacity=".007"/><stop offset="1" stop-color="#fff9c4" stop-opacity="0"/></linearGradient><path fill="url(#l)" d="m65.72 78.4 17.96 38.75s7.12-2.36 14.65-8.16c7.33-5.65 11.93-12.42 11.93-12.42L75.3 72.99s-1.3 1.84-3.99 3.51c-2.7 1.68-5.59 1.9-5.59 1.9"/><linearGradient id="m" x1="-25.559" x2="-26.082" y1="4.782" y2="12.204" gradientTransform="rotate(-174.353 38.042 35.936)" gradientUnits="userSpaceOnUse"><stop offset="0" stop-color="#ffc2c8" stop-opacity=".8"/><stop offset=".93" stop-color="#ffcdd2" stop-opacity="0"/></linearGradient><path fill="url(#m)" d="m120.35 69.15-41.88-6.44s.05 1.23-.03 2.69-.42 2.43-.42 2.43l39.81 13.51s.88-2.3 1.61-5.86c.74-3.56.91-6.33.91-6.33"/><linearGradient id="n" x1="-25.177" x2="-18.594" y1=".903" y2="-11.716" gradientTransform="rotate(-174.353 38.042 35.936)" gradientUnits="userSpaceOnUse"><stop offset="0" stop-color="#ffc2c8" stop-opacity=".8"/><stop offset=".93" stop-color="#ffcdd2" stop-opacity="0"/></linearGradient><path fill="url(#n)" d="M76.46 71.57c-.91 1.61-2.23 2.81-2.23 2.81l32.03 27.21s3.56-3.94 6.71-9.43c3.61-6.29 4.87-10.82 4.87-10.82L78.05 67.83s-.48 1.78-1.59 3.74"/><linearGradient id="o" x1="-8.453" x2="-14.592" y1="-17.091" y2="-12.486" gradientTransform="rotate(179.043 36.664 38.843)" gradientUnits="userSpaceOnUse"><stop offset="0" stop-color="#80deea" stop-opacity=".5"/><stop offset=".926" stop-color="#80deea" stop-opacity="0"/></linearGradient><path fill="url(#o)" d="M99.94 107.75c3.84-3.11 6.83-6.69 6.83-6.69l-31.6-28.07s-.82 1.19-2.28 2.37c-1.46 1.17-3.52 1.85-3.52 1.85l22.15 36.29s4.59-2.64 8.42-5.75"/><linearGradient id="p" x1="-.5" x2="9.546" y1="-19.385" y2="-22.083" gradientTransform="rotate(179.043 36.664 38.843)" gradientUnits="userSpaceOnUse"><stop offset="0" stop-color="#80deea" stop-opacity=".5"/><stop offset=".947" stop-color="#80deea" stop-opacity="0"/></linearGradient><path fill="url(#p)" d="m58.75 77.57 9.51 43.04s5.7-.42 11.53-2.16c6.13-1.82 11.72-4.95 11.72-4.95L69.37 77.21s-2.46 1.13-5.36 1.2-5.26-.84-5.26-.84"/><path fill="#6c9eb4" d="M64 41.2c-12.77 0-23.04 10.16-23.04 22.8S51.23 86.8 64 86.8 87.04 76.63 87.04 64 76.77 41.2 64 41.2m0 36.95c-7.97 0-14.4-6.36-14.4-14.25S56.03 49.64 64 49.65s14.4 6.36 14.4 14.25c.09 7.89-6.34 14.25-14.4 14.25" opacity=".4"/><path fill="#82aec0" d="M64 9.86c29.83 0 54.14 24.32 54.14 54.14S93.83 118.14 64 118.14 9.86 93.83 9.86 64 34.17 9.86 64 9.86m0 71.24c9.4 0 17.1-7.69 17.1-17.1S73.4 46.9 64 46.9 46.9 54.6 46.9 64 54.6 81.1 64 81.1m0-74.09C32.56 7.01 7.01 32.56 7.01 64S32.56 120.99 64 120.99 120.99 95.44 120.99 64 95.44 7.01 64 7.01m0 71.24c-7.88 0-14.25-6.36-14.25-14.25S56.12 49.75 64 49.75 78.25 56.12 78.25 64c.09 7.88-6.27 14.25-14.25 14.25"/></svg>