<svg viewBox="0 0 128 128"><path fill="#b9e4ea" d="M54.8 7.8a57 57 0 1 0 18.5 112.5A57 57 0 0 0 54.8 7.8M66.3 78a14.2 14.2 0 1 1 11.8-16.4c1.3 7.8-4 15-11.8 16.4"/><linearGradient id="a" x1="34.7" x2="31" y1="44.5" y2="50.4" gradientUnits="userSpaceOnUse"><stop offset="0" stop-color="#fff9c4" stop-opacity=".6"/><stop offset=".9" stop-color="#fff9c4" stop-opacity="0"/></linearGradient><path fill="url(#a)" d="M10.8 43.6 50 61s.3-1.5 1-3 1.8-3 1.8-3l-35-24.5s-2 2.6-4 6.4a42 42 0 0 0-3.1 6.7"/><linearGradient id="b" x1="38.1" x2="48.9" y1="40.9" y2="31.7" gradientUnits="userSpaceOnUse"><stop offset="0" stop-color="#fff9c4" stop-opacity=".6"/><stop offset="1" stop-color="#fff9c4" stop-opacity="0"/><stop offset="1" stop-color="#fff9c4" stop-opacity="0"/></linearGradient><path fill="url(#b)" d="M62.5 49.8 44.8 10.3s-7.2 2.3-14.8 8c-7.4 5.4-12 12-12 12L53 55s1.3-1.9 4-3.5 5.6-1.8 5.6-1.8"/><linearGradient id="c" x1="34.1" x2="33.6" y1="48.9" y2="56.3" gradientTransform="rotate(6.603 -13.46 14.437)" gradientUnits="userSpaceOnUse"><stop offset="0" stop-color="#ffc2c8" stop-opacity=".8"/><stop offset=".9" stop-color="#ffcdd2" stop-opacity="0"/></linearGradient><path fill="url(#c)" d="m7.4 57.7 42.3 7.5.1-2.7q.3-2.2.5-2.4L10 45.6s-1 2.3-1.7 5.8-1 6.3-1 6.3"/><linearGradient id="d" x1="34.5" x2="41.1" y1="45.1" y2="32.5" gradientTransform="rotate(6.603 -13.46 14.437)" gradientUnits="userSpaceOnUse"><stop offset="0" stop-color="#ffc2c8" stop-opacity=".8"/><stop offset=".9" stop-color="#ffcdd2" stop-opacity="0"/></linearGradient><path fill="url(#d)" d="M52 56.4a13 13 0 0 1 2.2-2.8L22 25.6s-3.6 3.8-6.9 9.2c-3.7 6.3-5 10.8-5 10.8L50.3 60s.5-1.8 1.6-3.7"/><linearGradient id="e" x1="45.5" x2="39.4" y1="33.6" y2="38.2" gradientUnits="userSpaceOnUse"><stop offset="0" stop-color="#80deea" stop-opacity=".5"/><stop offset=".9" stop-color="#80deea" stop-opacity="0"/></linearGradient><path fill="url(#e)" d="M28.4 19.5c-3.9 3-7 6.5-7 6.5l31.4 29s1.1-1.2 2.6-2.4 3-1.7 3-1.7L37 13.9s-4.6 2.5-8.5 5.6"/><linearGradient id="f" x1="53.4" x2="63.5" y1="31.4" y2="28.7" gradientUnits="userSpaceOnUse"><stop offset="0" stop-color="#80deea" stop-opacity=".5"/><stop offset=".9" stop-color="#80deea" stop-opacity="0"/></linearGradient><path fill="url(#f)" d="M69 50.7 60.4 7s-5.7.4-11.6 2C42.5 10.8 37 13.8 37 13.8l21.5 37s2.5-1 5.4-1 5.3.9 5.3.9"/><linearGradient id="g" x1="96.5" x2="99.4" y1="49.7" y2="60.4" gradientUnits="userSpaceOnUse"><stop offset="0" stop-color="#fff" stop-opacity=".5"/><stop offset=".9" stop-color="#fff" stop-opacity="0"/></linearGradient><path fill="url(#g)" d="M114.7 38 76 56c3.7 5.2 2.4 10.3 2.4 10.3l42.6-6.2a57 57 0 0 0-6.2-22"/><linearGradient id="h" x1="93.4" x2="91.1" y1="45.5" y2="41.5" gradientUnits="userSpaceOnUse"><stop offset="0" stop-color="#fff" stop-opacity=".5"/><stop offset=".9" stop-color="#fff" stop-opacity="0"/></linearGradient><path fill="url(#h)" d="m103.4 22.9-32 29a15 15 0 0 1 4.5 4L114.7 38c-1.9-3.7-5.8-10-11.3-15.1"/><linearGradient id="i" x1="36.1" x2="37.4" y1="84.4" y2="86.3" gradientUnits="userSpaceOnUse"><stop offset="0" stop-color="#fff" stop-opacity=".5"/><stop offset=".9" stop-color="#fff" stop-opacity="0"/></linearGradient><path fill="url(#i)" d="M53 73 15.9 94.5a57 57 0 0 0 11.8 13.4l30.4-31q-3-1.2-5.1-4"/><linearGradient id="j" x1="32.6" x2="28.9" y1="80.7" y2="69.6" gradientUnits="userSpaceOnUse"><stop offset="0" stop-color="#fff" stop-opacity=".5"/><stop offset=".9" stop-color="#fff" stop-opacity="0"/></linearGradient><path fill="url(#j)" d="m50 66.3-.2-3.2-42.2 9.1.2 1q1.9 11.8 8 21.3L53 73a14 14 0 0 1-3-6.7"/><linearGradient id="k" x1="-19.5" x2="-23.1" y1="-6.2" y2="-.4" gradientTransform="rotate(179.043 36.664 38.843)" gradientUnits="userSpaceOnUse"><stop offset="0" stop-color="#fff9c4" stop-opacity=".6"/><stop offset=".9" stop-color="#fff9c4" stop-opacity="0"/></linearGradient><path fill="url(#k)" d="M117.2 83.3 78 67s-.3 1.5-1 3.1-1.7 2.9-1.7 2.9l35 23.6s1.9-2.7 3.9-6.5 3-6.8 3-6.8"/><linearGradient id="l" x1="-15.9" x2="-5.1" y1="-9.9" y2="-19.1" gradientTransform="rotate(179.043 36.664 38.843)" gradientUnits="userSpaceOnUse"><stop offset="0" stop-color="#fff9c4" stop-opacity=".6"/><stop offset="1" stop-color="#fff9c4" stop-opacity="0"/><stop offset="1" stop-color="#fff9c4" stop-opacity="0"/></linearGradient><path fill="url(#l)" d="m65.7 78.4 18 38.8s7.1-2.4 14.6-8.2 12-12.4 12-12.4L75.3 73s-1.3 1.8-4 3.5-5.6 1.9-5.6 1.9"/><linearGradient id="m" x1="-25.6" x2="-26.1" y1="4.8" y2="12.2" gradientTransform="rotate(-174.353 38.042 35.936)" gradientUnits="userSpaceOnUse"><stop offset="0" stop-color="#ffc2c8" stop-opacity=".8"/><stop offset=".9" stop-color="#ffcdd2" stop-opacity="0"/></linearGradient><path fill="url(#m)" d="m120.4 69.2-42-6.5v2.7c0 1.5-.4 2.4-.4 2.4l39.8 13.5s1-2.3 1.6-5.8c.8-3.6 1-6.3 1-6.3"/><linearGradient id="n" x1="-25.2" x2="-18.6" y1=".9" y2="-11.7" gradientTransform="rotate(-174.353 38.042 35.936)" gradientUnits="userSpaceOnUse"><stop offset="0" stop-color="#ffc2c8" stop-opacity=".8"/><stop offset=".9" stop-color="#ffcdd2" stop-opacity="0"/></linearGradient><path fill="url(#n)" d="M76.5 71.6c-1 1.6-2.3 2.8-2.3 2.8l32 27.2s3.6-4 6.8-9.4c3.6-6.3 4.8-10.9 4.8-10.9L78.1 67.8s-.5 1.8-1.6 3.8"/><linearGradient id="o" x1="-8.5" x2="-14.6" y1="-17.1" y2="-12.5" gradientTransform="rotate(179.043 36.664 38.843)" gradientUnits="userSpaceOnUse"><stop offset="0" stop-color="#80deea" stop-opacity=".5"/><stop offset=".9" stop-color="#80deea" stop-opacity="0"/></linearGradient><path fill="url(#o)" d="M100 107.8c3.8-3.2 6.8-6.7 6.8-6.7L75.2 73s-.9 1.2-2.3 2.4a13 13 0 0 1-3.5 1.8l22.1 36.3s4.6-2.6 8.4-5.7"/><linearGradient id="p" x1="-.5" x2="9.5" y1="-19.4" y2="-22.1" gradientTransform="rotate(179.043 36.664 38.843)" gradientUnits="userSpaceOnUse"><stop offset="0" stop-color="#80deea" stop-opacity=".5"/><stop offset=".9" stop-color="#80deea" stop-opacity="0"/></linearGradient><path fill="url(#p)" d="m58.8 77.6 9.5 43s5.7-.4 11.5-2.2c6.1-1.8 11.7-4.9 11.7-4.9L69.4 77.2s-2.5 1.1-5.4 1.2-5.2-.8-5.2-.8"/><path fill="#6c9eb4" d="M64 41.2a22.8 22.8 0 1 0 0 45.6 22.8 22.8 0 1 0 0-45.6m0 37a14.3 14.3 0 1 1 0-28.5 14.2 14.2 0 1 1 0 28.5" opacity=".4"/><path fill="#82aec0" d="M64 9.9A54.2 54.2 0 0 1 64 118a54.2 54.2 0 0 1 0-108m0 71a17 17 0 1 0 0-34.3 17 17 0 0 0 0 34.4m0-74a57 57 0 1 0 0 114A57 57 0 0 0 64 7m0 71.1A14.2 14.2 0 1 1 78.3 64c0 7.9-6.3 14.3-14.3 14.3"/></svg>