<svg viewBox="0 0 128 128"><path fill="#9e740b" d="M107.8 15.2C93.3 3.7 71.8 8.9 61 18.4c-12 10.5-12.4 27.2-6.1 40.8L11.3 102a49 49 0 0 0-3.5 16.7l6 4s10 3 14.3-.3 8.1-9.6 7.7-12.4q-.5-2.5 1.1-4 2.1-1.9 5.4-.8 2.6.7 4.6-1.1l.4-.4a5 5 0 0 0 1.5-5c-.5-2.4.4-4.4 1.7-6.1 1.2-1.5 3.4-2.2 5.3-2.2 3.5 0 5.7-.8 8.2-3.2l6.3-6.2c14.4 6.4 32 3.5 43.4-8.7 14.7-15.6 11-43.8-6-57.1m-8.6 33.3c-4 4-10.4 4-14.4 0s-4-10.3 0-14.2 10.4-4 14.4 0 4 10.3 0 14.2"/><path fill="#ffca28" d="M107.8 15.2a38.1 38.1 0 0 0-62 42l-38 37.9a9 9 0 0 0-2.6 6.7l.4 11.8c2.2 1.2 2.2 5 2.2 5l10 .8q4 0 6.7-2.7l3.1-3c2-2 3.1-4.8 2.6-7.5q-.5-2.7 1.1-4.4 2-1.8 5.3-.9 2.7.9 4.8-1l.4-.4a5 5 0 0 0 1.6-5.1q-.6-3.7 1.7-6.3c1.1-1.6 3.4-2.3 5.3-2.3a10 10 0 0 0 8.2-3.3l6-6a38.1 38.1 0 0 0 43.2-61.3M94.2 43.4a10.3 10.3 0 1 1-14.6-14.6 10.3 10.3 0 0 1 14.6 14.6"/><path fill="#dba010" d="M5.6 113.6s1.2.8 2.2 5l47.5-48.2c1.6-1.7-5.4-.8-7.5 1.2z"/><path fill="#fff59d" d="M60.4 20c-3.9 2-8.3 7.7-9.5 16-1 7.4-.6 12.5 1.9 16.9 2.8 4.9 6.7 2.3 5.1-2.5a22 22 0 0 1-1.4-7.7q-.1-4 .9-7.7c1.8-6.2 6.1-10.3 7.4-12.3 1.6-2.6-1-4.6-4.4-2.8M33.1 79.7c-2.9 2.4 0-5 2.2-7.6C38.2 68.7 45 61.6 46.2 61c1.6-.9 1.5 3.7.9 4.6a207 207 0 0 1-14 14.1"/></svg>