<svg viewBox="0 0 128 128"><ellipse cx="64" cy="116.9" fill="#424242" rx="12.1" ry="7.1"/><path fill="#ffd600" d="M64 4C43 4 25.8 19.7 25.8 39c0 5 1.5 10.4 3.8 15.2 3.1 6.6 6.5 11.6 7.5 13.4 2.8 5 2.4 10.4 3.2 13.7 1.4 6.3 5.8 8.5 23.7 8.5s21.8-2.1 23.4-7.9c1.1-3.9 0-8.1 2.8-13.2 1-1.8 5-7.8 8.2-14.5a37 37 0 0 0 3.8-15.2C102.2 19.7 85 4 64 4"/><ellipse cx="64" cy="86.1" fill="#b26500" rx="21.9" ry="4.5"/><ellipse cx="64" cy="86.1" fill="#b26500" rx="21.9" ry="4.5"/><ellipse cx="64" cy="86.1" fill="#ffa000" rx="16" ry="2.1"/><g fill="none" stroke-miterlimit="10" stroke-width="2"><path stroke="#b26500" d="M53.3 56.8c-.6 1.5-2.2 4.7-1.4 6.2 2 3.3 6.6 4.5 6.6 7.6 0 4.7-3.4 20-3.4 20m19-34.4s2.2 4.8 1.2 7c-.7 1.6-5 4.1-5.5 4.6-2.6 2 .8 22.8.8 22.8"/><path stroke="#fff" d="M53.3 56.8c3.4-6.8 5.2-22.3.8-21.6-7.3 1.4 1.7 26.9 6.2 24s10-24 3.2-24S64 62 68.6 59c3.7-2.3 12.6-23.7 5.3-23.7-6.3 0 .1 21 .1 21"/></g><path fill="#82aec0" d="M85.9 87S80 89.9 64 89.9s-21.9-2.7-21.9-2.7-.4 5.1.8 7.4q2.4 4 2.6 3.8l.6 2.9-.3.7q-.4 1.6.6 2.8l.6.6.5 2.7-.2.6a3 3 0 0 0 .7 3l.4.4.4 2.2s2.4 5.1 15.2 5.1 15.2-5 15.2-5v-.2l.3-.3q.8-.8.4-2l-.1-.3.6-3 1-1.2q.9-1 .4-2l-.5-1 .6-3 .4-.3q.8-1.2.3-2.3-.2-1 .4-1.6 1-1 2-2.6c1.3-2.3.9-7.4.9-7.4"/><path fill="#2f7889" d="m45.5 98.3.5 2.9c5.8 0 13.6.2 28.5-2.1 2.7-.6 6-1.9 2.4-1.4 0 0-13.7 1.3-31.4.6m2 9.8c6.4-.1 19.6-.8 33.7-3.8l.6-3a173 173 0 0 1-35 4zm32.8.4c-13 2.8-25.3 3.6-32 3.7l.5 2s.2 6.4 15.1 6.4 15.2-6.3 15.2-6.3-6.4 1.8-14.2.9a.6.6 0 0 1 0-1.3 253 253 0 0 0 14.8-2.4z"/><path fill="none" stroke="#82aec0" stroke-linecap="round" stroke-miterlimit="10" stroke-width="4" d="M42.2 87s6.4 2.8 21.7 2.8 22-2.7 22-2.7"/><path fill="#ffff8d" d="M49.9 10.3c3.9-1 8-.5 10.8 3q1.3 1.3 1.5 3.3c.3 2.4-1.2 4.6-3 6.3-5 4.7-12 7-15.3 13.6q-1 2.4-2.5 4.4c-1.5 2-3.1 2-4.6 1.2a5 5 0 0 1-1.8-2c-2.9-5-2.7-11.5-.2-16.7a25 25 0 0 1 15-13"/><path fill="#ffd600" d="M46.5 92c-1-.5-.6-1.8.4-1.7a209 209 0 0 0 34.2-.4c1-.1 1.4 1.2.5 1.6-3 1.4-8.6 3-18 3S49.1 93.2 46.4 92"/><path fill="#94d1e0" d="M52 102q-1.1.4-1.8 1.2l-.1.8q.1.5.8.8 1.1.4 2.2.4 2.4 0 4.8-.6.7 0 1.3-.4.8-.5.9-1 0-1.1-.9-1.6c-1.9-1-5.3-.3-7.3.4m1.5 6.6q-1 .4-1.7 1.2l-.1.8q.1.5.8.8 1.1.4 2.2.4 2.4 0 4.8-.6.7 0 1.3-.4.8-.5.9-1 0-1.1-1-1.6c-1.8-1-5.3-.3-7.2.4"/><path fill="#ffff8d" d="M50 84.2q1.5.1 2.6-.5 1.5-1 1-2.3-.3-.7-.8-1.2L50.5 78 48 75.6c-1.3-1.2-3.2-2.2-5-1.4q-2.4 1.2-1.3 3.6c1.5 3.2 5 6 8.4 6.4"/></svg>