<svg viewBox="0 0 128 128"><path fill="#c62828" d="M40 80.5V34.2c0-17 6-29.3 13-30 6-.5 11.5 1.5 18 5.9 9.4 6.2 17 16 17 26v44.4S81 82 64 82s-24-1.5-24-1.5"/><path fill="#f44336" d="M54.2 25.2c8 13 20 16 27 13 4.9-2.1 5.5-5.8 4-10-6-16-24-26-32-24-5 1.3-5.7 10.1 1 21"/><path fill="#ff8383" d="M68.3 36.8c.8.6 0 1.1-.8.8-3.3-1.2-8.8-3-14.5-9.7a21 21 0 0 1-5-14.7c.2-1.7.9-4.5 2.1-6.4q.9-1 .7.8c-.7 4.9.8 9.3 2.1 12.2a40 40 0 0 0 15.4 17"/><path fill="#e2a610" d="M93.5 96.9s-9.8 2.6-29.8 2.6-29.2-2.6-29.2-2.6V80h59z"/><path fill="#9e740b" d="M91 95.1 79.6 97V83.4l11.6-1.8z"/><path fill="#a12524" d="M88 79.9S79.9 82 62.6 82 40 79.9 40 79.9V68.7s3.3 7.4 23.3 5.8C84.8 72.8 88 62 88 62z"/><path fill="#ffca28" d="M88 76.7c0 2.2-10.9 4-24 4s-24-1.8-24-4c0 0-5.5 2.1-5.5 3.2 0 2.8 13.2 5 29.5 5s29.5-2.2 29.5-5c0-1-5.5-3.4-5.5-3.2"/><path fill="#fff59d" d="M51 83.9c-3.4-.2-5.9-.9-6.6-1.8-1.1-1.4.2-2.2 1.6-2 2 .2 2.2.4 6.1.8 4.6.4 8 .4 6.9 1.8-.7.9-4 1.5-8 1.2"/><path fill="#424242" d="M100.2 96.3s-11.8 4.6-36 4.6-36.4-4.6-36.4-4.6v21.9c1 3.2 16.8 5.8 36.2 5.8s35.2-2.6 36.1-5.8z"/><path fill="#212121" d="M96.5 120.6c-2 .9-10 2.4-16 2.7v-21.8l16-2.6z"/><path fill="#757575" d="M93.4 92.2c0 2.8-13.3 5-29.4 5s-29.5-2.3-29.5-5c0 0-6.7 2.7-6.7 4 0 3.4 16.2 6.2 36.2 6.2s36.2-2.8 36.2-6.2c0-1.3-6.8-4.2-6.8-4"/><path fill="#90a4ae" d="M55.4 101.1a52 52 0 0 1-14.1-1.4c-3.7-1.2-2-3.8 1.2-3.3 3 .5 7.3 1.4 17.8 1.5 3.1 0 3.3 1 3 1.8-.2 1-1.5 1.3-7.9 1.4"/></svg>