<svg viewBox="0 0 128 128"><path fill="#e2a610" d="M103.7 62.7c-.2-2.4-2.8-4.7-7.3-6a115 115 0 0 0-64.8 0q-6.9 2.1-7.2 6v50c-.2 2.9 3 5.9 10.2 8 7.5 2 17.6 3.4 29.4 3.4s21.9-1.4 29.4-3.5 10.6-5.3 10.2-8.2zm-79.3.7h79.3"/><path fill="#4e342e" d="m71.9 108.2-4.5-10.5a8 8 0 0 0 4.3-7 7.7 7.7 0 1 0-11.4 6.7l-4.2 11c-.5 1.3.5 2.8 2 2.8H70c1.5 0 2.5-1.6 1.9-3"/><path fill="#9e740b" d="M71.5 107.3h-15l-.4 1c-.6 1.4.5 2.9 2 2.9H70c1.5 0 2.5-1.6 1.9-3zM61 95.4q.2-.8-.5-1.4a6 6 0 0 1-2-2.5c-1.8-4.4.4-6.4.4-6.4a8 8 0 0 0-2.5 5.7c0 2.8 1.6 5.3 3.9 6.6zm8.5-10.1s2.2 4.4-.4 7.3a7 7 0 0 1-2 1.7 1 1 0 0 0-.6 1.4l1 2a8 8 0 0 0 4.3-7c0-3.2-2.3-5.4-2.3-5.4"/><path fill="#fdd835" d="M94.7 56a113 113 0 0 0-61.4 0c-9.2 2.6-10 9.2 2.9 12.7 7 2 16.6 3.2 27.8 3.2s20.8-1.2 27.9-3.2c12.9-3.5 12-10.1 2.8-12.8"/><path fill="#84b0c1" stroke="#84b0c1" stroke-miterlimit="10" stroke-width="2" d="M92.2 62.2s-.4 1.7-5.3 1.7-5.8-1.7-5.8-1.7v-22C81 30.2 73.4 22 64 22s-17 8.2-17 18.2v22S44.7 64 41 64s-5.2-1.7-5.2-1.7v-22C35.8 24 48.5 10.9 64 10.9S92 24 92 40.2z"/><path fill="#b9e4ea" d="M51.3 21.6c-5.1 3-6 5-7.3 6-1.1.7-2.5.2-1.6-2.3.8-2 2.7-6 7.4-9 8.2-5.2 15.2-5 14.9-1-.4 3.5-8 3-13.4 6.3"/></svg>