<svg xmlns="http://www.w3.org/2000/svg" width="1em" height="1em" viewBox="0 0 128 128"><path fill="#E2A610" d="M103.65 62.7h-.01c-.12-2.45-2.72-4.74-7.21-6.09c-9.61-2.89-20.27-4.58-32.43-4.68c-12.15.1-22.81 1.79-32.43 4.68c-4.49 1.35-7.07 3.64-7.2 6.09h-.02v50.08c-.11 2.8 3.02 5.8 10.26 7.85c7.48 2.12 17.6 3.49 29.38 3.49s21.9-1.37 29.38-3.49c7.59-2.15 10.66-5.34 10.22-8.25h.04V62.7zm-79.3.73h79.3"/><path fill="#4E342E" d="m71.9 108.24l-4.49-10.58a7.662 7.662 0 0 0 4.33-6.9c0-4.24-3.44-7.67-7.67-7.67s-7.67 3.44-7.67 7.67c0 2.85 1.56 5.34 3.87 6.66l-4.18 10.89c-.53 1.38.49 2.85 1.96 2.85h11.92c1.5 0 2.51-1.54 1.93-2.92z"/><path fill="#9E740B" d="M71.47 107.26H56.48l-.4 1.05c-.53 1.38.49 2.85 1.96 2.85h11.92c1.51 0 2.52-1.54 1.93-2.92l-.42-.98zM60.95 95.4c.18-.52-.01-1.08-.45-1.4c-.6-.44-1.41-1.22-1.92-2.46c-1.86-4.48.35-6.47.35-6.47a7.622 7.622 0 0 0-2.54 5.69c0 2.85 1.56 5.34 3.87 6.66l.69-2.02zm8.51-10.1s2.2 4.42-.32 7.25c-.86.96-1.59 1.47-2.13 1.72c-.53.25-.77.88-.52 1.41l.93 1.96a7.662 7.662 0 0 0 4.33-6.9c-.02-3.25-2.29-5.44-2.29-5.44z"/><path fill="#FDD835" d="M94.74 55.95C85.63 53.3 75.52 51.76 64 51.66c-11.52.09-21.63 1.64-30.74 4.28c-9.13 2.65-10.04 9.26 2.89 12.8c7.09 1.94 16.69 3.19 27.85 3.19s20.76-1.25 27.85-3.19c12.93-3.53 12.02-10.15 2.89-12.79z"/><path fill="#84B0C1" stroke="#84B0C1" stroke-miterlimit="10" stroke-width="1.958" d="M92.15 62.21s-.37 1.72-5.22 1.72s-5.88-1.72-5.88-1.72V40.16C81.05 30.14 73.4 22 63.99 22s-17.06 8.15-17.06 18.16v22.06s-2.11 1.72-5.95 1.72s-5.14-1.72-5.14-1.72V40.16c0-16.14 12.63-29.26 28.15-29.26s28.15 13.13 28.15 29.26v22.05z"/><path fill="#B9E4EA" d="M51.31 21.56c-5.14 3.06-5.93 5.13-7.36 6.08c-1.06.7-2.47.14-1.55-2.29c.79-2.08 2.69-6.02 7.43-9.05c8.16-5.22 15.2-4.98 14.82-.99c-.32 3.53-7.86 2.99-13.34 6.25z"/></svg>