<svg xmlns="http://www.w3.org/2000/svg" width="1em" height="1em" viewBox="0 0 128 128"><path fill="#e0e0e0" d="M56.48 35.92c.6-2.69.14-1.41-3.73-7.07-3.48-5.08-2.76-12.3-6.88-15.89-2.53-2.2-5.7-4.67-17.51 1.27-4.1 2.06-12.29 8.85-21.57 11.96-7.47 2.5-3.33 5.52-1.74 6.08 5.66 1.99 13.15-2.31 13.15-2.31s-10.74 7.02-4.43 8.68c5.12 1.35 11.57-4.8 11.57-4.8s-6.32 6.7-1.15 8.42c3.55 1.18 10.6-5.56 10.6-5.56s-4.93 6.85-2.55 8.3c3.62 2.2 9.55-3.47 9.55-3.47s-4.71 6.88-2.25 8c3.68 1.68 9.14-3.04 9.14-3.04s6.72-5.76 7.8-10.57"/><path fill="#bdbdbd" d="M35.68 13.76s-6.44 3.78-8.79 6.82c-.31.4-2.24 2.33-.54 3.44.43.28 1.71.1 2.47-.36 3.46-2.1 9.58-7.08 10.25-6.82s-5.47 4.3-7.45 9.19c-.74 1.84.7 3.16 4.45.95 4.08-2.4 7.59-6.63 8.18-6.61 0 0-1.64 2.86-3.74 5.12-2.14 2.31-3.65 4.66-2.07 5.4 1.99.94 6.29-1.61 6.29-1.61s-2.74 3.32-6.29 4.07c-1.25.27-2.23.1-2.83-.58-.91-1.04-.56-2.64-.56-2.64-1.89.75-5.15 1.97-7.09.33-1.51-1.28.55-5.03.55-5.03s-3.65 2.02-5.73 1.41c-1.08-.32-2.73-1.88-.32-5.19 3.8-5.17 13.22-7.89 13.22-7.89m7.7 36.37c4.17-5.42 8.34-10.83 12.51-16.25l-.36-1.56c-.18-.55-1.82-.62-4.09.69-1.52.88-4.31 4.04-6.1 2.3-1.24-1.2 2.32-5.49 2.32-5.49-.49.01-4.44 2.65-5.07 5.3-.54 2.25-.02 4.89 5.06 2.32.15-.08.31-.17.46-.26-.64 1.01-1.22 2.07-1.71 3.15-1.42 3.12-2.26 6.46-3.02 9.8"/><linearGradient id="a" x1="47.717" x2="47.717" y1="25.515" y2="25.515" gradientTransform="rotate(36.505 86.34 69.442)" gradientUnits="userSpaceOnUse"><stop offset="0" stop-color="#43a047"/><stop offset=".999" stop-color="#66bb6a"/></linearGradient><path fill="url(#a)" d="m81.39 11.13.07.05"/><path fill="#66bb6a" d="M87.13 70.83c-10.05 15.06-18.5 31.65-37.72 36.73-.2.05-.41-.01-.55-.16l-31.4-34.65c-.93-1.03-.47-2.66.85-3.09 12.91-4.24 20.97-14.34 28.15-25.11 9.9-14.83 18.38-31.15 36.99-36.5.71-.27 1.54-.1 2.08.49 4.17 4.6 35.62 34.54 35.67 34.6.02.01-26.36 16.13-34.07 27.69"/><path fill="#fff" d="M58.11 77.71c-.68-.68-1.49-1.02-2.43-1.01s-2.16.39-3.67 1.14c-2.05 1.09-3.83 1.6-5.32 1.55-1.49-.06-2.83-.68-4.01-1.87-1.21-1.21-1.85-2.56-1.91-4.04q-.105-2.22 1.53-4.29l-1.91-1.92a.736.736 0 0 1 0-1.03l.62-.62c.28-.28.74-.28 1.03 0l1.92 1.93c1.41-1.07 2.9-1.51 4.46-1.33 1.4.17 2.78.86 4.13 2.1.26.24.26.66.01.91l-1.14 1.14c-.24.24-.63.24-.88.01-.9-.78-1.83-1.23-2.78-1.33-1.11-.12-2.09.24-2.93 1.08-.88.88-1.33 1.78-1.34 2.69-.01.92.39 1.79 1.2 2.6.75.76 1.6 1.11 2.54 1.07s2.15-.44 3.65-1.2 2.77-1.23 3.85-1.42c1.07-.19 2.05-.14 2.93.14.88.29 1.71.82 2.49 1.6 1.24 1.25 1.87 2.63 1.88 4.14s-.59 3.01-1.81 4.5l1.6 1.6c.28.28.28.74 0 1.03l-.61.61c-.28.28-.74.28-1.03 0l-1.6-1.6c-1.5 1.24-3.07 1.83-4.7 1.75-1.45-.07-2.84-.69-4.16-1.86a.62.62 0 0 1-.01-.91l1.16-1.15c.23-.23.6-.25.85-.04.89.77 1.81 1.16 2.76 1.18 1.09.02 2.13-.47 3.12-1.46.97-.96 1.5-1.96 1.59-2.97.07-1.01-.28-1.92-1.08-2.72"/><path fill="#fff" d="m60.67 84.74-2.1 1.17-16.23-16.66-.55-.56 2.17-1.13 16.23 16.7z"/><circle cx="75.88" cy="45.55" r="14.42" fill="#2e7d32" opacity=".5"/><path fill="#2e7d32" d="M92.16 78.42c-5.15 7.72-12.57 22.45-22.79 30.55-9.38 7.44-21.21 11.11-21.21 11.11L15.61 81.96l1.35-10.46 31.92 35.91c.13.14.33.21.52.16 19.23-5.08 27.68-21.67 37.73-36.73 7.71-11.56 19.24-23.88 34.08-27.68 1.18 1.3.66 12.2-.63 12.63-13.15 4.36-21.22 11.82-28.42 22.63"/><path fill="#ffc06c" d="m78.85 83.52 3.02 11.15s9.2-13.46 10.69-16.72L89.22 67.9c-4.46 5.55-10.37 15.62-10.37 15.62"/><path fill="#2e7d32" d="M78.07 17.01c.77 1.11 2.12 2.26 4.29 2.93.77.24 1.58.36 2.39.36 1.72 0 3.16-.53 4.13-1.02 2.43 2.44 5.47 5.41 8.41 8.29 2.88 2.82 5.84 5.72 8.25 8.13-.78 1.19-1.4 2.99-1.14 5.42.12 1.12.91 2.26 1.75 3.19-5.32 3.42-15.53 11.02-26 24.42-2.21 2.83-4.37 5.97-6.45 9-5.18 7.54-10.53 15.32-17.65 20.08-.84-1.37-2.39-3.03-5.16-3.72-.67-.17-1.33-.25-1.96-.25-1.78 0-3.18.66-4.18 1.44l-15.1-17.36c1.27-.99 2.46-2.68 2.58-5.29.06-1.22-.59-2.33-1.33-3.17 7.36-5.45 15.13-14.14 19.31-20.38.61-.91 1.24-1.86 1.89-2.84 6.54-9.87 15.4-23.19 25.97-29.23m.79-2.34c-12.72 6.3-22.85 22.71-30.06 33.45-4.72 7.03-13.25 16.2-20.6 21.15 0 0 2.41 1.71 2.33 3.26-.2 4.16-3.58 4.86-3.58 4.86l17.75 20.4s1.3-2.28 4.22-2.28c.47 0 .99.06 1.55.2 4.02 1 4.83 4.54 4.83 4.54 11.34-6.6 18.19-20.27 26.17-30.5 10.83-13.87 21.6-21.73 27.43-25.18 0 0-2.68-2.17-2.83-3.65-.41-3.89 1.79-5.29 1.79-5.29-5.15-5.21-13.61-13.32-18.73-18.51 0 0-1.86 1.46-4.39 1.46-.6 0-1.24-.08-1.89-.28-3.68-1.11-3.99-3.63-3.99-3.63"/><path fill="#ffecb3" d="m53.82 33.32-9.73 14.71 34.76 35.49s5.68-8.98 10.36-15.62z"/><path fill="#d69136" d="M90.62 72.12s-6.86 3.49-8.73 14.13c-.71 4.02-.01 8.42-.01 8.42l5.66-8.71 4.05-12.11z" opacity=".68"/><path fill="#e0e0e0" d="M88.65 74.43c1.99-1.91 2.65-2.5 8.87-2.95 6.14-.45 8.96-3.14 16.72-1.53 3.28.68 8.48 3.68 7.16 15.64-.5 4.56-.38 15.1 1.77 24.65 1.73 7.68-3 5.71-4.3 4.64-4.64-3.81-4.84-12.44-4.84-12.44s-.44 12.82-5.13 8.29c-3.8-3.68-1.89-12.38-1.89-12.38s-2.46 8.88-6.61 5.34c-2.85-2.43-.73-11.95-.73-11.95s-3.31 7.77-5.77 6.48c-3.76-1.96-1.98-9.97-1.98-9.97s-3.44 7.59-5.68 6.06c-3.34-2.28-2.13-9.39-2.13-9.39s.98-7.08 4.54-10.49"/><path fill="#bdbdbd" d="M118.34 79.28s.48 6.18.05 9.87c-.27 2.29-.39 4.39-2.49 4.08-.51-.08-1.7-1.07-1.91-4.88-.22-4.04.62-9.38.03-9.78-.59-.41-.62 6.6-3.54 10.99-1.1 1.65-2.95 1.83-3.24-2.52-.32-4.73 2.13-10.33 1.78-10.81 0 0-2.07 2.55-3.27 6.16s-1.73 5.31-3.14 4.27c-2.53-1.86 1.18-9.27 1.18-9.27s-2.72 2.43-3.9 5.83c-.75 2.16-.34 5.71 1.58 6.61 2.26 1.06 3.58-.83 3.58-.83s.48 6.05 3.43 5.92c2.83-.13 3.55-3.32 3.55-3.32s-.12 3.08 2.74 5.19c1.39 1.03 4.62 1.2 5.02-2.88.65-6.62-1.45-14.63-1.45-14.63m-23.27-2.17c-.61-.15-1.49 2.6-2.59 4.15-.42.58-1.32 1.77-2.7 1.67s-.29-4.16-.61-3.94-1.61 2.39-1.1 4.91c.14.7.85 1.53 1.55 1.64 2.62.42 3.77-2.8 3.77-2.8s-.39 3.85 2.2 4.25c3.13.48 3.77-4.45 3.49-4.63s-1.29 3.1-3.52 1.7c-1.83-1.16.12-6.79-.49-6.95"/><path fill="#206022" d="m15.61 81.95 32.43 37.99s1.45-2.15 1.78-5.5c.29-2.92-.73-6.8-.73-6.8L16.96 71.49z"/></svg>