<svg viewBox="0 0 128 128"><path fill="#e0e0e0" d="M56.5 36c.6-2.8.1-1.5-3.8-7.1-3.4-5.1-2.7-12.3-6.8-16-2.6-2.1-5.7-4.6-17.5 1.3-4.1 2-12.3 8.9-21.6 12-7.5 2.5-3.3 5.5-1.8 6 5.7 2 13.2-2.2 13.2-2.2s-10.7 7-4.4 8.6c5 1.4 11.5-4.8 11.5-4.8s-6.3 6.7-1.1 8.5c3.5 1.1 10.6-5.6 10.6-5.6s-5 6.9-2.6 8.3c3.7 2.2 9.6-3.5 9.6-3.5s-4.7 7-2.3 8c3.7 1.7 9.2-3 9.2-3s6.7-5.8 7.8-10.6"/><path fill="#bdbdbd" d="M35.7 13.8s-6.5 3.7-8.8 6.8c-.3.4-2.2 2.3-.5 3.4.4.3 1.7.1 2.4-.3 3.5-2.1 9.6-7.1 10.3-6.9s-5.5 4.3-7.5 9.2c-.7 1.9.7 3.2 4.5 1 4-2.4 7.6-6.6 8.1-6.6 0 0-1.6 2.8-3.7 5-2.1 2.4-3.6 4.8-2 5.5 2 1 6.2-1.6 6.2-1.6s-2.7 3.3-6.3 4q-1.9.5-2.8-.5c-.9-1-.6-2.7-.6-2.7-1.8.8-5.1 2-7 .4-1.6-1.3.5-5 .5-5s-3.6 2-5.7 1.3c-1.1-.3-2.8-1.8-.3-5.2 3.8-5.1 13.2-7.8 13.2-7.8M43.4 50l12.5-16-.4-1.6c-.1-.5-1.8-.6-4 .7-1.6.9-4.4 4-6.2 2.3-1.2-1.2 2.4-5.5 2.4-5.5-.5 0-4.5 2.7-5.1 5.3-.6 2.3 0 5 5 2.3l.5-.2-1.7 3.1a51 51 0 0 0-3 9.8"/><path fill="#66bb6a" d="M87.1 70.8c-10 15-18.5 31.7-37.7 36.8q-.3 0-.5-.2L17.5 72.8a2 2 0 0 1 .8-3.1c13-4.3 21-14.4 28.2-25.2 9.9-14.8 18.3-31.1 37-36.4q1.2-.5 2 .4c4.2 4.6 35.7 34.6 35.7 34.6s-26.4 16.2-34 27.7"/><path fill="#fff" d="M58.1 77.7q-1-1-2.4-1c-1.4 0-2.2.4-3.7 1.1a11 11 0 0 1-5.3 1.6q-2.2 0-4-1.9a6 6 0 0 1-2-4q0-2.2 1.6-4.3l-2-2a1 1 0 0 1 0-1l.7-.6q.6-.5 1 0l2 2a6 6 0 0 1 4.4-1.4q2.1.3 4.2 2.1.3.5 0 1l-1.2 1q-.4.5-.9 0a5 5 0 0 0-2.7-1.3q-1.6 0-3 1.1-1.2 1.4-1.3 2.7 0 1.5 1.2 2.6t2.5 1c1.4-.1 2.2-.4 3.7-1.1s2.8-1.2 3.8-1.4q1.6-.3 3 .1t2.5 1.6q1.8 1.9 1.8 4.1c0 2.2-.6 3-1.8 4.5l1.6 1.6q.4.6 0 1l-.6.7q-.5.4-1 0l-1.6-1.6a7 7 0 0 1-4.7 1.7q-2.2 0-4.2-1.8a.6.6 0 0 1 0-1l1.2-1q.4-.4.8-.1 1.4 1 2.8 1.2 1.6 0 3.1-1.5t1.6-3-1-2.7"/><path fill="#fff" d="M60.7 84.7 58.6 86 42.3 69.2l-.5-.5 2.2-1.1 16.2 16.7z"/><circle cx="75.9" cy="45.5" r="14.4" fill="#2e7d32" opacity=".5"/><path fill="#2e7d32" d="M92.2 78.4C87 86.1 79.6 101 69.4 109c-9.4 7.4-21.2 11-21.2 11L15.6 82 17 71.5l31.9 36h.5c19.2-5 27.7-21.6 37.7-36.7 7.7-11.5 19.3-23.8 34.1-27.6 1.2 1.3.7 12.2-.6 12.6a52 52 0 0 0-28.4 22.6"/><path fill="#ffc06c" d="m78.9 83.5 3 11.2S91 81.2 92.6 78l-3.4-10.1a167 167 0 0 0-10.4 15.6"/><path fill="#2e7d32" d="M78 17a8 8 0 0 0 4.4 3l2.3.3q2.7-.1 4.2-1l8.4 8.3 8.2 8.1c-.7 1.2-1.4 3-1.1 5.4.1 1.1 1 2.3 1.7 3.2a108 108 0 0 0-32.4 33.4A73 73 0 0 1 56 97.8c-.8-1.4-2.3-3-5.1-3.7l-2-.3q-2.7.1-4.2 1.5l-15-17.4a7 7 0 0 0 2.5-5.3q-.1-1.8-1.3-3.1A93 93 0 0 0 50.2 49l1.9-2.9c6.5-9.8 15.4-23.2 26-29.2m.8-2.3C66 21 56 37.4 48.8 48a88 88 0 0 1-20.6 21.2s2.4 1.7 2.3 3.2c-.2 4.2-3.6 4.9-3.6 4.9l17.8 20.4s1.3-2.3 4.2-2.3l1.6.2c4 1 4.8 4.5 4.8 4.5C66.6 93.7 73.5 80 81.5 69.9a104 104 0 0 1 27.4-25.2s-2.7-2.2-2.8-3.7c-.4-3.9 1.8-5.3 1.8-5.3-5.2-5.2-13.7-13.3-18.8-18.5 0 0-1.8 1.5-4.4 1.5l-1.9-.3c-3.6-1.1-4-3.6-4-3.6"/><path fill="#ffecb3" d="M53.8 33.3 44.1 48l34.8 35.5s5.6-9 10.3-15.6z"/><path fill="#d69136" d="M90.6 72.1s-6.8 3.5-8.7 14.2c-.7 4 0 8.4 0 8.4l5.6-8.7 4-12.1z" opacity=".7"/><path fill="#e0e0e0" d="M88.7 74.4c2-1.9 2.6-2.5 8.8-3s9-3 16.7-1.5c3.3.7 8.5 3.7 7.2 15.7-.5 4.6-.4 15 1.8 24.6 1.7 7.7-3 5.8-4.3 4.7-4.7-3.8-4.9-12.5-4.9-12.5s-.4 12.9-5.1 8.3c-3.8-3.6-1.9-12.3-1.9-12.3s-2.4 8.8-6.6 5.3c-2.8-2.4-.7-12-.7-12s-3.3 7.8-5.8 6.5c-3.8-2-2-10-2-10s-3.4 7.6-5.7 6.1c-3.3-2.3-2-9.4-2-9.4s.9-7 4.5-10.5"/><path fill="#bdbdbd" d="M118.3 79.3s.5 6.2 0 9.9c-.2 2.2-.3 4.3-2.4 4-.5 0-1.7-1-2-4.8-.1-4 .7-9.4.1-9.8s-.6 6.6-3.5 11c-1.1 1.6-3 1.8-3.3-2.6-.3-4.7 2.2-10.3 1.8-10.8 0 0-2 2.6-3.2 6.2s-1.8 5.3-3.2 4.3c-2.5-1.9 1.2-9.3 1.2-9.3s-2.7 2.4-4 5.8c-.7 2.2-.2 5.7 1.7 6.6 2.2 1 3.6-.8 3.6-.8s.4 6 3.4 6c2.8-.2 3.5-3.4 3.5-3.4s0 3 2.8 5.2c1.4 1 4.6 1.2 5-2.9.6-6.6-1.5-14.6-1.5-14.6M95.1 77c-.6-.1-1.5 2.6-2.6 4.2-.4.5-1.3 1.7-2.7 1.6s-.3-4.1-.6-4-1.6 2.5-1.1 5c.1.7.8 1.5 1.5 1.6 2.6.5 3.8-2.8 3.8-2.8s-.4 3.9 2.2 4.3c3.1.5 3.8-4.5 3.5-4.6s-1.3 3-3.5 1.7c-1.9-1.2 0-6.8-.5-7"/><path fill="#206022" d="M15.6 82 48 120s1.5-2.2 1.8-5.6c.3-2.9-.7-6.8-.7-6.8L17 71.5z"/></svg>