<svg viewBox="0 0 128 128"><path fill="#ffca28" d="M93.5 39.5c6.7-1.5 15.4-8.2 16.7-11.5.8-1.9-3-4.9-4.1-6.1-2.4-2.8-1.4-4.1-.5-7.4 1-3.8-1.5-7.9-5-9.5s-7.7-1.1-11.3.5-6.6 4-9.5 6.6c-2.2-1.4-5.7-7.4-11.3-3.5-3.8 2.7-4.2 8.6-3.7 13.3 1.2 10.9 3.9 16.5 9 18 6.3 2 13.4 1 19.7-.4"/><path fill="#e2a610" d="M104.4 8.2c-.9 14.6-15.2 24.4-22 28.6l4.4 3.8s2.8 0 6.7-1.2c6.5-2 16-8 16.7-11.4 1-5-4.2-4-5.3-8-.7-2 3-6-.5-11.8M79.8 12s-2.6-2.6-4.5-3.8Q74 11 73.4 14c-.6 3.4 0 8.4 1.4 12 .2.6 1 .5 1.1 0 1.2-8 3.9-14 3.9-14"/><path fill="#ffca28" d="M62 38.2s-31.2 3.3-45.3 30.4-2.1 43.5 10.5 49.5 44.6 8 65.4 3.2 25.9-15.2 25-25C116 81.9 102.7 73 102.7 73s.5-17.8-13.3-29.3C77.3 33.5 62 38.2 62 38.2"/><path fill="#6b4b46" d="M74.8 83.7c-6.7-8.4-14.6-9.5-17.2-12.6-1.3-1.6-2.2-3.3-1.8-5.4.3-2.2 2.8-3.7 4.8-4a15 15 0 0 1 12.5 4.2c1 1 .7 2.6.6 4 0 3.2 4.4 6.2 8 3.6s.8-8.4-1.5-11.2a27 27 0 0 0-16-7.6c-2.3-.2-11.2-1.5-16.4 8.3-1.5 2.8-2 9.7 5.7 15.5 1.7 1.2 10.1 5.5 12.5 8.3 4 4.8 1.3 9-2 9.6-8.6 1.5-13.5-3.2-14.4-5.8-.7-1.8 0-3.8-.8-5.5a3.6 3.6 0 0 0-4.5-1.9c-6.1 2-4.2 8.7-1.5 12.3q4.5 5.8 10.5 7.6c14.9 4.9 22-2.8 23.3-8.4.9-4.1.8-7.7-1.8-11"/><path fill="none" stroke="#6b4b46" stroke-miterlimit="10" stroke-width="5" d="M71.2 49a197 197 0 0 0-14.9 61.2"/><path fill="#6d4c41" d="M81.7 32C90 34.7 92 42.3 91.4 44.4c-.8 2.5-10.1-7-24-6.5-4.9.2-3.5-2.7-1.2-4.5 3-2.2 8-3.9 15.5-1.4"/><path fill="#6b4b46" d="M81.7 32C90 34.7 92 42.3 91.4 44.4c-.8 2.5-10.1-7-24-6.5-4.9.2-3.5-2.7-1.2-4.5 3-2.2 8-3.9 15.5-1.4"/><path fill="#e2a610" d="M96.5 58.9c1-.8 4.6.5 5.6 7.5.5 3.4.7 6.7.7 6.7s-4.2-3.8-5.6-6.5c-1.8-3.3-2.5-6.5-.7-7.7"/></svg>