<svg viewBox="0 0 128 128"><path fill="#fff" d="M-184 248.8h302.4v169.1H-184z"/><path fill="#dea66c" d="m62.5 4.8-52.1 27q-1.6.9-1.5 3l.1 1.9 55 28.2 55-27.8V36s0-1.3-.2-2q-.7-1-1.5-1.6c-1.2-1-2.3-1.8-4.3-3A645 645 0 0 0 65.7 5q-1.8-.7-3.2 0"/><path fill="#b38251" d="M9.7 96.2c3 2 8.6 4.6 14.2 7.6 13 7.1 29.6 15.7 37.8 19q1.4.7 2.5.8c.6 0 1.5-.4 1.5-.4L64.1 65c-.1-3-1.4-4.1-2.5-4.9l-5.7-2.9s-13.5-6.7-27-13.8c-6.4-3.3-11.8-6.8-17.7-9.6-1-.5-2.3.1-2.3 1.3v59.8q.1.8.8 1.4"/><path fill="#966239" d="m117.6 96.5-51.8 26.7c-.8.4-1.8-.2-1.8-1.1V64.9c0-.5 0-1.8-.3-2.2-.4-1.4.6-2 1-2.2L116.2 34a2 2 0 0 1 3 1.9V94q0 1.6-1.5 2.5"/><path fill="#212121" d="M94.5 47.6S66 62 65.6 63.3s22.3-9.7 25-11c3-1.6 26.6-14.2 26.6-15.6 0-1.2-22.7 10.9-22.7 10.9" opacity=".5"/><g fill="#212121" opacity=".5"><path d="m12.8 92.9 12 6v-1.7l-12-6.1zm7.8.8L23 95v-7.8L20.6 86zM14 90.3l2.3 1.2v-7.7l-2.2-1.2z"/><path d="m19 86 5.7 3c-1-2-1.6-3-2.8-4.9zm-6-3.2 5.2 2.8-2.8-4.9c-1 .8-1.6 1.2-2.5 2.1"/></g><g fill="#212121" opacity=".5"><path d="m31.8 101.4 2.1 1c0-3.6 0-5.4-.2-9.1l-2-1z"/><path d="M28.8 100.8 37 105c0-1-.9-2.3-2-2.9l-4.4-2.3q-1.8-.8-2 .9m5.8-10.4 1.3 2.7-1 2h.9l1.2-1.6-1.1-2.5 3 1.7c0 3.6-2.4 5.2-6 3.3a12 12 0 0 1-5.8-9.5z"/></g><path fill="#ffe0b2" d="M100.7 41.5C100.2 41 46.6 13 46.6 13l-16.7 8.6 55 28.4 16.2-8.2-.1-.2z"/><path fill="#bf9f85" d="M101 41.7c-9.1 4.5-16 8.4-16 8.4q.3.4.2.6L85 54l-.4 17.8c.6-.4 1.5.5 2 0 1-.7 3-4 3.3-4l1.2-.1c1.8-.1 5.9-3.8 6.7-4 .9-.1 3.6.4 3.6.4l-.3-21.2q-.1-1.4-.2-1.2"/><path fill="#dea66c" d="m-98.7 4.8-51.9 26.7c-2.5 1.5-1.8 5.1-1.8 5.1L-97.2 65l55-27.9q.2-.2 0-3.1c-.2-1-3.3-3-6.1-4.5A603 603 0 0 0-95.6 4.9q-1.8-.7-3.1 0"/><path fill="#bf8049" d="M-151.5 96.2c3 2 8.6 4.6 14.2 7.6 13 7.1 29.5 15.7 37.7 19 2.4 1 3.7.6 3.7.6l-1-59.5c0-1.3-1.7-3.1-2.8-3.8-1.8-1.2-5.7-3-5.7-3s-13.5-6.7-27-13.8c-6.4-3.3-11.8-6.8-17.6-9.6-1.1-.5-2.4.1-2.4 1.3v59.8q0 .8.9 1.4"/><path fill="#9e673c" d="m-43.7 96.5-51.7 26.7c-.9.4-1.9-.2-1.9-1.1l.1-57.2-.5-2.5c-.2-.5.3-1.5.8-1.7L-45.2 34a2 2 0 0 1 3 1.9V94q0 1.6-1.5 2.5"/><path fill="#212121" d="M-70.7 52.3c3-1.6 26.6-14.2 26.6-15.6 0-1.2-22.7 10.9-22.7 10.9S-95.2 62-95.6 63.3s22.2-9.7 24.9-11" opacity=".5"/><g fill="#212121" opacity=".5"><path d="m-148.5 92.9 12 6v-1.7l-12-6.1zm7.8.8 2.5 1.3v-7.8l-2.5-1.3zm-6.5-3.4 2.4 1.2v-7.7l-2.3-1.2z"/><path d="m-142.3 86 5.7 3-2.7-4.9zm-6.2-3.2 5.3 2.8-2.8-4.9c-1 .8-1.6 1.2-2.5 2.1"/></g><g fill="#212121" opacity=".5"><path d="m-129.5 101.4 2.1 1-.1-9.1-2-1z"/><path d="m-132.5 100.8 8.3 4.3c0-1-.8-2.3-2-2.9-1.6-1-2.6-1.4-4.4-2.3q-1.7-.8-2 .9m5.9-10.4 1.3 2.7-1 2h.8l1.2-1.6-1-2.5 2.9 1.7c0 3.6-2.4 5.2-5.9 3.3a11 11 0 0 1-5.8-9.5z"/></g><path fill="#ffe0b2" d="m-61.9 42.3-54.3-28.5-16.7 8.6 55.1 28.4 16.2-8.3z"/><path fill="#bf9f85" d="M-61.6 42.5c-8.4 3.8-16.5 8.1-16.5 8.1l.7.7v3.5l-.5 17.9c.7-.4 1.5.5 2 0 1-.8 3-4 3.3-4.1h1.3c1.8-.2 5.8-3.8 6.7-4 .8-.2 3.5.4 3.5.4l-.2-21.2q-.2-1.4-.3-1.3"/><path fill="#dea66c" d="M223.8 4.8 172 31.5c-2.5 1.5-1.8 5.1-1.8 5.1L225.4 65l55-27.9q.1-.2-.1-3.1c-.2-1-3.3-3-6-4.5A603 603 0 0 0 227 4.9q-1.7-.7-3.2 0"/><path fill="#bf8049" d="M171 96.2c3 2 8.6 4.6 14.2 7.6 13 7.1 29.5 15.7 37.7 19 2.5 1 3.8.6 3.8.6l-1.1-59.5c0-1.3-1.6-3.1-2.8-3.8-1.8-1.2-5.6-3-5.6-3s-13.5-6.7-27-13.8c-6.5-3.3-11.9-6.8-17.7-9.6-1-.5-2.3.1-2.3 1.3v59.8q0 .8.8 1.4"/><path fill="#9e673c" d="M278.9 96.5 227 123.2c-.8.4-1.8-.2-1.8-1.1V64.9l-.5-2.5c-.1-.5.4-1.5.8-1.7L277.4 34a2 2 0 0 1 3 1.9V94q0 1.6-1.5 2.5"/><path fill="#784d30" d="M251.8 52.3c3-1.6 26.7-14.2 26.7-15.6 0-1.2-22.8 10.9-22.8 10.9S227.4 62 227 63.3c-.5 1.3 22.3-9.7 25-11"/><g fill="#784d30" opacity=".8"><path d="m173.4 93.2 11.9 6.1v-1.7l-12-6.2zm7.7.8 2.6 1.3v-7.7l-2.5-1.3zm-6.5-3.3L177 92v-7.7l-2.3-1.2z"/><path d="m179.5 86.4 5.7 2.9c-1-2-1.6-2.9-2.7-4.8zm-6.1-3.2c1.7 1 3 1.5 5.3 2.7l-2.8-4.8c-1.1.8-1.6 1.2-2.5 2.1"/></g><g fill="#784d30" opacity=".8"><path d="m192.4 101.8 2 1-.1-9.1-2-1z"/><path d="m189.3 101.1 8.3 4.4c0-1-.8-2.3-1.9-3l-4.4-2.2q-1.9-.8-2 .8m5.8-10.4 1.3 2.7-1 2.2.8-.1 1.2-1.6-1-2.5 2.9 1.7c0 3.6-2.4 5.1-5.9 3.3s-5.8-6-5.8-9.5z"/></g><path fill="#ffe0b2" d="m260.7 42.3-54.3-28.5-16.7 8.6 55 28.4 16.2-8.3z"/><path fill="#bf9f85" d="M261 42.5c-8.4 3.8-16.6 8.1-16.6 8.1l.7.7v3.5l-.5 17.9c.7-.4 1.5.5 2.1 0 1-.8 3-4 3.3-4.1h1.2c1.8-.2 5.8-3.8 6.7-4 .8-.2 3.6.4 3.6.4l-.3-21.2q-.2-1.4-.3-1.3"/><path fill="#dea66c" d="m566.5 4.8-51.8 26.7c-2.5 1.5-1.8 5.1-1.8 5.1L568 65l55-28q.1-.2-.1-3.1c-.2-1-3.3-3-6-4.5a603 603 0 0 0-47.3-24.5q-1.7-.7-3.2 0"/><path fill="#bf8049" d="M513.7 96.2c3 2 8.6 4.6 14.2 7.6 13 7.1 29.5 15.7 37.7 19 2.5 1 3.8.6 3.8.6l-1.1-59.5c0-1.3-1.6-3.1-2.8-3.8-1.7-1.2-5.6-3-5.6-3s-13.5-6.7-27-13.8c-6.4-3.3-11.9-6.8-17.7-9.6-1-.5-2.3.1-2.3 1.3v59.8q0 .8.8 1.4"/><path fill="#9e673c" d="m621.6 96.5-51.8 26.7c-.8.4-1.8-.2-1.8-1.1V64.9l-.5-2.5c-.1-.5.4-1.5.8-1.7L620.1 34a2 2 0 0 1 3 1.9V94a3 3 0 0 1-1.6 2.5"/><path fill="#784d30" d="M594.5 52.3c3-1.6 26.7-14.2 26.7-15.6 0-1.2-22.8 10.9-22.8 10.9S570.1 62 569.6 63.3s22.3-9.7 25-11"/><g fill="#784d30" opacity=".8"><path d="m516 93.2 12 6.1v-1.7l-12-6.2zm7.8.8 2.6 1.3v-7.7l-2.5-1.3zm-6.5-3.3 2.3 1.2v-7.7l-2.3-1.2z"/><path d="m522.2 86.4 5.7 2.9c-1-2-1.6-2.9-2.7-4.8zm-6.1-3.2c1.7 1 3 1.5 5.3 2.7l-2.8-4.8c-1.1.8-1.7 1.2-2.5 2.1"/></g><g fill="#784d30" opacity=".8"><path d="m535 101.8 2.1 1-.1-9.1-2-1z"/><path d="m532 101.1 8.3 4.4c0-1-.8-2.3-1.9-3l-4.4-2.2q-1.9-.8-2 .8m5.8-10.4 1.3 2.7-1 2.2.8-.1 1.2-1.6-1-2.5 2.9 1.7c0 3.6-2.4 5.1-5.9 3.3s-5.8-6-5.8-9.5z"/></g><path fill="#fce8b2" d="M603.4 42.3 549 13.8l-16.7 8.6 55 28.4 16.2-8.3z"/><path fill="#ecb354" d="M603.6 42.5c-8.3 3.8-16.5 8.1-16.5 8.1l.7.7v3.5l-.5 17.9c.7-.4 1.5.5 2.1 0 1-.8 3-4 3.3-4.1h1.2c1.8-.2 5.8-3.8 6.7-4 .8-.2 3.6.4 3.6.4l-.3-21.2q-.1-1.4-.3-1.3"/><path fill="#dea66c" d="m62.5 216-51.8 26.7c-2.5 1.5-1.8 5.1-1.8 5.1l55.2 28.3 55-27.8q.3-.2-.1-3.2c-.1-1-3.2-3-6-4.5a603 603 0 0 0-47.3-24.4q-1.8-.9-3.2-.1"/><path fill="#bd8955" d="M9.7 307.4c3 2 8.6 4.6 14.2 7.7 13 7 29.6 15.6 37.8 19 2.4 1 3.7.5 3.7.5l-1.1-59.5c0-1.3-1.6-3-2.7-3.8-1.8-1.2-5.7-3-5.7-3s-13.5-6.7-27-13.7c-6.4-3.4-11.8-6.9-17.7-9.7-1-.5-2.3.1-2.3 1.3V306q.1.9.8 1.4"/><path fill="#a06841" d="m117.6 307.7-51.8 26.7c-.8.5-1.8-.1-1.8-1V276c0-.5-.3-2-.5-2.4-.1-.5.4-1.6.8-1.8l51.8-26.6a2 2 0 0 1 3 1.8v58.2q0 1.6-1.5 2.4"/><path fill="#784d30" d="M90.6 263.5c3-1.6 26.6-14.2 26.6-15.6 0-1.1-22.8 11-22.8 11s-28.3 14.4-28.8 15.7 22.3-9.7 25-11.1"/><g fill="#784d30" opacity=".7"><path d="m12 304.5 12 6v-1.7l-12-6.1zm7.9.7 2.5 1.4v-7.8l-2.5-1.3zm-6.5-3.3 2.3 1.2v-7.7l-2.3-1.2z"/><path d="M18.2 297.6c2.4 1.2 3.7 1.8 5.8 3-1-2-1.7-3-2.8-4.9zm-6.1-3.2 5.3 2.8-2.8-4.9c-1.1.8-1.6 1.2-2.5 2.1"/></g><g fill="#784d30" opacity=".7"><path d="m31 313 2.2 1-.2-9.1-2-1z"/><path d="m28 312.4 8.4 4.3c0-1-.9-2.3-2-2.9l-4.4-2.3q-1.8-.8-2 .9m5.8-10.4 1.3 2.7-1 2h.9l1.2-1.6-1.1-2.5 3 1.7c0 3.6-2.4 5.2-6 3.3a11 11 0 0 1-5.8-9.5z"/></g><path fill="#fce8b2" d="M99.4 253.6c-.5-.4-54.3-28.5-54.3-28.5l-16.7 8.6L83.5 262l16.1-8.3z"/><path fill="#ecb354" d="M99.6 253.7c-8.3 3.8-16.5 8.1-16.5 8.1.3.1.8.8.8.8l-.1 3.4-.4 18c.6-.5 1.4.4 2 0 1-.8 3-4 3.3-4.2h1.2c1.8-.1 5.9-3.8 6.7-4 .9-.1 3.6.4 3.6.4l-.3-21.2z"/><path fill="#e6a467" d="M401.8 4.8 350 31.5c-2.5 1.5-1.8 5.1-1.8 5.1L403.4 65l55-27.9q.1-.2-.1-3.1c-.2-1-3.3-3-6-4.5A603 603 0 0 0 405 4.9q-1.7-.7-3.2 0"/><path fill="#d68b52" d="M349 96.2c3 2 8.6 4.6 14.2 7.6 13 7.1 29.5 15.7 37.7 19 2.5 1 3.8.6 3.8.6l-1.1-59.5c0-1.3-1.6-3.1-2.8-3.8-1.7-1.2-5.6-3-5.6-3s-13.5-6.7-27-13.8c-6.4-3.3-11.9-6.8-17.7-9.6-1-.5-2.3.1-2.3 1.3v59.8q0 .8.8 1.4"/><path fill="#a06841" d="M456.9 96.5 405 123.2c-.8.4-1.8-.2-1.8-1.1V64.9l-.5-2.5c-.1-.5.4-1.5.8-1.7L455.4 34a2 2 0 0 1 3 1.9V94a3 3 0 0 1-1.5 2.5"/><path fill="#784d30" d="M429.8 52.3c3-1.6 26.7-14.2 26.7-15.6 0-1.2-22.8 10.9-22.8 10.9S405.4 62 405 63.3a222 222 0 0 0 25-11"/><g fill="#784d30" opacity=".7"><path d="m351.4 93.2 11.9 6.1v-1.7l-12-6.2zm7.7.8 2.6 1.3v-7.7l-2.5-1.3zm-6.5-3.3L355 92v-7.7l-2.3-1.2z"/><path d="m357.5 86.4 5.7 2.9c-1-2-1.6-2.9-2.7-4.8zm-6.1-3.2c1.7 1 3 1.5 5.3 2.7l-2.8-4.8c-1.1.8-1.6 1.2-2.5 2.1"/></g><g fill="#784d30" opacity=".7"><path d="m370.4 101.8 2 1-.1-9.1-2-1z"/><path d="m367.3 101.1 8.3 4.4c0-1-.8-2.3-1.9-3l-4.4-2.2q-1.9-.8-2 .8m5.8-10.4 1.3 2.7-1 2.2.9-.1 1.1-1.6-1-2.5 2.9 1.7c0 3.6-2.3 5.1-5.9 3.3-3.5-1.8-5.8-6-5.8-9.5z"/></g><path fill="#fce8b2" d="m438.7 42.3-54.3-28.5-16.7 8.6 55.1 28.4 16.1-8.3z"/><path fill="#ecb354" d="M439 42.5c-8.4 3.8-16.6 8.1-16.6 8.1l.8.7-.1 3.5-.4 17.9c.6-.4 1.4.5 2 0 1-.8 3-4 3.3-4.1h1.2c1.8-.2 5.9-3.8 6.7-4s3.6.4 3.6.4l-.3-21.2q-.2-1.4-.3-1.3"/><path fill="#e6a475" d="m-240.6 4.8-51.9 26.7c-2.5 1.5-1.8 5.1-1.8 5.1L-239 65l55-27.9q.2-.2 0-3.1c-.2-1-3.3-3-6.1-4.5A603 603 0 0 0-237.4 5q-1.8-.7-3.1 0"/><path fill="#c78c61" d="M-293.4 96.2c3 2 8.6 4.6 14.2 7.6 13 7.1 29.5 15.7 37.7 19 2.4 1 3.7.6 3.7.6l-1-59.5c0-1.3-1.7-3.1-2.8-3.8-1.8-1.2-5.7-3-5.7-3s-13.5-6.7-27-13.8c-6.4-3.3-11.8-6.8-17.6-9.6-1.1-.5-2.4.1-2.4 1.3v59.8q0 .8.9 1.4"/><path fill="#a06841" d="m-185.6 96.5-51.8 26.7c-.8.4-1.8-.2-1.8-1.1l.1-57.2-.5-2.5c-.2-.5.3-1.5.8-1.7l51.7-26.7a2 2 0 0 1 3 1.9V94a3 3 0 0 1-1.5 2.5"/><path fill="#784d30" d="M-212.6 52.3c3-1.6 26.6-14.2 26.6-15.6 0-1.2-22.7 10.9-22.7 10.9s-28.4 14.5-28.9 15.7c-.4 1.3 22.3-9.7 25-11"/><g fill="#784d30" opacity=".7"><path d="m-291 93.2 11.8 6.1v-1.7l-11.9-6.2zm7.7.8 2.5 1.3v-7.7l-2.5-1.3zm-6.5-3.3 2.4 1.2v-7.7l-2.3-1.2z"/><path d="m-285 86.4 5.8 2.9c-1-2-1.6-2.9-2.8-4.8zm-6-3.2c1.7 1 2.9 1.5 5.2 2.7l-2.8-4.8c-1 .8-1.6 1.2-2.5 2.1"/></g><g fill="#784d30" opacity=".7"><path d="m-272 101.8 2 1c0-3.6 0-5.5-.2-9.1l-2-1z"/><path d="m-275.1 101.1 8.3 4.4c0-1-.8-2.3-2-3l-4.4-2.2q-1.8-.8-2 .8m5.9-10.4 1.2 2.7-1 2.2 1-.1 1-1.6-1-2.5 3 1.7c0 3.6-2.4 5.1-6 3.3s-5.8-6-5.8-9.5z"/></g><path fill="#fce8b2" d="M-203.8 42.3-258 13.8l-16.7 8.6 55.2 28.4 16-8.3z"/><path fill="#ecb354" d="M-203.5 42.5c-8.4 3.8-16.5 8.1-16.5 8.1l.7.7v3.5l-.5 17.9c.7-.4 1.5.5 2 0 1-.8 3-4 3.3-4.1h1.3c1.8-.2 5.8-3.8 6.7-4 .8-.2 3.5.4 3.5.4l-.2-21.2q-.2-1.4-.3-1.3"/><path fill="#e6a475" d="m90.3-146.8-10.5 5.4-21.5 11-11.2 5.9c-2.6 1.3-8 3-8.8 6v2.3c.4 3.3.3 6.2 2.4 8.9 2 2.4 5.5 5.8 9 5.8 8.2 2.6 15.9 6.2 23.9 9.3 7 2.7 16 6.9 23.3 2.8l2.5-1.6 3.6-1.7c3.4-1.8 6.3-4.2 9.5-6.3 5.3-3.4 11.2-5.9 17-8.6q4.3-2 8.5-4.4l4-2.6c1-.8 2.6-1.8 3-3v-.6q0-1-.9-1.8c-1.7-1.5-4.2-2.3-6.3-3.2q-4-1.8-7.8-4.3l-16.4-9-12.3-6.2-6.3-3.1c-1.4-.7-3.2-1.8-4.7-1"/><path fill="#a06841" d="M38.8-57.7q1.3 1.2 2.8 2 7.7 4.4 15.5 8.3l7.9 4 7.7 4 7 3.5L85-33l3.3 1.7c1.4.7 2.4 1.4 4 .8 1.4-.5 1.5-2.1 1.8-3.4q1.2-5.3 1.3-10.8.2-7 0-14.3c-.2-5.8.1-11.5-.1-17.3l-.2-4.7c0-1.4-.9-2.7-1.7-3.8-1-1.3-2-2.6-2.2-4.3 0-2.7-2.8-3.5-4.8-4.3l-9-4.6a1074 1074 0 0 1-31.3-16.7c-1.2-.7-8.1-6-8.2-2l-.6 53.4c0 1.6 0 3.3.8 4.7z"/><path fill="#c78c61" d="M144.2-57.6q-1.7 1.4-4.5 2.8-6.3 3-12.4 6.3l-25.3 13c-1.8 1-8 5-10.1 4.1-1.6-.7-.7-8.5-.7-10.2V-75c0-4.1.4-8.5-.2-12.6-.2-1.2-.4-2.4.3-3.5 1.2-1.7 4.1-2.7 6-3.6l6.6-3.5 17-8.7 13.5-7c2.4-1.2 5-3.1 7.7-4 2.3-.6 2.7 1.4 2.9 3.4q.4 8.6.4 17.3.4 17.3.5 34.4 0 3.7-1.7 5.3"/><path fill="#a06841" d="M117.2-100.2c3-1.5 26.1-13.8 26.1-15.2 0-1.1-22.3 10.7-22.3 10.7S93.4-90.5 93-89.3s21.7-9.5 24.3-10.9"/><linearGradient id="a" x1="28.2" x2="14.1" y1="-108.4" y2="-79.1" gradientTransform="matrix(-1 0 0 1 124.88 0)" gradientUnits="userSpaceOnUse"><stop offset=".3" stop-color="#fce8b2"/><stop offset=".4" stop-color="#ffcc80"/></linearGradient><path fill="url(#a)" d="m110.2-80.2.4-17.5v-3.3l-.1-.5-54-27.8 16.3-8.4 53 27.8c.5.3.6.4.6 1.4l.1 9 .1 6.1c0 1 .5 3.2 0 4s-2.6 1.2-3.4 1.3q-1.4.1-2.5.7c-1.6.8-2.3 3-4 3.2h-1.3l-.7.5q-1.3 1.4-2.6 2.5-.8.6-2 1"/><path fill="#ffcc80" d="m127.7-48.6-.2-8.2s-2 1.8-3.3 2.3q-1.6.3-3 1.2c-1 .6-1.6 1.7-2.5 2.3-2.3 1.6-5.5 1-5.5 1v8.8z"/><path fill="#7d5133" d="M40.5-60q5.2 2.5 11.6 5.9v-1.7l-11.6-6zm7.6.7 2.5 1.3v-7.6L48-66.9zm-6.3-3.2 2.2 1.1v-7.5l-2.2-1.2z"/><path fill="#7d5133" d="m46.5-66.8 5.6 2.9-2.7-4.7zm-6-3 5.3 2.6-2.8-4.7zM59-52l2 1v-9l-2-1z"/><path fill="#7d5133" d="m56-52.8 8.2 4.3c0-1-.8-2.3-2-2.9L58-53.6q-1.7-.8-1.9.8M61.7-63l1.2 2.7-1 2h1l1-1.6c-.3-1-.6-1.4-1-2.4l2.9 1.6c0 3.5-2.3 5-5.7 3.3s-5.8-5.8-5.8-9.3z"/></svg>