<svg viewBox="0 0 128 128"><path fill="#82aec0" d="M112 116.4c13.5-11.7 14.5-29.7 2.3-43.7L72.2 24.2c-.8-.8-7 4.6-6.2 5.4L108 78c7.7 8.8 10.2 22.2-1.3 32.3-7.8 6.7-20 9.2-31.4-3.8L21.2 44.2c-6.4-7.4-11.8-20.3-2.3-28.6 10.3-8.9 21.6 1.8 26 6.8l32.4 37.4c4.2 4.9 8.2 15 4.8 18.5s-10.6 6.6-21.2-4L41 51.7c-.6-.8-7 4.5-6.1 5.4l19.9 22.6c6.2 7 18.4 17.3 30.4 6.8 9.2-8 8.5-20.3-1.7-32L51 17C38.7 3 24.4 0 13.5 9.5 2.3 19.2 2.4 35 13.7 48l55.4 64c12.4 14.2 29.7 16 43 4.5"/><g fill="#2f7889"><path d="M84.8 70.5c0-5.2-3.2-10.1-5.7-13L46.6 20c-3.6-4-8.7-8.4-15.1-8.8-8.6-.5-13 4.6-12 3.8 10.5-8 21 2.3 25.3 7.3l32.5 37.4c5.2 6.6 7 13.7 5.3 17.8 0 0 2.2-1.7 2.2-7.1m27 33.7c7.2-9.4 4.7-20.8-2-28.5L67.6 27.2c-.9.9-2 2-1.7 2.3L108 78.1c5.7 6.4 9.3 17.1 3.8 26.1M13.5 48l55.6 64c13.7 15.2 30.2 15.6 43.4 4 2.6-2.2.2-.2-.6.4-13 9.4-29.3 6.6-41-6.8L15.5 45.8c-9.3-10.7-11-23.4-5-33-8 9.4-7 23.6 3 35"/><path d="M85.7 86q2.4-2.2 3.9-4.8-1 1.5-2.6 3c-12 10.4-24.3.2-30.5-6.8l-20-22.8s-2.2 2-1.6 2.6l22.3 25.1C63.8 89 74.7 96 85.7 86"/></g><path fill="#b9e4ea" d="M10.4 32.6c-2-3.3-2-7.8-1.4-10.7q1.2-7 6.6-11.6a22 22 0 0 1 18-4s2.5.5 2.1 2.1-4.2 1-4.2 1a19 19 0 0 0-14 3.3c-2.6 2-4.5 5-5.5 8.1-2.5 8.7 1 16-1.6 11.8m103.3 78.8c-2.2 2.2-4.6 3.6-6 2.8-.6-.4-.4-1.6.7-2.7 2.6-2.5 4.7-5.2 5.2-6a23 23 0 0 0 3.4-20.7c-.4-2 .5-2.2 1.2-1.3 1.1 1.4 1.7 4.5 2 6 2.1 13.9-5.5 21-6.5 22M85 82.3c-3.6 3-5.8.2-4-2 2.6-2.6 7.3-5.8 4.2-15.3-.5-1.5.2-3.1 1.6-.5 4.8 8.6 1.8 14.8-1.8 17.8"/></svg>