<svg xmlns="http://www.w3.org/2000/svg" width="1em" height="1em" viewBox="0 0 128 128"><path fill="#424242" d="M87.4 124H40.6c-4.7 0-8.6-3.8-8.6-8.6V12.6C32 7.9 35.9 4 40.6 4h46.8c4.7 0 8.6 3.8 8.6 8.6v102.9c0 4.7-3.9 8.5-8.6 8.5"/><path d="M86.77 120.11H39.93c-2.15 0-3.89-1.74-3.89-3.89V19.65c0-2.14 1.74-3.88 3.88-3.88h48.15c2.15 0 3.89 1.74 3.89 3.89v95.93c0 .93-1.4 4.52-5.19 4.52"/><path fill="#212121" d="M73.65 11.59h-19.2c-.7 0-1.2-.6-1.2-1.2s.6-1.2 1.2-1.2h19.1c.7 0 1.2.6 1.2 1.2s-.5 1.2-1.1 1.2"/><path fill="#757575" d="M87.4 6c3.64 0 6.6 2.96 6.6 6.6v102.9c0 3.58-2.96 6.5-6.6 6.5H40.6c-3.64 0-6.6-2.96-6.6-6.6V12.6C34 9.02 37.02 6 40.6 6zm0-2H40.6C35.9 4 32 7.9 32 12.6v102.8c0 4.8 3.9 8.6 8.6 8.6h46.8c4.7 0 8.6-3.8 8.6-8.5V12.6C96 7.8 92.1 4 87.4 4"/><path fill="#eab56e" d="M48.35 29.96h-6.36c-.73 0-1.32-.59-1.32-1.32v-6.36c0-.73.59-1.32 1.32-1.32h6.36c.73 0 1.32.59 1.32 1.32v6.36c0 .73-.59 1.32-1.32 1.32"/><path fill="#fb8c00" d="M60.9 29.96h-6.36c-.73 0-1.32-.59-1.32-1.32v-6.36c0-.73.59-1.32 1.32-1.32h6.36c.73 0 1.32.59 1.32 1.32v6.36c0 .73-.59 1.32-1.32 1.32"/><path fill="#ff80ab" d="M73.45 29.96H67.1c-.73 0-1.32-.59-1.32-1.32v-6.36c0-.73.59-1.32 1.32-1.32h6.36c.73 0 1.32.59 1.32 1.32v6.36c0 .73-.59 1.32-1.33 1.32"/><path fill="#0288d1" d="M86.01 29.96h-6.36c-.73 0-1.32-.59-1.32-1.32v-6.36c0-.73.59-1.32 1.32-1.32h6.36c.73 0 1.32.59 1.32 1.32v6.36c0 .73-.59 1.32-1.32 1.32"/><path fill="#00bfa5" d="M48.35 44.12h-6.36c-.73 0-1.32-.59-1.32-1.32v-6.36c0-.73.59-1.32 1.32-1.32h6.36c.73 0 1.32.59 1.32 1.32v6.36c0 .73-.59 1.32-1.32 1.32"/><path fill="#81d4fa" d="M60.9 44.12h-6.36c-.73 0-1.32-.59-1.32-1.32v-6.36c0-.73.59-1.32 1.32-1.32h6.36c.73 0 1.32.59 1.32 1.32v6.36c0 .73-.59 1.32-1.32 1.32"/><path fill="#fb8c00" d="M73.45 44.12H67.1c-.73 0-1.32-.59-1.32-1.32v-6.36c0-.73.59-1.32 1.32-1.32h6.36c.73 0 1.32.59 1.32 1.32v6.36c0 .73-.59 1.32-1.33 1.32"/><path fill="#eab56e" d="M86.01 44.12h-6.36c-.73 0-1.32-.59-1.32-1.32v-6.36c0-.73.59-1.32 1.32-1.32h6.36c.73 0 1.32.59 1.32 1.32v6.36c0 .73-.59 1.32-1.32 1.32"/><path fill="#fb8c00" d="M48.35 58.28h-6.36c-.73 0-1.32-.59-1.32-1.32V50.6c0-.73.59-1.32 1.32-1.32h6.36c.73 0 1.32.59 1.32 1.32v6.36c0 .73-.59 1.32-1.32 1.32"/><path fill="#ff80ab" d="M60.9 58.28h-6.36c-.73 0-1.32-.59-1.32-1.32V50.6c0-.73.59-1.32 1.32-1.32h6.36c.73 0 1.32.59 1.32 1.32v6.36c0 .73-.59 1.32-1.32 1.32"/><path fill="#00bfa5" d="M73.45 58.28H67.1c-.73 0-1.32-.59-1.32-1.32V50.6c0-.73.59-1.32 1.32-1.32h6.36c.73 0 1.32.59 1.32 1.32v6.36c0 .73-.59 1.32-1.33 1.32"/><path fill="#0288d1" d="M86.01 58.28h-6.36c-.73 0-1.32-.59-1.32-1.32V50.6c0-.73.59-1.32 1.32-1.32h6.36c.73 0 1.32.59 1.32 1.32v6.36c0 .73-.59 1.32-1.32 1.32M48.35 72.44h-6.36c-.73 0-1.32-.59-1.32-1.32v-6.36c0-.73.59-1.32 1.32-1.32h6.36c.73 0 1.32.59 1.32 1.32v6.36c0 .73-.59 1.32-1.32 1.32"/><path fill="#81d4fa" d="M60.9 72.44h-6.36c-.73 0-1.32-.59-1.32-1.32v-6.36c0-.73.59-1.32 1.32-1.32h6.36c.73 0 1.32.59 1.32 1.32v6.36c0 .73-.59 1.32-1.32 1.32m-12.55 42.48h-6.36c-.73 0-1.32-.59-1.32-1.32v-6.36c0-.73.59-1.32 1.32-1.32h6.36c.73 0 1.32.59 1.32 1.32v6.36c0 .72-.59 1.32-1.32 1.32"/><path fill="#0288d1" d="M60.9 114.92h-6.36c-.73 0-1.32-.59-1.32-1.32v-6.36c0-.73.59-1.32 1.32-1.32h6.36c.73 0 1.32.59 1.32 1.32v6.36c0 .72-.59 1.32-1.32 1.32"/><path fill="#00bfa5" d="M73.45 114.92H67.1c-.73 0-1.32-.59-1.32-1.32v-6.36c0-.73.59-1.32 1.32-1.32h6.36c.73 0 1.32.59 1.32 1.32v6.36c0 .72-.59 1.32-1.33 1.32"/><path fill="#ff80ab" d="M86.01 114.92h-6.36c-.73 0-1.32-.59-1.32-1.32v-6.36c0-.73.59-1.32 1.32-1.32h6.36c.73 0 1.32.59 1.32 1.32v6.36c0 .72-.59 1.32-1.32 1.32"/></svg>