<svg viewBox="0 0 128 128"><path fill="#fff" d="m43.2 32.7.8 62.9 41.8-.3-.8-64.9z"/><path fill="#d80d1a" d="M42.7 37.7 52.8 32l23.5.6-33.7 23z"/><path fill="#1d86fa" d="m43.2 67.2 42.3-28.8-.3 19.3-42.1 29.4z"/><path fill="#d80d1a" d="m50 95.3 35.4-25.1-.6 18.5-13.3 9.6z"/><path fill="#a1d2d6" d="m40.5 32.5.8 64 4-1.5-.9-64zm42.7-1.1.4 63.9 4-.4-.6-63.7z"/><path fill="#c8c8c8" d="M40 33c.7.8 46 .3 46.8-.1s4.8-3.8 4.5-9.1-4-7-4-7-.6-5.2-6.7-9.2A29 29 0 0 0 63.8 4c-7.8 0-15 .5-19.5 5s-4.6 8.7-4.6 8.7-4 1.2-4 7.1S40 33 40 33m.8 61.4c-.7.5-.8 4-.8 4s-3.7 2-3.2 6.3c.5 3.9 3.7 5.4 3.7 5.4s1.5 6.6 6.6 10.1c5.4 3.9 10.7 4 18.3 4 8.3 0 14-.6 18.4-4.8 5-4.9 5.5-9.9 5.5-9.9s3-1.7 2.8-5.7-3.3-5.5-3.3-5.5-.7-3.1-1.3-4c-.3-.4-12.1-.2-23.8-.2-11.2 0-22.4-.2-23 .3"/><path fill="#858585" d="M61.6 120.4c-.1 1.6 8.3 1.6 14.5.2 7-1.6 9.4-7.6 9-8.1s-7.6-.3-8 0-2.2 4.2-5.3 5.5-10.2 1.2-10.2 2.4M37 105.8l55-.2s-.2 1.1-1 2.3c-.7 1-1.7 1.7-1.7 1.7l-48.7.6s-1.5-.8-2.1-1.6c-1.4-1.7-1.5-2.8-1.5-2.8"/><path fill="#e1e0e0" d="m36.8 103.1 55.1-.7s-.1-1.5-1.1-2.6c-.8-.9-2-1.4-2-1.4l-49.5.5s-1 .7-1.6 1.6-.9 2.6-.9 2.6m-.9-80.2s11-2.2 27.2-2.4 27.7.7 27.7.7-.6-2-1.4-2.9-2-1.4-2-1.4-15.1-.6-24.3-.6c-11-.1-23.4 1.5-23.4 1.5s-1.4.4-2.3 1.6C36.2 21 36 22.9 36 22.9"/><path fill="#858585" d="M35.8 26s8.5-1.7 27.7-2 27.8 1.2 27.8 1.2 0 1.1-.3 2.3q-.8 1.9-1 2c-.3.1-16.5-1-26.5-1s-26.3 1.7-26.3 1.7l-1-2z"/><path fill="#fff" d="M60.6 19.5c0 .8-5.7 1.3-11.6 1.7-3.4.2-9.3 1.8-9.3-.4s2.1-2.6 9.4-2.8 11.5.3 11.5 1.4m.4-13c.2.5-2.9 1.5-5.2 4-1.7 1.8-2.2 3.5-3.4 3.9s-7.2 1-7.3-.3c-.1-1.8 1.2-4.6 4.2-6.3C54.1 5 60.6 5.3 61 6.3"/></svg>