<svg viewBox="0 0 128 128"><path fill="#82aec0" d="m44.3 77 1.9-1.8c2-1.6 7-5.5 9.9-3.9 1.6 1 1.4 4.1.8 5.4-1.5 3.3-5.4 6-7.7 8.7l-6 6c-3.2 3.2-6.3 6.8-9.8 9.8L7 123.6a1.7 1.7 0 0 1-2.4-2.3L27 94.7l13-13.2z"/><path fill="#2f7889" d="M56.9 76.6a33 33 0 0 0-5-5 24 24 0 0 0-7.6 5.4q-2 2.3-4.2 4.5l-4 4s-.2 2 2.1 4.4 4.3 2.2 4.3 2.2l.7-.7 6-6c2.3-2.7 6.1-5.4 7.6-8.7"/><path fill="#f44336" d="M40.8 81.6Q33.6 73.7 28.3 65a34 34 0 0 1-4-12A9.5 9.5 0 0 1 33 42.5c6.5-.6 16.6-.4 24 5L80.6 24l23.7 23.6-23.7 23.6c5.5 7.4 5.7 17.5 5.1 24a9.6 9.6 0 0 1-10.8 8.6c-4.9-.7-10-2.7-12.5-4.3a104 104 0 0 1-21.6-17.8"/><path fill="#f44336" d="m52.8 50.9 27.8-27s5.8 7.6 10.2 12 13.5 11.6 13.5 11.6l-27 27s-10 .9-17.3-6.5c-8.6-8.7-7.2-17.1-7.2-17.1"/><path fill="#c62828" d="M66 56.2c1.2 8.9 4.4 13.9 6.2 15.4 2.8 2.4 6.7 1.2 8.4-.4l23.7-23.7s-9.2-7-13.5-11.6-10.2-12-10.2-12L70 34a12 12 0 0 0-3.5 6.7c-.6 3.4-1.6 7.9-.5 15.4"/><path fill="#f44336" d="M78.9 5.5 68.4 16c-2 1.5-2 3.5-2 3.5-1.1 6 4.8 17.1 14.9 27.2 10 10.1 21.2 16 27.2 15 0 0 1.6 0 3.1-1.8l10.9-10.8z"/><path fill="#f44336" d="M122.5 49.1c-4.3 4.9-18-1.5-30.1-13.5s-18.1-25.5-13.5-30S96.8 7 108.9 19c11.8 11.5 18 25.1 13.6 30.1"/><path fill="#ff7555" d="M53.3 51.3c0-3.8-7.7-8.4-12.5-4.5-4 3.3-2.4 10.4-.3 14 2.3 4.2 5.5 8 9.7 10 4.2 2.1 10.6 1 8.4-3.1-3-5.5-5-8.1-5.3-16.4m39.1-18c19.2 18.9 26.1 15.3 27.5 14.2q1.5-1.2 1.6-3.4A27 27 0 0 0 118 32a63 63 0 0 0-20.4-21c-5.4-4-13.2-6.4-15.8-4-3.2 2.7-3.5 12.5 10.6 26.4"/></svg>