<svg xmlns="http://www.w3.org/2000/svg" width="1em" height="1em" viewBox="0 0 128 128"><defs><path id="j" fill="#795548" d="M34.52 19.19a.79.79 0 0 1-1.12 0l-1.71-1.71a.79.79 0 0 1 0-1.12l5.14-5.14 2.83 2.83z"/></defs><path fill="#eaa700" d="m31.22 4.78 92.16 92.16c.87.87.87 2.29 0 3.17l-21.84 21.84c-.87.87-2.29.87-3.17 0L6.21 29.79c-.87-.87-.87-2.29 0-3.17L28.05 4.78c.87-.88 2.29-.88 3.17 0"/><path fill="#bf8400" d="m31.22 4.78 88.04 88.04c.87.87-19.07 19.47-19.95 20.34l1.01 9.41s-1.08.25-1.95-.63L6.21 29.79c-.87-.87-.87-2.29 0-3.17L28.05 4.78c.87-.88 2.29-.88 3.17 0"/><linearGradient id="a" x1="58.7" x2="58.7" y1="72.594" y2="40.297" gradientTransform="rotate(45 8.302 213.424)scale(-1 1)" gradientUnits="userSpaceOnUse"><stop offset=".546" stop-color="#fdd835"/><stop offset=".893" stop-color="#f9a825"/></linearGradient><path fill="url(#a)" d="m31.22 4.78 89.69 89.69 2.86 2.86s-2.7.14-5.99 3.42-16.4 16.4-16.4 16.4c-.87.87-2.29.87-3.17 0L8.52 27.47c-.87-.87-.87-2.29 0-3.17L28.05 4.78c.87-.88 2.29-.88 3.17 0"/><path fill="#795548" d="M72.17 56.85a.79.79 0 0 1-1.12 0l-1.71-1.71a.79.79 0 0 1 0-1.12l5.14-5.14 2.83 2.83z"/><linearGradient id="b" x1="74.444" x2="75.653" y1="51.812" y2="50.509" gradientUnits="userSpaceOnUse"><stop offset="0" stop-color="#5d4037" stop-opacity="0"/><stop offset="1" stop-color="#5d4037"/></linearGradient><path fill="url(#b)" d="m77.73 51.29-1.99 1.99-2.83-2.83 1.99-1.99z"/><path fill="#795548" d="M53.34 38.02a.79.79 0 0 1-1.12 0l-1.71-1.71a.79.79 0 0 1 0-1.12l5.14-5.14 2.83 2.83z"/><linearGradient id="c" x1="55.618" x2="56.827" y1="32.986" y2="31.683" gradientUnits="userSpaceOnUse"><stop offset="0" stop-color="#5d4037" stop-opacity="0"/><stop offset="1" stop-color="#5d4037"/></linearGradient><path fill="url(#c)" d="m58.9 32.46-1.99 1.99-2.83-2.82 1.99-2z"/><path fill="#795548" d="M41.32 31.92a.79.79 0 0 1-1.12 0l-2.42-2.42a.79.79 0 0 1 0-1.12l8.52-8.52 3.54 3.54z"/><linearGradient id="d" x1="46.193" x2="47.418" y1="23.584" y2="22.265" gradientUnits="userSpaceOnUse"><stop offset="0" stop-color="#5d4037" stop-opacity="0"/><stop offset="1" stop-color="#5d4037"/></linearGradient><path fill="url(#d)" d="m49.84 23.4-1.99 1.99-3.54-3.53 2-1.99z"/><path fill="#795548" d="M91 75.67a.79.79 0 0 1-1.12 0l-1.71-1.71a.79.79 0 0 1 0-1.12l5.14-5.14 2.83 2.83z"/><linearGradient id="e" x1="93.27" x2="94.479" y1="70.638" y2="69.335" gradientUnits="userSpaceOnUse"><stop offset="0" stop-color="#5d4037" stop-opacity="0"/><stop offset="1" stop-color="#5d4037"/></linearGradient><path fill="url(#e)" d="m96.55 70.11-1.99 2-2.83-2.83 2-1.99z"/><path fill="#795548" d="M109.82 94.5a.79.79 0 0 1-1.12 0l-1.71-1.71a.79.79 0 0 1 0-1.12l5.14-5.14 2.83 2.83z"/><linearGradient id="f" x1="112.095" x2="113.304" y1="89.463" y2="88.161" gradientUnits="userSpaceOnUse"><stop offset="0" stop-color="#5d4037" stop-opacity="0"/><stop offset="1" stop-color="#5d4037"/></linearGradient><path fill="url(#f)" d="m115.38 88.94-1.99 1.99-2.83-2.83 1.99-1.99z"/><path fill="#795548" d="M60.15 50.75a.79.79 0 0 1-1.12 0l-2.42-2.42a.79.79 0 0 1 0-1.12l8.52-8.52 3.54 3.54z"/><linearGradient id="g" x1="65.019" x2="66.244" y1="42.41" y2="41.092" gradientUnits="userSpaceOnUse"><stop offset="0" stop-color="#5d4037" stop-opacity="0"/><stop offset="1" stop-color="#5d4037"/></linearGradient><path fill="url(#g)" d="m68.67 42.23-1.99 1.99-3.54-3.53 1.99-2z"/><path fill="#795548" d="M78.98 69.57a.79.79 0 0 1-1.12 0l-2.42-2.42a.79.79 0 0 1 0-1.12l8.52-8.52 3.54 3.54z"/><linearGradient id="h" x1="83.847" x2="85.072" y1="61.238" y2="59.919" gradientUnits="userSpaceOnUse"><stop offset="0" stop-color="#5d4037" stop-opacity="0"/><stop offset="1" stop-color="#5d4037"/></linearGradient><path fill="url(#h)" d="m87.5 61.06-2 1.99-3.53-3.54 1.99-1.99z"/><path fill="#795548" d="M97.8 88.4a.79.79 0 0 1-1.12 0l-2.42-2.42a.79.79 0 0 1 0-1.12l8.52-8.52 3.54 3.54z"/><linearGradient id="i" x1="102.671" x2="103.896" y1="80.062" y2="78.744" gradientUnits="userSpaceOnUse"><stop offset="0" stop-color="#5d4037" stop-opacity="0"/><stop offset="1" stop-color="#5d4037"/></linearGradient><path fill="url(#i)" d="m106.32 79.88-1.99 1.99-3.54-3.53 1.99-1.99z"/><use href="#j"/><linearGradient id="k" x1="36.792" x2="38.001" y1="14.16" y2="12.857" gradientUnits="userSpaceOnUse"><stop offset="0" stop-color="#5d4037" stop-opacity="0"/><stop offset="1" stop-color="#5d4037"/></linearGradient><path fill="url(#k)" d="m40.08 13.64-2 1.99-2.82-2.83 1.99-1.99z"/><use href="#j"/><linearGradient id="l" x1="36.792" x2="38.001" y1="14.16" y2="12.857" gradientUnits="userSpaceOnUse"><stop offset="0" stop-color="#5d4037" stop-opacity="0"/><stop offset="1" stop-color="#5d4037"/></linearGradient><path fill="url(#l)" d="m40.08 13.64-2 1.99-2.82-2.83 1.99-1.99z"/></svg>