<svg xmlns="http://www.w3.org/2000/svg" width="1em" height="1em" viewBox="0 0 128 128"><defs><path id="notoStraightRuler0" fill="#795548" d="M34.52 19.19a.79.79 0 0 1-1.12 0l-1.71-1.71a.79.79 0 0 1 0-1.12l5.14-5.14l2.83 2.83l-5.14 5.14z"/></defs><path fill="#EAA700" d="m31.22 4.78l92.16 92.16c.87.87.87 2.29 0 3.17l-21.84 21.84c-.87.87-2.29.87-3.17 0L6.21 29.79c-.87-.87-.87-2.29 0-3.17L28.05 4.78c.87-.88 2.29-.88 3.17 0z"/><path fill="#BF8400" d="m31.22 4.78l88.04 88.04c.87.87-19.07 19.47-19.95 20.34l1.01 9.41s-1.08.25-1.95-.63L6.21 29.79c-.87-.87-.87-2.29 0-3.17L28.05 4.78c.87-.88 2.29-.88 3.17 0z"/><linearGradient id="notoStraightRuler1" x1="58.7" x2="58.7" y1="72.594" y2="40.297" gradientTransform="scale(-1 1) rotate(-45 -8.302 213.424)" gradientUnits="userSpaceOnUse"><stop offset=".546" stop-color="#FDD835"/><stop offset=".893" stop-color="#F9A825"/></linearGradient><path fill="url(#notoStraightRuler1)" d="m31.22 4.78l89.69 89.69l2.86 2.86s-2.7.14-5.99 3.42s-16.4 16.4-16.4 16.4c-.87.87-2.29.87-3.17 0L8.52 27.47c-.87-.87-.87-2.29 0-3.17L28.05 4.78c.87-.88 2.29-.88 3.17 0z"/><path fill="#795548" d="M72.17 56.85a.79.79 0 0 1-1.12 0l-1.71-1.71a.79.79 0 0 1 0-1.12l5.14-5.14l2.83 2.83l-5.14 5.14z"/><linearGradient id="notoStraightRuler2" x1="74.444" x2="75.653" y1="51.812" y2="50.509" gradientUnits="userSpaceOnUse"><stop offset="0" stop-color="#5D4037" stop-opacity="0"/><stop offset="1" stop-color="#5D4037"/></linearGradient><path fill="url(#notoStraightRuler2)" d="m77.73 51.29l-1.99 1.99l-2.83-2.83l1.99-1.99z"/><path fill="#795548" d="M53.34 38.02a.79.79 0 0 1-1.12 0l-1.71-1.71a.79.79 0 0 1 0-1.12l5.14-5.14l2.83 2.83l-5.14 5.14z"/><linearGradient id="notoStraightRuler3" x1="55.618" x2="56.827" y1="32.986" y2="31.683" gradientUnits="userSpaceOnUse"><stop offset="0" stop-color="#5D4037" stop-opacity="0"/><stop offset="1" stop-color="#5D4037"/></linearGradient><path fill="url(#notoStraightRuler3)" d="m58.9 32.46l-1.99 1.99l-2.83-2.82l1.99-2z"/><path fill="#795548" d="M41.32 31.92a.79.79 0 0 1-1.12 0l-2.42-2.42a.79.79 0 0 1 0-1.12l8.52-8.52l3.54 3.54l-8.52 8.52z"/><linearGradient id="notoStraightRuler4" x1="46.193" x2="47.418" y1="23.584" y2="22.265" gradientUnits="userSpaceOnUse"><stop offset="0" stop-color="#5D4037" stop-opacity="0"/><stop offset="1" stop-color="#5D4037"/></linearGradient><path fill="url(#notoStraightRuler4)" d="m49.84 23.4l-1.99 1.99l-3.54-3.53l2-1.99z"/><path fill="#795548" d="M91 75.67a.79.79 0 0 1-1.12 0l-1.71-1.71a.79.79 0 0 1 0-1.12l5.14-5.14l2.83 2.83L91 75.67z"/><linearGradient id="notoStraightRuler5" x1="93.27" x2="94.479" y1="70.638" y2="69.335" gradientUnits="userSpaceOnUse"><stop offset="0" stop-color="#5D4037" stop-opacity="0"/><stop offset="1" stop-color="#5D4037"/></linearGradient><path fill="url(#notoStraightRuler5)" d="m96.55 70.11l-1.99 2l-2.83-2.83l2-1.99z"/><path fill="#795548" d="M109.82 94.5a.79.79 0 0 1-1.12 0l-1.71-1.71a.79.79 0 0 1 0-1.12l5.14-5.14l2.83 2.83l-5.14 5.14z"/><linearGradient id="notoStraightRuler6" x1="112.095" x2="113.304" y1="89.463" y2="88.161" gradientUnits="userSpaceOnUse"><stop offset="0" stop-color="#5D4037" stop-opacity="0"/><stop offset="1" stop-color="#5D4037"/></linearGradient><path fill="url(#notoStraightRuler6)" d="m115.38 88.94l-1.99 1.99l-2.83-2.83l1.99-1.99z"/><path fill="#795548" d="M60.15 50.75a.79.79 0 0 1-1.12 0l-2.42-2.42a.79.79 0 0 1 0-1.12l8.52-8.52l3.54 3.54l-8.52 8.52z"/><linearGradient id="notoStraightRuler7" x1="65.019" x2="66.244" y1="42.41" y2="41.092" gradientUnits="userSpaceOnUse"><stop offset="0" stop-color="#5D4037" stop-opacity="0"/><stop offset="1" stop-color="#5D4037"/></linearGradient><path fill="url(#notoStraightRuler7)" d="m68.67 42.23l-1.99 1.99l-3.54-3.53l1.99-2z"/><path fill="#795548" d="M78.98 69.57a.79.79 0 0 1-1.12 0l-2.42-2.42a.79.79 0 0 1 0-1.12l8.52-8.52l3.54 3.54l-8.52 8.52z"/><linearGradient id="notoStraightRuler8" x1="83.847" x2="85.072" y1="61.238" y2="59.919" gradientUnits="userSpaceOnUse"><stop offset="0" stop-color="#5D4037" stop-opacity="0"/><stop offset="1" stop-color="#5D4037"/></linearGradient><path fill="url(#notoStraightRuler8)" d="m87.5 61.06l-2 1.99l-3.53-3.54l1.99-1.99z"/><path fill="#795548" d="M97.8 88.4a.79.79 0 0 1-1.12 0l-2.42-2.42a.79.79 0 0 1 0-1.12l8.52-8.52l3.54 3.54l-8.52 8.52z"/><linearGradient id="notoStraightRuler9" x1="102.671" x2="103.896" y1="80.062" y2="78.744" gradientUnits="userSpaceOnUse"><stop offset="0" stop-color="#5D4037" stop-opacity="0"/><stop offset="1" stop-color="#5D4037"/></linearGradient><path fill="url(#notoStraightRuler9)" d="m106.32 79.88l-1.99 1.99l-3.54-3.53l1.99-1.99z"/><use href="#notoStraightRuler0"/><linearGradient id="notoStraightRulera" x1="36.792" x2="38.001" y1="14.16" y2="12.857" gradientUnits="userSpaceOnUse"><stop offset="0" stop-color="#5D4037" stop-opacity="0"/><stop offset="1" stop-color="#5D4037"/></linearGradient><path fill="url(#notoStraightRulera)" d="m40.08 13.64l-2 1.99l-2.82-2.83l1.99-1.99z"/><use href="#notoStraightRuler0"/><linearGradient id="notoStraightRulerb" x1="36.792" x2="38.001" y1="14.16" y2="12.857" gradientUnits="userSpaceOnUse"><stop offset="0" stop-color="#5D4037" stop-opacity="0"/><stop offset="1" stop-color="#5D4037"/></linearGradient><path fill="url(#notoStraightRulerb)" d="m40.08 13.64l-2 1.99l-2.82-2.83l1.99-1.99z"/></svg>