<svg viewBox="0 0 128 128"><defs><path id="a" fill="#0277bd" d="M12.4 49s-5.7 4.4-7.1 13.7c-1.6 9.8-3 24.2 4 29.8 5.3 4.1 21.5 2.1 29 5.6s30.1 20.5 50.4 18.3c24.1-2.7 32.6-13.2 34-16.2.9-2.2 3.4-6.1-10.2-11.6-10-4-17.7-10-24.7-15.3-6-4.6-27.7-17.8-27.7-17.8s-3.6-8.6-9.7-10c-4-.8-12.7 3.8-14.3 8-1.7 4.8.4 9.2.4 9.2-9.3 4.9-12.5 5.6-18.9 1.5S12.4 49 12.4 49"/></defs><path fill="#37474f" d="M25.2 70H23q-6-.3-9-3.9c-3.9-4.3-3.6-11-3.6-11.8v-.1c.3-.8 1-3.2 3-4.3q1.8-1 3.5-1a6 6 0 0 1 4 1.7c3.3 3 7 4.8 9.7 4.8l9-.4 3 10.3c-1.5 1.2-7 4.7-17.5 4.7"/><path fill="#90a4ae" d="M17 50q1.7 0 3.3 1.4c3.5 3.2 7.4 5.1 10.3 5.1l8.2-.4 2.7 8.7a29 29 0 0 1-18.4 4q-5.3-.1-8.2-3.4c-3.4-3.9-3.3-9.8-3.3-11 .2-.7.8-2.7 2.3-3.5q1.8-1 3-1m0-2.1a9 9 0 0 0-4 1.1c-2.7 1.4-3.4 4.7-3.5 5.1C9.4 54 8 70.5 23 71.1h2.2c13.4 0 18.8-5.5 18.8-5.5l-3.5-11.8s-7.5.5-9.8.5-5.8-1.7-9-4.5a7 7 0 0 0-4.7-2"/><path fill="#e0e0e0" d="M6.6 86.9c-1.5 5-1.3 13.8-1.3 13.8 0 1.4.9 4 3 4.7 10.7 4 23 3 29.5 6 7.5 3.4 31.7 14 52 11.7 24.1-2.7 31.8-13.6 33.1-16.6 1-2.2 1.6-10.4.6-10.7-10.2-3.5-48.5 11.7-55.5 6.4C62 97.7 8.1 81.8 6.6 87"/><use href="#a"/><use href="#a"/><path fill="#bdbdbd" d="M37.3 62.6q3.4-.6 6.7-.1c.1-2.4-1-5.2-2.3-7.2l-.8-1.5c-1-2.8 4.3-5.7 6.5-6.3q3.6-1 7.1.2a10 10 0 0 0-4-2.1c-3.7-.9-8.4 1.7-11.3 3.7-4.4 3.3-5.2 8-2.8 13q0 .2.3.3h.4z"/><path fill="#03a9f4" d="M92 76.5q-1.6-1.2-3.7-.7-.5 0-.8.3a17 17 0 0 0-6.2 4.7q-2.6 3.2-6 5c-3.2 1.6-5.9.8-9 .7q-4.4-.3-5.4 4.4c-.4 2 .6 5 2.4 6a47 47 0 0 0 19.4 6.6c8.8 1.2 18-.8 25.4-5.6 2.1-1.3 4.3-3 4.8-5.5.4-2-.7-3.9-2.5-4.7a93 93 0 0 1-18.3-11.2"/><path fill="#004a7c" d="M72.4 88.5a15 15 0 0 1-7.2-2.4c-3.8-2.2-19-12.1-23.5-15.2a14 14 0 0 1-5 4c-2 .8-3.6.6-5 .5s-2.7-.3-4.2.5c-2.1 1-4 2.5-6 3.5-2.3 1.1-6.5 1-8.6.2-5-1.9-5.7-4.5-6-5.6 2.5 1.8 5.6 3.6 9.2 3.5 5.2-.2 7.1-3.1 10-4.6 2.3-1.2 4.3-1 5.9-.8 1.3.1 2.3.3 3.5-.2 1.9-.8 3.8-3.2 4.4-4.1l1-1.4 1.3 1c.2 0 20.4 13.4 24.6 15.8 2.4 1.4 5.3 2.9 8 1.4 2.9-1.8 5.3-4.5 8-6.6q2-1.7 4.5-2.6 2.7-.8 5 .9c-5.5.3-9.9 5-13.2 8.8q-3.4 3.6-6.7 3.4"/><path fill="none" stroke="#9e9e9e" stroke-linecap="round" stroke-miterlimit="10" stroke-width="3.3" d="M62.7 75.7c1.5-5.5 5.4-10 7.9-13.7M55 70.5c0-5.6 5.5-13.3 6.4-14.1"/><path fill="none" stroke="#e0e0e0" stroke-linecap="round" stroke-miterlimit="10" stroke-width="3.3" d="M45.9 66.2a44 44 0 0 1 15.5-10.3M55 70.6A34 34 0 0 1 70.7 61"/><path fill="none" stroke="#9e9e9e" stroke-linecap="round" stroke-miterlimit="10" stroke-width="3.3" d="M71.3 79.3c1.5-4.2 4.3-8.8 6.8-12.5"/><path fill="none" stroke="#e0e0e0" stroke-linecap="round" stroke-miterlimit="10" stroke-width="3.3" d="M62.2 75.7a33 33 0 0 1 16.2-9.2"/><path fill="#03a9f4" d="m18.9 49.7-.5.2c-1 .3-1.6 0-2.7.2-1.3.3-2.7 1.6-3 3s-.1 2.7.3 4a16 16 0 0 0 4 6.6q.9.8 1.4 2 .5 1.8-.7 2-.4.3-1 .1-.9-.2-1.6-.7-2.7-1.5-4.8-3.7-1.5-1.5-2.2-3.4c-1.2-3-.2-6.3 1.7-8.8a8 8 0 0 1 5.2-3q1.4-.4 3.6-.2c.6.1.8 1.1.3 1.7"/><path fill="#37474f" d="m36.2 62-.4-.1q-.2.2-.5 0a6 6 0 0 1-1.6-2q-.8-1.4-1-2.7c-.1-2.7 2.8-3.2 2.8-3.2-.5 1.2-.5 2.7-.5 3.4 0 1.6.7 3.2 1.2 4.6"/><path fill="#82aec0" d="M8.3 105.3a44 44 0 0 0 7.4 1.6l7.6.7 7.7.7q3.8.3 7.8 1.8a204 204 0 0 0 28.7 9.4 84 84 0 0 0 22.2 1.9l7.5-1a53 53 0 0 0 20.6-8.4 25 25 0 0 0 5-5.5h.2a19 19 0 0 1-4.8 6q-2.9 2.6-6.3 4.4-6.8 3.6-14.4 5.1a65 65 0 0 1-30.5-.4q-15-3.4-29-10-3.4-1.4-7.3-1.9l-7.6-1q-7.6-.7-15-3.2z"/></svg>