<svg xmlns="http://www.w3.org/2000/svg" width="1em" height="1em" viewBox="0 0 128 128"><defs><path id="a" fill="#0277bd" d="M12.43 48.99S6.74 53.42 5.27 62.7C3.7 72.51 2.31 86.86 9.39 92.48c5.23 4.15 21.38 2.14 28.86 5.57s30.16 20.52 50.44 18.3c24.14-2.65 32.65-13.15 33.95-16.2.93-2.18 3.51-6.05-10.12-11.54-10.04-4.04-17.7-10.03-24.71-15.33-6.01-4.54-27.72-17.76-27.72-17.76s-3.63-8.62-9.66-9.97c-3.96-.89-12.77 3.78-14.33 8.04-1.73 4.73.42 9.09.42 9.09-9.34 4.88-12.56 5.61-18.9 1.56s-5.19-15.25-5.19-15.25"/></defs><path fill="#37474f" d="M25.19 70.04c-.69 0-1.39-.01-2.12-.05-3.88-.16-6.92-1.47-9.04-3.87-3.81-4.32-3.58-10.95-3.53-11.87l.03-.09c.23-.79.91-3.21 2.9-4.26 1.3-.69 2.47-1.02 3.57-1.02 1.43 0 2.75.56 4.04 1.72 3.29 2.96 6.98 4.8 9.62 4.8 1.89 0 6.94-.29 9-.42l3.12 10.29c-1.58 1.23-7.02 4.77-17.59 4.77"/><path fill="#90a4ae" d="M16.99 49.99c1.14 0 2.22.47 3.29 1.43 3.54 3.19 7.42 5.09 10.37 5.09 1.68 0 5.8-.23 8.19-.37l2.63 8.7c-2 1.36-7.12 4.07-16.28 4.07-.68 0-1.38-.01-2.07-.04-3.56-.15-6.33-1.32-8.24-3.48-3.4-3.85-3.32-9.81-3.27-10.96.2-.71.79-2.74 2.34-3.55 1.12-.6 2.12-.89 3.04-.89m0-2.23c-1.44 0-2.82.48-4.1 1.15-2.65 1.4-3.35 4.67-3.5 5.14 0 0-1.41 16.42 13.63 17.05.75.03 1.47.05 2.17.05 13.44 0 18.86-5.5 18.86-5.5l-3.58-11.84s-7.48.47-9.81.47-5.76-1.71-8.88-4.52c-1.63-1.45-3.24-2-4.79-2"/><path fill="#e0e0e0" d="M6.62 86.86c-1.51 5.02-1.36 13.88-1.36 13.88 0 1.41.89 3.87 2.95 4.65 10.82 4.07 23.15 3 29.59 5.95 7.48 3.43 31.72 13.98 52 11.75 24.14-2.65 31.8-13.55 33.11-16.59.93-2.18 1.56-10.44.62-10.75C113.27 92.33 75 107.51 68 102.22 61.99 97.68 8.13 81.84 6.62 86.86"/><use href="#a"/><use href="#a"/><path fill="#bdbdbd" d="M37.29 62.62c2.4-.4 4.36-.45 6.74-.15.1-2.41-1.06-5.15-2.3-7.17-.3-.49-.64-.97-.83-1.51-1-2.82 4.34-5.72 6.47-6.34 2.34-.69 4.89-.58 7.17.29-1.2-1.02-2.57-1.82-4.09-2.17-3.68-.83-8.36 1.7-11.21 3.78-4.42 3.21-5.26 8.02-2.85 12.96.06.13.14.27.26.33.13.07.29.05.44.02.05-.02.12-.03.2-.04"/><path fill="#03a9f4" d="M92.05 76.48c-1.08-.8-2.47-1.11-3.75-.71-.28.09-.56.19-.83.3-2.42 1-4.34 2.89-6.17 4.77-1.83 1.87-3.68 3.82-6.02 4.98-3.17 1.57-5.86.8-9.02.64-2.89-.14-4.69 1.36-5.34 4.39-.45 2.11.57 4.96 2.41 6.09 6.31 3.88 12.49 5.61 19.35 6.54 8.78 1.19 17.96-.82 25.44-5.56 2.12-1.34 4.24-3.1 4.76-5.56 0-.01.01-.03.01-.04.39-1.9-.7-3.82-2.48-4.61-7.1-3.14-13-7.23-18.36-11.23"/><path fill="#004a7c" d="M72.39 88.52c-2.44 0-4.86-1.09-7.21-2.43-3.77-2.15-18.94-12.13-23.52-15.15-1.06 1.27-2.85 3.12-4.95 3.98-1.98.81-3.62.63-5.07.48s-2.6-.28-4.16.5c-2.09 1.05-3.95 2.51-6.06 3.52-2.25 1.08-6.4.95-8.52.15-4.94-1.86-5.7-4.49-5.95-5.53 2.43 1.72 5.59 3.59 9.12 3.44 5.23-.22 7.13-3.12 9.94-4.53 2.42-1.21 4.39-1 5.98-.83 1.26.13 2.26.24 3.48-.26 1.92-.78 3.86-3.2 4.45-4.07l.91-1.35 1.36.9c.2.14 20.36 13.45 24.62 15.88 2.34 1.34 5.31 2.85 7.91 1.34 2.97-1.72 5.39-4.5 8.09-6.61 1.36-1.07 2.82-2.08 4.49-2.55 1.67-.46 3.61-.27 4.91.87-5.38.31-9.8 5.09-13.15 8.86-2.19 2.47-4.43 3.39-6.67 3.39"/><path fill="none" stroke="#9e9e9e" stroke-linecap="round" stroke-miterlimit="10" stroke-width="3.349" d="M62.68 75.71c1.56-5.5 5.39-9.97 7.89-13.71m-15.59 8.47c.02-5.52 5.52-13.28 6.45-14.12"/><path fill="none" stroke="#e0e0e0" stroke-linecap="round" stroke-miterlimit="10" stroke-width="3.349" d="M45.9 66.17c5.2-5.04 12.1-9.6 15.53-10.22m-6.45 14.52c4.25-4.52 9.77-7.83 15.76-9.45"/><path fill="none" stroke="#9e9e9e" stroke-linecap="round" stroke-miterlimit="10" stroke-width="3.349" d="M71.31 79.34c1.47-4.26 4.27-8.82 6.82-12.51"/><path fill="none" stroke="#e0e0e0" stroke-linecap="round" stroke-miterlimit="10" stroke-width="3.349" d="M62.2 75.71a32.97 32.97 0 0 1 16.15-9.2"/><path fill="#03a9f4" d="M18.86 49.68c-.11.11-.26.17-.42.22-1 .31-1.67-.06-2.69.18-1.34.32-2.75 1.63-3.08 2.97s-.1 2.75.29 4.06c.75 2.49 2.12 4.79 3.95 6.64.58.58 1.22 1.15 1.51 1.92s.06 1.81-.7 2.1c-.31.12-.66.1-.99.03-.59-.12-1.15-.39-1.68-.68-1.77-.97-3.39-2.23-4.75-3.72-.92-1-1.73-2.13-2.23-3.39-1.14-2.92-.2-6.3 1.72-8.78 1.4-1.81 2.8-2.62 5.23-3.11.77-.16 2.21-.36 3.56-.09.61.12.85 1.1.28 1.65"/><path fill="#37474f" d="M36.22 62c.03.08-.42-.18-.45-.1-.07.17-.32.1-.47 0-.74-.51-1.22-1.3-1.65-2.08-.45-.83-.85-1.72-.9-2.66-.15-2.7 2.79-3.12 2.79-3.12-.5 1.14-.49 2.62-.5 3.38-.02 1.53.62 3.16 1.18 4.58"/><path fill="#82aec0" d="M8.25 105.29c1.23.36 2.46.65 3.71.9 1.24.26 2.49.49 3.74.67 2.51.36 5.04.57 7.58.74 2.54.21 5.09.39 7.67.68 2.56.31 5.26.7 7.83 1.82 4.69 1.91 9.39 3.79 14.19 5.34 4.78 1.6 9.63 3 14.53 4.04 4.89 1.1 9.85 1.82 14.81 2.03 2.48.11 4.95.08 7.41-.15 2.49-.25 4.97-.56 7.44-.98 4.92-.86 9.76-2.27 14.23-4.47 2.25-1.07 4.42-2.34 6.38-3.9.98-.77 1.91-1.62 2.77-2.54.87-.91 1.68-1.89 2.28-3l.2.09c-1.1 2.35-2.87 4.28-4.77 5.99-1.92 1.71-4.07 3.14-6.31 4.37-4.51 2.45-9.43 4.06-14.43 5.12-5 1.04-10.12 1.7-15.25 1.53-5.12-.14-10.21-.87-15.22-1.95-10-2.21-19.67-5.73-28.96-9.97-2.29-1.09-4.82-1.56-7.33-1.95-2.52-.38-5.06-.64-7.6-.95-5.06-.62-10.16-1.44-14.97-3.25z"/></svg>