<svg viewBox="0 0 128 128"><path fill="#82aec0" d="m118.4 112.3-2.6-18.8H12.2s-2 16-2.6 18.8S15.2 124 64 124s55-8.8 54.4-11.7"/><path fill="#e0e0e0" d="M12.2 94c0-6 23.2-10.7 51.8-10.7s51.8 4.8 51.8 10.7-23.2 11.6-51.8 11.6S12.2 99.8 12.2 94"/><path fill="#f44336" d="M97.8 16.3C94.9 7.3 85.5 4 64 4S33 7.3 30.2 16.3C24.5 34.6 19.4 92 19.4 92s4.4 7.5 44.6 7.5 44.7-7.5 44.7-7.5-5.2-57.5-11-75.7"/><path fill="#c62828" d="M19.3 92.1c0-4.6 20-8.3 44.7-8.3s44.7 3.7 44.7 8.3-20 9.1-44.7 9.1-44.7-4.5-44.7-9" opacity=".9"/><radialGradient id="a" cx="64" cy="52.9" r="44" gradientTransform="translate(.558 .558)scale(.9913)" gradientUnits="userSpaceOnUse"><stop offset=".6" stop-color="#ff6e40"/><stop offset=".8" stop-color="#ff7046" stop-opacity=".5"/><stop offset="1" stop-color="#ff7555" stop-opacity="0"/></radialGradient><path fill="url(#a)" d="m72.6 35.7 21.8-22.5c.4-.4 1 .1.8.6L79 39.8q-1.7 4 2.6 4.1l20.7-.2c.5 0 .7.8.2 1L83.7 52c-2.6 1.1-3.1 3.8-1 5.6l23.5 17c.5.3.1 1-.4.8L79 64.4c-2.7-.8-4 .7-3.4 3.4l8.6 29c.1.5-.6.8-1 .3l-14.6-26c-1.6-2.4-3.5-2.8-4.8-.3l-14 26.6c-.3.5-1 .3-1-.3l7.3-28.8q.4-4-3.6-2.3L22.3 81.5c-.6.2-1-.4-.6-.8l25.4-21.1c2-2 1.9-4-.7-5l-21.2-7.2c-.6-.2-.5-1 0-1l21 .4c2.7-.2 4.1-3 2.7-5.3L32 17.3c-.3-.5.3-1 .7-.7L55.2 36c2.3 1.6 4.2 1.5 4.7-1.3l3.6-26c0-.5.9-.6 1 0L67.7 34c.7 2.7 2.8 3.5 4.9 1.6"/><path fill="#ffd5ca" d="m65.9 34 9.3-16.8c.3-.5 1-.3 1 .3l-3 18.4q-.3 4.3 3.9 3l18.3-6.1c.5-.2 1 .5.5.9L81.5 45.8c-2 2-1.6 4.7 1 5.6l18.3 6.2c.5.2.4 1-.1 1l-19.6.4c-2.7.1-3.4 2-2 4.4l9.8 16.8c.3.5-.3 1-.7.7L73.4 68.8c-2.2-1.7-4.1-1.5-4.6 1.2l-3.5 20c-.1.5-.9.5-1 0l-3.6-19.8q-1-3.9-4.2-1L41 82.2c-.4.3-1-.1-.8-.6l9.1-16.8c1.3-2.5.5-4.4-2.3-4.4l-19.6.2c-.6 0-.7-.8-.2-1L44.3 53c2.6-1 3-4.1 1-6L30.7 35.4c-.4-.3 0-1 .5-.9L49.5 40c2.6.8 4.5 0 4-2.7l-3.8-19c0-.6.7-.9 1-.4l10 16.3c1.5 2.3 3.8 2.4 5.2 0"/></svg>