<svg viewBox="0 0 128 128"><path d="M52.4 53.3c-1-1.7-3.1-5.3-18.5-5.7q-15.7-.6-18.8 4c-1 1.4-1.9 5-1 13.5 1.6 14.4 8.8 14.7 18 15.2h.6l2.8.1c13 0 15.2-5.6 16.9-13.5q2.2-10 0-13.6m60.3-1.8q-3-4.5-18.8-4c-15.4.5-17.5 4-18.5 5.8q-2.2 3.6 0 13.6c1.7 7.9 4 13.5 16.9 13.5h2.8l.7-.1c9.1-.5 16.3-.9 17.9-15.2.9-8.5 0-12-1-13.6"/><path fill="#616161" d="M123.8 47.8s-1-1.7-19-3.4c-19-1.8-28.4 2-32.3 4.4q-1.1.6-3.3.5H69l-5.6-.2h-.1l-5.2.2q-1.2.1-2.1-.2c-3.6-2.4-13-6.6-32.8-4.7-18 1.7-19 3.4-19 3.4L4 54.7s2.7.7 4.4 2.8 2.5 14.2 5.4 19.8C18.2 86 40 83.8 40 83.8s8.9.7 13.2-6.8c3.7-6.4 5.2-15.4 5.6-17.6.9-1 2.6-2 5.1-2.1 2.8 0 4.6 1.4 5.4 2.4.4 2.7 2 11.2 5.5 17.3 4.3 7.5 13.2 6.8 13.2 6.8s21.8 2.2 26.2-6.5c2.8-5.6 3.6-17.6 5.4-19.7 1.7-2.2 4.4-3 4.4-3zm-72.4 19c-1.7 8-4 13.3-18.6 12.5-9.6-.5-16.2-.5-17.7-14.3-.9-8.6.1-11.8.8-13 .7-1 3.2-4 18-3.4 14.7.4 16.8 3.7 17.7 5.2s1.6 4.9-.2 13m61.3-1.8c-1.5 13.8-8.1 13.8-17.6 14.3-14.8.8-17-4.6-18.7-12.6-1.8-8-1-11.4-.2-13s3-4.7 17.8-5.1c14.7-.5 17.2 2.5 17.9 3.5s1.7 4.3.8 13"/><path fill="#82aec0" d="M26.8 52.2c4.4-.8 5.8 1.3 5.4 3.2-.8 3.4-4.1 1.6-9 4.6q-2.8 2-3.7 2-1.2 0-1-2.1c.6-2.6 1.7-6.4 8.3-7.7m56.9 1c1.7-1 6.7-1.9 7.2.7.6 2.7-2 3.5-3.8 4-4.2 1.5-4.9 3.6-5.8 4.1-.6.4-2.3 1.2-2.1-1.3.2-3.3 1.3-5.7 4.5-7.5" opacity=".8"/></svg>