<svg viewBox="0 0 128 128"><circle cx="109.8" cy="11" r="4.7" fill="#00edcd"/><path fill="#81d4fa" d="m11.4 91 72.7-72.6.3-.4q1.1-1.8.7-4.3c-.2-2.8.5-4.3 1.9-5.3C88.8 7 95 7.3 106.8 19s12 18 10.6 19.8c-1 1.4-2.5 2-5.4 1.8q-2.3-.2-4.2.8l-.5.3-72.6 72.6c-10 10-19.5 8.5-25.6 2.4S1.3 101 11.3 91" opacity=".8"/><path fill="#1d44b3" d="M99.8 23.2a48 48 0 0 0-14.7-11v1.5q.1 1.8-.2 3.1 4.7 2.4 12 9.1a47 47 0 0 1 11.7 15q1.4-.4 3-.3c-.7-3.5-3.6-9.2-11.8-17.4" opacity=".4"/><path fill="#00bfa5" d="M54.2 48.5 11.6 91c-10.4 10.4-9 20-3 26s15.6 7.4 26-3L102 47z"/><circle cx="45.1" cy="77" r="5.1" fill="#00937a"/><circle cx="96.6" cy="37" r="4.8" fill="#00bfa5"/><circle cx="73.3" cy="57.3" r="2.9" fill="#fff" opacity=".7"/><circle cx="121.8" cy="12" r="2.2" fill="#00bfa5"/><circle cx="59.1" cy="72.5" r="4" fill="#00edcd"/><circle cx="63.8" cy="61.1" r="1.5" fill="#00edcd"/><path fill="none" stroke="#fff" stroke-linecap="round" stroke-miterlimit="10" stroke-width="4.2" d="M93.2 14.7a42 42 0 0 1 8.7 7.4" opacity=".6"/><path fill="#00edcd" d="M102 47c-.8.7-3.6 1.2-10.7 2.3q-5.8 1-13.8 1.7c-16.8 1.3-28.1-1-21.4-3.7 5.4-2.2 24.5-1.7 36.5-1.3 5.8.2 10 .4 9.4 1"/><path fill="#fff" d="M11.6 103.5c-1.7-.7-1-2.7 0-3.7l67.5-69.3c4.1-4.2 7.9-7.1 10-5.1 2.3 2.2 1.6 6.2-7.6 14.5L16.8 101c-.5.5-3.5 3.2-5.2 2.5" opacity=".6"/></svg>