<svg viewBox="0 0 128 128"><path fill="#e64a19" d="M43.9 12S57.2 5.2 64 5.2s20.1 6.6 20.1 6.6v103.6s-7.8-3.3-20.1-3.3-20.1 3.3-20.1 3.3z"/><path fill="#ff9100" d="M58 56.5c0-7.7-3.4-12.7-4.8-16a45 45 0 0 1-3.4-16.3A35 35 0 0 1 55 6.3a523 523 0 0 0-29.5 14.6s.6 19-1.7 27.8C20 62.9 12.2 68.9 12.2 68.9v48.4a266 266 0 0 0 36.3 5.5c2 .2 6.4-.6 8-1.9a8 8 0 0 0 2.7-5.9c.3-19.4-1.3-50.9-1.3-58.6"/><path fill="#ff0" d="M12.2 106c13.9 4.1 41.1 5.8 47 4.8l-.2-8.1c-5.9 0-32.7-.5-46.8-5.3zM59 84.3s-7.2.3-17.8-.8l1.3-71.4-8.3 4.2-1 66.5c-7.5-.8-15.4-2-21-4v8.6c13.9 4.2 41.1 6.5 47 5.5z"/><path fill="#616161" d="M11.6 69q-.1-1.8.4-2.2l1.1-1.3q1.6-1.9 2.8-3.8 3.3-4.4 5.3-9.5a71 71 0 0 0 3.3-20.6c.2-5.2-.4-10-.4-10s-.2-.5 1-1.1S27 20 27 20c.3 1.9.6 5.2.6 6.9.8 15.4-2.6 23.6-3.5 26.2a44 44 0 0 1-11.8 17.2s-.5-.3-.6-1.5"/><path fill="#ff9100" d="M70 56.5c0-7.7 3.4-12.7 4.8-16a45 45 0 0 0 3.4-16.3c.2-5.4-2.1-13.4-5.2-17.9a510 510 0 0 1 29.5 14.6s-.6 19 1.7 27.8a38 38 0 0 0 11.6 20.2v48a167 167 0 0 1-36.1 5.9c-2 0-6 .2-8.2-1.9-2.5-2.3-2.7-3.3-2.7-5.4-.2-19.5 1.3-51.4 1.3-59"/><path fill="#ff0" d="M115.7 106c-13.8 4.1-41 5.8-46.9 4.8l.2-8.1c5.9 0 32.7-.5 46.8-5.3zM94.8 83l-1-66.6s-5-2.7-8.3-4.2l1.3 71.4C78.4 84.7 69 85 69 85l-.2 8c5.4.7 33-1.2 47-5.4V79c-5.6 1.9-13.5 3.1-21 4"/><path fill="#616161" d="M116.4 69q.1-1.8-.4-2.2l-1.1-1.3-2.8-3.8q-3.3-4.4-5.3-9.5a71 71 0 0 1-3.3-20.6c-.2-5.2.4-10 .4-10s.2-.5-1-1.1-1.8-.4-1.8-.4l-.6 6.9c-.8 15.4 2.6 23.6 3.5 26.2 2.6 7.8 10 16.5 11.8 17.2 0 0 .5-.3.6-1.5m-.7 46c-.3.2-1.4.4-1.9.5-1.5.2-18.3 4.2-34.5 5.3-1.6.1-4.8.2-7.3-1.7-1-.8-1.5-2.6-1.5-3.6 0-6.3 1.3-55.9 1.3-56.4 0 0 .5-7 2.1-12 2.8-8.4 6-19.9 6-27Q80 12 76 8c-2.7-2.7-7.9-4-12-4s-9.3 1.3-12 4q-4 4-4 12c0 7.1 3.3 18.6 6 26.9 1.8 5.1 2.2 12 2.2 12.1l1.3 56.4c0 1-.4 2.8-1.5 3.6a11 11 0 0 1-7.3 1.7c-16.2-1.2-33-4.6-34.5-5l-2-.5s-.2 0-.2 1.3q0 1.2.4 1.5.4.5 1.6.8c1.7.6 8.4 1.5 17 3 5.5 1 13.7 2.1 16.6 2.2 3.9 0 7.7.3 11-2.8q2-2 2-4.8L59.1 59c0-.3-.4-7.4-2.2-13a100 100 0 0 1-6-26q0-6.6 3.1-9.7 3-3 10-3.1 6.7 0 9.8 3 3 3.3 3 9.8A97 97 0 0 1 71 46a62 62 0 0 0-2.3 13l-1.3 57.5q-.1 2.8 2 4.8c3.2 3 7 2.8 10.9 2.8a233 233 0 0 0 33.7-5.5q1.3-.4 1.6-.7l.3-1.5c0-1.4-.2-1.4-.2-1.4"/></svg>