<svg xmlns="http://www.w3.org/2000/svg" width="1em" height="1em" viewBox="0 0 128 128"><path fill="#E64A19" d="M43.86 11.94S57.2 5.25 64 5.25s20.14 6.69 20.14 6.69v103.52s-7.87-3.22-20.14-3.22s-20.14 3.22-20.14 3.22V11.94z"/><path fill="#FF9100" d="M57.92 56.45c0-7.67-3.33-12.66-4.72-15.91c-2.26-5.31-3.22-10.81-3.41-16.38c-.18-5.39 2.15-13.38 5.23-17.86c-8.39 3.55-29.34 14.3-29.55 14.56c0 0 .61 19-1.68 27.84C20.12 62.88 12.2 68.86 12.2 68.86v48.4c6.71 2.22 24.96 4.35 36.26 5.52c2.04.21 6.47-.54 8.05-1.84c1.67-1.37 2.71-3.77 2.74-5.93c.23-19.42-1.33-50.88-1.33-58.56z"/><path fill="#FF0" d="M12.23 105.94c13.87 4.17 41.09 5.89 46.95 4.86l-.19-8.12c-5.86-.02-32.74-.43-46.77-5.28l.01 8.54zm46.76-21.58s-7.17.35-17.81-.71l1.31-71.46c-3.21 1.48-8.33 4.16-8.33 4.16l-.99 66.59c-7.47-.8-15.36-2.05-20.95-3.98v8.54c13.87 4.17 41.11 6.51 46.96 5.48l-.19-8.62z"/><path fill="#616161" d="M11.63 68.91c-.08-1.19-.05-1.66.37-2.13c.36-.41.77-.9 1.11-1.33c.98-1.22 1.93-2.46 2.83-3.74c2.08-2.94 4.06-6.1 5.23-9.53c2.24-6.6 3.15-13.6 3.37-20.56c.17-5.2-.45-10.04-.45-10.04s-.21-.44 1.03-1.09c1.24-.65 1.76-.4 1.76-.4c.32 1.86.58 5.18.66 6.9c.78 15.38-2.62 23.58-3.5 26.17c-2.66 7.83-10.09 16.49-11.8 17.25c.02-.01-.52-.31-.61-1.5z"/><path fill="#FF9100" d="M70.08 56.45c0-7.67 3.33-12.66 4.72-15.91c2.26-5.31 3.22-10.81 3.41-16.38c.18-5.39-2.15-13.38-5.23-17.86c8.39 3.55 29.34 14.3 29.55 14.56c0 0-.61 19 1.68 27.84c3.67 14.18 11.59 20.16 11.59 20.16l-.05 48.1c-12.84 3.32-25.32 5.5-36.06 5.79c-2.05.05-6.05.23-8.21-1.81c-2.52-2.38-2.63-3.32-2.65-5.48c-.22-19.42 1.25-51.33 1.25-59.01z"/><path fill="#FF0" d="M115.73 105.94c-13.87 4.17-41.05 5.89-46.9 4.86l.19-8.12c5.86-.02 32.7-.43 46.73-5.28l-.02 8.54zm-20.89-23l-.99-66.59s-5.12-2.68-8.33-4.16l1.31 71.46c-8.4 1.1-17.81 1.22-17.81 1.22l-.19 8.12c5.37.65 33.05-1.31 46.92-5.48v-8.54c-5.6 1.92-13.44 3.17-20.91 3.97z"/><path fill="#616161" d="M116.37 68.91c.08-1.19.05-1.66-.37-2.13c-.36-.41-.77-.9-1.11-1.33c-.98-1.22-1.93-2.46-2.83-3.74c-2.08-2.94-4.06-6.1-5.23-9.53c-2.24-6.6-3.15-13.6-3.37-20.56c-.17-5.2.45-10.04.45-10.04s.21-.44-1.03-1.09c-1.24-.65-1.76-.4-1.76-.4c-.32 1.86-.58 5.18-.66 6.9c-.78 15.38 2.62 23.58 3.5 26.17c2.66 7.83 10.09 16.49 11.8 17.25c-.02-.01.52-.31.61-1.5zm-.62 46.03c-.36.16-1.43.4-1.94.48c-1.47.22-18.33 4.14-34.49 5.31c-1.62.07-4.78.15-7.32-1.75c-1.07-.8-1.49-2.61-1.48-3.56c.07-6.28 1.27-55.9 1.29-56.41c0-.01.45-6.97 2.13-12.1c2.72-8.33 5.98-19.77 6.04-26.96c.04-5.23-1.29-9.24-3.94-11.91C73.35 5.33 68.14 4 64 4s-9.35 1.33-12.03 4.03c-2.66 2.68-3.98 6.69-3.94 11.91c.06 7.19 3.31 18.63 6.04 26.96c1.68 5.13 2.12 12.09 2.13 12.1c.01.51 1.22 50.13 1.29 56.41c.01.94-.41 2.75-1.48 3.56c-2.53 1.91-5.7 1.83-7.32 1.75c-16.17-1.17-33-4.58-34.49-5c-.5-.14-1.58-.31-1.94-.48c0 0-.28-.03-.22 1.29c.03.79.1 1.25.31 1.51c.3.38.82.44 1.6.72c1.73.61 8.43 1.57 17.09 3.11c5.46.97 13.68 2.04 16.6 2.09c3.86.07 7.71.33 10.95-2.76c1.42-1.35 1.96-3.02 1.94-4.78c-.07-6.3-1.27-56.97-1.29-57.54c-.02-.3-.47-7.41-2.27-12.92c-3.81-11.65-5.85-20.66-5.89-26.04c-.03-4.39.99-7.67 3.06-9.75c1.99-2.01 5.4-3.03 9.87-3.11c4.47.08 7.87 1.1 9.87 3.11c2.07 2.08 3.09 5.36 3.06 9.75c-.04 5.38-2.08 14.39-5.89 26.04c-1.8 5.51-2.25 12.62-2.27 12.92c-.01.57-1.22 51.24-1.29 57.54c-.02 1.77.52 3.44 1.94 4.78c3.25 3.09 7.09 2.83 10.95 2.76c2.92-.05 11.14-1.12 16.6-2.09c8.66-1.53 15.35-2.83 17.09-3.39c.9-.29 1.3-.34 1.6-.72c.2-.26.27-.72.31-1.51c.05-1.31-.23-1.31-.23-1.31z"/></svg>