<svg xmlns="http://www.w3.org/2000/svg" xml:space="preserve" viewBox="0 0 40 40"><path d="M20 39C9.507 39 1 30.493 1 20S9.507 1 20 1s19 8.507 19 19-8.507 19-19 19" style="fill:#d4ffd7"/><path d="M20.082 1.94c9.94.019 17.95 8.112 17.944 18.13-.007 9.942-8.138 18.008-18.117 17.971-9.966-.037-17.984-8.136-17.95-18.141.035-9.904 8.034-17.975 18.123-17.96m-.076 22.23c2.035-4.055 3.941-7.87 5.865-11.674.375-.74-.051-.735-.58-.735-3.502.006-7.004.028-10.505-.016-1.022-.013-.843.357-.512.991.712 1.362 1.372 2.75 2.06 4.124 1.183 2.361 2.371 4.72 3.672 7.31m8.208-8.7c-.145.042-.201.042-.212.064-2.03 4.004-4.052 8.012-6.085 12.014-.349.688.083.676.55.676 1.578-.002 3.156-.041 4.73.02.82.031 1.036-.245 1.029-1.046-.037-3.886-.014-7.773-.012-11.728m-16.224.015-.216.084c-.002 3.882.02 7.764-.025 11.645-.01.833.264 1.049 1.051 1.021a72 72 0 0 1 4.612-.003c.9.027.836-.293.504-.929-.852-1.634-1.655-3.294-2.48-4.942q-1.722-3.439-3.446-6.876m-.96-7.068 17.918.008c-4.382-4.165-13.212-4.368-17.917-.008M8.48 10.922c-4.908 5.65-3.674 14.639-.009 17.942zm23.039 18.165c4.94-5.748 3.598-14.725.008-17.93zM10.88 31.539c5.973 4.979 14.822 3.497 17.958.008z" style="fill:#103b06"/></svg>