<svg xmlns="http://www.w3.org/2000/svg" width="128" height="128" fill="none" viewBox="0 0 128 128"><path fill="#000" d="M49.854 123.492c-1.979-.469-3.635-1.566-5.952-3.943-3.87-3.971-7.012-5.624-12.471-6.564-5.664-.975-8.18-3.08-9.693-8.108-1.868-6.206-3.82-9.178-8.11-12.346-4.865-3.594-6.113-6.764-4.926-12.507 1.1-5.32.679-9.101-1.555-13.964C4.48 60.26 4.81 57.16 8.597 52.405c3.47-4.357 4.56-7.238 5.079-13.431.524-6.25 2.263-8.815 7.385-10.89 4.274-1.732 7.93-4.739 9.958-8.188 2.344-3.99 2.686-4.446 4.139-5.53 2.344-1.749 4.239-2.233 7.848-2.007 6.27.393 9.63-.36 13.84-3.1 5.49-3.574 8.818-3.574 14.307 0 4.21 2.74 7.57 3.493 13.84 3.1 5.929-.372 8.396 1.184 12.01 7.577 1.79 3.167 5.451 6.25 9.458 7.965 5.706 2.442 7.364 4.67 7.785 10.463.456 6.273 1.742 9.78 5.149 14.041 3.794 4.745 4.125 7.848 1.457 13.655-2.233 4.863-2.655 8.645-1.555 13.964 1.188 5.743-.061 8.913-4.926 12.507-4.289 3.167-6.241 6.14-8.109 12.346-1.513 5.028-4.03 7.133-9.693 8.108-5.472.942-8.616 2.6-12.472 6.577-4.274 4.407-7.338 5.135-13.313 3.159-4.887-1.615-8.65-1.622-13.517-.024-3.41 1.119-5.227 1.314-7.414.795" opacity=".2"/><path fill="#fff" d="M49.854 122.321c-1.979-.47-3.635-1.567-5.952-3.944-3.87-3.97-7.012-5.624-12.471-6.563-5.664-.975-8.18-3.081-9.693-8.108-1.868-6.207-3.82-9.18-8.11-12.347-4.865-3.594-6.113-6.763-4.926-12.507 1.1-5.32.679-9.101-1.555-13.964-2.666-5.801-2.337-8.901 1.45-13.655 3.47-4.357 4.56-7.237 5.079-13.431.524-6.25 2.263-8.815 7.385-10.89 4.274-1.732 7.93-4.739 9.958-8.188 2.344-3.99 2.686-4.446 4.139-5.53 2.344-1.749 4.239-2.233 7.848-2.007 6.27.393 9.63-.36 13.84-3.1 5.49-3.574 8.818-3.574 14.307 0 4.21 2.74 7.57 3.493 13.84 3.1 5.929-.372 8.396 1.185 12.01 7.577 1.79 3.167 5.451 6.25 9.458 7.965 5.706 2.442 7.364 4.67 7.785 10.463.456 6.273 1.742 9.78 5.149 14.042 3.794 4.744 4.125 7.847 1.457 13.654-2.233 4.863-2.655 8.645-1.555 13.964 1.188 5.743-.061 8.913-4.926 12.507-4.289 3.168-6.241 6.14-8.109 12.347-1.513 5.027-4.03 7.133-9.693 8.108-5.472.941-8.616 2.6-12.472 6.576-4.274 4.408-7.338 5.135-13.313 3.16-4.887-1.616-8.65-1.623-13.517-.025-3.41 1.119-5.227 1.314-7.414.796"/><path fill="#3ddc84" d="M85.005 59.03a1.514 1.514 0 0 1 .7-2.026 1.514 1.514 0 0 1 2.026.7 1.514 1.514 0 0 1-.7 2.026 1.514 1.514 0 0 1-2.026-.7m7.327 15.06a1.513 1.513 0 0 1 .7-2.026 1.514 1.514 0 0 1 2.026.7 1.514 1.514 0 0 1-.7 2.026 1.513 1.513 0 0 1-2.026-.7m.64-19.541c-4.82-3.441-11.107-4.33-16.928-2.078l15.911 32.718c5.362-3.185 8.54-8.69 8.811-14.6l6.039.428a.626.626 0 0 0 .67-.587.625.625 0 0 0-.587-.67l-6.115-.437c-.06-2.575-.677-5.203-1.905-7.733-1.227-2.523-2.914-4.631-4.902-6.273l3.434-5.083a.63.63 0 0 0-1.04-.708l-3.388 5.015"/><path fill="#4285f4" d="M78.303 66.868c-4.488 2.169-9.315 3.268-14.345 3.268a33 33 0 0 1-27.628-14.91 1.506 1.506 0 0 0-2.154-.383l-5.775 4.254a1.52 1.52 0 0 0-.347 2.078 43.19 43.19 0 0 0 35.904 19.142c6.574 0 12.892-1.438 18.773-4.277zM63.906 30.67h3.125v-6.904c0-1.725-1.4-3.125-3.125-3.125a3.127 3.127 0 0 0-3.125 3.125v6.905z"/><path fill="#4285f4" d="M55.773 44.15 34.289 88.367a7.3 7.3 0 0 0-.738 3.057l-.128 5.791c-.03 1.498 1.702 2.342 2.862 1.393l4.473-3.675a7.3 7.3 0 0 0 1.95-2.47l21.175-43.592-8.103-4.714zM94.267 91.417a7.4 7.4 0 0 0-.738-3.058L72.046 44.143l-8.103 4.73 21.175 43.576a7.4 7.4 0 0 0 1.95 2.47l4.473 3.675c1.16.949 2.9.105 2.862-1.393l-.128-5.79z"/><path fill="#073042" d="M63.905 30.121c-5.173 0-9.375 4.21-9.375 9.375 0 5.166 4.21 9.375 9.375 9.375 5.166 0 9.375-4.21 9.375-9.375 0-5.166-4.209-9.375-9.375-9.375m0 14.533a5.166 5.166 0 0 1-5.158-5.158 5.16 5.16 0 0 1 5.158-5.158 5.16 5.16 0 0 1 5.159 5.158 5.16 5.16 0 0 1-5.159 5.158"/></svg>