<svg fill="none" viewBox="0 0 128 128"><path fill="#000" d="M49.9 123.5c-2-.5-3.7-1.6-6-4a20 20 0 0 0-12.5-6.5c-5.6-1-8.1-3-9.7-8.1a21 21 0 0 0-8-12.4c-5-3.6-6.2-6.7-5-12.5 1.1-5.3.7-9-1.6-14-2.6-5.7-2.3-8.8 1.5-13.6a20 20 0 0 0 5-13.4c.6-6.3 2.3-8.8 7.5-11 4.2-1.6 7.9-4.7 10-8.1 2.3-4 2.6-4.4 4-5.5 2.4-1.8 4.3-2.3 8-2 6.2.4 9.5-.4 13.7-3.1 5.5-3.6 8.9-3.6 14.4 0 4.2 2.7 7.5 3.5 13.8 3 6-.3 8.4 1.2 12 7.6 1.8 3.2 5.5 6.3 9.5 8 5.7 2.4 7.3 4.7 7.7 10.5.5 6.2 1.8 9.7 5.2 14 3.8 4.8 4.1 7.9 1.5 13.7a20 20 0 0 0-1.6 14c1.2 5.7 0 8.8-5 12.4a21 21 0 0 0-8 12.4c-1.6 5-4 7.1-9.7 8a20 20 0 0 0-12.5 6.7c-4.3 4.4-7.3 5.1-13.3 3.1a20 20 0 0 0-13.5 0c-3.4 1.1-5.3 1.3-7.4.8" opacity=".2"/><path fill="#fff" d="M49.9 122.3c-2-.4-3.7-1.5-6-4a20 20 0 0 0-12.5-6.5c-5.6-1-8.1-3-9.7-8-1.8-6.3-3.8-9.3-8-12.4-5-3.6-6.2-6.8-5-12.5a20 20 0 0 0-1.6-14c-2.6-5.8-2.3-9 1.5-13.7 3.5-4.3 4.6-7.2 5-13.4.6-6.2 2.3-8.8 7.5-10.9a21 21 0 0 0 10-8.2c2.3-4 2.6-4.4 4-5.5 2.4-1.8 4.3-2.2 8-2 6.2.4 9.5-.4 13.7-3.1 5.5-3.6 8.9-3.6 14.4 0 4.2 2.7 7.5 3.5 13.8 3 6-.3 8.4 1.3 12 7.7 1.8 3.1 5.5 6.2 9.5 8 5.7 2.4 7.3 4.6 7.7 10.4.5 6.3 1.8 9.8 5.2 14 3.8 4.8 4.1 7.9 1.5 13.7a20 20 0 0 0-1.6 14c1.2 5.7 0 8.9-5 12.5-4.2 3.1-6.2 6.1-8 12.3-1.6 5-4 7.1-9.7 8.1a20 20 0 0 0-12.5 6.6c-4.3 4.4-7.3 5.1-13.3 3.1a20 20 0 0 0-13.5 0c-3.4 1.1-5.3 1.3-7.4.8"/><path fill="#3ddc84" d="M85 59a1.5 1.5 0 0 1 .7-2 1.5 1.5 0 0 1 2 .7 1.5 1.5 0 0 1-.7 2 1.5 1.5 0 0 1-2-.7m7.3 15a1.5 1.5 0 0 1 .7-2 1.5 1.5 0 0 1 2 .8 1.5 1.5 0 0 1-.6 2 1.5 1.5 0 0 1-2-.7m.6-19.6a18 18 0 0 0-17-2l16 32.7c5.3-3.2 8.5-8.7 8.8-14.6l6 .4a.6.6 0 0 0 .7-.6l-.6-.6-6.1-.5a19 19 0 0 0-6.8-14l3.4-5a.6.6 0 0 0-1-.8z"/><path fill="#4285f4" d="M78.3 66.9A33 33 0 0 1 64 70a33 33 0 0 1-27.7-14.9 1.5 1.5 0 0 0-2.1-.4L28.4 59a1.5 1.5 0 0 0-.3 2A43 43 0 0 0 64 80.4q9.9 0 18.7-4.3zM63.9 30.7H67v-7a3 3 0 0 0-3-3 3 3 0 0 0-3.2 3v7z"/><path fill="#4285f4" d="M55.8 44.2 34.3 88.4a7 7 0 0 0-.7 3l-.2 5.8c0 1.5 1.7 2.4 2.9 1.4l4.5-3.7a7 7 0 0 0 2-2.4l21-43.6zm38.5 47.2a7 7 0 0 0-.8-3L72 44l-8 5 21 43.4a7 7 0 0 0 2 2.5l4.4 3.7c1.2 1 3 .1 2.9-1.4z"/><path fill="#073042" d="M64 30.1A9.4 9.4 0 1 0 64 49a9.4 9.4 0 0 0 0-19m0 14.6a5 5 0 0 1-5.3-5.2 5 5 0 0 1 5.2-5.2 5 5 0 0 1 5.2 5.2 5 5 0 0 1-5.2 5.2"/></svg>