<svg xmlns="http://www.w3.org/2000/svg" width="678" height="674" fill="none" viewBox="0 0 678 674"><g clip-path="url(#a)"><path fill="#134f4a" d="M657.862 293.174c8.719 20.637 13.079 30.955 13.15 41.856s-4.154 21.275-12.604 42.024l-1.943 4.771c-3.8 9.33-5.7 13.994-6.716 18.899-1.015 4.905-1.124 9.941-1.343 20.012l-.112 5.183c-.484 22.349-.726 33.524-5.104 43.483-4.377 9.959-12.447 17.693-28.586 33.161l-3.981 3.817c-7.244 6.942-10.866 10.413-13.784 14.46-2.918 4.046-5.068 8.578-9.368 17.643l-2.396 5.05c-9.533 20.095-14.3 30.143-22.316 37.42s-18.475 11.055-39.395 18.609l-5.672 2.049c-9.386 3.389-14.079 5.084-18.367 7.581s-8.078 5.744-15.657 12.235l-4.631 3.967c-16.815 14.402-25.222 21.603-35.457 24.986-10.235 3.384-21.278 2.613-43.364 1.07l-6.342-.443c-9.923-.693-14.885-1.039-19.802-.493s-9.681 1.972-19.211 4.825l-6.105 1.828c-21.186 6.342-31.779 9.514-42.496 8.463-10.717-1.05-20.493-6.218-40.044-16.554l-5.553-2.936c-8.804-4.654-13.207-6.981-17.929-8.472s-9.663-2.114-19.544-3.358l-6.188-.78c-22.01-2.773-33.015-4.159-42.414-9.479s-16.253-14.041-29.96-31.483l-3.617-4.602c-6.182-7.867-9.273-11.801-13.002-15.094s-8.015-5.874-16.586-11.036l-4.948-2.98c-19.105-11.506-28.657-17.259-35.114-25.984s-9.167-19.542-14.586-41.176l-1.301-5.192c-2.444-9.756-3.666-14.634-5.74-19.184s-4.956-8.672-10.717-16.916l-3.033-4.339c-12.826-18.353-19.24-27.529-21.584-38.169s-.383-21.662 3.54-43.706l.896-5.033c1.766-9.924 2.65-14.886 2.617-19.898-.033-5.011-.98-9.961-2.876-19.861l-.961-5.022c-4.21-21.991-6.316-32.986-4.11-43.656 2.207-10.67 8.5-19.929 21.086-38.447l2.976-4.378c5.654-8.318 8.48-12.477 10.496-17.054 2.014-4.577 3.173-9.47 5.49-19.257l1.233-5.209c5.137-21.702 7.706-32.553 14.048-41.362 6.343-8.808 15.82-14.685 34.773-26.439l4.909-3.044c8.503-5.273 12.755-7.91 16.441-11.251 3.686-3.342 6.725-7.315 12.805-15.262l3.556-4.649c13.479-17.62 20.218-26.43 29.547-31.871 9.33-5.442 20.316-6.971 42.288-10.03l6.177-.86c9.864-1.373 14.796-2.06 19.499-3.612s9.074-3.937 17.817-8.706l5.514-3.007c19.415-10.59 29.122-15.885 39.825-17.075 10.702-1.19 21.335 1.843 42.602 7.91l6.129 1.748c9.566 2.728 14.349 4.093 19.273 4.574 4.923.482 9.88.071 19.793-.751l6.336-.525c22.064-1.83 33.096-2.745 43.374.505s18.778 10.34 35.779 24.523l4.682 3.905c7.663 6.393 11.495 9.589 15.815 12.03 4.32 2.442 9.035 4.075 18.464 7.342l5.699 1.974c21.016 7.282 31.524 10.922 39.634 18.095s13.007 17.157 22.801 37.126l2.461 5.018c4.419 9.009 6.628 13.513 9.598 17.521s6.637 7.432 13.971 14.279l4.031 3.764c16.339 15.257 24.508 22.885 29.015 32.786s4.895 21.072 5.67 43.413l.179 5.181c.35 10.068.524 15.102 1.604 19.993 1.079 4.891 3.04 9.531 6.961 18.811z"/><path fill="#4ce4b9" fill-opacity=".8" d="M283.022 325.254c-20.037 0-35.928-16.319-35.928-36.895 0-20.575 15.891-36.894 35.928-36.894s35.928 16.319 35.928 36.894c0 19.867-15.891 36.895-35.928 36.895"/><path fill="#4ce4b9" fill-opacity=".8" d="M283.022 325.254c-20.037 0-35.928-16.319-35.928-36.895 0-20.575 15.891-36.894 35.928-36.894s35.928 16.319 35.928 36.894c0 19.867-15.891 36.895-35.928 36.895"/><path fill="#4ce4b9" fill-opacity=".8" d="M474.407 172h-60.111c-12.436 0-22.8 8.514-25.564 19.866H258.838c-44.219 0-80.838 36.895-80.838 83.013v145.45c0 10.642 2.073 20.576 5.527 29.799 6.91 19.157 18.655 34.057 37.31 43.28 10.364 5.676 22.11 8.514 33.165 9.224h138.876c44.219 0 80.838-36.895 80.838-83.013V288.36c14.509 0 26.255-12.771 26.255-27.671v-61.728c.691-14.899-11.055-26.961-25.564-26.961m-54.583 39.733 11.745-11.353 7.601-7.804c4.145-4.257 9.673-4.257 13.127 0l9.673 9.933 9.673 9.224c2.073 2.128 3.455 4.966 3.455 7.095 0 2.838-.691 5.676-2.764 7.095-4.146 4.257-10.364 4.257-14.509.709l-2.073-2.128v34.766c0 5.676-4.837 10.642-10.364 10.642s-10.364-4.966-10.364-10.642v-33.347l-1.382 1.419c-4.145 3.547-10.364 3.547-14.509-.71-2.073-2.128-2.764-4.966-2.764-7.095 0-2.838 1.382-5.676 3.455-7.804m33.164 87.269v58.89l-6.218-3.548c-12.437-7.095-26.946-5.676-38.001 3.548-20.728 17.738-40.074 34.766-60.111 52.504-14.509 12.061-31.091 12.061-45.601 0-6.218-6.386-14.509-10.643-23.491-10.643-6.218 0-13.128 2.838-19.346 6.386-17.964 12.061-35.237 24.123-53.201 36.185-3.455-7.096-4.837-15.61-4.837-24.124V278.427c0-32.638 25.565-58.89 57.347-58.89h128.512v41.152c0 14.9 11.746 27.671 26.946 27.671h38.001v10.642"/><path fill="#4ce4b9" fill-opacity=".8" d="M474.407 172h-60.111c-12.436 0-22.8 8.514-25.564 19.866H258.838c-44.219 0-80.838 36.895-80.838 83.013v145.45c0 10.642 2.073 20.576 5.527 29.799 6.91 19.157 18.655 34.057 37.31 43.28 10.364 5.676 22.11 8.514 33.165 9.224h138.876c44.219 0 80.838-36.895 80.838-83.013V288.36c14.509 0 26.255-12.771 26.255-27.671v-61.728c.691-14.899-11.055-26.961-25.564-26.961m-54.583 39.733 11.745-11.353 7.601-7.804c4.145-4.257 9.673-4.257 13.127 0l9.673 9.933 9.673 9.224c2.073 2.128 3.455 4.966 3.455 7.095 0 2.838-.691 5.676-2.764 7.095-4.146 4.257-10.364 4.257-14.509.709l-2.073-2.128v34.766c0 5.676-4.837 10.642-10.364 10.642s-10.364-4.966-10.364-10.642v-33.347l-1.382 1.419c-4.145 3.547-10.364 3.547-14.509-.71-2.073-2.128-2.764-4.966-2.764-7.095 0-2.838 1.382-5.676 3.455-7.804m33.164 87.269v58.89l-6.218-3.548c-12.437-7.095-26.946-5.676-38.001 3.548-20.728 17.738-40.074 34.766-60.111 52.504-14.509 12.061-31.091 12.061-45.601 0-6.218-6.386-14.509-10.643-23.491-10.643-6.218 0-13.128 2.838-19.346 6.386-17.964 12.061-35.237 24.123-53.201 36.185-3.455-7.096-4.837-15.61-4.837-24.124V278.427c0-32.638 25.565-58.89 57.347-58.89h128.512v41.152c0 14.9 11.746 27.671 26.946 27.671h38.001v10.642"/></g><defs><clipPath id="a"><path fill="#fff" d="M0 0h678v674H0z"/></clipPath></defs></svg>