<svg xmlns="http://www.w3.org/2000/svg" width="678" height="674" fill="none" viewBox="0 0 678 674"><g clip-path="url(#a)"><path fill="#274f13" d="M657.861 293.174c8.719 20.637 13.079 30.955 13.15 41.856s-4.154 21.275-12.604 42.024l-1.943 4.771c-3.8 9.33-5.7 13.994-6.716 18.899-1.015 4.905-1.124 9.941-1.343 20.012l-.112 5.183c-.484 22.349-.726 33.524-5.104 43.483-4.377 9.959-12.447 17.693-28.586 33.161l-3.981 3.817c-7.244 6.942-10.866 10.413-13.784 14.46-2.918 4.046-5.068 8.578-9.368 17.643l-2.396 5.05c-9.533 20.095-14.3 30.143-22.316 37.42s-18.475 11.055-39.395 18.609l-5.672 2.049c-9.386 3.389-14.079 5.084-18.367 7.581s-8.078 5.744-15.657 12.235l-4.631 3.967c-16.815 14.402-25.222 21.603-35.457 24.986-10.235 3.384-21.278 2.613-43.363 1.07l-6.343-.443c-9.923-.693-14.885-1.039-19.802-.493s-9.681 1.972-19.211 4.825l-6.105 1.828c-21.186 6.342-31.779 9.514-42.496 8.463-10.717-1.05-20.493-6.218-40.044-16.554l-5.553-2.936c-8.804-4.654-13.207-6.981-17.929-8.472s-9.663-2.114-19.544-3.358l-6.188-.78c-22.01-2.773-33.015-4.159-42.414-9.479s-16.253-14.041-29.96-31.483l-3.617-4.602c-6.182-7.867-9.273-11.801-13.002-15.094s-8.015-5.874-16.586-11.036l-4.948-2.98c-19.105-11.506-28.657-17.259-35.114-25.984s-9.167-19.542-14.586-41.176l-1.301-5.192c-2.444-9.756-3.666-14.634-5.74-19.184s-4.955-8.672-10.717-16.916l-3.033-4.339c-12.826-18.353-19.24-27.529-21.584-38.169s-.383-21.662 3.54-43.706l.896-5.033c1.766-9.924 2.65-14.886 2.617-19.898-.033-5.011-.98-9.961-2.876-19.861l-.961-5.022c-4.21-21.991-6.316-32.986-4.11-43.656 2.207-10.67 8.5-19.929 21.086-38.447l2.976-4.378c5.654-8.318 8.48-12.477 10.496-17.054 2.014-4.577 3.173-9.47 5.49-19.257l1.233-5.209c5.137-21.702 7.706-32.553 14.049-41.362 6.342-8.808 15.819-14.685 34.772-26.439l4.909-3.044c8.503-5.273 12.755-7.91 16.441-11.251 3.686-3.342 6.725-7.315 12.805-15.262l3.556-4.649c13.479-17.62 20.218-26.43 29.548-31.871 9.329-5.442 20.315-6.971 42.287-10.03l6.177-.86c9.864-1.373 14.796-2.06 19.499-3.612s9.074-3.937 17.817-8.706l5.514-3.007c19.415-10.59 29.122-15.885 39.825-17.075 10.702-1.19 21.336 1.843 42.602 7.91l6.129 1.748c9.566 2.728 14.349 4.093 19.273 4.574 4.923.482 9.88.071 19.793-.751l6.336-.525c22.064-1.83 33.096-2.745 43.374.505s18.778 10.34 35.779 24.523l4.682 3.905c7.663 6.393 11.495 9.589 15.815 12.03 4.32 2.442 9.035 4.075 18.464 7.342l5.699 1.974c21.016 7.282 31.524 10.922 39.634 18.095s13.007 17.157 22.801 37.126l2.461 5.018c4.419 9.009 6.628 13.513 9.598 17.521s6.637 7.432 13.971 14.279l4.031 3.764c16.339 15.257 24.508 22.885 29.015 32.786s4.895 21.072 5.67 43.413l.179 5.181c.35 10.068.524 15.102 1.604 19.993 1.079 4.891 3.04 9.531 6.961 18.811z"/><path fill="#9ce44c" fill-rule="evenodd" d="M378.601 269.808v25.415q0 6.546 4.581 10.974 4.58 4.428 11.352 4.428h26.29q3.186 0 6.174-1.155t5.377-3.465l82.853-80.095q3.585-3.466 5.179-7.894 1.593-4.428 1.593-8.664t-1.792-8.472a26.7 26.7 0 0 0-4.98-7.701l-14.738-14.248q-3.585-3.465-7.966-5.198a24.7 24.7 0 0 0-9.162-1.733q-4.382 0-8.763 1.54t-7.967 5.006l-83.251 80.095q-2.391 2.31-3.585 5.198a15.5 15.5 0 0 0-1.195 5.969m39.036 17.713h-15.136v-14.632l48.596-46.594 14.738 14.248z" clip-rule="evenodd"/><path fill="#9ce44c" d="M460.581 351.653c0-19.07-.014-34.538-.419-47.452l26.834-25.941c2.054 18.495 2.054 42.071 2.054 73.393 0 63.328 0 94.992-16.975 117.014a84.3 84.3 0 0 1-17.506 16.923C431.789 502 399.034 502 333.525 502s-98.264 0-121.044-16.41a84.3 84.3 0 0 1-17.506-16.923C178 446.645 178 414.981 178 351.653c0-63.329 0-94.993 16.975-117.015a84.3 84.3 0 0 1 17.506-16.923c22.78-16.41 55.535-16.41 121.044-16.41 35.495 0 61.374 0 81.261 2.61l-26.396 25.517c-14.469-.588-32.21-.606-54.865-.606-33.402 0-56.122.039-73.422 1.885-16.749 1.787-24.94 4.987-30.611 9.072a56.3 56.3 0 0 0-11.689 11.299c-4.226 5.483-7.535 13.401-9.384 29.593-1.909 16.724-1.95 38.688-1.95 70.978s.041 54.253 1.95 70.977c.415 3.639.905 6.859 1.461 9.728l.277-.195c25.763-18.156 52.428-36.95 75.246-24.232l19.507 11.595c19.054 11.418 40.977-8.039 64.787-29.17 16.046-14.241 32.948-29.242 50.407-36.065 15.942-6.23 26.629-.871 40.47 10.251.006-4.106.007-8.398.007-12.889"/><path fill="#9ce44c" d="M252.072 302.726c0 18.048 14.807 32.363 33.477 32.363 18.671 0 33.478-14.937 33.478-32.363 0-18.049-14.807-32.363-33.478-32.363s-33.477 14.314-33.477 32.363"/></g><defs><clipPath id="a"><path fill="#fff" d="M0 0h678v674H0z"/></clipPath></defs></svg>