<svg fill="none" viewBox="0 0 678 674"><g clip-path="url(#a)"><path fill="#274f13" d="M657.9 293.2c8.7 20.6 13 31 13.1 41.8s-4.1 21.3-12.6 42l-2 4.8c-3.7 9.4-5.6 14-6.7 19-1 4.8-1 9.9-1.3 20l-.1 5.1c-.5 22.4-.7 33.5-5.1 43.5s-12.5 17.7-28.6 33.2l-4 3.8c-7.2 7-10.8 10.4-13.8 14.4-2.9 4-5 8.6-9.3 17.7l-2.4 5c-9.6 20.1-14.3 30.2-22.3 37.5s-18.5 11-39.4 18.6l-5.7 2c-9.4 3.4-14 5-18.4 7.6s-8 5.7-15.6 12.2l-4.7 4c-16.8 14.4-25.2 21.6-35.4 25-10.3 3.4-21.3 2.6-43.4 1l-6.3-.4c-10-.7-15-1-19.8-.5s-9.7 2-19.2 4.8l-6.1 1.9c-21.2 6.3-31.8 9.5-42.5 8.4-10.8-1-20.5-6.2-40-16.5l-5.6-3c-8.8-4.6-13.2-7-18-8.4s-9.6-2.1-19.5-3.4l-6.2-.8c-22-2.7-33-4.1-42.4-9.4s-16.3-14-30-31.5L141 588c-6.2-7.9-9.3-11.8-13-15.1s-8-5.9-16.6-11l-5-3c-19-11.5-28.6-17.3-35-26s-9.2-19.6-14.6-41.2l-1.3-5.2c-2.5-9.8-3.7-14.6-5.8-19.2s-5-8.7-10.7-16.9l-3-4.3c-12.8-18.4-19.3-27.6-21.6-38.2s-.4-21.7 3.5-43.7l1-5c1.7-10 2.6-15 2.6-20s-1-9.9-3-19.8l-.9-5c-4.2-22-6.3-33-4.1-43.7 2.2-10.6 8.5-20 21-38.4l3-4.4c5.7-8.3 8.5-12.5 10.6-17s3.1-9.5 5.5-19.3l1.2-5.2c5.1-21.7 7.7-32.6 14-41.4 6.4-8.8 15.9-14.7 34.8-26.4l5-3c8.4-5.3 12.7-8 16.4-11.3s6.7-7.3 12.8-15.3l3.5-4.6c13.5-17.7 20.2-26.5 29.6-31.9 9.3-5.4 20.3-7 42.3-10l6.1-.9c9.9-1.4 14.8-2 19.5-3.6s9.1-4 17.8-8.7l5.6-3c19.4-10.6 29-15.9 39.8-17C312.7 8 323.3 11 344.6 17l6.1 1.8c9.6 2.7 14.4 4 19.3 4.5s9.9.1 19.8-.7l6.3-.5c22-1.9 33.1-2.8 43.4.5s18.8 10.3 35.8 24.5L480 51c7.6 6.4 11.4 9.6 15.8 12 4.3 2.5 9 4.1 18.4 7.4l5.7 2c21 7.2 31.6 10.9 39.7 18s13 17.2 22.8 37.2l2.4 5c4.4 9 6.7 13.5 9.6 17.5s6.7 7.4 14 14.3l4 3.7c16.4 15.3 24.5 23 29 32.8s5 21.1 5.7 43.4l.2 5.2c.3 10 .5 15.1 1.6 20 1 5 3 9.5 7 18.8z"/><path fill="#9ce44c" fill-rule="evenodd" d="M378.6 269.8v25.4q0 6.6 4.6 11t11.3 4.4h26.3q3.2 0 6.2-1.1t5.4-3.5l82.8-80q3.6-3.6 5.2-8t1.6-8.6-1.8-8.5a27 27 0 0 0-5-7.7l-14.7-14.3q-3.6-3.4-8-5.2a25 25 0 0 0-9.1-1.7q-4.4 0-8.8 1.5t-8 5l-83.2 80.1q-2.4 2.4-3.6 5.2a16 16 0 0 0-1.2 6m39 17.7h-15.1V273l48.6-46.6 14.7 14.2z" clip-rule="evenodd"/><path fill="#9ce44c" d="M460.6 351.7c0-19.1 0-34.6-.4-47.5l26.8-26c2 18.6 2 42.1 2 73.5 0 63.3 0 95-17 117a84 84 0 0 1-17.4 16.9C431.8 502 399 502 333.6 502s-98.3 0-121.1-16.4a84 84 0 0 1-17.5-17c-17-22-17-53.6-17-117 0-63.3 0-95 17-117a84 84 0 0 1 17.5-16.9c22.8-16.4 55.5-16.4 121-16.4 35.5 0 61.4 0 81.3 2.6l-26.4 25.5a1461 1461 0 0 0-54.9-.6c-33.4 0-56.1 0-73.4 2-16.7 1.7-25 4.9-30.6 9a56 56 0 0 0-11.7 11.3c-4.2 5.5-7.5 13.4-9.4 29.6-1.9 16.7-2 38.7-2 71s.1 54.2 2 71q.7 5.4 1.5 9.7l.3-.2c25.7-18.2 52.4-37 75.2-24.3l19.5 11.6c19 11.4 41-8 64.8-29.1 16-14.3 33-29.3 50.4-36.1 16-6.2 26.6-.9 40.5 10.2z"/><path fill="#9ce44c" d="M252 302.7c0 18 14.9 32.4 33.5 32.4s33.5-15 33.5-32.4c0-18-14.8-32.3-33.5-32.3s-33.4 14.3-33.4 32.3"/></g><defs><clipPath id="a"><path fill="#fff" d="M0 0h678v674H0z"/></clipPath></defs></svg>