<svg fill="none" viewBox="0 0 678 674"><g clip-path="url(#a)"><path fill="#134f4a" d="M657.9 293.2c8.7 20.6 13 31 13.1 41.8s-4.1 21.3-12.6 42l-2 4.8c-3.7 9.4-5.6 14-6.7 19-1 4.8-1 9.9-1.3 20l-.1 5.1c-.5 22.4-.7 33.5-5.1 43.5s-12.5 17.7-28.6 33.2l-4 3.8c-7.2 7-10.8 10.4-13.8 14.4-2.9 4-5 8.6-9.3 17.7l-2.4 5c-9.6 20.1-14.3 30.2-22.3 37.5s-18.5 11-39.4 18.6l-5.7 2c-9.4 3.4-14 5-18.4 7.6s-8 5.7-15.6 12.2l-4.7 4c-16.8 14.4-25.2 21.6-35.4 25-10.3 3.4-21.3 2.6-43.4 1l-6.3-.4c-10-.7-15-1-19.8-.5s-9.7 2-19.2 4.8l-6.1 1.9c-21.2 6.3-31.8 9.5-42.5 8.4-10.8-1-20.5-6.2-40-16.5l-5.6-3c-8.8-4.6-13.2-7-18-8.4s-9.6-2.1-19.5-3.4l-6.2-.8c-22-2.7-33-4.1-42.4-9.4s-16.3-14-30-31.5L141 588c-6.2-7.9-9.3-11.8-13-15.1s-8-5.9-16.6-11l-5-3c-19-11.5-28.6-17.3-35-26s-9.2-19.6-14.6-41.2l-1.3-5.2c-2.5-9.8-3.7-14.6-5.8-19.2s-5-8.7-10.7-16.9l-3-4.3c-12.8-18.4-19.3-27.6-21.6-38.2s-.4-21.7 3.5-43.7l1-5c1.7-10 2.6-15 2.6-20s-1-9.9-3-19.8l-.9-5c-4.2-22-6.3-33-4-43.7 2.1-10.6 8.4-20 21-38.4l3-4.4c5.6-8.3 8.4-12.5 10.5-17s3.1-9.5 5.5-19.3l1.2-5.2c5.1-21.7 7.7-32.6 14-41.4 6.4-8.8 15.9-14.7 34.8-26.4l5-3c8.4-5.3 12.7-8 16.4-11.3s6.7-7.3 12.8-15.3l3.5-4.6c13.5-17.7 20.2-26.5 29.6-31.9 9.3-5.4 20.3-7 42.3-10l6.1-.9c9.9-1.4 14.8-2 19.5-3.6s9.1-4 17.8-8.7l5.6-3c19.4-10.6 29-15.9 39.8-17C312.7 8 323.3 11 344.6 17l6.1 1.8c9.6 2.7 14.4 4 19.3 4.5s9.9.1 19.8-.7l6.3-.5c22-1.9 33.1-2.8 43.4.5s18.8 10.3 35.8 24.5L480 51c7.6 6.4 11.4 9.6 15.8 12 4.3 2.5 9 4.1 18.4 7.4l5.7 2c21 7.2 31.6 10.9 39.7 18s13 17.2 22.8 37.2l2.4 5c4.4 9 6.7 13.5 9.6 17.5s6.7 7.4 14 14.3l4 3.7c16.4 15.3 24.5 23 29 32.8s5 21.1 5.7 43.4l.2 5.2c.3 10 .5 15.1 1.6 20 1 5 3 9.5 7 18.8z"/><path fill="#4ce4b9" fill-opacity=".8" d="M283 325.3c-20 0-36-16.4-36-37 0-20.5 16-36.8 36-36.8s36 16.3 36 36.9a36.6 36.6 0 0 1-36 36.9"/><path fill="#4ce4b9" fill-opacity=".8" d="M283 325.3c-20 0-36-16.4-36-37 0-20.5 16-36.8 36-36.8s36 16.3 36 36.9a36.6 36.6 0 0 1-36 36.9"/><path fill="#4ce4b9" fill-opacity=".8" d="M474.4 172h-60.1a26 26 0 0 0-25.6 19.9H258.8a82 82 0 0 0-80.8 83v145.4q.1 16 5.5 29.8c7 19.2 18.7 34 37.3 43.3a80 80 0 0 0 33.2 9.2h138.9a82 82 0 0 0 80.8-83V288.4c14.5 0 26.3-12.8 26.3-27.7V199c.7-15-11-27-25.6-27m-54.6 39.7 11.8-11.3 7.6-7.8c4.1-4.3 9.6-4.3 13.1 0l9.7 10 9.6 9.1c2.1 2.2 3.5 5 3.5 7.1 0 2.9-.7 5.7-2.8 7.1a10.5 10.5 0 0 1-14.5.7l-2-2.1v34.8c0 5.6-4.9 10.6-10.4 10.6s-10.4-5-10.4-10.6v-33.4l-1.4 1.4a10.5 10.5 0 0 1-14.5-.7c-2-2.1-2.7-5-2.7-7q.2-4.5 3.4-7.9M453 299v58.9l-6.2-3.6c-12.5-7-27-5.6-38 3.6a4671 4671 0 0 0-60.1 52.5c-14.6 12-31.1 12-45.6 0a33 33 0 0 0-23.5-10.6c-6.3 0-13.2 2.8-19.4 6.3-18 12.1-35.2 24.2-53.2 36.2a56 56 0 0 1-4.8-24.1V278.4a58 58 0 0 1 57.3-58.9H388v41.2a27.4 27.4 0 0 0 27 27.7h38z"/><path fill="#4ce4b9" fill-opacity=".8" d="M474.4 172h-60.1a26 26 0 0 0-25.6 19.9H258.8a82 82 0 0 0-80.8 83v145.4q.1 16 5.5 29.8c7 19.2 18.7 34 37.3 43.3a80 80 0 0 0 33.2 9.2h138.9a82 82 0 0 0 80.8-83V288.4c14.5 0 26.3-12.8 26.3-27.7V199c.7-15-11-27-25.6-27m-54.6 39.7 11.8-11.3 7.6-7.8c4.1-4.3 9.6-4.3 13.1 0l9.7 10 9.6 9.1c2.1 2.2 3.5 5 3.5 7.1 0 2.9-.7 5.7-2.8 7.1a10.5 10.5 0 0 1-14.5.7l-2-2.1v34.8c0 5.6-4.9 10.6-10.4 10.6s-10.4-5-10.4-10.6v-33.4l-1.4 1.4a10.5 10.5 0 0 1-14.5-.7c-2-2.1-2.7-5-2.7-7q.2-4.5 3.4-7.9M453 299v58.9l-6.2-3.6c-12.5-7-27-5.6-38 3.6a4671 4671 0 0 0-60.1 52.5c-14.6 12-31.1 12-45.6 0a33 33 0 0 0-23.5-10.6c-6.3 0-13.2 2.8-19.4 6.3-18 12.1-35.2 24.2-53.2 36.2a56 56 0 0 1-4.8-24.1V278.4a58 58 0 0 1 57.3-58.9H388v41.2a27.4 27.4 0 0 0 27 27.7h38z"/></g><defs><clipPath id="a"><path fill="#fff" d="M0 0h678v674H0z"/></clipPath></defs></svg>