<svg xmlns="http://www.w3.org/2000/svg" width="1em" height="1em" viewBox="0 0 128 128"><defs><path id="notoPisces0" fill="#E380A1" d="M24 29.7c4.5-7.1 14.1-13 24.1-14.8c2.5-.4 5-.6 7.1.2c1.6.6 2.9 2.1 2 3.8c-.7 1.4-2.6 2-4.1 2.5c-9.3 3-17.9 6.4-23.1 14.3c-2 3-4.9 14.4-8.6 12.3c-3.9-2.3-3.1-9.5 2.6-18.3z" opacity=".65"/></defs><circle cx="64" cy="64" r="60" fill="#C2185B"/><circle cx="60.1" cy="63.1" r="56.1" fill="#EC407A"/><use href="#notoPisces0" opacity=".65"/><path fill="#FAFAFA" d="M96.6 60H86c-.6 0-1.1-.5-1-1.1c1.1-11.8 5.7-20 9.7-22.3c1.3-.7 2.1-2.1 2.1-3.6c-.1-3-3.3-4.9-5.9-3.4c-7.3 4-12.8 15.5-13.9 29.5c-.1.5-.5.9-1 .9H52c-.5 0-1-.4-1-.9c-1-13.7-6.4-25-13.5-29.2c-2.6-1.6-5.5-.6-6.2 2.3c-.4 1.8.4 3.6 1.9 4.4c4 2.2 8.7 10.5 9.8 22.3c0 .6-.4 1.1-1 1.1H31.4c-2.1 0-4 1.5-4.1 3.6C27 66 28.9 68 31.2 68H42c.6 0 1 .5 1 1.1c-1.1 11.8-5.7 20-9.7 22.3c-1.3.7-2.1 2.1-2.1 3.6c.1 3 3.3 4.8 5.9 3.4c7.3-4.1 12.8-15.5 13.9-29.5c0-.5.5-.9 1-.9h24c.5 0 .9.4 1 .9c1 13.7 6.4 25 13.5 29.2c2.6 1.6 5.5.7 6.2-2.3c.4-1.8-.4-3.6-1.9-4.4c-4-2.2-8.7-10.4-9.8-22.3c0-.6.4-1.1 1-1.1h10.8c2.3 0 4.2-2 4-4.4c-.2-2.1-2.1-3.6-4.2-3.6z"/><use href="#notoPisces0" opacity=".3"/></svg>