<svg xmlns="http://www.w3.org/2000/svg" width="1em" height="1em" viewBox="0 0 128 128"><circle cx="64" cy="64" r="60" fill="#7B1FA2"/><circle cx="60.1" cy="63.1" r="56.1" fill="#AB47BC"/><path fill="#FFF" d="M24 29.7c4.5-7.1 14.1-13 24.1-14.8c2.5-.4 5-.6 7.1.2c1.6.6 2.9 2.1 2 3.8c-.7 1.4-2.6 2-4.1 2.5c-9.3 3-17.9 6.4-23.1 14.3c-2 3-4.9 14.4-8.6 12.3c-3.9-2.3-3.1-9.5 2.6-18.3z" opacity=".3"/><g fill="#FAFAFA"><path d="M100 64c-1.4 0-2.7-.7-3.4-1.9l-7.7-12.9c-.4-.7-1.3-.7-1.7 0l-7.7 12.7c-.5.8-1.3 1.5-2.2 1.8c-1.8.6-3.8-.2-4.7-1.7l-7.7-12.9c-.4-.7-1.3-.7-1.7 0l-7.7 12.7c-.5.8-1.3 1.5-2.2 1.8c-1.8.6-3.8-.2-4.7-1.7L40.9 49c-.4-.7-1.3-.7-1.7 0l-7.6 12.7c-1.1 1.8-3.3 2.6-5.2 1.7c-2.2-1-2.9-3.7-1.7-5.7l11.9-19.9c.5-.8 1.3-1.5 2.2-1.8c1.8-.6 3.8.2 4.7 1.7l7.7 12.9c.4.7 1.3.7 1.7 0l7.6-12.7c.5-.8 1.3-1.5 2.2-1.8c1.8-.6 3.8.2 4.7 1.7l7.7 12.9c.4.7 1.3.7 1.7 0L84.5 38c.5-.8 1.3-1.5 2.2-1.8c1.8-.6 3.8.2 4.7 1.7l11.9 19.9c1.1 1.8.7 4.2-1 5.4c-.6.6-1.5.8-2.3.8z"/><path d="M100 92c-1.4 0-2.7-.7-3.4-1.9l-7.7-12.9c-.4-.7-1.3-.7-1.7 0l-7.7 12.7c-.5.8-1.3 1.5-2.2 1.8c-1.8.6-3.8-.2-4.7-1.7l-7.7-12.9c-.4-.7-1.3-.7-1.7 0l-7.7 12.7c-.5.8-1.3 1.5-2.2 1.8c-1.8.6-3.8-.2-4.7-1.7L40.9 77c-.4-.7-1.3-.7-1.7 0l-7.6 12.7c-1.1 1.8-3.3 2.6-5.2 1.7c-2.2-1-2.9-3.7-1.7-5.7l11.9-19.9c.5-.8 1.3-1.5 2.2-1.8c1.8-.6 3.8.2 4.7 1.7l7.7 12.8c.4.7 1.3.7 1.7 0L60.5 66c.5-.8 1.3-1.5 2.2-1.8c1.8-.6 3.8.2 4.7 1.7l7.7 12.8c.4.7 1.3.7 1.7 0L84.5 66c.5-.8 1.3-1.5 2.2-1.8c1.8-.6 3.8.2 4.7 1.7l11.9 19.8c1.1 1.8.7 4.2-1 5.4c-.6.7-1.5.9-2.3.9z"/></g></svg>