<svg xmlns="http://www.w3.org/2000/svg" width="1em" height="1em" viewBox="0 0 128 128"><circle cx="64" cy="64" r="60" fill="#E64A19"/><circle cx="60.1" cy="63.1" r="56.1" fill="#FF7043"/><path fill="#FFF" d="M24 29.7c4.5-7.1 14.1-13 24.1-14.8c2.5-.4 5-.6 7.1.2c1.6.6 2.9 2.1 2 3.8c-.7 1.4-2.6 2-4.1 2.5c-9.3 3-17.9 6.4-23.1 14.3c-2 3-4.9 14.4-8.6 12.3c-3.9-2.3-3.1-9.5 2.6-18.3z" opacity=".3"/><path fill="#FAFAFA" d="M94.8 36.7c.6-1.4.4-3-.5-4.2s-2.3-2-3.8-2H90c-1.9 0-3.6 1.1-4.3 2.9c-3.4 8.5-9.9 12.1-21.8 12.1s-18.4-3.6-21.8-12.1c-.7-1.8-2.4-2.9-4.3-2.9h-.5c-1.5 0-2.9.8-3.8 2c-.9 1.2-1 2.8-.5 4.2c2.4 5.8 9 11.9 14.3 15.3c-7.6 5.3-12.6 14.1-12.6 24.1c0 16.2 13.1 29.3 29.3 29.3s29.3-13.1 29.3-29.3c0-10.1-5.1-19-12.9-24.3c5.4-3.4 12.2-9.4 14.4-15.1zM64 96.5c-11.2 0-20.3-9.1-20.3-20.3S52.8 55.8 64 55.8s20.3 9.1 20.3 20.3S75.2 96.5 64 96.5z"/></svg>