<svg xmlns="http://www.w3.org/2000/svg" width="1em" height="1em" viewBox="0 0 128 128"><circle cx="64.46" cy="63.96" r="60" fill="#F2A600"/><circle cx="60.56" cy="63.06" r="56.1" fill="#FFCC32"/><path d="M76.96 64.36h32.7a1.88 1.88 0 0 0 1.8-1.9a46.921 46.921 0 0 0-21.8-37.8c-.83-.53-1.94-.28-2.47.55c-.01.02-.02.03-.03.05l-16.5 28.3c-.46.78-.24 1.78.5 2.3c2.16 1.75 3.59 4.25 4 7c.15.87.91 1.51 1.8 1.5zm-12.5 10.8c-1.4-.01-2.79-.29-4.1-.8a1.78 1.78 0 0 0-2.2.8l-16.3 28.3c-.5.87-.2 1.98.67 2.48c.01.01.02.01.03.02a47.328 47.328 0 0 0 21.9 5.4c7.6.04 15.1-1.82 21.8-5.4c.88-.49 1.2-1.59.72-2.47c-.01-.01-.01-.02-.02-.03l-16.3-28.3a1.78 1.78 0 0 0-2.2-.8c-1.27.53-2.63.8-4 .8z"/><circle cx="64.46" cy="64.36" r="7.2"/><path fill="#FFF170" d="M24.46 29.66c4.5-7.1 14.1-13 24.1-14.8c2.5-.4 5-.6 7.1.2c1.6.6 2.9 2.1 2 3.8c-.7 1.4-2.6 2-4.1 2.5a44.64 44.64 0 0 0-23 17.4c-2 3-5 11.3-8.7 9.2c-3.9-2.3-3.1-9.5 2.6-18.3z" opacity=".65"/><path d="m58.26 53.46l-16.4-28.2a1.817 1.817 0 0 0-2.49-.61l-.01.01a47.28 47.28 0 0 0-21.9 37.8a1.88 1.88 0 0 0 1.8 1.9h32.7c.88 0 1.64-.63 1.8-1.5c.41-2.75 1.84-5.25 4-7c.69-.59.9-1.58.5-2.4z"/><path fill="#FFF" d="M24.46 29.66c4.5-7.1 14.1-13 24.1-14.8c2.5-.4 5-.6 7.1.2c1.6.6 2.9 2.1 2 3.8c-.7 1.4-2.6 2-4.1 2.5a44.64 44.64 0 0 0-23 17.4c-2 3-5 11.3-8.7 9.2c-3.9-2.3-3.1-9.5 2.6-18.3z" opacity=".3"/></svg>