<svg xmlns="http://www.w3.org/2000/svg" width="1em" height="1em" viewBox="0 0 128 128"><path fill="#02AB47" d="M59.77 3.68c-1.58.01-2.39.17-2.39 3.76s.34 113.87.34 115.07c0 1.2 1.2 1.71 3.25 1.71h8.38c1.37 0 1.88-.85 1.71-3.08c-.17-2.22-.19-113.53-.19-114.89s-.62-2.43-2.81-2.51c-1.78-.05-6.41-.07-8.29-.06z"/><path fill="#2F7C31" d="M45.39 43.95s-.25-6.26 4.17-10.31c4.07-3.73 7.87-3.45 7.87-3.45l.04 6.21s2.32-.8 6.24-.64s7.15 1.53 7.15 1.53v-6.52s2.17-.1 5.45 3.76c1.64 1.93 2.99 5.95 3.44 8.05c.57 2.7 1.56 3.95 4.17 4.14c2.61.19 4.59.17 6.2.11c2.29-.08-4.89-12.55-4.89-12.55S77.21 22.19 74.6 22.11c-2.62-.08-18.82.33-20.37 1.15c-1.55.82-11.7 7.94-11.7 7.94l-1.39 11.04s3.85 4.5 3.85 4.17c-.01-.33.4-2.46.4-2.46zm-7.79 0l-7.64-6s-1.63 12.38 4.54 19.84c4.52 5.45 9.82 7.69 14.48 9.74c4.36 1.91 8.57 3.23 8.57 3.23l.02 7.32l13.35 7.1l-.02-9.61s5.07 2.75 7.61 5.45s2.78 6.05 2.86 8.18s-.98 5.48-.98 5.48l-1.47 6.54l17.02-17.18l-40.16-26.67L37.6 43.95z"/><path fill="#2F7C31" d="M30.89 82.37s-2.04 1.75-1.45 6.5c.54 4.41 3.03 11.29 10.47 17.34c7.44 6.05 17.8 7.21 17.8 7.21v5.05l13.3-.02l-.02-5.01s7.94-.33 14.65-4.59c7.02-4.45 12.15-13.53 11.86-22.06c-.1-2.99-2-2.52-2-2.52s-24.42 21.12-26.06 21.28s-17.51-2.62-17.51-2.62l-14.8-16.11l-6.24-4.45z"/><path fill="#02AB47" d="M37.13 80.6c-4.98.49-6.71 1.47-6.79 2.95c-.08 1.47 4.25 27.18 34.52 26.75c29.04-.41 32.48-18.08 32.72-24.95c.3-8.26-4.58-15.13-15.54-21.6c-8.17-4.81-27.9-12.03-31.17-14.07c-3.01-1.88-7.2-6.05-6.63-12.27c.57-6.22 7.36-12.35 19.88-12.27c12.52.08 17.45 8.8 18.41 11.37c1.54 4.15 1.24 9.56 3.52 10.27c1.06.33 4.17.21 5.97-.04c1.8-.25 4.36-1.63 4.5-5.24c.16-4.17-4.17-27.49-33.13-27.24c-27.65.23-34.46 17.19-33.39 26.92c1 9.23 8.52 17.91 20.63 22.82s33.54 10.88 33.3 21.92c-.22 9.91-11.71 13.41-21.19 12.93c-9.57-.49-14.81-6.05-16.77-12.6c-1.89-6.27-5.49-5.97-8.84-5.65z"/><path fill="#7ADC8A" d="M41.72 83.73c-1.02-1.9-7.84-1.61-8.71 1.61c-.88 3.21 2.24 8.22 4.33 7.79c2.87-.6.44-4.04 1.56-5.35c1.11-1.33 4.08-1.7 2.82-4.05zm21.9-78.34c-1.99-.05-4.22-.07-4.34 2.61c-.11 2.59.07 4.58 1.07 4.68c1.14.12 2.75-2.34 3.45-3.41c.9-1.34 1.97-3.82-.18-3.88zM48.33 21.17c-.77-1.11-5.03-2-10.94 5.3s-3.73 11.15-2.38 11.32c1.84.23 2.86-1.28 3.99-3.76c1.61-3.53 3.53-5.68 6.53-7.95c2.56-1.94 4.12-3 2.8-4.91z"/></svg>