<svg xmlns="http://www.w3.org/2000/svg" width="1em" height="1em" viewBox="0 0 128 128"><path fill="#8E24AA" d="M116.46 3.96h-104c-4.42 0-8 3.58-8 8v104c0 4.42 3.58 8 8 8h104c4.42 0 8-3.58 8-8v-104c0-4.42-3.58-8-8-8z"/><path fill="#AB47BC" d="M110.16 3.96h-98.2a7.555 7.555 0 0 0-7.5 7.5v97.9c-.01 4.14 3.34 7.49 7.48 7.5h98.12c4.14.01 7.49-3.34 7.5-7.48V11.46c.09-4.05-3.13-7.41-7.18-7.5h-.22z"/><path fill="#FAFAFA" d="M40.16 12.86c0-2.3-1.6-3-10.8-2.7c-7.7.3-11.5 1.2-13.8 4s-2.9 8.5-3 15.3c0 4.8 0 9.3 2.5 9.3c3.4 0 3.4-7.9 6.2-12.3c5.4-8.7 18.9-10.6 18.9-13.6z" opacity=".3"/><circle cx="61.46" cy="63.96" r="6" fill="#FAFAFA"/><path fill="#FAFAFA" d="M103.06 39.96c-3.3-5.8-13.1-7-25.3-4.1c-3.7-12.1-9.6-19.9-16.3-19.9s-12.6 7.9-16.2 19.9c-12.3-2.9-22-1.7-25.4 4.1s.5 14.8 9.1 24c-8.6 9.2-12.5 18.2-9.1 24s13.1 7 25.3 4.1c3.7 12.1 9.6 19.9 16.3 19.9s12.6-7.8 16.2-19.9c12.3 2.9 22 1.7 25.3-4.1s-.5-14.8-9.1-24c8.7-9.2 12.5-18.2 9.2-24zm-5.2 3c1.4 2.4-.8 8.6-7.5 16.1c-.38.38-.97.42-1.4.1a96.59 96.59 0 0 0-7.6-6.1a.992.992 0 0 1-.4-.7c-.28-3.26-.78-6.5-1.5-9.7a.996.996 0 0 1 .76-1.19c.01 0 .03-.01.04-.01c9.7-2.1 16.2-.9 17.6 1.5zm-29.4 33.1a71.76 71.76 0 0 1-6.6 3.5c-.29.1-.61.1-.9 0c-2.1-1.1-4.3-2.2-6.6-3.5s-4.3-2.6-6.3-3.9a.812.812 0 0 1-.4-.8c-.1-2.3-.2-4.8-.2-7.4s.1-5.1.2-7.4c.03-.31.17-.59.4-.8c2-1.3 4.1-2.6 6.3-3.9a71.76 71.76 0 0 1 6.6-3.5c.29-.1.61-.1.9 0c2.1 1 4.3 2.2 6.6 3.5s4.3 2.6 6.3 3.9c.26.18.42.48.4.8c.2 2.4.2 4.8.2 7.4c0 2.6-.1 5.1-.2 7.4c-.03.31-.17.59-.4.8c-2 1.3-4.1 2.6-6.3 3.9zm5.9 3.5c-.3 1.8-.6 3.5-.9 5.1c-1.6-.5-3.2-1.1-4.9-1.7c1-.5 2-1.1 2.9-1.6s1.9-1.2 2.9-1.8zm-20 3.3c-1.7.7-3.3 1.2-4.9 1.7c-.3-1.6-.7-3.3-.9-5.1c1 .6 1.9 1.2 2.9 1.7s2 1.2 2.9 1.7zm-12.9-15.5c-1.4-1.1-2.7-2.2-4-3.4c1.2-1.1 2.5-2.2 4-3.4v6.8zm7.1-19c.3-1.8.6-3.5.9-5.1c1.6.5 3.2 1.1 4.9 1.7c-1 .5-2 1.1-2.9 1.6s-1.9 1.2-2.9 1.8zm20-3.3c1.7-.7 3.3-1.2 4.9-1.7c.3 1.6.7 3.3.9 5.1c-.93-.63-1.9-1.19-2.9-1.7c-1-.5-2-1.2-2.9-1.7zm12.8 15.5c1.37 1.05 2.67 2.19 3.9 3.4c-1.2 1.1-2.5 2.2-3.9 3.4c0-1.1.1-2.2.1-3.4s0-2.2-.1-3.4zm-19.9-38.6c2.8 0 7 5 10.1 14.6c.2.52-.06 1.09-.58 1.29c-.01 0-.02.01-.02.01c-3 1-6 2.2-9.1 3.5c-.26.1-.54.1-.8 0c-2.96-1.35-6-2.52-9.1-3.5c-.52-.18-.79-.76-.61-1.28c0-.01.01-.02.01-.02c3-9.6 7.3-14.6 10.1-14.6zm-36.4 21c1.4-2.4 7.9-3.6 17.7-1.5c.54.1.91.62.81 1.16c0 .01 0 .03-.01.04c-.6 3-1.1 6.3-1.5 9.7c-.03.28-.17.53-.4.7a82.471 82.471 0 0 0-7.6 6.1c-.42.35-1.04.31-1.4-.1c-6.8-7.5-9-13.7-7.6-16.1zm0 42c-1.4-2.4.8-8.6 7.5-16.1c.38-.38.97-.42 1.4-.1a96.59 96.59 0 0 0 7.6 6.1c.23.17.37.42.4.7c.28 3.26.78 6.5 1.5 9.7a.996.996 0 0 1-.76 1.19c-.01 0-.03.01-.04.01c-9.7 2.1-16.2.9-17.6-1.5zm36.4 21c-2.8 0-7-5-10.1-14.6c-.2-.52.06-1.09.58-1.29c.01 0 .02-.01.02-.01c3.09-1.04 6.13-2.24 9.1-3.6c.26-.1.54-.1.8 0c3.1 1.4 6.2 2.6 9.1 3.6c.52.18.79.76.61 1.28c0 .01-.01.02-.01.02c-3.1 9.6-7.3 14.6-10.1 14.6zm36.4-21c-1.4 2.4-7.9 3.6-17.7 1.5a1.005 1.005 0 0 1-.8-1.2c.6-3.1 1.1-6.3 1.5-9.7c.03-.28.17-.53.4-.7c2.65-1.88 5.19-3.92 7.6-6.1c.42-.35 1.04-.31 1.4.1c6.7 7.5 8.9 13.7 7.6 16.1z"/></svg>