<svg xmlns="http://www.w3.org/2000/svg" width="1em" height="1em" viewBox="0 0 128 128"><path fill="#DD2C00" d="M64.03 9.51c-33.19 0-58 27.24-58 58.71s24.99 55.26 58 55.26c34.01 0 58.09-23.64 58.09-55.11S104.26 9.51 64.03 9.51zm-.16 81.35c-14.79 0-26.77-11.99-26.77-26.77s11.99-26.77 26.77-26.77s26.77 11.99 26.77 26.77s-11.99 26.77-26.77 26.77z"/><path fill="#FF3D00" d="M64.08 4.92C30.85 4.92 6 30.72 7.04 61.97c1.05 31.49 21.79 57.05 57.05 57.05c36.52 0 57.05-25.54 57.05-57.05S99.84 4.92 64.08 4.92zm-.21 87.51c-16.74 0-30.31-13.57-30.31-30.31s13.57-30.31 30.31-30.31s30.31 13.57 30.31 30.31s-13.57 30.31-30.31 30.31z"/><path fill="#FF9E80" d="M19.13 39.97c-1.34-.5-1.26-2.81-.67-4.34c4.45-11.55 12.19-18.15 24.61-22.56c2.54-.9 3.84-.45 4.31 1.18c.45 1.58-.68 2.65-2.2 3.3c-9.46 4.06-17.58 11.64-22.3 20.79c-.52 1.01-2.07 2.25-3.75 1.63z" opacity=".88"/><path fill="#E0E0E0" d="M74.35 6.1c-.2-.69-.47-1.12-1.16-1.3c-1.34-.34-4.09-.8-9.12-.8c-5.03 0-7.78.46-9.12.8c-.69.18-.88.49-1.08 1.18c-.54 1.84-1.55 4.91-1.34 12.93c.2 7.74 2.71 15.7 2.71 15.7c.17.36 4.34.51 8.83.51c4.49.01 8.66-.15 8.83-.51c0 0 2.21-7.78 2.21-15.63c0-6.92-.22-11.04-.76-12.88zm-1.18 85.09c-.33-.69-.86-1.32-1.73-1.59c-.39-.12-.8-.11-1.19.01c-1.02.34-2.47.77-6.18.77c-3.71 0-5.15-.43-6.18-.77c-.39-.13-.8-.13-1.19-.01c-.87.26-1.4.9-1.73 1.59c0 0-2.02 2.93-2.02 14.49c0 5.8.44 10.33.75 12.74c.16 1.25.73 2.25.73 2.25s4.9.76 9.65.7c4.75.06 9.37-.87 9.37-.87s.7-.79.87-1.96c.35-2.38.88-6.96.88-12.86c-.01-11.57-2.03-14.49-2.03-14.49z"/><path fill="#9E9E9E" d="M74.15 119.63c.15-.69-.34-.7-1.06-.6c-1.55.21-4.62.79-9.28.79c-4.53 0-7.24-.56-8.76-.77c-.75-.1-1.25.12-1.04.83c.35 1.19 1.02 3.17 2.04 3.51c0 0 3.44.62 7.95.62c6 0 8.33-.63 8.33-.63c.79-.26 1.54-2.41 1.82-3.75zM55.08 34.79c.41 1.44 1.8 3.29 1.8 3.29c.38.48.77.51 1.56.35c1.26-.25 3.13-.74 5.65-.74c2.53 0 4.32.47 5.62.73c.8.16 1.1.03 1.44-.3c0 0 1.52-2.32 1.88-3.28c.18-.49.1-.89-1.15-1.36c-1.44-.54-3.69-1.2-7.85-1.2c-4.12 0-6.29.62-7.71 1.09c-1.03.33-1.43.75-1.24 1.42z"/><path fill="#E0E0E0" d="M8.38 53.11c-.7.16-1.24.63-1.43 1.25c-.37 1.19-.66 2.52-.8 7.02c-.13 4.51.28 8.42.58 9.63c.08.31.1 1.04.61.86c.83-.29 2.42-1.35 13.16-1.89c5.97-.3 12.63.35 14.55.47c1.16.07 2.32-.3 2.32-.3c.36-.14-.9-3.85-.79-7.87c.13-4.02.81-7.34.81-7.34s-.63-.77-2.2-1.35c-1.24-.46-6.21-1.99-12.97-2.15c-10.49-.24-13.84 1.67-13.84 1.67z"/><path fill="#9E9E9E" d="M35.18 54.5c.16-.47.81-.63 1.23-.32c0 0 1.35.88 1.82 1.51c.47.64.58.76.45 1.21c-.25.88-1 3.33-1 6.36c0 2.93.59 5.11.67 6.29c.03.44-.23.59-1.34.75c-.39.06-1.57.39-1.92-.77c-.37-1.26-1-3.9-1.01-7.31c-.01-3.73.66-6.44 1.1-7.72z"/><path fill="#E0E0E0" d="M119.62 52.69c.7.17 1.24.66 1.43 1.31c.37 1.25.66 2.64.8 7.36c.13 4.72-.28 8.82-.58 10.09c-.08.33-.28.73-.82.71s-3.47-1.8-14.21-2.23c-10.01-.41-14.87 1.18-14.87 1.18c-.36-.15.16-4.59.05-8.81c-.13-4.21-.81-7.69-.81-7.69s.63-.8 2.2-1.41c1.24-.48 6.21-2.09 12.97-2.25c10.49-.26 13.84 1.74 13.84 1.74z"/><path fill="#BDBDBD" d="M92.82 54.15c-.16-.49-.81-.66-1.23-.33c0 0-1.35.92-1.82 1.59s-.58.8-.45 1.27c.25.92 1 3.49 1 6.67c0 3.07-.79 6.43-.86 7.67c-.03.46.8.11 1.92.1c.55 0 1.19.01 1.53-1.2c.37-1.32 1-4.09 1.01-7.66c.02-3.93-.65-6.77-1.1-8.11zM71.5 89.62c-.36-.12-.96-.1-1.32.02c-1.02.34-2.48.75-6.11.75c-3.61 0-5.08-.41-6.1-.75c-.38-.13-.79-.17-1.18-.07c-.65.18-1.31.59-1.79 1.39a.946.946 0 0 0 .57 1.38c1.77.48 4.51.94 8.45.87c3.74-.07 6.56-.49 8.5-.91c.61-.13.93-.85.6-1.39c-.42-.69-1.03-1.1-1.62-1.29zM6.12 72.17c-1.39-5.94-1.01-11.82.24-16.98c.26-1.07.83-1.76 1.29-1.76c0 0-.02.25-.14.75c-1.25 5.33-.86 11.5.12 16.94c.09.51-.12.68-.45.86c-.17.1-.35.21-.49.3c-.49.34-.57-.11-.57-.11z"/><path fill="#9E9E9E" d="M121.88 72.66c1.39-6.23 1.01-12.38-.24-17.79c-.26-1.12-.83-1.84-1.29-1.84c0 0 .02.26.14.78c1.25 5.59.86 12.05-.12 17.75c-.09.54.12.71.45.9c.17.1.35.22.49.31c.49.36.57-.11.57-.11z"/></svg>