<svg xmlns="http://www.w3.org/2000/svg" width="1em" height="1em" viewBox="0 0 128 128"><path fill="#C8C8C8" d="M10.01 18.9c-.51.77 5.61 46.34 5.51 49.22c-.1 2.89-3.48 10.45-5.77 17.11c-2.29 6.67-6.17 19.9-5.57 20.4s42.28 5.7 55.32 5.37s31.22-3.98 46.8-5.22c10.21-.81 15.79-1.7 16.61-1.7s1.64-.25 1.14-2.08s-6.03-18.1-8.21-24.07c-2.18-5.97-5-13.07-5-13.07s2.18-15.65 3.71-25.9c1.53-10.25 2.66-15.49 2.42-15.97c-.24-.48-36.79-5.89-37.52-5.89c-.73 0-30.42 8.07-31.95 7.99c-1.53-.09-36.97-6.97-37.49-6.19z"/><path fill="#1E85F9" d="M21.14 67.84s-4.37-42.47-4.37-42.74s31.67 5.44 31.67 5.44l18.74 7.25s12.87-15.06 14.15-14.96c1.28.1 26.94 3.94 27.91 4.05c.97.1 1.49.77 1.28 2.15c-.2 1.38-5.85 36.48-5.85 36.48l-43.78 11.9l-39.75-9.57z"/><path fill="#136FD8" d="m48.44 30.55l32.89-7.72l-1.62 40.68l-14.62 10.18l-14.74-4.91z"/><path fill="#36B4E2" d="m21.14 67.84l29.21.94l14.98 3.71l14.38-8.99s11.62.72 14.86.96s10.11 1.04 10.11 1.04s12.42 32.24 12.65 32.65s0 1.23-.82 1.34s-10.39.58-10.39.58s-4.14-1.52-7.18-1.11c-3.03.41-7.76 2.92-7.76 2.92l-6.36.7s-1.05-1.46-1.87-2.28c-.82-.82-2.16-1.4-2.16-1.4l-15.14-3.95l-19.13 10.11s-33.26-3-34.59-3.21c-1.33-.21-1.95-.49-1.4-2.16c.56-1.67 10.61-31.85 10.61-31.85z"/><path fill="#6CCBF6" d="M50.35 68.78s5.76-.4 14.69-1.79c9.9-1.54 14.68-3.34 14.68-3.34L81 103.32s-9.41 1.98-16.88 2.09s-17.61-.34-17.61-.34l3.84-36.29z"/><path fill="#C8C8C8" d="m48.44 30.55l.87 17.5s.7-1.64 1.89-1.94c1.2-.3 3.39-.7 3.54-1.44c.15-.75-.55-2.89-.35-3.89c.2-1 1.1-1.69 1-3.69c-.1-1.99-1-2.04-.8-3.04c.2-1 .5-1.84 1.05-2.74c.55-.9.85-.95 1.2-1.54c.28-.47.4-1.3.4-1.3l-8.8 2.08zm12.78 2.26c-.26.99-.6 1.49.1 2.04s1.05 1.35 1.2 1.69c.15.35.2 1.15 1.05 1.15s1.05-.9 1.2-1.64c.1-.5.3-1.74.3-1.74s1.74-1.05 1.49-1.84c-.25-.8-1.25-.9-2.44-.75c-1.23.14-2.6-.06-2.9 1.09zm13.3-5.18c.35-.2.9-1.44 1.35-1.69c.45-.25.94-.27 1.2.4c.55 1.44 1.35 1.49 1.2 2.34s-1.84.65-2.24.95c-.4.3-1.35.7-1.94.55c-.6-.15-2.34-1.1-1.74-2.04c.41-.7 2.17-.51 2.17-.51zm6.03 14.61s-.77.22-1.01 1.22s-.34 1.17-.34 1.17s-.86.82-1.62 1.2c-.76.38-1.37.93-1.37.93s-1.34-.21-2.3.24c-.96.45-1.31 1.17-1.31 1.17s1.44 6.32 1.44 6.22c0-.1 6.24-3.01 6.24-3.01l.27-9.14zM69.71 46.3s-1.88-1.47-2.87-1.57c-.6-.06-2.6.51-2.97 1.04c-.37.54-1.65 2.6-2.16 3.64c-.51 1.04-2.45 2.43-2.26 3.57c.26 1.54 1.69 1.21 1.69 1.21l1.38-.03l.61-2.97l3.4-3.4l3.18-1.49z"/><path fill="#40C252" d="M53.96 68.38s.46-1.03 1.39-1.59s4.16-2.62 4.77-2.62s1.39.72 1.75 1.13s.62.82.92.87s2.82.05 4.31-.15c1.49-.21 2.87-.87 2.87-1.44s-1.9-.98-2.21-1.03c-.31-.05-1.69.21-1.85.31c-.15.1-.46.46-.98.36c-.51-.1-1.39-.87-1.75-1.39c-.36-.51-.98-1.28-1.64-1.23c-.67.05-1.44.26-1.8.51c-.36.26-1.64 1.9-2.1 2.21c-.46.31-1.69.15-2.1-.62s-.46-1.64-.21-1.9c.26-.26 1.13-.41 1.33-.67c.21-.26-.26-1.49.26-1.9c.51-.41 1.95 0 2.05-.1c.1-.1 1.33-1.75 1.44-2.1c.1-.36.05-1.08.26-1.18c.21-.1 1.13-.21 1.28 0s.98.51 1.75.31s2.1-1.64 2.1-2.21s-.62-.67-.77-1.13c-.15-.46.36-1.13.82-1.59c.46-.46.77-1.08.36-1.39c-.41-.31-.82.05-1.28.56c-.46.51-1.23 1.49-1.23 2s.62 1.85.21 2.1s-.92.87-1.23.67c-.31-.21-1.53-.99-1.53-.99s-.16-.86.5-1.93c.67-1.08 2.62-4 4.05-5.03s3.53-1.29 3.53-1.29s.89.37 1.24.73c.36.36.77 1.39.41 1.8c-.36.41-1.08.46-1.08.46s.21 1.03.82 1.08c.62.05 1.97-1.83 1.97-1.83s1.01-.12 1.78.14s.98 1.18 1.69 1.49c.72.31 2.16.1 2.87.41c.72.31 1.33 1.13 1.33 1.13l-.56 12.32s-6.6 2.09-12.68 3.08c-5.89.96-13.06 1.64-13.06 1.64z"/><path fill="#40C252" d="M56.85 53.68c-.44.1-.68.38-.64.75c.04.38-.08.94-.08.94s-.98.6-.79 1.28c.19.68.71.68 1.28 1.05s1.16.49 1.54.26c.38-.23 1.03-1.03.68-1.65c-.53-.94-.49-2.97-1.99-2.63z"/><path fill="#E0E0E0" d="M31.78 27.53s-.05.86-.23 1.31c-.18.45-1.03.95-.99 2.21c.05 1.27-.23 2.21.21 2.69c.69.76.7 2.42.7 2.42s-.63.59-.54 1.54c.09.95.84 1.48 2.95 1.32c1.35-.1 1.87-.28 1.96-.91c.09-.63.49-2.19.67-3.36c.18-1.17.64-2.28.64-2.28s.81-.32 1.17-.63c.36-.32.77-.54 1.17-.5c.41.05.77.9.77.9s-.75.94-1.56 1.66s-.91 1.13-.72 2.11c.18.91.6 1.52 1.19 1.57c.59.05 1.04-.14 1.72 0c.68.14.99.81.99.81s.63 1.22.95 2.17c.32.95.77 2.49.81 3.03c.05.54-.25 3.15-.02 4.14c.23.99 1.87 4.4 2.78 4.44c.9.05 1.22-1.22 1.45-1.76s1.45-2.34 1.45-2.34l-.87-17.5l-16.65-3.04z"/><path fill="#E0E0E0" d="M18.7 44.09s.47-.71.92-.84s1.31-.54 1.31-.86s-.13-1.14.09-1.94c.23-.81 1.72-1.76 3.84-1.77c1.62-.01 2.35 1 2.66 1.55c.32.54.45 2.3.59 2.58s.63.81 1.17.81s.72-.23.72-.63c0-.41-.23-.72.05-1.31c.27-.59.68-1.17 2.21-1.36c1.54-.18 3.27-.37 3.8-.23c.9.25 2.49 1.76 2.76 2.08c.27.32.54 1.58.63 2.12c.09.54.95 1.49 1.22 1.81c.27.32.36 2.53-1.4 2.62c-1.76.09-1.76-1.99-1.76-2.53c0-.54-.18-1.13-.45-1.22c-.27-.09-1.42-.17-1.54.09c-.4.88.14 1.45-.09 1.76c-.23.32-3.48 3.12-3.66 3.66c-.18.54-.68 1.45-.09 2.17c.59.72 2.71 1.49 3.12 1.72c.41.23 1.27-.45 1.17-.95c-.09-.5-.59-1.04-.59-1.63c0-.59.77-1.67 1.22-1.76c.45-.09 1.63 1.04 1.63 1.04s1.81-.14 2.26.18s.54 1.36.54 1.36l.59.99s-2.53 4.29-2.67 4.34c-.14.05-16.94-1.08-16.94-1.08l-2.98-9.35l-.33-3.42z"/><path fill="#7ADC8A" d="M20.62 62.81s.72 1.4.94 1.94c.23.54.72 1.31.9 1.67c.18.36 1.04 1.36 1.72 1.31s.59-2.21 1.17-2.03c.59.18.81 1.36 1.04 1.63c.23.27.59.72.59.72l2.21 1.17l.72-1.17s0-.86.14-1.04c.14-.18 1.63-1.17 1.85-1.27c.23-.09 2.09.27 2.62.14c1.09-.27 3.03-2.71 3.43-3.43c.41-.72 1.08-1.49 1.36-1.9c.27-.41.05-.88.05-.88s1.5.22 2.04-.91c.28-.59.25-1.33.25-1.33s1.4-1.04 1.4-1.76s-1.45-2.08-1.45-2.08s-1.27.86-2.39 1.49s-2.53 1.14-4.25.87c-1.72-.27-2.25-.51-2.57-.78c-.32-.27-.71-1.11-1.06-1.57c-.76-.98-2.14-1.37-2.37-2.09s1.17-1.67.59-2.67c-.59-.99-2.62-.45-3.75-.18s-2.67.77-2.94.68c-.27-.09-.05-.81-1.08-1.72c-.91-.8-2.99-2.46-2.99-2.46l1.83 17.65z"/><path fill="#D0FE8B" d="M26.99 68.06h2.94s.08.5.27.65c.19.15.68.46.95.42c.27-.04.91-.86 1.63-.79c1.08.12 1.79.66 2.09 1.12c.3.45.5 1.65 1.07 2.03c.57.38 1.58-.21 3.33 0c1.26.15 1.59.15 1.89.41s.63 1 .85 1.04c.22.04.85-.26 1.26-.15c.41.11 1.81 1.66 2.37 2.03c.55.37 1.07.85 1.07.85s.78-.33 1.59.07c.81.41.97 1.42.97 1.42s.23 2.13-1.64 4.97c-2.19 3.33-2.96 4.44-3.51 5.07c-.55.63-2 1.52-2.55 2.26c-.55.74-.85 1.26-.81 1.59s.07 1.22-.18 1.78c-.26.55-.44.55-.52 1.22s.48 1.81.04 2.22c-.44.41-1.92.18-2.74-1.26c-.81-1.44-.63-3.74-.37-5.03s1.11-4.07 1.15-5.84c.04-1.78-1-3.62-2.03-4.59s-1.33-1.29-1.33-2.92c0-1.11.59-1.63.59-1.63l.11-1.59s-1.19-.22-1.59-.74c-.41-.52-.81-.96-1.33-1.11c-.52-.15-1.71.17-2.66-.27c-.39-.18-1.21-.98-1.55-1.21c-.89-.58-1.36-2.02-1.36-2.02z"/><path fill="#E0E0E0" d="M36.27 104.16s.32-.64.96-.96c.64-.32 1.55-.68 1.59-.96c.04-.28.64-2.07 1.44-2.07s.56 1.04.6 1.4c.04.36.4.64.32 1.24c-.08.6-.44.56-.44.88s.08.88.08.88l-4.55-.41z"/><path fill="#E3FFAD" d="M53.96 68.38s-.81.84-.81 1.33s-.26 2.59.22 3.64c.48 1.05.7 1.49 1.54 1.8c.83.31 1.27.57 2.02.57s1.62.09 2.02.13s1.36.75 1.54.97c.18.22.31 1.4.53 1.71s1.1.88 1.1.88s-.4 2.41.09 3.56c.48 1.14.88 2.77 1.19 3.56c.31.79 1.49 1.89 1.84 2.15s1.14-.18 1.71-.7s1.89-2.06 2.2-2.37c.31-.31.31-1.19.61-1.58c.31-.4.04-1.19.48-1.71c.44-.53 1.4-1.27 1.49-1.84s-.22-2.2.09-2.72c.31-.53 1.62-2.28 2.06-2.68c.44-.4.75-1.27.48-1.54s-1.98-.18-2.46-.48c-.48-.31-1.32-1.62-1.54-2.06s-1.01-1.49-1.14-1.93c-.13-.44.7-.92.92-.79c.22.13 1.32 1.89 1.76 2.5c.44.61.44.83.75.92c.31.09 1.19.18 1.4 0c.22-.18 1.1-.61 1.49-.92c.4-.31 1.05-.57 1.01-.88s-.18-1.01-.4-1.1c-.22-.09-1.45.09-1.45.09s-1.19-1.4-1.27-1.67s.57-.61 1.01-.31s1.45.79 1.71.88c.26.09 1.49.44 1.89.44c.4 0 1.93.92 1.93.92l-.25-5.48s-6.68 2.14-12.68 3.08c-6.22.96-13.08 1.63-13.08 1.63z"/><path fill="#E0E0E0" d="M53.33 105.28s2.33-1.47 2.75-1.71s3.02-1.36 3.86-1.59c.48-.13 5.27-.43 6.14-.41c1.12.02 2.13.35 3.35.29c1.22-.06 4.41.31 5.02-.06s3.49-2.56 4.1-2.82c.75-.31 2.31-.04 2.31-.04l.14 4.37s-9.51 1.98-16.88 2.09c-7.36.13-10.79-.12-10.79-.12zm35.15-74.43c-1.04-.56-1.47 1.12-1.63 1.55c-.16.44-.31 1.13-.04 1.63c.32.6 1.04.76 1.35 1.04s1.35.6 1.63-.44c.28-1.04-.52-1.91-.52-1.91s.05-1.42-.79-1.87zm-7.93 11.4s.58-.16.79.24c.12.22.14.41.28.56s1.79.28 1.95.04s1.39-2.47 2.71-3.27c1.32-.8 2.87-1 3.55-1.32c.68-.32.76-1.35 1.55-1.35s3.11 1.55 3.27 1.83s-.36 1.04-.84 1.63c-.48.6-1.24 1-.8 1.28c.44.28 1.99.52 2.87.56s1.39-.28 2.07.04c.68.32.4 1.75.8 1.83c.4.08 2.47.24 3.15-.16c.68-.4.52-1 1.24-1.16s1.43-.24 2.11.32c.68.56 1.35 1.16 1.71 1.47c.36.32.96.44.96.44l-.82 5.12s-5.52 2.49-6.03 2.49c-.52 0-20.92 1.03-20.92 1.03l.4-11.62z"/><path fill="#7ADC8A" d="M80.29 51.34s.38.59.5.83s.76.48 1.08.2s.12-2.35.32-2.63c.2-.28 2.19-.04 2.35-.16c.16-.12 1.2-.52 1.63-.28c.44.24 1.16 1.35 1.75 1.32c.6-.04 1.32.2 1.79-.36c.48-.56 1.24-1.63 2.27-1.99s1.71-.44 1.87-.6s1.55-2.03 2.07-2.23c.52-.2 1.43-.08 1.79 0c.36.08.52.24.56 1.04c.04.8.24 1.55.4 1.79s1.35 1.35 1.71 1.39c.36.04 1.47-.24 2.55 0c1.08.24 2.71.76 3.11.76s1.04-.05 1.04-.05l-.48 2.98s-.29-.19-1.01-.07s-1.04.6-1.51.48s-1-.28-1.32-.16s-1.99 1.91-1.79 2.35c.2.44 1.67.04 2.07.32s.96.76.96 1.08s0 1.28-.28 1.47c-.28.2-1.55.16-1.83.36c-.28.2 0 1.08-.44 1.63c-.44.56-1.87 1.79-1.87 1.79s-.22.76-.35 1.01c-.23.49-.59 1.03-.83.99c-.24-.04-1.32-1.51-1.83-1.55c-.52-.04-.36 1.55-.36 1.55l-16.49-.94l.57-12.32zm23.58 9.56c-.04-.22-.91-.37-1.11-.07c-.2.3-.77 1.07-1.07 1.71s-1.01 2.01-.5 2.31c.29.17 1.55-.72 2.06-1.52c.12-.19.79-1.42.62-2.43z"/><path fill="#D0FE8B" d="m96.21 64.6l-16.48-.95l.25 5.48s.57.7.8 1.4s.77 2.05 1.14 2.62s.44 1.61 1.31 1.51c.87-.1.81-1.21 1.07-1.95c.27-.74.94-1.41 1.21-1.64c.27-.23.84-.87 1.11-.77c.27.1.71.94 1.07 1.41c.6.77 2.31 1.51 2.31 1.51s2.44.73 2.78-.34c.3-.94-.32-2.17-.1-2.58c.28-.5 1.32-.52 2.32-.8c1.31-.37 1.68-1.38 1.81-2.48s-.6-2.42-.6-2.42z"/><path fill="#D0FE8B" d="M97.72 79.27c.16-.22-.77-.65-1.46-1.82s-.98-1.85-1.32-1.92c-.34-.07-2.3.84-2.3 1.01s.98 1.41.98 1.41s-1.34.36-1.99-.62c-.65-.98-.55-1.85-.96-2.54c-.41-.69-1.05-1.68-1.44-1.65c-.38.02-.84.34-.65 1.01s.34.89.34.89c.34.74-.46 1.7-.12 2.25s3.12 2.4 3.62 2.61s5.01-.23 5.3-.63zm-.33-3.74c.74.08.91-1.7.77-2.4s-.72-2.52-1.32-2.52c-.6 0-1.13.74-1.01 1.22c.12.48.53 1.2.55 1.44c.02.25.33 2.19 1.01 2.26zm2.25.81c-.14.09-.24 1.13-.1 1.25c.14.12 1.15.24 1.63.86s.5 1.29.81 1.39c.31.1 2.88-.48 2.88-1.63c0-.62-4.79-2.15-5.22-1.87zm10.66 14.47c.26-.45.08-1.29.34-1.79c.26-.49.96-.72 1.27-.36c.31.36.34 1.58.13 1.97c-.14.26-.16 1.16-.88 1.79s-1.14.57-1.35.62c-.21.05-1.19.88-1.6.34c-.41-.54.18-1.42.75-1.84c.56-.42 1.16-.42 1.34-.73zm-8.46-8.75c-.1-.1-.23-1.84-1.16-1.89c-.93-.05-1.68.72-1.68.72s-1.16-.08-1.45.16c-.28.23-1.35 1.37-1.81 1.58c-.47.21-1.19.41-1.68.62c-.49.21-.78.96-.72 1.76c.05.8.23 2.59.31 3c.08.41.62 1.5 1.94.98c1.32-.52 1.79-1.16 2.02-1.19c.23-.03 2.33-.03 2.46-.1c.13-.08 1.32 2.07 2.36 2.3c1.04.23 2.33.13 2.56-.05c.23-.18 1.6-2.07 1.73-2.74c.13-.67.1-2.07-.16-2.61s-1.92-2.36-1.92-2.36s-.26-1.97-1.48-1.99c-.96-.02-.28 1.42-.52 1.66c-.23.23-.8.15-.8.15z"/></svg>