<svg xmlns="http://www.w3.org/2000/svg" width="1em" height="1em" viewBox="0 0 128 128"><defs><path id="notoCancer0" fill="#F9DF9D" d="M24 29.7c4.5-7.1 14.1-13 24.1-14.8c2.5-.4 5-.6 7.1.2c1.6.6 2.9 2.1 2 3.8c-.7 1.4-2.6 2-4.1 2.5c-9.3 3-17.9 6.4-23.1 14.3c-2 3-4.9 14.4-8.6 12.3c-3.9-2.3-3.1-9.5 2.6-18.3z" opacity=".65"/></defs><circle cx="64" cy="64" r="60" fill="#FFA000"/><circle cx="60.1" cy="63.1" r="56.1" fill="#FFCA28"/><use href="#notoCancer0" opacity=".65"/><g fill="#FAFAFA"><path d="M45.1 76.2C54.9 75 62.8 66.9 64 56.8c.9-8.4-2.8-16.5-9.5-21c2.6-.3 5.2-.5 7.9-.5c6.2 0 12.1.9 17.6 2.7c4.3 1.5 8.4 3.4 12 5.8c.6.4 1.3.6 1.9.6c2 0 3.6-1.6 3.6-3.6c0-1-.4-2-1.2-2.7c-4.3-4-9.4-7-15.2-9.1c-5.8-2.2-12.2-3.2-18.8-3.2c-6.3 0-11.8.9-18.9 3.1C24.9 34.8 21 45.9 21 54.2c0 12.2 9.6 22.1 21.5 22.1c.9 0 1.8-.1 2.6-.1zm-14.3-22c0-6.8 5.3-12.3 11.9-12.3s11.9 5.5 11.9 12.3s-5.3 12.3-11.9 12.3S30.8 61 30.8 54.2z"/><path d="M85.4 51.7c-.8 0-1.6 0-2.4.1c-9.9 1.2-17.8 9.3-19 19.4c-.9 8.4 2.8 16.5 9.4 21c-2.6.3-5.2.5-7.9.5c-6.2 0-12.1-.9-17.7-2.7c-4.3-1.4-8.4-3.4-12-5.8c-.6-.4-1.3-.6-2-.6c-2 0-3.6 1.6-3.6 3.6c0 1 .4 2 1.1 2.7c4.3 4 9.4 7.1 15.2 9.2c5.8 2.2 12.2 3.2 18.8 3.2c6.3 0 11.8-.9 18.9-3.1c18.5-5.8 22.4-17 22.4-25.3c.2-12.3-9.4-22.2-21.2-22.2zm0 34.4c-6.6 0-11.9-5.5-11.9-12.3s5.3-12.3 11.9-12.3S97.2 67 97.2 73.8s-5.3 12.3-11.8 12.3z"/></g><use href="#notoCancer0" opacity=".35"/></svg>