<svg xmlns="http://www.w3.org/2000/svg" width="1em" height="1em" viewBox="0 0 128 128"><circle cx="64" cy="64" r="60" fill="#C33"/><circle cx="60.1" cy="63.1" r="56.1" fill="#F44336"/><path fill="#FF8A80" d="M24 29.7c4.5-7.1 14.1-13 24.1-14.8c2.5-.4 5-.6 7.1.2c1.6.6 2.9 2.1 2 3.8c-.7 1.4-2.6 2-4.1 2.5a44.64 44.64 0 0 0-23 17.4c-2 3-5 11.3-8.7 9.2c-3.9-2.3-3.1-9.5 2.6-18.3z"/><path fill="#FAFAFA" d="M104 72H24c-2.21 0-4-1.79-4-4v-8c0-2.21 1.79-4 4-4h80c2.21 0 4 1.79 4 4v8c0 2.21-1.79 4-4 4z"/></svg>