<svg xmlns="http://www.w3.org/2000/svg" width="1em" height="1em" viewBox="0 0 128 128"><path fill="#FFF" d="m20.55 21.01l20.92 4.78l40.65 1.2l24.96-4.04l6.65-6.79l.93 4.31l-43.07 43.08l-2.56 4.77l-.11 27.48s.93 6.52 3.61 7.8c2.68 1.28 12.23 2.45 16.07 5.36s2.1 5.71 2.1 5.71l-6.87 5.12l-19.44 3.03l-21.42-2.21s-8.01-4.94-8.01-6.69c0 0-.32-3.37 3.82-5.77c3.65-2.12 12.97-2.55 15.14-4.19c4.31-3.26 4.54-6.75 4.54-6.75l.35-28.87l-5.94-6.87S25.16 35.74 21.32 31.55c-3.84-4.19-5.59-6.52-7.22-8.97c-3.99-5.98-.34-9.98-.34-9.98l6.79 8.41z" opacity=".5"/><path fill="#E0E0E0" d="M17.57 11.86L35.5 7.31L66 6.38l31.44 3.73l16.3 6.05l.93 4.31l-43.08 43.08l-2.56 4.77l-.11 27.48s.93 6.52 3.61 7.8c2.68 1.28 12.23 2.45 16.07 5.36s2.1 5.71 2.1 5.71l-6.87 5.12l-19.44 3.03l-21.42-2.21s-8.01-4.94-8.01-6.69c0 0-.32-3.37 3.82-5.77c3.65-2.12 12.97-2.55 15.14-4.19c4.31-3.26 4.54-6.75 4.54-6.75l.35-28.87l-5.94-6.87S25.16 35.74 21.32 31.55c-3.84-4.19-5.59-6.52-7.22-8.97c-3.99-5.98-.34-9.98-.34-9.98l3.81-.74z" opacity=".7"/><path fill="#FEF9E5" d="M24.89 26.32s11.78-6.06 39.31-5.7s38.34 7.98 38.34 7.98L87 39.35L45.23 37.4L24.89 26.32z"/><path fill="#E5DDA0" d="M64.9 33.06c-25.58-.61-40.43-6.7-40.43-6.7l30.45 30.08s3.61 4.54 8.24 4.54c4.63 0 6.37-1.98 7.96-3.2c1.58-1.22 31.46-29.17 31.46-29.17s-16 4.96-37.68 4.45z"/><path fill="#9E9E9E" d="m112.53 20.87l-1.59 2.22s-34.67 33.62-41.3 39.86c-2.72 2.56-3.65 4.5-3.54 7.53c.1 2.78-1.79 16.9-1.79 16.9l1.86 15.59s.89 2.54 2.93 4.07c2.04 1.53 7 2.16 7 2.16s-3.94-2.32-5.34-5.95s-1.21-5.12-1.21-7.28V69.45c0-1.78 2.16-4.13 3.69-5.6c1.53-1.46 37.39-36.69 38.79-38.22c2.71-2.96 3.56-4.92 3.68-6.45c.13-1.53-.33-3.6-.91-2.58c-.57 1.03-2.27 4.27-2.27 4.27zm-62.26 87.57s4.51-2.42 5.72-5.86s1.59-5.65 1.65-10.17s0-21.75 0-23.78c0-2.45-3.04-4.9-4.41-6.78c-.24-.33 1.81.34 3.82 1.56c2.45 1.49 4.89 2.89 4.66 6.51c-.23 3.52.22 12.18.22 12.18l-.16 15.66s.07 6.31-3.82 8.48c-3.35 1.86-7.68 2.2-7.68 2.2zm-15.33 5.05c-.12.33-.19 3.6 2.29 5.19c1.78 1.14 7.3 5.54 25.63 5.6c21.24.06 27.13-6.51 27.85-8.33c.83-2.1.35-4.17.17-4.12c-.13.04-.55 1.13-1.12 1.76c-.57.64-4.64 5.47-15.71 6.74s-22.45.64-29.76-1.53s-9.29-5.47-9.35-5.31z"/><path fill="#FFF" d="M37.8 111.81c-.55.9-.23 2.39 1.97 3.75c3.18 1.97 10.37 3.62 14.31 3.43c3.94-.19 4.01-2.73.45-3.31c-3.56-.57-8.52-1.02-12.85-3.37c-1.15-.61-2.99-1.96-3.88-.5zm22.01-.44c.14 1.79 2.86 1.4 4.2 1.4c1.34 0 3.12-.13 3.05-1.59c-.06-1.46-2.48-1.33-3.5-1.27c-1.21.06-3.88-.2-3.75 1.46zm4-43.75c-2.08.03-2.95.89-2.97 7.75c-.02 5.72-.27 26.59-.59 27.74s-1.21 3.43-1.02 4.52c.19 1.08 1.46 1.53 4.07 1.53c2.61 0 3.94-1.21 4.01-2.73c.06-1.53-.51-2.16-.7-3.37c-.19-1.21-.16-21.71-.16-27.37c0-4.43.05-8.12-2.64-8.07zm-40.6-42.31c-1.26 1.26 12.15 14.21 17.3 19.36s17.34 16.14 18.46 14.94S46.42 45.89 41.8 41.32c-7.13-7.04-17.3-17.3-18.59-16.01z"/><path fill="#BFBFBF" d="M12.78 15.1c-.15-2.38 1.93-11.44 52.42-10.84c49.74.59 50.49 11.88 50.34 13.96c-.15 2.08-4.45-.89-4.45-.89s-9.85-8.88-46.37-9.02c-36.53-.15-46.28 4.12-46.58 6.35s-.59 4.01-.59 4.01l-4.77-3.57z"/><path fill="#F8C977" d="M76.74 32.82c9.75-7.8 30.02-23.97 31.61-25.22c2.19-1.72 8.54-5.72 9.09-5.17c.55.55-3.76 6.03-6.58 8.7c-1.73 1.63-15.72 13.12-25.32 20.9c-6.08 4.93-12.5 3.75-8.8.79z"/><path fill="#E3C08F" d="m70.04 38.47l6.7-5.66s2.21-.09 4.3-.26c1.8-.15 4.48-.5 4.48-.5L73.1 42.38l-3.06-3.91z"/><path fill="#919F50" d="M74.98 37.92c-2.99-3.64-9.65-3.29-13.63.31c-4.15 3.76-4.86 9.32-1.65 13s8.38 4.07 13.24-.24c4.86-4.3 4.23-10.41 2.04-13.07z"/><path fill="#E8DE9F" d="M61.27 43.48c1.1 1.33 2.66.78 3.92-.24c1.23-1 2-2.49 1.1-3.6c-1.02-1.25-2.66-.63-3.76.24s-2.19 2.48-1.26 3.6z"/><path fill="#EF3E24" d="M59.43 46.44c-1.4.89-.11 3.29.67 4.3c.56.72 2.18 2.57 3.46 1.51c1.28-1.06 0-3.07-.89-4.41c-.56-.83-1.8-2.32-3.24-1.4z"/><path fill="#BFBFBF" d="M64.1 29.37c20.93.34 43.51-1.39 49.34-7.18c5.15-5.11-.44-8.94-.44-8.94l-1.92 4.06l-3 3.46l-8.8 2.63l-9 1.31l-18.5 1.01l-19.41-.51l-14.76-2.31l-11.43-2.33l-7.68-4.04l-1.92-3.54s-3.73.97-3.79 1.8c-.1 1.34.58 2.74 1.56 3.96c1.87 2.33 12.03 10.02 49.75 10.62z"/><path fill="#FEFEFE" d="M72.22 26.22c-2.39 0-4.92-.03-7.59-.09c-33.41-.73-44.1-5.48-47.2-9.34c-1.22-1.52-1.06-2.69-1.02-2.91c.11-.54.64-.89 1.18-.78c.53.1.87.6.79 1.13c0 .06.01.66.8 1.54c2.54 2.81 11.83 7.63 45.48 8.36c34.79.76 43.16-3.87 45.14-5.9c.72-.73.7-1.22.7-1.22c-.11-.54.25-1.04.79-1.14c.54-.11 1.07.28 1.18.82c.04.2.18 1.27-.93 2.6c-2.7 3.24-11.85 6.93-39.32 6.93z"/></svg>