<svg xmlns="http://www.w3.org/2000/svg" width="1em" height="1em" viewBox="0 0 128 128"><path fill="#7A9C41" d="M30.37 22.83c-.53-.95-6.76-7.19-6.76-7.19s-1.37-2.11-4.23-2.11s-3.7 2.84-5.8 6.47c-1.8 3.11-9.87 16.01-9.78 36.11c.08 17.12 3.85 26.32 11.67 36.26c6.76 8.59 21.87 17.65 38.89 20.82c17.01 3.17 39.84 1.9 52.63-6.97s15.32-18.78 16.49-26c1.48-9.17 1.22-21.13-2.47-22.49c-3.26-1.19-8.2 1.4-8.2 1.4l-82.44-36.3z"/><path fill="#FFF6A0" d="m108.7 54.96l3.72.12l6.46 2.33S101.9 93 67.68 100.82c-32.17 7.35-55.83-8.36-58.51-37.81c-2.8-30.81 13.99-47.9 13.99-47.9l4.68 2.46l25.12 46.55l55.74-9.16z"/><path fill="#FF6C75" d="M31.56 89.24c17.93 12.78 47.79 4.69 63.47-11.65c16.26-16.95 17.4-22.51 17.4-22.51s-19.27-7.91-28.78-12.41s-37.69-16.85-42.2-19.02s-13.85-6.22-13.85-6.22s-8.34 11.24-11.46 26.27s-1.44 33.53 15.42 45.54z"/><path fill="#2F2F2F" d="M42.58 42.19c.2.87-.34 3.98-4.53 5.89c-2.17.99-3.87.05-4.48-1.46c-.68-1.68.3-3.88 2.69-4.9c2.74-1.18 6.18-.15 6.32.47zm7.55 12.38c1.3 1.19-.38 5-1.28 6.16c-.9 1.17-3.64 3.69-5.84 1.32c-2.27-2.46.63-5.39 1.56-6.17s4.29-2.47 5.56-1.31zm13.42 5.01c-1.29-.07-4.15 2.83-3.71 6.27c.4 3.11 2.03 3.73 3.37 3.83c1.33.1 3.02-1.2 3.27-4.41c.27-3.58-1.99-5.64-2.93-5.69zm13.69-2.96c-.91.64-1.32 4 .3 6.69c1.29 2.13 3.55 3.14 5.37 1.72c1.82-1.42 1.52-4-.46-6.23c-1.97-2.23-4.35-2.79-5.21-2.18z"/><path fill="#C1CA32" d="M119.47 70.52c.4.64.94 2.01-.04 3.74c-.86 1.52-1.89 2.3-1.6 4.24s1.77 1.6 1.69 5.51c-.06 2.86-2.18 4.98-4.03 6.46c-1.85 1.48-3 2.72-3.17 5.27c-.17 2.61-.62 4.98-2.18 6.46c-2.76 2.59-5.08 1.05-7.53 3.5c-1.94 1.94-1.57 3.83-1.57 3.83s-1.9.93-5.29 2.01c-4.2 1.33-6.52 1.59-6.52 1.59s2.39-1.8 3.05-3.77s1.28-5.06 3.58-6.95c4.57-3.62 7.77-.82 9.79-2.88c1.81-1.85-.37-4.15 1.97-8.47c1.95-3.59 6.13-3.58 6.42-6.34c.29-2.76-1.51-3.08-.99-6.58c.66-4.41 6.21-7.95 6.42-7.62z"/><path fill="#C1CA32" d="M57.16 113.66s.64-3.15 4.51-4.39c2.47-.99 4.61.45 7.03-.37c2.43-.82 2.72-3.95 6.29-5.72c3.58-1.77 6.17.78 9.58-.37s1.81-5.43 4.85-8.43c3.67-3.62 6.94-1.16 9.58-3.13c3.54-2.63 2.71-7 5.39-7.08c1.4-.04 2.1 2.63 1.23 5.92c-.86 3.29-3.29 5.19-5.64 5.92c-2.51.78-3.91.21-5.68 2.59c-1.2 1.61-1.71 5.29-5.14 7.36c-5.1 3.09-6.99 1.11-9.91 3.09c-3.41 2.72-3.74 5.61-3.74 5.61s-5.97.19-8.81.03c-4.46-.25-9.54-1.03-9.54-1.03zm-20.54-6.07s5.47.41 8.31.16c2.84-.25 8.19-1.11 8.52 1.4s-2.43 3.33-2.43 3.33s-4.57-.99-7.53-2.06c-2.97-1.06-6.87-2.83-6.87-2.83z"/></svg>