<svg xmlns="http://www.w3.org/2000/svg" width="1em" height="1em" viewBox="0 0 128 128"><path fill="#04841F" d="m34.99 79.34l-5.49 3.1s.56 13.09-.99 18.16s-3.8 8.73-4.79 10.14s-3.8 2.5-2.67 6.05c.67 2.1 3.8 2.82 8.87 2.67c5.07-.14 14.36-6.9 14.36-6.9l2.96-14.64l17.6 6.76s-.42 2.25-.7 3.1c-.28.84-1.97 3.24-1.83 4.5c.14 1.27 1.8 2.01 9.71 1.83c7.78-.18 9.15-9.57 9.15-9.57l-6.48-14.22l-39.7-10.98z"/><path fill="#02AB47" d="M20.3 11.48c1.84-.77 3.33-7.65 10.42-6.57c7.23 1.1 6.01 7.27 6.76 8.02s6.39 2.77 6.21 7.13c-.19 4.34-1.79 8.21-6.68 9.06s-10.42-.94-12.86-.28c-2.44.66-4.69 3.33-4.22 7.6c.27 2.43 2.84 15.4 11.17 22.24c9.48 7.79 14.83 7.41 26.84 7.98c12.01.56 19.85 2.49 26.94 8.82c5.05 4.51 9.21 17.15 22.15 14.55c11.92-2.39 5.82-14.73-2.16-16.52c-4.6-1.03-9.01-.94-9.1-2.63c-.09-1.69 3.34-3.41 9.34-3.14c7.32.33 18.25 6.01 18.07 16.94c-.18 10.63-10.23 14.83-10.23 14.83l-12.29 3.47l-12.68 2.11s.18 2.12 1.58 4.75s3.1 7.88 1.65 10.63c-.94 1.78-3.27 2.43-9.68 2.5c-5.22.06-9.94-.67-10.1-2.64c-.19-2.35.83-3.18 2.25-4.15c1.5-1.03 1.28-1.61 1.48-3.17c.2-1.56-.1-4.44-.53-5.81c-.42-1.34-1.65-3.31-1.65-3.31l-22.63.21s-.38.84-.56 4.5c-.19 3.66.55 8.77-.09 10.23c-.89 2.02-3.57 3.94-10.14 4.04c-6.57.09-10.61-1.5-10.32-5.07c.28-3.57 3-4.13 3.94-5.73c.94-1.6 3.24-7.27 3.47-9.71c.2-2.07-.19-4.93-.09-6.52S33.07 84.5 33.07 84.5s-7.51-9.48-10.79-12.86c-3.07-3.16-9.1-10.7-9.1-10.7S4.73 47.05 5.76 33.91S13.55 14.3 20.3 11.48z"/><path fill="#BDCE46" d="M12.33 32.25c3.07-7.3 8.66-9.43 11.26-10.28s7.88-1.55 10.14-1.9s9.92-.84 9.92-.84s.24.59.14 1.79c-.11 1.34-.56 2.01-.56 2.01s-8.45 1.2-8.45 2.75s2.46 1.41 3.45 1.41s2.96-.07 2.96-.07s-.46 1.34-2.99 2.04c-2.51.7-6.3.63-9.47.77s-5.21.7-6.12 1.9c-.92 1.2-4.36 3.8-2.46 17.46s11.3 28.88 13.55 33.08c.81 1.51 3.55 4.96 3.7 6.23c.06.58-.59 1.91-.81 3.73c-.26 2.17-.11 4.82-.11 4.82s-3.04-3.97-4.36-6.41c-2.11-3.87-2.6-7-2.6-7s-11.19-10.8-16.26-21.72s-3.89-22.73-.93-29.77z"/><path fill="#303030" d="M35.2 18.38c.03 1.61-1.67 2.84-3.55 2.39c-1.2-.28-1.93-1.29-1.69-2.89c.24-1.59 1.11-2.65 2.57-2.82c1.51-.16 2.64 1.17 2.67 3.32z"/><path fill="#BDCE46" d="M49.88 106.86s-.21-3.31 1.06-4.96c.65-.85 1.13-1.34 1.13-1.34s6.86.51 9.96.6c3.8.11 10.84-.14 10.84-.14l.6 2.57c.42 1.83 1.16 3.66 1.16 3.66s-6.12.66-12.53.56c-7.01-.1-12.22-.95-12.22-.95zm37.24-5.1s.32.81.46 1.62c.13.72.32 1.79.32 1.79s11.09.28 19.32-1.97c8.24-2.25 12.92-8.35 13.87-10.21c.99-1.94 1.57-3.84.53-2.43c-2.04 2.78-5.53 7.5-14.39 9.75s-20.11 1.45-20.11 1.45z"/><circle cx="50.51" cy="77.55" r="2.33" fill="#7CDB8A" transform="rotate(-81.749 50.512 77.559)"/><ellipse cx="60.57" cy="75.81" fill="#7CDB8A" rx="2.01" ry="1.86" transform="rotate(-77.45 60.572 75.814)"/><ellipse cx="72.55" cy="82.33" fill="#7CDB8A" rx="2.22" ry="2.29"/><ellipse cx="69.19" cy="74.83" fill="#7CDB8A" rx="1.68" ry="1.76"/><ellipse cx="62.38" cy="83.1" fill="#7CDB8A" rx="1.76" ry="1.87"/><ellipse cx="80.1" cy="76.93" fill="#7CDB8A" rx="1.64" ry="1.84"/><ellipse cx="82.52" cy="86.08" fill="#7CDB8A" rx="1.48" ry="1.45" transform="rotate(-4.537 82.5 86.062)"/><ellipse cx="41.82" cy="69.48" fill="#7CDB8A" rx="1.76" ry="1.55" transform="rotate(-77.814 41.82 69.482)"/><ellipse cx="54.34" cy="69.37" fill="#7CDB8A" rx="1.62" ry="1.48" transform="rotate(-77.954 54.345 69.367)"/></svg>