<svg viewBox="0 0 128 128"><path fill="#176cc7" d="M69 4.2c-1 1-9.4 17.7-9.4 17.7L53.4 47l24.3-2.3L98.3 6.5C99 4.8 99.4 4 96.6 4s-26.5-.8-27.5.1"/><path fill="#fcc417" d="M81.7 43.3a255 255 0 0 0-37.7 0c-.8 1-.7 6.1-.3 6.8s12.4 6.2 12.4 6.2v2s.6 1.6 7.3 1.6 7.4-1.3 7.4-1.3v-2s10.5-5.3 11-5.8 1-6.9-.1-7.5m-11 8.3s0-1.4-.7-1.7-11.8-.3-12.8-.3-.9 1.8-.9 1.8l-7.6-3.7v-.8l28.3.2v.9z"/><path fill="#fdffff" d="M59.3 51.2q-1.5.1-1.5 2.6c0 1.6.5 3 1.7 2.9 1-.1 1.3-1.6 1.2-3q.1-2.4-1.4-2.5"/><path fill="#fcc417" d="M29 90.7c0 24 21.6 34.7 36 34.1 16-.5 35-13 33.8-35.8-1.1-21.6-19.3-31.9-35.1-31.8C45.4 57.3 29 69.8 29 90.7"/><path fill="#fa912c" d="M64.5 120.7h-.7a31 31 0 0 1-20.4-8.7 29 29 0 0 1-8.9-21.4 29.5 29.5 0 1 1 50 21.6 29 29 0 0 1-20 8.5m-.7-56c-10.6 0-26.3 8.7-26.3 26 0 12.8 10 26 26.5 26.6a25 25 0 0 0 18.1-7.4 27 27 0 0 0 8.4-19A26.6 26.6 0 0 0 64 64.7z"/><path fill="#fefffa" d="M57.8 60.6c-.7-1-8.5-.8-15.9 6.5-7.1 7-7.9 13.5-6.5 13.9s3.4-6.5 10-12.4c6-5.4 13.8-6.1 12.4-8m30.3 25.9c-2.4.3 0 7.5-5.5 15.6-4.9 7-10.4 9.6-9.7 11.1.8 2 9.6-3 13.7-11.4 3.7-7.6 3.3-15.6 1.5-15.3"/><path fill="#fa912c" d="M55.9 77c-.6.8-.1 7.5.2 7.8.6.6 5.2-1.5 5.2-1.5l-.2 18-3.7.1c-.7.3-.6 7.3 0 7.6s14 .5 14.6-.2.4-6.8.2-7c-.5-.6-3.7-.3-3.7-.3l.1-27.5c0-.9-1-1.4-2.1-1.1S56.2 76.5 55.8 77"/><path fill="#2e9df4" d="M25.5 3.7C25 4.3 49 47.2 49 47.2s4 .5 13 .6 13.5-.5 13.5-.5S56.8 4.2 55.7 3.7c-.6-.2-8-.3-15.3-.4-7.2 0-14.3-.1-14.9.4"/></svg>