<svg xmlns="http://www.w3.org/2000/svg" width="1em" height="1em" viewBox="0 0 128 128"><path fill="#176CC7" d="M69.09 4.24c-1.08.96-9.48 17.63-9.48 17.63l-6.25 25.21l24.32-2.23S97.91 7.23 98.32 6.36c.73-1.58 1.12-2.23-1.67-2.23c-2.79-.01-26.55-.79-27.56.11"/><path fill="#CECDD2" d="M81.68 43.29c-1.21-.65-36.85-1.21-37.69 0c-.76 1.1-.33 6.87-.04 7.56c.52 1.2 12.03 6.43 12.03 6.43l-.22 2.38s.94.24 7.63.24s8.01-.34 8.01-.34l.02-2.15s10.36-5.04 10.88-5.74c.44-.58.59-7.73-.62-8.38m-10.61 9.12s.33-1.47-.36-1.81c-.69-.35-12.53-.19-13.47-.14c-.94.05-.94 1.73-.94 1.73l-7.6-4.53v-.74l28.3.2l.05.84z"/><path fill="#FDFFFF" d="M59.26 51.17c-.94 0-1.48.98-1.48 2.67c0 1.58.54 2.91 1.73 2.81c.98-.08 1.32-1.58 1.23-2.91c-.09-1.58-.29-2.57-1.48-2.57"/><path fill="#CECDD2" d="M28.97 91.89c0 23.96 22.05 34.13 36.46 33.7c16.79-.5 34.51-13.24 33.36-36.1C97.7 67.83 79.33 58.2 63.55 58.31c-18.34.14-34.58 12.65-34.58 33.58"/><path fill="#9B9B9D" d="M64.53 121.13c-.25 0-.51 0-.76-.01c-7.5-.25-14.91-3.41-20.33-8.66c-5.8-5.62-8.98-13.22-8.94-21.39c.09-19.95 17.53-29.2 29.36-29.2h.1c16.03.07 29.19 12.53 29.56 29.42c.16 7.52-2.92 15.41-8.96 21.35c-5.64 5.53-13.12 8.49-20.03 8.49m-.69-55.94c-10.61 0-26.3 8.68-26.34 25.88c-.03 12.86 9.93 26.08 26.52 26.64c6.32.2 12.83-2.22 18.09-7.39c5.46-5.37 8.53-12.29 8.42-18.99c-.26-14.53-12.14-26.09-26.56-26.16c-.02 0-.1.02-.13.02"/><path fill="#FEFFFA" d="M58.09 61.47c-.69-.95-7.76-.68-15.37 5.87c-7.56 6.51-8.69 13.71-7.33 14.09c1.55.43 3.44-6.53 9.97-12.38c6-5.35 14.1-5.69 12.73-7.58m29.79 26.25c-2.41.34.09 7.56-5.5 15.64c-4.85 7.01-10.35 9.55-9.71 11.09c.86 2.06 9.67-3.07 13.75-11.43c3.69-7.56 3.25-15.55 1.46-15.3"/><path fill="#2E9DF4" d="M25.51 3.72c-.63.58 23.46 43.48 23.46 43.48s4.04.52 13.06.6s13.49-.52 13.49-.52S56.79 4.15 55.67 3.72c-.55-.22-7.97-.3-15.22-.38c-7.26-.09-14.34-.18-14.94.38"/><path fill="#9B9B9D" d="M56.85 86.35c1.04.01 1.97-1.4 2.83-2.26c1.83-1.84 3.75-3.3 5.94-1.32C71 87.66 60.2 92.62 56.1 99.4c-3.06 5.06-3.68 8.95-2.83 9.99s21.54.99 21.82.47c.28-.52.57-7.45.09-7.78s-10.65-.14-10.65-.14s.85-1.98 4.34-5c3.83-3.31 6.9-7.86 6.08-13.24c-1.7-11.12-12.9-11.53-17.75-7.66c-4.73 3.77-3.71 10.27-.35 10.31"/></svg>