<svg viewBox="0 0 128 128"><path fill="#176cc7" d="M69 4.2c-1 1-9.4 17.7-9.4 17.7L53.4 47l24.3-2.3L98.3 6.5C99 4.8 99.4 4 96.6 4s-26.5-.8-27.5.1"/><path fill="#cecdd2" d="M81.7 43.3a255 255 0 0 0-37.7 0c-.8 1-.3 6.9 0 7.6.5 1.2 12 6.4 12 6.4l-.2 2.4s.9.2 7.6.2 8-.3 8-.3v-2.2s10.4-5 10.9-5.7c.4-.6.6-7.8-.6-8.4M71 52.4s.3-1.5-.4-1.8-12.5-.2-13.5-.1-.9 1.7-.9 1.7l-7.6-4.5v-.8l28.3.2v.9z"/><path fill="#fdffff" d="M59.3 51.2q-1.5.1-1.5 2.6c0 1.6.5 3 1.7 2.9 1-.1 1.3-1.6 1.2-3q.1-2.4-1.4-2.5"/><path fill="#cecdd2" d="M29 91.9c0 24 22 34.1 36.4 33.7a33.6 33.6 0 0 0 33.4-36.1c-1.1-21.7-19.5-31.3-35.2-31.2C45.2 58.5 29 71 29 92"/><path fill="#9b9b9d" d="M64.5 121.1h-.7a31 31 0 0 1-20.4-8.6c-5.8-5.7-9-13.3-8.9-21.4a29.5 29.5 0 1 1 50 21.6 29 29 0 0 1-20 8.4m-.7-56c-10.6 0-26.3 8.8-26.3 26 0 12.8 10 26 26.5 26.6 6.3.2 12.8-2.2 18.1-7.4a27 27 0 0 0 8.4-19A26.7 26.7 0 0 0 64 65.2z"/><path fill="#fefffa" d="M58 61.5c-.6-1-7.7-.7-15.3 5.8-7.5 6.6-8.7 13.8-7.3 14.1 1.5.5 3.4-6.5 10-12.3 6-5.4 14-5.7 12.7-7.6m29.8 26.2c-2.4.4 0 7.6-5.5 15.7-4.9 7-10.4 9.5-9.7 11 .8 2.1 9.6-3 13.7-11.4 3.7-7.5 3.3-15.5 1.5-15.3"/><path fill="#2e9df4" d="M25.5 3.7C25 4.3 49 47.2 49 47.2s4 .5 13 .6 13.5-.5 13.5-.5S56.8 4.2 55.7 3.7c-.6-.2-8-.3-15.3-.4-7.2 0-14.3-.1-14.9.4"/><path fill="#9b9b9d" d="M56.9 86.4c1 0 2-1.5 2.8-2.3 1.8-1.9 3.7-3.3 6-1.3 5.3 4.9-5.5 9.8-9.6 16.6-3 5-3.7 9-2.8 10s21.5 1 21.8.5.6-7.5 0-7.8-10.6-.2-10.6-.2.9-2 4.4-5c3.8-3.3 6.9-7.8 6-13.2C73.3 72.6 62 72.2 57.3 76s-3.7 10.3-.3 10.4"/></svg>