<svg xmlns="http://www.w3.org/2000/svg" width="1em" height="1em" viewBox="0 0 128 128"><path fill="#176CC7" d="M69.09 4.24c-1.08.96-9.48 17.63-9.48 17.63l-6.25 25.21l24.32-2.23S97.91 7.23 98.32 6.36c.73-1.58 1.12-2.23-1.67-2.23c-2.79-.01-26.55-.79-27.56.11"/><path fill="#F79429" d="M81.68 43.29c-1.21-.65-36.85-1.21-37.69 0c-.76 1.1-.33 6.87-.04 7.56c.52 1.2 12.03 6.43 12.03 6.43l-.22 2.38s.94.24 7.63.24s8.01-.34 8.01-.34l.02-2.15s10.36-5.04 10.88-5.74c.44-.58.59-7.73-.62-8.38m-10.61 9.12s.33-1.47-.36-1.81c-.69-.35-12.53-.19-13.47-.14c-.94.05-.94 1.73-.94 1.73l-7.46-3.84l-.14-1.43l28.3.2l-.1 1.35z"/><path fill="#FDFFFF" d="M59.26 51.89c-.94 0-1.48.98-1.48 2.67c0 1.58.54 2.91 1.73 2.81c.98-.08 1.32-1.58 1.23-2.91c-.09-1.59-.29-2.57-1.48-2.57"/><path fill="#F79429" d="M29.31 92.09c0 23.96 21.71 33.93 36.12 33.5c16.79-.5 34.85-13.24 33.36-36.1c-1.4-21.45-19.46-31.29-35.24-31.18c-18.34.14-34.24 12.85-34.24 33.78"/><path fill="#D25116" d="M64.67 121.97c-.25 0-.51 0-.76-.01c-7.5-.25-14.91-3.41-20.33-8.66c-5.8-5.62-8.98-13.22-8.94-21.39c.09-19.95 17.53-29.2 29.36-29.2h.1c16.03.07 29.19 12.53 29.56 29.42c.16 7.52-2.24 15-8.28 20.94c-5.64 5.52-13.8 8.9-20.71 8.9m-.69-55.94c-10.61 0-26.3 8.68-26.34 25.88c-.03 12.86 9.93 26.08 26.52 26.64c6.32.2 13.45-2.14 18.7-7.3c5.46-5.37 7.91-12.37 7.8-19.07c-.24-14.53-12.12-26.09-26.54-26.15c-.03-.02-.11 0-.14 0"/><path fill="#FEFFFA" d="M58.09 61.47c-.69-.95-7.76-.68-15.37 5.87c-7.56 6.51-8.69 13.71-7.33 14.09c1.55.43 3.44-6.53 9.97-12.38c6-5.35 14.1-5.69 12.73-7.58m30.39 26.17c-2.41.34.09 7.56-5.5 15.64c-4.85 7.01-10.35 9.55-9.71 11.09c.86 2.06 9.67-3.07 13.75-11.43c3.69-7.57 3.25-15.56 1.46-15.3"/><path fill="#2E9DF4" d="M25.51 3.72c-.63.58 23.46 43.48 23.46 43.48s4.04.52 13.06.6s13.49-.52 13.49-.52S56.79 4.15 55.67 3.72c-.55-.22-7.97-.3-15.22-.38c-7.26-.09-14.34-.18-14.94.38"/><path fill="#D25116" d="M74.95 83.71c-1.16-10.05-12.86-10.89-17.71-7.03c-4.72 3.76-4.27 9-.96 9.61c2.61.48 3.29-1.59 4.05-2.54c1.72-2.13 4.46-2.33 6.25-.62c2.03 1.95.78 6.61-2.27 6.8c-2.27.14-3.42.02-3.71.41c-.41.55-.35 4.88.07 5.36c.48.55 2.4.21 4.05.27c2.27.09 4.68 3.45 3.09 5.97c-1.65 2.61-6.04 1.44-7.62-.14c-2.09-2.09-4.18-.89-4.88-.07c-1.1 1.3-2.27 4.26 1.79 7.14c4.05 2.88 16.34 3.43 18.82-5.49c2.16-7.79-2.88-10.99-2.88-10.99s2.57-2.95 1.91-8.68"/></svg>