<svg viewBox="0 0 128 128"><path fill="#176cc7" d="M69 4.2c-1 1-9.4 17.7-9.4 17.7L53.4 47l24.3-2.3L98.3 6.5C99 4.8 99.4 4 96.6 4s-26.5-.8-27.5.1"/><path fill="#f79429" d="M81.7 43.3a255 255 0 0 0-37.7 0c-.8 1-.3 6.9 0 7.6.5 1.2 12 6.4 12 6.4l-.2 2.4s.9.2 7.6.2 8-.3 8-.3v-2.2s10.4-5 10.9-5.7c.4-.6.6-7.8-.6-8.4M71 52.4s.3-1.5-.4-1.8-12.5-.2-13.5-.1-.9 1.7-.9 1.7l-7.5-3.9-.1-1.4 28.3.2-.1 1.4z"/><path fill="#fdffff" d="M59.3 51.9q-1.5 0-1.5 2.7c0 1.5.5 2.9 1.7 2.8 1-.1 1.3-1.6 1.2-3q.1-2.4-1.4-2.5"/><path fill="#f79429" d="M29.3 92c0 24 21.7 34 36.1 33.6 16.8-.5 34.9-13.2 33.4-36.1C97.4 68 79.3 58.2 63.5 58.3c-18.3.2-34.2 12.9-34.2 33.8"/><path fill="#d25116" d="M64.7 122h-.8a31 31 0 0 1-20.3-8.7c-5.8-5.6-9-13.2-9-21.4.1-20 17.6-29.2 29.4-29.2h.1c16 0 29.2 12.5 29.6 29.4.1 7.6-2.3 15-8.3 21a31 31 0 0 1-20.7 8.9M64 66c-10.6 0-26.3 8.7-26.4 26A26.8 26.8 0 0 0 83 111.2a26 26 0 0 0 7.8-19.1A26.6 26.6 0 0 0 64 66"/><path fill="#fefffa" d="M58 61.5c-.6-1-7.7-.7-15.3 5.8-7.5 6.6-8.7 13.8-7.3 14.1 1.5.5 3.4-6.5 10-12.3 6-5.4 14-5.7 12.7-7.6m30.4 26.1c-2.4.4 0 7.6-5.5 15.7-4.9 7-10.4 9.5-9.7 11 .8 2.1 9.6-3 13.7-11.4 3.7-7.5 3.3-15.5 1.5-15.3"/><path fill="#2e9df4" d="M25.5 3.7C25 4.3 49 47.2 49 47.2s4 .5 13 .6 13.5-.5 13.5-.5S56.8 4.2 55.7 3.7c-.6-.2-8-.3-15.3-.4-7.2 0-14.3-.1-14.9.4"/><path fill="#d25116" d="M75 83.7c-1.2-10-13-10.9-17.8-7-4.7 3.7-4.2 9-1 9.6 2.7.5 3.4-1.6 4.1-2.6 1.8-2 4.5-2.3 6.3-.6 2 2 .8 6.6-2.3 6.8-2.3.2-3.4 0-3.7.4-.4.6-.3 5 0 5.4.6.5 2.5.2 4.1.3 2.3 0 4.7 3.4 3.1 6-1.6 2.5-6 1.4-7.6-.2-2.1-2-4.2-.9-4.9 0-1 1.2-2.3 4.2 1.8 7 4 3 16.3 3.5 18.8-5.4 2.2-7.8-2.9-11-2.9-11s2.6-3 2-8.7"/></svg>