<svg viewBox="0 0 128 128"><path fill="#ed6c66" d="M123.8 41.6h.2v-3.5h-3.4c-4.4 0-8-3-8.8-7a2 2 0 0 0-2.1-1.9H18.3c-1 0-2 .8-2.1 1.8a9 9 0 0 1-8.8 7.1H4v3.5h.2a2.8 2.8 0 1 1 0 5.5H4v2.4h.2a2.8 2.8 0 1 1 0 5.5H4v2.3h.2C5.8 57.3 7 58.5 7 60a3 3 0 0 1-2.8 2.7H4v2.4h.2a2.8 2.8 0 0 1 0 5.5H4V73h.2a2.8 2.8 0 1 1 0 5.5H4V81h.2a2.8 2.8 0 1 1 0 5.5H4v3.4h3.5c4.3 0 7.9 3.1 8.7 7.2a2 2 0 0 0 2.1 1.7h91.4c1 0 2-.7 2.1-1.7a9 9 0 0 1 8.8-7.2h3.4v-3.4h-.2a2.8 2.8 0 1 1 0-5.5h.2v-2.3h-.2a2.8 2.8 0 1 1 0-5.6h.2v-2.3h-.2a2.8 2.8 0 1 1 0-5.5h.2V63h-.2a2.8 2.8 0 1 1 0-5.6h.2V55h-.2a2.8 2.8 0 1 1 0-5.5h.2V47h-.2a3 3 0 0 1-2.8-2.7c0-1.6 1.2-2.8 2.8-2.8"/><path fill="none" stroke="#bb303d" stroke-miterlimit="10" stroke-width="3" d="M104.4 89.5H23.6a5 5 0 0 1-5.1-5.1V43.6a5 5 0 0 1 5.1-5h80.8a5 5 0 0 1 5.1 5v40.8a5 5 0 0 1-5.1 5z"/><path fill="none" stroke="#bb303d" stroke-miterlimit="10" stroke-width="2" d="M35.9 38.5H92v51H36z"/><path fill="none" stroke="#4e342e" stroke-linecap="round" stroke-miterlimit="10" stroke-width="9" d="M47.7 55.3h32.6M52.4 72.7h23.2" opacity=".8"/><path fill="none" stroke="#4e342e" stroke-miterlimit="10" stroke-width="6" d="M100.5 47.2v33.6m-73-33.6v33.6" opacity=".5"/></svg>