<svg xmlns="http://www.w3.org/2000/svg" width="1em" height="1em" viewBox="0 0 128 128"><path fill="#ED6C66" d="M123.77 41.59c.08 0 .15.01.23.01v-3.46h-3.45c-4.31 0-7.9-3.06-8.72-7.13a2.205 2.205 0 0 0-2.16-1.77H18.33c-1.05 0-1.95.74-2.16 1.77a8.895 8.895 0 0 1-8.72 7.13H4v3.46c.08-.01.15-.01.23-.01a2.77 2.77 0 1 1 0 5.54c-.08 0-.15-.01-.23-.01v2.33c.08-.01.15-.01.23-.01a2.77 2.77 0 1 1 0 5.54c-.08 0-.15-.01-.23-.01v2.33c.08-.01.15-.01.23-.01C5.76 57.3 7 58.54 7 60.07a2.77 2.77 0 0 1-2.77 2.77c-.08 0-.15-.01-.23-.01v2.33c.08-.01.15-.01.23-.01C5.76 65.15 7 66.4 7 67.93S5.76 70.7 4.23 70.7c-.08 0-.15-.01-.23-.01v2.33c.08-.01.15-.01.23-.01a2.77 2.77 0 1 1 0 5.54c-.08 0-.15-.01-.23-.01v2.33c.08-.01.15-.01.23-.01a2.77 2.77 0 1 1 0 5.54c-.08 0-.15-.01-.23-.01v3.46h3.45c4.31 0 7.9 3.06 8.72 7.13a2.205 2.205 0 0 0 2.16 1.77h91.34c1.05 0 1.95-.74 2.16-1.77a8.895 8.895 0 0 1 8.72-7.13H124V86.4c-.08.01-.15.01-.23.01a2.77 2.77 0 1 1 0-5.54c.08 0 .15.01.23.01v-2.33c-.08.01-.15.01-.23.01a2.77 2.77 0 1 1 0-5.54c.08 0 .15.01.23.01V70.7c-.08.01-.15.01-.23.01a2.77 2.77 0 1 1 0-5.54c.08 0 .15.01.23.01v-2.33c-.08.01-.15.01-.23.01a2.77 2.77 0 1 1 0-5.54c.08 0 .15.01.23.01V55c-.08.01-.15.01-.23.01a2.77 2.77 0 1 1 0-5.54c.08 0 .15.01.23.01v-2.33c-.08.01-.15.01-.23.01a2.77 2.77 0 0 1-2.77-2.77c0-1.56 1.24-2.8 2.77-2.8"/><path fill="none" stroke="#BB303D" stroke-miterlimit="10" stroke-width="3" d="M104.4 89.47H23.6c-2.82 0-5.11-2.29-5.11-5.11V43.64c0-2.82 2.29-5.11 5.11-5.11h80.8c2.82 0 5.11 2.29 5.11 5.11v40.72c0 2.82-2.29 5.11-5.11 5.11z"/><path fill="none" stroke="#BB303D" stroke-miterlimit="10" stroke-width="2" d="M35.87 38.53h56.27v50.95H35.87z"/><path fill="none" stroke="#4E342E" stroke-linecap="round" stroke-miterlimit="10" stroke-width="9" d="M47.67 55.3h32.66m-27.9 17.4h23.14" opacity=".8"/><path fill="none" stroke="#4E342E" stroke-miterlimit="10" stroke-width="6" d="M100.53 47.2v33.6M27.47 47.2v33.6" opacity=".5"/></svg>