<svg viewBox="0 0 128 128"><path fill="#995aa8" d="M30.5 104.2h13.4v13.4H30.5zm53.5 0h13.4v13.4H84z"/><path fill="#b574c3" d="M30.5 10.5h13.4V24H30.5zm53.5 0h13.4V24H84z"/><radialGradient id="a" cx="64.3" cy="9.4" r="83.1" gradientUnits="userSpaceOnUse"><stop offset=".5" stop-color="#b574c3"/><stop offset=".7" stop-color="#b070bf"/><stop offset=".9" stop-color="#a363b2"/><stop offset="1" stop-color="#995aa8"/></radialGradient><path fill="url(#a)" d="M97.5 64V37.4H84V23.9H70.7v13.4H57.3V23.9H43.9v13.4H30.5v26.8H17v13.4h13.4v13.4h13.4v13.4h13.4V90.9h13.4v13.4H84V90.9h13.5V77.5h13.3V64zm-40.3 0H44V50.8h13.4zM84 64H70.6V50.8H84z"/><radialGradient id="b" cx="63.1" cy="24.1" r="65.3" gradientUnits="userSpaceOnUse"><stop offset=".5" stop-color="#b574c3"/><stop offset=".7" stop-color="#b070bf"/><stop offset=".9" stop-color="#a363b2"/><stop offset="1" stop-color="#995aa8"/></radialGradient><path fill="url(#b)" d="M110.8 37.3h13.4V64h-13.4z"/><radialGradient id="c" cx="62.8" cy="13.1" r="75.1" gradientUnits="userSpaceOnUse"><stop offset=".5" stop-color="#b574c3"/><stop offset=".7" stop-color="#b070bf"/><stop offset=".9" stop-color="#a363b2"/><stop offset="1" stop-color="#995aa8"/></radialGradient><path fill="url(#c)" d="M3.7 37.3h13.4V64H3.7z"/></svg>