<svg xmlns="http://www.w3.org/2000/svg" width="1em" height="1em" viewBox="0 0 128 128"><path fill="#6D2A19" d="m78.87 72.26l-57.19 50.51s17.18 5.64 45.05-4.33c28.59-10.23 52.89-37.1 55.7-70.94c2.44-29.39-2.94-32.78-4.61-34.95c-1.63-2.12-4.38-2.39-4.38-2.39z"/><path fill="#9C3C25" d="M27.83 32.7C3.85 58.95 4.82 90.06 5.35 101.75c.35 7.8 1.7 11.76 5.49 15.93c3.54 3.89 10.93 7.37 25.98 4.18c15.67-3.32 39.52-14.28 61.12-38.88c22.91-26.1 24.79-67.27 18.59-71.7c-6.2-4.43-18.77-7.79-30.98-7.08S50.32 8.09 27.83 32.7"/><path fill="#6D291A" d="M10.67 117.53c-.29.19-2.62-1.32-2.72-4.08c-.18-4.66 2.97-18.05 7.43-28.28c4.19-9.63 7.19-13.94 7.19-13.94s-2.83-2.76-2.73-7.9s1.88-14.96 21.45-33.87C62.01 9.41 69 11.5 72.32 11.58c2.73.07 7 1.69 7.32 1.78c0 0 6.57-4.29 13.33-5.71s13.56-.63 14.67-.52c1.12.11 3.04.74 4.57 1.47c1.46.69 3.19 1.91 3.19 1.91s-12-1.49-19.81.51s-12.71 4.92-12.71 4.92s2.2 3.88 2 6.57c-.29 3.81-2.76 6.95-9.81 14.19c-6.15 6.32-28.22 31.2-30.95 33.99c-3.52 3.62-7.9 5.33-11.81 4.95c-3.9-.38-6.28-1.9-6.28-1.9s-4.29 7.33-7.43 15.05s-5.24 15.62-7.05 24.57c-.45 2.26-.34 3.81-.88 4.17"/><path fill="#9C3C25" d="M26.63 70.14c2.55 1.51 9.38 2.3 13.26-.83c3.88-3.12 9-10.39 20.61-23.26c8.8-9.74 18.91-18.01 19.39-22.74c.63-6.26-5.01-8.51-11.07-8.04c-6.05.47-17.5 8.8-26.96 18.64s-16.84 19.2-18.35 25.82c-.93 4.07.03 8.57 3.12 10.41"/><path fill="#F2F0EE" d="M67.99 6.99s7.65 1.38 15.5 6.58S99.9 25.55 105.14 31.3c2.97 3.26 11.25 13.87 11.73 13.87s1.43-6.34 1.72-8.7c.28-2.36.76-4.64.47-5.49c-.28-.85-5.81-8.24-14.76-16.18C94.13 5.78 84.69 4.18 84.69 4.18s-2.45-.09-8.62.71c-4.47.59-8.08 2.1-8.08 2.1M8.23 69.01S13.3 70.23 22 76.28c9.8 6.82 15.89 12.2 23.27 19.77c7.01 7.19 14.54 16.75 14.54 17.32c0 .57-2.98 1.76-7.35 3.68c-2.14.94-6.21 2.7-6.88 2.41c-.66-.28-6.03-8.43-14.41-16.51c-5.3-5.11-11.07-10.59-18.45-15.14C8 84.91 5.6 84.35 5.6 84.35s-.02-3.44.97-8.65c.89-4.61 1.66-6.69 1.66-6.69"/><path fill="#FDFFFF" d="M53.14 33.36C40.56 45.28 26.29 64.16 25.5 65.31c-1.37 1.98-1.4 3.55.37 4.65c1.77 1.1 3.05-.66 4.17-2.1c1.24-1.59 12.5-17.88 24.26-29.2C67.9 25.59 77.24 19.43 78.38 18.3c.84-.84 3.03-1.8 1.23-3.5c-1.37-1.3-4.07.38-5.2 1.23c-1.14.85-7.96 4.72-21.27 17.33"/><path fill="#FDFFFF" d="M66.18 13.61c-1.79 1.39-1.62 3.93.52 5.61c1.63 1.28 5.11 4.03 6.77 5.55c2.02 1.85 3.95 2.2 5.44 1.04c1.56-1.21 2.37-4.22-.4-7c-2.75-2.75-4.34-4.4-7.23-5.55c-1.88-.75-3.82-.63-5.1.35m-2.3 6.85c-1.65-.64-4.43-1.89-6.61.09c-2.18 1.98-1.03 4.53.93 5.95s4.78 4.22 7.58 6.21c1.6 1.13 4.36 2.06 6.32-.1c1.62-1.79.24-4.75-.98-6.24c-1.42-1.75-4.34-4.79-7.24-5.91m-7.65 8.19c-2.14-1.21-5.73-2.37-8.16.12c-2.66 2.73-1.16 4.74 1.45 6.36c2.19 1.36 6.65 5.2 8.1 6.19c2.37 1.62 5.39.91 6.54-.87c1.91-2.95-.7-6.38-2.66-7.98c-1.91-1.56-4.4-3.32-5.27-3.82m-16.54 8.33c-1.61 1.87-1.85 3.88.64 6.6c2.49 2.72 6.85 5.91 9.37 6.77c2.89.98 4.28-.12 5.32-1.74s.22-5.27-2.44-7.64c-1.68-1.5-4.68-4.16-8.38-4.97c-2.01-.44-3.47-.23-4.51.98m-3.99 8.05c-1.39-.39-3.18.17-4.22 1.45c-1.04 1.27-1.54 3.79-.29 5.21c1.27 1.45 2.04 1.98 4.17 3.82c2.14 1.85 4.28 4.11 6.83 4.4c1.79.2 3.41-.69 4.17-1.85c.75-1.16.67-3.74-1.39-5.96c-1.46-1.58-5.17-5.92-9.27-7.07M24.09 55.9c-2.11 2.75-.95 6.48 4.26 9.77c4.27 2.71 8.03 4.61 10.59 1.5c2.4-2.92.06-5.9-5.32-9.6c-5.04-3.46-7.62-4.15-9.53-1.67"/></svg>