<svg viewBox="0 0 128 128"><path fill="#6d2a19" d="m78.9 72.3-57.2 50.5s17.2 5.6 45-4.4a84 84 0 0 0 55.7-70.9c2.5-29.4-3-32.8-4.6-35-1.6-2-4.4-2.3-4.4-2.3z"/><path fill="#9c3c25" d="M27.8 32.7a92 92 0 0 0-22.4 69c.3 7.8 1.7 11.8 5.4 16 3.6 3.9 11 7.4 26 4.2a118 118 0 0 0 61.1-39c23-26 24.8-67.2 18.6-71.6s-18.7-7.8-31-7.1-35.2 3.9-57.7 28.5"/><path fill="#6d291a" d="M10.7 117.5c-.3.2-2.6-1.3-2.7-4-.2-4.7 3-18.1 7.4-28.3 4.2-9.7 7.2-14 7.2-14s-2.9-2.7-2.8-7.9 2-15 21.5-33.8c20.7-20 27.7-18 31-18 2.7.1 7 1.8 7.3 1.9 0 0 6.6-4.3 13.4-5.8s13.5-.6 14.6-.5q2 .3 4.6 1.5c1.5.7 3.2 2 3.2 2s-12-1.6-19.8.4-12.7 5-12.7 5 2.2 3.8 2 6.5c-.3 3.8-2.8 7-9.8 14.2-6.2 6.3-28.3 31.2-31 34a15 15 0 0 1-11.8 5c-3.9-.4-6.3-2-6.3-2s-4.3 7.4-7.4 15-5.2 15.7-7 24.7c-.5 2.2-.4 3.8-1 4.1"/><path fill="#9c3c25" d="M26.6 70.1c2.6 1.6 9.4 2.3 13.3-.8s9-10.4 20.6-23.2c8.8-9.8 19-18 19.4-22.8.6-6.3-5-8.5-11-8s-17.6 8.8-27 18.6S25 53.1 23.5 59.7c-1 4.1 0 8.6 3.1 10.4"/><path fill="#f2f0ee" d="M68 7s7.6 1.4 15.5 6.6 16.4 12 21.6 17.7c3 3.3 11.3 13.9 11.8 13.9s1.4-6.4 1.7-8.7c.3-2.4.8-4.7.5-5.5-.3-.9-5.8-8.3-14.8-16.2-10.2-9-19.6-10.6-19.6-10.6s-2.5-.1-8.6.7c-4.5.6-8.1 2-8.1 2M8.2 69s5.1 1.2 13.8 7.3C31.8 83 37.9 88.5 45.3 96c7 7.1 14.5 16.7 14.5 17.3s-3 1.7-7.3 3.6c-2.2 1-6.3 2.8-7 2.5-.6-.3-6-8.5-14.3-16.5a107 107 0 0 0-18.5-15.2C8 85 5.6 84.3 5.6 84.3s0-3.4 1-8.6Q8 68.9 8.2 69"/><path fill="#fdffff" d="M53.1 33.4a293 293 0 0 0-27.6 32q-2.2 2.9.4 4.6c2.6 1.7 3-.7 4.1-2.1 1.3-1.6 12.5-18 24.3-29.2 13.6-13.1 23-19.3 24-20.4 1-.8 3.1-1.8 1.3-3.5-1.4-1.3-4 .4-5.2 1.2-1.1.9-8 4.8-21.3 17.4"/><path fill="#fdffff" d="M66.2 13.6c-1.8 1.4-1.6 4 .5 5.6 1.6 1.3 5.1 4 6.8 5.6q3.2 2.8 5.4 1c1.6-1.2 2.4-4.2-.4-7s-4.3-4.4-7.2-5.5q-3-1.2-5.1.3m-2.3 6.9c-1.7-.7-4.5-2-6.6 0s-1 4.6.9 6 4.8 4.2 7.6 6.2c1.6 1.1 4.3 2 6.3 0 1.6-1.9.2-4.8-1-6.3a21 21 0 0 0-7.2-6m-7.7 8.2c-2.1-1.2-5.7-2.3-8.1.2-2.7 2.7-1.2 4.7 1.4 6.3 2.2 1.4 6.7 5.2 8.1 6.2 2.4 1.6 5.4 1 6.6-.9 1.9-2.9-.7-6.3-2.7-8l-5.3-3.7M39.7 37c-1.6 1.8-1.9 3.9.6 6.6s6.9 5.9 9.4 6.7c2.9 1 4.3 0 5.3-1.7s.2-5.3-2.4-7.6a20 20 0 0 0-8.4-5q-3-.7-4.5 1m-4 8c-1.4-.4-3.2.2-4.2 1.5-1 1.2-1.6 3.8-.3 5.2s2 2 4.2 3.8c2.1 1.9 4.2 4.1 6.8 4.4 1.8.2 3.4-.7 4.2-1.8.7-1.2.6-3.8-1.4-6-1.5-1.6-5.2-6-9.3-7M24.1 55.8c-2.1 2.8-1 6.5 4.2 9.8 4.3 2.7 8 4.6 10.6 1.5 2.4-3 .1-6-5.3-9.6-5-3.5-7.6-4.2-9.5-1.7"/></svg>