<svg viewBox="0 0 128 128"><path fill="none" stroke="#64b5f6" stroke-miterlimit="10" stroke-width="3" d="M75.9 102.1c3 4.9-2.4 10.1 1.8 14 7.9 7 17.5-12.1 29.5 7.4"/><path fill="#f44336" d="m74.5 106.9 5.6-1a3 3 0 0 0 2.1-4.1 35 35 0 0 0-7.2-9.6c-.4 2.8-2.2 7.3-3.6 10.8a3 3 0 0 0 3.1 3.9"/><path fill="#f44336" d="M25.6 51.5C33 83.3 64.2 97.8 75.6 95s32.2-32 25.2-61.4a38.7 38.7 0 1 0-75.2 18z"/><path fill="#c62828" d="m73.4 98.1 5.2-1.2a3 3 0 1 0-1.4-6L72 92.3a3 3 0 1 0 1.4 6z"/><path fill="#ff847a" d="M78.3 13.4c-4-2.4-10-4-13.2.6-1.8 2.5-.1 7.1 3.5 8.2 6.2 1.8 7.2 4 8.5 5.8 1.5 2 3 4.7 5.5 5.1s4-1.5 3.8-5.2a17 17 0 0 0-8.1-14.5"/></svg>