<svg viewBox="0 0 128 128"><path fill="#d8cec9" d="M99 3.7c-9.6 0-10 10.1-9.5 14.6.6 5.1 2.6 12.3 2.6 19.5s-1 11.7-2.8 15.5-6 10.1-6.6 22.8a84 84 0 0 0 8.8 38 31 31 0 0 0 15.8.4 70 70 0 0 0 9.5-36.2c-.2-18.9-11.3-25-11-40.9.2-8.8 2-13.4 2.7-20.4.8-6.5-1.1-13.3-9.5-13.3m-54.5.5c-10.3 0-10 10-9.6 14.6.6 5 2.6 12.3 2.6 19.5s-1 11.7-2.7 15.5-6 10.1-6.6 22.8a83 83 0 0 0 8.7 38 31 31 0 0 0 15.8.4c1.6-1.4 7.8-17.1 7.6-36S51.1 53.7 52 37.8c.4-7 2.7-11.9 2.8-20.3 0-6.4-1.9-13.4-10.2-13.3"/><path fill="#f1eded" d="M99.2 7c-4.6 0-7 5-6.4 11.6.7 6.5 2.4 14.1 2.6 22.4.3 8.7-3.5 13.3-5.7 18.6s-3.5 10-3.5 10l2.4 30.3s1.6 4.9 3.7 5 12.2-2 18.7-12.7 1-26.4-2.4-33.1c-2.8-5.8-5.7-10-6-16.8-.7-11.5 2.2-18.2 2.4-24.4.3-5.1-.4-10.8-5.8-10.8"/><path fill="#efeeec" d="M44.4 8.3c-4.2 0-7.1 3.2-6 12s2.3 12 2.5 20-5.1 19.3-5.1 19.3l10.6 8.5 6.1-10.2S49.2 51 49 41.6c-.2-7 2-17.3 2.1-22.2s-.6-11-6.7-11"/><path fill="#d8cec9" d="M71.8 5c-9.5 0-9.7 10.3-9.5 15 .2 5 2.7 13 2.7 20.5s-1 12.1-2.9 16-6.6 10.7-7.2 24 8.6 38.2 10 39.5c1.9 1.6 14.6 1.1 16-.1 1.6-1.5 9.9-18.5 9.7-38.2S78.3 56 78.8 40.3c.4-11.3 2.4-13.8 2.7-21.2C81.8 11 78.6 5 71.8 5"/><path fill="#f1edec" d="M72 8.5c-4.2-.3-7.3 3.8-5.8 13.8s2.7 16.4 2.5 20.8c-.1 4.4-1.6 9.3-2.6 12l-4.4 11.2s4.7-1.3 7.9 1.2 9 8.9 10.6 15.4 2.1 16.5 2.1 16.5 5.2-6.8 4.2-19.6-6.8-21.3-8.6-25.6q-2.2-5-2.2-10.7c0-8.8 2.6-17.2 2.6-22.7s-.6-12-6.2-12.3"/><path fill="#fff" d="M97.8 8.3c-1.2-.7-3 .3-4 2.5s-.9 5.3.9 5.8 3.3-1.7 3.8-4 .6-3.6-.7-4.3m-27.1.5c-1-.3-3 .6-3.9 3s-.5 4.8.7 5.4c1.8.8 3.7-1.3 4.3-3.7s.7-4.2-1.1-4.7m-26.5.6c1.2 1.1.6 3.5-.8 5s-3.3 2.1-4.5 1.3-.8-3.5.7-5.2q2.6-3 4.6-1.1M42 50.9c-.8-.4-2.2-.4-3.2 1.9l-2 4.3 3.5 1.8 2.1-4.5q1-2.3-.4-3.5m22 12.9 2.5-7.3c.7-2 2.2-5.3 3.8-4.4s.5 4.6-.2 6.5l-2.6 7.2zm33.4-14.5q-2-.7-4.5 5.4l-2.3 5.7c-.3 1-.8 3.2.9 3.9s2.7-1.5 3.2-2.6q1.5-3.2 2.8-6.8c1.3-3.6 1.7-5-.1-5.6"/><path fill="#fc5027" d="M91.4 29.9h15l-.2 2.5-.2 2.7H92l-.3-2.8c0-1-.3-2.4-.3-2.4m.6 11h14l.3 2.4.5 2.6H91.5l.4-2.6zm-27.7-8.3h15.2l-.4 3L79 38H65l-.2-2.7zm.6 11.6h14l.5 3 .6 2.4H64.3l.4-2.6zm-28.3-15h16.6l-.5 2.8-.5 2.7H37.4l-.3-2.7zm1 11h14.3v2.6l.4 3H37.1l.3-3.2z"/><path fill="#474c4f" d="M16.6 110c11.4 17.2 39.4 19.5 53.3 3.7s10.7-41.9-6.6-52.5C46.5 50.8 5.2 92.7 16.6 109.9"/><path fill="#5e6367" d="M22.7 63c-11 8-16.7 26.7-8.4 43q1 2 2.3 4c2 2.6 28 7 41.4-7.5 14.2-15.5 9.9-37 5.3-41.3q-2-1.5-4.1-2.3a35 35 0 0 0-36.5 4"/><path fill="#191919" d="M41.5 87c-.2 3.3 2.1 5 4.3 5.1s5.3-1 5.5-4.4c.2-3.3-2-5.2-4.8-5.3a4.7 4.7 0 0 0-5 4.6M32 74.2c-2.8.3-4.2 2.3-4.3 4.8-.2 2.3 1.3 5 5 4.9 3.4 0 5-2.6 4.6-5.3q-.8-4.6-5.3-4.4m-3.2 20c-3 0-4.2 2.2-4.3 4.4s1.6 4.3 4.5 4.2c3 0 4.2-2 4.3-4.2s-1.4-4.5-4.5-4.4"/></svg>