<svg viewBox="0 0 128 128"><path fill="#dc0d28" d="M40.9 87.8s-.4 28.3.4 29.5 8.3 6.4 22.6 6.6 22.3-5.8 22.5-7.2c.2-1.3.8-30.9.8-30.9s7.6-4 13-13.1S109.3 51 109 41c-.2-9.1-3.6-10.6-5.4-11.8s-3.5-1-3.5-1-1-13.1-6.5-18.5c-7-6.8-17.8-6.4-29.7-6.4-12.1 0-24.2-.8-32.6 11-7.4 10.2-5.6 26.3-5.2 34.2s3.4 21 5.6 26c4.3 10 9 13.3 9 13.3"/><path fill="#ffc402" d="M47.7 107.4c0 4.7 1.7 8 16.4 8s15.7-2.8 15.9-7.6c.1-3.8-1.5-6.2-7.4-6-4 .1-13.5 0-18.7-.1-2.9-.1-6 .8-6.2 5.7"/><path fill="#950d19" d="M40.9 87.8s9.5 3.1 22.9 3.2c13.6.2 23.4-5.2 23.4-5.2l-.2 7.5s-8.7 4.2-23.1 4.2-23-3.4-23-3.4zm38.4-61.6c2 2.5 5.4.4 7.6-.2s6.2-.5 6.3-.1-5.1 1.4-8 7.3a23 23 0 0 0-1.3 12c.3 2.7 1.8 6.7 5.4 6.7 4.3 0 4.7-3.9 4.9-5.8S93 35 95.5 31.2c2.2-3.3 4.7-3 4.7-3l-.4-3.2-.5-2.6s-3.8-2-6.7-3.3-8.2-1.6-11.6 1c-2.7 2-2.3 5.3-1.7 6"/></svg>