<svg xmlns="http://www.w3.org/2000/svg" width="1em" height="1em" viewBox="0 0 128 128"><path fill="#dc0d28" d="M40.88 87.77s-.41 28.36.41 29.5c.83 1.14 8.28 6.42 22.57 6.62s22.36-5.8 22.57-7.14c.21-1.35.72-30.95.72-30.95s7.66-4.04 13.04-13.15 9.11-21.53 8.9-31.68c-.19-9.11-3.62-10.56-5.38-11.8s-3.52-1.04-3.52-1.04-1-13.07-6.52-18.43c-7.03-6.81-17.8-6.4-29.7-6.4-12.11 0-24.19-.76-32.61 10.97-7.35 10.25-5.59 26.29-5.18 34.26s3.38 20.93 5.59 25.98c4.35 9.95 9.11 13.26 9.11 13.26"/><path fill="#ffc402" d="M47.73 107.38c-.11 4.74 1.67 8.02 16.36 7.97s15.72-2.75 15.88-7.59c.13-3.78-1.51-6.19-7.32-5.98-4.14.15-13.58.04-18.79-.11-2.85-.08-6.03.87-6.13 5.71"/><path fill="#950d19" d="M40.88 87.77s9.55 3.14 22.87 3.28c13.61.14 23.4-5.24 23.4-5.24l-.19 7.49s-8.7 4.21-23.07 4.21-23.07-3.44-23.07-3.44zm38.44-61.6c2.03 2.49 5.4.42 7.57-.14s6.17-.49 6.31-.14-5.12 1.4-7.92 7.29c-2.17 4.55-1.57 10.14-1.36 12.03.3 2.73 1.78 6.69 5.36 6.69 4.35 0 4.77-3.86 4.91-5.82s-1.15-10.96 1.32-14.83c2.15-3.38 4.69-3.12 4.69-3.12s-.19-1.9-.4-3.16-.48-2.61-.48-2.61-3.86-2.02-6.74-3.21-8.21-1.67-11.58.92c-2.72 2.1-2.31 5.33-1.68 6.1"/></svg>