<svg xmlns="http://www.w3.org/2000/svg" width="1em" height="1em" viewBox="0 0 128 128"><path fill="#ff2a23" d="M63.04 7.57C36.72 6.97 7.69 28.8 8.25 64.16c.49 31.09 23.85 54.62 54.12 55.11S119.46 99.75 119.62 64c.17-36.03-27.63-55.77-56.58-56.43"/><path fill="#fffdfe" d="M63.12 20.19c-20.88.71-41.95 16.29-42.44 43.76s23.52 42.77 42.44 42.77c24.02 0 44.09-18.92 43.59-44.09-.49-25.16-19.41-43.26-43.59-42.44"/><path fill="#ff2a23" d="M63.61 30.89c-18.92-.43-32.9 16.29-33.07 32.24-.16 16.29 10.03 32.9 32.74 33.72S96.67 79.58 97 64.28c.34-15.3-11.84-32.9-33.39-33.39"/><path fill="#fff" d="M41.98 63.73c-.16 14.31 10.03 22.54 22.37 22.54 11.21 0 22.21-7.07 22.21-22.04 0-13.49-10.2-21.55-21.55-22.04-11.35-.5-22.87 7.73-23.03 21.54"/><path fill="#fb2b22" d="M52.1 63.62c-.61 8.53 6.33 12.61 12.58 12.61 5.92 0 11.76-3.89 11.93-11.79.15-7.42-5.67-11.95-11.93-12.17-6.46-.22-12.09 4.42-12.58 11.35"/><path fill="#cc1935" d="m66.74 64.29-3.35 1.86 6.39 9.09s4.94.38 6.08-.91-.15-5.09-.15-5.09z"/><path fill="#acb1b5" d="M87.42 54.41c-.9-1.86-1.82-3.35-4.26-2.89-2.43.46-6.92 3.04-7.76 4.26-.77 1.12-1.52 2.51-1.52 2.51s-8.6 4.7-9.96 5.47c-2.13 1.22-.66 3.7.84 3.42 2.05-.38 11.21-4.11 11.21-4.11s1.94.46 3.08.46 7.64-3.21 8.52-3.8c1.45-.99.76-3.42-.15-5.32"/><path fill="#c8c8c8" d="M75.68 69.22s-.48 1.7-2.23 3.46c-1.82 1.82-3.69 2.54-3.69 2.54l5.77 8.46s4.29.31 7.41-2.73 1.76-7.02 1.76-7.02z"/><path fill="#cc1935" d="m81.4 92.57-5.88-8.9s.98-.52 2.27-1.4c2.37-1.62 3.69-2.91 5.38-5.55.92-1.42 1.51-2.8 1.51-2.8l9.09 4.49s-.2 7.02-3.17 10.44-9.2 3.72-9.2 3.72"/><path fill="#c8c8c8" d="m81.4 92.57 5.05 7.57s6.59.65 11.99-5.82 3.96-11.79 3.96-11.79l-8.63-4.13s-1.68 4.04-5.02 7.92-7.35 6.25-7.35 6.25"/><path fill="#cc1935" d="m93.93 111.33-7.47-11.18s5.63-3.29 9.63-8.02c4.15-4.91 6.32-9.58 6.32-9.58l12.09 6.01s-2.72 7.03-8.75 13.38c-5.9 6.19-11.82 9.39-11.82 9.39"/><path fill="#006ca9" d="M81.61 57.37c1.13 2.11 3 2.13 4.98 1.29s11.33-7.45 11.33-7.45 12.7 6.39 20.91 3.19c8.21-3.19 7.98-11.86 7.98-11.86l-4.86-3.08s3.54-1.84 4.68-2.52c.56-.34 1.39-1.6.93-2.73-.36-.88-1.74-1.18-2.88-.72s-4.43 1.49-4.43 1.49 1.31-5.45 1.08-5.75-2.59-1.52-2.59-1.52-7.68 0-8.67.38-8.59 7.91-8.59 7.91l-3.65 7.45-1.56 3.32s-10.65 4.77-12.25 5.45c-1.59.69-3.8 2.58-2.41 5.15"/><path fill="#1f87fd" d="M98.54 45.85s4.48-3.24 7.67-4.84 9.11-3.55 10.86-3.76 2.47.26 2.78 1.08-.72 1.85-1.6 2.32c-.87.46-5.51 2.57-10.65 5.3s-7.58 4.73-9.66 5.2c-1.05.24-2.4-.7-2.48-2.27-.06-1.22.18-2.24.98-4.58.98-2.88 3.13-7.21 4.94-10.03 2.68-4.17 6.54-7 10.81-7.77s7.77.31 8.65 1.03c.87.72.82 1.46.51 1.71s-.77.45-3.09-.37c-1.61-.57-6.74-.57-10.34 2.11-3.64 2.7-4.53 4.37-6.12 7.31s-3.26 7.56-3.26 7.56"/></svg>