<svg viewBox="0 0 128 128"><path fill="#ff2a23" d="M63 7.6A55 55 0 0 0 8.3 64.2c.4 31 23.8 54.6 54 55s57.2-19.5 57.3-55.2C119.8 28 92 8.2 63 7.6"/><path fill="#fffdfe" d="M63.1 20.2c-20.9.7-42 16.3-42.4 43.8s23.5 42.7 42.4 42.7a43 43 0 0 0 43.6-44 41.7 41.7 0 0 0-43.6-42.5"/><path fill="#ff2a23" d="M63.6 30.9a33.3 33.3 0 0 0-33 32.2c-.2 16.3 10 33 32.7 33.8S96.7 79.6 97 64.3a33.4 33.4 0 0 0-33.4-33.4"/><path fill="#fff" d="M42 63.7C41.8 78 52 86.3 64.3 86.3c11.3 0 22.3-7.1 22.3-22 0-13.6-10.2-21.6-21.6-22.1a21.7 21.7 0 0 0-23 21.5"/><path fill="#fb2b22" d="M52.1 63.6c-.6 8.5 6.3 12.6 12.6 12.6 5.9 0 11.7-3.9 12-11.8a12 12 0 0 0-12-12.1A12 12 0 0 0 52 63.6"/><path fill="#cc1935" d="m66.7 64.3-3.3 1.9 6.4 9s5 .4 6-.9 0-5 0-5z"/><path fill="#acb1b5" d="M87.4 54.4c-.9-1.9-1.8-3.3-4.2-2.9-2.5.5-7 3-7.8 4.3-.8 1.1-1.5 2.5-1.5 2.5l-10 5.5c-2.1 1.2-.6 3.7.9 3.4C66.8 66.8 76 63 76 63s2 .4 3 .4 7.7-3.2 8.6-3.8c1.4-1 .7-3.4-.2-5.3"/><path fill="#c8c8c8" d="M75.7 69.2s-.5 1.7-2.2 3.5a13 13 0 0 1-3.7 2.5l5.7 8.5s4.3.3 7.4-2.7 1.8-7 1.8-7z"/><path fill="#cc1935" d="m81.4 92.6-5.9-9 2.3-1.3a18 18 0 0 0 5.4-5.6c.9-1.4 1.5-2.8 1.5-2.8l9 4.5s-.1 7-3.1 10.4-9.2 3.8-9.2 3.8"/><path fill="#c8c8c8" d="m81.4 92.6 5 7.5s6.6.7 12-5.8 4-11.8 4-11.8l-8.6-4.1s-1.7 4-5 8-7.4 6.2-7.4 6.2"/><path fill="#cc1935" d="m94 111.3-7.5-11.1s5.6-3.3 9.6-8a53 53 0 0 0 6.3-9.6l12.1 6s-2.7 7-8.7 13.3c-6 6.2-11.9 9.4-11.9 9.4"/><path fill="#006ca9" d="M81.6 57.4c1.1 2 3 2.1 5 1.3s11.3-7.5 11.3-7.5 12.7 6.4 21 3.2c8.1-3.2 8-11.9 8-11.9l-5-3 4.7-2.6c.6-.3 1.4-1.6 1-2.7-.4-.9-1.8-1.2-3-.7l-4.3 1.5s1.3-5.5 1-5.8-2.6-1.5-2.6-1.5-7.6 0-8.6.4-8.6 7.9-8.6 7.9l-3.7 7.5-1.5 3.3L84 52.2c-1.6.7-3.8 2.6-2.4 5.2"/><path fill="#1f87fd" d="M98.5 45.9s4.5-3.3 7.7-4.9 9.1-3.5 10.9-3.7 2.4.2 2.8 1-.8 1.9-1.6 2.4c-1 .4-5.6 2.5-10.7 5.3s-7.6 4.7-9.7 5.2c-1 .2-2.4-.7-2.4-2.3-.1-1.2.1-2.3 1-4.6 1-2.9 3-7.2 4.9-10q4.2-6.5 10.8-7.8c6.6-1.3 7.8.3 8.6 1 1 .8.9 1.5.6 1.7s-.8.5-3.1-.3c-1.6-.6-6.8-.6-10.4 2-3.6 2.8-4.5 4.5-6.1 7.4s-3.3 7.6-3.3 7.6"/></svg>