<svg xmlns="http://www.w3.org/2000/svg" width="1em" height="1em" viewBox="0 0 128 128"><path fill="#90a4ae" d="M25.24 39.27H12.99c-1.63 0-2.95-1.32-2.95-2.95V29.1c0-1.63 1.32-2.95 2.95-2.95h12.25c1.63 0 2.95 1.32 2.95 2.95v7.22a2.96 2.96 0 0 1-2.95 2.95"/><path fill="#94d1e0" d="M16.28 40.52h-4v-10.4c0-1.1.9-2 2-2s2 .9 2 2z"/><path fill="#546e7a" d="M42.36 35.8h-5.51c-1.1 0-1.99-.89-1.99-1.99V28.3c0-1.1.53-1.58 1.99-1.99s4.12-.46 5.51 0c1.14.38 1.99.89 1.99 1.99v5.51c0 1.1-.9 1.99-1.99 1.99"/><path fill="#212121" d="M4 58.9h120v60.14H4z"/><path fill="#b0bec5" d="M4 117.68v2.73c0 1.98 1.61 3.59 3.59 3.59h112.83c1.98 0 3.59-1.61 3.59-3.59v-2.73z"/><path fill="#90a4ae" d="M43.34 40.55h-7.49c-2.44 0-4.42-1.98-4.42-4.42v-.65c0-2.44 1.98-4.42 4.42-4.42h7.49c2.44 0 4.42 1.98 4.42 4.42v.65a4.41 4.41 0 0 1-4.42 4.42"/><path fill="#b0bec5" d="M121.73 34.16H8.05C5.81 34.16 4 35.97 4 38.21v21.72h120v-23.5c0-1.26-1.02-2.27-2.27-2.27"/><path fill="#78909c" d="M112.49 55.24H94.34a1.92 1.92 0 0 1-1.92-1.92V40.67c0-1.06.86-1.92 1.92-1.92h18.15c1.06 0 1.92.86 1.92 1.92v12.66c0 1.05-.85 1.91-1.92 1.91"/><path fill="#757575" d="M92.42 52.84V40.88c0-1.18.95-2.13 2.13-2.13h17.79c1 0 1.41.55 1.41.55L93.11 54.72s-.69-.42-.69-1.88"/><path fill="#212121" d="M96.44 41.76h13.95v10.47H96.44z"/><path fill="#616161" d="M10.58 115.87H5.7c-.94 0-1.7-.76-1.7-1.7V68.28c0-.94.76-1.7 1.7-1.7h4.88c.94 0 1.7.76 1.7 1.7v45.89c0 .94-.77 1.7-1.7 1.7m111.7 0h-4.88c-.94 0-1.7-.76-1.7-1.7V68.28c0-.94.76-1.7 1.7-1.7h4.88c.94 0 1.7.76 1.7 1.7v45.89c0 .94-.76 1.7-1.7 1.7"/><path fill="#b9e4ea" d="M8.04 122.64c-1.1 0-2-.9-2-2v-2.44h4v2.44a2 2 0 0 1-2 2m113.82-64.12h-4v-20.4c0-1.1.9-2 2-2s2 .9 2 2zm-110.7 0h-4v-20.4c0-1.1.9-2 2-2s2 .9 2 2zm108.7 64.12c-1.1 0-2-.9-2-2v-2.44h4v2.44a2 2 0 0 1-2 2"/><circle cx="72.39" cy="88.31" r="32.79" fill="#616161"/><circle cx="72.39" cy="88.31" r="28.47" fill="#e0e0e0"/><circle cx="72.39" cy="88.31" r="20.33" fill="#2f7889"/><circle cx="72.39" cy="88.31" r="26.16"/><circle cx="72.39" cy="88.31" r="19.94" fill="#2f7889"/><path fill="#94d1e0" d="M67.67 71.58c-6.31 1.43-10.08 7.57-10.08 12.1 0 3.67 2.43 2.75 3.21 1.42 2.01-3.41 4.44-6.25 8.63-7.44 1.68-.48 3.64-1.53 3.44-3.49-.28-2.79-3.05-3.08-5.2-2.59"/><circle cx="72.39" cy="88.31" r="8.9" opacity=".25"/><path fill="#ff8f00" d="M41.89 46.73c-.45-.08-.55-.68-.16-.9l12.99-6.56c2.41-1.37 2.62-2.04 1.83-4.17l-7.67-22.22c-.16-.47.4-.85.78-.53l16.91 14.32c3.17 2.56 4.22 1.49 5.09-.02l9.37-16.57a.49.49 0 0 1 .91.23l.07 16.65c-.07 3.21 1.3 2.62 5.77 1.47l14.49-4.05c.48-.14.83.44.49.8L86.82 41.76c-1.03 1.32-.92 1.74-.48 3.57l3.23 9.39c.12.35-.18.71-.55.64l-10.77-3.13c-1.61-.28-2.4-.28-3.42 1.38L67.22 66c-.25.3-.92.63-1.13.02l-4.04-14.37c-.51-1.67-1.21-1.7-2.93-2.02z"/><path fill="#ffee58" d="m52.07 44.84 12.75-4.29-9.67-19.26L70.5 36.12l7.06-12.69-.83 14.03 14.53-5.45-11.18 10.76 4.42 7.59-10-3.04-6.61 11.64-2.05-12.65z"/></svg>