<svg viewBox="0 0 128 128"><path fill="#90a4ae" d="M25.2 39.3H13a3 3 0 0 1-3-3v-7.2a3 3 0 0 1 3-3h12.2a3 3 0 0 1 3 3v7.2a3 3 0 0 1-3 3"/><path fill="#94d1e0" d="M16.3 40.5h-4V30.1c0-1 .9-2 2-2s2 1 2 2z"/><path fill="#546e7a" d="M42.4 35.8h-5.5a2 2 0 0 1-2-2v-5.5q-.1-1.5 2-2 3.1-.7 5.5 0 1.8.5 2 2v5.5a2 2 0 0 1-2 2"/><path fill="#212121" d="M4 58.9h120V119H4z"/><path fill="#b0bec5" d="M4 117.7v2.7c0 2 1.6 3.6 3.6 3.6h112.8c2 0 3.6-1.6 3.6-3.6v-2.7z"/><path fill="#90a4ae" d="M43.3 40.6H36c-2.5 0-4.5-2-4.5-4.5v-.6c0-2.5 2-4.4 4.5-4.4h7.4c2.5 0 4.5 2 4.5 4.4v.6a4.4 4.4 0 0 1-4.5 4.4"/><path fill="#b0bec5" d="M121.7 34.2H8.1a4 4 0 0 0-4.1 4V60h120V36.4q-.2-2-2.3-2.2"/><path fill="#78909c" d="M112.5 55.2H94.3a2 2 0 0 1-1.9-1.9V40.7c0-1 .9-2 2-2h18c1.2 0 2 1 2 2v12.6c0 1-.8 2-2 2"/><path fill="#757575" d="M92.4 52.8v-12c0-1.1 1-2 2.1-2h17.8c1 0 1.5.5 1.5.5L93 54.7s-.7-.4-.7-1.9"/><path fill="#212121" d="M96.4 41.8h14v10.4h-14z"/><path fill="#616161" d="M10.6 115.9H5.7q-1.6-.2-1.7-1.7v-46q.2-1.5 1.7-1.6h4.9q1.6.1 1.7 1.7v45.9q-.2 1.6-1.7 1.7m111.7 0h-4.9q-1.6-.2-1.7-1.7v-46q.2-1.5 1.7-1.6h4.9q1.6.1 1.7 1.7v45.9q-.2 1.6-1.7 1.7"/><path fill="#b9e4ea" d="M8 122.6a2 2 0 0 1-2-2v-2.4h4v2.4a2 2 0 0 1-2 2m113.9-64h-4V38c0-1 .9-2 2-2s2 1 2 2zm-110.7 0h-4V38c0-1 .9-2 2-2s2 1 2 2zm108.7 64a2 2 0 0 1-2-2v-2.4h4v2.4a2 2 0 0 1-2 2"/><circle cx="72.4" cy="88.3" r="32.8" fill="#616161"/><circle cx="72.4" cy="88.3" r="28.5" fill="#e0e0e0"/><circle cx="72.4" cy="88.3" r="20.3" fill="#2f7889"/><circle cx="72.4" cy="88.3" r="26.2"/><circle cx="72.4" cy="88.3" r="19.9" fill="#2f7889"/><path fill="#94d1e0" d="M67.7 71.6a13 13 0 0 0-10.1 12c0 3.7 2.4 2.8 3.2 1.5 2-3.4 4.4-6.2 8.6-7.4 1.7-.5 3.7-1.6 3.5-3.5-.3-2.8-3-3.1-5.2-2.6"/><circle cx="72.4" cy="88.3" r="8.9" opacity=".3"/><path fill="#ff8f00" d="M41.9 46.7c-.5 0-.6-.7-.2-.9l13-6.5c2.4-1.4 2.6-2 1.9-4.2l-7.7-22.2c-.2-.5.4-.9.8-.6l16.9 14.4c3.1 2.5 4.2 1.5 5 0L81 10a.5.5 0 0 1 1 .2V27c0 3.2 1.3 2.6 5.8 1.4l14.5-4c.4-.2.8.4.5.8l-16 16.6c-1 1.3-.9 1.7-.5 3.5l3.3 9.4q0 .6-.6.7l-10.8-3.2c-1.6-.3-2.4-.3-3.4 1.4L67.2 66c-.2.3-.9.6-1.1 0l-4-14.4c-.6-1.6-1.3-1.7-3-2z"/><path fill="#ffee58" d="m52 44.8 12.8-4.2-9.7-19.3L70.6 36l7-12.7-.8 14L91.3 32 80 42.8l4.4 7.6-10-3L67.9 59l-2-12.7z"/></svg>