<svg viewBox="0 0 128 128"><path fill="#474c50" d="M79 13.4 49.7 32.9s1 1.4 1.7 2q2.2 2 2.4 1.9l-.6 2-7.4 4.2s-.2 3.4 3.5 5.3a15 15 0 0 0 6.2 1.6v4.9s3 6 9.4 6 9.2-6.9 9.2-6.9v-4.1s2.9-.3 5.6-1.9c2-1.2 2.8-3.2 2.8-4.8l-.1-1.7-8.6-4.5s3.8-2.3 5.9-7.5c3.8-9.7-.5-16-.5-16M63.3 76.5l-21.2 5s-.6.8-.5 1.7c0 1.4.6 1.7.6 1.7l-8.5 10.3s-1 2-1 4.6c.1 2.5 1.1 4 1.3 3.9l-2.8 3.7-1.7.7s-1 1.6-.8 3.4c.1 2.4 1.6 4.8 7.5 7.5 6 2.9 12.5 5.4 27.7 5.4s26.7-3 31.4-6.4 5.2-6.2 5.2-7.4a5 5 0 0 0-.5-2.7l-.1-.2-3.8-4s1-2.3.8-4.7c-.1-3-1.6-5.1-1.6-5.1l-8.9-7.7v-2s.2-.6 0-1.7l-.7-1.8c-.6-1-1.4-.8-1.4-.8z"/><path fill="#5e6367" d="M49.6 32.9s-4.7-5.8-2.7-15S57.2 3 66.5 4.2s13 10.1 13 10.1-.2 11-10.3 16.4-19.6 2.2-19.6 2.2"/><path fill="#fffffe" d="M62.7 7c2.2 1.3 1 2.8-2.4 5-3 2-6.8 7.8-7.8 9.3s-1.7 1.7-2.2 1.4-2-1.2-.7-6 5.2-7.7 7-8.8c1.9-1 4.3-1.8 6-.8"/><path fill="#5e6367" d="M53.7 36.8s4.7 3.1 9.7 3.2c7.2 0 10.3-3 10.3-3s3.4-.4 5.8.8a6 6 0 0 1 2.8 3.6s-2.3 5.8-18.6 5.4-18-3.8-18-3.8-.4-3.4 2.5-5c2.5-1.5 5.4-1.2 5.4-1.2"/><path fill="#aeaeaf" d="M50.6 38.5c-1.5-.2-4 .8-3.6 3s5.1 3 7.4 3.1 6.1.5 6-1.7-5.7-1.1-7.9-2.3.4-1.9-1.9-2.1"/><path fill="#5e6367" d="M55.4 54.8s3 1.3 9.2 1.3 9.4-2.2 9.4-2.2 0 7 3 14.2 5 10.5 5 10.5 1.9-.1 2.6.5 1.4 2.4 1.4 2.4c-.2.3-5.4 5.1-21 4.8-16.8-.4-22.9-4.7-22.9-4.7s1-1.7 2.1-2q2.1-.6 2.2-.4c.1.2 5-6 7-12 2.1-5.9 2-12.4 2-12.4"/><path fill="#b0b0af" d="M64.3 81.7c6.1 0 11.5-1.3 13.7-2s4-1.7 5.8-1c1 .2 1.3 1 1.3 1s-6.5 5.5-21 5C48.9 84 43 80.4 43 80.4s1-1.4 3.3-1.3c.6 0 1.1.2 4.6 1s7.4 1.5 13.5 1.5"/><path fill="#5e6367" d="M42.2 85s10.1 4 22 4c16 .3 22.3-4.8 22.3-4.8s3.8 3.4 5.3 5 3.5 4.7 3.5 4.7-6.7 11-31.2 10.8c-24.4-.2-30.4-9.5-30.4-9.5s1.3-3.4 4-6.2z"/><path fill="#b0b0af" d="M42 89.5c-1.8-.5-5.4 3.1-5 5.4.2 1.1.9 2.4 4.4 3.7 3.2 1.2 8.2 1.1 8.2-.8 0-2.5-4.3-2.3-5.4-4.5-.9-1.7-.3-3.3-2.2-3.8"/><path fill="#5e6367" d="M34 103.7s-1.5 1-2.6 2l-2 2.4c0 .1 3.3 11.6 34.4 11.9 30.3.2 36-12.3 36-12.3s-1-1.5-2-2.5l-1.7-1.6s-8.8 10-32.6 9.7c-22.6-.2-29.5-9.6-29.5-9.6"/><path fill="#b0b0af" d="M32.4 106.9c-.8 1-.8 2.8 1.7 4.5 2.6 1.7 6.8 4.1 12.9 5.3 6.1 1.1 12.5.8 12.1-1.3-.2-1.4-5.6.2-15-3.6a35 35 0 0 1-8.4-4.2c-.8-.5-2-2-3.3-.7m7.2-10.6c2 0 2-3 0-3s-2 3 0 3"/></svg>