<svg viewBox="0 0 128 128"><path fill="#835d4e" d="M57.9 106.2s-.5 4-1.4 7c-.8 2.6-2 4.6-2.1 7.2-.1 2.1 1.6 3.8 9.6 4 6.7 0 9-2 8.9-5-.2-2.7-1.4-4.8-2-8-.5-2.2-.8-4.9-.8-4.9z"/><path fill="#0a7c1f" d="m67 28-17.5 6.4-11.6 2s-1.4 1.8.4 3.8a9 9 0 0 0 6.6 2.6c3.4 0 4.7-1.3 5.1-.1s-4.3 3.9-6.9 5.4-11 4.1-11.3 7.9c-.3 2.8 2.6 4.8 4 5.2 1.8.6 4.4.5 5.1.5s1 1.6 0 2.5c-1.1.9-4 1.8-6 2.6l-11 3.9c-1 .4-2.2 2.3-1.3 5 1 2.9 4.2 5 7 6s3.9.6 3.9.6-.4 1.6-2 3-6 6.2-6 6.2-8.8.3-9.6 1-1.3 2-1 3.5 1.6 5.2 8.6 7.3 11.7 0 11.7 0-2.4 4.4 3 6.5c4 1.6 10.1-.2 11.7-.7l6.9-2.6s1.5 3.5 7.4 3.8c6.3.2 10.7-2.8 10.7-2.8s8.7 5.3 15.4 2.5c4.8-2 3.3-6.9 3.3-6.9s8.5 1.5 14.6-1 7.2-5.8 7.2-7.5-2.5-3-3.6-3-4.4-.3-6.4-1.2l-4.6-2.2s-4.5-1.5-7.5-4q-2.1-2 .7-2.4c2.8-.4 7.3 0 10.5-2.3 3.3-2.4 3.3-4.6 3.1-5.5-.2-1.4-1.7-2-1.7-2s-12.7-4-13-4.3l-2.5-2.9c-.2-.2-3.8-1.5-3-2.6s4.8-1 7.1-3.5c2.7-2.8 2-5.4 1-6.4S93 51 93 51s-3 1-4.1.5-6-5.3-6-5.3-4.3-2.4-4.3-3.1c.1-1 4.4 0 8-1.1 3.1-1 3-3.3 2.8-4-.3-1.4-1.4-2-2.2-2.5S67 28 67 28"/><path fill="#02ab48" d="M59.9 15.2s-2.8 5.7-7.4 11C45 34.3 37.8 36.4 37.8 36.4s1 2.6 5.8 2.5c5.4-.2 12.6-4 12.6-4s2 5 4.7 8c3 3.4 6.7 6 10.4 4.1 1.4-.7 1.7-3.7 0-5.8-4-5.1-1.4-4.8-1.2-4.5 0 0 3.2 2.5 9.1 2.4s8-3.8 8-3.8-7.3-4-12-9.6l-8.7-10.3z"/><path fill="#02ab48" d="M56.9 45.3s-3.4 2.2-7.2 1.9c-1.7-.2-2.9-1.4-2.9-1.4L41.3 49c-2.3 1.2-5.3 2.4-6.8 3.5l-1.9 1.7s.6 2.6 5.5 2.6 8.2-.6 11.2.2 7.7 5.6 11 5.6 5.6-4.4 8.7-4.4 4 1.6 8.8 2 12.5-2.3 14.3-4c2.3-2.2 1-5.3 1-5.3l-5.8-2.5-4.4-2.4s-1.2 1.3-2.4 1.2-3-.8-4.6.3-2.3 3-5.2 3.3c-7.2 1.1-13.8-5.6-13.8-5.6m-33 25.4s-1 3.4 3.7 5.5 13.5.2 14 .7-7.3 4.5-3.3 7.9c4.8 4 17.1-8 18-8s1.1 10 6 11.7 9.9-5.5 12.9-6.4 5.2 1.8 9 2c5.2.2 7.7-1.2 8-3.3S88 75 88.9 74.1s2.7 2.2 9.5 1.7 7.5-3.7 7.5-3.7L90.3 65s-2 2.6-5.5 2.6-12-1.3-15.4-.4S65 72 59.3 71.8s-9.5-4.1-13.4-2.2-6.7 4.2-8.9 2.9c-1.2-.8-1-1.9-1-3.6.1-1.3.6-2.7.6-2.7z"/><path fill="#02ab48" d="M15.9 92.5s2.1 6 12.8 6c9 0 12.2-5.1 14-6.6 1.7-1.4 3-3.4 3.5-2.5s-5.5 7.4-8 9.8c-1.4 1.3-3 3.9-.5 5.5s8.7 1 13.7-1.2 6.4-6.5 6.4-6.5-3.7-1.5-4.4-6-1-6.3-2.4-6.5-11.7 8.2-18 5.5c-3-1.3-1.5-4.7-1.5-4.7s-2.9 2.3-6.8 3.8zm43.9 4.8s-1.3 4-1 5c.4 1.9 2.3 3.8 6.9 3.5 4.6-.4 7-2.1 7-3.6s-3-5.3-1.6-6.3 2.5 1.3 4 3.6 7.6 9.9 14.2 6.3c6-3.2-2-9.7-.4-10.7s5.6 2.6 11.5 2.3c10.6-.5 12-5.7 12-5.7L106 90l-5.2-1.7s-4.7 2.4-11.3 2.2S79 87.6 76.2 88s-5 4.5-8.4 6.7c-4.9 3.2-8 2.5-8 2.5"/><path fill="#fcc11a" d="M67.4 17.5c0 .2-1.7 6-3.4 6s-4.6-6.2-4.6-6.2-6-.2-6.4-1c-.3-1.1 4-5.7 4-5.7s-.7-6.4 0-7c.8-.6 6.5 3.1 6.5 3.1s5.7-3.2 6.7-2.5-.8 6.1-.8 6.1 4.6 3.8 4.2 4.8-6.2 2.4-6.2 2.4"/><path fill="#fee56b" d="M59.7 5.5c-.2.2.3 1.5 1.5 3s2.1 2.7 2.4 2.7 2-2.3 2.7-3c.6-.7 1.4-2 1.2-2.3-.4-.4-4 2-4 2s-3.4-2.7-3.8-2.4m-6 10c.3.3 7.4-2.4 7.5-2.7.1-.5-2-1.4-2.8-1.6s-1.8.8-3 2c-1 1.1-1.9 2.2-1.6 2.4"/><path fill="#ff5f5e" d="M65.5 26c-3.6 0-5.2 2.5-5.1 5.4s2.1 5 5.4 4.9 5-2.3 5-5.5c-.1-2.8-2.1-4.9-5.3-4.8"/><path fill="#fcd81e" d="M79.2 45.8c-3.6 0-5.7 2.7-5.6 5.6s2.3 5.3 5.8 5.2c3.7 0 5.5-2.6 5.4-5.8-.1-2.8-2.4-5-5.6-5"/><path fill="#df0e2b" d="M55.3 46.8c-3.8 0-5.8 2.7-5.7 5.8s2.5 5.3 6 5.3 5.4-2.5 5.2-6c0-2.9-2.2-5.1-5.5-5"/><path fill="#ffd2b1" d="M45.4 65.8c-3.8 0-5.6 2.8-5.6 6s2.3 5.5 6 5.4 5.6-2.5 5.5-6c-.1-3.2-2.3-5.5-5.9-5.4"/><path fill="#fcd81e" d="M66.4 71.5c-4 0-5.7 2.7-5.6 6s2.4 5.5 6 5.4 5.7-2.6 5.5-6.1c0-3-2.3-5.4-5.9-5.3"/><path fill="#ff5f5d" d="M85.4 65.8c-4 0-5.9 2.8-5.9 6.1s2.4 5.8 6.1 5.8 6-2.9 5.8-6.5c-.1-3.1-2.3-5.4-6-5.4"/><path fill="#c9c9c9" d="M87.5 94c.2-3.6-2-5.6-5-5.7s-5.3 1.6-5.5 5 1.9 5.7 5.1 5.8c2.9 0 5.2-1.6 5.4-5"/><path fill="#ff5f5e" d="M47 88.6c-3.7 0-5.3 2.6-5.3 5.6s2.3 5 5.7 5 5.3-2.4 5.2-5.7c-.1-2.8-2.2-5-5.6-4.9"/><path fill="#f9ffff" d="M43.6 94c1 .6 1.4-1 2-1.5s1.8-1.4 1.2-2.2-2.2-.3-3 .5c-1 1.1-1.1 2.8-.2 3.3m35.4-.2c1 .6 1.6-1 2-1.6.6-.8 2-1.3 1.4-2.1s-2.2-.3-2.9.5c-1 1.1-1.4 2.7-.5 3.2m2.8-22.2c1.2.6 1.6-1.2 2.2-1.9.5-.6 2-1.3 1.3-2.1s-2.3-.4-3.1.5c-1.1 1.2-1.4 3-.4 3.5m-18.9 5.7c1.1.6 1.5-1 2-1.6s1.9-1.7 1.3-2.5-2.2-.3-3 .8-1.1 2.8-.3 3.3m-21-5.7c1 .6 1.7-1 2.2-1.7.9-1.1 1.8-1.7 1.1-2.5s-2.2-.2-3 1c-1 1.1-1.2 2.7-.4 3.2m10-19.1c1 .5 1.5-1 2-1.6.6-1 1.9-1.7 1.3-2.5s-2.2-.4-3 .8c-1 1.2-1.2 2.8-.4 3.3m24.1-.6c1.2.7 1.7-1 2.3-1.6s2-1.6 1.3-2.5-2.4-.4-3.2.6c-1.1 1.2-1.3 3-.4 3.5m-14-20.7c1.2.6 1.6-1 2.1-1.5s1.8-1.5 1.2-2.3-1.8-.3-2.8.7c-1 1.2-1.3 2.6-.4 3.1"/><path fill="#f9c319" d="M50.5 32.3q-2.2 0-2.4 2 .1 2 2 2.2c1.7.2 2.3-1.3 2.3-2.2s-.9-2-1.9-2m6.6 5.8c-1.3-.8-2.4-.2-3 .4-.7 1-.6 2.4.5 3 1.4.8 2.5.2 3-.5.7-1 .5-2.3-.5-2.9m6 2.8q-2.1.5-1.8 2.7c.2 1 1.4 1.8 2.6 1.5 1.7-.4 1.8-2 1.5-2.8-.3-1-1.4-1.6-2.4-1.4m16.8-6.2c-1.2-1-2.4-.6-3 .2q-1.3 1.4 0 3c1.1.9 2.6.4 3.2-.3.6-.8.6-2.3-.2-2.9m-6.9 5.5q-2.2 0-2.4 2 .1 2.1 2 2.3c1.8.1 2.3-1.4 2.3-2.3 0-1-.8-2-1.9-2M45 54.7q-2.2 0-2.3 2-.1 2.1 2 2.3c1.8.1 2.3-1.3 2.3-2.2s-.8-2-2-2m7.2 5.4q-2.1-.7-3 1.2a2 2 0 0 0 1.3 2.8c1.7.6 2.6-.6 3-1.5.2-1-.3-2.2-1.3-2.5m9.5 6.4q0-2.3-2.3-2.4-2.2 0-2.3 2.1c-.1 1.8 1.4 2.3 2.4 2.3 1.1 0 2.2-1 2.2-2m7.5-2.8q-2.4 0-2.5 2.2-.1 2.1 2 2.3c2 .2 2.5-1.4 2.5-2.3 0-1.1-.9-2.2-2-2.2m9.3-2.8q-2.2 0-2.3 2t1.9 2.2c1.7.1 2.3-1.3 2.3-2.2s-.9-2-1.9-2m6.2-2q.5 2.2 2.7 1.6 2-.7 1.4-2.6c-.4-1.7-2-1.7-2.8-1.4-1 .3-1.5 1.4-1.3 2.4M98 73.1q-2.2 0-2.3 2 0 1.9 1.9 2.1c1.6.1 2.1-1.3 2.1-2.1 0-1-.7-2-1.7-2M93.4 81q.2-2.5-2-2.8T88.8 80c-.3 1.9 1.2 2.6 2.2 2.7s2.3-.7 2.4-1.8m-10.3 1c-1.6 0-2.5 1.2-2.4 2.8 0 1.5 1.2 2.3 2.7 2.2 2-.2 2.4-2 2.2-3-.1-1.2-1.3-2-2.5-2m-9.4 3.3q-2.5-.2-2.8 2.4 0 2.3 2.3 2.6c2.4.2 2.7-1.6 2.7-2.6 0-1.2-1-2.2-2.2-2.4M62 86.5q-2.5.2-2.4 2.8c0 1.6 1.2 2.4 2.7 2.2 2-.2 2.4-2 2.2-3q-.5-1.9-2.5-2m-10.3-3.1c-1.5 0-2.4 1.3-2.3 2.7 0 1.5 1.2 2.3 2.6 2.1 2-.1 2.4-1.9 2.3-2.9-.2-1.1-1.4-2-2.6-2m-9.5-3.8c-1.6 0-2.5 1.2-2.4 2.7q.3 2.3 2.6 2.2c2-.2 2.4-2 2.3-3-.2-1.1-1.3-2-2.5-1.9m-6-7.6q-2.2.1-2 2.4.2 2 2.2 1.9c1.7-.2 2-1.7 2-2.6q-.5-1.6-2.2-1.7"/></svg>