<svg xmlns="http://www.w3.org/2000/svg" width="1em" height="1em" viewBox="0 0 128 128"><path fill="#858585" d="M60.77 26.74c-19.01-.43-44.94 5.46-53.59 25.61c-8.43 19.63-3.49 39.76 10.22 50.23c11.51 8.79 22.7 13.05 44.98 13.34c21.14.27 35.71-4.13 47.39-12.34c19.11-13.44 18.97-45.47 5.74-59.25c-13.24-13.79-29.34-17.02-54.74-17.59"/><path fill="#FF2A23" d="M60.28 28.06c-11.71-.38-41.15 4.19-41.27 21.81c-.11 16.12 27.29 21.74 46.1 21.6c16.07-.12 44.35-7.33 43.09-23.64c-1.08-14.09-28.12-19.13-47.92-19.77"/><path fill="#DD0C28" d="M53.55 56.78s-7.34-.19-11.8-2.81c-3.69-2.17-5.21-4.09-5.3-6.66c-.08-2.25 1.53-3.37 3.53-5.06c1.54-1.29 4.5-4.18 6.1-7.95c1.61-3.77 4.74-12.89 12.05-16.1c6.68-2.93 13.47-4.07 26.32-5.12c14.76-1.2 19.88-1 22.69-.91c4.74.16 6.13 1.08 6.56 2.96c.3 1.33.16 2.3.16 2.3L92.5 24.26l-25.7 2.25s-4.26 5.78-4.26 6.26c0 .48 4.18 9.64 4.18 9.64s3.61 3.52 5.22 4.65c1.61 1.12 6.99 4.67 16.14 5.95c9.15 1.28 19.78-.8 19.78-.8s-1.28 9.95-18.19 15.4c-15.21 4.9-24.56 3.87-24.56 3.87s-6.91-.88-10.12-6.1c-3.21-5.22-1.44-8.6-1.44-8.6"/><path fill="#FF2A23" d="M43.51 47.47c2.26 1.67 4.58-.08 6.75-4.1c2.63-4.87 4.79-14.03 8.42-17.49c3.37-3.21 9.49-5.18 24.42-6.68c14.68-1.48 25.13-1.93 24.01-4.58c-1.04-2.44-32.12 1.2-37.58 2.25c-5.46 1.04-13.65 2.49-17.99 10.92s-5.86 12.13-7.87 14.53c-1.74 2.1-1.68 4.02-.16 5.15"/><path fill="#AC101B" d="M71.99 47.09s-6.9-5.61-6.11-13.01c.54-5.04 5.32-5.46 9.63-5.82c4.37-.36 21.2-2.08 26.67-3.16c5-.99 8.54-2.73 9.63-3.74c2.13-1.97 2.09-4.19 2.09-4.19s-4.9 1.89-11.94 3.33s-30.12 2.95-33.57 3.74s-8.6 3.21-8.19 11c.36 6.9 4.6 10.37 6.4 11.43c3.31 1.93 5.39.42 5.39.42"/><path fill="#B0B0B0" d="M3.64 64.7s8.35 27.19 59.49 27.04c55.06-.16 61.21-27.69 61.21-27.69s1.2 4.39.32 13.08c-.61 6-3.1 11.26-3.1 11.26s-9.9 20.57-56.95 21.31c-42.48.66-57.29-19.34-57.29-19.34s-3.4-6.17-4.11-12.09c-.87-7.18.35-13.82.43-13.57"/><path fill="#E1E1E1" d="M7.62 61.62c-1.17 1.95-1.07 4.74.95 7.45c4.95 6.62 15.44 11.86 19.97 12.22s5.48-1.85 4.89-3.58c-.58-1.68-5.9-1.79-13.53-7.09c-6.15-4.28-7.86-8.51-8.82-9.42c-1.08-1.01-2.57-1.07-3.46.42m29.62 19.61c-.42 1.85.28 3.58 3.16 4.11c2.92.54 4.11-.89 4.35-2.68c.24-1.79-.72-3.46-3.22-3.93c-2.5-.48-3.85.58-4.29 2.5"/><path fill="#5D6165" d="M14.82 52.04c-.64-.44-1.87-.48-2.41.55c-.43.8-.4 1.61.4 2.34c.54.49 1.76.37 2.41-.48c.69-.88.19-2.01-.4-2.41m7.46 12.36c-1.1-.04-1.68.69-1.65 1.79c.04 1.1.59 1.68 1.65 1.68s1.5-.91 1.46-1.83s-.51-1.6-1.46-1.64m11.59 6.69c-.42.89-.18 2.05.77 2.52c.95.48 2.04.05 2.38-.59c.59-1.1.18-2.08-.73-2.63c-.92-.54-2.05-.06-2.42.7m19.71 9.04c-.1 1.21.66 1.79 1.76 1.9c1.1.11 1.94-1.02 1.87-1.97c-.07-.95-.69-1.68-1.9-1.65s-1.65.87-1.73 1.72m15.36 2.88c-.91-.07-2.38.15-2.41 1.97c-.04 1.94 1.8 2.18 2.38 2.12c1.02-.11 1.94-1.17 1.72-2.41c-.17-.9-.92-1.61-1.69-1.68m6.85-5c-.42.89-.18 2.05.77 2.52c.95.48 2.04.05 2.38-.59c.59-1.1.18-2.08-.73-2.63c-.92-.54-2.06-.06-2.42.7m18.18 1.69c-.72-.53-2.1-.58-2.68.37c-.6.98-.44 2.06.49 2.72c.63.45 2.02.45 2.62-.56c.6-1.02.18-2.08-.43-2.53m16.05-11.87c-.85-.07-2.22.14-2.26 1.85c-.04 1.81 1.69 2.04 2.22 1.98c.96-.1 1.81-1.09 1.61-2.26c-.15-.85-.86-1.52-1.57-1.57M97.8 72.81c-.77.02-1.58.61-1.64 1.52c-.06.91.34 1.7 1.52 1.74c1.13.04 1.71-.67 1.74-1.66c.03-1.15-.94-1.62-1.62-1.6m17.46-19.36c-1.09 0-1.8.67-1.72 1.9c.08 1.23.91 1.61 1.72 1.6c1.23-.02 1.78-.99 1.66-2c-.1-.77-.57-1.5-1.66-1.5"/></svg>