<svg viewBox="0 0 128 128"><path fill="#858585" d="M60.8 26.7c-19-.4-45 5.5-53.6 25.7C-1.2 72 3.7 92 17.4 102.6c11.5 8.8 22.7 13 45 13.3 21.1.3 35.7-4.1 47.4-12.3 19-13.5 19-45.5 5.7-59.3-13.2-13.8-29.3-17-54.7-17.6"/><path fill="#ff2a23" d="M60.3 28C48.6 27.8 19 32.3 19 50c-.1 16 27.3 21.7 46.1 21.6 16-.2 44.4-7.4 43.1-23.7-1-14-28.1-19.1-48-19.7"/><path fill="#dd0c28" d="M53.6 56.8s-7.4-.2-11.9-2.8c-3.6-2.2-5.2-4.1-5.3-6.7 0-2.2 1.6-3.4 3.6-5a22 22 0 0 0 6-8c1.7-3.8 4.8-12.9 12.1-16.1 6.7-3 13.5-4 26.4-5.1 14.7-1.2 19.8-1 22.6-1 4.8.2 6.2 1.1 6.6 3q.3 2.2.2 2.3l-21.4 6.9-25.7 2.2s-4.3 5.8-4.3 6.3 4.2 9.6 4.2 9.6 3.6 3.5 5.2 4.7c1.6 1 7 4.6 16.2 6s19.8-.9 19.8-.9-1.3 10-18.2 15.4c-15.2 5-24.6 3.9-24.6 3.9s-6.9-.9-10.1-6.1-1.4-8.6-1.4-8.6"/><path fill="#ff2a23" d="M43.5 47.5c2.3 1.6 4.6-.1 6.8-4.1 2.6-4.9 4.8-14 8.4-17.5 3.3-3.2 9.5-5.2 24.4-6.7 14.7-1.5 25.1-2 24-4.6-1-2.4-32.1 1.2-37.6 2.3s-13.6 2.5-18 10.9-5.8 12.1-7.8 14.5q-2.6 3.3-.2 5.2"/><path fill="#ac101b" d="M72 47s-7-5.5-6.1-13c.5-5 5.3-5.4 9.6-5.7a427 427 0 0 0 26.7-3.2c5-1 8.5-2.7 9.6-3.7 2.1-2 2.1-4.2 2.1-4.2s-4.9 1.9-12 3.3-30 3-33.5 3.7-8.6 3.3-8.2 11a14 14 0 0 0 6.4 11.5c3.3 1.9 5.4.4 5.4.4"/><path fill="#b0b0b0" d="M3.6 64.7s8.4 27.2 59.5 27c55-.1 61.2-27.6 61.2-27.6s1.2 4.3.4 13c-.7 6-3.1 11.3-3.1 11.3s-10 20.6-57 21.3c-42.5.7-57.3-19.3-57.3-19.3s-3.4-6.2-4-12.1c-1-7.2.3-13.8.3-13.6"/><path fill="#e1e1e1" d="M7.6 61.6c-1.1 2-1 4.8 1 7.5 5 6.6 15.4 11.8 20 12.2s5.4-1.9 4.8-3.6C33 76 27.5 76 20 70.7c-6.1-4.4-7.9-8.6-8.8-9.5-1.1-1-2.6-1-3.5.4m29.6 19.6c-.4 1.9.3 3.6 3.2 4.1 3 .6 4.1-.9 4.4-2.6s-.8-3.5-3.3-4q-3.6-.5-4.3 2.5"/><path fill="#5d6165" d="M14.8 52c-.6-.4-1.9-.4-2.4.6q-.7 1.2.4 2.3c.5.5 1.8.4 2.4-.5.7-.8.2-2-.4-2.4m7.5 12.4q-1.7 0-1.7 1.8 0 1.6 1.7 1.7c1.7 0 1.5-1 1.4-1.9s-.5-1.6-1.4-1.6m11.6 6.7q-.6 1.6.7 2.5c1 .5 2 0 2.4-.6q.8-1.6-.7-2.6c-1-.6-2 0-2.4.7m19.7 9q0 1.8 1.7 2c1.7.1 2-1 2-2s-.8-1.7-2-1.7-1.6.9-1.7 1.7m15.3 3c-.9-.2-2.3 0-2.4 1.9 0 2 1.8 2.2 2.4 2.1a2 2 0 0 0 1.7-2.4q-.3-1.5-1.7-1.7m6.9-5q-.7 1.6.8 2.5c1 .5 2 0 2.3-.6q.8-1.6-.7-2.6-1.7-.5-2.4.7M94 79.7c-.8-.5-2.1-.6-2.7.4q-1 1.6.5 2.7c.6.4 2 .4 2.6-.6s.2-2-.4-2.5m16-11.9c-.8 0-2.2.2-2.2 1.9 0 1.8 1.6 2 2.2 2a2 2 0 0 0 1.6-2.3q-.4-1.4-1.6-1.6m-12.2 5q-1.4 0-1.6 1.5c-.2 1.5.3 1.7 1.5 1.8q1.7-.1 1.7-1.7c0-1.1-1-1.6-1.6-1.6m17.5-19.3q-1.7 0-1.8 1.9c0 1.9 1 1.6 1.8 1.6 1.2 0 1.7-1 1.6-2q0-1.3-1.6-1.5"/></svg>