<svg xmlns="http://www.w3.org/2000/svg" width="1em" height="1em" viewBox="0 0 128 128"><g fill="#FFF"><path d="m119.67 14.29l2.86.91l-3.36 1.36a6.762 6.762 0 0 0-3.8 3.92l-1.1 2.98l-.96-2.97a6.756 6.756 0 0 0-4.34-4.34L106 15.2l2.72-.84a6.75 6.75 0 0 0 4.35-4.13l1.2-3.29l1.06 3.1c.68 2.02 2.3 3.6 4.34 4.25z" opacity=".6"/><path d="m18.06 101.95l2.86.91l-3.36 1.36c-1.76.71-2.29 2.14-2.95 3.92l-1.1 5.57l-.96-5.55c-.67-2.06-1.31-3.67-3.36-4.34l-2.97-.96l2.72-.84c2.02-.62 2.65-2.15 3.37-4.13l1.2-5.95l1.06 5.76c.68 2.03 1.45 3.6 3.49 4.25zM120.2 112.8l2.86.91l-3.36 1.36c-1.76.71-2.29 2.14-2.95 3.92l-1.1 5.57l-.96-5.55c-.67-2.06-1.31-3.67-3.36-4.34l-2.97-.96l2.72-.84c2.02-.62 2.65-2.15 3.37-4.13l1.2-5.95l1.06 5.76c.69 2.02 1.45 3.6 3.49 4.25z"/><path d="m30.09 116.1l2.86.91l-3.36 1.36a6.762 6.762 0 0 0-3.8 3.92l-1.1 2.98l-.96-2.97a6.756 6.756 0 0 0-4.34-4.34l-2.96-.96l2.72-.84a6.75 6.75 0 0 0 4.35-4.13l1.2-3.29l1.06 3.1a6.711 6.711 0 0 0 4.33 4.26zm-7.63-99.68l5.78 2.04L22 20.67c-2.87 1.16-2.91 3.48-3.77 7.02l-1.39 6.65s-.64-2.51-1.15-5.5c-.76-4.45-2.63-7.99-5.05-8.52l-5.71-1.97l5.58-2.06c2.25-.56 3.95-2.75 4.76-6.55c.76-3.58 1.56-7.01 1.56-7.01s1.14 4.39 1.49 6.17s.81 6.46 4.14 7.52z" opacity=".6"/></g><circle cx="66.09" cy="65.34" r="54" fill="#81D4FA"/><radialGradient id="notoMirrorBall0" cx="79.773" cy="64.985" r="87.585" gradientUnits="userSpaceOnUse"><stop offset=".642" stop-color="#5C6BC0" stop-opacity="0"/><stop offset=".969" stop-color="#5C6BC0"/></radialGradient><circle cx="66.09" cy="65.34" r="54" fill="url(#notoMirrorBall0)"/><radialGradient id="notoMirrorBall1" cx="39.079" cy="40.065" r="97.469" gradientUnits="userSpaceOnUse"><stop offset=".447" stop-color="#9C27B0" stop-opacity="0"/><stop offset=".981" stop-color="#9C27B0" stop-opacity=".9"/></radialGradient><circle cx="66.09" cy="65.34" r="54" fill="url(#notoMirrorBall1)"/><path fill="#FFF" d="m55.48 67.3l.65-15.15s13.04.75 14.39.7l.09-15.62l9.85-.79l-2.24-15.7c-5.15.8-10.39.97-15.57.51L64 11.38c-3.84.21-6.97.48-10.84 1.52c-.49.13-.96.36-.96.36s-2.73 5.03-3.51 6.67l-5.87-1.38c-.13.19-7.72 13.81-7.72 13.81l-4.46 46.4l5.47 1.26l1.65 14.4s9.6 3.32 31.71 3.32l.36-14.5l7.26-.67l.15-15.67c-11.37 1.69-21.76.4-21.76.4z" opacity=".47"/><path fill="#FFF" d="m47.35 66.33l-2.46 15.65l16.88 1.55V68.06z"/><path fill="#3949AB" d="M120.09 65.34c0-3.44-.34-6.81-.95-10.07c-.62.27-10.43 4.59-10.84 4.77c-.42.18 1.17 15.98 1.17 15.98l-9.54 2.93l-1.92 14.74l-5.36 1.49L89.41 109l-6.89 2.25l-1.11 5.87c22.35-6.6 38.68-27.28 38.68-51.78z" opacity=".57"/><path fill="#8E24AA" d="M120.09 65.34c0-8.78-2.11-17.06-5.83-24.39l-2.72 1.56l-11.23 4.64l3.51 14.36l-9.86 2.93l.46 15.74l-8.29 1.54l-.62 14.73l-7.72.85l-1.29 14.72c-8.18 1.3-21.41.46-21.41.46s.22 3.55.35 5.81c3.44.69 7 1.05 10.64 1.05c29.83 0 54.01-24.18 54.01-54z" opacity=".3"/><path fill="#FFF" d="m66.12 21.8l-12.83-.81l-3.39 14.65c-9.08-1.17-17.8-5.86-17.8-5.86s-8.65 13.2-8.34 14.07l6.87 2.69l-5.19 14.14l14.11 4.08l2.6-15.68l13.33 2.32l1.21-14.58s8.63.96 8.45.73c-.28-.36.98-15.75.98-15.75z"/><path fill="#81D4FA" d="m119.55 73.03l.2-1.55c-.09.04-3.77 1.69-9.7 3.65l-1.08-14.68c2.5-.92 10.31-4.27 10.35-4.29l-.27-1.47c-.05.02-1.22.62-2.99 1.42l-4.37-13.07c1.87-.91 2.84-1.49 2.89-1.51l-.61-1.2c-.07.04-2.92 1.71-7.9 3.75l-4.89-13.44c1.8-.94 3.18-1.82 4.1-2.46l-.97-1c-1.49 1.02-4.12 2.6-7.87 4.12c-.49.2-1.02.4-1.56.61l-5.41-12.6c.85-.28 2.22-.77 3.03-1.09l-1.61-.87c-1.72.68-2.99 1.09-4.93 1.6l-1.24-4.29l-1.62-.59l1.54 5.19a67.65 67.65 0 0 1-8.79 1.47L75 12.07l-1.47-.22l.96 9.01a98.666 98.666 0 0 1-11.05.35l1.85-9.86l-1.46.04l-1.75 9.79c-4.56-.16-8.68-.64-12.36-1.41l3.43-6.87l-1.7.45l-3.09 6.12l.02.01c-2.74-.65-4.68-1.23-6.87-2.23l-1.51.79c.45.21 1.33.58 1.81.77l-6.63 11.96c-3.59-1.71-5.74-3.4-6.67-4.22l-.97.97c.59.53 1.66 1.41 3.28 2.43l-7.35 13.02c-3.31-1.5-5.17-2.64-5.23-2.68l-.63 1.21c.04.02.7.42 1.99 1.09L14.2 55.2c-.53-.26-.56-.28-1.05-.53l-.26 1.37c.07.04 2.14 1.14 6.07 2.77l-2.5 14.45c-2.71-1.02-3.93-1.59-3.99-1.62l.17 1.55c.09.04 2.81 1.29 9.09 3.34l1.74 12.84c-4.68-1.74-7.02-2.95-7.09-2.98l.85 1.9c.11.06 4.48 2.33 14.62 5.25l3.69 13.34c-5.24-2.01-8.14-3.93-8.2-3.97c0 0 .89.89 1.67 1.65c.78.76 1.52 1.39 1.52 1.39c2.58 1.28 6.22 3.03 11.61 4.48l1.65 4.08l1.84.79l-1.87-4.45c3.13.77 6.67 1.44 10.62 1.89l.77 5.47l1.43.28l-.82-5.6a96.745 96.745 0 0 0 12.58.42l-.41 6l1.33-.06l.43-5.98c4.31-.2 8.27-.67 11.86-1.3l-1.13 5.45l1.48-.43l1.09-5.29c4-.77 7.5-1.73 10.47-2.71l-.48 3.2l1.38-.84l.54-2.85c6.49-2.29 8.11-3.76 8.18-3.81c0 0 2.27-2.18 2.58-2.6c0 0-1.63.85-2.08 1.11l4.03-11.79c5.57-2.12 7.43-3.34 7.5-3.38l.91-2.09c-.04.03-1.49 1.01-3.51 1.95l2.35-13.01c3.32-1.23 4.62-1.82 4.69-1.85zm-9.1-29.41l4.36 13.03c-2.52 1.09-6.13 2.54-10.57 4.02l-3.15-13.3c3.93-1.34 7.08-2.68 9.36-3.75zm-22.87 7.43c4.58-.93 8.68-2.08 12.22-3.24l3.15 13.29c-3.9 1.25-8.39 2.5-13.3 3.54l-2.07-13.59zm.75 13.86c-4.41.89-9.14 1.59-14.1 1.98L73.12 53c4.7-.32 9.09-.92 13.14-1.69l2.07 13.6zM71.32 51.76l-.07-13.97c5.58-.27 10.43-.95 14.6-1.85l3.21 13.41c-5.27 1.17-11.23 2.07-17.74 2.41zm.45 1.32l1.12 13.91c-2.3.15-4.64.24-7.02.24c-3.33 0-6.58-.17-9.74-.46l.5-13.93a103.546 103.546 0 0 0 15.14.24zm-5.9-1.18c-3.62 0-7.09-.19-10.39-.51l1.5-13.84a105.907 105.907 0 0 0 12.92.29l.07 13.98c-1.35.05-2.71.08-4.1.08zm-11.73-.66c-5.62-.63-10.72-1.64-15.19-2.82l4.67-13.14c3.39.91 7.37 1.67 12.02 2.13l-1.5 13.83zm1.14 1.48l-.5 13.92c-5.15-.54-10.02-1.4-14.49-2.42l2.14-13.57c3.91.88 8.21 1.61 12.85 2.07zm-14.17-2.37l-2.13 13.56c-4.79-1.15-9.08-2.47-12.73-3.75l4.77-12.74c2.94 1.03 6.33 2.04 10.09 2.93zm4.94 16.42L44.78 80.8c-4.86-.79-9.35-1.78-13.35-2.81l1.99-14.14c3.83 1.09 8.07 2.11 12.63 2.92zm5.49 16.32l1.35 13.35a131.63 131.63 0 0 1-14.41-2.53L36.9 80.67c4.48.98 9.4 1.83 14.64 2.42zm-5.42-2.08L47.38 67c4.33.72 8.93 1.25 13.72 1.47v14c-5.24-.21-10.27-.74-14.98-1.46zm19.75 2.91c1.07 0 2.13-.02 3.18-.05l-.14 13.4c-.58.01-1.16.02-1.75.02c-4.5 0-8.81-.26-12.9-.69l-1.35-13.36c4.16.43 8.49.68 12.96.68zm0-1.35c-1.15 0-2.29-.02-3.42-.05v-14c1.13.04 2.27.06 3.42.06c3.62 0 7.16-.19 10.58-.53V82.1c-3.43.3-6.97.47-10.58.47zm4.53 1.26c5.47-.2 10.73-.76 15.63-1.52l-1.28 13.66c-4.44.68-9.28 1.14-14.47 1.28l.12-13.42zm7.4-1.85V67.91c5.54-.61 10.77-1.58 15.53-2.72l-.01 14.41c-4.77 1-9.97 1.85-15.52 2.38zm9.61.11c4.22-.7 8.16-1.54 11.75-2.42l-1.71 13.62c-3.37.92-7.16 1.78-11.32 2.46l1.28-13.66zm7.27-2.76V64.86c4.92-1.23 9.3-2.62 12.96-3.93l1.08 14.63c-3.87 1.24-8.64 2.59-14.04 3.77zm5.27-48.09l4.85 13.34c-3.79 1.49-8.67 3.12-14.43 4.47l-3.21-13.41c5.47-1.27 9.7-2.9 12.79-4.4zM88.16 19.7l5.43 12.66c-3.28 1.14-7.46 2.27-12.56 3.07l-1.95-13.75c3.26-.47 6.28-1.13 9.08-1.98zm-21.67 2.87c3.99-.02 7.74-.26 11.25-.71l1.95 13.76c-4.06.57-8.65.94-13.83.94h-.38l1.01-13.99zm-1.35.01l-1.01 13.97c-5.22-.08-9.76-.53-13.67-1.19l3.22-13.55c3.5.48 7.32.74 11.46.77zM43.08 19.3c2.74.99 5.83 1.75 9.24 2.3l-3.19 13.52c-5.55-1.04-9.75-2.47-12.72-3.78l6.67-12.04zM31.96 30.66c2.42 1.39 5.81 2.95 10.35 4.27l-4.67 13.15c-5.33-1.47-9.71-3.13-12.94-4.54l7.26-12.88zM15.4 55.8l5.38-12.58c2.07 1.02 5.1 2.38 8.96 3.77l-4.77 12.74c-4.32-1.57-7.61-3.01-9.57-3.93zm2.33 17.96l2.49-14.4c3.15 1.27 7.17 2.73 11.88 4.12l-1.99 14.17c-5.09-1.36-9.31-2.77-12.38-3.89zm7.12 16l-1.73-12.75c3.5 1.11 7.67 2.28 12.37 3.35l1.58 13.21c-4.93-1.22-12.22-3.81-12.22-3.81zm12.22 17.72l-3.74-13.49c3.42.94 7.26 1.85 11.44 2.6l2.57 13.7c-4.01-.8-7.44-1.81-10.27-2.81zm11.7 3.09l-2.58-13.72c4.4.75 9.16 1.32 14.2 1.6l1.38 13.5c-4.82-.17-9.16-.68-13-1.38zm27.08.85c-3.29.37-6.84.59-10.62.59c-.71 0-1.41-.01-2.1-.02l-1.37-13.47c1.77.08 3.57.12 5.4.12c3.45 0 6.75-.15 9.91-.42l-1.22 13.2zm1.37-.17l1.21-13.15c4.85-.46 9.32-1.19 13.36-2.06l-3.24 13a86.3 86.3 0 0 1-11.33 2.21zm24.61-7.13c-2.35 1.18-6.33 2.94-11.78 4.51l3.22-12.91c4.96-1.13 9.23-2.45 12.7-3.71l-4.14 12.11zm9.18-15.56c-2.83 1.24-6.91 2.82-12.03 4.29l1.58-13.54c3.05-.79 5.82-1.6 8.26-2.37c0 0 3.59-1.19 4.57-1.54l-2.38 13.16z"/><path fill="#FFF" d="m91.34 81.42l2.81.89l-3.3 1.34c-1.73.7-3.08 2.1-3.73 3.85l-1.08 2.93l-.94-2.91a6.63 6.63 0 0 0-4.26-4.26l-2.91-.94l2.67-.82a6.614 6.614 0 0 0 4.27-4.06l1.18-3.23l1.04 3.05a6.555 6.555 0 0 0 4.25 4.16zM89.42 57.1l5.11 1.62l-6 2.43c-3.15 1.27-4.09 3.81-5.27 6.99l-1.96 9.94l-1.71-9.9c-1.19-3.67-2.33-6.55-6-7.74l-5.29-1.71l4.85-1.5c3.6-1.11 4.73-3.84 6.02-7.38l2.14-10.62l1.88 10.28c1.22 3.62 2.37 6.27 6.23 7.59z"/></svg>