<svg viewBox="0 0 128 128"><g fill="#fff"><path d="m119.7 14.3 2.8.9-3.3 1.4a7 7 0 0 0-3.8 3.9l-1.1 3-1-3A7 7 0 0 0 109 16l-3-.9 2.7-.8a7 7 0 0 0 4.4-4.2l1.2-3.3 1 3.1q1.2 3.1 4.4 4.3" opacity=".6"/><path d="m18 102 3 .9-3.4 1.3c-1.8.7-2.3 2.2-3 4l-1 5.5-1-5.5c-.7-2.1-1.4-3.7-3.4-4.4l-3-1L9 102c2-.6 2.7-2.1 3.4-4.1l1.2-6 1 5.8c.8 2 1.5 3.6 3.6 4.3m102.1 10.8 2.9 1-3.4 1.3c-1.8.7-2.3 2.1-3 3.9l-1 5.6-1-5.6c-.7-2-1.3-3.7-3.4-4.3l-3-1 2.8-.8c2-.7 2.6-2.2 3.4-4.2l1.2-6 1 5.9c.7 2 1.5 3.6 3.5 4.2"/><path d="m30 116.1 3 1-3.4 1.3a7 7 0 0 0-3.8 3.9l-1.1 3-1-3a7 7 0 0 0-4.3-4.3l-3-1 2.8-.8a7 7 0 0 0 4.3-4.2l1.2-3.3 1 3.1a7 7 0 0 0 4.4 4.3m-7.6-99.7 5.7 2-6.2 2.3c-2.9 1.1-3 3.5-3.8 7l-1.4 6.6-1.1-5.5c-.8-4.4-2.6-8-5-8.5l-5.8-2 5.6-2q3.5-.9 4.8-6.6l1.5-7S18 7.1 18.3 9s.8 6.5 4.2 7.5" opacity=".6"/></g><circle cx="66.1" cy="65.3" r="54" fill="#81d4fa"/><radialGradient id="a" cx="79.8" cy="65" r="87.6" gradientUnits="userSpaceOnUse"><stop offset=".6" stop-color="#5c6bc0" stop-opacity="0"/><stop offset="1" stop-color="#5c6bc0"/></radialGradient><circle cx="66.1" cy="65.3" r="54" fill="url(#a)"/><radialGradient id="b" cx="39.1" cy="40.1" r="97.5" gradientUnits="userSpaceOnUse"><stop offset=".4" stop-color="#9c27b0" stop-opacity="0"/><stop offset="1" stop-color="#9c27b0" stop-opacity=".9"/></radialGradient><circle cx="66.1" cy="65.3" r="54" fill="url(#b)"/><path fill="#fff" d="m55.5 67.3.6-15.1s13 .7 14.4.6l.1-15.6 9.9-.8-2.3-15.7q-7.7 1.2-15.6.6l1.4-10c-3.8.3-7 .6-10.8 1.6l-1 .4-3.5 6.6-5.9-1.3-7.7 13.8-4.5 46.4 5.5 1.2 1.7 14.4s9.6 3.3 31.7 3.3l.3-14.5 7.3-.6.1-15.7c-11.3 1.7-21.7.4-21.7.4" opacity=".5"/><path fill="#fff" d="M47.4 66.3 44.9 82l16.9 1.5V68.1z"/><path fill="#3949ab" d="M120 65.3q0-5.1-.9-10L108.3 60c-.4.2 1.2 16 1.2 16l-9.6 3L98 93.7l-5.3 1.5-3.3 13.8-6.9 2.3-1 5.8A54 54 0 0 0 120 65.3" opacity=".6"/><path fill="#8e24aa" d="M120 65.3q0-13.2-5.7-24.3l-2.8 1.5-11.2 4.7 3.5 14.3-9.8 3 .4 15.7-8.3 1.5-.6 14.8-7.7.8-1.3 14.7c-8.2 1.3-21.4.5-21.4.5l.3 5.8a54 54 0 0 0 64.7-53" opacity=".3"/><path fill="#fff" d="M66.1 21.8 53.3 21l-3.4 14.6c-9-1.1-17.8-5.8-17.8-5.8s-8.6 13.2-8.3 14l6.8 2.7-5.2 14.2 14.2 4 2.6-15.6 13.3 2.3 1.2-14.6s8.6 1 8.4.8c-.2-.4 1-15.8 1-15.8"/><path fill="#81d4fa" d="m119.6 73 .2-1.5c-.1 0-3.8 1.7-9.7 3.6L109 60.5l10.3-4.3-.3-1.5-3 1.4-4.3-13 2.9-1.6-.6-1.2c-.1 0-3 1.7-8 3.8l-4.8-13.5q2.7-1.4 4-2.4l-.9-1a42 42 0 0 1-7.9 4.1l-1.5.6-5.4-12.6 3-1-1.6-1c-1.7.7-3 1.1-5 1.7l-1.2-4.3-1.6-.6 1.5 5.2a68 68 0 0 1-8.8 1.4l-.8-8.6-1.5-.2 1 9a99 99 0 0 1-11 .3l1.8-9.8h-1.5l-1.7 9.8a73 73 0 0 1-12.4-1.4l3.4-6.9-1.7.4-3 6.2c-2.8-.7-4.7-1.2-6.9-2.2L40 18l1.8.8-6.6 12a29 29 0 0 1-6.7-4.3l-1 1q.9.8 3.3 2.4l-7.3 13-5.3-2.6-.6 1.2 2 1-5.4 12.7-1-.5-.3 1.3q0 .2 6 2.8l-2.4 14.5q-4-1.5-4-1.7l.1 1.6 9.1 3.3 1.8 12.9q-7-2.8-7.1-3l.8 1.9c.1 0 4.5 2.3 14.7 5.2l3.6 13.4c-5.2-2-8.1-4-8.2-4l3.2 3q3.7 2.1 11.6 4.5l1.7 4.1 1.8.8-1.8-4.4q4.5 1.1 10.6 1.8l.8 5.5 1.4.3-.8-5.6a97 97 0 0 0 12.5.4l-.4 6h1.4l.4-6q6.5-.4 11.9-1.3l-1.2 5.4 1.5-.4 1-5.3q6-1.2 10.6-2.7l-.5 3.2 1.4-.8.5-2.9c6.5-2.3 8.1-3.8 8.2-3.8l2.6-2.6-2.1 1.1 4-11.8c5.6-2.1 7.4-3.3 7.5-3.4l1-2c-.1 0-1.6 1-3.6 1.9l2.4-13q4.8-1.8 4.6-1.9m-9-29.4 4.3 13a132 132 0 0 1-10.6 4l-3.1-13.2q5.9-2.1 9.4-3.8m-23 7.5q7-1.5 12.3-3.3l3.2 13.3q-6 2-13.3 3.5zm.8 13.8q-6.6 1.4-14 2L73 53q7-.5 13.2-1.7zm-17-13.1v-14q8.3-.5 14.6-1.9L89 49.4a108 108 0 0 1-17.8 2.4m.5 1.3 1 13.9a108 108 0 0 1-16.7-.2l.5-14a104 104 0 0 0 15.2.3m-6-1.2q-5.3 0-10.3-.5L57 37.6a106 106 0 0 0 12.9.2v14zM54 51.2q-8.5-1-15.1-2.8l4.6-13.1q5.1 1.4 12 2.1zm1.2 1.5-.5 14q-7.8-1-14.5-2.5l2.1-13.6q6 1.5 12.9 2.1M41 50.3 39 64a131 131 0 0 1-12.8-3.7L31 47.4q4.4 1.5 10.1 3m5 16.4-1.3 14q-7.4-1.2-13.4-2.8l2-14.2q5.8 1.7 12.7 3M51.5 83 53 96.4A132 132 0 0 1 38.5 94l-1.6-13.2q6.8 1.5 14.6 2.4m-5.4-2L47.4 67Q54 68.1 61 68.5v14q-7.9-.4-15-1.5m20 3 3.1-.1v13.4a101 101 0 0 1-14.7-.7L53 83.2q6.3.7 13 .7m0-1.3h-3.5v-14H66q5.4 0 10.5-.5v14q-5.2.5-10.5.5m4.5 1.2q8.3-.3 15.6-1.5L84.8 96q-6.7 1-14.5 1.2zm7.4-1.8V68q8.3-1.1 15.5-2.8v14.4q-7.1 1.6-15.5 2.4m9.6 0a158 158 0 0 0 11.8-2.3l-1.7 13.6A111 111 0 0 1 86 95.7zm7.3-2.7V65q7.4-2 13-4l1 14.7q-5.8 2-14 3.7m5.3-48 4.8 13.3Q99 47 90.4 49l-3.2-13.4q8.1-2 12.8-4.4M88.2 19.7l5.4 12.7a73 73 0 0 1-12.6 3l-2-13.7q5-.7 9.2-2m-21.7 2.9q6 0 11.2-.7l2 13.7q-6 1-13.8 1h-.4zm-1.4 0-1 14q-7.8-.2-13.6-1.2l3.2-13.6q5.2.8 11.4.8m-22-3.3q4 1.5 9.2 2.3l-3.2 13.5q-8.2-1.6-12.7-3.8zM32 30.7q3.6 2.2 10.3 4.2l-4.7 13.2a97 97 0 0 1-12.9-4.6zM15.4 55.8l5.4-12.6q3 1.6 9 3.8L25 59.7q-6.6-2.4-9.6-3.9m2.3 18 2.5-14.4q4.8 2 11.9 4l-2 14.3q-7.6-2.2-12.4-4m7.2 16L23 77q5.3 1.7 12.4 3.4L37 93.6c-5-1.3-12.3-3.8-12.3-3.8M37 107.5 33.3 94q5.2 1.5 11.5 2.6l2.5 13.7q-6-1.2-10.2-2.8m11.7 3-2.6-13.7q6.6 1.3 14.2 1.6l1.4 13.5q-7.2-.2-13-1.3m27 .8a95 95 0 0 1-12.7.6l-1.3-13.5 5.4.1q5.1 0 9.9-.4zm1.4-.2 1.2-13.1q7.3-.8 13.4-2l-3.3 13a86 86 0 0 1-11.3 2.1m24.6-7a70 70 0 0 1-11.7 4.4l3.2-12.9Q100.8 94 106 92zm9.2-15.6q-4.3 2-12 4.2l1.6-13.5 8.2-2.4 4.6-1.5z"/><path fill="#fff" d="m91.3 81.4 2.9 1-3.3 1.2q-2.7 1.4-3.9 4l-1 3-1-3a7 7 0 0 0-4.3-4.2l-2.9-1 2.7-.8a7 7 0 0 0 4.3-4l1.1-3.3 1 3a7 7 0 0 0 4.3 4.2m-1.9-24.3 5.1 1.6-6 2.4c-3.1 1.3-4 3.9-5.2 7l-2 10-1.7-10c-1.2-3.6-2.3-6.5-6-7.7l-5.3-1.7 4.9-1.5c3.6-1 4.7-3.8 6-7.4l2.1-10.6 1.9 10.3c1.2 3.6 2.4 6.3 6.2 7.6"/></svg>