<svg viewBox="0 0 128 128"><path fill="#fe180a" d="M57.4 26.8c2-1.1 7.5-3.8 18.8 5s8.7 15.7 7.4 17.5c-1.5 2.2-10.8 9.8-10.8 9.8l-52 64.1s-3.9-.5-9-4C6 115.1 1.5 106.3 5 99.8c2-3.6 42-59.4 49.6-70 .7-1 1.4-2.3 2.8-3.1"/><path fill="#a42615" d="M59.3 29.4c-2.5 2.4-1.1 8.3 7 13.9 8.4 5.6 14 4.8 15.6 2.6 1.7-2.3-2.2-8.5-7.6-12.5-5.7-4.2-12.2-6.6-15-4"/><path fill="#ca1837" d="m64.3 58-44.7 65s3.7 1.2 6.6 1c4.1-.1 6.3-1.9 6.3-1.9l42.7-61.7z"/><path fill="#fdb700" d="M46.9 40.6s-1 4 5.7 10.7c3.3 3.3 5.6 5 7.5 6l3.4 1.8 5.8-2 .4-7s-6.5-3.3-10.9-8.2c-5.6-6.3-4.6-9.9-4.3-11.9z"/><path fill="#de7f14" d="m81.9 51.2-7.3 10s-1.2 1-5.6-.1c-2.6-.6-5.5-2-5.5-2l6.2-9s3.6 1.7 6.5 2c2.8.2 5.7-1 5.7-1"/><path fill="#fdb900" d="m8.6 94.5-2.5 3.7s-.4 4.7 5.5 10.7a33 33 0 0 0 12.3 7.8l1.8-2.4s-2.3-.8-4.8-2.3a36 36 0 0 1-7.4-6.2C8 99.5 8.6 94.5 8.6 94.5"/><path fill="#df7d15" d="m37.3 115-2 3s-2.5.4-6.2 0c-2.3-.2-5.2-1.3-5.2-1.3l1.7-2.5s2 .8 5.1 1.2 6.6-.3 6.6-.3"/><path fill="#d8a26d" d="M67.6 36.8q-.2 1.8 2.1 3.3c1.5 1 3.3.2 3.4-.6s.5-9.4 4-9.8 5 6.6 11.8 8.4c4.9 1.3 6.4 0 6.4 0l-.7-3.8s-2 1.3-6-1c-4.2-2.3-6.2-8.8-12.2-8.2-6.4.6-7.3 7.6-7.7 8.9z"/><path fill="#fd8e02" d="m81.4 15 11.9 19v24c0 1.4 1 2 2.2.6l9.6-15.8s15.3 6.3 16.4 6.9c1.1.5 1.8-.2 1.1-1.6L112 28.7l10.4-15c.6-1-.2-2-1.3-1.4l-13.2 6.5-4.7-13.6c-.6-1.4-1.5-1.6-1.9 0L96.8 21l-14-7.2c-1-.5-1.9.2-1.4 1.2"/><path fill="#ffe268" d="m90.4 22 7 10-.3 16.5 6.3-11.2 11.7 6-8-13.4 5-8.4s-6.5 3.7-6.7 3.3l-2.9-8.6-2.7 9.6z"/><path fill="#fcba03" d="M93.3 38.7v-4s2.4-.4 4.6-2.7c2-2 3.5-4.8 5.2-2.4 1.2 1.8-1.6 5-3.9 6.6-3.5 2.6-6 2.5-6 2.5"/></svg>