<svg viewBox="0 0 128 128"><path fill="#f5b03e" d="M16.4 31.7s-6.4.5-7.3 2q-1.2 2.3-1 6.1V48l1.5 3.3.3 43.5c0 1.3 0 3 1.9 4l51.1 24.6c2.3 1 3.3.6 3.3.6l53.1-88.8s-.1-2.4-2.3-3c-1.3-.3-100.6-.4-100.6-.4"/><path fill="#e07f14" d="M65.7 61c-.8 2.2-.5 25.2-.3 42 .1 16.7-.4 20.2 0 20.8s1.6 0 4.9-1.5c6.1-2.7 35.7-17.3 37.9-18.6s7.4-4 8.3-5.4 1.3-15 1.6-25.8l.6-19.5 1.3-4-.3-11.6q-.1-3-.8-2.7c-.7.3-6.6 5.1-22 12.7-9.7 4.7-30.7 12-31.2 13.5"/><path fill="#fdd717" d="M65.8 11.2C61.5 11 49.6 18 38.2 21.6S9.6 33 9.4 33.3c-.1.5 7 3.6 11.5 5.8L50.5 53a94 94 0 0 0 14.2 5.2c2-.2 21-7.7 30.7-12.3s21.8-11.8 22-13.5c0-.8-17.8-7.5-26.7-11.5-17.2-7.8-21.7-9.5-24.9-9.7"/><path fill="#e37d14" d="M8.1 49.8c.2 1.9 1.2 2.5 3.8 3.7s52.2 26.8 53.3 26.8 1.5-4 .2-4c-.6.1-17-7.6-32.1-15.3C20.3 54.4 8 47.9 8 47.9z"/><path fill="#ba5e0d" d="M120 49 66.6 76.2c-.5.3-1.3.1-1.3.1v4h1l52.4-27c.2 0 1.2-.8 1.5-2 .1-1-.2-2.3-.2-2.3"/><path fill="#af0f1b" d="m28.9 97.4 10.3 15.4 4.5 1.6.6-29.3c.2-18.2 0-34.8.4-35.7.4-1.6 20.5-8.1 20.5-8.1S88 48.4 88.7 50c.3.7 0 12.5 0 26.2v37.4s2.3 0 2.5-1c.3-.8 1.5-7.5 1.5-7.5l8.8-58.8 4.5-5.8-6.2-11.8-25.5-12.6-8.8 2-9.5-1.4-30.1 21.6 3.5 7.1 8.6 4.4z"/><path fill="#dc0d28" d="M91.3 49.4c-.6 1.2-.2 63.6-.2 63.6l6.2-3.3c3.6-1.7 6-2.7 6.3-3.6s.6-62.5.6-62.5z"/><path fill="#ff2a23" d="M41.4 48.1c.3.4-.3 65-1 65.2a75 75 0 0 1-12.5-5.8l1-62.4a65 65 0 0 0 12.5 3m23.8-33.8c-3.3 0-7 .9-8 3.7s-1.4 7-1.4 10-.4 10.6 8.7 10.5 9.4-3.5 9.6-11c0-6.2-.7-9.3-1.6-10.6-.7-1.1-3.2-2.6-7.3-2.6"/><path fill="#fcc9d2" d="M60 29.7c2 .1 3-4.5 4.5-7 1.6-2.4 3.3-4.1 2.7-5.4-.5-1.1-4.9-1.4-7.2 1.8-1.7 2.3-2 10.5 0 10.6"/><path fill="#ff2a23" d="M73.3 16.4s3 3 3.8 8.9-.2 10.5-.2 10.5 14.7-.5 19.7.5 6.8 3.2 6.8 4.8-3.3 2.8-6.6 2.6-5.6-.4-6 .4.1 2.2 4.8 2.5c4.6.4 10-.3 11.6-6s1.7-15.8 1.1-23-1.8-11.3-5-12.8c-3.5-1.7-12-2-20 2.6s-10 9-10 9"/><path fill="#fcc9d2" d="M90 9.6c-1.1-1.4-4.5-1.3-6.2.8-2 2.1-2.4 10.5 0 11 2.8.5 2.3-4 4.4-6.8 2-2.7 2.7-3.7 1.7-5"/><path fill="#ff2a23" d="M56.4 16.7s-11.2-13-24-12.9c-7.8.1-9.8 4.6-10.2 6.4s-3.6 20.2.7 30 13.1 7.4 14.5 7.1c1.8-.4 5.6-1.7 5.2-3s-13 3.5-13-2.2 8.8-6.2 13-6.3 11.3.8 11.3.8-1.3-6.8-.4-11.7 2.9-8.2 2.9-8.2"/><path fill="#fcc9d2" d="M28.9 8.6c-1.6 1.6-2.3 11.2-1.3 16s2 6.7 4 6.3c1.7-.3 2.8-9.7 3.6-13 1-3.4 3.1-7.2 2.2-8.8-1.3-2.5-6.8-2.3-8.5-.5"/></svg>