<svg xmlns="http://www.w3.org/2000/svg" width="1em" height="1em" viewBox="0 0 128 128"><path fill="#F57C00" d="M109.44 34.58c-10.76-8.62-25.91-10.36-45.25-10.36c-19.21 0-34.27 1.67-45.03 10.18C2.9 47.29-1.48 76.26 9.05 94.81c10.19 17.95 23.7 25.64 55.14 25.64c31.45 0 46.58-8.9 55.15-25.64c9.67-18.88 6.16-47.38-9.9-60.23M57.28 77.72l5.09-6.33c.89-1.1 2.42-1.16 3.38-.12l6.08 6.57c.97 1.04.6 1.89-.83 1.89H58.25c-1.43-.01-1.86-.92-.97-2.01m-28.45-7.85l11.08-12.48c.64-.72 1.49-.6 1.89.27l6.72 14.36c.41.86-.04 1.49-.99 1.38L29.4 71.36c-.94-.11-1.2-.78-.57-1.49m67.39 15.9l-4.83 15.88c-.34 1.1-1.37 1.55-2.29 1l-5.01-2.97c-.91-.55-2.4-.51-3.29.09l-6.49 4.34c-.9.6-2.32.53-3.16-.16l-5.36-4.35c-.84-.68-2.2-.66-3.02.06l-5.29 4.62c-.83.71-2.24.84-3.15.28l-6.75-4.16c-.91-.56-2.43-.61-3.38-.13l-5.43 2.79c-.94.48-2.03 0-2.4-1.08L30.7 85.74c-.37-1.08.09-1.57 1.04-1.08l8.05 4.15c.95.48 2.36.25 3.15-.51l3.26-3.15c.78-.76 2.17-.91 3.08-.34l6.31 3.99c.9.57 2.32.46 3.14-.25l4.03-3.48c.81-.71 2.21-.77 3.08-.13l5.12 3.74c.87.65 2.31.67 3.2.07l4.79-3.28c.89-.61 2.31-.56 3.16.11l3.91 3.06c.85.67 2.28.74 3.19.14l5.98-3.93c.91-.6 1.37-.18 1.03.92m2.91-14.65l-18.07 2.47c-.95.13-1.41-.49-1.02-1.36l6.37-14.51c.38-.88 1.23-1.03 1.88-.32l11.38 12.22c.64.69.4 1.36-.54 1.5"/><defs><path id="notoJackOLantern0" d="M109.44 34.58c-10.76-8.62-25.91-10.36-45.25-10.36c-19.21 0-34.27 1.67-45.03 10.18C2.9 47.29-1.48 76.26 9.05 94.81c10.19 17.95 23.7 25.64 55.14 25.64c31.45 0 46.58-8.9 55.15-25.64c9.67-18.88 6.16-47.38-9.9-60.23"/></defs><clipPath id="notoJackOLantern1"><use href="#notoJackOLantern0"/></clipPath><g clip-path="url(#notoJackOLantern1)"><path fill="#FF9800" d="M98.33 38.11c-6.66-7.19-15.42-9.75-26.28-10.46c.73-.23 1.46-.46 2.26-.69c2.19-.64 4.44-1.12 6.71-1.33c.96-.09 1.93-.02 2.88-.09c.46-.03.88-.19 1.35-.2c.52-.01 1.03.05 1.55.07c.43.01.78.2 1.18.25s.81-.06 1.21-.01c.64.08 1.64.44 1.82-.47c.18-.88-.61-1.32-1.34-1.51c-.91-.24-1.95-.3-2.88-.43c-3.85-.53-8.26-.09-13.12 1.32c-2.31.67-4.34 1.33-6.22 2.02c-.27.1-.56.24-.86.37c-.25.11-.53.24-.8.33c-.31.07-.62.14-.95.16c-.23 0-.46-.01-.78-.01c-.02 0-.05.01-.08.01h-.75c-.75-.05-1.49-.22-2.31-.43l-.56-.14c-.62-.15-1.15-.29-1.66-.57c-1.13-.66-2.18-1.25-3.36-1.69c-1.6-.58-3.36-1.05-5.21-1.39c-2.12-.38-4.27-.57-6.42-.54c-1.01.01-2.01.17-3.02.21c-.68.02-1.69.01-1.97.84c-.13.37.16.61.37.84c1.12 1.28 3.31.63 4.77.61c1.96-.02 3.93.17 5.87.51c1.73.31 3.35.73 4.82 1.28c.53.2 1.03.44 1.55.7c-10.72.71-19.39 3.23-25.96 10.26C16.06 52.97 11.8 79.4 20.21 99.41c7.82 18.61 20.52 26.22 43.93 26.26c22.86 0 37.23-8.61 43.94-26.31c7.91-20.84 3.8-46.6-9.75-61.25M22.42 98.4c-8.05-19.13-4-44.38 9.42-58.73c5.69-6.09 13.22-8.53 22.53-9.37c-2.03 1.63-3.87 4.14-5.4 8.01c-5.88 14.89-7.65 41.04-4.15 60.81c2.17 12.23 5.28 19.74 10.02 23.52c-16.43-1.88-26.14-9.28-32.42-24.24m41.66 24.77H64c-8.87-.03-13.76-7.13-16.84-24.48c-3.43-19.37-1.71-44.91 4-59.41c2.94-7.41 6.83-9.18 12.09-9.33c.1 0 .19.03.29.03h.04c.37 0 .77-.01 1.17-.03h.28v.02c.04 0 .07-.02.11-.02c5.14.22 8.97 2.09 11.86 9.5c5.51 14.12 7.17 39.04 3.93 59.25c-2.61 16.45-8.14 24.45-16.85 24.47m41.77-24.73c-5.49 14.48-16.06 22.29-32.88 24.22c5.03-3.92 8.44-11.7 10.34-23.56c3.29-20.61 1.58-46.1-4.08-60.6c-1.56-3.99-3.44-6.56-5.51-8.21c9.45.83 17.11 3.31 22.88 9.56c12.94 13.97 16.82 38.62 9.25 58.59"/></g><path fill="#2E7D32" d="M58.61 26.89c-.06-1.05.06-2.15.06-3c0-2.69-1.41-4.92-3.27-6.75c-1.56-1.54-4.22-2.48-5.58-4.06c-.39-.46-.83-1.89-.75-2.45c.34-2.4 2.39-5.03 4.87-5.45c1.31-.21 2.44.23 3.45.99c5.66 4.27 10.35 7.84 11.28 15.31c.18 1.47.54 3 .53 4.52c-.01 2.43-.74 3.29-3.16 3.92c-1.63.43-4.69.63-6.2-.3c-.87-.55-1.16-1.59-1.23-2.73"/><path fill="#422B0D" d="m57.28 77.72l5.09-6.33c.89-1.1 2.42-1.16 3.38-.12l6.08 6.57c.97 1.04.6 1.89-.83 1.89H58.25c-1.43-.01-1.86-.92-.97-2.01m-28.45-7.85l11.08-12.48c.64-.72 1.49-.6 1.89.27l6.72 14.36c.41.86-.04 1.49-.99 1.38L29.4 71.36c-.94-.11-1.2-.78-.57-1.49m67.39 15.9l-4.83 15.88c-.34 1.1-1.37 1.55-2.29 1l-5.01-2.97c-.91-.55-2.4-.51-3.29.09l-6.49 4.34c-.9.6-2.32.53-3.16-.16l-5.36-4.35c-.84-.68-2.2-.66-3.02.06l-5.29 4.62c-.83.71-2.24.84-3.15.28l-6.75-4.16c-.91-.56-2.43-.61-3.38-.13l-5.43 2.79c-.94.48-2.03 0-2.4-1.08L30.7 85.74c-.37-1.08.09-1.57 1.04-1.08l8.05 4.15c.95.48 2.36.25 3.15-.51l3.26-3.15c.78-.76 2.17-.91 3.08-.34l6.31 3.99c.9.57 2.32.46 3.14-.25l4.03-3.48c.81-.71 2.21-.77 3.08-.13l5.12 3.74c.87.65 2.31.67 3.2.07l4.79-3.28c.89-.61 2.31-.56 3.16.11l3.91 3.06c.85.67 2.28.74 3.19.14l5.98-3.93c.91-.6 1.37-.18 1.03.92m2.91-14.65l-18.07 2.47c-.95.13-1.41-.49-1.02-1.36l6.37-14.51c.38-.88 1.23-1.03 1.88-.32l11.38 12.22c.64.69.4 1.36-.54 1.5"/></svg>