<svg viewBox="0 0 128 128"><path fill="#f57c00" d="M109.4 34.6C98.7 26 83.5 24.2 64.2 24.2c-19.2 0-34.3 1.7-45 10.2C2.9 47.3-1.5 76.3 9 94.8c10.1 18 23.7 25.7 55 25.7 31.5 0 46.7-9 55.2-25.7 9.7-18.9 6.2-47.4-9.9-60.2m-52 43.1 5-6.3a2.2 2.2 0 0 1 3.5-.1l6 6.5c1 1 .6 2-.8 2H58.3c-1.5 0-2-1-1-2m-28.5-8L40 57.5q1.2-1 1.9.3L48.5 72q.5 1.5-1 1.4l-18.1-2q-1.5-.4-.6-1.5m67.4 15.9-4.8 15.9q-.8 1.6-2.3 1l-5-3c-1-.6-2.4-.5-3.3 0l-6.5 4.4c-.9.6-2.3.5-3.2-.1l-5.3-4.4c-.9-.7-2.2-.7-3 0l-5.3 4.7c-.9.7-2.3.8-3.2.3l-6.7-4.2c-1-.6-2.5-.6-3.4-.1l-5.4 2.8q-1.6.6-2.4-1.1l-5.7-16.3q-.6-1.6 1-1l8 4.1a3 3 0 0 0 3.2-.5l3.3-3.1c.8-.8 2.2-1 3-.4l6.4 4c.9.6 2.3.5 3.1-.3l4-3.4c.9-.7 2.3-.8 3.1-.2l5.2 3.8a3 3 0 0 0 3.2 0l4.8-3.2c.8-.6 2.3-.6 3.1 0l4 3.1a3 3 0 0 0 3.1.2l6-4q1.5-.8 1 1m3-14.7L81 73.6q-1.6 0-1-1.4l6.3-14.5q.7-1.4 1.9-.3l11.4 12.2q.9 1.2-.6 1.5"/><defs><path id="a" d="M109.4 34.6C98.7 26 83.5 24.2 64.2 24.2c-19.2 0-34.3 1.7-45 10.2C2.9 47.3-1.5 76.3 9 94.8c10.1 18 23.7 25.7 55 25.7 31.5 0 46.7-9 55.2-25.7 9.7-18.9 6.2-47.4-9.9-60.2"/></defs><clipPath id="b"><use href="#a"/></clipPath><g clip-path="url(#b)"><path fill="#ff9800" d="M98.3 38.1C91.7 31 83 28.4 72.1 27.6l2.2-.6q3.4-1 6.7-1.4h3l1.3-.3 1.6.1 1.2.3h1.2c.6 0 1.6.4 1.8-.5s-.6-1.3-1.3-1.5l-3-.5q-5.7-.7-13 1.4-3.5 1-6.3 2l-.8.3-.8.4-1 .1h-1.6q-1 0-2.3-.4l-.5-.1q-1-.2-1.7-.6a22 22 0 0 0-8.6-3q-3-.7-6.4-.6l-3 .2c-.7 0-1.7 0-2 .8q0 .5.4.9c1.1 1.2 3.3.6 4.8.6a32 32 0 0 1 12 2.5c-10.7.7-19.4 3.2-26 10.2a61 61 0 0 0-9.9 61.5c7.8 18.6 20.5 26.2 44 26.3q34 .1 43.9-26.3c7.9-20.9 3.8-46.6-9.8-61.3M22.4 98.4a58 58 0 0 1 9.4-58.7c5.7-6.1 13.3-8.6 22.6-9.4q-3 2.3-5.4 8c-6 14.9-7.7 41-4.2 60.8 2.2 12.3 5.3 19.8 10 23.5a36 36 0 0 1-32.4-24.2m41.7 24.8c-8.9 0-13.8-7.2-16.8-24.5-3.5-19.4-1.8-45 4-59.4C54 31.9 58 30 63.2 30h1.9c5.2.2 9 2 11.9 9.5 5.5 14 7.2 39 4 59.2q-4 24.6-17 24.5m42-24.8c-5.5 14.5-16.1 22.3-33 24.3q7.6-5.9 10.4-23.6c3.3-20.6 1.6-46.1-4-60.6q-2.4-5.9-5.6-8.2c9.5.8 17.1 3.3 22.9 9.5 13 14 16.8 38.7 9.3 58.6"/></g><path fill="#2e7d32" d="M58.6 26.9v-3q-.2-4-3.2-6.8c-1.6-1.5-4.2-2.4-5.6-4-.4-.5-.8-2-.7-2.5.3-2.4 2.4-5 4.8-5.4q2-.2 3.5 1C63 10.4 67.7 14 68.7 21.5l.5 4.5c0 2.4-.7 3.3-3.2 4-1.6.4-4.6.6-6.2-.4q-1.1-.9-1.2-2.7"/><path fill="#422b0d" d="m57.3 77.7 5-6.3a2.2 2.2 0 0 1 3.5-.1l6 6.5c1 1 .6 2-.8 2H58.3c-1.5 0-2-1-1-2m-28.5-8L40 57.5q1.2-1 1.9.3L48.5 72q.5 1.5-1 1.4l-18.1-2q-1.5-.4-.6-1.5m67.4 15.9-4.8 15.9q-.8 1.6-2.3 1l-5-3c-1-.6-2.4-.5-3.3 0l-6.5 4.4c-.9.6-2.3.5-3.2-.1l-5.3-4.4c-.9-.7-2.2-.7-3 0l-5.3 4.7c-.9.7-2.3.8-3.2.3l-6.7-4.2c-1-.6-2.5-.6-3.4-.1l-5.4 2.8q-1.6.6-2.4-1.1l-5.7-16.3q-.6-1.6 1-1l8 4.1a3 3 0 0 0 3.2-.5l3.3-3.1c.8-.8 2.2-1 3-.4l6.4 4c.9.6 2.3.5 3.1-.3l4-3.4c.9-.7 2.3-.8 3.1-.2l5.2 3.8a3 3 0 0 0 3.2 0l4.8-3.2c.8-.6 2.3-.6 3.1 0l4 3.1a3 3 0 0 0 3.1.2l6-4q1.5-.8 1 1m3-14.7L81 73.6q-1.6 0-1-1.4l6.3-14.5q.7-1.4 1.9-.3l11.4 12.2q.9 1.2-.6 1.5"/></svg>