<svg viewBox="0 0 128 128"><path fill="#858585" d="M63.8 52.6c-5 .3-13.8 5-26 10.2L12.6 73.5c-1.9.8-3.3 1.4-3.4 4.4s38.6 27.6 38.6 27.6l38.1.7 32-28.8s0-2-2-3.7c-2-1.6-18.9-8.2-25.6-10.9-6.6-2.7-24.2-10.3-26.5-10.2"/><path fill="#5e6367" d="M67.3 100.9c7-.1 15.3-5.5 28.2-12.3 9.9-5.2 19.9-10.7 20.3-10.9 1.6-.6 1.4-2.5 1.4-2.5s1.5 2 1.7 6.4c.2 3.9.1 12.6 0 13.6s.2 2.8-2.3 4.2L76 122c-2.3 1.1-4.7 2.6-7.5 2.6-2.5 0-5.4-1.3-9.6-2.7-2-.7-13.5-5.5-24.8-11-7.5-3.6-15.6-7.6-20.3-10.3-2.7-1.5-3.5-2.7-3.8-3.4C8.9 94.7 9 80.3 9 79c0-1.9.5-3 .5-3s1.2 1 5 2.8c3.3 1.6 13.7 7 22.7 11 22.1 9.8 26.8 11.2 30 11.1"/><path fill="#282828" d="M63.9 57.5c-7 0-11.3 2.4-14 5.4-3.4 4-3.4 9-3 11.3.4 3.8 5.1 9 17.9 9 13.9 0 16.6-6 17-7.9.5-1.9.9-8.6-3.7-13.1a21 21 0 0 0-14.2-4.7"/><path fill="#6da3ac" d="M57.8 42.8v20.4s1 3 6.2 3c5.3.1 6.3-2.4 6.3-2.4V42.6z"/><path fill="#ff4f28" d="M64 3.6c-13.4-.1-21.7 9.1-21.7 20.9S52 45.8 63.9 45.7c13.7-.2 21.6-9.1 21.5-22.3C85.3 10.7 75 3.6 64 3.6"/><path fill="#fdfffc" d="M59.7 8c-2.5-1.2-6.8 0-10.7 4.7s-4.3 12.1-.2 12.7c3.7.5 4.1-3.5 4.3-4.6.4-2.6 2.3-5.5 4.6-6.3.8-.3 2.7-.6 3.3-1.9.8-2 0-3.6-1.4-4.4"/><path fill="#dd0c22" d="M23.9 76.3c.1 3.8 5.6 5.4 10 5.4 6.3 0 9.8-2.5 9.8-5.8-.1-3.7-5.5-5.5-10-5.6-5.1 0-10 2-9.8 6"/><path fill="#ff4c2a" d="M27.4 74.5c0 2.3 3 3.2 6.3 3.2s6-1.1 6-3.3-3.9-3.2-6.5-3c-2.5 0-5.7.7-5.8 3.1"/></svg>