<svg xmlns="http://www.w3.org/2000/svg" width="1em" height="1em" viewBox="0 0 128 128"><path fill="#176cc7" d="M69.09 4.24c-1.08.96-9.48 17.63-9.48 17.63l-6.25 25.21 24.32-2.23S97.91 7.23 98.32 6.36c.73-1.58 1.12-2.23-1.67-2.23-2.79-.01-26.55-.79-27.56.11"/><path fill="#fcc417" d="M81.68 43.29c-1.21-.65-36.85-1.21-37.69 0-.76 1.1-.65 6.13-.28 6.78s12.35 6.22 12.35 6.22l-.01 2.03s.66 1.59 7.34 1.59 7.37-1.35 7.37-1.35l.06-2.05s10.49-5.24 11.04-5.7c.56-.47 1.03-6.87-.18-7.52M70.7 51.62s-.03-1.4-.72-1.75-11.8-.29-12.74-.24-.94 1.73-.94 1.73l-7.6-3.7v-.74l28.3.2.05.84z"/><path fill="#fdffff" d="M59.26 51.17c-.94 0-1.48.98-1.48 2.67 0 1.58.54 2.91 1.73 2.81.98-.08 1.32-1.58 1.23-2.91-.09-1.58-.29-2.57-1.48-2.57"/><path fill="#fcc417" d="M28.98 90.72c0 23.96 21.66 34.63 36.06 34.12 15.88-.57 34.9-12.95 33.75-35.81C97.7 67.37 79.48 57.1 63.7 57.21c-18.34.13-34.72 12.58-34.72 33.51"/><path fill="#fa912c" d="M64.53 120.67c-.25 0-.51 0-.76-.01-7.5-.25-14.91-3.41-20.33-8.66-5.8-5.62-8.98-13.22-8.94-21.39.09-19.95 17.53-29.2 29.36-29.2h.1c16.03.07 29.19 12.53 29.56 29.42.16 7.52-2.92 15.41-8.96 21.35-5.64 5.53-13.12 8.49-20.03 8.49m-.69-55.94c-10.61 0-26.3 8.68-26.34 25.88-.03 12.86 9.93 26.08 26.52 26.64 6.32.2 12.83-2.22 18.09-7.39 5.46-5.37 8.53-12.29 8.42-18.99-.24-14.53-12.12-26.09-26.54-26.15-.04 0-.12.01-.15.01"/><path fill="#fefffa" d="M57.82 60.61c-.69-.95-8.51-.77-15.9 6.45-7.13 6.97-7.9 13.54-6.53 13.92 1.55.43 3.44-6.53 9.97-12.38 6-5.36 13.84-6.1 12.46-7.99m30.25 25.87c-2.41.34.09 7.56-5.5 15.64-4.85 7.01-10.35 9.55-9.71 11.09.86 2.06 9.67-3.07 13.75-11.43 3.7-7.57 3.26-15.56 1.46-15.3"/><path fill="#fa912c" d="M55.85 77.02c-.52.77-.05 7.52.26 7.82.6.6 5.16-1.55 5.16-1.55l-.17 18.05s-3.35-.04-3.7.09c-.69.26-.6 7.22-.09 7.56s14.18.52 14.7-.17.39-6.78.15-7.06c-.43-.52-3.7-.31-3.7-.31s.28-26.58.19-27.43-1.03-1.38-2.15-1.12-10.32 3.62-10.65 4.12"/><path fill="#2e9df4" d="M25.51 3.72c-.63.58 23.46 43.48 23.46 43.48s4.04.52 13.06.6 13.49-.52 13.49-.52S56.79 4.15 55.67 3.72c-.55-.22-7.97-.3-15.22-.38-7.26-.09-14.34-.18-14.94.38"/></svg>