<svg viewBox="0 0 128 128"><path fill="#ac5810" d="M77.4 19.3C46.8 3.3 19 14.7 9 30.3a45 45 0 0 0-5.5 22c.2 15.2 8.6 32.1 26.8 49.3 22.4 21 45.2 19.2 52.5 17.4 9.1-2.2 15.3-4.1 14.3-12.6-.1-1.2-1-3.2-2.5-4-4.7-2.9-14.4-4.4-19-11.2-6.6-9.9 1.7-10.4 9.6-6.1 8.5 4.5 13.3 7.3 21.8 6.6 6.2-.6 15.3-4.4 16.5-14.9 1.1-9.5-12.8-39.9-46.1-57.5M89.8 71c-2.3 3.6-8 2.3-11.9-1s-4.2-9-1.8-11.2 7.2-1.7 11 1.7c3.8 3.3 4.6 7.7 2.7 10.5"/><path fill="#f2a259" d="M78.7 15.7C48.2-.4 20.3 12 10.3 27.7S4.6 72.5 31.6 98C54 119 77 117.2 84.1 115.4c9.2-2.2 15.6-6.6 11.6-12.1C92.9 99.4 83 96.5 77 87.6c-6.6-9.9 1.6-10.4 9.5-6.1C95 86 99.8 88.8 108.3 88c6.3-.5 15.7-5.4 15.4-15.1s-11.6-39.6-45-57.2m14 55C90 73.8 84 73 79.3 69s-6-10-3.2-13c2.8-3.1 8.9-2.3 13.5 1.8s6.1 10 3.3 13"/><path fill="#eee" d="M47.6 84.7c1.2-3 9.3-6.2 16.9-.9A12 12 0 0 1 68.9 94c-.8 15.7-26.6 4.2-21.3-9.3"/><path fill="#2686c6" d="M23.7 58c2.7-4.1 9-4.6 14.6-1 5 3.3 9.2 11.2 3 16.4-3.2 2.8-9 1-12.4-1.6-4.3-3.3-8-9.2-5.2-13.7"/><path fill="#ffee58" d="M57.7 21.4c.8-3.3 6.4-3.9 10.4-2.4 7 2.6 10 9.4 7.5 13.2-3.7 5.6-11.8 3.7-15 .5-5.2-5.4-3.6-8.5-3-11.3"/><path fill="#7cb342" d="M97.7 37.7c5.5 2.5 6.3 6.5 5.2 9.4-.7 1.8-2 4.3-4.8 4.5-4.6.4-5.3-3.4-8.6-4.5-2.8-.9-4-4.7-2.9-7.3 1-2.4 4-5.3 11.1-2"/><path fill="#b0b0b0" d="M67 97c-1.4 1.2-6.2 2.7-12.3-1-2-1.3-4-3.2-5.1-6a8 8 0 0 1-.3-5.3c1.1-2.7 2.8-3.2 2.8-3.2-1.7-.1-5 2.2-5.5 5.2-.2 1-1.4 6.8 6.4 12.1 6.7 4.6 16.6 4.2 16-5a7 7 0 0 1-2 3.2"/><path fill="#01579b" d="M44.3 65.7c-.2 3.6-4.4 5.5-6.7 5.5-6.6 0-12.6-4.2-13-11.5 0-1.3.6-3.3.6-3.3-.9.4-2 2.3-2.3 3.4C21.3 66 27.7 73.5 34.5 75c3.4.8 7.7-.4 9.3-3.4 1.1-2.2.9-4 .5-5.9"/><path fill="#df7f14" d="M67.3 32.7c-4.5-.5-7-3.4-7.6-4-1.8-2-2.9-3.8-2.2-6.4q.4-1.5 1.3-2.6c-.8.2-2 1.8-2.3 2.6-.4.9-1.8 4 1.2 8a15 15 0 0 0 9.7 5.9c3.4.4 5.8-.8 7.8-2.7 1.3-1.4 2-4.4 1.1-5.9.1 1.1-2 6-9 5.1"/><path fill="#558b2f" d="M104.2 44.9a9 9 0 0 0-1.7-3.2c.5 1 1.5 4-.6 6.8-1.1 1.4-4.3 3.2-8.1.1-1.1-1-2-1.8-4-2.5-5.2-2-3-7.2-1.2-8.8q-2.2 1.1-3.2 4c-.7 2.9 1.1 5.8 3.9 7.2 3.2 1.6 4.2 4.6 8.5 4.6h.7c3-.2 4.2-1.4 5-2.8q1.6-2.6.7-5.4"/><path fill="#f44336" d="M25.8 25.8c2.3-2.3 6.3-4.6 12-1.6 3.6 1.8 7.7 4 5.8 11.3-1.1 4.6-7.8 7-13.4 2-2.2-2-10.6-5.6-4.4-11.7"/><path fill="#c62828" d="M45 34.6a12 12 0 0 0-1.2-4.6c0 1 1 3.7-3.2 7.2a7 7 0 0 1-7 1c-1.4-.6-3.5-3-5-3.6-5.7-2.3-3.2-8.3-2.5-9.1a7 7 0 0 0-2.7 4.4c-.5 2.7 0 5.2 3.7 8.2 10.5 8.3 13.8 3.3 15 2 1.4-1.6 2.8-3.6 2.8-5.5"/><path fill="#fff" d="M65.7 19.4c-1.4-.7-5.6-.5-6.4 3-.5 2 1 4.2 2.5 4 1.6-.3.7-2.9 1.7-3.6 1.5-1.1 4.3-2.5 2.2-3.4m-31 5c-1.4-.9-6-1-7.4 2.6-.9 2.2.5 4.6 2 4.6 1.8 0 1-2.2 2.4-3.5 2-1.7 5-2.3 3-3.6m-.6 32c-1.4-.9-5.5-1.2-7.1 2-1.3 2.3.4 4.9 1.9 4.8 1.7 0 1.1-2.7 2.2-3.3 1.6-1 4.9-2.3 3-3.5m23.3 26.6c-1.5-.7-5.7-.5-6.5 3-.5 2.1 1 4.3 2.5 4 1.7-.3.8-2.8 1.8-3.6 1.5-1 4.2-2.4 2.2-3.4m37.7-45c-1.3-1-5.5-1.5-7 1.8-.8 2 .4 4.3 1.8 4.3 1.7 0 1.3-2.6 2.4-3.2 1.7-.8 4.6-1.6 2.8-3"/></svg>