<svg xmlns="http://www.w3.org/2000/svg" width="1em" height="1em" viewBox="0 0 128 128"><path fill="#F45125" d="m110.28 61.32l2.63 8.84s7.24-1.6 7.62 3.2c.38 4.8-6.77 8-6.77 8l2.26 10.63s7.9-6.4 8-15.61c0 0 .66-11.29-6.11-13.92c-4.24-1.61-7.63-1.14-7.63-1.14M68.71 94.99s-11.1-4.7-16.46 1.98c-.75.94-1.41 1.88-2.16 2.82c-.56.75-1.13 1.5-1.69 2.16c-.47.56-1.03 1.13-1.69 1.5c-.66.38-1.32.66-2.07.85c-.94.19-1.88.19-2.82.09c-1.32-.09-2.63-.38-3.95-.66c-.47-.09-.85-.19-1.22-.28c-.09 0-.19-.09-.28-.09s-.19-.09-.28-.09c-.38.09.19.75.38.94c.28.28.56.66.85.94c.85.75 1.69 1.5 2.73 1.98c1.32.66 2.73 1.03 4.14 1.13c.09 0 .38 0 .47.09c.19.19-.28.47-.47.56c-.28.19-.47.28-.75.38c-.85.38-1.79.56-2.63.75c-.85.19-1.69.28-2.45.28c-.47 0-.85.09-1.22.09c-.28 0-.56-.09-.85 0s.09.47.28.56c.38.19.75.47 1.13.66c1.13.56 2.26 1.03 3.39 1.32c1.5.38 3.1.56 4.61.38c1.32-.19 2.63-.56 3.86-1.03c6.77-3.1 6.21-9.59 12.42-10.16c4.61-.38 11.1 2.07 11.1 2.07zM19.79 38.28S7.66 40.26 4.55 51.07C.61 64.9 20.26 69.5 20.26 69.5l1.22-9.41s-13.07-1.32-12.32-6.3c.94-6.21 11.85-5.64 11.85-5.64zm.94 32.64s-1.88.56-4.61 2.54c-1.88 1.32-4.42 3.01-6.87 5.93c-1.22 1.41-2.16 3.1-2.82 4.89c-.47 1.22-.66 2.45-.66 3.76v.85c0 .09 0 .85.28.66c.09-.09.19-.38.28-.47c.19-.47.47-.85.75-1.22c.85-1.13 1.88-2.16 3.01-3.01c.38-.28.75-.47 1.13-.66c.28-.28.75-.66.94-.28c.09.19-.09.47-.19.66c-.09.28-.19.66-.19.94c-.38 1.5-.56 3.01-.75 4.51c-.09.85-.09 1.69 0 2.45c0 .38.09.85.09 1.22c0 .19.09.38.09.56c0 .19.19.47.38.19c.09-.09.09-.19.19-.38c.19-.28.28-.66.47-.94c.47-.85.94-1.69 1.5-2.63c.66-1.13 1.41-2.16 2.16-3.1c.85-1.13 1.88-2.26 2.92-3.2c1.13-1.03 2.35-2.07 3.67-2.92c.75-.47 1.6-.94 2.45-1.32z"/><path fill="#FCC21B" d="M116.4 79.29c-1.13-5.55-2.73-11.01-4.51-16.46c-1.5-4.61-3.1-9.31-5.83-13.36c-1.22-1.79-3.01-3.01-5.27-3.86c-4.33-1.69-9.97-1.98-13.73-1.98c-5.64 0-11.48 1.22-16.74 3.67c-1.88 5.64-7.05 19.94-14.86 26.34c.47 2.63 1.03 5.36 1.79 8c1.32 4.61 3.01 9.22 4.61 13.83c1.5 4.42 3.29 8.84 6.58 12.23c.85.94 1.88 1.69 2.82 2.45c2.26 1.88 4.99 3.01 7.71 3.95c2.54.85 5.17 1.5 7.81 2.07c4.7 1.03 11.48 2.82 16.08.66c2.54-1.13 4.61-2.92 6.3-5.08c1.79-2.26 3.2-4.8 4.42-7.43c1.88-3.95 3.86-8.37 4.14-12.89c.27-4.05-.48-8.19-1.32-12.14"/><path fill="#429ADF" d="M77.64 33.57c-.28-1.03-1.03-2.07-1.6-3.01C69.74 19.55 56 14.29 43.78 15.04c-3.76.28-9.31.85-13.54 2.73c-2.07.94-3.86 2.35-4.99 4.14c-2.54 4.23-3.76 8.94-5.08 13.64c-1.5 5.45-2.82 11-3.67 16.65c-.75 4.89-1.41 10.25-.09 15.14c1.03 3.86 3.29 9.22 5.74 12.32c2.73 3.39 6.58 7.34 10.72 8.84c.75.28 1.6.47 2.45.66c1.6.28 3.29.47 4.89.19c.94-.19 1.98-.28 2.92-.56c1.88-.47 3.67-1.13 5.46-1.79c7.52-3.01 13.64-7.43 17.68-14.58c1.69-3.1 3.1-6.4 4.42-9.69c.09-.19.19-.38.19-.56c1.98-5.46 3.29-11.19 4.61-16.84c.66-2.73 1.41-5.55 1.79-8.37c.27-1.04.64-2.26.36-3.39"/><path fill="#193D51" d="M23.09 40.53c1.69-3.1 5.74-5.55 9.31-5.08c.56.09 1.22.19 1.79.47c3.57 1.5 5.74 4.99 4.89 8.56c-.19.75-.66.85-1.22.38c-1.98-1.69-3.57-3.01-6.21-3.67c-2.16-.56-4.61-.28-6.68.28c-.47.09-1.22.56-1.69.38c-.67-.28-.38-.94-.19-1.32M62.21 64.9c-1.03 1.6-2.45 3.01-3.86 4.33c-.38.28-.66.66-1.03.94c-5.64 4.7-13.26 7.05-20.51 5.27c-1.98-.47-4.14-1.5-5.74-2.73c-1.22-.94-2.45-2.16-3.48-3.39c-1.88-2.26-3.29-4.89-4.23-7.62c-.47-1.41-.75-2.73-.94-4.23c0-.47-.66-5.46.85-4.8c.38.19.66.47.94.75c.28.38.47.75.75 1.03c.66.85 1.32 1.69 2.07 2.45c2.35 2.73 5.27 4.89 8.56 6.4c2.26 1.03 4.7 1.6 7.15 1.79c1.41.09 2.73.19 4.14.09c5.08-.28 10.25-1.79 14.86-3.76c.38-.19.85-.47 1.32-.47c1.6.09-.56 3.57-.85 3.95m5.37-13.74c0 .47-.19 1.13-.75 1.03c-.47-.09-.85-.94-1.13-1.22c-1.32-1.69-3.86-3.57-6.4-4.14c-3.01-.75-5.27.56-8.28.85c-.85.09-1.32-.28-.94-1.03c1.6-3.48 5.83-6.21 10.25-5.46c.75.09 1.41.28 2.07.56c3.86 1.61 5.46 5.84 5.18 9.41"/><path fill="#9B7515" d="M91.84 63.86c4.23 2.73 9.69 3.48 14.58 3.2c1.41-.09 2.26.09 1.88 1.69c-.75 3.29-3.86 5.17-6.87 5.83c-.75.19-1.5.19-2.26.19c-1.41-.09-2.82-.66-4.04-1.5c-2.63-1.79-4.61-4.89-5.17-8c-.28-1.6.29-2.44 1.88-1.41M65.22 80.79c-1.22-1.22-.56-1.79.76-2.54c4.51-2.35 9.03-5.93 11.38-10.63c.85-1.79 1.79-1.41 2.45.28c1.13 3.1 1.03 6.87-.38 9.88c-.66 1.41-1.6 2.63-2.82 3.57c-.66.47-1.32.75-2.07 1.03c-3.11.95-6.96.86-9.32-1.59M110 96.41c-.38 0-.94-.38-1.41-.66s-.94-.66-1.22-.85c-1.13-.56-2.45-1.13-3.67-1.5c-3.76-1.22-7.9-1.22-11.57 0c-2.63.85-5.17 2.45-7.24 4.33c-2.26 2.16-3.95 4.8-6.11 7.05c-.28.28-.56.56-.85.75c-.56.28-1.13-.09-1.32-.66c-.94-3.95 1.69-9.5 3.67-12.89c2.26-3.76 5.55-6.77 9.78-8c2.07-.66 4.33-.66 6.49-.38c6.3.94 12.79 5.93 14.02 11.66c-.01.49-.1 1.24-.57 1.15"/></svg>