<svg viewBox="0 0 128 128"><path fill="#f45125" d="m110.3 61.3 2.6 8.9s7.2-1.6 7.6 3.2-6.7 8-6.7 8L116 92s8-6.4 8-15.6c0 0 .7-11.3-6-14-4.3-1.6-7.7-1-7.7-1M68.7 95s-11-4.7-16.5 2l-2.1 2.8-1.7 2.1q-.7 1-1.7 1.5l-2 .9q-1.5.3-2.9 0-2 0-4-.6l-1.2-.3h-.2l-.3-.1c-.4 0 .2.7.4 1l.8.8q1.3 1.2 2.7 2 2.1 1 4.2 1.2h.5q0 .4-.5.6l-.8.4q-1.3.5-2.6.7l-2.4.3-1.3.1h-.8c-.3 0 0 .5.3.6l1.1.6q1.7.9 3.4 1.3 2.2.7 4.6.4 2-.3 3.9-1c6.7-3.1 6.2-9.6 12.4-10.2a32 32 0 0 1 11 2.1zm-49-56.7s-12 2-15.1 12.8c-4 13.8 15.7 18.4 15.7 18.4l1.2-9.4s-13-1.3-12.3-6.3C10 47.6 21 48.2 21 48.2zm1 32.6s-1.8.6-4.6 2.6q-3 1.8-6.8 5.9a16 16 0 0 0-2.9 4.9Q5.8 86 5.8 88v.9s0 .8.2.7l.3-.5q.3-.7.8-1.2 1.3-1.8 3-3l1.1-.7c.3-.3.8-.7 1-.3l-.2.7-.2 1L11 90v2.5l.1 1.2.1.6q0 .3.4.1l.2-.3.4-1 3.7-5.7q1.3-1.7 3-3.2a28 28 0 0 1 6-4.2z"/><path fill="#fcc21b" d="M116.4 79.3q-1.7-8.3-4.5-16.5a53 53 0 0 0-5.8-13.3q-1.9-2.6-5.3-3.9c-4.3-1.7-10-2-13.7-2a40 40 0 0 0-16.8 3.7c-1.9 5.6-7 20-14.8 26.3q.6 4 1.8 8 2 7 4.6 13.9c1.5 4.4 3.3 8.8 6.5 12.2l2.9 2.5q3.5 2.6 7.7 3.9 3.8 1.3 7.8 2c4.7 1.1 11.5 2.9 16 .7q3.9-1.7 6.4-5 2.6-3.5 4.4-7.5c1.9-4 3.8-8.3 4.1-12.9.3-4-.5-8.2-1.3-12.1"/><path fill="#429adf" d="M77.6 33.6c-.2-1-1-2.1-1.6-3-6.3-11-20-16.3-32.2-15.6a44 44 0 0 0-13.6 2.8q-3.1 1.5-5 4.1c-2.5 4.2-3.7 9-5 13.7a143 143 0 0 0-3.7 16.6 37 37 0 0 0 0 15.1c1 3.9 3.2 9.3 5.7 12.4 2.7 3.3 6.5 7.3 10.7 8.8l2.4.7q2.4.4 5 .1 1.4-.1 2.8-.5Q46 88 48.6 87c7.5-3 13.6-7.4 17.7-14.6a91 91 0 0 0 4.4-9.7l.2-.5q2.8-8.3 4.6-16.9 1.1-4 1.8-8.3.6-1.6.3-3.4"/><path fill="#193d51" d="M23 40.5c1.8-3 5.8-5.5 9.4-5q.9 0 1.8.4c3.6 1.5 5.7 5 4.9 8.6q-.4 1-1.2.4c-2-1.7-3.6-3-6.2-3.7-2.2-.6-4.7-.3-6.7.3-.5 0-1.3.5-1.7.4-.7-.3-.4-1-.2-1.4M62.2 65a24 24 0 0 1-3.9 4.3l-1 1c-5.6 4.7-13.2 7-20.5 5.2a16 16 0 0 1-5.7-2.7 23 23 0 0 1-8.7-15.2c0-.5-.6-5.5.9-4.8l1 .7.7 1 2 2.5a25 25 0 0 0 8.6 6.4q3.5 1.5 7.1 1.8 2.1.2 4.2 0a45 45 0 0 0 14.8-3.7q.6-.4 1.4-.4c1.6 0-.6 3.5-.9 3.9m5.4-13.7q0 .8-.8 1c-.4-.1-.8-1-1.1-1.2a12 12 0 0 0-6.4-4.2c-3-.7-5.3.6-8.3.9q-1.3 0-1-1a10 10 0 0 1 12.4-5c3.9 1.7 5.5 5.9 5.2 9.5"/><path fill="#9b7515" d="M91.8 63.9c4.3 2.7 9.7 3.4 14.6 3.2 1.4-.1 2.3 0 1.9 1.7-.7 3.2-3.9 5.1-6.9 5.8q-1.1.3-2.2.2-2.2-.2-4-1.5a13 13 0 0 1-5.2-8c-.3-1.6.2-2.5 1.8-1.4M65.2 80.8c-1.2-1.2-.5-1.8.8-2.5 4.5-2.4 9-6 11.4-10.7.8-1.8 1.7-1.4 2.4.3 1.1 3.1 1 6.9-.4 9.9a10 10 0 0 1-2.8 3.6l-2 1c-3.2 1-7 .8-9.4-1.6M110 96.4q-.7-.1-1.4-.7l-1.2-.8-3.7-1.5a19 19 0 0 0-18.8 4.3c-2.3 2.2-4 4.8-6.1 7l-.9.8q-.9.4-1.3-.6c-1-4 1.7-9.5 3.7-13 2.2-3.7 5.5-6.7 9.8-8q3.1-.8 6.5-.3c6.3 1 12.7 6 14 11.7 0 .5-.1 1.2-.6 1.1"/></svg>