<svg xmlns="http://www.w3.org/2000/svg" width="1em" height="1em" viewBox="0 0 128 128"><path fill="#f45125" d="m110.28 61.32 2.63 8.84s7.24-1.6 7.62 3.2-6.77 8-6.77 8l2.26 10.63s7.9-6.4 8-15.61c0 0 .66-11.29-6.11-13.92-4.24-1.61-7.63-1.14-7.63-1.14M68.71 94.99s-11.1-4.7-16.46 1.98c-.75.94-1.41 1.88-2.16 2.82-.56.75-1.13 1.5-1.69 2.16-.47.56-1.03 1.13-1.69 1.5-.66.38-1.32.66-2.07.85-.94.19-1.88.19-2.82.09-1.32-.09-2.63-.38-3.95-.66-.47-.09-.85-.19-1.22-.28-.09 0-.19-.09-.28-.09s-.19-.09-.28-.09c-.38.09.19.75.38.94.28.28.56.66.85.94.85.75 1.69 1.5 2.73 1.98 1.32.66 2.73 1.03 4.14 1.13.09 0 .38 0 .47.09.19.19-.28.47-.47.56-.28.19-.47.28-.75.38-.85.38-1.79.56-2.63.75-.85.19-1.69.28-2.45.28-.47 0-.85.09-1.22.09-.28 0-.56-.09-.85 0s.09.47.28.56c.38.19.75.47 1.13.66 1.13.56 2.26 1.03 3.39 1.32 1.5.38 3.1.56 4.61.38 1.32-.19 2.63-.56 3.86-1.03 6.77-3.1 6.21-9.59 12.42-10.16 4.61-.38 11.1 2.07 11.1 2.07zM19.79 38.28S7.66 40.26 4.55 51.07C.61 64.9 20.26 69.5 20.26 69.5l1.22-9.41s-13.07-1.32-12.32-6.3c.94-6.21 11.85-5.64 11.85-5.64zm.94 32.64s-1.88.56-4.61 2.54c-1.88 1.32-4.42 3.01-6.87 5.93-1.22 1.41-2.16 3.1-2.82 4.89-.47 1.22-.66 2.45-.66 3.76v.85c0 .09 0 .85.28.66.09-.09.19-.38.28-.47.19-.47.47-.85.75-1.22.85-1.13 1.88-2.16 3.01-3.01.38-.28.75-.47 1.13-.66.28-.28.75-.66.94-.28.09.19-.09.47-.19.66-.09.28-.19.66-.19.94-.38 1.5-.56 3.01-.75 4.51-.09.85-.09 1.69 0 2.45 0 .38.09.85.09 1.22 0 .19.09.38.09.56 0 .19.19.47.38.19.09-.09.09-.19.19-.38.19-.28.28-.66.47-.94.47-.85.94-1.69 1.5-2.63.66-1.13 1.41-2.16 2.16-3.1.85-1.13 1.88-2.26 2.92-3.2 1.13-1.03 2.35-2.07 3.67-2.92.75-.47 1.6-.94 2.45-1.32z"/><path fill="#fcc21b" d="M116.4 79.29c-1.13-5.55-2.73-11.01-4.51-16.46-1.5-4.61-3.1-9.31-5.83-13.36-1.22-1.79-3.01-3.01-5.27-3.86-4.33-1.69-9.97-1.98-13.73-1.98-5.64 0-11.48 1.22-16.74 3.67-1.88 5.64-7.05 19.94-14.86 26.34.47 2.63 1.03 5.36 1.79 8 1.32 4.61 3.01 9.22 4.61 13.83 1.5 4.42 3.29 8.84 6.58 12.23.85.94 1.88 1.69 2.82 2.45 2.26 1.88 4.99 3.01 7.71 3.95 2.54.85 5.17 1.5 7.81 2.07 4.7 1.03 11.48 2.82 16.08.66 2.54-1.13 4.61-2.92 6.3-5.08 1.79-2.26 3.2-4.8 4.42-7.43 1.88-3.95 3.86-8.37 4.14-12.89.27-4.05-.48-8.19-1.32-12.14"/><path fill="#429adf" d="M77.64 33.57c-.28-1.03-1.03-2.07-1.6-3.01C69.74 19.55 56 14.29 43.78 15.04c-3.76.28-9.31.85-13.54 2.73-2.07.94-3.86 2.35-4.99 4.14-2.54 4.23-3.76 8.94-5.08 13.64-1.5 5.45-2.82 11-3.67 16.65-.75 4.89-1.41 10.25-.09 15.14 1.03 3.86 3.29 9.22 5.74 12.32 2.73 3.39 6.58 7.34 10.72 8.84.75.28 1.6.47 2.45.66 1.6.28 3.29.47 4.89.19.94-.19 1.98-.28 2.92-.56 1.88-.47 3.67-1.13 5.46-1.79 7.52-3.01 13.64-7.43 17.68-14.58 1.69-3.1 3.1-6.4 4.42-9.69.09-.19.19-.38.19-.56 1.98-5.46 3.29-11.19 4.61-16.84.66-2.73 1.41-5.55 1.79-8.37.27-1.04.64-2.26.36-3.39"/><path fill="#193d51" d="M23.09 40.53c1.69-3.1 5.74-5.55 9.31-5.08.56.09 1.22.19 1.79.47 3.57 1.5 5.74 4.99 4.89 8.56-.19.75-.66.85-1.22.38-1.98-1.69-3.57-3.01-6.21-3.67-2.16-.56-4.61-.28-6.68.28-.47.09-1.22.56-1.69.38-.67-.28-.38-.94-.19-1.32M62.21 64.9c-1.03 1.6-2.45 3.01-3.86 4.33-.38.28-.66.66-1.03.94-5.64 4.7-13.26 7.05-20.51 5.27-1.98-.47-4.14-1.5-5.74-2.73-1.22-.94-2.45-2.16-3.48-3.39-1.88-2.26-3.29-4.89-4.23-7.62-.47-1.41-.75-2.73-.94-4.23 0-.47-.66-5.46.85-4.8.38.19.66.47.94.75.28.38.47.75.75 1.03.66.85 1.32 1.69 2.07 2.45 2.35 2.73 5.27 4.89 8.56 6.4 2.26 1.03 4.7 1.6 7.15 1.79 1.41.09 2.73.19 4.14.09 5.08-.28 10.25-1.79 14.86-3.76.38-.19.85-.47 1.32-.47 1.6.09-.56 3.57-.85 3.95m5.37-13.74c0 .47-.19 1.13-.75 1.03-.47-.09-.85-.94-1.13-1.22-1.32-1.69-3.86-3.57-6.4-4.14-3.01-.75-5.27.56-8.28.85-.85.09-1.32-.28-.94-1.03 1.6-3.48 5.83-6.21 10.25-5.46.75.09 1.41.28 2.07.56 3.86 1.61 5.46 5.84 5.18 9.41"/><path fill="#9b7515" d="M91.84 63.86c4.23 2.73 9.69 3.48 14.58 3.2 1.41-.09 2.26.09 1.88 1.69-.75 3.29-3.86 5.17-6.87 5.83-.75.19-1.5.19-2.26.19-1.41-.09-2.82-.66-4.04-1.5-2.63-1.79-4.61-4.89-5.17-8-.28-1.6.29-2.44 1.88-1.41M65.22 80.79c-1.22-1.22-.56-1.79.76-2.54 4.51-2.35 9.03-5.93 11.38-10.63.85-1.79 1.79-1.41 2.45.28 1.13 3.1 1.03 6.87-.38 9.88-.66 1.41-1.6 2.63-2.82 3.57-.66.47-1.32.75-2.07 1.03-3.11.95-6.96.86-9.32-1.59M110 96.41c-.38 0-.94-.38-1.41-.66s-.94-.66-1.22-.85c-1.13-.56-2.45-1.13-3.67-1.5-3.76-1.22-7.9-1.22-11.57 0-2.63.85-5.17 2.45-7.24 4.33-2.26 2.16-3.95 4.8-6.11 7.05-.28.28-.56.56-.85.75-.56.28-1.13-.09-1.32-.66-.94-3.95 1.69-9.5 3.67-12.89 2.26-3.76 5.55-6.77 9.78-8 2.07-.66 4.33-.66 6.49-.38 6.3.94 12.79 5.93 14.02 11.66-.01.49-.1 1.24-.57 1.15"/></svg>