<svg xmlns="http://www.w3.org/2000/svg" width="1em" height="1em" viewBox="0 0 128 128"><path fill="#F2A600" d="M122.66 124H5.34c-.74 0-1.34-.6-1.34-1.34V5.34C4 4.6 4.6 4 5.34 4h117.32c.74 0 1.34.6 1.34 1.34v117.32c0 .74-.6 1.34-1.34 1.34z"/><path fill="#FFF" d="M21.26 21.26h85.47v85.47H21.26z"/><path fill="#D1762C" d="M122.66 4H5.34c-.37 0-.7.15-.95.39l16.87 16.87h85.47L123.6 4.39c-.24-.24-.57-.39-.94-.39z" opacity=".5"/><path fill="#DE7340" d="M21.26 21.26L4.39 4.39c-.24.25-.39.58-.39.95v117.32c0 .37.15.71.39.95l16.87-16.87V21.26z"/><path fill="#FFCD40" d="M114.5 13.5v101h-101v-101h101zm6-6H7.5v113h113V7.5z"/><path fill="#A65F3E" d="M13.5 114.5v-101l-6-6v113z"/><path fill="#D1762C" d="m114.43 13.5l6-6H7.5l6 6z"/><path fill="#D1762C" d="M116.5 116.5h-105v-105h105v105zm-103-2h101v-101h-101v101z"/><path fill="#824A34" d="M13.5 114.5v-101l-2-2v105z"/><path fill="#A65F3E" d="m114.5 13.5l2-2h-105l2 2z"/><linearGradient id="notoFramedPicture0" x1="58.235" x2="66.597" y1="84.56" y2="54.739" gradientUnits="userSpaceOnUse"><stop offset=".117" stop-color="#AFE4FE"/><stop offset=".608" stop-color="#84C9ED"/><stop offset="1" stop-color="#5FB2DE"/></linearGradient><path fill="url(#notoFramedPicture0)" d="M27.5 27.5h73v73h-73z"/><path fill="#1B5E20" d="M100.5 62.62c-2.2.63-4.13 2.13-5.3 4.1c-.18.31-.34.66-.66.85c-1.03.38-2.21.46-3.01 1.36c-.34-2.12-2.91-3.3-4.88-2.64c-1.67.42-2.5 2.18-2.65 3.78c-1.76-.52-3.7.83-3.82 2.66c-.02.17-.02.36-.11.5c-.44.45-1.33.4-1.87.94c-1.07.84-1.57 2.29-2.71 3.03c6.44-3.63 14.23-3.12 21.25-4.88c1.39-.34 2.94-.77 3.76-1.99v-7.71z"/><path fill="#689F38" d="M100.5 94.59s-16.59.86-34.7-4.72C47.69 84.3 39.38 78.6 39.38 78.6s12.11 2.35 28.28-.29c10.59-1.73 18.44-7.72 32.82-8l.02 24.28z"/><path fill="#2E7D32" d="M57.5 79.7c.14-.19.31-.37.37-.6c.07-.28-.04-.57-.12-.84c-.22-.79-.15-1.66.18-2.42c.17-.4.42-.76.54-1.18c.21-.72.01-1.49-.03-2.24c-.06-1.02.17-2.05.65-2.95c.07-.13.15-.26.29-.33c.38-.17.7.36.74.77c.12 1.04-.1 2.11.12 3.14c.31 1.44 1.47 2.69 1.39 4.17c-.03.53-.22 1.06-.12 1.57c.08.39.33.73.54 1.07c.54.88.87 1.87.97 2.9c.12 1.23-.25 2.7-1.4 3.13c-1.25.48-2.53-.54-3.51-1.21c-.9-.62-1.33-1.9-1.3-2.95c.02-.72.25-1.45.69-2.03z"/><path fill="#FFF" d="m86.82 56.92l-11.92.87c-1.97.14-3.97.29-5.91-.09c-.92-.18-1.82-.48-2.76-.53c-1.71-.09-3.34.64-5 1.06c-1.82.46-3.73.55-5.58.26c-1.29-.2-2.61-.62-3.55-1.53c-.47-.45-.83-1.02-1.33-1.45c-.61-.54-1.4-.84-2.08-1.28c-2.88-1.84-3.56-6.35-1.35-8.96c.36-.42.78-.8 1.1-1.26c.62-.88.82-1.98 1.19-2.99c1.17-3.25 4.22-5.72 7.63-6.28c3.41-.56 7.05.78 9.35 3.36c.75.84 1.42 1.83 2.46 2.25c.61.24 1.29.26 1.94.34c3.71.47 6.82 3.32 8.4 6.71c.7 1.51 1.19 3.18 2.36 4.35c.48.48 1.06.86 1.64 1.22c2.6 1.62 5.32 3.04 8.13 4.25c-.72-.05-1.43-.09-2.15-.14"/><path fill="#C9E3E6" d="M74.9 57.79c-1.97.14-3.97.29-5.91-.09c-.92-.18-1.82-.48-2.76-.53c-1.71-.09-3.34.64-5 1.06c-1.82.46-3.73.55-5.58.26c-1.29-.2-2.61-.62-3.55-1.53c-.47-.45-.83-1.02-1.33-1.45c-.61-.54-1.4-.84-2.08-1.28c-1.04-.67-1.63-1.6-2.17-2.68c-.13-.25-.13-.48-.15-.76c.87 1.34 3.22 2.78 4.16 1.73c.31-.92-.79-2.52-1.16-3.79c-.7-2.4-.77-4.89.09-7.24c.1-.28.35-1.19.69-1.67c.26 1.95.94 4.91 2.33 6.3c1.39 1.39 3.71 1.98 5.38.94c1.05-.66 1.67-1.81 2.43-2.79c2.24-2.87 6.15-4.34 9.73-3.65c-1.85 1.08-3.65 2.39-4.74 4.23s-1.35 4.31-.13 6.08c.98 1.42 2.76 2.15 4.48 2.12c.95-.02 2.02-.35 2.41-1.22c.22-.5.17-1.1.42-1.59c.47-.94 1.85-1.06 2.78-.58c.94.49 1.58 1.38 2.3 2.14c2.7 2.84 6.69 3.98 10.47 5c-.11-.03-.34.06-.46.08l-.54.09c-.28.05-.56.12-.85.08c-.6-.09-1.21.01-1.81.05c-1.41.1-2.83.21-4.24.31c-1.73.12-3.47.25-5.21.38z"/><path fill="#8BC34A" d="M100.5 86.03c-35.07 8.17-51.74-11.9-73-14.16v28.63h73V86.03z"/><radialGradient id="notoFramedPicture1" cx="79.394" cy="86.805" r="35.962" gradientTransform="matrix(.9882 .1498 -.0762 .5025 7.543 31.283)" gradientUnits="userSpaceOnUse"><stop offset="0" stop-color="#D4E157"/><stop offset="1" stop-color="#D4E157" stop-opacity="0"/></radialGradient><path fill="url(#notoFramedPicture1)" d="M100.5 86.03c-35.07 8.17-51.74-11.9-73-14.16v28.63h73V86.03z"/><path fill="#2E7D32" d="M36.32 77.15c-1.04.31-1.9-.49-2.77-.91c-2.31-1.71-2.31-4.83-2.13-7.44c-.05-.62.39-1.64 1.12-1.2c-.3-1.5-.33-3.05-.11-4.56c.15-1.17.56-1.98 1.51-2.58c.06-.12.02-.26-.01-.39c-.44-1.72.36-3.5.44-5.28c.07-1.39-.3-2.83.18-4.13c.2-.58.93-.9 1.06-.17c.7 2.74 1.91 5.47 1.68 8.35c-.08.39.07.71.39.94c2.04 1.82 1.13 4.99 1.46 7.46c.96 2.27.94 4.81-.2 7.02c-.52 1.22-1.36 2.35-2.62 2.89z"/><path fill="#689F38" d="M50.15 78.67c-4.42-1.06-4.6.11-6.06-.23c-5.02-1.51-1.93-6.4-.48-7.59c-.61-2.33.98-3.28 2.86-5.58c.3-4.71 4.82-3.34 4.24.79c1.2 1.56 1.64 3.27 1.25 5.22c.12 1.16 1.25 1.92 1.78 2.96c1.03 2.03-.7 5.12-3.59 4.43z"/><path fill="#2E7D32" d="M48.47 71.01c-.53 1.1-2.05 1.33-3.24 1.03c-.55-.14-1.13-.44-1.66-.24c-1.24.46-1.63 1.46-1.67 2.46c0 1.34 1.34 2.39 2.68 2.45c1.34.06 2.6-.64 3.61-1.5c.3 1.8 3.09 1.75 4.31.72c1.16-.98.66-2.55.66-2.55c1.39 1.55 1.32 2.77 1.16 4.06c-.15 1.24-1.22 2.62-.58 3.58c-2.22.57-3.32-1.34-5.09-2.13c-.65-.18-1.33.01-1.99.14c-2.72.71-5.77-.89-5.79-3.9c-.02-1.45.78-2.88 2-3.67c.14-.09.29-.18.35-.34c.06-.17 0-.35-.06-.52c-1.24-3.32 2-3.29 3.4-5.44c.56.62 1.48.88 2.28.65c-.63 1.46-2.4.76-3.52 1.35c-2.08 1.71 1.34 4.11 3.15 3.85z"/><path fill="#1B5E20" d="M33.5 64.3c.72 1.31 2.62 2.37 2.19 4.08c-.65-.43-1.44-.98-2.23-.95c-.66.88-.4 2.42.12 3.33c2.42 3.24 5.03-1.65 5.23-3.94c2.94 3.44.25 12.98-5.07 9.66c-.71-.57-2.78-2.86-2.66-6.68c.07-2.32 1-2.47 1.54-2.4c-.79-1.22-.94-2.95-.63-4.2c.27-1.07.74-1.93 1.46-2.63c.73-.72.2-1.36.22-2.46c.02-1.6.44-2.52.77-3.43c.12 1.7.75 3.45.48 5.14c-.16.72-.96.71-1.32 1.23c-.59.97-.64 2.25-.1 3.25z"/><radialGradient id="notoFramedPicture2" cx="37.606" cy="74.676" r="4.908" gradientTransform="matrix(.9323 .2659 -.5718 1.0931 45.255 -14.778)" gradientUnits="userSpaceOnUse"><stop offset=".441" stop-color="#A06841"/><stop offset=".923" stop-color="#A06841" stop-opacity=".138"/><stop offset="1" stop-color="#A06841" stop-opacity="0"/></radialGradient><path fill="url(#notoFramedPicture2)" d="M37.06 82.18c.38 1.23-4.12.33-3.49-1.25c.44-1.1.64-2.25.86-3.38c.22-1.79-.31-3.39-1.14-4.92c.19-.17.41-.32.64-.43c1.8 3.34 1.86 2.16 3.34-.45c.28-.03.56-.01.83.06c-1.79 2.84-2.22 7.09-1.04 10.37z"/></svg>