<svg viewBox="0 0 128 128"><path fill="#f2a600" d="M122.7 124H5.3q-1.2-.1-1.3-1.3V5.3Q4.1 4.1 5.3 4h117.4q1.2.1 1.3 1.3v117.4q-.1 1.2-1.3 1.3"/><path fill="#fff" d="M21.3 21.3h85.4v85.4H21.3z"/><path fill="#d1762c" d="M122.7 4H5.3q-.5 0-1 .4l17 16.9h85.4l16.9-17q-.3-.2-1-.3" opacity=".5"/><path fill="#de7340" d="m21.3 21.3-17-17-.3 1v117.4q0 .5.4 1l16.9-17z"/><path fill="#ffcd40" d="M114.5 13.5v101h-101v-101zm6-6H7.5v113h113z"/><path fill="#a65f3e" d="M13.5 114.5v-101l-6-6v113z"/><path fill="#d1762c" d="m114.4 13.5 6-6H7.5l6 6z"/><path fill="#d1762c" d="M116.5 116.5h-105v-105h105zm-103-2h101v-101h-101z"/><path fill="#824a34" d="M13.5 114.5v-101l-2-2v105z"/><path fill="#a65f3e" d="m114.5 13.5 2-2h-105l2 2z"/><linearGradient id="a" x1="58.2" x2="66.6" y1="84.6" y2="54.7" gradientUnits="userSpaceOnUse"><stop offset=".1" stop-color="#afe4fe"/><stop offset=".6" stop-color="#84c9ed"/><stop offset="1" stop-color="#5fb2de"/></linearGradient><path fill="url(#a)" d="M27.5 27.5h73v73h-73z"/><path fill="#1b5e20" d="M100.5 62.6a9 9 0 0 0-5.3 4.1q-.2.5-.7.9c-1 .3-2.2.4-3 1.3-.3-2-2.9-3.3-4.8-2.6-1.7.4-2.5 2.2-2.7 3.8a3 3 0 0 0-3.8 2.6l-.1.5c-.5.5-1.4.4-1.9 1-1 .8-1.6 2.3-2.7 3 6.4-3.6 14.2-3.1 21.2-4.9 1.4-.3 3-.8 3.8-2z"/><path fill="#689f38" d="M100.5 94.6s-16.6.9-34.7-4.7-26.4-11.3-26.4-11.3 12 2.4 28.3-.3c10.5-1.7 18.4-7.7 32.8-8z"/><path fill="#2e7d32" d="m57.5 79.7.4-.6q0-.5-.2-.8-.3-1.2.2-2.5l.6-1.1v-2.3q-.1-1.5.6-3l.3-.3q.7 0 .7.8l.1 3.1c.3 1.5 1.5 2.7 1.4 4.2q-.2.7 0 1.6 0 .6.4 1 1 1.5 1 3c.1 1.2-.2 2.7-1.4 3-1.2.6-2.5-.5-3.5-1.1s-1.3-2-1.3-3q0-1 .7-2"/><path fill="#fff" d="m86.8 57-11.9.8q-3 .3-6-.1-1.2-.4-2.7-.5c-1.7-.1-3.3.6-5 1a14 14 0 0 1-5.6.3 6 6 0 0 1-3.5-1.5l-1.3-1.5-2.1-1.3a6.3 6.3 0 0 1-1.4-9q.6-.5 1.1-1.2.9-1.4 1.2-3c1.2-3.2 4.2-5.7 7.7-6.3s7 .8 9.3 3.4q1 1.4 2.5 2.2 1 .4 2 .4c3.6.5 6.7 3.3 8.3 6.7.7 1.5 1.2 3.2 2.4 4.3q.7.8 1.6 1.3a61 61 0 0 0 8.1 4.2l-2.1-.1"/><path fill="#c9e3e6" d="M74.9 57.8q-3 .3-6-.1-1.2-.4-2.7-.5c-1.7-.1-3.3.6-5 1a14 14 0 0 1-5.5.3A6 6 0 0 1 52 57l-1.3-1.5-2.1-1.3q-1.4-1-2.2-2.7l-.1-.7c.8 1.3 3.2 2.8 4.1 1.7.3-.9-.8-2.5-1.1-3.8q-1.1-3.7 0-7.2c.2-.3.4-1.2.8-1.7.2 2 .9 5 2.3 6.3s3.7 2 5.4 1q1.4-1.2 2.4-2.8a10 10 0 0 1 9.7-3.7q-2.9 1.6-4.7 4.2c-1.8 2.6-1.4 4.4-.1 6.1q1.7 2.2 4.4 2.1 1.6 0 2.4-1.2c.3-.5.2-1 .5-1.6.4-.9 1.8-1 2.7-.5q1.4.7 2.3 2.1c2.7 2.8 6.7 4 10.5 5h-.4l-.6.2h-.8l-1.8.1-4.3.3z"/><path fill="#8bc34a" d="M100.5 86c-35 8.2-51.7-11.9-73-14.1v28.6h73z"/><radialGradient id="b" cx="79.4" cy="86.8" r="36" gradientTransform="matrix(.9882 .1498 -.0762 .5025 7.543 31.283)" gradientUnits="userSpaceOnUse"><stop offset="0" stop-color="#d4e157"/><stop offset="1" stop-color="#d4e157" stop-opacity="0"/></radialGradient><path fill="url(#b)" d="M100.5 86c-35 8.2-51.7-11.9-73-14.1v28.6h73z"/><path fill="#2e7d32" d="M36.3 77.2c-1 .3-1.9-.5-2.7-1-2.4-1.7-2.4-4.8-2.2-7.4 0-.6.4-1.6 1.1-1.2q-.4-2.2 0-4.6 0-1.7 1.4-2.5v-.4c-.4-1.7.4-3.5.5-5.3 0-1.4-.3-2.8.1-4.1.2-.6 1-1 1.1-.2.7 2.7 2 5.5 1.7 8.3q-.1.6.4 1c2 1.8 1.1 5 1.4 7.4q1.5 3.6-.2 7a5 5 0 0 1-2.6 3"/><path fill="#689f38" d="M50.2 78.7c-4.5-1-4.7 0-6.1-.3-5-1.5-2-6.4-.5-7.6-.6-2.3 1-3.2 2.9-5.5.3-4.7 4.8-3.4 4.2.8a6 6 0 0 1 1.3 5.2c0 1.1 1.2 1.9 1.7 3 1 2-.7 5-3.6 4.4"/><path fill="#2e7d32" d="M48.5 71c-.6 1.1-2 1.3-3.3 1q-.8-.3-1.6-.2-1.8.9-1.7 2.5c0 1.3 1.3 2.4 2.7 2.4s2.6-.6 3.6-1.5c.3 1.8 3 1.8 4.3.7 1.2-1 .7-2.5.7-2.5 1.3 1.5 1.3 2.8 1.1 4s-1.2 2.7-.6 3.6c-2.2.6-3.3-1.3-5-2.1q-1-.2-2 .1c-2.8.7-5.8-.9-5.8-3.9q0-2.2 2-3.6.2-.1.3-.4v-.5c-1.3-3.3 2-3.3 3.4-5.4q.9.9 2.2.6c-.6 1.5-2.4.8-3.5 1.4-2 1.7 1.4 4 3.2 3.8"/><path fill="#1b5e20" d="M33.5 64.3c.7 1.3 2.6 2.4 2.2 4q-1.1-.7-2.2-.9c-.7 1-.4 2.4 0 3.4 2.5 3.2 5.1-1.7 5.3-4 3 3.5.3 13-5 9.7a9 9 0 0 1-2.7-6.7c0-2.3 1-2.5 1.5-2.4a6 6 0 0 1 .9-6.8c.7-.8.2-1.4.2-2.5q.1-2.2.7-3.4c.2 1.7.8 3.4.5 5.1-.1.7-1 .7-1.3 1.2q-.9 1.7-.1 3.3"/><radialGradient id="c" cx="37.6" cy="74.7" r="4.9" gradientTransform="matrix(.9323 .2659 -.5718 1.0931 45.255 -14.778)" gradientUnits="userSpaceOnUse"><stop offset=".4" stop-color="#a06841"/><stop offset=".9" stop-color="#a06841" stop-opacity=".1"/><stop offset="1" stop-color="#a06841" stop-opacity="0"/></radialGradient><path fill="url(#c)" d="M37 82.2c.4 1.2-4 .3-3.4-1.3q.6-1.6.8-3.3a8 8 0 0 0-1.1-5l.6-.4c1.8 3.3 1.9 2.2 3.4-.4h.8a13 13 0 0 0-1 10.4"/></svg>