<svg xmlns="http://www.w3.org/2000/svg" width="1em" height="1em" viewBox="0 0 128 128"><path fill="#403D3E" d="M111.6 103.54c10.26-12.13 19.02-33.92 9.97-58.94c-4.41-12.18-9.39-18.98-15.19-23.3c-3.53-2.63-17.63-9.25-36.3-6.36c-13.65 2.12-31.88 10.73-43.73 24.74C14.86 53.29 5.99 64.04 5.58 74.48c-.53 13.43 9.59 24.97 10.82 26.84c2.19 3.32 17.13 22.3 45.2 23.27c24.78.85 40.92-10.31 50-21.05"/><path fill="#5E6367" d="M28.43 13.9C15.5 23.13.97 42.01 3.58 68.49c1.27 12.89 4.44 20.71 8.99 26.32c2.77 3.42 14.79 13.59 33.62 15.09c18.98 1.51 33.41-2.74 48.48-13.22c30.63-21.31 26.12-53.53 24.81-57.28S108.36 13.57 81.39 5.72c-23.8-6.92-41.52 0-52.96 8.18"/><path fill="#FFF" d="M51.15 15.69c-14.21-.51-27.79 10.62-29.1 24.36c-1.31 13.73 7.19 24.19 20.43 26.32c13.24 2.12 28.55-5.92 31.63-22.76c3.18-17.35-9.39-27.43-22.96-27.92"/><path fill="#303030" d="M55.54 39.21s3.42-.71 4.1-5.75c.67-4.96-1.79-9.19-7.53-10.71c-6.24-1.65-10.47 1.78-11.57 5.39c-1.53 5.02.73 7.41.73 7.41s-6.12 1.47-6.61 8.69c-.46 6.81 4.19 10.47 8.86 11.59c5.77 1.39 12.31-.19 13.91-7.55c1.33-6.06-1.89-9.07-1.89-9.07"/><path fill="#FFF" d="M45.92 30.03c-.55 2.07.55 4.07 2.71 4.62c2.33.59 4.45-.18 5.02-2.56c.5-2.11-.5-3.97-2.96-4.57c-2.02-.5-4.17.25-4.77 2.51m1.76 10.29c-2.62-.81-6.08.2-6.63 3.72c-.55 3.52 1.56 5.32 4.32 5.82c2.76.5 5.37-.95 5.88-3.77c.5-2.81-.96-4.97-3.57-5.77"/></svg>