<svg viewBox="0 0 128 128"><path fill="#403d3e" d="M111.6 103.5c10.3-12 19-33.9 10-58.9a47 47 0 0 0-15.2-23.3A54 54 0 0 0 70 14.9a77 77 0 0 0-43.7 24.8C14.9 53.3 6 64 5.6 74.5c-.6 13.4 9.6 25 10.8 26.8a59 59 0 0 0 45.2 23.3c24.8.8 41-10.3 50-21"/><path fill="#5e6367" d="M28.4 13.9A60 60 0 0 0 3.6 68.5a47 47 0 0 0 9 26.3A52 52 0 0 0 46.2 110c19 1.5 33.4-2.7 48.5-13.2 30.6-21.3 26-53.5 24.8-57.3S108.4 13.6 81.4 5.7a59 59 0 0 0-53 8.2"/><path fill="#fff" d="M51.2 15.7C36.8 15.2 23.3 26.3 22 40a23.4 23.4 0 0 0 20.5 26.3c13.2 2 28.5-6 31.6-22.8 3.2-17.3-9.4-27.4-23-28"/><path fill="#303030" d="M55.5 39.2s3.5-.7 4.1-5.7c.7-5-1.8-9.2-7.5-10.7C46 21 41.6 24.5 40.5 28c-1.5 5 .8 7.5.8 7.5S35 37 34.7 44.2c-.5 6.8 4.1 10.5 8.8 11.6 5.8 1.4 12.3-.2 14-7.5 1.3-6-2-9-2-9"/><path fill="#fff" d="M46 30c-.6 2.1.5 4.1 2.6 4.7 2.4.5 4.5-.2 5-2.6.6-2.1-.4-4-3-4.6-2-.5-4 .3-4.7 2.5m1.8 10.3c-2.6-.8-6.1.2-6.7 3.7s1.6 5.4 4.4 5.9 5.3-1 5.8-3.8-1-5-3.5-5.8"/></svg>