<svg viewBox="0 0 128 128"><path fill="#82aec0" d="m21.5 48.4-2.2-5.8L111.7 14c1.1-.4 2.3.2 2.7 1.3s-.1 2.4-1.2 2.8z"/><path fill="#de7340" d="M115.6 46.1c-7.6-5.2-10.8-5.3-13.4-5.3H25.8c-2.6 0-5.8.1-13.4 5.3S4 54.6 4 61.8v42.5c0 5 4 9.1 9.1 9.1H115c5 0 9.1-4 9.1-9.1V61.8c0-7.2-.8-10.5-8.4-15.7"/><path fill="#ffab00" d="M115.3 51.3H12.8c-4.9 0-8.8 4-8.8 8.8v55.2c0 4.8 4 8.7 8.8 8.7h102.5c4.8 0 8.7-4 8.7-8.7V60c0-4.9-4-8.8-8.7-8.8"/><path fill="#212121" d="M112.4 88.2h-52a3 3 0 0 1-3-3V68.8a3 3 0 0 1 3-3h52a3 3 0 0 1 3 3v16.4a3 3 0 0 1-3 3"/><g fill="#de7340"><circle cx="72.7" cy="108.2" r="9.2"/><circle cx="104.5" cy="108.2" r="9.2"/></g><circle cx="70.5" cy="106.4" r="9.2" fill="#fcebcd"/><circle cx="102.4" cy="106.4" r="9.2" fill="#fcebcd"/><path fill="#78909c" d="M100 106.2q-.6 0-1-.3l-4.8-3.7.9-1.4 1-1.2 4.9 3.6a1.7 1.7 0 0 1-1 3"/><path fill="none" stroke="#82aec0" stroke-miterlimit="10" stroke-width="2" d="M57.5 77h58"/><path fill="#82aec0" d="M61.4 71.4h5.5v2.5h-5.5zm43.3 0h5.5v2.5h-5.5zm-10.8 0h5.5v2.5H94zm-10.9 0h5.6v2.5H83zm-10.8 0h5.5v2.5h-5.5zM66.9 80h3.5v2.5H67zm11.4 0h3.5v2.5h-3.5zm11.5 0h3.5v2.5h-3.5zm11.4 0h3.5v2.5h-3.5z"/><path fill="#2f7889" d="M75 71.4h1.4v2.5H75zm0 4.6h1.4v2H75z"/><path fill="none" stroke="#f44336" stroke-miterlimit="10" stroke-width="2" d="M74.3 65.8v22.4"/><path fill="#de7340" d="M112.4 65.8a3 3 0 0 1 3 3v16.4a3 3 0 0 1-3 3h-52a3 3 0 0 1-3-3V68.8a3 3 0 0 1 3-3zm0-2h-52a5 5 0 0 0-5 5v16.4a5 5 0 0 0 5 5h52a5 5 0 0 0 5-5V68.8a5 5 0 0 0-5-5"/><path fill="#78909c" d="M70.5 105q-1.5-.1-1.6-1.7v-6l1.6-.1 1.7.1v6q-.1 1.6-1.7 1.7"/><path fill="none" stroke="#546e7a" stroke-linecap="round" stroke-miterlimit="10" stroke-width="4" d="M13 67h33.8m-33.9 9h33.9m-33.9 9h33.9m-33.9 9h33.9m-33.9 9h33.9m-33.9 9h33.9"/><path fill="#fff59d" d="M117.5 71.2c0-4.3-3.1-4.7-3.1-4.7.6.5.9 1.3 1 1.5v17.2a3 3 0 0 1-3 3h-52l-.8-.2a3 3 0 0 1-2-2.1s-.7 1.2-.4 2.4q.3 1.7 3.3 1.9h52a5 5 0 0 0 5-5z"/></svg>