<svg viewBox="0 0 128 128"><path fill="#ae0d1a" d="m90.4 8.3 9-3.9s1.4 0 1.9.2 4.5 2.9 4.6 11.3c0 7 .1 9.9-.2 10.8a4 4 0 0 1-1.6 2q-1.5.6-1.7.5c-.2-.1-.2 90.7-.4 91.8s-.8 3-2.6 3l-71.4-.2c-.8-.2-3-1-3-4.6s4-25.5 4-25.5l67.2 3.9z"/><path fill="#ff180a" d="M26.3 4.5q-1.8.5-1.8 1.8l.5 114q-.1.2.4.3h71c1.4 0 2.7-.4 2.8-5l.4-110.2q.1-.9-.8-1z"/><path fill="#fbbc01" d="M62.8 33.5c-16 .4-28.8 11-28.6 29.9.2 18.3 15.4 28.4 29.9 27.9A28 28 0 0 0 91.6 62c.5-18.5-15.2-29-28.8-28.6m-.4 53c-12.4 0-23-10-23.4-22.6-.6-17 11.5-25 24.7-25.4s23.5 10.7 23.3 24a24.3 24.3 0 0 1-24.6 24"/><path fill="#fbbc01" d="M50.6 45.3c-.6.4-.6 2.3 1.3 4.8q1.5 1.8 2.9 1.9c1.5 0 3.3-2.2 3-3.3-.3-1.2-2-2.5-3.8-3.2-1.3-.5-2.8-.8-3.4-.3m10.7 3.1c-.4 1.2-.1 3.5 4.2 3.6s7.6-.8 9.3-1.6c1.6-.8 2.8-3 1.4-4.4s-4.4.8-7.9 1.2-6.4-.3-7 1.2m15.6 4c-1-.1-5.1.2-8.6.4-2.4.1-5.9.3-6.5.8-1 .7-.7 1.5.2 4q1.2 3.8 1.6 4a50 50 0 0 0 12-.5c.5-.3 1-2.4 1.5-4.2.1-.6 1.2-2 1.3-2.3.2-.8-.5-2.3-1.5-2.3m-4.5 6.5c-.3 0-5.3.6-5.6.4a9 9 0 0 1-1-3.3l7.1-.3c.6 0-.2 3-.5 3.2"/><path fill="#fbbc01" d="M60.2 65.5s-2-.3-3.2-1.5c-1-1-1.7-2.3-1.7-2.3s4.5-4.6 3.4-7.5c-1.2-3.3-4.3-1.4-6.7-.9-4.6 1-8 .5-8.7 1.5s-.7 4.2 2 4.6c2.2.4 3.6-.4 4.6-.9.6-.2 1.6-.8 1.7-1s-.6 2.2-3.8 5.5l-6.2 6c-.4.4-1.2 1.9 1 2s4-1.5 5.3-2.5 2.5-2.4 2.5-2.4L50 70l-.7 6.5c-.1 1.5-.1 4 2.7 4 3.2-.2 2.8-3 2.8-4.6 0-2.3-.2-5.3-.3-6v-3c0 .3 1.8 2.1 3.1 2.8s4.6-.7 4.3-2.4-1.8-1.7-1.8-1.7"/><path fill="#fbbc01" d="M59.4 63.6c0 .8 2.4 10.7 2.6 11s.2 1.2 2.1.6c.8-.2-.1-8.4-.2-9.8-.2-2.8-1-2-2.3-2.5-1.4-.5-2.2.1-2.2.7"/><path fill="#fbbc01" d="M61.7 63H71c2 0 4-.2 4.8-.3L79 62c.8-.1 2.6.3 2.4 2.4-.2 1.2-.7 1.4-1 1.8-.5.7-1.3 6.8-1.5 7.1s-3.3 0-3.3 0l1.4-6.6c.3-1.3-.7-1.2-.7-1.2l-13.4.3z"/><path fill="#fbbc01" d="m62.8 72.7 13.3-.3c.9 0 .5-1 1-1q1.2 0 1.7.9c.5.9 0 2.9-1.7 3l-14 .1z"/><path fill="#fbbc01" d="M68.4 64.5c.2.7.4 8.8.4 8.8h2.8l.6-8.7z"/><path fill="#fbbc01" d="M62.3 68.2h8.2c3.9 0 7.4-.2 7.4-.2s-.1 2-.4 1.9l-7.2.1-7.7.3z"/></svg>