<svg xmlns="http://www.w3.org/2000/svg" width="1em" height="1em" viewBox="0 0 128 128"><path fill="#AE0D1A" d="m90.43 8.27l8.96-3.84s1.36-.05 1.9.13c.54.18 4.51 2.94 4.56 11.34c.04 7.09.18 9.89-.17 10.8c-.13.33-.58 1.4-1.54 1.96c-.92.53-1.79.53-1.79.53s-.2 90.67-.31 91.8s-.85 3-2.66 3s-70.6-.11-71.39-.23c-.79-.11-2.93-.9-3.05-4.51S29 93.75 29 93.75l67.17 3.81z"/><path fill="#FF180A" d="M26.29 4.52c-1.18.23-1.8 1.03-1.74 1.82c.05.76.56 113.87.45 113.94c0 0 0 .35.43.35s69.5-.12 70.88-.12s2.84-.35 2.92-4.85s.34-109.85.38-110.29c.04-.43-.16-.91-.83-.95c-.67-.03-71.55-.08-72.49.1"/><path fill="#FBBC01" d="M62.81 33.48c-15.99.46-28.84 10.96-28.64 29.92c.2 18.27 15.41 28.44 29.92 27.85c14.02-.57 27.15-10.33 27.55-29.13c.41-18.57-15.2-29.04-28.83-28.64m-.39 52.93c-12.44.1-22.97-9.96-23.41-22.52c-.59-16.98 11.46-25.08 24.69-25.38s23.5 10.67 23.31 24c-.2 13.33-10.86 23.79-24.59 23.9"/><path fill="#FBBC01" d="M50.62 45.25c-.57.49-.65 2.38 1.27 4.81c1.06 1.34 2.05 1.87 2.9 1.91c1.48.07 3.32-2.19 3.04-3.25c-.33-1.25-2.12-2.47-3.82-3.18c-1.27-.54-2.81-.8-3.39-.29m10.71 3.06c-.44 1.16-.16 3.45 4.2 3.57c4.36.12 7.61-.83 9.24-1.63c1.63-.79 2.81-3.01 1.47-4.4c-1.35-1.39-4.4.83-7.93 1.27c-3.53.44-6.42-.28-6.98 1.19m15.56 3.91c-.99-.03-5.12.3-8.54.49c-2.47.13-5.92.28-6.58.78c-.97.73-.66 1.53.23 4.05c.88 2.52 1.21 3.75 1.65 4.03c.81.51 11.17-.14 11.97-.59c.52-.29.97-2.39 1.46-4.22c.15-.56 1.25-1.98 1.33-2.26c.23-.81-.53-2.26-1.52-2.28m-4.49 6.44c-.25.09-5.34.6-5.59.48c-.23-.11-1.21-3.16-.94-3.29c.23-.11 6.43-.36 7.07-.31c.53.03-.25 3.01-.54 3.12"/><path fill="#FBBC01" d="M60.19 65.54s-2.01-.37-3.16-1.52c-1.03-1.03-1.78-2.34-1.78-2.34s4.54-4.54 3.45-7.53c-1.19-3.27-4.29-1.33-6.7-.83c-4.6.95-7.97.48-8.68 1.43c-.67.9-.68 4.22 2.06 4.68c2.12.35 3.53-.43 4.56-.91c.53-.25 1.59-.83 1.67-.95c.08-.12-.63 2.1-3.85 5.43c-3.49 3.61-5.71 5.43-6.14 5.91c-.44.48-1.19 1.94.91 2.18s4.12-1.63 5.39-2.62c1.27-.99 2.46-2.34 2.46-2.34s-.08 1.78-.28 3.77c-.2 1.98-.61 5.02-.71 6.46c-.12 1.59-.12 4.12 2.66 4c3.25-.14 2.84-2.93 2.81-4.52c-.04-2.34-.2-5.35-.24-6.07c-.04-.71-.09-3.25-.09-3.01s1.88 2.18 3.22 2.85c1.35.67 4.59-.68 4.23-2.42c-.36-1.74-1.79-1.65-1.79-1.65"/><path fill="#FBBC01" d="M59.38 63.57c-.02.81 2.43 10.7 2.64 11c.21.3.13 1.25 2.1.68c.73-.21-.13-8.46-.23-9.83c-.2-2.83-.95-2.02-2.34-2.54c-1.4-.52-2.16.14-2.17.69"/><path fill="#FBBC01" d="M61.72 62.97s5.96.14 9.19.07c1.98-.04 3.92-.21 4.77-.36c.85-.15 2.12-.44 3.22-.66c.81-.16 2.63.28 2.36 2.37c-.15 1.17-.7 1.43-.95 1.79c-.51.72-1.3 6.8-1.54 7.15c-.21.31-3.25-.07-3.25-.07s1.33-6.21 1.4-6.56c.27-1.29-.75-1.17-.75-1.17l-13.38.27z"/><path fill="#FBBC01" d="M62.8 72.73s12.43-.27 13.29-.31c.86-.04.54-1.02 1.1-1.05c.57-.03 1.37.26 1.56.91s.11 2.88-1.68 3.01c-.63.05-13.99.13-13.99.13z"/><path fill="#FBBC01" d="M68.44 64.45c.17.77.35 8.84.35 8.84l2.83-.07l.56-8.62z"/><path fill="#FBBC01" d="M62.3 68.21s3.18.02 8.18-.04c3.88-.05 7.42-.18 7.42-.18s-.14 1.98-.39 1.9c-.13-.04-3.48.06-7.22.14c-3.83.08-7.68.27-7.68.27z"/></svg>