<svg viewBox="0 0 128 128"><path fill="#cf6f24" d="M91.5 48.7c-1 1.8-76.3 67.4-76.3 67.4s5.4 9.1 27.6 8.2c20.1-.9 41.2-10.1 59.9-31.8s21.4-43.7 20.5-56.8c-1.1-16.7-7.5-21-9.2-22.8-1.7-1.6-22.5 35.8-22.5 35.8"/><path fill="#e07f14" d="M31 31.5C12.4 49.6-7.4 90.5 13 114c8 9.2 28.8 6.3 48.2-3.6A130 130 0 0 0 94.8 84c20.8-22 32.6-64.6 15.2-74.4-21.3-12-53.2-3.2-79 21.9"/><path fill="#af5912" d="M11.5 112.3a38 38 0 0 1 3.6-25c6.3-14.8 23-36 34.8-47a142 142 0 0 1 41-28.2C103.4 6.5 107.4 8 107.7 8c.5 0 2.8 1 3.2 2 .1.4.5 1.2-.6 1 0 0-6.3-.2-17.9 5a137 137 0 0 0-39.7 27.4A167 167 0 0 0 18.9 89c-3.7 8.9-5 18-3.4 26.4.2 1.1-.8.8-1.8.3a7 7 0 0 1-2.3-3.4"/><path fill="#af5912" d="M32.7 76a13 13 0 0 1-7.7-2.4c-3.1-2.2-3.8-5-4-8.5-.8-9.5 8.6-21.2 17-29.4 17.7-17 30.4-22.5 38.7-15.7 3.9 3.2 5.2 8 3.7 12.7-1.5 4.5-6.5 9.4-13.5 16.2L55.8 60.5c-4.4 4.8-8.8 9.8-13.9 12.8a18 18 0 0 1-9.1 2.7m35.6-55.4Q58 20.6 40 37.9C29 48.7 23 58.2 23.4 64.6a8 8 0 0 0 3.6 6.2c3.5 2.5 8.3 2.3 13-.5s9-7.5 13-12.1a142 142 0 0 1 11.5-11.8c6.3-6.2 11.3-11.1 12.5-14.8q1.8-5.2-2.6-9a9 9 0 0 0-6.1-2m-8.9 33.3"/><path fill="#713604" d="M39.6 43c-1.4 1.4-1.5 3.4.8 5l6 5c1.3 1.2 3.6 2.5 5.5 1 1.5-1.3 1.4-4 0-5.3s-6.2-5.1-7.3-6c-1.3-.9-3.5-1.4-5 .2m7.5-7.8c-1.8 1.7-.8 3.8.7 4.9l5.7 4.7c1 1 4 4.2 6.7 1.4 2-2.1-.4-4.3-1.5-5.4-1.4-1.3-5-4.5-6.4-5.4-1.1-.8-3.5-1.9-5.2-.2m8.4-6.7c-1.6 1.7-.4 3.6 1 4.7l5.4 4.6c1.2 1 4 3.6 6 1.4 1.9-2 0-4.1-1.4-5.5a56 56 0 0 0-6.3-5.3c-1-.6-3.1-1.6-4.7 0m8.4-6c-1 1-1.4 2.6.3 4.1l6.2 5.3c1.3 1.3 3.6 1.8 4.7.3 1.3-1.7.2-3.4-1.4-5.4-1.1-1.4-4.3-3.8-5.3-4.4s-3.3-1.2-4.5 0m-31.7 29q-2 2.8 1.4 5.2c2 1.6 5.3 4.2 6.5 4.9s3 1.8 4.7-.2c2-2.3-.4-4.5-2.1-6l-5.8-4.3c-1.4-1-3.5-1.1-4.7.4M25.5 59c-.9 1.1-1.4 3 1 5.2s5 3.9 5.9 4.6c1 .8 4.2 2 5.8 0s0-3.8-1.8-5-6-4.4-6.7-5-2.9-1.5-4.2.2"/></svg>