<svg xmlns="http://www.w3.org/2000/svg" width="1em" height="1em" viewBox="0 0 128 128"><path fill="#9a9a9a" d="m105.77 90.9 8.13-.05.16-17.62 5.14.08s-.16 18.85-.16 20.15c0 1.31-.82 2.61-1.96 2.77s-10.12.16-10.12.16z"/><path fill="#db0d2b" d="M109.29 67.63c-.12 3.96 2.25 7.82 7.56 7.77s7.15-3.26 7.26-7.21c.1-3.56-2.15-7.97-7.51-7.82-4.85.14-7.21 3.96-7.31 7.26"/><path fill="#fff" d="M111.89 68.69c1.85.8 1.93-1.33 2.94-2.74 1.02-1.42 2.72-1.97 1.77-3.12-.59-.71-2.53-1.38-4.43 1.08-1.3 1.67-1.84 4.1-.28 4.78"/><path fill="#cacaca" d="M6.38 100.31s0-41.59.41-48.68 6.68-26.32 30.27-34.09 45.77.89 54.53 8.46c16.09 13.91 15.82 26.86 15.82 26.86l.14 46.36s3.15 4.07 3.15 5.16-.02 3.56-.02 3.56l-107.58.28s-.1-2.9.44-4.13 2.84-3.78 2.84-3.78"/><path fill="#db0a27" d="M55.88 4.67c-4.87 0-7.98 3.23-8.95 5.66-.84 2.12-.91 4.93-.91 4.93s2.57.54 10.04.54 9.44-.71 9.44-.71.35-3.02-.79-5.1c-1.3-2.38-3.73-5.32-8.83-5.32"/><path fill="#ff4e23" d="M47.85 12.81c1.28 1.54 3.93.67 6.31-1.23 1.97-1.58 4.17-4.56 3.01-5.56-1.67-1.43-4.52-.47-7.03 1.48-1.56 1.22-3.43 3.95-2.29 5.31"/><path fill="#fffdfd" d="M49.19 11.62c.79.63 1.89-.51 3.38-1.76 1.26-1.05 3.14-2.14 2.41-3.03-.74-.9-2.71-.08-4.13 1.06-1.26.99-2.89 2.75-1.66 3.73"/><path fill="#9a9a9a" d="M3.35 105.01c-.49.86-.74 15.1.44 15.99s23.69.15 53.44.15 51.51-.15 52.55-1.48c1.49-1.92 1.42-14.76.97-15.5-.86-1.44-27.77-.19-53.67-.04-26.65.14-52.96-.48-53.73.88"/><path fill="#858585" d="M8.97 108.27c-1.04.44-1.18 8.59 0 8.88 1.44.36 33.92.09 47.54.09s47.35.5 48.68-.68 1.21-7.63.32-8.67-35.7-.21-48.73-.21-45.68-.33-47.81.59"/><path fill="#6f7178" d="M11.64 51.42c-.3 1.04-.44 45.59 0 45.89s90 .59 90.89-.3.3-44.85.15-45.74-46.04-1.92-46.04-1.92z"/><path fill="#3a3839" d="M14.73 54.74c-.17.46.09 39.48.51 39.91.43.43 84.02-.17 84.45-.51s.34-39.35 0-39.65c-.34-.31-84.79-.23-84.96.25"/><path fill="#ffdb8b" d="M57.34 18.42c-20.06-.18-32.33 8.99-37.92 16.41s-8.65 14.27-7.79 16.59c.23.63 14.72.06 44.01.18s46.55.56 47.03-.33c.49-.89-1.51-10.96-12.4-20.33-8.74-7.54-19.07-12.4-32.93-12.52"/><path fill="#ffaf29" d="M14.88 48.54s9.93-27.86 41.53-27.59c34.61.3 41.63 27.39 41.63 27.39z"/><path fill="#ffd61c" d="M29.89 34.82c-5.97 5.42-8.58 11.02-8.58 11.02s22.26.46 22.32.12c.07-.43-13.74-11.14-13.74-11.14m13.8-8.21c-4.02 1.3-7.45 3.15-10.32 5.2 3.78 3.44 14.23 11.42 15.65 12.43 1.69 1.2 2.25 1.85 2.63 1.62.31-.18-.53-1.76-.8-2.41-.47-1.15-5.67-12.74-7.16-16.84m18.79-1.37c-2.06-.32-4.63-.62-6.91-.6-2.78.02-4.67.3-7.07.78 0 0 7.88 19.49 8.05 19.96.18.47.58.95.8 0 .21-.94 5.13-20.14 5.13-20.14m8.19 20.89c.14.31 21.56.13 21.56.13s-3.06-5.83-9.48-11.41c0-.01-12.34 10.69-12.08 11.28m8.29-14.41c-3.26-2.28-7.13-4.32-11.67-5.64-1.27 4.8-4.05 16.43-4.33 17.9-.11.55-.5 1.72-.23 1.94.28.23 1.29-.42 2.16-1.26.99-.96 14.07-12.94 14.07-12.94"/><path fill="#fff" d="M41.57 74.52c-.18-9.43 2.24-14.88 3.48-17.03l-21.64.03s-5.34 6.65-5.43 16.3 5.06 17.99 5.06 17.99l21.91-.09c-1.05-2.2-3.2-7.84-3.38-17.2"/><g fill="#fff"><path d="M70.17 74.52c.3-8.71-1.83-14.6-2.95-17.06l-19.89.03c-1.22 2.91-3.4 9.21-3.22 16.87.19 8.35 2.38 14.95 3.29 17.36l20.51-.08c.69-2.68 1.96-8.65 2.26-17.12"/><path d="m91.71 57.43-21.75.03c1.29 3.21 3.4 9.78 3 17.64-.41 7.91-1.83 14.01-2.51 16.52l20.61-.09s5.25-6.37 5.72-16.3c.46-9.93-5.07-17.8-5.07-17.8"/></g><path fill="#fab037" d="m27.65 91.81 9.89-.05s-.76-2.78-4.52-2.68c-3.84.12-5.37 2.73-5.37 2.73"/><path fill="#ffd429" d="m54.08 91.7 7.58-.04s-.07-2.29-3.78-2.24c-3.2.04-3.67 2.02-3.8 2.28"/><path fill="#a75fb7" d="m78.53 91.6 8.77-.05s.45-2.5-1.81-2.7c-1.92-.17-2.39 1.62-2.39 1.62s-.42-1.29-2.09-1.32c-2.01-.04-2.57 2.15-2.48 2.45"/><path fill="#febf21" d="m76.73 57.45 11.51-.02s.07 3.58-4.42 3.67c-6.4.13-7.09-3.65-7.09-3.65"/><path fill="#5b6467" d="M53.31 57.47s-.73 2.47-.22 2.95c.6.55 8.66.66 9.22-.02.56-.69-.14-2.94-.14-2.94z"/><path fill="#4e9226" d="m27.29 57.5 11.5-.02s.11 2.93-5.06 2.99c-5.86.08-6.44-2.97-6.44-2.97"/><path fill="#ff2b26" d="M51.64 66.61c-.43.03-1.07-1.79-1.84-1.62s-1.84.38-1.62 5.34.6 5.38 1.58 5.34 2.48-2.9 2.48-2.9 1.05-.45 1.78-.5c.73-.04 1.25.62 2.15.92s2.18.34 2.18.34-3.03 2.56-4.06 5.85-1.07 6.53-.81 6.74 8.07.3 8.37.09-.13-9.05 1.45-11.82 3.71-6.1 3.71-6.1-.81-2.18-1.49-2.43c-.68-.26-2.13.81-3.93.73-1.79-.09-3.89-1.87-4.95-2.18-1.8-.53-3.72 2.11-5 2.2m-26.98-.21c-.43.03-1.03-1.42-1.82-1.47-.91-.06-1.58.08-1.64 5.03-.05 4.86.62 5.86 1.6 5.82s2.47-3.08 2.47-3.08.8-.5 1.55-.25c.69.23 1.23.68 2.28.83.94.13 2 .29 2 .29s-2.75 2.47-3.78 5.75c-1.02 3.29-1.07 6.53-.81 6.74s8.07.3 8.37.09.06-8.75 1.64-11.53 3.53-6.4 3.53-6.4-.81-2.18-1.49-2.43c-.68-.26-2.46.59-4.25.5s-3.74-1.73-4.84-1.89c-2.04-.3-3.53 1.92-4.81 2m54.2-.5c-.43.03-1.19-1.5-1.95-1.33-.77.17-1.61.38-1.62 5.34-.01 4.15.6 5.29 1.58 5.34 1.56.07 2.39-2.68 2.39-2.68s1.09-.39 1.81-.43c.73-.04 1.3.34 2.2.64s2.01.42 2.01.42-2.87 2.48-3.89 5.77-1.07 6.53-.81 6.74 8.07.3 8.37.09-.08-8.63 1.5-11.4 3.7-5.49 3.7-6.09-1-2.84-1.69-3.1c-.68-.26-1.96.79-3.75.71-1.79-.09-3.94-1.76-5-2.07-1.8-.53-3.56 1.96-4.85 2.05"/></svg>