<svg viewBox="0 0 128 128"><path fill="#9a9a9a" d="M105.8 90.9h8.1l.2-17.7 5.1.1-.2 20.2c0 1.3-.8 2.6-2 2.7l-10 .2z"/><path fill="#db0d2b" d="M109.3 67.6c-.1 4 2.2 7.9 7.6 7.8s7.1-3.3 7.2-7.2c.1-3.6-2.1-8-7.5-7.8-4.8.1-7.2 4-7.3 7.2"/><path fill="#fff" d="M111.9 68.7c1.8.8 2-1.3 3-2.8s2.6-2 1.7-3c-.6-.8-2.5-1.4-4.4 1-1.3 1.7-1.9 4.1-.3 4.8"/><path fill="#cacaca" d="M6.4 100.3s0-41.6.4-48.7 6.7-26.3 30.3-34 45.7.8 54.5 8.4c16 14 15.8 26.9 15.8 26.9l.1 46.3s3.2 4 3.2 5.2v3.5L3 108.2s-.1-2.9.4-4.1 2.9-3.8 2.9-3.8"/><path fill="#db0a27" d="M55.9 4.7c-4.9 0-8 3.2-9 5.6-.8 2.1-.9 5-.9 5s2.6.5 10 .5 9.5-.7 9.5-.7.4-3-.8-5.1A9 9 0 0 0 56 4.7"/><path fill="#ff4e23" d="M47.9 12.8c1.2 1.5 3.9.7 6.3-1.2 2-1.6 4.1-4.6 3-5.6-1.7-1.4-4.6-.4-7 1.5-1.6 1.2-3.5 4-2.4 5.3"/><path fill="#fffdfd" d="M49.2 11.6c.8.6 1.9-.5 3.4-1.7 1.2-1 3.1-2.2 2.4-3-.8-1-2.7-.2-4.1 1-1.3 1-3 2.7-1.7 3.7"/><path fill="#9a9a9a" d="M3.4 105c-.5.9-.8 15.1.4 16s23.7.2 53.4.2 51.5-.2 52.6-1.5c1.5-2 1.4-14.8 1-15.5-1-1.5-27.8-.2-53.7 0-26.7 0-53-.6-53.7.8"/><path fill="#858585" d="M9 108.3c-1 .4-1.2 8.6 0 8.9 1.4.3 33.9 0 47.5 0s47.4.5 48.7-.6 1.2-7.7.3-8.7-35.7-.2-48.7-.2-45.7-.4-47.8.6"/><path fill="#6f7178" d="M11.6 51.4c-.3 1-.4 45.6 0 46s90 .5 91-.4.2-44.8 0-45.7-46-2-46-2z"/><path fill="#3a3839" d="M14.7 54.7c-.1.5.1 39.5.5 40s84-.2 84.5-.6.3-39.3 0-39.6c-.4-.3-84.8-.2-85 .2"/><path fill="#ffdb8b" d="M57.3 18.4c-20-.2-32.3 9-37.9 16.4s-8.6 14.3-7.8 16.6c.3.7 14.8 0 44 .2s46.6.6 47-.3c.6-1-1.4-11-12.3-20.4a49 49 0 0 0-33-12.5"/><path fill="#ffaf29" d="M14.9 48.5s10-27.8 41.5-27.5C91 21.2 98 48.3 98 48.3z"/><path fill="#ffd61c" d="M29.9 34.8c-6 5.4-8.6 11-8.6 11s22.3.5 22.3.2c.1-.5-13.7-11.2-13.7-11.2m13.8-8.2q-6 2-10.3 5.2A256 256 0 0 0 49 44.2c1.7 1.2 2.3 1.9 2.6 1.7s-.5-1.8-.8-2.5c-.4-1.1-5.6-12.7-7.1-16.8m18.8-1.4a34 34 0 0 0-14 .2l8 20c.2.4.6 1 .8 0zm8.2 21c.1.2 21.5 0 21.5 0s-3-5.8-9.4-11.4c0 0-12.4 10.7-12.1 11.3M79 31.7a40 40 0 0 0-11.7-5.6L63 44c-.1.5-.5 1.7-.3 2q.6 0 2.2-1.3z"/><path fill="#fff" d="M41.6 74.5a33 33 0 0 1 3.4-17H23.4s-5.3 6.7-5.4 16.3 5 18 5 18h22c-1.1-2.3-3.3-8-3.4-17.3"/><g fill="#fff"><path d="M70.2 74.5a38 38 0 0 0-3-17H47.3a42 42 0 0 0-3.2 16.9 54 54 0 0 0 3.3 17.3h20.5c.7-2.7 2-8.7 2.3-17.2"/><path d="M91.7 57.4H70c1.2 3.3 3.4 9.8 3 17.7-.5 8-1.9 14-2.6 16.5h20.7s5.2-6.4 5.7-16.4-5-17.8-5-17.8"/></g><path fill="#fab037" d="M27.7 91.8h9.8S36.8 89 33 89s-5.4 2.7-5.4 2.7"/><path fill="#ffd429" d="M54 91.7h7.7s-.1-2.3-3.8-2.3c-3.2 0-3.7 2-3.8 2.3"/><path fill="#a75fb7" d="M78.5 91.6h8.8s.5-2.5-1.8-2.7c-2-.2-2.4 1.6-2.4 1.6s-.4-1.3-2-1.4c-2.1 0-2.7 2.2-2.6 2.5"/><path fill="#febf21" d="M76.7 57.5h11.5s.1 3.5-4.4 3.6c-6.4.1-7-3.6-7-3.6"/><path fill="#5b6467" d="M53.3 57.5s-.7 2.4-.2 3c.6.5 8.7.6 9.2-.1s-.1-3-.1-3z"/><path fill="#4e9226" d="M27.3 57.5h11.5s.1 3-5 3c-6 0-6.5-3-6.5-3"/><path fill="#ff2b26" d="M51.6 66.6c-.4 0-1-1.8-1.8-1.6s-1.8.4-1.6 5.3.6 5.4 1.6 5.4 2.4-3 2.4-3 1-.4 1.8-.4c.7 0 1.3.6 2.2.9s2.1.3 2.1.3-3 2.6-4 5.9-1 6.5-.8 6.7 8 .3 8.3.1 0-9 1.5-11.8 3.7-6.1 3.7-6.1-.8-2.2-1.5-2.4c-.7-.3-2.1.8-4 .7-1.7-.1-3.8-1.9-4.9-2.2-1.8-.5-3.7 2.1-5 2.2m-27-.2c-.4 0-1-1.4-1.8-1.5-.9 0-1.5.1-1.6 5 0 5 .6 6 1.6 5.9s2.5-3.1 2.5-3.1.8-.5 1.5-.2q.8.4 2.3.8l2 .3s-2.8 2.4-3.8 5.7-1 6.6-.8 6.8 8 .3 8.4 0 0-8.7 1.6-11.5l3.5-6.4s-.8-2.2-1.4-2.4c-.7-.3-2.5.6-4.3.5s-3.7-1.7-4.8-1.9c-2-.3-3.6 2-4.8 2m54.2-.5c-.5 0-1.2-1.5-2-1.3s-1.6.3-1.6 5.3c0 4.2.6 5.3 1.6 5.3 1.5.1 2.4-2.6 2.4-2.6s1-.4 1.8-.5q1 .1 2.2.7c1.2.6 2 .4 2 .4s-2.9 2.5-4 5.8-1 6.5-.7 6.7 8 .3 8.4.1-.1-8.6 1.5-11.4 3.7-5.5 3.7-6-1-3-1.7-3.2-2 .8-3.8.7c-1.8 0-4-1.7-5-2-1.8-.6-3.5 2-4.8 2"/></svg>