<svg viewBox="0 0 128 128"><path fill="#b6d401" d="m77 40.4-57 62.1s18 21.8 47 20.5a55 55 0 0 0 42-20.5c12-13.8 14.8-34 14.1-43.3-1-12-9.1-27.7-15.5-32.5S77 40.4 77 40.4"/><path fill="#d5f100" d="M25 21C6.2 37.7-6.7 77 19.8 102.1c13.2 12.6 60.5 16 83-14.3 10-13.6 17.4-35 11.8-51.7-2.2-6.5-8-11.2-13.3-15.6-25.1-21.2-53-20.3-76.1.3"/><path fill="#738613" d="m69.7 124-4-.2C66 123.4 74 87 50.4 63Q34.6 47 21.6 48.5c-9 1-15 9.3-15 9.4l-1.8-3.8c.2-.3 5.5-8.4 16.3-9.6q15-1.5 32.1 15.7c25.3 25.5 17 62.2 16.6 63.8M122 60.8c-.3-.2-26.6-18.8-40.1-30.4C69.7 20 53.5 5.5 53.3 5.4l2.9-1.8c.1.1 15.7 14 27.8 24.3a762 762 0 0 0 39 29.7z"/><path fill="#da0a23" d="M68.4 16.3c-.6.5-1.8 4.3-2.3 6.5-.3 1.2-.2 3.1 1.4 3.4 1.7.3 2.4-.7 2.9-2.2l1.5-4.1s2.7-1 4-1.3q2.5-.9 2.4-2.2c0-1.3-1-2.7-4-2-1.8.4-5.2 1-6 1.8m-8.8-7.4c-.4.3-2.5 5.3-2.8 6-.3.6-.6 2.2.6 2.9s2.5-.5 3-1.5l1.7-4s3.1-.1 4.3-.3c1.3-.2 2.4-.6 2.3-2.2S66 8.4 63.3 8.6c-1.7 0-3.5 0-3.8.3M53.3 3c-.7.3-3.5 3.2-3.9 3.7s-.6 1.5.3 2.3 2.3.1 3-.4 2-2 2-2h3.5C59 6.6 60 6 60 4.8S58.5 3.1 57.3 3c-1.1 0-3.5-.2-4 0M80 26c-.7.5-2.3 6.4-2.6 7.5s-1 3.7.8 4.2q2.7.9 3.6-2.3l1.6-5.8 5.4-2c1-.3 2-1.6 1.4-3.1s-2.6-1.3-3.5-1c0 0-6 2-6.7 2.5m11 9.3c-.4.6-2 6-2.2 7.1s-.3 2.9 1.5 3.3q2.3.5 2.9-1.7c.5-2.2 1.7-5.5 1.7-5.5l4.3-2.3c1.2-.6 1.7-2.3 1-3.5s-2.4-1-4-.5-4.7 2.6-5.2 3.1m11.6 9c-.6.8-.8 6-.8 6.7s.6 2.9 2.5 2.9c1.6 0 2.3-1.8 2.3-2.7l.2-4.4 2.8-1.6c1-.7 2.2-2 1.5-3.4s-2.7-1-4-.5c-.9.4-4.1 2.3-4.5 3m9.9 7.8c-.4.9-.4 5.7-.3 7s1.2 2.5 2.6 2.4 2-1.4 2-2.4l.1-4.6 2.4-1.6q1.3-1.1.3-2.8c-.7-1-2.2-1.3-3.5-.5s-3.5 2.1-3.6 2.5m7.6 5.4c-.7 1.1 0 6.2 0 6.7s0 2.2 1.8 2.2c1.4 0 2-.9 2-1.7l-.1-5.5s1.4-.4.8-2.3-3.9-.5-4.5.6m-57.4 64c-.5.9-.4 2.2 1.7 3.3s2.6 1 3 1.1c.8 0 2.6-.6 3.8-1.2 1-.6 2.1-1.3 1.3-2.9-.8-1.4-5 .3-5 .3s-3.8-2.4-4.8-.7m-.2-9c-1.2 1-.4 2.7 2 4.2q3 2.3 4.2 2.4c1.2 0 4.4-1.8 5.3-2.3 1.3-.7 1.8-2.2.7-3.3s-2.5 0-3.3.5l-2.5 1.2-3-2.2c-.8-.6-2.3-1.6-3.4-.5m-1.2-11.1q-1.5 2.3 2 4.2c3.4 2 5 2.5 6 2.6s4.5-3 5.2-3.7 2.7-2.7 1.5-4.1c-1.5-1.7-3-.4-4.5.6l-2.3 1.6s-2.5-.6-3.9-1.3c-1.4-.6-3-1.2-4 .1M67 89.6l3.5-3.5c.9-1 2.5-1.8 3.7-.4s0 3.6-1.2 4.6-3.9 4.3-4.7 4.4-6.6-1-8.3-1.8c-1-.5-2.6-1.5-1.7-3.5.7-1.6 2.4-1.4 3.6-1.2s5.1 1.4 5.1 1.4m-6-14.2 2.9-5.8c.7-1.6 1.6-3 3.6-2.3s1.3 2.6.7 4.4c-.8 2-3 7.7-4 8.2a40 40 0 0 1-9.6.7c-1 0-2-.7-2-2s.9-2.3 3-2.6zm-9.8-14.3c-.2.2-4.8 2-6 2.3-1.6.5-2.2 2.2-1.8 3.4s2 1.8 3.9 1.2 7.6-2 8.1-2.9 1.4-6.7 1.6-8.2.2-3.5-1.8-3.8-2.9 1-3 2.5zm-12.3-9.9.5-5.2c.1-1.2.6-2.7 2.6-2.6s1.9 2.8 1.9 4.5-.4 6.3-.7 6.5l-4.5 3.3c-1.5 1-3.8 1.6-4.6.3s.4-3.4 1.8-4.4zM26.3 37.7c-2 .6-2 2.7-1.4 4.8l1 4-2 3c-.7.8-2.6 3.1-.6 4.8s4-1.3 4.8-2.2c.7-.8 3-4 3-4.4 0-1.3-1.2-6-1.5-7s-1-3.5-3.4-3m-14.6 3.4c-.9.6-1.4 2.5-.2 4.2 1 1.3 1.6 2.7 1.6 2.7l-1.7 4.7c-.5 1.1-1 3.7 1 4.5s3.4-1.5 4-3 1.9-5.4 2-6.5c0-.7-2-4.3-2.8-5.5s-2.5-2-3.9-1M8.3 53.6c.2 1-.4 4-1 6.5-.1.7-.4 2.4-2.5 1.9-1.8-.4-1-2.7-.8-3.9l.6-2.9s-1-.5-.9-1.6q.1-2 2-2c1.9 0 2.4 1.2 2.6 2"/></svg>