<svg xmlns="http://www.w3.org/2000/svg" width="1em" height="1em" viewBox="0 0 128 128"><radialGradient id="notoSparkler0" cx="65.922" cy="65.197" r="70.091" gradientTransform="matrix(.0156 -.9999 1.1028 .0172 -7.005 129.988)" gradientUnits="userSpaceOnUse"><stop offset=".164" stop-color="#EE5416"/><stop offset=".234" stop-color="#E95216"/><stop offset=".311" stop-color="#DC4D17"/><stop offset=".392" stop-color="#C64418"/><stop offset=".475" stop-color="#A7391A"/><stop offset=".497" stop-color="#9E351B"/><stop offset=".576" stop-color="#8D311B"/><stop offset=".734" stop-color="#60281A"/><stop offset=".951" stop-color="#191919"/></radialGradient><path fill="url(#notoSparkler0)" d="M116.69 124.19H11.38c-4.15 0-7.52-3.37-7.52-7.52V11.37c0-4.15 3.37-7.52 7.52-7.52h105.3c4.15 0 7.52 3.37 7.52 7.52v105.3c.01 4.16-3.36 7.52-7.51 7.52"/><radialGradient id="notoSparkler1" cx="66.105" cy="69.126" r="35.724" gradientUnits="userSpaceOnUse"><stop offset=".415" stop-color="#F3A05C"/><stop offset=".999" stop-color="#AB5931"/></radialGradient><path fill="url(#notoSparkler1)" d="m61.57 76.36l-.28 47.84l6.97-.01l1.03-50.71l-4.09-3.63z"/><path fill="#FFF" d="m69.2 58.22l21.5-30.56l4.43.38l-19.8 30.6s21.02-17.22 22.15-17.97c1.13-.75 1.79-.57 2.36 0s.28 1.41-.75 2.26S73.91 62.8 73.91 62.8l32.91-8.57l4.05 1.04l-4.24 2.45l-32.31 8.35l36.08 4.38s2.07.47 1.79 2.26c-.28 1.79-1.79 1.6-2.64 1.6c-.85 0-33.61-3.17-33.61-3.17s21.45 13.54 22.49 14.2c1.04.66 1.6 1.98 1.04 2.92c-.57.94-1.79.75-3.11.19c-1.32-.56-22.15-13.65-22.15-13.65l24.12 34.48l-.57 4.62s-1.32-1.04-2.36-2.45c-1.04-1.41-28.13-36.76-29.64-36.85c-1.51-.09-29.84 27.8-29.84 27.8l-6.03.38l3.02-5l22.69-24.3S18.4 86.76 16.7 87.13c-1.7.38-3.58 1.41-4.24-.38s1.41-2.36 2.83-2.83s38.69-14.11 38.69-14.11l-25.96-1.92l-1.89-3.68l27.14 2.34l-35.15-20.23l6.32-1.79L55.1 60.36L28.11 30.48c-.85-.94-1.57-2.2-.47-3.2c1.13-1.04 2.73.38 3.39 1.23c.66.85 28.82 30.99 28.54 30.33c-.28-.66-14.59-37.87-14.59-37.87l1.32-2.36l3.49 2.73l14.35 36.54l1.11-37.2l3.96 2.55z"/><path fill="#FFE268" d="M46.05 14.31s4.91-4.89 5.67-5.47c1.08-.81 2.5-.2 1.69 1.42c-.81 1.62-4.39 7.02-4.39 7.02s8.34 6.38 9.11 6.95c1.08.81.13 2.36-.94 1.82c-1.08-.54-10.06-5.67-10.06-5.67s-3.41 12.25-3.78 13.09c-.74 1.69-2.09 1.55-2.23-.13c-.13-1.57.94-13.23.94-13.23s-11.14-1.08-13.23-1.35s-2.09-2.42.47-2.36c2.83.07 12.35.07 12.35.07s-.94-5.26-1.21-7.09c-.27-1.82 1.16-2.21 1.96-.88c.81 1.35 3.65 5.81 3.65 5.81m19.37 8.5c-1.01-.47-7.76-6.82-8.37-7.56c-.61-.74-.08-2.21 1.48-1.35c1.64.9 5.88 3.3 5.88 3.3s.4-5.93.54-7.21c.2-1.96 1.48-1.82 1.89 0s1.2 6.95 1.2 6.95s10.25-6.85 11.21-7.49c1.42-.94 2.7.13 1.21 1.82c-1.48 1.69-10.65 9.88-10.44 10.01c.2.13 5.04 2.51 6.12 3.22c1.75 1.15 1.15 2.63-.88 1.96c-2.02-.67-6.42-2.62-7.23-2.89c-.8-.27-2.61-.76-2.61-.76m28.21 6.55c-.27-.07-9.18-2.02-10.06-2.43c-.88-.4-.81-1.82.67-1.42c1.48.4 6.34 1.21 6.34 1.21s-4.45-9.52-4.99-10.8c-.54-1.28.4-1.96 1.35-1.08c.94.88 4.93 5.47 4.93 5.47s.47-5.6.81-7.22s1.75-1.21 2.09.13c.23.94 1.32 8.35 1.32 8.35s10.82-3.91 12.24-4.37c1.89-.61 2.5.54.88 1.69s-10.53 6.01-10.33 6.28c.2.27 5.4 1.55 6.68 1.96c1.28.4 1.42 1.89-.34 2.02c-1.74.14-11.59.21-11.59.21m15.92 23.08c.13.07 4.32-8.5 5.2-9.72c.88-1.21 1.75-.34 1.69.61c-.07.94-2.63 9.72-2.63 9.72s4.86.13 6.34.27c1.48.13 1.75 1.35.07 1.82c-1.69.47-6.34 1.69-6.34 1.69s2.29 3.64 3.44 5.53c.78 1.28-.13 2.5-1.48 1.48c-1.35-1.01-5.47-5.94-5.47-5.94s-5.4 7.29-6.41 8.5s-2.69.64-1.61-1.25c.81-1.42 5.94-9.75 5.94-9.75s-10.68-3.43-11.8-3.85c-1.62-.61-1.37-2.15.52-1.81c1.88.34 12.41 2.63 12.54 2.7"/><path fill="#FFE268" d="M110.96 72.74s-3.45-5.1-3.83-5.92c-.47-1.01.07-1.82 1.35-1.08s5.2 3.71 5.2 3.71s.88-1.15 1.89-2.23c1.01-1.08 1.94-.81 1.43.88c-.41 1.38-1 3.32-1 3.32s3.02.91 4.1 1.31c.92.35 1.35 1.23-.27 1.7c-.8.23-3.71.67-3.71.67s2.36 5.33 2.83 6.41c.67 1.55-1.15 2.63-2.09.81c-.64-1.23-3.17-5.74-3.17-5.74s-5.9 6.19-6.88 7.02c-1.28 1.08-2.29.88-1.75-.81s5.9-10.05 5.9-10.05m-14.43 38.08s4.49-17.12 4.89-18.56c.54-1.96 2.53-1.89 2.4.06c-.14 2.02-2.23 18.41-2.23 18.41s8.57-1.63 10.26-2.1c1.69-.47 3.04.29 1.15 1.51c-1.89 1.21-10.46 6.01-10.46 6.01s.74 2.7 1.35 4.59c.51 1.59-.18 2.06-1.67.98c-1.05-.76-3.57-2.94-3.57-2.94s-1.85 2.79-2.63 3.52c-.84.79-1.72 1.07-1.51-.68c.14-1.22.93-5.1.93-5.1c.01.06-11.64-2.23-13.4-2.68c-1.64-.42-1.98-1.13-.29-1.2s14.78-1.82 14.78-1.82m-63.24-9.85s-.15-7.82-.27-9.79c-.13-2.16-1.69-2.43-2.36-.34c-.59 1.84-2.23 8.03-2.23 8.03s-7.02-6.61-8.1-7.63s-2.29 0-1.69 1.21c.61 1.21 5.82 11.88 5.82 11.88s-5.08 7.16-6.02 9.05c-.94 1.89.34 2.43 1.75 1.89s8.09-5.11 8.09-5.11s7.29 7.61 8.17 8.35c.88.74 2.16.2 1.69-1.35c-.49-1.59-4.61-10.33-4.61-10.33s10.82-3.24 12.31-3.71c1.48-.47 1.08-2.29-.61-2.23s-11.94.08-11.94.08m-6.75-38.54s5.67-2.77 6.68-3.31c1.01-.54 2.02.61 1.01 1.62s-5.06 4.79-5.06 4.79s3.91 3.91 4.86 4.72c.94.81.54 2.09-1.08 1.69c-1.62-.4-6.41-2.9-6.41-2.9s-2.3 4.56-2.77 5.26c-.67 1.01-1.96.81-2.02-.67c-.07-1.48.12-5.68.12-5.68s-6.85-1.39-10.18-2.29c-1.24-.33-1.55-1.75.27-1.96s10.19-.67 10.19-.67s.48-4.97.61-6.01c.13-1.08 1.15-1.28 1.75-.13c.61 1.15 2.03 5.54 2.03 5.54m-4.99-15.52s0 7.36.07 8.23c.07.88-1.21 1.48-1.69.13c-.47-1.35-2.7-7.71-2.7-7.71s-4.59 4.47-5.6 5.35s-2.43.34-1.75-1.08c.67-1.42 3.94-7.18 3.94-7.18s-5.15-4.16-6.3-5.17c-1.7-1.48-.82-2.7.66-2.23s7.97 3.06 7.97 3.06s3.73-7.03 4.11-7.79c.81-1.62 1.82-1.21 1.75.54c-.07 1.75-.94 8.3-.94 8.3s6.94-1.13 8.37-1.35c2.16-.34 2.36.54.81 1.82c-1.55 1.3-8.7 5.08-8.7 5.08"/></svg>