<svg viewBox="0 0 128 128"><radialGradient id="a" cx="65.9" cy="65.2" r="70.1" gradientTransform="rotate(-89.106 62.513 68.552)scale(1 1.103)" gradientUnits="userSpaceOnUse"><stop offset=".2" stop-color="#ee5416"/><stop offset=".2" stop-color="#e95216"/><stop offset=".3" stop-color="#dc4d17"/><stop offset=".4" stop-color="#c64418"/><stop offset=".5" stop-color="#a7391a"/><stop offset=".5" stop-color="#9e351b"/><stop offset=".6" stop-color="#8d311b"/><stop offset=".7" stop-color="#60281a"/><stop offset="1" stop-color="#191919"/></radialGradient><path fill="url(#a)" d="M116.7 124.2H11.4a7.5 7.5 0 0 1-7.5-7.5V11.4c0-4.2 3.3-7.5 7.5-7.5h105.3c4.1 0 7.5 3.3 7.5 7.5v105.3c0 4.1-3.4 7.5-7.5 7.5"/><radialGradient id="b" cx="66.1" cy="69.1" r="35.7" gradientUnits="userSpaceOnUse"><stop offset=".4" stop-color="#f3a05c"/><stop offset="1" stop-color="#ab5931"/></radialGradient><path fill="url(#b)" d="m61.6 76.4-.3 47.8h7l1-50.7-4.1-3.7z"/><path fill="#fff" d="m69.2 58.2 21.5-30.5 4.4.3-19.8 30.6s21-17.2 22.2-18 1.8-.5 2.3 0 .3 1.5-.7 2.3L73.9 62.8l33-8.6 4 1-4.3 2.5-32.3 8.4 36.1 4.3s2 .5 1.8 2.3-1.8 1.6-2.7 1.6L76 71.1l22.5 14.2c1 .6 1.6 2 1 3q-.9 1.2-3 .1L74.2 74.9l24.1 34.5-.5 4.6s-1.4-1-2.4-2.4-28.1-36.8-29.6-36.9-29.9 27.8-29.9 27.8l-6 .4 3-5 22.7-24.3S18.4 86.8 16.7 87c-1.7.4-3.6 1.4-4.2-.3s1.4-2.4 2.8-2.9L54 70l-26-2-1.9-3.7 27.2 2.3L18 46.3l6.3-1.8L55 60.4l-27-30c-.8-.9-1.6-2.1-.5-3.1s2.8.4 3.4 1.2 28.9 31 28.6 30.3L45 21l1.3-2.4 3.5 2.7L64 58l1.2-37.2 4 2.5z"/><path fill="#ffe268" d="m46 14.3 5.7-5.5c1.1-.8 2.5-.2 1.7 1.5s-4.4 7-4.4 7l9.1 7c1.1.7.2 2.3-1 1.7l-10-5.6s-3.4 12.2-3.8 13c-.7 1.8-2 1.6-2.2 0-.1-1.6 1-13.3 1-13.3l-13.3-1.3c-2-.3-2-2.5.5-2.4h12.3l-1.2-7c-.2-1.8 1.2-2.2 2-.9zm19.4 8.5c-1-.5-7.7-6.8-8.4-7.6s0-2.2 1.5-1.3l6 3.3.4-7.2c.2-2 1.5-1.8 2 0s1.1 7 1.1 7l11.2-7.6c1.5-.9 2.7.2 1.3 1.9S69.8 21 70 21.3s5 2.5 6.1 3.2c1.8 1.1 1.2 2.6-.8 2s-6.5-2.7-7.3-3zm28.2 6.6c-.2-.1-9.1-2-10-2.5s-.8-1.8.6-1.4 6.4 1.2 6.4 1.2l-5-10.8c-.5-1.3.4-2 1.3-1 1 .8 5 5.4 5 5.4s.4-5.6.8-7.2 1.7-1.2 2 .1c.3 1 1.4 8.4 1.4 8.4l12.2-4.4c2-.6 2.5.5 1 1.7s-10.6 6-10.4 6.3 5.4 1.5 6.7 2c1.2.3 1.4 1.8-.4 2zm16 23c0 .1 4.3-8.5 5.2-9.7.8-1.2 1.7-.3 1.6.6 0 1-2.6 9.8-2.6 9.8l6.4.2c1.4.2 1.7 1.4 0 1.8l-6.3 1.7 3.4 5.6c.8 1.2-.1 2.5-1.5 1.4-1.3-1-5.4-5.9-5.4-5.9l-6.4 8.5c-1 1.2-2.7.6-1.7-1.2l6-9.8-11.8-3.8c-1.6-.7-1.4-2.2.5-1.9z"/><path fill="#ffe268" d="M111 72.7s-3.5-5-3.9-5.9.1-1.8 1.4-1l5.2 3.6 1.9-2.2c1-1 2-.8 1.4.9l-1 3.3 4.1 1.3c1 .4 1.4 1.3-.3 1.7-.8.3-3.7.7-3.7.7l2.9 6.4c.6 1.6-1.2 2.6-2.1.8l-3.2-5.7-6.9 7c-1.3 1-2.3.9-1.7-.8s5.9-10 5.9-10m-14.5 38 5-18.5c.5-2 2.5-2 2.3 0-.1 2-2.2 18.4-2.2 18.4l10.3-2c1.7-.4 3 .2 1.1 1.4l-10.5 6 1.4 4.6q.7 2.5-1.7 1c-1-.7-3.5-3-3.5-3s-1.9 2.9-2.7 3.6-1.7 1-1.5-.7l1-5s-11.7-2.3-13.5-2.8c-1.6-.4-2-1-.2-1.2zM33.3 101l-.3-9.8c-.1-2.2-1.7-2.4-2.3-.4l-2.3 8s-7-6.5-8-7.6-2.4 0-1.8 1.3l5.9 11.8s-5.1 7.2-6 9 .3 2.5 1.7 2 8-5.1 8-5.1 7.4 7.6 8.3 8.3 2.1.2 1.6-1.3c-.4-1.6-4.6-10.4-4.6-10.4l12.3-3.7c1.5-.4 1.1-2.3-.6-2.2zm-6.7-38.5 6.7-3.3c1-.6 2 .6 1 1.6l-5 4.8 4.8 4.8c1 .8.6 2-1 1.6s-6.6-3-6.6-3l-2.7 5.3c-.7 1-2 .8-2-.7V68s-6.8-1.4-10.1-2.3c-1.2-.4-1.6-1.8.3-2l10.2-.7.6-6c0-1 1.1-1.3 1.7-.1s2 5.5 2 5.5m-5-15.5.1 8.2c0 1-1.2 1.5-1.7.2l-2.7-7.7-5.6 5.3c-1 1-2.4.3-1.7-1 .7-1.5 4-7.3 4-7.3l-6.4-5.1c-1.7-1.5-.8-2.7.7-2.3s8 3.1 8 3.1l4-7.8c.9-1.6 1.9-1.2 1.8.6s-1 8.3-1 8.3l8.4-1.4q3.2-.3.9 1.8c-1.6 1.3-8.7 5.1-8.7 5.1"/></svg>