<svg viewBox="0 0 128 128"><path fill="#176cc7" d="M69 4.2c-1 1-9.4 17.7-9.4 17.7L53.4 47l24.3-2.3L98.3 6.5C99 4.8 99.4 4 96.6 4s-26.5-.8-27.5.1"/><path fill="#fcc11a" d="M81.7 43.3a255 255 0 0 0-37.7 0c-.8 1-.3 6.9 0 7.6.5 1.2 12 5.8 12 5.8v2.9s.7.3 7.4.3 8-.3 8-.3v-2.8s10-5.1 10.5-5.8c.5-.6 1-7-.2-7.7m-10.4 9.1s.2-1.3-.5-1.7-12.6-.3-13.6-.2-1 1.7-1 1.7l-7.4-4-.1-1.3 28 .2v1.8z"/><path fill="#fdffff" d="M59 51.8q-1.5.1-1.6 2.8c0 1.6.5 2.9 1.7 2.8 1.1 0 1.7-1.5 1.6-2.8q0-2.6-1.7-2.8"/><path fill="#f8932a" d="M29.3 92c0 24 21.7 34 36.1 33.6 16.8-.5 34.9-13.2 33.4-36.1C97.4 68 79 57.8 63.3 57.9c-18.3.2-34 13.3-34 34.2"/><path fill="#fcc11a" d="M64.5 121.3h-.7a32 32 0 0 1-20.6-8.3 29 29 0 0 1-9.4-21c0-21.4 18.4-29.3 30.2-29.3 16.1 0 30 12 30.3 29a29.3 29.3 0 0 1-29.8 29.6"/><path fill="#2e9df4" d="M25.5 3.7C25 4.3 49 47.2 49 47.2s4 .5 13 .6 13.5-.5 13.5-.5S56.8 4.2 55.7 3.7c-.6-.2-8-.3-15.3-.4-7.2 0-14.3-.1-14.9.4"/><path fill="#fefffa" d="M52.3 67.4c-1.5-1.3-8.9 2.5-14.1 11.1-3.5 5.8-3.8 13.2-1.6 13.3s2.2-7.2 7-13.6c6-7.7 10.8-9 8.7-10.9"/><path fill="#f8932a" d="M64.4 66.9c-2 0-5 12.9-7.4 14.5s-14.8 0-15 1.8 9.3 9 10.4 11.6-4.7 14.7-3.1 15.8c1.5 1.2 11.5-7.1 14.9-7.1s12.4 8.8 13.9 7.6-3.5-13-2.7-15.6c.8-2.7 11.6-8.4 11.2-11s-13-.7-15.3-2.8-4.8-14.8-7-14.8"/></svg>