<svg xmlns="http://www.w3.org/2000/svg" width="1em" height="1em" viewBox="0 0 128 128"><path fill="#A65F3E" d="M3.16 33.47v65.27c0 1.11.9 2.02 2.02 2.02h115.96c1.11 0 2.02-.9 2.02-2.02V33.47c0-1.11-.9-2.02-2.02-2.02H5.18c-1.12 0-2.02.91-2.02 2.02m83.01 62.81c-5.57 3.57-11.49-2.34-7.91-7.91c.24-.38.56-.7.94-.94c5.57-3.57 11.49 2.34 7.91 7.91c-.25.38-.57.7-.94.94m0-16.83c-5.57 3.57-11.49-2.34-7.91-7.91c.24-.38.56-.7.94-.94c5.57-3.57 11.49 2.34 7.91 7.91c-.25.37-.57.7-.94.94m0-17.83c-5.57 3.57-11.49-2.34-7.91-7.91c.24-.38.56-.7.94-.94c5.57-3.57 11.49 2.34 7.91 7.91c-.25.37-.57.7-.94.94m0-16.83c-5.57 3.57-11.49-2.34-7.91-7.91c.24-.38.56-.7.94-.94c5.57-3.57 11.49 2.34 7.91 7.91c-.25.37-.57.7-.94.94"/><path fill="#FFD54F" d="M3.16 30.47v65.27c0 1.11.9 2.02 2.02 2.02h115.96c1.11 0 2.02-.9 2.02-2.02V30.47c0-1.11-.9-2.02-2.02-2.02H5.18c-1.12 0-2.02.91-2.02 2.02m83.01 62.81c-5.57 3.57-11.49-2.34-7.91-7.91c.24-.38.56-.7.94-.94c5.57-3.57 11.49 2.34 7.91 7.91c-.25.38-.57.7-.94.94m0-16.83c-5.57 3.57-11.49-2.34-7.91-7.91c.24-.38.56-.7.94-.94c5.57-3.57 11.49 2.34 7.91 7.91c-.25.37-.57.7-.94.94m0-17.83c-5.57 3.57-11.49-2.34-7.91-7.91c.24-.38.56-.7.94-.94c5.57-3.57 11.49 2.34 7.91 7.91c-.25.37-.57.7-.94.94m0-16.83c-5.57 3.57-11.49-2.34-7.91-7.91c.24-.38.56-.7.94-.94c5.57-3.57 11.49 2.34 7.91 7.91c-.25.37-.57.7-.94.94"/><path fill="none" stroke="#4E342E" stroke-linecap="round" stroke-miterlimit="10" stroke-width="8" d="M15.06 51.03h32.56M15.06 66.51h23.07m15.96 0h4.84" opacity=".8"/><path fill="#6D4C41" d="M13.56 80.46h3v9.3h-3zm25.15 0h3v9.3h-3zm5.44 0h3v9.3h-3zm-24.68 0h6v9.3h-6zm30.19 0h7v9.3h-7zm-21.52 0h8v9.3h-8z" opacity=".5"/><path fill="#E2A610" d="M122.04 28.45H4.27c-.62 0-1.11.5-1.11 1.11v9.96h74.45c-.72-1.67-.64-3.77.76-5.82c.19-.28.44-.53.72-.72c4.42-2.93 9.1.17 9.1 4.36c0 .77-.16 1.51-.45 2.17h35.41v-9.96c.01-.6-.49-1.1-1.11-1.1"/><path fill="#6D4C41" d="M97.81 48.68h18.23v16.69H97.81z" opacity=".5"/><path fill="none" stroke="#4E342E" stroke-linecap="round" stroke-miterlimit="10" stroke-width="3" d="M98.98 74.14h9.07m-9.07 6.32h14.28" opacity=".8"/></svg>