<svg viewBox="0 0 128 128"><path fill="#464c4f" d="M19.6 35.3c.1-.2 0-4.8 2.5-8.4s5.9-4.1 8.3-4.5c3-.6 10.2-1.4 11.3 1s.3 3.8 2.1 4.5-1.5 4.8-1.5 4.8zm88.3 0s.7-4.5-1.8-7.5c-3.8-4.5-9.8-6-15.4-6-1.8 0-4 .4-4.7 2.6-.4 1.2-.7 2.7-1.5 2.9-1 .2 17.7 6 23.4 8"/><path fill="#5e6268" d="M39 81.3c-3 2.3-7 18.3-13.1 22.5s-20.3 2-21.4-6.6c-.9-7.6.8-23.6 5-40S17 32.8 27 30.2c8-2.2 23.6-3.7 38.7-3.6s28.4.2 36.7 3.4c7.5 2.8 12.6 10.6 16 25.7s6.2 33.3 5.8 39.4c-.6 8.7-13 14.3-22.2 7.5-7.4-5.4-8.8-19.2-12.6-21.2s-47.5-2.2-50.3-.1"/><path fill="#9e9e9e" d="M93.3 77.2c-.8.9.9 2.2 2 5.1s4.3 12.7 7.2 15.4c3.7 3.4 6.6 2.7 7.2 1.7s-2.7-3.8-6.4-10-8.5-14.1-10-12.2m-82.8-2.5c-1 .2-4 15-1.9 21.2 1.9 5.2 8.8 5.5 11.5 4.7 5.2-1.5 6.8-6.5 5.6-7s-5.3 3.3-9.2 1.5c-4.4-2-4.3-7.9-4.9-13.7-.5-5.3 0-7-1-6.7M38 42h-4v-4.4s.1-3.5-3.7-3.4C27 34.2 27 37 27 37.6v4.3h-4.5c-.7 0-3.4 0-3.4 3.5 0 3.2 2.8 3.4 3.4 3.5H27V53c0 .6.1 3.4 3.5 3.4C34 56.5 34 53 34 53v-4.2h4c.9 0 3.4-.2 3.4-3.6S38.4 42 38 42"/><circle cx="48.4" cy="62.4" r="8.5" fill="#afafaf"/><circle cx="77.8" cy="62.5" r="8.5" fill="#afafaf"/><circle cx="48.4" cy="62.2" r="5.7" fill="#c8c8c8"/><circle cx="77.8" cy="62.4" r="5.7" fill="#c8c8c8"/><circle cx="85.8" cy="45.7" r="4.6" fill="#2086fa"/><circle cx="94.9" cy="54.5" r="4.6" fill="#06ac48"/><circle cx="104.1" cy="46.4" r="4.6" fill="#f72e26"/><circle cx="95" cy="37" r="4.6" fill="#fdb700"/></svg>