<svg viewBox="0 0 128 128"><path fill="#c5b3af" d="m97.8 94.3-23.6 17.1-33 1.3-11.6 1.7s6.4 4 12.7 6.3 12 1.5 12 1.5 4.2 2.2 16.7 1.3 18-5.8 18-5.8l1.6.8s4.4-1 9.6-4.6 15.7-13.8 20-25.2a69 69 0 0 0 3.2-33.1c-.1-.7 0-3-.4-3-4.1-.4-24.7 41.4-25.2 41.7"/><path fill="#d8cdc9" d="m33.8 15.9-14.5 7.8-4.3 4.7L6 48s-.7 1.3-.7 2.7v3.6S4.3 66 3.9 67.7q-.9 3.1.5 6c1.4 2.8 7.3 16.9 7.3 16.9l6.2 12s2.3 3.8 5.3 6.8 8.3 5 8.3 5 3 2.1 8 2.2c4.2 0 7.5-1.2 7.5-1.2s4.9 3.5 14.7 3.4c12.2-.2 13-4 13-4s7.1 1.3 17.5-5.4 15.7-20 15.7-20 4.5-1.5 7.5-7.6 8-21.2 8-26.2a46 46 0 0 0-4.6-18.2q-2-4-5-7.4l-3.9-4.5s-2-3.5-3.1-4.7-4.6-4-4.6-4l-16.8-9s-4.2-2.4-6.5-3a609 609 0 0 0-45 11.1"/><path fill="#f2eeec" d="M99.4 31.4C95.6 33 86.5 38 86.8 45s3.5 9 4.8 23.5-1.4 23.7-.5 25c1 1.2 7.7-1.3 11.9-7.1 4-5.4 6.8-17 6.8-17s4.7-1.5 8.6-8.8c3-5.7 3.8-9.8 3.6-13.7 0-2.7-3-11.8-7.4-15.6-3.8-3.2-10.7-1.7-15.2.2"/><path fill="#f1edec" d="M6 48s11.7 5.4 27.9 9.3 32.7 7 36.2 7.5 6-.6 6.7-2.3 1-11.4-1.7-14.8a41 41 0 0 0-5.7-5.5L41 37l-24.6-7.2-1.4-1.4s-3.7 3.6-6 8.5-3 11.2-3 11.2m-.6 6.2C6.2 55 40 64.5 40 64.5s38.6 6.6 38.6 7.4-1.7 10-6 12.7c-4.5 2.7-26 .6-33.6-1-21.6-4.5-35-15-35-15s-1-3.5-.4-8.2c.2-2.5 1.8-6 1.8-6M6 76.3l13.3 8 27 7.1 29.3.3s1.8 2.4 1.4 4.2-2.5 7.9-8.7 10.4a70 70 0 0 1-41-1c-14-5.1-16.8-12.5-19.3-18.2-2.7-6-2-10.8-2-10.8m47.2-46.6L66 16.8 84 9s4.7.2 5.9.5 4.3 1.2 9 4 7.9 7.3 7.9 7.3-4.9-4.4-18.4 2.5-13.7 10.6-16.2 11.2-8 .2-11.7-.7c-6.3-1.5-7.2-4-7.2-4m-32.6-6.3s1.6 2.1 6.2 3.2c4.6 1 9 .2 9 .2s1.4 1.6 5.5 2.5 5.8-.1 6.6-1.2S55.1 17.4 64 12s17-6.5 17-6.5S75.9 3 68.4 3.4 54.5 6.2 54.5 6.2l-3.6.4s-5.6-.7-12.4 2.2-14.3 9.7-14.3 9.7z"/><path fill="#c5b3af" d="M66.9 41.3s6.6-1.9 9.3-3.3l11.5-5.8s-3.5 6-3.7 9.8c-.3 4 .7 12.1.7 12.1l-2-1s-4.6-4.5-6.4-6-9.4-5.8-9.4-5.8"/><path fill="#9b8d8b" d="M86.5 74.5c-.2 0-21-1.8-55.8-10.4a99 99 0 0 1-26-8.5l.4-1.9.2-2.5s6.8 4.1 26.4 9c34.4 8.4 55 10.2 55.1 10.2zM61.7 94.3A117 117 0 0 1 26 88.8c-12.8-4-19.5-9-20-9.4q.1-.2-.2-2.4c-.3-2.2-1.3-3-1.3-3 .1 0 10.6 7.1 22.7 11 30 9.7 57.5 3 57.8 2.9l1 4c-.7.1-10.3 2.5-24.3 2.5m18 21.3a26 26 0 0 1-5.8-4.7l-.6-.6h-1A102 102 0 0 1 14.9 98s.7 4 3.5 5.5a87 87 0 0 0 8 3.6c.2.9 1 3.6 2.4 6.1 2.3 4 8.1 5.2 8.1 5.2s-3.4-4.3-4.8-7.4l-.9-2.1a84 84 0 0 0 10.4 2.8 28 28 0 0 0 9.7 10.4c4.1 1.8 7.8 1.4 7.8 1.4s-5.6-3.6-8.6-6.5c-1-1.1-2.9-3.3-3.6-4.3 13 2.2 22.3 1.6 25.1 1.4 1 1 3.3 3 6 4.6q2.4 1.6 4.7 2.1c3.2.7 5.3-1.6 5.3-1.6s-4.5-1.5-8.2-3.5"/><path fill="#9b8d8b" d="m73.8 113.8-2.3-3.3 1.1 1.6-1.1-1.6s12.2-9.2 13.3-33.2c1-24-8.1-33.1-8.2-33.2l2.8-3c.4.5 10.6 10.4 9.4 36.4s-14.4 35.8-15 36.2"/><path fill="#9b8d8b" d="m84.2 120.8-1.3-3.4c.7-.1 20.2-3.8 24.5-39.5A80 80 0 0 0 95 27.7l3.3-2.3c.6 1 16.7 24 13.2 53-4.7 38.8-26.2 42.5-27.2 42.4"/><path fill="#9b8d8b" d="M94.5 25.4a40 40 0 0 0-17.6 15A231 231 0 0 1 51.1 37c2.3-4 8-13 16.8-18.7 11.7-7.8 21.4-8.8 21.7-8.8s-3-3-5.8-2.5a55 55 0 0 0-36.7 29.2l-9-2.2-2.8-.8A49 49 0 0 1 60.5 4.5s-5.8-1.6-10.8 2q-4.5 3.3-9 8.7A70 70 0 0 0 31.5 32l-10.7-3.3c.7-1.7 1.8-4 3-6 2-3.6 4.4-7.3 4.4-7.3S23 17.2 20 22.1c-1.4 2.2-1.9 3.7-2.6 5.5l-1.4-.3c-2.2.1-3 3.7-3 3.7.3.1 4.8 1.6 24.1 7A225 225 0 0 0 78 44.7h1.3l.6-1a37 37 0 0 1 16.2-14.5c8.4-3.2 15.4-2 15.4-2s-.2-1-.9-2c-.5-.8-1.9-1.6-1.9-1.6-.3-.1-4.4-2-14.1 1.8"/></svg>