<svg xmlns="http://www.w3.org/2000/svg" width="1em" height="1em" viewBox="0 0 128 128"><path fill="#C5B3AF" d="m97.83 94.32l-23.68 17.09l-32.93 1.25l-11.61 1.73s6.43 3.92 12.7 6.27c6.27 2.35 11.92 1.57 11.92 1.57s4.23 2.2 16.78 1.25c12.55-.94 18.04-5.8 18.04-5.8l1.57.78s4.39-.94 9.57-4.55c5.18-3.61 15.74-13.78 19.92-25.25c4.56-12.54 4.55-24.62 3.29-33.09c-.1-.66-.03-2.89-.38-2.92c-4.16-.4-24.76 41.38-25.19 41.67"/><path fill="#D8CDC9" d="m33.84 15.9l-14.59 7.84l-4.23 4.7l-9.1 19.6s-.63 1.25-.63 2.67v3.61s-1.01 11.65-1.4 13.34c-.47 2.04-.47 4.23.47 5.96c.94 1.73 7.37 16.94 7.37 16.94l6.12 12.08s2.35 3.76 5.33 6.74s8.31 5.02 8.31 5.02s3.05 2.15 8 2.2c4.18.04 7.47-1.16 7.47-1.16s4.9 3.49 14.76 3.36c12.22-.16 12.9-3.93 12.9-3.93s7.18 1.27 17.53-5.48c10.35-6.74 15.72-19.93 15.72-19.93s4.55-1.57 7.53-7.68s8-21.17 8-26.19c0-3.53-1-10.57-4.57-18.14c-1.35-2.86-3.02-5.1-5-7.42c-1.47-1.72-3.9-4.49-3.9-4.49s-2.06-3.51-3.16-4.77s-4.55-3.92-4.55-3.92l-16.78-9.1s-4.23-2.35-6.59-2.98C76.5 4.14 33.84 15.9 33.84 15.9"/><path fill="#F2EEEC" d="M99.4 31.43c-3.81 1.61-12.89 6.42-12.57 13.48s3.48 8.95 4.73 23.53c1.25 14.59-1.41 23.68-.47 24.94c.94 1.25 7.71-1.32 11.9-7.09c3.92-5.41 6.77-16.9 6.77-16.9s4.7-1.57 8.64-8.93c3.04-5.69 3.81-9.78 3.63-13.65c-.12-2.66-3.06-11.82-7.46-15.61c-3.75-3.22-10.71-1.65-15.17.23"/><path fill="#F1EDEC" d="M5.93 48.06s11.76 5.33 27.92 9.25s32.78 6.9 36.23 7.53c3.45.63 5.96-.63 6.74-2.35c.78-1.73.91-11.37-1.72-14.83c-1.82-2.4-5.74-5.5-5.74-5.5l-28.31-5.08l-24.62-7.21l-1.41-1.41s-3.76 3.61-6.12 8.47s-2.97 11.13-2.97 11.13m-.67 6.26c.86.64 34.67 10.14 34.67 10.14s38.52 6.68 38.52 7.45c0 .77-1.67 10.02-6.04 12.71c-4.37 2.7-25.98.54-33.51-1.03C17.33 79.11 3.85 68.58 3.85 68.58s-.9-3.47-.39-8.22c.27-2.46 1.8-6.04 1.8-6.04"/><path fill="#F1EDEC" d="m6.03 76.28l13.23 8.09l27.09 7.06l29.28.26s1.8 2.44 1.41 4.24c-.39 1.8-2.57 7.83-8.73 10.4c-5.59 2.33-25.03 4.77-40.96-1.03c-14.12-5.14-16.82-12.46-19.39-18.23c-2.64-5.94-1.93-10.79-1.93-10.79m47.22-46.54l12.76-12.91l18.02-7.81s4.65.15 5.86.45s4.35 1.2 9.01 4.05s7.87 7.24 7.87 7.24s-4.87-4.39-18.38 2.52s-13.67 10.66-16.22 11.26c-2.55.6-7.92.15-11.71-.75c-6.31-1.5-7.21-4.05-7.21-4.05M20.7 23.53s1.63 2.07 6.21 3.16c4.57 1.09 9.04.22 9.04.22s1.31 1.63 5.45 2.5c4.14.87 5.77-.11 6.64-1.2c.87-1.09 7.08-10.78 16.01-16.23s17.04-6.44 17.04-6.44s-5.26-2.62-12.77-2.19s-13.86 2.87-13.86 2.87l-3.59.33s-5.55-.65-12.42 2.29s-14.27 9.69-14.27 9.69z"/><path fill="#C5B3AF" d="M66.85 41.32s6.68-1.89 9.36-3.29c2.68-1.4 11.48-5.87 11.48-5.87s-3.44 6.13-3.7 9.82c-.28 4 .67 12.12.67 12.12l-1.91-1.08s-4.67-4.45-6.45-5.86s-9.45-5.84-9.45-5.84"/><path fill="#9B8D8B" d="M86.49 74.5c-.21-.02-21.01-1.85-55.79-10.38c-20.37-5-25.62-8.34-25.95-8.55c0 0 .26-.59.4-1.86c.13-1.27.15-2.56.15-2.56c.08.05 6.79 4.19 26.38 8.99c34.44 8.45 54.96 10.26 55.16 10.28zM61.73 94.28c-10.17 0-22.67-1.24-35.76-5.46C13.24 84.72 6.5 79.75 6 79.4c0 0 .11-.94-.25-2.39c-.36-1.45-1.24-3.16-1.24-3.16c.12.08 10.58 7.15 22.72 11.06c29.9 9.64 57.46 2.94 57.73 2.87l1 3.98c-.68.18-10.26 2.52-24.23 2.52m18.02 21.3c-3.27-1.87-5.8-4.61-5.83-4.64l-.62-.67l-.91.12c-.15.02-15.38 1.98-36.79-3.91c-10.21-2.81-19.12-7.4-20.84-8.58c0 0 .72 3.96 3.59 5.47a86.63 86.63 0 0 0 7.92 3.64c.23.85.99 3.56 2.46 6.12c2.28 3.96 8.08 5.15 8.08 5.15c-.03-.04-3.44-4.32-4.85-7.37c-.36-.79-.62-1.49-.82-2.11c1.16.38 2.33.74 3.51 1.07c2.36.65 4.64 1.2 6.83 1.68c.8 1.55 2.46 4.36 5.23 7.1c1.14 1.13 2.71 2.58 4.53 3.37c4.07 1.76 7.74 1.36 7.74 1.36c-.06-.05-5.59-3.58-8.54-6.51c-1.11-1.1-2.92-3.29-3.64-4.3c13.09 2.26 22.32 1.66 25.15 1.38c1.04 1.03 3.28 3.08 6.04 4.66c1.61.92 3.06 1.75 4.66 2.1c3.18.69 5.29-1.58 5.29-1.58c-.02-.02-4.58-1.5-8.19-3.55"/><path fill="#9B8D8B" d="m73.8 113.75l-2.33-3.25l1.16 1.63l-1.17-1.62c.12-.09 12.24-9.19 13.33-33.16c1.08-23.98-8.09-33.19-8.19-33.28l2.76-2.89c.43.41 10.6 10.36 9.42 36.36c-1.17 26.03-14.41 35.8-14.98 36.21"/><path fill="#9B8D8B" d="m84.22 120.83l-1.36-3.43c.79-.13 20.28-3.84 24.57-39.48c3.29-27.33-12.39-49.99-12.55-50.21l3.27-2.31c.68.97 16.74 24.09 13.25 53c-4.68 38.85-26.18 42.46-27.18 42.43"/><path fill="#9B8D8B" d="M94.47 25.4c-9.4 3.66-15.57 12.05-17.56 15.08c-3.41-.26-13.69-1.18-25.77-3.56c2.28-4.06 7.95-12.95 16.74-18.76c11.68-7.71 21.47-8.73 21.7-8.79s-2.9-3.06-5.76-2.47c-5.12 1.06-11.71 3.69-18.14 7.93C55.2 21.76 49 32.36 47.05 36.08c-2.93-.64-5.93-1.37-8.94-2.19c-.95-.26-1.87-.52-2.77-.77c1.41-3.49 4.55-10.58 8.43-15.35C51.39 8.43 60.43 4.53 60.53 4.49c0 0-5.79-1.63-10.85 2.07c-2.92 2.14-6.05 5.06-9 8.68c-4.4 5.4-7.8 13.23-9.2 16.77c-4.36-1.27-7.9-2.36-10.7-3.28c.75-1.7 1.81-3.97 2.95-5.95c2.11-3.69 4.42-7.34 4.44-7.37c0 0-5.15 1.81-8.11 6.69c-1.35 2.21-1.82 3.72-2.61 5.53c-.48-.16-.87-.35-1.31-.32c-2.37.13-3.26 3.59-3.26 3.59c.29.13 4.79 1.62 24.16 6.95c20.38 5.6 40.65 6.82 40.85 6.83l1.26.07l.63-1.09c.06-.1 6.22-10.54 16.19-14.42c8.4-3.27 15.4-1.99 15.47-1.98c0 0-.26-.99-.92-2.08c-.49-.8-1.88-1.61-1.88-1.61c-.33-.09-4.49-1.93-14.17 1.83"/></svg>