<svg xmlns="http://www.w3.org/2000/svg" width="1em" height="1em" viewBox="0 0 128 128"><path fill="#00AA48" d="M123.16 52.83c-1.8 0-1.8 1.9-1.8 1.9v4.07h-.83c-1.34-4.22-6.09-5.39-6.09-5.39s-3.22 8.98-3.28 9.25c-.05.26 3.06 5.97 3.06 5.97s5.58-1.08 6.51-6.08h.62v3.54s-.16 2.01 1.85 2.01c1.69 0 1.74-1.95 1.74-1.95V54.74c.02 0 .07-1.91-1.78-1.91M13.83 54.75s-3.73-.09-4.41 0c-1.63.22-1.89 2-2.5 2.07c-.49.05-3.31-.24-4.19.33c-.93.6-1.03 6.53-.11 7.13c.93.6 3.65.27 4.24.54S8 66.67 9.69 66.83c1.69.16 6.48-.11 6.48-.11z"/><path fill="#FCC11A" d="M100.3 33.39h-5.94c-1.52-8.85-8.7-9.93-13.75-10.1c-2.57-.09-43.56 0-48.95.09c-6.33.1-11.47 5.39-11.55 13.27s6.76 12.5 10.78 13.01c3.53.45 55.2 0 55.2 0s6.7-2.25 8.17-10.53h3.81z"/><path fill="#FEFFFF" d="M32.86 30.22c.27 3.25 2.65 3.34 7.96 3.25c5.39-.09 32.27 0 34.75-.09s4.02-2.05 3.77-3.42s-1.71-2.83-4.96-2.91c-3.51-.09-35-.17-37.4-.09c-2.41.1-4.29 1.21-4.12 3.26"/><path fill="#EE3E23" d="M86.33 90.15c-.99-2.96-6.58-9.14-6.58-9.14s-2.72-.37-2.82 2.7h-4.01c-.12-1.77-.6-2.96-2.17-2.96c-2.03 0-1.92 3.13-1.92 4.95c0 1.82.28 3.82 2.03 3.87c1.43.04 1.89-.93 2.03-2.62h4.56c1 2.79 3.11 4.64 3.58 4.5c.6-.16 6.29 1.66 5.3-1.3"/><path fill="#FF8E00" d="M97.75 48.77s-79.06.67-82.09.9s-3.14 4.59-3.14 6.83s.02 10.18.13 11.86s.88 4.49 5.69 4.49s27.44.11 27.44.11s-.78 3.36 2.46 5.94c3.25 2.58 5.71 2.13 11.65 2.24c5.94.11 19.28-.03 19.28-.03s8.71 26.24 9.39 27.69c.67 1.46.9 3.7 2.24 3.81c1.34.11 15.45.11 17.13 0c1.68-.11 2.8-1.79 1.57-4.59c-1.23-2.8-10.3-26.65-10.3-26.65s4.67-.69 6.61-3.7c1.48-2.3 1.57-5.38 1.57-5.38s4.48.56 6.83-2.02c2.35-2.58 1.57-5.6 1.68-10.08c.11-4.48-.34-7.17-1.23-8.51S112.53 50 112.53 50s2.39-1.45 2.46-3.81c.11-3.36-.22-12.88-.22-14.56s-1.12-3.25-3.47-3.36c-1.79-.09-8.4-.06-11.2-.11c-3.43-.07-3.25 2.46-3.36 6.05c-.09 2.91-.11 10.18-.11 11.2c0 2.01 1.12 3.36 1.12 3.36"/><path fill="#FF8E00" d="M56.49 79.15s-.91 6.99 3.02 10.86c2.54 2.49 4.77 4.25 14.84 4.39c10.14.14 13.49.14 13.49.14l-1.01-5.32s-13.95 1.01-19.77-.14c-2.45-.48-5.18-2.48-5.13-5.41c.04-2.28-.03-5.23-.03-5.23z"/><path fill="#EC3F23" d="M51.7 70.92c0 1.76.76 2.23 3.11 2.23h43.82c1.24 0 2.87-.47 2.82-2.4c-.06-1.94-2.17-1.64-2.99-1.64h-43.7c-1.76 0-3.06.4-3.06 1.81"/><path fill="#FCC11A" d="M27.92 47.96v25.91c0 .47.07 1.62 1.21 1.62c1.15 0 1.42-.81 1.42-1.62V47.56zm4.66-.58v26.18c0 .88.2 1.89 1.28 1.89s1.42-.94 1.42-1.96V46.57z"/><path fill="#EE3E23" d="M86.5 84.1c.15 1.57 1.18 2.25 2.98 2.31c1.8.06 11.59 0 11.59 0l-1.58-4.39H89.36c-.73 0-3.08-.23-2.86 2.08m1.8 5.85c.15 1.17.62 2.31 2.59 2.31h12.49l-1.69-4.45H90.83c-.96 0-2.81 0-2.53 2.14m15.7 3.88H92.01c-1.13 0-2.08.68-1.91 2.03c.17 1.35.73 2.08 2.42 2.14c1.69.06 12.94 0 12.94 0zm2.14 5.63H93.93c-1.35 0-2.31.79-1.8 2.25s1.52 1.69 2.48 1.74c.96.06 13 0 13 0z"/></svg>