<svg viewBox="0 0 128 128"><path fill="#00aa48" d="M123.2 52.8c-1.8 0-1.8 2-1.8 2v4h-.9c-1.3-4.2-6-5.4-6-5.4l-3.3 9.3 3 6s5.6-1.2 6.5-6.2h.7v3.6s-.2 2 1.8 2c1.7 0 1.7-2 1.7-2V54.8s.1-1.9-1.7-1.9m-109.4 2H9.4c-1.6.2-1.9 2-2.5 2-.5 0-3.3-.2-4.2.4-.9.5-1 6.5 0 7 .8.7 3.6.3 4.2.6s1.1 1.9 2.8 2 6.5 0 6.5 0z"/><path fill="#fcc11a" d="M100.3 33.4h-6c-1.5-8.9-8.6-10-13.7-10.1h-49c-6.3.2-11.4 5.5-11.5 13.3S27 49.2 31 49.7c3.5.5 55.2 0 55.2 0s6.7-2.2 8.2-10.5H98z"/><path fill="#feffff" d="M32.9 30.2c.2 3.3 2.6 3.4 8 3.3l34.7-.1c2.5-.1 4-2 3.7-3.4s-1.7-2.9-5-3H37c-2.4 0-4.3 1.2-4.1 3.2"/><path fill="#ee3e23" d="M86.3 90.2c-1-3-6.5-9.2-6.5-9.2s-2.8-.4-2.9 2.7h-4q0-2.8-2.2-3c-2 0-1.9 3.2-1.9 5s.3 3.8 2 3.9q2.1-.1 2-2.6h4.7c1 2.7 3 4.6 3.5 4.5.6-.2 6.3 1.6 5.3-1.3"/><path fill="#ff8e00" d="M97.8 48.8s-79.1.6-82.1.9-3.2 4.6-3.2 6.8l.1 11.9c.1 1.7 1 4.4 5.7 4.4l27.5.2s-.8 3.3 2.4 5.9S54 81 60 81.1s19.3 0 19.3 0 8.7 26.2 9.4 27.7c.6 1.5.9 3.7 2.2 3.8H108c1.6-.1 2.8-1.8 1.6-4.6S99.3 81.4 99.3 81.4s4.7-.7 6.6-3.7c1.5-2.3 1.6-5.4 1.6-5.4s4.5.5 6.8-2 1.6-5.6 1.7-10.1-.4-7.2-1.2-8.5-2.2-1.7-2.2-1.7 2.4-1.5 2.5-3.8c.1-3.4-.2-12.9-.2-14.6s-1.2-3.2-3.5-3.3l-11.2-.1c-3.4-.1-3.3 2.4-3.4 6v11.2c0 2 1 3.4 1 3.4"/><path fill="#ff8e00" d="M56.5 79.2s-1 7 3 10.8c2.6 2.5 4.8 4.3 14.9 4.4l13.4.1-1-5.3s-14 1-19.7-.1c-2.5-.5-5.2-2.5-5.2-5.4v-5.3z"/><path fill="#ec3f23" d="M51.7 71q-.2 2.4 3.1 2.2h43.8c1.3 0 2.9-.5 2.9-2.4-.1-2-2.2-1.7-3-1.7H54.8q-2.9-.1-3.1 1.8"/><path fill="#fcc11a" d="M28 48v25.9c0 .4 0 1.6 1.1 1.6q1.7-.2 1.5-1.6V47.6zm4.6-.6v26.2c0 .8.2 1.9 1.3 1.9s1.4-1 1.4-2v-27z"/><path fill="#ee3e23" d="M86.5 84.1q.3 2.3 3 2.3H101L99.5 82H89.4c-.8 0-3.1-.2-2.9 2.1m1.8 5.9c.2 1.1.6 2.3 2.6 2.3h12.5l-1.7-4.5H90.8c-1 0-2.8 0-2.5 2.1m15.7 4H92c-1.1 0-2 .6-1.9 2s.7 2 2.4 2.1 13 0 13 0zm2.1 5.6H94c-1.3 0-2.3.7-1.8 2.2s1.6 1.7 2.5 1.7h13z"/></svg>