<svg xmlns="http://www.w3.org/2000/svg" width="1em" height="1em" viewBox="0 0 128 128"><path fill="#AC5810" d="M77.37 19.32C46.83 3.21 19.03 14.69 9.01 30.38c-3.28 5.13-5.6 14.46-5.51 21.86c.18 15.23 8.61 32.2 26.8 49.32c22.38 21.06 45.22 19.22 52.48 17.45c9.14-2.23 15.27-4.13 14.33-12.65c-.12-1.12-1.08-3.15-2.53-4.04c-4.65-2.82-14.36-4.29-18.93-11.08c-6.64-9.89 1.62-10.39 9.53-6.16c8.47 4.53 13.31 7.36 21.81 6.58c6.23-.57 15.29-4.33 16.52-14.84c1.1-9.51-12.78-39.9-46.14-57.5zM89.84 71c-2.34 3.56-8.12 2.34-11.91-1.02c-3.79-3.36-4.28-8.96-1.82-11.16c2.5-2.23 7.2-1.72 10.99 1.64c3.78 3.37 4.57 7.74 2.74 10.54z"/><path fill="#F2A259" d="M78.71 15.69C48.17-.42 20.3 12.04 10.28 27.73C.25 43.43 4.61 72.5 31.63 97.93c22.38 21.06 45.22 19.22 52.48 17.45c9.14-2.23 15.59-6.58 11.57-12.13c-2.77-3.83-12.7-6.72-18.69-15.64c-6.64-9.89 1.62-10.39 9.53-6.16c8.47 4.53 13.31 7.36 21.81 6.58c6.23-.57 15.65-5.39 15.37-15.13c-.29-9.57-11.63-39.6-44.99-57.21zm14.06 55.03c-2.85 3.08-8.92 2.24-13.56-1.86c-4.63-4.11-6.08-9.93-3.23-13c2.85-3.08 8.92-2.24 13.56 1.86c4.64 4.1 6.08 9.93 3.23 13z"/><path fill="#EEE" d="M47.62 84.66c1.15-2.94 9.33-6.16 16.85-.81c2.11 1.5 4.75 5.32 4.48 10.12c-.88 15.68-26.61 4.22-21.33-9.31z"/><path fill="#2686C6" d="M23.73 58.07c2.63-4.2 9.02-4.68 14.61-1.05c4.98 3.23 9.14 11.18 3 16.38c-3.29 2.79-8.98 1.06-12.49-1.63c-4.26-3.25-7.95-9.18-5.12-13.7z"/><path fill="#FFEE58" d="M57.67 21.42c.81-3.33 6.46-3.9 10.46-2.41c6.91 2.58 10.04 9.42 7.49 13.23c-3.73 5.57-11.86 3.66-14.94.47c-5.23-5.4-3.69-8.5-3.01-11.29z"/><path fill="#7CB342" d="M97.71 37.72c5.54 2.52 6.26 6.51 5.2 9.42c-.66 1.8-2.01 4.27-4.77 4.49c-4.67.38-5.32-3.48-8.65-4.54c-2.8-.89-3.94-4.72-2.84-7.29c1.02-2.37 4-5.3 11.06-2.08z"/><path fill="#B0B0B0" d="M66.97 96.96c-1.38 1.25-6.17 2.79-12.25-1.01c-2.06-1.29-4.03-3.16-5.14-5.96c-.87-2.2-.68-4.32-.29-5.26c1.12-2.71 2.83-3.21 2.83-3.21c-1.72-.12-4.97 2.16-5.51 5.15c-.17.94-1.38 6.82 6.41 12.15c6.71 4.6 16.63 4.17 15.98-5.09c-.3 1.14-1.15 2.44-2.03 3.23z"/><path fill="#01579B" d="M44.26 65.72c-.19 3.57-4.37 5.45-6.7 5.46c-6.59.01-12.51-4.13-12.92-11.5c-.07-1.32.58-3.23.58-3.23c-.87.37-2.1 2.25-2.36 3.31c-1.54 6.36 4.87 13.77 11.62 15.27c3.42.76 7.73-.41 9.3-3.47c1.12-2.18.9-4.05.48-5.84z"/><path fill="#DF7F14" d="M67.32 32.72c-4.48-.51-6.96-3.44-7.61-4.11c-1.78-1.86-2.88-3.67-2.24-6.35c.2-.86.69-1.96 1.29-2.58c-.73.24-1.91 1.81-2.28 2.66c-.38.85-1.76 4.04 1.2 7.97c1.83 2.44 5.02 5.19 9.74 5.85c3.35.47 5.75-.73 7.75-2.68c1.36-1.33 1.96-4.33 1.15-5.88c.13 1.13-1.94 5.93-9 5.12z"/><path fill="#558B2F" d="M104.17 44.85c-.41-1.51-1.58-3.08-1.7-3.16c.51.98 1.52 3.92-.6 6.78c-1.07 1.44-4.29 3.21-8.09.13c-1.12-.91-2.02-1.81-4.04-2.55c-5.13-1.89-2.89-7.11-1.11-8.73c-1.4.73-2.67 2.04-3.2 4.04c-.74 2.79 1.09 5.71 3.87 7.11c3.16 1.59 4.18 4.66 8.51 4.66c.22 0 .45-.01.7-.03c2.92-.25 4.15-1.38 5.04-2.76c1.09-1.72 1.12-3.67.62-5.49z"/><path fill="#F44336" d="M25.82 25.79c2.28-2.25 6.25-4.63 12.06-1.6c3.5 1.82 7.57 3.96 5.73 11.36c-1.14 4.59-7.82 7.02-13.4 1.91c-2.21-2.02-10.61-5.53-4.39-11.67z"/><path fill="#C62828" d="M44.94 34.56c.07-1.75-.83-3.88-1.14-4.6c.05 1.05.96 3.7-3.21 7.21c-1.45 1.22-4.08 2.15-6.95 1.02c-1.47-.58-3.58-3.01-5.09-3.62c-5.61-2.26-3.19-8.27-2.4-9.09c-1.27.89-2.35 2.31-2.75 4.38c-.52 2.71-.04 5.27 3.68 8.2c10.56 8.33 13.8 3.31 14.95 2.03c1.45-1.56 2.83-3.6 2.91-5.53z"/><path fill="#FFF" d="M65.74 19.36c-1.47-.69-5.67-.49-6.48 3.01c-.49 2.1 1.05 4.23 2.5 3.98c1.65-.28.77-2.85 1.76-3.58c1.51-1.1 4.28-2.44 2.22-3.41zm-30.98 5.1c-1.45-.96-6.08-.97-7.47 2.58c-.84 2.13.47 4.6 2.04 4.56c1.79-.04.93-2.15 2.42-3.49c1.88-1.69 5.04-2.31 3.01-3.65zm-.69 32.04c-1.37-.87-5.43-1.21-7.11 1.97c-1.23 2.34.46 4.92 1.93 4.85c1.67-.08 1.11-2.74 2.18-3.34c1.63-.91 4.92-2.26 3-3.48zM57.4 83.13c-1.47-.69-5.67-.49-6.48 3.01c-.49 2.1 1.05 4.23 2.5 3.98c1.65-.28.77-2.85 1.76-3.58c1.5-1.1 4.27-2.44 2.22-3.41zm37.68-45.08c-1.32-.94-5.49-1.49-6.91 1.81c-.85 1.98.28 4.35 1.75 4.36c1.67.01 1.26-2.67 2.37-3.21c1.67-.81 4.64-1.64 2.79-2.96z"/></svg>