<svg xmlns="http://www.w3.org/2000/svg" width="1em" height="1em" viewBox="0 0 128 128"><path fill="#82AEC0" d="m21.45 48.39l-2.1-5.81l92.28-28.5c1.1-.37 2.3.22 2.7 1.34c.4 1.12-.14 2.34-1.22 2.77l-91.66 30.2z"/><path fill="#DE7340" d="M115.59 46.1c-7.62-5.2-10.78-5.35-13.41-5.35H25.82c-2.63 0-5.79.16-13.41 5.35C4.79 51.3 4 54.63 4 61.79v42.51c0 5.05 4.09 9.14 9.14 9.14h101.73c5.05 0 9.14-4.09 9.14-9.14V61.79c-.01-7.16-.8-10.49-8.42-15.69z"/><path fill="#FFAB00" d="M115.25 51.31H12.75C7.92 51.31 4 55.23 4 60.06v55.2c0 4.83 3.92 8.75 8.75 8.75h102.51c4.83 0 8.75-3.92 8.75-8.75v-55.2c-.01-4.83-3.93-8.75-8.76-8.75z"/><path fill="#212121" d="M112.43 88.18H60.48c-1.67 0-3.02-1.35-3.02-3.02V68.79c0-1.67 1.35-3.02 3.02-3.02h51.96c1.67 0 3.02 1.35 3.02 3.02v16.37a3.032 3.032 0 0 1-3.03 3.02z"/><g fill="#DE7340"><circle cx="72.66" cy="108.23" r="9.18"/><circle cx="104.48" cy="108.23" r="9.18"/></g><circle cx="70.54" cy="106.36" r="9.18" fill="#FCEBCD"/><circle cx="102.37" cy="106.36" r="9.18" fill="#FCEBCD"/><path fill="#78909C" d="M99.97 106.21c-.35 0-.71-.11-1.01-.34l-4.79-3.64s.33-.69.89-1.42s1.13-1.24 1.13-1.24l4.79 3.64c.73.56.88 1.61.32 2.34c-.33.43-.83.66-1.33.66z"/><path fill="none" stroke="#82AEC0" stroke-miterlimit="10" stroke-width="2" d="M57.46 76.97h57.99"/><path fill="#82AEC0" d="M61.37 71.35h5.54v2.54h-5.54zm43.33 0h5.54v2.54h-5.54zm-10.83 0h5.54v2.54h-5.54zm-10.84 0h5.54v2.54h-5.54zm-10.83 0h5.54v2.54H72.2zm-5.29 8.71h3.52v2.54h-3.52zm11.42 0h3.52v2.54h-3.52zm11.43 0h3.52v2.54h-3.52zm11.42 0h3.52v2.54h-3.52z"/><path fill="#2F7889" d="M74.97 71.35h1.4v2.54h-1.4zm0 4.62h1.4v2.01h-1.4z"/><path fill="none" stroke="#F44336" stroke-miterlimit="10" stroke-width="2" d="M74.33 65.77v22.41"/><path fill="#DE7340" d="M112.43 65.77c1.67 0 3.02 1.35 3.02 3.02v16.37c0 1.67-1.35 3.02-3.02 3.02H60.48c-1.67 0-3.02-1.35-3.02-3.02V68.79c0-1.67 1.35-3.02 3.02-3.02h51.95m0-2H60.48c-2.77 0-5.02 2.25-5.02 5.02v16.37c0 2.77 2.25 5.02 5.02 5.02h51.96c2.77 0 5.02-2.25 5.02-5.02V68.79a5.038 5.038 0 0 0-5.03-5.02z"/><path fill="#78909C" d="M70.54 105.02c-.92 0-1.67-.75-1.67-1.67v-6.02s.75-.15 1.67-.15c.92 0 1.67.15 1.67.15v6.02c0 .92-.74 1.67-1.67 1.67z"/><path fill="none" stroke="#546E7A" stroke-linecap="round" stroke-miterlimit="10" stroke-width="4" d="M12.94 67H46.8m-33.86 9.01H46.8m-33.86 9.02H46.8m-33.86 9.01H46.8m-33.86 9.01H46.8m-33.86 9.01H46.8"/><path fill="#FFF59D" d="M117.45 71.19c0-4.33-3.07-4.7-3.07-4.7c.64.56.88 1.27.95 1.5c.01.03.12.32.12.81v16.37c0 .83-.34 1.59-.88 2.13s-1.3.88-2.13.88H60.48c-.52 0-.84-.13-.9-.15c-1-.31-1.77-1.12-2.02-2.14c-.01-.02-.02-.04-.02-.06c0 0-.65 1.3-.38 2.44c.25 1.03 1.32 1.91 3.32 1.91h51.96c2.77 0 5.02-2.25 5.02-5.02l-.01-13.97z"/></svg>