<svg xmlns="http://www.w3.org/2000/svg" width="1em" height="1em" viewBox="0 0 128 128"><radialGradient id="notoColdFace0" cx="63.6" cy="2288.9" r="56.96" gradientTransform="translate(0 -2226)" gradientUnits="userSpaceOnUse"><stop offset=".5" stop-color="#FDE030"/><stop offset=".92" stop-color="#F7C02B"/><stop offset="1" stop-color="#F4A223"/></radialGradient><path fill="url(#notoColdFace0)" d="M63.6 118.8c-27.9 0-58-17.5-58-55.9S35.7 7 63.6 7c15.5 0 29.8 5.1 40.4 14.4c11.5 10.2 17.6 24.6 17.6 41.5s-6.1 31.2-17.6 41.4c-10.6 9.3-25 14.5-40.4 14.5z"/><radialGradient id="notoColdFace1" cx="63.6" cy="2288.9" r="56.96" gradientTransform="translate(0 -2226)" gradientUnits="userSpaceOnUse"><stop offset=".16" stop-color="#40E3E7"/><stop offset=".51" stop-color="#3FE1E7"/><stop offset=".65" stop-color="#39DAE7"/><stop offset=".77" stop-color="#30CDE6"/><stop offset=".86" stop-color="#23BCE5"/><stop offset=".94" stop-color="#13A5E4"/><stop offset="1" stop-color="#018CE3"/></radialGradient><path fill="url(#notoColdFace1)" d="M63.6 118.8c-27.9 0-58-17.5-58-55.9S35.7 7 63.6 7c15.5 0 29.8 5.1 40.4 14.4c11.5 10.2 17.6 24.6 17.6 41.5s-6.1 31.2-17.6 41.4c-10.6 9.3-25 14.5-40.4 14.5z"/><path fill="#018CE3" d="M111.49 29.67c5.33 8.6 8.11 18.84 8.11 30.23c0 16.9-6.1 31.2-17.6 41.4c-10.6 9.3-25 14.5-40.4 14.5c-18.06 0-37-7.35-48.18-22.94c10.76 17.66 31 25.94 50.18 25.94c15.4 0 29.8-5.2 40.4-14.5c11.5-10.2 17.6-24.5 17.6-41.4c0-12.74-3.47-24.06-10.11-33.23z"/><linearGradient id="notoColdFace2" x1="38.099" x2="44.599" y1="122.739" y2="106.489" gradientTransform="matrix(1 0 0 -1 0 130)" gradientUnits="userSpaceOnUse"><stop offset="0" stop-color="#FFF"/><stop offset=".21" stop-color="#F6FCFF"/><stop offset=".56" stop-color="#DEF3FF"/><stop offset="1" stop-color="#B7E4FF"/></linearGradient><path fill="url(#notoColdFace2)" d="M70.18 19.19c6.52.81 17.93 2.44 15.48-7.33S66.93 5.34 60.41 4.53s-17.11-3.26-23.63.81s-11.4 13.85-16.29 15.48s-7.33 1.63-10.18 6.11C7.76 30.94 5.23 38.57 7 44s8.75.75 19.25-10.75"/><path fill="#B7E4FF" d="M30.94 66.3a.874.874 0 0 0-1.06-.62h-.01l-2.17.58c-.54.12-1.11.04-1.61-.21l-3.8-2.19a.471.471 0 0 1-.28-.6c.05-.13.15-.23.28-.28l3.8-2.2c.5-.25 1.06-.32 1.61-.21l2.17.59a.89.89 0 0 0 1.12-.58c0-.01.01-.03.01-.04l.34-1.26a.879.879 0 0 0-.62-1.08l-1.32-.35a.874.874 0 0 1-.62-1.06v-.01l.35-1.31a.887.887 0 0 0-.62-1.08L27.19 54a.879.879 0 0 0-1.08.62l-.57 2.18c-.17.53-.53.99-1 1.29l-3.8 2.19c-.41.25-.75 0-.75-.43v-4.33c.03-.56.24-1.08.61-1.5l1.6-1.59c.34-.34.34-.9 0-1.24l-.94-.94a.87.87 0 0 0-1.23 0l-1 1c-.34.34-.9.34-1.24 0l-1-1a.87.87 0 0 0-1.23 0l-.94.93c-.34.34-.34.9 0 1.24L16.3 54c.37.41.59.94.62 1.5v4.39c0 .48-.34.68-.76.44l-3.79-2.2a2.44 2.44 0 0 1-1-1.32l-.59-2.17A.881.881 0 0 0 9.72 54l-1.27.34c-.47.13-.75.61-.62 1.08l.35 1.32c.12.47-.16.94-.62 1.07l-1.32.35c-.47.13-.75.61-.63 1.08L6 60.55c.13.43.56.69 1 .61l2.19-.59a2.49 2.49 0 0 1 1.61.22L14.65 63c.24.09.37.36.28.6c-.05.13-.15.23-.28.28l-3.8 2.2c-.5.25-1.06.32-1.61.21l-2.19-.59a.882.882 0 0 0-1.05.6l-.34 1.27c-.13.47.15.95.62 1.08l1.29.35c.46.11.74.58.63 1.04c0 .01 0 .02-.01.03l-.35 1.32c-.13.46.15.94.61 1.07h.01l1.27.34c.47.12.95-.15 1.08-.62l.57-2.18c.17-.53.53-.98 1-1.28l3.79-2.2c.42-.24.76 0 .76.44v4.39c-.03.56-.25 1.08-.62 1.5l-1.59 1.59c-.34.34-.34.9 0 1.24l.94.91c.34.34.89.34 1.23 0l1-1c.34-.34.9-.34 1.24 0l1 1c.34.34.89.34 1.23 0l.94-.94c.34-.34.34-.9 0-1.24l-1.6-1.59c-.37-.42-.58-.94-.61-1.5v-4.39c0-.48.34-.68.75-.43l3.8 2.19c.47.31.83.77 1 1.31l.58 2.17c.13.47.61.75 1.08.62l1.27-.34c.46-.11.74-.58.63-1.04c0-.01 0-.02-.01-.03l-.35-1.32c-.12-.43.1-.89.52-1.06l1.32-.35c.46-.11.74-.58.63-1.04c0-.01 0-.02-.01-.03l-.36-1.28zm90.59-17.66a.997.997 0 0 0-.66-1.25c-.01 0-.02-.01-.04-.01l-2.52-.7c-.62-.2-1.14-.61-1.49-1.16l-2.5-4.44a.536.536 0 0 1 .05-.75l.01-.01c.13-.11.3-.15.46-.12h5.09c.65.04 1.26.3 1.74.73l1.83 1.87c.38.4 1.02.41 1.41.03l.03-.03l1.06-1c.4-.38.42-1.01.04-1.41l-.04-.04l-1.11-1.13a.996.996 0 0 1-.03-1.41l.03-.03l1.13-1.11c.4-.38.42-1.01.04-1.41l-.04-.04l-1.02-1.09a.996.996 0 0 0-1.41-.03l-.03.03l-1.84 1.87c-.49.42-1.1.67-1.75.7l-5.1-.05c-.56 0-.78-.4-.5-.88l2.63-4.4c.36-.54.89-.94 1.5-1.13l2.54-.65c.54-.13.87-.67.74-1.21c0-.01-.01-.02-.01-.03l-.38-1.5c-.13-.54-.67-.87-1.21-.74c-.01 0-.02.01-.03.01l-1.53.39a.994.994 0 0 1-1.22-.71c0-.01 0-.01-.01-.02l-.4-1.52c-.13-.54-.67-.87-1.21-.74c-.01 0-.02.01-.03.01l-1.48.38a1 1 0 0 0-.75 1.2c0 .01.01.03.01.04l.66 2.54c.12.64.03 1.29-.27 1.87L111.28 34c-.29.48-.75.48-1 0l-2.51-4.44c-.29-.59-.36-1.26-.21-1.9l.7-2.52c.16-.53-.14-1.09-.67-1.25c-.01 0-.03-.01-.04-.01l-1.47-.4a.997.997 0 0 0-1.25.66c0 .01-.01.02-.01.04l-.43 1.52c-.14.54-.68.86-1.22.72c-.01 0-.03-.01-.04-.01l-1.52-.43c-.53-.16-1.09.14-1.25.67c0 .01-.01.03-.01.04l-.41 1.47c-.16.53.14 1.09.67 1.25c.02.01.03.01.05.01l2.54.71c.62.21 1.14.62 1.49 1.17l2.5 4.44c.19.23.17.57-.06.76c-.13.11-.3.15-.46.12h-5.09c-.65-.04-1.26-.3-1.74-.74L98 33.89a.996.996 0 0 0-1.41-.03l-.03.03L95.44 35a.996.996 0 0 0-.03 1.41l.03.03l1.11 1.13c.4.38.41 1.02.03 1.41l-.03.03l-1.15 1.07a.996.996 0 0 0-.03 1.41l.03.03l1.07 1.09c.38.4 1.02.41 1.41.03l.03-.03l1.86-1.85c.49-.42 1.1-.67 1.75-.7l5.1.05c.56 0 .78.4.5.88l-2.59 4.4c-.36.55-.9.95-1.53 1.15l-2.54.65c-.54.13-.87.67-.74 1.21c0 .01.01.02.01.03l.4 1.47c.13.54.67.87 1.21.74c.01 0 .02-.01.03-.01l1.53-.4c.53-.14 1.08.18 1.22.71c0 .01.01.02.01.03l.4 1.52c.13.54.67.87 1.21.74c.01 0 .02-.01.03-.01l1.48-.38c.54-.12.88-.65.76-1.19c0-.02-.01-.03-.01-.05l-.66-2.54c-.12-.63-.03-1.29.27-1.86l2.59-4.4c.29-.48.75-.48 1 0l2.5 4.44c.29.59.37 1.26.22 1.9l-.7 2.52c-.16.53.15 1.09.68 1.24c.01 0 .02.01.03.01l1.47.4a.997.997 0 0 0 1.25-.66c0-.01.01-.02.01-.04l.43-1.52c.14-.54.68-.86 1.22-.72c.01 0 .03.01.04.01l1.52.43c.53.16 1.09-.14 1.25-.67c0-.01.01-.03.01-.04l.4-1.46zM56.89 116.1a.61.61 0 0 0-.84-.18l-1.29.86c-.33.2-.72.27-1.1.22l-3-.6c-.18-.01-.32-.15-.31-.33c0-.09.05-.18.12-.24l2-2.27c.27-.27.62-.45 1-.49l1.55-.1c.33-.02.58-.29.56-.62v-.92a.602.602 0 0 0-.63-.57h-.01l-.94.06a.603.603 0 0 1-.64-.56l-.06-.94a.603.603 0 0 0-.64-.56h-.9c-.33.02-.58.31-.56.64l.1 1.55c.01.38-.12.76-.36 1.06l-2 2.27c-.09.15-.29.2-.44.11a.309.309 0 0 1-.15-.23l-1-2.85c-.1-.37-.07-.76.08-1.11l.69-1.39c.15-.3.03-.66-.26-.81h-.01l-.82-.41a.622.622 0 0 0-.81.27l-.41.84c-.15.3-.51.42-.8.27H45l-.83-.41a.606.606 0 0 0-.81.26v.01l-.41.81c-.14.3-.02.66.28.81l1.39.69c.33.19.59.49.73.85l1 2.86c.11.32-.07.52-.4.45l-3-.6c-.37-.1-.7-.33-.93-.64l-.86-1.29a.607.607 0 0 0-.83-.17l-.75.51c-.28.18-.35.55-.17.83l.52.79c.18.28.11.65-.17.84l-.78.51a.61.61 0 0 0-.18.84l.5.76c.19.27.56.34.84.16l1.31-.86c.33-.19.71-.27 1.09-.21l3 .6c.18 0 .32.14.32.32c0 .1-.05.19-.12.25l-2 2.27c-.27.27-.62.44-1 .49l-1.57.1c-.33.02-.58.31-.56.64v.9c.02.34.31.59.65.57l.93-.06c.33-.02.62.23.65.56l.06.94c.02.33.31.58.64.56h.9c.33-.02.59-.3.57-.63v-.01l-.11-1.55c0-.38.13-.76.36-1.06l2-2.27c.09-.15.29-.2.44-.11c.08.05.14.13.15.23l1 2.87c.1.37.07.76-.08 1.11l-.69 1.41c-.15.3-.03.66.26.81h.01l.81.39c.3.14.65.02.81-.27l.41-.84c.15-.3.51-.42.8-.27h.01l.84.41c.29.15.65.03.79-.26c0 0 0-.01.01-.01l.41-.81c.15-.3.03-.66-.26-.81h-.01l-1.39-.69c-.33-.19-.59-.49-.73-.84l-1-2.87c-.1-.31.08-.52.4-.45l3 .6c.38.09.71.32.93.64L55 121c.18.28.56.36.84.18l.75-.51c.27-.18.36-.54.18-.81c0-.01-.01-.01-.01-.02l-.52-.78a.62.62 0 0 1 .17-.84l.78-.52c.28-.18.35-.55.17-.83l-.47-.77z"/><path fill="#422B0D" d="M44 45.94c-4.19 0-8 3.54-8 9.42s3.81 9.41 8 9.41c4.2 0 8-3.54 8-9.41s-3.76-9.42-8-9.42z"/><path fill="#896024" d="M43.65 49.87a2.874 2.874 0 0 0-3.82 1.34c-.53 1.11-.29 2.44.6 3.3c1.42.68 3.13.08 3.82-1.34c.53-1.11.29-2.44-.6-3.3z"/><path fill="#422B0D" d="M82.4 45.94c-4.19 0-8 3.54-8 9.42s3.81 9.41 8 9.41c4.19 0 8-3.54 8-9.41s-3.81-9.42-8-9.42z"/><path fill="#896024" d="M82 49.87a2.874 2.874 0 0 0-3.82 1.34c-.53 1.11-.29 2.44.6 3.3c1.42.68 3.13.08 3.82-1.34c.53-1.11.29-2.44-.6-3.3z"/><path fill="#FFF" d="M39.37 74.1h50.09c6.32 0 11.44 5.12 11.44 11.44v.01c0 6.32-5.12 11.44-11.44 11.44H39.37c-6.32 0-11.44-5.12-11.44-11.44v-.01c0-6.32 5.12-11.44 11.44-11.44z"/><path fill="#B3B3B3" d="M100.74 83.67H28.1a10.76 10.76 0 0 0 0 4h72.6c.25-1.32.25-2.68 0-4h.04z"/><path fill="#B3B3B3" d="M89.46 74.1h-.55V97h.55c.89 0 1.78-.11 2.65-.32V74.42c-.87-.21-1.76-.32-2.65-.32zm-26.88 0h3.2v22.89h-3.2zm-23.2 0c-1.06 0-2.12.15-3.14.45v22c1.02.3 2.08.45 3.14.45h.06V74.1h-.06zm10.03 0h3.2v22.89h-3.2zm26.33 0h3.2v22.89h-3.2z"/><path fill="#018CE3" d="M100.91 85.55c-.29-3.52-2.19-6.7-5.13-8.65c-1.39-.92-2.98-1.49-4.64-1.67a50.3 50.3 0 0 0-5.21 0c-3.59.14-7.17.17-10.75.25l-10.76.08l-10.75-.08c-3.59-.08-7.17-.11-10.76-.25a50.3 50.3 0 0 0-5.21 0c-1.66.17-3.25.75-4.63 1.68a11.498 11.498 0 0 0-5.14 8.64c-.29-3.78 1.31-7.46 4.27-9.83c1.51-1.22 3.29-2.05 5.19-2.43l.72-.14l.73-.06c.5 0 .94-.06 1.39-.07l2.68-.09c3.59-.14 7.17-.17 10.76-.25l10.75-.08l10.76.09c3.58.08 7.16.11 10.75.25l2.69.08c.45 0 .88 0 1.39.07l.72.07l.72.14c1.9.37 3.68 1.2 5.19 2.42c2.96 2.37 4.56 6.05 4.27 9.83z"/></svg>