<svg xmlns="http://www.w3.org/2000/svg" width="1em" height="1em" viewBox="0 0 128 128"><path fill="#FFF" d="M117.64 102.31H10.36c-2.74 0-3.83-1.71-3.83-3.83V29.52c0-2.12 1.71-3.83 3.83-3.83h107.27c2.12 0 3.83 1.71 3.83 3.83v68.96a3.815 3.815 0 0 1-3.82 3.83z"/><path fill="#6FBFF0" stroke="#6FBFF0" stroke-miterlimit="10" stroke-width=".5" d="m89.03 57.56l30.37-28.12c.61-.51 1.8-.78 1.8-.78s-1.39-1.52-3.22-.09L70.26 66.44A10.57 10.57 0 0 1 64 68.72a10.57 10.57 0 0 1-6.26-2.28L10.01 28.57c-1.83-1.43-3.22.09-3.22.09s1.19.28 1.8.78l30.03 28.03l-30.81 42.1c-.53.59.92 1.55 1.59.9l33.66-40.09l12.37 11.1c2.44 2.19 5.5 3.32 8.58 3.39c3.08-.07 6.13-1.2 8.58-3.39l12.29-11.04l33 40.02c.67.65 2.12-.31 1.59-.9l-30.44-42z"/><path fill="none" stroke="#6FBFF0" stroke-miterlimit="10" stroke-width="4" d="M117.64 102.31H10.36c-2.74 0-3.83-1.71-3.83-3.83V29.52c0-2.12 1.71-3.83 3.83-3.83h107.27c2.12 0 3.83 1.71 3.83 3.83v68.96a3.815 3.815 0 0 1-3.82 3.83z"/><path fill="#B71C1C" d="M76.69 40.98c-9.27 0-12.67 10.95-12.67 10.95s-3.36-10.95-12.7-10.95c-7.02 0-15.02 5.5-12.06 17.98c2.96 12.49 24.78 28.05 24.78 28.05s21.75-15.56 24.71-28.05c2.95-12.48-5.04-17.98-12.06-17.98z"/><path fill="#F44336" d="M75.23 40.98c-8.2 0-11.21 9.8-11.21 9.8s-2.97-9.8-11.23-9.8c-6.21 0-13.28 4.92-10.67 16.1c2.61 11.18 21.92 25.11 21.92 25.11S83.28 68.26 85.9 57.08c2.6-11.18-4.47-16.1-10.67-16.1z"/></svg>