<svg xmlns="http://www.w3.org/2000/svg" width="1em" height="1em" viewBox="0 0 128 128"><path fill="#C8DEE9" d="M15.56 120.59c-.23-.41-.47-.81-.63-1.23c-.8-2.03-.88-3.53-2.9-4.37c-1.02-.43-3.26-1.08-4.32-1.4c-1.89-.56-3.45-2.14-3.97-4.05s.02-4.06 1.37-5.5c2.08-2.22 5.44-2.46 8.46-2.8c8.25-.95 14.29-9.69 19.8-15.2l10.98-10.98l8.64 8.64l-10.62 10.62c-5.5 5.5-15.01 11.69-14.73 20.3c.05 1.61.39 3.27-.12 4.8c-.69 2.08-2.79 3.37-4.86 4.1c-1.08.38-2.25.66-3.37.42c-1.69-.37-2.85-1.79-3.73-3.35z"/><path fill="#8ABFD1" d="M14.44 110.53c2.17.23 2.32 2.93 1.78 5.36c-.19.85-.64 1.76-1.37 2.08c-.67.29-.75-1.57-2.2-2.61c-.47-.34-4.15-1.04-6.35-2.39c-.62-.38-.48-1.31.24-1.46c2.42-.5 6.93-1.09 7.9-.98zm11.41-16.49s0 .01 0 0c.24-.24 2.95-.08 4.09 1.94c.74 1.31 1.1 2.85.92 4.32c-.25 2.01-1.14 3.87-1.95 5.71c-1.67 3.79-1.15 6.16-1.11 6.31c1.26-7.44 9.58-13.01 14.58-18.01L53 83.69l-9.4-8.81c-1.36 1.37-16.32 17.74-17.75 19.16z"/><path fill="#A5C7D3" d="M27.42 90.67c-.05.05-.1.11-.15.16l-.04.13c.06-.1.13-.19.19-.29z"/><path fill="#C8DEE9" d="M112.44 120.59c.23-.41.44-.82.63-1.23c.94-1.98 1.97-4.17 3.99-5.02c1.02-.43 2.17-.43 3.23-.75c1.89-.56 3.45-2.14 3.97-4.05s-.02-4.06-1.37-5.5c-2.08-2.22-5.44-2.46-8.46-2.8c-8.25-.95-14.29-9.69-19.8-15.2L83.65 75.06l-8.64 8.64l10.62 10.62c5.5 5.5 15.01 11.69 14.73 20.3c-.05 1.61-.39 3.27.12 4.8c.69 2.08 2.79 3.37 4.86 4.1c1.08.38 2.25.66 3.37.42c1.69-.37 2.85-1.79 3.73-3.35z"/><path fill="#8ABFD1" d="M102.15 94.04s0 .01 0 0c-.24-.24-2.95-.08-4.09 1.94c-.74 1.31-1.1 2.85-.92 4.32c.25 2.01 1.14 3.87 1.95 5.71c1.67 3.79 1.15 6.16 1.11 6.31c-1.26-7.44-9.58-13.01-14.58-18.01c-.6-.59-10.61-10.61-10.61-10.61l9.4-8.81c1.35 1.36 16.31 17.73 17.74 19.15z"/><path fill="#A5C7D3" d="M100.58 90.67c.05.05.1.11.15.16l.04.13c-.06-.1-.13-.19-.19-.29z"/><path fill="#8ABFD1" d="M113.72 110.53c-2.17.23-2.32 2.93-1.78 5.36c.19.85.64 1.76 1.37 2.08c.67.29.75-1.57 2.2-2.61c.47-.34 4.15-1.04 6.35-2.39c.62-.38.48-1.31-.24-1.46c-2.42-.5-6.93-1.09-7.9-.98z"/><path fill="#C8DEE9" d="M15.56 7.41c-.23.41-.44.82-.63 1.23c-.94 1.98-1.97 4.17-3.99 5.02c-1.02.43-2.17.43-3.23.75c-1.89.56-3.45 2.14-3.97 4.05c-.52 1.9.02 4.06 1.37 5.5c2.08 2.22 5.44 2.46 8.46 2.8c8.25.95 14.29 9.69 19.8 15.2l10.98 10.98l8.64-8.64l-10.62-10.62c-5.5-5.5-15.01-11.69-14.73-20.3c.05-1.61.39-3.27-.12-4.8c-.69-2.08-2.79-3.37-4.86-4.1c-1.08-.38-2.25-.66-3.37-.42c-1.69.37-2.85 1.79-3.73 3.35z"/><path fill="#A5C7D3" d="M27.42 37.33c-.05-.05-.1-.11-.15-.16l-.04-.13c.06.1.13.19.19.29z"/><path fill="#8ABFD1" d="M7.89 22.54c4.93.1 6.15-.75 7.42-1.21c4.08-1.46 5.17 1.25 4.03 3.41c-1.4 2.66-7.05 2.52-11.22 1.02c-.89-.32-3.2-1.35-3.48-2.44c-.44-1.71 2.54-.8 3.25-.78zm45.1 21.76S38.9 31.07 35.9 27.85c-6.07.61-9.36 4.44-9.87 6.36c3.22 2.99 14.66 15.07 18.32 18.73l8.64-8.64z"/><path fill="#C8DEE9" d="M112.44 7.41c.23.41.44.82.63 1.23c.94 1.98 1.97 4.17 3.99 5.02c1.02.43 2.17.43 3.23.75c1.89.56 3.45 2.14 3.97 4.05c.52 1.9-.02 4.06-1.37 5.5c-2.08 2.22-5.44 2.46-8.46 2.8c-8.25.95-14.29 9.69-19.8 15.2L83.65 52.94l-8.64-8.64l10.62-10.62c5.5-5.5 15.01-11.69 14.73-20.3c-.05-1.61-.39-3.27.12-4.8c.69-2.08 2.79-3.37 4.86-4.1c1.08-.38 2.25-.66 3.37-.42c1.69.37 2.85 1.79 3.73 3.35z"/><path fill="#A5C7D3" d="M100.58 37.33c.05-.05.1-.11.15-.16l.04-.13c-.06.1-.13.19-.19.29z"/><path fill="#8ABFD1" d="M120.11 22.43c-4.93.1-6.15-.75-7.42-1.21c-4.08-1.46-5.17 1.25-4.03 3.41c1.4 2.66 7.05 2.52 11.22 1.02c.89-.32 3.2-1.35 3.48-2.44c.44-1.7-2.54-.79-3.25-.78zM75.01 44.3s15.35-14.36 18.35-17.58c8.01 1.74 9.4 6.63 9.4 6.63s-15.44 15.92-19.1 19.58c-.01.01-8.65-8.63-8.65-8.63z"/><path fill="#E1E7EA" d="M99.71 68.48c.42-2.53 2.17-13.78.58-22.62c-1.02-5.63-3.78-9.99-7.71-13.71c-7.57-7.17-17.88-10.53-27.73-10.82c-.05-.01-.11-.01-.16-.01s-.11-.01-.16-.01c-.09 0-.18.01-.26.01c-.09 0-.18-.01-.26-.01c-.05 0-.11.01-.16.01s-.11-.01-.16.01c-9.85.29-20.16 3.65-27.73 10.82c-3.92 3.72-6.69 8.08-7.71 13.71c-1.6 8.84.16 20.09.58 22.62c.57 3.45-.94 7.26-1.24 10.7c-.32 3.74 1.44 6.64 4.6 8.69c2.64 1.71 5.7 2.62 8.55 3.95c3.39 1.58.31 7.28 1.56 10.16c.63 1.46 2.01 2.45 3.43 3.16c1.81.9 3.9 1.47 5.86.97c-.3.08.56 1.8 1.7 2.5c1.03.64 2.32 1.29 3.51 1.55c2.38.52 4.73-.35 6.19-1.11c.8-.41 1.74-.41 2.53 0c1.47.76 3.82 1.64 6.19 1.11c1.79-.39 3.38-1.45 4.52-2.84c.53-.65 1.36-1.01 2.2-.95c2.49.16 6.3-.85 7.96-4.61c.92-2.09-.01-4.55.61-6.74c1.04-3.71 4.69-4.63 7.63-6.35c3.89-2.29 6.19-4.84 6.3-8.45c.15-3.84-1.71-8.78-1.22-11.74z"/><ellipse cx="46.45" cy="66.1" fill="#424242" rx="10.13" ry="9.21" transform="rotate(-75.001 46.45 66.098)"/><ellipse cx="82.1" cy="66.1" fill="#424242" rx="9.21" ry="10.13" transform="rotate(-14.999 82.109 66.101)"/><path fill="#424242" d="M58.36 82.72c0-3.27 2.65-11.36 5.92-11.36s5.92 8.09 5.92 11.36c0 6.64-5.92 2.12-5.92 2.12s-5.92 4.91-5.92-2.12z"/><path fill="#8ABFD1" d="M49.91 106.3c-.08-.67.09-7.49.09-8.7c0-.86.69-1.55 1.55-1.55c.86 0 1.55.7 1.55 1.55c0 1.07-.42 8.73-.42 8.73s-1.4.36-2.77-.03zm12.83 2.97s.01-1.05.01-1.59V97.6c0-.86.69-1.55 1.55-1.55c.86 0 1.55.7 1.55 1.55v5.46c0 1.11-.06 6.21-.06 6.21c-2.4-.9-3.05 0-3.05 0zm12.96-2.09s-.15-8.28-.15-9.58c0-.86.7-1.55 1.55-1.55c.86 0 1.55.7 1.55 1.55c0 1.39-.01 8.78-.01 8.78s-.82-.04-1.45.07c-.27.03-1.49.73-1.49.73z"/><path fill="#8ABFD1" d="M64.27 105.37c-.76.06-1.52.15-1.53.24c-.23 2.63-4.05 2.8-6 2.38c-1.13-.25-2.4-.63-3.09-1.6c-.65-.9-.94-2.04-.93-3.14c0-.06-2.82-.36-2.82-.36s-.19 1.55-2.1 1.4c-3.14-.25-3.76-1.26-4.43-2.37c-.84-1.4-1.14-4.5-1.14-4.5c-1.32 5.58 1.48 7.64 2.87 8.4c2.6 1.42 5.88.67 5.88.67s1.31 2.09 2.44 2.79c1.03.64 2.12.96 3.31 1.22c2.38.52 4.73-.35 6.19-1.11c.42-.22.88-.31 1.33-.3v-3.72zm0 0c.76.06 1.52.15 1.53.24c.23 2.63 4.05 2.8 6 2.38c1.13-.25 2.4-.63 3.09-1.6c.65-.9.94-2.04.93-3.14c0-.06 2.82-.36 2.82-.36s.19 1.55 2.1 1.4c3.14-.25 3.76-1.26 4.43-2.37c.84-1.4 1.64-4.5 1.64-4.5c.94 5.69-1.98 7.64-3.37 8.4c-2.6 1.42-5.88.67-5.88.67s-1.31 2.09-2.44 2.79c-1.03.64-2.12.96-3.31 1.22c-2.38.52-4.73-.35-6.19-1.11c-.42-.22-.88-.31-1.33-.3v-3.72z"/></svg>