<!--
  - ImageToolbox is an image editor for android
  - Copyright (c) 2024 T8RIN (Malik Mukhametzyanov)
  -
  - Licensed under the Apache License, Version 2.0 (the "License");
  - you may not use this file except in compliance with the License.
  -
  - Unless required by applicable law or agreed to in writing, software
  - distributed under the License is distributed on an "AS IS" BASIS,
  - WITHOUT WARRANTIES OR CONDITIONS OF ANY KIND, either express or implied.
  - See the License for the specific language governing permissions and
  - limitations under the License.
  -
  - You should have received a copy of the Apache License
  - along with this program.  If not, see <http://www.apache.org/licenses/LICENSE-2.0>.
  -->

<svg fill="none" height="40" viewBox="0 0 164 40" width="164" xmlns="http://www.w3.org/2000/svg">
    <g clip-path="url(#clip0_250_187)">
        <path
            d="M144 0H20C8.9543 0 0 8.9543 0 20C0 31.0457 8.9543 40 20 40H144C155.046 40 164 31.0457 164 20C164 8.9543 155.046 0 144 0Z"
            fill="#24341C" />
        <path
            d="M20.0713 11.7334C20.0249 11.8877 20 12.0644 20 12.2615V27.7388C20 27.9364 20.025 28.1132 20.0714 28.2676L28.3379 19.9999L20.0713 11.7334Z"
            fill="#B9FF95" />
        <path d="M20.7754 28.9774C21.0611 29.0401 21.4066 28.976 21.7779 28.7655L31.55 23.2125L29.0446 20.707L20.7754 28.9774Z"
            fill="#B9FF95" />
        <path d="M32.4526 22.7L35.4255 21.0109C36.4032 20.4546 36.4032 19.5455 35.4255 18.9898L32.4512 17.2998L29.752 19.9994L32.4526 22.7Z"
            fill="#B9FF95" />
        <path d="M31.5493 16.7875L21.7781 11.2352C21.4067 11.0242 21.0612 10.9602 20.7754 11.0231L29.0447 19.2924L31.5493 16.7875Z"
            fill="#B9FF95" />
        <path d="M54.968 26C54.104 26 53.3093 25.8613 52.584 25.584C51.8587 25.296 51.2293 24.896 50.696 24.384C50.1627 23.8613 49.7467 23.2533 49.448 22.56C49.1493 21.8667 49 21.104 49 20.272C49 19.44 49.1493 18.6773 49.448 17.984C49.7467 17.2907 50.1627 16.688 50.696 16.176C51.24 15.6533 51.8747 15.2533 52.6 14.976C53.3253 14.688 54.1253 14.544 55 14.544C55.8853 14.544 56.696 14.688 57.432 14.976C58.168 15.264 58.792 15.696 59.304 16.272L58.312 17.264C57.8533 16.816 57.352 16.4907 56.808 16.288C56.2747 16.0747 55.6933 15.968 55.064 15.968C54.424 15.968 53.8267 16.0747 53.272 16.288C52.728 16.5013 52.2533 16.8 51.848 17.184C51.4533 17.568 51.144 18.0267 50.92 18.56C50.7067 19.0827 50.6 19.6533 50.6 20.272C50.6 20.88 50.7067 21.4507 50.92 21.984C51.144 22.5067 51.4533 22.9653 51.848 23.36C52.2533 23.744 52.728 24.0427 53.272 24.256C53.816 24.4693 54.408 24.576 55.048 24.576C55.6453 24.576 56.216 24.4853 56.76 24.304C57.3147 24.112 57.8267 23.7973 58.296 23.36L59.208 24.576C58.6533 25.0453 58.0027 25.4027 57.256 25.648C56.52 25.8827 55.7573 26 54.968 26ZM57.672 24.368V20.208H59.208V24.576L57.672 24.368ZM65.1794 25.968C64.326 25.968 63.5687 25.7813 62.9074 25.408C62.246 25.0347 61.7234 24.5227 61.3394 23.872C60.9554 23.2107 60.7634 22.464 60.7634 21.632C60.7634 20.7893 60.9554 20.0427 61.3394 19.392C61.7234 18.7413 62.246 18.2347 62.9074 17.872C63.5687 17.4987 64.326 17.312 65.1794 17.312C66.022 17.312 66.774 17.4987 67.4354 17.872C68.1074 18.2347 68.63 18.7413 69.0034 19.392C69.3874 20.032 69.5794 20.7787 69.5794 21.632C69.5794 22.4747 69.3874 23.2213 69.0034 23.872C68.63 24.5227 68.1074 25.0347 67.4354 25.408C66.774 25.7813 66.022 25.968 65.1794 25.968ZM65.1794 24.624C65.7234 24.624 66.2087 24.5013 66.6354 24.256C67.0727 24.0107 67.414 23.664 67.6594 23.216C67.9047 22.7573 68.0274 22.2293 68.0274 21.632C68.0274 21.024 67.9047 20.5013 67.6594 20.064C67.414 19.616 67.0727 19.2693 66.6354 19.024C66.2087 18.7787 65.7234 18.656 65.1794 18.656C64.6354 18.656 64.15 18.7787 63.7234 19.024C63.2967 19.2693 62.9554 19.616 62.6994 20.064C62.4434 20.5013 62.3154 21.024 62.3154 21.632C62.3154 22.2293 62.4434 22.7573 62.6994 23.216C62.9554 23.664 63.2967 24.0107 63.7234 24.256C64.15 24.5013 64.6354 24.624 65.1794 24.624ZM74.8356 25.968C73.9823 25.968 73.225 25.7813 72.5636 25.408C71.9023 25.0347 71.3796 24.5227 70.9956 23.872C70.6116 23.2107 70.4196 22.464 70.4196 21.632C70.4196 20.7893 70.6116 20.0427 70.9956 19.392C71.3796 18.7413 71.9023 18.2347 72.5636 17.872C73.225 17.4987 73.9823 17.312 74.8356 17.312C75.6783 17.312 76.4303 17.4987 77.0916 17.872C77.7636 18.2347 78.2863 18.7413 78.6596 19.392C79.0436 20.032 79.2356 20.7787 79.2356 21.632C79.2356 22.4747 79.0436 23.2213 78.6596 23.872C78.2863 24.5227 77.7636 25.0347 77.0916 25.408C76.4303 25.7813 75.6783 25.968 74.8356 25.968ZM74.8356 24.624C75.3796 24.624 75.865 24.5013 76.2916 24.256C76.729 24.0107 77.0703 23.664 77.3156 23.216C77.561 22.7573 77.6836 22.2293 77.6836 21.632C77.6836 21.024 77.561 20.5013 77.3156 20.064C77.0703 19.616 76.729 19.2693 76.2916 19.024C75.865 18.7787 75.3796 18.656 74.8356 18.656C74.2916 18.656 73.8063 18.7787 73.3796 19.024C72.953 19.2693 72.6116 19.616 72.3556 20.064C72.0996 20.5013 71.9716 21.024 71.9716 21.632C71.9716 22.2293 72.0996 22.7573 72.3556 23.216C72.6116 23.664 72.953 24.0107 73.3796 24.256C73.8063 24.5013 74.2916 24.624 74.8356 24.624ZM84.5719 29.072C83.7932 29.072 83.0359 28.96 82.2999 28.736C81.5745 28.5227 80.9825 28.2133 80.5239 27.808L81.2599 26.624C81.6545 26.9653 82.1399 27.232 82.7159 27.424C83.2919 27.6267 83.8945 27.728 84.5239 27.728C85.5265 27.728 86.2625 27.4933 86.7319 27.024C87.2012 26.5547 87.4359 25.84 87.4359 24.88V23.088L87.5959 21.408L87.5159 19.712V17.392H88.9719V24.72C88.9719 26.2133 88.5985 27.312 87.8519 28.016C87.1052 28.72 86.0119 29.072 84.5719 29.072ZM84.3799 25.52C83.5585 25.52 82.8225 25.3493 82.1719 25.008C81.5319 24.656 81.0199 24.1707 80.6359 23.552C80.2625 22.9333 80.0759 22.2187 80.0759 21.408C80.0759 20.5867 80.2625 19.872 80.6359 19.264C81.0199 18.6453 81.5319 18.1653 82.1719 17.824C82.8225 17.4827 83.5585 17.312 84.3799 17.312C85.1052 17.312 85.7665 17.4613 86.3639 17.76C86.9612 18.048 87.4359 18.496 87.7879 19.104C88.1505 19.712 88.3319 20.48 88.3319 21.408C88.3319 22.3253 88.1505 23.088 87.7879 23.696C87.4359 24.304 86.9612 24.7627 86.3639 25.072C85.7665 25.3707 85.1052 25.52 84.3799 25.52ZM84.5559 24.176C85.1212 24.176 85.6225 24.0587 86.0599 23.824C86.4972 23.5893 86.8385 23.264 87.0839 22.848C87.3399 22.432 87.4679 21.952 87.4679 21.408C87.4679 20.864 87.3399 20.384 87.0839 19.968C86.8385 19.552 86.4972 19.232 86.0599 19.008C85.6225 18.7733 85.1212 18.656 84.5559 18.656C83.9905 18.656 83.4839 18.7733 83.0359 19.008C82.5985 19.232 82.2519 19.552 81.9959 19.968C81.7505 20.384 81.6279 20.864 81.6279 21.408C81.6279 21.952 81.7505 22.432 81.9959 22.848C82.2519 23.264 82.5985 23.5893 83.0359 23.824C83.4839 24.0587 83.9905 24.176 84.5559 24.176ZM91.4068 25.872V14H92.9428V25.872H91.4068ZM99.1515 25.968C98.2448 25.968 97.4448 25.7813 96.7515 25.408C96.0688 25.0347 95.5355 24.5227 95.1515 23.872C94.7782 23.2213 94.5915 22.4747 94.5915 21.632C94.5915 20.7893 94.7728 20.0427 95.1355 19.392C95.5088 18.7413 96.0155 18.2347 96.6555 17.872C97.3062 17.4987 98.0368 17.312 98.8475 17.312C99.6688 17.312 100.394 17.4933 101.024 17.856C101.653 18.2187 102.144 18.7307 102.496 19.392C102.858 20.0427 103.04 20.8053 103.04 21.68C103.04 21.744 103.034 21.8187 103.024 21.904C103.024 21.9893 103.018 22.0693 103.008 22.144H95.7915V21.04H102.208L101.584 21.424C101.594 20.88 101.482 20.3947 101.248 19.968C101.013 19.5413 100.688 19.2107 100.272 18.976C99.8662 18.7307 99.3915 18.608 98.8475 18.608C98.3142 18.608 97.8395 18.7307 97.4235 18.976C97.0075 19.2107 96.6822 19.5467 96.4475 19.984C96.2128 20.4107 96.0955 20.9013 96.0955 21.456V21.712C96.0955 22.2773 96.2235 22.784 96.4795 23.232C96.7462 23.6693 97.1142 24.0107 97.5835 24.256C98.0528 24.5013 98.5915 24.624 99.1995 24.624C99.7008 24.624 100.154 24.5387 100.56 24.368C100.976 24.1973 101.338 23.9413 101.648 23.6L102.496 24.592C102.112 25.04 101.632 25.3813 101.056 25.616C100.49 25.8507 99.8555 25.968 99.1515 25.968ZM108.693 25.872V14.672H113.061C114.043 14.672 114.88 14.8267 115.573 15.136C116.267 15.4453 116.8 15.8933 117.173 16.48C117.547 17.0667 117.733 17.7653 117.733 18.576C117.733 19.3867 117.547 20.0853 117.173 20.672C116.8 21.248 116.267 21.696 115.573 22.016C114.88 22.3253 114.043 22.48 113.061 22.48H109.573L110.293 21.728V25.872H108.693ZM110.293 21.888L109.573 21.088H113.013C114.037 21.088 114.811 20.8693 115.333 20.432C115.867 19.9947 116.133 19.376 116.133 18.576C116.133 17.776 115.867 17.1573 115.333 16.72C114.811 16.2827 114.037 16.064 113.013 16.064H109.573L110.293 15.264V21.888ZM119.516 25.872V14H121.052V25.872H119.516ZM128.749 25.872V24.08L128.669 23.744V20.688C128.669 20.0373 128.477 19.536 128.093 19.184C127.72 18.8213 127.154 18.64 126.397 18.64C125.896 18.64 125.405 18.7253 124.925 18.896C124.445 19.056 124.04 19.2747 123.709 19.552L123.069 18.4C123.506 18.048 124.029 17.7813 124.637 17.6C125.256 17.408 125.901 17.312 126.573 17.312C127.736 17.312 128.632 17.5947 129.261 18.16C129.89 18.7253 130.205 19.5893 130.205 20.752V25.872H128.749ZM125.965 25.968C125.336 25.968 124.781 25.8613 124.301 25.648C123.832 25.4347 123.469 25.1413 123.213 24.768C122.957 24.384 122.829 23.952 122.829 23.472C122.829 23.0133 122.936 22.5973 123.149 22.224C123.373 21.8507 123.73 21.552 124.221 21.328C124.722 21.104 125.394 20.992 126.237 20.992H128.925V22.096H126.301C125.533 22.096 125.016 22.224 124.749 22.48C124.482 22.736 124.349 23.0453 124.349 23.408C124.349 23.824 124.514 24.16 124.845 24.416C125.176 24.6613 125.634 24.784 126.221 24.784C126.797 24.784 127.298 24.656 127.725 24.4C128.162 24.144 128.477 23.7707 128.669 23.28L128.973 24.336C128.77 24.8373 128.413 25.2373 127.901 25.536C127.389 25.824 126.744 25.968 125.965 25.968ZM132.759 29.072C132.354 29.072 131.959 29.0027 131.575 28.864C131.191 28.736 130.86 28.544 130.583 28.288L131.239 27.136C131.452 27.3387 131.687 27.4933 131.943 27.6C132.199 27.7067 132.471 27.76 132.759 27.76C133.132 27.76 133.442 27.664 133.687 27.472C133.932 27.28 134.162 26.9387 134.375 26.448L134.903 25.28L135.063 25.088L138.391 17.392H139.895L135.783 26.72C135.538 27.3173 135.26 27.7867 134.951 28.128C134.652 28.4693 134.322 28.7093 133.959 28.848C133.596 28.9973 133.196 29.072 132.759 29.072ZM134.775 26.144L130.903 17.392H132.503L135.799 24.944L134.775 26.144Z"
            fill="#B9FF95" />
    </g>
    <defs>
        <clipPath id="clip0_250_187">
            <rect fill="white" height="40" width="164" />
        </clipPath>
    </defs>
</svg>
