<svg fill="none" height="40" viewBox="0 0 255 40" width="255" xmlns="http://www.w3.org/2000/svg">
    <rect fill="#29626B" height="40" rx="20" width="255" />
    <path
        d="M31.3993 28.4147C31.1645 28.2902 29.7925 27.53 23.3658 23.963C21.5773 22.9704 19.8554 22.0159 19.5393 21.8418C18.8213 21.4466 18.7109 21.3494 18.7109 21.1116C18.7109 20.9872 18.9975 20.1899 19.6691 18.4458C20.1961 17.0772 20.6621 15.8779 20.7047 15.7807C20.8018 15.5592 20.9582 15.3711 21.1109 15.2921C21.2539 15.2182 24.8274 13.9131 25.0096 13.8683C25.2065 13.8199 25.3763 13.9132 25.4765 14.1248C25.5245 14.2263 25.7243 14.7504 25.9203 15.2893C26.1164 15.8283 26.4082 16.6253 26.5689 17.0603C26.9371 18.0571 26.9508 18.1983 26.6945 18.3497C26.6265 18.3898 26.1846 18.5633 25.7124 18.7351C25.2402 18.9069 24.7897 19.0848 24.7112 19.1305C24.5301 19.2358 24.5028 19.3985 24.6444 19.5293C24.7006 19.5813 25.6085 20.0992 26.662 20.6802C29.6064 22.3042 29.443 22.2307 29.6394 22.0188C29.7356 21.9149 31.4948 17.4405 31.5957 17.0428C31.6389 16.8728 31.6341 16.8492 31.5422 16.7747C31.4165 16.673 31.4347 16.6686 30.2784 17.0774C29.1329 17.4824 29.0238 17.491 28.8703 17.1881C28.7898 17.029 27.5559 13.6403 27.4793 13.3677C27.4298 13.1913 27.4903 13.0238 27.6388 12.9265C27.7005 12.886 28.5984 12.5416 29.6341 12.161C31.1711 11.5962 31.5623 11.4683 31.7622 11.4651C32.0202 11.461 32.054 11.4787 36.7831 14.0954C37.1108 14.2767 37.2856 14.4676 37.2856 14.6439C37.2856 14.7139 36.113 17.8243 34.6799 21.5559C32.6586 26.8187 32.0486 28.3631 31.9602 28.4408C31.8101 28.573 31.6871 28.5673 31.3993 28.4147Z"
        fill="#B5DFE8" />
    <path
        d="M54.736 26.128C53.8827 26.128 53.088 25.984 52.352 25.696C51.6267 25.408 50.9973 25.008 50.464 24.496C49.9307 23.9733 49.5147 23.3653 49.216 22.672C48.9173 21.9787 48.768 21.2213 48.768 20.4C48.768 19.5787 48.9173 18.8213 49.216 18.128C49.5147 17.4347 49.9307 16.832 50.464 16.32C50.9973 15.7973 51.6267 15.392 52.352 15.104C53.0773 14.816 53.872 14.672 54.736 14.672C55.5893 14.672 56.3733 14.816 57.088 15.104C57.8133 15.3813 58.4427 15.7813 58.976 16.304C59.52 16.816 59.936 17.4187 60.224 18.112C60.5227 18.8053 60.672 19.568 60.672 20.4C60.672 21.232 60.5227 21.9947 60.224 22.688C59.936 23.3813 59.52 23.9893 58.976 24.512C58.4427 25.024 57.8133 25.424 57.088 25.712C56.3733 25.9893 55.5893 26.128 54.736 26.128ZM54.736 24.704C55.3547 24.704 55.9253 24.5973 56.448 24.384C56.9813 24.1707 57.44 23.872 57.824 23.488C58.2187 23.0933 58.5227 22.6347 58.736 22.112C58.96 21.5893 59.072 21.0187 59.072 20.4C59.072 19.7813 58.96 19.2107 58.736 18.688C58.5227 18.1653 58.2187 17.712 57.824 17.328C57.44 16.9333 56.9813 16.6293 56.448 16.416C55.9253 16.2027 55.3547 16.096 54.736 16.096C54.1067 16.096 53.5253 16.2027 52.992 16.416C52.4693 16.6293 52.0107 16.9333 51.616 17.328C51.2213 17.712 50.912 18.1653 50.688 18.688C50.4747 19.2107 50.368 19.7813 50.368 20.4C50.368 21.0187 50.4747 21.5893 50.688 22.112C50.912 22.6347 51.2213 23.0933 51.616 23.488C52.0107 23.872 52.4693 24.1707 52.992 24.384C53.5253 24.5973 54.1067 24.704 54.736 24.704ZM66.9095 26.096C66.1842 26.096 65.5282 25.936 64.9415 25.616C64.3655 25.2853 63.9068 24.8 63.5655 24.16C63.2348 23.52 63.0695 22.72 63.0695 21.76C63.0695 20.8 63.2402 20 63.5815 19.36C63.9335 18.72 64.3975 18.24 64.9735 17.92C65.5602 17.6 66.2055 17.44 66.9095 17.44C67.7415 17.44 68.4775 17.6213 69.1175 17.984C69.7575 18.3467 70.2642 18.8533 70.6375 19.504C71.0108 20.144 71.1975 20.896 71.1975 21.76C71.1975 22.624 71.0108 23.3813 70.6375 24.032C70.2642 24.6827 69.7575 25.1893 69.1175 25.552C68.4775 25.9147 67.7415 26.096 66.9095 26.096ZM62.4135 26V14.128H63.9495V19.776L63.7895 21.744L63.8855 23.712V26H62.4135ZM66.7815 24.752C67.3255 24.752 67.8108 24.6293 68.2375 24.384C68.6748 24.1387 69.0162 23.792 69.2615 23.344C69.5175 22.8853 69.6455 22.3573 69.6455 21.76C69.6455 21.152 69.5175 20.6293 69.2615 20.192C69.0162 19.744 68.6748 19.3973 68.2375 19.152C67.8108 18.9067 67.3255 18.784 66.7815 18.784C66.2482 18.784 65.7628 18.9067 65.3255 19.152C64.8988 19.3973 64.5575 19.744 64.3015 20.192C64.0562 20.6293 63.9335 21.152 63.9335 21.76C63.9335 22.3573 64.0562 22.8853 64.3015 23.344C64.5575 23.792 64.8988 24.1387 65.3255 24.384C65.7628 24.6293 66.2482 24.752 66.7815 24.752ZM75.7518 26.096C74.8984 26.096 74.2371 25.8667 73.7678 25.408C73.2984 24.9493 73.0638 24.2933 73.0638 23.44V15.664H74.5998V23.376C74.5998 23.8347 74.7118 24.1867 74.9358 24.432C75.1704 24.6773 75.5011 24.8 75.9278 24.8C76.4078 24.8 76.8078 24.6667 77.1278 24.4L77.6078 25.504C77.3731 25.7067 77.0904 25.856 76.7598 25.952C76.4398 26.048 76.1038 26.096 75.7518 26.096ZM71.6238 18.784V17.52H77.0318V18.784H71.6238ZM84.2487 26V24.208L84.1687 23.872V20.816C84.1687 20.1653 83.9767 19.664 83.5927 19.312C83.2194 18.9493 82.6541 18.768 81.8967 18.768C81.3954 18.768 80.9047 18.8533 80.4247 19.024C79.9447 19.184 79.5394 19.4027 79.2087 19.68L78.5687 18.528C79.0061 18.176 79.5287 17.9093 80.1367 17.728C80.7554 17.536 81.4007 17.44 82.0727 17.44C83.2354 17.44 84.1314 17.7227 84.7607 18.288C85.3901 18.8533 85.7048 19.7173 85.7048 20.88V26H84.2487ZM81.4647 26.096C80.8354 26.096 80.2807 25.9893 79.8007 25.776C79.3314 25.5627 78.9687 25.2693 78.7127 24.896C78.4567 24.512 78.3287 24.08 78.3287 23.6C78.3287 23.1413 78.4354 22.7253 78.6487 22.352C78.8727 21.9787 79.2301 21.68 79.7207 21.456C80.2221 21.232 80.8941 21.12 81.7367 21.12H84.4247V22.224H81.8007C81.0327 22.224 80.5154 22.352 80.2487 22.608C79.9821 22.864 79.8487 23.1733 79.8487 23.536C79.8487 23.952 80.0141 24.288 80.3447 24.544C80.6754 24.7893 81.1341 24.912 81.7207 24.912C82.2967 24.912 82.7981 24.784 83.2247 24.528C83.6621 24.272 83.9767 23.8987 84.1687 23.408L84.4727 24.464C84.2701 24.9653 83.9127 25.3653 83.4007 25.664C82.8887 25.952 82.2434 26.096 81.4647 26.096ZM88.0673 26V17.52H89.6033V26H88.0673ZM88.8353 15.888C88.5366 15.888 88.2859 15.792 88.0833 15.6C87.8913 15.408 87.7953 15.1733 87.7953 14.896C87.7953 14.608 87.8913 14.368 88.0833 14.176C88.2859 13.984 88.5366 13.888 88.8353 13.888C89.1339 13.888 89.3793 13.984 89.5713 14.176C89.7739 14.3573 89.8753 14.5867 89.8753 14.864C89.8753 15.152 89.7793 15.3973 89.5873 15.6C89.3953 15.792 89.1446 15.888 88.8353 15.888ZM96.584 17.44C97.2773 17.44 97.8853 17.5733 98.408 17.84C98.9413 18.1067 99.3573 18.512 99.656 19.056C99.9547 19.6 100.104 20.288 100.104 21.12V26H98.568V21.296C98.568 20.4747 98.3653 19.856 97.96 19.44C97.5653 19.024 97.0053 18.816 96.28 18.816C95.736 18.816 95.2613 18.9227 94.856 19.136C94.4507 19.3493 94.136 19.664 93.912 20.08C93.6987 20.496 93.592 21.0133 93.592 21.632V26H92.056V17.52H93.528V19.808L93.288 19.2C93.5653 18.6453 93.992 18.2133 94.568 17.904C95.144 17.5947 95.816 17.44 96.584 17.44ZM102.467 26V17.52H104.003V26H102.467ZM103.235 15.888C102.936 15.888 102.685 15.792 102.483 15.6C102.291 15.408 102.195 15.1733 102.195 14.896C102.195 14.608 102.291 14.368 102.483 14.176C102.685 13.984 102.936 13.888 103.235 13.888C103.533 13.888 103.779 13.984 103.971 14.176C104.173 14.3573 104.275 14.5867 104.275 14.864C104.275 15.152 104.179 15.3973 103.987 15.6C103.795 15.792 103.544 15.888 103.235 15.888ZM110.023 26.096C109.298 26.096 108.658 25.9627 108.103 25.696C107.559 25.4293 107.133 25.024 106.823 24.48C106.525 23.9253 106.375 23.232 106.375 22.4V17.52H107.911V22.224C107.911 23.056 108.109 23.68 108.503 24.096C108.909 24.512 109.474 24.72 110.199 24.72C110.733 24.72 111.197 24.6133 111.591 24.4C111.986 24.176 112.29 23.856 112.503 23.44C112.717 23.0133 112.823 22.5013 112.823 21.904V17.52H114.359V26H112.903V23.712L113.143 24.32C112.866 24.8853 112.45 25.3227 111.895 25.632C111.341 25.9413 110.717 26.096 110.023 26.096ZM127.412 17.44C128.094 17.44 128.697 17.5733 129.22 17.84C129.742 18.1067 130.148 18.512 130.436 19.056C130.734 19.6 130.884 20.288 130.884 21.12V26H129.348V21.296C129.348 20.4747 129.156 19.856 128.772 19.44C128.388 19.024 127.849 18.816 127.156 18.816C126.644 18.816 126.196 18.9227 125.812 19.136C125.428 19.3493 125.129 19.664 124.916 20.08C124.713 20.496 124.612 21.0133 124.612 21.632V26H123.076V21.296C123.076 20.4747 122.884 19.856 122.5 19.44C122.126 19.024 121.588 18.816 120.884 18.816C120.382 18.816 119.94 18.9227 119.556 19.136C119.172 19.3493 118.873 19.664 118.66 20.08C118.446 20.496 118.34 21.0133 118.34 21.632V26H116.804V17.52H118.276V19.776L118.036 19.2C118.302 18.6453 118.713 18.2133 119.268 17.904C119.822 17.5947 120.468 17.44 121.204 17.44C122.014 17.44 122.713 17.6427 123.3 18.048C123.886 18.4427 124.27 19.0453 124.452 19.856L123.828 19.6C124.084 18.9493 124.532 18.4267 125.172 18.032C125.812 17.6373 126.558 17.44 127.412 17.44ZM139.015 29.104C138.407 28.1333 137.937 27.0133 137.607 25.744C137.276 24.464 137.111 23.088 137.111 21.616C137.111 20.144 137.276 18.768 137.607 17.488C137.937 16.1973 138.407 15.0773 139.015 14.128H140.471C139.831 15.2587 139.361 16.4427 139.063 17.68C138.764 18.9067 138.615 20.2187 138.615 21.616C138.615 23.0133 138.764 24.3307 139.063 25.568C139.361 26.7947 139.831 27.9733 140.471 29.104H139.015ZM142.181 26V14.8H146.549C147.531 14.8 148.368 14.9547 149.061 15.264C149.755 15.5733 150.288 16.0213 150.661 16.608C151.035 17.1947 151.221 17.8933 151.221 18.704C151.221 19.5147 151.035 20.2133 150.661 20.8C150.288 21.376 149.755 21.824 149.061 22.144C148.368 22.4533 147.531 22.608 146.549 22.608H143.061L143.781 21.856V26H142.181ZM143.781 22.016L143.061 21.216H146.501C147.525 21.216 148.299 20.9973 148.821 20.56C149.355 20.1227 149.621 19.504 149.621 18.704C149.621 17.904 149.355 17.2853 148.821 16.848C148.299 16.4107 147.525 16.192 146.501 16.192H143.061L143.781 15.392V22.016ZM152.712 26V17.52H154.184V19.824L154.04 19.248C154.274 18.6613 154.669 18.2133 155.224 17.904C155.778 17.5947 156.461 17.44 157.272 17.44V18.928C157.208 18.9173 157.144 18.912 157.08 18.912C157.026 18.912 156.973 18.912 156.92 18.912C156.098 18.912 155.448 19.1573 154.968 19.648C154.488 20.1387 154.248 20.848 154.248 21.776V26H152.712ZM162.383 26.096C161.476 26.096 160.676 25.9093 159.983 25.536C159.3 25.1627 158.767 24.6507 158.383 24C158.009 23.3493 157.823 22.6027 157.823 21.76C157.823 20.9173 158.004 20.1707 158.367 19.52C158.74 18.8693 159.247 18.3627 159.887 18C160.537 17.6267 161.268 17.44 162.079 17.44C162.9 17.44 163.625 17.6213 164.255 17.984C164.884 18.3467 165.375 18.8587 165.727 19.52C166.089 20.1707 166.271 20.9333 166.271 21.808C166.271 21.872 166.265 21.9467 166.255 22.032C166.255 22.1173 166.249 22.1973 166.239 22.272H159.023V21.168H165.439L164.815 21.552C164.825 21.008 164.713 20.5227 164.479 20.096C164.244 19.6693 163.919 19.3387 163.503 19.104C163.097 18.8587 162.623 18.736 162.079 18.736C161.545 18.736 161.071 18.8587 160.655 19.104C160.239 19.3387 159.913 19.6747 159.679 20.112C159.444 20.5387 159.327 21.0293 159.327 21.584V21.84C159.327 22.4053 159.455 22.912 159.711 23.36C159.977 23.7973 160.345 24.1387 160.815 24.384C161.284 24.6293 161.823 24.752 162.431 24.752C162.932 24.752 163.385 24.6667 163.791 24.496C164.207 24.3253 164.569 24.0693 164.879 23.728L165.727 24.72C165.343 25.168 164.863 25.5093 164.287 25.744C163.721 25.9787 163.087 26.096 162.383 26.096ZM167.536 22.272V20.944H171.84V22.272H167.536ZM173.725 26V17.52H175.197V19.824L175.053 19.248C175.287 18.6613 175.682 18.2133 176.237 17.904C176.791 17.5947 177.474 17.44 178.285 17.44V18.928C178.221 18.9173 178.157 18.912 178.093 18.912C178.039 18.912 177.986 18.912 177.933 18.912C177.111 18.912 176.461 19.1573 175.981 19.648C175.501 20.1387 175.261 20.848 175.261 21.776V26H173.725ZM183.396 26.096C182.489 26.096 181.689 25.9093 180.996 25.536C180.313 25.1627 179.78 24.6507 179.396 24C179.022 23.3493 178.836 22.6027 178.836 21.76C178.836 20.9173 179.017 20.1707 179.38 19.52C179.753 18.8693 180.26 18.3627 180.9 18C181.55 17.6267 182.281 17.44 183.092 17.44C183.913 17.44 184.638 17.6213 185.268 17.984C185.897 18.3467 186.388 18.8587 186.74 19.52C187.102 20.1707 187.284 20.9333 187.284 21.808C187.284 21.872 187.278 21.9467 187.268 22.032C187.268 22.1173 187.262 22.1973 187.252 22.272H180.036V21.168H186.452L185.828 21.552C185.838 21.008 185.726 20.5227 185.492 20.096C185.257 19.6693 184.932 19.3387 184.516 19.104C184.11 18.8587 183.636 18.736 183.092 18.736C182.558 18.736 182.084 18.8587 181.668 19.104C181.252 19.3387 180.926 19.6747 180.692 20.112C180.457 20.5387 180.34 21.0293 180.34 21.584V21.84C180.34 22.4053 180.468 22.912 180.724 23.36C180.99 23.7973 181.358 24.1387 181.828 24.384C182.297 24.6293 182.836 24.752 183.444 24.752C183.945 24.752 184.398 24.6667 184.804 24.496C185.22 24.3253 185.582 24.0693 185.892 23.728L186.74 24.72C186.356 25.168 185.876 25.5093 185.3 25.744C184.734 25.9787 184.1 26.096 183.396 26.096ZM188.937 26V14.128H190.473V26H188.937ZM196.701 26.096C195.795 26.096 194.995 25.9093 194.301 25.536C193.619 25.1627 193.085 24.6507 192.701 24C192.328 23.3493 192.141 22.6027 192.141 21.76C192.141 20.9173 192.323 20.1707 192.685 19.52C193.059 18.8693 193.565 18.3627 194.205 18C194.856 17.6267 195.587 17.44 196.397 17.44C197.219 17.44 197.944 17.6213 198.573 17.984C199.203 18.3467 199.693 18.8587 200.045 19.52C200.408 20.1707 200.589 20.9333 200.589 21.808C200.589 21.872 200.584 21.9467 200.573 22.032C200.573 22.1173 200.568 22.1973 200.557 22.272H193.341V21.168H199.757L199.133 21.552C199.144 21.008 199.032 20.5227 198.797 20.096C198.563 19.6693 198.237 19.3387 197.821 19.104C197.416 18.8587 196.941 18.736 196.397 18.736C195.864 18.736 195.389 18.8587 194.973 19.104C194.557 19.3387 194.232 19.6747 193.997 20.112C193.763 20.5387 193.645 21.0293 193.645 21.584V21.84C193.645 22.4053 193.773 22.912 194.029 23.36C194.296 23.7973 194.664 24.1387 195.133 24.384C195.603 24.6293 196.141 24.752 196.749 24.752C197.251 24.752 197.704 24.6667 198.109 24.496C198.525 24.3253 198.888 24.0693 199.197 23.728L200.045 24.72C199.661 25.168 199.181 25.5093 198.605 25.744C198.04 25.9787 197.405 26.096 196.701 26.096ZM207.272 26V24.208L207.192 23.872V20.816C207.192 20.1653 207 19.664 206.616 19.312C206.243 18.9493 205.677 18.768 204.92 18.768C204.419 18.768 203.928 18.8533 203.448 19.024C202.968 19.184 202.563 19.4027 202.232 19.68L201.592 18.528C202.029 18.176 202.552 17.9093 203.16 17.728C203.779 17.536 204.424 17.44 205.096 17.44C206.259 17.44 207.155 17.7227 207.784 18.288C208.413 18.8533 208.728 19.7173 208.728 20.88V26H207.272ZM204.488 26.096C203.859 26.096 203.304 25.9893 202.824 25.776C202.355 25.5627 201.992 25.2693 201.736 24.896C201.48 24.512 201.352 24.08 201.352 23.6C201.352 23.1413 201.459 22.7253 201.672 22.352C201.896 21.9787 202.253 21.68 202.744 21.456C203.245 21.232 203.917 21.12 204.76 21.12H207.448V22.224H204.824C204.056 22.224 203.539 22.352 203.272 22.608C203.005 22.864 202.872 23.1733 202.872 23.536C202.872 23.952 203.037 24.288 203.368 24.544C203.699 24.7893 204.157 24.912 204.744 24.912C205.32 24.912 205.821 24.784 206.248 24.528C206.685 24.272 207 23.8987 207.192 23.408L207.496 24.464C207.293 24.9653 206.936 25.3653 206.424 25.664C205.912 25.952 205.267 26.096 204.488 26.096ZM213.522 26.096C212.818 26.096 212.146 26 211.506 25.808C210.877 25.616 210.381 25.3813 210.018 25.104L210.658 23.888C211.021 24.1333 211.469 24.3413 212.002 24.512C212.536 24.6827 213.08 24.768 213.634 24.768C214.349 24.768 214.861 24.6667 215.17 24.464C215.49 24.2613 215.65 23.9787 215.65 23.616C215.65 23.3493 215.554 23.1413 215.362 22.992C215.17 22.8427 214.914 22.7307 214.594 22.656C214.285 22.5813 213.938 22.5173 213.554 22.464C213.17 22.4 212.786 22.3253 212.402 22.24C212.018 22.144 211.666 22.016 211.346 21.856C211.026 21.6853 210.77 21.456 210.578 21.168C210.386 20.8693 210.29 20.4747 210.29 19.984C210.29 19.472 210.434 19.024 210.722 18.64C211.01 18.256 211.416 17.9627 211.938 17.76C212.472 17.5467 213.101 17.44 213.826 17.44C214.381 17.44 214.941 17.5093 215.506 17.648C216.082 17.776 216.552 17.9627 216.914 18.208L216.258 19.424C215.874 19.168 215.474 18.992 215.058 18.896C214.642 18.8 214.226 18.752 213.81 18.752C213.138 18.752 212.637 18.864 212.306 19.088C211.976 19.3013 211.81 19.5787 211.81 19.92C211.81 20.208 211.906 20.432 212.098 20.592C212.301 20.7413 212.557 20.8587 212.866 20.944C213.186 21.0293 213.538 21.104 213.922 21.168C214.306 21.2213 214.69 21.296 215.074 21.392C215.458 21.4773 215.805 21.6 216.114 21.76C216.434 21.92 216.69 22.144 216.882 22.432C217.085 22.72 217.186 23.104 217.186 23.584C217.186 24.096 217.037 24.5387 216.738 24.912C216.44 25.2853 216.018 25.5787 215.474 25.792C214.93 25.9947 214.28 26.096 213.522 26.096ZM222.402 26.096C221.495 26.096 220.695 25.9093 220.002 25.536C219.319 25.1627 218.786 24.6507 218.402 24C218.029 23.3493 217.842 22.6027 217.842 21.76C217.842 20.9173 218.023 20.1707 218.386 19.52C218.759 18.8693 219.266 18.3627 219.906 18C220.557 17.6267 221.287 17.44 222.098 17.44C222.919 17.44 223.645 17.6213 224.274 17.984C224.903 18.3467 225.394 18.8587 225.746 19.52C226.109 20.1707 226.29 20.9333 226.29 21.808C226.29 21.872 226.285 21.9467 226.274 22.032C226.274 22.1173 226.269 22.1973 226.258 22.272H219.042V21.168H225.458L224.834 21.552C224.845 21.008 224.733 20.5227 224.498 20.096C224.263 19.6693 223.938 19.3387 223.522 19.104C223.117 18.8587 222.642 18.736 222.098 18.736C221.565 18.736 221.09 18.8587 220.674 19.104C220.258 19.3387 219.933 19.6747 219.698 20.112C219.463 20.5387 219.346 21.0293 219.346 21.584V21.84C219.346 22.4053 219.474 22.912 219.73 23.36C219.997 23.7973 220.365 24.1387 220.834 24.384C221.303 24.6293 221.842 24.752 222.45 24.752C222.951 24.752 223.405 24.6667 223.81 24.496C224.226 24.3253 224.589 24.0693 224.898 23.728L225.746 24.72C225.362 25.168 224.882 25.5093 224.306 25.744C223.741 25.9787 223.106 26.096 222.402 26.096ZM228.455 29.104H226.999C227.65 27.9733 228.124 26.7947 228.423 25.568C228.722 24.3307 228.871 23.0133 228.871 21.616C228.871 20.2187 228.722 18.9067 228.423 17.68C228.124 16.4427 227.65 15.2587 226.999 14.128H228.455C229.084 15.0773 229.559 16.1973 229.879 17.488C230.21 18.768 230.375 20.144 230.375 21.616C230.375 23.088 230.21 24.464 229.879 25.744C229.559 27.0133 229.084 28.1333 228.455 29.104Z"
        fill="#B5DFE8" />
</svg>
