<svg xmlns="http://www.w3.org/2000/svg" width="1em" height="1em" viewBox="0 0 128 128"><path fill="#E1E1E1" d="m47.95 111.51l37.52.05l39.77-16.2s.26-12.59-.51-25.62c-.77-13.03-4.38-32.84-4.38-32.84s.22-3.62-.22-5.58c-.42-1.86-1.54-3.37-4.65-3.55c-2.85-.17-67.12 0-68.87.22s-12.3 12.97-12.3 12.97S19.43 65.58 19 66.13c-.44.55-10.16 7.1-11.71 9.09C5.67 77.3 5.78 79 5.78 79l.06 16.83z"/><path fill="#516C73" d="M125.25 95.35s-21.72-.2-26.21.74s-7.51 3.62-10.05 7.71c-2.55 4.09-3.55 7.78-3.55 7.78s35.46-.07 36.66 0s2.82-1.81 2.95-4.36c.14-2.55.2-11.87.2-11.87M47.97 111.5s-3.08-7.37-6.3-10.66s-7.91-5.5-13.54-5.7c-5.63-.2-22.27-.33-22.27-.33s-3.74 3.08-4.01 7.43c-.27 4.36 0 8.51 3.49 8.78s42.63.48 42.63.48"/><path fill="#4E433D" d="M15.48 112.45c.08 4.73 3.85 11.55 12.07 11.6s12.48-6.24 12.22-12.69c-.26-6.56-5.36-11.18-12.69-10.98c-6.87.2-11.71 5.52-11.6 12.07"/><path fill="#C8C8C8" d="M21.35 112.17c.04 2.5 2.02 6.09 6.34 6.12c4.32.03 6.42-3.1 6.28-6.5c-.14-3.46-2.9-6.03-6.53-5.98c-3.6.05-6.14 2.91-6.09 6.36"/><path fill="#4E433D" d="M93.93 111.89c.08 4.73 3.85 11.55 12.07 11.6s12.48-6.24 12.22-12.69c-.26-6.56-5.36-11.18-12.69-10.98c-6.86.19-11.7 5.51-11.6 12.07"/><path fill="#C8C8C8" d="M99.81 111.61c.04 2.5 2.02 6.09 6.34 6.12c4.32.03 6.42-3.1 6.28-6.5c-.14-3.46-2.9-6.03-6.53-5.98c-3.6.05-6.15 2.9-6.09 6.36"/><path fill="#D70617" d="m5.82 90.86l119.47.47s.02-2.12.02-4.92c0-2.76-.1-4.83-.1-4.83L5.74 81.55z"/><path fill="#FFE365" d="M5.76 78.97s12.17-.05 12.83-.05s1.18.51 1.18 1.38c0 .87.36 4.09-2.25 6.49c-1.12 1.03-3.54 1.25-5.83 1.28c-3.43.04-5.62.06-5.9.06c0 0-.15-6.81-.13-7.64c.04-.97.1-1.52.1-1.52"/><path fill="#C9C9C9" d="m34.05 41.4l87.09-.02l-.35-2.26c-.2-1.29-.43-2.21-.43-2.21L46.53 37l.09-9.02s-1.79-.21-2.73.67c-1.33 1.25-3.72 3.76-6.03 6.79c-1.81 2.37-3.81 5.96-3.81 5.96"/><path fill="#FA2B23" d="M37.32 31.86c-2.3 2.57-1.65 6.79-1.65 6.79s7.48.24 7.74-.18c.26-.41.15-9.46.15-9.46s-3.13-.64-6.24 2.85"/><path fill="#DD0F26" d="M46.62 28.01c.41-.05 23.78-.2 23.78-.2s0-4.01-.04-5.46c-.05-1.97-1.61-3.47-4.45-3.57c-1.99-.07-13.31-.16-15.12-.05c-1.81.1-3.88 1.61-3.99 3.88s-.18 5.4-.18 5.4"/><path fill="#FF5B5E" d="m55.42 23.2l1.32 2.88l-3.16-.05s-2.43-2.33-2.43-2.85s2.69-2.54 2.69-2.54l3.33-.04zm5.65.06l-1.17 2.9l2.63-.02s2.7-2.32 2.73-2.77c.04-.65-2.71-2.76-2.71-2.76l-2.95-.01z"/><path fill="#1E86FE" d="M90.78 44.69c-.21 1.68-.35 16.27-.35 16.27l.07 14.94l7.47-.14l.42-15.29l-.28-15.64z"/><path fill="#1E86FE" d="m79.77 65.24l12.56-8.59l12.99-8.24l4.05 6l-12.85 8.94l-12.98 8.03z"/><path fill="#1E86FE" d="m83.12 48.69l-3.91 5.86l12.42 9.15l12.85 7.96l4.12-5.87l-12.99-9.14z"/><path fill="#557077" d="M38.09 45.76c-1.39.13-2.72.56-3.77 2.16c-1.05 1.61-10.12 18.01-11.03 19.55c-.49.83-1.07 2.12-.85 3.13c.19.85 1.07 1.49 2.03 1.55c2.09.14 28.76-.07 30.23-.07c1.47 0 2.72-1.26 2.79-3.49s.18-18.44 0-20.18c-.21-2.02-1.54-2.65-3.21-2.72c-1.54-.07-14.73-.07-16.19.07"/><path fill="#AFE3FB" d="M39.7 50.04c-1.37.02-2.43.47-3.48 2.22c-.61 1.02-7.89 14.24-8.1 14.87c-.21.63.28 1.19 1.33 1.19s21.22-.14 22.48-.14c1.26 0 1.89-.91 1.95-2.79c.07-1.89 0-12.36 0-13.47s-.56-1.89-2.02-1.89c-1.46-.01-10.9-.02-12.16.01"/></svg>