<svg xmlns="http://www.w3.org/2000/svg" width="1em" height="1em" viewBox="0 0 128 128"><path fill="#e1e1e1" d="m47.95 111.51 37.52.05 39.77-16.2s.26-12.59-.51-25.62-4.38-32.84-4.38-32.84.22-3.62-.22-5.58c-.42-1.86-1.54-3.37-4.65-3.55-2.85-.17-67.12 0-68.87.22s-12.3 12.97-12.3 12.97S19.43 65.58 19 66.13c-.44.55-10.16 7.1-11.71 9.09C5.67 77.3 5.78 79 5.78 79l.06 16.83z"/><path fill="#516c73" d="M125.25 95.35s-21.72-.2-26.21.74-7.51 3.62-10.05 7.71c-2.55 4.09-3.55 7.78-3.55 7.78s35.46-.07 36.66 0 2.82-1.81 2.95-4.36c.14-2.55.2-11.87.2-11.87M47.97 111.5s-3.08-7.37-6.3-10.66-7.91-5.5-13.54-5.7-22.27-.33-22.27-.33-3.74 3.08-4.01 7.43c-.27 4.36 0 8.51 3.49 8.78s42.63.48 42.63.48"/><path fill="#4e433d" d="M15.48 112.45c.08 4.73 3.85 11.55 12.07 11.6s12.48-6.24 12.22-12.69c-.26-6.56-5.36-11.18-12.69-10.98-6.87.2-11.71 5.52-11.6 12.07"/><path fill="#c8c8c8" d="M21.35 112.17c.04 2.5 2.02 6.09 6.34 6.12s6.42-3.1 6.28-6.5c-.14-3.46-2.9-6.03-6.53-5.98-3.6.05-6.14 2.91-6.09 6.36"/><path fill="#4e433d" d="M93.93 111.89c.08 4.73 3.85 11.55 12.07 11.6s12.48-6.24 12.22-12.69c-.26-6.56-5.36-11.18-12.69-10.98-6.86.19-11.7 5.51-11.6 12.07"/><path fill="#c8c8c8" d="M99.81 111.61c.04 2.5 2.02 6.09 6.34 6.12s6.42-3.1 6.28-6.5c-.14-3.46-2.9-6.03-6.53-5.98-3.6.05-6.15 2.9-6.09 6.36"/><path fill="#d70617" d="m5.82 90.86 119.47.47s.02-2.12.02-4.92c0-2.76-.1-4.83-.1-4.83L5.74 81.55z"/><path fill="#ffe365" d="M5.76 78.97s12.17-.05 12.83-.05 1.18.51 1.18 1.38.36 4.09-2.25 6.49c-1.12 1.03-3.54 1.25-5.83 1.28-3.43.04-5.62.06-5.9.06 0 0-.15-6.81-.13-7.64.04-.97.1-1.52.1-1.52"/><path fill="#c9c9c9" d="m34.05 41.4 87.09-.02-.35-2.26c-.2-1.29-.43-2.21-.43-2.21L46.53 37l.09-9.02s-1.79-.21-2.73.67c-1.33 1.25-3.72 3.76-6.03 6.79-1.81 2.37-3.81 5.96-3.81 5.96"/><path fill="#fa2b23" d="M37.32 31.86c-2.3 2.57-1.65 6.79-1.65 6.79s7.48.24 7.74-.18c.26-.41.15-9.46.15-9.46s-3.13-.64-6.24 2.85"/><path fill="#dd0f26" d="M46.62 28.01c.41-.05 23.78-.2 23.78-.2s0-4.01-.04-5.46c-.05-1.97-1.61-3.47-4.45-3.57-1.99-.07-13.31-.16-15.12-.05-1.81.1-3.88 1.61-3.99 3.88s-.18 5.4-.18 5.4"/><path fill="#ff5b5e" d="m55.42 23.2 1.32 2.88-3.16-.05s-2.43-2.33-2.43-2.85 2.69-2.54 2.69-2.54l3.33-.04zm5.65.06-1.17 2.9 2.63-.02s2.7-2.32 2.73-2.77c.04-.65-2.71-2.76-2.71-2.76l-2.95-.01z"/><path fill="#1e86fe" d="M90.78 44.69c-.21 1.68-.35 16.27-.35 16.27l.07 14.94 7.47-.14.42-15.29-.28-15.64z"/><path fill="#1e86fe" d="m79.77 65.24 12.56-8.59 12.99-8.24 4.05 6-12.85 8.94-12.98 8.03z"/><path fill="#1e86fe" d="m83.12 48.69-3.91 5.86 12.42 9.15 12.85 7.96 4.12-5.87-12.99-9.14z"/><path fill="#557077" d="M38.09 45.76c-1.39.13-2.72.56-3.77 2.16-1.05 1.61-10.12 18.01-11.03 19.55-.49.83-1.07 2.12-.85 3.13.19.85 1.07 1.49 2.03 1.55 2.09.14 28.76-.07 30.23-.07s2.72-1.26 2.79-3.49.18-18.44 0-20.18c-.21-2.02-1.54-2.65-3.21-2.72-1.54-.07-14.73-.07-16.19.07"/><path fill="#afe3fb" d="M39.7 50.04c-1.37.02-2.43.47-3.48 2.22-.61 1.02-7.89 14.24-8.1 14.87s.28 1.19 1.33 1.19 21.22-.14 22.48-.14 1.89-.91 1.95-2.79c.07-1.89 0-12.36 0-13.47s-.56-1.89-2.02-1.89c-1.46-.01-10.9-.02-12.16.01"/></svg>