<svg xmlns="http://www.w3.org/2000/svg" width="1em" height="1em" viewBox="0 0 128 128"><path fill="#5E6366" d="m63.44 97.98l-.03 11.39l10.8-.12l-.05-11.27z"/><path fill="#808378" d="m84.89 96.4l-.14 17.34l36.08-.56l-.14-17.62zM4.02 113.91l76.64.25l-.09-9.03l-28.94.15l.14-7.47l-24.39-11.84l-23.37 20.46z"/><path fill="#D70617" d="M1.31 105.99c.46.77 12.4.42 12.4.42l4.23-9.16l20.44.7l13.39-.14l.3-56.81s-9.04-2.11-9.18-1.55c-.14.56-2.68 8.03-2.68 8.03L15.68 48.9L9.2 65.67l-3.81 11.7V90.9L1 94.24s-.12 11.04.31 11.75"/><path fill="#C6C7C1" d="M55.79 32.75c-.18.23-.2 1.22-.2 2.07c-.01 1.92-.02 4.36-.02 4.36h68.64s.03-2.15.02-3.92c-.01-1.15.11-2.15-.06-2.32c-.22-.22-18.12-.23-35.34-.25c-16.6-.01-32.83-.22-33.04.06m4.8 61.82l-5.05 3.49s-.16 2.03.49 2.77c.31.35 15.39.08 31.59.01c17.58-.08 36.13-.1 36.37-.29c.46-.37.33-3.93.33-3.93z"/><path fill="#E1E1E1" d="m63.41 37.86l-7.84 1.32l.06 53.59l38.87 2.79l29.74-2.79l-.03-51.81l-32.92-3.33s-27.99-.23-27.88.23"/><path fill="#B0B0B0" d="m68.52 94.73l-2.5-.02c0-.49.37-49.15.37-54.56h2.5c0 5.42-.37 54.09-.37 54.58m12.615-.973l.252-53.83l2.5.011l-.252 53.83zM96.05 40.02h2.5v54.2h-2.5zm14.948.133l2.5-.006l.125 53.83l-2.5.006z"/><path fill="#4F8B26" d="m55.58 35.62l68.67.25v5.88l-68.67-.44zm.04 57.12s68.53-.3 68.63 0c.11.3.09 5.08.09 5.08l-68.8.24z"/><path fill="#F92610" d="M52.07 41.01s-4.34.55-6.7 2.92c-2.37 2.37-3.31 6.15-3.31 6.15l-24.76.23l-9.46 27.75l-.39 3.55v12.46l-6.49.28s.03-4.3.35-4.62s2.52-.16 2.52-.16s-.25-12.22.07-12.93c.32-.71 9.85-26.8 10.25-27.51s.79-2.44 2.52-2.52c1.73-.08 20.26-.39 20.26-.39s.16-6.31 5.28-10.33c5.19-4.07 10.01-3.15 10.01-3.15zM38.93 97.94s.71-3.27-.99-4.51c-1.53-1.12-7.62-1.44-12.66-1.38c-6.37.08-9.38.39-11.82 4.21c-2.21 3.48-1.64 7.72-1.47 8.49c.29 1.42 1.3 2.36 2.65 2.3s2.6-.53 2.6-2.71c0-2.93 1.47-4.48 3.24-5.25s3.95-.94 7.61-.94s10.84-.21 10.84-.21"/><path fill="#C7C9C9" d="M6.09 106.47c-.02.16.01-4.44-.01-7.88c-.01-3.13-.1-8.19.41-8.38c.45-.16 3.24-.41 3.72.18c.47.59.19 16.08.19 16.08s-1.16.04-2.09.04s-2.22-.04-2.22-.04m17.35-56.66c-1.3.25-1.9 1-1.96 2.54c-.07 1.89.06 26.72.12 27.49c.06.77.59 1.85 3.01 1.89c4.31.06 8.61.12 10.2 0c1.24-.09 1.71-1.12 1.83-2.6c.12-1.47-.12-25.66-.06-26.9c.04-.89-.18-2.54-3.05-2.54c-1.05.01-9-.09-10.09.12"/><path fill="#B0E2FD" d="M25.23 52.49c-.9.21-1.15.83-1.19 2.1c-.05 1.56 0 21.97.04 22.6c.04.63.29 1.63 1.96 1.66c2.98.05 5.97.1 7.07 0c.86-.08 1.19-.93 1.27-2.14c.08-1.22-.08-21.19-.04-22.21c.03-.74-.12-2.09-2.11-2.09c-.74-.02-6.24-.1-7 .08"/><path fill="#C7C9C9" d="M18.59 51.64c-.11-1.23-.51-1.31-1.29-1.33c-.78-.02-1.31.15-1.72 1.1c-.41.94-8.55 24.18-8.67 24.89c-.07.45-.17 2.38-.16 3.83c.01.86-.04 1.38.54 1.64c.31.14 2.14.21 4.93.19c3.24-.02 5.01-.06 5.66-.77c.83-.9.57-3.96.59-6.08c.07-8.62.16-22.96.12-23.47"/><path fill="#B0E2FD" d="M16.46 55.95c-.53-.06-7.31 20.7-7.31 21.06s-.12 2.18 0 2.3c.19.19 1.79.19 3.36.18c1.57-.01 3.1-.03 3.36-.24c.53-.41.25-5.61.41-11.09c.18-5.96.46-12.18.18-12.21"/><path fill="#524745" d="M28.42 104.19c-6.36.11-10.35 5.03-9.87 10.73c.47 5.7 4.93 9.02 10.06 9.02c5.22 0 9.59-3.32 9.78-9.59c.18-6.27-4.28-10.26-9.97-10.16"/><path fill="#C8C8C8" d="M28.32 109.22c-2.37.07-4.37 1.67-4.46 4.65c-.07 2.32 1.8 4.28 4.37 4.46c3.03.22 4.84-2.04 4.75-4.65c-.08-2.04-1.43-4.56-4.66-4.46"/><path fill="#524745" d="M78.84 114.79c.29-6.35-4.37-10.64-10.09-10.53c-5.71.12-9.31 4.36-9.63 9.48c-.33 5.21 2.72 9.78 8.96 10.36c6.24.58 10.5-3.62 10.76-9.31"/><path fill="#C8C8C8" d="M73.5 114.27c.06-2.37-1.37-4.46-4.29-4.74c-2.28-.22-4.32 1.54-4.66 4.08c-.41 3.01 1.71 4.96 4.27 5.02c2.01.06 4.6-1.13 4.68-4.36"/><path fill="#524745" d="M103.67 112.35c-1.12-6.26-6.63-9.41-12.17-8.02c-5.55 1.38-8.11 6.32-7.29 11.38c.84 5.15 4.82 8.93 11.03 8.11s9.44-5.86 8.43-11.47"/><path fill="#C8C8C8" d="M98.49 113.26c-.45-2.33-2.35-4.04-5.3-3.66c-2.3.3-3.93 2.47-3.7 5.03c.27 3.03 2.8 4.45 5.35 3.94c2-.41 4.27-2.14 3.65-5.31"/><path fill="#524745" d="M111.14 123.76c6.32.67 10.89-3.73 11.11-9.44c.23-5.71-3.79-9.55-8.88-10.18c-5.18-.64-9.92 2.12-10.88 8.32c-.96 6.19 2.98 10.69 8.65 11.3"/><path fill="#C8C8C8" d="M111.97 118.45c2.37.2 4.54-1.1 4.99-4c.35-2.26-1.11-4.86-3.78-5.21c-3.01-.4-5.07 1.72-5.29 4.28c-.17 2.01.86 4.66 4.08 4.93"/></svg>