<svg viewBox="0 0 128 128"><path fill="#2f7c31" d="M72.7 71.5s-21.9-.2-22.2 0q-.5.3-.5 3.6c0 2.2 1.1 3.1 1.5 3.2h3.3s-1 2.4-1 3.3l.2 14.7 18.5-1.6zm24.3.2-14.4.3s-1 1.3-1 3.3 1.2 3.5 1.2 3.5l3.6.2-.2 3.7-.1 12 3.2 1.4 12.6-9z"/><path fill="#4e433d" d="m29 83-4.8 4.5 10 11.1 8-1.5z"/><path fill="#afe3fb" d="m36 62.5-13.4-2.8s0-1.2.5-3.5a246 246 0 0 1 9.7-24l9.8-2.9.2 32z"/><path fill="#b0b0b0" d="M70.9 33v36l6.7-.9.1-35.2z"/><path fill="#ffb803" d="M24 70.4 22.5 68s-.3-2.6-.2-5.1l.2-3.3h14.6c1.6 0 3.4-1.3 3.4-4.1L41 34 27.9 22.2l-.8-4.5s3.6-2.8 8.7-2.3S44 20 44 20l61.2.2c6 0 8.4 1.3 12.3 5.7 3 3.4 4.7 9.7 5 12.8s3 23.8 3 25.3-.4 3.5-2 3.8-4 1.5-4 1.5l-17.7.6-2.8-.1V39.2c0-1.7-.7-3.4-3-3.6s-14.8.1-24.8 0c-10 0-24.5-.3-24.5-.3l-.3 32.3L33 72.1z"/><path fill="#536f7d" d="M17.3 19.4C17 20.9 31.8 34 32 34s8.8.3 9 .2c.3-.2-13.8-16.7-13.8-16.7s-9.8.3-10 1.9"/><path fill="#02ab46" d="M22.5 67.6h23.9l-.1 26.8h10.6c2 0 3.6-1.3 3.7-3.5s-.1-8.6-.1-10 .5-2.4 2.6-2.5H71V67.6h6.7v22.7c0 1.9 1.2 3.7 2.8 3.7h12.2l1-5.4s-1-10 .7-14.2 4.6-6.5 4.6-6.5l24.5-.3.3 29.7c0 .8-1.4 3.5-1.4 3.5H83.8l-47.6-.2-5.6-3.5s1.1-.6 3-.7 3.1-1.3 2.2-2.8-8.1-7.3-11.2-15.3c-1.9-5.2-2-10.8-2-10.8"/><path fill="#4e433d" d="M11.6 121.1a15.3 15.3 0 1 1 17.1-25.3c7.7 5.4 9 14.3 4.3 21.4s-14.3 8.7-21.4 4"/><path fill="#1c1d1e" d="M22.9 114.3a6.7 6.7 0 0 0 3.4-9c-1.3-3-5-5-8.5-3.5-3.3 1.4-5.4 5-4 8.8a6.6 6.6 0 0 0 9 3.7"/><path fill="#4e433d" d="M18.6 110.6c-1.3-1-1.7-2.7-.8-4s2.7-1.8 4-.8c1.5 1 1.8 2.7.9 4a3 3 0 0 1-4 .8"/><path fill="#2f7c31" d="M83.3 107.4s-1.8-22.4 20.2-23 20.7 23 20.3 23.4-40.5-.4-40.5-.4"/><path fill="#4e433d" d="M119.5 107.5c0 9.2-7.2 16.4-16.4 16.4s-16.5-7.3-16.3-16.4c.3-10 7.4-16.6 16.6-16.6s16.1 7.5 16.1 16.6"/><path fill="#1c1d1e" d="M106.8 101.6a7 7 0 0 0-10 2.4 7 7 0 0 0 1.9 9.6c3.2 2 7.7 1.8 10.2-1.8a7 7 0 0 0-2-10.2"/><path fill="#4e433d" d="M106 107.6c0 1.8-1.4 3.1-3.1 3.1s-3.1-1.4-3-3c0-2 1.3-3.2 3-3.2s3 1.4 3 3.1"/><path fill="#ff8b00" d="M100.7 72.4c-.5.3-.5 4.8-.2 5H114l.1-4.9s-13.3-.3-13.5-.2"/><path fill="#2f7c31" d="M35.4 105.3s4.2.2 4.7 0c.4-.4-9.2-19.4-21.3-21.2-8.3-1.1-13.3 2.4-15.2 6.5s-1.2 8.4-1 8.6 10.2-5 18.8-3c9.3 2.1 14 9 14 9"/><path fill="#b0b0b0" d="M20.7 79.2c0 1.9-4.6 6.3-10.2 6.7-2.4.2-5.3-2.2-5.2-7 .2-5.2 2.4-6.8 4.6-6.9 5.7-.1 10.8 4.9 10.8 7.2"/><path fill="#fff" d="M9.2 82.8C8 82.8 7 81 7 78.4c.1-2 1-3.9 2-3.9 1.2 0 2 1.9 2 4.3 0 1.9-.6 4-1.8 4"/></svg>