<svg xmlns="http://www.w3.org/2000/svg" width="1em" height="1em" viewBox="0 0 128 128"><path fill="#F92612" d="M20.85 97c-.41.14-17.5 5.37-17.5 5.37s-1.15-5.31-.1-10.71c1.11-5.72 2.56-9.12 2.56-9.12s1.58-3.85 6.47-7.01c4.11-2.66 13.53-5.48 15.7-6.86c1.44-.91 3.87-2.55 7.56-6.61s6.61-8.31 13.13-11.33s9.92-2.55 17-3.02c7.08-.47 14.73-.28 20.5 0s10.29 2.93 11.81 3.87c1.51.94 5.29 4.16 7.27 6.23c1.98 2.08 4.34 5.19 6.14 6.71c1.79 1.51 4.63 3.31 7.08 4.72c2.46 1.42 3.97 2.64 4.44 3.87c.47 1.23.46 1.29.46 1.29l-1.69 17.5z"/><path fill="#D70617" d="M3.35 102.37s2.59-4.68 8.72-9.58c5.22-4.17 9.92-6.49 17.22-7.56c6.43-.94 19.32-.64 40.81-.54c21.49.09 36.78.12 38.74.03c1.96-.09 4.56-1.77 7.65-3.73c3.08-1.96 4.31.92 4.31.92l3.46 10.18s.13 11.74-.09 14.58c-.15 1.88-2.71 5.14-4.02 5.7s-24.95.93-31.95.93c-7.01 0-66.76-.18-72.78-.65c-2.8-.22-6.54-1.68-8.32-3.46c-3.28-3.27-3.75-6.82-3.75-6.82"/><path fill="#FFFEFF" d="M7.32 82.52s7.99-1 8.56-.6c.71.5-2.43 5.91-3.26 7c-.41.54-7.45 3.94-7.45 3.94l.02-4.89z"/><path fill="#D5CCC2" d="m2.91 94.06l3.1-1.62s.55-3.09.89-4.56c.55-2.43 1.9-5.56 1.9-5.56l-3.03.28s-.99 1.69-1.9 5.48c-.97 4.09-.96 5.98-.96 5.98"/><path fill="#546D81" d="M32 76.59c.22 2.16 2.61 2.11 9.44 2.11c5.45 0 60.4.51 61.71-.07c.64-.28 1.52-1.47 2.61-3.05c1.64-2.36 2.4-3.48 2.25-4.36c-.29-1.72-9.22-12.99-14.81-16.33c-3.87-2.31-12.2-2.32-19.09-2.4c-6.24-.07-18.08-.22-23.74 3.41C41.94 61.31 31.71 73.76 32 76.59"/><path fill="#AFE3FB" d="M39.41 74.42c.44.55 9.13.39 17.21.36c8.27-.03 16.05.37 16.31 0c.12-.17.53-17.69.19-18c-.25-.23-2.39-.07-5.11-.04c-4.54.05-11.15.76-15.31 3.09c-7.15 3.99-14.16 13.5-13.29 14.59M78.1 57.1c-.07.13-.2 17.82-.09 17.89c.58.36 22.73.08 22.95-.21s2.61-2.61 2.54-3.19s-7.54-9.81-12.67-12.94c-2.25-1.39-12.61-1.75-12.73-1.55"/><path fill="#AF0F21" d="M37.25 81.01c.65 1.72 4.1 2.47 6.32 2.27c3.28-.3 5.25-2.21 5.6-6.14c.41-4.51-1.65-6.58-3.08-6.85c-1.52-.29-8.9 7.56-8.9 7.56s-.48 1.73.06 3.16"/><path fill="#F92612" d="M41.96 80.05c2.43-.26 4.17-2.5 5.01-4.29c.83-1.79 1.45-4.49-.42-5.31c-2.32-1.01-4.41.18-5.84 1.79c-1.26 1.42-3.7 4.65-3.52 5.6c.18.96 1.43 2.57 4.77 2.21"/><path fill="#4E433D" d="M17.81 110.37c.09 5.52 4.49 13.46 14.07 13.52s14.55-7.28 14.25-14.8c-.31-7.64-6.25-13.04-14.8-12.8c-8 .24-13.64 6.44-13.52 14.08"/><path fill="#C8C8C8" d="M24.48 109.91c.05 2.91 2.41 7.1 7.56 7.13c5.15.03 7.64-3.62 7.48-7.58c-.17-4.03-3.46-7.03-7.78-6.97c-4.3.07-7.33 3.39-7.26 7.42"/><path fill="#4E433D" d="M88.53 110.83c.09 5.48 4.39 13.36 13.77 13.42s14.24-7.22 13.95-14.68c-.3-7.59-6.11-12.94-14.48-12.7c-7.83.23-13.36 6.38-13.24 13.96"/><path fill="#C8C8C8" d="M94.79 110.4c.05 2.91 2.41 7.1 7.56 7.13s7.64-3.62 7.48-7.58c-.17-4.03-3.46-7.03-7.78-6.97c-4.29.07-7.32 3.39-7.26 7.42"/><path fill="#FFFEFF" d="M121.26 76.17c-.29.41-5.31 4.55-5.31 5.19s5.72 8.91 5.72 8.91l1.34.81s.64-10.48.64-10.71c0-.21-2.39-4.2-2.39-4.2"/><path fill="#D5CCC2" d="M124.27 93.63s.47-7.53.41-11.6c-.06-4.43-1.32-7.68-1.32-7.68l-2.12 1.85s.72 3.92.72 6.49s-.29 7.58-.29 7.58z"/></svg>