<svg viewBox="0 0 128 128"><path fill="#f92612" d="m20.9 97-17.5 5.4S2.2 97 3.3 91.7c1-5.8 2.5-9.2 2.5-9.2s1.6-3.8 6.5-7c4-2.6 13.5-5.5 15.7-6.8 1.4-1 3.9-2.6 7.5-6.6s6.7-8.4 13.2-11.4 9.9-2.5 17-3 14.7-.3 20.5 0 10.3 3 11.8 3.9a55 55 0 0 1 7.3 6.2c2 2 4.3 5.2 6 6.7 1.9 1.5 4.7 3.3 7.2 4.7q3.7 2.2 4.4 4l.5 1.2-1.7 17.5z"/><path fill="#d70617" d="M3.4 102.4s2.5-4.7 8.7-9.6c5.2-4.2 9.9-6.5 17.2-7.6 6.4-1 19.3-.6 40.8-.5h38.7c2 0 4.6-1.8 7.7-3.7 3-2 4.3 1 4.3 1l3.5 10-.1 14.7c-.2 1.8-2.7 5.1-4 5.7s-25 .9-32 .9-66.8-.2-72.8-.6c-2.8-.3-6.5-1.7-8.3-3.5a13 13 0 0 1-3.7-6.8"/><path fill="#fffeff" d="M7.3 82.5s8-1 8.6-.6c.7.5-2.4 6-3.3 7-.4.6-7.4 4-7.4 4v-5z"/><path fill="#d5ccc2" d="m3 94 3-1.6L7 88c.5-2.5 1.9-5.6 1.9-5.6l-3 .3s-1 1.7-2 5.5S3 94 3 94"/><path fill="#546d81" d="M32 76.6c.2 2.2 2.6 2.1 9.4 2.1 5.5 0 60.4.5 61.8 0q1-.6 2.6-3.1c1.6-2.4 2.4-3.5 2.2-4.4-.3-1.7-9.2-13-14.8-16.3-3.9-2.3-12.2-2.3-19-2.4-6.3 0-18.2-.2-23.8 3.4-8.5 5.4-18.7 17.9-18.4 20.7"/><path fill="#afe3fb" d="M39.4 74.4c.4.6 9.1.4 17.2.4 8.3 0 16 .4 16.3 0 .1-.2.6-17.7.2-18-.2-.2-2.4 0-5 0-4.6 0-11.2.7-15.4 3-7.2 4-14.2 13.5-13.3 14.6m38.7-17.3c0 .1-.2 17.8 0 17.9.5.4 22.6 0 22.9-.2s2.6-2.6 2.5-3.2-7.5-9.8-12.7-13a41 41 0 0 0-12.7-1.5"/><path fill="#af0f21" d="M37.3 81c.6 1.7 4 2.5 6.3 2.3q4.9-.3 5.6-6.2c.4-4.5-1.7-6.5-3.1-6.8s-9 7.6-9 7.6-.4 1.7.2 3.1"/><path fill="#f92612" d="M42 80c2.4-.2 4.1-2.5 5-4.2.8-1.8 1.4-4.5-.5-5.4-2.3-1-4.4.2-5.8 1.8-1.3 1.5-3.7 4.7-3.5 5.6.2 1 1.4 2.6 4.8 2.2"/><path fill="#4e433d" d="M17.8 110.4c.1 5.5 4.5 13.4 14 13.5s14.6-7.3 14.3-14.8S40 96 31.3 96.3c-8 .2-13.6 6.4-13.5 14"/><path fill="#c8c8c8" d="M24.5 110c0 2.8 2.4 7 7.5 7s7.7-3.6 7.5-7.5c-.2-4-3.4-7-7.8-7a7 7 0 0 0-7.2 7.4"/><path fill="#4e433d" d="M88.5 110.8c.1 5.5 4.4 13.4 13.8 13.5s14.2-7.3 14-14.7c-.3-7.6-6.2-13-14.5-12.7-7.9.2-13.4 6.3-13.3 14"/><path fill="#c8c8c8" d="M94.8 110.4c0 3 2.4 7.1 7.6 7.1s7.6-3.6 7.4-7.5c-.1-4-3.4-7-7.7-7a7 7 0 0 0-7.3 7.4"/><path fill="#fffeff" d="M121.3 76.2c-.3.4-5.3 4.5-5.3 5.2s5.7 8.9 5.7 8.9l1.3.8.7-10.7z"/><path fill="#d5ccc2" d="M124.3 93.6s.4-7.5.4-11.6c0-4.4-1.3-7.6-1.3-7.6l-2.2 1.8s.8 4 .8 6.5l-.3 7.6z"/></svg>