<svg xmlns="http://www.w3.org/2000/svg" width="1em" height="1em" viewBox="0 0 128 128"><path fill="#2F7C31" d="M72.67 71.53s-21.87-.21-22.16.02c-.3.23-.52 1.26-.52 3.52c0 2.27 1.11 3.17 1.53 3.2c1.18.08 3.28 0 3.28 0s-1.01 2.44-1.01 3.36s.17 14.62.17 14.62l18.49-1.6zm24.31.18l-14.37.3s-1.09 1.26-1.01 3.28c.08 2.02 1.24 3.53 1.24 3.53l3.52.15s-.15 1.87-.15 3.74c0 .88-.11 12.08-.11 12.08l3.23 1.33l12.6-9.08z"/><path fill="#4E433D" d="m29.08 83.06l-4.87 4.46l10.08 11.09l7.9-1.51z"/><path fill="#AFE3FB" d="m36.07 62.46l-13.49-2.74s-.06-1.24.53-3.55c1.6-6.28 9.71-24.02 9.71-24.02l9.78-2.82l.18 31.89z"/><path fill="#B0B0B0" d="M70.9 33.04c.12 1.39-.02 36.05-.02 36.05l6.71-.99l.13-35.16z"/><path fill="#FFB803" d="m23.91 70.39l-1.35-2.25s-.25-2.63-.14-5.15c.05-1.15.14-3.33.14-3.33s13.08.07 14.66.07s3.35-1.32 3.35-4.14s.41-21.46.41-21.46L27.88 22.2l-.79-4.49s3.61-2.82 8.72-2.29c5.11.53 8.11 4.49 8.11 4.49s58.85.19 61.15.18c6.02-.03 8.45 1.33 12.32 5.72c3.03 3.43 4.68 9.7 5.03 12.78c.35 3.08 3 23.79 2.91 25.29s-.35 3.52-1.94 3.79c-1.59.26-4.05 1.5-4.05 1.5l-17.62.62l-2.83-.13s-.1-28.8-.01-30.47c.09-1.67-.68-3.44-2.97-3.62c-2.29-.18-14.82.13-24.77.04c-9.96-.09-24.51-.32-24.51-.32l-.28 32.31l-13.37 4.47z"/><path fill="#536F7D" d="M17.29 19.36c-.17 1.57 14.51 14.66 14.78 14.66c.26 0 8.83.26 8.99.17c.33-.18-13.81-16.68-13.81-16.68s-9.79.28-9.96 1.85"/><path fill="#02AB46" d="m22.51 67.63l23.87-.12l-.08 26.91s8.57-.01 10.55-.01c1.98 0 3.6-1.28 3.72-3.49c.12-2.21-.12-8.6-.12-9.99s.58-2.44 2.67-2.56c2.09-.12 7.74-.03 7.74-.03V67.71l6.75-.05s-.09 20.84.02 22.7s1.17 3.71 2.8 3.71s12.2.12 12.2.12l1.04-5.54s-1.04-10.03.59-14.1s4.61-6.53 4.61-6.53l24.5-.36s.29 28.96.29 29.78c0 .81-1.39 3.49-1.39 3.49l-38.47-.12l-47.65-.12l-5.58-3.49s1.16-.58 3.02-.7s3.14-1.28 2.21-2.79s-8.12-7.29-11.16-15.34c-1.93-5.16-2.13-10.74-2.13-10.74"/><path fill="#4E433D" d="M11.64 121.14c-7.11-4.76-8.97-14.2-4.21-21.31s14.33-9.08 21.29-4.11c7.64 5.46 9.01 14.39 4.25 21.5c-4.76 7.11-14.22 8.68-21.33 3.92"/><path fill="#1C1D1E" d="M22.86 114.32c3.6-1.61 4.93-5.58 3.43-9.06c-1.26-2.91-4.99-4.95-8.47-3.49c-3.34 1.41-5.44 5.04-4 8.86c1.35 3.59 5.26 5.38 9.04 3.69"/><path fill="#4E433D" d="M18.63 110.56c-1.35-.9-1.71-2.69-.81-4.03s2.71-1.71 4.03-.77c1.45 1.04 1.71 2.73.81 4.07c-.89 1.34-2.68 1.63-4.03.73"/><path fill="#2F7C31" d="M83.34 107.38s-1.82-22.41 20.16-22.93s20.68 23.01 20.25 23.36s-40.41-.43-40.41-.43"/><path fill="#4E433D" d="M119.53 107.54c0 9.14-7.26 16.4-16.4 16.4s-16.57-7.31-16.3-16.45c.3-10.03 7.41-16.55 16.55-16.55s16.15 7.46 16.15 16.6"/><path fill="#1C1D1E" d="M106.81 101.64c-3.56-2.24-7.88-1.06-10.07 2.34c-1.83 2.85-1.42 7.37 1.94 9.58c3.23 2.12 7.71 1.83 10.24-1.72c2.37-3.32 1.64-7.85-2.11-10.2"/><path fill="#4E433D" d="M105.99 107.63c0 1.73-1.37 3.11-3.1 3.11s-3.13-1.39-3.08-3.12c.06-1.9 1.4-3.14 3.13-3.14s3.05 1.41 3.05 3.15"/><path fill="#FF8B00" d="M100.73 72.35c-.52.35-.49 4.9-.25 4.98c.38.13 13.62.13 13.62.13l.13-4.92s-13.31-.31-13.5-.19"/><path fill="#2F7C31" d="M35.37 105.27s4.27.27 4.71-.04c.44-.32-9.19-19.34-21.29-21.08c-8.28-1.19-13.31 2.39-15.2 6.43c-1.87 3.99-1.23 8.45-1.07 8.58c.32.25 10.3-4.95 18.92-2.96c9.21 2.12 13.93 9.07 13.93 9.07"/><path fill="#B0B0B0" d="M20.68 79.23c0 1.83-4.6 6.24-10.22 6.69c-2.33.18-5.21-2.2-5.11-6.94c.12-5.23 2.33-6.88 4.6-6.94c5.69-.16 10.73 4.85 10.73 7.19"/><path fill="#FFF" d="M9.23 82.82c-1.26.06-2.33-1.77-2.21-4.42c.09-1.95 1.07-3.85 2.02-3.85c1.2 0 2.02 1.83 2.02 4.23c0 1.9-.7 3.99-1.83 4.04"/></svg>