<svg viewBox="0 0 128 128"><path fill="#3e717a" d="m47.3 49.6.4-3.2c.2-1.2.5-5.4 2.7-5.7s27.8 0 29.9 0 2.5 2.2 2.7 3.4.6 5.7.4 5.7z"/><path fill="#6ba4ab" d="M40.6 48.3s-1.1-2.3-2-2.8-21-2-26.5 6.6S5.3 76 4.7 83s-.5 11.4-.5 11.4l68.4 3 52.6-2.8-.6-26.7c-.1-5.5-.3-14.8-3.3-17s-4.8-1.9-10-2z"/><path fill="#e0e0e0" d="m4.2 93.3 121.1.5.5 17c0 1.5-.5 3.2-2.7 3.3-2.3.2-98 .8-98 .8l-20.4-1s-2.4-.9-3-2.9.7-12.5.7-12.5z"/><path fill="#ff8d02" d="M1.7 105.7s3.1.3 3.7-.6c1-1.6 1.5-9.4.7-10.2-.6-.6-2.4-.4-2.4-.4s-1 2.4-1.6 5.5c-.5 3.3-.4 5.7-.4 5.7"/><path fill="#868486" d="M32 115s.3-3.7-.3-7a12.6 12.6 0 0 0-13.3-10.5c-9.4-.1-13 7.4-13.6 11-.6 3.3-.1 5.4-.1 5.4s4.7.8 13.5 1.1 13.7 0 13.7 0m53.9-.5s0-6.2 1.7-9.4c2.2-4.4 5.6-7 12.1-7s10.5 3.7 12 6.4c2.6 4.6 1.8 9.7 1.8 9.7z"/><path fill="#4e433d" d="M6.4 112.8c.1 4.6 3.8 11.2 11.7 11.2s12-6 11.8-12.2c-.3-6.4-5.2-10.8-12.3-10.6-6.6.2-11.3 5.3-11.2 11.6"/><path fill="#b2b1b2" d="M12 112.4c0 2.4 2 5.9 6.2 6s6.3-3 6.2-6.3a6 6 0 0 0-6.4-5.8 6 6 0 0 0-6 6.1"/><path fill="#4e433d" d="M88.2 112.9c0 4.5 3.6 11 11.4 11.1s11.7-6 11.5-12.1c-.2-6.3-5-10.8-12-10.6-6.5.2-11 5.3-11 11.6"/><path fill="#b2b1b2" d="M93.4 112.5c0 2.5 2 6 6.2 6s6.3-3 6.2-6.3c-.2-3.4-2.9-5.8-6.4-5.8a6 6 0 0 0-6 6.1"/><path fill="#454c52" d="M53 88.5h63.1c1.9-.1 4.4-2.9 4.6-6.8s-.5-20.6-.8-22.5-1.4-5.7-7.3-5.7L20.4 53c-2.2 0-5.4 1.3-6.8 4.7s-4.1 9.8-4.7 17c-.7 7.4-.6 11.4-.1 13.3s1 4 5.3 4h20.7l.3 22.8H53z"/><path fill="#ff2a23" d="M125.2 92.7s-2.5-.4-3.2 1-.7 10.5.2 11 3.4 0 3.4 0l-.1-6.2z"/><path fill="#454c52" d="M118.9 93.7H112q-1.1-.1-1.2-1.3t1.2-1.2h6.9q1.1.1 1.2 1.3t-1.2 1.2m-.1 4.5h-6.9q-1.1-.1-1.2-1.3.1-1 1.2-1.2h6.9q1.1.1 1.2 1.3t-1.2 1.3m0 4.5h-7q-1-.1-1.1-1.3 0-1.2 1.2-1.3h6.9q1 .1 1.2 1.3c.2 1.2-.6 1.3-1.3 1.3"/><path fill="#afe3fb" d="M34.5 59H18.3q-1.8-.1-3.4 5.3c-1.1 3.8-3 11-2.6 20 0 1.7 1.6 2.1 3 2.1h19.3z"/><path fill="#868486" d="M18.2 77.8 18 89.5s5 1 5.8-.4.8-9.4.2-10.5c-1.3-2-5.7-.8-5.7-.8"/><path fill="#afe3fb" d="M38 61.9h12v49.7H38.1zm15.6 20.5V59.2h30.6v23.2zM88 59.3v23h25.5c2.6 0 3.6-1.6 3.9-4.4s0-13.3-.3-15.2q-.5-3.2-4.1-3.3z"/></svg>