<svg xmlns="http://www.w3.org/2000/svg" width="1em" height="1em" viewBox="0 0 128 128"><path fill="#3e717a" d="M47.27 49.57s.28-1.88.45-3.15c.17-1.26.51-5.46 2.7-5.71s27.82 0 29.85 0c2.02 0 2.53 2.19 2.7 3.37s.63 5.75.45 5.75c-.69.01-36.15-.26-36.15-.26"/><path fill="#6ba4ab" d="M40.63 48.3s-1.18-2.28-2.02-2.78c-.84-.51-20.99-1.98-26.54 6.55S5.26 76.14 4.74 82.99s-.52 11.37-.52 11.37l68.37 2.97 52.61-2.71-.62-26.7c-.13-5.56-.29-14.79-3.26-17.11s-4.78-1.81-9.95-1.94-70.74-.57-70.74-.57"/><path fill="#e0e0e0" d="m4.24 93.32 121.08.45s.45 15.67.45 17.12-.45 3.13-2.69 3.25c-2.24.11-98.03.78-98.03.78l-20.37-1.01s-2.35-.9-2.91-2.91.67-12.53.67-12.53z"/><path fill="#ff8d02" d="M1.73 105.73s3.11.27 3.65-.61c1.03-1.67 1.49-9.39.68-10.27-.52-.57-2.32-.32-2.32-.32s-1.09 2.37-1.6 5.46c-.54 3.31-.41 5.74-.41 5.74"/><path fill="#868486" d="M31.94 114.93s.39-3.63-.28-6.87c-.68-3.24-3.15-10.43-13.29-10.56-9.33-.12-12.91 7.37-13.58 11.08-.58 3.21-.09 5.33-.09 5.33s4.68.75 13.47 1.09 13.77-.07 13.77-.07m53.82-.41s.13-6.25 1.73-9.44c2.21-4.41 5.63-7.05 12.12-7.05s10.49 3.81 12 6.46c2.6 4.56 1.76 9.7 1.76 9.7z"/><path fill="#4e433d" d="M6.44 112.82c.07 4.56 3.71 11.14 11.64 11.19s12.04-6.02 11.79-12.24c-.25-6.32-5.17-10.79-12.24-10.58-6.63.18-11.29 5.3-11.19 11.63"/><path fill="#b2b1b2" d="M11.95 112.43c.04 2.41 1.99 5.87 6.25 5.9s6.32-2.99 6.19-6.27c-.14-3.33-2.86-5.82-6.43-5.77-3.55.06-6.06 2.81-6.01 6.14"/><path fill="#4e433d" d="M88.17 112.9c.07 4.53 3.63 11.05 11.39 11.1s11.78-5.97 11.54-12.15c-.25-6.27-5.06-10.7-11.98-10.5-6.48.18-11.04 5.27-10.95 11.55"/><path fill="#b2b1b2" d="M93.35 112.54c.04 2.41 1.99 5.87 6.25 5.9s6.32-2.99 6.19-6.27c-.14-3.33-2.86-5.82-6.43-5.77-3.56.05-6.06 2.8-6.01 6.14"/><path fill="#454c52" d="M52.99 88.49s61.21.12 63.12 0 4.42-2.87 4.54-6.81-.48-20.56-.72-22.47-1.42-5.74-7.29-5.74c-4.66 0-90.14-.48-92.29-.48s-5.36 1.27-6.79 4.73-4.06 9.83-4.69 17.01c-.64 7.38-.59 11.37-.11 13.28s.96 4.06 5.38 4.06h20.68l.25 22.74 17.91-.08z"/><path fill="#ff2a23" d="M125.19 92.74s-2.51-.41-3.14.96-.76 10.53.18 10.93 3.38.09 3.38.09.08-3.62-.11-6.25c-.25-3.49-.31-5.73-.31-5.73"/><path fill="#454c52" d="M118.87 93.74s-.01 0 0 0l-6.85-.04c-.69 0-1.25-.57-1.24-1.26 0-.69.56-1.24 1.25-1.24h.01l6.84.04c.69 0 1.25.57 1.24 1.26-.01.68-.56 1.24-1.25 1.24m-.09 4.51-6.85-.04c-.69 0-1.25-.57-1.24-1.26 0-.69.56-1.24 1.25-1.24h.01l6.84.04c.69 0 1.25.57 1.24 1.26 0 .68-.56 1.24-1.25 1.24m-.04 4.53q-.015 0 0 0l-6.85-.04c-.69 0-1.25-.57-1.24-1.26 0-.69.56-1.24 1.25-1.24h.01l6.84.04c.69 0 1.25.57 1.24 1.26s-.57 1.24-1.25 1.24"/><path fill="#afe3fb" d="M34.54 58.98s-15.02 0-16.23.09-2.39 1.57-3.43 5.19c-1.1 3.81-3.06 11.04-2.6 20.03.09 1.67 1.67 2.13 2.97 2.13h19.38z"/><path fill="#868486" d="m18.22 77.81-.28 11.68s4.91.93 5.75-.37c.83-1.3.84-9.45.19-10.48-1.3-2.04-5.66-.83-5.66-.83"/><path fill="#afe3fb" d="M38.06 61.86h11.87v49.7H38.16zm15.58 20.58V59.17h30.6v23.18zm34.31-23.18v23h25.59c2.59 0 3.54-1.55 3.82-4.33s-.04-13.3-.29-15.23c-.28-2.13-1.66-3.2-4.1-3.31-2.56-.12-24.92-.22-25.02-.13"/></svg>