<svg xmlns="http://www.w3.org/2000/svg" width="1em" height="1em" viewBox="0 0 128 128"><path fill="#3E717A" d="M47.27 49.57s.28-1.88.45-3.15c.17-1.26.51-5.46 2.7-5.71c2.19-.25 27.82 0 29.85 0c2.02 0 2.53 2.19 2.7 3.37c.17 1.18.63 5.75.45 5.75c-.69.01-36.15-.26-36.15-.26"/><path fill="#6BA4AB" d="M40.63 48.3s-1.18-2.28-2.02-2.78c-.84-.51-20.99-1.98-26.54 6.55S5.26 76.14 4.74 82.99c-.52 6.85-.52 11.37-.52 11.37l68.37 2.97l52.61-2.71l-.62-26.7c-.13-5.56-.29-14.79-3.26-17.11s-4.78-1.81-9.95-1.94c-5.17-.13-70.74-.57-70.74-.57"/><path fill="#E0E0E0" d="m4.24 93.32l121.08.45s.45 15.67.45 17.12c0 1.45-.45 3.13-2.69 3.25c-2.24.11-98.03.78-98.03.78l-20.37-1.01s-2.35-.9-2.91-2.91s.67-12.53.67-12.53z"/><path fill="#FF8D02" d="M1.73 105.73s3.11.27 3.65-.61c1.03-1.67 1.49-9.39.68-10.27c-.52-.57-2.32-.32-2.32-.32s-1.09 2.37-1.6 5.46c-.54 3.31-.41 5.74-.41 5.74"/><path fill="#868486" d="M31.94 114.93s.39-3.63-.28-6.87c-.68-3.24-3.15-10.43-13.29-10.56c-9.33-.12-12.91 7.37-13.58 11.08c-.58 3.21-.09 5.33-.09 5.33s4.68.75 13.47 1.09s13.77-.07 13.77-.07m53.82-.41s.13-6.25 1.73-9.44c2.21-4.41 5.63-7.05 12.12-7.05s10.49 3.81 12 6.46c2.6 4.56 1.76 9.7 1.76 9.7z"/><path fill="#4E433D" d="M6.44 112.82c.07 4.56 3.71 11.14 11.64 11.19s12.04-6.02 11.79-12.24c-.25-6.32-5.17-10.79-12.24-10.58c-6.63.18-11.29 5.3-11.19 11.63"/><path fill="#B2B1B2" d="M11.95 112.43c.04 2.41 1.99 5.87 6.25 5.9c4.26.03 6.32-2.99 6.19-6.27c-.14-3.33-2.86-5.82-6.43-5.77c-3.55.06-6.06 2.81-6.01 6.14"/><path fill="#4E433D" d="M88.17 112.9c.07 4.53 3.63 11.05 11.39 11.1s11.78-5.97 11.54-12.15c-.25-6.27-5.06-10.7-11.98-10.5c-6.48.18-11.04 5.27-10.95 11.55"/><path fill="#B2B1B2" d="M93.35 112.54c.04 2.41 1.99 5.87 6.25 5.9c4.26.03 6.32-2.99 6.19-6.27c-.14-3.33-2.86-5.82-6.43-5.77c-3.56.05-6.06 2.8-6.01 6.14"/><path fill="#454C52" d="M52.99 88.49s61.21.12 63.12 0c1.91-.12 4.42-2.87 4.54-6.81c.12-3.94-.48-20.56-.72-22.47c-.24-1.91-1.42-5.74-7.29-5.74c-4.66 0-90.14-.48-92.29-.48s-5.36 1.27-6.79 4.73s-4.06 9.83-4.69 17.01c-.64 7.38-.59 11.37-.11 13.28c.48 1.91.96 4.06 5.38 4.06h20.68l.25 22.74l17.91-.08z"/><path fill="#FF2A23" d="M125.19 92.74s-2.51-.41-3.14.96s-.76 10.53.18 10.93s3.38.09 3.38.09s.08-3.62-.11-6.25c-.25-3.49-.31-5.73-.31-5.73"/><path fill="#454C52" d="M118.87 93.74s-.01 0 0 0l-6.85-.04c-.69 0-1.25-.57-1.24-1.26c0-.69.56-1.24 1.25-1.24h.01l6.84.04c.69 0 1.25.57 1.24 1.26c-.01.68-.56 1.24-1.25 1.24m-.09 4.51l-6.85-.04c-.69 0-1.25-.57-1.24-1.26c0-.69.56-1.24 1.25-1.24h.01l6.84.04c.69 0 1.25.57 1.24 1.26c0 .68-.56 1.24-1.25 1.24m-.04 4.53c-.01 0-.01 0 0 0l-6.85-.04c-.69 0-1.25-.57-1.24-1.26c0-.69.56-1.24 1.25-1.24h.01l6.84.04c.69 0 1.25.57 1.24 1.26c-.01.69-.57 1.24-1.25 1.24"/><path fill="#AFE3FB" d="M34.54 58.98s-15.02 0-16.23.09c-1.21.09-2.39 1.57-3.43 5.19c-1.1 3.81-3.06 11.04-2.6 20.03c.09 1.67 1.67 2.13 2.97 2.13h19.38z"/><path fill="#868486" d="m18.22 77.81l-.28 11.68s4.91.93 5.75-.37c.83-1.3.84-9.45.19-10.48c-1.3-2.04-5.66-.83-5.66-.83"/><path fill="#AFE3FB" d="M38.06 61.86h11.87v49.7H38.16zm15.58 20.58V59.17h30.6v23.18zm34.31-23.18v23h25.59c2.59 0 3.54-1.55 3.82-4.33c.28-2.78-.04-13.3-.29-15.23c-.28-2.13-1.66-3.2-4.1-3.31c-2.56-.12-24.92-.22-25.02-.13"/></svg>