<svg viewBox="0 0 128 128"><path fill="#9e9e9e" d="M28.2 121.8s-1.8 2.2-6.3 2.2-6.3-2.2-6.3-2.2v-78h12.6z"/><path fill="#bdbdbd" d="M28.2 121.8s-1.8 2.2-6.3 2.2-6.3-2.2-6.3-2.2V91.7s1.3-2.4 6-2.4 6.6 2.4 6.6 2.4z"/><path fill="#9e9e9e" d="M112.4 121.8s-1.7 2.2-6.3 2.2-6.3-2.2-6.3-2.2v-78h12.6z"/><path fill="#bdbdbd" d="M112.4 121.8s-1.7 2.2-6.3 2.2-6.3-2.2-6.3-2.2V91.7s1.3-2.4 6-2.4 6.6 2.4 6.6 2.4z"/><path fill="#9e9e9e" d="M121.3 81.9H6.7A2.7 2.7 0 0 1 4 79V44c0-1.4 1.2-2.7 2.7-2.7h114.6c1.5 0 2.7 1.3 2.7 2.8v35c0 1.4-1.2 2.7-2.7 2.7"/><path fill="#ffd600" d="M121.3 43.4H6.7A2.7 2.7 0 0 0 4 46.2v35c0 1.4 1.2 2.7 2.7 2.7h114.6c1.5 0 2.7-1.3 2.7-2.8v-35c0-1.4-1.2-2.7-2.7-2.7"/><path fill="#212121" d="M17.4 43.4 4 57v19.8l33.2-33.3zm37.7 0L14.7 84h19.8l40.4-40.5zm37.7 0L52.4 84h19.8l40.4-40.5zM124 50 90 84h19.8L124 69.7z"/><path fill="#e2a610" d="M113.8 45.2H98.4c-1.4 0-2.5-1-2.2-2l1.1-6.6H115l1 6.7c.4 1-.7 1.9-2.1 1.9"/><circle cx="106.1" cy="23.7" r="12.7" fill="#ffca28"/><circle cx="106.1" cy="23.7" r="9.4" fill="#ff5722"/><path fill="#ffca28" d="M114.9 36.7H97.3s0-2.8 5.1-2.8h7.4c5.4 0 5 2.8 5 2.8"/><path fill="#ffd5ca" d="m107.2 19.2 2.4-3q.2-.2.3 0l-1 3.9c-.2.8.5 1.7 1.4 1.7h4q.2.1 0 .2l-3.5 1.7c-.9.4-1 1.5-.5 2.2l2.5 3q0 .3-.2.2l-3.5-1.7q-1.5-.6-2 1l-.9 3.8q0 .3-.3 0l-.8-3.9a1.4 1.4 0 0 0-2-1l-3.5 1.8q-.3.1-.2-.2l2.5-3q.8-1.4-.5-2.2L97.8 22l.1-.3h4c.8.1 1.5-.8 1.3-1.6l-1-3.9q.1-.2.4 0l2.4 3q1.1 1 2.2 0"/><path fill="#e2a610" d="M29.6 45.2H14.2c-1.4 0-2.5-1-2.2-2l1.1-6.6h17.6l1 6.7c.4 1-.7 1.9-2.1 1.9"/><circle cx="21.9" cy="23.7" r="12.7" fill="#ffca28"/><circle cx="21.9" cy="23.7" r="9.4" fill="#ff5722"/><path fill="#ffca28" d="M30.7 36.7H13s0-2.8 5.1-2.8h7.4c5.3 0 5 2.8 5 2.8"/><path fill="#ffd5ca" d="m23 19.2 2.4-3q.2-.2.3 0l-1 3.9c-.2.8.5 1.7 1.4 1.7h4q.2.1 0 .2l-3.5 1.7c-.9.4-1.1 1.5-.5 2.2l2.5 3q0 .3-.2.2l-3.5-1.7q-1.5-.6-2 1l-.9 3.8q-.1.3-.3 0l-.8-3.9a1.4 1.4 0 0 0-2-1l-3.5 1.8q-.3.1-.2-.2l2.5-3q.8-1.4-.5-2.2L13.6 22l.1-.3h4c.8.1 1.5-.8 1.3-1.6l-1-3.9q.1-.2.4 0l2.4 3c.5.7 1.6.7 2.2 0"/></svg>