<svg xmlns="http://www.w3.org/2000/svg" width="1em" height="1em" viewBox="0 0 128 128"><path fill="#B3AFAF" d="M57.99 53.73s-.53-1.53-1.68-2.06c-1.14-.53-3.05-.61-3.05-.61l-3.2 37.85l2.6 18.68s.76 2.21 2.75 2.29c1.98.08 18.47 0 19.92 0c1.45 0 1.91-1.91 1.98-2.75c.08-.84.05-2.25.05-2.25l7.04-.03s.41 3-.27 4.89c-.59 1.64-1.12 2.95-1.11 3.51c.01.8 1.07 1.6 2.29 1.53c1.22-.08 3.05-1.68 4.27-2.67c1.22-.99 20.78-.76 20.78-.76s.94 1.74 1.99 2.79c.63.63 1.65.94 2.57.94c.92 0 2.06-1.22 1.83-2.06c-.23-.84-1.27-2.77-1.45-4.65c-.08-.85.02-3.22.44-3.61c.1-.09 1.62-.04 3.04-.19c2.42-.25 4.84-3.38 5.14-5.82c.31-2.44.08-10.15.08-10.15z"/><path fill="#9A9A9A" d="M52.02 96.11h72.03s.17 2.02-.18 3.32a5.612 5.612 0 0 1-.93 1.91l-70.51-.01z"/><path fill="#E0E0E0" d="M26.75 92.84L11.5 97.56l-7.62-2.63s.27-14.34.36-15.79c.09-1.45.45-2.72 1.82-3.63c1.36-.91 5.17-3.18 5.17-3.18s11.71-18.79 12.71-20.15c1-1.36 2.23-3.02 5.14-3.29s20.87-.05 22.5.04c1.63.09 2.85.83 2.85 4.37s-.09 30.56-.18 31.92c-.09 1.36-6.9 6.35-6.9 6.35z"/><path fill="#DC0D28" d="M48.95 110.03s1.46.04 2.47-.1s2.53-1.15 2.6-3.54c.04-1.42.23-21.17.23-21.17l-27.2.06l-8.8 9.63l-14.37.02s-.06 5.65-.02 7.16c.04 1.52 7.86 4.83 7.86 4.83z"/><path fill="#B10A1B" d="M3.86 102.09h16.38s3.51-7 13.6-6.88c14.82.18 15.12 14.81 15.12 14.81h-38.6c-2.17 0-5.27-.72-6.06-3.46c-.67-2.3-.44-4.47-.44-4.47"/><path fill="#FFF" d="M13.89 76.26s0-1.63-1.07-1.69s-2.25.61-3.32 1.52c-1.13.96-1.69 1.83-1.91 2.59c-.34 1.13-.06 2.14 1.69 2.19c2.14.07 36.12-.15 37.69-.28c1.97-.17 3.15-1.01 3.09-2.48c-.05-1.41-1.07-1.86-5.29-1.91s-30.88.06-30.88.06"/><path fill="#FDEDC5" d="M4.2 81.03s10.21-.32 10.43-.07c.31.37.37 5.19.26 5.92c-.11.73-1.07 1.24-2.25 1.29s-8.61.17-8.61.17z"/><path fill="#5F6369" d="M46.24 74.51c1.58 0 2.14-1.8 2.14-3.04V55.78c0-1.24-.79-1.91-3.26-2.03c-2.48-.11-13.78.02-15.02.06c-1.91.06-3.21.9-4.95 3.32c-1.13 1.57-8.1 13.11-8.66 14.06c-.56.96-1.24 3.49 1.69 3.54c3.03.06 28.06-.22 28.06-.22"/><path fill="#AFE3FB" d="M19.63 71.87h25.2c.51 0 .96-.56.96-1.24s.04-11.3.06-11.93c.06-1.74-1.24-2.14-2.36-2.08c-1.13.06-12.51.02-13.18.05c-1.29.06-2.57 1.79-3.69 3.5c-1.35 2.07-6.99 11.7-6.99 11.7"/><path fill="#5F6369" d="M20.02 73.73c.11 2.53 4.16 4.61 5.18 4.67c1.01.06 1.63-1.91 1.74-4.56S25.99 69 25.14 69c-.84 0-5.21 2.59-5.12 4.73"/><path fill="#4E433D" d="M20.9 111.62c.08 5 4.06 12.19 12.72 12.24c8.66.05 13.16-6.59 12.88-13.4c-.28-6.92-5.65-11.81-13.38-11.59c-7.23.22-12.33 5.84-12.22 12.75"/><path fill="#C8C8C8" d="M27.09 111.33c.04 2.63 2.13 6.43 6.69 6.46s6.76-3.27 6.62-6.86c-.15-3.65-3.06-6.37-6.88-6.31c-3.8.05-6.48 3.06-6.43 6.71"/><path fill="#4E433D" d="M86.9 111.62c.08 5 4.06 12.19 12.72 12.24c8.66.05 13.16-6.59 12.88-13.4c-.28-6.92-5.65-11.81-13.38-11.59c-7.23.22-12.33 5.84-12.22 12.75"/><path fill="#C8C8C8" d="M93.09 111.33c.04 2.63 2.13 6.43 6.69 6.46c4.55.03 6.76-3.27 6.62-6.86c-.15-3.65-3.06-6.37-6.88-6.31c-3.8.05-6.48 3.06-6.43 6.71"/><path fill="#D16E1D" d="M56.87 28.62c0-2.62 1.15-3.67 3.25-3.56c2.1.1 59.65-.21 61.53-.21s2.62 1.99 2.62 3.14c0 1.15-.36 59.49-.28 60.62c.07 1.13-.24 2.7-2.23 2.91s-61.01.1-62.27 0s-2.83-1.15-2.83-2.62c0-1.48.21-58.92.21-60.28"/><path fill="#F5B03A" d="M62.11 30.92c0 1.36-.42 52.31-.42 53.57c0 1.26.63 2.73 2.31 2.73c1.68 0 53.25.1 54.3 0c1.05-.1 1.68-.73 1.78-2.41c.1-1.68.1-52.83.1-54.51c0-1.68-1.68-1.78-3.46-1.78s-52.2.1-52.94.21c-.73.09-1.67.83-1.67 2.19"/><path fill="#D16E1D" d="M74.45 89c-.06-18.45-.19-61.48.02-62.65l1.48.27l1.49.18c-.14 1.65-.07 38.09.01 62.19zm15.3-62.48h3V89.1h-3zm15.14.05h3v62.27h-3z"/></svg>