<svg viewBox="0 0 128 128"><path fill="#b3afaf" d="M58 53.7s-.5-1.5-1.7-2-3-.6-3-.6L50 88.9l2.6 18.7s.7 2.2 2.7 2.3h20c1.4 0 1.8-2 2-2.8V105h7s.4 3-.3 4.8q-1 2.6-1 3.6c0 .8 1 1.6 2.2 1.5s3-1.7 4.3-2.7 20.8-.7 20.8-.7.9 1.7 2 2.7q1 1 2.5 1c1.5 0 2-1.2 1.9-2s-1.3-2.8-1.5-4.7c0-.9 0-3.3.4-3.6.1-.1 1.7 0 3-.2 2.5-.3 5-3.4 5.2-5.8.3-2.5.1-10.2.1-10.2z"/><path fill="#9a9a9a" d="M52 96.1h72s.2 2-.1 3.3a6 6 0 0 1-1 2H52.4z"/><path fill="#e0e0e0" d="m26.8 92.8-15.3 4.8-7.6-2.7.3-15.8q-.1-2.2 1.9-3.6l5.1-3.2S23 53.5 24 52.2s2.3-3 5.2-3.3 20.9 0 22.5 0 2.8.9 2.8 4.4l-.1 32c-.1 1.3-7 6.3-7 6.3z"/><path fill="#dc0d28" d="M49 110h2.4c1 0 2.6-1.2 2.6-3.6l.3-21.2H27L18.2 95H4v7.2c0 1.5 7.8 4.8 7.8 4.8z"/><path fill="#b10a1b" d="M3.9 102h16.3s3.5-7 13.6-6.8C48.7 95.4 49 110 49 110H10.4c-2.2 0-5.3-.7-6.1-3.4-.7-2.3-.4-4.5-.4-4.5"/><path fill="#fff" d="M13.9 76.3s0-1.7-1-1.7-2.3.6-3.4 1.5a6 6 0 0 0-2 2.6c-.3 1.1 0 2.1 1.8 2.2l37.7-.3q3-.3 3-2.5c0-1.4-1-1.8-5.2-1.9h-31"/><path fill="#fdedc5" d="M4.2 81s10.2-.3 10.4 0 .4 5.2.3 5.9-1 1.2-2.3 1.3l-8.6.1z"/><path fill="#5f6369" d="M46.2 74.5c1.6 0 2.2-1.8 2.2-3V55.8c0-1.3-.8-2-3.3-2-2.5-.2-13.8 0-15 0-2 0-3.2 1-5 3.3l-8.6 14c-.6 1-1.2 3.6 1.7 3.6z"/><path fill="#afe3fb" d="M19.6 71.9h25.2q.9-.1 1-1.3V58.7c.1-1.7-1.2-2.1-2.3-2H30.3c-1.3 0-2.6 1.8-3.7 3.5z"/><path fill="#5f6369" d="M20 73.7c.1 2.6 4.2 4.6 5.2 4.7 1 0 1.6-2 1.7-4.6S26 69 25.1 69s-5.2 2.6-5 4.7"/><path fill="#4e433d" d="M20.9 111.6c0 5 4 12.2 12.7 12.3s13.2-6.6 12.9-13.4c-.3-7-5.6-11.9-13.4-11.6-7.2.2-12.3 5.8-12.2 12.7"/><path fill="#c8c8c8" d="M27 111.3c.1 2.7 2.2 6.5 6.8 6.5s6.7-3.3 6.6-6.9-3-6.3-6.9-6.3c-3.8 0-6.5 3-6.4 6.7"/><path fill="#4e433d" d="M86.9 111.6c0 5 4 12.2 12.7 12.3s13.2-6.6 12.9-13.4c-.3-7-5.6-11.9-13.4-11.6-7.2.2-12.3 5.8-12.2 12.7"/><path fill="#c8c8c8" d="M93 111.3c.1 2.7 2.2 6.5 6.8 6.5s6.7-3.3 6.6-6.9-3-6.3-6.9-6.3c-3.8 0-6.5 3-6.4 6.7"/><path fill="#d16e1d" d="M56.9 28.6q0-3.8 3.2-3.5l61.6-.2c1.9 0 2.6 2 2.6 3l-.3 60.7c0 1.1-.2 2.7-2.2 3s-61 0-62.3 0-2.8-1.2-2.8-2.7z"/><path fill="#f5b03a" d="m62.1 31-.4 53.5c0 1.3.6 2.7 2.3 2.7h54.3q1.6 0 1.8-2.4c.2-2.4 0-52.8 0-54.5s-1.6-1.8-3.4-1.8l-53 .2c-.8.1-1.6.9-1.6 2.2"/><path fill="#d16e1d" d="M74.5 89c-.1-18.4-.2-61.5 0-62.6l1.4.2 1.5.2V89zm15.3-62.5h3v62.6h-3zm15 0h3v62.3h-3z"/></svg>