<svg xmlns="http://www.w3.org/2000/svg" width="1em" height="1em" viewBox="0 0 128 128"><path fill="#B0B0B0" d="M114.14 30.48c-.14-1.74-1.09-2.39-4.2-2.53c-3.11-.14-63.67.22-64.97.22s-2.24 1.01-2.24 2.75s.07 19.17.07 19.17l46.56 11.57l23.41-7.1s.72-.49 1.01-1.43c.28-.94.5-20.91.36-22.65m-57.78 1.71l-9.35 10.84V32.19zM49.1 44.41l9.3-10.85v10.85zm13.79-12.22h8.67l-8.67 10.12zm11.39 12.22h-9.8l9.8-11.02zm4.6-12.22h9.78l-9.78 11.18zm11.91 12.22h-9.33l9.33-10.32z"/><path fill="#D60D29" d="M24.8 47.75s0-6.1.04-7.26c.03-.79.58-1.29 1.33-1.29s14.98-.12 15.68-.08c.71.04 1.24.5 1.24 1.29s-.04 7.39-.04 7.39s-9.79 1.41-10.46 1.24c-.66-.17-7.79-1.29-7.79-1.29"/><path fill="#FF6063" d="M32.39 40.62c.5.62-1.33 2.7-1.33 3.15c0 .58 1.91 2.78 1.45 3.53c-.16.26-5.89-2.36-5.85-3.53c.04-1.08 5.41-3.56 5.73-3.15m3.69-.09c-.54.66 1.36 2.69 1.33 3.32c-.04.71-1.7 3.19-1.2 3.49c.5.29 5.22-2.87 5.31-3.65c.08-.71-4.84-3.89-5.44-3.16"/><path fill="#FF2A23" d="M118 95.22s.16-2.18.02-5.43c-.05-1.12-.54-2.79-.68-3.33c0-.02.7-3.75.7-3.77c.03-10.65.06-24.44-.04-25.6c-.17-1.91-1.39-2.6-3.29-2.77c-1.91-.17-21.27-.15-21.27-.15s.1-3.5.07-5.07c-.02-1.09-1.44-1.36-2.83-1.28c-1.65.1-72.29-.26-74.19-.09c-1.91.17-3.64.52-4.16 3.64S10.6 76.66 10.6 76.66s-3.64 2.6-4.68 3.98c-1.34 1.79-1.21 3.46-1.21 3.46l.87 24.95l13.69 3.64l93.72.52l12.82-5.37s.01-9.6.01-11.05c0-1.54-1.16-1.5-3.62-1.5c-1.47.03-4.2-.07-4.2-.07"/><path fill="#F2EEEA" d="m42.22 96.52l24.24.12l10.52-14.19l41.07.24s.02 1.44 0 3.71c-.01 1.96-.02 3.38-.02 3.38l-37.55-.31s-10.33 14.84-10.8 14.84l-22.36.02z"/><path fill="#B60F27" d="M57.16 47.78h2.72l-.04 62.46h-2.96s.4-62.46.28-62.46"/><path fill="#B0B0B0" d="m49.95 107.86l75.84.01s.1 3.42.1 3.8c0 .38.13 1.78-1.14 1.78s-74.55-.51-74.55-.51z"/><path fill="#B60F27" d="M51.78 112.94s1.95-18.22-15.65-18.26c-17.85-.04-16.45 18.03-16.45 18.03zm24.88.17S75.6 94.4 93.36 94.45c17.78.06 16.07 18.9 16.07 18.9z"/><path fill="#4E433D" d="M22.78 111.47c.08 5.07 4.12 12.37 12.93 12.43s13.37-6.69 13.1-13.6c-.28-7.02-5.74-11.98-13.6-11.76c-7.36.21-12.54 5.91-12.43 12.93"/><path fill="#C8C8C8" d="M29.07 111.17c.04 2.67 2.17 6.52 6.8 6.55c4.63.03 6.87-3.32 6.73-6.97c-.15-3.7-3.11-6.46-6.99-6.4c-3.87.06-6.6 3.12-6.54 6.82"/><path fill="#4E433D" d="M106.3 110.93c-.1-5.07-4.18-12.35-12.98-12.37c-8.8-.02-13.34 6.75-13.04 13.65c.31 7.02 5.79 11.96 13.65 11.7c7.35-.24 12.51-5.96 12.37-12.98"/><path fill="#C8C8C8" d="M100.01 111.26c-.05-2.67-2.2-6.51-6.83-6.52c-4.63-.01-6.86 3.35-6.7 7c.17 3.7 3.14 6.45 7.02 6.37c3.87-.08 6.58-3.15 6.51-6.85"/><path fill="#FFF" d="M5.42 100.58s4.82 2.21 4.82 1.22s-.14-17.43-.14-18.33c0-1.08-2.51-.86-3.94-.91c-1.36-.06-1.06.35-1.06.35z"/><path fill="#B0B0B0" d="M6.91 98.97s10.21-.05 11.51 0c1.81.06 1.3 2.3 1.3 4.54s-.04 9.21-.04 9.21s-16.76.01-17.06-.05s-1.06-.3-1.12-1.59s.05-9.45.05-10.57c0-1.71 2.3-1.53 2.3-1.53s-.07-13.7-.13-15c-.06-1.3.89-1.48 1.42-1.48s1.66-.08 1.72.51c.06.59.05 15.96.05 15.96"/><path fill="#AFE3FB" d="m11.69 55.83l6.31-.05l-.17 16.69l-7.38 3.49z"/><path fill="#5F6165" d="M11.96 53.98s7.46.02 7.81.38c.35.35-.12 19.12-.18 19.47c-.06.35-7.85 3.78-8.73 4.19c-.89.41-1.79.15-2.12-.89c-.31-.96.41-1.71 1.83-2.54c1.21-.7 5.66-2.71 5.66-2.71s.3-14.22.06-14.4c-.24-.18-4.66-.18-4.66-.18s-1.03-.11-.99-1.81c.04-1.47 1.32-1.51 1.32-1.51m11.65.56c-.19.32-.59 19.06-.35 19.24c.24.18 19.18.35 19.41.12c.24-.24.06-19.24-.12-19.35s-18.76-.31-18.94-.01"/><path fill="#AFE3FB" d="m26.94 57.27l12.25.04v13.93l-12.45.05z"/></svg>