<svg viewBox="0 0 128 128"><path fill="#b0b0b0" d="M114.1 30.5c-.1-1.8-1-2.4-4.2-2.5s-63.6.2-65 .2-2.2 1-2.2 2.7l.1 19.2 46.6 11.6 23.4-7.1s.7-.5 1-1.5.5-20.9.3-22.6m-57.7 1.7L47 43V32.2zM49 44.4l9.3-10.8v10.8zm13.8-12.2h8.7l-8.7 10.1zm11.4 12.2h-9.8l9.8-11zm4.6-12.2h9.8l-9.8 11.2zm11.9 12.2h-9.3l9.3-10.3z"/><path fill="#d60d29" d="M24.8 47.8v-7.3q.1-1.2 1.4-1.3h15.7q1.1 0 1.2 1.2v7.4s-9.8 1.4-10.5 1.2z"/><path fill="#ff6063" d="M32.4 40.6c.5.6-1.3 2.7-1.3 3.2s1.9 2.7 1.4 3.5c-.1.3-5.9-2.4-5.8-3.5 0-1.1 5.4-3.6 5.7-3.2m3.7 0c-.6.6 1.3 2.6 1.3 3.2 0 .8-1.7 3.2-1.2 3.5s5.2-2.8 5.3-3.6c.1-.7-4.8-3.9-5.4-3.2"/><path fill="#ff2a23" d="M118 95.2s.2-2.2 0-5.4c0-1.1-.5-2.8-.7-3.3l.7-3.8c0-10.7.1-24.5 0-25.6-.2-2-1.4-2.6-3.3-2.8s-21.3-.1-21.3-.1l.1-5.1c0-1-1.4-1.4-2.8-1.3-1.7.1-72.3-.2-74.2 0-2 .1-3.7.4-4.2 3.6s-1.7 25.3-1.7 25.3-3.6 2.6-4.7 4C4.6 82.3 4.7 84 4.7 84l.9 25 13.7 3.6 93.7.5 12.8-5.4v-11c0-1.6-1.1-1.5-3.6-1.5z"/><path fill="#f2eeea" d="m42.2 96.5 24.3.1L77 82.5l41 .2v7.1l-37.5-.3S70 104.3 69.7 104.3H47.3z"/><path fill="#b60f27" d="M57.2 47.8h2.7v62.4h-3z"/><path fill="#b0b0b0" d="M50 107.9h75.8v3.8c0 .4.2 1.7-1 1.7l-74.6-.5z"/><path fill="#b60f27" d="M51.8 113s2-18.3-15.7-18.3c-17.8 0-16.4 18-16.4 18zm24.9.1s-1.1-18.7 16.7-18.6c17.7 0 16 18.9 16 18.9z"/><path fill="#4e433d" d="M22.8 111.5c0 5 4.1 12.3 13 12.4s13.3-6.7 13-13.6c-.3-7-5.7-12-13.6-11.8-7.4.3-12.5 6-12.4 13"/><path fill="#c8c8c8" d="M29 111.2c.1 2.6 2.2 6.5 6.9 6.5s6.8-3.3 6.7-7a6.6 6.6 0 0 0-7-6.4 6.6 6.6 0 0 0-6.5 6.9"/><path fill="#4e433d" d="M106.3 111c-.1-5.1-4.2-12.4-13-12.4s-13.3 6.7-13 13.6c.3 7 5.8 12 13.6 11.7 7.4-.2 12.5-6 12.4-13"/><path fill="#c8c8c8" d="M100 111.3c0-2.7-2.2-6.5-6.8-6.6s-6.9 3.4-6.7 7a6.7 6.7 0 0 0 7 6.4c3.9 0 6.6-3.1 6.5-6.8"/><path fill="#fff" d="M5.4 100.6s4.8 2.2 4.8 1.2l-.1-18.3c0-1.1-2.5-.9-4-1-1.3 0-1 .4-1 .4z"/><path fill="#b0b0b0" d="M7 99h11.4c1.8 0 1.3 2.3 1.3 4.5v9.2h-17c-.3 0-1.1-.3-1.2-1.6v-10.6C1.6 98.8 4 99 4 99l-.2-15c0-1.3 1-1.5 1.4-1.5s1.7 0 1.8.5z"/><path fill="#afe3fb" d="M11.7 55.8H18l-.2 16.7-7.4 3.5z"/><path fill="#5f6165" d="M12 54s7.4 0 7.8.4c.3.3-.2 19-.2 19.4s-7.9 3.8-8.7 4.2q-1.6.7-2.2-.9-.4-1.4 1.9-2.5c1.2-.7 5.6-2.7 5.6-2.7s.3-14.2 0-14.4-4.6-.2-4.6-.2-1-.1-1-1.8C10.6 54 12 54 12 54m11.6.5c-.2.4-.6 19.1-.3 19.3s19.1.3 19.4.1 0-19.2-.2-19.3-18.7-.4-18.9 0"/><path fill="#afe3fb" d="M27 57.3h12.2v14H26.7z"/></svg>