<svg viewBox="0 0 128 128"><radialGradient id="a" cx="44" cy="29.1" r="91" gradientTransform="matrix(.6257 .78 -.5815 .4665 33.359 -18.792)" gradientUnits="userSpaceOnUse"><stop offset=".5" stop-color="#17a1f3"/><stop offset=".8" stop-color="#1b7ffa"/><stop offset="1" stop-color="#1366f0"/><stop offset="1" stop-color="#1160ee"/></radialGradient><path fill="url(#a)" d="M3.1 64.7c.7 24.4 17 59.5 61.5 59 43.3-.4 60.8-36.2 59.4-62A60 60 0 0 0 62.2 4.5c-40.1.2-59.8 34-59 60.2"/><path fill="#7add8a" d="M90.5 93.7q-.8-.3-1.7 1.4c-1 1.7-1.4 2-1.8 2.4s-3.1 2-3.3 2.8 0 1.8 0 2.7l-.2 2.6c0 .6-.6 1 .2 1.9s1.4.3 2-.5 1.8-3.1 2.1-4.2l.8-2.3c.2-.6 1.9-3.2 2.1-4.2s.6-2.3-.2-2.6"/><path fill="#bedc9d" d="M66.4 40.1q-.1.7 1 .7c1 0 .9-.4.8-1q-.1-.6-1-.6-.7 0-.8 1"/><path fill="#95da93" d="M44.5 32.4c-.4 0-1.2.4-1.2.8-.1 1-.4 2.8.3 3 .7 0 1-1.2 1.1-1.6s.5-2.2-.2-2.2"/><path fill="#7add8a" d="M41 17c-.8 0-1.4.7-1.6 1.2-.1.5 0 1.9-.4 2-.6.3-1.5.1-2.1.3-.8.2-2.4 1.7-2.4 2q0 .8 1.3 1.2.6 0 .7-.2t.5-.2c.2 0 .2.6.4.6h2.4c.2 0 1.5-.8 1.7-1.6s.2-2.4.3-3.7q-.1-1.7-.7-1.6"/><path fill="#fff" d="M38.3 9.2s-1.6 2-2.5 2.8-2.6 2.2-2.5 2.8c0 .3.6.8 1.3.6s2-1 3.5-1.5q2.3-.7 2.8-.7l4.9-2.4c1.3-.6 6-2 7.2-2.3s2-.8 1.8-1.5-2.4-.7-3.8-.7-2.5-.4-2.5-.4-3.3.8-5.7 1.6z"/><path fill="#7add8a" d="M69.2 8q-.4-.7.5-1.2c.7-.3 2.2-1.4 2.2-1.4s12.5-.2 27 10.1c14.1 10 18.7 22.7 18.7 22.7s.4 1.6.2 2.1 0 3.4-.8 8-1.2 6-1.2 8.2.8 6-.7 6.4-2-2.1-2.9-4-2.3-4.1-2.7-5l-.6-1.8s-1 .3-1.7-.2-4.4-4.7-4.9-5.1-1.7-.2-2.7.2-1.3.9-3.6.7-1.4-1-2.6-2S91 47 90 47s-2-.6-2.7-1.4-1.7-1.7-2.2-1.8-1.6.1-1.2 1.3 1.4 1.3 2.2 2 .7 1.3 1 2 2.6 2 3 1.9c.5-.1 1.4-.7 1.8-1.2s.3-1.2 1-1.3 1.2.8 2.1 1.6 2 .7 2.3 2-.8 5.4-1.7 6.4-2 1.2-2 1.2l-2 1.8s0 1-1.7 2-2.2.8-3.4 1.4-1.7 1.3-2.6 1-1.6-1.5-2-2.9q-.8-2-2-3.2c-1.2-1.2-1.2-.7-2-1.5s-2-2.7-2.1-3-.1-1-.5-1.4l-1.5-1.2q-.6-.5-.8-1.5c-.2-1-1.2-1.5-1.7-2.1s-1.2-1.8-1.8-1.4.1 1.3.8 2.5 1 2 1.2 2.7q0 1.1.5 1.7c.5.6 1.2 0 1.9 1.6s.4 3.1 1.1 3.8 1 .2 1.6 1 .5 2 1.2 2.5 3 1.4 3.8 2.8.4 1.8 1.2 2.3 2.3 0 3.9-.5 3.7-2.2 4.6-1.9.7 3.6-.2 6.1-1.6 3.3-2.2 4-1.5 2.5-3.4 4-4.3 4.1-4.9 7.3.1 8.6 0 10 0 2.1-.7 2.9-3.7 3.3-4.2 4.3-.2 2-.5 3.4-2.7 3.4-3.5 3.8-.6 1.2-2.4 2.8-2.4 2.1-3.2 2.2-5 .3-6.7-.3q-2.6-1.1-3.2-2.2c-.6-1-1-1-1.7-1.5q-1.2-.8-2.2-2-1.4-2-3.6-4.6c-2.2-2.6-2.3-2.5-2.4-4.3s1.5-3.8 1.5-3.8-.4-3.2-1.8-5.6-3.2-2.9-4.3-5.3-.6-4.5-.5-5.2-.2-2.1-1.4-2.6-2.1.1-2.8-.2-1.6-2.3-3.1-2.4-3.5 2-5.2 2-1.7-1.2-2.9-1.6-1.6.9-2.6.7-2.4-1.7-3.2-3-1.8-1.9-2.2-2.6L17 71s-1.6 0-2.1-2.7-.1-3.9.3-5.2 1.6-5 1.7-6.3-.2-2.2 0-2.9 1.7-1.7 2.2-2.7l1.7-2.8c.6-.8 1.4 0 2.7-1.7s1-1.9 1-1.9.4-1.7 1.3-2.9 2-1.7 2.6-1.8 1.7.2 2.3.2h2.1c.5-.1 2.3-1.4 3.6-1.7s2.4-.2 3.4-.4 2.7-.4 3.8.4 1.1 1.3 1 1.7-.8 1.2-.5 1.6 1 .7 1.5.9l1.5.3c.2.1 1 1 2 1.4s2.7 1.5 3.3 1.1.5-1.7 1.5-2q1.5-.3 4 .3c2.4.6 7.7 1.7 8.4 1.5s.5-.8 1.3-1 1.6-.1 1.9-.7.5-3.4.4-4.3 0-2.1-.4-2.3-1.6 1-2.6 1.2-1.5-.1-2 0-.8.7-1.5.5-1.7-.8-2.4-1.4-1-1.8-.6-2.5 1.6-1.2 2.6-1.6 2.3-.5 2.9-.7.8-.5 1.5-.5 1 .6 1.4.7h3.7c.5-.1 2.5-1 2.4-1.8s-1.5 0-1.9-.5-2-2.5-3.3-2.5-2 .9-3 .9-1.4-.8-2-.7-1.7 1-2.4 1.7l-1.2 1.5c-.2.3.5 1.4-.2 1.9s-1.8.6-2.1.6-1.7-.2-2 .7-.1 1.8.2 2.3.6 1.2-.1 1.8-1.3.7-1.7 0c-.4-.9-.2-1-.5-1.4s-1.2-2-1.5-3-.7-2-1.3-2.6-1.6-.8-2.3-1.5l-1.3-1.5s-.5 1 .1 2.6 2.4 2.9 2.5 3.5-.1 1.7-.6 1.7-1-.5-1.7-1.3-2-1.7-2.6-2.2-1.3-3-1.7-3.1-1.1 1.4-2.3 1.8-2.2.4-2.2.4-.7 1.7-1.7 2.2-1.5.8-2 1.5-1 2-1.5 2.4-1.8.8-2.2 1l-1.6.4c-.2 0-1.7-1-1.9-1.6l-.6-1.6c-.2-.6 1.2-2.3 1.5-3.2s.5-1.9 1.3-2.5 1.2 0 2.5 0h2.7l.3-.8c.1-.3.6-.3.5-.6s-1.3-1-1.5-1.6q0-.8.6-1 1-.6 1-.8-.1-.3 1-.7c1-.4 1.2.4 1.7.3s1.8-.9 2.3-1.5 1.1-1.3 1.7-1.6 1.8-.5 2.3-.8.5-1 .9-1.2 1-.4 1.8.1 1 1.5 1.8 1.6 1.5-.2 1.8-.4 1-1.1 2-1.7l1.9-1.3q.9-1 .7-1l2-.3c.6-.1 2.3-.3 2-1.3s-1.5-.4-2.4-.2-1.7.6-2 .3.8-1.5 1-1.8.7-1 0-1.4-1.4.7-1.8 1.2l-.9 1.5V17c0 .5-.8 1.1-1.4 1.7s-1.3 1.6-2.1 1.5-1.2-1.3-1.3-1.4 0-1-.3-1-.8 1-1.8.9-1.1-1.4-.6-2.5 1.7-1.5 2.5-2 1.6-.6 2.1-1l1-1c.4-.3 2.8-2.2 4.3-3s2.5-1 3.2-1.2q1.4 0 2.4.3c1 .4 2.6 1.6 3 2s.9 1 1.9.8 3.6-1.3 4-1.6-.3-1.1-.7-1.2-1.4.2-1.9-.3"/><radialGradient id="b" cx="64.3" cy="57.2" r="21.4" gradientTransform="rotate(-71.333 -31.274 125.85)scale(1 3.3976)" gradientUnits="userSpaceOnUse"><stop offset=".1" stop-color="#e3dda6"/><stop offset=".9" stop-color="#e3dda6" stop-opacity=".1"/><stop offset="1" stop-color="#e3dda6" stop-opacity="0"/></radialGradient><path fill="url(#b)" d="M41.2 82c.1-.7-.2-2-1.4-2.5s-2.1.1-2.8-.2-1.6-2.3-3.1-2.4-3.5 2-5.2 2-1.7-1.3-2.9-1.6-1.6.9-2.6.7-2.4-1.7-3.2-3-1.8-2-2.2-2.7l-.7-1.2s-1.6 0-2.1-2.7-.1-3.9.3-5.3 1.6-5 1.7-6.3-.2-2.1 0-2.8 1.7-1.7 2.2-2.7l1.7-2.8c.6-.8 1.4 0 2.7-1.7s1-2 1-2S25 43.3 26 42s2-1.7 2.6-1.8 1.7.2 2.3.2H33c.5-.1 2.3-1.5 3.6-1.8s2.4-.1 3.4-.3 2.7-.5 3.8.3 1.1 1.4 1 1.8-.8 1.2-.5 1.6 1 .7 1.5.8l1.5.4q.4.5 2 1.4 2.4 1.5 3.3 1.1c.9-.4.5-1.7 1.5-2q1.5-.3 4 .3c2.4.6 7.7 1.7 8.4 1.5s.5-.8 1.3-1 1.6-.1 1.9-.7.5-3.4.5-4.3-.1-2.1-.5-2.3-1.6 1-2.6 1.2-1.5-.1-2 0-.8.7-1.5.5-1.7-.8-2.4-1.5-1-1.7-.6-2.4 1.6-1.2 2.6-1.6 2.3-.5 2.9-.7.8-.5 1.5-.5 1 .6 1.4.7h3.7c.5 0 2.5-1 2.4-1.8s-1.5-.1-1.9-.5-2-2.4-3.3-2.5c-2.9-.4-6.1-4-6.2-9s2.5-7.7 4.2-8c1-.3 3.7-1.2 4-1.6s-.3-1.1-.6-1.2-1.5.3-2-.3q-.4-.7.6-1.2L72 5.4s12.4-.2 27 10.2c14 10 18.6 22.6 18.6 22.6s.4 1.6.2 2.1 0 3.4-.8 8-1.2 6-1.2 8.2.8 6-.7 6.4-2-2.1-2.9-4-2.3-4.1-2.7-5l-.6-1.8s-1 .3-1.7-.2-4.4-4.7-4.9-5.1-1.7-.2-2.7.2-1.3.9-3.6.7-1.4-1-2.6-2S91 47 90 47s-2-.6-2.7-1.4-1.7-1.7-2.2-1.8-1.6.1-1.2 1.3 1.4 1.3 2.2 2 .7 1.3 1 2 2.6 2 3 1.9c.5-.1 1.4-.7 1.8-1.2s.3-1.2 1-1.3 1.2.8 2.1 1.6 2 .7 2.3 2-.8 5.4-1.7 6.4-2 1.2-2 1.2l-2 1.8s0 1-1.7 2-2.2.8-3.4 1.4-1.7 1.3-2.6 1-1.6-1.5-2-2.9q-.8-2-2-3.2c-1.2-1.2-1.2-.7-2-1.5s-2-2.7-2.1-3-.1-1-.5-1.4l-1.5-1.2q-.6-.5-.8-1.5c-.2-1-1.2-1.5-1.7-2.1s-1.2-1.8-1.8-1.4.1 1.3.8 2.5 1 2 1.2 2.7q0 1.1.5 1.7c.5.6 1.2 0 1.9 1.6s.4 3.1 1.1 3.8 1 .2 1.6 1 .5 2 1.2 2.5 3 1.4 3.8 2.8.4 1.8 1.2 2.3 2.3 0 3.9-.5 3.7-2.2 4.6-1.9.7 3.6-.2 6.1-1.6 3.3-2.2 4-1.5 2.5-3.4 4-4.3 4.1-4.9 7.3c0 0-9.2 7-18.8 5.7A42 42 0 0 1 41.2 82"/><radialGradient id="c" cx="87.9" cy="42.6" r="18.6" gradientTransform="matrix(-.7604 -.6495 1.1303 -1.3232 106.636 156.165)" gradientUnits="userSpaceOnUse"><stop offset=".1" stop-color="#e3dda6"/><stop offset=".9" stop-color="#e3dda6" stop-opacity=".1"/><stop offset="1" stop-color="#e3dda6" stop-opacity="0"/></radialGradient><path fill="url(#c)" d="M41.2 82c.1-.7-.2-2-1.4-2.5s-2.1.1-2.8-.2-1.6-2.3-3.1-2.4-3.5 2-5.2 2-1.7-1.3-2.9-1.6-1.6.9-2.6.7-2.4-1.7-3.2-3-1.8-2-2.2-2.7l-.7-1.2s-1.6 0-2.1-2.7-.1-3.9.3-5.3 1.6-5 1.7-6.3-.2-2.1 0-2.8 1.7-1.7 2.2-2.7l1.7-2.8c.6-.8 1.4 0 2.7-1.7s1-2 1-2S25 43.3 26 42s2-1.7 2.6-1.8 1.7.2 2.3.2H33c.5-.1 2.3-1.5 3.6-1.8s2.4-.1 3.4-.3 2.7-.5 3.8.3 1.1 1.4 1 1.8-.8 1.2-.5 1.6 1 .7 1.5.8l1.5.4q.4.5 2 1.4 2.4 1.5 3.3 1.1c.9-.4.5-1.7 1.5-2q1.5-.3 4 .3c2.4.6 7.7 1.7 8.4 1.5s.5-.8 1.3-1 1.6-.1 1.9-.7.5-3.4.5-4.3-.1-2.1-.5-2.3-1.6 1-2.6 1.2-1.5-.1-2 0-.8.7-1.5.5-1.7-.8-2.4-1.5-1-1.7-.6-2.4 1.6-1.2 2.6-1.6 2.3-.5 2.9-.7.8-.5 1.5-.5 1 .6 1.4.7h3.7c.5 0 2.5-1 2.4-1.8s-1.5-.1-1.9-.5-2-2.4-3.3-2.5c-2.9-.4-6.1-4-6.2-9s2.5-7.7 4.2-8c1-.3 3.7-1.2 4-1.6s-.3-1.1-.6-1.2-1.5.3-2-.3q-.4-.7.6-1.2L72 5.4s12.4-.2 27 10.2c14 10 18.6 22.6 18.6 22.6s.4 1.6.2 2.1 0 3.4-.8 8-1.2 6-1.2 8.2.8 6-.7 6.4-2-2.1-2.9-4-2.3-4.1-2.7-5l-.6-1.8s-1 .3-1.7-.2-4.4-4.7-4.9-5.1-1.7-.2-2.7.2-1.3.9-3.6.7-1.4-1-2.6-2S91 47 90 47s-2-.6-2.7-1.4-1.7-1.7-2.2-1.8-1.6.1-1.2 1.3 1.4 1.3 2.2 2 .7 1.3 1 2 2.6 2 3 1.9c.5-.1 1.4-.7 1.8-1.2s.3-1.2 1-1.3 1.2.8 2.1 1.6 2 .7 2.3 2-.8 5.4-1.7 6.4-2 1.2-2 1.2l-2 1.8s0 1-1.7 2-2.2.8-3.4 1.4-1.7 1.3-2.6 1-1.6-1.5-2-2.9q-.8-2-2-3.2c-1.2-1.2-1.2-.7-2-1.5s-2-2.7-2.1-3-.1-1-.5-1.4l-1.5-1.2q-.6-.5-.8-1.5c-.2-1-1.2-1.5-1.7-2.1s-1.2-1.8-1.8-1.4.1 1.3.8 2.5 1 2 1.2 2.7q0 1.1.5 1.7c.5.6 1.2 0 1.9 1.6s.4 3.1 1.1 3.8 1 .2 1.6 1 .5 2 1.2 2.5 3 1.4 3.8 2.8.4 1.8 1.2 2.3 2.3 0 3.9-.5 3.7-2.2 4.6-1.9.7 3.6-.2 6.1-1.6 3.3-2.2 4-1.5 2.5-3.4 4-4.3 4.1-4.9 7.3c0 0-9.2 7-18.8 5.7A42 42 0 0 1 41.2 82"/><radialGradient id="d" cx="61.3" cy="118.8" r="17.9" gradientTransform="matrix(.2128 -.9771 1.9056 .4151 -178.069 129.348)" gradientUnits="userSpaceOnUse"><stop offset="0" stop-color="#e3dda6"/><stop offset=".8" stop-color="#e3dda6" stop-opacity="0"/></radialGradient><path fill="url(#d)" d="M59.4 116.6c-1.7-.6-2.7-1.7-3.2-2.2l-1.7-1.5q-1.2-.8-2.1-2.1l-3.7-4.6c-2.2-2.6-2.3-2.4-2.4-4.3s1.5-3.7 1.5-3.7-.4-3.2-1.8-5.7-3.2-2.8-4.3-5.3c0 0 9.7-.9 18 1s21 9.2 21 9.2c-.2 1.4 0 2.2-.8 3s-3.7 3.3-4.2 4.3-.2 2-.5 3.4-2.7 3.4-3.5 3.8-.6 1.2-2.4 2.8-2.4 2-3.2 2.2c-.6 0-5 .2-6.7-.3"/><path fill="#4b9ced" d="M79.5 25.5c-.7-.1-2 1.5-2.1 2.2s.2 1.6.5 1.9 2 1.2 2.5 1.8.6 2.6 1.4 3.5 1.7 2 3.7 2 1.8-1.1 1.8-1.6c0-.8-2.4-3.4-3.4-4.4-1-.9-2.6-1.7-3-2.4s.3-1.2.1-1.8c-.2-.5-.7-1.2-1.5-1.2"/><path fill="#4186f1" d="M72.5 83.9c-.3-.4-1.7-.5-2.1-.2s-1.2 2.4-1 2.8 1.5.2 2 0 1.4-2.2 1-2.6"/></svg>