<svg viewBox="0 0 128 128"><path fill="#feb804" d="m82 119.7-12.6-.1-4.7-15.5-4.3 1.1 4 14.4H38.7l4.8-14.2h-5.1l-4.6 14.2h-9c-1.8-.2-4.1-1.7-5-2.2s-2.8-2.8-4.4-1 1.2 4 3.1 5.3c2.9 1.9 6.1 2 8 2h55.8c.8 0 1.6-1.2 1.6-2s-.5-1.8-1.8-2"/><path fill="#5e6367" d="m104 48-42.8-.7s-1-1.6-3.7-2.3a13 13 0 0 0 3.9-.4c.6-1.5-2.5-3.8-7.3-3.9-4.5 0-7.7 2.3-7.3 4 0 .3 2 .4 4.5.4a8 8 0 0 0-3.7 2.3L5 49.2q-2 0-2.1 1.4c-.1 1.4.5 1.7 1.5 1.7l40-1.4s-18 5-19 5.4c-1.1.3-2.5.7-2.4 1.6s1.6.9 2.5.7l25.7-6.4V59c-2 0-3.8 0-4 .3-.8.6-1.6 3.3-1.9 5.7l-.5 5.8 11 .6L60 59.3l-2.5-.1v-6.6l27.3 7c.7.2 2 0 2-.7s0-1.3-1-1.7S64.4 51 64.4 51l38.9-.1c1.7-.1 2.1-.6 2.1-1.5s-.8-1.4-1.5-1.4"/><path fill="#ffa62d" d="m16.6 89-2.2 2.1-3 4.3s-1.5 4 3.3 7c4.9 3 11 5.3 32 4.8s30.2-4.5 34.1-9.4 4.3-9.2 4.3-9.2l6.6-6.3 14.3.2 5.5 15c.2.4 3.9.4 3.9.4l2.8-7.9s-.4-8.8-.2-9.7c.2-1 7.3-23 7.1-23.7s-.3-.8-.8-.9h-2l-14.4 15.4-1.2 2.6-2.8.5-21-1.8s0-1.8-.6-3.4l-1.9-4.3-29.3 2-2 3.1L39 75z"/><path fill="#ffd61c" d="M114.2 55.7 108 71.1l7.7 20s-.1.7-1 .9-2.5-1.1-2.5-1.1l2.7 7s6.6 0 6.7-.3-4.6-21-4.6-21.5 6-20.6 6-20.6-8.5-.1-8.7.2M76.5 74.8s3 1.9 4.8 4c1.6 1.9 3.6 5 3.6 5l6.6-5.2 15.6.7-.3-3.7-.6-2L82.8 72zm-25.4-8.1s4.9.6 13.4 1.1c7 .5 12.3.8 14.5-.3q2.1-1.4 2-1.6c-.1-.2-2.2-4.7-3.1-5.3a76 76 0 0 0-17.8-1.3c-4.7.4-9 7.4-9 7.4m30.6 17s-9-14.3-31.8-13.9c-22.7.5-26.7 17.5-26.7 17.5l8 2.5s.5 2.3-.7 2.6-11.4.2-12.9.2c-2.7-.1-2.8-2-2.8-2s-1.5 1.1-2.2 2.3-1.2 2.5-1.2 2.5.8 2.2 4.6 3.8c4 1.7 15 4 30.7 3.8s29-3.7 32.8-9.7 2.2-9.5 2.2-9.5M47 92.4c-.8.6-8.2.9-9.4-.2-1-.8 0-2.6 0-2.6l3.4-2s6.7.7 6.7 1.8c0 1-.1 2.5-.7 3m16.5.3c-1.3.5-6.7.6-7.9.5s-2-.1-2.7-1.2-.2-2.8-.2-2.8l13-2.5-.2 3.5a3 3 0 0 1-2 2.5"/><path fill="#5e6367" d="M41.6 75.6c-1 .8-4.5 13.7-4 14 .6.2 9.6.3 10.1-.2s1.7-13.6 1.3-14-6.7-.4-7.5.2m12.3.3c-.4.3-1.3 13.5-1.1 14s2.6.5 6.1.5 6.6-.7 6.9-2.9c.2-2.4 0-6.4 0-8s-1.9-3-4.3-3.5c-1.9-.4-7-.6-7.6-.1M30 94.5c-.5-.6-7-.3-7.3 4.6-.1 3 3.5 4.7 4.3 4.7s1.4-2 2.2-4.5c.7-2.2 1.1-4.4.8-4.8"/><path fill="#868686" d="M16.2 89.7c.2.9 14.4.7 15 .3s5.9-17 5.7-17.4-5.5.4-13.2 6.8c-4.8 4-7.7 9.3-7.5 10.3"/><path fill="#c9c7c4" d="M42 81.7c1 .2 1.9-1.8 2.8-2.2s2.3-1.2 2.3-2c0-1-3-1.8-4-1s-2.6 4.7-1.1 5.2m13.4-4c-.8.8-1 4.4.2 4.6s1.8-1.3 2.8-2c1-.8 2.6-1.3 2.5-2.6 0-1-4-1.6-5.5 0"/><path fill="#c8c8c8" d="M33 75.7c-.8-.8-5.1 1.8-8.1 4.7-2.9 2.7-5.7 6.3-4.9 7.3 1.3 1.8 4.1-2.8 7.3-5.6 1.5-1.4 7-5.2 5.7-6.4"/><path fill="#999a9d" d="M107.6 63.2c-1.5.3 0 6.8.5 9 .5 2.1 2 5.2 2 5.2L113 76s-1-4.8-2-7.6-2.2-5.4-3.4-5.2m3.1 16.7s0 2.3 1.2 5.8c1.1 3.4 2.6 6.4 4 6 1.2-.4.4-5.6-.3-7.8s-2-5-2-5z"/><path fill="#5e6367" d="M111 75.4c-2.4.8-2.2 2.7-1.7 4 .3.8 1.9 2 3.6 1.3 1.4-.7 2.3-1.9 1.6-3.8-.4-1.2-1.7-2.2-3.6-1.5"/></svg>