<svg xmlns="http://www.w3.org/2000/svg" width="1em" height="1em" viewBox="0 0 128 128"><circle cx="58.5" cy="117.94" r="6.06" fill="#616161"/><circle cx="58.5" cy="117.94" r="2.56" fill="#9e9e9e"/><path fill="#616161" d="m44.18 115.27-1.16-.71a3.136 3.136 0 0 1-1.03-4.32l2.62-4.26a3.136 3.136 0 0 1 4.32-1.03l1.16.71c1.48.91 1.94 2.84 1.03 4.32l-2.62 4.26a3.14 3.14 0 0 1-4.32 1.03"/><circle cx="28.75" cy="99.64" r="6.06" fill="#616161"/><circle cx="28.75" cy="99.64" r="2.56" fill="#9e9e9e"/><path fill="#616161" d="m14.42 96.97-1.16-.71a3.136 3.136 0 0 1-1.03-4.32l2.62-4.26a3.136 3.136 0 0 1 4.32-1.03l1.16.71c1.48.91 1.94 2.84 1.03 4.32l-2.62 4.26a3.154 3.154 0 0 1-4.32 1.03"/><linearGradient id="a" x1="55.086" x2="60.074" y1="20.409" y2="20.409" gradientTransform="rotate(31.501 66.981 58.612)" gradientUnits="userSpaceOnUse"><stop offset="0" stop-color="#eee"/><stop offset="1" stop-color="#757575"/></linearGradient><path fill="#bdbdbd" stroke="url(#a)" stroke-miterlimit="10" stroke-width="1.022" d="M85.89 13.56 75.21 30.98l-3.35-2.12L82.63 11.3z"/><linearGradient id="b" x1="74.671" x2="79.66" y1="20.366" y2="20.366" gradientTransform="rotate(31.501 66.981 58.612)" gradientUnits="userSpaceOnUse"><stop offset="0" stop-color="#eee"/><stop offset="1" stop-color="#757575"/></linearGradient><path fill="#bdbdbd" stroke="url(#b)" stroke-miterlimit="10" stroke-width="1.022" d="M102.87 23.34 91.81 41.38l-3.38-2.07 11.05-18.04z"/><path fill="#616161" d="m84.25 6.02-3.07 5.01c-.29.47-.26 1.02.19 1.29 0 0 .82-.47 2.43.57s1.75 2.02 1.75 2.02c.45.27.88-.08 1.17-.55l1.19-1.95c.79-1.29 2.16-1.84 3.39-1.09l7.33 4.49c1.23.75 1.58 2.41.79 3.7l-.51.85c-.34.56-.91 1.21-.38 1.54 0 0 .8-.2 2.44.87 1.64 1.08 1.76 1.71 1.76 1.71.53.33 1.06.01 1.4-.55l2.55-4.17c.64-1.04 1.11-3.09-.39-5.31-1.21-1.79-2.3-2.88-7.91-6.32-5.65-3.46-6.76-3.64-8.85-4.07-2.35-.41-4.65.93-5.28 1.96"/><path fill="#bdbdbd" d="M90.23 7.69a7.44 7.44 0 0 0-3.51.07c-.14.04-.28.08-.42.05-.26-.05-.42-.33-.41-.6.01-.26.15-.5.31-.72 1.64-2.18 4.82-1.31 6.95-.13.72.4 2.65 1.57 1.53 2.59-.3.28-.77.3-1.16.18s-.73-.37-1.08-.58c-.68-.4-1.43-.69-2.21-.86" opacity=".65"/><path fill="#0277bd" d="M107.11 57.86c2.05-3.33 1-7.7-2.33-9.74L90.11 39.1l-40.68 66.13 14.71 9.05c3.33 2.05 7.7 1 9.74-2.33z"/><path fill="#03a9f4" d="m19.09 86.64 30.66 18.86c3.33 2.05 7.7 1 9.74-2.33l33.26-54.14c2.05-3.33 1-7.7-2.33-9.74L59.76 20.44c-3.33-2.05-7.7-1-9.74 2.33L16.76 76.9c-2.05 3.34-1.01 7.7 2.33 9.74"/><path fill="#212121" d="M58.96 111.09c1.44-.03 2.78-.41 4.21-.85 1.81-.56 3.33-1.46 4.35-3.11l32.18-52.4c1.18-1.92 1.18-4.23.46-6.31-.36-1.05-.8-2.21-1.64-3.33-.7-.93-1.95-2.04-2.01-2.07.78 0 1.94.72 3.54 2.22 2.93 2.74 3.38 7.17 1.33 10.51 0 .01-32.18 52.4-32.18 52.4a8.9 8.9 0 0 1-5.17 3.9c-.97.27-2.17.38-3.2.27-1.54-.16-1.87-1.23-1.87-1.23"/><ellipse cx="45.99" cy="58.75" fill="#784d30" rx="4.94" ry="7.98" transform="rotate(-14.647 45.99 58.755)"/><path fill="#ffe0b2" d="M44.39 65.92c-1.57-1.18-2.92-3.27-3.59-5.82-.56-2.14-.57-4.29-.02-6.05.57-1.84 1.66-3.06 3.08-3.43 2.86-.75 6.14 2.29 7.31 6.77.56 2.14.57 4.29.02 6.05-.57 1.84-1.66 3.06-3.08 3.43-1.23.32-2.53-.05-3.72-.95m2.71-13.7c-.97-.73-2.03-1.05-3.02-.79-1.13.3-2.02 1.31-2.49 2.86-.5 1.62-.49 3.61.03 5.59 1.05 4.03 3.87 6.8 6.28 6.17 1.13-.3 2.02-1.31 2.49-2.86.5-1.62.49-3.61-.03-5.59-.62-2.38-1.86-4.32-3.26-5.38"/><path fill="#7cb342" stroke="#f1f8e9" stroke-miterlimit="10" stroke-width=".753" d="m68.78 46.18 1.15 9.16 14.98-3.8-4.79-3.51 3.65-5.21z"/><path fill="#ffe36c" d="M64.59 44.94c2.15-2.05 1.54-6.33-1.99-5.41-1.04.27-2.17.85-3.15.13-.23-.19-.38-.51-.31-.81.13-.56.86-.98 1.31-1.2 1.37-.61 2.52-.67 2.86-2.28.42-1.96-2.51-3.91-4.39-3.8-2.57.15-2.68 2.06-2.36 4.31.19 1.09-.96 1.89-1.69.96-.51-.97-.08-2.5-.55-3.51-.49-1.72-2.62-1.79-3.97-.98-1.27.76-2.41 2.29-1.97 3.79.43 1.46 1.52 1.75 2.7 2.02.58.13 1.32.37 1.63.96.48 1.34-1.87.71-2.58.81-.75 0-1.46.08-2.05.56-1.62 1.22-1.38 4.18.66 5.15 1.82 1.14 3.53-.24 4.51-1.93.26-.39.57-.83 1.03-.88.86-.09.87 1 .73 1.56-.22.91-.71 1.74-.93 2.65-.72 3.09 3.76 4.25 5.55 1.86 1.09-1.48.35-3.13-1.01-4.36-.34-.31-.64-.92-.28-1.33.72-.76 2.01.51 2.41.84 1.2 1 2.34 2.05 3.84.89"/><circle cx="56" cy="40.16" r="1.94" fill="#ff7555"/><path fill="#424242" d="m54.92 108.65-4.49-2.72 4.37-7.14 7.67 4.65c.66.4.86 1.26.46 1.91.01.01-3.14 6.3-8.01 3.3"/><path fill="#757575" d="M50.75 96.3c-.66-.4-1.51-.19-1.92.46l-1.51 2.47a4.085 4.085 0 0 0 1.32 5.59l1.11.68c3.02 1.86 7.59 1.9 10.25-2.93.15-.27.05-.61-.21-.76z"/><path fill="#424242" d="M73.11 110.06c-1.04-.63-2.01-.39-2.84.73-2.22 2.99-4.53 3.54-6.12 3.5l.58.35c3.53 2.25 7.65.79 9.76-3.5.05-.1.01-.22-.08-.28z"/><path fill="#757575" d="M26.9 81.76c.66.4.86 1.26.46 1.91l-1.51 2.47a4.096 4.096 0 0 1-5.58 1.39l-1.11-.67c-3.06-1.85-5.14-6.22-2.07-10.64.12-.17.36-.22.53-.11z"/><path fill="#ffe0b2" d="M47.95 64.05c.36-1.04-.69-1.52-1.04-2.22.06-1.05.96-2.06.25-3.14 2.38-1.89.33-2.7-1.76-2.8.12-.34.59-.49.79-.84.34-.5.31-1.19-.09-1.65-.42-.65-2.47-.72-1.92.4.46.52.79-.48 1.28-.23.67.45-.26 1.09-.58 1.44-.39.37-.52.87-.33 1.27.42.89 1.64.49 2.39.61.83.19.14.97-.3 1.18-.11.07-.57-.18-.72-.19-4.27-.94-2.74 4.52.34 1.52.91.65-.57 1.67-.39 2.47.19.99 1.68 1.61.95 2.81-.03.04-.06.09-.03.14.4.21 1-.38 1.16-.77m-2.84-4.64c-.28.23-.86.23-.92-.2.09-.62 1.06-.61 1.46-.31-.16.18-.35.36-.54.51"/></svg>