<svg viewBox="0 0 128 128"><circle cx="58.5" cy="117.9" r="6.1" fill="#616161"/><circle cx="58.5" cy="117.9" r="2.6" fill="#9e9e9e"/><path fill="#616161" d="m44.2 115.3-1.2-.7a3 3 0 0 1-1-4.4l2.6-4.2a3 3 0 0 1 4.3-1l1.2.7a3 3 0 0 1 1 4.3l-2.6 4.2a3 3 0 0 1-4.3 1"/><circle cx="28.8" cy="99.6" r="6.1" fill="#616161"/><circle cx="28.8" cy="99.6" r="2.6" fill="#9e9e9e"/><path fill="#616161" d="m14.4 97-1.1-.7a3 3 0 0 1-1-4.4l2.6-4.2a3 3 0 0 1 4.3-1l1.1.7a3 3 0 0 1 1 4.3l-2.6 4.2a3 3 0 0 1-4.3 1"/><linearGradient id="a" x1="55.1" x2="60.1" y1="20.4" y2="20.4" gradientTransform="rotate(31.501 66.981 58.612)" gradientUnits="userSpaceOnUse"><stop offset="0" stop-color="#eee"/><stop offset="1" stop-color="#757575"/></linearGradient><path fill="#bdbdbd" stroke="url(#a)" stroke-miterlimit="10" stroke-width="1" d="M85.9 13.6 75.2 31 72 28.9l10.7-17.6z"/><linearGradient id="b" x1="74.7" x2="79.7" y1="20.4" y2="20.4" gradientTransform="rotate(31.501 66.981 58.612)" gradientUnits="userSpaceOnUse"><stop offset="0" stop-color="#eee"/><stop offset="1" stop-color="#757575"/></linearGradient><path fill="#bdbdbd" stroke="url(#b)" stroke-miterlimit="10" stroke-width="1" d="m102.9 23.3-11 18-3.5-2 11-18z"/><path fill="#616161" d="m84.3 6-3.1 5q-.5.8.2 1.3s.8-.5 2.4.6 1.8 2 1.8 2q.6.4 1.1-.5l1.2-2q1.4-2 3.4-1l7.3 4.4c1.3.8 1.6 2.4.8 3.7l-.5.9c-.3.5-.9 1.2-.4 1.5 0 0 .8-.2 2.5.9 1.6 1 1.7 1.7 1.7 1.7q.8.4 1.4-.6l2.6-4.1c.6-1 1-3.1-.4-5.3-1.2-1.8-2.3-3-8-6.4-5.6-3.4-6.7-3.6-8.8-4-2.3-.4-4.6.9-5.2 2"/><path fill="#bdbdbd" d="M90.2 7.7a7 7 0 0 0-3.5 0l-.4.1q-.4 0-.4-.6 0-.4.3-.7c1.6-2.2 4.8-1.3 7-.1.7.4 2.6 1.5 1.5 2.6q-.5.3-1.2.1c-.7-.2-.7-.3-1-.5z" opacity=".7"/><path fill="#0277bd" d="M107.1 57.9a7 7 0 0 0-2.3-9.8l-14.7-9-40.7 66.1 14.7 9A7 7 0 0 0 74 112z"/><path fill="#03a9f4" d="m19 86.6 30.8 18.9a7 7 0 0 0 9.7-2.3L92.8 49a7 7 0 0 0-2.4-9.7L59.8 20.4a7 7 0 0 0-9.8 2.4L16.8 76.9a7 7 0 0 0 2.3 9.7"/><path fill="#212121" d="M59 111q2 0 4.2-.8a7 7 0 0 0 4.3-3l32.2-52.5q1.7-3 .5-6.3-.5-1.6-1.7-3.3c-.7-1-2-2-2-2q1.2 0 3.5 2.1c3 2.8 3.4 7.2 1.4 10.6l-32.2 52.4A9 9 0 0 1 64 112q-1.5.3-3.2.2c-1.5-.1-1.8-1.2-1.8-1.2"/><ellipse cx="46" cy="58.8" fill="#784d30" rx="4.9" ry="8" transform="rotate(-14.647 45.99 58.755)"/><path fill="#ffe0b2" d="M44.4 66q-2.5-2-3.6-5.9-.9-3.3 0-6 .8-2.9 3-3.5c3-.7 6.2 2.3 7.4 6.8q.8 3.3 0 6-1 2.9-3 3.5-2 .5-3.8-1M47 52.2q-1.5-1-3-.8-1.8.5-2.5 2.9-.8 2.5 0 5.6c1 4 3.9 6.8 6.3 6.1q1.7-.5 2.5-2.8.8-2.5 0-5.6a10 10 0 0 0-3.3-5.4"/><path fill="#7cb342" stroke="#f1f8e9" stroke-miterlimit="10" stroke-width=".8" d="m68.8 46.2 1.1 9.1 15-3.8-4.8-3.5 3.7-5.2z"/><path fill="#ffe36c" d="M64.6 45c2.1-2.1 1.5-6.4-2-5.5-1 .3-2.2.9-3.1.2q-.4-.3-.4-.8.5-.9 1.3-1.2c1.4-.7 2.6-.7 3-2.3.3-2-2.6-4-4.5-3.8-2.5.1-2.7 2-2.3 4.3.2 1-1 1.9-1.7 1-.5-1-.1-2.6-.6-3.6-.5-1.7-2.6-1.8-4-1-1.2.8-2.4 2.3-2 3.8.5 1.5 1.6 1.8 2.8 2q1 .2 1.6 1c.5 1.4-1.9.7-2.6.8q-1 0-2 .6c-1.6 1.2-1.4 4.2.6 5.1 1.9 1.2 3.6-.2 4.6-1.9q.3-.7 1-.9c.8 0 .9 1 .7 1.6L54 47c-.6 3.1 3.8 4.3 5.6 1.9 1.1-1.5.4-3.1-1-4.4q-.6-.6-.3-1.3c.8-.7 2 .5 2.5.9 1.2 1 2.3 2 3.8.8"/><circle cx="56" cy="40.2" r="1.9" fill="#ff7555"/><path fill="#424242" d="m55 108.7-4.6-2.8 4.4-7.1 7.7 4.6q1 .8.4 2s-3.1 6.3-8 3.3"/><path fill="#757575" d="M50.8 96.3q-1.2-.6-2 .5l-1.5 2.4a4 4 0 0 0 1.3 5.6l1.1.7c3 1.9 7.6 1.9 10.3-3q.2-.4-.2-.7z"/><path fill="#424242" d="M73.1 110q-1.6-.9-2.8.8c-2.3 3-4.6 3.5-6.2 3.5l.6.3c3.6 2.3 7.7.8 9.8-3.5v-.2z"/><path fill="#757575" d="M26.9 81.8q1 .7.5 1.9L25.9 86a4 4 0 0 1-5.6 1.4l-1.1-.6A7.2 7.2 0 0 1 17 76.2q.2-.3.5 0z"/><path fill="#ffe0b2" d="M48 64c.3-1-.7-1.5-1-2.2 0-1 .9-2 .2-3.1 2.3-1.9.3-2.7-1.8-2.8l.8-.8q.5-1-.1-1.7c-.4-.6-2.5-.7-2 .4.5.5.9-.5 1.4-.2.6.4-.3 1-.6 1.4q-.6.6-.3 1.3c.4.9 1.6.5 2.3.6.9.2.2 1-.3 1.2l-.7-.2c-4.2-1-2.7 4.5.4 1.5.9.7-.6 1.7-.4 2.5.2 1 1.7 1.6 1 2.8l-.1.1c.4.2 1-.4 1.2-.7m-3-4.7q-.6.4-1-.2c.2-.6 1.2-.6 1.6-.3z"/></svg>