<svg viewBox="0 0 128 128"><path fill="#c8c8c8" d="M10 18.9c-.5.8 5.6 46.3 5.5 49.2S12 78.6 9.8 85.2s-6.2 20-5.6 20.4 42.3 5.7 55.3 5.4 31.2-4 46.8-5.2c10.2-.8 15.8-1.7 16.6-1.7s1.6-.3 1.1-2.1-6-18.1-8.2-24l-5-13.1 3.8-26q2.5-15.2 2.4-16c-.1-.7-36.8-5.8-37.6-5.8s-30.4 8-31.9 8c-1.5-.1-37-7-37.5-6.2"/><path fill="#1e85f9" d="m21.1 67.8-4.3-42.7c0-.3 31.6 5.4 31.6 5.4l18.8 7.3s12.8-15 14.1-15 27 4 28 4q1.5.3 1.2 2.2l-5.8 36.5-43.8 12z"/><path fill="#136fd8" d="m48.4 30.6 33-7.8-1.7 40.7-14.6 10.2-14.8-5z"/><path fill="#36b4e2" d="m21.1 67.8 29.3 1 15 3.7 14.3-9 14.9 1 10 1 12.7 32.7q.4 1-.8 1.3c-1.2.3-10.4.6-10.4.6S102 98.6 99 99s-7.7 2.9-7.7 2.9l-6.4.7s-1-1.5-1.9-2.3-2.1-1.4-2.1-1.4l-15.2-4-19 10.2-34.7-3.2c-1.4-.2-2-.5-1.4-2.2z"/><path fill="#6ccbf6" d="M50.4 68.8S56 68.4 65 67c10-1.6 14.7-3.4 14.7-3.4l1.3 39.7s-9.4 2-16.9 2.1-17.6-.3-17.6-.3z"/><path fill="#c8c8c8" d="m48.4 30.6 1 17.5s.6-1.7 1.8-2 3.4-.7 3.5-1.4c.2-.8-.5-3-.3-4s1-1.6 1-3.6c-.1-2-1-2-.8-3s.5-1.9 1-2.8.9-1 1.2-1.5.4-1.3.4-1.3zm12.8 2.2c-.2 1-.6 1.5.1 2s1 1.4 1.2 1.7.2 1.2 1 1.2 1.1-1 1.3-1.7l.3-1.7s1.7-1 1.5-1.8q-.6-1.1-2.5-.8c-1.2.2-2.6 0-2.9 1.1m13.3-5.2c.4-.2 1-1.4 1.4-1.7s1-.2 1.2.4c.5 1.5 1.3 1.5 1.2 2.4s-1.9.6-2.3 1-1.3.6-2 .5c-.5-.2-2.2-1.1-1.6-2 .4-.8 2.1-.6 2.1-.6m6 14.6s-.7.3-1 1.3l-.3 1.1s-.9.8-1.6 1.2l-1.4 1s-1.3-.2-2.3.2-1.3 1.2-1.3 1.2l1.4 6.2 6.3-3zm-10.8 4.1s-1.9-1.5-2.9-1.6c-.6 0-2.6.5-3 1s-1.6 2.7-2 3.7-2.5 2.4-2.4 3.6c.3 1.5 1.7 1.2 1.7 1.2h1.4l.6-3 3.4-3.4z"/><path fill="#40c252" d="M54 68.4s.4-1 1.4-1.6 4.1-2.6 4.7-2.6 1.4.7 1.8 1.1.6.8.9.9 2.8 0 4.3-.2 2.9-.9 2.9-1.4-2-1-2.2-1l-1.9.3c-.1 0-.4.4-1 .3-.5 0-1.4-.9-1.7-1.4s-1-1.3-1.7-1.2q-1 .1-1.8.5c-.3.3-1.6 2-2 2.2s-1.7.2-2.2-.6-.4-1.6-.2-1.9 1.2-.4 1.4-.7-.3-1.5.2-1.9 2 0 2 0 1.4-1.8 1.5-2.2c.1-.3 0-1 .3-1.2s1.1-.2 1.3 0 1 .6 1.7.4 2.1-1.7 2.1-2.3-.6-.6-.8-1 .4-1.2.9-1.7.7-1 .3-1.4-.8 0-1.3.6-1.2 1.5-1.2 2 .6 1.8.2 2.1-1 .9-1.2.7l-1.5-1s-.2-.9.5-2c.6-1 2.6-4 4-5s3.5-1.3 3.5-1.3 1 .4 1.3.8c.3.3.7 1.3.4 1.8s-1.1.4-1.1.4.2 1 .8 1.1c.6 0 2-1.8 2-1.8s1-.2 1.8.1 1 1.2 1.7 1.5 2.1.1 2.8.4c.8.3 1.4 1.1 1.4 1.1l-.6 12.4s-6.6 2-12.7 3c-5.9 1-13 1.7-13 1.7"/><path fill="#40c252" d="M56.9 53.7q-.7.1-.7.7v1s-1 .6-.9 1.2.8.7 1.3 1.1 1.2.5 1.6.3 1-1 .6-1.7c-.5-1-.4-3-2-2.6"/><path fill="#e0e0e0" d="m31.8 27.5-.2 1.3c-.3.4-1 1-1 2.2s-.3 2.3.2 2.7c.7.8.7 2.5.7 2.5s-.7.6-.6 1.5.9 1.5 3 1.3q1.9 0 2-.9.1-1.5.6-3.3l.7-2.3s.8-.3 1.1-.7q.6-.5 1.2-.5c.4 0 .8 1 .8 1l-1.6 1.6c-.8.7-1 1.1-.7 2.1q.3 1.5 1.2 1.6c.9 0 1-.2 1.7 0s1 .8 1 .8l1 2.2s.7 2.5.7 3-.2 3.1 0 4.1 1.9 4.4 2.8 4.5 1.2-1.2 1.5-1.8l1.4-2.3-.9-17.5z"/><path fill="#e0e0e0" d="M18.7 44s.5-.6 1-.7 1.2-.6 1.2-1-.1-1 .1-1.8 1.7-1.8 3.9-1.8c1.6 0 2.3 1 2.6 1.5s.5 2.3.6 2.6.6.8 1.2.8.7-.2.7-.6v-1.3c.3-.6.7-1.2 2.3-1.4a18 18 0 0 1 3.8-.2c.9.2 2.4 1.7 2.7 2s.6 1.6.6 2.2 1 1.5 1.3 1.8.3 2.5-1.4 2.6-1.8-2-1.8-2.5-.2-1.1-.4-1.2-1.5-.2-1.6 0c-.4 1 .2 1.5 0 1.8s-3.6 3.1-3.7 3.7-.7 1.4-.1 2.1 2.7 1.5 3.1 1.8 1.3-.5 1.2-1-.6-1-.6-1.6.7-1.7 1.2-1.8 1.6 1 1.6 1 1.8 0 2.3.2.5 1.4.5 1.4l.6 1-2.7 4.3L22 57l-3-9.4z"/><path fill="#7adc8a" d="m20.6 62.8 1 2 .9 1.6c.2.3 1 1.4 1.7 1.3s.6-2.2 1.2-2 .8 1.4 1 1.6l.6.8 2.2 1.1.7-1.2s0-.8.2-1l1.8-1.3c.2 0 2 .3 2.6.2 1.1-.3 3-2.7 3.5-3.5l1.3-1.9c.3-.4 0-.8 0-.8s1.6.2 2.1-1c.3-.5.3-1.3.3-1.3s1.3-1 1.3-1.7-1.4-2.1-1.4-2.1L39.2 55q-1.6 1-4.2.9c-2.6-.1-2.3-.6-2.6-.8s-.7-1.1-1-1.6c-.8-1-2.2-1.4-2.4-2s1.1-1.8.5-2.8c-.5-1-2.6-.4-3.7-.1s-2.7.7-3 .6 0-.8-1-1.7l-3-2.4z"/><path fill="#d0fe8b" d="M27 68h3s0 .6.2.7.7.5 1 .4.9-.8 1.6-.8q1.6.4 2 1.2c.4.4.6 1.6 1.1 2s1.6-.2 3.4 0q1.6 0 1.9.4.5.8.8 1c.3.2.9-.2 1.3-.1s1.8 1.7 2.3 2l1.1.9s.8-.4 1.6 0 1 1.5 1 1.5.2 2-1.7 5l-3.5 5c-.5.6-2 1.5-2.5 2.3s-.9 1.2-.8 1.5 0 1.3-.2 1.8-.5.6-.5 1.3.4 1.8 0 2.2-2 .1-2.7-1.3-.7-3.7-.4-5 1-4 1-6c0-1.7-1-3.6-2-4.6s-1.3-1.2-1.3-2.9c0-1 .6-1.6.6-1.6v-1.6s-1.1-.2-1.5-.7q-.6-1-1.3-1.1c-.7-.1-1.7.1-2.7-.3L28.4 70c-1-.6-1.4-2-1.4-2"/><path fill="#e0e0e0" d="M36.3 104.2s.3-.7 1-1 1.5-.7 1.5-1 .7-2 1.5-2 .5 1 .6 1.4.4.6.3 1.2-.5.6-.5.9l.1.9z"/><path fill="#e3ffad" d="M54 68.4s-.8.8-.8 1.3-.3 2.6.2 3.6.7 1.5 1.5 1.8q1 .6 2 .6l2 .1c.4 0 1.4.8 1.6 1s.3 1.4.5 1.7l1.1 1s-.4 2.3.1 3.5c.5 1.1.9 2.7 1.2 3.5s1.5 2 1.8 2.2 1.2-.2 1.8-.7l2.2-2.4c.4-.4.3-1.2.6-1.6s0-1.2.4-1.7 1.4-1.3 1.5-1.8-.2-2.2.1-2.7l2-2.7c.4-.4.8-1.3.6-1.6s-2-.1-2.5-.4-1.3-1.7-1.5-2.1l-1.2-2c-.2-.5.7-.9 1-.7s1.3 1.9 1.7 2.5.4.8.8.9 1.1.2 1.4 0l1.4-1q.8-.3 1-.8c.3-.5-.1-1-.3-1.1s-1.5 0-1.5 0l-1.3-1.6q.2-.6 1-.3l1.8.9 1.8.4c.4 0 2 1 2 1l-.3-5.5s-6.7 2.1-12.7 3c-6.2 1-13 1.7-13 1.7"/><path fill="#e0e0e0" d="m53.3 105.3 2.8-1.7c.4-.2 3-1.4 3.8-1.6l6.2-.4 3.3.3c1.7 0 4.4.3 5-.1s3.5-2.6 4.1-2.8a6 6 0 0 1 2.4 0l.1 4.3s-9.5 2-16.9 2.1q-10.9 0-10.8-.1m35.2-74.4c-1-.6-1.5 1-1.7 1.5q-.3.7 0 1.6.6.8 1.4 1c.8.3 1.3.7 1.6-.4s-.5-1.9-.5-1.9 0-1.4-.8-1.8m-8 11.4s.6-.2.8.2l.3.6c.1.2 1.8.2 2 0s1.4-2.5 2.7-3.3 2.8-1 3.5-1.3.8-1.3 1.6-1.3 3 1.5 3.2 1.8-.3 1-.8 1.6-1.2 1-.8 1.3 2 .5 2.9.6 1.4-.3 2 0 .4 1.7.8 1.8 2.5.3 3.2-.1.5-1 1.2-1.2 1.5-.2 2.1.3l1.8 1.5c.3.3 1 .4 1 .4l-.9 5.2s-5.5 2.4-6 2.4l-21 1z"/><path fill="#7adc8a" d="m80.3 51.3.5.9c0 .3.8.4 1 .2s.2-2.4.4-2.7 2.2 0 2.3-.1 1.2-.5 1.7-.3 1.1 1.4 1.7 1.3 1.3.2 1.8-.3 1.2-1.7 2.3-2l1.8-.6c.1-.1 1.6-2 2.1-2.3s1.4 0 1.8 0 .5.3.6 1 .2 1.6.4 1.9 1.3 1.3 1.7 1.4 1.4-.3 2.5 0l3.1.7h1l-.4 3s-.3-.2-1-.1-1 .6-1.5.5-1-.3-1.3-.2-2 2-1.8 2.4 1.6 0 2 .3 1 .7 1 1 0 1.3-.3 1.5-1.5.2-1.8.4 0 1-.5 1.6l-1.8 1.8-.4 1q-.4.9-.8 1c-.4.1-1.3-1.5-1.8-1.5s-.4 1.5-.4 1.5l-16.5-1zm23.6 9.6c0-.2-1-.4-1.1 0s-.8 1-1.1 1.6-1 2-.5 2.4c.3.1 1.5-.8 2-1.6a4 4 0 0 0 .7-2.4"/><path fill="#d0fe8b" d="m96.2 64.6-16.5-1 .3 5.5.8 1.4c.3.7.7 2 1.1 2.7s.5 1.6 1.3 1.5.8-1.2 1.1-2c.3-.7 1-1.4 1.2-1.6s.8-.9 1.1-.8.7 1 1 1.4c.7.8 2.4 1.5 2.4 1.5s2.4.8 2.8-.3c.3-1-.3-2.2-.1-2.6q.6-.5 2.3-.8 1.8-.7 1.8-2.5c0-1.8-.6-2.4-.6-2.4"/><path fill="#d0fe8b" d="M97.7 79.3c.2-.3-.8-.7-1.4-1.9s-1-1.8-1.4-1.9-2.3.9-2.3 1l1 1.5s-1.3.3-2-.7-.5-1.8-1-2.5-1-1.7-1.4-1.7-.8.4-.6 1l.3 1c.4.7-.4 1.6-.1 2.2s3.1 2.4 3.6 2.6 5-.2 5.3-.6m-.3-3.8c.7.1.9-1.7.8-2.4s-.8-2.5-1.4-2.5-1 .8-1 1.2.6 1.2.6 1.5c0 .2.3 2.2 1 2.2m2.2.8c-.1.1-.2 1.2 0 1.3s1 .2 1.6.9.5 1.2.8 1.3 2.9-.4 2.9-1.6c0-.6-4.8-2.1-5.3-1.9m10.7 14.5c.3-.4 0-1.3.3-1.8s1-.7 1.3-.3.4 1.5.1 2q0 .5-.8 1.7c-.8 1.2-1.2.6-1.4.6s-1.2 1-1.6.4.2-1.4.8-1.9zm-8.5-8.7c0-.1-.2-1.9-1.1-2S99 81 99 81l-1.4.1c-.3.3-1.4 1.4-1.9 1.6l-1.6.7q-.8.5-.8 1.7c0 .8.3 2.6.4 3s.6 1.5 1.9 1 1.8-1.2 2-1.2l2.5-.1c.1 0 1.3 2 2.3 2.3s2.4.1 2.6 0 1.6-2.1 1.7-2.8.1-2-.1-2.6-2-2.4-2-2.4-.2-2-1.4-2c-1 0-.3 1.5-.6 1.7s-.8.2-.8.2"/></svg>