<svg xmlns="http://www.w3.org/2000/svg" width="1em" height="1em" viewBox="0 0 128 128"><path fill="#c8c8c8" d="M10.01 18.9c-.51.77 5.61 46.34 5.51 49.22-.1 2.89-3.48 10.45-5.77 17.11-2.29 6.67-6.17 19.9-5.57 20.4s42.28 5.7 55.32 5.37 31.22-3.98 46.8-5.22c10.21-.81 15.79-1.7 16.61-1.7s1.64-.25 1.14-2.08-6.03-18.1-8.21-24.07-5-13.07-5-13.07 2.18-15.65 3.71-25.9 2.66-15.49 2.42-15.97-36.79-5.89-37.52-5.89-30.42 8.07-31.95 7.99c-1.53-.09-36.97-6.97-37.49-6.19"/><path fill="#1e85f9" d="M21.14 67.84s-4.37-42.47-4.37-42.74 31.67 5.44 31.67 5.44l18.74 7.25s12.87-15.06 14.15-14.96 26.94 3.94 27.91 4.05c.97.1 1.49.77 1.28 2.15-.2 1.38-5.85 36.48-5.85 36.48l-43.78 11.9z"/><path fill="#136fd8" d="m48.44 30.55 32.89-7.72-1.62 40.68-14.62 10.18-14.74-4.91z"/><path fill="#36b4e2" d="m21.14 67.84 29.21.94 14.98 3.71 14.38-8.99s11.62.72 14.86.96 10.11 1.04 10.11 1.04 12.42 32.24 12.65 32.65 0 1.23-.82 1.34-10.39.58-10.39.58-4.14-1.52-7.18-1.11c-3.03.41-7.76 2.92-7.76 2.92l-6.36.7s-1.05-1.46-1.87-2.28-2.16-1.4-2.16-1.4l-15.14-3.95-19.13 10.11s-33.26-3-34.59-3.21-1.95-.49-1.4-2.16c.56-1.67 10.61-31.85 10.61-31.85"/><path fill="#6ccbf6" d="M50.35 68.78s5.76-.4 14.69-1.79c9.9-1.54 14.68-3.34 14.68-3.34L81 103.32s-9.41 1.98-16.88 2.09-17.61-.34-17.61-.34z"/><path fill="#c8c8c8" d="m48.44 30.55.87 17.5s.7-1.64 1.89-1.94c1.2-.3 3.39-.7 3.54-1.44.15-.75-.55-2.89-.35-3.89s1.1-1.69 1-3.69c-.1-1.99-1-2.04-.8-3.04s.5-1.84 1.05-2.74.85-.95 1.2-1.54c.28-.47.4-1.3.4-1.3zm12.78 2.26c-.26.99-.6 1.49.1 2.04s1.05 1.35 1.2 1.69c.15.35.2 1.15 1.05 1.15s1.05-.9 1.2-1.64c.1-.5.3-1.74.3-1.74s1.74-1.05 1.49-1.84c-.25-.8-1.25-.9-2.44-.75-1.23.14-2.6-.06-2.9 1.09m13.3-5.18c.35-.2.9-1.44 1.35-1.69s.94-.27 1.2.4c.55 1.44 1.35 1.49 1.2 2.34s-1.84.65-2.24.95-1.35.7-1.94.55c-.6-.15-2.34-1.1-1.74-2.04.41-.7 2.17-.51 2.17-.51m6.03 14.61s-.77.22-1.01 1.22-.34 1.17-.34 1.17-.86.82-1.62 1.2-1.37.93-1.37.93-1.34-.21-2.3.24-1.31 1.17-1.31 1.17 1.44 6.32 1.44 6.22 6.24-3.01 6.24-3.01zM69.71 46.3s-1.88-1.47-2.87-1.57c-.6-.06-2.6.51-2.97 1.04-.37.54-1.65 2.6-2.16 3.64s-2.45 2.43-2.26 3.57c.26 1.54 1.69 1.21 1.69 1.21l1.38-.03.61-2.97 3.4-3.4z"/><path fill="#40c252" d="M53.96 68.38s.46-1.03 1.39-1.59 4.16-2.62 4.77-2.62 1.39.72 1.75 1.13.62.82.92.87 2.82.05 4.31-.15c1.49-.21 2.87-.87 2.87-1.44s-1.9-.98-2.21-1.03-1.69.21-1.85.31c-.15.1-.46.46-.98.36-.51-.1-1.39-.87-1.75-1.39-.36-.51-.98-1.28-1.64-1.23-.67.05-1.44.26-1.8.51-.36.26-1.64 1.9-2.1 2.21s-1.69.15-2.1-.62-.46-1.64-.21-1.9c.26-.26 1.13-.41 1.33-.67.21-.26-.26-1.49.26-1.9.51-.41 1.95 0 2.05-.1s1.33-1.75 1.44-2.1c.1-.36.05-1.08.26-1.18s1.13-.21 1.28 0 .98.51 1.75.31 2.1-1.64 2.1-2.21-.62-.67-.77-1.13.36-1.13.82-1.59.77-1.08.36-1.39-.82.05-1.28.56-1.23 1.49-1.23 2 .62 1.85.21 2.1-.92.87-1.23.67c-.31-.21-1.53-.99-1.53-.99s-.16-.86.5-1.93c.67-1.08 2.62-4 4.05-5.03s3.53-1.29 3.53-1.29.89.37 1.24.73c.36.36.77 1.39.41 1.8s-1.08.46-1.08.46.21 1.03.82 1.08c.62.05 1.97-1.83 1.97-1.83s1.01-.12 1.78.14.98 1.18 1.69 1.49c.72.31 2.16.1 2.87.41.72.31 1.33 1.13 1.33 1.13l-.56 12.32s-6.6 2.09-12.68 3.08c-5.89.96-13.06 1.64-13.06 1.64"/><path fill="#40c252" d="M56.85 53.68c-.44.1-.68.38-.64.75.04.38-.08.94-.08.94s-.98.6-.79 1.28.71.68 1.28 1.05 1.16.49 1.54.26 1.03-1.03.68-1.65c-.53-.94-.49-2.97-1.99-2.63"/><path fill="#e0e0e0" d="M31.78 27.53s-.05.86-.23 1.31-1.03.95-.99 2.21c.05 1.27-.23 2.21.21 2.69.69.76.7 2.42.7 2.42s-.63.59-.54 1.54.84 1.48 2.95 1.32c1.35-.1 1.87-.28 1.96-.91s.49-2.19.67-3.36.64-2.28.64-2.28.81-.32 1.17-.63c.36-.32.77-.54 1.17-.5.41.05.77.9.77.9s-.75.94-1.56 1.66-.91 1.13-.72 2.11c.18.91.6 1.52 1.19 1.57s1.04-.14 1.72 0 .99.81.99.81.63 1.22.95 2.17.77 2.49.81 3.03c.05.54-.25 3.15-.02 4.14s1.87 4.4 2.78 4.44c.9.05 1.22-1.22 1.45-1.76s1.45-2.34 1.45-2.34l-.87-17.5z"/><path fill="#e0e0e0" d="M18.7 44.09s.47-.71.92-.84 1.31-.54 1.31-.86-.13-1.14.09-1.94c.23-.81 1.72-1.76 3.84-1.77 1.62-.01 2.35 1 2.66 1.55.32.54.45 2.3.59 2.58s.63.81 1.17.81.72-.23.72-.63c0-.41-.23-.72.05-1.31.27-.59.68-1.17 2.21-1.36 1.54-.18 3.27-.37 3.8-.23.9.25 2.49 1.76 2.76 2.08s.54 1.58.63 2.12.95 1.49 1.22 1.81.36 2.53-1.4 2.62-1.76-1.99-1.76-2.53-.18-1.13-.45-1.22-1.42-.17-1.54.09c-.4.88.14 1.45-.09 1.76-.23.32-3.48 3.12-3.66 3.66s-.68 1.45-.09 2.17 2.71 1.49 3.12 1.72 1.27-.45 1.17-.95c-.09-.5-.59-1.04-.59-1.63s.77-1.67 1.22-1.76 1.63 1.04 1.63 1.04 1.81-.14 2.26.18.54 1.36.54 1.36l.59.99s-2.53 4.29-2.67 4.34-16.94-1.08-16.94-1.08l-2.98-9.35z"/><path fill="#7adc8a" d="M20.62 62.81s.72 1.4.94 1.94c.23.54.72 1.31.9 1.67s1.04 1.36 1.72 1.31.59-2.21 1.17-2.03c.59.18.81 1.36 1.04 1.63s.59.72.59.72l2.21 1.17.72-1.17s0-.86.14-1.04 1.63-1.17 1.85-1.27c.23-.09 2.09.27 2.62.14 1.09-.27 3.03-2.71 3.43-3.43.41-.72 1.08-1.49 1.36-1.9.27-.41.05-.88.05-.88s1.5.22 2.04-.91c.28-.59.25-1.33.25-1.33s1.4-1.04 1.4-1.76-1.45-2.08-1.45-2.08-1.27.86-2.39 1.49-2.53 1.14-4.25.87-2.25-.51-2.57-.78-.71-1.11-1.06-1.57c-.76-.98-2.14-1.37-2.37-2.09s1.17-1.67.59-2.67c-.59-.99-2.62-.45-3.75-.18s-2.67.77-2.94.68-.05-.81-1.08-1.72c-.91-.8-2.99-2.46-2.99-2.46z"/><path fill="#d0fe8b" d="M26.99 68.06h2.94s.08.5.27.65.68.46.95.42.91-.86 1.63-.79c1.08.12 1.79.66 2.09 1.12.3.45.5 1.65 1.07 2.03s1.58-.21 3.33 0c1.26.15 1.59.15 1.89.41s.63 1 .85 1.04.85-.26 1.26-.15 1.81 1.66 2.37 2.03c.55.37 1.07.85 1.07.85s.78-.33 1.59.07c.81.41.97 1.42.97 1.42s.23 2.13-1.64 4.97c-2.19 3.33-2.96 4.44-3.51 5.07s-2 1.52-2.55 2.26-.85 1.26-.81 1.59.07 1.22-.18 1.78c-.26.55-.44.55-.52 1.22s.48 1.81.04 2.22-1.92.18-2.74-1.26c-.81-1.44-.63-3.74-.37-5.03s1.11-4.07 1.15-5.84c.04-1.78-1-3.62-2.03-4.59s-1.33-1.29-1.33-2.92c0-1.11.59-1.63.59-1.63l.11-1.59s-1.19-.22-1.59-.74c-.41-.52-.81-.96-1.33-1.11s-1.71.17-2.66-.27c-.39-.18-1.21-.98-1.55-1.21-.89-.58-1.36-2.02-1.36-2.02"/><path fill="#e0e0e0" d="M36.27 104.16s.32-.64.96-.96 1.55-.68 1.59-.96.64-2.07 1.44-2.07.56 1.04.6 1.4.4.64.32 1.24-.44.56-.44.88.08.88.08.88z"/><path fill="#e3ffad" d="M53.96 68.38s-.81.84-.81 1.33-.26 2.59.22 3.64.7 1.49 1.54 1.8c.83.31 1.27.57 2.02.57s1.62.09 2.02.13 1.36.75 1.54.97.31 1.4.53 1.71 1.1.88 1.1.88-.4 2.41.09 3.56c.48 1.14.88 2.77 1.19 3.56s1.49 1.89 1.84 2.15 1.14-.18 1.71-.7 1.89-2.06 2.2-2.37.31-1.19.61-1.58c.31-.4.04-1.19.48-1.71.44-.53 1.4-1.27 1.49-1.84s-.22-2.2.09-2.72c.31-.53 1.62-2.28 2.06-2.68s.75-1.27.48-1.54-1.98-.18-2.46-.48c-.48-.31-1.32-1.62-1.54-2.06s-1.01-1.49-1.14-1.93.7-.92.92-.79 1.32 1.89 1.76 2.5.44.83.75.92 1.19.18 1.4 0c.22-.18 1.1-.61 1.49-.92.4-.31 1.05-.57 1.01-.88s-.18-1.01-.4-1.1-1.45.09-1.45.09-1.19-1.4-1.27-1.67.57-.61 1.01-.31 1.45.79 1.71.88 1.49.44 1.89.44 1.93.92 1.93.92l-.25-5.48s-6.68 2.14-12.68 3.08c-6.22.96-13.08 1.63-13.08 1.63"/><path fill="#e0e0e0" d="M53.33 105.28s2.33-1.47 2.75-1.71 3.02-1.36 3.86-1.59c.48-.13 5.27-.43 6.14-.41 1.12.02 2.13.35 3.35.29s4.41.31 5.02-.06 3.49-2.56 4.1-2.82c.75-.31 2.31-.04 2.31-.04l.14 4.37s-9.51 1.98-16.88 2.09c-7.36.13-10.79-.12-10.79-.12m35.15-74.43c-1.04-.56-1.47 1.12-1.63 1.55-.16.44-.31 1.13-.04 1.63.32.6 1.04.76 1.35 1.04s1.35.6 1.63-.44-.52-1.91-.52-1.91.05-1.42-.79-1.87m-7.93 11.4s.58-.16.79.24c.12.22.14.41.28.56s1.79.28 1.95.04 1.39-2.47 2.71-3.27 2.87-1 3.55-1.32.76-1.35 1.55-1.35 3.11 1.55 3.27 1.83-.36 1.04-.84 1.63c-.48.6-1.24 1-.8 1.28s1.99.52 2.87.56 1.39-.28 2.07.04.4 1.75.8 1.83 2.47.24 3.15-.16.52-1 1.24-1.16 1.43-.24 2.11.32 1.35 1.16 1.71 1.47c.36.32.96.44.96.44l-.82 5.12s-5.52 2.49-6.03 2.49c-.52 0-20.92 1.03-20.92 1.03z"/><path fill="#7adc8a" d="M80.29 51.34s.38.59.5.83.76.48 1.08.2.12-2.35.32-2.63 2.19-.04 2.35-.16 1.2-.52 1.63-.28c.44.24 1.16 1.35 1.75 1.32.6-.04 1.32.2 1.79-.36.48-.56 1.24-1.63 2.27-1.99s1.71-.44 1.87-.6 1.55-2.03 2.07-2.23 1.43-.08 1.79 0 .52.24.56 1.04.24 1.55.4 1.79 1.35 1.35 1.71 1.39 1.47-.24 2.55 0 2.71.76 3.11.76 1.04-.05 1.04-.05l-.48 2.98s-.29-.19-1.01-.07-1.04.6-1.51.48-1-.28-1.32-.16-1.99 1.91-1.79 2.35 1.67.04 2.07.32.96.76.96 1.08 0 1.28-.28 1.47c-.28.2-1.55.16-1.83.36s0 1.08-.44 1.63c-.44.56-1.87 1.79-1.87 1.79s-.22.76-.35 1.01c-.23.49-.59 1.03-.83.99s-1.32-1.51-1.83-1.55c-.52-.04-.36 1.55-.36 1.55l-16.49-.94zm23.58 9.56c-.04-.22-.91-.37-1.11-.07s-.77 1.07-1.07 1.71-1.01 2.01-.5 2.31c.29.17 1.55-.72 2.06-1.52.12-.19.79-1.42.62-2.43"/><path fill="#d0fe8b" d="m96.21 64.6-16.48-.95.25 5.48s.57.7.8 1.4.77 2.05 1.14 2.62.44 1.61 1.31 1.51.81-1.21 1.07-1.95c.27-.74.94-1.41 1.21-1.64s.84-.87 1.11-.77.71.94 1.07 1.41c.6.77 2.31 1.51 2.31 1.51s2.44.73 2.78-.34c.3-.94-.32-2.17-.1-2.58.28-.5 1.32-.52 2.32-.8 1.31-.37 1.68-1.38 1.81-2.48s-.6-2.42-.6-2.42"/><path fill="#d0fe8b" d="M97.72 79.27c.16-.22-.77-.65-1.46-1.82s-.98-1.85-1.32-1.92-2.3.84-2.3 1.01.98 1.41.98 1.41-1.34.36-1.99-.62-.55-1.85-.96-2.54-1.05-1.68-1.44-1.65c-.38.02-.84.34-.65 1.01s.34.89.34.89c.34.74-.46 1.7-.12 2.25s3.12 2.4 3.62 2.61 5.01-.23 5.3-.63m-.33-3.74c.74.08.91-1.7.77-2.4s-.72-2.52-1.32-2.52-1.13.74-1.01 1.22.53 1.2.55 1.44c.02.25.33 2.19 1.01 2.26m2.25.81c-.14.09-.24 1.13-.1 1.25s1.15.24 1.63.86.5 1.29.81 1.39 2.88-.48 2.88-1.63c0-.62-4.79-2.15-5.22-1.87m10.66 14.47c.26-.45.08-1.29.34-1.79.26-.49.96-.72 1.27-.36s.34 1.58.13 1.97c-.14.26-.16 1.16-.88 1.79s-1.14.57-1.35.62-1.19.88-1.6.34.18-1.42.75-1.84c.56-.42 1.16-.42 1.34-.73m-8.46-8.75c-.1-.1-.23-1.84-1.16-1.89s-1.68.72-1.68.72-1.16-.08-1.45.16c-.28.23-1.35 1.37-1.81 1.58-.47.21-1.19.41-1.68.62s-.78.96-.72 1.76c.05.8.23 2.59.31 3s.62 1.5 1.94.98 1.79-1.16 2.02-1.19 2.33-.03 2.46-.1c.13-.08 1.32 2.07 2.36 2.3s2.33.13 2.56-.05 1.6-2.07 1.73-2.74.1-2.07-.16-2.61-1.92-2.36-1.92-2.36-.26-1.97-1.48-1.99c-.96-.02-.28 1.42-.52 1.66-.23.23-.8.15-.8.15"/></svg>