<svg viewBox="0 0 128 128"><path fill="#e0e0e0" d="M18.5 70.6 31 46.4s-3.7-2.3-3.6-8c0-5.7 4-8.2 5.6-8.3 1.9-.1 73.3.3 74.3.3s5.5 1 7.7 7 4.3 20.7 5.5 27.7 3 19.3 3.5 22.6.6 6.5.6 6.5l-79.2 1-40.8 1-1.2-11s.4-6.1 3.6-9.9c4.3-5 11.4-4.7 11.4-4.7"/><path fill="#9b9c94" d="M3.3 91.7h121v9.2s-34.6-1.4-42.7-.1-79.2-.3-79.2-.8l.3-6.6z"/><path fill="#b0b0b0" d="M25.3 99h74l-6 8H31z"/><path fill="#5e6367" d="M34.4 103.8h55.4s2.7-4.9 9-4.9l24.2.1 2.1 5s0 2.6-.9 4.5-2.4 3.4-3.3 3.6c-1 .2-110.3 0-113.7 0-2.6-.1-4.7-1.9-5-4.2s.2-9.4.2-9.4 20.4.3 23.6.5a10 10 0 0 1 8.4 4.8"/><path fill="#4e433d" d="M89.7 112.4c0 5 3.7 11.3 11.6 11.3s12-6 11.7-12.4c-.2-6.4-4.7-11.2-12.4-10.9-6.6.3-11 5.6-11 12"/><path fill="#c8c8c8" d="M95.5 112.2c0 2.4 2 6 6 6s6.3-3 6.1-6.4a6 6 0 0 0-6.2-5.8 6 6 0 0 0-6 6.2"/><path fill="#4e433d" d="M11.6 112.6c.1 5 3.7 11.3 11.6 11.3s12-6 11.8-12.4c-.3-6.4-4.7-11.2-12.4-10.9-6.6.3-11 5.6-11 12"/><path fill="#c8c8c8" d="M17.4 112.4c0 2.4 2 6 6.1 6s6.2-3 6-6.4a6 6 0 0 0-6.2-5.8 6 6 0 0 0-5.9 6.2"/><path fill="#d90512" d="M121.3 104.6c.4.6 3.6.4 3.9.1s-.2-10.7-.5-12.3-1.9-2.5-3.2-2.3c-1 0-.8 1.6-.7 7.3 0 3.2 0 6.6.5 7.2"/><path fill="#ffeaca" d="M2.6 95s5.4.5 7.7-3.1c1.9-3 2-6.2.5-6.5s-7.1-.3-7.3-.1a21 21 0 0 0-.7 5z"/><path fill="#fff" d="M12.5 81.7c-1 0-1-1.3-.2-2.4 1-1.3 3-3.2 6.5-3.4 3.3-.2 5 2 6.5 2.2s4.5.4 6.8.4 81.7-.5 84.4-.4c1.8.1 3.6 3.2 3.3 3.5s-105.4.2-107.3 0M41 34c-.1 1.2-3.6 1.4-5.1 2.5S34 41 32.4 41c-2 0-2.6-3.2-1.8-5q1.2-2.8 4.3-3.4c1.2-.2 6.3-.7 6.1 1.4"/><path fill="#5f6367" d="M32 52.3q1.1-2.5 3.1-2.3H45c1.5 0 3 .7 3 2.3v18.4c0 1-1 3-2.8 3.3S25.7 74 25 74s-2.5-1-1.5-3.4zm21.5.3c-.1-1.7 1-2.5 2.2-2.5h55.9c1.1 0 2.3 1.3 2.7 3.3l3 18.2q.2 2.4-1.8 2.7L55.8 74c-1.2 0-2.3-1-2.4-2.6s.1-17.2 0-18.9"/><path fill="#afe3fb" d="M56.2 55.4q0-2.3 2.7-2l50.7.3c1 0 2.2.6 2.5 2l2 13.5c.1 1-.6 2.2-1.8 2.2H58.6c-1.6-.1-2.4-1.6-2.4-2.8zM33.8 55c.5-1.1 1-1.6 2.6-1.7h7.4c1 0 1.8.2 1.7 1.6l-.2 14.2c0 .8-.7 2-2 2.2H31.4L29 69.7s-1.6.3-1.6-.3c.2-1.2 5.8-13 6.4-14.3"/><path fill="#5f6367" d="M27 71.8c-.1 3.8 4.5 5.6 5.3 5.6s2.4-1 2.4-5.7-1.7-5.8-2.6-6c-1.1 0-5.1 2.9-5.2 6"/></svg>