<svg xmlns="http://www.w3.org/2000/svg" width="1em" height="1em" viewBox="0 0 128 128"><path fill="#E0E0E0" d="m18.46 70.63l12.63-24.24s-3.69-2.3-3.59-8.02c.09-5.71 3.96-8.2 5.62-8.3c1.84-.1 73.28.28 74.29.37c1.01.09 5.44 1.01 7.65 6.91s4.32 20.74 5.53 27.74c1.2 6.91 3.04 19.26 3.5 22.58s.65 6.54.65 6.54l-79.27.92l-40.74 1.12l-1.2-10.97s.37-6.19 3.59-9.95c4.26-4.96 11.34-4.7 11.34-4.7"/><path fill="#9B9C94" d="M3.33 91.67c.01-.04 121 0 121 0v9.28s-34.63-1.47-42.74-.15c-8.11 1.33-79.19-.34-79.19-.82s.26-6.61.26-6.61s.65-1.61.67-1.7"/><path fill="#B0B0B0" d="m25.28 99.09l74-.07l-5.91 7.89H30.91z"/><path fill="#5E6367" d="m34.38 103.77l55.44.03s2.73-4.87 8.89-4.87c5.91 0 24.27.12 24.27.12l2.14 4.97s-.04 2.56-.88 4.48s-2.42 3.4-3.37 3.61c-.94.22-110.32 0-113.68-.06c-2.62-.05-4.7-1.81-5.06-4.15s.29-9.35.29-9.35s20.36.27 23.6.43c6.02.3 8.36 4.79 8.36 4.79"/><path fill="#4E433D" d="M89.69 112.41c.06 5.02 3.7 11.27 11.6 11.32s12-6.09 11.75-12.39c-.25-6.4-4.74-11.2-12.39-10.9c-6.6.27-11.04 5.58-10.96 11.97"/><path fill="#C8C8C8" d="M95.49 112.19c.04 2.44 1.95 5.94 6.1 5.97c4.15.03 6.17-3.03 6.04-6.35c-.13-3.37-2.79-5.89-6.27-5.84c-3.48.06-5.92 2.85-5.87 6.22"/><path fill="#4E433D" d="M11.64 112.61c.06 5.02 3.7 11.27 11.6 11.32s12-6.09 11.75-12.39c-.25-6.4-4.74-11.2-12.39-10.9c-6.6.26-11.04 5.57-10.96 11.97"/><path fill="#C8C8C8" d="M17.44 112.38c.04 2.44 1.95 5.94 6.1 5.97c4.15.03 6.17-3.03 6.04-6.35c-.13-3.37-2.79-5.89-6.27-5.84c-3.48.07-5.92 2.85-5.87 6.22"/><path fill="#D90512" d="M121.26 104.59c.43.56 3.62.38 3.93.11c.31-.27-.19-10.74-.5-12.27c-.31-1.53-1.87-2.52-3.2-2.36c-.96.12-.76 1.66-.67 7.37c.04 3.15-.01 6.57.44 7.15"/><path fill="#FFEACA" d="M2.62 95.09s5.43.43 7.69-3.21c1.85-2.97 2.06-6.22.49-6.48s-7.11-.35-7.31-.13c-.19.22-.58 2.59-.72 4.94c-.12 2.01-.15 4.88-.15 4.88"/><path fill="#FFF" d="M12.46 81.66c-.88-.04-1.05-1.25-.19-2.34c1.07-1.36 3.12-3.21 6.53-3.41c3.31-.19 4.97 2.05 6.53 2.24c1.56.19 4.48.39 6.72.39c2.24 0 81.72-.49 84.44-.39c1.85.07 3.6 3.12 3.31 3.41s-105.39.2-107.34.1M41 34.01c-.11 1.17-3.58 1.43-5.12 2.51s-1.74 4.45-3.48 4.45c-2.05 0-2.61-3.12-1.84-5.02c.73-1.81 2.32-3.02 4.35-3.38c1.18-.19 6.3-.65 6.09 1.44"/><path fill="#5F6367" d="M32.04 52.27c.77-1.79 1.69-2.23 3.11-2.23h9.73c1.48 0 2.97.68 3.04 2.23c.07 1.55 0 17.44 0 18.45c0 1.01-.95 3.04-2.77 3.24c-1.82.2-19.4 0-20.28 0c-.88 0-2.5-.95-1.49-3.31c1.02-2.36 8.25-17.43 8.66-18.38m21.42.34c-.07-1.69.95-2.5 2.23-2.5h55.89c1.15 0 2.3 1.28 2.7 3.31c.41 2.03 2.87 16.7 3.07 18.19s-.55 2.6-1.84 2.66c-1.28.07-58.46-.14-59.74-.14c-1.28 0-2.25-1.11-2.32-2.67s.08-17.16.01-18.85"/><path fill="#AFE3FB" d="M56.17 55.38c0-1.62 1.01-2.1 2.77-2.03c1.28.05 49.61.27 50.69.34c1.08.07 2.16.61 2.43 1.96s1.82 12.5 1.96 13.58c.14 1.08-.54 2.16-1.76 2.16s-52.65-.02-53.66-.07c-1.55-.07-2.37-1.55-2.37-2.7s-.06-12.29-.06-13.24m-22.39-.36c.53-1.15 1.11-1.66 2.62-1.71s6.54-.05 7.45-.05s1.71.2 1.66 1.66c-.05 1.46-.3 13.34-.25 14.15c.05.81-.7 2.11-2.01 2.22c-1.31.1-11.73.1-11.73.1L29 69.58s-1.64.28-1.56-.3c.15-1.17 5.73-12.95 6.34-14.26"/><path fill="#5F6367" d="M26.93 71.78c-.06 3.79 4.58 5.64 5.39 5.64c.81 0 2.42-1.01 2.42-5.74c0-4.68-1.76-5.82-2.62-5.89c-1.16-.1-5.14 2.77-5.19 5.99"/></svg>