<svg xmlns="http://www.w3.org/2000/svg" width="1em" height="1em" viewBox="0 0 128 128"><path fill="#4D453C" d="M105.86 123.68c11.59-1.34 18.02-12.08 15.83-22.61c-1.71-8.2-8.76-16.4-21.2-14.98c-13.19 1.5-17.31 14.13-15.62 22.61c1.98 9.91 10.19 16.23 20.99 14.98"/><path fill="#FFF" d="M101.33 95.28c-5.3 1.04-9.21 5.57-8.2 11.59c1.06 6.33 6.62 8.96 12.14 7.95c5.87-1.08 8.77-5.87 7.83-11.7c-.84-5.26-6.25-8.92-11.77-7.84"/><path fill="#B0B0B0" d="M104.31 113.18c5.03-.57 7.83-5.14 6.88-9.63c-.74-3.49-3.81-6.98-9.21-6.38c-5.73.64-7.52 6.02-6.78 9.63c.85 4.23 4.42 6.92 9.11 6.38"/><path fill="#4D453C" d="M24.74 124.19c11.33-1.3 17.61-11.7 15.47-21.89c-1.67-7.94-8.57-15.87-20.72-14.5C6.6 89.25 2.56 101.48 4.22 109.69c1.94 9.6 9.97 15.71 20.52 14.5"/><path fill="#FFF" d="M20.45 95.75c-5.53 1.08-9.6 5.8-8.55 12.07c1.11 6.6 6.69 9.46 12.45 8.4c6.11-1.12 9.16-6.15 8.18-12.22c-.88-5.48-6.34-9.37-12.08-8.25"/><path fill="#B0B0B0" d="M23.35 113.76c4.8-.54 7.46-4.87 6.55-9.12c-.71-3.31-3.63-6.61-8.78-6.04c-5.46.6-7.17 5.7-6.47 9.12c.83 3.99 4.23 6.54 8.7 6.04"/><path fill="#2F2F2F" d="M29.08 87.8s-8.81 14.22-9.88 16.49c-1.07 2.27-1.13 4.48 1.07 5.76c2.33 1.36 4.49-.36 5.77-2.61c.98-1.72 12.29-18.86 12.29-18.86z"/><path fill="#FC8F02" d="M26.68 76.73s-1.06 0-2.27.18c-1.21.19-1.55.29-1.55.29l1.68 10.42l8.57 4.94s4.11 2.5 7.51 5.74c.86.82 2.18.22 2.09-.15s-8.94-20.12-8.94-20.12z"/><path fill="#FFA726" d="M8.71 90.41c.65.98 5.63-.95 13.66-.63c5.88.24 10.87 2.89 10.87 2.89s-3.33-6.88-5.53-10.05c-2.75-3.97-4.83-5.42-4.83-5.42s-4.1.59-8.99 4.55c-3.63 2.94-5.95 7.5-5.18 8.66"/><path fill="#FAD91A" d="M13.75 85.33c.75 1.01 3.27-1.2 5.58-2.12s4.14-.88 4.67-1.78c.53-.91.58-2.69-1.78-2.65c-3.71.09-9.57 5.06-8.47 6.55"/><path fill="#5E636F" d="M46.67 37.82c-.12.41-3.02 6.98-3.02 6.98l4.04 7.37l5.32-4.52l1.91-5.42z"/><path fill="#FC8F0B" d="M50.62 41.3s3.61 2.09 4.3 1.69s2.64-5.87 3.49-6.05c1.63-.35 4.09-1.09 4.65-4.07c.87-4.59-2.5-4.54-2.5-4.54l-9.89 2.62z"/><path fill="#FCB90A" d="M51.2 21.36c-1.1-.47-13.49.23-15.29.64s-1.8 3.08-1.8 3.08l2.91 10.93s1.05.47 2.68.47c1.16 0 2.04.35 2.73.7c.7.35 8.2 4.13 8.2 4.13l5.47-9.83l6.4-1.98s-.58-1.28-2.85-1.92c-2.27-.64-4.19-1.45-5.35-2.91c-1.18-1.45-1.99-2.85-3.1-3.31"/><path fill="#FED519" d="M48.47 23.68c.25.96-1.28 2.33-3.2 3.49c-1.92 1.16-4.54 2.27-5.35.7c-.81-1.57-1.89-4.34-.29-4.71c1.74-.41 8.43-1.05 8.84.52"/><path fill="#DEDFE2" d="M34.63 22.93c-1.05.12-2.97 2.82-1.74 7.56c1.22 4.71 3.53 6.06 5.12 5.58c1.92-.58 1.45-3.72.47-7.68c-.78-3.05-2.69-5.59-3.85-5.46"/><path fill="#464C4F" d="M73.13 28.98s-13.72.06-15.06.12c-1.34.06-2.62 1.4-2.38 2.97c.23 1.57 1.22 2.5 2.62 2.5c1.4 0 14.25-.12 14.25-.12s1.51-.7 1.51-3.14c-.01-2.04-.94-2.33-.94-2.33m-16.29-8.61l-.12 6.34s-.29 1.93-1.74 1.98c-1.98.06-2.04-2.09-2.04-2.09s.06-9.82.06-10.35c0-1.45 1.16-4.07 2.91-6.11s3.26-3.26 4.65-2.62c1.4.64 1.63 3.84 1.57 6.8c-.06 3.02-.3 6.6-1.51 7.04c-1.62.58-3.78-.99-3.78-.99"/><path fill="#FF281D" d="M111.7 68.42s5.35-1.35 6.23-1.09c.88.26 1.78 1.97 2.34 4.26c.52 2.13 1.05 4.82.78 5.14c-.52.62-2.65.99-2.65.99s-6.49-5.55-6.59-5.87s-.11-3.43-.11-3.43"/><path fill="#FC8F0B" d="M45.79 43.03s5.71 2.68 6.51 3.12c.8.45 1.43 1.16.8 2.68c-.62 1.52-4.55 13.74-5.17 17.84s-.27 8.65-.27 8.65L35.53 78l-2.14-4.91z"/><path fill="#5F6364" d="m36.51 75.05l11.15.27s.26 3.62 2.05 7.94c1.32 3.17 3.89 8.26 5.89 9.54c.83.54 3.66 1.34 6.6 1.34c2.59 0 4.63-.74 6.07-1.63c1.64-1.02 2.4-2.03 2.4-2.03L82 88.87l-1.25 15.07l-27.65.09l-14.9-14.9z"/><path fill="#FE8D00" d="M75.88 65.88c-1.7.28-5.66 3.59-5.66 3.59l.74 3.35l31.33 7.26l20.44 3.24s-3.23-6.88-7.5-12.04c-3.52-4.26-6.02-5.85-6.02-5.85z"/><path fill="#FDB700" d="M43.74 41.99s2.94 1.41 3.67 1.83c1.1.64.25 3.43-.69 5.02c-.94 1.59-4.94 7.34-7.06 13.84c-1.67 5.11-1.29 13.04-.73 16.12c.5 2.76 5.86 13.14 8.31 16.9c2.7 4.15 5.21 5.13 7.46 5.58c3.64.73 15.95.19 19.78-.56c3.83-.75 5.22-3.08 2.24-5.78c-2.99-2.71-6.03-4.45-6.03-4.45s2.59-3.59 2.2-7.03c-.28-2.52-1.94-10.64-1.94-10.64l16.58-.18l14.18-.65l12.35 3s4.04 1.56 7.48 6.33c2.62 3.63 3.87 7.37 4.15 8.49c.28 1.12 1.69 5.19-.36 5.66c-2.05.47-31.12 2.9-33.55 3.27c-2.43.37-5.59-.09-6.77 3.01c-1.21 3.2-.84 6.06-6.72 6.25c-5.88.19-24.42 2.21-29.31-1.36c-4.07-2.96-9.5-8.63-15-18.05S26 76.75 26 76.75l.52-5.6l8.86-19.59l7.65-8.86z"/><path fill="#FED519" d="M41.64 41.08c-.56-.19-7.36 6.61-11.21 14.39c-5.13 10.36-4.45 21.3-4.45 21.3s2.67-1.71 3.7-3.76c1.03-2.05 3.83-10.82 3.83-10.82s2.61-5.69 6.72-12.13c2.03-3.19 5.53-6.89 5.02-7.3c-.55-.45-3.61-1.68-3.61-1.68M82.67 95.3c1.06-.6-3.24-9.47 1.59-15.58c4.2-5.32 10.82-5.97 17.73-5.69c5.71.23 13.62 1.77 13.62 1.77s-10.73-8.86-27.62-5.69C75.13 72.53 75.02 82.7 76.42 87.09c1.5 4.68 5.6 8.58 6.25 8.21"/><path fill="#464C4F" d="M67.37 67.69c.09 1.21.21 2.17 2.43 2.15c2.21-.02 11.1-.37 21.64-.65c10.54-.28 14.18-.56 16.05-1.21c1.87-.65 2.61-1.49 2.8-3.55c.19-2.05 0-6.62-.47-8.21c-.47-1.59-1.49-2.05-3.92-2.15c-2.25-.09-9.05-.09-10.08-.09c-2.15 0-9.42 4.85-10.45 5.04s-4.57.37-8.68.37c-3.36 0-6.34-.19-7.09-.28s-2.43.45-2.43 2.33c.02 2.33.13 5.27.2 6.25"/><path fill="#FFF" d="M34.15 62.19c-1.42-.69-4.08 1.1-5.5 6.05c-1.33 4.63.41 7.02 1.65 6.79c1.22-.23 1.19-4.27 2.39-6.97c1.19-2.7 2.74-5.25 1.46-5.87"/></svg>