<svg viewBox="0 0 128 128"><path fill="#4d453c" d="M105.9 123.7a18.5 18.5 0 0 0 15.8-22.6 18.5 18.5 0 0 0-21.2-15c-13.2 1.5-17.3 14.1-15.6 22.6 2 10 10.2 16.2 21 15"/><path fill="#fff" d="M101.3 95.3a10 10 0 0 0-8.2 11.6c1 6.3 6.7 9 12.2 8 5.8-1.2 8.7-6 7.8-11.8a10 10 0 0 0-11.8-7.8"/><path fill="#b0b0b0" d="M104.3 113.2a8 8 0 0 0 6.9-9.6 8 8 0 0 0-9.2-6.4c-5.8.6-7.5 6-6.8 9.6.8 4.2 4.4 7 9.1 6.4"/><path fill="#4d453c" d="M24.7 124.2a18 18 0 0 0 15.5-21.9 18 18 0 0 0-20.7-14.5c-12.9 1.5-17 13.7-15.3 21.9 2 9.6 10 15.7 20.5 14.5"/><path fill="#fff" d="M20.5 95.8c-5.6 1-9.6 5.8-8.6 12 1.1 6.6 6.7 9.5 12.4 8.4 6.2-1.1 9.2-6.1 8.2-12.2a10 10 0 0 0-12-8.2"/><path fill="#b0b0b0" d="M23.4 113.8a7.5 7.5 0 0 0 6.5-9.2 7.6 7.6 0 0 0-8.8-6c-5.4.6-7.1 5.7-6.4 9.1.8 4 4.2 6.6 8.7 6"/><path fill="#2f2f2f" d="M29 87.8s-8.7 14.2-9.8 16.5-1.1 4.5 1 5.7c2.4 1.4 4.6-.3 5.8-2.6l12.3-18.8z"/><path fill="#fc8f02" d="m26.7 76.7-2.3.2-1.5.3 1.6 10.4 8.6 5s4.1 2.5 7.5 5.7c.9.8 2.2.2 2.1-.1l-9-20.2z"/><path fill="#ffa726" d="M8.7 90.4c.7 1 5.6-1 13.7-.6 5.9.2 10.8 2.9 10.8 2.9s-3.3-7-5.5-10c-2.7-4-4.8-5.5-4.8-5.5s-4.1.6-9 4.6c-3.6 2.9-6 7.5-5.2 8.6"/><path fill="#fad91a" d="M13.8 85.3c.7 1 3.2-1.2 5.5-2s4.2-1 4.7-1.9.6-2.7-1.8-2.6c-3.7 0-9.5 5-8.5 6.5"/><path fill="#5e636f" d="m46.7 37.8-3 7 4 7.4 5.3-4.6 2-5.4z"/><path fill="#fc8f0b" d="M50.6 41.3s3.6 2 4.3 1.7 2.7-5.9 3.5-6c1.6-.4 4.1-1.2 4.7-4.1.8-4.6-2.5-4.6-2.5-4.6l-10 2.6z"/><path fill="#fcb90a" d="M51.2 21.4c-1.1-.5-13.5.2-15.3.6s-1.8 3-1.8 3l3 11s1 .5 2.6.5q1.7 0 2.7.7l8.2 4.1 5.5-9.8 6.4-2s-.6-1.3-2.8-2-4.2-1.4-5.4-2.8c-1.2-1.5-2-2.9-3.1-3.3"/><path fill="#fed519" d="M48.5 23.7c.2 1-1.3 2.3-3.2 3.5s-4.6 2.2-5.4.7-1.9-4.4-.3-4.7c1.8-.4 8.5-1 8.9.5"/><path fill="#dedfe2" d="M34.6 23c-1 0-3 2.7-1.7 7.5 1.2 4.7 3.5 6 5.1 5.6 2-.6 1.5-3.8.5-7.7-.8-3-2.7-5.6-3.9-5.5"/><path fill="#464c4f" d="m73.1 29-15 .1c-1.3.1-2.7 1.4-2.4 3q.4 2.4 2.6 2.5l14.3-.2s1.5-.6 1.5-3c0-2.1-1-2.4-1-2.4m-16.3-8.6v6.3s-.4 2-1.8 2c-2 0-2-2.1-2-2.1V16.3c0-1.5 1.2-4.1 3-6.2s3.2-3.2 4.6-2.6 1.6 3.9 1.5 6.8c0 3-.3 6.6-1.5 7-1.6.6-3.8-1-3.8-1"/><path fill="#ff281d" d="M111.7 68.4s5.4-1.3 6.2-1 1.8 1.9 2.4 4.2c.5 2.1 1 4.8.8 5.1-.6.7-2.7 1-2.7 1s-6.5-5.5-6.6-5.9z"/><path fill="#fc8f0b" d="m45.8 43 6.5 3.2c.8.4 1.4 1.1.8 2.6-.6 1.6-4.6 13.8-5.2 17.9s-.2 8.6-.2 8.6L35.5 78l-2.1-5z"/><path fill="#5f6364" d="m36.5 75 11.2.3s.2 3.6 2 8c1.3 3.1 3.9 8.2 5.9 9.5.8.5 3.7 1.3 6.6 1.3q3.9-.1 6-1.6c1.7-1 2.5-2 2.5-2L82 88.9l-1.2 15-27.7.1-14.9-14.9z"/><path fill="#fe8d00" d="M75.9 65.9c-1.7.3-5.7 3.6-5.7 3.6l.8 3.3 31.3 7.3 20.4 3.2s-3.2-6.9-7.5-12c-3.5-4.3-6-5.9-6-5.9z"/><path fill="#fdb700" d="m43.7 42 3.7 1.8c1.1.7.3 3.5-.7 5s-5 7.4-7 13.9c-1.7 5-1.3 13-.8 16.1.5 2.8 5.9 13.1 8.3 16.9 2.7 4.2 5.3 5.1 7.5 5.6 3.6.7 16 .2 19.8-.6s5.2-3 2.2-5.8-6-4.4-6-4.4 2.6-3.6 2.2-7c-.3-2.6-2-10.7-2-10.7l16.6-.2 14.2-.6 12.4 3s4 1.5 7.4 6.3c2.7 3.6 4 7.4 4.2 8.5s1.7 5.2-.4 5.7-31 2.9-33.5 3.2-5.6 0-6.8 3c-1.2 3.2-.8 6.1-6.7 6.3s-24.4 2.2-29.3-1.4c-4-3-9.5-8.6-15-18s-8-11.8-8-11.8l.5-5.6 8.9-19.6 7.6-8.9z"/><path fill="#fed519" d="M41.6 41a43 43 0 0 0-11.2 14.5C25.3 65.8 26 76.8 26 76.8s2.7-1.7 3.7-3.8 3.8-10.8 3.8-10.8 2.6-5.7 6.7-12.1c2-3.2 5.6-7 5-7.3-.5-.5-3.6-1.7-3.6-1.7m41 54.2c1.1-.6-3.2-9.5 1.7-15.6 4.2-5.3 10.8-6 17.7-5.7 5.7.3 13.6 1.8 13.6 1.8S105 66.9 88 70.1c-12.9 2.4-13 12.6-11.6 17 1.5 4.7 5.6 8.6 6.3 8.2"/><path fill="#464c4f" d="M67.4 67.7c0 1.2.2 2.2 2.4 2.1l21.6-.6c10.5-.3 14.2-.6 16-1.2s2.7-1.5 2.9-3.6c.2-2 0-6.6-.5-8.2s-1.5-2-3.9-2.1l-10-.1c-2.2 0-9.5 4.8-10.5 5a70 70 0 0 1-15.8.1c-.7 0-2.4.5-2.4 2.3z"/><path fill="#fff" d="M34.2 62.2c-1.5-.7-4.1 1-5.6 6-1.3 4.7.5 7 1.7 6.8s1.2-4.2 2.4-7c1.2-2.6 2.7-5.2 1.4-5.8"/></svg>