<svg viewBox="0 0 128 128"><path fill="#878787" d="m119.3 107.3-5.7-2.5-.2-1a6 6 0 0 0-4.6-4.2l-.5-7.5-5.6.3.7 8c-2.1 1-3 3.1-3 5.4l-5.9 4.8L98 115l4.7-4c1.2.9 2.8 1.7 4.7 1.5a7 7 0 0 0 4.9-2.5l5 2.7z"/><path fill="#4d453c" d="M105.4 85.4c-9.9.6-18.5 9.1-18.3 19.8a19 19 0 0 0 19.6 19.1c10.6 0 19.4-7.8 19.2-19.7-.2-13-10.1-20-20.5-19.2m1.5 31.2c-6 0-10.6-4.8-11.2-10-.7-7 3.6-12 9.8-12.6 6.4-.5 11.8 3.4 12.5 10.2s-4.7 12.5-11 12.4m-67-11.5c-1-13.4-12-17.8-20.1-17.3a18 18 0 0 0-17.5 18.7c.1 10 6.4 18 19.3 18A19 19 0 0 0 40 105.1m-18.7 12.7C13.6 118 9 113.4 9 106.6c0-6.3 5.2-11.9 11.8-11.6 6.3.2 10.9 3.8 11.7 10.4s-4.3 12.4-11.1 12.5"/><path fill="#858585" d="M20.7 97.3c-5-.3-9.5 3.2-9.6 9.7 0 6.8 6.1 9.1 9.7 9.2s9.1-2.5 9.3-8.8c.2-6.7-3.4-9.8-9.4-10.1"/><path fill="#db0d2a" d="M7.2 90c.3.7 4.5.4 7.7 1.8 2 .9 4.3 3.3 4 6.6s-1 6.3-1 6.3l5.9 2s2.2-5.2 3.5-6.6 4.2-4 8.4-3.4c3.2.5 6.8 3.4 6.8 3.4S40.2 86.2 40 86s-12.9.5-12.9.5-5.7-2.4-11.6-.9-8.5 4-8.4 4.4"/><path fill="#e1d9dc" d="m26 84-6.1 18.3s-2.3 0-3.2 3.2c-.7 2.6 1 4.2 2.6 4.6 1.9.6 4.3-.3 5-2.4.7-2.8-.8-4.1-.8-4.4s6.7-18.8 6.7-18.8z"/><path fill="#484d51" d="m112.5 71.6 7.2 6.4 1.6-2.8c0-.3-4.8-6.4-4.8-6.4z"/><path fill="#2f2f2f" d="m46.8 98.5 10.9 12.3 21.1-.1 13-3.9L90 100l-10.5-5s5.3-14.8 4.2-15.3S70.3 71 70.3 71l-23.2 7.8z"/><path fill="#5e6268" d="M91.1 81.8s-3.6 3.3-5.7 6.2c-1.4 2-1.8 4.4-1.8 4.4l3 1.4s1.9-4.3 6.2-6.8c5-2.9 8.8-2.5 9.4-1.2s-1.9 1.7-5.4 5.3c-2.6 2.7-4 5.2-4 5.2s11.6 4.8 11.6 5.4-2 6.5-2 6.5L89.2 105s-8.5-2.5-9.4 0 3 4 3 4l-3.6 2.5-11.4-5s-.6-3.1 3-10a45 45 0 0 1 13.2-16z"/><path fill="#dc0d2a" d="m92.5 82.4 14-6a170 170 0 0 0 14.2-7.3c2.1-1.3 2.1-2.5 1.5-3s-2.2.2-3 .3l-3.1.2-17.7 4.8s-11.8 7.4-11.5 7.4 5.6 3.6 5.6 3.6"/><path fill="#464c4f" d="m32 80.1-12.3-2.4 6.1-11.9 6.6-6.6 3.9-1.4s-3.3 4.4-5 7.1C30 66.7 29 69.5 29 69.5l2.4-.5c1.1-.2 2.3-.2 2.3-.2s-.3-2.3.2-3.5 1.6-2 2.3-2.1q1.3.1 1.3.3v-2.4c.4-1 3-2 6.4-3.3s7.1-3 8.1-2.7c.7.2 2.1 3 1.4 3.9s-12.7 6.4-12.7 6.4l2 5.4z"/><path fill="#aee3fd" d="M21 64.4s7.5-8.1 11.4-11.7q4.7-4 6-4.6c.5-.2 4.9-.4 5.3-.2.5.1 1 .8.2 1.5l-5 5.4-2.6 3L33 59l-8 4z"/><path fill="#e0e0e0" d="M79.5 110.3q-.1.8 1.7.8c1.8 0 14.7.1 16.4-.2s23.3-9.8 23.7-10.6c.3-.6.4-2.7-.6-4.9q-1.7-3.7-3.8-3.3c-2 .4-31.7 14.7-34 15.6q-3.4 1.3-3.4 2.6"/><path fill="#fefefe" d="M95.4 106.2c.2.6 2.6.5 5.3-.7l20.1-9.8s-.3-.9-.8-1.7l-1-1.3-21 10.6c-1.4.8-3 1.8-2.6 3"/><path fill="#464c4f" d="M70.2 73.4s7.7 7.5 8.8 8 3.3.9 5 .5 11.6-7.8 15.9-9 11.4-1.6 13.8-3 2.4-3.3 2.4-3.3L95.3 68s-4.4 7.1-12.6 6.6A18 18 0 0 1 71.5 69z"/><path fill="#c8c8c8" d="M94.3 88c1.8 1 2.7-1.2 2.2-2.1-1-2-4.6-7.6-5.5-8-.7-.3-4.9 2.7-5.3 3q-.6.6.6 1.6c1.2.8 6.5 4.7 8 5.5"/><path fill="#464c4f" d="m53.7 78.4 16.2-.6L73 81l-10.6 6.5L52.2 85l-1-6.3z"/><path fill="#dc0d2a" d="m46.8 88.5-8.5 9.3s3 5.5 4 7.9 2.1 7 2.1 7 32.3.9 33.8.7 3.2-2 2.4-2.7-13-5.8-13-5.8-9.7.7-11.3 0-6.7-7.6-6.4-8.2c.6-1.3 13.2-9.5 13.2-9.5l-1-1-9.7-2.3.6-3.9s4.3-3.5 4.8-3.5 5.7-.8 8.6-1.5 6.5-1.4 7.3-1.9 1.5-1.3 1.3-2.5c-.2-1-2.7-1.8-2.7-1.8L47 67.4l-5.2.5s-.7 2.4-4.5 4.7-10.1 3.8-10.1 3.8z"/><path fill="#fe2a22" d="M36.2 57.8s-8.5 1.4-14.3 5.8-8 13-8.1 14-1.3 3.6 1 5c1 .6 3 .3 5.3.8 1.8.5 6 1.9 9.2 4.8s9 9.6 9 9.6L62 86.1s-6.8-8-22.7-9-17.4-.7-17.4-.7 2-5.7 4.7-9.5c3.8-5 9.6-9 9.6-9"/><path fill="#fe2a22" d="M41.8 68s4.7 4 13.1 4.7 17.4-3.9 17.4-3.9-14.3-6.6-16-6.5c-1.8.2-14.5 5.3-14.5 5.7"/><path fill="#d9e3df" d="M16.4 70.5s5.4 0 5.4.2l-2 5.3-6.3 3.2c-.2 0 0-2.8.7-5s2.2-3.7 2.2-3.7"/><path fill="#464c4f" d="M18.6 61.1c.2 1 4 3.8 6.4 3.5 2.2-.2 1.8-4.3 1.8-5.3q0-3.1-.3-5c-.1-1-1.1-1.2-1.8-.7s-6.4 6.6-6.1 7.5M59 97.7s-1.5-4.3 2-6.7c2.8-2 6.3-1.7 8.6 1.4s.3 6.8-1 7.8c-4 3.4-7.7.2-7.7.2s.2 1.8-1.4 3c-1.1.8-4 1-5.1-1-1.3-2.4 0-4.1 1.3-4.8 1.7-1 3.3.1 3.3.1"/></svg>