<svg xmlns="http://www.w3.org/2000/svg" width="1em" height="1em" viewBox="0 0 128 128"><path fill="#878787" d="m119.33 107.28l-5.75-2.52c-.04-.31-.09-.62-.17-.92c-.43-1.67-2.01-3.7-4.62-4.29l-.53-7.49l-5.6.32l.7 7.97c-2.08 1.14-3.04 3.15-2.97 5.46l-5.88 4.77l3.5 4.39l4.73-3.98c1.18.91 2.73 1.67 4.65 1.56c2.31-.13 3.89-1.33 4.87-2.55l5.09 2.73z"/><path fill="#4D453C" d="M105.39 85.39c-9.85.66-18.45 9.14-18.33 19.79c.13 11.2 8.72 19.15 19.6 19.15c10.63 0 19.46-7.83 19.28-19.73c-.19-12.91-10.18-19.91-20.55-19.21m1.53 31.24c-6.04-.06-10.63-4.84-11.2-10.05c-.76-6.97 3.61-12.04 9.8-12.54c6.43-.51 11.77 3.31 12.47 10.18c.7 6.87-4.71 12.48-11.07 12.41m-66.81-11.52C39.06 91.72 28.02 87.3 20 87.8c-9.16.58-17.65 7.28-17.5 18.71c.13 10.05 6.43 17.94 19.32 17.94c10.32.01 19.05-9.6 18.29-19.34m-18.74 12.72c-7.77.14-12.25-4.39-12.32-11.19c-.06-6.37 5.15-11.9 11.71-11.71c6.3.18 10.94 3.75 11.71 10.37c.77 6.62-4.23 12.41-11.1 12.53"/><path fill="#858585" d="M20.7 97.29c-5.09-.27-9.55 3.24-9.61 9.67c-.06 6.81 6.11 9.16 9.67 9.23s9.17-2.54 9.35-8.84c.2-6.69-3.43-9.75-9.41-10.06"/><path fill="#DB0D2A" d="M7.15 90.03c.37.65 4.52.32 7.7 1.72c2.07.91 4.33 3.31 4.01 6.62c-.32 3.31-.95 6.36-.95 6.36l5.85 1.91s2.29-5.15 3.56-6.49c1.27-1.34 4.14-4.01 8.34-3.44c3.23.44 6.87 3.37 6.87 3.37s-2.29-13.87-2.55-14c-.25-.13-12.85.51-12.85.51s-5.73-2.35-11.58-.89c-5.86 1.47-8.66 3.89-8.4 4.33"/><path fill="#E1D9DC" d="m25.92 83.99l-6.04 18.33s-2.31.01-3.18 3.18c-.7 2.55 1.02 4.2 2.61 4.64c1.88.53 4.31-.31 4.9-2.48c.76-2.8-.76-4.07-.76-4.33s6.74-18.83 6.74-18.83z"/><path fill="#484D51" d="m112.51 71.62l7.21 6.37s1.61-2.58 1.61-2.83c0-.26-4.83-6.37-4.83-6.37z"/><path fill="#2F2F2F" d="m46.8 98.53l10.87 12.26l21.15-.1l12.95-3.86L90 99.91l-10.48-4.94s5.24-14.83 4.15-15.32c-1.09-.49-13.34-8.7-13.34-8.7L47.1 78.76z"/><path fill="#5E6268" d="M91.1 81.84s-3.58 3.26-5.66 6.15c-1.46 2.04-1.87 4.4-1.87 4.4l3.06 1.38s1.85-4.24 6.18-6.76c4.97-2.9 8.75-2.53 9.34-1.25s-1.85 1.71-5.34 5.34c-2.57 2.67-3.95 5.24-3.95 5.24s11.57 4.74 11.57 5.34c0 .59-2.08 6.52-2.08 6.52l-13.15-3.16s-8.5-2.57-9.39 0c-.89 2.57 3.06 4.05 3.06 4.05l-3.66 2.37l-11.37-4.94s-.67-3.14 2.87-10.08c5.35-10.51 13.34-15.82 13.34-15.82z"/><path fill="#DC0D2A" d="M92.54 82.37s9.81-4.21 13.93-6.05c6.45-2.87 13.05-6.57 14.23-7.27c2.13-1.27 2.11-2.46 1.52-2.95c-.59-.49-2.17.2-2.97.3s-3.16.2-3.16.2L98.4 71.44s-11.76 7.41-11.47 7.41s5.61 3.52 5.61 3.52"/><path fill="#464C4F" d="m32.08 80.14l-12.41-2.49l6.14-11.83l6.59-6.59l3.9-1.41s-3.29 4.37-5.06 7.12c-1.1 1.71-2.26 4.52-2.26 4.52s1.37-.3 2.46-.43c1.09-.13 2.3-.22 2.3-.22s-.36-2.34.15-3.55c.51-1.22 1.57-2.01 2.34-2.08c.77-.06 1.28.32 1.28.32s-.11-1.85.06-2.37c.32-.96 3.01-2.09 6.34-3.31c3.35-1.23 7.11-2.94 8.12-2.7c.63.15 2.11 3.01 1.34 3.84c-.77.83-12.66 6.4-12.66 6.4l1.98 5.44z"/><path fill="#AEE3FD" d="M20.98 64.36s7.49-8.09 11.46-11.64c2.94-2.63 5.2-4.33 6.04-4.65c.45-.17 4.8-.32 5.24-.19c.45.13.9.83.19 1.54c-.7.7-2.92 3.24-4.92 5.34c-.92.96-2.69 3.03-2.69 3.03L33.04 59l-8.19 4.09z"/><path fill="#E0E0E0" d="M79.5 110.25c.03.42.35.92 1.69.85c1.34-.07 14.76.14 16.38-.21c1.62-.35 23.31-9.76 23.74-10.61c.31-.62.36-2.71-.65-4.86c-1.13-2.4-2.26-3.6-3.74-3.32c-1.48.28-31.7 14.69-33.96 15.6c-2.26.92-3.53 1.56-3.46 2.55"/><path fill="#FEFEFE" d="M95.38 106.22c.24.57 2.59.49 5.32-.76c2.73-1.25 20.1-9.75 20.1-9.75s-.29-.87-.8-1.68c-.4-.63-1.07-1.29-1.07-1.29s-19.75 10.06-20.86 10.61c-1.44.72-3.14 1.8-2.69 2.87"/><path fill="#464C4F" d="M70.17 73.38s7.73 7.52 8.84 8.08c1.12.56 3.25.81 5.03.46s11.59-7.78 15.81-9.1c4.22-1.32 11.49-1.52 13.88-2.85s2.36-3.37 2.36-3.37l-20.76 1.44s-4.4 7.07-12.66 6.61c-6.35-.36-11.13-5.69-11.13-5.69z"/><path fill="#C8C8C8" d="M94.27 87.96c1.83.97 2.7-1.14 2.24-2.08c-.97-1.98-4.57-7.61-5.49-7.98c-.76-.3-4.88 2.69-5.29 3c-.41.3-.26.95.61 1.58c1.12.81 6.51 4.73 7.93 5.48"/><path fill="#464C4F" d="m53.68 78.36l16.17-.59L73 81.06l-10.58 6.57l-10.25-2.5l-.92-6.37z"/><path fill="#DC0D2A" d="m46.78 88.48l-8.51 9.29s3.12 5.54 3.98 7.92c.9 2.48 2.17 6.96 2.17 6.96s32.26.92 33.77.72c1.51-.2 3.22-1.97 2.43-2.69s-13.08-5.78-13.08-5.78s-9.66.66-11.24.07c-1.58-.59-6.73-7.69-6.45-8.23c.68-1.34 13.22-9.51 13.22-9.51l-1.05-1.12l-9.66-2.17l.59-3.94s4.34-3.48 4.86-3.48s5.72-.85 8.61-1.51c2.89-.66 6.44-1.45 7.29-1.91c.85-.46 1.48-1.25 1.25-2.5c-.18-.94-2.63-1.77-2.63-1.77l-25.36-1.45l-5.21.55s-.7 2.34-4.45 4.64s-10.13 3.79-10.13 3.79z"/><path fill="#FE2A22" d="M36.21 57.81s-8.51 1.43-14.29 5.77s-8.02 13.08-8.15 13.93c-.13.85-1.23 3.68.94 5.04c1.05.66 3.14.35 5.37.88c1.85.43 6.04 1.84 9.26 4.73s8.94 9.66 8.94 9.66l23.74-11.7s-6.85-8.01-22.69-9.06s-17.48-.66-17.48-.66s1.99-5.72 4.8-9.46c3.75-5 9.56-9.13 9.56-9.13"/><path fill="#FE2A22" d="M41.75 67.95s4.7 3.98 13.18 4.7c8.48.72 17.41-3.81 17.41-3.81s-14.3-6.62-16.03-6.5c-1.86.12-14.49 5.21-14.56 5.61"/><path fill="#D9E3DF" d="M16.38 70.5s5.39-.03 5.43.19s-1.98 5.33-1.98 5.33s-6.17 3.2-6.36 3.16c-.19-.04-.04-2.75.76-4.95s2.15-3.73 2.15-3.73"/><path fill="#464C4F" d="M18.57 61.14c.25.9 3.99 3.72 6.42 3.5c2.23-.2 1.85-4.35 1.83-5.37c-.03-2.06-.21-3.8-.33-4.88c-.13-1.18-1.11-1.31-1.8-.75c-.69.55-6.39 6.55-6.12 7.5M59.02 97.7s-1.53-4.28 2.07-6.75c2.72-1.87 6.17-1.62 8.51 1.49c2.34 3.11.25 6.76-.99 7.79c-4.05 3.38-7.74.18-7.74.18s.24 1.76-1.35 2.97c-1.13.86-3.96 1.11-5.13-1.04c-1.26-2.32.03-4.04 1.35-4.77c1.7-.95 3.28.13 3.28.13"/></svg>