<svg xmlns="http://www.w3.org/2000/svg" width="1em" height="1em" viewBox="0 0 128 128"><path fill="#94d1e0" d="m64.42 5.58-.95 3.63-3.39-.28c-.18 2.19.84 4.07 2.3 4.43l-.98 3.75-5.57-.86c-.19 2.35.98 4.37 2.62 4.5l1.85.56-1.58 6.01 5.74 1.62 2.39-23.15z"/><path fill="#dfecf5" d="M59.59 40.41H28.36c-7.2 0-7.82-4.4-7.53-7.43.35-3.68 2.4-5.43 5.47-5.59l30.31-1.37z"/><path fill="#82aec0" d="m56.61 39.83 22.47 3.3v-8.46c0-1.87-1.31-3.51-3.19-3.96l-18.92-4.6c-.7-.17-1.44-.01-2 .45-.87.73-1.97 2.2-2.25 5.07-.45 4.8.73 7.54 3.89 8.2"/><path fill="#8ec9d6" d="m53.45 35.87-32.3.66s-.35-1.12-.35-2.93.75-3.32.75-3.32l31.9-1.35z"/><path fill="#2f7889" d="m52.85 35.88 22.3 3.45c.64.1 1.23-.39 1.24-1.04l.05-3.08c.01-.5-.34-.95-.83-1.06l-22.28-5.21c-1.52 3.34-.48 6.94-.48 6.94m63.75 47.46-62.84-4.33 2.85-38.05 54.49 8.19-.52 13.02 7.51.81z"/><path fill="#f44336" d="m102.69 27.24 8.48 1.23c.35.08.59.49.64 1.1 0 0 .34 1.28-.62 1.75-.52.26-2.43.83-2.43.83-.71.36-1.25.77-1.33 2.82l-.1 12.8-11.85-1.07s4.46-13.81 5.58-17.66c.33-1.14 1.05-1.94 1.63-1.8"/><path fill="#c62828" d="m95.92 45.69.47-1.45 10.96.26v3.28z"/><path fill="#94d1e0" d="m111.35 61.44.55-13.66-52.22-7.82-.49 4.75 4.98.71-.49 10.82-4.78-.52-.03 4.95 4.59.48-.5 10.99-7.19-.55-.32 4.71 62.21 4.79 1.18-18.91zm-40.8 11.29-5.51-.43.5-10.93 5.5.58zm.72-15.66-5.5-.6.49-10.74 5.49.82zm6.89 16.24-5.51-.43.49-10.71 5.51.58zm.7-15.42-5.5-.6.48-10.43 5.49.82zm6.92 16.01-5.52-.43.48-10.5 5.55.59zm.74-15.17-5.57-.61.47-10.12 5.59.84zm6.87 15.76-5.51-.43.51-10.28 5.51.58zm.74-14.93-5.51-.6.48-9.81 5.51.83zm6.86 15.51-5.51-.43.5-10.06 5.51.58zm.75-14.68-5.51-.6.47-9.5 5.51.82zm6.85 15.27-5.5-.42.5-9.85 5.45.58zm.66-14.45-5.42-.59.47-9.19 5.37.8zM116 76.23l-5.31-.41.44-9.64 5.47.58z"/><path fill="#82aec0" d="m109.52 54.73-52.08-7.19 1.98-2.83 52.28 7.82zm6.91 14.76L56.39 64.2l2.47-3.54 59.6 6.25z"/><path fill="#dfecf5" d="m59.42 44.71.25-4.76-32.7.4-.75 3.98 2.64 2.4-1.85 8.46h-2.28l-.44 4.96 1.3 1.54-3.47 15.96 33.84 1.29.54-14.91 2.36-3.37.03-4.94-1.45-.02v-8.16z"/><path fill="#82aec0" d="M6.15 75.42s56.97-.93 111.49 5.66l-.19 4.93s-8.49-.68-12.36-.68-5.92 9.38-10.47 9.38-27.72-1.08-32.72-2.43c-5.01-1.34-3.62-9.51-8.14-10.64S6.15 78.93 6.15 78.93z"/><path fill="#dfecf5" d="m98.96 87.61-.33.87a6.72 6.72 0 0 1-6.67 4.34l-24.89-1.57a7.31 7.31 0 0 1-6.63-5.3L59.89 84a6.91 6.91 0 0 0-6.13-5L6.15 75.42c-1.13-.09-2.06.87-1.93 2 0 0 .81 9.58 2.06 17.33l116.9 3.73c.55-7.19.82-14.02.82-14.02l-18.37-1.1a6.6 6.6 0 0 0-6.67 4.25"/><path fill="#2167a1" d="M6.15 93.55s.95 10.46 4.44 18.97 12.3 10.94 16.67 10.94h83.43c5.08 0 8.8-4.11 10.32-9.39.77-2.66 1.78-10.12 2.27-16.95z"/><path fill="#8ec9d6" d="m30.3 54.5 21.97.2-.71-8.65-19.34-.26zm-3.8 16.49 27.26.49-1.21-8.56-23.74-.18z"/><path fill="#2f7889" d="m84.1 89.14 9.29.48c.88.05 1.44-.94.94-1.67l-3.08-4.51c-.18-.27-.48-.44-.81-.46l-5.1-.37c-.52-.04-.99.3-1.12.81l-1.11 4.4c-.16.64.32 1.28.99 1.32m-6.04-7.07-9.66-.7c-.42-.03-.82.19-1.02.57l-2.49 4.69c-.37.69.11 1.53.89 1.57l13.37.69c.72.04 1.27-.64 1.09-1.34l-1.23-4.67c-.11-.45-.49-.77-.95-.81"/><circle cx="24.57" cy="85.52" r="3.87" fill="#2f7889"/><ellipse cx="36.9" cy="85.94" fill="#2f7889" rx="3.46" ry="3.62"/><ellipse cx="49.23" cy="86.37" fill="#2f7889" rx="3.04" ry="3.37"/><ellipse cx="105.56" cy="89.66" fill="#2f7889" rx="2.37" ry="2.69"/><ellipse cx="113.18" cy="89.93" fill="#2f7889" rx="2.09" ry="2.52"/><ellipse cx="119.89" cy="90.19" fill="#2f7889" rx="1.8" ry="2.34"/><path fill="none" stroke="#82aec0" stroke-miterlimit="10" d="m124 84.46-23.09-2.24"/></svg>