<svg xmlns="http://www.w3.org/2000/svg" width="1em" height="1em" viewBox="0 0 128 128"><path fill="#FF5117" d="M3.16 76.23s-.28-3.98 1.58-5.85c2.1-2.1 4-1.69 8.31-1.8c6.69-.18 12.34-.17 12.34-.17s8.96-16.99 10.85-19.9c1.89-2.9 5.42-7.2 11.23-7.81c5.81-.61 18.78 0 20.47.07c1.69.07 2.84 1.01 2.84 2.9v26.07h48.57c1.49 0 2.22 1.7 2.63 2.7c.37.9.88 2.97.88 2.97l-7.77 7.16z"/><path fill="#EE3E23" d="m3.8 99.74l-.6-11.76l-.06-12.46l119.72-.1l-.01 24.83l.46 7.23l-83.64.59z"/><path fill="#B22519" d="M10.1 104.14c.35-.13 6.96-5.12 6.96-5.12s1.6-3.07 2.39-3.85c.79-.79 1.44-.92 2.63-.92c1.18 0 13.45.13 14.68.13c1.23 0 2.41 1.18 3.15 2.32c.74 1.14 6 9.8 6 9.8l41.05.08s3.55-9.05 4.03-10.15s.88-1.79 2.28-1.84c1.4-.04 17.51.09 18.52.09c1.01 0 1.62.61 2.06 1.4c.44.79 3.88 10.34 3.88 10.34l3.98-.05l-1.04 4.03H10.47z"/><path fill="#4E433D" d="M15.66 110.48c.09 5.52 4.18 13.43 13.58 13.5c9.4.06 14.28-7.28 13.99-14.8c-.3-7.64-6.13-13.04-14.52-12.8c-7.85.23-13.17 6.46-13.05 14.1m72.78-.02c.09 5.52 4.4 13.46 13.81 13.52c9.4.06 14.28-7.28 13.99-14.8c-.3-7.64-6.13-13.04-14.52-12.8c-7.86.23-13.4 6.43-13.28 14.08"/><path fill="#C8C8C8" d="M21.85 109.99c.05 2.91 2.41 7.1 7.56 7.13s7.64-3.62 7.48-7.58c-.17-4.03-3.46-7.03-7.78-6.97c-4.29.07-7.32 3.4-7.26 7.42m73 0c.05 2.91 2.41 7.1 7.56 7.13s7.64-3.62 7.48-7.58c-.17-4.03-3.46-7.03-7.78-6.97c-4.29.07-7.32 3.4-7.26 7.42"/><path fill="#B0B0B1" d="M3.11 100.35c.01.56.28 7.85.28 8.77c0 .93.63 1.76 2.1 1.81c1.47.05 6.36 0 6.36 0s1.12-2.91 2.4-5.8c1.47-3.32 3.14-6.54 3.14-6.62c0-.04-10.79-.11-11.87-.11s-2.45.25-2.41 1.95m117.18-2.04l-.09 12.17h5.05c.75 0 1.45-1.19 1.41-1.98s-.09-7.95-.13-8.74s-.97-1.45-1.93-1.45s-4.35-.14-4.31 0"/><path fill="#D50916" d="M118.92 75.67c-.55.55-.24 15.32.06 15.8c.24.38 4.46.15 4.46.15s.11-4.39.18-7.51c.09-4.17-.75-8.66-.75-8.66s-3.6-.13-3.95.22"/><path fill="#8A1E0C" d="M53.91 76.47c-1.54 0-2.32 1.19-2.28 2.46c.04 1.45 1.19 2.11 2.42 2.15c1.23.04 5.05 0 6.02-.04c.97-.04 2.02-.88 1.98-2.42c-.03-1.14-.97-2.07-1.89-2.11c-.93-.04-5.45-.04-6.25-.04m14.84-6.18c0-.99.41-1.49 1.17-1.44c.63.04 1.22.27 1.22 1.58v40.05c0 .58-.45 1.04-1.04 1.08c-.59.04-1.22-.45-1.26-1.13c-.04-.67-.09-39.65-.09-40.14"/><path fill="#FDFEFE" d="M4.96 76.44s1.83.11 2.43.68c.78.74 2.01 4.12 2.04 4.73c.04.77.12 8.42-.12 8.81c-.08.14-4.06.18-4.08.17c-.03-.02-.97-6.11-.99-7.52c-.05-4.06.61-6.78.72-6.87"/><path fill="#DBCDC7" d="M3.34 90.82s-.27-2.9-.31-7.9c-.03-3.69.12-6.63.12-6.63l2.04.18s.09 2.94.09 6.84c0 3.19.28 7.53.28 7.53z"/><path fill="#546F79" d="M47.87 44.55c-3.66.34-5.6 2.45-7.58 5.04c-1.98 2.59-9.32 17.23-9.51 18.21c-.23 1.22 1.69.89 4.19.89c2.21 0 28.24.14 29.32.09c1.08-.05 2.07-.99 2.12-3.53c.05-2.54 0-16-.05-17.56s-.8-2.87-3.01-3.01c-1.65-.09-13.33-.33-15.48-.13"/><path fill="#AFE3FB" d="M36.05 65.4c-.4-.35 5.05-10.58 5.69-11.72c1.36-2.4 2.82-3.91 4.19-4.71c1.36-.8 2.64-.92 4.42-.99c2.49-.09 12-.24 12.33.16c.33.4.24 13.35.14 14.66c-.09 1.32-.22 2.4-1.65 2.49c-2.94.19-8.35.02-13.37.05c-6.04.05-11.54.24-11.75.06"/><path fill="#B52213" d="M37.98 68.09c0 1.15 2.38 3.83 5.96 3.79c4.03-.04 5.15-3.08 5.12-4.94c-.05-3.22-2.47-4.41-2.47-4.41l-7.46 2.91c.01 0-1.15 1.31-1.15 2.65"/><path fill="#EE3E23" d="M42.38 62.72c-1.72.73-3.24 2.71-3.24 2.71s.08 2.65 4.29 2.49c4.21-.16 3.25-5.35 3.25-5.35s-1.43-1.06-4.3.15"/></svg>