<svg viewBox="0 0 128 128"><path fill="#e3e3e1" d="M26.8 69.4c-.7.1-15.4 2.9-18.1 4.9s-4 4-4.5 7 3.5 6 3.5 6L37.9 90l31.2-5 45.8 4 10.5-6.5s-.4-7.5-3-9.8-9.3-3-11.4-4.2-7.1-10.7-13.4-16c-7.5-6-17.9-6.5-26.5-6.4A72 72 0 0 0 52.4 48a37 37 0 0 0-10.8 5.9c-5.7 4.4-14.8 15.5-14.8 15.5"/><path fill="#474c4f" d="M8.8 83.2 3.9 83s-.6 8-.7 14.2-.4 9 2.3 11.4q2.5 2.4 10 2.2c7.6-.2 101.6.5 104 .4 2.5-.2 4.7-1.6 5.1-5.3s1-18 1-18l-5.5-5.7z"/><path fill="#2f2f2f" d="M49.6 111s-.2-18.3-17-18c-18.4.3-17 17.8-17 17.8zm35.3 0s.2-18.5 17.3-17.9c17.8.6 16.4 18 16.4 18z"/><path fill="#4e433d" d="M17.8 110.3c.1 5.6 4.5 13.5 14 13.6s14.6-7.3 14.3-14.8c-.3-7.7-6.2-13-14.8-12.8-8 .2-13.6 6.4-13.5 14"/><path fill="#c8c8c8" d="M24.5 109.9c0 2.9 2.4 7 7.5 7.1s7.7-3.6 7.5-7.6-3.4-7-7.8-7a7 7 0 0 0-7.2 7.5"/><path fill="#4e433d" d="M88.5 110.8c.1 5.5 4.4 13.4 13.8 13.4s14.2-7.2 14-14.6c-.3-7.6-6.2-13-14.5-12.7-7.9.2-13.4 6.3-13.3 14"/><path fill="#c8c8c8" d="M94.8 110.4c0 2.9 2.4 7 7.6 7.1s7.6-3.6 7.4-7.6-3.4-7-7.7-7a7 7 0 0 0-7.3 7.5"/><path fill="#fda431" d="M4 81.2s10.1-.7 10.6.1c.3.5-2 8.9-2.8 9.4-1.3 1-8.6 3.3-8.6 3.3s0-5 .3-7.8z"/><path fill="#ff2a23" d="M120 78.1c-.5.6-.1 3 0 6.5.2 2.4.2 5.5 1 5.7s4.7.1 4.7.1l-.1-6.5c-.2-3.3-.7-5.8-.7-5.8s-4.4-.4-4.9 0"/><path fill="#2f2f2f" d="M98.8 74.6c.5-.2 6.2-5.6 6.3-6.2S99.3 57.6 92.2 54a39 39 0 0 0-19.7-4.2c-8.1-.3-19.9.6-27.2 6-5.5 4-12.7 13.8-13.7 15s-.2 3.4 2.2 3.5c5.8.3 65 .4 65 .4"/><path fill="#535456" d="M37.8 69.9c.3.3 31.6.6 32.3.2.1 0 .4-16.2.3-16.3h-1.7c-4 0-14.4.5-19.3 3.8A42 42 0 0 0 37.8 70m37.5-16v16.6c.3.1 20.9.3 21.2.1s3.2-2.7 3.3-3S96 60 90.3 57.1c-5-2.6-10.4-3-13.4-3.1z"/><path d="M38.3 76c.4.8 12.2.6 13-.3.6-.6.7-7-.2-7.8s-5-.6-7.9-.1c-2.5.4-5.6 6.9-4.9 8.3"/><path fill="#1064cb" d="M56 47.2s-.6-5.9 1.2-7.1q1.3-.7 5.6-.6h5.9l2.3 6.4-2.7 1.2z"/><path fill="#dc0d27" d="M73.5 39.4H78c2.4.1 5.8 0 6.7 1.3 1.3 1.7.8 6.6.8 6.6L73.6 47l-2.4-4.5z"/><path fill="#c3ccc7" d="M68.2 39.5h5.4V47h-5.4z"/><path fill="#e3e4de" d="M59.9 87.7c-1 .2-2.1 16.3 8.6 16 10.6-.2 8.8-15.8 8.3-16-1-.4-1.7 2.5-4 2.4-2 0-3.4-2.8-4.5-2.8-1.1.1-2 2.7-4.5 2.8-1.9 0-3-2.6-4-2.4"/></svg>