<svg xmlns="http://www.w3.org/2000/svg" width="1em" height="1em" viewBox="0 0 128 128"><path fill="#E3E3E1" d="M26.84 69.43c-.77.11-15.41 2.86-18.16 4.84s-3.98 3.98-4.53 6.95c-.55 2.97 3.54 6.04 3.54 6.04l30.16 2.86l31.26-4.95l45.79 3.85l10.51-6.44s-.39-7.5-3.03-9.81c-2.64-2.31-9.33-3.01-11.42-4.22s-7.08-10.7-13.34-15.86c-7.49-6.16-17.9-6.59-26.48-6.49c-9.58.11-16.14.8-18.78 1.79c-4.07 1.54-7.02 3.04-10.77 5.91c-5.74 4.4-14.75 15.53-14.75 15.53"/><path fill="#474C4F" d="m8.79 83.19l-4.84-.22s-.66 8.04-.77 14.2c-.11 6.27-.33 9.03 2.31 11.45c1.74 1.6 4.91 2.32 10.08 2.21s101.54.44 103.97.33c2.42-.11 4.62-1.54 5.06-5.28c.44-3.74.99-17.94.99-17.94l-5.5-5.72z"/><path fill="#2F2F2F" d="M49.59 110.91s-.16-18.18-17.05-17.89c-18.37.31-16.98 17.81-16.98 17.81zm35.26.16s.29-18.55 17.36-17.95c17.75.62 16.35 18.06 16.35 18.06z"/><path fill="#4E433D" d="M17.81 110.34c.09 5.52 4.49 13.46 14.07 13.52c9.58.06 14.55-7.28 14.25-14.8c-.31-7.64-6.25-13.04-14.8-12.8c-8 .24-13.64 6.44-13.52 14.08"/><path fill="#C8C8C8" d="M24.48 109.88c.05 2.91 2.41 7.1 7.56 7.13c5.15.03 7.64-3.62 7.48-7.58c-.17-4.03-3.46-7.03-7.78-6.97c-4.3.07-7.33 3.39-7.26 7.42"/><path fill="#4E433D" d="M88.53 110.81c.09 5.48 4.39 13.36 13.77 13.42c9.38.06 14.24-7.22 13.95-14.68c-.3-7.59-6.11-12.94-14.48-12.7c-7.83.22-13.36 6.37-13.24 13.96"/><path fill="#C8C8C8" d="M94.79 110.37c.05 2.91 2.41 7.1 7.56 7.13c5.15.03 7.64-3.62 7.48-7.58c-.17-4.03-3.46-7.03-7.78-6.97c-4.29.07-7.32 3.39-7.26 7.42"/><path fill="#FDA431" d="M4.09 81.2s10.01-.67 10.53.12c.29.44-2.06 8.84-2.77 9.4c-1.31 1.05-8.64 3.32-8.64 3.32s-.02-4.96.26-7.86c.3-2.97.62-4.98.62-4.98"/><path fill="#FF2A23" d="M120.03 78.14c-.52.52-.18 3.05 0 6.47c.13 2.38.18 5.49.98 5.68c.79.18 4.64.12 4.64.12s.12-3.11-.06-6.53c-.17-3.24-.73-5.8-.73-5.8s-4.34-.43-4.83.06"/><path fill="#2F2F2F" d="M98.84 74.62c.49-.24 6.2-5.63 6.28-6.2c.08-.57-5.87-10.85-12.89-14.52c-7.01-3.67-11.82-3.99-19.72-4.23c-8.15-.25-19.91.65-27.17 5.95c-5.52 4.03-12.72 13.86-13.7 15.17s-.24 3.33 2.12 3.43c5.79.23 65.08.4 65.08.4"/><path fill="#535456" d="M37.84 69.89c.23.34 31.56.57 32.22.24c.16-.08.39-16.19.31-16.29c-.07-.08-1-.05-1.71-.04c-4 .05-14.4.52-19.28 3.84c-5.69 3.87-11.87 11.76-11.54 12.25m37.5-15.9c-.12.18-.1 16.51.02 16.55c.24.08 20.8.24 21.12.08c.33-.16 3.26-2.77 3.34-3.02s-3.89-7.63-9.54-10.52c-4.99-2.56-10.38-3.01-13.41-3.12c-.82-.03-1.46-.09-1.53.03"/><path d="M38.33 76.08c.39.74 12.15.57 12.97-.33c.56-.62.69-7.13-.16-7.83c-.9-.73-5-.63-7.91-.16c-2.54.41-5.64 6.94-4.9 8.32"/><path fill="#1064CB" d="M55.95 47.15s-.58-5.82 1.2-7.07c.81-.57 2.82-.54 5.63-.6c2.91-.06 5.87 0 5.87 0l2.34 6.47l-2.73 1.19z"/><path fill="#DC0D27" d="M73.53 39.44s1.88-.04 4.51.01c2.36.05 5.74-.02 6.69 1.29c1.23 1.68.81 6.52.81 6.52l-11.93-.11l-2.39-4.51z"/><path fill="#C3CCC7" d="m68.23 39.48l5.34-.03l.05 7.7h-5.39z"/><path fill="#E3E4DE" d="M59.89 87.74c-.93.2-2.12 16.26 8.59 16c10.58-.26 8.86-15.88 8.33-16.07c-.93-.33-1.72 2.58-4.03 2.45c-1.91-.11-3.41-2.85-4.47-2.79c-1.12.07-1.95 2.72-4.53 2.78c-1.84.06-2.96-2.56-3.89-2.37"/></svg>