<svg xmlns="http://www.w3.org/2000/svg" width="1em" height="1em" viewBox="0 0 128 128"><path fill="#B50D22" d="M81.67 75.39v-2.32s-2.86-.19-4.09-.66c-.66-.25-1.47-1.62-1.27-2.9c.19-1.27 1.04-1.93 2.55-1.89c1.54.04 3.36.17 5.02.46c2.82.5 4.47 1.21 4.9 1.39c.66.27 1.12 2.66-.08 3.24c-.7.34-2.51.42-2.51.42l.04 2.32z"/><path fill="#FF2A23" d="M5.31 114.43s-.75-3.51 1.71-5.78c2.85-2.63 6.2-3.65 10.08-5.16c3.39-1.32 8.51-2.87 8.51-2.87l10.46-6.69s4.67-1.11 12.96-.95c7.19.14 19.09 1.17 19.09 1.17s2.53-2.69 6.36-3.15c3.83-.46 5.53-.11 5.53-.11l.35-16.25s6.49 0 8.57.2c3.13.31 7.03 3.55 8.13 4.67c.29.3 6.15 6.61 6.15 6.61l3.71 1.74s5.21-20.47 5.95-20.71c.01 0 3.43-.28 6.51-.38c4.06-.13 6.92 0 7.26.2c.25.15-2.69 14.11-2.69 14.11l-27.7 36.24s-39.32-1.04-39.56-1.39c-.23-.35-11.37-5.68-11.37-5.68s-27.38 3.13-27.84 3.36c-.46.24-12.17.82-12.17.82"/><path fill="#B50D22" d="m104.62 101.37l16.61-3.4l2.76-16.92s-7.43-.07-13.36 6.84c-5.66 6.61-6.01 13.48-6.01 13.48m-50.08-9.38c-.02 1.53 2.9 3.65 5.97 3.74c3.52.1 4.56-.57 4.6-1.8s-.04-3.77-.04-3.77l-8.4-1.75c-.01 0-2.1 1.42-2.13 3.58"/><path fill="#FF2A23" d="M56.43 88.61s1.98-1.85 4.36-2.34c2.15-.44 4.24-.36 4.24.34c0 1.19.04 3.54.04 3.54s-1.32 1.18-4.89.84c-2.26-.21-3.44-1.9-3.75-2.38"/><path fill="#CF1A35" d="M50.2 110.46s6.52.58 11.47-1.44c4.06-1.66 5.71-3.91 8.32-5.26c1.31-.68 3.96-.58 3.96-.58l1.17 11.79l-22.36 1.57l-2.34-3.51z"/><path fill="#636866" d="m112.87 67.16l-3.67 22.61l-14.52-3.39s1.49-1.76 1.98-3.3c.52-1.65.41-3.57.41-3.57l7.99 6.4s2.64-14.77 2.88-15.67c.24-.9.98-1.86 2.36-2.6c.86-.45 2.57-.48 2.57-.48m-.17 30.7l8.52.12s-.43 6.72-1.06 8.47c-1.09 3.02-3.4 2.78-3.4 2.78s-4.1-11.47-4.06-11.37M2.15 113.29c-.31.2-.44 6.98-.22 7.13s7.97.15 7.97.15s.2-7.28-.76-7.28s-6.77-.15-6.99 0"/><path fill="#B50D22" d="M18 113.44s.29 7.54-.18 7.76c-.48.22-8.45.22-8.75.04c-.29-.18-.07-7.87-.04-7.98c.03-.12 9.15-.08 8.97.18"/><path fill="#636866" d="M46.42 114.17h4.16s-2.68 4.26-2.96 4.68c-.28.42-.18 1.16 1.2 1.2c1.37.04 44.47 0 44.47 0l-4.72-6.22H51.42s-.24-2.08-.93-3.77s-2.27-2.95-2.27-2.95z"/><path fill="#8C1D0B" d="M71.99 102.83c-.14.19-.27 10.76-.06 10.97s4.96.18 5.11.06c.15-.12.18-10.7.09-10.88s-4.99-.36-5.14-.15"/><path fill="#4C4038" d="M48.32 108.34c0 8.57-6.99 15.52-15.6 15.52s-15.57-5.76-15.6-15.52c-.03-8.57 6.63-15.46 15.6-15.52c8.93-.06 15.6 6.95 15.6 15.52"/><path fill="#F8A128" d="M32.72 95.23c-7.33 0-13.28 5.89-13.28 13.15s5.95 13.15 13.28 13.15c7.33 0 13.28-5.89 13.28-13.15s-5.94-13.15-13.28-13.15m-.09 24.41c-6.14 0-11.12-5.03-11.12-11.23s4.98-11.23 11.12-11.23c6.14 0 11.12 5.03 11.12 11.23c0 6.21-4.98 11.23-11.12 11.23"/><path fill="#858583" d="M32.54 100.08c-4.56 0-8.26 3.62-8.26 8.09s3.7 8.09 8.26 8.09s8.26-3.62 8.26-8.09s-3.7-8.09-8.26-8.09m-.03 12.65c-2.57 0-4.66-2.05-4.66-4.57s2.09-4.57 4.66-4.57s4.66 2.05 4.66 4.57s-2.09 4.57-4.66 4.57"/><path fill="#4C4038" d="M117.8 108.38c0 8.57-6.99 15.52-15.6 15.52s-15.57-5.76-15.6-15.52c-.03-8.57 6.63-15.46 15.6-15.52c8.92-.06 15.6 6.95 15.6 15.52"/><path fill="#F8A128" d="M102.2 95.27c-7.33 0-13.28 5.89-13.28 13.15s5.95 13.15 13.28 13.15c7.33 0 13.28-5.89 13.28-13.15s-5.95-13.15-13.28-13.15m-.09 24.41c-6.14 0-11.12-5.03-11.12-11.23s4.98-11.23 11.12-11.23c6.14 0 11.12 5.03 11.12 11.23c-.01 6.21-4.98 11.23-11.12 11.23"/><path fill="#858583" d="M102.02 100.12c-4.56 0-8.26 3.62-8.26 8.09s3.7 8.09 8.26 8.09s8.26-3.62 8.26-8.09s-3.7-8.09-8.26-8.09m-.03 12.65c-2.57 0-4.66-2.05-4.66-4.57s2.09-4.57 4.66-4.57s4.66 2.05 4.66 4.57s-2.09 4.57-4.66 4.57"/></svg>