<svg viewBox="0 0 128 128"><path fill="#ca2c31" d="m3.8 71.7 16.3-16 27.8-5-2.7 14.6L7.6 76.8l-2.5-1z"/><path fill="#a02422" d="m23 59.8-17.8 16 13 6.4 19.9-10v-4.8l4-11zm42 28.4-8.6 3.7-8.1 17.1s7 15.8 7.4 15.8l4.4.3 14.4-16L78 81.4z"/><path fill="#ca2c31" d="M56.5 100.8s4.8-1 8.2-2.5 7.6-4 7.6-4l-1.6 13.3-15 17.2s-.6-.8-3.1-6.2l-2.7-5.9z"/><path fill="#f7d74d" d="M31.6 80.7s-5.8-.5-12 7.4c-5.8 7.3-8.5 19.1-9.5 22.2s-3.6 3.6-2.7 5 4.4 1.3 8.8.8 8.3-2 8.3-2l-.9 1.5c-.2.4-1 1-1 1.5.2 1.3 11.4 1.3 20.4-7.9 9.7-10 5-18.1 5-18.1z"/><path fill="#fbf0b4" d="M33.3 85.3s-6.2.3-11.3 8.3-7.5 17.1-7 17.8 10-2.9 12.3-2.2c1.6.5.8 2 1.2 2.5s4.5 1 11.2-6.3 5-17.5 5-17.5z"/><path fill="#858585" d="M36.4 74.4s-3.2 2.8-4.3 4.4-1 1.7-1 2.2 1.2 5.8 6 10.4C43 97 48.2 97.8 49 97.8s5.8-5.7 5.8-5.7z"/><path fill="#437687" d="M50.1 91.2s5 3.3 13.5.5C75 87.8 83.6 79.1 94 68.2c10.1-10.6 18.6-23.7 18.6-23.7l-6-20z"/><path fill="#3f545f" d="m68 80.3 1.4-4.3 3.5.5 4.6 2.2c2 1 4.4 1.6 4.4 1.6l-5 4.1-4.6-1.8c-2.2-1-4.3-2.3-4.3-2.3"/><path fill="#8dafbf" d="M84.3 16.1S74.7 21.7 61 34.8C48.5 46.5 39.3 57.2 37 66.2c-1.8 7.6-.8 12.2 3.4 17.2 4.5 5.2 9.7 7.8 9.7 7.8s4 .1 20.4-12.5c20.5-15.8 37-42.3 37-42.3z"/><path fill="#d83f22" d="M104.2 41.8S95.8 38.3 89.8 30c-5.9-8.2-5.4-13.8-5.4-13.8s5-4 16-8.4c7.6-3 17.8-4.5 21.2-2s-2.3 15-2.3 15l-10.3 20z"/><path fill="#6896a5" d="M68.2 80.4s-7.3-3.7-11.9-9c-8.7-9.8-10.5-20.7-10.5-20.7l4.4-5.2s1.1 11.6 10.4 21.6a46 46 0 0 0 12.5 9.5l-2.7 2c-.8.8-2.2 1.8-2.2 1.8"/><path fill="#a02422" d="M112.7 44.5s4.3-5.3 8.5-17c5.7-16.5.7-21.5.7-21.5s-1.7 7.9-7.6 18.7a215 215 0 0 1-10.4 17l4.9 2z"/><path fill="#b3e1ee" d="M39.8 69.7c1.3 1.2 3.3-.1 4.6-3.1q1.9-4.5.3-5.5c-1.3-.9-3.4 1-4.3 2.8-1 2-1.6 4.8-.6 5.8M85 20s-7.7 5.5-15.8 13a109 109 0 0 0-13 13.3c-.8 1.4-.8 3.3-.2 4.2s1.8 1.5 3 .6c1-.8 9-9.7 16.4-16C82 29.2 87 25.5 87 25.5s2.1-3.7 1.8-4.5c-.4-.9-4-1-4-1"/><path fill="#ed6a65" d="M85 20.1s5.6-4.3 11.7-7.3C102.4 10 108 7.6 109 9.7c1 1.9-5.4 4.5-11 8.1s-11 7.8-11 7.8-.8-1.5-1.3-2.9z"/><path fill="#e1e1e1" d="M89.6 39.3a12 12 0 0 0-17.1.8c-4 4.7-3.7 11.8 1 16.2 4.2 3.9 12 4.8 16.7-.7 4.2-5 4-12.2-.6-16.3"/><path fill="#3f545f" d="M75.3 41.9c-3.3 3.2-3.1 9.7.8 12.6 3.5 2.6 8.4 2.4 11.4-.7s3-8.8.2-11.7a8.5 8.5 0 0 0-12.4-.2"/><path fill="#a02524" d="M50 76.9s6.2-6.3 6.9-5.6.6 4.5-2.4 8.7c-3 4.3-9.5 11.8-14.7 16.9a75 75 0 0 1-13 10.6 9 9 0 0 1-3.5-2.1c-.8-1 1.7-6 2.7-7.6s24-21 24-21"/><path fill="#ca2c31" d="M21.2 101.9c0 1.4 2.2 3.5 2.2 3.5l33.5-34.1s-1.6-1.8-6.2 1.1a87 87 0 0 0-14.8 12.2 76 76 0 0 0-14.7 17.2"/><path fill="#fff" d="M19 37c-1 1-1.1 2.8.1 3.9 1.1.9 3 .3 3.6-.5s.6-2.6-.3-3.5c-.9-1-2.7-.6-3.3 0"/><path fill="#fff" d="M41 35.7c-.8.9-.5 2.3.2 2.8s2 .4 2.6-.3c.5-.6.5-1.9-.3-2.6-.6-.7-2-.6-2.5 0" opacity=".5"/><path fill="#fff" d="M55.6 11.9s1.2-3.5 1.9-3.5 1.8 3.5 1.8 3.5 3.6 0 3.8.5c.3.7-2.3 3-2.3 3s.9 3.4.5 3.8-3.6-1.3-3.6-1.3-3.2 2.2-3.9 1.6.7-4.2.7-4.2-3-2.1-2.9-2.8c.2-.8 4-.6 4-.6M97 95.3c1.2.7 2.7.3 3.3-1 .5-1.1-.4-2.5-1.3-2.9s-2.3.2-2.9 1.1c-.5 1 .2 2.4 1 2.8m17-29.5c-.6-1-2-1.4-3-.5s-.8 2.1-.2 2.8 2 1 2.8.4 1-2 .5-2.7"/></svg>