<svg xmlns="http://www.w3.org/2000/svg" width="1em" height="1em" viewBox="0 0 128 128"><path fill="#2F7889" d="M51.24 75.33S3.98 57.62 4 57.25L5.12 23.6c.02-.45.47-.75.89-.59l46.35 17.12c.38.14.62.51.61.91l-1.13 33.9c-.01.3-.31.5-.6.39"/><path fill="#37474F" d="m9.29 59.89l41.95 15.44c.28.11.59-.09.6-.4l1.13-33.9l-7.57-2.85z"/><path fill="none" stroke="#9DD4E0" stroke-miterlimit="10" stroke-width="2.042" d="M51.24 75.33L4.55 58.08a.854.854 0 0 1-.55-.82L5.12 23.6c.02-.45.47-.75.89-.59l46.35 17.12c.38.14.62.51.61.91l-1.13 33.9c-.01.3-.31.5-.6.39z"/><path fill="none" stroke="#9DD4E0" stroke-miterlimit="10" stroke-width="1.021" d="M52.41 57.96L4.57 40.27m24.97-7.56l-1.17 34.02M16.94 27.39l-1.06 35.2m26.14-26.64l-1.06 35.44"/><path fill="#BF8904" d="m82.81 38.76l1.46-2.49c.59-1.01 1.82-1.5 2.93-1.13c2.04.68 5.21 2.43 7.46 6.88c2.27 4.49 1.93 8.12 1.37 10.17a2.53 2.53 0 0 1-2.38 1.88l-2.04.04z"/><path fill="#875D00" d="M91.15 40.25c-.63.82.08 4.67-.76 5.61c-.42.46-1.01.9-1.58.65l2.29 7.61l2.57-.04a2.51 2.51 0 0 0 2.38-1.88c.55-2.05.9-5.68-1.37-10.17c-.3-.57-2.06-3.71-3.53-1.78"/><path fill="#FFCA28" d="M89.28 41.23L68.9 33.46l-21.19 9.97L53.65 86l22.18-9.48l16.91-13.77z"/><path fill="#E2A610" d="m89.28 41.22l-21.33 9.92l-14.1 35.25l22.18-9.48l16.91-13.77z"/><path fill="#BF8904" d="m67.99 51.25l-20.37-7.77l-16.91 13.76l3.46 21.53l20.37 7.76l16.91-13.76z"/><path fill="#875D00" d="m93.17 63.12l-21.82 9.67l-3.44 2.85c.01-.14.6-6.87-4.9-15.06c-3.95-5.89-12.89-9.2-12.89-9.2l4.45 35.3l22.17-9.48z"/><path fill="#2F7889" d="M122.27 105.01S75.01 87.3 75.03 86.93l1.12-33.66c.02-.45.47-.75.89-.59l46.35 17.12c.38.14.62.51.61.91l-1.13 33.9c-.01.31-.31.51-.6.4"/><path fill="#37474F" d="m80.32 89.57l41.95 15.44c.28.11.59-.09.6-.4L124 69.95l-6.99-2.43z"/><path fill="none" stroke="#9DD4E0" stroke-miterlimit="10" stroke-width="2.042" d="M122.27 105.01L75.58 87.76a.858.858 0 0 1-.55-.83l1.12-33.66c.02-.45.47-.75.89-.59l46.35 17.12c.38.14.62.51.61.91l-1.13 33.9c-.01.31-.31.51-.6.4z"/><path fill="none" stroke="#9DD4E0" stroke-miterlimit="10" stroke-width="1.021" d="M123.44 87.63L75.6 69.95m24.97-7.56L99.4 96.41M87.97 57.06l-1.06 35.2m26.14-26.63l-1.06 35.44"/><path fill="#E2A610" d="M75.03 39.47c0-1.57-2.67-2.85-5.96-2.85s-5.96 1.27-5.96 2.85v2.23c0 1.57 2.67 2.85 5.96 2.85s5.96-1.27 5.96-2.85z"/><ellipse cx="69.07" cy="39.47" fill="#E2A610" rx="5.96" ry="2.85"/><ellipse cx="69.07" cy="39.27" fill="#FFCA28" rx="5.01" ry="2.2"/><path fill="#E2A610" d="M70.02 39.3s-.19.4-.94.4s-.94-.4-.94-.4s.27-10.28.35-10.95c.08-.67 1.02-.65 1.05 0c.02.65.48 10.95.48 10.95"/><path fill="#BF8904" d="M75.03 39.47s-.37 1.63-3.68 2.29c-2.43.48-4.17.29-4.59 1.56c-.32.96 1.98 1.75 5.23.87c2.93-.8 3.04-2.26 3.04-2.48z"/><path fill="#9DD4E0" d="M53.94 92.43L36.62 46.49c7.54-2.84 21.56 3.62 26.34 16.3s-1.48 26.8-9.02 29.64"/><path fill="#2F7889" d="m51.7 86.49l2.24 5.94c7.54-2.84 13.81-16.95 9.02-29.64c-.4-1.06-.87-2.08-1.4-3.06c1.9 8.89-1.6 19.92-9.86 26.76"/><ellipse cx="45.23" cy="69.56" fill="#F5F5F5" rx="13.25" ry="23.6" transform="rotate(-20.653 45.232 69.563)"/><path fill="#BDBDBD" d="M37.04 68.06c-3.51-6.56-5.78-16.39-1.43-20.05c4.59-3.86 11.08.68 14.34 3.57c1.81 1.6 2.76 2.85 3.7 4.13c5.36 7.3 9.97 21.66 3.79 26.91c-4.31 3.66-15.15-4.74-20.4-14.56"/><path fill="#6392A5" d="M33.52 73.89c-4.31-11.44-2.57-23.13 3.81-25.53s15.4 5.23 19.71 16.67s2.57 23.13-3.81 25.53s-15.4-5.23-19.71-16.67m-1.34.51c4.78 12.69 14.77 20.67 22.31 17.82c7.54-2.84 9.78-15.43 4.99-28.12S44.71 43.44 37.17 46.28c-7.54 2.84-9.77 15.43-4.99 28.12"/><path fill="none" stroke="#6392A5" stroke-linecap="round" stroke-miterlimit="10" stroke-width="1.5" d="m26.72 76.3l26.06-11.54M26.72 76.3l15.19-17.01M26.72 76.3l23.25 3.54"/><path fill="#6392A5" d="m28.4 74.49l.79 2.08a.85.85 0 0 1-.5 1.1l-4.13 1.56a.85.85 0 0 1-1.1-.5l-.79-2.08a.85.85 0 0 1 .5-1.1L27.3 74a.85.85 0 0 1 1.1.49"/></svg>