<svg xmlns="http://www.w3.org/2000/svg" width="1em" height="1em" viewBox="0 0 128 128"><path fill="#8A1E0C" d="M53.74 49.78L13 53.92s.22 2.92 1.06 3.59c.8.64 25.28.3 49.72.4c24.45.1 48.69.56 49.25.32c1.12-.48 1.12-4.46 1.12-4.46zm12.74-22.74L9.67 25.6s1.24 2.75 2.87 3.66c2.35 1.31 16.69 4 51.83 4.13s47.86-1.8 50.93-3.05c2.61-1.07 5.47-7.09 5.47-7.09z"/><path fill="#8A1E0C" d="M30.08 36.33V30.2l9.19.56v5.49zm60.7-5.37v6.01l9.79-.39v-6.14z"/><path fill="#474C4F" d="M9.69 23.24s-2.91-1.53-6.2-7.08C1.2 12.3.81 8.7 1.75 8.16s9.69 4.86 25.85 7.27c11.62 1.73 24.59 2.79 36.78 2.9c12.98.12 25.73-.61 37.79-2.9c16.29-3.1 22.08-6.46 23.69-5.92c1.62.54-.49 5.52-1.66 8.01c-.8 1.69-4.25 7.96-6.82 8.41c-1.85.33-89.79-.4-89.79-.4z"/><path fill="#EB2901" d="M58.55 28.49v21.94l10.77-1.48V28.49zm32.22 6.56h9.8v75.59l-9.93 1.32zm-60.69-.07l-.17 76.73l9.36-.93V35.05z"/><path fill="#EB2901" d="M113.81 45.9c-.52-.72-2.17-.62-2.17-.62s-1.88-.02-5.12-.06c.01-1.79-.04-4.11-.35-4.48c-.52-.62-20.44-.41-21.16.21c-.41.35-.49 2.37-.48 4.04c-12.32-.12-26.96-.26-39.74-.34c0-1.73-.05-3.82-.35-4.12c-.52-.52-18.99-.83-19.71-.31c-.51.37-.61 2.91-.62 4.36c-6.23.01-10.24.06-10.53.18c-1.45.62-.62 9.19-.62 9.19l101.15.72c.01.01.22-8.04-.3-8.77M6.9 17.76c-.49.62-.26 2.06.95 4.77c.48 1.07 1.87 3.52 2.38 4.13c0 0 13.42 3.4 53.9 3.15s54.49-2.79 54.49-2.79s4.1-5.75 3.35-5.94c-.43-.11-21.81 4.41-58.09 4.04S6.9 17.76 6.9 17.76"/><path fill="#474C4F" d="M27.12 108.64c-.33.33-.66 10.62-.09 11.09c.56.47 14.13.58 14.6.11c.47-.47.38-10.37.1-10.94s-14.14-.73-14.61-.26m60.98 1.22c-.5.87-.5 10.34-.03 11c.47.66 14.59.47 14.97 0c.38-.47.28-10.71 0-11.09s-14.56-.56-14.94.09"/></svg>