<svg xmlns="http://www.w3.org/2000/svg" width="1em" height="1em" viewBox="0 0 128 128"><path fill="#858585" d="m78.92 78.13l1.63 4.32s-2.5 1.19-2.19 4.76c.31 3.57 2.98 5.57 5.26 5.88c2.82.39 5.07-2.44 4.57-5.7c-.5-3.26-2.75-5.13-2.75-5.13l-.06-3.76z"/><path fill="#00C1E9" d="M28.67 26.96c.06-.33 4.03-3.91 6.89-6.23c2.87-2.32 4.56-3.93 5.24-3.91c.74.01 2.98 1.27 4.52 2.15c1.33.76 3.14 1.93 3.14 1.93l-2.87 5.07S35.39 38.21 35.22 38.1c-.15-.11-6.55-11.14-6.55-11.14"/><path fill="#0D9ABB" d="M35.62 35.62s5.35-6.56 7.83-9.32c2.48-2.76 5.02-5.4 5.02-5.4s.99.5.94 1.49c-.06.99-.5 1.76-1.16 2.65c-.66.88-9.87 12.74-9.87 12.74z"/><path fill="#00C1E9" d="M75.29 44.37s35.62-32.74 36.07-32.89s2 .15 4.36.89c2.37.74 6.43 2.66 6.36 3.1c-.07.44-.52 2.81-.52 2.81S93.21 63.43 91.29 60.92c-1.92-2.51-16-16.55-16-16.55"/><path fill="#0D9ABB" d="M92.65 57.94s27.84-40.51 28.26-41.04c.62-.79.12-1.75-.56-2.49c-.69-.75-1.25-.94-1.25-.94s2.24.84 3.24 1.5c1.12.73 2 1.56 1.81 2.37c-.19.81-28.81 44.33-28.93 44.08s-2.57-3.48-2.57-3.48"/><path fill="#9A9A9A" d="M14.86 10.01s-.86-.67-1.34-.1c-.48.57 4.31 27.59 4.31 27.59l11.49 7.95l26.72 24.04l24.8 9.85l5.8 1.89s5.48-3.73 5.48-3.96c0-.23-5.7-17.73-5.7-17.73L33.58 39.81z"/><path fill="#C8C8C8" d="M25.37 15.46c-1.05-1.15-10.5-5.45-10.5-5.45l14.46 31.27l1.9 2.13s6.16 6.22 12.63 11.09s11.93 7.07 16.62 9.54c5.74 3.02 10.45 4.55 14.2 6.18c4.56 1.99 8.56 3.1 10.59 5.81c1.86 2.48 1.37 5.2 1.37 5.2s3.79 1.73 8.43 2.79c4.64 1.07 14.76 2.36 17.35-3.73c2.59-6.09-1.07-12.33-9.89-17.58s-12.86-6.09-12.86-6.09l-2.44-6.77S80.84 44.53 76.81 43c-4.03-1.52-21-4.57-21-4.57l-19.78-2.36c-.01.01-9.83-19.69-10.66-20.61"/><path fill="#E0E0E0" d="M53.52 39.51c-.53 1.01.08 1.9 5.1 3.42c4.72 1.43 7.15 2.43 9.74 3.5c2.59 1.07 6.24 3.2 8.29 3.8c2.05.61 4.57.84 6.01-.99c.87-1.1-.15-3.12-3.2-4.95s-7.08-3.35-13.62-4.57c-6.54-1.2-11.56-1.66-12.32-.21"/><path fill="#00C1E9" d="M17.27 34.9c-.6.12-12.85 13.98-13.02 14.5c-.17.52 1.13 2.26 1.13 2.26l6.95 3.04l20.41-14.24c-.01 0-14.6-5.73-15.47-5.56"/><path fill="#0D9ABB" d="M4.25 49.4s6.92 3.42 8.31 3.25c1.39-.17 20.21-12.19 20.21-12.19s1.89 1.3.78 2.74c-1.11 1.43-18.78 12.91-20.8 12.78c-1.7-.11-8.4-3.03-8.74-3.85c-.71-1.76.24-2.73.24-2.73"/><path fill="#00C1E9" d="M54.22 67.71c-.9.33-9.45 11.08-11.55 13.61c-1.85 2.23-22.86 26.7-23.49 27.88c-.63 1.18 1.02 2.67 1.02 2.67l11.8 4.72L70.07 85.3l8.23-10.83s-5.49-3.17-12.18-4.67s-11.03-2.4-11.9-2.09"/><path fill="#0D9ABB" d="M78.29 74.47s-44.87 39.81-45.9 40.07c-.81.2-5-.91-8.47-2.57c-2.96-1.41-4.73-2.77-4.73-2.77s-1.26 1.42.31 3.62s10.77 6.05 12.42 5.82c1.65-.24 4.32-2.91 6.6-4.8c2.28-1.89 41.99-35.78 41.99-35.78s-.04-1.25-.55-2.04c-.7-1.1-1.67-1.55-1.67-1.55"/><path fill="#B4DDFA" d="M56.01 70.88c-1.24-.62-2.65.94-3.85 2.48c-1.2 1.54-24.65 29.53-25.42 30.56c-.77 1.03-1.37 2.14-.26 2.82c1.11.68 2.23-.51 3.25-1.8c1.03-1.28 25.59-30.56 26.28-31.33s1.71-1.87 0-2.73"/><path fill="#3B5361" d="M46.76 46.65c-.77-.32-1.41.18-1.47 1.03c-.06.85.29 4.1.46 4.59c.18.53 7.14 4.46 7.7 4.46c.25 0-.03-1.89-.18-3.49c-.21-2.24-.32-3.81-.57-4.2c-.17-.27-5.27-2.11-5.94-2.39m10.11 3.67c-1.18-.39-.85.18-.82 1.14c.01.51.75 6.26.81 6.65s.08.93 1.3 1.52c1.29.63 7.16 3.67 7.73 3.95c.56.28.73-.56.56-1.69s-.94-7.31-1.16-7.71s-7.77-3.64-8.42-3.86m12.71 5.23c-.62-.23-1 .21-.82 1.04c.13.62 1.41 8.01 1.52 8.63c.11.62.79 1.13 1.69 1.52c.9.39 6.54 3.05 7.22 3.16s.9-.79.51-1.97s-2.04-6.54-3.71-8.74c-1.33-1.76-4.95-3.1-6.41-3.64m16.95-5.49c-.49.35-1.16 1.1-2.92 2.72c-2.03 1.86-4.28 2.95-4.2 4.16c.06 1.06 1.1 3.13 2.49 5.98c1.32 2.7 2.58 5.43 2.99 6.04c.85 1.24 2.54 1.64 3.84.73s2.82-2.03 4.57-4.12c1.75-2.09 2.26-3.33 2.2-5.08s-7.31-9.67-7.65-10.12c-.35-.45-.7-.76-1.32-.31"/><path fill="#E1E0DF" d="M107.6 97.14c.96 1.18 9.05-3.67 13.33-11.11c4-6.96 6.23-15.75 3.56-15.82s-2.21 4.9-3.32 8.68c-.69 2.36-2.33 7.15-6.85 11.59c-4.47 4.41-7.66 5.49-6.72 6.66M117.03 60c.46.76-5.78 1.85-12.22 10.59c-6.83 9.26-6.39 13.9-6.44 15.55c-.07 2.44-.56 4.74-2.22 4.22c-1.15-.36-1.95-2.61-.47-8.83c1.48-6.22 5.83-13.51 10.71-17.22c6.81-5.19 10.2-5.05 10.64-4.31"/><path fill="#799FAE" d="M111.85 73.92s1.11-4.3 3.92-8.22c2.81-3.92 5.48-6 6.52-5.92c1.04.07 1.48.81 1.48.81l-7.63 15.88s.57.7 1.07 1.52c.61 1.01-.33 2.59-.33 2.59L110 82.36L99.7 97.91s-1.78-.3-1.63-2.44c.15-2.15 1.7-6.3 4.22-9.49s6.11-4.76 6.11-4.76l.56-2.12s-1.05-1.05-.37-2.67c.88-2.1 3.26-2.51 3.26-2.51"/><path fill="#40717A" d="M114.23 74.93s.62.45 1.07.8c.45.35.92.82.92.82s3.26-3.81 5.1-7.59c1.66-3.41 3.61-7.71 2.46-8.37c-1.16-.66-5.1 4.96-6.56 7.72c-1.47 2.76-2.99 6.62-2.99 6.62m-5.64 1.51s.83 2.91 3.27 3.6c3.08.86 5.36-2.07 5.36-2.07s1.29 1.94.75 3.56c-.57 1.69-3.78 2.45-5.08 2.51c-1.3.05-2.32-.05-2.32-.05s-1.41 4.59-3.89 8.22c-2.18 3.18-5.82 6.62-6.96 5.72s1.42-5.35 3.18-8.09c2.32-3.62 5.95-6.7 5.95-6.7s-.87-1.14-1.03-2.81c-.23-2.29.77-3.89.77-3.89"/></svg>