<svg xmlns="http://www.w3.org/2000/svg" width="1em" height="1em" viewBox="0 0 128 128"><path fill="#31322e" d="M114.19 74.5s.52-1.29 2.13-1.95c1.51-.62 5.04-.7 6.56 1.15 1.6 1.95 1.55 4.79 2.07 9.82.41 3.88.77 8.21.14 10.19-.47 1.49-1.85 2.95-5.05 3.04-3.19.09-4.7-1.95-4.7-1.95z"/><path fill="#489df6" d="M4.39 82.44s-.46-2.67 1.97-5.1 4.06-2.67 7.18-2.9 14.6-.58 14.6-.58 25.15-27.81 25.38-28.04 51.68-.58 53.54-.58 4.98 1.51 5.45 4.17c.46 2.67 3 29.08 3 29.08L64.99 91.01z"/><path fill="#506d71" d="m58.46 93.15-34.04-7.58-19.81 16.09s-2.66-.27-2.66 2.39-.27 7.31.27 7.71 94.27.8 94.27.8 22.2-.13 22.87-.53.74-.87.93-5.05c.11-2.39.62-4.59-2.04-4.86-.25-.02-.78-.04-1-.08-2.1-.4-2.55-1.44-2.55-1.44l-8.91-14.23-32.04 2.66z"/><path fill="#4c443f" d="M28.09 96.99c-8.02-.13-13.97 5.55-13.97 13.71 0 6.85 4.66 12.84 13.06 13.19 9.18.39 14.22-6.71 14.35-12.67S37.4 97.14 28.09 96.99"/><path fill="#c8c8c8" d="M27.57 103.06c-4.39.21-7.24 3.36-7.11 7.24s3.1 7.5 7.5 7.37 7.11-3.23 7.24-6.98c.12-3.62-2.2-7.89-7.63-7.63"/><path fill="#4c443f" d="M102.12 98.71c-6.77-4.29-14.81-2.55-19.07 4.41-3.58 5.85-2.76 13.45 4.26 18.07 6.85 4.51 15.4 1.51 18.62-3.51 3.22-5.01 4.05-13.99-3.81-18.97"/><path fill="#c8c8c8" d="M98.38 103.41c-3.86-2.11-8.09-.43-9.85 2.47-2.01 3.32-1.27 8.02 2.55 10.2s7.67.9 9.82-2.18c1.67-2.39 2.25-7.88-2.52-10.49"/><path fill="#1d86fb" d="M4.02 101.68c.8.08 7.39-.05 7.39-.05s1.86-5.18 7.1-8.01c6.47-3.49 14.74-3.1 20.17.78 5.9 4.22 6.59 8.71 6.59 8.71l32.07-.18s1.81-6.85 8.02-10.73c5.81-3.63 14.7-3.12 19.79.65 6.47 4.78 7.11 9.18 7.11 9.18s4.48.02 5.02.02c.23 0-.49-11.27-.49-11.27l-1.29-12.29s-14.22-.13-22.63 2.2-16.04 2.59-27.29 2.46-19.14-1.16-24.7-2.2c-5.56-1.03-13.32-1.81-20.17.13s-8.79 4.78-8.79 4.78-7.76 4.01-8.02 4.78.12 11.04.12 11.04"/><path fill="#ff2a23" d="M110.7 80.21c-.32.66-.11 3.66-.07 6.67.03 2.48-.08 4.52.33 4.77.39.25 5.98-.06 5.98-.06l-.97-10.81-.21-.77c-.01 0-4.91-.09-5.06.2"/><path fill="#fff" d="M6.68 81.12s8.71-.32 9.24.26 0 2-1.06 4.01-2.95 4.96-3.32 5.28-5.03.21-5.03.21L4.62 83.7z"/><path fill="#d7ccc5" d="M4.04 81.17s-.53 2.05-.58 4.75c-.05 2.69.42 4.96.42 4.96h2.64s-.31-2.27-.26-4.81c.05-2.64.63-4.95.63-4.95z"/><path fill="#506d73" d="M56.12 51.19c-1.7.92-6.58 7.28-9.08 10.31s-9.09 10.83-9.55 11.74c-.45.91-.3 2.05 1.14 2.12 1.44.08 39.17.45 39.7.38.53-.08.76-.91.68-1.67s.38-20.68.23-21.59-1.21-1.74-3.03-1.74c-1.6.01-19.18-.04-20.09.45"/><path fill="#afe3fb" d="M57.51 53.37c-.76.45-14.95 17.64-15.31 18.11-.53.68-.54 1.24.36 1.24s32.12.08 32.88.08 1.21-.53 1.14-1.36c-.08-.83.38-16.97.23-17.42s-.53-.98-1.36-.98-17.29-.05-17.94.33"/><path fill="#506d73" d="M86.81 50.75c-.61 0-1.82.53-1.82 1.67s.15 21.82.15 22.5.45.76 1.59.76 20.91-.23 21.74-.23.83-1.06.76-1.82c-.08-.76-2.5-19.85-2.65-21.06s-1.06-1.97-2.27-2.05-17.5.23-17.5.23"/><path fill="#0250ac" d="M44.01 75.26s1.52 2.35 2.63 3.44c1.04 1.02 2.53 1.85 3.96 1.73 1.43-.11 2.33-1.45 2.57-5.69.27-4.69-.78-5.78-2.57-5.83-1.83-.06-2.01.63-3.15 1.72-.62.59-3.44 4.63-3.44 4.63"/><path fill="#489df6" d="M48.4 75.65c1.17-.14 2.03-.83 2.78-2.61s.08-2.96-.67-3.4c-.84-.5-1.67-.33-1.87-.23-.16.08-.82.71-1.48 1.51-.9 1.08-1.66 2.24-1.66 2.24s1.25 2.69 2.9 2.49"/><path fill="#afe3fb" d="M87.87 53.32c-.29.29 0 19.39.23 19.55.23.15 17.95.23 18.18 0s-2.27-19.62-2.58-19.85c-.3-.23-15.53 0-15.83.3"/></svg>