<svg viewBox="0 0 128 128"><path fill="#ffe365" d="M15.1 11.3s-1.4-3.7.3-6.7 5.4-3.2 7-3.1 2.7.1 3.3-.3.8-1.3 1.7-.6 1.2 1.9 1.3 2.6l-.1 2.3s1.8.7 3.6.2C34 5 35 4 36.2 4.5s.4 3.7-.8 5.2c-1.4 1.9-2.7 2.5-3.5 3.5s-1 1.6-2 2c-1.1.5-14.8-4-14.8-4"/><path fill="#fff" d="M17.5 6.8c.7.7 1.8 0 3.2-1s3-1.5 2.7-2.4c-.4-.9-2.9-.6-4.2.2-1 .6-2.5 2.3-1.7 3.2"/><path fill="#474c4f" d="M10.6 17.2s-2.4 1-2.5 6c0 3.1 2.8 8.4 12.3 8.9 10.5.5 13.2-4.3 13.5-8.2.3-4-2-7.7-5.1-9.3s-13-.8-13-.8z"/><path fill="#42a18e" d="m9.1 17.6-.6-2c-.2-.4-.7-1.8-.1-2.5s2.5.6 3.6 0c1.2-.8.3-3.5 1.7-4.3 1.5-.8 2.5 2.4 4.7 2.2 2.3-.3 2.3-3.5 4-3.5s1.7 3.5 3.5 3.9c1.6.3 3.3-2 4.7-.8 1.1.8 0 2.8 1 3.9s2.8.1 3.4.8c.8 1-1.4 4-1.4 4l-8-5.9L14 14z"/><path fill="#add4c1" d="M8 23.2s.5-2.4 2.8-4.8c2-2.3 5.2-4.3 10.5-4 5.1.3 8.7 2.6 10.6 5 1.7 2.3 2 4.5 2 4.5S36.5 12 21 11.5C6 11 8 23.2 8 23.2"/><path fill="#25836e" d="M61.3 99s1-2.6 1.7-3.8c1.2-1.9 2.5-2.6 2.5-2.6l.5-18.4-9-7.8s-16-7.6-15.7-8.3q.6-.7 2.9.4c1 .5 16.7 6.5 16.7 6.5l5-4.6s-9.9-19.8-9.6-20q.5-.5 1.4.5l12 18.8 6-.8s3.2-20.7 3.9-20.7c1 0 .4 6 .2 10l-1.4 13.6 4.3 1.5s14-14.6 14.4-14.5c.2.2.7.7-.2 2s-10.6 15-10.2 15.5l1.3 2c.6.9 3.1 2 3.1 2l16-6.8s.8 1.1-1 2l-15 8s1.5 2.5 1.2 6.5-1.2 5.6-1.2 5.6 4.2 4.5 4.5 8.2-.3 7.6-.3 7.6v1l12.7 5.4s1.7 1 2.2 1.8l4.5 7c1.5 2.4 3.7 6.7 3.4 7s-.7.2-1.4.2H76.5l-20.1-3.3z"/><path fill="#42a18e" d="M102.4 112.5c-.7-2.5-1.8-5.2-1.7-5.8s2.2-1.9 2.2-1.9-3.3-2.8-4.5-3.2-3.1-.4-3.1-.4 0-1.4-1.6-3.2-3.2-5.7-3.2-5.7L89 88.8l-1.5 9 .1 1.6c0 1.3-.9 1.6-.9 1.6s-8 .4-8.6 0c-.6-.3-1.7-.4-1.5-2.2 0-1 1-2 1.7-3.8.5-1.2.1-3.3-1-4.3s-2.7-2-3-3.4.5-2.5 2.1-4.3q2.5-2.5 1.7-5.5-.4-1.7.2-2.6c.6-.9 1.5-.3 2.4 1 1 1.3 2.8 3.8 4.3 4.1s2.9-.8 2.8-3.5c0-2.8-.4-6-2.8-9.5-.6-.9.7-2.5.7-2.5l11.5-15.4c.1-.3-.8-.6-1.3-.2L83 62.1a19 19 0 0 0-5.5-3.3l2.3-20.6s-.8-.6-1.4 1.3C77.7 41.2 74.7 55 74 58a16 16 0 0 0-6.8.7L56.3 40.3s-.6.2.3 2.3l6.8 17.8a13 13 0 0 0-4.4 5.2l-.3.6L41.3 58s-.5.8.6 1.4L57.8 69c-.7 3.1-.5 6.2-.5 6.2v1l1.1 6.5 1.7 7.4s.7 1.2 2 1.5q1.9.3 2 .2a8 8 0 0 1 1.5 2.4c.5 1.1 1.1 2.8.3 3.8s-3.5.9-3.5.9L59.2 96l-6.8-2.3v-1.6s-.4-3.1-1.3-4.8-2.6-2.9-2.6-2.9-.2-2.9-2-4l-2.2-1.3s-.2-4.6-2-8.3-4-7-6.8-15.1-3.7-11.4-4.2-14.5-1.8-5.3-3-7c-1.2-2-2.8-4.2-2.8-4.2s1.6-1.4 1.8-4.3c0-2.4-1.8-5.9-6.6-6-4.9-.2-7 3-7 6-.1 2.5 1.9 4 1.9 4s-2.7 5.4-2.6 6.5c0 1 .8 1.9 1.2 2.2l1.8 1.8-.2 10.3s.8 1 3 .9c1.9-.2 3-3 3-3s.3 5.6 1 11.4 2.5 13.3 2.5 13.3l7.9 16.2-1.8 14.6 2.5 14.9s-.2 4 .1 4.7q.4.5 1.2.4l44.6-.2s-.8-1.6-2.6-2-3 .1-3.7-.8 1.5-3.3 1.8-3.7l15-15.7s2-.5 2.7.8c.6 1.2-.7 4.4-.1 7.6l2.3 13.8h10.9z"/><path fill="#42a18e" d="M57.5 75.2S44.8 80 45.2 81s13.1-1.6 13.1-1.6zm1 7.7a49 49 0 0 0-8.8 8.2c.6.6 10-4 10-4z"/><path fill="#25836e" d="M18.5 25.8c-.3-.3-1.3-.6-1.2-1.4q.1-1.3 3-1.3c2.8 0 3.7 1.7 4.7 3.2.4.6.5 2.7-.4 3.1s-6.1-3.6-6.1-3.6"/><path fill="#add4c1" d="M22 32.1c.2.8 0 3 .3 4.7q.6 3 2.2 3c2.3-.1 1.2-8 .9-8.8-.3-1-2-3.3-3.1-4.4-.5-.4-4-1.9-4.4-1.5-.6.5-.3 1.7 2 3.6a9 9 0 0 1 2.1 3.4m-3.5-2.7c0 1.1-1 1.3-1 1.3s.4.6.2 1.3-1.6 1-1.6 1 .6.4.4.9c-.3 1-1.3.8-2.2 1.5-.6.4-1.3 1.4-1.3 1.4s-1-1.2-.6-3.5c.3-1.5.9-4 1.4-4.4 1.5-1.3 4.5-.8 4.7.5m-3.7 10s.2-2.2 1.7-3c1.7-1 2.3 0 2.6.2s-.1 10.5-.2 11.2-1.5 3.6-2.8 3.1-1.4-4.7-1.3-7.3zm93.3 84.5q.4.3 1 0c.7-.3 1.5-5.4 1.3-9.8-.1-4-.4-4.6-.4-4.6s-1.7-2.1-4.3-4.4c-2.2-2-7.4-3.6-7.4-3.4 0 .5 3.2 2.6 5.2 7.2a77 77 0 0 1 4.6 15M90.1 86c0 .3-.5 1.7-.4 3.2.2 1.6 1.1 3.5 1 3.6s-.6.4-1.2 2c-.6 1.5-.1 4-.7 4-1.6.2-4.4-4-4.2-8.4.4-6.6 5.5-4.4 5.5-4.4m-2.4-9c.3 0 .6 1.7-.3 2.2s-2.6.2-3.4-.8c-1.2-1.5-7.8-16.2-19.4-9.8-4 2.2-5.1 6.1-5.2 10.5 0 5.3 1.4 11.1 1.2 11.4-.3.6-.8-.6-1.3-1.8s-1.5-5.2-1.5-10.2c0-4.8 1.4-9.8 6.4-12.2 12.4-6 20 7.6 20.5 8.8s1.5 2.4 3 2M25.5 44.4c-1 .4-.9 16.3-1.2 24.2 0 0 .4 2.9 1.5 6.7C27 79.8 31.6 93 31.5 94c-.2 1-3 7.3-3.5 8.8s-1.1 3.2-.5 5q.6 1.5.8 1.6c.2.1-1.7 4.1-1.3 6.2s2.3 3 4.3 3.5c1.3.4 3.6-.1 3.3-1.5s-2.5-6.7-2-9.4q.9-4.7 2.1-7.8c1.2-3 5.8-14.2 7-15.9 1.1-1.6 3.5-1.4 3.7-2s-5-3.9-7.8-6.2-5.1-5.1-5.1-5.5c0-.8.3-13-.2-14.6s-1.8-4.9-3.5-7.7c-1.5-2.4-2.2-4.4-3.3-4"/><path fill="#add4c1" d="M43.6 92c-.4-.4-2.3.5-3.8 5.4-1.3 4.1-2.7 11.7-.7 11.7 1 0 2.6-4.3 4.2-6.6 1.2-1.9 2.7-3.8 2.6-4.6s-2.5-.4-2.5-1.6c.1-1.8.6-4 .2-4.3m41.7 24.3c-2.3-1.7-3.5-2-3.5-2s2-3 4-5.4 6.6-7 6.5-7.5q-.2-1-10.2-1c-10 0-11.5.5-12.5.3s-3.3-2.2-5.3-2.5l-3-.5s-.7-1.2-4.1-2.9q-3.8-1.5-4-1.4c-.3 0-.3-1.2-.7-1.6-.2-.2-1.7 1.5-2.6 3.1s-1.4 3.3-1.8 3.8-1 1-4.1 5.9-6 11.3-7.3 15c-1.4 3.7-1.4 4.4-1.4 4.4h3.1s.5-3.7 2.7-9c2.3-5.5 4.7-9 5-8.8s-1.5 7.6-2.5 10c-1 2.6-3.4 7.8-3.4 7.8h7s5.5-6.4 10.2-10.6 10-7.6 12.5-8.7c2.5-1.2 4.7-1.8 4.7-1.3s-7.3 4.8-10.5 7.6c-3.1 2.7-12.8 13-12.8 13H61s2.3-5 4-7.9c1.7-2.8 4-5.8 4.3-5.9s-1 5.1-2.5 8.4c-1.4 3.5-2.6 5.3-2.6 5.3H70l3.6-10.2c1.4-4 2.6-7.8 3-8l5.8-2c2.1-.7 4-1.7 4.3-1.3s-6.4 8.2-8.2 10.6c-2 2.7-5.8 6.7-5.1 7.2s2-1.3 4.8-1 7.1 4.7 7.1 4.7h7.2s-4.3-5.6-7.1-7.6m-31-16.3c3.3-4 4.7-3.6 4.7-3.6s.4 2.2-2.5 5.2c-2.5 2.8-6 5.8-6.2 5.4s1.6-3.8 4-7m2.5 11.3c-1.3 1.1-8.5 5.7-8.9 5-.3-.5 4.7-6.4 7.4-8.2s12.9-4.3 13.1-3.8-10.1 5.8-11.6 7m17.6-35.5c-2.3.2-3.1 1.6-4.1 1.5-.7-.1-3.2-2.5-3-3.7q.4-1.5 3.7-1.6c1.5 0 2.2.5 3 1 .6.3.8-.8.3-1.2q-1.2-1.4-4.1-1.4c-2-.1-2.9.4-4.8.1-.6 1.2-1.2 1.6-2 2.6s-1.4 1.6-2 3.2c-.7 1.2-.7 3 0 2.9s.8-2 1.1-2.7c.8-1.7 1.4-1.7 2-1.5.4.1.7 1.2.4 2l-1 1.3c-.7 1.2-.4 1.8-.8 3-.3.6-1.2 1.8-1 3 .2 2 .6 2.3 1 3.3s.6 2.3 1.4 2.6 1.3-1.2 3-1.8c2.3-1 3.3-.5 4.4-1.2 1.5-1 2.3-3.1 3.4-4.1 1.7-1.6 3.4-3.1 3.3-4.7-.1-1.8-2-2.7-4.2-2.6M68 85.3c-1.1.6-2.5 1.3-3 .5-.5-1-.2-2.6-.2-2.6v-1.7c0-1.1 0-2.5.7-2.7.7-.1 3 .3 3.3 1 .5 1 0 1.6 0 1.6s1.5.2 1.7 1.4c.1 1.3-1 1.7-2.5 2.5"/><path fill="#add4c1" d="M68.6 82.2q-.5 0-1.4.6-.9.4-1 1c-.3.6.4 1.1 1.8.3 1.3-.7 1.2-1.7.6-1.9"/><path fill="#484a4e" d="m86.2 73.8.3.5c.7 1.5 2.1 2.6 2.5 2 .4-.3-.1-1.8-.7-3.4zm-2-7.5c-2.6-3-7.2-6.5-13.5-6.2-10 .4-12.6 9.8-11.6 10 .8.3 2-6.3 11.7-6.6C75 63.5 79 66.1 82 69zm2.4 3.2-1-1.6-2.4 2.2q1.2 1.3 2 2.5l2.3-1.4q-.5-1.2-.9-1.7"/><path fill="#42a18e" d="m89.7 71.3 17.4-7.8s-.3-.8-1.3-.5L88 68.4zM66.4 59.5l1 5.3 2-.5-.6-5.2zm7.3-.7-1 5.7 1.8.3 1.6-5.7zm-11 3.6 1 3.8-1.5.8-1.7-3.2zm17.8-1.1-3 5 1.4 1 3.6-4.6z"/></svg>