<svg xmlns="http://www.w3.org/2000/svg" width="1em" height="1em" viewBox="0 0 128 128"><path fill="#ffe365" d="M15.12 11.25s-1.44-3.66.26-6.65 5.41-3.19 7.11-3.14 2.58.15 3.19-.26.77-1.29 1.75-.62 1.13 1.91 1.24 2.63c.1.72-.1 2.27-.1 2.27s1.85.76 3.65.2c1.8-.57 2.69-1.54 3.98-1.17 1.29.36.44 3.65-.77 5.2-1.44 1.86-2.77 2.51-3.54 3.49s-.94 1.62-2.02 2.08c-1.1.45-14.75-4.03-14.75-4.03"/><path fill="#fff" d="M17.54 6.82c.63.71 1.8-.05 3.19-.98s2.99-1.55 2.63-2.42c-.36-.88-2.83-.67-4.17.15-1 .62-2.48 2.32-1.65 3.25"/><path fill="#474c4f" d="M10.58 17.23s-2.42.97-2.47 5.92c-.03 3.16 2.83 8.41 12.26 8.92 10.49.57 13.19-4.28 13.5-8.19.31-3.92-1.96-7.68-5.1-9.27s-12.88-.82-12.88-.82z"/><path fill="#42a18e" d="M9.14 17.59s-.45-1.24-.69-1.96c-.13-.39-.68-1.78-.06-2.51.62-.72 2.52.63 3.64-.07 1.2-.76.24-3.42 1.67-4.22 1.49-.84 2.51 2.39 4.66 2.16 2.38-.25 2.35-3.48 4.05-3.53s1.66 3.59 3.52 3.94c1.6.3 3.28-1.91 4.7-.82 1.11.85-.01 2.87 1.02 3.9s2.77.13 3.38.86c.77.93-1.48 3.93-1.48 3.93l-8.02-5.86-11.54.57z"/><path fill="#add4c1" d="M8.09 23.21s.41-2.4 2.71-4.86c2.09-2.23 5.16-4.3 10.45-4 5.16.3 8.72 2.64 10.64 5.1 1.74 2.24 1.98 4.42 1.98 4.42s2.61-11.83-12.77-12.36c-14.97-.5-13.01 11.7-13.01 11.7"/><path fill="#25836e" d="M61.31 99.06s.92-2.65 1.68-3.82c1.24-1.91 2.52-2.61 2.52-2.61l.47-18.47-8.95-7.74s-16.07-7.59-15.76-8.3c.28-.67 1.57-.25 2.93.37 1.03.46 16.67 6.46 16.67 6.46l4.94-4.59S56 40.55 56.32 40.35c.28-.17.77-.29 1.37.52.4.54 11.95 18.78 11.95 18.78l6.06-.79s3.18-20.71 3.89-20.68c1.09.05.43 6.03.16 10.11-.23 3.45-1.34 13.55-1.34 13.55l4.29 1.49s14.07-14.67 14.35-14.49c.28.19.71.67-.13 1.88S86.27 65.79 86.71 66.27c.34.39.82 1.32 1.33 2.09.56.84 3.06 1.87 3.06 1.87l16.04-6.72s.73 1.09-1.04 1.93-15.04 7.98-15.04 7.98S92.56 76 92.3 80c-.26 4.01-1.16 5.62-1.16 5.62s4.14 4.52 4.46 8.21c.32 3.68-.3 7.54-.3 7.54l.09 1.01 12.64 5.4s1.63 1.09 2.14 1.84 2.99 4.46 4.56 6.9 3.64 6.74 3.37 7.02-.75.26-1.43.26h-40.2l-20.1-3.29z"/><path fill="#42a18e" d="M102.36 112.48c-.7-2.45-1.72-5.17-1.66-5.81s2.19-1.84 2.19-1.84-3.32-2.8-4.49-3.2c-1.17-.41-3.15-.47-3.15-.47s.06-1.4-1.51-3.2-3.2-5.65-3.2-5.65l-1.51-3.5-1.57 8.97s.19.99.17 1.63c-.04 1.33-.93 1.63-.93 1.63s-8.01.35-8.55.05c-.61-.34-1.71-.53-1.59-2.26.07-.99 1-2.02 1.72-3.8.5-1.23.12-3.29-1.05-4.34s-2.65-1.99-2.89-3.39c-.23-1.4.47-2.51 2.1-4.25 1.63-1.75 2.15-3.58 1.71-5.59-.25-1.14-.28-1.99.13-2.6.59-.86 1.48-.21 2.47 1.07.98 1.28 2.76 3.8 4.22 4.1s2.9-.78 2.86-3.5c-.05-2.85-.41-5.95-2.81-9.5-.61-.9.73-2.5.73-2.5s11.34-15.17 11.41-15.45c.06-.28-.78-.58-1.24-.17-.42.38-11.29 11.35-13.08 13.15-1.54-1.31-3.34-2.49-5.4-3.27-.04-.02-.07-.03-.07-.03l2.3-20.54s-.72-.57-1.39 1.33c-.59 1.69-3.62 15.36-4.29 18.39-1.69-.21-3.51-.14-5.46.31-.46.11-.89.23-1.31.36L56.3 40.31s-.62.15.26 2.26c.78 1.88 5.81 14.99 6.89 17.81-2.13 1.44-3.53 3.31-4.45 5.21-.16.35-.25.6-.25.6L41.26 58.1s-.49.77.59 1.44c.98.61 13.63 8.17 15.92 9.57-.71 3.09-.47 6.18-.47 6.18l.06.94 1.08 6.62 1.63 7.38s.74 1.2 1.98 1.51c1.23.31 2.1.2 2.1.2s.96 1.24 1.49 2.39c.5 1.1 1.1 2.79.24 3.78s-3.49.86-3.49.86-2.97-2.7-3.23-2.84c-.26-.13-6.79-2.37-6.79-2.37l.07-1.58s-.4-3.1-1.32-4.75-2.64-2.9-2.64-2.9-.2-2.9-1.98-3.96-2.24-1.38-2.24-1.38-.2-4.55-1.98-8.24-3.96-7.06-6.79-15.17c-2.84-8.11-3.69-11.41-4.22-14.51s-1.8-5.24-2.97-7.06c-1.19-1.85-2.79-4.13-2.79-4.13s1.58-1.42 1.74-4.25c.14-2.41-1.75-5.9-6.59-6.07-4.85-.17-6.94 3.01-7.02 6.03-.07 2.49 1.91 4.02 1.91 4.02s-2.65 5.43-2.59 6.49c.07 1.06.87 1.89 1.2 2.22S16 40.25 16 40.25l-.22 10.37s.78.99 2.93.84c1.97-.14 3.03-2.94 3.03-2.94s.34 5.56 1 11.36 2.57 13.34 2.57 13.34l7.85 16.16-1.78 14.64 2.55 14.84s-.27 4.06.11 4.77c.2.38.75.34 1.21.34s44.57-.15 44.57-.15-.81-1.63-2.61-2.04c-1.81-.41-3.09.17-3.73-.76s1.51-3.32 1.86-3.67 14.91-15.79 14.91-15.79 2.1-.41 2.74.82c.64 1.22-.7 4.43-.12 7.63s2.33 13.81 2.33 13.81h10.89s-3.03-8.89-3.73-11.34"/><path fill="#42a18e" d="M57.48 75.18s-12.63 4.91-12.3 5.83S58.3 79.4 58.3 79.4zm.96 7.68c-.21-.17-9.1 7.75-8.7 8.21.52.6 10.02-3.89 10.02-3.89z"/><path fill="#25836e" d="M18.46 25.84c-.28-.33-1.26-.66-1.12-1.45.14-.8 1.03-1.4 2.9-1.31s3.8 1.72 4.73 3.18c.4.62.51 2.71-.37 3.14-.9.41-6.14-3.56-6.14-3.56"/><path fill="#add4c1" d="M22.02 32.11c.19.75.01 3.03.33 4.73.38 2.02 1.17 3 2.2 2.95 2.25-.09 1.18-7.91.85-8.84-.33-.94-1.97-3.3-3.1-4.33-.49-.45-3.95-1.89-4.41-1.5-.55.48-.31 1.67 1.92 3.61 1.56 1.35 2.21 3.38 2.21 3.38m-3.56-2.67c.09 1.08-.98 1.22-.98 1.22s.47.61.23 1.31c-.23.7-1.64 1.03-1.64 1.03s.59.35.41.9c-.29.93-1.29.83-2.15 1.45-.6.44-1.29 1.47-1.29 1.47s-1.1-1.18-.63-3.49c.32-1.58.88-3.99 1.41-4.45 1.45-1.27 4.52-.75 4.64.56m-3.61 9.89s.19-2.16 1.64-3c1.69-.98 2.34.05 2.58.28s-.09 10.5-.19 11.16c-.09.66-1.48 3.66-2.74 3.14-1.27-.52-1.43-4.69-1.38-7.27.04-2.58.09-4.31.09-4.31m93.29 84.47c.19.19.66.15 1.01 0s1.44-5.43 1.27-9.79c-.15-3.96-.46-4.57-.46-4.57s-1.67-2.18-4.26-4.42c-2.25-1.94-7.38-3.64-7.4-3.43-.05.56 3.15 2.65 5.16 7.21 1.82 4.13 3.26 9.01 3.62 10.63.35 1.63.81 4.12 1.06 4.37M90.07 85.94c.05.25-.5 1.63-.36 3.13.15 1.67 1.09 3.51 1.04 3.66s-.66.35-1.27 1.93c-.61 1.57-.11 4.1-.64 4.13-1.65.09-4.46-4.12-4.2-8.48.4-6.6 5.43-4.37 5.43-4.37m-2.41-9c.39-.12.61 1.63-.23 2.2-.83.58-2.64.17-3.4-.8-1.23-1.56-7.83-16.19-19.42-9.87-4.07 2.22-5.14 6.14-5.21 10.53-.08 5.31 1.41 11.13 1.24 11.45-.32.58-.87-.61-1.29-1.8-.45-1.25-1.56-5.26-1.57-10.29-.01-4.73 1.43-9.79 6.44-12.2C76.59 60.2 84.21 73.85 84.73 75c.52 1.16 1.45 2.39 2.93 1.94m-62.15-32.4c-1.03.39-.89 16.27-1.26 24.11 0 .03.45 2.92 1.53 6.78 1.24 4.41 5.85 17.45 5.69 18.54-.17 1.09-2.97 7.36-3.47 8.87-.5 1.5-1.1 3.14-.51 5.05.29.95.85 1.55.85 1.55s-1.75 4.09-1.34 6.18c.42 2.09 2.33 3.02 4.31 3.51 1.27.32 3.63-.17 3.3-1.5-.33-1.34-2.47-6.72-1.97-9.47.57-3.13 1.22-5.57 2.06-7.74s5.77-14.2 6.94-15.88c1.17-1.67 3.6-1.44 3.76-2.1.17-.67-5-3.82-7.76-6.16s-5.14-5.08-5.14-5.45c-.02-.79.34-13.08-.16-14.67s-1.89-4.86-3.56-7.66c-1.45-2.4-2.18-4.38-3.27-3.96"/><path fill="#add4c1" d="M43.58 91.95c-.4-.31-2.3.53-3.79 5.42-1.27 4.18-2.69 11.78-.72 11.71.98-.03 2.68-4.33 4.22-6.62 1.22-1.82 2.69-3.74 2.59-4.56s-2.5-.38-2.45-1.63c.08-1.79.59-3.98.15-4.32m41.7 24.32c-2.33-1.71-3.44-1.99-3.44-1.99s1.94-3.01 3.93-5.38c1.99-2.38 6.64-6.93 6.5-7.47-.15-.53-3.39-1.16-10.13-1.02-6.74.15-11.59.44-12.55.24-.97-.19-3.3-2.18-5.33-2.47-2.04-.29-2.91-.48-2.91-.48s-.78-1.21-4.17-2.86c-2.42-1.17-4.07-1.45-4.07-1.45s-.26-1.24-.64-1.62c-.19-.19-1.63 1.51-2.57 3.14s-1.44 3.33-1.78 3.82-1.1.91-4.16 5.86-5.9 11.26-7.26 14.97c-1.36 3.7-1.45 4.42-1.45 4.42l3.19-.03s.45-3.63 2.68-9.03c2.23-5.41 4.65-8.92 4.91-8.77s-1.46 7.63-2.44 10.13c-.98 2.49-3.43 7.68-3.43 7.68h7.05s5.5-6.32 10.15-10.59 10-7.53 12.5-8.71c2.49-1.17 4.71-1.75 4.74-1.3s-7.3 4.88-10.48 7.6c-3.17 2.72-12.79 12.98-12.79 12.98l9.67-.02s2.34-4.99 4.04-7.78c1.7-2.8 3.89-5.89 4.27-5.93s-1.1 5.13-2.47 8.39c-1.47 3.49-2.61 5.32-2.61 5.32l5.65-.03s2.19-6.24 3.66-10.21 2.53-7.74 2.87-8.04 3.82-1.25 5.9-1.97 3.97-1.66 4.31-1.32-6.42 8.28-8.26 10.67c-2.05 2.65-5.73 6.63-5.1 7.16s2.08-1.31 4.8-1.07 7.17 4.74 7.17 4.74l7.21.01c0-.03-4.34-5.52-7.16-7.59m-30.89-16.24c3.18-4.01 4.64-3.61 4.64-3.61s.36 2.14-2.49 5.21c-2.55 2.74-5.97 5.81-6.24 5.36-.26-.42 1.57-3.78 4.09-6.96m2.41 11.31c-1.34 1.08-8.46 5.65-8.89 4.97-.35-.55 4.65-6.46 7.41-8.25s12.87-4.24 13.1-3.77c.19.42-10.12 5.85-11.62 7.05m17.56-35.5c-2.21.11-3.07 1.56-4.1 1.41-.69-.1-3.12-2.48-2.94-3.64.17-1.08 1.53-1.61 3.64-1.61 1.58 0 2.23.46 3.06.95.58.35.75-.74.29-1.2-.87-.87-2.11-1.28-4.11-1.38-1.99-.09-2.9.45-4.79.17-.58 1.2-1.2 1.52-2.07 2.57-.82.98-1.3 1.54-2.03 3.15-.58 1.28-.65 3.13.08 2.94s.81-1.98 1.14-2.73c.72-1.63 1.38-1.71 2.04-1.49.37.12.61 1.24.33 1.99-.13.34-.56.63-.99 1.37-.69 1.17-.41 1.75-.83 2.9-.25.68-1.16 1.84-1.03 3.02.21 1.99.67 2.33 1.03 3.35.38 1.06.62 2.32 1.37 2.57.8.27 1.37-1.2 2.98-1.82 2.32-.9 3.38-.45 4.47-1.15 1.47-.94 2.33-3.14 3.4-4.15 1.7-1.61 3.37-3.11 3.27-4.64-.1-1.84-2-2.69-4.21-2.58m-6.25 9.44c-1.12.57-2.49 1.35-2.98.5-.58-1.01-.21-2.57-.21-2.57s-.08-1.15-.08-1.74c0-1.11.11-2.52.79-2.65.66-.12 3.02.29 3.31.95.44 1-.05 1.64-.05 1.64s1.5.14 1.66 1.38c.18 1.32-.93 1.72-2.44 2.49"/><path fill="#add4c1" d="M68.61 82.22c-.44-.12-.82.17-1.41.54-.49.31-.92.64-1.05.98-.23.62.49 1.17 1.88.38 1.22-.71 1.17-1.74.58-1.9"/><path fill="#484a4e" d="M86.17 73.8c.13.2.23.36.29.48.76 1.47 2.15 2.58 2.58 2.08.31-.36-.15-1.9-.76-3.44zm-1.89-7.47c-2.69-3.06-7.29-6.56-13.62-6.28-9.96.44-12.59 9.85-11.54 10.12.76.2 1.9-6.34 11.64-6.63 4.35-.13 8.36 2.58 11.25 5.34zm2.37 3.14c-.24-.37-.61-.92-1.09-1.55l-2.37 2.18c.83.89 1.54 1.74 2.08 2.45l2.24-1.39c-.35-.78-.67-1.41-.86-1.69"/><path fill="#42a18e" d="m89.74 71.25 17.37-7.73s-.32-.8-1.3-.53c-.96.26-17.79 5.38-17.79 5.38s.52.77.87 1.36c.34.6.85 1.52.85 1.52m-23.39-11.7 1.12 5.21 1.87-.5-.51-5.12zm7.3-.79-.92 5.7 1.77.3 1.62-5.67zm-10.89 3.67.96 3.75-1.52.86-1.67-3.19zm17.77-1.16-2.99 5.11 1.37.86 3.54-4.5z"/></svg>