<svg xmlns="http://www.w3.org/2000/svg" width="1em" height="1em" viewBox="0 0 128 128"><path fill="#ffd61c" d="M30.18 72.92c-.95.86-19.68 2.95-23.47 5.89-2.24 1.74-3.05 4.53-3.37 12.94s-.11 14.1.21 16c.17 1.04 1.7 4.97 4.1 5.47 2.53.53 110.28.21 111.97.21 1.68 0 5.16-3.68 5.05-6.31s-.11-25.89-.21-27.99-4.53-4.31-5.89-5.16c-1.37-.84-4-5.79-5.89-8.31-1.42-1.89-8.1-9.68-14.84-12.94-5.68-2.75-10.73-3.79-23.68-3.68-12.1.1-20.31 1.26-26.73 5.58s-16.2 17.35-17.25 18.3"/><path fill="#fff" d="M5.91 94.64s5.73.09 6.51-.14c1.58-.47 4.47-8.37 3.26-9.45-.5-.44-8.34-.26-8.34-.26z"/><path fill="#feead0" d="m3.26 94.64 3.89.01.22-9.87-3.49.01s-.48 3.5-.55 5.28c-.07 1.77-.07 4.57-.07 4.57"/><path fill="#9a9a9a" d="M57.96 50.36h33.09s-4.19-11.95-5.35-12.57c-.7-.38-22.28-.11-22.79.16-1.29.71-4.95 12.41-4.95 12.41"/><path fill="#536f7d" d="M33.15 79.14c1 1 4.62.97 12.08 1.14 7.46.16 59.76.41 60.57.16s5.43-5.6 5.6-7.05c.16-1.46-9.01-14.52-15.77-17.54-6.22-2.78-30.68-4.33-40.89-.38-6.38 2.46-13.8 10.22-18.75 16.79-2.01 2.66-4.05 5.67-2.84 6.88"/><path fill="#afe3fb" d="M75.48 57.66s-4.71-.27-9.77.08c-3.98.27-8.27.82-11.88 2.92-8.19 4.78-13.22 12.89-12.73 14.03s1.46 1.87 9.89 1.95 24 .05 24.21-.18c0-.25.28-18.8.28-18.8"/><path fill="#dd801b" d="M38.06 82.89c.28.73 2.69 2.34 7.52 2.02 3.94-.27 4.91-4.03 5.11-6.76.27-3.72-2.37-5.91-2.37-5.91s-3.05.9-3.18 1.12-6.72 6.81-6.72 6.81-.72 1.78-.36 2.72"/><path fill="#ffd61c" d="M43.03 81.77c3.9-.13 7.3-7.21 5.73-9.23s-5.15-.08-7.17 2.1c-2.73 2.96-3.18 5.51-3.18 5.51s.6 1.76 4.62 1.62"/><path fill="#afe3fb" d="M80.12 57.72s-.07 18.67-.04 18.68c.85.15 23.6.09 23.83-.09.22-.18 2.69-2.87 2.69-3.31 0-.45-6.31-10.12-12.5-13.3-4.43-2.28-13.98-1.98-13.98-1.98"/><path fill="#ff2825" d="M124.55 82.54s-5.55-.33-6.34.2c-1.02.7-.86 10.39.25 10.93 1.1.53 6.13.09 6.13.09s.02-2.94.02-5.89c0-3.68-.06-5.33-.06-5.33"/><path fill="#4e433d" d="M43.73 94.2h6.56v6.78h-6.56z"/><path fill="#4e433d" d="M50.26 87.45h6.56v6.78h-6.56zm6.56 6.75h6.56v6.78h-6.56zm6.53-6.78h6.56v6.78h-6.56z"/><path fill="#4e433d" d="M69.83 94.17h6.56v6.78h-6.56z"/><path fill="#4e433d" d="M76.33 87.4h6.56v6.78h-6.56z"/><path fill="#4e433d" d="M82.84 94.12h6.56v6.78h-6.56zm-65.03 16.19c.09 5.52 4.49 13.46 14.07 13.52s14.55-7.28 14.25-14.8c-.31-7.64-6.25-13.04-14.8-12.8-8 .24-13.64 6.44-13.52 14.08"/><path fill="#c8c8c8" d="M24.48 109.85c.05 2.91 2.41 7.1 7.56 7.13s7.64-3.62 7.48-7.58c-.17-4.03-3.46-7.03-7.78-6.97-4.3.07-7.33 3.39-7.26 7.42"/><path fill="#4e433d" d="M88.53 110.78c.09 5.48 4.39 13.36 13.77 13.42s14.24-7.22 13.95-14.68c-.3-7.59-6.11-12.94-14.48-12.7-7.83.22-13.36 6.37-13.24 13.96"/><path fill="#c8c8c8" d="M94.79 110.34c.05 2.91 2.41 7.1 7.56 7.13s7.64-3.62 7.48-7.58c-.17-4.03-3.46-7.03-7.78-6.97-4.29.07-7.32 3.39-7.26 7.42"/></svg>