<svg viewBox="0 0 128 128"><path fill="#ffd61c" d="M30.2 73c-1 .8-19.7 2.9-23.5 5.8-2.2 1.8-3 4.5-3.4 13s0 14 .3 16c.1 1 1.7 5 4 5.4 2.6.5 110.3.2 112 .2s5.2-3.7 5-6.3 0-25.9-.1-28-4.6-4.3-6-5.1c-1.3-.9-4-5.8-5.8-8.3a51 51 0 0 0-14.9-13C92.2 50 87.1 49 74.2 49c-12.1.1-20.4 1.3-26.8 5.6S31.2 72 30.2 73"/><path fill="#fff" d="M6 94.6s5.6.1 6.4-.1c1.6-.5 4.5-8.4 3.3-9.4-.5-.5-8.4-.3-8.4-.3z"/><path fill="#feead0" d="M3.3 94.6h3.9l.2-9.8H3.9s-.5 3.5-.6 5.3z"/><path fill="#9a9a9a" d="M58 50.4h33s-4.1-12-5.3-12.6a266 266 0 0 0-22.8.2 63 63 0 0 0-5 12.4"/><path fill="#536f7d" d="M33.2 79.1c1 1 4.6 1 12 1.2s59.8.4 60.6.1 5.4-5.6 5.6-7-9-14.5-15.8-17.6a83 83 0 0 0-40.9-.3A53 53 0 0 0 36 72.3c-2 2.6-4 5.6-2.9 6.8"/><path fill="#afe3fb" d="M75.5 57.7s-4.7-.3-9.8 0c-4 .3-8.3.9-11.9 3-8.2 4.7-13.2 12.8-12.7 14s1.5 1.9 9.9 2 24 0 24.2-.2z"/><path fill="#dd801b" d="M38 82.9c.3.7 2.8 2.3 7.6 2 4-.3 4.9-4 5-6.8.4-3.7-2.3-5.9-2.3-5.9s-3 1-3.2 1.2l-6.7 6.8s-.7 1.7-.3 2.7"/><path fill="#ffd61c" d="M43 81.8c4-.2 7.3-7.2 5.8-9.3s-5.2 0-7.2 2.1c-2.7 3-3.2 5.5-3.2 5.5S39 82 43 81.9"/><path fill="#afe3fb" d="M80.1 57.7v18.7c.8.2 23.6 0 23.8 0 .2-.3 2.7-3 2.7-3.4s-6.3-10.1-12.5-13.3c-4.4-2.3-14-2-14-2"/><path fill="#ff2825" d="M124.6 82.5s-5.6-.3-6.4.2c-1 .7-.9 10.4.3 11 1 .5 6 0 6 0l.1-5.8z"/><path fill="#4e433d" d="M43.7 94.2h6.6v6.8h-6.6zm6.6-6.7h6.5v6.7h-6.5zm6.5 6.7h6.6v6.8h-6.6zm6.6-6.8h6.5v6.8h-6.6zm6.4 6.8h6.6v6.7h-6.6zm6.5-6.8H83v6.8h-6.6z"/><path fill="#4e433d" d="M82.8 94.1h6.6v6.8h-6.6zm-65 16.2c.1 5.5 4.5 13.5 14 13.5s14.6-7.2 14.3-14.8S40 96 31.3 96.2c-8 .3-13.6 6.5-13.5 14.1"/><path fill="#c8c8c8" d="M24.5 109.9c0 2.9 2.4 7 7.5 7s7.7-3.5 7.5-7.5-3.4-7-7.8-7a7 7 0 0 0-7.2 7.4"/><path fill="#4e433d" d="M88.5 110.8c.1 5.5 4.4 13.3 13.8 13.4s14.2-7.2 14-14.7c-.3-7.6-6.2-13-14.5-12.7-7.9.2-13.4 6.4-13.3 14"/><path fill="#c8c8c8" d="M94.8 110.3c0 3 2.4 7.1 7.6 7.2s7.6-3.7 7.4-7.6c-.1-4-3.4-7-7.7-7a7 7 0 0 0-7.3 7.4"/></svg>