<svg xmlns="http://www.w3.org/2000/svg" width="1em" height="1em" viewBox="0 0 128 128"><path fill="#ee3e23" d="m66.75 58.39-.5-32.18s-.64-20.15-.64-21.75-.32-2.99-1.2-3.07-1.75.58-1.83 2.75-.5 21.44-.5 21.44-2.69-.02-2.74.37c-.11.8-.63 17-1.19 23.1s-2.87 21.75-5.76 29.39c-1.44 3.8-4.7 11.51-7.89 16.97-3.21 5.51-7.4 11.35-9.91 14.86-5 6.99-7.88 9.48-7.06 10.27.38.37 10.36.17 10.36.17s6.39-8.84 7.94-11.13c2.09-3.09 4.67-5.07 7.89-4.57 2.22.35 4.08 1.93 4.54 5.52.61 4.66.79 12.46 1.36 12.9.87.69 6.99.68 6.99.68zm-6.89 42.62c-.99.46-3.19-.87-5.45-1.16s-3.94.64-5.1-.46.46-4.06 1.91-6.84 4.58-7.88 6.2-7.53c1.73.37 2.32 4.87 2.84 8.69.3 2.18.58 6.83-.4 7.3m-2.03-18.37c-.52-.06-2.07-3.9-1.62-4.35.46-.46 4.29-.06 4.52.46s-2.38 3.95-2.9 3.89m1.1-6.96c-1.51-.06-2.13-.99-2.03-1.85.17-1.45 1.17-1.86 2.38-1.62 1.27.25 1.63.99 1.68 1.85.06.93-.52 1.68-2.03 1.62"/><path fill="#ee3e23" d="m52.25 89.42 6.49 12.64 2.43-1.62-7.62-14.59c.01 0-.79 2.55-1.3 3.57"/><path fill="#ee3e23" d="M59.97 87.79 47.86 99.27l1.97 1.68 11.19-10.14z"/><path fill="#e3e1df" d="m64.32 28.4-5.11.1s-.15 3.19-.21 4.24c-.06 1.04-.13 3.72-.13 3.72h6.03z"/><path fill="#c9c7ca" d="M62.25 16.71h3.77l-.29-8.93h-3.3z"/><path fill="#e3e1df" d="m64.32 45.84-5.94-.11s-.09 1.96-.32 4.16c-.17 1.64-.58 4.35-.58 4.35l8 .06z"/><path fill="#c9c7ca" d="M64.85 62.93S51.16 63 50.58 63s-1.66.84-.35 2.73c.93 1.34 3.72 4.79 4.24 4.92s10.66 0 10.66 0z"/><path fill="#cd3001" d="M101.59 118.7c-.44-.53-5.14-6.25-9.2-12.11s-8.02-12.01-10.27-16.34c-4.51-8.67-6-13.92-8.41-23.21-1.24-4.78-2.66-10.12-3.76-24.98-1.02-13.8-.4-16.23-.96-16.28-.46-.05-4.97-.15-4.97-.15s.17 17.55.31 32.92c.14 15.05.81 65.54.81 65.54s.73.03 1.7.03c1.76-.01 4.31-.09 4.62-.38.54-.52.58-10.43.85-14.21.3-4.22 4.85-7.07 9.44-2.8 5.13 4.78 10.22 13.93 10.84 14.38.78.56 8.75.09 9.73.09.95-.03.15-1.44-.73-2.5M69.41 72.05c1.18-.33 2.49.19 2.71 1.11.21.92.05 2.12-1.69 2.32-1.41.16-2.16-.24-2.34-1.39-.17-1.09.47-1.8 1.32-2.04m-.77 6.75c.29-.7 3.76-1.31 4.21-.66s-.39 4.39-1.39 4.44c-1 .04-3.04-3.26-2.82-3.78m11.97 20.34c-.9.9-1.83.43-5.17 1.07s-4.23 1.56-5.45 1.36c-1.22-.19-1.08-2.9-.76-7.65s1.39-8.66 2.95-8.94c2.11-.37 4.37 4.32 5.65 6.69s3.68 6.57 2.78 7.47"/><path fill="#cd3001" d="m76.53 86.34-7.84 16.13 3.41.06 6.48-14z"/><path fill="#cd3001" d="m69.27 86.92 13.43 13.1-3.41.52-11.31-10.67z"/><path fill="#c9c7ca" d="m64.04 28.41 5.25.01.29 7.94-5.51.12zm.16 17.4 6.06.06.4 3.97c.19 1.82.51 4.4.51 4.4l-6.92.04z"/><path fill="#afb1b0" d="M64.37 62.93s11.66-.03 12.8-.03c1.17 0 1.68.69 1.3 1.56-.38.86-3.38 5.18-3.83 5.94-.13.22-10.19.25-10.19.25z"/></svg>