<svg viewBox="0 0 128 128"><path fill="#5e6268" d="M48 60.1V35q-.1-6-2-8.2c-1.9-2.2-2-2.2-2.9-2S40 27.1 40.3 28s2.2 2 2.6 4.3.3 4 .3 4-1.5 0-1.6 1.2 0 23.9 0 23.9z"/><path fill="#5e6268" d="m68.2 30.1-12 38-14.6 6.6-16.5 3.1-1 9.6-12.4 5.7s.3-4.7-.4-5.1-9.7 3.5-9.7 4.7l.3 9.6c0 .4 7.5 4.2 8.2 4.5s39.2 1.2 39.2 1.2l14.8-.4c6.4 0 17.8-.3 17.8-.3l32.6-28h8.7l-2.2-5.2-9-5s-.4-11.7-1.2-20.8-1.1-16.7-1.1-16.7z"/><path fill="#02ab47" d="M46.2 84.7s1.5-2 3.8-2l8.6-.4s.8-9.5 1.3-13.4l1.4-9.4-5.8-5.3-3.4 4.9-10.3 4-16.7 5.1 1.2 11.5 9.8-.2z"/><path fill="#afe2fb" d="m52.1 59 9.2.5S63.5 51 66 43.4s5-13.7 5-13.7l-9 2.2s-3.2 7.5-5.6 14C53.5 53.5 51.8 59.6 52 59"/><path fill="#1a1a1a" d="M48.5 86.7s1-1.6 2.6-1.8 7.3 0 7.3 0v9.7h-5z"/><path fill="#afe2fb" d="M66.4 82.8c.2.6 8.7.3 8.7.3l11.4-13 5.8-2-.6-20.5c-.3-8.1-.3-18-.3-18L77.2 31s-1.5 3.1-2.2 5-1.4 4.7-1.4 4.7 3.7-.4 3.9.1-2.4 11-2.7 11.2-4.5 0-4.5 0-2.2 7.3-3 15.2c-1 8-1.2 15-1 15.6"/><path fill="#94c7ea" d="M97 36q-1.3 0-1.1 2.3C96 39.7 97 61 97.2 61.9s.3 1.7 2 1.7l7.2-.1c.7 0 1.4-.9 1.2-2.5s-1.3-22.2-1.4-23.3-.7-1.5-2-1.6z"/><path fill="#76de88" d="M15.5 69.4s.7-2.4 5-4.3c4.2-2 10-3.5 16-4.6s14.9-1.4 15.6-1.4c2.5 0 3.9 2 2.4 2.5-.8.3-4.5.5-13.9 3C33.1 66.6 30 69 30 69l-7.4 1.6z"/><path fill="#02ab47" d="M62 32.7c4.1-.2 14.7-.2 24 0l23.9.6c1.2 0 2.6-1.4 2.5-3.2s-2.6-2.7-7.4-3.2c-3-.3-10.6-1-19.9-1.1s-17.4-.1-21.1 1.1c-3 1-4.3 3-4.2 4.5s1.1 1.3 2.2 1.3m6.3 61.8c.2.6 2.5.9 3.1.4s4.3-8.4 8.7-14.2c4.7-6.2 6.7-7.5 7.5-7.8a76 76 0 0 1 16.3-1c6.3.3 12 1.5 14.4 3s4 4.4 5 4.4.2-5-3.2-8c-3.3-2.8-9.7-3.3-16-3.8-4.8-.3-18.3.7-19.9 1.3-2.3.7-5 4.6-8.7 10.8-2.7 4.5-7.5 14-7.2 15"/><path fill="#2c7e33" d="M15.5 69.4s14.1-.8 14.4-.4c.4.6-.8 3.4-1.8 6.3s-3 11.2-3 11.2L12.8 93l1-15.2c.2-3.5.6-7.4 1.6-8.3"/><path fill="#868586" d="m51.9 108 4.4-.2s3-12.6-7.9-23.3C39 75.2 25.1 78 25.4 80c.2 1.6 13.5-1.5 21.4 8.3 8 10.1 5 19.6 5 19.6"/><path fill="#1a1a19" d="m14.3 73.1 10 .1q2.5.1 2.3 1c0 .4-.4.8-2.2 1l-10.4.6.1-1.4zm-.5 5.5 7.7-.1q2.9 0 2.8.8c0 .5-1.3 1-2.8 1.2l-7.9.9v-1.5zm-.3 5.4 5.2-.2c1.5 0 3.3-.2 3.3.4s-.8 1.5-2.3 1.7l-6.4.6v-1.2z"/><path fill="#302f2f" d="M124 99.3a25 25 0 0 1-50.1 0 25 25 0 0 1 25-25.3A25.4 25.4 0 0 1 124 99.3m-73.8 4.1c0 11.4-9 20.6-20.4 20.6s-20.7-9.5-20.7-21 9.2-20.7 20.7-20.3c11.9.4 20.4 9.3 20.4 20.7"/><path fill="#f3790e" d="M41.2 103.7c0 6.1-3.8 11.4-11.5 11.4-7 0-11.2-5.2-11.6-10.5-.4-6.8 4.2-12.6 11.2-12.6 7.6 0 12 5.4 12 11.7"/><path fill="#fe8f01" d="M37.9 103.7c0 4.6-3.8 8.4-8.5 8.4a8.4 8.4 0 0 1 .2-16.8c4.6 0 8.3 3.7 8.3 8.4"/><circle cx="29.6" cy="103.6" r="4.8" fill="#fcb900"/><path fill="#f3790e" d="M114.1 100.1c0 8-5.2 15-15 15a15 15 0 0 1-14.8-13.7C83.6 92.5 89.6 85 98.7 85c9.8 0 15.4 7 15.4 15.1"/><path fill="#fe8f01" d="M109.8 100.1c0 6-5 10.9-11 10.9a10.8 10.8 0 0 1 .2-21.7c6 0 10.8 4.8 10.8 10.8"/><path fill="#fcb900" d="M105.3 100c0 3.4-2.8 6.3-6.2 6.2-3.7-.2-6.2-2.8-6.2-6.2a6.2 6.2 0 0 1 12.4 0"/><path fill="#8e736e" d="M42.2 86.8s-2.2 3-2.2 3.3c0 0 1 .6 1.7 1.3l1.5 1.7c.2 0 3.1-2 3.1-2s-.9-1.4-1.9-2.4zm6.5 8.4s-3.2 1.5-3.2 1.7L46 99c.3 1 .3 2.1.5 2.2s3.7 0 3.7 0 0-2-.4-3.2zm1.5 10.6-3.5-.6-.6 2.4-.7 1.9c0 .2 3.4 1.7 3.4 1.7l.8-2.5zm-3.8 10s-2.8-2.5-3-2.5-1 1.2-1.6 1.8l-1.6 1.6 2.2 3.2s1.4-1 2.3-2zm-8 6.5-1.5-3.6-2.4.7-2.2.5.1 4 2.9-.5q2.9-.8 3-1m-15-3.6-2 3.5a21 21 0 0 0 6 1.7s.5-4 .3-4q-.4-.2-2.2-.5zm-7-5.3-3.1 2a23 23 0 0 0 4.1 4.3l2.3-3.1-1.8-1.5c-.8-.8-1.3-1.7-1.5-1.7M13 105H9.3l.4 3.2c.4 1.6 1.2 3 1.2 3l3.4-1.7-.8-2.2zm-3.8-3.7 3.8.2.3-2.1.7-2.2c0-.2-3.4-1.9-3.4-1.9s-.7 1.9-1 3.2-.4 2.8-.4 2.8m4-10.8 3 2.7 1.8-1.8c1-1 2-1.6 2-1.7 0-.3-2.3-3.5-2.3-3.5s-1.3.8-2.5 2-2 2.3-2 2.3m8.6-6.5 1.7 3.6 2-.8 2.5-.4c.2 0-.2-3.8-.2-3.8s-1.4 0-3.2.4q-2.7.8-2.8 1m10.5-1.2-.3 3.7c0 .2 1.5.3 2.4.6l2.1.7c.2 0 1.9-3.3 1.9-3.3s-1.7-.8-3-1.1c-1.7-.5-3-.6-3-.6m61-8.3 1.3 4.3q.1.2 3-.2l2.8-.1c.2 0 .6-4.6.6-4.6s-1.2-.3-4 0c-2.5 0-3.7.6-3.7.6m14.1.8-1.3 3.8 2.6 1.5 2.2 1.5 3-3.2s-1.3-1-3.2-2q-3.1-1.7-3.2-1.6m10.4 7.4s-2.7 2.8-2.7 3 1 1.4 1.5 2 1 2.3 1.2 2.4 3.8-1.4 3.8-1.4-.8-2-1.7-3.4-2.1-2.6-2.1-2.6m5.5 11.1-4.2 1.1c-.2.1.2 1.7.3 3v3c0 .2 4.4.6 4.4.6s.2-1.6.1-3.7c-.1-2-.6-4-.6-4m-.6 13-4.2-1.4c-.2 0-.7 1.4-1.2 2.4l-1.3 2.3c0 .2 3.8 2.7 3.8 2.7s1-1.3 1.8-2.8zm-6.8 10.6s-3.3-3.3-3.4-3.2l-2 1.8-2.5 1.5c-.2.2 1.7 4.2 1.7 4.2s1.5-.5 3.4-1.9q2.9-2.2 2.8-2.4m-18.6 6.8 1-4.5h2.7c1 0 2.4-.5 2.5-.4l1.4 4.2s-2 .6-4 .7zm-8.4-6.8-2.4 3.6 2.9 1.5 3.6 1 1-4.2-2.7-.8c-1.2-.4-2.2-1.1-2.4-1m-8-7.7-3.8 2s1 1.7 2 3c1.1 1.4 2.5 2.6 2.5 2.6l2.8-3.2c0-.1-1.3-1.3-2-2.3-.9-1-1.4-2-1.5-2.1m-6.5-4.4 4.3-1-.4-2.6-.2-2.7L74 99v3c.2 1.9.7 3.5.7 3.5m.2-13 4.5 1c.1 0 .3-1 .9-2.1.5-1.2 1.3-2.3 1.2-2.4l-3.9-3s-1 1.7-1.7 3.5zm7-11.7 3.5 3c.2 0 1.2-.8 2.3-1.5l2.2-1.6-2.1-4.1s-2 .9-3.3 1.9c-1.5 1.1-2.6 2.3-2.6 2.3"/></svg>