<svg xmlns="http://www.w3.org/2000/svg" width="1em" height="1em" viewBox="0 0 128 128"><path fill="#5E6268" d="M48.04 60.14V35c0-3.9-.84-6.8-1.99-8.25s-2.06-2.14-2.9-1.91c-.84.23-3.29 2.29-2.9 3.21c.38.92 2.14 1.99 2.6 4.28c.46 2.29.23 4.05.23 4.05s-1.45 0-1.53 1.15c-.08 1.15 0 23.84 0 23.84z"/><path fill="#5E6268" d="M68.15 30.1L56.17 68.08s-14.23 6.53-14.55 6.63c-.32.11-16.48 3.1-16.48 3.1l-1.07 9.63l-12.41 5.67s.32-4.71-.32-5.14c-.64-.43-9.74 3.53-9.74 4.71s.32 9.2.32 9.63c0 .43 7.49 4.17 8.13 4.49s39.26 1.18 39.26 1.18s8.67-.32 14.77-.34c6.4-.02 17.85-.32 17.85-.32l32.53-28.01h8.77L121 74.07l-8.99-5.03s-.43-11.66-1.18-20.75s-1.18-16.69-1.18-16.69z"/><path fill="#02AB47" d="M46.22 84.66s1.5-1.93 3.74-2.03c2.25-.11 8.67-.32 8.67-.32s.75-9.52 1.28-13.37c.53-3.85 1.39-9.41 1.39-9.41l-5.78-5.35l-3.42 4.92l-10.27 3.96l-16.69 5.14l1.18 11.45l9.74-.11z"/><path fill="#AFE2FB" d="m52.11 59.09l9.2.43s2.14-8.56 4.71-16.15s4.92-13.69 4.92-13.69l-8.99 2.25s-3.18 7.43-5.56 13.91c-2.87 7.76-4.57 13.83-4.28 13.25"/><path fill="#1A1A1A" d="M48.48 86.72s1.01-1.65 2.65-1.78s7.23-.09 7.23-.09v9.79l-4.94.05z"/><path fill="#AFE2FB" d="M66.37 82.8c.28.57 8.78.28 8.78.28l11.32-12.93l5.85-1.98s-.28-12.46-.57-20.57s-.38-18.02-.38-18.02L77.21 31s-1.51 3.11-2.17 5c-.66 1.89-1.42 4.72-1.42 4.72s3.68-.38 3.87.09c.19.47-2.36 10.95-2.64 11.14c-.28.19-4.53 0-4.53 0s-2.17 7.36-3.11 15.29c-.93 7.92-1.12 15-.84 15.56"/><path fill="#94C7EA" d="M97.09 36.01c-.9 0-1.35.83-1.2 2.25c.15 1.43 1.13 22.84 1.28 23.67c.15.83.38 1.65 2.03 1.65s6.54-.08 7.21-.08s1.35-.9 1.2-2.48s-1.35-22.24-1.43-23.37c-.08-1.13-.68-1.5-2.03-1.58c-1.28-.05-6.39-.06-7.06-.06"/><path fill="#76DE88" d="M15.54 69.43s.67-2.4 4.92-4.33c4.26-1.93 9.98-3.46 16.1-4.59c6.12-1.13 14.81-1.38 15.54-1.39c2.49-.04 3.89 1.93 2.36 2.46c-.8.28-4.46.53-13.84 2.99c-7.53 1.97-10.71 4.46-10.71 4.46l-7.39 1.6z"/><path fill="#02AB47" d="M61.97 32.68c4.14-.15 14.71-.15 24.06 0s22.61.61 23.83.61c1.23 0 2.68-1.38 2.53-3.22c-.15-1.84-2.61-2.68-7.36-3.14c-3.07-.3-10.65-1-19.92-1.15s-17.39-.08-21.15 1.15c-3 .98-4.29 2.99-4.14 4.44s1.08 1.35 2.15 1.31m6.36 61.84c.2.59 2.45.84 3.07.38c.61-.46 4.32-8.41 8.66-14.18c4.7-6.24 6.79-7.56 7.52-7.77c1.27-.36 9.96-1.5 16.31-1.11c6.36.38 12.03 1.53 14.41 3.14c2.38 1.61 4.01 4.29 4.96 4.33c.95.04.26-5.02-3.12-7.93c-3.37-2.91-9.74-3.42-16.11-3.83c-4.76-.3-18.19.66-19.83 1.21c-2.3.77-4.91 4.61-8.74 10.89c-2.7 4.44-7.43 13.95-7.13 14.87"/><path fill="#2C7E33" d="M15.54 69.43s14.09-.81 14.37-.4c.41.61-.82 3.34-1.81 6.25c-1 2.91-3.07 11.26-3.07 11.26L12.92 92.9s.69-11.72.92-15.17s.71-7.41 1.7-8.3"/><path fill="#868586" d="m51.86 107.92l4.45-.1s2.9-12.61-7.9-23.33c-9.39-9.32-23.34-6.42-23.06-4.52c.23 1.61 13.54-1.44 21.4 8.35c8.11 10.11 5.11 19.6 5.11 19.6"/><path fill="#1A1A19" d="M14.32 73.1s6.33-.05 9.96.1c1.78.08 2.32.53 2.32.93c0 .46-.43.89-2.21 1.04c-3.68.3-10.39.66-10.39.66s.05-.74.13-1.48c.08-.68.19-1.25.19-1.25m-.53 5.5s4.04-.14 7.67-.14c2.07 0 2.82.28 2.82.86c0 .5-1.29.96-2.78 1.18c-3.65.52-7.88.85-7.88.85s.03-.7.07-1.4c.04-.68.1-1.35.1-1.35m-.34 5.44s3.8-.19 5.29-.23c1.5-.04 3.21-.21 3.28.39c.07.61-.79 1.54-2.36 1.71c-1.18.13-6.37.64-6.37.64s.02-.68.05-1.27c.05-.62.11-1.24.11-1.24"/><path fill="#302F2F" d="M124.05 99.28c0 13.83-11.23 25.05-25.08 25.05S73.84 113.11 73.9 99.28c.07-13.89 11.18-25.38 24.97-25.33c13.84.05 25.18 11.49 25.18 25.33m-73.79 4.15c0 11.41-8.92 20.59-20.41 20.59s-20.67-9.56-20.67-20.98s9.18-20.74 20.67-20.36c11.91.41 20.41 9.34 20.41 20.75"/><path fill="#F3790E" d="M41.23 103.67c0 6.13-3.87 11.43-11.5 11.43c-7.01 0-11.21-5.24-11.58-10.47c-.48-6.88 4.13-12.61 11.16-12.66c7.63-.06 11.92 5.43 11.92 11.7"/><path fill="#FE8F01" d="M37.87 103.66c0 4.67-3.76 8.41-8.43 8.41c-4.13 0-8.19-3.58-8.19-8.26c0-4.67 3.66-8.55 8.33-8.55s8.29 3.73 8.29 8.4"/><ellipse cx="29.59" cy="103.56" fill="#FCB900" rx="4.81" ry="4.8"/><path fill="#F3790E" d="M114.1 100.13c0 7.9-5.22 14.96-14.91 15.02c-8.75.05-14.45-7.03-14.93-13.78c-.63-8.86 5.34-16.25 14.43-16.32c9.86-.07 15.41 7.01 15.41 15.08"/><path fill="#FE8F01" d="M109.75 100.12c0 6.02-4.86 10.84-10.9 10.84c-5.34 0-10.58-4.62-10.58-10.64S93 89.3 99.04 89.3c6.04 0 10.71 4.8 10.71 10.82"/><path fill="#FCB900" d="M105.27 100c0 3.42-2.79 6.33-6.21 6.19c-3.67-.15-6.21-2.77-6.21-6.19c0-3.42 2.78-6.19 6.21-6.19s6.21 2.77 6.21 6.19"/><path fill="#8E736E" d="M42.15 86.83s-2.11 3.04-2.11 3.25c0 .1.89.64 1.63 1.35c.79.75 1.42 1.67 1.52 1.69c.18.05 3.11-2.11 3.11-2.11s-.88-1.3-1.9-2.32a16.513 16.513 0 0 0-2.25-1.86m6.54 8.4s-3.17 1.46-3.22 1.64c-.05.18.31 1.21.57 2.22c.27 1.06.23 2.11.41 2.24c.18.13 3.71-.05 3.71-.05s0-1.89-.36-3.14a19.5 19.5 0 0 0-1.11-2.91m1.46 10.54s-3.42-.68-3.47-.57c-.05.1-.41 1.68-.62 2.35c-.21.67-.64 1.78-.62 1.93s3.39 1.69 3.39 1.69s.47-1.2.81-2.49c.34-1.29.51-2.91.51-2.91m-3.78 9.88s-2.81-2.43-2.97-2.41s-1.03 1.11-1.62 1.73c-.59.62-1.57 1.49-1.6 1.6c-.03.1 2.25 3.18 2.25 3.18s1.39-.99 2.26-2s1.68-2.1 1.68-2.1m-8.06 6.57s-1.33-3.62-1.45-3.67c-.1-.04-1.07.41-2.36.78c-1.26.36-2.07.41-2.18.51c-.09.09.1 4.04.1 4.04s.95-.04 2.86-.54c1.79-.47 3.03-1.12 3.03-1.12m-15.01-3.53c-.12.03-1.94 3.54-1.94 3.54s.98.48 2.8 1.04c1.82.57 3.19.63 3.19.63s.43-3.92.24-4.08c-.13-.11-1.09-.09-2.17-.39c-1.17-.31-2.01-.77-2.12-.74m-6.97-5.33c-.08-.04-3.16 2.05-3.16 2.05s1.1 1.55 1.91 2.35c.8.8 2.23 1.97 2.23 1.97s2.26-3.01 2.26-3.13c0-.12-1.12-.93-1.73-1.52c-.8-.77-1.39-1.66-1.51-1.72m-3.34-8.25c-.09-.09-3.72 0-3.72 0s.18 1.93.47 3.16c.37 1.59 1.14 3.12 1.14 3.12s3.28-1.7 3.37-1.82c.09-.12-.49-1.23-.74-2.17c-.34-1.22-.52-2.29-.52-2.29m-3.75-3.73l3.72.24s.18-1.34.36-2.14s.71-2.11.66-2.23c-.06-.12-3.39-1.82-3.39-1.82s-.66 1.82-.95 3.13c-.31 1.31-.4 2.82-.4 2.82m3.99-10.81s2.92 2.74 3.04 2.77c.12.03.8-.92 1.74-1.83c.98-.94 1.95-1.61 1.98-1.75c.05-.23-2.32-3.42-2.32-3.42s-1.28.77-2.47 1.97c-1.19 1.19-1.97 2.26-1.97 2.26m8.61-6.49s1.55 3.51 1.64 3.57c.09.06 1.17-.49 2.11-.71c1.44-.34 2.29-.28 2.41-.4c.12-.12-.21-3.83-.21-3.83s-1.43-.09-3.16.36c-1.72.45-2.79 1.01-2.79 1.01m10.48-1.22s-.39 3.57-.33 3.72c.06.15 1.46.33 2.44.63s1.86.69 2.07.69s1.87-3.28 1.87-3.28s-1.69-.83-2.89-1.16c-1.82-.51-3.16-.6-3.16-.6m61.11-8.31s1.15 4.19 1.3 4.36s1.09-.08 2.91-.23c1.79-.14 2.78-.02 2.84-.08c.06-.06.6-4.64.6-4.64s-1.18-.22-4.01-.04c-2.45.16-3.64.63-3.64.63m14.12.86s-1.41 3.68-1.38 3.83s1.88.9 2.66 1.41c.78.51 2.09 1.44 2.21 1.5c.12.06 2.87-3.2 2.87-3.2s-1.19-.95-3.08-2.03c-1.97-1.15-3.28-1.51-3.28-1.51m10.42 7.42s-2.62 2.79-2.65 3c-.03.21 1.03 1.36 1.45 2.05c.42.69 1.1 2.25 1.22 2.28c.12.03 3.8-1.33 3.8-1.33s-.77-2.07-1.67-3.42s-2.15-2.58-2.15-2.58m5.55 11.07s-4.1.99-4.19 1.11c-.09.12.15 1.65.24 3.05c.07 1.16-.09 2.78-.03 2.93c.06.15 4.46.57 4.46.57s.24-1.56.12-3.65c-.12-2.1-.6-4.01-.6-4.01m-.59 13.01s-4.1-1.44-4.25-1.41c-.15.03-.63 1.38-1.17 2.36c-.54.99-1.32 2.15-1.29 2.3c.03.15 3.77 2.78 3.77 2.78s1.05-1.32 1.77-2.84c.72-1.51 1.17-3.19 1.17-3.19m-6.81 10.64s-3.33-3.31-3.45-3.22c-.12.09-1.2 1.11-2.06 1.74c-.87.63-2.33 1.47-2.45 1.56c-.2.15 1.79 4.21 1.79 4.21s1.44-.53 3.38-1.9c1.94-1.39 2.79-2.39 2.79-2.39m-18.59 6.74l.93-4.49s1.6.08 2.7-.01c1.04-.08 2.41-.5 2.56-.41s1.38 4.25 1.38 4.25s-2.03.57-4.04.72s-3.53-.06-3.53-.06m-8.38-6.76c-.12.02-2.44 3.6-2.44 3.6s1 .68 2.86 1.46s3.62 1.07 3.62 1.07l1.02-4.21s-1.56-.39-2.72-.81c-1.17-.42-2.19-1.14-2.34-1.11m-8.02-7.63c-.1-.07-3.85 2.04-3.85 2.04s1.01 1.7 2.08 3.02c1.08 1.32 2.41 2.55 2.41 2.55s2.83-3.12 2.83-3.21c0-.09-1.26-1.32-2.06-2.3c-.81-.99-1.29-2.01-1.41-2.1m-6.52-4.42s4.22-.84 4.28-.93c.06-.09-.27-1.68-.39-2.63c-.12-.96-.12-2.57-.15-2.69c-.03-.12-4.45-.24-4.45-.24s-.12 1.7.03 2.99c.2 1.88.68 3.5.68 3.5m.18-12.96s4.43 1.05 4.52 1.05c.09 0 .33-1.08.87-2.21c.54-1.14 1.32-2.24 1.26-2.36c-.06-.12-3.89-2.96-3.89-2.96s-1.11 1.65-1.79 3.44c-.7 1.79-.97 3.04-.97 3.04m7.03-11.75s3.32 3.05 3.47 3.05s1.23-.79 2.27-1.54s2.26-1.45 2.26-1.54s-2.15-4.14-2.15-4.14s-1.93.89-3.25 1.89c-1.49 1.14-2.6 2.28-2.6 2.28"/></svg>