<svg viewBox="0 0 128 128"><path fill="none" stroke="#607d8b" stroke-miterlimit="10" stroke-width="3" d="M4 5.5h120"/><path fill="#607d8b" d="M40.7 30.3h13.8v4H40.7z"/><path fill="#82aec0" d="M59.6 31.5h-24q-1.6-.2-1.8-1.8v-.2q.1-1.7 1.8-1.8h24q1.6.2 1.8 1.8v.2q-.1 1.7-1.8 1.8"/><path fill="none" stroke="#82aec0" stroke-miterlimit="10" stroke-width="3" d="m48.9 29.4 11-10.6q.7-.7 0-1.5L46.7 5.7"/><path fill="#607d8b" d="m45.7 6.8 4.7 4.1 2.2-2-5-4.3z"/><path fill="#82aec0" d="M57 15.6v4.6l2.3-2.3z"/><path fill="none" stroke="#82aec0" stroke-miterlimit="10" stroke-width="3" d="m46.4 29.4-11-10.6a1 1 0 0 1 0-1.5L48.5 5.7"/><path fill="#607d8b" d="M49.6 6.8 45 10.9l-2.2-2 5-4.3z"/><path fill="#82aec0" d="M38.2 15.6v4.6L36 17.9zm12-6.9h-5q-1-.1-1.1-1v-4q0-1 1-1.1h5q1 .1 1.1 1v4q-.1 1-1 1.1"/><circle cx="37.4" cy="115" r="9" fill="#455a64"/><path fill="#607d8b" d="M39.6 116.4q-.8 1-2.2 1t-2.2-1h-3.6a6 6 0 0 0 11.6 0z"/><circle cx="90.6" cy="115" r="9" fill="#455a64"/><path fill="#607d8b" d="M92.8 116.4q-.8 1-2.2 1t-2.2-1h-3.6a6 6 0 0 0 11.6 0z"/><path fill="#455a64" d="M78.1 119.5H50.3l-3.6-7.6h34.6z"/><path fill="#eee" d="M6.3 48.4v26.2h115.4V49z"/><path fill="#9e9e9e" d="M7 45.6q-.7 1.9-.7 4.7h115.4a15 15 0 0 0-.7-4.7z"/><path fill="#bdbdbd" d="M6.6 46.9h114.8C120 41.3 115 34 109 34H18.9c-6 0-11 7.2-12.3 12.8"/><path fill="#ffca28" d="m124 108.8-2.3-5.8V70.4H6.3V103L4 108.8z"/><path fill="#82aec0" d="M4 108.8h120v5.4H4z"/><path fill="#bae2fd" d="M23.4 65.8H38v15.6H23.4z"/><path fill="#37474f" d="M37 82.4H24.4a2 2 0 0 1-2-2V66.8a2 2 0 0 1 2-2H37a2 2 0 0 1 2 2v13.6a2 2 0 0 1-2 2M23.9 67.7v11.9q.1.7.8.8h12q.7-.1.8-.8v-12q-.1-.7-.8-.8h-12q-.7 0-.8.9"/><path fill="none" stroke="#37474f" stroke-miterlimit="10" d="M22.9 70.8H38"/><path fill="#bae2fd" d="M90 65.8h14.6v15.6H90z"/><path fill="#37474f" d="M103.6 82.4H91a2 2 0 0 1-2-2V66.8a2 2 0 0 1 2-2h12.6a2 2 0 0 1 2 2v13.6a2 2 0 0 1-2 2m-13-14.7v11.9q0 .7.7.8h12q.8-.1.8-.8v-12q0-.7-.8-.8h-12q-.7 0-.8.9"/><path fill="none" stroke="#37474f" stroke-miterlimit="10" d="M89.5 70.8h15.3"/><path fill="#ffca28" d="M47.9 107.9c-1.6 0-3-1.4-3-3.2V65.5c0-2 1.6-3.7 3.5-3.7h32c1.5 0 2.6 1.3 2.6 2.8v40.5c0 1.5-1.1 2.8-2.5 2.8z"/><path fill="#9e740b" d="M80.5 62.8c.8 0 1.6.8 1.6 1.8v40.5q-.1 1.6-1.6 1.8H47.9c-1.1 0-2-1-2-2.2V65.5c0-1.5 1.1-2.7 2.5-2.7zm0-2H48.4a4.6 4.6 0 0 0-4.5 4.7v39.2a4 4 0 0 0 4 4.2h32.6c2 0 3.5-1.7 3.5-3.8V64.6c0-2-1.5-3.8-3.5-3.8"/><path fill="#37474f" d="M77.1 64.8h-7.5a3 3 0 0 0-2.6 2.7v17.6c0 1.5 1.2 2.7 2.6 2.7h7.5c1.5 0 2.7-1.2 2.7-2.7V67.5c0-1.5-1.2-2.7-2.7-2.7"/><path fill="#bae2fd" d="M76.6 67.2h-6.2a2 2 0 0 0-2 2v14.2c0 1 .9 2 2 2h6.2a2 2 0 0 0 2-2V69.2a2 2 0 0 0-2-2"/><path fill="#37474f" d="M58.2 64.8h-7.5a3 3 0 0 0-2.6 2.7v17.6c0 1.5 1.2 2.7 2.7 2.7h7.4c1.5 0 2.7-1.2 2.7-2.7V67.5a2.7 2.7 0 0 0-2.7-2.7"/><path fill="#bae2fd" d="M57.7 67.2h-6.2a2 2 0 0 0-2 2v14.2c0 1 1 2 2 2h6.2a2 2 0 0 0 2-2V69.2a2 2 0 0 0-2-2"/><path fill="none" stroke="#9e740b" stroke-miterlimit="10" stroke-width="2" d="M64 61.8v45.6"/><path fill="#bae2fd" d="M6.3 65.8h10.3v20.6H6.3z"/><path fill="#37474f" d="M14.5 85.4q1.2-.1 1.3-1.3V68q-.1-1.2-1.3-1.3H6.3v-2h9.1a2 2 0 0 1 2 2v18.6a2 2 0 0 1-2 2h-9v-2z"/><path fill="#bae2fd" d="M111.6 65.8h10v20.6h-10z"/><path fill="#37474f" d="M113.5 85.4q-1.2-.1-1.3-1.3V68q.1-1.2 1.3-1.3h8.2v-2h-9.1a2 2 0 0 0-2 2v18.6a2 2 0 0 0 2 2h9v-2z"/></svg>