<svg xmlns="http://www.w3.org/2000/svg" width="1em" height="1em" viewBox="0 0 128 128"><path fill="none" stroke="#607D8B" stroke-miterlimit="10" stroke-width="3" d="M4 5.5h120"/><path fill="#607D8B" d="M40.73 30.32h13.81v3.99H40.73z"/><path fill="#82AEC0" d="M59.63 31.48h-24c-1 0-1.81-.81-1.81-1.81v-.17c0-1 .81-1.81 1.81-1.81h24c1 0 1.81.81 1.81 1.81v.17c0 1-.81 1.81-1.81 1.81"/><path fill="none" stroke="#82AEC0" stroke-miterlimit="10" stroke-width="3" d="m48.87 29.37l11.06-10.61c.42-.41.43-1.09.02-1.51L46.62 5.65"/><path fill="#607D8B" d="m45.65 6.79l4.73 4.15l2.2-2.05l-4.98-4.34z"/><path fill="#82AEC0" d="M57.06 15.62v4.57l2.22-2.29z"/><path fill="none" stroke="#82AEC0" stroke-miterlimit="10" stroke-width="3" d="M46.39 29.37L35.33 18.76c-.42-.41-.43-1.09-.02-1.51l13.33-11.6"/><path fill="#607D8B" d="m49.62 6.79l-4.73 4.15l-2.2-2.05l4.97-4.34z"/><path fill="#82AEC0" d="M38.2 15.62v4.57l-2.21-2.29zm11.92-6.91h-4.97c-.61 0-1.1-.49-1.1-1.1V3.69c0-.61.49-1.1 1.1-1.1h4.97c.61 0 1.1.49 1.1 1.1v3.92c-.01.6-.5 1.1-1.1 1.1"/><circle cx="37.39" cy="115.03" r="8.97" fill="#455A64"/><path fill="#607D8B" d="M39.58 116.4c-.52.64-1.3 1.07-2.2 1.07c-.89 0-1.68-.42-2.2-1.07H31.6c.62 2.63 2.96 4.59 5.78 4.59c2.82 0 5.16-1.96 5.78-4.59z"/><circle cx="90.61" cy="115.03" r="8.97" fill="#455A64"/><path fill="#607D8B" d="M92.81 116.4c-.52.64-1.3 1.07-2.2 1.07c-.89 0-1.68-.42-2.2-1.07h-3.58c.62 2.63 2.96 4.59 5.78 4.59c2.82 0 5.16-1.96 5.78-4.59z"/><path fill="#455A64" d="M78.13 119.53H50.3l-3.56-7.67h34.52z"/><path fill="#EEE" d="M6.32 48.36v26.22h115.36V48.95z"/><path fill="#9E9E9E" d="M7 45.62c-.43 1.27-.68 2.81-.68 4.68h115.36c0-1.79-.25-3.41-.68-4.68z"/><path fill="#BDBDBD" d="M6.64 46.88h114.72c-1.27-5.61-6.27-12.8-12.26-12.8H18.9c-5.99 0-10.99 7.2-12.26 12.8"/><path fill="#FFCA28" d="m124 108.84l-2.32-5.88V70.43H6.32v32.53L4 108.84z"/><path fill="#82AEC0" d="M4 108.84h120v5.36H4z"/><path fill="#BAE2FD" d="M23.39 65.84h14.6V81.4h-14.6z"/><path fill="#37474F" d="M36.98 82.4H24.39a2 2 0 0 1-2-2V66.84a2 2 0 0 1 2-2h12.6a2 2 0 0 1 2 2v13.55c0 1.11-.9 2.01-2.01 2.01M23.89 67.65v11.93c0 .45.36.81.81.81h11.98c.45 0 .81-.36.81-.81V67.65c0-.45-.36-.81-.81-.81H24.7c-.45 0-.81.36-.81.81"/><path fill="none" stroke="#37474F" stroke-miterlimit="10" d="M22.89 70.8h15.23"/><path fill="#BAE2FD" d="M90.01 65.84h14.6V81.4h-14.6z"/><path fill="#37474F" d="M103.61 82.4H91.02a2 2 0 0 1-2-2V66.84a2 2 0 0 1 2-2h12.6a2 2 0 0 1 2 2v13.55c-.01 1.11-.9 2.01-2.01 2.01M90.52 67.65v11.93c0 .45.36.81.81.81h11.98c.45 0 .81-.36.81-.81V67.65c0-.45-.36-.81-.81-.81H91.33c-.45 0-.81.36-.81.81"/><path fill="none" stroke="#37474F" stroke-miterlimit="10" d="M89.51 70.8h15.24"/><path fill="#FFCA28" d="M47.86 107.86c-1.61 0-2.92-1.4-2.92-3.13V65.5c0-2.02 1.53-3.66 3.42-3.66h32.12c1.42 0 2.57 1.24 2.57 2.76v40.5c0 1.52-1.15 2.76-2.57 2.76z"/><path fill="#9E740B" d="M80.49 62.84c.86 0 1.57.79 1.57 1.76v40.5c0 .97-.7 1.76-1.57 1.76H47.86c-1.06 0-1.92-.96-1.92-2.13V65.5c0-1.47 1.08-2.66 2.42-2.66zm0-2H48.36c-2.44 0-4.42 2.09-4.42 4.66v39.23c0 2.28 1.75 4.13 3.92 4.13h32.62c1.97 0 3.57-1.68 3.57-3.76V64.6c0-2.08-1.59-3.76-3.56-3.76"/><path fill="#37474F" d="M77.12 64.84h-7.49c-1.47 0-2.66 1.19-2.66 2.66v17.59c0 1.47 1.19 2.66 2.66 2.66h7.49c1.47 0 2.66-1.19 2.66-2.66V67.5c0-1.47-1.19-2.66-2.66-2.66"/><path fill="#BAE2FD" d="M76.57 67.16H70.4c-1.1 0-2 .9-2 2v14.21c0 1.1.9 2 2 2h6.17c1.1 0 2-.9 2-2V69.16a2 2 0 0 0-2-2"/><path fill="#37474F" d="M58.24 64.84h-7.49c-1.47 0-2.66 1.19-2.66 2.66v17.59c0 1.47 1.19 2.66 2.66 2.66h7.49c1.47 0 2.66-1.19 2.66-2.66V67.5a2.672 2.672 0 0 0-2.66-2.66"/><path fill="#BAE2FD" d="M57.69 67.16h-6.17c-1.1 0-2 .9-2 2v14.21c0 1.1.9 2 2 2h6.17c1.1 0 2-.9 2-2V69.16c0-1.1-.9-2-2-2"/><path fill="none" stroke="#9E740B" stroke-miterlimit="10" stroke-width="2" d="M64 61.8v45.6"/><path fill="#BAE2FD" d="M6.32 65.84h10.25V86.4H6.32z"/><path fill="#37474F" d="M14.51 85.39c.73 0 1.33-.6 1.33-1.33V68.17c0-.73-.6-1.33-1.33-1.33H6.33v-2h9.11a2 2 0 0 1 2 2v18.55a2 2 0 0 1-2 2H6.32v-2z"/><path fill="#BAE2FD" d="M111.57 65.84h10.11V86.4h-10.11z"/><path fill="#37474F" d="M113.49 85.39c-.73 0-1.33-.6-1.33-1.33V68.17c0-.73.6-1.33 1.33-1.33h8.18v-2h-9.11a2 2 0 0 0-2 2v18.55a2 2 0 0 0 2 2h9.11v-2z"/></svg>