<svg xmlns="http://www.w3.org/2000/svg" width="1em" height="1em" viewBox="0 0 128 128"><path fill="none" stroke="#607D8B" stroke-miterlimit="10" stroke-width="3" d="M4 5.5h120"/><path fill="none" stroke="#82AEC0" stroke-miterlimit="10" stroke-width="3" d="M78.1 26.29c18.3-14.58 32.93-20 32.93-20"/><path fill="#37474F" d="M121.56 72.56v1.91"/><path fill="#88B151" d="M9.42 81.24c-.79 2.85-1.45 5.72-1.94 8.52l-2.31 18.06s-.94 7.23 4.01 7.23h110.69c3.94 0 3.85-2.64 3.85-4.59l-.44-29.22z"/><path fill="#608C3D" d="M119.87 115.05H8.37c-1.57 0-2.62-2.27-2.62-2.27h114.12c1.92 0 3.85-1.71 3.85-1.71s.94 3.98-3.85 3.98"/><path fill="#82AEC0" d="M86.79 38.7H54.55c-.98 0-1.71-.91-1.52-1.88l1.18-6.03c.14-.74.78-1.27 1.52-1.27h29.88c.74 0 1.38.53 1.52 1.27l1.18 6.03c.19.97-.54 1.88-1.52 1.88"/><path fill="#2F7889" d="m53.03 37.55l.33-2.41h34.62l.3 2.41z"/><path fill="#FFCA28" d="M122.8 49.21s.6-12.38-10.18-12.38H43.7c-1.5 0-1.96-3.71-4.18-3.71s-8.29.21-12.36 1.03c-6.91 1.38-13.15 5.61-16.21 24.68L7.12 92.61h23.45c8.42 0 13.33-6.67 21.4-6.67h71.44z"/><path fill="#BDBDBD" d="M121.61 42.66c-1.25-2.97-3.8-5.83-8.98-5.83H43.71c-1.51 0-1.96-3.71-4.18-3.71s-8.29.21-12.36 1.03c-4.23.85-8.2 2.78-11.35 8.51z"/><path fill="#E0E0E0" d="M42.62 83.12h80.74l-.55-33.91s.6-9.84-6.33-9.84H38.94c-1.51 0-1.56-3.71-2.95-3.71c-2.22 0-10.15.34-12.04.68c-3.44.63-5.34 2.35-5.34 2.35c-3.01 3.25-5.62 7.52-7.64 20.13L7.44 89.79h13.79c8.41 0 13.32-6.67 21.39-6.67"/><path fill="#BAE2FD" d="M116.14 49.72H21.12s-5.72 4.3-6.84 15.41s0 16.18 0 16.18H24.7l16.17-3.88h74.77z"/><ellipse cx="21.82" cy="112.78" fill="#5D4037" rx="11.04" ry="11.21"/><ellipse cx="21.82" cy="112.78" fill="#9E9E9E" rx="6.23" ry="6.32"/><path fill="#608C3D" d="M11 115.05c-.15-.73-.23-1.49-.23-2.27c0-6.19 4.94-11.21 11.04-11.21c6.1 0 11.04 5.02 11.04 11.21c0 .78-.08 1.54-.23 2.27h1.82c.13-.74.21-1.5.21-2.27c0-7.19-5.76-13.04-12.85-13.04c-7.08 0-12.85 5.85-12.85 13.04c0 .78.08 1.53.21 2.27z"/><ellipse cx="99.78" cy="112.78" fill="#5D4037" rx="11.04" ry="11.21"/><ellipse cx="99.78" cy="112.78" fill="#9E9E9E" rx="6.23" ry="6.32"/><path fill="#608C3D" d="M88.96 115.05c-.15-.73-.23-1.49-.23-2.27c0-6.19 4.94-11.21 11.04-11.21c6.1 0 11.04 5.02 11.04 11.21c0 .78-.08 1.54-.23 2.27h1.82c.13-.74.21-1.5.21-2.27c0-7.19-5.76-13.04-12.85-13.04c-7.08 0-12.85 5.85-12.85 13.04c0 .78.08 1.53.21 2.27z"/><path fill="#FFA000" d="M6.98 105.82c.54.08 1.05-.31 1.13-.85l1.24-9.03c.07-.54-.31-1.05-.85-1.13l-.64-.09a.993.993 0 0 0-1.12.85l-1.18 9.04c-.06.55.34 1.06.88 1.13z"/><path fill="#F44336" d="M123.46 97.01c-.01-.55-.47-1-1.02-1h-.99c-.55 0-1 .45-1 1v9.12c0 .55.45 1 1 1h1.2c.55 0 .99-.45.98-1z"/><path fill="#37474F" d="M111.62 46.53h-82.4c-4.69 0-9.22.44-11.65 4.25c-2.49 3.9-4.57 13.28-5.03 22.29c-.36 6.98-.34 10.67 6.28 10.67h5.86c4.37 0 10.8-3.38 15.68-3.43c4.88-.05 58.31-.55 70.73-.55c4.96 0 7-3.42 7-6.74V52.91s.25-6.38-6.47-6.38m-29.1 5.95h12.03c1.06 0 1.92.86 1.92 1.92v18.27c0 1.06-.86 1.92-1.92 1.92H82.52a1.92 1.92 0 0 1-1.92-1.92V54.4c0-1.06.86-1.92 1.92-1.92m-6.84 22.1H63.65a1.92 1.92 0 0 1-1.92-1.92V54.4c0-1.06.86-1.92 1.92-1.92h12.03c1.06 0 1.92.86 1.92 1.92v18.27c0 1.05-.86 1.91-1.92 1.91M58.73 54.4v18.27c0 1.06-.86 1.92-1.92 1.92H44.78a1.92 1.92 0 0 1-1.92-1.92V54.4c0-1.06.86-1.92 1.92-1.92h12.03c1.06 0 1.92.86 1.92 1.92m-39.9 23.98c-3.94 0-3.78-1.9-3.58-5.55c.39-7.3 2.08-13.68 4.63-17.49c1.61-2.4 4.64-2.87 9.34-2.87h8.71c1.06 0 1.92.86 1.92 1.92v18.6c0 .92-.65 1.68-1.54 1.88c-3.97.88-8.46 3.5-13.62 3.5h-5.86zm96.58-22.34v14.59c0 1.19-.42 3.95-4.29 3.95h-9.72a1.92 1.92 0 0 1-1.92-1.92V54.4c0-1.06.86-1.92 1.92-1.92h10.22c1.24 0 2.14.27 2.73.83c.89.83 1.07 2.24 1.06 2.69z"/><path fill="#37474F" d="M14.61 47.08c-3.06 0-4.48.96-6.13 2.74L6.2 52.84a2.393 2.393 0 0 0-2.07 2.36v9.69a2.39 2.39 0 0 0 2.39 2.39h.62c.46 0 .83-.37.83-.83v-12.3c1.36-1.16 4.33-3.38 7.2-3.38l7.39-.56l4.48-3.68z"/><circle cx="111.03" cy="5.82" r="2.63" fill="#5C9AAD"/><path fill="#5C9AAD" d="m80.73 25.64l-1.48-1.48c-.7-.7-1.9-.4-2.18.55l-.32 1.08c-.32 1.08-2.26-.07-4.27 1.53c-.82.65-1.26 1.46-1.51 2.2h7.12c.15-.7.39-1.34 1.11-1.49l.88-.18c1.01-.22 1.39-1.48.65-2.21"/></svg>