<svg viewBox="0 0 128 128"><path fill="none" stroke="#607d8b" stroke-miterlimit="10" stroke-width="3" d="M4 5.5h120"/><path fill="none" stroke="#82aec0" stroke-miterlimit="10" stroke-width="3" d="M78.1 26.3c18.3-14.6 33-20 33-20"/><path fill="#37474f" d="M121.6 72.6v1.9"/><path fill="#88b151" d="M9.4 81.2q-1.2 4.4-2 8.6l-2.2 18s-1 7.2 4 7.2h110.7c4 0 3.8-2.6 3.8-4.5l-.4-29.3z"/><path fill="#608c3d" d="M119.9 115H8.4c-1.6 0-2.6-2.2-2.6-2.2h114c2 0 4-1.7 4-1.7s.9 4-4 4"/><path fill="#82aec0" d="M86.8 38.7H54.6c-1 0-1.8-1-1.6-1.9l1.2-6q.3-1.2 1.5-1.3h30q1 0 1.4 1.3l1.2 6q.2 1.7-1.5 1.9"/><path fill="#2f7889" d="m53 37.6.4-2.5H88l.3 2.4z"/><path fill="#ffca28" d="M122.8 49.2s.6-12.4-10.2-12.4H43.7c-1.5 0-2-3.7-4.2-3.7s-8.3.2-12.3 1c-7 1.4-13.2 5.7-16.2 24.7L7 92.6h23.5C39 92.6 43.9 86 52 86h71.4z"/><path fill="#bdbdbd" d="M121.6 42.7a9 9 0 0 0-9-5.9H43.7c-1.5 0-2-3.7-4.2-3.7s-8.3.2-12.3 1c-4.3.9-8.2 2.8-11.4 8.6z"/><path fill="#e0e0e0" d="M42.6 83.1h80.8l-.6-33.9s.6-9.8-6.3-9.8H38.9c-1.5 0-1.5-3.7-3-3.7-2.1 0-10 .3-12 .6-3.4.7-5.3 2.4-5.3 2.4-3 3.2-5.6 7.5-7.6 20.1l-3.6 31h13.8c8.4 0 13.4-6.7 21.4-6.7"/><path fill="#bae2fd" d="M116.1 49.7h-95s-5.7 4.3-6.8 15.4 0 16.2 0 16.2h10.4l16.2-3.9h74.7z"/><ellipse cx="21.8" cy="112.8" fill="#5d4037" rx="11" ry="11.2"/><ellipse cx="21.8" cy="112.8" fill="#9e9e9e" rx="6.2" ry="6.3"/><path fill="#608c3d" d="m11 115-.2-2.2c0-6.2 5-11.2 11-11.2A11.2 11.2 0 0 1 32.6 115h1.8q.3-1.2.2-2.3a13 13 0 0 0-12.8-13A13 13 0 0 0 9.2 115z"/><ellipse cx="99.8" cy="112.8" fill="#5d4037" rx="11" ry="11.2"/><ellipse cx="99.8" cy="112.8" fill="#9e9e9e" rx="6.2" ry="6.3"/><path fill="#608c3d" d="M89 115q-.3-1-.3-2.2c0-6.2 5-11.2 11-11.2a11.2 11.2 0 0 1 10.9 13.5h1.8l.2-2.3a13 13 0 0 0-12.8-13A13 13 0 0 0 87 115z"/><path fill="#ffa000" d="M7 105.8q.8 0 1.1-.8l1.2-9q0-1-.8-1.2h-.6a1 1 0 0 0-1.2.8l-1.1 9q0 1 .8 1.1z"/><path fill="#f44336" d="M123.5 97q-.1-.9-1-1h-1a1 1 0 0 0-1 1v9.1q0 1 1 1h1.2q.9 0 1-1z"/><path fill="#37474f" d="M111.6 46.5H29.2c-4.7 0-9.2.5-11.6 4.3a55 55 0 0 0-5 22.3c-.4 7-.4 10.6 6.2 10.6h5.9c4.4 0 10.8-3.3 15.7-3.4l70.7-.5c5 0 7-3.5 7-6.8V53s.2-6.5-6.5-6.5m-29 6h12q1.7.1 1.9 1.9v18.3q-.2 1.7-2 1.9h-12a2 2 0 0 1-1.9-2V54.5c0-1 .9-2 2-2m-7 22.2h-12a2 2 0 0 1-1.9-2V54.5c0-1 .9-2 2-2h12c1 0 1.9 1 1.9 2v18.3c0 1-.9 1.9-2 1.9M58.8 54.4v18.3q-.1 1.7-1.9 1.9h-12a2 2 0 0 1-2-2V54.5c0-1 1-2 2-2h12c1 0 2 1 2 2m-40 24c-4 0-3.7-2-3.5-5.6.3-7.3 2-13.6 4.6-17.5 1.6-2.4 4.6-2.8 9.3-2.8H38c1 0 2 .8 2 1.9V73a2 2 0 0 1-1.6 1.9c-4 .8-8.4 3.5-13.6 3.5zM115.4 56v14.6c0 1.2-.4 4-4.3 4h-9.7a2 2 0 0 1-2-2V54.5c0-1 1-2 2-2h10.2q2 0 2.7 1a4 4 0 0 1 1.1 2.6z"/><path fill="#37474f" d="M14.6 47c-3 0-4.5 1-6.1 2.8l-2.3 3a2.4 2.4 0 0 0-2 2.4v9.7a2.4 2.4 0 0 0 2.3 2.4h.6q.8-.1.9-.8V54.2c1.3-1.2 4.3-3.4 7.2-3.4l7.4-.6 4.4-3.7z"/><circle cx="111" cy="5.8" r="2.6" fill="#5c9aad"/><path fill="#5c9aad" d="m80.7 25.6-1.4-1.4c-.7-.7-2-.4-2.2.5l-.4 1c-.3 1.2-2.2 0-4.2 1.6q-1.2 1.1-1.5 2.2h7q.2-1.1 1.2-1.5l.9-.1c1-.3 1.4-1.5.6-2.3"/></svg>