<svg viewBox="0 0 128 128"><path fill="#fff" d="M106.1 42.5c0 1.3 1 2.4 2.3 2.4s2-1.4 2-2.3-1.2-2-2.2-2c-1-.1-2 1-2 1.9m-71-38c-.9.9-.6 2.3.2 2.8s2 .4 2.5-.3.6-1.8-.2-2.6c-.7-.7-2-.5-2.5 0" opacity=".5"/><path fill="#fff" d="M113.6 95.2s1.2-3.3 1.8-3.3 1.7 3.3 1.7 3.3 3.5 0 3.7.5c.3.7-2.2 2.8-2.2 2.8s.8 3.3.4 3.6c-.4.5-3.4-1.2-3.4-1.2s-3 2-3.7 1.5c-.5-.5.7-4 .7-4s-2.9-2-2.7-2.6c.2-.8 3.7-.6 3.7-.6m2.4-58.6c-.2 2 1.2 3.7 3.3 3.6a3.2 3.2 0 0 0 3-3.6q-.5-3-3.1-3c-2.6 0-3.2 1.8-3.3 3M25.2 16.3c-.2 1.7 1 3.2 2.8 3.2s3-1.6 2.9-3.3q-.4-2.7-3-2.6c-1.4.1-2.5 1.6-2.7 2.7"/><path fill="#fff" d="M81 109.2c-.1 1.8 1.2 3.4 3.1 3.3a3 3 0 0 0 2.9-3.3c-.2-2-1.5-2.7-3-2.8s-2.9 1.6-3 2.8" opacity=".5"/><radialGradient id="a" cx="50" cy="75.7" r="49.1" gradientUnits="userSpaceOnUse"><stop offset=".2" stop-color="#4cf9ff" stop-opacity=".7"/><stop offset="1" stop-color="#4cf9ff" stop-opacity="0"/></radialGradient><path fill="url(#a)" d="m36.9 74.1-21 39L32.5 127h28.4l9.8-42.1z"/><path fill="#848484" d="M19.4 66.3c-1.1-1.3-6.8-10.7-9.6-17.7S4.2 31.9 4.2 31.9l45.2 5 74 41.5s-7.5 4.6-17.5 9-15 5.7-16 6-15 .8-38.3-8.2a93 93 0 0 1-32.2-19"/><path fill="#9a9a9a" d="m16.3 30.1-9.8-.9s-1.3 0-2 .8-.3 1.9-.3 1.9 20 18.2 56 32.5c38.6 15.4 63.2 14 63.2 14s1.1-.5 1.1-1.6-.9-1.8-.9-1.8L62.7 46.7z"/><path fill="#b0b0b0" d="M72 30c-16-6.8-27.3-5.4-32.3-5.3S6.5 29.2 6.5 29.2A213 213 0 0 0 123.6 75s-12.5-16-20.2-23.8A80 80 0 0 0 72 30"/><path fill="#e3e3df" d="M31.9 27.9c-1.5-.8-13.1 1.3-13.1 5 0 2.8 6 6.2 12 9.3C36 45 45 48.7 45.3 46.3 45.8 43.5 36 41 33 35.8c-2.2-3.8.9-6.8-1-8"/><path fill="#9a9a9a" d="M103.4 55c-2 0-2.1 3.3-6.8 4.7s-14.9-1.2-16.1.3c-2.5 2.8 24.9 12.2 30.3 7.8 4-3.2-5.7-13-7.4-12.9"/><path fill="#4b7179" d="M44.8 23.2s-1.5 2.5-1.2 4.3c.5 3 6 8.7 23.6 15.4 18.3 6.9 27.8 5.3 29 3.6.9-1.2.9-3.9.9-3.9L69.8 30.1z"/><path fill="#64dac1" d="M44.8 23.2s12.3-21.7 36-13c21.6 8 16.3 32.4 16.3 32.4s-28.4-6.5-30-7.5z"/><path fill="#53b4a0" d="M68.7 38.7C46.3 30 44.8 23.2 44.8 23.2s8.8-1.6 27.8 5.5c20.3 7.5 24.5 13.9 24.5 13.9s-9.5 3.5-28.4-3.9"/><path fill="#53b4a0" d="M70.8 29s1.5-3.3 1.2-4.8c-.6-2.5-2.2-4.9-1.2-7.3q2.4-5.1 8.6-2.7c4 1.5 4.7 5.1 3.6 7.5-1.4 3.3-3.7 2.8-5.4 4.3a13 13 0 0 0-2.5 4.7z"/><path fill="#9cfcec" d="M51.2 27.7c2.4 1 4.2-3.9 9-8.4 5.5-5.4 13.6-7.1 13-8.7-.6-1.9-10.7-1-17.3 4.7-6.2 5.4-7.4 11.3-4.7 12.4M87.8 40c-.2 2 3.6 2.7 5.6 1 2.8-2 2.5-7 .5-7.2s-1.7 2.5-3 3.6-3 1.2-3.1 2.6"/><radialGradient id="b" cx="34" cy="66.9" r="9.9" gradientUnits="userSpaceOnUse"><stop offset="0" stop-color="#53b4a0"/><stop offset="1" stop-color="#53b4a0" stop-opacity="0"/></radialGradient><ellipse cx="34" cy="66.9" fill="url(#b)" rx="9.8" ry="10"/><radialGradient id="c" cx="54.9" cy="77.6" r="10.8" gradientTransform="matrix(1 0 0 .9422 0 4.49)" gradientUnits="userSpaceOnUse"><stop offset="0" stop-color="#53b4a0"/><stop offset="1" stop-color="#53b4a0" stop-opacity="0"/></radialGradient><ellipse cx="54.9" cy="77.6" fill="url(#c)" rx="11" ry="10.6"/><radialGradient id="d" cx="76.3" cy="83.3" r="9.9" gradientTransform="matrix(.9468 0 0 .9216 3.509 7.294)" gradientUnits="userSpaceOnUse"><stop offset="0" stop-color="#53b4a0"/><stop offset="1" stop-color="#53b4a0" stop-opacity="0"/></radialGradient><ellipse cx="75.7" cy="84" fill="url(#d)" rx="9.3" ry="9.2"/><radialGradient id="e" cx="96.1" cy="85.2" r="9" gradientTransform="matrix(.9598 -.2807 .2642 .9033 -18.681 35.09)" gradientUnits="userSpaceOnUse"><stop offset="0" stop-color="#53b4a0"/><stop offset="1" stop-color="#53b4a0" stop-opacity="0"/></radialGradient><path fill="url(#e)" d="M104.8 82.5c1.3 4.7-1.5 9.6-6.3 11s-9.8-1.2-11.2-5.9 1.5-9.5 6.3-10.9a9 9 0 0 1 11.2 5.8"/><radialGradient id="f" cx="20.3" cy="54.1" r="10.4" gradientUnits="userSpaceOnUse"><stop offset="0" stop-color="#53b4a0" stop-opacity=".7"/><stop offset="1" stop-color="#53b4a0" stop-opacity="0"/></radialGradient><ellipse cx="20.3" cy="54.1" fill="none" stroke="url(#f)" stroke-miterlimit="10" rx="9.8" ry="10"/><path fill="#53b4a0" d="M31.4 64.1a4.3 4.3 0 0 0 .5 6.5c2.1 1.5 4.5.6 5.6-.7s1.2-4.3-.5-5.8-4.2-1.4-5.6 0"/><path fill="#9cfcec" d="M32.8 66c-.8.7-.9 2 .1 2.8 1 1 2.4.6 3-.2.7-1 .5-2.3-.4-2.9s-1.9-.7-2.7.2"/><path fill="#53b4a0" d="M50.2 76.7c-1 2.3.6 4.8 3.5 5.5 2.6.6 4.9-.6 5.5-3 .5-2-.6-4.5-3.3-5.2-2.3-.5-4.7.2-5.7 2.7"/><path fill="#9cfcec" d="M53.2 76.6q-1.3 1.4.1 2.9c1 .8 2.5.5 3-.3.7-1 .5-2.3-.4-2.9-.8-.5-1.9-.7-2.7.3"/><path fill="#53b4a0" d="M73.2 81c-1.9 1.6-1.9 4.5 0 6.3 1.7 1.6 4 1.5 5.6-.2 1.4-1.7 1.7-4.3 0-6-1.5-1.5-3.6-1.8-5.6 0"/><path fill="#9cfcec" d="M77.3 82.7q-1.4-1.3-2.9 0c-.8 1-.6 2.5.2 3.1s2.2.6 2.8-.3q1-1.5-.1-2.8"/><path fill="#53b4a0" d="M97.3 80.8a4.3 4.3 0 0 0-5 3.8c-.2 2.2 1.4 4 3.7 4 2.1.1 4.4-1.2 4.7-3.5.3-2-.7-3.8-3.4-4.3"/><path fill="#9cfcec" d="M94.5 84.7c0 1 .7 2 2 2s2.3-1.3 2.2-2.3c-.2-1.1-1.2-2-2.3-1.8s-1.9.8-2 2"/><radialGradient id="g" cx="19.8" cy="54.9" r="9.9" gradientTransform="rotate(-56.933 19.661 54.439)" gradientUnits="userSpaceOnUse"><stop offset="0" stop-color="#53b4a0"/><stop offset="1" stop-color="#53b4a0" stop-opacity="0"/></radialGradient><path fill="url(#g)" d="M25.5 46.3c4.6 3 6 9.2 3 13.7s-9 5.7-13.7 2.7-6-9.1-3-13.6 9-5.8 13.7-2.8"/><path fill="#53b4a0" d="M18.8 50.6c-2.4 1-3.1 3.3-2.2 5.6.8 2.1 3 3 5.2 2.3s3.5-3 2.3-5.6a4 4 0 0 0-5.3-2.3"/><path fill="#9cfcec" d="M19.2 52.6c-1 .7-1.3 2-.5 3s2.2 1 3 .4 1-2.1.1-3-1.9-.9-2.7-.4"/></svg>